<?xml version="1.0" encoding="UTF-8" standalone="no"?>
<!DOCTYPE svg PUBLIC "-//W3C//DTD SVG 1.1//EN"
 "http://www.w3.org/Graphics/SVG/1.1/DTD/svg11.dtd">
<!-- Generated by graphviz version 2.43.0 (0)
 -->
<!-- Title: src/gui/windows/peripherals/arm_timer_window.hpp Pages: 1 -->
<svg width="542pt" height="274pt"
 viewBox="0.00 0.00 541.59 274.00" xmlns="http://www.w3.org/2000/svg" xmlns:xlink="http://www.w3.org/1999/xlink">
<g id="graph0" class="graph" transform="scale(1 1) rotate(0) translate(4 270)">
<title>src/gui/windows/peripherals/arm_timer_window.hpp</title>
<!-- Node1 -->
<g id="node1" class="node">
<title>Node1</title>
<g id="a_node1"><a xlink:title=" ">
<polygon fill="#bfbfbf" stroke="black" points="9.59,-235.5 9.59,-265.5 161.59,-265.5 161.59,-235.5 9.59,-235.5"/>
<text text-anchor="start" x="17.59" y="-253.5" font-family="Helvetica,sans-Serif" font-size="10.00">src/gui/windows/peripherals</text>
<text text-anchor="middle" x="85.59" y="-242.5" font-family="Helvetica,sans-Serif" font-size="10.00">/arm_timer_window.hpp</text>
</a>
</g>
</g>
<!-- Node2 -->
<g id="node2" class="node">
<title>Node2</title>
<g id="a_node2"><a xlink:title=" ">
<polygon fill="none" stroke="#bfbfbf" points="16.59,-112.5 16.59,-131.5 74.59,-131.5 74.59,-112.5 16.59,-112.5"/>
<text text-anchor="middle" x="45.59" y="-119.5" font-family="Helvetica,sans-Serif" font-size="10.00">memory</text>
</a>
</g>
</g>
<!-- Node1&#45;&gt;Node2 -->
<g id="edge1" class="edge">
<title>Node1&#45;&gt;Node2</title>
<path fill="none" stroke="midnightblue" d="M46.93,-235.37C30.82,-227.34 13.75,-215.52 4.59,-199 -2.1,-186.95 -0.39,-180.85 4.59,-168 9.04,-156.5 17.95,-146.13 26.34,-138.25"/>
<polygon fill="midnightblue" stroke="midnightblue" points="28.82,-140.73 34.05,-131.51 24.21,-135.46 28.82,-140.73"/>
</g>
<!-- Node3 -->
<g id="node3" class="node">
<title>Node3</title>
<g id="a_node3"><a xlink:title=" ">
<polygon fill="none" stroke="#bfbfbf" points="14.09,-174 14.09,-193 67.09,-193 67.09,-174 14.09,-174"/>
<text text-anchor="middle" x="40.59" y="-181" font-family="Helvetica,sans-Serif" font-size="10.00">imgui.h</text>
</a>
</g>
</g>
<!-- Node1&#45;&gt;Node3 -->
<g id="edge2" class="edge">
<title>Node1&#45;&gt;Node3</title>
<path fill="none" stroke="midnightblue" d="M75.82,-235.4C68.94,-225.46 59.7,-212.11 52.41,-201.57"/>
<polygon fill="midnightblue" stroke="midnightblue" points="55.18,-199.42 46.61,-193.19 49.42,-203.41 55.18,-199.42"/>
</g>
<!-- Node4 -->
<g id="node4" class="node">
<title>Node4</title>
<g id="a_node4"><a xlink:href="window_8hpp.html" target="_top" xlink:title=" ">
<polygon fill="none" stroke="black" points="85.59,-174 85.59,-193 177.59,-193 177.59,-174 85.59,-174"/>
<text text-anchor="middle" x="131.59" y="-181" font-family="Helvetica,sans-Serif" font-size="10.00">../../window.hpp</text>
</a>
</g>
</g>
<!-- Node1&#45;&gt;Node4 -->
<g id="edge3" class="edge">
<title>Node1&#45;&gt;Node4</title>
<path fill="none" stroke="midnightblue" d="M95.57,-235.4C102.6,-225.46 112.05,-212.11 119.51,-201.57"/>
<polygon fill="midnightblue" stroke="midnightblue" points="122.51,-203.38 125.43,-193.19 116.8,-199.34 122.51,-203.38"/>
</g>
<!-- Node5 -->
<g id="node5" class="node">
<title>Node5</title>
<g id="a_node5"><a xlink:href="arm__timer_8hpp.html" target="_top" xlink:title="This file defines the ARM timer used in BCM2835.">
<polygon fill="none" stroke="black" points="195.59,-168.5 195.59,-198.5 317.59,-198.5 317.59,-168.5 195.59,-168.5"/>
<text text-anchor="start" x="203.59" y="-186.5" font-family="Helvetica,sans-Serif" font-size="10.00">../../../core/peripherals</text>
<text text-anchor="middle" x="256.59" y="-175.5" font-family="Helvetica,sans-Serif" font-size="10.00">/arm_timer.hpp</text>
</a>
</g>
</g>
<!-- Node1&#45;&gt;Node5 -->
<g id="edge5" class="edge">
<title>Node1&#45;&gt;Node5</title>
<path fill="none" stroke="midnightblue" d="M122.69,-235.4C148.35,-225.64 182.68,-212.59 210.15,-202.15"/>
<polygon fill="midnightblue" stroke="midnightblue" points="211.45,-205.4 219.55,-198.58 208.96,-198.86 211.45,-205.4"/>
</g>
<!-- Node4&#45;&gt;Node2 -->
<g id="edge4" class="edge">
<title>Node4&#45;&gt;Node2</title>
<path fill="none" stroke="midnightblue" d="M119.26,-173.98C105.47,-164.43 82.89,-148.81 66.35,-137.37"/>
<polygon fill="midnightblue" stroke="midnightblue" points="68.1,-134.32 57.89,-131.51 64.12,-140.08 68.1,-134.32"/>
</g>
<!-- Node6 -->
<g id="node6" class="node">
<title>Node6</title>
<g id="a_node6"><a xlink:href="peripheral_8hpp.html" target="_top" xlink:title="This file defines an interface for a memory&#45;mapped peripheral.">
<polygon fill="none" stroke="black" points="36.09,-56.5 36.09,-75.5 123.09,-75.5 123.09,-56.5 36.09,-56.5"/>
<text text-anchor="middle" x="79.59" y="-63.5" font-family="Helvetica,sans-Serif" font-size="10.00">peripheral.hpp</text>
</a>
</g>
</g>
<!-- Node5&#45;&gt;Node6 -->
<g id="edge6" class="edge">
<title>Node5&#45;&gt;Node6</title>
<path fill="none" stroke="midnightblue" d="M229.27,-168.37C211.14,-158.7 187.02,-145.28 166.59,-132 142.22,-116.16 115.66,-95.83 98.38,-82.16"/>
<polygon fill="midnightblue" stroke="midnightblue" points="100.25,-79.18 90.25,-75.68 95.88,-84.65 100.25,-79.18"/>
</g>
<!-- Node7 -->
<g id="node7" class="node">
<title>Node7</title>
<g id="a_node7"><a xlink:href="interrupt__controller_8hpp.html" target="_top" xlink:title="This file defines the interrupt controller used in BCM2835.">
<polygon fill="none" stroke="black" points="176.09,-112.5 176.09,-131.5 307.09,-131.5 307.09,-112.5 176.09,-112.5"/>
<text text-anchor="middle" x="241.59" y="-119.5" font-family="Helvetica,sans-Serif" font-size="10.00">interrupt_controller.hpp</text>
</a>
</g>
</g>
<!-- Node5&#45;&gt;Node7 -->
<g id="edge7" class="edge">
<title>Node5&#45;&gt;Node7</title>
<path fill="none" stroke="midnightblue" d="M253.03,-168.4C251.01,-160.38 248.45,-150.23 246.27,-141.57"/>
<polygon fill="midnightblue" stroke="midnightblue" points="249.61,-140.5 243.77,-131.66 242.82,-142.21 249.61,-140.5"/>
</g>
<!-- Node9 -->
<g id="node9" class="node">
<title>Node9</title>
<g id="a_node9"><a xlink:href="logger_8hpp.html" target="_top" xlink:title=" ">
<polygon fill="none" stroke="black" points="254.59,-0.5 254.59,-19.5 388.59,-19.5 388.59,-0.5 254.59,-0.5"/>
<text text-anchor="middle" x="321.59" y="-7.5" font-family="Helvetica,sans-Serif" font-size="10.00">../utils/logger/logger.hpp</text>
</a>
</g>
</g>
<!-- Node5&#45;&gt;Node9 -->
<g id="edge13" class="edge">
<title>Node5&#45;&gt;Node9</title>
<path fill="none" stroke="midnightblue" d="M280.35,-168.49C293.02,-159.7 307.61,-147.15 315.59,-132 332.84,-99.24 329.2,-54.32 325.25,-29.45"/>
<polygon fill="midnightblue" stroke="midnightblue" points="328.68,-28.78 323.48,-19.55 321.79,-30.01 328.68,-28.78"/>
</g>
<!-- Node10 -->
<g id="node10" class="node">
<title>Node10</title>
<g id="a_node10"><a xlink:href="system__clock__listener_8hpp.html" target="_top" xlink:title="This file defines an interface for a CPU clock listener.">
<polygon fill="none" stroke="black" points="387.59,-112.5 387.59,-131.5 533.59,-131.5 533.59,-112.5 387.59,-112.5"/>
<text text-anchor="middle" x="460.59" y="-119.5" font-family="Helvetica,sans-Serif" font-size="10.00">system_clock_listener.hpp</text>
</a>
</g>
</g>
<!-- Node5&#45;&gt;Node10 -->
<g id="edge12" class="edge">
<title>Node5&#45;&gt;Node10</title>
<path fill="none" stroke="midnightblue" d="M304.67,-168.47C340.33,-158.08 388.32,-144.08 421.6,-134.37"/>
<polygon fill="midnightblue" stroke="midnightblue" points="422.8,-137.67 431.42,-131.51 420.84,-130.95 422.8,-137.67"/>
</g>
<!-- Node7&#45;&gt;Node6 -->
<g id="edge8" class="edge">
<title>Node7&#45;&gt;Node6</title>
<path fill="none" stroke="midnightblue" d="M215.92,-112.44C188.66,-103.36 145.4,-88.94 114.94,-78.78"/>
<polygon fill="midnightblue" stroke="midnightblue" points="115.73,-75.36 105.14,-75.52 113.52,-82 115.73,-75.36"/>
</g>
<!-- Node8 -->
<g id="node8" class="node">
<title>Node8</title>
<g id="a_node8"><a xlink:href="context_8hpp.html" target="_top" xlink:title="This file defines the context (registers) of the CPU.">
<polygon fill="none" stroke="black" points="141.59,-56.5 141.59,-75.5 293.59,-75.5 293.59,-56.5 141.59,-56.5"/>
<text text-anchor="middle" x="217.59" y="-63.5" font-family="Helvetica,sans-Serif" font-size="10.00">../arm1176jzf_s/context.hpp</text>
</a>
</g>
</g>
<!-- Node7&#45;&gt;Node8 -->
<g id="edge9" class="edge">
<title>Node7&#45;&gt;Node8</title>
<path fill="none" stroke="midnightblue" d="M237.62,-112.08C234.37,-104.77 229.67,-94.18 225.63,-85.1"/>
<polygon fill="midnightblue" stroke="midnightblue" points="228.74,-83.47 221.48,-75.75 222.34,-86.31 228.74,-83.47"/>
</g>
<!-- Node7&#45;&gt;Node9 -->
<g id="edge11" class="edge">
<title>Node7&#45;&gt;Node9</title>
<path fill="none" stroke="midnightblue" d="M258.76,-112.41C272.53,-104.68 291.36,-92.07 302.59,-76 312.16,-62.3 316.96,-43.76 319.34,-29.99"/>
<polygon fill="midnightblue" stroke="midnightblue" points="322.85,-30.15 320.81,-19.76 315.92,-29.15 322.85,-30.15"/>
</g>
<!-- Node8&#45;&gt;Node9 -->
<g id="edge10" class="edge">
<title>Node8&#45;&gt;Node9</title>
<path fill="none" stroke="midnightblue" d="M234.3,-56.32C250.9,-47.7 276.59,-34.36 295.81,-24.39"/>
<polygon fill="midnightblue" stroke="midnightblue" points="297.66,-27.37 304.92,-19.65 294.43,-21.16 297.66,-27.37"/>
</g>
</g>
</svg>
