<?xml version="1.0" encoding="UTF-8" standalone="no"?>
<!DOCTYPE svg PUBLIC "-//W3C//DTD SVG 1.1//EN"
 "http://www.w3.org/Graphics/SVG/1.1/DTD/svg11.dtd">
<!-- Generated by graphviz version 2.43.0 (0)
 -->
<!-- Title: src/core/peripherals/arm_timer.hpp Pages: 1 -->
<svg width="747pt" height="263pt"
 viewBox="0.00 0.00 746.50 263.00" xmlns="http://www.w3.org/2000/svg" xmlns:xlink="http://www.w3.org/1999/xlink">
<g id="graph0" class="graph" transform="scale(1 1) rotate(0) translate(4 259)">
<title>src/core/peripherals/arm_timer.hpp</title>
<!-- Node1 -->
<g id="node1" class="node">
<title>Node1</title>
<g id="a_node1"><a xlink:title="This file defines the ARM timer used BCM2835.">
<polygon fill="#bfbfbf" stroke="black" points="154.5,-224.5 154.5,-254.5 267.5,-254.5 267.5,-224.5 154.5,-224.5"/>
<text text-anchor="start" x="162.5" y="-242.5" font-family="Helvetica,sans-Serif" font-size="10.00">src/core/peripherals</text>
<text text-anchor="middle" x="211" y="-231.5" font-family="Helvetica,sans-Serif" font-size="10.00">/arm_timer.hpp</text>
</a>
</g>
</g>
<!-- Node2 -->
<g id="node2" class="node">
<title>Node2</title>
<g id="a_node2"><a xlink:href="peripheral_8hpp.html" target="_top" xlink:title=" ">
<polygon fill="none" stroke="black" points="101.5,-112.5 101.5,-131.5 188.5,-131.5 188.5,-112.5 101.5,-112.5"/>
<text text-anchor="middle" x="145" y="-119.5" font-family="Helvetica,sans-Serif" font-size="10.00">peripheral.hpp</text>
</a>
</g>
</g>
<!-- Node1&#45;&gt;Node2 -->
<g id="edge1" class="edge">
<title>Node1&#45;&gt;Node2</title>
<path fill="none" stroke="midnightblue" d="M202.91,-224.34C190.85,-203.24 168.2,-163.6 155.08,-140.65"/>
<polygon fill="midnightblue" stroke="midnightblue" points="157.95,-138.62 149.95,-131.67 151.88,-142.09 157.95,-138.62"/>
</g>
<!-- Node4 -->
<g id="node4" class="node">
<title>Node4</title>
<g id="a_node4"><a xlink:href="interrupt__controller_8hpp.html" target="_top" xlink:title=" ">
<polygon fill="none" stroke="black" points="229.5,-168.5 229.5,-187.5 360.5,-187.5 360.5,-168.5 229.5,-168.5"/>
<text text-anchor="middle" x="295" y="-175.5" font-family="Helvetica,sans-Serif" font-size="10.00">interrupt_controller.hpp</text>
</a>
</g>
</g>
<!-- Node1&#45;&gt;Node4 -->
<g id="edge3" class="edge">
<title>Node1&#45;&gt;Node4</title>
<path fill="none" stroke="midnightblue" d="M230.91,-224.4C243.99,-215.13 261.08,-203.03 274.32,-193.65"/>
<polygon fill="midnightblue" stroke="midnightblue" points="276.64,-196.29 282.78,-187.66 272.59,-190.58 276.64,-196.29"/>
</g>
<!-- Node8 -->
<g id="node8" class="node">
<title>Node8</title>
<g id="a_node8"><a xlink:href="logger_8hpp.html" target="_top" xlink:title=" ">
<polygon fill="none" stroke="black" points="440,-56.5 440,-75.5 574,-75.5 574,-56.5 440,-56.5"/>
<text text-anchor="middle" x="507" y="-63.5" font-family="Helvetica,sans-Serif" font-size="10.00">../utils/logger/logger.hpp</text>
</a>
</g>
</g>
<!-- Node1&#45;&gt;Node8 -->
<g id="edge18" class="edge">
<title>Node1&#45;&gt;Node8</title>
<path fill="none" stroke="midnightblue" d="M267.59,-229.3C356.29,-213.59 521.53,-178.72 556,-132 568.91,-114.51 548.61,-94.57 530.35,-81.44"/>
<polygon fill="midnightblue" stroke="midnightblue" points="531.95,-78.29 521.71,-75.58 528.02,-84.09 531.95,-78.29"/>
</g>
<!-- Node14 -->
<g id="node14" class="node">
<title>Node14</title>
<g id="a_node14"><a xlink:href="system__clock__listener_8hpp.html" target="_top" xlink:title=" ">
<polygon fill="none" stroke="black" points="0,-56.5 0,-75.5 146,-75.5 146,-56.5 0,-56.5"/>
<text text-anchor="middle" x="73" y="-63.5" font-family="Helvetica,sans-Serif" font-size="10.00">system_clock_listener.hpp</text>
</a>
</g>
</g>
<!-- Node1&#45;&gt;Node14 -->
<g id="edge16" class="edge">
<title>Node1&#45;&gt;Node14</title>
<path fill="none" stroke="midnightblue" d="M188.72,-224.34C161.89,-206.15 117.29,-172.1 92,-132 83.08,-117.86 78.21,-99.37 75.64,-85.73"/>
<polygon fill="midnightblue" stroke="midnightblue" points="79.05,-84.92 73.98,-75.62 72.15,-86.05 79.05,-84.92"/>
</g>
<!-- Node3 -->
<g id="node3" class="node">
<title>Node3</title>
<g id="a_node3"><a xlink:title=" ">
<polygon fill="none" stroke="#bfbfbf" points="149,-0.5 149,-19.5 199,-19.5 199,-0.5 149,-0.5"/>
<text text-anchor="middle" x="174" y="-7.5" font-family="Helvetica,sans-Serif" font-size="10.00">cstdint</text>
</a>
</g>
</g>
<!-- Node2&#45;&gt;Node3 -->
<g id="edge2" class="edge">
<title>Node2&#45;&gt;Node3</title>
<path fill="none" stroke="midnightblue" d="M147.28,-112.37C151.98,-94.54 162.85,-53.3 169.18,-29.27"/>
<polygon fill="midnightblue" stroke="midnightblue" points="172.57,-30.15 171.73,-19.59 165.8,-28.37 172.57,-30.15"/>
</g>
<!-- Node4&#45;&gt;Node2 -->
<g id="edge6" class="edge">
<title>Node4&#45;&gt;Node2</title>
<path fill="none" stroke="midnightblue" d="M271.23,-168.44C246.11,-159.4 206.29,-145.06 178.1,-134.92"/>
<polygon fill="midnightblue" stroke="midnightblue" points="179.25,-131.61 168.66,-131.52 176.88,-138.2 179.25,-131.61"/>
</g>
<!-- Node5 -->
<g id="node5" class="node">
<title>Node5</title>
<g id="a_node5"><a xlink:title=" ">
<polygon fill="none" stroke="#bfbfbf" points="207,-112.5 207,-131.5 249,-131.5 249,-112.5 207,-112.5"/>
<text text-anchor="middle" x="228" y="-119.5" font-family="Helvetica,sans-Serif" font-size="10.00">array</text>
</a>
</g>
</g>
<!-- Node4&#45;&gt;Node5 -->
<g id="edge4" class="edge">
<title>Node4&#45;&gt;Node5</title>
<path fill="none" stroke="midnightblue" d="M284.24,-168.32C274.23,-160.26 259.11,-148.08 247.07,-138.37"/>
<polygon fill="midnightblue" stroke="midnightblue" points="248.94,-135.38 238.96,-131.83 244.55,-140.83 248.94,-135.38"/>
</g>
<!-- Node6 -->
<g id="node6" class="node">
<title>Node6</title>
<g id="a_node6"><a xlink:title=" ">
<polygon fill="none" stroke="#bfbfbf" points="267.5,-112.5 267.5,-131.5 360.5,-131.5 360.5,-112.5 267.5,-112.5"/>
<text text-anchor="middle" x="314" y="-119.5" font-family="Helvetica,sans-Serif" font-size="10.00">unordered_map</text>
</a>
</g>
</g>
<!-- Node4&#45;&gt;Node6 -->
<g id="edge5" class="edge">
<title>Node4&#45;&gt;Node6</title>
<path fill="none" stroke="midnightblue" d="M298.14,-168.08C300.68,-160.85 304.36,-150.41 307.53,-141.4"/>
<polygon fill="midnightblue" stroke="midnightblue" points="310.9,-142.35 310.92,-131.75 304.3,-140.02 310.9,-142.35"/>
</g>
<!-- Node7 -->
<g id="node7" class="node">
<title>Node7</title>
<g id="a_node7"><a xlink:href="context_8hpp.html" target="_top" xlink:title="This file defines the context (registers) of the CPU.">
<polygon fill="none" stroke="black" points="379,-112.5 379,-131.5 531,-131.5 531,-112.5 379,-112.5"/>
<text text-anchor="middle" x="455" y="-119.5" font-family="Helvetica,sans-Serif" font-size="10.00">../arm1176jzf_s/context.hpp</text>
</a>
</g>
</g>
<!-- Node4&#45;&gt;Node7 -->
<g id="edge7" class="edge">
<title>Node4&#45;&gt;Node7</title>
<path fill="none" stroke="midnightblue" d="M320.35,-168.44C347.27,-159.36 390,-144.94 420.09,-134.78"/>
<polygon fill="midnightblue" stroke="midnightblue" points="421.41,-138.03 429.77,-131.52 419.17,-131.4 421.41,-138.03"/>
</g>
<!-- Node4&#45;&gt;Node8 -->
<g id="edge15" class="edge">
<title>Node4&#45;&gt;Node8</title>
<path fill="none" stroke="midnightblue" d="M360.77,-174.14C425.42,-169.79 517.58,-158.91 540,-132 552.44,-117.07 538.08,-96.66 524.6,-82.72"/>
<polygon fill="midnightblue" stroke="midnightblue" points="526.99,-80.16 517.37,-75.72 522.12,-85.19 526.99,-80.16"/>
</g>
<!-- Node7&#45;&gt;Node8 -->
<g id="edge8" class="edge">
<title>Node7&#45;&gt;Node8</title>
<path fill="none" stroke="midnightblue" d="M463.59,-112.08C471.16,-104.22 482.38,-92.57 491.51,-83.08"/>
<polygon fill="midnightblue" stroke="midnightblue" points="494.16,-85.38 498.57,-75.75 489.12,-80.53 494.16,-85.38"/>
</g>
<!-- Node8&#45;&gt;Node3 -->
<g id="edge12" class="edge">
<title>Node8&#45;&gt;Node3</title>
<path fill="none" stroke="midnightblue" d="M454.24,-56.44C385.69,-45.33 267.9,-26.23 209.28,-16.72"/>
<polygon fill="midnightblue" stroke="midnightblue" points="209.47,-13.21 199.04,-15.06 208.35,-20.12 209.47,-13.21"/>
</g>
<!-- Node9 -->
<g id="node9" class="node">
<title>Node9</title>
<g id="a_node9"><a xlink:title=" ">
<polygon fill="none" stroke="#bfbfbf" points="346,-0.5 346,-19.5 394,-19.5 394,-0.5 346,-0.5"/>
<text text-anchor="middle" x="370" y="-7.5" font-family="Helvetica,sans-Serif" font-size="10.00">mutex</text>
</a>
</g>
</g>
<!-- Node8&#45;&gt;Node9 -->
<g id="edge9" class="edge">
<title>Node8&#45;&gt;Node9</title>
<path fill="none" stroke="midnightblue" d="M485.29,-56.44C462.65,-47.52 426.93,-33.44 401.25,-23.32"/>
<polygon fill="midnightblue" stroke="midnightblue" points="402.19,-19.93 391.61,-19.52 399.63,-26.44 402.19,-19.93"/>
</g>
<!-- Node10 -->
<g id="node10" class="node">
<title>Node10</title>
<g id="a_node10"><a xlink:title=" ">
<polygon fill="none" stroke="#bfbfbf" points="412.5,-0.5 412.5,-19.5 459.5,-19.5 459.5,-0.5 412.5,-0.5"/>
<text text-anchor="middle" x="436" y="-7.5" font-family="Helvetica,sans-Serif" font-size="10.00">vector</text>
</a>
</g>
</g>
<!-- Node8&#45;&gt;Node10 -->
<g id="edge10" class="edge">
<title>Node8&#45;&gt;Node10</title>
<path fill="none" stroke="midnightblue" d="M495.59,-56.32C484.89,-48.18 468.66,-35.84 455.84,-26.09"/>
<polygon fill="midnightblue" stroke="midnightblue" points="457.69,-23.1 447.61,-19.83 453.46,-28.67 457.69,-23.1"/>
</g>
<!-- Node11 -->
<g id="node11" class="node">
<title>Node11</title>
<g id="a_node11"><a xlink:title=" ">
<polygon fill="none" stroke="#bfbfbf" points="478,-0.5 478,-19.5 536,-19.5 536,-0.5 478,-0.5"/>
<text text-anchor="middle" x="507" y="-7.5" font-family="Helvetica,sans-Serif" font-size="10.00">memory</text>
</a>
</g>
</g>
<!-- Node8&#45;&gt;Node11 -->
<g id="edge11" class="edge">
<title>Node8&#45;&gt;Node11</title>
<path fill="none" stroke="midnightblue" d="M507,-56.08C507,-49.01 507,-38.86 507,-29.99"/>
<polygon fill="midnightblue" stroke="midnightblue" points="510.5,-29.75 507,-19.75 503.5,-29.75 510.5,-29.75"/>
</g>
<!-- Node12 -->
<g id="node12" class="node">
<title>Node12</title>
<g id="a_node12"><a xlink:title=" ">
<polygon fill="none" stroke="#bfbfbf" points="554.5,-0.5 554.5,-19.5 627.5,-19.5 627.5,-0.5 554.5,-0.5"/>
<text text-anchor="middle" x="591" y="-7.5" font-family="Helvetica,sans-Serif" font-size="10.00">string_view</text>
</a>
</g>
</g>
<!-- Node8&#45;&gt;Node12 -->
<g id="edge13" class="edge">
<title>Node8&#45;&gt;Node12</title>
<path fill="none" stroke="midnightblue" d="M520.5,-56.32C533.6,-47.9 553.71,-34.97 569.11,-25.07"/>
<polygon fill="midnightblue" stroke="midnightblue" points="571.02,-28.01 577.54,-19.65 567.23,-22.12 571.02,-28.01"/>
</g>
<!-- Node13 -->
<g id="node13" class="node">
<title>Node13</title>
<g id="a_node13"><a xlink:title=" ">
<polygon fill="none" stroke="#bfbfbf" points="645.5,-0.5 645.5,-19.5 738.5,-19.5 738.5,-0.5 645.5,-0.5"/>
<text text-anchor="middle" x="692" y="-7.5" font-family="Helvetica,sans-Serif" font-size="10.00">source_location</text>
</a>
</g>
</g>
<!-- Node8&#45;&gt;Node13 -->
<g id="edge14" class="edge">
<title>Node8&#45;&gt;Node13</title>
<path fill="none" stroke="midnightblue" d="M536.31,-56.44C567.84,-47.24 618.13,-32.56 652.99,-22.39"/>
<polygon fill="midnightblue" stroke="midnightblue" points="654.2,-25.68 662.82,-19.52 652.24,-18.96 654.2,-25.68"/>
</g>
<!-- Node14&#45;&gt;Node3 -->
<g id="edge17" class="edge">
<title>Node14&#45;&gt;Node3</title>
<path fill="none" stroke="midnightblue" d="M89.23,-56.32C105.35,-47.7 130.3,-34.36 148.96,-24.39"/>
<polygon fill="midnightblue" stroke="midnightblue" points="150.64,-27.46 157.81,-19.65 147.34,-21.28 150.64,-27.46"/>
</g>
</g>
</svg>
