<?xml version="1.0" encoding="UTF-8" standalone="no"?>
<!DOCTYPE svg PUBLIC "-//W3C//DTD SVG 1.1//EN"
 "http://www.w3.org/Graphics/SVG/1.1/DTD/svg11.dtd">
<!-- Generated by graphviz version 2.43.0 (0)
 -->
<!-- Title: src/gui/windows/peripherals/arm_timer_window.cpp Pages: 1 -->
<svg width="535pt" height="397pt"
 viewBox="0.00 0.00 534.50 397.00" xmlns="http://www.w3.org/2000/svg" xmlns:xlink="http://www.w3.org/1999/xlink">
<g id="graph0" class="graph" transform="scale(1 1) rotate(0) translate(4 393)">
<title>src/gui/windows/peripherals/arm_timer_window.cpp</title>
<!-- Node1 -->
<g id="node1" class="node">
<title>Node1</title>
<g id="a_node1"><a xlink:title="This file implements a window that visualizes the contents of the ARM timer registers.">
<polygon fill="#bfbfbf" stroke="black" points="24.5,-358.5 24.5,-388.5 176.5,-388.5 176.5,-358.5 24.5,-358.5"/>
<text text-anchor="start" x="32.5" y="-376.5" font-family="Helvetica,sans-Serif" font-size="10.00">src/gui/windows/peripherals</text>
<text text-anchor="middle" x="100.5" y="-365.5" font-family="Helvetica,sans-Serif" font-size="10.00">/arm_timer_window.cpp</text>
</a>
</g>
</g>
<!-- Node2 -->
<g id="node2" class="node">
<title>Node2</title>
<g id="a_node2"><a xlink:title=" ">
<polygon fill="none" stroke="#bfbfbf" points="0,-302.5 0,-321.5 79,-321.5 79,-302.5 0,-302.5"/>
<text text-anchor="middle" x="39.5" y="-309.5" font-family="Helvetica,sans-Serif" font-size="10.00">fmt/format.h</text>
</a>
</g>
</g>
<!-- Node1&#45;&gt;Node2 -->
<g id="edge1" class="edge">
<title>Node1&#45;&gt;Node2</title>
<path fill="none" stroke="midnightblue" d="M86.04,-358.4C76.91,-349.49 65.08,-337.95 55.64,-328.74"/>
<polygon fill="midnightblue" stroke="midnightblue" points="57.98,-326.13 48.38,-321.66 53.09,-331.15 57.98,-326.13"/>
</g>
<!-- Node3 -->
<g id="node3" class="node">
<title>Node3</title>
<g id="a_node3"><a xlink:href="arm__timer__window_8hpp.html" target="_top" xlink:title="This file defines a window that visualizes the contents of the ARM timer registers.">
<polygon fill="none" stroke="black" points="97,-302.5 97,-321.5 228,-321.5 228,-302.5 97,-302.5"/>
<text text-anchor="middle" x="162.5" y="-309.5" font-family="Helvetica,sans-Serif" font-size="10.00">arm_timer_window.hpp</text>
</a>
</g>
</g>
<!-- Node1&#45;&gt;Node3 -->
<g id="edge2" class="edge">
<title>Node1&#45;&gt;Node3</title>
<path fill="none" stroke="midnightblue" d="M115.19,-358.4C124.48,-349.49 136.5,-337.95 146.1,-328.74"/>
<polygon fill="midnightblue" stroke="midnightblue" points="148.69,-331.11 153.48,-321.66 143.84,-326.06 148.69,-331.11"/>
</g>
<!-- Node4 -->
<g id="node4" class="node">
<title>Node4</title>
<g id="a_node4"><a xlink:href="window_8hpp.html" target="_top" xlink:title="This file defines an interface for all windows that will be rendered by the application.">
<polygon fill="none" stroke="black" points="44.5,-241 44.5,-260 136.5,-260 136.5,-241 44.5,-241"/>
<text text-anchor="middle" x="90.5" y="-248" font-family="Helvetica,sans-Serif" font-size="10.00">../../window.hpp</text>
</a>
</g>
</g>
<!-- Node3&#45;&gt;Node4 -->
<g id="edge3" class="edge">
<title>Node3&#45;&gt;Node4</title>
<path fill="none" stroke="midnightblue" d="M152.18,-302.48C140.85,-293.11 122.43,-277.88 108.66,-266.51"/>
<polygon fill="midnightblue" stroke="midnightblue" points="110.73,-263.68 100.8,-260.01 106.28,-269.08 110.73,-263.68"/>
</g>
<!-- Node6 -->
<g id="node6" class="node">
<title>Node6</title>
<g id="a_node6"><a xlink:href="arm__timer_8hpp.html" target="_top" xlink:title="This file defines the ARM timer used in BCM2835.">
<polygon fill="none" stroke="black" points="173.5,-235.5 173.5,-265.5 295.5,-265.5 295.5,-235.5 173.5,-235.5"/>
<text text-anchor="start" x="181.5" y="-253.5" font-family="Helvetica,sans-Serif" font-size="10.00">../../../core/peripherals</text>
<text text-anchor="middle" x="234.5" y="-242.5" font-family="Helvetica,sans-Serif" font-size="10.00">/arm_timer.hpp</text>
</a>
</g>
</g>
<!-- Node3&#45;&gt;Node6 -->
<g id="edge5" class="edge">
<title>Node3&#45;&gt;Node6</title>
<path fill="none" stroke="midnightblue" d="M172.82,-302.48C182.38,-294.57 197.01,-282.48 209.61,-272.07"/>
<polygon fill="midnightblue" stroke="midnightblue" points="212.05,-274.59 217.53,-265.52 207.59,-269.2 212.05,-274.59"/>
</g>
<!-- Node5 -->
<g id="node5" class="node">
<title>Node5</title>
<g id="a_node5"><a xlink:title=" ">
<polygon fill="none" stroke="#bfbfbf" points="28.5,-179.5 28.5,-198.5 112.5,-198.5 112.5,-179.5 28.5,-179.5"/>
<text text-anchor="middle" x="70.5" y="-186.5" font-family="Helvetica,sans-Serif" font-size="10.00">imgui/imgui.h</text>
</a>
</g>
</g>
<!-- Node4&#45;&gt;Node5 -->
<g id="edge4" class="edge">
<title>Node4&#45;&gt;Node5</title>
<path fill="none" stroke="midnightblue" d="M87.63,-240.98C84.78,-232.49 80.32,-219.2 76.66,-208.32"/>
<polygon fill="midnightblue" stroke="midnightblue" points="79.86,-206.87 73.36,-198.51 73.23,-209.1 79.86,-206.87"/>
</g>
<!-- Node7 -->
<g id="node7" class="node">
<title>Node7</title>
<g id="a_node7"><a xlink:href="peripheral_8hpp.html" target="_top" xlink:title="This file defines an interface for a memory&#45;mapped peripheral.">
<polygon fill="none" stroke="black" points="29,-123.5 29,-142.5 116,-142.5 116,-123.5 29,-123.5"/>
<text text-anchor="middle" x="72.5" y="-130.5" font-family="Helvetica,sans-Serif" font-size="10.00">peripheral.hpp</text>
</a>
</g>
</g>
<!-- Node6&#45;&gt;Node7 -->
<g id="edge6" class="edge">
<title>Node6&#45;&gt;Node7</title>
<path fill="none" stroke="midnightblue" d="M212.97,-235.41C197.88,-225.43 177.29,-211.63 159.5,-199 135.93,-182.28 109.4,-162.28 91.9,-148.92"/>
<polygon fill="midnightblue" stroke="midnightblue" points="93.7,-145.89 83.63,-142.59 89.44,-151.45 93.7,-145.89"/>
</g>
<!-- Node8 -->
<g id="node8" class="node">
<title>Node8</title>
<g id="a_node8"><a xlink:href="interrupt__controller_8hpp.html" target="_top" xlink:title="This file defines the interrupt controller used in BCM2835.">
<polygon fill="none" stroke="black" points="169,-179.5 169,-198.5 300,-198.5 300,-179.5 169,-179.5"/>
<text text-anchor="middle" x="234.5" y="-186.5" font-family="Helvetica,sans-Serif" font-size="10.00">interrupt_controller.hpp</text>
</a>
</g>
</g>
<!-- Node6&#45;&gt;Node8 -->
<g id="edge7" class="edge">
<title>Node6&#45;&gt;Node8</title>
<path fill="none" stroke="midnightblue" d="M234.5,-235.4C234.5,-227.47 234.5,-217.46 234.5,-208.86"/>
<polygon fill="midnightblue" stroke="midnightblue" points="238,-208.66 234.5,-198.66 231,-208.66 238,-208.66"/>
</g>
<!-- Node10 -->
<g id="node10" class="node">
<title>Node10</title>
<g id="a_node10"><a xlink:href="logging__system_8hpp.html" target="_top" xlink:title="This file defines a logging system that is used in the project.">
<polygon fill="none" stroke="black" points="249,-56.5 249,-86.5 380,-86.5 380,-56.5 249,-56.5"/>
<text text-anchor="start" x="257" y="-74.5" font-family="Helvetica,sans-Serif" font-size="10.00">zero_mate/utils/logging</text>
<text text-anchor="middle" x="314.5" y="-63.5" font-family="Helvetica,sans-Serif" font-size="10.00">_system.hpp</text>
</a>
</g>
</g>
<!-- Node6&#45;&gt;Node10 -->
<g id="edge14" class="edge">
<title>Node6&#45;&gt;Node10</title>
<path fill="none" stroke="midnightblue" d="M266.85,-235.45C282.06,-227.11 298.91,-215.01 308.5,-199 327.26,-167.66 324.2,-123.73 319.74,-96.74"/>
<polygon fill="midnightblue" stroke="midnightblue" points="323.13,-95.83 317.87,-86.63 316.24,-97.1 323.13,-95.83"/>
</g>
<!-- Node12 -->
<g id="node12" class="node">
<title>Node12</title>
<g id="a_node12"><a xlink:href="system__clock__listener_8hpp.html" target="_top" xlink:title="This file defines an interface for a CPU clock listener.">
<polygon fill="none" stroke="black" points="380.5,-179.5 380.5,-198.5 526.5,-198.5 526.5,-179.5 380.5,-179.5"/>
<text text-anchor="middle" x="453.5" y="-186.5" font-family="Helvetica,sans-Serif" font-size="10.00">system_clock_listener.hpp</text>
</a>
</g>
</g>
<!-- Node6&#45;&gt;Node12 -->
<g id="edge13" class="edge">
<title>Node6&#45;&gt;Node12</title>
<path fill="none" stroke="midnightblue" d="M286.12,-235.47C324.56,-225.03 376.36,-210.96 412.1,-201.25"/>
<polygon fill="midnightblue" stroke="midnightblue" points="413.46,-204.51 422.19,-198.51 411.62,-197.75 413.46,-204.51"/>
</g>
<!-- Node8&#45;&gt;Node7 -->
<g id="edge8" class="edge">
<title>Node8&#45;&gt;Node7</title>
<path fill="none" stroke="midnightblue" d="M208.83,-179.44C181.58,-170.36 138.32,-155.94 107.85,-145.78"/>
<polygon fill="midnightblue" stroke="midnightblue" points="108.64,-142.36 98.05,-142.52 106.43,-149 108.64,-142.36"/>
</g>
<!-- Node9 -->
<g id="node9" class="node">
<title>Node9</title>
<g id="a_node9"><a xlink:href="context_8hpp.html" target="_top" xlink:title="This file defines the context (registers) of the CPU.">
<polygon fill="none" stroke="black" points="134.5,-123.5 134.5,-142.5 286.5,-142.5 286.5,-123.5 134.5,-123.5"/>
<text text-anchor="middle" x="210.5" y="-130.5" font-family="Helvetica,sans-Serif" font-size="10.00">../arm1176jzf_s/context.hpp</text>
</a>
</g>
</g>
<!-- Node8&#45;&gt;Node9 -->
<g id="edge9" class="edge">
<title>Node8&#45;&gt;Node9</title>
<path fill="none" stroke="midnightblue" d="M230.54,-179.08C227.29,-171.77 222.58,-161.18 218.55,-152.1"/>
<polygon fill="midnightblue" stroke="midnightblue" points="221.65,-150.47 214.39,-142.75 215.25,-153.31 221.65,-150.47"/>
</g>
<!-- Node8&#45;&gt;Node10 -->
<g id="edge12" class="edge">
<title>Node8&#45;&gt;Node10</title>
<path fill="none" stroke="midnightblue" d="M251.77,-179.47C265.59,-171.78 284.44,-159.19 295.5,-143 304.84,-129.32 309.6,-111.23 312.02,-96.81"/>
<polygon fill="midnightblue" stroke="midnightblue" points="315.52,-97.01 313.45,-86.62 308.59,-96.04 315.52,-97.01"/>
</g>
<!-- Node9&#45;&gt;Node10 -->
<g id="edge10" class="edge">
<title>Node9&#45;&gt;Node10</title>
<path fill="none" stroke="midnightblue" d="M225.4,-123.48C239.88,-115.19 262.37,-102.32 281.13,-91.59"/>
<polygon fill="midnightblue" stroke="midnightblue" points="283.05,-94.53 289.99,-86.52 279.57,-88.45 283.05,-94.53"/>
</g>
<!-- Node11 -->
<g id="node11" class="node">
<title>Node11</title>
<g id="a_node11"><a xlink:href="logger_8hpp.html" target="_top" xlink:title="This file defines a general logger interface.">
<polygon fill="none" stroke="black" points="280.5,-0.5 280.5,-19.5 348.5,-19.5 348.5,-0.5 280.5,-0.5"/>
<text text-anchor="middle" x="314.5" y="-7.5" font-family="Helvetica,sans-Serif" font-size="10.00">logger.hpp</text>
</a>
</g>
</g>
<!-- Node10&#45;&gt;Node11 -->
<g id="edge11" class="edge">
<title>Node10&#45;&gt;Node11</title>
<path fill="none" stroke="midnightblue" d="M314.5,-56.4C314.5,-48.47 314.5,-38.46 314.5,-29.86"/>
<polygon fill="midnightblue" stroke="midnightblue" points="318,-29.66 314.5,-19.66 311,-29.66 318,-29.66"/>
</g>
</g>
</svg>
