<?xml version="1.0" encoding="UTF-8" standalone="no"?>
<!DOCTYPE svg PUBLIC "-//W3C//DTD SVG 1.1//EN"
 "http://www.w3.org/Graphics/SVG/1.1/DTD/svg11.dtd">
<!-- Generated by graphviz version 2.43.0 (0)
 -->
<!-- Title: src/gui/windows/peripherals/arm_timer_window.cpp Pages: 1 -->
<svg width="535pt" height="386pt"
 viewBox="0.00 0.00 534.50 386.00" xmlns="http://www.w3.org/2000/svg" xmlns:xlink="http://www.w3.org/1999/xlink">
<g id="graph0" class="graph" transform="scale(1 1) rotate(0) translate(4 382)">
<title>src/gui/windows/peripherals/arm_timer_window.cpp</title>
<!-- Node1 -->
<g id="node1" class="node">
<title>Node1</title>
<g id="a_node1"><a xlink:title="This file implements a window that visualizes the contents of the ARM timer registers.">
<polygon fill="#bfbfbf" stroke="black" points="24.5,-347.5 24.5,-377.5 176.5,-377.5 176.5,-347.5 24.5,-347.5"/>
<text text-anchor="start" x="32.5" y="-365.5" font-family="Helvetica,sans-Serif" font-size="10.00">src/gui/windows/peripherals</text>
<text text-anchor="middle" x="100.5" y="-354.5" font-family="Helvetica,sans-Serif" font-size="10.00">/arm_timer_window.cpp</text>
</a>
</g>
</g>
<!-- Node2 -->
<g id="node2" class="node">
<title>Node2</title>
<g id="a_node2"><a xlink:title=" ">
<polygon fill="none" stroke="#bfbfbf" points="0,-291.5 0,-310.5 79,-310.5 79,-291.5 0,-291.5"/>
<text text-anchor="middle" x="39.5" y="-298.5" font-family="Helvetica,sans-Serif" font-size="10.00">fmt/format.h</text>
</a>
</g>
</g>
<!-- Node1&#45;&gt;Node2 -->
<g id="edge1" class="edge">
<title>Node1&#45;&gt;Node2</title>
<path fill="none" stroke="midnightblue" d="M86.04,-347.4C76.91,-338.49 65.08,-326.95 55.64,-317.74"/>
<polygon fill="midnightblue" stroke="midnightblue" points="57.98,-315.13 48.38,-310.66 53.09,-320.15 57.98,-315.13"/>
</g>
<!-- Node3 -->
<g id="node3" class="node">
<title>Node3</title>
<g id="a_node3"><a xlink:href="arm__timer__window_8hpp.html" target="_top" xlink:title="This file defines a window that visualizes the contents of the ARM timer registers.">
<polygon fill="none" stroke="black" points="97,-291.5 97,-310.5 228,-310.5 228,-291.5 97,-291.5"/>
<text text-anchor="middle" x="162.5" y="-298.5" font-family="Helvetica,sans-Serif" font-size="10.00">arm_timer_window.hpp</text>
</a>
</g>
</g>
<!-- Node1&#45;&gt;Node3 -->
<g id="edge2" class="edge">
<title>Node1&#45;&gt;Node3</title>
<path fill="none" stroke="midnightblue" d="M115.19,-347.4C124.48,-338.49 136.5,-326.95 146.1,-317.74"/>
<polygon fill="midnightblue" stroke="midnightblue" points="148.69,-320.11 153.48,-310.66 143.84,-315.06 148.69,-320.11"/>
</g>
<!-- Node4 -->
<g id="node4" class="node">
<title>Node4</title>
<g id="a_node4"><a xlink:href="window_8hpp.html" target="_top" xlink:title="This file defines an interface for all windows that will be rendered by the application.">
<polygon fill="none" stroke="black" points="44.5,-230 44.5,-249 136.5,-249 136.5,-230 44.5,-230"/>
<text text-anchor="middle" x="90.5" y="-237" font-family="Helvetica,sans-Serif" font-size="10.00">../../window.hpp</text>
</a>
</g>
</g>
<!-- Node3&#45;&gt;Node4 -->
<g id="edge3" class="edge">
<title>Node3&#45;&gt;Node4</title>
<path fill="none" stroke="midnightblue" d="M152.18,-291.48C140.85,-282.11 122.43,-266.88 108.66,-255.51"/>
<polygon fill="midnightblue" stroke="midnightblue" points="110.73,-252.68 100.8,-249.01 106.28,-258.08 110.73,-252.68"/>
</g>
<!-- Node6 -->
<g id="node6" class="node">
<title>Node6</title>
<g id="a_node6"><a xlink:href="arm__timer_8hpp.html" target="_top" xlink:title="This file defines the ARM timer used in BCM2835.">
<polygon fill="none" stroke="black" points="173.5,-224.5 173.5,-254.5 295.5,-254.5 295.5,-224.5 173.5,-224.5"/>
<text text-anchor="start" x="181.5" y="-242.5" font-family="Helvetica,sans-Serif" font-size="10.00">../../../core/peripherals</text>
<text text-anchor="middle" x="234.5" y="-231.5" font-family="Helvetica,sans-Serif" font-size="10.00">/arm_timer.hpp</text>
</a>
</g>
</g>
<!-- Node3&#45;&gt;Node6 -->
<g id="edge5" class="edge">
<title>Node3&#45;&gt;Node6</title>
<path fill="none" stroke="midnightblue" d="M172.82,-291.48C182.38,-283.57 197.01,-271.48 209.61,-261.07"/>
<polygon fill="midnightblue" stroke="midnightblue" points="212.05,-263.59 217.53,-254.52 207.59,-258.2 212.05,-263.59"/>
</g>
<!-- Node5 -->
<g id="node5" class="node">
<title>Node5</title>
<g id="a_node5"><a xlink:title=" ">
<polygon fill="none" stroke="#bfbfbf" points="28.5,-168.5 28.5,-187.5 112.5,-187.5 112.5,-168.5 28.5,-168.5"/>
<text text-anchor="middle" x="70.5" y="-175.5" font-family="Helvetica,sans-Serif" font-size="10.00">imgui/imgui.h</text>
</a>
</g>
</g>
<!-- Node4&#45;&gt;Node5 -->
<g id="edge4" class="edge">
<title>Node4&#45;&gt;Node5</title>
<path fill="none" stroke="midnightblue" d="M87.63,-229.98C84.78,-221.49 80.32,-208.2 76.66,-197.32"/>
<polygon fill="midnightblue" stroke="midnightblue" points="79.86,-195.87 73.36,-187.51 73.23,-198.1 79.86,-195.87"/>
</g>
<!-- Node7 -->
<g id="node7" class="node">
<title>Node7</title>
<g id="a_node7"><a xlink:href="peripheral_8hpp.html" target="_top" xlink:title="This file defines an interface for a memory&#45;mapped peripheral.">
<polygon fill="none" stroke="black" points="29,-112.5 29,-131.5 116,-131.5 116,-112.5 29,-112.5"/>
<text text-anchor="middle" x="72.5" y="-119.5" font-family="Helvetica,sans-Serif" font-size="10.00">peripheral.hpp</text>
</a>
</g>
</g>
<!-- Node6&#45;&gt;Node7 -->
<g id="edge6" class="edge">
<title>Node6&#45;&gt;Node7</title>
<path fill="none" stroke="midnightblue" d="M212.97,-224.41C197.88,-214.43 177.29,-200.63 159.5,-188 135.93,-171.28 109.4,-151.28 91.9,-137.92"/>
<polygon fill="midnightblue" stroke="midnightblue" points="93.7,-134.89 83.63,-131.59 89.44,-140.45 93.7,-134.89"/>
</g>
<!-- Node8 -->
<g id="node8" class="node">
<title>Node8</title>
<g id="a_node8"><a xlink:href="interrupt__controller_8hpp.html" target="_top" xlink:title="This file defines the interrupt controller used in BCM2835.">
<polygon fill="none" stroke="black" points="169,-168.5 169,-187.5 300,-187.5 300,-168.5 169,-168.5"/>
<text text-anchor="middle" x="234.5" y="-175.5" font-family="Helvetica,sans-Serif" font-size="10.00">interrupt_controller.hpp</text>
</a>
</g>
</g>
<!-- Node6&#45;&gt;Node8 -->
<g id="edge7" class="edge">
<title>Node6&#45;&gt;Node8</title>
<path fill="none" stroke="midnightblue" d="M234.5,-224.4C234.5,-216.47 234.5,-206.46 234.5,-197.86"/>
<polygon fill="midnightblue" stroke="midnightblue" points="238,-197.66 234.5,-187.66 231,-197.66 238,-197.66"/>
</g>
<!-- Node10 -->
<g id="node10" class="node">
<title>Node10</title>
<g id="a_node10"><a xlink:href="logger_8hpp.html" target="_top" xlink:title="This file defines a general logger interface as well as a logging system that is used in the project.">
<polygon fill="none" stroke="black" points="241.5,-56.5 241.5,-75.5 387.5,-75.5 387.5,-56.5 241.5,-56.5"/>
<text text-anchor="middle" x="314.5" y="-63.5" font-family="Helvetica,sans-Serif" font-size="10.00">zero_mate/utils/logger.hpp</text>
</a>
</g>
</g>
<!-- Node6&#45;&gt;Node10 -->
<g id="edge14" class="edge">
<title>Node6&#45;&gt;Node10</title>
<path fill="none" stroke="midnightblue" d="M266.85,-224.45C282.06,-216.11 298.91,-204.01 308.5,-188 327.52,-156.23 323.22,-110.94 318.68,-85.74"/>
<polygon fill="midnightblue" stroke="midnightblue" points="322.06,-84.81 316.65,-75.7 315.2,-86.19 322.06,-84.81"/>
</g>
<!-- Node12 -->
<g id="node12" class="node">
<title>Node12</title>
<g id="a_node12"><a xlink:href="system__clock__listener_8hpp.html" target="_top" xlink:title="This file defines an interface for a CPU clock listener.">
<polygon fill="none" stroke="black" points="380.5,-168.5 380.5,-187.5 526.5,-187.5 526.5,-168.5 380.5,-168.5"/>
<text text-anchor="middle" x="453.5" y="-175.5" font-family="Helvetica,sans-Serif" font-size="10.00">system_clock_listener.hpp</text>
</a>
</g>
</g>
<!-- Node6&#45;&gt;Node12 -->
<g id="edge13" class="edge">
<title>Node6&#45;&gt;Node12</title>
<path fill="none" stroke="midnightblue" d="M286.12,-224.47C324.56,-214.03 376.36,-199.96 412.1,-190.25"/>
<polygon fill="midnightblue" stroke="midnightblue" points="413.46,-193.51 422.19,-187.51 411.62,-186.75 413.46,-193.51"/>
</g>
<!-- Node8&#45;&gt;Node7 -->
<g id="edge8" class="edge">
<title>Node8&#45;&gt;Node7</title>
<path fill="none" stroke="midnightblue" d="M208.83,-168.44C181.58,-159.36 138.32,-144.94 107.85,-134.78"/>
<polygon fill="midnightblue" stroke="midnightblue" points="108.64,-131.36 98.05,-131.52 106.43,-138 108.64,-131.36"/>
</g>
<!-- Node9 -->
<g id="node9" class="node">
<title>Node9</title>
<g id="a_node9"><a xlink:href="context_8hpp.html" target="_top" xlink:title="This file defines the context (registers) of the CPU.">
<polygon fill="none" stroke="black" points="134.5,-112.5 134.5,-131.5 286.5,-131.5 286.5,-112.5 134.5,-112.5"/>
<text text-anchor="middle" x="210.5" y="-119.5" font-family="Helvetica,sans-Serif" font-size="10.00">../arm1176jzf_s/context.hpp</text>
</a>
</g>
</g>
<!-- Node8&#45;&gt;Node9 -->
<g id="edge9" class="edge">
<title>Node8&#45;&gt;Node9</title>
<path fill="none" stroke="midnightblue" d="M230.54,-168.08C227.29,-160.77 222.58,-150.18 218.55,-141.1"/>
<polygon fill="midnightblue" stroke="midnightblue" points="221.65,-139.47 214.39,-131.75 215.25,-142.31 221.65,-139.47"/>
</g>
<!-- Node8&#45;&gt;Node10 -->
<g id="edge12" class="edge">
<title>Node8&#45;&gt;Node10</title>
<path fill="none" stroke="midnightblue" d="M251.68,-168.41C265.45,-160.68 284.27,-148.07 295.5,-132 305.07,-118.3 309.87,-99.76 312.25,-85.99"/>
<polygon fill="midnightblue" stroke="midnightblue" points="315.76,-86.15 313.73,-75.76 308.83,-85.15 315.76,-86.15"/>
</g>
<!-- Node9&#45;&gt;Node10 -->
<g id="edge10" class="edge">
<title>Node9&#45;&gt;Node10</title>
<path fill="none" stroke="midnightblue" d="M227.21,-112.32C243.81,-103.7 269.5,-90.36 288.72,-80.39"/>
<polygon fill="midnightblue" stroke="midnightblue" points="290.57,-83.37 297.83,-75.65 287.34,-77.16 290.57,-83.37"/>
</g>
<!-- Node11 -->
<g id="node11" class="node">
<title>Node11</title>
<g id="a_node11"><a xlink:href="api__export_8hpp.html" target="_top" xlink:title="This file defines macros for exporting symbols out of a shared library.">
<polygon fill="none" stroke="black" points="242.5,-0.5 242.5,-19.5 386.5,-19.5 386.5,-0.5 242.5,-0.5"/>
<text text-anchor="middle" x="314.5" y="-7.5" font-family="Helvetica,sans-Serif" font-size="10.00">zero_mate/api_export.hpp</text>
</a>
</g>
</g>
<!-- Node10&#45;&gt;Node11 -->
<g id="edge11" class="edge">
<title>Node10&#45;&gt;Node11</title>
<path fill="none" stroke="midnightblue" d="M314.5,-56.08C314.5,-49.01 314.5,-38.86 314.5,-29.99"/>
<polygon fill="midnightblue" stroke="midnightblue" points="318,-29.75 314.5,-19.75 311,-29.75 318,-29.75"/>
</g>
</g>
</svg>
