<?xml version="1.0" encoding="UTF-8" standalone="no"?>
<!DOCTYPE svg PUBLIC "-//W3C//DTD SVG 1.1//EN"
 "http://www.w3.org/Graphics/SVG/1.1/DTD/svg11.dtd">
<!-- Generated by graphviz version 2.43.0 (0)
 -->
<!-- Title: src/gui/windows/peripherals/arm_timer_window.hpp Pages: 1 -->
<svg width="644pt" height="330pt"
 viewBox="0.00 0.00 644.00 330.00" xmlns="http://www.w3.org/2000/svg" xmlns:xlink="http://www.w3.org/1999/xlink">
<g id="graph0" class="graph" transform="scale(1 1) rotate(0) translate(4 326)">
<title>src/gui/windows/peripherals/arm_timer_window.hpp</title>
<!-- Node1 -->
<g id="node1" class="node">
<title>Node1</title>
<g id="a_node1"><a xlink:title=" ">
<polygon fill="#bfbfbf" stroke="black" points="6,-291.5 6,-321.5 158,-321.5 158,-291.5 6,-291.5"/>
<text text-anchor="start" x="14" y="-309.5" font-family="Helvetica,sans-Serif" font-size="10.00">src/gui/windows/peripherals</text>
<text text-anchor="middle" x="82" y="-298.5" font-family="Helvetica,sans-Serif" font-size="10.00">/arm_timer_window.hpp</text>
</a>
</g>
</g>
<!-- Node2 -->
<g id="node2" class="node">
<title>Node2</title>
<g id="a_node2"><a xlink:title=" ">
<polygon fill="none" stroke="#bfbfbf" points="81,-0.5 81,-19.5 139,-19.5 139,-0.5 81,-0.5"/>
<text text-anchor="middle" x="110" y="-7.5" font-family="Helvetica,sans-Serif" font-size="10.00">memory</text>
</a>
</g>
</g>
<!-- Node1&#45;&gt;Node2 -->
<g id="edge1" class="edge">
<title>Node1&#45;&gt;Node2</title>
<path fill="none" stroke="midnightblue" d="M57.45,-291.37C44.19,-282.53 28.61,-269.99 19,-255 0.21,-225.69 0,-213.82 0,-179 0,-179 0,-179 0,-121 0,-74.91 48.88,-41.39 81.47,-24.16"/>
<polygon fill="midnightblue" stroke="midnightblue" points="83.25,-27.18 90.59,-19.54 80.09,-20.94 83.25,-27.18"/>
</g>
<!-- Node3 -->
<g id="node3" class="node">
<title>Node3</title>
<g id="a_node3"><a xlink:title=" ">
<polygon fill="none" stroke="#bfbfbf" points="28.5,-230 28.5,-249 81.5,-249 81.5,-230 28.5,-230"/>
<text text-anchor="middle" x="55" y="-237" font-family="Helvetica,sans-Serif" font-size="10.00">imgui.h</text>
</a>
</g>
</g>
<!-- Node1&#45;&gt;Node3 -->
<g id="edge2" class="edge">
<title>Node1&#45;&gt;Node3</title>
<path fill="none" stroke="midnightblue" d="M76.14,-291.4C72.14,-281.76 66.8,-268.91 62.49,-258.54"/>
<polygon fill="midnightblue" stroke="midnightblue" points="65.68,-257.09 58.61,-249.19 59.22,-259.77 65.68,-257.09"/>
</g>
<!-- Node4 -->
<g id="node4" class="node">
<title>Node4</title>
<g id="a_node4"><a xlink:href="window_8hpp.html" target="_top" xlink:title=" ">
<polygon fill="none" stroke="black" points="64,-56.5 64,-75.5 156,-75.5 156,-56.5 64,-56.5"/>
<text text-anchor="middle" x="110" y="-63.5" font-family="Helvetica,sans-Serif" font-size="10.00">../../window.hpp</text>
</a>
</g>
</g>
<!-- Node1&#45;&gt;Node4 -->
<g id="edge3" class="edge">
<title>Node1&#45;&gt;Node4</title>
<path fill="none" stroke="midnightblue" d="M84.44,-291.38C86.13,-281.27 88.37,-267.32 90,-255 98.16,-193.29 105.21,-119.84 108.31,-85.91"/>
<polygon fill="midnightblue" stroke="midnightblue" points="111.82,-85.91 109.24,-75.64 104.85,-85.28 111.82,-85.91"/>
</g>
<!-- Node5 -->
<g id="node5" class="node">
<title>Node5</title>
<g id="a_node5"><a xlink:href="arm__timer_8hpp.html" target="_top" xlink:title="This file defines the ARM timer used BCM2835.">
<polygon fill="none" stroke="black" points="259,-224.5 259,-254.5 381,-254.5 381,-224.5 259,-224.5"/>
<text text-anchor="start" x="267" y="-242.5" font-family="Helvetica,sans-Serif" font-size="10.00">../../../core/peripherals</text>
<text text-anchor="middle" x="320" y="-231.5" font-family="Helvetica,sans-Serif" font-size="10.00">/arm_timer.hpp</text>
</a>
</g>
</g>
<!-- Node1&#45;&gt;Node5 -->
<g id="edge5" class="edge">
<title>Node1&#45;&gt;Node5</title>
<path fill="none" stroke="midnightblue" d="M133.35,-291.48C169.98,-281.47 219.41,-267.97 258.2,-257.38"/>
<polygon fill="midnightblue" stroke="midnightblue" points="259.61,-260.62 268.33,-254.61 257.76,-253.87 259.61,-260.62"/>
</g>
<!-- Node4&#45;&gt;Node2 -->
<g id="edge4" class="edge">
<title>Node4&#45;&gt;Node2</title>
<path fill="none" stroke="midnightblue" d="M110,-56.08C110,-49.01 110,-38.86 110,-29.99"/>
<polygon fill="midnightblue" stroke="midnightblue" points="113.5,-29.75 110,-19.75 106.5,-29.75 113.5,-29.75"/>
</g>
<!-- Node6 -->
<g id="node6" class="node">
<title>Node6</title>
<g id="a_node6"><a xlink:href="peripheral_8hpp.html" target="_top" xlink:title="This file defines an interface for a memory&#45;mapped peripheral.">
<polygon fill="none" stroke="black" points="138.5,-112.5 138.5,-131.5 225.5,-131.5 225.5,-112.5 138.5,-112.5"/>
<text text-anchor="middle" x="182" y="-119.5" font-family="Helvetica,sans-Serif" font-size="10.00">peripheral.hpp</text>
</a>
</g>
</g>
<!-- Node5&#45;&gt;Node6 -->
<g id="edge6" class="edge">
<title>Node5&#45;&gt;Node6</title>
<path fill="none" stroke="midnightblue" d="M296.47,-224.43C281.22,-214.9 261.25,-201.6 245,-188 226.84,-172.8 208.22,-152.97 195.99,-139.23"/>
<polygon fill="midnightblue" stroke="midnightblue" points="198.48,-136.76 189.25,-131.55 193.22,-141.38 198.48,-136.76"/>
</g>
<!-- Node7 -->
<g id="node7" class="node">
<title>Node7</title>
<g id="a_node7"><a xlink:href="interrupt__controller_8hpp.html" target="_top" xlink:title="This file defines the interrupt controller used BCM2835.">
<polygon fill="none" stroke="black" points="254.5,-168.5 254.5,-187.5 385.5,-187.5 385.5,-168.5 254.5,-168.5"/>
<text text-anchor="middle" x="320" y="-175.5" font-family="Helvetica,sans-Serif" font-size="10.00">interrupt_controller.hpp</text>
</a>
</g>
</g>
<!-- Node5&#45;&gt;Node7 -->
<g id="edge7" class="edge">
<title>Node5&#45;&gt;Node7</title>
<path fill="none" stroke="midnightblue" d="M320,-224.4C320,-216.47 320,-206.46 320,-197.86"/>
<polygon fill="midnightblue" stroke="midnightblue" points="323.5,-197.66 320,-187.66 316.5,-197.66 323.5,-197.66"/>
</g>
<!-- Node9 -->
<g id="node9" class="node">
<title>Node9</title>
<g id="a_node9"><a xlink:href="logger_8hpp.html" target="_top" xlink:title=" ">
<polygon fill="none" stroke="black" points="305,-56.5 305,-75.5 439,-75.5 439,-56.5 305,-56.5"/>
<text text-anchor="middle" x="372" y="-63.5" font-family="Helvetica,sans-Serif" font-size="10.00">../utils/logger/logger.hpp</text>
</a>
</g>
</g>
<!-- Node5&#45;&gt;Node9 -->
<g id="edge19" class="edge">
<title>Node5&#45;&gt;Node9</title>
<path fill="none" stroke="midnightblue" d="M348.53,-224.37C363.91,-215.61 382.27,-203.14 395,-188 412.54,-167.14 414.32,-158.66 420,-132 421.85,-123.31 423.53,-120.16 420,-112 414.73,-99.84 404.38,-89.46 394.64,-81.74"/>
<polygon fill="midnightblue" stroke="midnightblue" points="396.5,-78.77 386.37,-75.67 392.36,-84.41 396.5,-78.77"/>
</g>
<!-- Node15 -->
<g id="node15" class="node">
<title>Node15</title>
<g id="a_node15"><a xlink:href="system__clock__listener_8hpp.html" target="_top" xlink:title="This file defines an interface for a CPU clock listener.">
<polygon fill="none" stroke="black" points="490,-168.5 490,-187.5 636,-187.5 636,-168.5 490,-168.5"/>
<text text-anchor="middle" x="563" y="-175.5" font-family="Helvetica,sans-Serif" font-size="10.00">system_clock_listener.hpp</text>
</a>
</g>
</g>
<!-- Node5&#45;&gt;Node15 -->
<g id="edge18" class="edge">
<title>Node5&#45;&gt;Node15</title>
<path fill="none" stroke="midnightblue" d="M377.28,-224.47C420.39,-213.92 478.64,-199.66 518.34,-189.94"/>
<polygon fill="midnightblue" stroke="midnightblue" points="519.38,-193.28 528.26,-187.51 517.71,-186.49 519.38,-193.28"/>
</g>
<!-- Node7&#45;&gt;Node6 -->
<g id="edge8" class="edge">
<title>Node7&#45;&gt;Node6</title>
<path fill="none" stroke="midnightblue" d="M298.13,-168.44C275.22,-159.48 239.02,-145.31 213.13,-135.18"/>
<polygon fill="midnightblue" stroke="midnightblue" points="214.35,-131.9 203.76,-131.52 211.8,-138.42 214.35,-131.9"/>
</g>
<!-- Node8 -->
<g id="node8" class="node">
<title>Node8</title>
<g id="a_node8"><a xlink:href="context_8hpp.html" target="_top" xlink:title="This file defines the context (registers) of the CPU.">
<polygon fill="none" stroke="black" points="244,-112.5 244,-131.5 396,-131.5 396,-112.5 244,-112.5"/>
<text text-anchor="middle" x="320" y="-119.5" font-family="Helvetica,sans-Serif" font-size="10.00">../arm1176jzf_s/context.hpp</text>
</a>
</g>
</g>
<!-- Node7&#45;&gt;Node8 -->
<g id="edge9" class="edge">
<title>Node7&#45;&gt;Node8</title>
<path fill="none" stroke="midnightblue" d="M320,-168.08C320,-161.01 320,-150.86 320,-141.99"/>
<polygon fill="midnightblue" stroke="midnightblue" points="323.5,-141.75 320,-131.75 316.5,-141.75 323.5,-141.75"/>
</g>
<!-- Node7&#45;&gt;Node9 -->
<g id="edge17" class="edge">
<title>Node7&#45;&gt;Node9</title>
<path fill="none" stroke="midnightblue" d="M353.8,-168.39C372.39,-161.74 393.89,-150.45 405,-132 414.82,-115.69 401.7,-96.09 389.21,-82.71"/>
<polygon fill="midnightblue" stroke="midnightblue" points="391.66,-80.21 382.11,-75.62 386.71,-85.17 391.66,-80.21"/>
</g>
<!-- Node8&#45;&gt;Node9 -->
<g id="edge10" class="edge">
<title>Node8&#45;&gt;Node9</title>
<path fill="none" stroke="midnightblue" d="M328.59,-112.08C336.16,-104.22 347.38,-92.57 356.51,-83.08"/>
<polygon fill="midnightblue" stroke="midnightblue" points="359.16,-85.38 363.57,-75.75 354.12,-80.53 359.16,-85.38"/>
</g>
<!-- Node9&#45;&gt;Node2 -->
<g id="edge13" class="edge">
<title>Node9&#45;&gt;Node2</title>
<path fill="none" stroke="midnightblue" d="M330.49,-56.44C280.64,-46.17 197.7,-29.07 149,-19.04"/>
<polygon fill="midnightblue" stroke="midnightblue" points="149.65,-15.6 139.15,-17.01 148.24,-22.46 149.65,-15.6"/>
</g>
<!-- Node10 -->
<g id="node10" class="node">
<title>Node10</title>
<g id="a_node10"><a xlink:title=" ">
<polygon fill="none" stroke="#bfbfbf" points="215,-0.5 215,-19.5 263,-19.5 263,-0.5 215,-0.5"/>
<text text-anchor="middle" x="239" y="-7.5" font-family="Helvetica,sans-Serif" font-size="10.00">mutex</text>
</a>
</g>
</g>
<!-- Node9&#45;&gt;Node10 -->
<g id="edge11" class="edge">
<title>Node9&#45;&gt;Node10</title>
<path fill="none" stroke="midnightblue" d="M350.93,-56.44C328.94,-47.52 294.27,-33.44 269.34,-23.32"/>
<polygon fill="midnightblue" stroke="midnightblue" points="270.56,-20.04 259.98,-19.52 267.92,-26.52 270.56,-20.04"/>
</g>
<!-- Node11 -->
<g id="node11" class="node">
<title>Node11</title>
<g id="a_node11"><a xlink:title=" ">
<polygon fill="none" stroke="#bfbfbf" points="281.5,-0.5 281.5,-19.5 328.5,-19.5 328.5,-0.5 281.5,-0.5"/>
<text text-anchor="middle" x="305" y="-7.5" font-family="Helvetica,sans-Serif" font-size="10.00">vector</text>
</a>
</g>
</g>
<!-- Node9&#45;&gt;Node11 -->
<g id="edge12" class="edge">
<title>Node9&#45;&gt;Node11</title>
<path fill="none" stroke="midnightblue" d="M361.24,-56.32C351.23,-48.26 336.11,-36.08 324.07,-26.37"/>
<polygon fill="midnightblue" stroke="midnightblue" points="325.94,-23.38 315.96,-19.83 321.55,-28.83 325.94,-23.38"/>
</g>
<!-- Node12 -->
<g id="node12" class="node">
<title>Node12</title>
<g id="a_node12"><a xlink:title=" ">
<polygon fill="none" stroke="#bfbfbf" points="347,-0.5 347,-19.5 397,-19.5 397,-0.5 347,-0.5"/>
<text text-anchor="middle" x="372" y="-7.5" font-family="Helvetica,sans-Serif" font-size="10.00">cstdint</text>
</a>
</g>
</g>
<!-- Node9&#45;&gt;Node12 -->
<g id="edge14" class="edge">
<title>Node9&#45;&gt;Node12</title>
<path fill="none" stroke="midnightblue" d="M372,-56.08C372,-49.01 372,-38.86 372,-29.99"/>
<polygon fill="midnightblue" stroke="midnightblue" points="375.5,-29.75 372,-19.75 368.5,-29.75 375.5,-29.75"/>
</g>
<!-- Node13 -->
<g id="node13" class="node">
<title>Node13</title>
<g id="a_node13"><a xlink:title=" ">
<polygon fill="none" stroke="#bfbfbf" points="415.5,-0.5 415.5,-19.5 488.5,-19.5 488.5,-0.5 415.5,-0.5"/>
<text text-anchor="middle" x="452" y="-7.5" font-family="Helvetica,sans-Serif" font-size="10.00">string_view</text>
</a>
</g>
</g>
<!-- Node9&#45;&gt;Node13 -->
<g id="edge15" class="edge">
<title>Node9&#45;&gt;Node13</title>
<path fill="none" stroke="midnightblue" d="M384.85,-56.32C397.22,-47.98 416.13,-35.21 430.74,-25.35"/>
<polygon fill="midnightblue" stroke="midnightblue" points="432.85,-28.15 439.18,-19.65 428.93,-22.35 432.85,-28.15"/>
</g>
<!-- Node14 -->
<g id="node14" class="node">
<title>Node14</title>
<g id="a_node14"><a xlink:title=" ">
<polygon fill="none" stroke="#bfbfbf" points="506.5,-0.5 506.5,-19.5 599.5,-19.5 599.5,-0.5 506.5,-0.5"/>
<text text-anchor="middle" x="553" y="-7.5" font-family="Helvetica,sans-Serif" font-size="10.00">source_location</text>
</a>
</g>
</g>
<!-- Node9&#45;&gt;Node14 -->
<g id="edge16" class="edge">
<title>Node9&#45;&gt;Node14</title>
<path fill="none" stroke="midnightblue" d="M400.68,-56.44C431.53,-47.24 480.73,-32.56 514.83,-22.39"/>
<polygon fill="midnightblue" stroke="midnightblue" points="515.87,-25.73 524.45,-19.52 513.87,-19.02 515.87,-25.73"/>
</g>
</g>
</svg>
