<?xml version="1.0" encoding="UTF-8" standalone="no"?>
<!DOCTYPE svg PUBLIC "-//W3C//DTD SVG 1.1//EN"
 "http://www.w3.org/Graphics/SVG/1.1/DTD/svg11.dtd">
<!-- Generated by graphviz version 2.43.0 (0)
 -->
<!-- Title: src/gui/windows/peripherals/arm_timer_window.hpp Pages: 1 -->
<svg width="506pt" height="330pt"
 viewBox="0.00 0.00 506.00 330.00" xmlns="http://www.w3.org/2000/svg" xmlns:xlink="http://www.w3.org/1999/xlink">
<g id="graph0" class="graph" transform="scale(1 1) rotate(0) translate(4 326)">
<title>src/gui/windows/peripherals/arm_timer_window.hpp</title>
<!-- Node1 -->
<g id="node1" class="node">
<title>Node1</title>
<g id="a_node1"><a xlink:title="This file defines a window that visualizes the contents of the ARM timer registers.">
<polygon fill="#bfbfbf" stroke="black" points="48,-291.5 48,-321.5 200,-321.5 200,-291.5 48,-291.5"/>
<text text-anchor="start" x="56" y="-309.5" font-family="Helvetica,sans-Serif" font-size="10.00">src/gui/windows/peripherals</text>
<text text-anchor="middle" x="124" y="-298.5" font-family="Helvetica,sans-Serif" font-size="10.00">/arm_timer_window.hpp</text>
</a>
</g>
</g>
<!-- Node2 -->
<g id="node2" class="node">
<title>Node2</title>
<g id="a_node2"><a xlink:href="window_8hpp.html" target="_top" xlink:title="This file defines an interface for all windows that will be rendered by the application.">
<polygon fill="none" stroke="black" points="16,-230 16,-249 108,-249 108,-230 16,-230"/>
<text text-anchor="middle" x="62" y="-237" font-family="Helvetica,sans-Serif" font-size="10.00">../../window.hpp</text>
</a>
</g>
</g>
<!-- Node1&#45;&gt;Node2 -->
<g id="edge1" class="edge">
<title>Node1&#45;&gt;Node2</title>
<path fill="none" stroke="midnightblue" d="M110.55,-291.4C100.78,-281.16 87.56,-267.3 77.38,-256.62"/>
<polygon fill="midnightblue" stroke="midnightblue" points="79.73,-254.01 70.29,-249.19 74.66,-258.85 79.73,-254.01"/>
</g>
<!-- Node4 -->
<g id="node4" class="node">
<title>Node4</title>
<g id="a_node4"><a xlink:href="arm__timer_8hpp.html" target="_top" xlink:title="This file defines the ARM timer used in BCM2835.">
<polygon fill="none" stroke="black" points="145,-224.5 145,-254.5 267,-254.5 267,-224.5 145,-224.5"/>
<text text-anchor="start" x="153" y="-242.5" font-family="Helvetica,sans-Serif" font-size="10.00">../../../core/peripherals</text>
<text text-anchor="middle" x="206" y="-231.5" font-family="Helvetica,sans-Serif" font-size="10.00">/arm_timer.hpp</text>
</a>
</g>
</g>
<!-- Node1&#45;&gt;Node4 -->
<g id="edge3" class="edge">
<title>Node1&#45;&gt;Node4</title>
<path fill="none" stroke="midnightblue" d="M141.79,-291.4C153.08,-282.45 167.85,-270.74 180.39,-260.8"/>
<polygon fill="midnightblue" stroke="midnightblue" points="182.58,-263.53 188.24,-254.58 178.23,-258.05 182.58,-263.53"/>
</g>
<!-- Node3 -->
<g id="node3" class="node">
<title>Node3</title>
<g id="a_node3"><a xlink:title=" ">
<polygon fill="none" stroke="#bfbfbf" points="0,-168.5 0,-187.5 84,-187.5 84,-168.5 0,-168.5"/>
<text text-anchor="middle" x="42" y="-175.5" font-family="Helvetica,sans-Serif" font-size="10.00">imgui/imgui.h</text>
</a>
</g>
</g>
<!-- Node2&#45;&gt;Node3 -->
<g id="edge2" class="edge">
<title>Node2&#45;&gt;Node3</title>
<path fill="none" stroke="midnightblue" d="M59.13,-229.98C56.28,-221.49 51.82,-208.2 48.16,-197.32"/>
<polygon fill="midnightblue" stroke="midnightblue" points="51.36,-195.87 44.86,-187.51 44.73,-198.1 51.36,-195.87"/>
</g>
<!-- Node5 -->
<g id="node5" class="node">
<title>Node5</title>
<g id="a_node5"><a xlink:href="peripheral_8hpp.html" target="_top" xlink:title="This file defines an interface for a memory&#45;mapped peripheral.">
<polygon fill="none" stroke="black" points="0.5,-112.5 0.5,-131.5 87.5,-131.5 87.5,-112.5 0.5,-112.5"/>
<text text-anchor="middle" x="44" y="-119.5" font-family="Helvetica,sans-Serif" font-size="10.00">peripheral.hpp</text>
</a>
</g>
</g>
<!-- Node4&#45;&gt;Node5 -->
<g id="edge4" class="edge">
<title>Node4&#45;&gt;Node5</title>
<path fill="none" stroke="midnightblue" d="M184.47,-224.41C169.38,-214.43 148.79,-200.63 131,-188 107.43,-171.28 80.9,-151.28 63.4,-137.92"/>
<polygon fill="midnightblue" stroke="midnightblue" points="65.2,-134.89 55.13,-131.59 60.94,-140.45 65.2,-134.89"/>
</g>
<!-- Node6 -->
<g id="node6" class="node">
<title>Node6</title>
<g id="a_node6"><a xlink:href="interrupt__controller_8hpp.html" target="_top" xlink:title="This file defines the interrupt controller used in BCM2835.">
<polygon fill="none" stroke="black" points="140.5,-168.5 140.5,-187.5 271.5,-187.5 271.5,-168.5 140.5,-168.5"/>
<text text-anchor="middle" x="206" y="-175.5" font-family="Helvetica,sans-Serif" font-size="10.00">interrupt_controller.hpp</text>
</a>
</g>
</g>
<!-- Node4&#45;&gt;Node6 -->
<g id="edge5" class="edge">
<title>Node4&#45;&gt;Node6</title>
<path fill="none" stroke="midnightblue" d="M206,-224.4C206,-216.47 206,-206.46 206,-197.86"/>
<polygon fill="midnightblue" stroke="midnightblue" points="209.5,-197.66 206,-187.66 202.5,-197.66 209.5,-197.66"/>
</g>
<!-- Node8 -->
<g id="node8" class="node">
<title>Node8</title>
<g id="a_node8"><a xlink:href="logger_8hpp.html" target="_top" xlink:title="This file defines a general logger interface as well as a logging system that is used in the project.">
<polygon fill="none" stroke="black" points="213,-56.5 213,-75.5 359,-75.5 359,-56.5 213,-56.5"/>
<text text-anchor="middle" x="286" y="-63.5" font-family="Helvetica,sans-Serif" font-size="10.00">zero_mate/utils/logger.hpp</text>
</a>
</g>
</g>
<!-- Node4&#45;&gt;Node8 -->
<g id="edge12" class="edge">
<title>Node4&#45;&gt;Node8</title>
<path fill="none" stroke="midnightblue" d="M238.35,-224.45C253.56,-216.11 270.41,-204.01 280,-188 299.02,-156.23 294.72,-110.94 290.18,-85.74"/>
<polygon fill="midnightblue" stroke="midnightblue" points="293.56,-84.81 288.15,-75.7 286.7,-86.19 293.56,-84.81"/>
</g>
<!-- Node10 -->
<g id="node10" class="node">
<title>Node10</title>
<g id="a_node10"><a xlink:href="system__clock__listener_8hpp.html" target="_top" xlink:title="This file defines an interface for a CPU clock listener.">
<polygon fill="none" stroke="black" points="352,-168.5 352,-187.5 498,-187.5 498,-168.5 352,-168.5"/>
<text text-anchor="middle" x="425" y="-175.5" font-family="Helvetica,sans-Serif" font-size="10.00">system_clock_listener.hpp</text>
</a>
</g>
</g>
<!-- Node4&#45;&gt;Node10 -->
<g id="edge11" class="edge">
<title>Node4&#45;&gt;Node10</title>
<path fill="none" stroke="midnightblue" d="M257.62,-224.47C296.06,-214.03 347.86,-199.96 383.6,-190.25"/>
<polygon fill="midnightblue" stroke="midnightblue" points="384.96,-193.51 393.69,-187.51 383.12,-186.75 384.96,-193.51"/>
</g>
<!-- Node6&#45;&gt;Node5 -->
<g id="edge6" class="edge">
<title>Node6&#45;&gt;Node5</title>
<path fill="none" stroke="midnightblue" d="M180.33,-168.44C153.08,-159.36 109.82,-144.94 79.35,-134.78"/>
<polygon fill="midnightblue" stroke="midnightblue" points="80.14,-131.36 69.55,-131.52 77.93,-138 80.14,-131.36"/>
</g>
<!-- Node7 -->
<g id="node7" class="node">
<title>Node7</title>
<g id="a_node7"><a xlink:href="context_8hpp.html" target="_top" xlink:title="This file defines the context (registers) of the CPU.">
<polygon fill="none" stroke="black" points="106,-112.5 106,-131.5 258,-131.5 258,-112.5 106,-112.5"/>
<text text-anchor="middle" x="182" y="-119.5" font-family="Helvetica,sans-Serif" font-size="10.00">../arm1176jzf_s/context.hpp</text>
</a>
</g>
</g>
<!-- Node6&#45;&gt;Node7 -->
<g id="edge7" class="edge">
<title>Node6&#45;&gt;Node7</title>
<path fill="none" stroke="midnightblue" d="M202.04,-168.08C198.79,-160.77 194.08,-150.18 190.05,-141.1"/>
<polygon fill="midnightblue" stroke="midnightblue" points="193.15,-139.47 185.89,-131.75 186.75,-142.31 193.15,-139.47"/>
</g>
<!-- Node6&#45;&gt;Node8 -->
<g id="edge10" class="edge">
<title>Node6&#45;&gt;Node8</title>
<path fill="none" stroke="midnightblue" d="M223.18,-168.41C236.95,-160.68 255.77,-148.07 267,-132 276.57,-118.3 281.37,-99.76 283.75,-85.99"/>
<polygon fill="midnightblue" stroke="midnightblue" points="287.26,-86.15 285.23,-75.76 280.33,-85.15 287.26,-86.15"/>
</g>
<!-- Node7&#45;&gt;Node8 -->
<g id="edge8" class="edge">
<title>Node7&#45;&gt;Node8</title>
<path fill="none" stroke="midnightblue" d="M198.71,-112.32C215.31,-103.7 241,-90.36 260.22,-80.39"/>
<polygon fill="midnightblue" stroke="midnightblue" points="262.07,-83.37 269.33,-75.65 258.84,-77.16 262.07,-83.37"/>
</g>
<!-- Node9 -->
<g id="node9" class="node">
<title>Node9</title>
<g id="a_node9"><a xlink:href="api__export_8hpp.html" target="_top" xlink:title="This file defines macros for exporting symbols out of a shared library.">
<polygon fill="none" stroke="black" points="214,-0.5 214,-19.5 358,-19.5 358,-0.5 214,-0.5"/>
<text text-anchor="middle" x="286" y="-7.5" font-family="Helvetica,sans-Serif" font-size="10.00">zero_mate/api_export.hpp</text>
</a>
</g>
</g>
<!-- Node8&#45;&gt;Node9 -->
<g id="edge9" class="edge">
<title>Node8&#45;&gt;Node9</title>
<path fill="none" stroke="midnightblue" d="M286,-56.08C286,-49.01 286,-38.86 286,-29.99"/>
<polygon fill="midnightblue" stroke="midnightblue" points="289.5,-29.75 286,-19.75 282.5,-29.75 289.5,-29.75"/>
</g>
</g>
</svg>
