<?xml version="1.0" encoding="UTF-8" standalone="no"?>
<!DOCTYPE svg PUBLIC "-//W3C//DTD SVG 1.1//EN"
 "http://www.w3.org/Graphics/SVG/1.1/DTD/svg11.dtd">
<!-- Generated by graphviz version 2.43.0 (0)
 -->
<!-- Title: src/core/peripherals/arm_timer.hpp Pages: 1 -->
<svg width="506pt" height="263pt"
 viewBox="0.00 0.00 505.50 263.00" xmlns="http://www.w3.org/2000/svg" xmlns:xlink="http://www.w3.org/1999/xlink">
<g id="graph0" class="graph" transform="scale(1 1) rotate(0) translate(4 259)">
<title>src/core/peripherals/arm_timer.hpp</title>
<!-- Node1 -->
<g id="node1" class="node">
<title>Node1</title>
<g id="a_node1"><a xlink:title="This file defines the ARM timer used in BCM2835.">
<polygon fill="#bfbfbf" stroke="black" points="220,-224.5 220,-254.5 333,-254.5 333,-224.5 220,-224.5"/>
<text text-anchor="start" x="228" y="-242.5" font-family="Helvetica,sans-Serif" font-size="10.00">src/core/peripherals</text>
<text text-anchor="middle" x="276.5" y="-231.5" font-family="Helvetica,sans-Serif" font-size="10.00">/arm_timer.hpp</text>
</a>
</g>
</g>
<!-- Node2 -->
<g id="node2" class="node">
<title>Node2</title>
<g id="a_node2"><a xlink:href="peripheral_8hpp.html" target="_top" xlink:title="This file defines an interface for a memory&#45;mapped peripheral.">
<polygon fill="none" stroke="black" points="0,-112.5 0,-131.5 87,-131.5 87,-112.5 0,-112.5"/>
<text text-anchor="middle" x="43.5" y="-119.5" font-family="Helvetica,sans-Serif" font-size="10.00">peripheral.hpp</text>
</a>
</g>
</g>
<!-- Node1&#45;&gt;Node2 -->
<g id="edge1" class="edge">
<title>Node1&#45;&gt;Node2</title>
<path fill="none" stroke="midnightblue" d="M223.52,-224.49C195.06,-215.91 159.89,-203.57 130.5,-188 104.4,-174.17 77.66,-152.92 60.84,-138.51"/>
<polygon fill="midnightblue" stroke="midnightblue" points="62.84,-135.61 53,-131.68 58.24,-140.89 62.84,-135.61"/>
</g>
<!-- Node3 -->
<g id="node3" class="node">
<title>Node3</title>
<g id="a_node3"><a xlink:href="interrupt__controller_8hpp.html" target="_top" xlink:title="This file defines the interrupt controller used in BCM2835.">
<polygon fill="none" stroke="black" points="140,-168.5 140,-187.5 271,-187.5 271,-168.5 140,-168.5"/>
<text text-anchor="middle" x="205.5" y="-175.5" font-family="Helvetica,sans-Serif" font-size="10.00">interrupt_controller.hpp</text>
</a>
</g>
</g>
<!-- Node1&#45;&gt;Node3 -->
<g id="edge2" class="edge">
<title>Node1&#45;&gt;Node3</title>
<path fill="none" stroke="midnightblue" d="M259.67,-224.4C248.83,-215.31 234.72,-203.49 223.63,-194.19"/>
<polygon fill="midnightblue" stroke="midnightblue" points="225.74,-191.4 215.83,-187.66 221.25,-196.76 225.74,-191.4"/>
</g>
<!-- Node5 -->
<g id="node5" class="node">
<title>Node5</title>
<g id="a_node5"><a xlink:href="logger_8hpp.html" target="_top" xlink:title="This file defines a general logger interface as well as a logging system that is used in the project.">
<polygon fill="none" stroke="black" points="212.5,-56.5 212.5,-75.5 358.5,-75.5 358.5,-56.5 212.5,-56.5"/>
<text text-anchor="middle" x="285.5" y="-63.5" font-family="Helvetica,sans-Serif" font-size="10.00">zero_mate/utils/logger.hpp</text>
</a>
</g>
</g>
<!-- Node1&#45;&gt;Node5 -->
<g id="edge9" class="edge">
<title>Node1&#45;&gt;Node5</title>
<path fill="none" stroke="midnightblue" d="M278.07,-224.4C280.26,-204.03 284.1,-165.18 285.5,-132 286.15,-116.48 286.11,-98.85 285.92,-85.87"/>
<polygon fill="midnightblue" stroke="midnightblue" points="289.42,-85.77 285.74,-75.84 282.42,-85.9 289.42,-85.77"/>
</g>
<!-- Node7 -->
<g id="node7" class="node">
<title>Node7</title>
<g id="a_node7"><a xlink:href="system__clock__listener_8hpp.html" target="_top" xlink:title="This file defines an interface for a CPU clock listener.">
<polygon fill="none" stroke="black" points="351.5,-168.5 351.5,-187.5 497.5,-187.5 497.5,-168.5 351.5,-168.5"/>
<text text-anchor="middle" x="424.5" y="-175.5" font-family="Helvetica,sans-Serif" font-size="10.00">system_clock_listener.hpp</text>
</a>
</g>
</g>
<!-- Node1&#45;&gt;Node7 -->
<g id="edge8" class="edge">
<title>Node1&#45;&gt;Node7</title>
<path fill="none" stroke="midnightblue" d="M311.57,-224.4C336.52,-214.37 369.71,-201.03 393.64,-191.4"/>
<polygon fill="midnightblue" stroke="midnightblue" points="394.99,-194.64 402.96,-187.66 392.38,-188.14 394.99,-194.64"/>
</g>
<!-- Node3&#45;&gt;Node2 -->
<g id="edge3" class="edge">
<title>Node3&#45;&gt;Node2</title>
<path fill="none" stroke="midnightblue" d="M179.83,-168.44C152.58,-159.36 109.32,-144.94 78.85,-134.78"/>
<polygon fill="midnightblue" stroke="midnightblue" points="79.64,-131.36 69.05,-131.52 77.43,-138 79.64,-131.36"/>
</g>
<!-- Node4 -->
<g id="node4" class="node">
<title>Node4</title>
<g id="a_node4"><a xlink:href="context_8hpp.html" target="_top" xlink:title="This file defines the context (registers) of the CPU.">
<polygon fill="none" stroke="black" points="105.5,-112.5 105.5,-131.5 257.5,-131.5 257.5,-112.5 105.5,-112.5"/>
<text text-anchor="middle" x="181.5" y="-119.5" font-family="Helvetica,sans-Serif" font-size="10.00">../arm1176jzf_s/context.hpp</text>
</a>
</g>
</g>
<!-- Node3&#45;&gt;Node4 -->
<g id="edge4" class="edge">
<title>Node3&#45;&gt;Node4</title>
<path fill="none" stroke="midnightblue" d="M201.54,-168.08C198.29,-160.77 193.58,-150.18 189.55,-141.1"/>
<polygon fill="midnightblue" stroke="midnightblue" points="192.65,-139.47 185.39,-131.75 186.25,-142.31 192.65,-139.47"/>
</g>
<!-- Node3&#45;&gt;Node5 -->
<g id="edge7" class="edge">
<title>Node3&#45;&gt;Node5</title>
<path fill="none" stroke="midnightblue" d="M222.68,-168.41C236.45,-160.68 255.27,-148.07 266.5,-132 276.07,-118.3 280.87,-99.76 283.25,-85.99"/>
<polygon fill="midnightblue" stroke="midnightblue" points="286.76,-86.15 284.73,-75.76 279.83,-85.15 286.76,-86.15"/>
</g>
<!-- Node4&#45;&gt;Node5 -->
<g id="edge5" class="edge">
<title>Node4&#45;&gt;Node5</title>
<path fill="none" stroke="midnightblue" d="M198.21,-112.32C214.81,-103.7 240.5,-90.36 259.72,-80.39"/>
<polygon fill="midnightblue" stroke="midnightblue" points="261.57,-83.37 268.83,-75.65 258.34,-77.16 261.57,-83.37"/>
</g>
<!-- Node6 -->
<g id="node6" class="node">
<title>Node6</title>
<g id="a_node6"><a xlink:href="api__export_8hpp.html" target="_top" xlink:title="This file defines macros for exporting symbols out of a shared library.">
<polygon fill="none" stroke="black" points="213.5,-0.5 213.5,-19.5 357.5,-19.5 357.5,-0.5 213.5,-0.5"/>
<text text-anchor="middle" x="285.5" y="-7.5" font-family="Helvetica,sans-Serif" font-size="10.00">zero_mate/api_export.hpp</text>
</a>
</g>
</g>
<!-- Node5&#45;&gt;Node6 -->
<g id="edge6" class="edge">
<title>Node5&#45;&gt;Node6</title>
<path fill="none" stroke="midnightblue" d="M285.5,-56.08C285.5,-49.01 285.5,-38.86 285.5,-29.99"/>
<polygon fill="midnightblue" stroke="midnightblue" points="289,-29.75 285.5,-19.75 282,-29.75 289,-29.75"/>
</g>
</g>
</svg>
