<?xml version="1.0" encoding="UTF-8" standalone="no"?>
<!DOCTYPE svg PUBLIC "-//W3C//DTD SVG 1.1//EN"
 "http://www.w3.org/Graphics/SVG/1.1/DTD/svg11.dtd">
<!-- Generated by graphviz version 2.43.0 (0)
 -->
<!-- Title: src/gui/windows/peripherals/aux_window.hpp Pages: 1 -->
<svg width="266pt" height="106pt"
 viewBox="0.00 0.00 265.50 106.00" xmlns="http://www.w3.org/2000/svg" xmlns:xlink="http://www.w3.org/1999/xlink">
<g id="graph0" class="graph" transform="scale(1 1) rotate(0) translate(4 102)">
<title>src/gui/windows/peripherals/aux_window.hpp</title>
<!-- Node1 -->
<g id="node1" class="node">
<title>Node1</title>
<g id="a_node1"><a xlink:title="This file defines a window that visualizes the auxiliaries (UART1 &amp; SPI1, and SPI2) used in BCM2835.">
<polygon fill="#bfbfbf" stroke="black" points="36.5,-67.5 36.5,-97.5 188.5,-97.5 188.5,-67.5 36.5,-67.5"/>
<text text-anchor="start" x="44.5" y="-85.5" font-family="Helvetica,sans-Serif" font-size="10.00">src/gui/windows/peripherals</text>
<text text-anchor="middle" x="112.5" y="-74.5" font-family="Helvetica,sans-Serif" font-size="10.00">/aux_window.hpp</text>
</a>
</g>
</g>
<!-- Node2 -->
<g id="node2" class="node">
<title>Node2</title>
<g id="a_node2"><a xlink:href="gui_8cpp.html" target="_top" xlink:title="This file implements the main GUI entry function that takes care of creating and rendering all window...">
<polygon fill="none" stroke="black" points="0,-6 0,-25 87,-25 87,-6 0,-6"/>
<text text-anchor="middle" x="43.5" y="-13" font-family="Helvetica,sans-Serif" font-size="10.00">src/gui/gui.cpp</text>
</a>
</g>
</g>
<!-- Node1&#45;&gt;Node2 -->
<g id="edge1" class="edge">
<title>Node1&#45;&gt;Node2</title>
<path fill="none" stroke="midnightblue" d="M90.03,-60.34C77.36,-48.4 62.22,-34.14 52.73,-25.19"/>
<polygon fill="midnightblue" stroke="midnightblue" points="87.85,-63.09 97.53,-67.4 92.65,-57.99 87.85,-63.09"/>
</g>
<!-- Node3 -->
<g id="node3" class="node">
<title>Node3</title>
<g id="a_node3"><a xlink:href="aux__window_8cpp.html" target="_top" xlink:title="This file implements a window that visualizes the auxiliaries (UART1 &amp; SPI1, and SPI2) used in BCM283...">
<polygon fill="none" stroke="black" points="105.5,-0.5 105.5,-30.5 257.5,-30.5 257.5,-0.5 105.5,-0.5"/>
<text text-anchor="start" x="113.5" y="-18.5" font-family="Helvetica,sans-Serif" font-size="10.00">src/gui/windows/peripherals</text>
<text text-anchor="middle" x="181.5" y="-7.5" font-family="Helvetica,sans-Serif" font-size="10.00">/aux_window.cpp</text>
</a>
</g>
</g>
<!-- Node1&#45;&gt;Node3 -->
<g id="edge2" class="edge">
<title>Node1&#45;&gt;Node3</title>
<path fill="none" stroke="midnightblue" d="M134.99,-60.31C145.34,-50.56 157.34,-39.26 166.56,-30.58"/>
<polygon fill="midnightblue" stroke="midnightblue" points="132.35,-57.99 127.47,-67.4 137.15,-63.09 132.35,-57.99"/>
</g>
</g>
</svg>
