<?xml version="1.0" encoding="UTF-8" standalone="no"?>
<!DOCTYPE svg PUBLIC "-//W3C//DTD SVG 1.1//EN"
 "http://www.w3.org/Graphics/SVG/1.1/DTD/svg11.dtd">
<!-- Generated by graphviz version 2.43.0 (0)
 -->
<!-- Title: src/gui/windows/peripherals/aux_window.cpp Pages: 1 -->
<svg width="879pt" height="453pt"
 viewBox="0.00 0.00 878.50 453.00" xmlns="http://www.w3.org/2000/svg" xmlns:xlink="http://www.w3.org/1999/xlink">
<g id="graph0" class="graph" transform="scale(1 1) rotate(0) translate(4 449)">
<title>src/gui/windows/peripherals/aux_window.cpp</title>
<!-- Node1 -->
<g id="node1" class="node">
<title>Node1</title>
<g id="a_node1"><a xlink:title="This file implements a window that visualizes the auxiliaries (UART1 &amp; SPI1, and SPI2) used in BCM283...">
<polygon fill="#bfbfbf" stroke="black" points="71.5,-414.5 71.5,-444.5 223.5,-444.5 223.5,-414.5 71.5,-414.5"/>
<text text-anchor="start" x="79.5" y="-432.5" font-family="Helvetica,sans-Serif" font-size="10.00">src/gui/windows/peripherals</text>
<text text-anchor="middle" x="147.5" y="-421.5" font-family="Helvetica,sans-Serif" font-size="10.00">/aux_window.cpp</text>
</a>
</g>
</g>
<!-- Node2 -->
<g id="node2" class="node">
<title>Node2</title>
<g id="a_node2"><a xlink:title=" ">
<polygon fill="none" stroke="#bfbfbf" points="0,-358.5 0,-377.5 79,-377.5 79,-358.5 0,-358.5"/>
<text text-anchor="middle" x="39.5" y="-365.5" font-family="Helvetica,sans-Serif" font-size="10.00">fmt/format.h</text>
</a>
</g>
</g>
<!-- Node1&#45;&gt;Node2 -->
<g id="edge1" class="edge">
<title>Node1&#45;&gt;Node2</title>
<path fill="none" stroke="midnightblue" d="M121.91,-414.4C104.43,-404.77 81.41,-392.09 64.14,-382.58"/>
<polygon fill="midnightblue" stroke="midnightblue" points="65.66,-379.42 55.21,-377.66 62.28,-385.55 65.66,-379.42"/>
</g>
<!-- Node3 -->
<g id="node3" class="node">
<title>Node3</title>
<g id="a_node3"><a xlink:title=" ">
<polygon fill="none" stroke="#bfbfbf" points="97,-358.5 97,-377.5 198,-377.5 198,-358.5 97,-358.5"/>
<text text-anchor="middle" x="147.5" y="-365.5" font-family="Helvetica,sans-Serif" font-size="10.00">magic_enum.hpp</text>
</a>
</g>
</g>
<!-- Node1&#45;&gt;Node3 -->
<g id="edge2" class="edge">
<title>Node1&#45;&gt;Node3</title>
<path fill="none" stroke="midnightblue" d="M147.5,-414.4C147.5,-406.47 147.5,-396.46 147.5,-387.86"/>
<polygon fill="midnightblue" stroke="midnightblue" points="151,-387.66 147.5,-377.66 144,-387.66 151,-387.66"/>
</g>
<!-- Node4 -->
<g id="node4" class="node">
<title>Node4</title>
<g id="a_node4"><a xlink:href="aux__window_8hpp.html" target="_top" xlink:title="This file defines a window that visualizes the auxiliaries (UART1 &amp; SPI1, and SPI2) used in BCM2835.">
<polygon fill="none" stroke="black" points="216.5,-358.5 216.5,-377.5 314.5,-377.5 314.5,-358.5 216.5,-358.5"/>
<text text-anchor="middle" x="265.5" y="-365.5" font-family="Helvetica,sans-Serif" font-size="10.00">aux_window.hpp</text>
</a>
</g>
</g>
<!-- Node1&#45;&gt;Node4 -->
<g id="edge3" class="edge">
<title>Node1&#45;&gt;Node4</title>
<path fill="none" stroke="midnightblue" d="M175.46,-414.4C194.82,-404.64 220.41,-391.74 239.36,-382.18"/>
<polygon fill="midnightblue" stroke="midnightblue" points="240.98,-385.29 248.33,-377.66 237.83,-379.04 240.98,-385.29"/>
</g>
<!-- Node5 -->
<g id="node5" class="node">
<title>Node5</title>
<g id="a_node5"><a xlink:href="window_8hpp.html" target="_top" xlink:title="This file defines an interface for all windows that will be rendered by the application.">
<polygon fill="none" stroke="black" points="117.5,-297 117.5,-316 209.5,-316 209.5,-297 117.5,-297"/>
<text text-anchor="middle" x="163.5" y="-304" font-family="Helvetica,sans-Serif" font-size="10.00">../../window.hpp</text>
</a>
</g>
</g>
<!-- Node4&#45;&gt;Node5 -->
<g id="edge4" class="edge">
<title>Node4&#45;&gt;Node5</title>
<path fill="none" stroke="midnightblue" d="M250.89,-358.48C234.15,-348.71 206.5,-332.58 186.78,-321.08"/>
<polygon fill="midnightblue" stroke="midnightblue" points="188.49,-318.02 178.09,-316.01 184.96,-324.07 188.49,-318.02"/>
</g>
<!-- Node7 -->
<g id="node7" class="node">
<title>Node7</title>
<g id="a_node7"><a xlink:href="auxiliary_8hpp.html" target="_top" xlink:title=" ">
<polygon fill="none" stroke="black" points="302.5,-291.5 302.5,-321.5 430.5,-321.5 430.5,-291.5 302.5,-291.5"/>
<text text-anchor="start" x="310.5" y="-309.5" font-family="Helvetica,sans-Serif" font-size="10.00">../../../core/peripherals</text>
<text text-anchor="middle" x="366.5" y="-298.5" font-family="Helvetica,sans-Serif" font-size="10.00">/auxiliary/auxiliary.hpp</text>
</a>
</g>
</g>
<!-- Node4&#45;&gt;Node7 -->
<g id="edge6" class="edge">
<title>Node4&#45;&gt;Node7</title>
<path fill="none" stroke="midnightblue" d="M279.97,-358.48C293.91,-350.27 315.48,-337.56 333.6,-326.88"/>
<polygon fill="midnightblue" stroke="midnightblue" points="335.86,-329.61 342.7,-321.52 332.3,-323.58 335.86,-329.61"/>
</g>
<!-- Node6 -->
<g id="node6" class="node">
<title>Node6</title>
<g id="a_node6"><a xlink:title=" ">
<polygon fill="none" stroke="#bfbfbf" points="46.5,-235.5 46.5,-254.5 130.5,-254.5 130.5,-235.5 46.5,-235.5"/>
<text text-anchor="middle" x="88.5" y="-242.5" font-family="Helvetica,sans-Serif" font-size="10.00">imgui/imgui.h</text>
</a>
</g>
</g>
<!-- Node5&#45;&gt;Node6 -->
<g id="edge5" class="edge">
<title>Node5&#45;&gt;Node6</title>
<path fill="none" stroke="midnightblue" d="M152.75,-296.98C140.95,-287.61 121.76,-272.38 107.42,-261.01"/>
<polygon fill="midnightblue" stroke="midnightblue" points="109.24,-257.98 99.23,-254.51 104.88,-263.47 109.24,-257.98"/>
</g>
<!-- Node8 -->
<g id="node8" class="node">
<title>Node8</title>
<g id="a_node8"><a xlink:href="gpio_8hpp.html" target="_top" xlink:title="This file defines the GPIO controller used in BCM2835.">
<polygon fill="none" stroke="black" points="570.5,-235.5 570.5,-254.5 638.5,-254.5 638.5,-235.5 570.5,-235.5"/>
<text text-anchor="middle" x="604.5" y="-242.5" font-family="Helvetica,sans-Serif" font-size="10.00">../gpio.hpp</text>
</a>
</g>
</g>
<!-- Node7&#45;&gt;Node8 -->
<g id="edge7" class="edge">
<title>Node7&#45;&gt;Node8</title>
<path fill="none" stroke="midnightblue" d="M422.6,-291.47C464.74,-280.94 521.64,-266.72 560.51,-257"/>
<polygon fill="midnightblue" stroke="midnightblue" points="561.62,-260.33 570.47,-254.51 559.92,-253.54 561.62,-260.33"/>
</g>
<!-- Node9 -->
<g id="node9" class="node">
<title>Node9</title>
<g id="a_node9"><a xlink:href="peripheral_8hpp.html" target="_top" xlink:title="This file defines an interface for a memory&#45;mapped peripheral.">
<polygon fill="none" stroke="black" points="407,-118 407,-137 494,-137 494,-118 407,-118"/>
<text text-anchor="middle" x="450.5" y="-125" font-family="Helvetica,sans-Serif" font-size="10.00">peripheral.hpp</text>
</a>
</g>
</g>
<!-- Node7&#45;&gt;Node9 -->
<g id="edge20" class="edge">
<title>Node7&#45;&gt;Node9</title>
<path fill="none" stroke="midnightblue" d="M409.31,-291.42C426.19,-283.52 443.83,-271.8 453.5,-255 473.07,-221.02 463.89,-172.92 456.54,-146.92"/>
<polygon fill="midnightblue" stroke="midnightblue" points="459.85,-145.78 453.59,-137.23 453.15,-147.82 459.85,-145.78"/>
</g>
<!-- Node10 -->
<g id="node10" class="node">
<title>Node10</title>
<g id="a_node10"><a xlink:href="interrupt__controller_8hpp.html" target="_top" xlink:title="This file defines the interrupt controller used in BCM2835.">
<polygon fill="none" stroke="black" points="539,-179.5 539,-198.5 670,-198.5 670,-179.5 539,-179.5"/>
<text text-anchor="middle" x="604.5" y="-186.5" font-family="Helvetica,sans-Serif" font-size="10.00">interrupt_controller.hpp</text>
</a>
</g>
</g>
<!-- Node7&#45;&gt;Node10 -->
<g id="edge22" class="edge">
<title>Node7&#45;&gt;Node10</title>
<path fill="none" stroke="midnightblue" d="M402.64,-291.44C426.69,-281.81 458.83,-268.4 486.5,-255 520.17,-238.7 557.84,-217.39 581.36,-203.7"/>
<polygon fill="midnightblue" stroke="midnightblue" points="583.36,-206.58 590.22,-198.5 579.83,-200.54 583.36,-206.58"/>
</g>
<!-- Node12 -->
<g id="node12" class="node">
<title>Node12</title>
<g id="a_node12"><a xlink:href="logger_8hpp.html" target="_top" xlink:title="This file defines a general logger interface as well as a logging system that is used in the project.">
<polygon fill="none" stroke="black" points="596.5,-56.5 596.5,-75.5 742.5,-75.5 742.5,-56.5 596.5,-56.5"/>
<text text-anchor="middle" x="669.5" y="-63.5" font-family="Helvetica,sans-Serif" font-size="10.00">zero_mate/utils/logger.hpp</text>
</a>
</g>
</g>
<!-- Node7&#45;&gt;Node12 -->
<g id="edge23" class="edge">
<title>Node7&#45;&gt;Node12</title>
<path fill="none" stroke="midnightblue" d="M302.14,-296.76C253.58,-288.7 192.81,-274.93 177.5,-255 172.09,-247.95 173,-242.66 177.5,-235 234.47,-138.1 292.38,-149.09 398.5,-112 459.43,-90.71 531.67,-79.35 586.24,-73.38"/>
<polygon fill="midnightblue" stroke="midnightblue" points="586.64,-76.85 596.21,-72.32 585.9,-69.89 586.64,-76.85"/>
</g>
<!-- Node15 -->
<g id="node15" class="node">
<title>Node15</title>
<g id="a_node15"><a xlink:href="mini__uart_8hpp.html" target="_top" xlink:title="This file defines the Mini UART auxiliary peripheral used in BCM2835.">
<polygon fill="none" stroke="black" points="186.5,-235.5 186.5,-254.5 270.5,-254.5 270.5,-235.5 186.5,-235.5"/>
<text text-anchor="middle" x="228.5" y="-242.5" font-family="Helvetica,sans-Serif" font-size="10.00">mini_uart.hpp</text>
</a>
</g>
</g>
<!-- Node7&#45;&gt;Node15 -->
<g id="edge19" class="edge">
<title>Node7&#45;&gt;Node15</title>
<path fill="none" stroke="midnightblue" d="M333.8,-291.4C310.75,-281.46 280.14,-268.26 257.87,-258.66"/>
<polygon fill="midnightblue" stroke="midnightblue" points="259.15,-255.4 248.58,-254.66 256.38,-261.83 259.15,-255.4"/>
</g>
<!-- Node16 -->
<g id="node16" class="node">
<title>Node16</title>
<g id="a_node16"><a xlink:href="system__clock__listener_8hpp.html" target="_top" xlink:title="This file defines an interface for a CPU clock listener.">
<polygon fill="none" stroke="black" points="289,-235.5 289,-254.5 444,-254.5 444,-235.5 289,-235.5"/>
<text text-anchor="middle" x="366.5" y="-242.5" font-family="Helvetica,sans-Serif" font-size="10.00">../system_clock_listener.hpp</text>
</a>
</g>
</g>
<!-- Node7&#45;&gt;Node16 -->
<g id="edge21" class="edge">
<title>Node7&#45;&gt;Node16</title>
<path fill="none" stroke="midnightblue" d="M366.5,-291.4C366.5,-283.47 366.5,-273.46 366.5,-264.86"/>
<polygon fill="midnightblue" stroke="midnightblue" points="370,-264.66 366.5,-254.66 363,-264.66 370,-264.66"/>
</g>
<!-- Node8&#45;&gt;Node9 -->
<g id="edge8" class="edge">
<title>Node8&#45;&gt;Node9</title>
<path fill="none" stroke="midnightblue" d="M588.68,-235.46C573.34,-226.92 549.64,-213.08 530.5,-199 507.14,-181.81 482.4,-159.25 466.73,-144.34"/>
<polygon fill="midnightblue" stroke="midnightblue" points="469.05,-141.71 459.41,-137.3 464.2,-146.76 469.05,-141.71"/>
</g>
<!-- Node8&#45;&gt;Node10 -->
<g id="edge9" class="edge">
<title>Node8&#45;&gt;Node10</title>
<path fill="none" stroke="midnightblue" d="M604.5,-235.08C604.5,-228.01 604.5,-217.86 604.5,-208.99"/>
<polygon fill="midnightblue" stroke="midnightblue" points="608,-208.75 604.5,-198.75 601,-208.75 608,-208.75"/>
</g>
<!-- Node8&#45;&gt;Node12 -->
<g id="edge15" class="edge">
<title>Node8&#45;&gt;Node12</title>
<path fill="none" stroke="midnightblue" d="M624.56,-235.46C640.86,-227.76 663.67,-215.17 679.5,-199 699.55,-178.52 704.14,-170.71 711.5,-143 715.04,-129.68 716.55,-124.82 711.5,-112 706.99,-100.55 698.03,-90.29 689.55,-82.47"/>
<polygon fill="midnightblue" stroke="midnightblue" points="691.59,-79.61 681.71,-75.76 687.03,-84.93 691.59,-79.61"/>
</g>
<!-- Node14 -->
<g id="node14" class="node">
<title>Node14</title>
<g id="a_node14"><a xlink:href="external__peripheral_8hpp.html" target="_top" xlink:title="This file defines an interface for external peripherals that can be attached to the system via GPIO p...">
<polygon fill="none" stroke="black" points="758.5,-112.5 758.5,-142.5 870.5,-142.5 870.5,-112.5 758.5,-112.5"/>
<text text-anchor="start" x="766.5" y="-130.5" font-family="Helvetica,sans-Serif" font-size="10.00">zero_mate/external</text>
<text text-anchor="middle" x="814.5" y="-119.5" font-family="Helvetica,sans-Serif" font-size="10.00">_peripheral.hpp</text>
</a>
</g>
</g>
<!-- Node8&#45;&gt;Node14 -->
<g id="edge16" class="edge">
<title>Node8&#45;&gt;Node14</title>
<path fill="none" stroke="midnightblue" d="M638.66,-237.8C668.26,-231.34 711.42,-219.28 744.5,-199 765.22,-186.3 784.34,-166.22 797.34,-150.73"/>
<polygon fill="midnightblue" stroke="midnightblue" points="800.3,-152.64 803.91,-142.68 794.87,-148.22 800.3,-152.64"/>
</g>
<!-- Node10&#45;&gt;Node9 -->
<g id="edge10" class="edge">
<title>Node10&#45;&gt;Node9</title>
<path fill="none" stroke="midnightblue" d="M582.44,-179.48C556.13,-169.31 511.99,-152.26 482.08,-140.7"/>
<polygon fill="midnightblue" stroke="midnightblue" points="483.11,-137.35 472.52,-137.01 480.59,-143.88 483.11,-137.35"/>
</g>
<!-- Node11 -->
<g id="node11" class="node">
<title>Node11</title>
<g id="a_node11"><a xlink:href="context_8hpp.html" target="_top" xlink:title="This file defines the context (registers) of the CPU.">
<polygon fill="none" stroke="black" points="550.5,-118 550.5,-137 702.5,-137 702.5,-118 550.5,-118"/>
<text text-anchor="middle" x="626.5" y="-125" font-family="Helvetica,sans-Serif" font-size="10.00">../arm1176jzf_s/context.hpp</text>
</a>
</g>
</g>
<!-- Node10&#45;&gt;Node11 -->
<g id="edge11" class="edge">
<title>Node10&#45;&gt;Node11</title>
<path fill="none" stroke="midnightblue" d="M607.65,-179.48C610.82,-170.9 615.8,-157.43 619.85,-146.48"/>
<polygon fill="midnightblue" stroke="midnightblue" points="623.17,-147.6 623.35,-137.01 616.6,-145.17 623.17,-147.6"/>
</g>
<!-- Node10&#45;&gt;Node12 -->
<g id="edge14" class="edge">
<title>Node10&#45;&gt;Node12</title>
<path fill="none" stroke="midnightblue" d="M583.65,-179.43C568.92,-172.13 550.3,-160.09 541.5,-143 535.2,-130.75 533.54,-123.24 541.5,-112 553.03,-95.72 570.94,-85.29 589.75,-78.62"/>
<polygon fill="midnightblue" stroke="midnightblue" points="590.88,-81.93 599.33,-75.54 588.74,-75.26 590.88,-81.93"/>
</g>
<!-- Node11&#45;&gt;Node12 -->
<g id="edge12" class="edge">
<title>Node11&#45;&gt;Node12</title>
<path fill="none" stroke="midnightblue" d="M632.66,-117.98C639.11,-109.05 649.4,-94.81 657.47,-83.64"/>
<polygon fill="midnightblue" stroke="midnightblue" points="660.33,-85.66 663.35,-75.51 654.66,-81.56 660.33,-85.66"/>
</g>
<!-- Node13 -->
<g id="node13" class="node">
<title>Node13</title>
<g id="a_node13"><a xlink:href="api__export_8hpp.html" target="_top" xlink:title="This file defines macros for exporting symbols out of a shared library.">
<polygon fill="none" stroke="black" points="647.5,-0.5 647.5,-19.5 791.5,-19.5 791.5,-0.5 647.5,-0.5"/>
<text text-anchor="middle" x="719.5" y="-7.5" font-family="Helvetica,sans-Serif" font-size="10.00">zero_mate/api_export.hpp</text>
</a>
</g>
</g>
<!-- Node12&#45;&gt;Node13 -->
<g id="edge13" class="edge">
<title>Node12&#45;&gt;Node13</title>
<path fill="none" stroke="midnightblue" d="M677.76,-56.08C684.96,-48.3 695.61,-36.8 704.35,-27.37"/>
<polygon fill="midnightblue" stroke="midnightblue" points="707.17,-29.47 711.4,-19.75 702.03,-24.71 707.17,-29.47"/>
</g>
<!-- Node14&#45;&gt;Node12 -->
<g id="edge18" class="edge">
<title>Node14&#45;&gt;Node12</title>
<path fill="none" stroke="midnightblue" d="M780.14,-112.4C755.81,-102.42 723.47,-89.15 700.04,-79.53"/>
<polygon fill="midnightblue" stroke="midnightblue" points="701.18,-76.22 690.6,-75.66 698.52,-82.69 701.18,-76.22"/>
</g>
<!-- Node14&#45;&gt;Node13 -->
<g id="edge17" class="edge">
<title>Node14&#45;&gt;Node13</title>
<path fill="none" stroke="midnightblue" d="M802.85,-112.34C785.19,-90.86 751.72,-50.17 733.01,-27.43"/>
<polygon fill="midnightblue" stroke="midnightblue" points="735.69,-25.17 726.63,-19.67 730.28,-29.62 735.69,-25.17"/>
</g>
</g>
</svg>
