<?xml version="1.0" encoding="UTF-8" standalone="no"?>
<!DOCTYPE svg PUBLIC "-//W3C//DTD SVG 1.1//EN"
 "http://www.w3.org/Graphics/SVG/1.1/DTD/svg11.dtd">
<!-- Generated by graphviz version 2.43.0 (0)
 -->
<!-- Title: src/gui/windows/peripherals/aux_window.hpp Pages: 1 -->
<svg width="832pt" height="397pt"
 viewBox="0.00 0.00 832.00 397.00" xmlns="http://www.w3.org/2000/svg" xmlns:xlink="http://www.w3.org/1999/xlink">
<g id="graph0" class="graph" transform="scale(1 1) rotate(0) translate(4 393)">
<title>src/gui/windows/peripherals/aux_window.hpp</title>
<!-- Node1 -->
<g id="node1" class="node">
<title>Node1</title>
<g id="a_node1"><a xlink:title="This file defines a window that visualizes the auxiliaries (UART1 &amp; SPI1, and SPI2) used in BCM2835.">
<polygon fill="#bfbfbf" stroke="black" points="105,-358.5 105,-388.5 257,-388.5 257,-358.5 105,-358.5"/>
<text text-anchor="start" x="113" y="-376.5" font-family="Helvetica,sans-Serif" font-size="10.00">src/gui/windows/peripherals</text>
<text text-anchor="middle" x="181" y="-365.5" font-family="Helvetica,sans-Serif" font-size="10.00">/aux_window.hpp</text>
</a>
</g>
</g>
<!-- Node2 -->
<g id="node2" class="node">
<title>Node2</title>
<g id="a_node2"><a xlink:href="window_8hpp.html" target="_top" xlink:title="This file defines an interface for all windows that will be rendered by the application.">
<polygon fill="none" stroke="black" points="71,-297 71,-316 163,-316 163,-297 71,-297"/>
<text text-anchor="middle" x="117" y="-304" font-family="Helvetica,sans-Serif" font-size="10.00">../../window.hpp</text>
</a>
</g>
</g>
<!-- Node1&#45;&gt;Node2 -->
<g id="edge1" class="edge">
<title>Node1&#45;&gt;Node2</title>
<path fill="none" stroke="midnightblue" d="M167.11,-358.4C157.04,-348.16 143.38,-334.3 132.87,-323.62"/>
<polygon fill="midnightblue" stroke="midnightblue" points="135.07,-320.86 125.56,-316.19 130.08,-325.78 135.07,-320.86"/>
</g>
<!-- Node4 -->
<g id="node4" class="node">
<title>Node4</title>
<g id="a_node4"><a xlink:href="auxiliary_8hpp.html" target="_top" xlink:title=" ">
<polygon fill="none" stroke="black" points="256,-291.5 256,-321.5 384,-321.5 384,-291.5 256,-291.5"/>
<text text-anchor="start" x="264" y="-309.5" font-family="Helvetica,sans-Serif" font-size="10.00">../../../core/peripherals</text>
<text text-anchor="middle" x="320" y="-298.5" font-family="Helvetica,sans-Serif" font-size="10.00">/auxiliary/auxiliary.hpp</text>
</a>
</g>
</g>
<!-- Node1&#45;&gt;Node4 -->
<g id="edge3" class="edge">
<title>Node1&#45;&gt;Node4</title>
<path fill="none" stroke="midnightblue" d="M211.16,-358.4C231.56,-348.86 258.7,-336.16 280.78,-325.84"/>
<polygon fill="midnightblue" stroke="midnightblue" points="282.32,-328.98 289.9,-321.58 279.36,-322.64 282.32,-328.98"/>
</g>
<!-- Node3 -->
<g id="node3" class="node">
<title>Node3</title>
<g id="a_node3"><a xlink:title=" ">
<polygon fill="none" stroke="#bfbfbf" points="0,-235.5 0,-254.5 84,-254.5 84,-235.5 0,-235.5"/>
<text text-anchor="middle" x="42" y="-242.5" font-family="Helvetica,sans-Serif" font-size="10.00">imgui/imgui.h</text>
</a>
</g>
</g>
<!-- Node2&#45;&gt;Node3 -->
<g id="edge2" class="edge">
<title>Node2&#45;&gt;Node3</title>
<path fill="none" stroke="midnightblue" d="M106.25,-296.98C94.45,-287.61 75.26,-272.38 60.92,-261.01"/>
<polygon fill="midnightblue" stroke="midnightblue" points="62.74,-257.98 52.73,-254.51 58.38,-263.47 62.74,-257.98"/>
</g>
<!-- Node5 -->
<g id="node5" class="node">
<title>Node5</title>
<g id="a_node5"><a xlink:href="gpio_8hpp.html" target="_top" xlink:title="This file defines the GPIO controller used in BCM2835.">
<polygon fill="none" stroke="black" points="524,-235.5 524,-254.5 592,-254.5 592,-235.5 524,-235.5"/>
<text text-anchor="middle" x="558" y="-242.5" font-family="Helvetica,sans-Serif" font-size="10.00">../gpio.hpp</text>
</a>
</g>
</g>
<!-- Node4&#45;&gt;Node5 -->
<g id="edge4" class="edge">
<title>Node4&#45;&gt;Node5</title>
<path fill="none" stroke="midnightblue" d="M376.1,-291.47C418.24,-280.94 475.14,-266.72 514.01,-257"/>
<polygon fill="midnightblue" stroke="midnightblue" points="515.12,-260.33 523.97,-254.51 513.42,-253.54 515.12,-260.33"/>
</g>
<!-- Node6 -->
<g id="node6" class="node">
<title>Node6</title>
<g id="a_node6"><a xlink:href="peripheral_8hpp.html" target="_top" xlink:title="This file defines an interface for a memory&#45;mapped peripheral.">
<polygon fill="none" stroke="black" points="360.5,-118 360.5,-137 447.5,-137 447.5,-118 360.5,-118"/>
<text text-anchor="middle" x="404" y="-125" font-family="Helvetica,sans-Serif" font-size="10.00">peripheral.hpp</text>
</a>
</g>
</g>
<!-- Node4&#45;&gt;Node6 -->
<g id="edge17" class="edge">
<title>Node4&#45;&gt;Node6</title>
<path fill="none" stroke="midnightblue" d="M362.81,-291.42C379.69,-283.52 397.33,-271.8 407,-255 426.57,-221.02 417.39,-172.92 410.04,-146.92"/>
<polygon fill="midnightblue" stroke="midnightblue" points="413.35,-145.78 407.09,-137.23 406.65,-147.82 413.35,-145.78"/>
</g>
<!-- Node7 -->
<g id="node7" class="node">
<title>Node7</title>
<g id="a_node7"><a xlink:href="interrupt__controller_8hpp.html" target="_top" xlink:title="This file defines the interrupt controller used in BCM2835.">
<polygon fill="none" stroke="black" points="492.5,-179.5 492.5,-198.5 623.5,-198.5 623.5,-179.5 492.5,-179.5"/>
<text text-anchor="middle" x="558" y="-186.5" font-family="Helvetica,sans-Serif" font-size="10.00">interrupt_controller.hpp</text>
</a>
</g>
</g>
<!-- Node4&#45;&gt;Node7 -->
<g id="edge19" class="edge">
<title>Node4&#45;&gt;Node7</title>
<path fill="none" stroke="midnightblue" d="M356.14,-291.44C380.19,-281.81 412.33,-268.4 440,-255 473.67,-238.7 511.34,-217.39 534.86,-203.7"/>
<polygon fill="midnightblue" stroke="midnightblue" points="536.86,-206.58 543.72,-198.5 533.33,-200.54 536.86,-206.58"/>
</g>
<!-- Node9 -->
<g id="node9" class="node">
<title>Node9</title>
<g id="a_node9"><a xlink:href="logger_8hpp.html" target="_top" xlink:title="This file defines a general logger interface as well as a logging system that is used in the project.">
<polygon fill="none" stroke="black" points="550,-56.5 550,-75.5 696,-75.5 696,-56.5 550,-56.5"/>
<text text-anchor="middle" x="623" y="-63.5" font-family="Helvetica,sans-Serif" font-size="10.00">zero_mate/utils/logger.hpp</text>
</a>
</g>
</g>
<!-- Node4&#45;&gt;Node9 -->
<g id="edge20" class="edge">
<title>Node4&#45;&gt;Node9</title>
<path fill="none" stroke="midnightblue" d="M255.64,-296.76C207.08,-288.7 146.31,-274.93 131,-255 125.59,-247.95 126.5,-242.66 131,-235 187.97,-138.1 245.88,-149.09 352,-112 412.93,-90.71 485.17,-79.35 539.74,-73.38"/>
<polygon fill="midnightblue" stroke="midnightblue" points="540.14,-76.85 549.71,-72.32 539.4,-69.89 540.14,-76.85"/>
</g>
<!-- Node12 -->
<g id="node12" class="node">
<title>Node12</title>
<g id="a_node12"><a xlink:href="mini__uart_8hpp.html" target="_top" xlink:title="This file defines the Mini UART auxiliary peripheral used in BCM2835.">
<polygon fill="none" stroke="black" points="140,-235.5 140,-254.5 224,-254.5 224,-235.5 140,-235.5"/>
<text text-anchor="middle" x="182" y="-242.5" font-family="Helvetica,sans-Serif" font-size="10.00">mini_uart.hpp</text>
</a>
</g>
</g>
<!-- Node4&#45;&gt;Node12 -->
<g id="edge16" class="edge">
<title>Node4&#45;&gt;Node12</title>
<path fill="none" stroke="midnightblue" d="M287.3,-291.4C264.25,-281.46 233.64,-268.26 211.37,-258.66"/>
<polygon fill="midnightblue" stroke="midnightblue" points="212.65,-255.4 202.08,-254.66 209.88,-261.83 212.65,-255.4"/>
</g>
<!-- Node13 -->
<g id="node13" class="node">
<title>Node13</title>
<g id="a_node13"><a xlink:href="system__clock__listener_8hpp.html" target="_top" xlink:title="This file defines an interface for a CPU clock listener.">
<polygon fill="none" stroke="black" points="242.5,-235.5 242.5,-254.5 397.5,-254.5 397.5,-235.5 242.5,-235.5"/>
<text text-anchor="middle" x="320" y="-242.5" font-family="Helvetica,sans-Serif" font-size="10.00">../system_clock_listener.hpp</text>
</a>
</g>
</g>
<!-- Node4&#45;&gt;Node13 -->
<g id="edge18" class="edge">
<title>Node4&#45;&gt;Node13</title>
<path fill="none" stroke="midnightblue" d="M320,-291.4C320,-283.47 320,-273.46 320,-264.86"/>
<polygon fill="midnightblue" stroke="midnightblue" points="323.5,-264.66 320,-254.66 316.5,-264.66 323.5,-264.66"/>
</g>
<!-- Node5&#45;&gt;Node6 -->
<g id="edge5" class="edge">
<title>Node5&#45;&gt;Node6</title>
<path fill="none" stroke="midnightblue" d="M542.18,-235.46C526.84,-226.92 503.14,-213.08 484,-199 460.64,-181.81 435.9,-159.25 420.23,-144.34"/>
<polygon fill="midnightblue" stroke="midnightblue" points="422.55,-141.71 412.91,-137.3 417.7,-146.76 422.55,-141.71"/>
</g>
<!-- Node5&#45;&gt;Node7 -->
<g id="edge6" class="edge">
<title>Node5&#45;&gt;Node7</title>
<path fill="none" stroke="midnightblue" d="M558,-235.08C558,-228.01 558,-217.86 558,-208.99"/>
<polygon fill="midnightblue" stroke="midnightblue" points="561.5,-208.75 558,-198.75 554.5,-208.75 561.5,-208.75"/>
</g>
<!-- Node5&#45;&gt;Node9 -->
<g id="edge12" class="edge">
<title>Node5&#45;&gt;Node9</title>
<path fill="none" stroke="midnightblue" d="M578.06,-235.46C594.36,-227.76 617.17,-215.17 633,-199 653.05,-178.52 657.64,-170.71 665,-143 668.54,-129.68 670.05,-124.82 665,-112 660.49,-100.55 651.53,-90.29 643.05,-82.47"/>
<polygon fill="midnightblue" stroke="midnightblue" points="645.09,-79.61 635.21,-75.76 640.53,-84.93 645.09,-79.61"/>
</g>
<!-- Node11 -->
<g id="node11" class="node">
<title>Node11</title>
<g id="a_node11"><a xlink:href="external__peripheral_8hpp.html" target="_top" xlink:title="This file defines an interface for external peripherals that can be attached to the system via GPIO p...">
<polygon fill="none" stroke="black" points="712,-112.5 712,-142.5 824,-142.5 824,-112.5 712,-112.5"/>
<text text-anchor="start" x="720" y="-130.5" font-family="Helvetica,sans-Serif" font-size="10.00">zero_mate/external</text>
<text text-anchor="middle" x="768" y="-119.5" font-family="Helvetica,sans-Serif" font-size="10.00">_peripheral.hpp</text>
</a>
</g>
</g>
<!-- Node5&#45;&gt;Node11 -->
<g id="edge13" class="edge">
<title>Node5&#45;&gt;Node11</title>
<path fill="none" stroke="midnightblue" d="M592.16,-237.8C621.76,-231.34 664.92,-219.28 698,-199 718.72,-186.3 737.84,-166.22 750.84,-150.73"/>
<polygon fill="midnightblue" stroke="midnightblue" points="753.8,-152.64 757.41,-142.68 748.37,-148.22 753.8,-152.64"/>
</g>
<!-- Node7&#45;&gt;Node6 -->
<g id="edge7" class="edge">
<title>Node7&#45;&gt;Node6</title>
<path fill="none" stroke="midnightblue" d="M535.94,-179.48C509.63,-169.31 465.49,-152.26 435.58,-140.7"/>
<polygon fill="midnightblue" stroke="midnightblue" points="436.61,-137.35 426.02,-137.01 434.09,-143.88 436.61,-137.35"/>
</g>
<!-- Node8 -->
<g id="node8" class="node">
<title>Node8</title>
<g id="a_node8"><a xlink:href="context_8hpp.html" target="_top" xlink:title="This file defines the context (registers) of the CPU.">
<polygon fill="none" stroke="black" points="504,-118 504,-137 656,-137 656,-118 504,-118"/>
<text text-anchor="middle" x="580" y="-125" font-family="Helvetica,sans-Serif" font-size="10.00">../arm1176jzf_s/context.hpp</text>
</a>
</g>
</g>
<!-- Node7&#45;&gt;Node8 -->
<g id="edge8" class="edge">
<title>Node7&#45;&gt;Node8</title>
<path fill="none" stroke="midnightblue" d="M561.15,-179.48C564.32,-170.9 569.3,-157.43 573.35,-146.48"/>
<polygon fill="midnightblue" stroke="midnightblue" points="576.67,-147.6 576.85,-137.01 570.1,-145.17 576.67,-147.6"/>
</g>
<!-- Node7&#45;&gt;Node9 -->
<g id="edge11" class="edge">
<title>Node7&#45;&gt;Node9</title>
<path fill="none" stroke="midnightblue" d="M537.15,-179.43C522.42,-172.13 503.8,-160.09 495,-143 488.7,-130.75 487.04,-123.24 495,-112 506.53,-95.72 524.44,-85.29 543.25,-78.62"/>
<polygon fill="midnightblue" stroke="midnightblue" points="544.38,-81.93 552.83,-75.54 542.24,-75.26 544.38,-81.93"/>
</g>
<!-- Node8&#45;&gt;Node9 -->
<g id="edge9" class="edge">
<title>Node8&#45;&gt;Node9</title>
<path fill="none" stroke="midnightblue" d="M586.16,-117.98C592.61,-109.05 602.9,-94.81 610.97,-83.64"/>
<polygon fill="midnightblue" stroke="midnightblue" points="613.83,-85.66 616.85,-75.51 608.16,-81.56 613.83,-85.66"/>
</g>
<!-- Node10 -->
<g id="node10" class="node">
<title>Node10</title>
<g id="a_node10"><a xlink:href="api__export_8hpp.html" target="_top" xlink:title="This file defines macros for exporting symbols out of a shared library.">
<polygon fill="none" stroke="black" points="601,-0.5 601,-19.5 745,-19.5 745,-0.5 601,-0.5"/>
<text text-anchor="middle" x="673" y="-7.5" font-family="Helvetica,sans-Serif" font-size="10.00">zero_mate/api_export.hpp</text>
</a>
</g>
</g>
<!-- Node9&#45;&gt;Node10 -->
<g id="edge10" class="edge">
<title>Node9&#45;&gt;Node10</title>
<path fill="none" stroke="midnightblue" d="M631.26,-56.08C638.46,-48.3 649.11,-36.8 657.85,-27.37"/>
<polygon fill="midnightblue" stroke="midnightblue" points="660.67,-29.47 664.9,-19.75 655.53,-24.71 660.67,-29.47"/>
</g>
<!-- Node11&#45;&gt;Node9 -->
<g id="edge15" class="edge">
<title>Node11&#45;&gt;Node9</title>
<path fill="none" stroke="midnightblue" d="M733.64,-112.4C709.31,-102.42 676.97,-89.15 653.54,-79.53"/>
<polygon fill="midnightblue" stroke="midnightblue" points="654.68,-76.22 644.1,-75.66 652.02,-82.69 654.68,-76.22"/>
</g>
<!-- Node11&#45;&gt;Node10 -->
<g id="edge14" class="edge">
<title>Node11&#45;&gt;Node10</title>
<path fill="none" stroke="midnightblue" d="M756.35,-112.34C738.69,-90.86 705.22,-50.17 686.51,-27.43"/>
<polygon fill="midnightblue" stroke="midnightblue" points="689.19,-25.17 680.13,-19.67 683.78,-29.62 689.19,-25.17"/>
</g>
</g>
</svg>
