<?xml version="1.0" encoding="UTF-8" standalone="no"?>
<!DOCTYPE svg PUBLIC "-//W3C//DTD SVG 1.1//EN"
 "http://www.w3.org/Graphics/SVG/1.1/DTD/svg11.dtd">
<!-- Generated by graphviz version 2.43.0 (0)
 -->
<!-- Title: src/gui/windows/peripherals/aux_window.hpp Pages: 1 -->
<svg width="555pt" height="341pt"
 viewBox="0.00 0.00 555.45 341.00" xmlns="http://www.w3.org/2000/svg" xmlns:xlink="http://www.w3.org/1999/xlink">
<g id="graph0" class="graph" transform="scale(1 1) rotate(0) translate(4 337)">
<title>src/gui/windows/peripherals/aux_window.hpp</title>
<!-- Node1 -->
<g id="node1" class="node">
<title>Node1</title>
<g id="a_node1"><a xlink:title="This file defines a window that visualizes the auxiliaries (UART1 &amp; SPI1, and SPI2) used in BCM2835.">
<polygon fill="#bfbfbf" stroke="black" points="129,-302.5 129,-332.5 281,-332.5 281,-302.5 129,-302.5"/>
<text text-anchor="start" x="137" y="-320.5" font-family="Helvetica,sans-Serif" font-size="10.00">src/gui/windows/peripherals</text>
<text text-anchor="middle" x="205" y="-309.5" font-family="Helvetica,sans-Serif" font-size="10.00">/aux_window.hpp</text>
</a>
</g>
</g>
<!-- Node2 -->
<g id="node2" class="node">
<title>Node2</title>
<g id="a_node2"><a xlink:href="window_8hpp.html" target="_top" xlink:title="This file defines an interface for all windows that will be rendered by the application.">
<polygon fill="none" stroke="black" points="95,-241 95,-260 187,-260 187,-241 95,-241"/>
<text text-anchor="middle" x="141" y="-248" font-family="Helvetica,sans-Serif" font-size="10.00">../../window.hpp</text>
</a>
</g>
</g>
<!-- Node1&#45;&gt;Node2 -->
<g id="edge1" class="edge">
<title>Node1&#45;&gt;Node2</title>
<path fill="none" stroke="midnightblue" d="M191.11,-302.4C181.04,-292.16 167.38,-278.3 156.87,-267.62"/>
<polygon fill="midnightblue" stroke="midnightblue" points="159.07,-264.86 149.56,-260.19 154.08,-269.78 159.07,-264.86"/>
</g>
<!-- Node4 -->
<g id="node4" class="node">
<title>Node4</title>
<g id="a_node4"><a xlink:href="auxiliary_8hpp.html" target="_top" xlink:title=" ">
<polygon fill="none" stroke="black" points="304,-235.5 304,-265.5 432,-265.5 432,-235.5 304,-235.5"/>
<text text-anchor="start" x="312" y="-253.5" font-family="Helvetica,sans-Serif" font-size="10.00">../../../core/peripherals</text>
<text text-anchor="middle" x="368" y="-242.5" font-family="Helvetica,sans-Serif" font-size="10.00">/auxiliary/auxiliary.hpp</text>
</a>
</g>
</g>
<!-- Node1&#45;&gt;Node4 -->
<g id="edge3" class="edge">
<title>Node1&#45;&gt;Node4</title>
<path fill="none" stroke="midnightblue" d="M240.37,-302.4C264.72,-292.69 297.26,-279.71 323.39,-269.29"/>
<polygon fill="midnightblue" stroke="midnightblue" points="324.71,-272.53 332.7,-265.58 322.12,-266.03 324.71,-272.53"/>
</g>
<!-- Node3 -->
<g id="node3" class="node">
<title>Node3</title>
<g id="a_node3"><a xlink:title=" ">
<polygon fill="none" stroke="#bfbfbf" points="0,-179.5 0,-198.5 84,-198.5 84,-179.5 0,-179.5"/>
<text text-anchor="middle" x="42" y="-186.5" font-family="Helvetica,sans-Serif" font-size="10.00">imgui/imgui.h</text>
</a>
</g>
</g>
<!-- Node2&#45;&gt;Node3 -->
<g id="edge2" class="edge">
<title>Node2&#45;&gt;Node3</title>
<path fill="none" stroke="midnightblue" d="M126.82,-240.98C110.64,-231.25 83.97,-215.23 64.86,-203.74"/>
<polygon fill="midnightblue" stroke="midnightblue" points="66.53,-200.66 56.16,-198.51 62.93,-206.66 66.53,-200.66"/>
</g>
<!-- Node5 -->
<g id="node5" class="node">
<title>Node5</title>
<g id="a_node5"><a xlink:href="gpio_8hpp.html" target="_top" xlink:title="This file defines the GPIO controller used in BCM2835.">
<polygon fill="none" stroke="black" points="102,-179.5 102,-198.5 170,-198.5 170,-179.5 102,-179.5"/>
<text text-anchor="middle" x="136" y="-186.5" font-family="Helvetica,sans-Serif" font-size="10.00">../gpio.hpp</text>
</a>
</g>
</g>
<!-- Node4&#45;&gt;Node5 -->
<g id="edge4" class="edge">
<title>Node4&#45;&gt;Node5</title>
<path fill="none" stroke="midnightblue" d="M313.31,-235.47C272.24,-224.94 216.77,-210.72 178.88,-201"/>
<polygon fill="midnightblue" stroke="midnightblue" points="179.72,-197.6 169.17,-198.51 177.98,-204.38 179.72,-197.6"/>
</g>
<!-- Node6 -->
<g id="node6" class="node">
<title>Node6</title>
<g id="a_node6"><a xlink:href="peripheral_8hpp.html" target="_top" xlink:title="This file defines an interface for a memory&#45;mapped peripheral.">
<polygon fill="none" stroke="black" points="432.5,-56.5 432.5,-75.5 519.5,-75.5 519.5,-56.5 432.5,-56.5"/>
<text text-anchor="middle" x="476" y="-63.5" font-family="Helvetica,sans-Serif" font-size="10.00">peripheral.hpp</text>
</a>
</g>
</g>
<!-- Node4&#45;&gt;Node6 -->
<g id="edge15" class="edge">
<title>Node4&#45;&gt;Node6</title>
<path fill="none" stroke="midnightblue" d="M419.26,-235.5C438.11,-227.78 457.81,-216.16 470,-199 494.06,-165.14 487.09,-113.15 480.94,-85.61"/>
<polygon fill="midnightblue" stroke="midnightblue" points="484.3,-84.62 478.54,-75.73 477.5,-86.27 484.3,-84.62"/>
</g>
<!-- Node7 -->
<g id="node7" class="node">
<title>Node7</title>
<g id="a_node7"><a xlink:href="interrupt__controller_8hpp.html" target="_top" xlink:title="This file defines the interrupt controller used in BCM2835.">
<polygon fill="none" stroke="black" points="314.5,-118 314.5,-137 445.5,-137 445.5,-118 314.5,-118"/>
<text text-anchor="middle" x="380" y="-125" font-family="Helvetica,sans-Serif" font-size="10.00">interrupt_controller.hpp</text>
</a>
</g>
</g>
<!-- Node4&#45;&gt;Node7 -->
<g id="edge17" class="edge">
<title>Node4&#45;&gt;Node7</title>
<path fill="none" stroke="midnightblue" d="M410.81,-235.42C427.69,-227.52 445.33,-215.8 455,-199 468.9,-174.86 438.07,-153.98 411.83,-141.34"/>
<polygon fill="midnightblue" stroke="midnightblue" points="413.01,-138.03 402.46,-137.07 410.11,-144.4 413.01,-138.03"/>
</g>
<!-- Node9 -->
<g id="node9" class="node">
<title>Node9</title>
<g id="a_node9"><a xlink:href="logger_8hpp.html" target="_top" xlink:title="This file defines a general logger interface as well as a logging system that is used in the project.">
<polygon fill="none" stroke="black" points="227,-0.5 227,-19.5 373,-19.5 373,-0.5 227,-0.5"/>
<text text-anchor="middle" x="300" y="-7.5" font-family="Helvetica,sans-Serif" font-size="10.00">zero_mate/utils/logger.hpp</text>
</a>
</g>
</g>
<!-- Node4&#45;&gt;Node9 -->
<g id="edge18" class="edge">
<title>Node4&#45;&gt;Node9</title>
<path fill="none" stroke="midnightblue" d="M427.78,-235.47C449.23,-227.81 472.03,-216.25 488,-199 532.93,-150.49 571,-107.06 529,-56 510.58,-33.6 441.15,-22.18 383.52,-16.47"/>
<polygon fill="midnightblue" stroke="midnightblue" points="383.57,-12.96 373.28,-15.5 382.91,-19.92 383.57,-12.96"/>
</g>
<!-- Node11 -->
<g id="node11" class="node">
<title>Node11</title>
<g id="a_node11"><a xlink:href="mini__uart_8hpp.html" target="_top" xlink:title="This file defines the Mini UART auxiliary peripheral used in BCM2835.">
<polygon fill="none" stroke="black" points="188,-179.5 188,-198.5 272,-198.5 272,-179.5 188,-179.5"/>
<text text-anchor="middle" x="230" y="-186.5" font-family="Helvetica,sans-Serif" font-size="10.00">mini_uart.hpp</text>
</a>
</g>
</g>
<!-- Node4&#45;&gt;Node11 -->
<g id="edge14" class="edge">
<title>Node4&#45;&gt;Node11</title>
<path fill="none" stroke="midnightblue" d="M335.3,-235.4C312.25,-225.46 281.64,-212.26 259.37,-202.66"/>
<polygon fill="midnightblue" stroke="midnightblue" points="260.65,-199.4 250.08,-198.66 257.88,-205.83 260.65,-199.4"/>
</g>
<!-- Node12 -->
<g id="node12" class="node">
<title>Node12</title>
<g id="a_node12"><a xlink:href="system__clock__listener_8hpp.html" target="_top" xlink:title="This file defines an interface for a CPU clock listener.">
<polygon fill="none" stroke="black" points="290.5,-179.5 290.5,-198.5 445.5,-198.5 445.5,-179.5 290.5,-179.5"/>
<text text-anchor="middle" x="368" y="-186.5" font-family="Helvetica,sans-Serif" font-size="10.00">../system_clock_listener.hpp</text>
</a>
</g>
</g>
<!-- Node4&#45;&gt;Node12 -->
<g id="edge16" class="edge">
<title>Node4&#45;&gt;Node12</title>
<path fill="none" stroke="midnightblue" d="M368,-235.4C368,-227.47 368,-217.46 368,-208.86"/>
<polygon fill="midnightblue" stroke="midnightblue" points="371.5,-208.66 368,-198.66 364.5,-208.66 371.5,-208.66"/>
</g>
<!-- Node5&#45;&gt;Node6 -->
<g id="edge5" class="edge">
<title>Node5&#45;&gt;Node6</title>
<path fill="none" stroke="midnightblue" d="M170.22,-180.59C173.19,-180.02 176.14,-179.48 179,-179 239.98,-168.66 408.31,-183.57 455,-143 471.27,-128.86 475.47,-103.35 476.29,-85.81"/>
<polygon fill="midnightblue" stroke="midnightblue" points="479.8,-85.69 476.44,-75.64 472.8,-85.59 479.8,-85.69"/>
</g>
<!-- Node5&#45;&gt;Node7 -->
<g id="edge6" class="edge">
<title>Node5&#45;&gt;Node7</title>
<path fill="none" stroke="midnightblue" d="M170.18,-179.66C213.29,-169.15 287.49,-151.06 335.12,-139.44"/>
<polygon fill="midnightblue" stroke="midnightblue" points="335.98,-142.84 344.86,-137.07 334.32,-136.04 335.98,-142.84"/>
</g>
<!-- Node5&#45;&gt;Node9 -->
<g id="edge11" class="edge">
<title>Node5&#45;&gt;Node9</title>
<path fill="none" stroke="midnightblue" d="M134.9,-179.5C133.4,-164.87 132.03,-134.37 143,-112 165.99,-65.12 222.22,-37.24 260.75,-23.02"/>
<polygon fill="midnightblue" stroke="midnightblue" points="262.36,-26.16 270.62,-19.53 260.02,-19.56 262.36,-26.16"/>
</g>
<!-- Node10 -->
<g id="node10" class="node">
<title>Node10</title>
<g id="a_node10"><a xlink:href="external__peripheral_8hpp.html" target="_top" xlink:title="This file defines an interface for external peripherals that can be attached to the system via GPIO p...">
<polygon fill="none" stroke="black" points="152,-112.5 152,-142.5 264,-142.5 264,-112.5 152,-112.5"/>
<text text-anchor="start" x="160" y="-130.5" font-family="Helvetica,sans-Serif" font-size="10.00">zero_mate/external</text>
<text text-anchor="middle" x="208" y="-119.5" font-family="Helvetica,sans-Serif" font-size="10.00">_peripheral.hpp</text>
</a>
</g>
</g>
<!-- Node5&#45;&gt;Node10 -->
<g id="edge12" class="edge">
<title>Node5&#45;&gt;Node10</title>
<path fill="none" stroke="midnightblue" d="M146.32,-179.48C155.88,-171.57 170.51,-159.48 183.11,-149.07"/>
<polygon fill="midnightblue" stroke="midnightblue" points="185.55,-151.59 191.03,-142.52 181.09,-146.2 185.55,-151.59"/>
</g>
<!-- Node7&#45;&gt;Node6 -->
<g id="edge7" class="edge">
<title>Node7&#45;&gt;Node6</title>
<path fill="none" stroke="midnightblue" d="M393.75,-117.98C409.37,-108.3 435.06,-92.37 453.58,-80.89"/>
<polygon fill="midnightblue" stroke="midnightblue" points="455.62,-83.75 462.27,-75.51 451.93,-77.8 455.62,-83.75"/>
</g>
<!-- Node8 -->
<g id="node8" class="node">
<title>Node8</title>
<g id="a_node8"><a xlink:href="context_8hpp.html" target="_top" xlink:title="This file defines the context (registers) of the CPU.">
<polygon fill="none" stroke="black" points="224,-56.5 224,-75.5 376,-75.5 376,-56.5 224,-56.5"/>
<text text-anchor="middle" x="300" y="-63.5" font-family="Helvetica,sans-Serif" font-size="10.00">../arm1176jzf_s/context.hpp</text>
</a>
</g>
</g>
<!-- Node7&#45;&gt;Node8 -->
<g id="edge8" class="edge">
<title>Node7&#45;&gt;Node8</title>
<path fill="none" stroke="midnightblue" d="M368.54,-117.98C355.83,-108.52 335.09,-93.1 319.75,-81.69"/>
<polygon fill="midnightblue" stroke="midnightblue" points="321.55,-78.67 311.44,-75.51 317.38,-84.29 321.55,-78.67"/>
</g>
<!-- Node7&#45;&gt;Node9 -->
<g id="edge10" class="edge">
<title>Node7&#45;&gt;Node9</title>
<path fill="none" stroke="midnightblue" d="M383.56,-117.95C388.8,-103.91 396.77,-75.55 385,-56 375.71,-40.57 359.17,-30.16 343.13,-23.27"/>
<polygon fill="midnightblue" stroke="midnightblue" points="344.39,-20.01 333.8,-19.61 341.83,-26.52 344.39,-20.01"/>
</g>
<!-- Node8&#45;&gt;Node9 -->
<g id="edge9" class="edge">
<title>Node8&#45;&gt;Node9</title>
<path fill="none" stroke="midnightblue" d="M300,-56.08C300,-49.01 300,-38.86 300,-29.99"/>
<polygon fill="midnightblue" stroke="midnightblue" points="303.5,-29.75 300,-19.75 296.5,-29.75 303.5,-29.75"/>
</g>
<!-- Node10&#45;&gt;Node9 -->
<g id="edge13" class="edge">
<title>Node10&#45;&gt;Node9</title>
<path fill="none" stroke="midnightblue" d="M205.74,-112.49C204.05,-97.26 203.68,-72.85 215,-56 225.27,-40.71 242.48,-30.23 258.74,-23.27"/>
<polygon fill="midnightblue" stroke="midnightblue" points="260.12,-26.49 268.14,-19.57 257.55,-19.98 260.12,-26.49"/>
</g>
</g>
</svg>
