<?xml version="1.0" encoding="UTF-8" standalone="no"?>
<!DOCTYPE svg PUBLIC "-//W3C//DTD SVG 1.1//EN"
 "http://www.w3.org/Graphics/SVG/1.1/DTD/svg11.dtd">
<!-- Generated by graphviz version 2.43.0 (0)
 -->
<!-- Title: src/gui/windows/peripherals/aux_window.cpp Pages: 1 -->
<svg width="567pt" height="464pt"
 viewBox="0.00 0.00 566.69 464.00" xmlns="http://www.w3.org/2000/svg" xmlns:xlink="http://www.w3.org/1999/xlink">
<g id="graph0" class="graph" transform="scale(1 1) rotate(0) translate(4 460)">
<title>src/gui/windows/peripherals/aux_window.cpp</title>
<!-- Node1 -->
<g id="node1" class="node">
<title>Node1</title>
<g id="a_node1"><a xlink:title="This file implements a window that visualizes the auxiliaries (UART1 &amp; SPI1, and SPI2) used in BCM283...">
<polygon fill="#bfbfbf" stroke="black" points="71.5,-425.5 71.5,-455.5 223.5,-455.5 223.5,-425.5 71.5,-425.5"/>
<text text-anchor="start" x="79.5" y="-443.5" font-family="Helvetica,sans-Serif" font-size="10.00">src/gui/windows/peripherals</text>
<text text-anchor="middle" x="147.5" y="-432.5" font-family="Helvetica,sans-Serif" font-size="10.00">/aux_window.cpp</text>
</a>
</g>
</g>
<!-- Node2 -->
<g id="node2" class="node">
<title>Node2</title>
<g id="a_node2"><a xlink:title=" ">
<polygon fill="none" stroke="#bfbfbf" points="0,-369.5 0,-388.5 79,-388.5 79,-369.5 0,-369.5"/>
<text text-anchor="middle" x="39.5" y="-376.5" font-family="Helvetica,sans-Serif" font-size="10.00">fmt/format.h</text>
</a>
</g>
</g>
<!-- Node1&#45;&gt;Node2 -->
<g id="edge1" class="edge">
<title>Node1&#45;&gt;Node2</title>
<path fill="none" stroke="midnightblue" d="M121.91,-425.4C104.43,-415.77 81.41,-403.09 64.14,-393.58"/>
<polygon fill="midnightblue" stroke="midnightblue" points="65.66,-390.42 55.21,-388.66 62.28,-396.55 65.66,-390.42"/>
</g>
<!-- Node3 -->
<g id="node3" class="node">
<title>Node3</title>
<g id="a_node3"><a xlink:title=" ">
<polygon fill="none" stroke="#bfbfbf" points="97,-369.5 97,-388.5 198,-388.5 198,-369.5 97,-369.5"/>
<text text-anchor="middle" x="147.5" y="-376.5" font-family="Helvetica,sans-Serif" font-size="10.00">magic_enum.hpp</text>
</a>
</g>
</g>
<!-- Node1&#45;&gt;Node3 -->
<g id="edge2" class="edge">
<title>Node1&#45;&gt;Node3</title>
<path fill="none" stroke="midnightblue" d="M147.5,-425.4C147.5,-417.47 147.5,-407.46 147.5,-398.86"/>
<polygon fill="midnightblue" stroke="midnightblue" points="151,-398.66 147.5,-388.66 144,-398.66 151,-398.66"/>
</g>
<!-- Node4 -->
<g id="node4" class="node">
<title>Node4</title>
<g id="a_node4"><a xlink:href="aux__window_8hpp.html" target="_top" xlink:title="This file defines a window that visualizes the auxiliaries (UART1 &amp; SPI1, and SPI2) used in BCM2835.">
<polygon fill="none" stroke="black" points="216.5,-369.5 216.5,-388.5 314.5,-388.5 314.5,-369.5 216.5,-369.5"/>
<text text-anchor="middle" x="265.5" y="-376.5" font-family="Helvetica,sans-Serif" font-size="10.00">aux_window.hpp</text>
</a>
</g>
</g>
<!-- Node1&#45;&gt;Node4 -->
<g id="edge3" class="edge">
<title>Node1&#45;&gt;Node4</title>
<path fill="none" stroke="midnightblue" d="M175.46,-425.4C194.82,-415.64 220.41,-402.74 239.36,-393.18"/>
<polygon fill="midnightblue" stroke="midnightblue" points="240.98,-396.29 248.33,-388.66 237.83,-390.04 240.98,-396.29"/>
</g>
<!-- Node5 -->
<g id="node5" class="node">
<title>Node5</title>
<g id="a_node5"><a xlink:href="window_8hpp.html" target="_top" xlink:title="This file defines an interface for all windows that will be rendered by the application.">
<polygon fill="none" stroke="black" points="106.5,-308 106.5,-327 198.5,-327 198.5,-308 106.5,-308"/>
<text text-anchor="middle" x="152.5" y="-315" font-family="Helvetica,sans-Serif" font-size="10.00">../../window.hpp</text>
</a>
</g>
</g>
<!-- Node4&#45;&gt;Node5 -->
<g id="edge4" class="edge">
<title>Node4&#45;&gt;Node5</title>
<path fill="none" stroke="midnightblue" d="M249.31,-369.48C230.6,-359.62 199.58,-343.29 177.7,-331.77"/>
<polygon fill="midnightblue" stroke="midnightblue" points="179.14,-328.57 168.66,-327.01 175.88,-334.77 179.14,-328.57"/>
</g>
<!-- Node7 -->
<g id="node7" class="node">
<title>Node7</title>
<g id="a_node7"><a xlink:href="auxiliary_8hpp.html" target="_top" xlink:title=" ">
<polygon fill="none" stroke="black" points="315.5,-302.5 315.5,-332.5 443.5,-332.5 443.5,-302.5 315.5,-302.5"/>
<text text-anchor="start" x="323.5" y="-320.5" font-family="Helvetica,sans-Serif" font-size="10.00">../../../core/peripherals</text>
<text text-anchor="middle" x="379.5" y="-309.5" font-family="Helvetica,sans-Serif" font-size="10.00">/auxiliary/auxiliary.hpp</text>
</a>
</g>
</g>
<!-- Node4&#45;&gt;Node7 -->
<g id="edge6" class="edge">
<title>Node4&#45;&gt;Node7</title>
<path fill="none" stroke="midnightblue" d="M281.83,-369.48C297.92,-361.08 323.03,-347.97 343.76,-337.15"/>
<polygon fill="midnightblue" stroke="midnightblue" points="345.39,-340.25 352.63,-332.52 342.15,-334.05 345.39,-340.25"/>
</g>
<!-- Node6 -->
<g id="node6" class="node">
<title>Node6</title>
<g id="a_node6"><a xlink:title=" ">
<polygon fill="none" stroke="#bfbfbf" points="11.5,-246.5 11.5,-265.5 95.5,-265.5 95.5,-246.5 11.5,-246.5"/>
<text text-anchor="middle" x="53.5" y="-253.5" font-family="Helvetica,sans-Serif" font-size="10.00">imgui/imgui.h</text>
</a>
</g>
</g>
<!-- Node5&#45;&gt;Node6 -->
<g id="edge5" class="edge">
<title>Node5&#45;&gt;Node6</title>
<path fill="none" stroke="midnightblue" d="M138.32,-307.98C122.14,-298.25 95.47,-282.23 76.36,-270.74"/>
<polygon fill="midnightblue" stroke="midnightblue" points="78.03,-267.66 67.66,-265.51 74.43,-273.66 78.03,-267.66"/>
</g>
<!-- Node8 -->
<g id="node8" class="node">
<title>Node8</title>
<g id="a_node8"><a xlink:href="gpio_8hpp.html" target="_top" xlink:title="This file defines the GPIO controller used in BCM2835.">
<polygon fill="none" stroke="black" points="113.5,-246.5 113.5,-265.5 181.5,-265.5 181.5,-246.5 113.5,-246.5"/>
<text text-anchor="middle" x="147.5" y="-253.5" font-family="Helvetica,sans-Serif" font-size="10.00">../gpio.hpp</text>
</a>
</g>
</g>
<!-- Node7&#45;&gt;Node8 -->
<g id="edge7" class="edge">
<title>Node7&#45;&gt;Node8</title>
<path fill="none" stroke="midnightblue" d="M324.81,-302.47C283.74,-291.94 228.27,-277.72 190.38,-268"/>
<polygon fill="midnightblue" stroke="midnightblue" points="191.22,-264.6 180.67,-265.51 189.48,-271.38 191.22,-264.6"/>
</g>
<!-- Node9 -->
<g id="node9" class="node">
<title>Node9</title>
<g id="a_node9"><a xlink:href="peripheral_8hpp.html" target="_top" xlink:title="This file defines an interface for a memory&#45;mapped peripheral.">
<polygon fill="none" stroke="black" points="444,-123.5 444,-142.5 531,-142.5 531,-123.5 444,-123.5"/>
<text text-anchor="middle" x="487.5" y="-130.5" font-family="Helvetica,sans-Serif" font-size="10.00">peripheral.hpp</text>
</a>
</g>
</g>
<!-- Node7&#45;&gt;Node9 -->
<g id="edge19" class="edge">
<title>Node7&#45;&gt;Node9</title>
<path fill="none" stroke="midnightblue" d="M430.76,-302.5C449.61,-294.78 469.31,-283.16 481.5,-266 505.56,-232.14 498.59,-180.15 492.44,-152.61"/>
<polygon fill="midnightblue" stroke="midnightblue" points="495.8,-151.62 490.04,-142.73 489,-153.27 495.8,-151.62"/>
</g>
<!-- Node10 -->
<g id="node10" class="node">
<title>Node10</title>
<g id="a_node10"><a xlink:href="interrupt__controller_8hpp.html" target="_top" xlink:title="This file defines the interrupt controller used in BCM2835.">
<polygon fill="none" stroke="black" points="326,-185 326,-204 457,-204 457,-185 326,-185"/>
<text text-anchor="middle" x="391.5" y="-192" font-family="Helvetica,sans-Serif" font-size="10.00">interrupt_controller.hpp</text>
</a>
</g>
</g>
<!-- Node7&#45;&gt;Node10 -->
<g id="edge21" class="edge">
<title>Node7&#45;&gt;Node10</title>
<path fill="none" stroke="midnightblue" d="M422.31,-302.42C439.19,-294.52 456.83,-282.8 466.5,-266 480.4,-241.86 449.57,-220.98 423.33,-208.34"/>
<polygon fill="midnightblue" stroke="midnightblue" points="424.51,-205.03 413.96,-204.07 421.61,-211.4 424.51,-205.03"/>
</g>
<!-- Node12 -->
<g id="node12" class="node">
<title>Node12</title>
<g id="a_node12"><a xlink:href="logging__system_8hpp.html" target="_top" xlink:title="This file defines a logging system that is used in the project.">
<polygon fill="none" stroke="black" points="246,-56.5 246,-86.5 377,-86.5 377,-56.5 246,-56.5"/>
<text text-anchor="start" x="254" y="-74.5" font-family="Helvetica,sans-Serif" font-size="10.00">zero_mate/utils/logging</text>
<text text-anchor="middle" x="311.5" y="-63.5" font-family="Helvetica,sans-Serif" font-size="10.00">_system.hpp</text>
</a>
</g>
</g>
<!-- Node7&#45;&gt;Node12 -->
<g id="edge22" class="edge">
<title>Node7&#45;&gt;Node12</title>
<path fill="none" stroke="midnightblue" d="M439.28,-302.47C460.73,-294.81 483.53,-283.25 499.5,-266 544.43,-217.49 581.91,-174.54 540.5,-123 521.4,-99.22 446.21,-85.98 387.13,-79.08"/>
<polygon fill="midnightblue" stroke="midnightblue" points="387.38,-75.59 377.06,-77.95 386.6,-82.55 387.38,-75.59"/>
</g>
<!-- Node15 -->
<g id="node15" class="node">
<title>Node15</title>
<g id="a_node15"><a xlink:href="mini__uart_8hpp.html" target="_top" xlink:title="This file defines the Mini UART auxiliary peripheral used in BCM2835.">
<polygon fill="none" stroke="black" points="199.5,-246.5 199.5,-265.5 283.5,-265.5 283.5,-246.5 199.5,-246.5"/>
<text text-anchor="middle" x="241.5" y="-253.5" font-family="Helvetica,sans-Serif" font-size="10.00">mini_uart.hpp</text>
</a>
</g>
</g>
<!-- Node7&#45;&gt;Node15 -->
<g id="edge18" class="edge">
<title>Node7&#45;&gt;Node15</title>
<path fill="none" stroke="midnightblue" d="M346.8,-302.4C323.75,-292.46 293.14,-279.26 270.87,-269.66"/>
<polygon fill="midnightblue" stroke="midnightblue" points="272.15,-266.4 261.58,-265.66 269.38,-272.83 272.15,-266.4"/>
</g>
<!-- Node16 -->
<g id="node16" class="node">
<title>Node16</title>
<g id="a_node16"><a xlink:href="system__clock__listener_8hpp.html" target="_top" xlink:title="This file defines an interface for a CPU clock listener.">
<polygon fill="none" stroke="black" points="302,-246.5 302,-265.5 457,-265.5 457,-246.5 302,-246.5"/>
<text text-anchor="middle" x="379.5" y="-253.5" font-family="Helvetica,sans-Serif" font-size="10.00">../system_clock_listener.hpp</text>
</a>
</g>
</g>
<!-- Node7&#45;&gt;Node16 -->
<g id="edge20" class="edge">
<title>Node7&#45;&gt;Node16</title>
<path fill="none" stroke="midnightblue" d="M379.5,-302.4C379.5,-294.47 379.5,-284.46 379.5,-275.86"/>
<polygon fill="midnightblue" stroke="midnightblue" points="383,-275.66 379.5,-265.66 376,-275.66 383,-275.66"/>
</g>
<!-- Node8&#45;&gt;Node9 -->
<g id="edge8" class="edge">
<title>Node8&#45;&gt;Node9</title>
<path fill="none" stroke="midnightblue" d="M181.72,-247.59C184.69,-247.02 187.64,-246.48 190.5,-246 251.48,-235.66 419.81,-250.57 466.5,-210 482.77,-195.86 486.97,-170.35 487.79,-152.81"/>
<polygon fill="midnightblue" stroke="midnightblue" points="491.3,-152.69 487.94,-142.64 484.3,-152.59 491.3,-152.69"/>
</g>
<!-- Node8&#45;&gt;Node10 -->
<g id="edge9" class="edge">
<title>Node8&#45;&gt;Node10</title>
<path fill="none" stroke="midnightblue" d="M181.68,-246.66C224.79,-236.15 298.99,-218.06 346.62,-206.44"/>
<polygon fill="midnightblue" stroke="midnightblue" points="347.48,-209.84 356.36,-204.07 345.82,-203.04 347.48,-209.84"/>
</g>
<!-- Node8&#45;&gt;Node12 -->
<g id="edge15" class="edge">
<title>Node8&#45;&gt;Node12</title>
<path fill="none" stroke="midnightblue" d="M146.4,-246.5C144.9,-231.87 143.53,-201.37 154.5,-179 175.75,-135.65 224.14,-107.03 261.62,-90.48"/>
<polygon fill="midnightblue" stroke="midnightblue" points="263.06,-93.67 270.89,-86.53 260.32,-87.23 263.06,-93.67"/>
</g>
<!-- Node14 -->
<g id="node14" class="node">
<title>Node14</title>
<g id="a_node14"><a xlink:href="external__peripheral_8hpp.html" target="_top" xlink:title="This file defines an interface for external peripherals that can be attached to the system via GPIO p...">
<polygon fill="none" stroke="black" points="163.5,-179.5 163.5,-209.5 275.5,-209.5 275.5,-179.5 163.5,-179.5"/>
<text text-anchor="start" x="171.5" y="-197.5" font-family="Helvetica,sans-Serif" font-size="10.00">zero_mate/external</text>
<text text-anchor="middle" x="219.5" y="-186.5" font-family="Helvetica,sans-Serif" font-size="10.00">_peripheral.hpp</text>
</a>
</g>
</g>
<!-- Node8&#45;&gt;Node14 -->
<g id="edge16" class="edge">
<title>Node8&#45;&gt;Node14</title>
<path fill="none" stroke="midnightblue" d="M157.82,-246.48C167.38,-238.57 182.01,-226.48 194.61,-216.07"/>
<polygon fill="midnightblue" stroke="midnightblue" points="197.05,-218.59 202.53,-209.52 192.59,-213.2 197.05,-218.59"/>
</g>
<!-- Node10&#45;&gt;Node9 -->
<g id="edge10" class="edge">
<title>Node10&#45;&gt;Node9</title>
<path fill="none" stroke="midnightblue" d="M405.25,-184.98C420.87,-175.3 446.56,-159.37 465.08,-147.89"/>
<polygon fill="midnightblue" stroke="midnightblue" points="467.12,-150.75 473.77,-142.51 463.43,-144.8 467.12,-150.75"/>
</g>
<!-- Node11 -->
<g id="node11" class="node">
<title>Node11</title>
<g id="a_node11"><a xlink:href="context_8hpp.html" target="_top" xlink:title="This file defines the context (registers) of the CPU.">
<polygon fill="none" stroke="black" points="235.5,-123.5 235.5,-142.5 387.5,-142.5 387.5,-123.5 235.5,-123.5"/>
<text text-anchor="middle" x="311.5" y="-130.5" font-family="Helvetica,sans-Serif" font-size="10.00">../arm1176jzf_s/context.hpp</text>
</a>
</g>
</g>
<!-- Node10&#45;&gt;Node11 -->
<g id="edge11" class="edge">
<title>Node10&#45;&gt;Node11</title>
<path fill="none" stroke="midnightblue" d="M380.04,-184.98C367.33,-175.52 346.59,-160.1 331.25,-148.69"/>
<polygon fill="midnightblue" stroke="midnightblue" points="333.05,-145.67 322.94,-142.51 328.88,-151.29 333.05,-145.67"/>
</g>
<!-- Node10&#45;&gt;Node12 -->
<g id="edge14" class="edge">
<title>Node10&#45;&gt;Node12</title>
<path fill="none" stroke="midnightblue" d="M395.11,-184.56C400.2,-170.46 407.67,-142.62 396.5,-123 388.7,-109.29 375.55,-98.92 361.9,-91.25"/>
<polygon fill="midnightblue" stroke="midnightblue" points="363.39,-88.09 352.9,-86.6 360.17,-94.3 363.39,-88.09"/>
</g>
<!-- Node11&#45;&gt;Node12 -->
<g id="edge12" class="edge">
<title>Node11&#45;&gt;Node12</title>
<path fill="none" stroke="midnightblue" d="M311.5,-123.48C311.5,-116.47 311.5,-106.19 311.5,-96.7"/>
<polygon fill="midnightblue" stroke="midnightblue" points="315,-96.52 311.5,-86.52 308,-96.52 315,-96.52"/>
</g>
<!-- Node13 -->
<g id="node13" class="node">
<title>Node13</title>
<g id="a_node13"><a xlink:href="logger_8hpp.html" target="_top" xlink:title="This file defines a general logger interface.">
<polygon fill="none" stroke="black" points="277.5,-0.5 277.5,-19.5 345.5,-19.5 345.5,-0.5 277.5,-0.5"/>
<text text-anchor="middle" x="311.5" y="-7.5" font-family="Helvetica,sans-Serif" font-size="10.00">logger.hpp</text>
</a>
</g>
</g>
<!-- Node12&#45;&gt;Node13 -->
<g id="edge13" class="edge">
<title>Node12&#45;&gt;Node13</title>
<path fill="none" stroke="midnightblue" d="M311.5,-56.4C311.5,-48.47 311.5,-38.46 311.5,-29.86"/>
<polygon fill="midnightblue" stroke="midnightblue" points="315,-29.66 311.5,-19.66 308,-29.66 315,-29.66"/>
</g>
<!-- Node14&#45;&gt;Node12 -->
<g id="edge17" class="edge">
<title>Node14&#45;&gt;Node12</title>
<path fill="none" stroke="midnightblue" d="M217.37,-179.32C215.84,-164.16 215.67,-140.02 226.5,-123 235.12,-109.46 248.78,-99.07 262.66,-91.34"/>
<polygon fill="midnightblue" stroke="midnightblue" points="264.48,-94.34 271.75,-86.64 261.26,-88.12 264.48,-94.34"/>
</g>
</g>
</svg>
