<?xml version="1.0" encoding="UTF-8" standalone="no"?>
<!DOCTYPE svg PUBLIC "-//W3C//DTD SVG 1.1//EN"
 "http://www.w3.org/Graphics/SVG/1.1/DTD/svg11.dtd">
<!-- Generated by graphviz version 2.43.0 (0)
 -->
<!-- Title: src/core/peripherals/auxiliary/auxiliary.hpp Pages: 1 -->
<svg width="712pt" height="274pt"
 viewBox="0.00 0.00 712.00 274.00" xmlns="http://www.w3.org/2000/svg" xmlns:xlink="http://www.w3.org/1999/xlink">
<g id="graph0" class="graph" transform="scale(1 1) rotate(0) translate(4 270)">
<title>src/core/peripherals/auxiliary/auxiliary.hpp</title>
<!-- Node1 -->
<g id="node1" class="node">
<title>Node1</title>
<g id="a_node1"><a xlink:title=" ">
<polygon fill="#bfbfbf" stroke="black" points="293.5,-235.5 293.5,-265.5 421.5,-265.5 421.5,-235.5 293.5,-235.5"/>
<text text-anchor="start" x="301.5" y="-253.5" font-family="Helvetica,sans-Serif" font-size="10.00">src/core/peripherals</text>
<text text-anchor="middle" x="357.5" y="-242.5" font-family="Helvetica,sans-Serif" font-size="10.00">/auxiliary/auxiliary.hpp</text>
</a>
</g>
</g>
<!-- Node2 -->
<g id="node2" class="node">
<title>Node2</title>
<g id="a_node2"><a xlink:href="gpio_8hpp.html" target="_top" xlink:title="This file defines the GPIO controller used in BCM2835.">
<polygon fill="none" stroke="black" points="262.5,-179.5 262.5,-198.5 330.5,-198.5 330.5,-179.5 262.5,-179.5"/>
<text text-anchor="middle" x="296.5" y="-186.5" font-family="Helvetica,sans-Serif" font-size="10.00">../gpio.hpp</text>
</a>
</g>
</g>
<!-- Node1&#45;&gt;Node2 -->
<g id="edge1" class="edge">
<title>Node1&#45;&gt;Node2</title>
<path fill="none" stroke="midnightblue" d="M343.04,-235.4C333.91,-226.49 322.08,-214.95 312.64,-205.74"/>
<polygon fill="midnightblue" stroke="midnightblue" points="314.98,-203.13 305.38,-198.66 310.09,-208.15 314.98,-203.13"/>
</g>
<!-- Node3 -->
<g id="node3" class="node">
<title>Node3</title>
<g id="a_node3"><a xlink:href="peripheral_8hpp.html" target="_top" xlink:title="This file defines an interface for a memory&#45;mapped peripheral.">
<polygon fill="none" stroke="black" points="0,-56.5 0,-75.5 87,-75.5 87,-56.5 0,-56.5"/>
<text text-anchor="middle" x="43.5" y="-63.5" font-family="Helvetica,sans-Serif" font-size="10.00">peripheral.hpp</text>
</a>
</g>
</g>
<!-- Node1&#45;&gt;Node3 -->
<g id="edge12" class="edge">
<title>Node1&#45;&gt;Node3</title>
<path fill="none" stroke="midnightblue" d="M293.28,-245.77C223.24,-238.05 113.29,-214.49 54.5,-143 41.43,-127.1 40.12,-102.74 41.14,-85.91"/>
<polygon fill="midnightblue" stroke="midnightblue" points="44.66,-85.93 42.11,-75.65 37.69,-85.28 44.66,-85.93"/>
</g>
<!-- Node4 -->
<g id="node4" class="node">
<title>Node4</title>
<g id="a_node4"><a xlink:href="interrupt__controller_8hpp.html" target="_top" xlink:title="This file defines the interrupt controller used in BCM2835.">
<polygon fill="none" stroke="black" points="91,-118 91,-137 222,-137 222,-118 91,-118"/>
<text text-anchor="middle" x="156.5" y="-125" font-family="Helvetica,sans-Serif" font-size="10.00">interrupt_controller.hpp</text>
</a>
</g>
</g>
<!-- Node1&#45;&gt;Node4 -->
<g id="edge14" class="edge">
<title>Node1&#45;&gt;Node4</title>
<path fill="none" stroke="midnightblue" d="M324.87,-235.45C303.98,-226.02 276.57,-212.83 253.5,-199 224.86,-181.82 194.02,-158.49 174.99,-143.46"/>
<polygon fill="midnightblue" stroke="midnightblue" points="177.12,-140.69 167.12,-137.19 172.76,-146.16 177.12,-140.69"/>
</g>
<!-- Node6 -->
<g id="node6" class="node">
<title>Node6</title>
<g id="a_node6"><a xlink:href="logger_8hpp.html" target="_top" xlink:title="This file defines a general logger interface as well as a logging system that is used in the project.">
<polygon fill="none" stroke="black" points="250.5,-0.5 250.5,-19.5 396.5,-19.5 396.5,-0.5 250.5,-0.5"/>
<text text-anchor="middle" x="323.5" y="-7.5" font-family="Helvetica,sans-Serif" font-size="10.00">zero_mate/utils/logger.hpp</text>
</a>
</g>
</g>
<!-- Node1&#45;&gt;Node6 -->
<g id="edge15" class="edge">
<title>Node1&#45;&gt;Node6</title>
<path fill="none" stroke="midnightblue" d="M363.3,-235.36C376.03,-201.94 402.9,-116.36 371.5,-56 365.3,-44.09 354.67,-33.63 344.99,-25.79"/>
<polygon fill="midnightblue" stroke="midnightblue" points="346.94,-22.88 336.86,-19.62 342.71,-28.46 346.94,-22.88"/>
</g>
<!-- Node8 -->
<g id="node8" class="node">
<title>Node8</title>
<g id="a_node8"><a xlink:href="mini__uart_8hpp.html" target="_top" xlink:title="This file defines the Mini UART auxiliary peripheral used in BCM2835.">
<polygon fill="none" stroke="black" points="446.5,-179.5 446.5,-198.5 530.5,-198.5 530.5,-179.5 446.5,-179.5"/>
<text text-anchor="middle" x="488.5" y="-186.5" font-family="Helvetica,sans-Serif" font-size="10.00">mini_uart.hpp</text>
</a>
</g>
</g>
<!-- Node1&#45;&gt;Node8 -->
<g id="edge11" class="edge">
<title>Node1&#45;&gt;Node8</title>
<path fill="none" stroke="midnightblue" d="M388.55,-235.4C410.23,-225.55 438.96,-212.5 460.05,-202.92"/>
<polygon fill="midnightblue" stroke="midnightblue" points="461.78,-205.98 469.44,-198.66 458.89,-199.61 461.78,-205.98"/>
</g>
<!-- Node9 -->
<g id="node9" class="node">
<title>Node9</title>
<g id="a_node9"><a xlink:href="system__clock__listener_8hpp.html" target="_top" xlink:title="This file defines an interface for a CPU clock listener.">
<polygon fill="none" stroke="black" points="549,-179.5 549,-198.5 704,-198.5 704,-179.5 549,-179.5"/>
<text text-anchor="middle" x="626.5" y="-186.5" font-family="Helvetica,sans-Serif" font-size="10.00">../system_clock_listener.hpp</text>
</a>
</g>
</g>
<!-- Node1&#45;&gt;Node9 -->
<g id="edge13" class="edge">
<title>Node1&#45;&gt;Node9</title>
<path fill="none" stroke="midnightblue" d="M420.91,-235.47C469.04,-224.83 534.21,-210.41 578.17,-200.69"/>
<polygon fill="midnightblue" stroke="midnightblue" points="579.03,-204.08 588.04,-198.51 577.52,-197.25 579.03,-204.08"/>
</g>
<!-- Node2&#45;&gt;Node3 -->
<g id="edge2" class="edge">
<title>Node2&#45;&gt;Node3</title>
<path fill="none" stroke="midnightblue" d="M262.07,-184.46C208.74,-178.37 109.36,-164.48 81.5,-143 63.1,-128.81 52.96,-103.32 47.88,-85.8"/>
<polygon fill="midnightblue" stroke="midnightblue" points="51.14,-84.43 45.23,-75.63 44.36,-86.19 51.14,-84.43"/>
</g>
<!-- Node2&#45;&gt;Node4 -->
<g id="edge3" class="edge">
<title>Node2&#45;&gt;Node4</title>
<path fill="none" stroke="midnightblue" d="M276.44,-179.48C252.74,-169.4 213.09,-152.55 185.92,-141"/>
<polygon fill="midnightblue" stroke="midnightblue" points="187.09,-137.7 176.52,-137.01 184.36,-144.14 187.09,-137.7"/>
</g>
<!-- Node2&#45;&gt;Node6 -->
<g id="edge8" class="edge">
<title>Node2&#45;&gt;Node6</title>
<path fill="none" stroke="midnightblue" d="M318.31,-179.45C333.44,-172.22 352.45,-160.26 361.5,-143 381.61,-104.62 354.03,-54.23 336.33,-28.21"/>
<polygon fill="midnightblue" stroke="midnightblue" points="339,-25.92 330.36,-19.79 333.29,-29.97 339,-25.92"/>
</g>
<!-- Node7 -->
<g id="node7" class="node">
<title>Node7</title>
<g id="a_node7"><a xlink:href="external__peripheral_8hpp.html" target="_top" xlink:title="This file defines an interface for external peripherals that can be attached to the system via GPIO p...">
<polygon fill="none" stroke="black" points="240.5,-112.5 240.5,-142.5 352.5,-142.5 352.5,-112.5 240.5,-112.5"/>
<text text-anchor="start" x="248.5" y="-130.5" font-family="Helvetica,sans-Serif" font-size="10.00">zero_mate/external</text>
<text text-anchor="middle" x="296.5" y="-119.5" font-family="Helvetica,sans-Serif" font-size="10.00">_peripheral.hpp</text>
</a>
</g>
</g>
<!-- Node2&#45;&gt;Node7 -->
<g id="edge9" class="edge">
<title>Node2&#45;&gt;Node7</title>
<path fill="none" stroke="midnightblue" d="M296.5,-179.48C296.5,-172.47 296.5,-162.19 296.5,-152.7"/>
<polygon fill="midnightblue" stroke="midnightblue" points="300,-152.52 296.5,-142.52 293,-152.52 300,-152.52"/>
</g>
<!-- Node4&#45;&gt;Node3 -->
<g id="edge4" class="edge">
<title>Node4&#45;&gt;Node3</title>
<path fill="none" stroke="midnightblue" d="M140.31,-117.98C121.6,-108.12 90.58,-91.79 68.7,-80.27"/>
<polygon fill="midnightblue" stroke="midnightblue" points="70.14,-77.07 59.66,-75.51 66.88,-83.27 70.14,-77.07"/>
</g>
<!-- Node5 -->
<g id="node5" class="node">
<title>Node5</title>
<g id="a_node5"><a xlink:href="context_8hpp.html" target="_top" xlink:title="This file defines the context (registers) of the CPU.">
<polygon fill="none" stroke="black" points="105.5,-56.5 105.5,-75.5 257.5,-75.5 257.5,-56.5 105.5,-56.5"/>
<text text-anchor="middle" x="181.5" y="-63.5" font-family="Helvetica,sans-Serif" font-size="10.00">../arm1176jzf_s/context.hpp</text>
</a>
</g>
</g>
<!-- Node4&#45;&gt;Node5 -->
<g id="edge5" class="edge">
<title>Node4&#45;&gt;Node5</title>
<path fill="none" stroke="midnightblue" d="M160.08,-117.98C163.68,-109.4 169.35,-95.93 173.94,-84.98"/>
<polygon fill="midnightblue" stroke="midnightblue" points="177.28,-86.08 177.92,-75.51 170.82,-83.37 177.28,-86.08"/>
</g>
<!-- Node4&#45;&gt;Node6 -->
<g id="edge7" class="edge">
<title>Node4&#45;&gt;Node6</title>
<path fill="none" stroke="midnightblue" d="M183.07,-117.89C206.47,-109.5 240.72,-95.22 266.5,-76 284.66,-62.46 301.22,-42.29 311.76,-28.02"/>
<polygon fill="midnightblue" stroke="midnightblue" points="314.79,-29.79 317.76,-19.62 309.1,-25.71 314.79,-29.79"/>
</g>
<!-- Node5&#45;&gt;Node6 -->
<g id="edge6" class="edge">
<title>Node5&#45;&gt;Node6</title>
<path fill="none" stroke="midnightblue" d="M204,-56.44C227.58,-47.48 264.82,-33.31 291.46,-23.18"/>
<polygon fill="midnightblue" stroke="midnightblue" points="293,-26.34 301.1,-19.52 290.51,-19.8 293,-26.34"/>
</g>
<!-- Node7&#45;&gt;Node6 -->
<g id="edge10" class="edge">
<title>Node7&#45;&gt;Node6</title>
<path fill="none" stroke="midnightblue" d="M299.81,-112.34C304.68,-91.53 313.76,-52.66 319.16,-29.58"/>
<polygon fill="midnightblue" stroke="midnightblue" points="322.61,-30.2 321.47,-19.67 315.79,-28.61 322.61,-30.2"/>
</g>
</g>
</svg>
