<?xml version="1.0" encoding="UTF-8" standalone="no"?>
<!DOCTYPE svg PUBLIC "-//W3C//DTD SVG 1.1//EN"
 "http://www.w3.org/Graphics/SVG/1.1/DTD/svg11.dtd">
<!-- Generated by graphviz version 2.43.0 (0)
 -->
<!-- Title: src/core/peripherals/bsc.cpp Pages: 1 -->
<svg width="722pt" height="386pt"
 viewBox="0.00 0.00 722.00 386.00" xmlns="http://www.w3.org/2000/svg" xmlns:xlink="http://www.w3.org/1999/xlink">
<g id="graph0" class="graph" transform="scale(1 1) rotate(0) translate(4 382)">
<title>src/core/peripherals/bsc.cpp</title>
<!-- Node1 -->
<g id="node1" class="node">
<title>Node1</title>
<g id="a_node1"><a xlink:title=" ">
<polygon fill="#bfbfbf" stroke="black" points="163.5,-347.5 163.5,-377.5 276.5,-377.5 276.5,-347.5 163.5,-347.5"/>
<text text-anchor="start" x="171.5" y="-365.5" font-family="Helvetica,sans-Serif" font-size="10.00">src/core/peripherals</text>
<text text-anchor="middle" x="220" y="-354.5" font-family="Helvetica,sans-Serif" font-size="10.00">/bsc.cpp</text>
</a>
</g>
</g>
<!-- Node2 -->
<g id="node2" class="node">
<title>Node2</title>
<g id="a_node2"><a xlink:title=" ">
<polygon fill="none" stroke="#bfbfbf" points="111,-291.5 111,-310.5 175,-310.5 175,-291.5 111,-291.5"/>
<text text-anchor="middle" x="143" y="-298.5" font-family="Helvetica,sans-Serif" font-size="10.00">algorithm</text>
</a>
</g>
</g>
<!-- Node1&#45;&gt;Node2 -->
<g id="edge1" class="edge">
<title>Node1&#45;&gt;Node2</title>
<path fill="none" stroke="midnightblue" d="M201.75,-347.4C189.87,-338.22 174.39,-326.26 162.31,-316.92"/>
<polygon fill="midnightblue" stroke="midnightblue" points="164.26,-314 154.2,-310.66 159.98,-319.54 164.26,-314"/>
</g>
<!-- Node3 -->
<g id="node3" class="node">
<title>Node3</title>
<g id="a_node3"><a xlink:href="bsc_8hpp.html" target="_top" xlink:title=" ">
<polygon fill="none" stroke="black" points="193,-291.5 193,-310.5 247,-310.5 247,-291.5 193,-291.5"/>
<text text-anchor="middle" x="220" y="-298.5" font-family="Helvetica,sans-Serif" font-size="10.00">bsc.hpp</text>
</a>
</g>
</g>
<!-- Node1&#45;&gt;Node3 -->
<g id="edge2" class="edge">
<title>Node1&#45;&gt;Node3</title>
<path fill="none" stroke="midnightblue" d="M220,-347.4C220,-339.47 220,-329.46 220,-320.86"/>
<polygon fill="midnightblue" stroke="midnightblue" points="223.5,-320.66 220,-310.66 216.5,-320.66 223.5,-320.66"/>
</g>
<!-- Node14 -->
<g id="node14" class="node">
<title>Node14</title>
<g id="a_node14"><a xlink:href="singleton_8hpp.html" target="_top" xlink:title="This file defines and implements a generic class that is used to treat other classes as singletons.">
<polygon fill="none" stroke="black" points="265.5,-291.5 265.5,-310.5 426.5,-310.5 426.5,-291.5 265.5,-291.5"/>
<text text-anchor="middle" x="346" y="-298.5" font-family="Helvetica,sans-Serif" font-size="10.00">zero_mate/utils/singleton.hpp</text>
</a>
</g>
</g>
<!-- Node1&#45;&gt;Node14 -->
<g id="edge20" class="edge">
<title>Node1&#45;&gt;Node14</title>
<path fill="none" stroke="midnightblue" d="M249.86,-347.4C270.62,-337.59 298.1,-324.62 318.36,-315.05"/>
<polygon fill="midnightblue" stroke="midnightblue" points="320.12,-318.09 327.67,-310.66 317.13,-311.76 320.12,-318.09"/>
</g>
<!-- Node4 -->
<g id="node4" class="node">
<title>Node4</title>
<g id="a_node4"><a xlink:title=" ">
<polygon fill="none" stroke="#bfbfbf" points="0,-235.5 0,-254.5 42,-254.5 42,-235.5 0,-235.5"/>
<text text-anchor="middle" x="21" y="-242.5" font-family="Helvetica,sans-Serif" font-size="10.00">array</text>
</a>
</g>
</g>
<!-- Node3&#45;&gt;Node4 -->
<g id="edge3" class="edge">
<title>Node3&#45;&gt;Node4</title>
<path fill="none" stroke="midnightblue" d="M192.71,-293.01C161.13,-284.87 107.35,-270.81 52.22,-255.28"/>
<polygon fill="midnightblue" stroke="midnightblue" points="52.86,-251.83 42.28,-252.47 50.95,-258.56 52.86,-251.83"/>
</g>
<!-- Node5 -->
<g id="node5" class="node">
<title>Node5</title>
<g id="a_node5"><a xlink:title=" ">
<polygon fill="none" stroke="#bfbfbf" points="60.5,-235.5 60.5,-254.5 107.5,-254.5 107.5,-235.5 60.5,-235.5"/>
<text text-anchor="middle" x="84" y="-242.5" font-family="Helvetica,sans-Serif" font-size="10.00">queue</text>
</a>
</g>
</g>
<!-- Node3&#45;&gt;Node5 -->
<g id="edge4" class="edge">
<title>Node3&#45;&gt;Node5</title>
<path fill="none" stroke="midnightblue" d="M198.45,-291.44C175.97,-282.52 140.51,-268.44 115.02,-258.32"/>
<polygon fill="midnightblue" stroke="midnightblue" points="116.03,-254.95 105.45,-254.52 113.45,-261.46 116.03,-254.95"/>
</g>
<!-- Node6 -->
<g id="node6" class="node">
<title>Node6</title>
<g id="a_node6"><a xlink:href="gpio_8hpp.html" target="_top" xlink:title="This file defines the GPIO controller used in BCM2835.">
<polygon fill="none" stroke="black" points="274.5,-235.5 274.5,-254.5 333.5,-254.5 333.5,-235.5 274.5,-235.5"/>
<text text-anchor="middle" x="304" y="-242.5" font-family="Helvetica,sans-Serif" font-size="10.00">gpio.hpp</text>
</a>
</g>
</g>
<!-- Node3&#45;&gt;Node6 -->
<g id="edge5" class="edge">
<title>Node3&#45;&gt;Node6</title>
<path fill="none" stroke="midnightblue" d="M233.5,-291.32C246.6,-282.9 266.71,-269.97 282.11,-260.07"/>
<polygon fill="midnightblue" stroke="midnightblue" points="284.02,-263.01 290.54,-254.65 280.23,-257.12 284.02,-263.01"/>
</g>
<!-- Node7 -->
<g id="node7" class="node">
<title>Node7</title>
<g id="a_node7"><a xlink:href="peripheral_8hpp.html" target="_top" xlink:title="This file defines an interface for a memory&#45;mapped peripheral.">
<polygon fill="none" stroke="black" points="540.5,-118 540.5,-137 627.5,-137 627.5,-118 540.5,-118"/>
<text text-anchor="middle" x="584" y="-125" font-family="Helvetica,sans-Serif" font-size="10.00">peripheral.hpp</text>
</a>
</g>
</g>
<!-- Node3&#45;&gt;Node7 -->
<g id="edge17" class="edge">
<title>Node3&#45;&gt;Node7</title>
<path fill="none" stroke="midnightblue" d="M247.09,-292.41C310.69,-274.33 467.7,-228.02 514,-199 537.18,-184.47 558.51,-160.88 571.38,-145.03"/>
<polygon fill="midnightblue" stroke="midnightblue" points="574.17,-147.15 577.62,-137.13 568.68,-142.81 574.17,-147.15"/>
</g>
<!-- Node10 -->
<g id="node10" class="node">
<title>Node10</title>
<g id="a_node10"><a xlink:href="logger_8hpp.html" target="_top" xlink:title="This file defines a general logger interface as well as a logging system that is used in the project.">
<polygon fill="none" stroke="black" points="239,-56.5 239,-75.5 385,-75.5 385,-56.5 239,-56.5"/>
<text text-anchor="middle" x="312" y="-63.5" font-family="Helvetica,sans-Serif" font-size="10.00">zero_mate/utils/logger.hpp</text>
</a>
</g>
</g>
<!-- Node3&#45;&gt;Node10 -->
<g id="edge19" class="edge">
<title>Node3&#45;&gt;Node10</title>
<path fill="none" stroke="midnightblue" d="M211.73,-291.25C185.83,-262.74 110.52,-171.02 155,-112 166.47,-96.77 209.22,-85.13 247.21,-77.5"/>
<polygon fill="midnightblue" stroke="midnightblue" points="248.11,-80.89 257.26,-75.55 246.78,-74.02 248.11,-80.89"/>
</g>
<!-- Node13 -->
<g id="node13" class="node">
<title>Node13</title>
<g id="a_node13"><a xlink:href="system__clock__listener_8hpp.html" target="_top" xlink:title="This file defines an interface for a CPU clock listener.">
<polygon fill="none" stroke="black" points="568,-235.5 568,-254.5 714,-254.5 714,-235.5 568,-235.5"/>
<text text-anchor="middle" x="641" y="-242.5" font-family="Helvetica,sans-Serif" font-size="10.00">system_clock_listener.hpp</text>
</a>
</g>
</g>
<!-- Node3&#45;&gt;Node13 -->
<g id="edge18" class="edge">
<title>Node3&#45;&gt;Node13</title>
<path fill="none" stroke="midnightblue" d="M247.05,-292.84C250.05,-292.16 253.08,-291.53 256,-291 284.87,-285.73 453.16,-266.75 557.46,-255.19"/>
<polygon fill="midnightblue" stroke="midnightblue" points="558.1,-258.64 567.66,-254.06 557.33,-251.68 558.1,-258.64"/>
</g>
<!-- Node6&#45;&gt;Node7 -->
<g id="edge6" class="edge">
<title>Node6&#45;&gt;Node7</title>
<path fill="none" stroke="midnightblue" d="M333.61,-239.93C370.03,-234.18 433.14,-221.73 483,-199 514.89,-184.46 547.34,-159.64 566.57,-143.66"/>
<polygon fill="midnightblue" stroke="midnightblue" points="569.05,-146.15 574.42,-137.01 564.53,-140.8 569.05,-146.15"/>
</g>
<!-- Node8 -->
<g id="node8" class="node">
<title>Node8</title>
<g id="a_node8"><a xlink:href="interrupt__controller_8hpp.html" target="_top" xlink:title="This file defines the interrupt controller used in BCM2835.">
<polygon fill="none" stroke="black" points="342.5,-179.5 342.5,-198.5 473.5,-198.5 473.5,-179.5 342.5,-179.5"/>
<text text-anchor="middle" x="408" y="-186.5" font-family="Helvetica,sans-Serif" font-size="10.00">interrupt_controller.hpp</text>
</a>
</g>
</g>
<!-- Node6&#45;&gt;Node8 -->
<g id="edge7" class="edge">
<title>Node6&#45;&gt;Node8</title>
<path fill="none" stroke="midnightblue" d="M320.71,-235.32C337.31,-226.7 363,-213.36 382.22,-203.39"/>
<polygon fill="midnightblue" stroke="midnightblue" points="384.07,-206.37 391.33,-198.65 380.84,-200.16 384.07,-206.37"/>
</g>
<!-- Node6&#45;&gt;Node10 -->
<g id="edge13" class="edge">
<title>Node6&#45;&gt;Node10</title>
<path fill="none" stroke="midnightblue" d="M304.39,-235.46C305.61,-208.43 309.41,-124.24 311.14,-86.11"/>
<polygon fill="midnightblue" stroke="midnightblue" points="314.64,-86.02 311.6,-75.87 307.65,-85.7 314.64,-86.02"/>
</g>
<!-- Node12 -->
<g id="node12" class="node">
<title>Node12</title>
<g id="a_node12"><a xlink:href="external__peripheral_8hpp.html" target="_top" xlink:title="This file defines an interface for external peripherals that can be attached to the system via GPIO p...">
<polygon fill="none" stroke="black" points="164,-112.5 164,-142.5 276,-142.5 276,-112.5 164,-112.5"/>
<text text-anchor="start" x="172" y="-130.5" font-family="Helvetica,sans-Serif" font-size="10.00">zero_mate/external</text>
<text text-anchor="middle" x="220" y="-119.5" font-family="Helvetica,sans-Serif" font-size="10.00">_peripheral.hpp</text>
</a>
</g>
</g>
<!-- Node6&#45;&gt;Node12 -->
<g id="edge14" class="edge">
<title>Node6&#45;&gt;Node12</title>
<path fill="none" stroke="midnightblue" d="M297.69,-235.32C284.79,-217.58 255.04,-176.68 236.33,-150.95"/>
<polygon fill="midnightblue" stroke="midnightblue" points="238.93,-148.57 230.21,-142.55 233.27,-152.69 238.93,-148.57"/>
</g>
<!-- Node8&#45;&gt;Node7 -->
<g id="edge8" class="edge">
<title>Node8&#45;&gt;Node7</title>
<path fill="none" stroke="midnightblue" d="M433.22,-179.48C463.67,-169.18 515.05,-151.81 549.24,-140.25"/>
<polygon fill="midnightblue" stroke="midnightblue" points="550.48,-143.53 558.83,-137.01 548.24,-136.9 550.48,-143.53"/>
</g>
<!-- Node9 -->
<g id="node9" class="node">
<title>Node9</title>
<g id="a_node9"><a xlink:href="context_8hpp.html" target="_top" xlink:title="This file defines the context (registers) of the CPU.">
<polygon fill="none" stroke="black" points="332,-118 332,-137 484,-137 484,-118 332,-118"/>
<text text-anchor="middle" x="408" y="-125" font-family="Helvetica,sans-Serif" font-size="10.00">../arm1176jzf_s/context.hpp</text>
</a>
</g>
</g>
<!-- Node8&#45;&gt;Node9 -->
<g id="edge9" class="edge">
<title>Node8&#45;&gt;Node9</title>
<path fill="none" stroke="midnightblue" d="M408,-179.48C408,-171.08 408,-157.98 408,-147.16"/>
<polygon fill="midnightblue" stroke="midnightblue" points="411.5,-147.01 408,-137.01 404.5,-147.01 411.5,-147.01"/>
</g>
<!-- Node8&#45;&gt;Node10 -->
<g id="edge12" class="edge">
<title>Node8&#45;&gt;Node10</title>
<path fill="none" stroke="midnightblue" d="M441.8,-179.39C460.39,-172.74 481.89,-161.45 493,-143 500.11,-131.2 501.49,-122.85 493,-112 480.21,-95.65 434.83,-84.39 392.71,-77.22"/>
<polygon fill="midnightblue" stroke="midnightblue" points="393.09,-73.74 382.66,-75.57 391.96,-80.64 393.09,-73.74"/>
</g>
<!-- Node9&#45;&gt;Node10 -->
<g id="edge10" class="edge">
<title>Node9&#45;&gt;Node10</title>
<path fill="none" stroke="midnightblue" d="M394.25,-117.98C378.63,-108.3 352.94,-92.37 334.42,-80.89"/>
<polygon fill="midnightblue" stroke="midnightblue" points="336.07,-77.8 325.73,-75.51 332.38,-83.75 336.07,-77.8"/>
</g>
<!-- Node11 -->
<g id="node11" class="node">
<title>Node11</title>
<g id="a_node11"><a xlink:href="api__export_8hpp.html" target="_top" xlink:title="This file defines macros for exporting symbols out of a shared library.">
<polygon fill="none" stroke="black" points="189,-0.5 189,-19.5 333,-19.5 333,-0.5 189,-0.5"/>
<text text-anchor="middle" x="261" y="-7.5" font-family="Helvetica,sans-Serif" font-size="10.00">zero_mate/api_export.hpp</text>
</a>
</g>
</g>
<!-- Node10&#45;&gt;Node11 -->
<g id="edge11" class="edge">
<title>Node10&#45;&gt;Node11</title>
<path fill="none" stroke="midnightblue" d="M303.58,-56.08C296.15,-48.22 285.15,-36.57 276.19,-27.08"/>
<polygon fill="midnightblue" stroke="midnightblue" points="278.68,-24.62 269.26,-19.75 273.59,-29.42 278.68,-24.62"/>
</g>
<!-- Node12&#45;&gt;Node10 -->
<g id="edge16" class="edge">
<title>Node12&#45;&gt;Node10</title>
<path fill="none" stroke="midnightblue" d="M241.8,-112.4C256.41,-102.95 275.57,-90.56 290.18,-81.11"/>
<polygon fill="midnightblue" stroke="midnightblue" points="292.12,-84.03 298.61,-75.66 288.32,-78.15 292.12,-84.03"/>
</g>
<!-- Node12&#45;&gt;Node11 -->
<g id="edge15" class="edge">
<title>Node12&#45;&gt;Node11</title>
<path fill="none" stroke="midnightblue" d="M220.12,-112.24C220.67,-97.65 222.76,-74.54 230,-56 234,-45.75 240.74,-35.54 246.92,-27.45"/>
<polygon fill="midnightblue" stroke="midnightblue" points="249.7,-29.58 253.25,-19.6 244.25,-25.19 249.7,-29.58"/>
</g>
</g>
</svg>
