<?xml version="1.0" encoding="UTF-8" standalone="no"?>
<!DOCTYPE svg PUBLIC "-//W3C//DTD SVG 1.1//EN"
 "http://www.w3.org/Graphics/SVG/1.1/DTD/svg11.dtd">
<!-- Generated by graphviz version 2.43.0 (0)
 -->
<!-- Title: src/core/peripherals/bsc.cpp Pages: 1 -->
<svg width="628pt" height="397pt"
 viewBox="0.00 0.00 627.50 397.00" xmlns="http://www.w3.org/2000/svg" xmlns:xlink="http://www.w3.org/1999/xlink">
<g id="graph0" class="graph" transform="scale(1 1) rotate(0) translate(4 393)">
<title>src/core/peripherals/bsc.cpp</title>
<!-- Node1 -->
<g id="node1" class="node">
<title>Node1</title>
<g id="a_node1"><a xlink:title="This file implements the BSC peripheral used in BCM2835.">
<polygon fill="#bfbfbf" stroke="black" points="368,-358.5 368,-388.5 481,-388.5 481,-358.5 368,-358.5"/>
<text text-anchor="start" x="376" y="-376.5" font-family="Helvetica,sans-Serif" font-size="10.00">src/core/peripherals</text>
<text text-anchor="middle" x="424.5" y="-365.5" font-family="Helvetica,sans-Serif" font-size="10.00">/bsc.cpp</text>
</a>
</g>
</g>
<!-- Node2 -->
<g id="node2" class="node">
<title>Node2</title>
<g id="a_node2"><a xlink:href="bsc_8hpp.html" target="_top" xlink:title="This file defines the BSC peripheral used in BCM2835.">
<polygon fill="none" stroke="black" points="334.5,-302.5 334.5,-321.5 388.5,-321.5 388.5,-302.5 334.5,-302.5"/>
<text text-anchor="middle" x="361.5" y="-309.5" font-family="Helvetica,sans-Serif" font-size="10.00">bsc.hpp</text>
</a>
</g>
</g>
<!-- Node1&#45;&gt;Node2 -->
<g id="edge1" class="edge">
<title>Node1&#45;&gt;Node2</title>
<path fill="none" stroke="midnightblue" d="M409.57,-358.4C400.13,-349.49 387.92,-337.95 378.17,-328.74"/>
<polygon fill="midnightblue" stroke="midnightblue" points="380.34,-325.98 370.67,-321.66 375.53,-331.07 380.34,-325.98"/>
</g>
<!-- Node11 -->
<g id="node11" class="node">
<title>Node11</title>
<g id="a_node11"><a xlink:href="singleton_8hpp.html" target="_top" xlink:title="This file defines and implements a generic class that is used to treat other classes as singletons.">
<polygon fill="none" stroke="black" points="407,-302.5 407,-321.5 568,-321.5 568,-302.5 407,-302.5"/>
<text text-anchor="middle" x="487.5" y="-309.5" font-family="Helvetica,sans-Serif" font-size="10.00">zero_mate/utils/singleton.hpp</text>
</a>
</g>
</g>
<!-- Node1&#45;&gt;Node11 -->
<g id="edge16" class="edge">
<title>Node1&#45;&gt;Node11</title>
<path fill="none" stroke="midnightblue" d="M439.43,-358.4C448.87,-349.49 461.08,-337.95 470.83,-328.74"/>
<polygon fill="midnightblue" stroke="midnightblue" points="473.47,-331.07 478.33,-321.66 468.66,-325.98 473.47,-331.07"/>
</g>
<!-- Node3 -->
<g id="node3" class="node">
<title>Node3</title>
<g id="a_node3"><a xlink:href="gpio_8hpp.html" target="_top" xlink:title="This file defines the GPIO controller used in BCM2835.">
<polygon fill="none" stroke="black" points="248,-246.5 248,-265.5 307,-265.5 307,-246.5 248,-246.5"/>
<text text-anchor="middle" x="277.5" y="-253.5" font-family="Helvetica,sans-Serif" font-size="10.00">gpio.hpp</text>
</a>
</g>
</g>
<!-- Node2&#45;&gt;Node3 -->
<g id="edge2" class="edge">
<title>Node2&#45;&gt;Node3</title>
<path fill="none" stroke="midnightblue" d="M348,-302.32C334.9,-293.9 314.79,-280.97 299.39,-271.07"/>
<polygon fill="midnightblue" stroke="midnightblue" points="301.27,-268.12 290.96,-265.65 297.48,-274.01 301.27,-268.12"/>
</g>
<!-- Node4 -->
<g id="node4" class="node">
<title>Node4</title>
<g id="a_node4"><a xlink:href="peripheral_8hpp.html" target="_top" xlink:title="This file defines an interface for a memory&#45;mapped peripheral.">
<polygon fill="none" stroke="black" points="0,-123.5 0,-142.5 87,-142.5 87,-123.5 0,-123.5"/>
<text text-anchor="middle" x="43.5" y="-130.5" font-family="Helvetica,sans-Serif" font-size="10.00">peripheral.hpp</text>
</a>
</g>
</g>
<!-- Node2&#45;&gt;Node4 -->
<g id="edge13" class="edge">
<title>Node2&#45;&gt;Node4</title>
<path fill="none" stroke="midnightblue" d="M334.17,-309.21C277.29,-304.02 145.26,-284.22 70.5,-210 55.08,-194.69 48.43,-170.01 45.59,-152.95"/>
<polygon fill="midnightblue" stroke="midnightblue" points="48.99,-152 44.17,-142.57 42.06,-152.95 48.99,-152"/>
</g>
<!-- Node7 -->
<g id="node7" class="node">
<title>Node7</title>
<g id="a_node7"><a xlink:href="logging__system_8hpp.html" target="_top" xlink:title="This file defines a logging system that is used in the project.">
<polygon fill="none" stroke="black" points="258,-56.5 258,-86.5 389,-86.5 389,-56.5 258,-56.5"/>
<text text-anchor="start" x="266" y="-74.5" font-family="Helvetica,sans-Serif" font-size="10.00">zero_mate/utils/logging</text>
<text text-anchor="middle" x="323.5" y="-63.5" font-family="Helvetica,sans-Serif" font-size="10.00">_system.hpp</text>
</a>
</g>
</g>
<!-- Node2&#45;&gt;Node7 -->
<g id="edge15" class="edge">
<title>Node2&#45;&gt;Node7</title>
<path fill="none" stroke="midnightblue" d="M371.54,-302.24C394.19,-281.37 445.85,-226.84 426.5,-179 411.77,-142.58 377.95,-111.71 353.07,-92.73"/>
<polygon fill="midnightblue" stroke="midnightblue" points="355.13,-89.9 345.01,-86.76 350.96,-95.52 355.13,-89.9"/>
</g>
<!-- Node10 -->
<g id="node10" class="node">
<title>Node10</title>
<g id="a_node10"><a xlink:href="system__clock__listener_8hpp.html" target="_top" xlink:title="This file defines an interface for a CPU clock listener.">
<polygon fill="none" stroke="black" points="473.5,-246.5 473.5,-265.5 619.5,-265.5 619.5,-246.5 473.5,-246.5"/>
<text text-anchor="middle" x="546.5" y="-253.5" font-family="Helvetica,sans-Serif" font-size="10.00">system_clock_listener.hpp</text>
</a>
</g>
</g>
<!-- Node2&#45;&gt;Node10 -->
<g id="edge14" class="edge">
<title>Node2&#45;&gt;Node10</title>
<path fill="none" stroke="midnightblue" d="M388.8,-303.03C420.08,-293.9 471.62,-278.86 507.22,-268.47"/>
<polygon fill="midnightblue" stroke="midnightblue" points="508.64,-271.7 517.26,-265.54 506.68,-264.98 508.64,-271.7"/>
</g>
<!-- Node3&#45;&gt;Node4 -->
<g id="edge3" class="edge">
<title>Node3&#45;&gt;Node4</title>
<path fill="none" stroke="midnightblue" d="M247.99,-252.62C212.28,-248.57 151.47,-237.86 107.5,-210 83.9,-195.04 64.54,-168.58 53.5,-151.17"/>
<polygon fill="midnightblue" stroke="midnightblue" points="56.45,-149.27 48.25,-142.55 50.47,-152.91 56.45,-149.27"/>
</g>
<!-- Node5 -->
<g id="node5" class="node">
<title>Node5</title>
<g id="a_node5"><a xlink:href="interrupt__controller_8hpp.html" target="_top" xlink:title="This file defines the interrupt controller used in BCM2835.">
<polygon fill="none" stroke="black" points="117,-185 117,-204 248,-204 248,-185 117,-185"/>
<text text-anchor="middle" x="182.5" y="-192" font-family="Helvetica,sans-Serif" font-size="10.00">interrupt_controller.hpp</text>
</a>
</g>
</g>
<!-- Node3&#45;&gt;Node5 -->
<g id="edge4" class="edge">
<title>Node3&#45;&gt;Node5</title>
<path fill="none" stroke="midnightblue" d="M263.89,-246.48C248.44,-236.8 223.01,-220.87 204.68,-209.39"/>
<polygon fill="midnightblue" stroke="midnightblue" points="206.42,-206.35 196.09,-204.01 202.7,-212.28 206.42,-206.35"/>
</g>
<!-- Node3&#45;&gt;Node7 -->
<g id="edge10" class="edge">
<title>Node3&#45;&gt;Node7</title>
<path fill="none" stroke="midnightblue" d="M279.71,-246.11C283.25,-231.91 290.39,-203.27 296.5,-179 303.63,-150.68 311.89,-118.13 317.38,-96.55"/>
<polygon fill="midnightblue" stroke="midnightblue" points="320.83,-97.18 319.9,-86.62 314.05,-95.45 320.83,-97.18"/>
</g>
<!-- Node9 -->
<g id="node9" class="node">
<title>Node9</title>
<g id="a_node9"><a xlink:href="external__peripheral_8hpp.html" target="_top" xlink:title="This file defines an interface for external peripherals that can be attached to the system via GPIO p...">
<polygon fill="none" stroke="black" points="305.5,-179.5 305.5,-209.5 417.5,-209.5 417.5,-179.5 305.5,-179.5"/>
<text text-anchor="start" x="313.5" y="-197.5" font-family="Helvetica,sans-Serif" font-size="10.00">zero_mate/external</text>
<text text-anchor="middle" x="361.5" y="-186.5" font-family="Helvetica,sans-Serif" font-size="10.00">_peripheral.hpp</text>
</a>
</g>
</g>
<!-- Node3&#45;&gt;Node9 -->
<g id="edge11" class="edge">
<title>Node3&#45;&gt;Node9</title>
<path fill="none" stroke="midnightblue" d="M289.54,-246.48C300.91,-238.42 318.41,-226.02 333.3,-215.47"/>
<polygon fill="midnightblue" stroke="midnightblue" points="335.57,-218.16 341.7,-209.52 331.52,-212.45 335.57,-218.16"/>
</g>
<!-- Node5&#45;&gt;Node4 -->
<g id="edge5" class="edge">
<title>Node5&#45;&gt;Node4</title>
<path fill="none" stroke="midnightblue" d="M162.58,-184.98C139.05,-174.9 99.69,-158.05 72.71,-146.5"/>
<polygon fill="midnightblue" stroke="midnightblue" points="73.95,-143.23 63.38,-142.51 71.19,-149.66 73.95,-143.23"/>
</g>
<!-- Node6 -->
<g id="node6" class="node">
<title>Node6</title>
<g id="a_node6"><a xlink:href="context_8hpp.html" target="_top" xlink:title="This file defines the context (registers) of the CPU.">
<polygon fill="none" stroke="black" points="143.5,-123.5 143.5,-142.5 295.5,-142.5 295.5,-123.5 143.5,-123.5"/>
<text text-anchor="middle" x="219.5" y="-130.5" font-family="Helvetica,sans-Serif" font-size="10.00">../arm1176jzf_s/context.hpp</text>
</a>
</g>
</g>
<!-- Node5&#45;&gt;Node6 -->
<g id="edge6" class="edge">
<title>Node5&#45;&gt;Node6</title>
<path fill="none" stroke="midnightblue" d="M187.8,-184.98C193.24,-176.23 201.86,-162.37 208.74,-151.31"/>
<polygon fill="midnightblue" stroke="midnightblue" points="211.9,-152.85 214.21,-142.51 205.96,-149.15 211.9,-152.85"/>
</g>
<!-- Node5&#45;&gt;Node7 -->
<g id="edge9" class="edge">
<title>Node5&#45;&gt;Node7</title>
<path fill="none" stroke="midnightblue" d="M168.99,-184.81C149.62,-171.28 118,-144.49 134.5,-123 148.62,-104.62 201.4,-91.48 247.61,-83.22"/>
<polygon fill="midnightblue" stroke="midnightblue" points="248.4,-86.64 257.66,-81.48 247.21,-79.74 248.4,-86.64"/>
</g>
<!-- Node6&#45;&gt;Node7 -->
<g id="edge7" class="edge">
<title>Node6&#45;&gt;Node7</title>
<path fill="none" stroke="midnightblue" d="M234.4,-123.48C248.88,-115.19 271.37,-102.32 290.13,-91.59"/>
<polygon fill="midnightblue" stroke="midnightblue" points="292.05,-94.53 298.99,-86.52 288.57,-88.45 292.05,-94.53"/>
</g>
<!-- Node8 -->
<g id="node8" class="node">
<title>Node8</title>
<g id="a_node8"><a xlink:href="logger_8hpp.html" target="_top" xlink:title="This file defines a general logger interface.">
<polygon fill="none" stroke="black" points="289.5,-0.5 289.5,-19.5 357.5,-19.5 357.5,-0.5 289.5,-0.5"/>
<text text-anchor="middle" x="323.5" y="-7.5" font-family="Helvetica,sans-Serif" font-size="10.00">logger.hpp</text>
</a>
</g>
</g>
<!-- Node7&#45;&gt;Node8 -->
<g id="edge8" class="edge">
<title>Node7&#45;&gt;Node8</title>
<path fill="none" stroke="midnightblue" d="M323.5,-56.4C323.5,-48.47 323.5,-38.46 323.5,-29.86"/>
<polygon fill="midnightblue" stroke="midnightblue" points="327,-29.66 323.5,-19.66 320,-29.66 327,-29.66"/>
</g>
<!-- Node9&#45;&gt;Node7 -->
<g id="edge12" class="edge">
<title>Node9&#45;&gt;Node7</title>
<path fill="none" stroke="midnightblue" d="M356.99,-179.14C350.59,-158.77 338.79,-121.2 331.05,-96.53"/>
<polygon fill="midnightblue" stroke="midnightblue" points="334.34,-95.33 328,-86.84 327.66,-97.43 334.34,-95.33"/>
</g>
</g>
</svg>
