<?xml version="1.0" encoding="UTF-8" standalone="no"?>
<!DOCTYPE svg PUBLIC "-//W3C//DTD SVG 1.1//EN"
 "http://www.w3.org/Graphics/SVG/1.1/DTD/svg11.dtd">
<!-- Generated by graphviz version 2.43.0 (0)
 -->
<!-- Title: src/core/bus.hpp Pages: 1 -->
<svg width="997pt" height="229pt"
 viewBox="0.00 0.00 997.00 229.00" xmlns="http://www.w3.org/2000/svg" xmlns:xlink="http://www.w3.org/1999/xlink">
<g id="graph0" class="graph" transform="scale(1 1) rotate(0) translate(4 225)">
<title>src/core/bus.hpp</title>
<!-- Node1 -->
<g id="node1" class="node">
<title>Node1</title>
<g id="a_node1"><a xlink:title="This file defines an interface the CPU uses to access different memory&#45;mapped peripherals.">
<polygon fill="#bfbfbf" stroke="black" points="638.5,-201.5 638.5,-220.5 734.5,-220.5 734.5,-201.5 638.5,-201.5"/>
<text text-anchor="middle" x="686.5" y="-208.5" font-family="Helvetica,sans-Serif" font-size="10.00">src/core/bus.hpp</text>
</a>
</g>
</g>
<!-- Node2 -->
<g id="node2" class="node">
<title>Node2</title>
<g id="a_node2"><a xlink:href="core_8hpp.html" target="_top" xlink:title="This file defines a class that represents a CPU core (arm1176jzf_s).">
<polygon fill="none" stroke="black" points="436,-134.5 436,-164.5 549,-164.5 549,-134.5 436,-134.5"/>
<text text-anchor="start" x="444" y="-152.5" font-family="Helvetica,sans-Serif" font-size="10.00">src/core/arm1176jzf</text>
<text text-anchor="middle" x="492.5" y="-141.5" font-family="Helvetica,sans-Serif" font-size="10.00">_s/core.hpp</text>
</a>
</g>
</g>
<!-- Node1&#45;&gt;Node2 -->
<g id="edge1" class="edge">
<title>Node1&#45;&gt;Node2</title>
<path fill="none" stroke="midnightblue" d="M648.95,-198.48C617.32,-188.78 571.96,-174.87 538.22,-164.52"/>
<polygon fill="midnightblue" stroke="midnightblue" points="648.12,-201.89 658.7,-201.48 650.17,-195.2 648.12,-201.89"/>
</g>
<!-- Node9 -->
<g id="node9" class="node">
<title>Node9</title>
<g id="a_node9"><a xlink:href="file__window_8hpp.html" target="_top" xlink:title=" ">
<polygon fill="none" stroke="black" points="576,-67.5 576,-97.5 689,-97.5 689,-67.5 576,-67.5"/>
<text text-anchor="start" x="584" y="-85.5" font-family="Helvetica,sans-Serif" font-size="10.00">src/gui/windows/file</text>
<text text-anchor="middle" x="632.5" y="-74.5" font-family="Helvetica,sans-Serif" font-size="10.00">_window.hpp</text>
</a>
</g>
</g>
<!-- Node1&#45;&gt;Node9 -->
<g id="edge24" class="edge">
<title>Node1&#45;&gt;Node9</title>
<path fill="none" stroke="midnightblue" d="M678.73,-191.79C667.9,-166.44 648.52,-121.02 638.64,-97.89"/>
<polygon fill="midnightblue" stroke="midnightblue" points="675.64,-193.48 682.79,-201.31 682.08,-190.73 675.64,-193.48"/>
</g>
<!-- Node15 -->
<g id="node15" class="node">
<title>Node15</title>
<g id="a_node15"><a xlink:href="bus_8cpp.html" target="_top" xlink:title="This file implements the interface defined in bus.hpp.">
<polygon fill="none" stroke="black" points="822,-140 822,-159 917,-159 917,-140 822,-140"/>
<text text-anchor="middle" x="869.5" y="-147" font-family="Helvetica,sans-Serif" font-size="10.00">src/core/bus.cpp</text>
</a>
</g>
</g>
<!-- Node1&#45;&gt;Node15 -->
<g id="edge18" class="edge">
<title>Node1&#45;&gt;Node15</title>
<path fill="none" stroke="midnightblue" d="M722.24,-198.38C757.81,-186.82 811.55,-169.34 843.33,-159.01"/>
<polygon fill="midnightblue" stroke="midnightblue" points="721.15,-195.05 712.72,-201.48 723.31,-201.71 721.15,-195.05"/>
</g>
<!-- Node16 -->
<g id="node16" class="node">
<title>Node16</title>
<g id="a_node16"><a xlink:href="elf__loader_8hpp.html" target="_top" xlink:title=" ">
<polygon fill="none" stroke="black" points="709,-134.5 709,-164.5 804,-164.5 804,-134.5 709,-134.5"/>
<text text-anchor="start" x="717" y="-152.5" font-family="Helvetica,sans-Serif" font-size="10.00">src/core/utils/elf</text>
<text text-anchor="middle" x="756.5" y="-141.5" font-family="Helvetica,sans-Serif" font-size="10.00">_loader.hpp</text>
</a>
</g>
</g>
<!-- Node1&#45;&gt;Node16 -->
<g id="edge19" class="edge">
<title>Node1&#45;&gt;Node16</title>
<path fill="none" stroke="midnightblue" d="M704.24,-194.92C715.23,-185.58 729.25,-173.66 740,-164.52"/>
<polygon fill="midnightblue" stroke="midnightblue" points="701.88,-192.33 696.53,-201.48 706.42,-197.67 701.88,-192.33"/>
</g>
<!-- Node3 -->
<g id="node3" class="node">
<title>Node3</title>
<g id="a_node3"><a xlink:href="alu_8hpp.html" target="_top" xlink:title=" ">
<polygon fill="none" stroke="black" points="99,-67.5 99,-97.5 212,-97.5 212,-67.5 99,-67.5"/>
<text text-anchor="start" x="107" y="-85.5" font-family="Helvetica,sans-Serif" font-size="10.00">src/core/arm1176jzf</text>
<text text-anchor="middle" x="155.5" y="-74.5" font-family="Helvetica,sans-Serif" font-size="10.00">_s/alu.hpp</text>
</a>
</g>
</g>
<!-- Node2&#45;&gt;Node3 -->
<g id="edge2" class="edge">
<title>Node2&#45;&gt;Node3</title>
<path fill="none" stroke="midnightblue" d="M425.79,-136.1C371.96,-126.03 294.31,-111.36 226.5,-98 221.81,-97.08 216.95,-96.11 212.07,-95.13"/>
<polygon fill="midnightblue" stroke="midnightblue" points="425.42,-139.59 435.9,-137.99 426.71,-132.71 425.42,-139.59"/>
</g>
<!-- Node5 -->
<g id="node5" class="node">
<title>Node5</title>
<g id="a_node5"><a xlink:href="core_8cpp.html" target="_top" xlink:title=" ">
<polygon fill="none" stroke="black" points="131,-0.5 131,-30.5 244,-30.5 244,-0.5 131,-0.5"/>
<text text-anchor="start" x="139" y="-18.5" font-family="Helvetica,sans-Serif" font-size="10.00">src/core/arm1176jzf</text>
<text text-anchor="middle" x="187.5" y="-7.5" font-family="Helvetica,sans-Serif" font-size="10.00">_s/core.cpp</text>
</a>
</g>
</g>
<!-- Node2&#45;&gt;Node5 -->
<g id="edge5" class="edge">
<title>Node2&#45;&gt;Node5</title>
<path fill="none" stroke="midnightblue" d="M425.58,-145.1C376.69,-140.08 310.33,-127.81 259.5,-98 231,-81.29 207.82,-49.34 196,-30.8"/>
<polygon fill="midnightblue" stroke="midnightblue" points="425.45,-148.61 435.74,-146.07 426.12,-141.64 425.45,-148.61"/>
</g>
<!-- Node6 -->
<g id="node6" class="node">
<title>Node6</title>
<g id="a_node6"><a xlink:href="control__window_8hpp.html" target="_top" xlink:title=" ">
<polygon fill="none" stroke="black" points="427,-67.5 427,-97.5 558,-97.5 558,-67.5 427,-67.5"/>
<text text-anchor="start" x="435" y="-85.5" font-family="Helvetica,sans-Serif" font-size="10.00">src/gui/windows/control</text>
<text text-anchor="middle" x="492.5" y="-74.5" font-family="Helvetica,sans-Serif" font-size="10.00">_window.hpp</text>
</a>
</g>
</g>
<!-- Node2&#45;&gt;Node6 -->
<g id="edge6" class="edge">
<title>Node2&#45;&gt;Node6</title>
<path fill="none" stroke="midnightblue" d="M492.5,-124.11C492.5,-115.15 492.5,-105.32 492.5,-97.58"/>
<polygon fill="midnightblue" stroke="midnightblue" points="489,-124.4 492.5,-134.4 496,-124.4 489,-124.4"/>
</g>
<!-- Node2&#45;&gt;Node9 -->
<g id="edge9" class="edge">
<title>Node2&#45;&gt;Node9</title>
<path fill="none" stroke="midnightblue" d="M532.07,-130.13C554.31,-119.8 581.65,-107.11 602.18,-97.58"/>
<polygon fill="midnightblue" stroke="midnightblue" points="530.47,-127.01 522.88,-134.4 533.42,-133.36 530.47,-127.01"/>
</g>
<!-- Node11 -->
<g id="node11" class="node">
<title>Node11</title>
<g id="a_node11"><a xlink:href="registers__window_8hpp.html" target="_top" xlink:title=" ">
<polygon fill="none" stroke="black" points="268.5,-67.5 268.5,-97.5 408.5,-97.5 408.5,-67.5 268.5,-67.5"/>
<text text-anchor="start" x="276.5" y="-85.5" font-family="Helvetica,sans-Serif" font-size="10.00">src/gui/windows/registers</text>
<text text-anchor="middle" x="338.5" y="-74.5" font-family="Helvetica,sans-Serif" font-size="10.00">_window.hpp</text>
</a>
</g>
</g>
<!-- Node2&#45;&gt;Node11 -->
<g id="edge12" class="edge">
<title>Node2&#45;&gt;Node11</title>
<path fill="none" stroke="midnightblue" d="M449.63,-130.41C425.05,-120.03 394.64,-107.2 371.85,-97.58"/>
<polygon fill="midnightblue" stroke="midnightblue" points="448.51,-133.73 459.08,-134.4 451.23,-127.28 448.51,-133.73"/>
</g>
<!-- Node13 -->
<g id="node13" class="node">
<title>Node13</title>
<g id="a_node13"><a xlink:href="source__code__window_8hpp.html" target="_top" xlink:title=" ">
<polygon fill="none" stroke="black" points="707.5,-67.5 707.5,-97.5 837.5,-97.5 837.5,-67.5 707.5,-67.5"/>
<text text-anchor="start" x="715.5" y="-85.5" font-family="Helvetica,sans-Serif" font-size="10.00">src/gui/windows/source</text>
<text text-anchor="middle" x="772.5" y="-74.5" font-family="Helvetica,sans-Serif" font-size="10.00">_code_window.hpp</text>
</a>
</g>
</g>
<!-- Node2&#45;&gt;Node13 -->
<g id="edge15" class="edge">
<title>Node2&#45;&gt;Node13</title>
<path fill="none" stroke="midnightblue" d="M559.13,-133.03C605.57,-122.25 667.02,-107.99 712.05,-97.53"/>
<polygon fill="midnightblue" stroke="midnightblue" points="558.11,-129.68 549.16,-135.35 559.69,-136.49 558.11,-129.68"/>
</g>
<!-- Node4 -->
<g id="node4" class="node">
<title>Node4</title>
<g id="a_node4"><a xlink:href="alu_8cpp.html" target="_top" xlink:title=" ">
<polygon fill="none" stroke="black" points="0,-0.5 0,-30.5 113,-30.5 113,-0.5 0,-0.5"/>
<text text-anchor="start" x="8" y="-18.5" font-family="Helvetica,sans-Serif" font-size="10.00">src/core/arm1176jzf</text>
<text text-anchor="middle" x="56.5" y="-7.5" font-family="Helvetica,sans-Serif" font-size="10.00">_s/alu.cpp</text>
</a>
</g>
</g>
<!-- Node3&#45;&gt;Node4 -->
<g id="edge3" class="edge">
<title>Node3&#45;&gt;Node4</title>
<path fill="none" stroke="midnightblue" d="M125.39,-61.73C110.08,-51.68 91.81,-39.68 77.94,-30.58"/>
<polygon fill="midnightblue" stroke="midnightblue" points="123.74,-64.83 134.02,-67.4 127.58,-58.98 123.74,-64.83"/>
</g>
<!-- Node3&#45;&gt;Node5 -->
<g id="edge4" class="edge">
<title>Node3&#45;&gt;Node5</title>
<path fill="none" stroke="midnightblue" d="M166.93,-58.28C171.49,-49.02 176.59,-38.66 180.57,-30.58"/>
<polygon fill="midnightblue" stroke="midnightblue" points="163.72,-56.88 162.44,-67.4 170,-59.97 163.72,-56.88"/>
</g>
<!-- Node7 -->
<g id="node7" class="node">
<title>Node7</title>
<g id="a_node7"><a xlink:href="gui_8cpp.html" target="_top" xlink:title=" ">
<polygon fill="none" stroke="black" points="570,-6 570,-25 657,-25 657,-6 570,-6"/>
<text text-anchor="middle" x="613.5" y="-13" font-family="Helvetica,sans-Serif" font-size="10.00">src/gui/gui.cpp</text>
</a>
</g>
</g>
<!-- Node6&#45;&gt;Node7 -->
<g id="edge7" class="edge">
<title>Node6&#45;&gt;Node7</title>
<path fill="none" stroke="midnightblue" d="M527.61,-62.64C550.76,-50.2 579.97,-34.51 597.66,-25.01"/>
<polygon fill="midnightblue" stroke="midnightblue" points="525.91,-59.58 518.76,-67.4 529.22,-65.75 525.91,-59.58"/>
</g>
<!-- Node8 -->
<g id="node8" class="node">
<title>Node8</title>
<g id="a_node8"><a xlink:href="control__window_8cpp.html" target="_top" xlink:title=" ">
<polygon fill="none" stroke="black" points="421,-0.5 421,-30.5 552,-30.5 552,-0.5 421,-0.5"/>
<text text-anchor="start" x="429" y="-18.5" font-family="Helvetica,sans-Serif" font-size="10.00">src/gui/windows/control</text>
<text text-anchor="middle" x="486.5" y="-7.5" font-family="Helvetica,sans-Serif" font-size="10.00">_window.cpp</text>
</a>
</g>
</g>
<!-- Node6&#45;&gt;Node8 -->
<g id="edge8" class="edge">
<title>Node6&#45;&gt;Node8</title>
<path fill="none" stroke="midnightblue" d="M490.28,-57.4C489.44,-48.37 488.52,-38.41 487.8,-30.58"/>
<polygon fill="midnightblue" stroke="midnightblue" points="486.79,-57.76 491.2,-67.4 493.76,-57.12 486.79,-57.76"/>
</g>
<!-- Node9&#45;&gt;Node7 -->
<g id="edge10" class="edge">
<title>Node9&#45;&gt;Node7</title>
<path fill="none" stroke="midnightblue" d="M625.51,-57.6C622.2,-46.28 618.46,-33.46 616.04,-25.19"/>
<polygon fill="midnightblue" stroke="midnightblue" points="622.21,-58.78 628.38,-67.4 628.93,-56.82 622.21,-58.78"/>
</g>
<!-- Node10 -->
<g id="node10" class="node">
<title>Node10</title>
<g id="a_node10"><a xlink:href="file__window_8cpp.html" target="_top" xlink:title=" ">
<polygon fill="none" stroke="black" points="675,-0.5 675,-30.5 788,-30.5 788,-0.5 675,-0.5"/>
<text text-anchor="start" x="683" y="-18.5" font-family="Helvetica,sans-Serif" font-size="10.00">src/gui/windows/file</text>
<text text-anchor="middle" x="731.5" y="-7.5" font-family="Helvetica,sans-Serif" font-size="10.00">_window.cpp</text>
</a>
</g>
</g>
<!-- Node9&#45;&gt;Node10 -->
<g id="edge11" class="edge">
<title>Node9&#45;&gt;Node10</title>
<path fill="none" stroke="midnightblue" d="M662.61,-61.73C677.92,-51.68 696.19,-39.68 710.06,-30.58"/>
<polygon fill="midnightblue" stroke="midnightblue" points="660.42,-58.98 653.98,-67.4 664.26,-64.83 660.42,-58.98"/>
</g>
<!-- Node11&#45;&gt;Node7 -->
<g id="edge13" class="edge">
<title>Node11&#45;&gt;Node7</title>
<path fill="none" stroke="midnightblue" d="M414.44,-65.27C457.67,-55.79 512.76,-43.31 561.5,-31 568.77,-29.16 576.57,-27.06 583.87,-25.03"/>
<polygon fill="midnightblue" stroke="midnightblue" points="413.59,-61.88 404.57,-67.43 415.08,-68.72 413.59,-61.88"/>
</g>
<!-- Node12 -->
<g id="node12" class="node">
<title>Node12</title>
<g id="a_node12"><a xlink:href="registers__window_8cpp.html" target="_top" xlink:title=" ">
<polygon fill="none" stroke="black" points="262.5,-0.5 262.5,-30.5 402.5,-30.5 402.5,-0.5 262.5,-0.5"/>
<text text-anchor="start" x="270.5" y="-18.5" font-family="Helvetica,sans-Serif" font-size="10.00">src/gui/windows/registers</text>
<text text-anchor="middle" x="332.5" y="-7.5" font-family="Helvetica,sans-Serif" font-size="10.00">_window.cpp</text>
</a>
</g>
</g>
<!-- Node11&#45;&gt;Node12 -->
<g id="edge14" class="edge">
<title>Node11&#45;&gt;Node12</title>
<path fill="none" stroke="midnightblue" d="M336.28,-57.4C335.44,-48.37 334.52,-38.41 333.8,-30.58"/>
<polygon fill="midnightblue" stroke="midnightblue" points="332.79,-57.76 337.2,-67.4 339.76,-57.12 332.79,-57.76"/>
</g>
<!-- Node13&#45;&gt;Node7 -->
<g id="edge16" class="edge">
<title>Node13&#45;&gt;Node7</title>
<path fill="none" stroke="midnightblue" d="M728.37,-63.46C697.65,-50.9 658.08,-34.72 634.31,-25.01"/>
<polygon fill="midnightblue" stroke="midnightblue" points="727.42,-66.85 738,-67.4 730.07,-60.37 727.42,-66.85"/>
</g>
<!-- Node14 -->
<g id="node14" class="node">
<title>Node14</title>
<g id="a_node14"><a xlink:href="source__code__window_8cpp.html" target="_top" xlink:title=" ">
<polygon fill="none" stroke="black" points="806.5,-0.5 806.5,-30.5 936.5,-30.5 936.5,-0.5 806.5,-0.5"/>
<text text-anchor="start" x="814.5" y="-18.5" font-family="Helvetica,sans-Serif" font-size="10.00">src/gui/windows/source</text>
<text text-anchor="middle" x="871.5" y="-7.5" font-family="Helvetica,sans-Serif" font-size="10.00">_code_window.cpp</text>
</a>
</g>
</g>
<!-- Node13&#45;&gt;Node14 -->
<g id="edge17" class="edge">
<title>Node13&#45;&gt;Node14</title>
<path fill="none" stroke="midnightblue" d="M802.61,-61.73C817.92,-51.68 836.19,-39.68 850.06,-30.58"/>
<polygon fill="midnightblue" stroke="midnightblue" points="800.42,-58.98 793.98,-67.4 804.26,-64.83 800.42,-58.98"/>
</g>
<!-- Node16&#45;&gt;Node9 -->
<g id="edge21" class="edge">
<title>Node16&#45;&gt;Node9</title>
<path fill="none" stroke="midnightblue" d="M720.66,-129.71C701.11,-119.46 677.3,-106.98 659.35,-97.58"/>
<polygon fill="midnightblue" stroke="midnightblue" points="719.11,-132.85 729.59,-134.4 722.36,-126.65 719.11,-132.85"/>
</g>
<!-- Node16&#45;&gt;Node13 -->
<g id="edge23" class="edge">
<title>Node16&#45;&gt;Node13</title>
<path fill="none" stroke="midnightblue" d="M762.43,-124.4C764.66,-115.37 767.11,-105.41 769.04,-97.58"/>
<polygon fill="midnightblue" stroke="midnightblue" points="758.96,-123.85 759.97,-134.4 765.76,-125.52 758.96,-123.85"/>
</g>
<!-- Node16&#45;&gt;Node14 -->
<g id="edge22" class="edge">
<title>Node16&#45;&gt;Node14</title>
<path fill="none" stroke="midnightblue" d="M804.96,-129.89C820.06,-122.03 835.6,-111.51 846.5,-98 862.48,-78.18 868.27,-48.2 870.35,-30.66"/>
<polygon fill="midnightblue" stroke="midnightblue" points="803.1,-126.9 795.65,-134.44 806.17,-133.19 803.1,-126.9"/>
</g>
<!-- Node17 -->
<g id="node17" class="node">
<title>Node17</title>
<g id="a_node17"><a xlink:href="elf__loader_8cpp.html" target="_top" xlink:title=" ">
<polygon fill="none" stroke="black" points="894,-67.5 894,-97.5 989,-97.5 989,-67.5 894,-67.5"/>
<text text-anchor="start" x="902" y="-85.5" font-family="Helvetica,sans-Serif" font-size="10.00">src/core/utils/elf</text>
<text text-anchor="middle" x="941.5" y="-74.5" font-family="Helvetica,sans-Serif" font-size="10.00">_loader.cpp</text>
</a>
</g>
</g>
<!-- Node16&#45;&gt;Node17 -->
<g id="edge20" class="edge">
<title>Node16&#45;&gt;Node17</title>
<path fill="none" stroke="midnightblue" d="M806.44,-130.96C836.24,-120.48 873.57,-107.37 901.44,-97.58"/>
<polygon fill="midnightblue" stroke="midnightblue" points="804.92,-127.78 796.64,-134.4 807.24,-134.38 804.92,-127.78"/>
</g>
</g>
</svg>
