<?xml version="1.0" encoding="UTF-8" standalone="no"?>
<!DOCTYPE svg PUBLIC "-//W3C//DTD SVG 1.1//EN"
 "http://www.w3.org/Graphics/SVG/1.1/DTD/svg11.dtd">
<!-- Generated by graphviz version 2.43.0 (0)
 -->
<!-- Title: src/core/bus.hpp Pages: 1 -->
<svg width="948pt" height="330pt"
 viewBox="0.00 0.00 948.22 330.00" xmlns="http://www.w3.org/2000/svg" xmlns:xlink="http://www.w3.org/1999/xlink">
<g id="graph0" class="graph" transform="scale(1 1) rotate(0) translate(4 326)">
<title>src/core/bus.hpp</title>
<!-- Node1 -->
<g id="node1" class="node">
<title>Node1</title>
<g id="a_node1"><a xlink:title="This file defines an interface the CPU uses to access different memory&#45;mapped peripherals.">
<polygon fill="#bfbfbf" stroke="black" points="561.72,-302.5 561.72,-321.5 657.72,-321.5 657.72,-302.5 561.72,-302.5"/>
<text text-anchor="middle" x="609.72" y="-309.5" font-family="Helvetica,sans-Serif" font-size="10.00">src/core/bus.hpp</text>
</a>
</g>
</g>
<!-- Node2 -->
<g id="node2" class="node">
<title>Node2</title>
<g id="a_node2"><a xlink:href="cp15_8hpp.html" target="_top" xlink:title=" ">
<polygon fill="none" stroke="black" points="545.72,-246.5 545.72,-265.5 673.72,-265.5 673.72,-246.5 545.72,-246.5"/>
<text text-anchor="middle" x="609.72" y="-253.5" font-family="Helvetica,sans-Serif" font-size="10.00">coprocessors/cp15.hpp</text>
</a>
</g>
</g>
<!-- Node1&#45;&gt;Node2 -->
<g id="edge1" class="edge">
<title>Node1&#45;&gt;Node2</title>
<path fill="none" stroke="midnightblue" d="M609.72,-302.08C609.72,-295.01 609.72,-284.86 609.72,-275.99"/>
<polygon fill="midnightblue" stroke="midnightblue" points="613.22,-275.75 609.72,-265.75 606.22,-275.75 613.22,-275.75"/>
</g>
<!-- Node17 -->
<g id="node17" class="node">
<title>Node17</title>
<g id="a_node17"><a xlink:href="peripheral_8hpp.html" target="_top" xlink:title=" ">
<polygon fill="none" stroke="black" points="1.22,-56.5 1.22,-75.5 146.22,-75.5 146.22,-56.5 1.22,-56.5"/>
<text text-anchor="middle" x="73.72" y="-63.5" font-family="Helvetica,sans-Serif" font-size="10.00">peripherals/peripheral.hpp</text>
</a>
</g>
</g>
<!-- Node1&#45;&gt;Node17 -->
<g id="edge21" class="edge">
<title>Node1&#45;&gt;Node17</title>
<path fill="none" stroke="midnightblue" d="M561.41,-305.89C430.89,-290.98 76.4,-242.89 7.72,-154 -3.69,-139.23 -1,-128.5 7.72,-112 15.14,-97.95 29.14,-87.47 42.34,-80.17"/>
<polygon fill="midnightblue" stroke="midnightblue" points="43.94,-83.28 51.26,-75.62 40.76,-77.04 43.94,-83.28"/>
</g>
<!-- Node18 -->
<g id="node18" class="node">
<title>Node18</title>
<g id="a_node18"><a xlink:href="exceptions_8hpp.html" target="_top" xlink:title="This file defines all exceptions that can be thrown by the CPU during execution.">
<polygon fill="none" stroke="black" points="752.72,-246.5 752.72,-265.5 912.72,-265.5 912.72,-246.5 752.72,-246.5"/>
<text text-anchor="middle" x="832.72" y="-253.5" font-family="Helvetica,sans-Serif" font-size="10.00">arm1176jzf_s/exceptions.hpp</text>
</a>
</g>
</g>
<!-- Node1&#45;&gt;Node18 -->
<g id="edge23" class="edge">
<title>Node1&#45;&gt;Node18</title>
<path fill="none" stroke="midnightblue" d="M645.05,-302.44C683.63,-293.1 745.5,-278.12 787.57,-267.93"/>
<polygon fill="midnightblue" stroke="midnightblue" points="788.65,-271.27 797.55,-265.52 787.01,-264.47 788.65,-271.27"/>
</g>
<!-- Node3 -->
<g id="node3" class="node">
<title>Node3</title>
<g id="a_node3"><a xlink:title=" ">
<polygon fill="none" stroke="#bfbfbf" points="818.22,-0.5 818.22,-19.5 865.22,-19.5 865.22,-0.5 818.22,-0.5"/>
<text text-anchor="middle" x="841.72" y="-7.5" font-family="Helvetica,sans-Serif" font-size="10.00">vector</text>
</a>
</g>
</g>
<!-- Node2&#45;&gt;Node3 -->
<g id="edge2" class="edge">
<title>Node2&#45;&gt;Node3</title>
<path fill="none" stroke="midnightblue" d="M641,-246.45C663.2,-239.29 692.83,-227.41 714.72,-210 778.34,-159.4 819.62,-67.74 834.98,-29.03"/>
<polygon fill="midnightblue" stroke="midnightblue" points="838.29,-30.18 838.62,-19.59 831.75,-27.66 838.29,-30.18"/>
</g>
<!-- Node4 -->
<g id="node4" class="node">
<title>Node4</title>
<g id="a_node4"><a xlink:title=" ">
<polygon fill="none" stroke="#bfbfbf" points="390.22,-190.5 390.22,-209.5 483.22,-209.5 483.22,-190.5 390.22,-190.5"/>
<text text-anchor="middle" x="436.72" y="-197.5" font-family="Helvetica,sans-Serif" font-size="10.00">unordered_map</text>
</a>
</g>
</g>
<!-- Node2&#45;&gt;Node4 -->
<g id="edge3" class="edge">
<title>Node2&#45;&gt;Node4</title>
<path fill="none" stroke="midnightblue" d="M582.31,-246.44C552.95,-237.28 506.2,-222.69 473.62,-212.52"/>
<polygon fill="midnightblue" stroke="midnightblue" points="474.59,-209.16 464,-209.52 472.51,-215.84 474.59,-209.16"/>
</g>
<!-- Node5 -->
<g id="node5" class="node">
<title>Node5</title>
<g id="a_node5"><a xlink:href="coprocessor_8hpp.html" target="_top" xlink:title=" ">
<polygon fill="none" stroke="black" points="501.22,-190.5 501.22,-209.5 596.22,-209.5 596.22,-190.5 501.22,-190.5"/>
<text text-anchor="middle" x="548.72" y="-197.5" font-family="Helvetica,sans-Serif" font-size="10.00">coprocessor.hpp</text>
</a>
</g>
</g>
<!-- Node2&#45;&gt;Node5 -->
<g id="edge4" class="edge">
<title>Node2&#45;&gt;Node5</title>
<path fill="none" stroke="midnightblue" d="M599.92,-246.32C590.9,-238.34 577.31,-226.31 566.4,-216.65"/>
<polygon fill="midnightblue" stroke="midnightblue" points="568.51,-213.84 558.7,-209.83 563.87,-219.08 568.51,-213.84"/>
</g>
<!-- Node8 -->
<g id="node8" class="node">
<title>Node8</title>
<g id="a_node8"><a xlink:href="logger_8hpp.html" target="_top" xlink:title=" ">
<polygon fill="none" stroke="black" points="585.72,-56.5 585.72,-75.5 719.72,-75.5 719.72,-56.5 585.72,-56.5"/>
<text text-anchor="middle" x="652.72" y="-63.5" font-family="Helvetica,sans-Serif" font-size="10.00">../utils/logger/logger.hpp</text>
</a>
</g>
</g>
<!-- Node2&#45;&gt;Node8 -->
<g id="edge20" class="edge">
<title>Node2&#45;&gt;Node8</title>
<path fill="none" stroke="midnightblue" d="M629.5,-246.42C659.42,-232.2 715.12,-200.61 737.72,-154 745.86,-137.2 747.35,-127.99 737.72,-112 728.43,-96.57 711.89,-86.16 695.85,-79.27"/>
<polygon fill="midnightblue" stroke="midnightblue" points="697.11,-76.01 686.52,-75.61 694.55,-82.52 697.11,-76.01"/>
</g>
<!-- Node6 -->
<g id="node6" class="node">
<title>Node6</title>
<g id="a_node6"><a xlink:title=" ">
<polygon fill="none" stroke="#bfbfbf" points="405.72,-0.5 405.72,-19.5 455.72,-19.5 455.72,-0.5 405.72,-0.5"/>
<text text-anchor="middle" x="430.72" y="-7.5" font-family="Helvetica,sans-Serif" font-size="10.00">cstdint</text>
</a>
</g>
</g>
<!-- Node5&#45;&gt;Node6 -->
<g id="edge5" class="edge">
<title>Node5&#45;&gt;Node6</title>
<path fill="none" stroke="midnightblue" d="M548.26,-190.31C547.08,-174.01 542.94,-138.14 528.72,-112 509.14,-76 473.14,-43.81 450.65,-25.9"/>
<polygon fill="midnightblue" stroke="midnightblue" points="452.52,-22.92 442.48,-19.55 448.23,-28.45 452.52,-22.92"/>
</g>
<!-- Node7 -->
<g id="node7" class="node">
<title>Node7</title>
<g id="a_node7"><a xlink:href="context_8hpp.html" target="_top" xlink:title="This file defines the context (registers) of the CPU.">
<polygon fill="none" stroke="black" points="576.72,-123.5 576.72,-142.5 728.72,-142.5 728.72,-123.5 576.72,-123.5"/>
<text text-anchor="middle" x="652.72" y="-130.5" font-family="Helvetica,sans-Serif" font-size="10.00">../arm1176jzf_s/context.hpp</text>
</a>
</g>
</g>
<!-- Node5&#45;&gt;Node7 -->
<g id="edge6" class="edge">
<title>Node5&#45;&gt;Node7</title>
<path fill="none" stroke="midnightblue" d="M562.74,-190.23C580.05,-179.42 609.71,-160.88 630.21,-148.07"/>
<polygon fill="midnightblue" stroke="midnightblue" points="632.29,-150.9 638.92,-142.63 628.58,-144.96 632.29,-150.9"/>
</g>
<!-- Node13 -->
<g id="node13" class="node">
<title>Node13</title>
<g id="a_node13"><a xlink:href="coprocessor__register__transfer_8hpp.html" target="_top" xlink:title=" ">
<polygon fill="none" stroke="black" points="399.22,-112.5 399.22,-153.5 520.22,-153.5 520.22,-112.5 399.22,-112.5"/>
<text text-anchor="start" x="407.22" y="-141.5" font-family="Helvetica,sans-Serif" font-size="10.00">../arm1176jzf_s/isa</text>
<text text-anchor="start" x="407.22" y="-130.5" font-family="Helvetica,sans-Serif" font-size="10.00">/coprocessor_register</text>
<text text-anchor="middle" x="459.72" y="-119.5" font-family="Helvetica,sans-Serif" font-size="10.00">_transfer.hpp</text>
</a>
</g>
</g>
<!-- Node5&#45;&gt;Node13 -->
<g id="edge14" class="edge">
<title>Node5&#45;&gt;Node13</title>
<path fill="none" stroke="midnightblue" d="M536.72,-190.23C525.91,-182.34 509.47,-170.34 494.56,-159.45"/>
<polygon fill="midnightblue" stroke="midnightblue" points="496.62,-156.61 486.48,-153.54 492.49,-162.27 496.62,-156.61"/>
</g>
<!-- Node15 -->
<g id="node15" class="node">
<title>Node15</title>
<g id="a_node15"><a xlink:href="coprocessor__data__transfer_8hpp.html" target="_top" xlink:title="This file defines a coprocessor data transfer (LDC, STC).">
<polygon fill="none" stroke="black" points="17.22,-118 17.22,-148 186.22,-148 186.22,-118 17.22,-118"/>
<text text-anchor="start" x="25.22" y="-136" font-family="Helvetica,sans-Serif" font-size="10.00">../arm1176jzf_s/isa</text>
<text text-anchor="middle" x="101.72" y="-125" font-family="Helvetica,sans-Serif" font-size="10.00">/coprocessor_data_transfer.hpp</text>
</a>
</g>
</g>
<!-- Node5&#45;&gt;Node15 -->
<g id="edge16" class="edge">
<title>Node5&#45;&gt;Node15</title>
<path fill="none" stroke="midnightblue" d="M501.15,-191.36C497.96,-190.89 494.79,-190.43 491.72,-190 360.03,-171.63 325.85,-176 194.72,-154 187.66,-152.82 180.33,-151.46 173.03,-150.03"/>
<polygon fill="midnightblue" stroke="midnightblue" points="173.59,-146.57 163.1,-148.03 172.21,-153.43 173.59,-146.57"/>
</g>
<!-- Node16 -->
<g id="node16" class="node">
<title>Node16</title>
<g id="a_node16"><a xlink:href="coprocessor__data__operation_8hpp.html" target="_top" xlink:title="This file defines a coprocessor data operation (CDP).">
<polygon fill="none" stroke="black" points="203.72,-118 203.72,-148 381.72,-148 381.72,-118 203.72,-118"/>
<text text-anchor="start" x="211.72" y="-136" font-family="Helvetica,sans-Serif" font-size="10.00">../arm1176jzf_s/isa</text>
<text text-anchor="middle" x="292.72" y="-125" font-family="Helvetica,sans-Serif" font-size="10.00">/coprocessor_data_operation.hpp</text>
</a>
</g>
</g>
<!-- Node5&#45;&gt;Node16 -->
<g id="edge18" class="edge">
<title>Node5&#45;&gt;Node16</title>
<path fill="none" stroke="midnightblue" d="M514.99,-190.44C475.15,-180.32 407.97,-163.26 357.87,-150.54"/>
<polygon fill="midnightblue" stroke="midnightblue" points="358.64,-147.13 348.09,-148.06 356.92,-153.91 358.64,-147.13"/>
</g>
<!-- Node7&#45;&gt;Node8 -->
<g id="edge7" class="edge">
<title>Node7&#45;&gt;Node8</title>
<path fill="none" stroke="midnightblue" d="M652.72,-123.23C652.72,-113.68 652.72,-98.12 652.72,-85.78"/>
<polygon fill="midnightblue" stroke="midnightblue" points="656.22,-85.63 652.72,-75.63 649.22,-85.63 656.22,-85.63"/>
</g>
<!-- Node8&#45;&gt;Node3 -->
<g id="edge9" class="edge">
<title>Node8&#45;&gt;Node3</title>
<path fill="none" stroke="midnightblue" d="M682.67,-56.44C716.87,-46.67 772.67,-30.73 808.27,-20.56"/>
<polygon fill="midnightblue" stroke="midnightblue" points="809.53,-23.84 818.18,-17.73 807.6,-17.11 809.53,-23.84"/>
</g>
<!-- Node8&#45;&gt;Node6 -->
<g id="edge11" class="edge">
<title>Node8&#45;&gt;Node6</title>
<path fill="none" stroke="midnightblue" d="M615.91,-56.46C580.04,-48.08 523.7,-34.76 465.98,-20.28"/>
<polygon fill="midnightblue" stroke="midnightblue" points="466.5,-16.8 455.95,-17.75 464.8,-23.59 466.5,-16.8"/>
</g>
<!-- Node9 -->
<g id="node9" class="node">
<title>Node9</title>
<g id="a_node9"><a xlink:title=" ">
<polygon fill="none" stroke="#bfbfbf" points="473.72,-0.5 473.72,-19.5 521.72,-19.5 521.72,-0.5 473.72,-0.5"/>
<text text-anchor="middle" x="497.72" y="-7.5" font-family="Helvetica,sans-Serif" font-size="10.00">mutex</text>
</a>
</g>
</g>
<!-- Node8&#45;&gt;Node9 -->
<g id="edge8" class="edge">
<title>Node8&#45;&gt;Node9</title>
<path fill="none" stroke="midnightblue" d="M628.16,-56.44C602.12,-47.37 560.81,-32.98 531.67,-22.83"/>
<polygon fill="midnightblue" stroke="midnightblue" points="532.5,-19.41 521.91,-19.43 530.2,-26.02 532.5,-19.41"/>
</g>
<!-- Node10 -->
<g id="node10" class="node">
<title>Node10</title>
<g id="a_node10"><a xlink:title=" ">
<polygon fill="none" stroke="#bfbfbf" points="539.72,-0.5 539.72,-19.5 597.72,-19.5 597.72,-0.5 539.72,-0.5"/>
<text text-anchor="middle" x="568.72" y="-7.5" font-family="Helvetica,sans-Serif" font-size="10.00">memory</text>
</a>
</g>
</g>
<!-- Node8&#45;&gt;Node10 -->
<g id="edge10" class="edge">
<title>Node8&#45;&gt;Node10</title>
<path fill="none" stroke="midnightblue" d="M639.22,-56.32C626.12,-47.9 606.01,-34.97 590.61,-25.07"/>
<polygon fill="midnightblue" stroke="midnightblue" points="592.49,-22.12 582.18,-19.65 588.7,-28.01 592.49,-22.12"/>
</g>
<!-- Node11 -->
<g id="node11" class="node">
<title>Node11</title>
<g id="a_node11"><a xlink:title=" ">
<polygon fill="none" stroke="#bfbfbf" points="616.22,-0.5 616.22,-19.5 689.22,-19.5 689.22,-0.5 616.22,-0.5"/>
<text text-anchor="middle" x="652.72" y="-7.5" font-family="Helvetica,sans-Serif" font-size="10.00">string_view</text>
</a>
</g>
</g>
<!-- Node8&#45;&gt;Node11 -->
<g id="edge12" class="edge">
<title>Node8&#45;&gt;Node11</title>
<path fill="none" stroke="midnightblue" d="M652.72,-56.08C652.72,-49.01 652.72,-38.86 652.72,-29.99"/>
<polygon fill="midnightblue" stroke="midnightblue" points="656.22,-29.75 652.72,-19.75 649.22,-29.75 656.22,-29.75"/>
</g>
<!-- Node12 -->
<g id="node12" class="node">
<title>Node12</title>
<g id="a_node12"><a xlink:title=" ">
<polygon fill="none" stroke="#bfbfbf" points="707.22,-0.5 707.22,-19.5 800.22,-19.5 800.22,-0.5 707.22,-0.5"/>
<text text-anchor="middle" x="753.72" y="-7.5" font-family="Helvetica,sans-Serif" font-size="10.00">source_location</text>
</a>
</g>
</g>
<!-- Node8&#45;&gt;Node12 -->
<g id="edge13" class="edge">
<title>Node8&#45;&gt;Node12</title>
<path fill="none" stroke="midnightblue" d="M668.95,-56.32C685.07,-47.7 710.02,-34.36 728.68,-24.39"/>
<polygon fill="midnightblue" stroke="midnightblue" points="730.36,-27.46 737.53,-19.65 727.06,-21.28 730.36,-27.46"/>
</g>
<!-- Node14 -->
<g id="node14" class="node">
<title>Node14</title>
<g id="a_node14"><a xlink:href="instruction_8hpp.html" target="_top" xlink:title="This file defines the interface of a general ARM instruction.">
<polygon fill="none" stroke="black" points="248.22,-56.5 248.22,-75.5 337.22,-75.5 337.22,-56.5 248.22,-56.5"/>
<text text-anchor="middle" x="292.72" y="-63.5" font-family="Helvetica,sans-Serif" font-size="10.00">instruction.hpp</text>
</a>
</g>
</g>
<!-- Node13&#45;&gt;Node14 -->
<g id="edge15" class="edge">
<title>Node13&#45;&gt;Node14</title>
<path fill="none" stroke="midnightblue" d="M409.61,-112.5C381.92,-101.72 348.35,-88.65 324.31,-79.29"/>
<polygon fill="midnightblue" stroke="midnightblue" points="325.54,-76.02 314.95,-75.65 323,-82.54 325.54,-76.02"/>
</g>
<!-- Node15&#45;&gt;Node14 -->
<g id="edge17" class="edge">
<title>Node15&#45;&gt;Node14</title>
<path fill="none" stroke="midnightblue" d="M143.16,-117.9C177.57,-106.19 225.92,-89.73 258.24,-78.73"/>
<polygon fill="midnightblue" stroke="midnightblue" points="259.38,-82.04 267.72,-75.51 257.13,-75.42 259.38,-82.04"/>
</g>
<!-- Node16&#45;&gt;Node14 -->
<g id="edge19" class="edge">
<title>Node16&#45;&gt;Node14</title>
<path fill="none" stroke="midnightblue" d="M292.72,-117.9C292.72,-108.56 292.72,-96.21 292.72,-86.02"/>
<polygon fill="midnightblue" stroke="midnightblue" points="296.22,-85.69 292.72,-75.69 289.22,-85.69 296.22,-85.69"/>
</g>
<!-- Node17&#45;&gt;Node6 -->
<g id="edge22" class="edge">
<title>Node17&#45;&gt;Node6</title>
<path fill="none" stroke="midnightblue" d="M130.29,-56.44C204.82,-45.17 333.67,-25.68 395.55,-16.32"/>
<polygon fill="midnightblue" stroke="midnightblue" points="396.23,-19.76 405.6,-14.8 395.19,-12.84 396.23,-19.76"/>
</g>
<!-- Node18&#45;&gt;Node7 -->
<g id="edge25" class="edge">
<title>Node18&#45;&gt;Node7</title>
<path fill="none" stroke="midnightblue" d="M820.06,-246.49C789.67,-226.06 712.28,-174.04 674.34,-148.54"/>
<polygon fill="midnightblue" stroke="midnightblue" points="675.85,-145.34 665.6,-142.66 671.95,-151.14 675.85,-145.34"/>
</g>
<!-- Node19 -->
<g id="node19" class="node">
<title>Node19</title>
<g id="a_node19"><a xlink:title=" ">
<polygon fill="none" stroke="#bfbfbf" points="861.22,-190.5 861.22,-209.5 940.22,-209.5 940.22,-190.5 861.22,-190.5"/>
<text text-anchor="middle" x="900.72" y="-197.5" font-family="Helvetica,sans-Serif" font-size="10.00">fmt/format.h</text>
</a>
</g>
</g>
<!-- Node18&#45;&gt;Node19 -->
<g id="edge24" class="edge">
<title>Node18&#45;&gt;Node19</title>
<path fill="none" stroke="midnightblue" d="M843.64,-246.32C853.89,-238.18 869.44,-225.84 881.72,-216.09"/>
<polygon fill="midnightblue" stroke="midnightblue" points="883.94,-218.79 889.59,-209.83 879.59,-213.31 883.94,-218.79"/>
</g>
</g>
</svg>
