<?xml version="1.0" encoding="UTF-8" standalone="no"?>
<!DOCTYPE svg PUBLIC "-//W3C//DTD SVG 1.1//EN"
 "http://www.w3.org/Graphics/SVG/1.1/DTD/svg11.dtd">
<!-- Generated by graphviz version 2.43.0 (0)
 -->
<!-- Title: src/core/bus.hpp Pages: 1 -->
<svg width="875pt" height="330pt"
 viewBox="0.00 0.00 875.00 330.00" xmlns="http://www.w3.org/2000/svg" xmlns:xlink="http://www.w3.org/1999/xlink">
<g id="graph0" class="graph" transform="scale(1 1) rotate(0) translate(4 326)">
<title>src/core/bus.hpp</title>
<!-- Node1 -->
<g id="node1" class="node">
<title>Node1</title>
<g id="a_node1"><a xlink:title="This file defines an interface the CPU uses to access different memory&#45;mapped peripherals.">
<polygon fill="#bfbfbf" stroke="black" points="302.5,-302.5 302.5,-321.5 398.5,-321.5 398.5,-302.5 302.5,-302.5"/>
<text text-anchor="middle" x="350.5" y="-309.5" font-family="Helvetica,sans-Serif" font-size="10.00">src/core/bus.hpp</text>
</a>
</g>
</g>
<!-- Node2 -->
<g id="node2" class="node">
<title>Node2</title>
<g id="a_node2"><a xlink:href="cp15_8hpp.html" target="_top" xlink:title=" ">
<polygon fill="none" stroke="black" points="77.5,-246.5 77.5,-265.5 205.5,-265.5 205.5,-246.5 77.5,-246.5"/>
<text text-anchor="middle" x="141.5" y="-253.5" font-family="Helvetica,sans-Serif" font-size="10.00">coprocessors/cp15.hpp</text>
</a>
</g>
</g>
<!-- Node1&#45;&gt;Node2 -->
<g id="edge1" class="edge">
<title>Node1&#45;&gt;Node2</title>
<path fill="none" stroke="midnightblue" d="M317.38,-302.44C281.38,-293.14 223.73,-278.25 184.31,-268.06"/>
<polygon fill="midnightblue" stroke="midnightblue" points="185.02,-264.63 174.46,-265.52 183.27,-271.41 185.02,-264.63"/>
</g>
<!-- Node17 -->
<g id="node17" class="node">
<title>Node17</title>
<g id="a_node17"><a xlink:href="peripheral_8hpp.html" target="_top" xlink:title=" ">
<polygon fill="none" stroke="black" points="722,-56.5 722,-75.5 867,-75.5 867,-56.5 722,-56.5"/>
<text text-anchor="middle" x="794.5" y="-63.5" font-family="Helvetica,sans-Serif" font-size="10.00">peripherals/peripheral.hpp</text>
</a>
</g>
</g>
<!-- Node1&#45;&gt;Node17 -->
<g id="edge22" class="edge">
<title>Node1&#45;&gt;Node17</title>
<path fill="none" stroke="midnightblue" d="M398.73,-311.53C496.71,-309.68 717.99,-289.84 815.5,-154 830.47,-133.15 817.37,-102.98 806.2,-84.2"/>
<polygon fill="midnightblue" stroke="midnightblue" points="809.01,-82.09 800.69,-75.53 803.1,-85.85 809.01,-82.09"/>
</g>
<!-- Node18 -->
<g id="node18" class="node">
<title>Node18</title>
<g id="a_node18"><a xlink:href="exceptions_8hpp.html" target="_top" xlink:title="This file defines all exceptions that can be thrown by the CPU during execution.">
<polygon fill="none" stroke="black" points="270.5,-246.5 270.5,-265.5 430.5,-265.5 430.5,-246.5 270.5,-246.5"/>
<text text-anchor="middle" x="350.5" y="-253.5" font-family="Helvetica,sans-Serif" font-size="10.00">arm1176jzf_s/exceptions.hpp</text>
</a>
</g>
</g>
<!-- Node1&#45;&gt;Node18 -->
<g id="edge24" class="edge">
<title>Node1&#45;&gt;Node18</title>
<path fill="none" stroke="midnightblue" d="M350.5,-302.08C350.5,-295.01 350.5,-284.86 350.5,-275.99"/>
<polygon fill="midnightblue" stroke="midnightblue" points="354,-275.75 350.5,-265.75 347,-275.75 354,-275.75"/>
</g>
<!-- Node3 -->
<g id="node3" class="node">
<title>Node3</title>
<g id="a_node3"><a xlink:title=" ">
<polygon fill="none" stroke="#bfbfbf" points="0,-0.5 0,-19.5 47,-19.5 47,-0.5 0,-0.5"/>
<text text-anchor="middle" x="23.5" y="-7.5" font-family="Helvetica,sans-Serif" font-size="10.00">vector</text>
</a>
</g>
</g>
<!-- Node2&#45;&gt;Node3 -->
<g id="edge2" class="edge">
<title>Node2&#45;&gt;Node3</title>
<path fill="none" stroke="midnightblue" d="M120.92,-246.4C105.6,-238.96 85.36,-226.75 73.5,-210 33.39,-153.36 25.37,-67.66 23.83,-29.95"/>
<polygon fill="midnightblue" stroke="midnightblue" points="27.33,-29.76 23.53,-19.87 20.33,-29.97 27.33,-29.76"/>
</g>
<!-- Node4 -->
<g id="node4" class="node">
<title>Node4</title>
<g id="a_node4"><a xlink:title=" ">
<polygon fill="none" stroke="#bfbfbf" points="95,-190.5 95,-209.5 188,-209.5 188,-190.5 95,-190.5"/>
<text text-anchor="middle" x="141.5" y="-197.5" font-family="Helvetica,sans-Serif" font-size="10.00">unordered_map</text>
</a>
</g>
</g>
<!-- Node2&#45;&gt;Node4 -->
<g id="edge3" class="edge">
<title>Node2&#45;&gt;Node4</title>
<path fill="none" stroke="midnightblue" d="M141.5,-246.08C141.5,-239.01 141.5,-228.86 141.5,-219.99"/>
<polygon fill="midnightblue" stroke="midnightblue" points="145,-219.75 141.5,-209.75 138,-219.75 145,-219.75"/>
</g>
<!-- Node5 -->
<g id="node5" class="node">
<title>Node5</title>
<g id="a_node5"><a xlink:href="coprocessor_8hpp.html" target="_top" xlink:title=" ">
<polygon fill="none" stroke="black" points="245,-190.5 245,-209.5 340,-209.5 340,-190.5 245,-190.5"/>
<text text-anchor="middle" x="292.5" y="-197.5" font-family="Helvetica,sans-Serif" font-size="10.00">coprocessor.hpp</text>
</a>
</g>
</g>
<!-- Node2&#45;&gt;Node5 -->
<g id="edge4" class="edge">
<title>Node2&#45;&gt;Node5</title>
<path fill="none" stroke="midnightblue" d="M165.43,-246.44C190.72,-237.4 230.8,-223.06 259.18,-212.92"/>
<polygon fill="midnightblue" stroke="midnightblue" points="260.45,-216.18 268.69,-209.52 258.09,-209.59 260.45,-216.18"/>
</g>
<!-- Node8 -->
<g id="node8" class="node">
<title>Node8</title>
<g id="a_node8"><a xlink:href="logger_8hpp.html" target="_top" xlink:title=" ">
<polygon fill="none" stroke="black" points="105.5,-56.5 105.5,-75.5 239.5,-75.5 239.5,-56.5 105.5,-56.5"/>
<text text-anchor="middle" x="172.5" y="-63.5" font-family="Helvetica,sans-Serif" font-size="10.00">../utils/logger/logger.hpp</text>
</a>
</g>
</g>
<!-- Node2&#45;&gt;Node8 -->
<g id="edge21" class="edge">
<title>Node2&#45;&gt;Node8</title>
<path fill="none" stroke="midnightblue" d="M124.38,-246.35C111.37,-238.73 94.41,-226.32 86.5,-210 67.5,-170.81 62.85,-149.21 85.5,-112 94.96,-96.46 111.71,-86.05 128,-79.19"/>
<polygon fill="midnightblue" stroke="midnightblue" points="129.4,-82.4 137.49,-75.55 126.9,-75.87 129.4,-82.4"/>
</g>
<!-- Node6 -->
<g id="node6" class="node">
<title>Node6</title>
<g id="a_node6"><a xlink:title=" ">
<polygon fill="none" stroke="#bfbfbf" points="472.5,-0.5 472.5,-19.5 522.5,-19.5 522.5,-0.5 472.5,-0.5"/>
<text text-anchor="middle" x="497.5" y="-7.5" font-family="Helvetica,sans-Serif" font-size="10.00">cstdint</text>
</a>
</g>
</g>
<!-- Node5&#45;&gt;Node6 -->
<g id="edge5" class="edge">
<title>Node5&#45;&gt;Node6</title>
<path fill="none" stroke="midnightblue" d="M289.83,-190.27C285.29,-173.6 277.98,-136.68 293.5,-112 330.93,-52.47 414.89,-26.9 462.61,-16.84"/>
<polygon fill="midnightblue" stroke="midnightblue" points="463.37,-20.26 472.49,-14.87 462,-13.39 463.37,-20.26"/>
</g>
<!-- Node7 -->
<g id="node7" class="node">
<title>Node7</title>
<g id="a_node7"><a xlink:href="context_8hpp.html" target="_top" xlink:title="This file defines the context (registers) of the CPU.">
<polygon fill="none" stroke="black" points="94.5,-123.5 94.5,-142.5 246.5,-142.5 246.5,-123.5 94.5,-123.5"/>
<text text-anchor="middle" x="170.5" y="-130.5" font-family="Helvetica,sans-Serif" font-size="10.00">../arm1176jzf_s/context.hpp</text>
</a>
</g>
</g>
<!-- Node5&#45;&gt;Node7 -->
<g id="edge6" class="edge">
<title>Node5&#45;&gt;Node7</title>
<path fill="none" stroke="midnightblue" d="M276.3,-190.37C255.7,-179.39 219.91,-160.32 195.72,-147.44"/>
<polygon fill="midnightblue" stroke="midnightblue" points="197.24,-144.28 186.77,-142.67 193.95,-150.46 197.24,-144.28"/>
</g>
<!-- Node13 -->
<g id="node13" class="node">
<title>Node13</title>
<g id="a_node13"><a xlink:href="coprocessor__register__transfer_8hpp.html" target="_top" xlink:title=" ">
<polygon fill="none" stroke="black" points="498,-112.5 498,-153.5 619,-153.5 619,-112.5 498,-112.5"/>
<text text-anchor="start" x="506" y="-141.5" font-family="Helvetica,sans-Serif" font-size="10.00">../arm1176jzf_s/isa</text>
<text text-anchor="start" x="506" y="-130.5" font-family="Helvetica,sans-Serif" font-size="10.00">/coprocessor_register</text>
<text text-anchor="middle" x="558.5" y="-119.5" font-family="Helvetica,sans-Serif" font-size="10.00">_transfer.hpp</text>
</a>
</g>
</g>
<!-- Node5&#45;&gt;Node13 -->
<g id="edge14" class="edge">
<title>Node5&#45;&gt;Node13</title>
<path fill="none" stroke="midnightblue" d="M333.04,-190.45C370.87,-182.32 429.12,-169.39 488.12,-154.3"/>
<polygon fill="midnightblue" stroke="midnightblue" points="489.16,-157.64 497.97,-151.76 487.42,-150.86 489.16,-157.64"/>
</g>
<!-- Node15 -->
<g id="node15" class="node">
<title>Node15</title>
<g id="a_node15"><a xlink:href="coprocessor__data__transfer_8hpp.html" target="_top" xlink:title=" ">
<polygon fill="none" stroke="black" points="637,-118 637,-148 806,-148 806,-118 637,-118"/>
<text text-anchor="start" x="645" y="-136" font-family="Helvetica,sans-Serif" font-size="10.00">../arm1176jzf_s/isa</text>
<text text-anchor="middle" x="721.5" y="-125" font-family="Helvetica,sans-Serif" font-size="10.00">/coprocessor_data_transfer.hpp</text>
</a>
</g>
</g>
<!-- Node5&#45;&gt;Node15 -->
<g id="edge17" class="edge">
<title>Node5&#45;&gt;Node15</title>
<path fill="none" stroke="midnightblue" d="M340.07,-191.39C343.26,-190.91 346.43,-190.44 349.5,-190 473.26,-172.25 505.28,-175.16 628.5,-154 635.49,-152.8 642.76,-151.44 650.01,-150"/>
<polygon fill="midnightblue" stroke="midnightblue" points="650.75,-153.42 659.86,-148.01 649.36,-146.56 650.75,-153.42"/>
</g>
<!-- Node16 -->
<g id="node16" class="node">
<title>Node16</title>
<g id="a_node16"><a xlink:href="coprocessor__data__operation_8hpp.html" target="_top" xlink:title=" ">
<polygon fill="none" stroke="black" points="302.5,-118 302.5,-148 480.5,-148 480.5,-118 302.5,-118"/>
<text text-anchor="start" x="310.5" y="-136" font-family="Helvetica,sans-Serif" font-size="10.00">../arm1176jzf_s/isa</text>
<text text-anchor="middle" x="391.5" y="-125" font-family="Helvetica,sans-Serif" font-size="10.00">/coprocessor_data_operation.hpp</text>
</a>
</g>
</g>
<!-- Node5&#45;&gt;Node16 -->
<g id="edge19" class="edge">
<title>Node5&#45;&gt;Node16</title>
<path fill="none" stroke="midnightblue" d="M305.85,-190.23C320.07,-180.9 343.03,-165.82 361.6,-153.63"/>
<polygon fill="midnightblue" stroke="midnightblue" points="363.6,-156.5 370.04,-148.09 359.76,-150.65 363.6,-156.5"/>
</g>
<!-- Node7&#45;&gt;Node8 -->
<g id="edge7" class="edge">
<title>Node7&#45;&gt;Node8</title>
<path fill="none" stroke="midnightblue" d="M170.77,-123.23C171.06,-113.68 171.54,-98.12 171.92,-85.78"/>
<polygon fill="midnightblue" stroke="midnightblue" points="175.43,-85.73 172.23,-75.63 168.43,-85.51 175.43,-85.73"/>
</g>
<!-- Node8&#45;&gt;Node3 -->
<g id="edge9" class="edge">
<title>Node8&#45;&gt;Node3</title>
<path fill="none" stroke="midnightblue" d="M148.89,-56.44C124.04,-47.44 84.73,-33.19 56.75,-23.05"/>
<polygon fill="midnightblue" stroke="midnightblue" points="57.59,-19.63 47,-19.52 55.21,-26.21 57.59,-19.63"/>
</g>
<!-- Node8&#45;&gt;Node6 -->
<g id="edge11" class="edge">
<title>Node8&#45;&gt;Node6</title>
<path fill="none" stroke="midnightblue" d="M224,-56.44C290.55,-45.38 404.7,-26.42 462.2,-16.86"/>
<polygon fill="midnightblue" stroke="midnightblue" points="462.97,-20.29 472.26,-15.19 461.82,-13.38 462.97,-20.29"/>
</g>
<!-- Node9 -->
<g id="node9" class="node">
<title>Node9</title>
<g id="a_node9"><a xlink:title=" ">
<polygon fill="none" stroke="#bfbfbf" points="344.5,-0.5 344.5,-19.5 392.5,-19.5 392.5,-0.5 344.5,-0.5"/>
<text text-anchor="middle" x="368.5" y="-7.5" font-family="Helvetica,sans-Serif" font-size="10.00">mutex</text>
</a>
</g>
</g>
<!-- Node8&#45;&gt;Node9 -->
<g id="edge8" class="edge">
<title>Node8&#45;&gt;Node9</title>
<path fill="none" stroke="midnightblue" d="M203.56,-56.44C239.27,-46.6 297.72,-30.5 334.59,-20.34"/>
<polygon fill="midnightblue" stroke="midnightblue" points="335.67,-23.67 344.39,-17.64 333.81,-16.93 335.67,-23.67"/>
</g>
<!-- Node10 -->
<g id="node10" class="node">
<title>Node10</title>
<g id="a_node10"><a xlink:title=" ">
<polygon fill="none" stroke="#bfbfbf" points="65.5,-0.5 65.5,-19.5 123.5,-19.5 123.5,-0.5 65.5,-0.5"/>
<text text-anchor="middle" x="94.5" y="-7.5" font-family="Helvetica,sans-Serif" font-size="10.00">memory</text>
</a>
</g>
</g>
<!-- Node8&#45;&gt;Node10 -->
<g id="edge10" class="edge">
<title>Node8&#45;&gt;Node10</title>
<path fill="none" stroke="midnightblue" d="M159.97,-56.32C147.91,-47.98 129.47,-35.21 115.23,-25.35"/>
<polygon fill="midnightblue" stroke="midnightblue" points="117.22,-22.47 107,-19.65 113.23,-28.22 117.22,-22.47"/>
</g>
<!-- Node11 -->
<g id="node11" class="node">
<title>Node11</title>
<g id="a_node11"><a xlink:title=" ">
<polygon fill="none" stroke="#bfbfbf" points="142,-0.5 142,-19.5 215,-19.5 215,-0.5 142,-0.5"/>
<text text-anchor="middle" x="178.5" y="-7.5" font-family="Helvetica,sans-Serif" font-size="10.00">string_view</text>
</a>
</g>
</g>
<!-- Node8&#45;&gt;Node11 -->
<g id="edge12" class="edge">
<title>Node8&#45;&gt;Node11</title>
<path fill="none" stroke="midnightblue" d="M173.49,-56.08C174.29,-48.93 175.43,-38.64 176.42,-29.69"/>
<polygon fill="midnightblue" stroke="midnightblue" points="179.9,-30.08 177.53,-19.75 172.94,-29.3 179.9,-30.08"/>
</g>
<!-- Node12 -->
<g id="node12" class="node">
<title>Node12</title>
<g id="a_node12"><a xlink:title=" ">
<polygon fill="none" stroke="#bfbfbf" points="233,-0.5 233,-19.5 326,-19.5 326,-0.5 233,-0.5"/>
<text text-anchor="middle" x="279.5" y="-7.5" font-family="Helvetica,sans-Serif" font-size="10.00">source_location</text>
</a>
</g>
</g>
<!-- Node8&#45;&gt;Node12 -->
<g id="edge13" class="edge">
<title>Node8&#45;&gt;Node12</title>
<path fill="none" stroke="midnightblue" d="M189.69,-56.32C206.85,-47.66 233.45,-34.24 253.25,-24.25"/>
<polygon fill="midnightblue" stroke="midnightblue" points="255,-27.28 262.35,-19.65 251.85,-21.04 255,-27.28"/>
</g>
<!-- Node14 -->
<g id="node14" class="node">
<title>Node14</title>
<g id="a_node14"><a xlink:href="instruction_8hpp.html" target="_top" xlink:title=" ">
<polygon fill="none" stroke="black" points="483,-56.5 483,-75.5 572,-75.5 572,-56.5 483,-56.5"/>
<text text-anchor="middle" x="527.5" y="-63.5" font-family="Helvetica,sans-Serif" font-size="10.00">instruction.hpp</text>
</a>
</g>
</g>
<!-- Node13&#45;&gt;Node14 -->
<g id="edge15" class="edge">
<title>Node13&#45;&gt;Node14</title>
<path fill="none" stroke="midnightblue" d="M549.2,-112.5C544.99,-103.68 540.06,-93.34 535.96,-84.74"/>
<polygon fill="midnightblue" stroke="midnightblue" points="539.09,-83.17 531.63,-75.65 532.77,-86.19 539.09,-83.17"/>
</g>
<!-- Node14&#45;&gt;Node6 -->
<g id="edge16" class="edge">
<title>Node14&#45;&gt;Node6</title>
<path fill="none" stroke="midnightblue" d="M522.55,-56.08C518.4,-48.61 512.35,-37.72 507.23,-28.52"/>
<polygon fill="midnightblue" stroke="midnightblue" points="510.28,-26.79 502.36,-19.75 504.16,-30.19 510.28,-26.79"/>
</g>
<!-- Node15&#45;&gt;Node14 -->
<g id="edge18" class="edge">
<title>Node15&#45;&gt;Node14</title>
<path fill="none" stroke="midnightblue" d="M679.4,-117.9C644.46,-106.19 595.34,-89.73 562.52,-78.73"/>
<polygon fill="midnightblue" stroke="midnightblue" points="563.48,-75.37 552.89,-75.51 561.26,-82 563.48,-75.37"/>
</g>
<!-- Node16&#45;&gt;Node14 -->
<g id="edge20" class="edge">
<title>Node16&#45;&gt;Node14</title>
<path fill="none" stroke="midnightblue" d="M421.01,-117.9C444.66,-106.59 477.58,-90.86 500.53,-79.89"/>
<polygon fill="midnightblue" stroke="midnightblue" points="502.19,-82.98 509.7,-75.51 499.17,-76.66 502.19,-82.98"/>
</g>
<!-- Node17&#45;&gt;Node6 -->
<g id="edge23" class="edge">
<title>Node17&#45;&gt;Node6</title>
<path fill="none" stroke="midnightblue" d="M747.44,-56.44C687.79,-45.6 586.31,-27.15 532.85,-17.43"/>
<polygon fill="midnightblue" stroke="midnightblue" points="533.29,-13.95 522.83,-15.6 532.04,-20.84 533.29,-13.95"/>
</g>
<!-- Node18&#45;&gt;Node7 -->
<g id="edge26" class="edge">
<title>Node18&#45;&gt;Node7</title>
<path fill="none" stroke="midnightblue" d="M317.23,-246.48C293.31,-239.31 261.08,-227.39 236.5,-210 213.63,-193.82 193.52,-168.1 181.68,-151.13"/>
<polygon fill="midnightblue" stroke="midnightblue" points="184.5,-149.05 175.99,-142.73 178.7,-152.97 184.5,-149.05"/>
</g>
<!-- Node19 -->
<g id="node19" class="node">
<title>Node19</title>
<g id="a_node19"><a xlink:title=" ">
<polygon fill="none" stroke="#bfbfbf" points="358,-190.5 358,-209.5 437,-209.5 437,-190.5 358,-190.5"/>
<text text-anchor="middle" x="397.5" y="-197.5" font-family="Helvetica,sans-Serif" font-size="10.00">fmt/format.h</text>
</a>
</g>
</g>
<!-- Node18&#45;&gt;Node19 -->
<g id="edge25" class="edge">
<title>Node18&#45;&gt;Node19</title>
<path fill="none" stroke="midnightblue" d="M358.26,-246.08C365.04,-238.3 375.04,-226.8 383.26,-217.37"/>
<polygon fill="midnightblue" stroke="midnightblue" points="385.96,-219.59 389.88,-209.75 380.68,-215 385.96,-219.59"/>
</g>
</g>
</svg>
