<?xml version="1.0" encoding="UTF-8" standalone="no"?>
<!DOCTYPE svg PUBLIC "-//W3C//DTD SVG 1.1//EN"
 "http://www.w3.org/Graphics/SVG/1.1/DTD/svg11.dtd">
<!-- Generated by graphviz version 2.43.0 (0)
 -->
<!-- Title: src/core/bus.hpp Pages: 1 -->
<svg width="1283pt" height="296pt"
 viewBox="0.00 0.00 1283.00 296.00" xmlns="http://www.w3.org/2000/svg" xmlns:xlink="http://www.w3.org/1999/xlink">
<g id="graph0" class="graph" transform="scale(1 1) rotate(0) translate(4 292)">
<title>src/core/bus.hpp</title>
<!-- Node1 -->
<g id="node1" class="node">
<title>Node1</title>
<g id="a_node1"><a xlink:title="This file defines an interface the CPU uses to access different memory&#45;mapped peripherals.">
<polygon fill="#bfbfbf" stroke="black" points="697,-268.5 697,-287.5 793,-287.5 793,-268.5 697,-268.5"/>
<text text-anchor="middle" x="745" y="-275.5" font-family="Helvetica,sans-Serif" font-size="10.00">src/core/bus.hpp</text>
</a>
</g>
</g>
<!-- Node2 -->
<g id="node2" class="node">
<title>Node2</title>
<g id="a_node2"><a xlink:href="core_8hpp.html" target="_top" xlink:title="This file defines a class that represents a CPU core (arm1176jzf_s).">
<polygon fill="none" stroke="black" points="344.5,-134.5 344.5,-164.5 457.5,-164.5 457.5,-134.5 344.5,-134.5"/>
<text text-anchor="start" x="352.5" y="-152.5" font-family="Helvetica,sans-Serif" font-size="10.00">src/core/arm1176jzf</text>
<text text-anchor="middle" x="401" y="-141.5" font-family="Helvetica,sans-Serif" font-size="10.00">_s/core.hpp</text>
</a>
</g>
</g>
<!-- Node1&#45;&gt;Node2 -->
<g id="edge1" class="edge">
<title>Node1&#45;&gt;Node2</title>
<path fill="none" stroke="midnightblue" d="M686.59,-272.8C615.31,-266.8 499.74,-253.99 463,-232 436.15,-215.93 416.92,-183.43 407.51,-164.69"/>
<polygon fill="midnightblue" stroke="midnightblue" points="686.52,-276.3 696.77,-273.63 687.09,-269.33 686.52,-276.3"/>
</g>
<!-- Node4 -->
<g id="node4" class="node">
<title>Node4</title>
<g id="a_node4"><a xlink:href="soc_8hpp.html" target="_top" xlink:title=" ">
<polygon fill="none" stroke="black" points="438.5,-73 438.5,-92 533.5,-92 533.5,-73 438.5,-73"/>
<text text-anchor="middle" x="486" y="-80" font-family="Helvetica,sans-Serif" font-size="10.00">src/core/soc.hpp</text>
</a>
</g>
</g>
<!-- Node1&#45;&gt;Node4 -->
<g id="edge30" class="edge">
<title>Node1&#45;&gt;Node4</title>
<path fill="none" stroke="midnightblue" d="M736.18,-259.21C720.39,-229.11 684.43,-168.1 637,-134 617.87,-120.24 557.24,-102.41 518.88,-92.03"/>
<polygon fill="midnightblue" stroke="midnightblue" points="733.08,-260.84 740.75,-268.15 739.32,-257.65 733.08,-260.84"/>
</g>
<!-- Node14 -->
<g id="node14" class="node">
<title>Node14</title>
<g id="a_node14"><a xlink:href="top__bar__menu_8hpp.html" target="_top" xlink:title=" ">
<polygon fill="none" stroke="black" points="979.5,-67.5 979.5,-97.5 1092.5,-97.5 1092.5,-67.5 979.5,-67.5"/>
<text text-anchor="start" x="987.5" y="-85.5" font-family="Helvetica,sans-Serif" font-size="10.00">src/gui/windows/top</text>
<text text-anchor="middle" x="1036" y="-74.5" font-family="Helvetica,sans-Serif" font-size="10.00">_bar_menu.hpp</text>
</a>
</g>
</g>
<!-- Node1&#45;&gt;Node14 -->
<g id="edge31" class="edge">
<title>Node1&#45;&gt;Node14</title>
<path fill="none" stroke="midnightblue" d="M764.41,-261.98C784.88,-246.31 818.22,-221.25 848,-201 905.77,-161.72 976.12,-119.08 1012.18,-97.58"/>
<polygon fill="midnightblue" stroke="midnightblue" points="762.02,-259.4 756.22,-268.27 766.29,-264.95 762.02,-259.4"/>
</g>
<!-- Node16 -->
<g id="node16" class="node">
<title>Node16</title>
<g id="a_node16"><a xlink:href="mmu_8hpp.html" target="_top" xlink:title="This file defines the MMU (memory management unit) of the CPU.">
<polygon fill="none" stroke="black" points="472.5,-201.5 472.5,-231.5 585.5,-231.5 585.5,-201.5 472.5,-201.5"/>
<text text-anchor="start" x="480.5" y="-219.5" font-family="Helvetica,sans-Serif" font-size="10.00">src/core/arm1176jzf</text>
<text text-anchor="middle" x="529" y="-208.5" font-family="Helvetica,sans-Serif" font-size="10.00">_s/mmu/mmu.hpp</text>
</a>
</g>
</g>
<!-- Node1&#45;&gt;Node16 -->
<g id="edge19" class="edge">
<title>Node1&#45;&gt;Node16</title>
<path fill="none" stroke="midnightblue" d="M704.1,-265.73C668.85,-256.02 617.8,-241.96 579.91,-231.52"/>
<polygon fill="midnightblue" stroke="midnightblue" points="703.48,-269.19 714.05,-268.48 705.34,-262.44 703.48,-269.19"/>
</g>
<!-- Node18 -->
<g id="node18" class="node">
<title>Node18</title>
<g id="a_node18"><a xlink:href="bus_8cpp.html" target="_top" xlink:title="This file implements the interface defined in bus.hpp.">
<polygon fill="none" stroke="black" points="900.5,-207 900.5,-226 995.5,-226 995.5,-207 900.5,-207"/>
<text text-anchor="middle" x="948" y="-214" font-family="Helvetica,sans-Serif" font-size="10.00">src/core/bus.cpp</text>
</a>
</g>
</g>
<!-- Node1&#45;&gt;Node18 -->
<g id="edge23" class="edge">
<title>Node1&#45;&gt;Node18</title>
<path fill="none" stroke="midnightblue" d="M783.89,-265.6C823.34,-254.04 883.49,-236.41 918.97,-226.01"/>
<polygon fill="midnightblue" stroke="midnightblue" points="782.7,-262.3 774.08,-268.48 784.67,-269.02 782.7,-262.3"/>
</g>
<!-- Node19 -->
<g id="node19" class="node">
<title>Node19</title>
<g id="a_node19"><a xlink:href="cp10_8hpp.html" target="_top" xlink:title="This file defines coprocessor CP10 (single&#45;precision FPU).">
<polygon fill="none" stroke="black" points="684,-134.5 684,-164.5 806,-164.5 806,-134.5 684,-134.5"/>
<text text-anchor="start" x="692" y="-152.5" font-family="Helvetica,sans-Serif" font-size="10.00">src/core/coprocessors</text>
<text text-anchor="middle" x="745" y="-141.5" font-family="Helvetica,sans-Serif" font-size="10.00">/cp10/cp10.hpp</text>
</a>
</g>
</g>
<!-- Node1&#45;&gt;Node19 -->
<g id="edge24" class="edge">
<title>Node1&#45;&gt;Node19</title>
<path fill="none" stroke="midnightblue" d="M745,-258.11C745,-232.63 745,-187.81 745,-164.89"/>
<polygon fill="midnightblue" stroke="midnightblue" points="741.5,-258.31 745,-268.31 748.5,-258.31 741.5,-258.31"/>
</g>
<!-- Node23 -->
<g id="node23" class="node">
<title>Node23</title>
<g id="a_node23"><a xlink:href="elf__loader_8hpp.html" target="_top" xlink:title="This file defines the functionality of an ELF loader.">
<polygon fill="none" stroke="black" points="972.5,-140 972.5,-159 1099.5,-159 1099.5,-140 972.5,-140"/>
<text text-anchor="middle" x="1036" y="-147" font-family="Helvetica,sans-Serif" font-size="10.00">src/utils/elf_loader.hpp</text>
</a>
</g>
</g>
<!-- Node1&#45;&gt;Node23 -->
<g id="edge32" class="edge">
<title>Node1&#45;&gt;Node23</title>
<path fill="none" stroke="midnightblue" d="M777.73,-264.67C798.39,-256.42 825.35,-244.75 848,-232 868.84,-220.26 870.73,-211.95 892,-201 928.63,-182.14 973.89,-167.56 1003.78,-159.02"/>
<polygon fill="midnightblue" stroke="midnightblue" points="776.17,-261.53 768.14,-268.44 778.73,-268.04 776.17,-261.53"/>
</g>
<!-- Node3 -->
<g id="node3" class="node">
<title>Node3</title>
<g id="a_node3"><a xlink:href="core_8cpp.html" target="_top" xlink:title="This file implements the CCPU_Core class defined in core.hpp.">
<polygon fill="none" stroke="black" points="158.5,-67.5 158.5,-97.5 271.5,-97.5 271.5,-67.5 158.5,-67.5"/>
<text text-anchor="start" x="166.5" y="-85.5" font-family="Helvetica,sans-Serif" font-size="10.00">src/core/arm1176jzf</text>
<text text-anchor="middle" x="215" y="-74.5" font-family="Helvetica,sans-Serif" font-size="10.00">_s/core.cpp</text>
</a>
</g>
</g>
<!-- Node2&#45;&gt;Node3 -->
<g id="edge2" class="edge">
<title>Node2&#45;&gt;Node3</title>
<path fill="none" stroke="midnightblue" d="M351.19,-131.09C321.16,-120.6 283.41,-107.41 255.28,-97.58"/>
<polygon fill="midnightblue" stroke="midnightblue" points="350.05,-134.4 360.64,-134.4 352.36,-127.79 350.05,-134.4"/>
</g>
<!-- Node2&#45;&gt;Node4 -->
<g id="edge3" class="edge">
<title>Node2&#45;&gt;Node4</title>
<path fill="none" stroke="midnightblue" d="M427.8,-128.01C443.58,-115.94 462.72,-101.3 474.63,-92.19"/>
<polygon fill="midnightblue" stroke="midnightblue" points="425.26,-125.54 419.44,-134.4 429.51,-131.1 425.26,-125.54"/>
</g>
<!-- Node8 -->
<g id="node8" class="node">
<title>Node8</title>
<g id="a_node8"><a xlink:href="control__window_8hpp.html" target="_top" xlink:title="This file defines a window that allows the user to control CPU execution.">
<polygon fill="none" stroke="black" points="289.5,-67.5 289.5,-97.5 420.5,-97.5 420.5,-67.5 289.5,-67.5"/>
<text text-anchor="start" x="297.5" y="-85.5" font-family="Helvetica,sans-Serif" font-size="10.00">src/gui/windows/control</text>
<text text-anchor="middle" x="355" y="-74.5" font-family="Helvetica,sans-Serif" font-size="10.00">_window.hpp</text>
</a>
</g>
</g>
<!-- Node2&#45;&gt;Node8 -->
<g id="edge7" class="edge">
<title>Node2&#45;&gt;Node8</title>
<path fill="none" stroke="midnightblue" d="M385.19,-126.16C378.48,-116.68 370.87,-105.92 364.96,-97.58"/>
<polygon fill="midnightblue" stroke="midnightblue" points="382.38,-128.26 391.02,-134.4 388.1,-124.21 382.38,-128.26"/>
</g>
<!-- Node10 -->
<g id="node10" class="node">
<title>Node10</title>
<g id="a_node10"><a xlink:href="registers__window_8hpp.html" target="_top" xlink:title="This file defines a window that displays the contents of all CPU registers.">
<polygon fill="none" stroke="black" points="0,-67.5 0,-97.5 140,-97.5 140,-67.5 0,-67.5"/>
<text text-anchor="start" x="8" y="-85.5" font-family="Helvetica,sans-Serif" font-size="10.00">src/gui/windows/registers</text>
<text text-anchor="middle" x="70" y="-74.5" font-family="Helvetica,sans-Serif" font-size="10.00">_window.hpp</text>
</a>
</g>
</g>
<!-- Node2&#45;&gt;Node10 -->
<g id="edge10" class="edge">
<title>Node2&#45;&gt;Node10</title>
<path fill="none" stroke="midnightblue" d="M334.59,-135.46C278.2,-124.39 197.52,-108.54 140.1,-97.27"/>
<polygon fill="midnightblue" stroke="midnightblue" points="333.99,-138.91 344.48,-137.4 335.34,-132.04 333.99,-138.91"/>
</g>
<!-- Node12 -->
<g id="node12" class="node">
<title>Node12</title>
<g id="a_node12"><a xlink:href="source__code__window_8hpp.html" target="_top" xlink:title="This file defines a window that displays loaded ELF files (disassembled instructions of the source co...">
<polygon fill="none" stroke="black" points="691,-67.5 691,-97.5 821,-97.5 821,-67.5 691,-67.5"/>
<text text-anchor="start" x="699" y="-85.5" font-family="Helvetica,sans-Serif" font-size="10.00">src/gui/windows/source</text>
<text text-anchor="middle" x="756" y="-74.5" font-family="Helvetica,sans-Serif" font-size="10.00">_code_window.hpp</text>
</a>
</g>
</g>
<!-- Node2&#45;&gt;Node12 -->
<g id="edge13" class="edge">
<title>Node2&#45;&gt;Node12</title>
<path fill="none" stroke="midnightblue" d="M467.52,-136.85C524.49,-126.8 608.7,-111.77 682,-98 684.83,-97.47 687.72,-96.92 690.64,-96.36"/>
<polygon fill="midnightblue" stroke="midnightblue" points="466.8,-133.42 457.56,-138.6 468.02,-140.31 466.8,-133.42"/>
</g>
<!-- Node2&#45;&gt;Node14 -->
<g id="edge16" class="edge">
<title>Node2&#45;&gt;Node14</title>
<path fill="none" stroke="midnightblue" d="M467.83,-138.57C480.17,-136.91 492.96,-135.3 505,-134 711.08,-111.68 764.94,-128.31 970,-98 973.02,-97.55 976.1,-97.05 979.21,-96.5"/>
<polygon fill="midnightblue" stroke="midnightblue" points="467.03,-135.14 457.6,-139.97 467.98,-142.08 467.03,-135.14"/>
</g>
<!-- Node5 -->
<g id="node5" class="node">
<title>Node5</title>
<g id="a_node5"><a xlink:href="soc_8cpp.html" target="_top" xlink:title=" ">
<polygon fill="none" stroke="black" points="344.5,-6 344.5,-25 439.5,-25 439.5,-6 344.5,-6"/>
<text text-anchor="middle" x="392" y="-13" font-family="Helvetica,sans-Serif" font-size="10.00">src/core/soc.cpp</text>
</a>
</g>
</g>
<!-- Node4&#45;&gt;Node5 -->
<g id="edge4" class="edge">
<title>Node4&#45;&gt;Node5</title>
<path fill="none" stroke="midnightblue" d="M464.91,-66.92C446.33,-54.07 419.88,-35.78 404.48,-25.13"/>
<polygon fill="midnightblue" stroke="midnightblue" points="463.11,-69.93 473.32,-72.73 467.09,-64.17 463.11,-69.93"/>
</g>
<!-- Node6 -->
<g id="node6" class="node">
<title>Node6</title>
<g id="a_node6"><a xlink:href="gui_8cpp.html" target="_top" xlink:title="This file implements the main GUI entry function that takes care of creating and rendering all window...">
<polygon fill="none" stroke="black" points="554.5,-6 554.5,-25 641.5,-25 641.5,-6 554.5,-6"/>
<text text-anchor="middle" x="598" y="-13" font-family="Helvetica,sans-Serif" font-size="10.00">src/gui/gui.cpp</text>
</a>
</g>
</g>
<!-- Node4&#45;&gt;Node6 -->
<g id="edge5" class="edge">
<title>Node4&#45;&gt;Node6</title>
<path fill="none" stroke="midnightblue" d="M509.92,-67.62C532.11,-54.74 564.44,-35.98 583.13,-25.13"/>
<polygon fill="midnightblue" stroke="midnightblue" points="508,-64.69 501.1,-72.73 511.51,-70.74 508,-64.69"/>
</g>
<!-- Node7 -->
<g id="node7" class="node">
<title>Node7</title>
<g id="a_node7"><a xlink:href="main_8cpp.html" target="_top" xlink:title="This file defines and implements the main function of the application.">
<polygon fill="none" stroke="black" points="457.5,-6 457.5,-25 536.5,-25 536.5,-6 457.5,-6"/>
<text text-anchor="middle" x="497" y="-13" font-family="Helvetica,sans-Serif" font-size="10.00">src/main.cpp</text>
</a>
</g>
</g>
<!-- Node4&#45;&gt;Node7 -->
<g id="edge6" class="edge">
<title>Node4&#45;&gt;Node7</title>
<path fill="none" stroke="midnightblue" d="M489.21,-62.54C491.3,-50.17 493.93,-34.62 495.54,-25.13"/>
<polygon fill="midnightblue" stroke="midnightblue" points="485.7,-62.29 487.48,-72.73 492.6,-63.46 485.7,-62.29"/>
</g>
<!-- Node8&#45;&gt;Node6 -->
<g id="edge8" class="edge">
<title>Node8&#45;&gt;Node6</title>
<path fill="none" stroke="midnightblue" d="M418.39,-64.77C455.34,-54.99 502.83,-42.37 545,-31 552.09,-29.09 559.71,-27.01 566.9,-25.05"/>
<polygon fill="midnightblue" stroke="midnightblue" points="417.03,-61.51 408.26,-67.45 418.82,-68.28 417.03,-61.51"/>
</g>
<!-- Node9 -->
<g id="node9" class="node">
<title>Node9</title>
<g id="a_node9"><a xlink:href="control__window_8cpp.html" target="_top" xlink:title="This file implements a window that allows the user to control CPU execution.">
<polygon fill="none" stroke="black" points="195.5,-0.5 195.5,-30.5 326.5,-30.5 326.5,-0.5 195.5,-0.5"/>
<text text-anchor="start" x="203.5" y="-18.5" font-family="Helvetica,sans-Serif" font-size="10.00">src/gui/windows/control</text>
<text text-anchor="middle" x="261" y="-7.5" font-family="Helvetica,sans-Serif" font-size="10.00">_window.cpp</text>
</a>
</g>
</g>
<!-- Node8&#45;&gt;Node9 -->
<g id="edge9" class="edge">
<title>Node8&#45;&gt;Node9</title>
<path fill="none" stroke="midnightblue" d="M326.01,-61.45C311.55,-51.45 294.41,-39.6 281.36,-30.58"/>
<polygon fill="midnightblue" stroke="midnightblue" points="324.39,-64.59 334.6,-67.4 328.37,-58.83 324.39,-64.59"/>
</g>
<!-- Node10&#45;&gt;Node6 -->
<g id="edge11" class="edge">
<title>Node10&#45;&gt;Node6</title>
<path fill="none" stroke="midnightblue" d="M150.26,-66.92C325.88,-43.73 374.32,-61.86 545,-31 553.35,-29.49 562.31,-27.28 570.43,-25.03"/>
<polygon fill="midnightblue" stroke="midnightblue" points="149.6,-63.48 140.16,-68.28 150.54,-70.41 149.6,-63.48"/>
</g>
<!-- Node11 -->
<g id="node11" class="node">
<title>Node11</title>
<g id="a_node11"><a xlink:href="registers__window_8cpp.html" target="_top" xlink:title="This file implements a window that displays the contents of all CPU registers.">
<polygon fill="none" stroke="black" points="0,-0.5 0,-30.5 140,-30.5 140,-0.5 0,-0.5"/>
<text text-anchor="start" x="8" y="-18.5" font-family="Helvetica,sans-Serif" font-size="10.00">src/gui/windows/registers</text>
<text text-anchor="middle" x="70" y="-7.5" font-family="Helvetica,sans-Serif" font-size="10.00">_window.cpp</text>
</a>
</g>
</g>
<!-- Node10&#45;&gt;Node11 -->
<g id="edge12" class="edge">
<title>Node10&#45;&gt;Node11</title>
<path fill="none" stroke="midnightblue" d="M70,-57.11C70,-48.15 70,-38.32 70,-30.58"/>
<polygon fill="midnightblue" stroke="midnightblue" points="66.5,-57.4 70,-67.4 73.5,-57.4 66.5,-57.4"/>
</g>
<!-- Node12&#45;&gt;Node6 -->
<g id="edge14" class="edge">
<title>Node12&#45;&gt;Node6</title>
<path fill="none" stroke="midnightblue" d="M712.15,-63.46C681.62,-50.9 642.3,-34.72 618.68,-25.01"/>
<polygon fill="midnightblue" stroke="midnightblue" points="711.14,-66.83 721.72,-67.4 713.8,-60.35 711.14,-66.83"/>
</g>
<!-- Node13 -->
<g id="node13" class="node">
<title>Node13</title>
<g id="a_node13"><a xlink:href="source__code__window_8cpp.html" target="_top" xlink:title="This file implements a window that displays loaded ELF files (disassembled instructions of the source...">
<polygon fill="none" stroke="black" points="810,-0.5 810,-30.5 940,-30.5 940,-0.5 810,-0.5"/>
<text text-anchor="start" x="818" y="-18.5" font-family="Helvetica,sans-Serif" font-size="10.00">src/gui/windows/source</text>
<text text-anchor="middle" x="875" y="-7.5" font-family="Helvetica,sans-Serif" font-size="10.00">_code_window.cpp</text>
</a>
</g>
</g>
<!-- Node12&#45;&gt;Node13 -->
<g id="edge15" class="edge">
<title>Node12&#45;&gt;Node13</title>
<path fill="none" stroke="midnightblue" d="M790.65,-62.57C809.37,-52.35 832.09,-39.94 849.23,-30.58"/>
<polygon fill="midnightblue" stroke="midnightblue" points="788.92,-59.53 781.82,-67.4 792.28,-65.67 788.92,-59.53"/>
</g>
<!-- Node14&#45;&gt;Node6 -->
<g id="edge17" class="edge">
<title>Node14&#45;&gt;Node6</title>
<path fill="none" stroke="midnightblue" d="M969.25,-67C827.48,-44.28 787.97,-57.3 651,-31 642.85,-29.43 634.12,-27.26 626.14,-25.07"/>
<polygon fill="midnightblue" stroke="midnightblue" points="968.76,-70.47 979.19,-68.63 969.89,-63.56 968.76,-70.47"/>
</g>
<!-- Node15 -->
<g id="node15" class="node">
<title>Node15</title>
<g id="a_node15"><a xlink:href="top__bar__menu_8cpp.html" target="_top" xlink:title=" ">
<polygon fill="none" stroke="black" points="979.5,-0.5 979.5,-30.5 1092.5,-30.5 1092.5,-0.5 979.5,-0.5"/>
<text text-anchor="start" x="987.5" y="-18.5" font-family="Helvetica,sans-Serif" font-size="10.00">src/gui/windows/top</text>
<text text-anchor="middle" x="1036" y="-7.5" font-family="Helvetica,sans-Serif" font-size="10.00">_bar_menu.cpp</text>
</a>
</g>
</g>
<!-- Node14&#45;&gt;Node15 -->
<g id="edge18" class="edge">
<title>Node14&#45;&gt;Node15</title>
<path fill="none" stroke="midnightblue" d="M1036,-57.11C1036,-48.15 1036,-38.32 1036,-30.58"/>
<polygon fill="midnightblue" stroke="midnightblue" points="1032.5,-57.4 1036,-67.4 1039.5,-57.4 1032.5,-57.4"/>
</g>
<!-- Node16&#45;&gt;Node2 -->
<g id="edge20" class="edge">
<title>Node16&#45;&gt;Node2</title>
<path fill="none" stroke="midnightblue" d="M492.28,-196.85C472.04,-186.58 447.33,-174.03 428.72,-164.58"/>
<polygon fill="midnightblue" stroke="midnightblue" points="490.72,-199.99 501.23,-201.4 493.89,-193.75 490.72,-199.99"/>
</g>
<!-- Node16&#45;&gt;Node4 -->
<g id="edge22" class="edge">
<title>Node16&#45;&gt;Node4</title>
<path fill="none" stroke="midnightblue" d="M516.59,-192.1C512.5,-183.72 508.18,-174.09 505,-165 495.99,-139.22 489.96,-107.35 487.4,-92.24"/>
<polygon fill="midnightblue" stroke="midnightblue" points="513.59,-193.91 521.22,-201.26 519.84,-190.76 513.59,-193.91"/>
</g>
<!-- Node17 -->
<g id="node17" class="node">
<title>Node17</title>
<g id="a_node17"><a xlink:href="mmu_8cpp.html" target="_top" xlink:title="This file implements the MMU (memory management unit) of the CPU.">
<polygon fill="none" stroke="black" points="514.5,-134.5 514.5,-164.5 627.5,-164.5 627.5,-134.5 514.5,-134.5"/>
<text text-anchor="start" x="522.5" y="-152.5" font-family="Helvetica,sans-Serif" font-size="10.00">src/core/arm1176jzf</text>
<text text-anchor="middle" x="571" y="-141.5" font-family="Helvetica,sans-Serif" font-size="10.00">_s/mmu/mmu.cpp</text>
</a>
</g>
</g>
<!-- Node16&#45;&gt;Node17 -->
<g id="edge21" class="edge">
<title>Node16&#45;&gt;Node17</title>
<path fill="none" stroke="midnightblue" d="M543.62,-192.87C549.7,-183.46 556.57,-172.83 561.9,-164.58"/>
<polygon fill="midnightblue" stroke="midnightblue" points="540.6,-191.1 538.11,-201.4 546.48,-194.9 540.6,-191.1"/>
</g>
<!-- Node19&#45;&gt;Node4 -->
<g id="edge26" class="edge">
<title>Node19&#45;&gt;Node4</title>
<path fill="none" stroke="midnightblue" d="M678.63,-131.98C639.2,-122.15 588.24,-109.41 543,-98 535.38,-96.08 527.18,-94 519.45,-92.03"/>
<polygon fill="midnightblue" stroke="midnightblue" points="677.84,-135.39 688.39,-134.41 679.53,-128.6 677.84,-135.39"/>
</g>
<!-- Node20 -->
<g id="node20" class="node">
<title>Node20</title>
<g id="a_node20"><a xlink:href="cp10_8cpp.html" target="_top" xlink:title="This file implements coprocessor CP10 (single&#45;precision FPU).">
<polygon fill="none" stroke="black" points="839,-67.5 839,-97.5 961,-97.5 961,-67.5 839,-67.5"/>
<text text-anchor="start" x="847" y="-85.5" font-family="Helvetica,sans-Serif" font-size="10.00">src/core/coprocessors</text>
<text text-anchor="middle" x="900" y="-74.5" font-family="Helvetica,sans-Serif" font-size="10.00">/cp10/cp10.cpp</text>
</a>
</g>
</g>
<!-- Node19&#45;&gt;Node20 -->
<g id="edge25" class="edge">
<title>Node19&#45;&gt;Node20</title>
<path fill="none" stroke="midnightblue" d="M788.15,-130.41C812.89,-120.03 843.5,-107.2 866.43,-97.58"/>
<polygon fill="midnightblue" stroke="midnightblue" points="786.5,-127.3 778.63,-134.4 789.21,-133.76 786.5,-127.3"/>
</g>
<!-- Node21 -->
<g id="node21" class="node">
<title>Node21</title>
<g id="a_node21"><a xlink:href="cp10__window_8hpp.html" target="_top" xlink:title="This file defines a window that displays data (information) related to coprocessor 10 (FPU).">
<polygon fill="none" stroke="black" points="551.5,-67.5 551.5,-97.5 672.5,-97.5 672.5,-67.5 551.5,-67.5"/>
<text text-anchor="start" x="559.5" y="-85.5" font-family="Helvetica,sans-Serif" font-size="10.00">src/gui/windows/cp10</text>
<text text-anchor="middle" x="612" y="-74.5" font-family="Helvetica,sans-Serif" font-size="10.00">_window.hpp</text>
</a>
</g>
</g>
<!-- Node19&#45;&gt;Node21 -->
<g id="edge27" class="edge">
<title>Node19&#45;&gt;Node21</title>
<path fill="none" stroke="midnightblue" d="M707.13,-129.99C686.05,-119.69 660.22,-107.07 640.8,-97.58"/>
<polygon fill="midnightblue" stroke="midnightblue" points="705.62,-133.15 716.14,-134.4 708.69,-126.86 705.62,-133.15"/>
</g>
<!-- Node21&#45;&gt;Node6 -->
<g id="edge28" class="edge">
<title>Node21&#45;&gt;Node6</title>
<path fill="none" stroke="midnightblue" d="M606.85,-57.6C604.41,-46.28 601.65,-33.46 599.87,-25.19"/>
<polygon fill="midnightblue" stroke="midnightblue" points="603.44,-58.36 608.96,-67.4 610.28,-56.88 603.44,-58.36"/>
</g>
<!-- Node22 -->
<g id="node22" class="node">
<title>Node22</title>
<g id="a_node22"><a xlink:href="cp10__window_8cpp.html" target="_top" xlink:title="This file implements a window that displays data (information) related to coprocessor 10 (FPU).">
<polygon fill="none" stroke="black" points="659.5,-0.5 659.5,-30.5 780.5,-30.5 780.5,-0.5 659.5,-0.5"/>
<text text-anchor="start" x="667.5" y="-18.5" font-family="Helvetica,sans-Serif" font-size="10.00">src/gui/windows/cp10</text>
<text text-anchor="middle" x="720" y="-7.5" font-family="Helvetica,sans-Serif" font-size="10.00">_window.cpp</text>
</a>
</g>
</g>
<!-- Node21&#45;&gt;Node22 -->
<g id="edge29" class="edge">
<title>Node21&#45;&gt;Node22</title>
<path fill="none" stroke="midnightblue" d="M644.37,-62.02C661.18,-51.9 681.34,-39.77 696.61,-30.58"/>
<polygon fill="midnightblue" stroke="midnightblue" points="642.2,-59.24 635.43,-67.4 645.81,-65.24 642.2,-59.24"/>
</g>
<!-- Node23&#45;&gt;Node12 -->
<g id="edge34" class="edge">
<title>Node23&#45;&gt;Node12</title>
<path fill="none" stroke="midnightblue" d="M989.12,-137.62C941.74,-126.62 868.32,-109.58 816.56,-97.56"/>
<polygon fill="midnightblue" stroke="midnightblue" points="988.57,-141.08 999.11,-139.94 990.16,-134.26 988.57,-141.08"/>
</g>
<!-- Node23&#45;&gt;Node13 -->
<g id="edge33" class="edge">
<title>Node23&#45;&gt;Node13</title>
<path fill="none" stroke="midnightblue" d="M1060.74,-134.74C1086.66,-118.56 1121.16,-90.89 1102,-67 1091.77,-54.24 1003.58,-37.41 940.2,-26.77"/>
<polygon fill="midnightblue" stroke="midnightblue" points="1058.81,-131.81 1052.03,-139.96 1062.41,-137.82 1058.81,-131.81"/>
</g>
<!-- Node23&#45;&gt;Node14 -->
<g id="edge35" class="edge">
<title>Node23&#45;&gt;Node14</title>
<path fill="none" stroke="midnightblue" d="M1036,-129.41C1036,-119.22 1036,-106.9 1036,-97.59"/>
<polygon fill="midnightblue" stroke="midnightblue" points="1032.5,-129.73 1036,-139.73 1039.5,-129.73 1032.5,-129.73"/>
</g>
<!-- Node24 -->
<g id="node24" class="node">
<title>Node24</title>
<g id="a_node24"><a xlink:href="elf__loader_8cpp.html" target="_top" xlink:title="This file implements the functionality of an ELF loader defined in elf_loader.hpp.">
<polygon fill="none" stroke="black" points="1149,-73 1149,-92 1275,-92 1275,-73 1149,-73"/>
<text text-anchor="middle" x="1212" y="-80" font-family="Helvetica,sans-Serif" font-size="10.00">src/utils/elf_loader.cpp</text>
</a>
</g>
</g>
<!-- Node23&#45;&gt;Node24 -->
<g id="edge36" class="edge">
<title>Node23&#45;&gt;Node24</title>
<path fill="none" stroke="midnightblue" d="M1069.11,-136.27C1104.04,-123.37 1158.18,-103.38 1188.81,-92.06"/>
<polygon fill="midnightblue" stroke="midnightblue" points="1067.54,-133.12 1059.37,-139.87 1069.96,-139.69 1067.54,-133.12"/>
</g>
</g>
</svg>
