<?xml version="1.0" encoding="UTF-8" standalone="no"?>
<!DOCTYPE svg PUBLIC "-//W3C//DTD SVG 1.1//EN"
 "http://www.w3.org/Graphics/SVG/1.1/DTD/svg11.dtd">
<!-- Generated by graphviz version 2.43.0 (0)
 -->
<!-- Title: src/core/peripherals/external/button.hpp Pages: 1 -->
<svg width="369pt" height="173pt"
 viewBox="0.00 0.00 369.00 173.00" xmlns="http://www.w3.org/2000/svg" xmlns:xlink="http://www.w3.org/1999/xlink">
<g id="graph0" class="graph" transform="scale(1 1) rotate(0) translate(4 169)">
<title>src/core/peripherals/external/button.hpp</title>
<!-- Node1 -->
<g id="node1" class="node">
<title>Node1</title>
<g id="a_node1"><a xlink:title="This file defines an external button that can be hooked up to the system.">
<polygon fill="#bfbfbf" stroke="black" points="76.5,-134.5 76.5,-164.5 192.5,-164.5 192.5,-134.5 76.5,-134.5"/>
<text text-anchor="start" x="84.5" y="-152.5" font-family="Helvetica,sans-Serif" font-size="10.00">src/core/peripherals</text>
<text text-anchor="middle" x="134.5" y="-141.5" font-family="Helvetica,sans-Serif" font-size="10.00">/external/button.hpp</text>
</a>
</g>
</g>
<!-- Node2 -->
<g id="node2" class="node">
<title>Node2</title>
<g id="a_node2"><a xlink:href="button_8cpp.html" target="_top" xlink:title="This file implements an external button that can be hooked up to the system as define in button....">
<polygon fill="none" stroke="black" points="0,-67.5 0,-97.5 115,-97.5 115,-67.5 0,-67.5"/>
<text text-anchor="start" x="8" y="-85.5" font-family="Helvetica,sans-Serif" font-size="10.00">src/core/peripherals</text>
<text text-anchor="middle" x="57.5" y="-74.5" font-family="Helvetica,sans-Serif" font-size="10.00">/external/button.cpp</text>
</a>
</g>
</g>
<!-- Node1&#45;&gt;Node2 -->
<g id="edge1" class="edge">
<title>Node1&#45;&gt;Node2</title>
<path fill="none" stroke="midnightblue" d="M110.08,-127.88C98.38,-118.01 84.66,-106.43 74.18,-97.58"/>
<polygon fill="midnightblue" stroke="midnightblue" points="107.89,-130.62 117.79,-134.4 112.41,-125.27 107.89,-130.62"/>
</g>
<!-- Node3 -->
<g id="node3" class="node">
<title>Node3</title>
<g id="a_node3"><a xlink:href="button__window_8hpp.html" target="_top" xlink:title=" ">
<polygon fill="none" stroke="black" points="133.5,-67.5 133.5,-97.5 291.5,-97.5 291.5,-67.5 133.5,-67.5"/>
<text text-anchor="start" x="141.5" y="-85.5" font-family="Helvetica,sans-Serif" font-size="10.00">src/gui/windows/peripherals</text>
<text text-anchor="middle" x="212.5" y="-74.5" font-family="Helvetica,sans-Serif" font-size="10.00">/external/button_window.hpp</text>
</a>
</g>
</g>
<!-- Node1&#45;&gt;Node3 -->
<g id="edge2" class="edge">
<title>Node1&#45;&gt;Node3</title>
<path fill="none" stroke="midnightblue" d="M159.24,-127.88C171.09,-118.01 184.98,-106.43 195.61,-97.58"/>
<polygon fill="midnightblue" stroke="midnightblue" points="156.87,-125.31 151.42,-134.4 161.35,-130.68 156.87,-125.31"/>
</g>
<!-- Node4 -->
<g id="node4" class="node">
<title>Node4</title>
<g id="a_node4"><a xlink:href="gui_8cpp.html" target="_top" xlink:title=" ">
<polygon fill="none" stroke="black" points="99,-6 99,-25 186,-25 186,-6 99,-6"/>
<text text-anchor="middle" x="142.5" y="-13" font-family="Helvetica,sans-Serif" font-size="10.00">src/gui/gui.cpp</text>
</a>
</g>
</g>
<!-- Node3&#45;&gt;Node4 -->
<g id="edge3" class="edge">
<title>Node3&#45;&gt;Node4</title>
<path fill="none" stroke="midnightblue" d="M189.71,-60.34C176.85,-48.4 161.49,-34.14 151.86,-25.19"/>
<polygon fill="midnightblue" stroke="midnightblue" points="187.6,-63.16 197.31,-67.4 192.36,-58.03 187.6,-63.16"/>
</g>
<!-- Node5 -->
<g id="node5" class="node">
<title>Node5</title>
<g id="a_node5"><a xlink:href="button__window_8cpp.html" target="_top" xlink:title=" ">
<polygon fill="none" stroke="black" points="204,-0.5 204,-30.5 361,-30.5 361,-0.5 204,-0.5"/>
<text text-anchor="start" x="212" y="-18.5" font-family="Helvetica,sans-Serif" font-size="10.00">src/gui/windows/peripherals</text>
<text text-anchor="middle" x="282.5" y="-7.5" font-family="Helvetica,sans-Serif" font-size="10.00">/external/button_window.cpp</text>
</a>
</g>
</g>
<!-- Node3&#45;&gt;Node5 -->
<g id="edge4" class="edge">
<title>Node3&#45;&gt;Node5</title>
<path fill="none" stroke="midnightblue" d="M235.32,-60.31C245.82,-50.56 257.99,-39.26 267.34,-30.58"/>
<polygon fill="midnightblue" stroke="midnightblue" points="232.64,-58.03 227.69,-67.4 237.4,-63.16 232.64,-58.03"/>
</g>
</g>
</svg>
