<?xml version="1.0" encoding="UTF-8" standalone="no"?>
<!DOCTYPE svg PUBLIC "-//W3C//DTD SVG 1.1//EN"
 "http://www.w3.org/Graphics/SVG/1.1/DTD/svg11.dtd">
<!-- Generated by graphviz version 2.43.0 (0)
 -->
<!-- Title: src/gui/windows/peripherals/external/button_window.hpp Pages: 1 -->
<svg width="853pt" height="330pt"
 viewBox="0.00 0.00 852.50 330.00" xmlns="http://www.w3.org/2000/svg" xmlns:xlink="http://www.w3.org/1999/xlink">
<g id="graph0" class="graph" transform="scale(1 1) rotate(0) translate(4 326)">
<title>src/gui/windows/peripherals/external/button_window.hpp</title>
<!-- Node1 -->
<g id="node1" class="node">
<title>Node1</title>
<g id="a_node1"><a xlink:title=" ">
<polygon fill="#bfbfbf" stroke="black" points="69.5,-291.5 69.5,-321.5 227.5,-321.5 227.5,-291.5 69.5,-291.5"/>
<text text-anchor="start" x="77.5" y="-309.5" font-family="Helvetica,sans-Serif" font-size="10.00">src/gui/windows/peripherals</text>
<text text-anchor="middle" x="148.5" y="-298.5" font-family="Helvetica,sans-Serif" font-size="10.00">/external/button_window.hpp</text>
</a>
</g>
</g>
<!-- Node2 -->
<g id="node2" class="node">
<title>Node2</title>
<g id="a_node2"><a xlink:title=" ">
<polygon fill="none" stroke="#bfbfbf" points="100.5,-0.5 100.5,-19.5 158.5,-19.5 158.5,-0.5 100.5,-0.5"/>
<text text-anchor="middle" x="129.5" y="-7.5" font-family="Helvetica,sans-Serif" font-size="10.00">memory</text>
</a>
</g>
</g>
<!-- Node1&#45;&gt;Node2 -->
<g id="edge1" class="edge">
<title>Node1&#45;&gt;Node2</title>
<path fill="none" stroke="midnightblue" d="M144.93,-291.19C139.42,-267.85 129.5,-220.09 129.5,-179 129.5,-179 129.5,-179 129.5,-121 129.5,-88.95 129.5,-51.64 129.5,-29.75"/>
<polygon fill="midnightblue" stroke="midnightblue" points="133,-29.56 129.5,-19.56 126,-29.56 133,-29.56"/>
</g>
<!-- Node3 -->
<g id="node3" class="node">
<title>Node3</title>
<g id="a_node3"><a xlink:href="window_8hpp.html" target="_top" xlink:title=" ">
<polygon fill="none" stroke="black" points="0,-230 0,-249 101,-249 101,-230 0,-230"/>
<text text-anchor="middle" x="50.5" y="-237" font-family="Helvetica,sans-Serif" font-size="10.00">../../../window.hpp</text>
</a>
</g>
</g>
<!-- Node1&#45;&gt;Node3 -->
<g id="edge2" class="edge">
<title>Node1&#45;&gt;Node3</title>
<path fill="none" stroke="midnightblue" d="M127.24,-291.4C110.8,-280.5 88.16,-265.48 71.73,-254.58"/>
<polygon fill="midnightblue" stroke="midnightblue" points="73.59,-251.62 63.33,-249.01 69.72,-257.45 73.59,-251.62"/>
</g>
<!-- Node4 -->
<g id="node4" class="node">
<title>Node4</title>
<g id="a_node4"><a xlink:href="gpio_8hpp.html" target="_top" xlink:title=" ">
<polygon fill="none" stroke="black" points="481,-224.5 481,-254.5 612,-254.5 612,-224.5 481,-224.5"/>
<text text-anchor="start" x="489" y="-242.5" font-family="Helvetica,sans-Serif" font-size="10.00">../../../../core/peripherals</text>
<text text-anchor="middle" x="546.5" y="-231.5" font-family="Helvetica,sans-Serif" font-size="10.00">/gpio.hpp</text>
</a>
</g>
</g>
<!-- Node1&#45;&gt;Node4 -->
<g id="edge4" class="edge">
<title>Node1&#45;&gt;Node4</title>
<path fill="none" stroke="midnightblue" d="M227.61,-292.58C298.26,-281.04 401.07,-264.25 470.7,-252.88"/>
<polygon fill="midnightblue" stroke="midnightblue" points="471.41,-256.31 480.72,-251.24 470.29,-249.4 471.41,-256.31"/>
</g>
<!-- Node14 -->
<g id="node14" class="node">
<title>Node14</title>
<g id="a_node14"><a xlink:href="logger_8hpp.html" target="_top" xlink:title=" ">
<polygon fill="none" stroke="black" points="228.5,-56.5 228.5,-75.5 362.5,-75.5 362.5,-56.5 228.5,-56.5"/>
<text text-anchor="middle" x="295.5" y="-63.5" font-family="Helvetica,sans-Serif" font-size="10.00">../utils/logger/logger.hpp</text>
</a>
</g>
</g>
<!-- Node1&#45;&gt;Node14 -->
<g id="edge29" class="edge">
<title>Node1&#45;&gt;Node14</title>
<path fill="none" stroke="midnightblue" d="M157.26,-291.29C182.71,-250 256.64,-130.05 284.61,-84.67"/>
<polygon fill="midnightblue" stroke="midnightblue" points="287.72,-86.29 289.99,-75.95 281.76,-82.62 287.72,-86.29"/>
</g>
<!-- Node3&#45;&gt;Node2 -->
<g id="edge3" class="edge">
<title>Node3&#45;&gt;Node2</title>
<path fill="none" stroke="midnightblue" d="M53.5,-229.86C65.09,-196.5 107.05,-75.64 123.15,-29.28"/>
<polygon fill="midnightblue" stroke="midnightblue" points="126.52,-30.24 126.5,-19.65 119.91,-27.95 126.52,-30.24"/>
</g>
<!-- Node4&#45;&gt;Node2 -->
<g id="edge6" class="edge">
<title>Node4&#45;&gt;Node2</title>
<path fill="none" stroke="midnightblue" d="M480.86,-230.39C438.75,-223.32 383.86,-210.52 339.5,-188 255.23,-145.22 175.57,-62.58 143.89,-27.45"/>
<polygon fill="midnightblue" stroke="midnightblue" points="146.16,-24.74 136.9,-19.59 140.94,-29.39 146.16,-24.74"/>
</g>
<!-- Node5 -->
<g id="node5" class="node">
<title>Node5</title>
<g id="a_node5"><a xlink:title=" ">
<polygon fill="none" stroke="#bfbfbf" points="530.5,-56.5 530.5,-75.5 572.5,-75.5 572.5,-56.5 530.5,-56.5"/>
<text text-anchor="middle" x="551.5" y="-63.5" font-family="Helvetica,sans-Serif" font-size="10.00">array</text>
</a>
</g>
</g>
<!-- Node4&#45;&gt;Node5 -->
<g id="edge5" class="edge">
<title>Node4&#45;&gt;Node5</title>
<path fill="none" stroke="midnightblue" d="M546.91,-224.47C547.81,-193.7 549.95,-120.33 550.95,-85.7"/>
<polygon fill="midnightblue" stroke="midnightblue" points="554.46,-85.66 551.25,-75.56 547.46,-85.45 554.46,-85.66"/>
</g>
<!-- Node6 -->
<g id="node6" class="node">
<title>Node6</title>
<g id="a_node6"><a xlink:title=" ">
<polygon fill="none" stroke="#bfbfbf" points="574.5,-168.5 574.5,-187.5 618.5,-187.5 618.5,-168.5 574.5,-168.5"/>
<text text-anchor="middle" x="596.5" y="-175.5" font-family="Helvetica,sans-Serif" font-size="10.00">limits</text>
</a>
</g>
</g>
<!-- Node4&#45;&gt;Node6 -->
<g id="edge7" class="edge">
<title>Node4&#45;&gt;Node6</title>
<path fill="none" stroke="midnightblue" d="M558.35,-224.4C565.61,-215.75 574.95,-204.64 582.57,-195.58"/>
<polygon fill="midnightblue" stroke="midnightblue" points="585.47,-197.57 589.22,-187.66 580.11,-193.06 585.47,-197.57"/>
</g>
<!-- Node7 -->
<g id="node7" class="node">
<title>Node7</title>
<g id="a_node7"><a xlink:title=" ">
<polygon fill="none" stroke="#bfbfbf" points="675,-168.5 675,-187.5 740,-187.5 740,-168.5 675,-168.5"/>
<text text-anchor="middle" x="707.5" y="-175.5" font-family="Helvetica,sans-Serif" font-size="10.00">functional</text>
</a>
</g>
</g>
<!-- Node4&#45;&gt;Node7 -->
<g id="edge8" class="edge">
<title>Node4&#45;&gt;Node7</title>
<path fill="none" stroke="midnightblue" d="M584.65,-224.4C612.03,-214.28 648.54,-200.79 674.63,-191.15"/>
<polygon fill="midnightblue" stroke="midnightblue" points="675.91,-194.41 684.07,-187.66 673.48,-187.84 675.91,-194.41"/>
</g>
<!-- Node8 -->
<g id="node8" class="node">
<title>Node8</title>
<g id="a_node8"><a xlink:title=" ">
<polygon fill="none" stroke="#bfbfbf" points="758.5,-168.5 758.5,-187.5 844.5,-187.5 844.5,-168.5 758.5,-168.5"/>
<text text-anchor="middle" x="801.5" y="-175.5" font-family="Helvetica,sans-Serif" font-size="10.00">unordered_set</text>
</a>
</g>
</g>
<!-- Node4&#45;&gt;Node8 -->
<g id="edge9" class="edge">
<title>Node4&#45;&gt;Node8</title>
<path fill="none" stroke="midnightblue" d="M606.61,-224.47C652.04,-213.87 713.5,-199.53 755.16,-189.81"/>
<polygon fill="midnightblue" stroke="midnightblue" points="756.1,-193.19 765.04,-187.51 754.51,-186.37 756.1,-193.19"/>
</g>
<!-- Node9 -->
<g id="node9" class="node">
<title>Node9</title>
<g id="a_node9"><a xlink:href="peripheral_8hpp.html" target="_top" xlink:title=" ">
<polygon fill="none" stroke="black" points="603,-112.5 603,-131.5 690,-131.5 690,-112.5 603,-112.5"/>
<text text-anchor="middle" x="646.5" y="-119.5" font-family="Helvetica,sans-Serif" font-size="10.00">peripheral.hpp</text>
</a>
</g>
</g>
<!-- Node4&#45;&gt;Node9 -->
<g id="edge10" class="edge">
<title>Node4&#45;&gt;Node9</title>
<path fill="none" stroke="midnightblue" d="M580.62,-224.3C596.93,-215.93 615.48,-203.84 627.5,-188 637.7,-174.55 642.44,-155.73 644.63,-141.81"/>
<polygon fill="midnightblue" stroke="midnightblue" points="648.1,-142.24 645.9,-131.88 641.16,-141.36 648.1,-142.24"/>
</g>
<!-- Node11 -->
<g id="node11" class="node">
<title>Node11</title>
<g id="a_node11"><a xlink:href="interrupt__controller_8hpp.html" target="_top" xlink:title=" ">
<polygon fill="none" stroke="black" points="377,-168.5 377,-187.5 508,-187.5 508,-168.5 377,-168.5"/>
<text text-anchor="middle" x="442.5" y="-175.5" font-family="Helvetica,sans-Serif" font-size="10.00">interrupt_controller.hpp</text>
</a>
</g>
</g>
<!-- Node4&#45;&gt;Node11 -->
<g id="edge12" class="edge">
<title>Node4&#45;&gt;Node11</title>
<path fill="none" stroke="midnightblue" d="M521.85,-224.4C505.18,-214.86 483.27,-202.32 466.69,-192.84"/>
<polygon fill="midnightblue" stroke="midnightblue" points="468.05,-189.59 457.63,-187.66 464.57,-195.66 468.05,-189.59"/>
</g>
<!-- Node4&#45;&gt;Node14 -->
<g id="edge28" class="edge">
<title>Node4&#45;&gt;Node14</title>
<path fill="none" stroke="midnightblue" d="M481,-229.52C445.33,-222.38 401.65,-209.82 367.5,-188 339.88,-170.35 336.1,-160.26 319.5,-132 310.93,-117.41 304.53,-99.24 300.51,-85.82"/>
<polygon fill="midnightblue" stroke="midnightblue" points="303.78,-84.52 297.69,-75.85 297.04,-86.42 303.78,-84.52"/>
</g>
<!-- Node10 -->
<g id="node10" class="node">
<title>Node10</title>
<g id="a_node10"><a xlink:title=" ">
<polygon fill="none" stroke="#bfbfbf" points="510.5,-0.5 510.5,-19.5 560.5,-19.5 560.5,-0.5 510.5,-0.5"/>
<text text-anchor="middle" x="535.5" y="-7.5" font-family="Helvetica,sans-Serif" font-size="10.00">cstdint</text>
</a>
</g>
</g>
<!-- Node9&#45;&gt;Node10 -->
<g id="edge11" class="edge">
<title>Node9&#45;&gt;Node10</title>
<path fill="none" stroke="midnightblue" d="M637.7,-112.14C625.23,-99.6 601.7,-75.98 581.5,-56 571.65,-46.26 560.54,-35.39 551.72,-26.78"/>
<polygon fill="midnightblue" stroke="midnightblue" points="553.95,-24.07 544.35,-19.6 549.07,-29.08 553.95,-24.07"/>
</g>
<!-- Node11&#45;&gt;Node5 -->
<g id="edge13" class="edge">
<title>Node11&#45;&gt;Node5</title>
<path fill="none" stroke="midnightblue" d="M463.05,-168.46C479.42,-160.83 502.08,-148.35 517.5,-132 530.17,-118.56 539.4,-99.49 545.02,-85.48"/>
<polygon fill="midnightblue" stroke="midnightblue" points="548.36,-86.52 548.61,-75.93 541.81,-84.06 548.36,-86.52"/>
</g>
<!-- Node11&#45;&gt;Node9 -->
<g id="edge15" class="edge">
<title>Node11&#45;&gt;Node9</title>
<path fill="none" stroke="midnightblue" d="M474.82,-168.44C509.89,-159.16 566,-144.31 604.46,-134.13"/>
<polygon fill="midnightblue" stroke="midnightblue" points="605.56,-137.46 614.33,-131.52 603.76,-130.69 605.56,-137.46"/>
</g>
<!-- Node12 -->
<g id="node12" class="node">
<title>Node12</title>
<g id="a_node12"><a xlink:title=" ">
<polygon fill="none" stroke="#bfbfbf" points="381,-56.5 381,-75.5 474,-75.5 474,-56.5 381,-56.5"/>
<text text-anchor="middle" x="427.5" y="-63.5" font-family="Helvetica,sans-Serif" font-size="10.00">unordered_map</text>
</a>
</g>
</g>
<!-- Node11&#45;&gt;Node12 -->
<g id="edge14" class="edge">
<title>Node11&#45;&gt;Node12</title>
<path fill="none" stroke="midnightblue" d="M401.45,-168.38C381.54,-161.92 359.41,-150.81 347.5,-132 333.03,-109.14 363.55,-90.61 390.97,-79.27"/>
<polygon fill="midnightblue" stroke="midnightblue" points="392.42,-82.46 400.46,-75.56 389.87,-75.94 392.42,-82.46"/>
</g>
<!-- Node13 -->
<g id="node13" class="node">
<title>Node13</title>
<g id="a_node13"><a xlink:href="context_8hpp.html" target="_top" xlink:title=" ">
<polygon fill="none" stroke="black" points="356.5,-112.5 356.5,-131.5 508.5,-131.5 508.5,-112.5 356.5,-112.5"/>
<text text-anchor="middle" x="432.5" y="-119.5" font-family="Helvetica,sans-Serif" font-size="10.00">../arm1176jzf_s/context.hpp</text>
</a>
</g>
</g>
<!-- Node11&#45;&gt;Node13 -->
<g id="edge16" class="edge">
<title>Node11&#45;&gt;Node13</title>
<path fill="none" stroke="midnightblue" d="M440.85,-168.08C439.52,-160.93 437.62,-150.64 435.96,-141.69"/>
<polygon fill="midnightblue" stroke="midnightblue" points="439.38,-140.95 434.12,-131.75 432.5,-142.22 439.38,-140.95"/>
</g>
<!-- Node11&#45;&gt;Node14 -->
<g id="edge27" class="edge">
<title>Node11&#45;&gt;Node14</title>
<path fill="none" stroke="midnightblue" d="M411.98,-168.44C390.35,-161.27 361.54,-149.38 340.5,-132 324.68,-118.93 311.99,-98.96 304.17,-84.6"/>
<polygon fill="midnightblue" stroke="midnightblue" points="307.27,-82.98 299.56,-75.72 301.06,-86.2 307.27,-82.98"/>
</g>
<!-- Node13&#45;&gt;Node5 -->
<g id="edge17" class="edge">
<title>Node13&#45;&gt;Node5</title>
<path fill="none" stroke="midnightblue" d="M451.36,-112.44C470.77,-103.64 501.23,-89.81 523.46,-79.72"/>
<polygon fill="midnightblue" stroke="midnightblue" points="525.07,-82.84 532.73,-75.52 522.18,-76.46 525.07,-82.84"/>
</g>
<!-- Node13&#45;&gt;Node10 -->
<g id="edge18" class="edge">
<title>Node13&#45;&gt;Node10</title>
<path fill="none" stroke="midnightblue" d="M443.54,-112.2C454.22,-103.48 470.63,-89.51 483.5,-76 498.08,-60.7 512.97,-41.67 523.06,-28.16"/>
<polygon fill="midnightblue" stroke="midnightblue" points="526.1,-29.93 529.22,-19.81 520.47,-25.78 526.1,-29.93"/>
</g>
<!-- Node13&#45;&gt;Node12 -->
<g id="edge19" class="edge">
<title>Node13&#45;&gt;Node12</title>
<path fill="none" stroke="midnightblue" d="M431.67,-112.08C431.02,-105.01 430.08,-94.86 429.26,-85.99"/>
<polygon fill="midnightblue" stroke="midnightblue" points="432.72,-85.39 428.31,-75.75 425.75,-86.03 432.72,-85.39"/>
</g>
<!-- Node13&#45;&gt;Node14 -->
<g id="edge20" class="edge">
<title>Node13&#45;&gt;Node14</title>
<path fill="none" stroke="midnightblue" d="M410.79,-112.44C388.15,-103.52 352.43,-89.44 326.75,-79.32"/>
<polygon fill="midnightblue" stroke="midnightblue" points="327.69,-75.93 317.11,-75.52 325.13,-82.44 327.69,-75.93"/>
</g>
<!-- Node14&#45;&gt;Node2 -->
<g id="edge23" class="edge">
<title>Node14&#45;&gt;Node2</title>
<path fill="none" stroke="midnightblue" d="M269.2,-56.44C241.15,-47.32 196.56,-32.81 165.32,-22.65"/>
<polygon fill="midnightblue" stroke="midnightblue" points="166.27,-19.28 155.68,-19.52 164.11,-25.94 166.27,-19.28"/>
</g>
<!-- Node14&#45;&gt;Node10 -->
<g id="edge24" class="edge">
<title>Node14&#45;&gt;Node10</title>
<path fill="none" stroke="midnightblue" d="M337.05,-56.48C376.63,-48.24 438.1,-35.12 500.3,-20.21"/>
<polygon fill="midnightblue" stroke="midnightblue" points="501.38,-23.55 510.28,-17.81 499.74,-16.75 501.38,-23.55"/>
</g>
<!-- Node15 -->
<g id="node15" class="node">
<title>Node15</title>
<g id="a_node15"><a xlink:title=" ">
<polygon fill="none" stroke="#bfbfbf" points="176.5,-0.5 176.5,-19.5 224.5,-19.5 224.5,-0.5 176.5,-0.5"/>
<text text-anchor="middle" x="200.5" y="-7.5" font-family="Helvetica,sans-Serif" font-size="10.00">mutex</text>
</a>
</g>
</g>
<!-- Node14&#45;&gt;Node15 -->
<g id="edge21" class="edge">
<title>Node14&#45;&gt;Node15</title>
<path fill="none" stroke="midnightblue" d="M280.24,-56.32C265.28,-47.82 242.25,-34.73 224.77,-24.8"/>
<polygon fill="midnightblue" stroke="midnightblue" points="226.15,-21.55 215.73,-19.65 222.69,-27.64 226.15,-21.55"/>
</g>
<!-- Node16 -->
<g id="node16" class="node">
<title>Node16</title>
<g id="a_node16"><a xlink:title=" ">
<polygon fill="none" stroke="#bfbfbf" points="243,-0.5 243,-19.5 290,-19.5 290,-0.5 243,-0.5"/>
<text text-anchor="middle" x="266.5" y="-7.5" font-family="Helvetica,sans-Serif" font-size="10.00">vector</text>
</a>
</g>
</g>
<!-- Node14&#45;&gt;Node16 -->
<g id="edge22" class="edge">
<title>Node14&#45;&gt;Node16</title>
<path fill="none" stroke="midnightblue" d="M290.71,-56.08C286.74,-48.69 280.97,-37.95 276.07,-28.81"/>
<polygon fill="midnightblue" stroke="midnightblue" points="279.01,-26.91 271.2,-19.75 272.85,-30.22 279.01,-26.91"/>
</g>
<!-- Node17 -->
<g id="node17" class="node">
<title>Node17</title>
<g id="a_node17"><a xlink:title=" ">
<polygon fill="none" stroke="#bfbfbf" points="308,-0.5 308,-19.5 381,-19.5 381,-0.5 308,-0.5"/>
<text text-anchor="middle" x="344.5" y="-7.5" font-family="Helvetica,sans-Serif" font-size="10.00">string_view</text>
</a>
</g>
</g>
<!-- Node14&#45;&gt;Node17 -->
<g id="edge25" class="edge">
<title>Node14&#45;&gt;Node17</title>
<path fill="none" stroke="midnightblue" d="M303.59,-56.08C310.66,-48.3 321.09,-36.8 329.65,-27.37"/>
<polygon fill="midnightblue" stroke="midnightblue" points="332.43,-29.51 336.56,-19.75 327.25,-24.8 332.43,-29.51"/>
</g>
<!-- Node18 -->
<g id="node18" class="node">
<title>Node18</title>
<g id="a_node18"><a xlink:title=" ">
<polygon fill="none" stroke="#bfbfbf" points="399,-0.5 399,-19.5 492,-19.5 492,-0.5 399,-0.5"/>
<text text-anchor="middle" x="445.5" y="-7.5" font-family="Helvetica,sans-Serif" font-size="10.00">source_location</text>
</a>
</g>
</g>
<!-- Node14&#45;&gt;Node18 -->
<g id="edge26" class="edge">
<title>Node14&#45;&gt;Node18</title>
<path fill="none" stroke="midnightblue" d="M319.27,-56.44C344.39,-47.4 384.21,-33.06 412.4,-22.92"/>
<polygon fill="midnightblue" stroke="midnightblue" points="413.62,-26.2 421.84,-19.52 411.25,-19.61 413.62,-26.2"/>
</g>
</g>
</svg>
