<?xml version="1.0" encoding="UTF-8" standalone="no"?>
<!DOCTYPE svg PUBLIC "-//W3C//DTD SVG 1.1//EN"
 "http://www.w3.org/Graphics/SVG/1.1/DTD/svg11.dtd">
<!-- Generated by graphviz version 2.43.0 (0)
 -->
<!-- Title: src/core/coprocessors/cp15/c1.cpp Pages: 1 -->
<svg width="168pt" height="263pt"
 viewBox="0.00 0.00 167.50 263.00" xmlns="http://www.w3.org/2000/svg" xmlns:xlink="http://www.w3.org/1999/xlink">
<g id="graph0" class="graph" transform="scale(1 1) rotate(0) translate(4 259)">
<title>src/core/coprocessors/cp15/c1.cpp</title>
<!-- Node1 -->
<g id="node1" class="node">
<title>Node1</title>
<g id="a_node1"><a xlink:title="This file implements the primary register C1 of coprocessor CP15.">
<polygon fill="#bfbfbf" stroke="black" points="25.5,-224.5 25.5,-254.5 147.5,-254.5 147.5,-224.5 25.5,-224.5"/>
<text text-anchor="start" x="33.5" y="-242.5" font-family="Helvetica,sans-Serif" font-size="10.00">src/core/coprocessors</text>
<text text-anchor="middle" x="86.5" y="-231.5" font-family="Helvetica,sans-Serif" font-size="10.00">/cp15/c1.cpp</text>
</a>
</g>
</g>
<!-- Node2 -->
<g id="node2" class="node">
<title>Node2</title>
<g id="a_node2"><a xlink:href="c1_8hpp.html" target="_top" xlink:title="This file defines the primary register C1 of coprocessor CP15.">
<polygon fill="none" stroke="black" points="62,-168.5 62,-187.5 111,-187.5 111,-168.5 62,-168.5"/>
<text text-anchor="middle" x="86.5" y="-175.5" font-family="Helvetica,sans-Serif" font-size="10.00">c1.hpp</text>
</a>
</g>
</g>
<!-- Node1&#45;&gt;Node2 -->
<g id="edge1" class="edge">
<title>Node1&#45;&gt;Node2</title>
<path fill="none" stroke="midnightblue" d="M86.5,-224.4C86.5,-216.47 86.5,-206.46 86.5,-197.86"/>
<polygon fill="midnightblue" stroke="midnightblue" points="90,-197.66 86.5,-187.66 83,-197.66 90,-197.66"/>
</g>
<!-- Node3 -->
<g id="node3" class="node">
<title>Node3</title>
<g id="a_node3"><a xlink:href="primary__reg_8hpp.html" target="_top" xlink:title="This file defines a primary register interface of coprocessor CP15.">
<polygon fill="none" stroke="black" points="0,-112.5 0,-131.5 97,-131.5 97,-112.5 0,-112.5"/>
<text text-anchor="middle" x="48.5" y="-119.5" font-family="Helvetica,sans-Serif" font-size="10.00">primary_reg.hpp</text>
</a>
</g>
</g>
<!-- Node2&#45;&gt;Node3 -->
<g id="edge2" class="edge">
<title>Node2&#45;&gt;Node3</title>
<path fill="none" stroke="midnightblue" d="M80.23,-168.08C74.86,-160.46 66.98,-149.26 60.42,-139.94"/>
<polygon fill="midnightblue" stroke="midnightblue" points="63.28,-137.91 54.66,-131.75 57.55,-141.94 63.28,-137.91"/>
</g>
<!-- Node4 -->
<g id="node4" class="node">
<title>Node4</title>
<g id="a_node4"><a xlink:href="logger_8hpp.html" target="_top" xlink:title="This file defines a general logger interface as well as a logging system that is used in the project.">
<polygon fill="none" stroke="black" points="13.5,-56.5 13.5,-75.5 159.5,-75.5 159.5,-56.5 13.5,-56.5"/>
<text text-anchor="middle" x="86.5" y="-63.5" font-family="Helvetica,sans-Serif" font-size="10.00">zero_mate/utils/logger.hpp</text>
</a>
</g>
</g>
<!-- Node2&#45;&gt;Node4 -->
<g id="edge5" class="edge">
<title>Node2&#45;&gt;Node4</title>
<path fill="none" stroke="midnightblue" d="M91.87,-168.29C98.84,-155.92 109.65,-132.51 105.5,-112 103.61,-102.65 99.71,-92.83 95.93,-84.75"/>
<polygon fill="midnightblue" stroke="midnightblue" points="98.97,-83.01 91.38,-75.63 92.71,-86.14 98.97,-83.01"/>
</g>
<!-- Node3&#45;&gt;Node4 -->
<g id="edge3" class="edge">
<title>Node3&#45;&gt;Node4</title>
<path fill="none" stroke="midnightblue" d="M54.77,-112.08C60.14,-104.46 68.02,-93.26 74.58,-83.94"/>
<polygon fill="midnightblue" stroke="midnightblue" points="77.45,-85.94 80.34,-75.75 71.72,-81.91 77.45,-85.94"/>
</g>
<!-- Node5 -->
<g id="node5" class="node">
<title>Node5</title>
<g id="a_node5"><a xlink:href="api__export_8hpp.html" target="_top" xlink:title="This file defines macros for exporting symbols out of a shared library.">
<polygon fill="none" stroke="black" points="14.5,-0.5 14.5,-19.5 158.5,-19.5 158.5,-0.5 14.5,-0.5"/>
<text text-anchor="middle" x="86.5" y="-7.5" font-family="Helvetica,sans-Serif" font-size="10.00">zero_mate/api_export.hpp</text>
</a>
</g>
</g>
<!-- Node4&#45;&gt;Node5 -->
<g id="edge4" class="edge">
<title>Node4&#45;&gt;Node5</title>
<path fill="none" stroke="midnightblue" d="M86.5,-56.08C86.5,-49.01 86.5,-38.86 86.5,-29.99"/>
<polygon fill="midnightblue" stroke="midnightblue" points="90,-29.75 86.5,-19.75 83,-29.75 90,-29.75"/>
</g>
</g>
</svg>
