<?xml version="1.0" encoding="UTF-8" standalone="no"?>
<!DOCTYPE svg PUBLIC "-//W3C//DTD SVG 1.1//EN"
 "http://www.w3.org/Graphics/SVG/1.1/DTD/svg11.dtd">
<!-- Generated by graphviz version 2.43.0 (0)
 -->
<!-- Title: src/core/coprocessors/cp15/c1.cpp Pages: 1 -->
<svg width="168pt" height="207pt"
 viewBox="0.00 0.00 167.50 207.00" xmlns="http://www.w3.org/2000/svg" xmlns:xlink="http://www.w3.org/1999/xlink">
<g id="graph0" class="graph" transform="scale(1 1) rotate(0) translate(4 203)">
<title>src/core/coprocessors/cp15/c1.cpp</title>
<!-- Node1 -->
<g id="node1" class="node">
<title>Node1</title>
<g id="a_node1"><a xlink:title="This file implements the primary register C1 of coprocessor CP15.">
<polygon fill="#bfbfbf" stroke="black" points="25.5,-168.5 25.5,-198.5 147.5,-198.5 147.5,-168.5 25.5,-168.5"/>
<text text-anchor="start" x="33.5" y="-186.5" font-family="Helvetica,sans-Serif" font-size="10.00">src/core/coprocessors</text>
<text text-anchor="middle" x="86.5" y="-175.5" font-family="Helvetica,sans-Serif" font-size="10.00">/cp15/c1.cpp</text>
</a>
</g>
</g>
<!-- Node2 -->
<g id="node2" class="node">
<title>Node2</title>
<g id="a_node2"><a xlink:href="c1_8hpp.html" target="_top" xlink:title="This file defines the primary register C1 of coprocessor CP15.">
<polygon fill="none" stroke="black" points="62,-112.5 62,-131.5 111,-131.5 111,-112.5 62,-112.5"/>
<text text-anchor="middle" x="86.5" y="-119.5" font-family="Helvetica,sans-Serif" font-size="10.00">c1.hpp</text>
</a>
</g>
</g>
<!-- Node1&#45;&gt;Node2 -->
<g id="edge1" class="edge">
<title>Node1&#45;&gt;Node2</title>
<path fill="none" stroke="midnightblue" d="M86.5,-168.4C86.5,-160.47 86.5,-150.46 86.5,-141.86"/>
<polygon fill="midnightblue" stroke="midnightblue" points="90,-141.66 86.5,-131.66 83,-141.66 90,-141.66"/>
</g>
<!-- Node3 -->
<g id="node3" class="node">
<title>Node3</title>
<g id="a_node3"><a xlink:href="primary__reg_8hpp.html" target="_top" xlink:title="This file defines a primary register interface of coprocessor CP15.">
<polygon fill="none" stroke="black" points="0,-56.5 0,-75.5 97,-75.5 97,-56.5 0,-56.5"/>
<text text-anchor="middle" x="48.5" y="-63.5" font-family="Helvetica,sans-Serif" font-size="10.00">primary_reg.hpp</text>
</a>
</g>
</g>
<!-- Node2&#45;&gt;Node3 -->
<g id="edge2" class="edge">
<title>Node2&#45;&gt;Node3</title>
<path fill="none" stroke="midnightblue" d="M80.23,-112.08C74.86,-104.46 66.98,-93.26 60.42,-83.94"/>
<polygon fill="midnightblue" stroke="midnightblue" points="63.28,-81.91 54.66,-75.75 57.55,-85.94 63.28,-81.91"/>
</g>
<!-- Node4 -->
<g id="node4" class="node">
<title>Node4</title>
<g id="a_node4"><a xlink:href="logger_8hpp.html" target="_top" xlink:title="This file defines a general logger interface as well as a logging system that is used in the project.">
<polygon fill="none" stroke="black" points="13.5,-0.5 13.5,-19.5 159.5,-19.5 159.5,-0.5 13.5,-0.5"/>
<text text-anchor="middle" x="86.5" y="-7.5" font-family="Helvetica,sans-Serif" font-size="10.00">zero_mate/utils/logger.hpp</text>
</a>
</g>
</g>
<!-- Node2&#45;&gt;Node4 -->
<g id="edge4" class="edge">
<title>Node2&#45;&gt;Node4</title>
<path fill="none" stroke="midnightblue" d="M91.87,-112.29C98.84,-99.92 109.65,-76.51 105.5,-56 103.61,-46.65 99.71,-36.83 95.93,-28.75"/>
<polygon fill="midnightblue" stroke="midnightblue" points="98.97,-27.01 91.38,-19.63 92.71,-30.14 98.97,-27.01"/>
</g>
<!-- Node3&#45;&gt;Node4 -->
<g id="edge3" class="edge">
<title>Node3&#45;&gt;Node4</title>
<path fill="none" stroke="midnightblue" d="M54.77,-56.08C60.14,-48.46 68.02,-37.26 74.58,-27.94"/>
<polygon fill="midnightblue" stroke="midnightblue" points="77.45,-29.94 80.34,-19.75 71.72,-25.91 77.45,-29.94"/>
</g>
</g>
</svg>
