<?xml version="1.0" encoding="UTF-8" standalone="no"?>
<!DOCTYPE svg PUBLIC "-//W3C//DTD SVG 1.1//EN"
 "http://www.w3.org/Graphics/SVG/1.1/DTD/svg11.dtd">
<!-- Generated by graphviz version 2.43.0 (0)
 -->
<!-- Title: src/core/coprocessors/cp15/c7.hpp Pages: 1 -->
<svg width="1233pt" height="441pt"
 viewBox="0.00 0.00 1233.00 441.00" xmlns="http://www.w3.org/2000/svg" xmlns:xlink="http://www.w3.org/1999/xlink">
<g id="graph0" class="graph" transform="scale(1 1) rotate(0) translate(4 437)">
<title>src/core/coprocessors/cp15/c7.hpp</title>
<!-- Node1 -->
<g id="node1" class="node">
<title>Node1</title>
<g id="a_node1"><a xlink:title="This file defines the primary register C7 of coprocessor CP15.">
<polygon fill="#bfbfbf" stroke="black" points="415.5,-402.5 415.5,-432.5 537.5,-432.5 537.5,-402.5 415.5,-402.5"/>
<text text-anchor="start" x="423.5" y="-420.5" font-family="Helvetica,sans-Serif" font-size="10.00">src/core/coprocessors</text>
<text text-anchor="middle" x="476.5" y="-409.5" font-family="Helvetica,sans-Serif" font-size="10.00">/cp15/c7.hpp</text>
</a>
</g>
</g>
<!-- Node2 -->
<g id="node2" class="node">
<title>Node2</title>
<g id="a_node2"><a xlink:href="c7_8cpp.html" target="_top" xlink:title="This file implements the primary register C7 of coprocessor CP15.">
<polygon fill="none" stroke="black" points="345.5,-335.5 345.5,-365.5 467.5,-365.5 467.5,-335.5 345.5,-335.5"/>
<text text-anchor="start" x="353.5" y="-353.5" font-family="Helvetica,sans-Serif" font-size="10.00">src/core/coprocessors</text>
<text text-anchor="middle" x="406.5" y="-342.5" font-family="Helvetica,sans-Serif" font-size="10.00">/cp15/c7.cpp</text>
</a>
</g>
</g>
<!-- Node1&#45;&gt;Node2 -->
<g id="edge1" class="edge">
<title>Node1&#45;&gt;Node2</title>
<path fill="none" stroke="midnightblue" d="M453.68,-395.31C443.18,-385.56 431.01,-374.26 421.66,-365.58"/>
<polygon fill="midnightblue" stroke="midnightblue" points="451.6,-398.16 461.31,-402.4 456.36,-393.03 451.6,-398.16"/>
</g>
<!-- Node3 -->
<g id="node3" class="node">
<title>Node3</title>
<g id="a_node3"><a xlink:href="cp15_8hpp.html" target="_top" xlink:title="This file defines coprocessor CP15.">
<polygon fill="none" stroke="black" points="485.5,-335.5 485.5,-365.5 607.5,-365.5 607.5,-335.5 485.5,-335.5"/>
<text text-anchor="start" x="493.5" y="-353.5" font-family="Helvetica,sans-Serif" font-size="10.00">src/core/coprocessors</text>
<text text-anchor="middle" x="546.5" y="-342.5" font-family="Helvetica,sans-Serif" font-size="10.00">/cp15/cp15.hpp</text>
</a>
</g>
</g>
<!-- Node1&#45;&gt;Node3 -->
<g id="edge2" class="edge">
<title>Node1&#45;&gt;Node3</title>
<path fill="none" stroke="midnightblue" d="M499.32,-395.31C509.82,-385.56 521.99,-374.26 531.34,-365.58"/>
<polygon fill="midnightblue" stroke="midnightblue" points="496.64,-393.03 491.69,-402.4 501.4,-398.16 496.64,-393.03"/>
</g>
<!-- Node4 -->
<g id="node4" class="node">
<title>Node4</title>
<g id="a_node4"><a xlink:href="mmu_8hpp.html" target="_top" xlink:title="This file defines the MMU (memory management unit) of the CPU.">
<polygon fill="none" stroke="black" points="286,-201.5 286,-231.5 399,-231.5 399,-201.5 286,-201.5"/>
<text text-anchor="start" x="294" y="-219.5" font-family="Helvetica,sans-Serif" font-size="10.00">src/core/arm1176jzf</text>
<text text-anchor="middle" x="342.5" y="-208.5" font-family="Helvetica,sans-Serif" font-size="10.00">_s/mmu/mmu.hpp</text>
</a>
</g>
</g>
<!-- Node3&#45;&gt;Node4 -->
<g id="edge3" class="edge">
<title>Node3&#45;&gt;Node4</title>
<path fill="none" stroke="midnightblue" d="M516.04,-329.79C474.38,-302.84 400.65,-255.13 364.17,-231.52"/>
<polygon fill="midnightblue" stroke="midnightblue" points="514.37,-332.88 524.67,-335.37 518.17,-327 514.37,-332.88"/>
</g>
<!-- Node7 -->
<g id="node7" class="node">
<title>Node7</title>
<g id="a_node7"><a xlink:href="soc_8hpp.html" target="_top" xlink:title=" ">
<polygon fill="none" stroke="black" points="52,-73 52,-92 147,-92 147,-73 52,-73"/>
<text text-anchor="middle" x="99.5" y="-80" font-family="Helvetica,sans-Serif" font-size="10.00">src/core/soc.hpp</text>
</a>
</g>
</g>
<!-- Node3&#45;&gt;Node7 -->
<g id="edge36" class="edge">
<title>Node3&#45;&gt;Node7</title>
<path fill="none" stroke="midnightblue" d="M500.99,-331.73C477.19,-322.29 447.65,-310.31 421.5,-299 356.35,-270.81 337.02,-269.12 276.5,-232 235.5,-206.85 228.41,-195.85 191.5,-165 160.56,-139.14 125.16,-107.04 108.75,-92.01"/>
<polygon fill="midnightblue" stroke="midnightblue" points="499.89,-335.06 510.48,-335.49 502.46,-328.55 499.89,-335.06"/>
</g>
<!-- Node20 -->
<g id="node20" class="node">
<title>Node20</title>
<g id="a_node20"><a xlink:href="bus_8hpp.html" target="_top" xlink:title="This file defines an interface the CPU uses to access different memory&#45;mapped peripherals.">
<polygon fill="none" stroke="black" points="498.5,-274 498.5,-293 594.5,-293 594.5,-274 498.5,-274"/>
<text text-anchor="middle" x="546.5" y="-281" font-family="Helvetica,sans-Serif" font-size="10.00">src/core/bus.hpp</text>
</a>
</g>
</g>
<!-- Node3&#45;&gt;Node20 -->
<g id="edge24" class="edge">
<title>Node3&#45;&gt;Node20</title>
<path fill="none" stroke="midnightblue" d="M546.5,-325.25C546.5,-314.02 546.5,-301.38 546.5,-293.19"/>
<polygon fill="midnightblue" stroke="midnightblue" points="543,-325.4 546.5,-335.4 550,-325.4 543,-325.4"/>
</g>
<!-- Node24 -->
<g id="node24" class="node">
<title>Node24</title>
<g id="a_node24"><a xlink:href="cp15_8cpp.html" target="_top" xlink:title="This file implements coprocessor CP15.">
<polygon fill="none" stroke="black" points="972.5,-268.5 972.5,-298.5 1094.5,-298.5 1094.5,-268.5 972.5,-268.5"/>
<text text-anchor="start" x="980.5" y="-286.5" font-family="Helvetica,sans-Serif" font-size="10.00">src/core/coprocessors</text>
<text text-anchor="middle" x="1033.5" y="-275.5" font-family="Helvetica,sans-Serif" font-size="10.00">/cp15/cp15.cpp</text>
</a>
</g>
</g>
<!-- Node3&#45;&gt;Node24 -->
<g id="edge35" class="edge">
<title>Node3&#45;&gt;Node24</title>
<path fill="none" stroke="midnightblue" d="M617.96,-342.69C701.21,-334.32 842.78,-318.78 963.5,-299 966.44,-298.52 969.44,-298 972.47,-297.46"/>
<polygon fill="midnightblue" stroke="midnightblue" points="617.45,-339.22 607.85,-343.69 618.15,-346.18 617.45,-339.22"/>
</g>
<!-- Node25 -->
<g id="node25" class="node">
<title>Node25</title>
<g id="a_node25"><a xlink:href="cp15__window_8hpp.html" target="_top" xlink:title="This file defines a window that displays data (information) related to coprocessor 15.">
<polygon fill="none" stroke="black" points="833,-268.5 833,-298.5 954,-298.5 954,-268.5 833,-268.5"/>
<text text-anchor="start" x="841" y="-286.5" font-family="Helvetica,sans-Serif" font-size="10.00">src/gui/windows/cp15</text>
<text text-anchor="middle" x="893.5" y="-275.5" font-family="Helvetica,sans-Serif" font-size="10.00">_window.hpp</text>
</a>
</g>
</g>
<!-- Node3&#45;&gt;Node25 -->
<g id="edge37" class="edge">
<title>Node3&#45;&gt;Node25</title>
<path fill="none" stroke="midnightblue" d="M617.66,-336.17C681.08,-324.29 772.88,-307.09 832.87,-295.86"/>
<polygon fill="midnightblue" stroke="midnightblue" points="616.92,-332.75 607.74,-338.03 618.21,-339.63 616.92,-332.75"/>
</g>
<!-- Node5 -->
<g id="node5" class="node">
<title>Node5</title>
<g id="a_node5"><a xlink:href="core_8hpp.html" target="_top" xlink:title="This file defines a class that represents a CPU core (arm1176jzf_s).">
<polygon fill="none" stroke="black" points="456,-134.5 456,-164.5 569,-164.5 569,-134.5 456,-134.5"/>
<text text-anchor="start" x="464" y="-152.5" font-family="Helvetica,sans-Serif" font-size="10.00">src/core/arm1176jzf</text>
<text text-anchor="middle" x="512.5" y="-141.5" font-family="Helvetica,sans-Serif" font-size="10.00">_s/core.hpp</text>
</a>
</g>
</g>
<!-- Node4&#45;&gt;Node5 -->
<g id="edge4" class="edge">
<title>Node4&#45;&gt;Node5</title>
<path fill="none" stroke="midnightblue" d="M388.74,-197.82C416.07,-187.37 450.19,-174.32 475.68,-164.58"/>
<polygon fill="midnightblue" stroke="midnightblue" points="387.48,-194.56 379.39,-201.4 389.98,-201.09 387.48,-194.56"/>
</g>
<!-- Node4&#45;&gt;Node7 -->
<g id="edge23" class="edge">
<title>Node4&#45;&gt;Node7</title>
<path fill="none" stroke="midnightblue" d="M343.02,-191.04C342.04,-172.84 337.62,-148.7 322.5,-134 268.06,-81.08 229.38,-115.52 155.5,-98 147.68,-96.15 139.28,-94.03 131.43,-92.01"/>
<polygon fill="midnightblue" stroke="midnightblue" points="339.52,-191.29 343.25,-201.21 346.52,-191.13 339.52,-191.29"/>
</g>
<!-- Node19 -->
<g id="node19" class="node">
<title>Node19</title>
<g id="a_node19"><a xlink:href="mmu_8cpp.html" target="_top" xlink:title="This file implements the MMU (memory management unit) of the CPU.">
<polygon fill="none" stroke="black" points="201,-134.5 201,-164.5 314,-164.5 314,-134.5 201,-134.5"/>
<text text-anchor="start" x="209" y="-152.5" font-family="Helvetica,sans-Serif" font-size="10.00">src/core/arm1176jzf</text>
<text text-anchor="middle" x="257.5" y="-141.5" font-family="Helvetica,sans-Serif" font-size="10.00">_s/mmu/mmu.cpp</text>
</a>
</g>
</g>
<!-- Node4&#45;&gt;Node19 -->
<g id="edge22" class="edge">
<title>Node4&#45;&gt;Node19</title>
<path fill="none" stroke="midnightblue" d="M315.91,-195.17C302.91,-185.23 287.6,-173.51 275.91,-164.58"/>
<polygon fill="midnightblue" stroke="midnightblue" points="313.99,-198.1 324.06,-201.4 318.24,-192.54 313.99,-198.1"/>
</g>
<!-- Node6 -->
<g id="node6" class="node">
<title>Node6</title>
<g id="a_node6"><a xlink:href="core_8cpp.html" target="_top" xlink:title="This file implements the CCPU_Core class defined in core.hpp.">
<polygon fill="none" stroke="black" points="165,-67.5 165,-97.5 278,-97.5 278,-67.5 165,-67.5"/>
<text text-anchor="start" x="173" y="-85.5" font-family="Helvetica,sans-Serif" font-size="10.00">src/core/arm1176jzf</text>
<text text-anchor="middle" x="221.5" y="-74.5" font-family="Helvetica,sans-Serif" font-size="10.00">_s/core.cpp</text>
</a>
</g>
</g>
<!-- Node5&#45;&gt;Node6 -->
<g id="edge5" class="edge">
<title>Node5&#45;&gt;Node6</title>
<path fill="none" stroke="midnightblue" d="M445.82,-133.61C395.14,-122.29 326.18,-106.88 278.16,-96.15"/>
<polygon fill="midnightblue" stroke="midnightblue" points="445.18,-137.05 455.7,-135.81 446.7,-130.22 445.18,-137.05"/>
</g>
<!-- Node5&#45;&gt;Node7 -->
<g id="edge6" class="edge">
<title>Node5&#45;&gt;Node7</title>
<path fill="none" stroke="midnightblue" d="M445.97,-134.75C444.46,-134.49 442.97,-134.24 441.5,-134 315.09,-113.17 281.33,-122.11 155.5,-98 147.02,-96.37 137.91,-94.21 129.56,-92.04"/>
<polygon fill="midnightblue" stroke="midnightblue" points="445.53,-138.23 455.99,-136.55 446.77,-131.34 445.53,-138.23"/>
</g>
<!-- Node11 -->
<g id="node11" class="node">
<title>Node11</title>
<g id="a_node11"><a xlink:href="control__window_8hpp.html" target="_top" xlink:title="This file defines a window that allows the user to control CPU execution.">
<polygon fill="none" stroke="black" points="296,-67.5 296,-97.5 427,-97.5 427,-67.5 296,-67.5"/>
<text text-anchor="start" x="304" y="-85.5" font-family="Helvetica,sans-Serif" font-size="10.00">src/gui/windows/control</text>
<text text-anchor="middle" x="361.5" y="-74.5" font-family="Helvetica,sans-Serif" font-size="10.00">_window.hpp</text>
</a>
</g>
</g>
<!-- Node5&#45;&gt;Node11 -->
<g id="edge10" class="edge">
<title>Node5&#45;&gt;Node11</title>
<path fill="none" stroke="midnightblue" d="M470.47,-130.41C446.36,-120.03 416.55,-107.2 394.2,-97.58"/>
<polygon fill="midnightblue" stroke="midnightblue" points="469.17,-133.66 479.74,-134.4 471.93,-127.23 469.17,-133.66"/>
</g>
<!-- Node13 -->
<g id="node13" class="node">
<title>Node13</title>
<g id="a_node13"><a xlink:href="registers__window_8hpp.html" target="_top" xlink:title="This file defines a window that displays the contents of all CPU registers.">
<polygon fill="none" stroke="black" points="445.5,-67.5 445.5,-97.5 585.5,-97.5 585.5,-67.5 445.5,-67.5"/>
<text text-anchor="start" x="453.5" y="-85.5" font-family="Helvetica,sans-Serif" font-size="10.00">src/gui/windows/registers</text>
<text text-anchor="middle" x="515.5" y="-74.5" font-family="Helvetica,sans-Serif" font-size="10.00">_window.hpp</text>
</a>
</g>
</g>
<!-- Node5&#45;&gt;Node13 -->
<g id="edge13" class="edge">
<title>Node5&#45;&gt;Node13</title>
<path fill="none" stroke="midnightblue" d="M513.61,-124.4C514.03,-115.37 514.49,-105.41 514.85,-97.58"/>
<polygon fill="midnightblue" stroke="midnightblue" points="510.12,-124.25 513.15,-134.4 517.11,-124.57 510.12,-124.25"/>
</g>
<!-- Node15 -->
<g id="node15" class="node">
<title>Node15</title>
<g id="a_node15"><a xlink:href="source__code__window_8hpp.html" target="_top" xlink:title="This file defines a window that displays loaded ELF files (disassembled instructions of the source co...">
<polygon fill="none" stroke="black" points="735.5,-67.5 735.5,-97.5 865.5,-97.5 865.5,-67.5 735.5,-67.5"/>
<text text-anchor="start" x="743.5" y="-85.5" font-family="Helvetica,sans-Serif" font-size="10.00">src/gui/windows/source</text>
<text text-anchor="middle" x="800.5" y="-74.5" font-family="Helvetica,sans-Serif" font-size="10.00">_code_window.hpp</text>
</a>
</g>
</g>
<!-- Node5&#45;&gt;Node15 -->
<g id="edge16" class="edge">
<title>Node5&#45;&gt;Node15</title>
<path fill="none" stroke="midnightblue" d="M579.04,-133.48C627.03,-122.65 691.37,-108.13 738.33,-97.53"/>
<polygon fill="midnightblue" stroke="midnightblue" points="578.04,-130.12 569.06,-135.74 579.58,-136.95 578.04,-130.12"/>
</g>
<!-- Node17 -->
<g id="node17" class="node">
<title>Node17</title>
<g id="a_node17"><a xlink:href="top__bar__menu_8hpp.html" target="_top" xlink:title=" ">
<polygon fill="none" stroke="black" points="604,-67.5 604,-97.5 717,-97.5 717,-67.5 604,-67.5"/>
<text text-anchor="start" x="612" y="-85.5" font-family="Helvetica,sans-Serif" font-size="10.00">src/gui/windows/top</text>
<text text-anchor="middle" x="660.5" y="-74.5" font-family="Helvetica,sans-Serif" font-size="10.00">_bar_menu.hpp</text>
</a>
</g>
</g>
<!-- Node5&#45;&gt;Node17 -->
<g id="edge19" class="edge">
<title>Node5&#45;&gt;Node17</title>
<path fill="none" stroke="midnightblue" d="M554.01,-130.27C577.58,-119.92 606.64,-107.15 628.45,-97.58"/>
<polygon fill="midnightblue" stroke="midnightblue" points="552.36,-127.17 544.61,-134.4 555.18,-133.58 552.36,-127.17"/>
</g>
<!-- Node8 -->
<g id="node8" class="node">
<title>Node8</title>
<g id="a_node8"><a xlink:href="soc_8cpp.html" target="_top" xlink:title=" ">
<polygon fill="none" stroke="black" points="0,-6 0,-25 95,-25 95,-6 0,-6"/>
<text text-anchor="middle" x="47.5" y="-13" font-family="Helvetica,sans-Serif" font-size="10.00">src/core/soc.cpp</text>
</a>
</g>
</g>
<!-- Node7&#45;&gt;Node8 -->
<g id="edge7" class="edge">
<title>Node7&#45;&gt;Node8</title>
<path fill="none" stroke="midnightblue" d="M86.12,-64.77C75.98,-52.1 62.46,-35.2 54.4,-25.13"/>
<polygon fill="midnightblue" stroke="midnightblue" points="83.51,-67.11 92.49,-72.73 88.97,-62.74 83.51,-67.11"/>
</g>
<!-- Node9 -->
<g id="node9" class="node">
<title>Node9</title>
<g id="a_node9"><a xlink:href="gui_8cpp.html" target="_top" xlink:title="This file implements the main GUI entry function that takes care of creating and rendering all window...">
<polygon fill="none" stroke="black" points="604,-6 604,-25 691,-25 691,-6 604,-6"/>
<text text-anchor="middle" x="647.5" y="-13" font-family="Helvetica,sans-Serif" font-size="10.00">src/gui/gui.cpp</text>
</a>
</g>
</g>
<!-- Node7&#45;&gt;Node9 -->
<g id="edge8" class="edge">
<title>Node7&#45;&gt;Node9</title>
<path fill="none" stroke="midnightblue" d="M138.59,-70.47C144.23,-69.14 149.99,-67.93 155.5,-67 348.52,-34.34 401.7,-64.98 594.5,-31 602.96,-29.51 612.02,-27.28 620.21,-25"/>
<polygon fill="midnightblue" stroke="midnightblue" points="137.51,-67.13 128.65,-72.94 139.2,-73.92 137.51,-67.13"/>
</g>
<!-- Node10 -->
<g id="node10" class="node">
<title>Node10</title>
<g id="a_node10"><a xlink:href="main_8cpp.html" target="_top" xlink:title="This file defines and implements the main function of the application.">
<polygon fill="none" stroke="black" points="113,-6 113,-25 192,-25 192,-6 113,-6"/>
<text text-anchor="middle" x="152.5" y="-13" font-family="Helvetica,sans-Serif" font-size="10.00">src/main.cpp</text>
</a>
</g>
</g>
<!-- Node7&#45;&gt;Node10 -->
<g id="edge9" class="edge">
<title>Node7&#45;&gt;Node10</title>
<path fill="none" stroke="midnightblue" d="M113.14,-64.77C123.47,-52.1 137.25,-35.2 145.47,-25.13"/>
<polygon fill="midnightblue" stroke="midnightblue" points="110.25,-62.77 106.65,-72.73 115.68,-67.2 110.25,-62.77"/>
</g>
<!-- Node11&#45;&gt;Node9 -->
<g id="edge11" class="edge">
<title>Node11&#45;&gt;Node9</title>
<path fill="none" stroke="midnightblue" d="M437.08,-66.19C482.79,-56.66 542.16,-43.82 594.5,-31 601.91,-29.18 609.87,-27.09 617.3,-25.06"/>
<polygon fill="midnightblue" stroke="midnightblue" points="436.33,-62.77 427.25,-68.23 437.75,-69.62 436.33,-62.77"/>
</g>
<!-- Node12 -->
<g id="node12" class="node">
<title>Node12</title>
<g id="a_node12"><a xlink:href="control__window_8cpp.html" target="_top" xlink:title="This file implements a window that allows the user to control CPU execution.">
<polygon fill="none" stroke="black" points="296,-0.5 296,-30.5 427,-30.5 427,-0.5 296,-0.5"/>
<text text-anchor="start" x="304" y="-18.5" font-family="Helvetica,sans-Serif" font-size="10.00">src/gui/windows/control</text>
<text text-anchor="middle" x="361.5" y="-7.5" font-family="Helvetica,sans-Serif" font-size="10.00">_window.cpp</text>
</a>
</g>
</g>
<!-- Node11&#45;&gt;Node12 -->
<g id="edge12" class="edge">
<title>Node11&#45;&gt;Node12</title>
<path fill="none" stroke="midnightblue" d="M361.5,-57.11C361.5,-48.15 361.5,-38.32 361.5,-30.58"/>
<polygon fill="midnightblue" stroke="midnightblue" points="358,-57.4 361.5,-67.4 365,-57.4 358,-57.4"/>
</g>
<!-- Node13&#45;&gt;Node9 -->
<g id="edge14" class="edge">
<title>Node13&#45;&gt;Node9</title>
<path fill="none" stroke="midnightblue" d="M553.14,-62.97C578.49,-50.48 610.75,-34.6 630.22,-25.01"/>
<polygon fill="midnightblue" stroke="midnightblue" points="551.57,-59.84 544.14,-67.4 554.66,-66.12 551.57,-59.84"/>
</g>
<!-- Node14 -->
<g id="node14" class="node">
<title>Node14</title>
<g id="a_node14"><a xlink:href="registers__window_8cpp.html" target="_top" xlink:title="This file implements a window that displays the contents of all CPU registers.">
<polygon fill="none" stroke="black" points="445.5,-0.5 445.5,-30.5 585.5,-30.5 585.5,-0.5 445.5,-0.5"/>
<text text-anchor="start" x="453.5" y="-18.5" font-family="Helvetica,sans-Serif" font-size="10.00">src/gui/windows/registers</text>
<text text-anchor="middle" x="515.5" y="-7.5" font-family="Helvetica,sans-Serif" font-size="10.00">_window.cpp</text>
</a>
</g>
</g>
<!-- Node13&#45;&gt;Node14 -->
<g id="edge15" class="edge">
<title>Node13&#45;&gt;Node14</title>
<path fill="none" stroke="midnightblue" d="M515.5,-57.11C515.5,-48.15 515.5,-38.32 515.5,-30.58"/>
<polygon fill="midnightblue" stroke="midnightblue" points="512,-57.4 515.5,-67.4 519,-57.4 512,-57.4"/>
</g>
<!-- Node15&#45;&gt;Node9 -->
<g id="edge17" class="edge">
<title>Node15&#45;&gt;Node9</title>
<path fill="none" stroke="midnightblue" d="M758.03,-63.46C728.47,-50.9 690.4,-34.72 667.52,-25.01"/>
<polygon fill="midnightblue" stroke="midnightblue" points="756.73,-66.71 767.3,-67.4 759.47,-60.26 756.73,-66.71"/>
</g>
<!-- Node16 -->
<g id="node16" class="node">
<title>Node16</title>
<g id="a_node16"><a xlink:href="source__code__window_8cpp.html" target="_top" xlink:title="This file implements a window that displays loaded ELF files (disassembled instructions of the source...">
<polygon fill="none" stroke="black" points="906.5,-0.5 906.5,-30.5 1036.5,-30.5 1036.5,-0.5 906.5,-0.5"/>
<text text-anchor="start" x="914.5" y="-18.5" font-family="Helvetica,sans-Serif" font-size="10.00">src/gui/windows/source</text>
<text text-anchor="middle" x="971.5" y="-7.5" font-family="Helvetica,sans-Serif" font-size="10.00">_code_window.cpp</text>
</a>
</g>
</g>
<!-- Node15&#45;&gt;Node16 -->
<g id="edge18" class="edge">
<title>Node15&#45;&gt;Node16</title>
<path fill="none" stroke="midnightblue" d="M847.02,-63.82C874.5,-53.37 908.83,-40.32 934.47,-30.58"/>
<polygon fill="midnightblue" stroke="midnightblue" points="845.71,-60.57 837.6,-67.4 848.2,-67.11 845.71,-60.57"/>
</g>
<!-- Node17&#45;&gt;Node9 -->
<g id="edge20" class="edge">
<title>Node17&#45;&gt;Node9</title>
<path fill="none" stroke="midnightblue" d="M655.65,-57.25C653.4,-46.02 650.88,-33.38 649.24,-25.19"/>
<polygon fill="midnightblue" stroke="midnightblue" points="652.29,-58.28 657.68,-67.4 659.15,-56.9 652.29,-58.28"/>
</g>
<!-- Node18 -->
<g id="node18" class="node">
<title>Node18</title>
<g id="a_node18"><a xlink:href="top__bar__menu_8cpp.html" target="_top" xlink:title=" ">
<polygon fill="none" stroke="black" points="709,-0.5 709,-30.5 822,-30.5 822,-0.5 709,-0.5"/>
<text text-anchor="start" x="717" y="-18.5" font-family="Helvetica,sans-Serif" font-size="10.00">src/gui/windows/top</text>
<text text-anchor="middle" x="765.5" y="-7.5" font-family="Helvetica,sans-Serif" font-size="10.00">_bar_menu.cpp</text>
</a>
</g>
</g>
<!-- Node17&#45;&gt;Node18 -->
<g id="edge21" class="edge">
<title>Node17&#45;&gt;Node18</title>
<path fill="none" stroke="midnightblue" d="M691.98,-62.02C708.32,-51.9 727.91,-39.77 742.76,-30.58"/>
<polygon fill="midnightblue" stroke="midnightblue" points="689.94,-59.16 683.28,-67.4 693.63,-65.11 689.94,-59.16"/>
</g>
<!-- Node20&#45;&gt;Node4 -->
<g id="edge26" class="edge">
<title>Node20&#45;&gt;Node4</title>
<path fill="none" stroke="midnightblue" d="M509.7,-270.77C475.11,-259.75 423.3,-243.24 386.53,-231.53"/>
<polygon fill="midnightblue" stroke="midnightblue" points="508.82,-274.17 519.41,-273.87 510.94,-267.5 508.82,-274.17"/>
</g>
<!-- Node20&#45;&gt;Node5 -->
<g id="edge25" class="edge">
<title>Node20&#45;&gt;Node5</title>
<path fill="none" stroke="midnightblue" d="M539.22,-264.15C535.64,-254.66 531.47,-242.82 528.5,-232 522.12,-208.78 517.26,-181.17 514.64,-164.78"/>
<polygon fill="midnightblue" stroke="midnightblue" points="536.04,-265.62 542.91,-273.69 542.56,-263.1 536.04,-265.62"/>
</g>
<!-- Node20&#45;&gt;Node7 -->
<g id="edge28" class="edge">
<title>Node20&#45;&gt;Node7</title>
<path fill="none" stroke="midnightblue" d="M530.26,-266.37C498.05,-235.38 422.51,-167.63 345.5,-134 266.74,-99.6 239.37,-116.78 155.5,-98 147.56,-96.22 139.04,-94.12 131.1,-92.07"/>
<polygon fill="midnightblue" stroke="midnightblue" points="528.22,-269.27 537.83,-273.74 533.11,-264.26 528.22,-269.27"/>
</g>
<!-- Node20&#45;&gt;Node17 -->
<g id="edge29" class="edge">
<title>Node20&#45;&gt;Node17</title>
<path fill="none" stroke="midnightblue" d="M588.19,-270.28C607.48,-262.46 628.87,-250.27 641.5,-232 670.32,-190.31 666.26,-125.97 662.69,-97.67"/>
<polygon fill="midnightblue" stroke="midnightblue" points="586.77,-267.08 578.64,-273.88 589.23,-273.63 586.77,-267.08"/>
</g>
<!-- Node21 -->
<g id="node21" class="node">
<title>Node21</title>
<g id="a_node21"><a xlink:href="bus_8cpp.html" target="_top" xlink:title="This file implements the interface defined in bus.hpp.">
<polygon fill="none" stroke="black" points="537,-207 537,-226 632,-226 632,-207 537,-207"/>
<text text-anchor="middle" x="584.5" y="-214" font-family="Helvetica,sans-Serif" font-size="10.00">src/core/bus.cpp</text>
</a>
</g>
</g>
<!-- Node20&#45;&gt;Node21 -->
<g id="edge27" class="edge">
<title>Node20&#45;&gt;Node21</title>
<path fill="none" stroke="midnightblue" d="M556.71,-265.03C564.07,-252.45 573.68,-236.01 579.46,-226.13"/>
<polygon fill="midnightblue" stroke="midnightblue" points="553.65,-263.33 551.62,-273.73 559.69,-266.87 553.65,-263.33"/>
</g>
<!-- Node22 -->
<g id="node22" class="node">
<title>Node22</title>
<g id="a_node22"><a xlink:href="elf__loader_8hpp.html" target="_top" xlink:title="This file defines the functionality of an ELF loader.">
<polygon fill="none" stroke="black" points="737,-140 737,-159 864,-159 864,-140 737,-140"/>
<text text-anchor="middle" x="800.5" y="-147" font-family="Helvetica,sans-Serif" font-size="10.00">src/utils/elf_loader.hpp</text>
</a>
</g>
</g>
<!-- Node20&#45;&gt;Node22 -->
<g id="edge30" class="edge">
<title>Node20&#45;&gt;Node22</title>
<path fill="none" stroke="midnightblue" d="M582.16,-270.58C608.31,-261.33 644.36,-247.5 674.5,-232 718.75,-209.24 767.11,-175.08 788.81,-159.19"/>
<polygon fill="midnightblue" stroke="midnightblue" points="580.95,-267.3 572.66,-273.9 583.25,-273.91 580.95,-267.3"/>
</g>
<!-- Node22&#45;&gt;Node15 -->
<g id="edge32" class="edge">
<title>Node22&#45;&gt;Node15</title>
<path fill="none" stroke="midnightblue" d="M800.5,-129.41C800.5,-119.22 800.5,-106.9 800.5,-97.59"/>
<polygon fill="midnightblue" stroke="midnightblue" points="797,-129.73 800.5,-139.73 804,-129.73 797,-129.73"/>
</g>
<!-- Node22&#45;&gt;Node16 -->
<g id="edge31" class="edge">
<title>Node22&#45;&gt;Node16</title>
<path fill="none" stroke="midnightblue" d="M873.95,-141.22C930,-133.97 1000.54,-120.59 1018.5,-98 1035.78,-76.26 1009.38,-47.46 989.7,-30.55"/>
<polygon fill="midnightblue" stroke="midnightblue" points="873.52,-137.75 864.03,-142.46 874.39,-144.69 873.52,-137.75"/>
</g>
<!-- Node22&#45;&gt;Node17 -->
<g id="edge33" class="edge">
<title>Node22&#45;&gt;Node17</title>
<path fill="none" stroke="midnightblue" d="M772.76,-135.62C749.08,-124.63 715.08,-108.84 690.71,-97.53"/>
<polygon fill="midnightblue" stroke="midnightblue" points="771.37,-138.83 781.91,-139.87 774.31,-132.48 771.37,-138.83"/>
</g>
<!-- Node23 -->
<g id="node23" class="node">
<title>Node23</title>
<g id="a_node23"><a xlink:href="elf__loader_8cpp.html" target="_top" xlink:title="This file implements the functionality of an ELF loader defined in elf_loader.hpp.">
<polygon fill="none" stroke="black" points="883.5,-73 883.5,-92 1009.5,-92 1009.5,-73 883.5,-73"/>
<text text-anchor="middle" x="946.5" y="-80" font-family="Helvetica,sans-Serif" font-size="10.00">src/utils/elf_loader.cpp</text>
</a>
</g>
</g>
<!-- Node22&#45;&gt;Node23 -->
<g id="edge34" class="edge">
<title>Node22&#45;&gt;Node23</title>
<path fill="none" stroke="midnightblue" d="M829.07,-135.78C857.98,-122.91 901.9,-103.35 927.03,-92.17"/>
<polygon fill="midnightblue" stroke="midnightblue" points="827.6,-132.6 819.89,-139.87 830.45,-139 827.6,-132.6"/>
</g>
<!-- Node25&#45;&gt;Node9 -->
<g id="edge38" class="edge">
<title>Node25&#45;&gt;Node9</title>
<path fill="none" stroke="midnightblue" d="M921.25,-262.13C973.1,-221.7 1074.59,-129.79 1018.5,-67 971.12,-13.96 770.34,-44.42 700.5,-31 692.35,-29.43 683.62,-27.26 675.64,-25.07"/>
<polygon fill="midnightblue" stroke="midnightblue" points="918.89,-259.53 913.09,-268.39 923.15,-265.08 918.89,-259.53"/>
</g>
<!-- Node26 -->
<g id="node26" class="node">
<title>Node26</title>
<g id="a_node26"><a xlink:href="cp15__window_8cpp.html" target="_top" xlink:title="This file implements a window that displays data (information) related to coprocessor 15.">
<polygon fill="none" stroke="black" points="1104,-201.5 1104,-231.5 1225,-231.5 1225,-201.5 1104,-201.5"/>
<text text-anchor="start" x="1112" y="-219.5" font-family="Helvetica,sans-Serif" font-size="10.00">src/gui/windows/cp15</text>
<text text-anchor="middle" x="1164.5" y="-208.5" font-family="Helvetica,sans-Serif" font-size="10.00">_window.cpp</text>
</a>
</g>
</g>
<!-- Node25&#45;&gt;Node26 -->
<g id="edge39" class="edge">
<title>Node25&#45;&gt;Node26</title>
<path fill="none" stroke="midnightblue" d="M961.8,-266.12C1006.14,-255.48 1063.34,-241.76 1105.67,-231.61"/>
<polygon fill="midnightblue" stroke="midnightblue" points="960.88,-262.74 951.97,-268.48 962.51,-269.55 960.88,-262.74"/>
</g>
</g>
</svg>
