<?xml version="1.0" encoding="UTF-8" standalone="no"?>
<!DOCTYPE svg PUBLIC "-//W3C//DTD SVG 1.1//EN"
 "http://www.w3.org/Graphics/SVG/1.1/DTD/svg11.dtd">
<!-- Generated by graphviz version 2.43.0 (0)
 -->
<!-- Title: zero_mate::utils::CLogging_System::Debug Pages: 1 -->
<svg width="515pt" height="460pt"
 viewBox="0.00 0.00 515.00 460.00" xmlns="http://www.w3.org/2000/svg" xmlns:xlink="http://www.w3.org/1999/xlink">
<g id="graph0" class="graph" transform="scale(1 1) rotate(0) translate(4 456)">
<title>zero_mate::utils::CLogging_System::Debug</title>
<!-- Node1 -->
<g id="node1" class="node">
<title>Node1</title>
<g id="a_node1"><a xlink:title="Logs a debug message via all registered loggers.">
<polygon fill="#bfbfbf" stroke="black" points="361,-216 361,-246 507,-246 507,-216 361,-216"/>
<text text-anchor="start" x="369" y="-234" font-family="Helvetica,sans-Serif" font-size="10.00">zero_mate::utils::CLogging</text>
<text text-anchor="middle" x="434" y="-223" font-family="Helvetica,sans-Serif" font-size="10.00">_System::Debug</text>
</a>
</g>
</g>
<!-- Node2 -->
<g id="node2" class="node">
<title>Node2</title>
<g id="a_node2"><a xlink:href="classzero__mate_1_1peripheral_1_1CGPIO__Manager.html#a4a4e9cf470ed6f7dbfb3ada75d35e47c" target="_top" xlink:title="Clears a pending interrupt by writing a 1 to the GPEDS register.">
<polygon fill="none" stroke="black" points="170,-301 170,-331 325,-331 325,-301 170,-301"/>
<text text-anchor="start" x="178" y="-319" font-family="Helvetica,sans-Serif" font-size="10.00">zero_mate::peripheral</text>
<text text-anchor="middle" x="247.5" y="-308" font-family="Helvetica,sans-Serif" font-size="10.00">::CGPIO_Manager::Clear_IRQ</text>
</a>
</g>
</g>
<!-- Node1&#45;&gt;Node2 -->
<g id="edge1" class="edge">
<title>Node1&#45;&gt;Node2</title>
<path fill="none" stroke="midnightblue" d="M399.99,-251.51C379.02,-263.98 351.03,-279.64 325,-291 316.8,-294.58 307.92,-297.93 299.22,-300.94"/>
<polygon fill="midnightblue" stroke="midnightblue" points="402.04,-254.36 408.8,-246.21 398.43,-248.36 402.04,-254.36"/>
</g>
<!-- Node4 -->
<g id="node4" class="node">
<title>Node4</title>
<g id="a_node4"><a xlink:href="classzero__mate_1_1peripheral_1_1CInterrupt__Controller.html#aa731c1d6e73a4db1087a803ca5fe5557" target="_top" xlink:title="Enables/disables interrupts from a basic IRQ source.">
<polygon fill="none" stroke="black" points="171,-410.5 171,-451.5 324,-451.5 324,-410.5 171,-410.5"/>
<text text-anchor="start" x="179" y="-439.5" font-family="Helvetica,sans-Serif" font-size="10.00">zero_mate::peripheral</text>
<text text-anchor="start" x="179" y="-428.5" font-family="Helvetica,sans-Serif" font-size="10.00">::CInterrupt_Controller</text>
<text text-anchor="middle" x="247.5" y="-417.5" font-family="Helvetica,sans-Serif" font-size="10.00">::Enable_IRQ_Basic_Sources</text>
</a>
</g>
</g>
<!-- Node1&#45;&gt;Node4 -->
<g id="edge3" class="edge">
<title>Node1&#45;&gt;Node4</title>
<path fill="none" stroke="midnightblue" d="M423.19,-255.87C407.6,-292.45 373.84,-360.75 325,-401 320.82,-404.45 316.19,-407.53 311.34,-410.29"/>
<polygon fill="midnightblue" stroke="midnightblue" points="426.51,-257.02 427.11,-246.44 420.04,-254.34 426.51,-257.02"/>
</g>
<!-- Node6 -->
<g id="node6" class="node">
<title>Node6</title>
<g id="a_node6"><a xlink:href="classzero__mate_1_1peripheral_1_1CInterrupt__Controller.html#ac3c9423e443ca2389cef743f32713cca" target="_top" xlink:title="Enables/disables interrupts from an IRQ source.">
<polygon fill="none" stroke="black" points="185,-350.5 185,-391.5 310,-391.5 310,-350.5 185,-350.5"/>
<text text-anchor="start" x="193" y="-379.5" font-family="Helvetica,sans-Serif" font-size="10.00">zero_mate::peripheral</text>
<text text-anchor="start" x="193" y="-368.5" font-family="Helvetica,sans-Serif" font-size="10.00">::CInterrupt_Controller</text>
<text text-anchor="middle" x="247.5" y="-357.5" font-family="Helvetica,sans-Serif" font-size="10.00">::Enable_IRQ_Sources</text>
</a>
</g>
</g>
<!-- Node1&#45;&gt;Node6 -->
<g id="edge5" class="edge">
<title>Node1&#45;&gt;Node6</title>
<path fill="none" stroke="midnightblue" d="M414.83,-254.26C394.96,-278.41 361.1,-315.96 325,-340 319.27,-343.81 313.01,-347.29 306.6,-350.41"/>
<polygon fill="midnightblue" stroke="midnightblue" points="417.69,-256.3 421.26,-246.32 412.25,-251.89 417.69,-256.3"/>
</g>
<!-- Node7 -->
<g id="node7" class="node">
<title>Node7</title>
<g id="a_node7"><a xlink:href="classzero__mate_1_1peripheral_1_1CGPIO__Manager.html#ad29d57528b73baef90b0ca885a297e4d" target="_top" xlink:title="Enables/disables an interrupt for all pins within a given register.">
<polygon fill="none" stroke="black" points="185.5,-240.5 185.5,-281.5 309.5,-281.5 309.5,-240.5 185.5,-240.5"/>
<text text-anchor="start" x="193.5" y="-269.5" font-family="Helvetica,sans-Serif" font-size="10.00">zero_mate::peripheral</text>
<text text-anchor="start" x="193.5" y="-258.5" font-family="Helvetica,sans-Serif" font-size="10.00">::CGPIO_Manager::Set</text>
<text text-anchor="middle" x="247.5" y="-247.5" font-family="Helvetica,sans-Serif" font-size="10.00">_Interrupt</text>
</a>
</g>
</g>
<!-- Node1&#45;&gt;Node7 -->
<g id="edge7" class="edge">
<title>Node1&#45;&gt;Node7</title>
<path fill="none" stroke="midnightblue" d="M350.83,-244.36C336.95,-246.62 322.75,-248.93 309.52,-251.08"/>
<polygon fill="midnightblue" stroke="midnightblue" points="351.57,-247.79 360.87,-242.73 350.44,-240.88 351.57,-247.79"/>
</g>
<!-- Node8 -->
<g id="node8" class="node">
<title>Node8</title>
<g id="a_node8"><a xlink:href="classzero__mate_1_1peripheral_1_1CInterrupt__Controller.html#a32373b931bb37ef8ee92f95a3f833284" target="_top" xlink:title="Notifies the interrupt controller about a pending interrupt triggered by a basic IRQ source.">
<polygon fill="none" stroke="black" points="185,-180.5 185,-221.5 310,-221.5 310,-180.5 185,-180.5"/>
<text text-anchor="start" x="193" y="-209.5" font-family="Helvetica,sans-Serif" font-size="10.00">zero_mate::peripheral</text>
<text text-anchor="start" x="193" y="-198.5" font-family="Helvetica,sans-Serif" font-size="10.00">::CInterrupt_Controller</text>
<text text-anchor="middle" x="247.5" y="-187.5" font-family="Helvetica,sans-Serif" font-size="10.00">::Signalize_Basic_IRQ</text>
</a>
</g>
</g>
<!-- Node1&#45;&gt;Node8 -->
<g id="edge9" class="edge">
<title>Node1&#45;&gt;Node8</title>
<path fill="none" stroke="midnightblue" d="M350.96,-217.66C337.23,-215.43 323.21,-213.15 310.11,-211.02"/>
<polygon fill="midnightblue" stroke="midnightblue" points="350.44,-221.12 360.87,-219.27 351.57,-214.21 350.44,-221.12"/>
</g>
<!-- Node9 -->
<g id="node9" class="node">
<title>Node9</title>
<g id="a_node9"><a xlink:href="classzero__mate_1_1peripheral_1_1CInterrupt__Controller.html#aa559a3a604ae1877cbbe749724d8a399" target="_top" xlink:title="Notifies the interrupt controller about a pending interrupt triggered by an IRQ source.">
<polygon fill="none" stroke="black" points="185,-120.5 185,-161.5 310,-161.5 310,-120.5 185,-120.5"/>
<text text-anchor="start" x="193" y="-149.5" font-family="Helvetica,sans-Serif" font-size="10.00">zero_mate::peripheral</text>
<text text-anchor="start" x="193" y="-138.5" font-family="Helvetica,sans-Serif" font-size="10.00">::CInterrupt_Controller</text>
<text text-anchor="middle" x="247.5" y="-127.5" font-family="Helvetica,sans-Serif" font-size="10.00">::Signalize_IRQ</text>
</a>
</g>
</g>
<!-- Node1&#45;&gt;Node9 -->
<g id="edge10" class="edge">
<title>Node1&#45;&gt;Node9</title>
<path fill="none" stroke="midnightblue" d="M399.33,-210.77C378.33,-198.54 350.52,-183.03 325,-171 318.16,-167.78 310.87,-164.6 303.62,-161.59"/>
<polygon fill="midnightblue" stroke="midnightblue" points="397.79,-213.92 408.18,-215.97 401.33,-207.89 397.79,-213.92"/>
</g>
<!-- Node10 -->
<g id="node10" class="node">
<title>Node10</title>
<g id="a_node10"><a xlink:href="classzero__mate_1_1peripheral_1_1CGPIO__Manager.html#ad7c6aa486cf3b116ffae9f16eec64064" target="_top" xlink:title="Updates the function of all pins within a given register.">
<polygon fill="none" stroke="black" points="176,-60.5 176,-101.5 319,-101.5 319,-60.5 176,-60.5"/>
<text text-anchor="start" x="184" y="-89.5" font-family="Helvetica,sans-Serif" font-size="10.00">zero_mate::peripheral</text>
<text text-anchor="start" x="184" y="-78.5" font-family="Helvetica,sans-Serif" font-size="10.00">::CGPIO_Manager::Update</text>
<text text-anchor="middle" x="247.5" y="-67.5" font-family="Helvetica,sans-Serif" font-size="10.00">_Pin_Function</text>
</a>
</g>
</g>
<!-- Node1&#45;&gt;Node10 -->
<g id="edge11" class="edge">
<title>Node1&#45;&gt;Node10</title>
<path fill="none" stroke="midnightblue" d="M416.9,-207.29C397.76,-180.66 363.5,-137.67 325,-111 320.07,-107.59 314.71,-104.49 309.17,-101.69"/>
<polygon fill="midnightblue" stroke="midnightblue" points="414.18,-209.5 422.8,-215.65 419.9,-205.46 414.18,-209.5"/>
</g>
<!-- Node11 -->
<g id="node11" class="node">
<title>Node11</title>
<g id="a_node11"><a xlink:href="classzero__mate_1_1peripheral_1_1CGPIO__Manager.html#ae93785da50eefb8a8cc21c1c59a32726" target="_top" xlink:title="Updates the state of all pins within a given register.">
<polygon fill="none" stroke="black" points="176,-0.5 176,-41.5 319,-41.5 319,-0.5 176,-0.5"/>
<text text-anchor="start" x="184" y="-29.5" font-family="Helvetica,sans-Serif" font-size="10.00">zero_mate::peripheral</text>
<text text-anchor="start" x="184" y="-18.5" font-family="Helvetica,sans-Serif" font-size="10.00">::CGPIO_Manager::Update</text>
<text text-anchor="middle" x="247.5" y="-7.5" font-family="Helvetica,sans-Serif" font-size="10.00">_Pin_State</text>
</a>
</g>
</g>
<!-- Node1&#45;&gt;Node11 -->
<g id="edge13" class="edge">
<title>Node1&#45;&gt;Node11</title>
<path fill="none" stroke="midnightblue" d="M424.15,-206.11C409.33,-167.76 376,-94.13 325,-51 320.86,-47.5 316.27,-44.38 311.44,-41.6"/>
<polygon fill="midnightblue" stroke="midnightblue" points="421.05,-207.81 427.84,-215.94 427.6,-205.35 421.05,-207.81"/>
</g>
<!-- Node3 -->
<g id="node3" class="node">
<title>Node3</title>
<g id="a_node3"><a xlink:href="classzero__mate_1_1peripheral_1_1CGPIO__Manager.html#a26aa957dbb7682447e4ebf9aa078c00c" target="_top" xlink:title="Writes data to the peripheral (IPeripheral interface).">
<polygon fill="none" stroke="black" points="0,-156 0,-186 134,-186 134,-156 0,-156"/>
<text text-anchor="start" x="8" y="-174" font-family="Helvetica,sans-Serif" font-size="10.00">zero_mate::peripheral</text>
<text text-anchor="middle" x="67" y="-163" font-family="Helvetica,sans-Serif" font-size="10.00">::CGPIO_Manager::Write</text>
</a>
</g>
</g>
<!-- Node2&#45;&gt;Node3 -->
<g id="edge2" class="edge">
<title>Node2&#45;&gt;Node3</title>
<path fill="none" stroke="midnightblue" d="M179.23,-296.48C176.03,-294.79 172.93,-292.97 170,-291 127.54,-262.51 92.69,-211.61 76.98,-186.24"/>
<polygon fill="midnightblue" stroke="midnightblue" points="177.95,-299.74 188.49,-300.88 180.96,-293.42 177.95,-299.74"/>
</g>
<!-- Node5 -->
<g id="node5" class="node">
<title>Node5</title>
<g id="a_node5"><a xlink:href="classzero__mate_1_1peripheral_1_1CInterrupt__Controller.html#ab37428109c8e5f862b528417048903f3" target="_top" xlink:title="Writes data to the peripheral (IPeripheral interface).">
<polygon fill="none" stroke="black" points="4.5,-380.5 4.5,-421.5 129.5,-421.5 129.5,-380.5 4.5,-380.5"/>
<text text-anchor="start" x="12.5" y="-409.5" font-family="Helvetica,sans-Serif" font-size="10.00">zero_mate::peripheral</text>
<text text-anchor="start" x="12.5" y="-398.5" font-family="Helvetica,sans-Serif" font-size="10.00">::CInterrupt_Controller</text>
<text text-anchor="middle" x="67" y="-387.5" font-family="Helvetica,sans-Serif" font-size="10.00">::Write</text>
</a>
</g>
</g>
<!-- Node4&#45;&gt;Node5 -->
<g id="edge4" class="edge">
<title>Node4&#45;&gt;Node5</title>
<path fill="none" stroke="midnightblue" d="M160.8,-416.6C150.33,-414.84 139.8,-413.07 129.77,-411.38"/>
<polygon fill="midnightblue" stroke="midnightblue" points="160.36,-420.07 170.8,-418.28 161.52,-413.17 160.36,-420.07"/>
</g>
<!-- Node6&#45;&gt;Node5 -->
<g id="edge6" class="edge">
<title>Node6&#45;&gt;Node5</title>
<path fill="none" stroke="midnightblue" d="M174.64,-383.08C159.74,-385.58 144.17,-388.2 129.68,-390.63"/>
<polygon fill="midnightblue" stroke="midnightblue" points="175.54,-386.48 184.82,-381.37 174.38,-379.57 175.54,-386.48"/>
</g>
<!-- Node7&#45;&gt;Node3 -->
<g id="edge8" class="edge">
<title>Node7&#45;&gt;Node3</title>
<path fill="none" stroke="midnightblue" d="M181.6,-236.38C177.65,-234.63 173.75,-232.83 170,-231 142.1,-217.43 111.63,-198.99 91.32,-186.15"/>
<polygon fill="midnightblue" stroke="midnightblue" points="180.33,-239.64 190.9,-240.39 183.1,-233.22 180.33,-239.64"/>
</g>
<!-- Node10&#45;&gt;Node3 -->
<g id="edge12" class="edge">
<title>Node10&#45;&gt;Node3</title>
<path fill="none" stroke="midnightblue" d="M181.6,-105.62C177.65,-107.37 173.75,-109.17 170,-111 142.1,-124.57 111.63,-143.01 91.32,-155.85"/>
<polygon fill="midnightblue" stroke="midnightblue" points="183.1,-108.78 190.9,-101.61 180.33,-102.36 183.1,-108.78"/>
</g>
<!-- Node11&#45;&gt;Node3 -->
<g id="edge14" class="edge">
<title>Node11&#45;&gt;Node3</title>
<path fill="none" stroke="midnightblue" d="M176.64,-46.62C174.35,-48.02 172.13,-49.48 170,-51 128.61,-80.55 93.52,-130.51 77.42,-155.62"/>
<polygon fill="midnightblue" stroke="midnightblue" points="178.7,-49.48 185.72,-41.54 175.29,-43.37 178.7,-49.48"/>
</g>
</g>
</svg>
