<?xml version="1.0" encoding="UTF-8" standalone="no"?>
<!DOCTYPE svg PUBLIC "-//W3C//DTD SVG 1.1//EN"
 "http://www.w3.org/Graphics/SVG/1.1/DTD/svg11.dtd">
<!-- Generated by graphviz version 2.43.0 (0)
 -->
<!-- Title: zero_mate::gui::CControl_Window::Render_Control_Buttons Pages: 1 -->
<svg width="637pt" height="100pt"
 viewBox="0.00 0.00 637.00 99.50" xmlns="http://www.w3.org/2000/svg" xmlns:xlink="http://www.w3.org/1999/xlink">
<g id="graph0" class="graph" transform="scale(1 1) rotate(0) translate(4 95.5)">
<title>zero_mate::gui::CControl_Window::Render_Control_Buttons</title>
<!-- Node1 -->
<g id="node1" class="node">
<title>Node1</title>
<g id="a_node1"><a xlink:title=" ">
<polygon fill="#bfbfbf" stroke="black" points="0,-22 0,-63 141,-63 141,-22 0,-22"/>
<text text-anchor="start" x="8" y="-51" font-family="Helvetica,sans-Serif" font-size="10.00">zero_mate::gui::CControl</text>
<text text-anchor="start" x="8" y="-40" font-family="Helvetica,sans-Serif" font-size="10.00">_Window::Render_Control</text>
<text text-anchor="middle" x="70.5" y="-29" font-family="Helvetica,sans-Serif" font-size="10.00">_Buttons</text>
</a>
</g>
</g>
<!-- Node2 -->
<g id="node2" class="node">
<title>Node2</title>
<g id="a_node2"><a xlink:href="classzero__mate_1_1gui_1_1CControl__Window.html#a46cc1dd042f93990abb7b0b68f566a2d" target="_top" xlink:title=" ">
<polygon fill="none" stroke="black" points="177,-50 177,-91 329,-91 329,-50 177,-50"/>
<text text-anchor="start" x="185" y="-79" font-family="Helvetica,sans-Serif" font-size="10.00">zero_mate::gui::CControl</text>
<text text-anchor="start" x="185" y="-68" font-family="Helvetica,sans-Serif" font-size="10.00">_Window::Print_No_ELF_File</text>
<text text-anchor="middle" x="253" y="-57" font-family="Helvetica,sans-Serif" font-size="10.00">_Loaded_Error_Msg</text>
</a>
</g>
</g>
<!-- Node1&#45;&gt;Node2 -->
<g id="edge1" class="edge">
<title>Node1&#45;&gt;Node2</title>
<path fill="none" stroke="midnightblue" d="M141.03,-53.29C149.45,-54.59 158.13,-55.94 166.74,-57.27"/>
<polygon fill="midnightblue" stroke="midnightblue" points="166.39,-60.76 176.81,-58.84 167.47,-53.84 166.39,-60.76"/>
</g>
<!-- Node3 -->
<g id="node3" class="node">
<title>Node3</title>
<g id="a_node3"><a xlink:href="classzero__mate_1_1gui_1_1CControl__Window.html#a37a3c37d6d92c239742abf75b3aebec9" target="_top" xlink:title=" ">
<polygon fill="none" stroke="black" points="181.5,-0.5 181.5,-30.5 324.5,-30.5 324.5,-0.5 181.5,-0.5"/>
<text text-anchor="start" x="189.5" y="-18.5" font-family="Helvetica,sans-Serif" font-size="10.00">zero_mate::gui::CControl</text>
<text text-anchor="middle" x="253" y="-7.5" font-family="Helvetica,sans-Serif" font-size="10.00">_Window::Reset_Emulator</text>
</a>
</g>
</g>
<!-- Node1&#45;&gt;Node3 -->
<g id="edge2" class="edge">
<title>Node1&#45;&gt;Node3</title>
<path fill="none" stroke="midnightblue" d="M141.03,-32.1C150.93,-30.62 161.19,-29.08 171.29,-27.57"/>
<polygon fill="midnightblue" stroke="midnightblue" points="171.94,-31.01 181.31,-26.07 170.91,-24.09 171.94,-31.01"/>
</g>
<!-- Node4 -->
<g id="node4" class="node">
<title>Node4</title>
<g id="a_node4"><a xlink:href="namespacezero__mate_1_1utils_1_1elf.html#a7af51862dcfbf3eda33e79e06f610595" target="_top" xlink:title="Reloads the same kernel that was loaded using the Load_Kernel function.">
<polygon fill="none" stroke="black" points="365,-0.5 365,-30.5 479,-30.5 479,-0.5 365,-0.5"/>
<text text-anchor="start" x="373" y="-18.5" font-family="Helvetica,sans-Serif" font-size="10.00">zero_mate::utils::elf</text>
<text text-anchor="middle" x="422" y="-7.5" font-family="Helvetica,sans-Serif" font-size="10.00">::Reload_Kernel</text>
</a>
</g>
</g>
<!-- Node3&#45;&gt;Node4 -->
<g id="edge3" class="edge">
<title>Node3&#45;&gt;Node4</title>
<path fill="none" stroke="midnightblue" d="M324.82,-15.5C334.72,-15.5 344.86,-15.5 354.67,-15.5"/>
<polygon fill="midnightblue" stroke="midnightblue" points="354.75,-19 364.75,-15.5 354.75,-12 354.75,-19"/>
</g>
<!-- Node5 -->
<g id="node5" class="node">
<title>Node5</title>
<g id="a_node5"><a xlink:href="namespacezero__mate_1_1utils_1_1elf.html#a95a9f666929811b558bcb9da0969972a" target="_top" xlink:title="Loads a given ELF file (kernel) into the memory.">
<polygon fill="none" stroke="black" points="515,-0.5 515,-30.5 629,-30.5 629,-0.5 515,-0.5"/>
<text text-anchor="start" x="523" y="-18.5" font-family="Helvetica,sans-Serif" font-size="10.00">zero_mate::utils::elf</text>
<text text-anchor="middle" x="572" y="-7.5" font-family="Helvetica,sans-Serif" font-size="10.00">::Load_Kernel</text>
</a>
</g>
</g>
<!-- Node4&#45;&gt;Node5 -->
<g id="edge4" class="edge">
<title>Node4&#45;&gt;Node5</title>
<path fill="none" stroke="midnightblue" d="M479.37,-15.5C487.62,-15.5 496.18,-15.5 504.6,-15.5"/>
<polygon fill="midnightblue" stroke="midnightblue" points="504.78,-19 514.78,-15.5 504.78,-12 504.78,-19"/>
</g>
</g>
</svg>
