<?xml version="1.0" encoding="UTF-8" standalone="no"?>
<!DOCTYPE svg PUBLIC "-//W3C//DTD SVG 1.1//EN"
 "http://www.w3.org/Graphics/SVG/1.1/DTD/svg11.dtd">
<!-- Generated by graphviz version 2.43.0 (0)
 -->
<!-- Title: zero_mate::arm1176jzf_s::CCPU_Core::Execute Pages: 1 -->
<svg width="874pt" height="328pt"
 viewBox="0.00 0.00 874.00 327.50" xmlns="http://www.w3.org/2000/svg" xmlns:xlink="http://www.w3.org/1999/xlink">
<g id="graph0" class="graph" transform="scale(1 1) rotate(0) translate(4 323.5)">
<title>zero_mate::arm1176jzf_s::CCPU_Core::Execute</title>
<!-- Node1 -->
<g id="node1" class="node">
<title>Node1</title>
<g id="a_node1"><a xlink:title="Executes a PSR transfer instruction.">
<polygon fill="#bfbfbf" stroke="black" points="0,-215 0,-245 132,-245 132,-215 0,-215"/>
<text text-anchor="start" x="8" y="-233" font-family="Helvetica,sans-Serif" font-size="10.00">zero_mate::arm1176jzf</text>
<text text-anchor="middle" x="66" y="-222" font-family="Helvetica,sans-Serif" font-size="10.00">_s::CCPU_Core::Execute</text>
</a>
</g>
</g>
<!-- Node2 -->
<g id="node2" class="node">
<title>Node2</title>
<g id="a_node2"><a xlink:href="classzero__mate_1_1arm1176jzf__s_1_1CCPU__Core.html#a82f0fa55ec787c7a39bac81b7437aec2" target="_top" xlink:title="Executes an MRS instruction (move data from CPSR/SPSR to an ARM register).">
<polygon fill="none" stroke="black" points="168,-240 168,-270 327,-270 327,-240 168,-240"/>
<text text-anchor="start" x="176" y="-258" font-family="Helvetica,sans-Serif" font-size="10.00">zero_mate::arm1176jzf</text>
<text text-anchor="middle" x="247.5" y="-247" font-family="Helvetica,sans-Serif" font-size="10.00">_s::CCPU_Core::Execute_MRS</text>
</a>
</g>
</g>
<!-- Node1&#45;&gt;Node2 -->
<g id="edge1" class="edge">
<title>Node1&#45;&gt;Node2</title>
<path fill="none" stroke="midnightblue" d="M132.06,-239.06C140.42,-240.23 149.1,-241.43 157.76,-242.64"/>
<polygon fill="midnightblue" stroke="midnightblue" points="157.52,-246.14 167.91,-244.05 158.48,-239.21 157.52,-246.14"/>
</g>
<!-- Node7 -->
<g id="node7" class="node">
<title>Node7</title>
<g id="a_node7"><a xlink:href="classzero__mate_1_1arm1176jzf__s_1_1CCPU__Core.html#abe7461d09a52f28f99037717f61975c6" target="_top" xlink:title="Executes an MSR instruction (move data to CPSR/SPSR from an ARM register).">
<polygon fill="none" stroke="black" points="168,-191 168,-221 327,-221 327,-191 168,-191"/>
<text text-anchor="start" x="176" y="-209" font-family="Helvetica,sans-Serif" font-size="10.00">zero_mate::arm1176jzf</text>
<text text-anchor="middle" x="247.5" y="-198" font-family="Helvetica,sans-Serif" font-size="10.00">_s::CCPU_Core::Execute_MSR</text>
</a>
</g>
</g>
<!-- Node1&#45;&gt;Node7 -->
<g id="edge6" class="edge">
<title>Node1&#45;&gt;Node7</title>
<path fill="none" stroke="midnightblue" d="M132.06,-221.3C140.42,-220.18 149.1,-219.02 157.76,-217.86"/>
<polygon fill="midnightblue" stroke="midnightblue" points="158.46,-221.3 167.91,-216.51 157.53,-214.36 158.46,-221.3"/>
</g>
<!-- Node3 -->
<g id="node3" class="node">
<title>Node3</title>
<g id="a_node3"><a xlink:href="classzero__mate_1_1arm1176jzf__s_1_1CCPU__Context.html#acf66c6ff905975912dbf52133ddfeceb" target="_top" xlink:title="Returns a reference the CPSR register of the current CPU mode.">
<polygon fill="none" stroke="black" points="363,-289 363,-319 521,-319 521,-289 363,-289"/>
<text text-anchor="start" x="371" y="-307" font-family="Helvetica,sans-Serif" font-size="10.00">zero_mate::arm1176jzf</text>
<text text-anchor="middle" x="442" y="-296" font-family="Helvetica,sans-Serif" font-size="10.00">_s::CCPU_Context::Get_CPSR</text>
</a>
</g>
</g>
<!-- Node2&#45;&gt;Node3 -->
<g id="edge2" class="edge">
<title>Node2&#45;&gt;Node3</title>
<path fill="none" stroke="midnightblue" d="M307.56,-270.03C327.98,-275.23 351.04,-281.1 372.17,-286.48"/>
<polygon fill="midnightblue" stroke="midnightblue" points="371.49,-289.92 382.05,-288.99 373.22,-283.14 371.49,-289.92"/>
</g>
<!-- Node4 -->
<g id="node4" class="node">
<title>Node4</title>
<g id="a_node4"><a xlink:href="classzero__mate_1_1arm1176jzf__s_1_1CCPU__Context.html#ae00681efcbc4adfcfde001a67c5baeca" target="_top" xlink:title="Returns the value of the SPSR register of the current CPU mode.">
<polygon fill="none" stroke="black" points="363.5,-240 363.5,-270 520.5,-270 520.5,-240 363.5,-240"/>
<text text-anchor="start" x="371.5" y="-258" font-family="Helvetica,sans-Serif" font-size="10.00">zero_mate::arm1176jzf</text>
<text text-anchor="middle" x="442" y="-247" font-family="Helvetica,sans-Serif" font-size="10.00">_s::CCPU_Context::Get_SPSR</text>
</a>
</g>
</g>
<!-- Node2&#45;&gt;Node4 -->
<g id="edge3" class="edge">
<title>Node2&#45;&gt;Node4</title>
<path fill="none" stroke="midnightblue" d="M327.07,-255C335.67,-255 344.46,-255 353.15,-255"/>
<polygon fill="midnightblue" stroke="midnightblue" points="353.3,-258.5 363.3,-255 353.3,-251.5 353.3,-258.5"/>
</g>
<!-- Node5 -->
<g id="node5" class="node">
<title>Node5</title>
<g id="a_node5"><a xlink:href="classzero__mate_1_1arm1176jzf__s_1_1CCPU__Context.html#a050dada520ca82a21874045815c596a8" target="_top" xlink:title=" ">
<polygon fill="none" stroke="black" points="560,-240.5 560,-281.5 697,-281.5 697,-240.5 560,-240.5"/>
<text text-anchor="start" x="568" y="-269.5" font-family="Helvetica,sans-Serif" font-size="10.00">zero_mate::arm1176jzf</text>
<text text-anchor="start" x="568" y="-258.5" font-family="Helvetica,sans-Serif" font-size="10.00">_s::CCPU_Context::Verify</text>
<text text-anchor="middle" x="628.5" y="-247.5" font-family="Helvetica,sans-Serif" font-size="10.00">_SPSR_Accessibility</text>
</a>
</g>
</g>
<!-- Node4&#45;&gt;Node5 -->
<g id="edge4" class="edge">
<title>Node4&#45;&gt;Node5</title>
<path fill="none" stroke="midnightblue" d="M520.71,-257.53C530.26,-257.84 540.02,-258.15 549.57,-258.47"/>
<polygon fill="midnightblue" stroke="midnightblue" points="549.72,-261.97 559.83,-258.8 549.95,-254.98 549.72,-261.97"/>
</g>
<!-- Node6 -->
<g id="node6" class="node">
<title>Node6</title>
<g id="a_node6"><a xlink:href="classzero__mate_1_1arm1176jzf__s_1_1CCPU__Context.html#a6fc387fa0b0dd040c4e2463606d933e4" target="_top" xlink:title="Checks if the CPU mode passed in as a parameter supports the SPSR register or not.">
<polygon fill="none" stroke="black" points="736,-240.5 736,-281.5 866,-281.5 866,-240.5 736,-240.5"/>
<text text-anchor="start" x="744" y="-269.5" font-family="Helvetica,sans-Serif" font-size="10.00">zero_mate::arm1176jzf</text>
<text text-anchor="start" x="744" y="-258.5" font-family="Helvetica,sans-Serif" font-size="10.00">_s::CCPU_Context::Is</text>
<text text-anchor="middle" x="801" y="-247.5" font-family="Helvetica,sans-Serif" font-size="10.00">_Mode_With_No_SPSR</text>
</a>
</g>
</g>
<!-- Node5&#45;&gt;Node6 -->
<g id="edge5" class="edge">
<title>Node5&#45;&gt;Node6</title>
<path fill="none" stroke="midnightblue" d="M697.38,-261C706.72,-261 716.35,-261 725.8,-261"/>
<polygon fill="midnightblue" stroke="midnightblue" points="725.96,-264.5 735.96,-261 725.96,-257.5 725.96,-264.5"/>
</g>
<!-- Node7&#45;&gt;Node3 -->
<g id="edge7" class="edge">
<title>Node7&#45;&gt;Node3</title>
<path fill="none" stroke="midnightblue" d="M309.52,-221.12C315.7,-223.9 321.66,-227.16 327,-231 348.95,-246.76 340.97,-264.35 363,-280 365.12,-281.51 367.34,-282.92 369.63,-284.25"/>
<polygon fill="midnightblue" stroke="midnightblue" points="368.28,-287.49 378.78,-288.95 371.48,-281.27 368.28,-287.49"/>
</g>
<!-- Node7&#45;&gt;Node4 -->
<g id="edge10" class="edge">
<title>Node7&#45;&gt;Node4</title>
<path fill="none" stroke="midnightblue" d="M307.56,-221.03C327.98,-226.23 351.04,-232.1 372.17,-237.48"/>
<polygon fill="midnightblue" stroke="midnightblue" points="371.49,-240.92 382.05,-239.99 373.22,-234.14 371.49,-240.92"/>
</g>
<!-- Node8 -->
<g id="node8" class="node">
<title>Node8</title>
<g id="a_node8"><a xlink:href="classzero__mate_1_1arm1176jzf__s_1_1CCPU__Core.html#ac0b5e216097f56e428a5c67eb63a08d9" target="_top" xlink:title="Calculates the second immediate operand of a given instruction.">
<polygon fill="none" stroke="black" points="366,-38.5 366,-79.5 518,-79.5 518,-38.5 366,-38.5"/>
<text text-anchor="start" x="374" y="-67.5" font-family="Helvetica,sans-Serif" font-size="10.00">zero_mate::arm1176jzf</text>
<text text-anchor="start" x="374" y="-56.5" font-family="Helvetica,sans-Serif" font-size="10.00">_s::CCPU_Core::Get_Second</text>
<text text-anchor="middle" x="442" y="-45.5" font-family="Helvetica,sans-Serif" font-size="10.00">_Operand_Imm</text>
</a>
</g>
</g>
<!-- Node7&#45;&gt;Node8 -->
<g id="edge8" class="edge">
<title>Node7&#45;&gt;Node8</title>
<path fill="none" stroke="midnightblue" d="M268.38,-190.82C300.82,-166.05 365.57,-116.6 405.89,-85.81"/>
<polygon fill="midnightblue" stroke="midnightblue" points="408.04,-88.58 413.86,-79.72 403.79,-83.01 408.04,-88.58"/>
</g>
<!-- Node10 -->
<g id="node10" class="node">
<title>Node10</title>
<g id="a_node10"><a xlink:href="classzero__mate_1_1arm1176jzf__s_1_1CCPU__Context.html#a53765299c790cc790e15deb2c701bd2a" target="_top" xlink:title="Sets a new value to the CPSR register.">
<polygon fill="none" stroke="black" points="364,-131 364,-161 520,-161 520,-131 364,-131"/>
<text text-anchor="start" x="372" y="-149" font-family="Helvetica,sans-Serif" font-size="10.00">zero_mate::arm1176jzf</text>
<text text-anchor="middle" x="442" y="-138" font-family="Helvetica,sans-Serif" font-size="10.00">_s::CCPU_Context::Set_CPSR</text>
</a>
</g>
</g>
<!-- Node7&#45;&gt;Node10 -->
<g id="edge11" class="edge">
<title>Node7&#45;&gt;Node10</title>
<path fill="none" stroke="midnightblue" d="M297.08,-190.86C323.16,-182.73 355.51,-172.65 382.92,-164.1"/>
<polygon fill="midnightblue" stroke="midnightblue" points="384.27,-167.35 392.77,-161.03 382.18,-160.67 384.27,-167.35"/>
</g>
<!-- Node14 -->
<g id="node14" class="node">
<title>Node14</title>
<g id="a_node14"><a xlink:href="classzero__mate_1_1arm1176jzf__s_1_1CCPU__Context.html#a1b322131a1168763d2b8083c17a1079b" target="_top" xlink:title="Sets the value of the SPSR register in the CPU mode passed in as a parameter.">
<polygon fill="none" stroke="black" points="364.5,-191 364.5,-221 519.5,-221 519.5,-191 364.5,-191"/>
<text text-anchor="start" x="372.5" y="-209" font-family="Helvetica,sans-Serif" font-size="10.00">zero_mate::arm1176jzf</text>
<text text-anchor="middle" x="442" y="-198" font-family="Helvetica,sans-Serif" font-size="10.00">_s::CCPU_Context::Set_SPSR</text>
</a>
</g>
</g>
<!-- Node7&#45;&gt;Node14 -->
<g id="edge15" class="edge">
<title>Node7&#45;&gt;Node14</title>
<path fill="none" stroke="midnightblue" d="M327.07,-206C335.99,-206 345.11,-206 354.12,-206"/>
<polygon fill="midnightblue" stroke="midnightblue" points="354.23,-209.5 364.23,-206 354.23,-202.5 354.23,-209.5"/>
</g>
<!-- Node9 -->
<g id="node9" class="node">
<title>Node9</title>
<g id="a_node9"><a xlink:href="classzero__mate_1_1arm1176jzf__s_1_1CCPU__Context.html#a0013811c3eef6d91ddfd2423a08889ef" target="_top" xlink:title="Checks whether a given flag is set in the CPSR register of the current CPU mode.">
<polygon fill="none" stroke="black" points="563.5,-0.5 563.5,-41.5 693.5,-41.5 693.5,-0.5 563.5,-0.5"/>
<text text-anchor="start" x="571.5" y="-29.5" font-family="Helvetica,sans-Serif" font-size="10.00">zero_mate::arm1176jzf</text>
<text text-anchor="start" x="571.5" y="-18.5" font-family="Helvetica,sans-Serif" font-size="10.00">_s::CCPU_Context::Is</text>
<text text-anchor="middle" x="628.5" y="-7.5" font-family="Helvetica,sans-Serif" font-size="10.00">_Flag_Set</text>
</a>
</g>
</g>
<!-- Node8&#45;&gt;Node9 -->
<g id="edge9" class="edge">
<title>Node8&#45;&gt;Node9</title>
<path fill="none" stroke="midnightblue" d="M518.04,-43.54C529.69,-41.14 541.73,-38.67 553.36,-36.27"/>
<polygon fill="midnightblue" stroke="midnightblue" points="554.37,-39.64 563.46,-34.19 552.96,-32.78 554.37,-39.64"/>
</g>
<!-- Node11 -->
<g id="node11" class="node">
<title>Node11</title>
<g id="a_node11"><a xlink:href="classzero__mate_1_1arm1176jzf__s_1_1CCPU__Context.html#aa740f9219bb413d707ac72f373e60d3a" target="_top" xlink:title="Returns the current mode of the CPU.">
<polygon fill="none" stroke="black" points="563.5,-120.5 563.5,-161.5 693.5,-161.5 693.5,-120.5 563.5,-120.5"/>
<text text-anchor="start" x="571.5" y="-149.5" font-family="Helvetica,sans-Serif" font-size="10.00">zero_mate::arm1176jzf</text>
<text text-anchor="start" x="571.5" y="-138.5" font-family="Helvetica,sans-Serif" font-size="10.00">_s::CCPU_Context::Get</text>
<text text-anchor="middle" x="628.5" y="-127.5" font-family="Helvetica,sans-Serif" font-size="10.00">_CPU_Mode</text>
</a>
</g>
</g>
<!-- Node10&#45;&gt;Node11 -->
<g id="edge12" class="edge">
<title>Node10&#45;&gt;Node11</title>
<path fill="none" stroke="midnightblue" d="M520.18,-143.91C531.1,-143.61 542.32,-143.31 553.19,-143.01"/>
<polygon fill="midnightblue" stroke="midnightblue" points="553.58,-146.5 563.48,-142.73 553.39,-139.51 553.58,-146.5"/>
</g>
<!-- Node12 -->
<g id="node12" class="node">
<title>Node12</title>
<g id="a_node12"><a xlink:href="classzero__mate_1_1arm1176jzf__s_1_1CCPU__Context.html#aa53dae8f0dd16d916a852e572dfa95ba" target="_top" xlink:title="Checks if there is an invalid attempt to change the control bits of the CPSR register.">
<polygon fill="none" stroke="black" points="557,-60.5 557,-101.5 700,-101.5 700,-60.5 557,-60.5"/>
<text text-anchor="start" x="565" y="-89.5" font-family="Helvetica,sans-Serif" font-size="10.00">zero_mate::arm1176jzf</text>
<text text-anchor="start" x="565" y="-78.5" font-family="Helvetica,sans-Serif" font-size="10.00">_s::CCPU_Context::Invalid</text>
<text text-anchor="middle" x="628.5" y="-67.5" font-family="Helvetica,sans-Serif" font-size="10.00">_Change_Of_Control_Bits</text>
</a>
</g>
</g>
<!-- Node10&#45;&gt;Node12 -->
<g id="edge13" class="edge">
<title>Node10&#45;&gt;Node12</title>
<path fill="none" stroke="midnightblue" d="M485.79,-130.92C507.69,-123.21 534.86,-113.64 559.54,-104.94"/>
<polygon fill="midnightblue" stroke="midnightblue" points="560.95,-108.16 569.22,-101.53 558.62,-101.55 560.95,-108.16"/>
</g>
<!-- Node13 -->
<g id="node13" class="node">
<title>Node13</title>
<g id="a_node13"><a xlink:href="classzero__mate_1_1arm1176jzf__s_1_1CCPU__Context.html#a7efff674f8141eab73cb69099220f0d5" target="_top" xlink:title="Sets the mode of the CPU.">
<polygon fill="none" stroke="black" points="563.5,-180.5 563.5,-221.5 693.5,-221.5 693.5,-180.5 563.5,-180.5"/>
<text text-anchor="start" x="571.5" y="-209.5" font-family="Helvetica,sans-Serif" font-size="10.00">zero_mate::arm1176jzf</text>
<text text-anchor="start" x="571.5" y="-198.5" font-family="Helvetica,sans-Serif" font-size="10.00">_s::CCPU_Context::Set</text>
<text text-anchor="middle" x="628.5" y="-187.5" font-family="Helvetica,sans-Serif" font-size="10.00">_CPU_Mode</text>
</a>
</g>
</g>
<!-- Node10&#45;&gt;Node13 -->
<g id="edge14" class="edge">
<title>Node10&#45;&gt;Node13</title>
<path fill="none" stroke="midnightblue" d="M493.42,-161.03C511.94,-166.55 533.31,-172.92 553.48,-178.93"/>
<polygon fill="midnightblue" stroke="midnightblue" points="552.68,-182.35 563.26,-181.85 554.68,-175.64 552.68,-182.35"/>
</g>
<!-- Node14&#45;&gt;Node5 -->
<g id="edge16" class="edge">
<title>Node14&#45;&gt;Node5</title>
<path fill="none" stroke="midnightblue" d="M493.42,-221.03C510.94,-226.25 531.02,-232.24 550.21,-237.96"/>
<polygon fill="midnightblue" stroke="midnightblue" points="549.26,-241.33 559.85,-240.83 551.26,-234.62 549.26,-241.33"/>
</g>
</g>
</svg>
