<?xml version="1.0" encoding="UTF-8" standalone="no"?>
<!DOCTYPE svg PUBLIC "-//W3C//DTD SVG 1.1//EN"
 "http://www.w3.org/Graphics/SVG/1.1/DTD/svg11.dtd">
<!-- Generated by graphviz version 2.43.0 (0)
 -->
<!-- Title: zero_mate::coprocessor::cp15::CC2::Extract_Bits_From_TTBR Pages: 1 -->
<svg width="739pt" height="155pt"
 viewBox="0.00 0.00 739.00 154.50" xmlns="http://www.w3.org/2000/svg" xmlns:xlink="http://www.w3.org/1999/xlink">
<g id="graph0" class="graph" transform="scale(1 1) rotate(0) translate(4 150.5)">
<title>zero_mate::coprocessor::cp15::CC2::Extract_Bits_From_TTBR</title>
<!-- Node1 -->
<g id="node1" class="node">
<title>Node1</title>
<g id="a_node1"><a xlink:title="Extracts bits determined by a given mask from a given secondary register.">
<polygon fill="#bfbfbf" stroke="black" points="595,-50 595,-91 731,-91 731,-50 595,-50"/>
<text text-anchor="start" x="603" y="-79" font-family="Helvetica,sans-Serif" font-size="10.00">zero_mate::coprocessor</text>
<text text-anchor="start" x="603" y="-68" font-family="Helvetica,sans-Serif" font-size="10.00">::cp15::CC2::Extract_Bits</text>
<text text-anchor="middle" x="663" y="-57" font-family="Helvetica,sans-Serif" font-size="10.00">_From_TTBR</text>
</a>
</g>
</g>
<!-- Node2 -->
<g id="node2" class="node">
<title>Node2</title>
<g id="a_node2"><a xlink:href="classzero__mate_1_1coprocessor_1_1cp15_1_1CC2.html#ae01856374ec8bac99ac7652c0d99de48" target="_top" xlink:title="Returns the physical address of a given page table.">
<polygon fill="none" stroke="black" points="396,-110.5 396,-140.5 559,-140.5 559,-110.5 396,-110.5"/>
<text text-anchor="start" x="404" y="-128.5" font-family="Helvetica,sans-Serif" font-size="10.00">zero_mate::coprocessor</text>
<text text-anchor="middle" x="477.5" y="-117.5" font-family="Helvetica,sans-Serif" font-size="10.00">::cp15::CC2::Get_TTB_Address</text>
</a>
</g>
</g>
<!-- Node1&#45;&gt;Node2 -->
<g id="edge1" class="edge">
<title>Node1&#45;&gt;Node2</title>
<path fill="none" stroke="midnightblue" d="M585.36,-93.47C566.22,-99.21 546.17,-105.22 528.67,-110.46"/>
<polygon fill="midnightblue" stroke="midnightblue" points="586.4,-96.81 594.97,-90.59 584.39,-90.11 586.4,-96.81"/>
</g>
<!-- Node5 -->
<g id="node5" class="node">
<title>Node5</title>
<g id="a_node5"><a xlink:href="classzero__mate_1_1coprocessor_1_1cp15_1_1CC2.html#ace026da873f481c05e741a3d0628752a" target="_top" xlink:title="Returns information about whether a given translation table is inner cacheable or not.">
<polygon fill="none" stroke="black" points="407.5,-50 407.5,-91 547.5,-91 547.5,-50 407.5,-50"/>
<text text-anchor="start" x="415.5" y="-79" font-family="Helvetica,sans-Serif" font-size="10.00">zero_mate::coprocessor</text>
<text text-anchor="start" x="415.5" y="-68" font-family="Helvetica,sans-Serif" font-size="10.00">::cp15::CC2::Is_TTB_Inner</text>
<text text-anchor="middle" x="477.5" y="-57" font-family="Helvetica,sans-Serif" font-size="10.00">_Cacheable</text>
</a>
</g>
</g>
<!-- Node1&#45;&gt;Node5 -->
<g id="edge4" class="edge">
<title>Node1&#45;&gt;Node5</title>
<path fill="none" stroke="midnightblue" d="M584.7,-70.5C572.35,-70.5 559.64,-70.5 547.5,-70.5"/>
<polygon fill="midnightblue" stroke="midnightblue" points="584.97,-74 594.97,-70.5 584.97,-67 584.97,-74"/>
</g>
<!-- Node6 -->
<g id="node6" class="node">
<title>Node6</title>
<g id="a_node6"><a xlink:href="classzero__mate_1_1coprocessor_1_1cp15_1_1CC2.html#ab66e2160652f6829589989b7ae05573d" target="_top" xlink:title="Returns information about whether a given translation table is shared among multiple CPU cores.">
<polygon fill="none" stroke="black" points="403,-0.5 403,-30.5 552,-30.5 552,-0.5 403,-0.5"/>
<text text-anchor="start" x="411" y="-18.5" font-family="Helvetica,sans-Serif" font-size="10.00">zero_mate::coprocessor</text>
<text text-anchor="middle" x="477.5" y="-7.5" font-family="Helvetica,sans-Serif" font-size="10.00">::cp15::CC2::Is_TTB_Shared</text>
</a>
</g>
</g>
<!-- Node1&#45;&gt;Node6 -->
<g id="edge5" class="edge">
<title>Node1&#45;&gt;Node6</title>
<path fill="none" stroke="midnightblue" d="M585.36,-47.53C566.22,-41.79 546.17,-35.78 528.67,-30.54"/>
<polygon fill="midnightblue" stroke="midnightblue" points="584.39,-50.89 594.97,-50.41 586.4,-44.19 584.39,-50.89"/>
</g>
<!-- Node3 -->
<g id="node3" class="node">
<title>Node3</title>
<g id="a_node3"><a xlink:href="classzero__mate_1_1arm1176jzf__s_1_1mmu_1_1CMMU.html#a2af0846c0e594495eeeb2ec51717dfa7" target="_top" xlink:title="Fetches the first level page tables (tbbr0, tbbr1) from the RAM.">
<polygon fill="none" stroke="black" points="230,-105 230,-146 360,-146 360,-105 230,-105"/>
<text text-anchor="start" x="238" y="-134" font-family="Helvetica,sans-Serif" font-size="10.00">zero_mate::arm1176jzf</text>
<text text-anchor="start" x="238" y="-123" font-family="Helvetica,sans-Serif" font-size="10.00">_s::mmu::CMMU::Fetch</text>
<text text-anchor="middle" x="295" y="-112" font-family="Helvetica,sans-Serif" font-size="10.00">_DL1_From_RAM</text>
</a>
</g>
</g>
<!-- Node2&#45;&gt;Node3 -->
<g id="edge2" class="edge">
<title>Node2&#45;&gt;Node3</title>
<path fill="none" stroke="midnightblue" d="M385.66,-125.5C377.05,-125.5 368.45,-125.5 360.16,-125.5"/>
<polygon fill="midnightblue" stroke="midnightblue" points="385.75,-129 395.75,-125.5 385.75,-122 385.75,-129"/>
</g>
<!-- Node4 -->
<g id="node4" class="node">
<title>Node4</title>
<g id="a_node4"><a xlink:href="classzero__mate_1_1arm1176jzf__s_1_1mmu_1_1CMMU.html#a7bc1002a8f1032547deee07589cbbb84" target="_top" xlink:title="Converts a given virtual address into a physical address.">
<polygon fill="none" stroke="black" points="0,-110.5 0,-140.5 194,-140.5 194,-110.5 0,-110.5"/>
<text text-anchor="start" x="8" y="-128.5" font-family="Helvetica,sans-Serif" font-size="10.00">zero_mate::arm1176jzf</text>
<text text-anchor="middle" x="97" y="-117.5" font-family="Helvetica,sans-Serif" font-size="10.00">_s::mmu::CMMU::Get_Physical_Addr</text>
</a>
</g>
</g>
<!-- Node3&#45;&gt;Node4 -->
<g id="edge3" class="edge">
<title>Node3&#45;&gt;Node4</title>
<path fill="none" stroke="midnightblue" d="M219.79,-125.5C211.45,-125.5 202.87,-125.5 194.3,-125.5"/>
<polygon fill="midnightblue" stroke="midnightblue" points="219.82,-129 229.82,-125.5 219.82,-122 219.82,-129"/>
</g>
</g>
</svg>
