<?xml version="1.0" encoding="UTF-8" standalone="no"?>
<!DOCTYPE svg PUBLIC "-//W3C//DTD SVG 1.1//EN"
 "http://www.w3.org/Graphics/SVG/1.1/DTD/svg11.dtd">
<!-- Generated by graphviz version 2.43.0 (0)
 -->
<!-- Title: zero_mate::gui::CSource_Code_Window::Render_Code_Block Pages: 1 -->
<svg width="892pt" height="259pt"
 viewBox="0.00 0.00 892.00 259.00" xmlns="http://www.w3.org/2000/svg" xmlns:xlink="http://www.w3.org/1999/xlink">
<g id="graph0" class="graph" transform="scale(1 1) rotate(0) translate(4 255)">
<title>zero_mate::gui::CSource_Code_Window::Render_Code_Block</title>
<!-- Node1 -->
<g id="node1" class="node">
<title>Node1</title>
<g id="a_node1"><a xlink:title="Renders a block of code (a single function/method).">
<polygon fill="#bfbfbf" stroke="black" points="0,-110.5 0,-140.5 193,-140.5 193,-110.5 0,-110.5"/>
<text text-anchor="start" x="8" y="-128.5" font-family="Helvetica,sans-Serif" font-size="10.00">zero_mate::gui::CSource</text>
<text text-anchor="middle" x="96.5" y="-117.5" font-family="Helvetica,sans-Serif" font-size="10.00">_Code_Window::Render_Code_Block</text>
</a>
</g>
</g>
<!-- Node2 -->
<g id="node2" class="node">
<title>Node2</title>
<g id="a_node2"><a xlink:href="namespacezero__mate_1_1gui_1_1color.html#a60970f5b5a08721617863b63cc7cc292" target="_top" xlink:title="Assigns a string its corresponding color based on its hash value.">
<polygon fill="none" stroke="black" points="257.5,-220.5 257.5,-250.5 403.5,-250.5 403.5,-220.5 257.5,-220.5"/>
<text text-anchor="start" x="265.5" y="-238.5" font-family="Helvetica,sans-Serif" font-size="10.00">zero_mate::gui::color</text>
<text text-anchor="middle" x="330.5" y="-227.5" font-family="Helvetica,sans-Serif" font-size="10.00">::Assign_Color_From_Hash</text>
</a>
</g>
</g>
<!-- Node1&#45;&gt;Node2 -->
<g id="edge1" class="edge">
<title>Node1&#45;&gt;Node2</title>
<path fill="none" stroke="midnightblue" d="M116.4,-140.62C140.96,-159.56 185.85,-191.8 229,-210.5 235.04,-213.12 241.41,-215.5 247.89,-217.65"/>
<polygon fill="midnightblue" stroke="midnightblue" points="246.85,-221 257.44,-220.66 248.95,-214.32 246.85,-221"/>
</g>
<!-- Node3 -->
<g id="node3" class="node">
<title>Node3</title>
<g id="a_node3"><a xlink:href="classzero__mate_1_1gui_1_1CSource__Code__Window.html#a8ab01667cca3406c621027962c2d22bd" target="_top" xlink:title="Extracts the class name from a given label (function name).">
<polygon fill="none" stroke="black" points="263,-160 263,-201 398,-201 398,-160 263,-160"/>
<text text-anchor="start" x="271" y="-189" font-family="Helvetica,sans-Serif" font-size="10.00">zero_mate::gui::CSource</text>
<text text-anchor="start" x="271" y="-178" font-family="Helvetica,sans-Serif" font-size="10.00">_Code_Window::Extract</text>
<text text-anchor="middle" x="330.5" y="-167" font-family="Helvetica,sans-Serif" font-size="10.00">_Class_Name</text>
</a>
</g>
</g>
<!-- Node1&#45;&gt;Node3 -->
<g id="edge2" class="edge">
<title>Node1&#45;&gt;Node3</title>
<path fill="none" stroke="midnightblue" d="M160.9,-140.53C189.34,-147.27 223.14,-155.29 252.99,-162.36"/>
<polygon fill="midnightblue" stroke="midnightblue" points="252.4,-165.82 262.94,-164.72 254.02,-159.01 252.4,-165.82"/>
</g>
<!-- Node4 -->
<g id="node4" class="node">
<title>Node4</title>
<g id="a_node4"><a xlink:href="classzero__mate_1_1gui_1_1CSource__Code__Window.html#ad8c35af3bc3c8881eeca1de82afc6b35" target="_top" xlink:title="Renders a table that containing disassembled instructions.">
<polygon fill="none" stroke="black" points="235,-110.5 235,-140.5 426,-140.5 426,-110.5 235,-110.5"/>
<text text-anchor="start" x="243" y="-128.5" font-family="Helvetica,sans-Serif" font-size="10.00">zero_mate::gui::CSource</text>
<text text-anchor="middle" x="330.5" y="-117.5" font-family="Helvetica,sans-Serif" font-size="10.00">_Code_Window::Render_Code_Table</text>
</a>
</g>
</g>
<!-- Node1&#45;&gt;Node4 -->
<g id="edge3" class="edge">
<title>Node1&#45;&gt;Node4</title>
<path fill="none" stroke="midnightblue" d="M193.2,-125.5C203.61,-125.5 214.24,-125.5 224.74,-125.5"/>
<polygon fill="midnightblue" stroke="midnightblue" points="224.77,-129 234.77,-125.5 224.77,-122 224.77,-129"/>
</g>
<!-- Node8 -->
<g id="node8" class="node">
<title>Node8</title>
<g id="a_node8"><a xlink:href="classzero__mate_1_1gui_1_1CSource__Code__Window.html#ad485f4213e9fff6ac5327683e2e6abc7" target="_top" xlink:title="Checks if the block of code which is currently being rendered should be highlighted or not.">
<polygon fill="none" stroke="black" points="251,-50 251,-91 410,-91 410,-50 251,-50"/>
<text text-anchor="start" x="259" y="-79" font-family="Helvetica,sans-Serif" font-size="10.00">zero_mate::gui::CSource</text>
<text text-anchor="start" x="259" y="-68" font-family="Helvetica,sans-Serif" font-size="10.00">_Code_Window::Should_Code</text>
<text text-anchor="middle" x="330.5" y="-57" font-family="Helvetica,sans-Serif" font-size="10.00">_Block_Be_Highlighted</text>
</a>
</g>
</g>
<!-- Node1&#45;&gt;Node8 -->
<g id="edge7" class="edge">
<title>Node1&#45;&gt;Node8</title>
<path fill="none" stroke="midnightblue" d="M160.9,-110.47C185.63,-104.61 214.41,-97.78 241.12,-91.45"/>
<polygon fill="midnightblue" stroke="midnightblue" points="241.93,-94.86 250.85,-89.14 240.32,-88.05 241.93,-94.86"/>
</g>
<!-- Node9 -->
<g id="node9" class="node">
<title>Node9</title>
<g id="a_node9"><a xlink:href="classzero__mate_1_1gui_1_1CSource__Code__Window.html#a0fa8c26175b9585a867f343c1148d258" target="_top" xlink:title="Skips a block of code (function) which is collapsed and therefore not visible to the user.">
<polygon fill="none" stroke="black" points="229,-0.5 229,-30.5 432,-30.5 432,-0.5 229,-0.5"/>
<text text-anchor="start" x="237" y="-18.5" font-family="Helvetica,sans-Serif" font-size="10.00">zero_mate::gui::CSource</text>
<text text-anchor="middle" x="330.5" y="-7.5" font-family="Helvetica,sans-Serif" font-size="10.00">_Code_Window::Skip_Collapsed_Block</text>
</a>
</g>
</g>
<!-- Node1&#45;&gt;Node9 -->
<g id="edge8" class="edge">
<title>Node1&#45;&gt;Node9</title>
<path fill="none" stroke="midnightblue" d="M116.4,-110.38C140.96,-91.44 185.85,-59.2 229,-40.5 234.79,-37.99 240.89,-35.7 247.09,-33.61"/>
<polygon fill="midnightblue" stroke="midnightblue" points="248.43,-36.86 256.9,-30.5 246.31,-30.19 248.43,-36.86"/>
</g>
<!-- Node5 -->
<g id="node5" class="node">
<title>Node5</title>
<g id="a_node5"><a xlink:href="classzero__mate_1_1gui_1_1CSource__Code__Window.html#a92af51ccb5ebca752cddaac27c38f1f8" target="_top" xlink:title="Renders the body of a source code table.">
<polygon fill="none" stroke="black" points="468,-137.5 468,-167.5 659,-167.5 659,-137.5 468,-137.5"/>
<text text-anchor="start" x="476" y="-155.5" font-family="Helvetica,sans-Serif" font-size="10.00">zero_mate::gui::CSource</text>
<text text-anchor="middle" x="563.5" y="-144.5" font-family="Helvetica,sans-Serif" font-size="10.00">_Code_Window::Render_Table_Body</text>
</a>
</g>
</g>
<!-- Node4&#45;&gt;Node5 -->
<g id="edge4" class="edge">
<title>Node4&#45;&gt;Node5</title>
<path fill="none" stroke="midnightblue" d="M426.12,-136.56C436.51,-137.77 447.13,-139.02 457.63,-140.24"/>
<polygon fill="midnightblue" stroke="midnightblue" points="457.31,-143.73 467.65,-141.41 458.12,-136.78 457.31,-143.73"/>
</g>
<!-- Node7 -->
<g id="node7" class="node">
<title>Node7</title>
<g id="a_node7"><a xlink:href="classzero__mate_1_1gui_1_1CSource__Code__Window.html#aa46c591d1c9bb994ccee55d371919e37" target="_top" xlink:title="Renders table headings (breakpoint, address, opcode, disassembly)">
<polygon fill="none" stroke="black" points="483,-77 483,-118 644,-118 644,-77 483,-77"/>
<text text-anchor="start" x="491" y="-106" font-family="Helvetica,sans-Serif" font-size="10.00">zero_mate::gui::CSource</text>
<text text-anchor="start" x="491" y="-95" font-family="Helvetica,sans-Serif" font-size="10.00">_Code_Window::Render_Table</text>
<text text-anchor="middle" x="563.5" y="-84" font-family="Helvetica,sans-Serif" font-size="10.00">_Headings</text>
</a>
</g>
</g>
<!-- Node4&#45;&gt;Node7 -->
<g id="edge6" class="edge">
<title>Node4&#45;&gt;Node7</title>
<path fill="none" stroke="midnightblue" d="M426.12,-114.03C441.56,-112.16 457.5,-110.23 472.81,-108.37"/>
<polygon fill="midnightblue" stroke="midnightblue" points="473.27,-111.84 482.77,-107.16 472.42,-104.89 473.27,-111.84"/>
</g>
<!-- Node6 -->
<g id="node6" class="node">
<title>Node6</title>
<g id="a_node6"><a xlink:href="classzero__mate_1_1gui_1_1CSource__Code__Window.html#a854994af8a4bb90df17e2e24c8d7a3a5" target="_top" xlink:title="Renders a single breakpoint.">
<polygon fill="none" stroke="black" points="695,-137.5 695,-167.5 884,-167.5 884,-137.5 695,-137.5"/>
<text text-anchor="start" x="703" y="-155.5" font-family="Helvetica,sans-Serif" font-size="10.00">zero_mate::gui::CSource</text>
<text text-anchor="middle" x="789.5" y="-144.5" font-family="Helvetica,sans-Serif" font-size="10.00">_Code_Window::Render_Breakpoint</text>
</a>
</g>
</g>
<!-- Node5&#45;&gt;Node6 -->
<g id="edge5" class="edge">
<title>Node5&#45;&gt;Node6</title>
<path fill="none" stroke="midnightblue" d="M659.17,-152.5C667.67,-152.5 676.3,-152.5 684.87,-152.5"/>
<polygon fill="midnightblue" stroke="midnightblue" points="684.88,-156 694.88,-152.5 684.88,-149 684.88,-156"/>
</g>
</g>
</svg>
