<?xml version="1.0" encoding="UTF-8" standalone="no"?>
<!DOCTYPE svg PUBLIC "-//W3C//DTD SVG 1.1//EN"
 "http://www.w3.org/Graphics/SVG/1.1/DTD/svg11.dtd">
<!-- Generated by graphviz version 2.43.0 (0)
 -->
<!-- Title: zero_mate::gui::CLog_Window::Clear Pages: 1 -->
<svg width="632pt" height="100pt"
 viewBox="0.00 0.00 632.00 99.50" xmlns="http://www.w3.org/2000/svg" xmlns:xlink="http://www.w3.org/1999/xlink">
<g id="graph0" class="graph" transform="scale(1 1) rotate(0) translate(4 95.5)">
<title>zero_mate::gui::CLog_Window::Clear</title>
<!-- Node1 -->
<g id="node1" class="node">
<title>Node1</title>
<g id="a_node1"><a xlink:title="Clears all log messages.">
<polygon fill="#bfbfbf" stroke="black" points="505,-33 505,-63 624,-63 624,-33 505,-33"/>
<text text-anchor="start" x="513" y="-51" font-family="Helvetica,sans-Serif" font-size="10.00">zero_mate::gui::CLog</text>
<text text-anchor="middle" x="564.5" y="-40" font-family="Helvetica,sans-Serif" font-size="10.00">_Window::Clear</text>
</a>
</g>
</g>
<!-- Node2 -->
<g id="node2" class="node">
<title>Node2</title>
<g id="a_node2"><a xlink:href="classzero__mate_1_1gui_1_1CLog__Window.html#a3aa41a902142abbf211f567d89b77f21" target="_top" xlink:title="Creates an instance of the class.">
<polygon fill="none" stroke="black" points="335,-61 335,-91 469,-91 469,-61 335,-61"/>
<text text-anchor="start" x="343" y="-79" font-family="Helvetica,sans-Serif" font-size="10.00">zero_mate::gui::CLog</text>
<text text-anchor="middle" x="402" y="-68" font-family="Helvetica,sans-Serif" font-size="10.00">_Window::CLog_Window</text>
</a>
</g>
</g>
<!-- Node1&#45;&gt;Node2 -->
<g id="edge1" class="edge">
<title>Node1&#45;&gt;Node2</title>
<path fill="none" stroke="midnightblue" d="M494.78,-59.99C486.29,-61.47 477.62,-62.98 469.17,-64.46"/>
<polygon fill="midnightblue" stroke="midnightblue" points="495.4,-63.43 504.65,-58.27 494.19,-56.54 495.4,-63.43"/>
</g>
<!-- Node3 -->
<g id="node3" class="node">
<title>Node3</title>
<g id="a_node3"><a xlink:href="classzero__mate_1_1gui_1_1CLog__Window.html#aada4dbfcfe761cd1f7f050a866a4e02c" target="_top" xlink:title="Renders a clear button for clearing the message area.">
<polygon fill="none" stroke="black" points="336.5,-0.5 336.5,-41.5 467.5,-41.5 467.5,-0.5 336.5,-0.5"/>
<text text-anchor="start" x="344.5" y="-29.5" font-family="Helvetica,sans-Serif" font-size="10.00">zero_mate::gui::CLog</text>
<text text-anchor="start" x="344.5" y="-18.5" font-family="Helvetica,sans-Serif" font-size="10.00">_Window::Render_Clear</text>
<text text-anchor="middle" x="402" y="-7.5" font-family="Helvetica,sans-Serif" font-size="10.00">_Button</text>
</a>
</g>
</g>
<!-- Node1&#45;&gt;Node3 -->
<g id="edge2" class="edge">
<title>Node1&#45;&gt;Node3</title>
<path fill="none" stroke="midnightblue" d="M494.61,-36.41C485.62,-34.9 476.44,-33.35 467.53,-31.86"/>
<polygon fill="midnightblue" stroke="midnightblue" points="494.2,-39.89 504.65,-38.1 495.37,-32.99 494.2,-39.89"/>
</g>
<!-- Node4 -->
<g id="node4" class="node">
<title>Node4</title>
<g id="a_node4"><a xlink:href="classzero__mate_1_1gui_1_1CLog__Window.html#ab5d91eb4a2187a347f7c4a9ba84a527d" target="_top" xlink:title="Renders the top bar of the window (the options, clear button, and the filter)">
<polygon fill="none" stroke="black" points="155,-6 155,-36 299,-36 299,-6 155,-6"/>
<text text-anchor="start" x="163" y="-24" font-family="Helvetica,sans-Serif" font-size="10.00">zero_mate::gui::CLog</text>
<text text-anchor="middle" x="227" y="-13" font-family="Helvetica,sans-Serif" font-size="10.00">_Window::Render_Top_Bar</text>
</a>
</g>
</g>
<!-- Node3&#45;&gt;Node4 -->
<g id="edge3" class="edge">
<title>Node3&#45;&gt;Node4</title>
<path fill="none" stroke="midnightblue" d="M326.07,-21C317.11,-21 307.98,-21 299.07,-21"/>
<polygon fill="midnightblue" stroke="midnightblue" points="326.09,-24.5 336.09,-21 326.09,-17.5 326.09,-24.5"/>
</g>
<!-- Node5 -->
<g id="node5" class="node">
<title>Node5</title>
<g id="a_node5"><a xlink:href="classzero__mate_1_1gui_1_1CLog__Window.html#a679fe192aa1335396f06e63678bb71d5" target="_top" xlink:title="Renders the window (IGUI_Window interface).">
<polygon fill="none" stroke="black" points="0,-6 0,-36 119,-36 119,-6 0,-6"/>
<text text-anchor="start" x="8" y="-24" font-family="Helvetica,sans-Serif" font-size="10.00">zero_mate::gui::CLog</text>
<text text-anchor="middle" x="59.5" y="-13" font-family="Helvetica,sans-Serif" font-size="10.00">_Window::Render</text>
</a>
</g>
</g>
<!-- Node4&#45;&gt;Node5 -->
<g id="edge4" class="edge">
<title>Node4&#45;&gt;Node5</title>
<path fill="none" stroke="midnightblue" d="M144.74,-21C136.11,-21 127.45,-21 119.14,-21"/>
<polygon fill="midnightblue" stroke="midnightblue" points="144.85,-24.5 154.85,-21 144.85,-17.5 144.85,-24.5"/>
</g>
</g>
</svg>
