<?xml version="1.0" encoding="UTF-8" standalone="no"?>
<!DOCTYPE svg PUBLIC "-//W3C//DTD SVG 1.1//EN"
 "http://www.w3.org/Graphics/SVG/1.1/DTD/svg11.dtd">
<!-- Generated by graphviz version 2.43.0 (0)
 -->
<!-- Title: zero_mate::arm1176jzf_s::CCPU_Context::Get_CPU_Mode Pages: 1 -->
<svg width="693pt" height="247pt"
 viewBox="0.00 0.00 693.00 246.50" xmlns="http://www.w3.org/2000/svg" xmlns:xlink="http://www.w3.org/1999/xlink">
<g id="graph0" class="graph" transform="scale(1 1) rotate(0) translate(4 242.5)">
<title>zero_mate::arm1176jzf_s::CCPU_Context::Get_CPU_Mode</title>
<!-- Node1 -->
<g id="node1" class="node">
<title>Node1</title>
<g id="a_node1"><a xlink:title=" ">
<polygon fill="#bfbfbf" stroke="black" points="555,-88 555,-129 685,-129 685,-88 555,-88"/>
<text text-anchor="start" x="563" y="-117" font-family="Helvetica,sans-Serif" font-size="10.00">zero_mate::arm1176jzf</text>
<text text-anchor="start" x="563" y="-106" font-family="Helvetica,sans-Serif" font-size="10.00">_s::CCPU_Context::Get</text>
<text text-anchor="middle" x="620" y="-95" font-family="Helvetica,sans-Serif" font-size="10.00">_CPU_Mode</text>
</a>
</g>
</g>
<!-- Node2 -->
<g id="node2" class="node">
<title>Node2</title>
<g id="a_node2"><a xlink:href="classzero__mate_1_1arm1176jzf__s_1_1CCPU__Core.html#a78980460ec7632099c51e96226a08f31" target="_top" xlink:title="Determines the mode of the CPU that should be used in a block data transfer instruction.">
<polygon fill="none" stroke="black" points="368,-197 368,-238 514,-238 514,-197 368,-197"/>
<text text-anchor="start" x="376" y="-226" font-family="Helvetica,sans-Serif" font-size="10.00">zero_mate::arm1176jzf</text>
<text text-anchor="start" x="376" y="-215" font-family="Helvetica,sans-Serif" font-size="10.00">_s::CCPU_Core::Determine</text>
<text text-anchor="middle" x="441" y="-204" font-family="Helvetica,sans-Serif" font-size="10.00">_CPU_Mode</text>
</a>
</g>
</g>
<!-- Node1&#45;&gt;Node2 -->
<g id="edge1" class="edge">
<title>Node1&#45;&gt;Node2</title>
<path fill="none" stroke="midnightblue" d="M589.24,-135.89C570.19,-152.4 544.37,-172.97 519,-187.5 513.15,-190.85 506.85,-193.98 500.47,-196.86"/>
<polygon fill="midnightblue" stroke="midnightblue" points="591.77,-138.32 596.96,-129.09 587.14,-133.07 591.77,-138.32"/>
</g>
<!-- Node4 -->
<g id="node4" class="node">
<title>Node4</title>
<g id="a_node4"><a xlink:href="classzero__mate_1_1arm1176jzf__s_1_1CCPU__Core.html#a92c997ad914fb73cec7feb5fa26d8ead" target="_top" xlink:title="Executes a data processing instruction.">
<polygon fill="none" stroke="black" points="181.5,-71.5 181.5,-101.5 313.5,-101.5 313.5,-71.5 181.5,-71.5"/>
<text text-anchor="start" x="189.5" y="-89.5" font-family="Helvetica,sans-Serif" font-size="10.00">zero_mate::arm1176jzf</text>
<text text-anchor="middle" x="247.5" y="-78.5" font-family="Helvetica,sans-Serif" font-size="10.00">_s::CCPU_Core::Execute</text>
</a>
</g>
</g>
<!-- Node1&#45;&gt;Node4 -->
<g id="edge3" class="edge">
<title>Node1&#45;&gt;Node4</title>
<path fill="none" stroke="midnightblue" d="M544.73,-104.09C477.13,-100.08 378.3,-94.21 313.69,-90.37"/>
<polygon fill="midnightblue" stroke="midnightblue" points="544.7,-107.59 554.89,-104.69 545.11,-100.61 544.7,-107.59"/>
</g>
<!-- Node5 -->
<g id="node5" class="node">
<title>Node5</title>
<g id="a_node5"><a xlink:href="classzero__mate_1_1arm1176jzf__s_1_1CCPU__Context.html#a573470217091c27cf30f1411ea453e5d" target="_top" xlink:title=" ">
<polygon fill="none" stroke="black" points="376,-137 376,-178 506,-178 506,-137 376,-137"/>
<text text-anchor="start" x="384" y="-166" font-family="Helvetica,sans-Serif" font-size="10.00">zero_mate::arm1176jzf</text>
<text text-anchor="start" x="384" y="-155" font-family="Helvetica,sans-Serif" font-size="10.00">_s::CCPU_Context::Is</text>
<text text-anchor="middle" x="441" y="-144" font-family="Helvetica,sans-Serif" font-size="10.00">_In_Privileged_Mode</text>
</a>
</g>
</g>
<!-- Node1&#45;&gt;Node5 -->
<g id="edge4" class="edge">
<title>Node1&#45;&gt;Node5</title>
<path fill="none" stroke="midnightblue" d="M545.08,-128.96C532.18,-132.54 518.85,-136.23 506.23,-139.72"/>
<polygon fill="midnightblue" stroke="midnightblue" points="546.14,-132.3 554.85,-126.26 544.28,-125.55 546.14,-132.3"/>
</g>
<!-- Node7 -->
<g id="node7" class="node">
<title>Node7</title>
<g id="a_node7"><a xlink:href="classzero__mate_1_1gui_1_1CRegisters__Window.html#a12beb19205052a340193be90b32e5717" target="_top" xlink:title=" ">
<polygon fill="none" stroke="black" points="367,-49.5 367,-79.5 515,-79.5 515,-49.5 367,-49.5"/>
<text text-anchor="start" x="375" y="-67.5" font-family="Helvetica,sans-Serif" font-size="10.00">zero_mate::gui::CRegisters</text>
<text text-anchor="middle" x="441" y="-56.5" font-family="Helvetica,sans-Serif" font-size="10.00">_Window::Render</text>
</a>
</g>
</g>
<!-- Node1&#45;&gt;Node7 -->
<g id="edge6" class="edge">
<title>Node1&#45;&gt;Node7</title>
<path fill="none" stroke="midnightblue" d="M545.1,-90.13C530.87,-86.59 516.13,-82.93 502.39,-79.51"/>
<polygon fill="midnightblue" stroke="midnightblue" points="544.3,-93.54 554.85,-92.55 545.99,-86.74 544.3,-93.54"/>
</g>
<!-- Node8 -->
<g id="node8" class="node">
<title>Node8</title>
<g id="a_node8"><a xlink:href="classzero__mate_1_1arm1176jzf__s_1_1CCPU__Context.html#a53765299c790cc790e15deb2c701bd2a" target="_top" xlink:title=" ">
<polygon fill="none" stroke="black" points="363,-0.5 363,-30.5 519,-30.5 519,-0.5 363,-0.5"/>
<text text-anchor="start" x="371" y="-18.5" font-family="Helvetica,sans-Serif" font-size="10.00">zero_mate::arm1176jzf</text>
<text text-anchor="middle" x="441" y="-7.5" font-family="Helvetica,sans-Serif" font-size="10.00">_s::CCPU_Context::Set_CPSR</text>
</a>
</g>
</g>
<!-- Node1&#45;&gt;Node8 -->
<g id="edge7" class="edge">
<title>Node1&#45;&gt;Node8</title>
<path fill="none" stroke="midnightblue" d="M585.42,-81.52C566.72,-67.5 542.52,-50.95 519,-39.5 512.2,-36.19 504.85,-33.21 497.47,-30.56"/>
<polygon fill="midnightblue" stroke="midnightblue" points="583.53,-84.48 593.6,-87.75 587.77,-78.91 583.53,-84.48"/>
</g>
<!-- Node3 -->
<g id="node3" class="node">
<title>Node3</title>
<g id="a_node3"><a xlink:href="classzero__mate_1_1arm1176jzf__s_1_1CCPU__Core.html#a524d4d2622a78e1c416bf4528700bc00" target="_top" xlink:title="Executes a block data transfer instruction.">
<polygon fill="none" stroke="black" points="181.5,-202.5 181.5,-232.5 313.5,-232.5 313.5,-202.5 181.5,-202.5"/>
<text text-anchor="start" x="189.5" y="-220.5" font-family="Helvetica,sans-Serif" font-size="10.00">zero_mate::arm1176jzf</text>
<text text-anchor="middle" x="247.5" y="-209.5" font-family="Helvetica,sans-Serif" font-size="10.00">_s::CCPU_Core::Execute</text>
</a>
</g>
</g>
<!-- Node2&#45;&gt;Node3 -->
<g id="edge2" class="edge">
<title>Node2&#45;&gt;Node3</title>
<path fill="none" stroke="midnightblue" d="M357.75,-217.5C343,-217.5 327.81,-217.5 313.63,-217.5"/>
<polygon fill="midnightblue" stroke="midnightblue" points="357.87,-221 367.87,-217.5 357.87,-214 357.87,-221"/>
</g>
<!-- Node6 -->
<g id="node6" class="node">
<title>Node6</title>
<g id="a_node6"><a xlink:href="classzero__mate_1_1arm1176jzf__s_1_1CCPU__Core.html#acd8902811a86afabf464f121d58628ee" target="_top" xlink:title="Executes a CPS instruction.">
<polygon fill="none" stroke="black" points="181.5,-142.5 181.5,-172.5 313.5,-172.5 313.5,-142.5 181.5,-142.5"/>
<text text-anchor="start" x="189.5" y="-160.5" font-family="Helvetica,sans-Serif" font-size="10.00">zero_mate::arm1176jzf</text>
<text text-anchor="middle" x="247.5" y="-149.5" font-family="Helvetica,sans-Serif" font-size="10.00">_s::CCPU_Core::Execute</text>
</a>
</g>
</g>
<!-- Node5&#45;&gt;Node6 -->
<g id="edge5" class="edge">
<title>Node5&#45;&gt;Node6</title>
<path fill="none" stroke="midnightblue" d="M365.49,-157.5C348.43,-157.5 330.42,-157.5 313.78,-157.5"/>
<polygon fill="midnightblue" stroke="midnightblue" points="365.97,-161 375.97,-157.5 365.97,-154 365.97,-161"/>
</g>
<!-- Node8&#45;&gt;Node4 -->
<g id="edge8" class="edge">
<title>Node8&#45;&gt;Node4</title>
<path fill="none" stroke="midnightblue" d="M379.72,-33.73C374.05,-35.62 368.4,-37.55 363,-39.5 335.81,-49.3 305.58,-61.77 283.02,-71.41"/>
<polygon fill="midnightblue" stroke="midnightblue" points="380.84,-37.05 389.26,-30.62 378.67,-30.4 380.84,-37.05"/>
</g>
<!-- Node9 -->
<g id="node9" class="node">
<title>Node9</title>
<g id="a_node9"><a xlink:href="classzero__mate_1_1arm1176jzf__s_1_1CCPU__Core.html#abe7461d09a52f28f99037717f61975c6" target="_top" xlink:title="Executes an MSR instruction (move data to CPSR/SPSR from an ARM register).">
<polygon fill="none" stroke="black" points="168,-0.5 168,-30.5 327,-30.5 327,-0.5 168,-0.5"/>
<text text-anchor="start" x="176" y="-18.5" font-family="Helvetica,sans-Serif" font-size="10.00">zero_mate::arm1176jzf</text>
<text text-anchor="middle" x="247.5" y="-7.5" font-family="Helvetica,sans-Serif" font-size="10.00">_s::CCPU_Core::Execute_MSR</text>
</a>
</g>
</g>
<!-- Node8&#45;&gt;Node9 -->
<g id="edge9" class="edge">
<title>Node8&#45;&gt;Node9</title>
<path fill="none" stroke="midnightblue" d="M352.67,-15.5C344.21,-15.5 335.65,-15.5 327.28,-15.5"/>
<polygon fill="midnightblue" stroke="midnightblue" points="352.94,-19 362.94,-15.5 352.94,-12 352.94,-19"/>
</g>
<!-- Node10 -->
<g id="node10" class="node">
<title>Node10</title>
<g id="a_node10"><a xlink:href="classzero__mate_1_1arm1176jzf__s_1_1CCPU__Core.html#a3a90c040b3cbe4545a9acc5e35acdd45" target="_top" xlink:title="Executes a PSR transfer instruction.">
<polygon fill="none" stroke="black" points="0,-0.5 0,-30.5 132,-30.5 132,-0.5 0,-0.5"/>
<text text-anchor="start" x="8" y="-18.5" font-family="Helvetica,sans-Serif" font-size="10.00">zero_mate::arm1176jzf</text>
<text text-anchor="middle" x="66" y="-7.5" font-family="Helvetica,sans-Serif" font-size="10.00">_s::CCPU_Core::Execute</text>
</a>
</g>
</g>
<!-- Node9&#45;&gt;Node10 -->
<g id="edge10" class="edge">
<title>Node9&#45;&gt;Node10</title>
<path fill="none" stroke="midnightblue" d="M157.71,-15.5C149.12,-15.5 140.52,-15.5 132.23,-15.5"/>
<polygon fill="midnightblue" stroke="midnightblue" points="157.77,-19 167.77,-15.5 157.77,-12 157.77,-19"/>
</g>
</g>
</svg>
