<?xml version="1.0" encoding="UTF-8" standalone="no"?>
<!DOCTYPE svg PUBLIC "-//W3C//DTD SVG 1.1//EN"
 "http://www.w3.org/Graphics/SVG/1.1/DTD/svg11.dtd">
<!-- Generated by graphviz version 2.43.0 (0)
 -->
<!-- Title: zero_mate::gui::CTop_Bar_Menu::Render Pages: 1 -->
<svg width="1233pt" height="214pt"
 viewBox="0.00 0.00 1233.00 213.50" xmlns="http://www.w3.org/2000/svg" xmlns:xlink="http://www.w3.org/1999/xlink">
<g id="graph0" class="graph" transform="scale(1 1) rotate(0) translate(4 209.5)">
<title>zero_mate::gui::CTop_Bar_Menu::Render</title>
<!-- Node1 -->
<g id="node1" class="node">
<title>Node1</title>
<g id="a_node1"><a xlink:title="Renders the bar (IGUI_Window interface).">
<polygon fill="#bfbfbf" stroke="black" points="0,-97.5 0,-127.5 119,-127.5 119,-97.5 0,-97.5"/>
<text text-anchor="start" x="8" y="-115.5" font-family="Helvetica,sans-Serif" font-size="10.00">zero_mate::gui::CTop</text>
<text text-anchor="middle" x="59.5" y="-104.5" font-family="Helvetica,sans-Serif" font-size="10.00">_Bar_Menu::Render</text>
</a>
</g>
</g>
<!-- Node2 -->
<g id="node2" class="node">
<title>Node2</title>
<g id="a_node2"><a xlink:href="classzero__mate_1_1gui_1_1CTop__Bar__Menu.html#a38a9c7aa06cf280f433a9b9fb8e0d2cb" target="_top" xlink:title="Opens up a file browser.">
<polygon fill="none" stroke="black" points="524,-164 524,-205 649,-205 649,-164 524,-164"/>
<text text-anchor="start" x="532" y="-193" font-family="Helvetica,sans-Serif" font-size="10.00">zero_mate::gui::CTop</text>
<text text-anchor="start" x="532" y="-182" font-family="Helvetica,sans-Serif" font-size="10.00">_Bar_Menu::Open_File</text>
<text text-anchor="middle" x="586.5" y="-171" font-family="Helvetica,sans-Serif" font-size="10.00">_Browser</text>
</a>
</g>
</g>
<!-- Node1&#45;&gt;Node2 -->
<g id="edge1" class="edge">
<title>Node1&#45;&gt;Node2</title>
<path fill="none" stroke="midnightblue" d="M108.24,-127.61C123.1,-131.91 139.63,-136.3 155,-139.5 279.6,-165.44 427.76,-176.75 513.77,-181.44"/>
<polygon fill="midnightblue" stroke="midnightblue" points="513.77,-184.94 523.95,-181.98 514.14,-177.95 513.77,-184.94"/>
</g>
<!-- Node8 -->
<g id="node8" class="node">
<title>Node8</title>
<g id="a_node8"><a xlink:href="classzero__mate_1_1gui_1_1CTop__Bar__Menu.html#a73157cb5a8ef5d61769403bbd700cfbf" target="_top" xlink:title="Reloads the kernel.">
<polygon fill="none" stroke="black" points="330,-122.5 330,-152.5 476,-152.5 476,-122.5 330,-122.5"/>
<text text-anchor="start" x="338" y="-140.5" font-family="Helvetica,sans-Serif" font-size="10.00">zero_mate::gui::CTop</text>
<text text-anchor="middle" x="403" y="-129.5" font-family="Helvetica,sans-Serif" font-size="10.00">_Bar_Menu::Reload_Kernel</text>
</a>
</g>
</g>
<!-- Node1&#45;&gt;Node8 -->
<g id="edge7" class="edge">
<title>Node1&#45;&gt;Node8</title>
<path fill="none" stroke="midnightblue" d="M119.21,-116.8C174.48,-120.84 257.81,-126.94 319.71,-131.48"/>
<polygon fill="midnightblue" stroke="midnightblue" points="319.61,-134.98 329.84,-132.22 320.12,-128 319.61,-134.98"/>
</g>
<!-- Node13 -->
<g id="node13" class="node">
<title>Node13</title>
<g id="a_node13"><a xlink:href="classzero__mate_1_1gui_1_1CTop__Bar__Menu.html#a8dbf5620303332f1ad1b7449793a3621" target="_top" xlink:title="Renders the file browser.">
<polygon fill="none" stroke="black" points="156.5,-68 156.5,-109 290.5,-109 290.5,-68 156.5,-68"/>
<text text-anchor="start" x="164.5" y="-97" font-family="Helvetica,sans-Serif" font-size="10.00">zero_mate::gui::CTop</text>
<text text-anchor="start" x="164.5" y="-86" font-family="Helvetica,sans-Serif" font-size="10.00">_Bar_Menu::Render_File</text>
<text text-anchor="middle" x="223.5" y="-75" font-family="Helvetica,sans-Serif" font-size="10.00">_Browser</text>
</a>
</g>
</g>
<!-- Node1&#45;&gt;Node13 -->
<g id="edge16" class="edge">
<title>Node1&#45;&gt;Node13</title>
<path fill="none" stroke="midnightblue" d="M119.44,-103.77C128.19,-102.47 137.3,-101.12 146.33,-99.78"/>
<polygon fill="midnightblue" stroke="midnightblue" points="147.09,-103.21 156.47,-98.28 146.07,-96.29 147.09,-103.21"/>
</g>
<!-- Node15 -->
<g id="node15" class="node">
<title>Node15</title>
<g id="a_node15"><a xlink:href="classzero__mate_1_1gui_1_1CTop__Bar__Menu.html#ae1db9ea2006086f7ea206b3fa98a1af7" target="_top" xlink:title="Shows the about window of the application.">
<polygon fill="none" stroke="black" points="155,-8 155,-49 292,-49 292,-8 155,-8"/>
<text text-anchor="start" x="163" y="-37" font-family="Helvetica,sans-Serif" font-size="10.00">zero_mate::gui::CTop</text>
<text text-anchor="start" x="163" y="-26" font-family="Helvetica,sans-Serif" font-size="10.00">_Bar_Menu::Show_About</text>
<text text-anchor="middle" x="223.5" y="-15" font-family="Helvetica,sans-Serif" font-size="10.00">_Window</text>
</a>
</g>
</g>
<!-- Node1&#45;&gt;Node15 -->
<g id="edge19" class="edge">
<title>Node1&#45;&gt;Node15</title>
<path fill="none" stroke="midnightblue" d="M85.39,-97.36C104.23,-86.12 130.89,-70.71 155,-58.5 158.34,-56.81 161.8,-55.11 165.31,-53.43"/>
<polygon fill="midnightblue" stroke="midnightblue" points="167.08,-56.47 174.65,-49.05 164.11,-50.13 167.08,-56.47"/>
</g>
<!-- Node3 -->
<g id="node3" class="node">
<title>Node3</title>
<g id="a_node3"><a xlink:href="classzero__mate_1_1utils_1_1CLogging__System.html#a57ed77e1a5cf822cea532cc5e05c3f60" target="_top" xlink:title="Logs an error message via all registered loggers.">
<polygon fill="none" stroke="black" points="695,-147.5 695,-177.5 841,-177.5 841,-147.5 695,-147.5"/>
<text text-anchor="start" x="703" y="-165.5" font-family="Helvetica,sans-Serif" font-size="10.00">zero_mate::utils::CLogging</text>
<text text-anchor="middle" x="768" y="-154.5" font-family="Helvetica,sans-Serif" font-size="10.00">_System::Error</text>
</a>
</g>
</g>
<!-- Node2&#45;&gt;Node3 -->
<g id="edge2" class="edge">
<title>Node2&#45;&gt;Node3</title>
<path fill="none" stroke="midnightblue" d="M649.02,-176.96C660.52,-175.55 672.7,-174.06 684.71,-172.59"/>
<polygon fill="midnightblue" stroke="midnightblue" points="685.23,-176.05 694.73,-171.36 684.38,-169.1 685.23,-176.05"/>
</g>
<!-- Node4 -->
<g id="node4" class="node">
<title>Node4</title>
<g id="a_node4"><a xlink:href="classzero__mate_1_1utils_1_1CLogging__System.html#a71ed11c796553cbe8fd99773406a1060" target="_top" xlink:title="Creates a formatted message to be logged.">
<polygon fill="none" stroke="black" points="877,-119 877,-160 1029,-160 1029,-119 877,-119"/>
<text text-anchor="start" x="885" y="-148" font-family="Helvetica,sans-Serif" font-size="10.00">zero_mate::utils::CLogging</text>
<text text-anchor="start" x="885" y="-137" font-family="Helvetica,sans-Serif" font-size="10.00">_System::Create_Formatted</text>
<text text-anchor="middle" x="953" y="-126" font-family="Helvetica,sans-Serif" font-size="10.00">_Log_Msg</text>
</a>
</g>
</g>
<!-- Node3&#45;&gt;Node4 -->
<g id="edge3" class="edge">
<title>Node3&#45;&gt;Node4</title>
<path fill="none" stroke="midnightblue" d="M841.06,-153.44C849.55,-152.38 858.26,-151.28 866.9,-150.2"/>
<polygon fill="midnightblue" stroke="midnightblue" points="867.51,-153.65 876.99,-148.93 866.63,-146.7 867.51,-153.65"/>
</g>
<!-- Node7 -->
<g id="node7" class="node">
<title>Node7</title>
<g id="a_node7"><a xlink:href="classzero__mate_1_1utils_1_1CLogging__System.html#ad371c67ef65763966ccf9291002e86f3" target="_top" xlink:title="Extract the filename from a given location within the source files.">
<polygon fill="none" stroke="black" points="878.5,-46.5 878.5,-76.5 1027.5,-76.5 1027.5,-46.5 878.5,-46.5"/>
<text text-anchor="start" x="886.5" y="-64.5" font-family="Helvetica,sans-Serif" font-size="10.00">zero_mate::utils::CLogging</text>
<text text-anchor="middle" x="953" y="-53.5" font-family="Helvetica,sans-Serif" font-size="10.00">_System::Extract_Filename</text>
</a>
</g>
</g>
<!-- Node3&#45;&gt;Node7 -->
<g id="edge6" class="edge">
<title>Node3&#45;&gt;Node7</title>
<path fill="none" stroke="midnightblue" d="M819.1,-147.49C826.62,-144.56 834.14,-141.23 841,-137.5 858.81,-127.82 860.45,-121.2 877,-109.5 890.34,-100.08 905.43,-90.26 918.57,-81.97"/>
<polygon fill="midnightblue" stroke="midnightblue" points="920.69,-84.78 927.31,-76.51 916.97,-78.85 920.69,-84.78"/>
</g>
<!-- Node5 -->
<g id="node5" class="node">
<title>Node5</title>
<g id="a_node5"><a xlink:href="classzero__mate_1_1utils_1_1CLogging__System.html#aa70c102c805079042ffea2a6f2a5ad64" target="_top" xlink:title="Formats a given timestamp.">
<polygon fill="none" stroke="black" points="1065,-149.5 1065,-179.5 1225,-179.5 1225,-149.5 1065,-149.5"/>
<text text-anchor="start" x="1073" y="-167.5" font-family="Helvetica,sans-Serif" font-size="10.00">zero_mate::utils::CLogging</text>
<text text-anchor="middle" x="1145" y="-156.5" font-family="Helvetica,sans-Serif" font-size="10.00">_System::Format_Timestamp</text>
</a>
</g>
</g>
<!-- Node4&#45;&gt;Node5 -->
<g id="edge4" class="edge">
<title>Node4&#45;&gt;Node5</title>
<path fill="none" stroke="midnightblue" d="M1029.09,-149.38C1037.52,-150.49 1046.16,-151.63 1054.74,-152.76"/>
<polygon fill="midnightblue" stroke="midnightblue" points="1054.4,-156.24 1064.77,-154.07 1055.31,-149.3 1054.4,-156.24"/>
</g>
<!-- Node6 -->
<g id="node6" class="node">
<title>Node6</title>
<g id="a_node6"><a xlink:href="classzero__mate_1_1utils_1_1CLogging__System.html#ae3ca637537dde05e0b9119145c840331" target="_top" xlink:title="Returns the current timestamp that will be used in a log message.">
<polygon fill="none" stroke="black" points="1072,-100.5 1072,-130.5 1218,-130.5 1218,-100.5 1072,-100.5"/>
<text text-anchor="start" x="1080" y="-118.5" font-family="Helvetica,sans-Serif" font-size="10.00">zero_mate::utils::CLogging</text>
<text text-anchor="middle" x="1145" y="-107.5" font-family="Helvetica,sans-Serif" font-size="10.00">_System::Get_Timestamp</text>
</a>
</g>
</g>
<!-- Node4&#45;&gt;Node6 -->
<g id="edge5" class="edge">
<title>Node4&#45;&gt;Node6</title>
<path fill="none" stroke="midnightblue" d="M1029.09,-130.01C1039.89,-128.65 1051.05,-127.24 1061.98,-125.86"/>
<polygon fill="midnightblue" stroke="midnightblue" points="1062.45,-129.33 1071.93,-124.6 1061.57,-122.38 1062.45,-129.33"/>
</g>
<!-- Node8&#45;&gt;Node3 -->
<g id="edge8" class="edge">
<title>Node8&#45;&gt;Node3</title>
<path fill="none" stroke="midnightblue" d="M476,-142.16C527.09,-145.5 597.26,-150.16 659,-154.5 667.36,-155.09 676.08,-155.71 684.78,-156.35"/>
<polygon fill="midnightblue" stroke="midnightblue" points="684.74,-159.85 694.97,-157.09 685.25,-152.87 684.74,-159.85"/>
</g>
<!-- Node9 -->
<g id="node9" class="node">
<title>Node9</title>
<g id="a_node9"><a xlink:href="classzero__mate_1_1gui_1_1CTop__Bar__Menu.html#af8e80293dff0c20be7ea071d50dec62c" target="_top" xlink:title="Loads a single ELF file.">
<polygon fill="none" stroke="black" points="514,-75.5 514,-105.5 659,-105.5 659,-75.5 514,-75.5"/>
<text text-anchor="start" x="522" y="-93.5" font-family="Helvetica,sans-Serif" font-size="10.00">zero_mate::gui::CTop</text>
<text text-anchor="middle" x="586.5" y="-82.5" font-family="Helvetica,sans-Serif" font-size="10.00">_Bar_Menu::Load_ELF_File</text>
</a>
</g>
</g>
<!-- Node8&#45;&gt;Node9 -->
<g id="edge9" class="edge">
<title>Node8&#45;&gt;Node9</title>
<path fill="none" stroke="midnightblue" d="M461.93,-122.5C479.69,-117.9 499.39,-112.8 517.75,-108.04"/>
<polygon fill="midnightblue" stroke="midnightblue" points="518.7,-111.41 527.5,-105.52 516.94,-104.64 518.7,-111.41"/>
</g>
<!-- Node9&#45;&gt;Node3 -->
<g id="edge10" class="edge">
<title>Node9&#45;&gt;Node3</title>
<path fill="none" stroke="midnightblue" d="M622.44,-105.57C634.08,-110.61 647.11,-116.28 659,-121.5 675.03,-128.54 678.72,-131.07 695,-137.5 700.52,-139.68 706.31,-141.86 712.12,-143.98"/>
<polygon fill="midnightblue" stroke="midnightblue" points="711.25,-147.39 721.85,-147.47 713.62,-140.8 711.25,-147.39"/>
</g>
<!-- Node10 -->
<g id="node10" class="node">
<title>Node10</title>
<g id="a_node10"><a xlink:href="classzero__mate_1_1gui_1_1CTop__Bar__Menu.html#a9374e039e857fa2f4d1e65f7edcd707f" target="_top" xlink:title="Returns a filename of a given filepath.">
<polygon fill="none" stroke="black" points="696,-98.5 696,-128.5 840,-128.5 840,-98.5 696,-98.5"/>
<text text-anchor="start" x="704" y="-116.5" font-family="Helvetica,sans-Serif" font-size="10.00">zero_mate::gui::CTop</text>
<text text-anchor="middle" x="768" y="-105.5" font-family="Helvetica,sans-Serif" font-size="10.00">_Bar_Menu::Get_Filename</text>
</a>
</g>
</g>
<!-- Node9&#45;&gt;Node10 -->
<g id="edge11" class="edge">
<title>Node9&#45;&gt;Node10</title>
<path fill="none" stroke="midnightblue" d="M659.22,-99.69C668.01,-100.82 677.05,-101.97 685.98,-103.12"/>
<polygon fill="midnightblue" stroke="midnightblue" points="685.62,-106.6 695.98,-104.4 686.51,-99.66 685.62,-106.6"/>
</g>
<!-- Node11 -->
<g id="node11" class="node">
<title>Node11</title>
<g id="a_node11"><a xlink:href="classzero__mate_1_1utils_1_1CLogging__System.html#a455d99c3614dc92ffbdbdcdb6b8b8bb8" target="_top" xlink:title="Logs an info message via all registered loggers.">
<polygon fill="none" stroke="black" points="695,-0.5 695,-30.5 841,-30.5 841,-0.5 695,-0.5"/>
<text text-anchor="start" x="703" y="-18.5" font-family="Helvetica,sans-Serif" font-size="10.00">zero_mate::utils::CLogging</text>
<text text-anchor="middle" x="768" y="-7.5" font-family="Helvetica,sans-Serif" font-size="10.00">_System::Info</text>
</a>
</g>
</g>
<!-- Node9&#45;&gt;Node11 -->
<g id="edge12" class="edge">
<title>Node9&#45;&gt;Node11</title>
<path fill="none" stroke="midnightblue" d="M616.73,-75.45C638.11,-64.74 667.98,-50.37 695,-39.5 699.69,-37.61 704.6,-35.75 709.55,-33.95"/>
<polygon fill="midnightblue" stroke="midnightblue" points="710.81,-37.22 719.07,-30.57 708.47,-30.62 710.81,-37.22"/>
</g>
<!-- Node12 -->
<g id="node12" class="node">
<title>Node12</title>
<g id="a_node12"><a xlink:href="namespacezero__mate_1_1utils_1_1elf.html#a9f6c82c3b8cd3f725d004c7b9022d69a" target="_top" xlink:title="Loads a given ELF file (kernel) into the memory.">
<polygon fill="none" stroke="black" points="711,-49.5 711,-79.5 825,-79.5 825,-49.5 711,-49.5"/>
<text text-anchor="start" x="719" y="-67.5" font-family="Helvetica,sans-Serif" font-size="10.00">zero_mate::utils::elf</text>
<text text-anchor="middle" x="768" y="-56.5" font-family="Helvetica,sans-Serif" font-size="10.00">::Load_ELF</text>
</a>
</g>
</g>
<!-- Node9&#45;&gt;Node12 -->
<g id="edge15" class="edge">
<title>Node9&#45;&gt;Node12</title>
<path fill="none" stroke="midnightblue" d="M659.22,-80.11C672.91,-78.13 687.19,-76.06 700.71,-74.1"/>
<polygon fill="midnightblue" stroke="midnightblue" points="701.48,-77.53 710.87,-72.63 700.48,-70.6 701.48,-77.53"/>
</g>
<!-- Node11&#45;&gt;Node4 -->
<g id="edge13" class="edge">
<title>Node11&#45;&gt;Node4</title>
<path fill="none" stroke="midnightblue" d="M825.23,-30.57C830.79,-33.13 836.15,-36.08 841,-39.5 862.22,-54.46 858.28,-67.51 877,-85.5 887.24,-95.34 899.37,-104.83 910.85,-113.04"/>
<polygon fill="midnightblue" stroke="midnightblue" points="908.86,-115.92 919.06,-118.77 912.87,-110.18 908.86,-115.92"/>
</g>
<!-- Node11&#45;&gt;Node7 -->
<g id="edge14" class="edge">
<title>Node11&#45;&gt;Node7</title>
<path fill="none" stroke="midnightblue" d="M828.92,-30.56C845.91,-34.83 864.56,-39.52 882.09,-43.93"/>
<polygon fill="midnightblue" stroke="midnightblue" points="881.71,-47.44 892.26,-46.48 883.41,-40.65 881.71,-47.44"/>
</g>
<!-- Node14 -->
<g id="node14" class="node">
<title>Node14</title>
<g id="a_node14"><a xlink:href="classzero__mate_1_1gui_1_1CTop__Bar__Menu.html#a7fee26ed69f7536b8396d3fe2f97c5e4" target="_top" xlink:title="Loads ELF files selected by the user using the file browser.">
<polygon fill="none" stroke="black" points="328,-73.5 328,-103.5 478,-103.5 478,-73.5 328,-73.5"/>
<text text-anchor="start" x="336" y="-91.5" font-family="Helvetica,sans-Serif" font-size="10.00">zero_mate::gui::CTop</text>
<text text-anchor="middle" x="403" y="-80.5" font-family="Helvetica,sans-Serif" font-size="10.00">_Bar_Menu::Load_ELF_Files</text>
</a>
</g>
</g>
<!-- Node13&#45;&gt;Node14 -->
<g id="edge17" class="edge">
<title>Node13&#45;&gt;Node14</title>
<path fill="none" stroke="midnightblue" d="M290.59,-88.5C299.4,-88.5 308.53,-88.5 317.6,-88.5"/>
<polygon fill="midnightblue" stroke="midnightblue" points="317.79,-92 327.79,-88.5 317.79,-85 317.79,-92"/>
</g>
<!-- Node14&#45;&gt;Node9 -->
<g id="edge18" class="edge">
<title>Node14&#45;&gt;Node9</title>
<path fill="none" stroke="midnightblue" d="M478.08,-89.32C486.61,-89.41 495.34,-89.51 503.95,-89.6"/>
<polygon fill="midnightblue" stroke="midnightblue" points="503.96,-93.1 514,-89.71 504.04,-86.1 503.96,-93.1"/>
</g>
</g>
</svg>
