<?xml version="1.0" encoding="UTF-8" standalone="no"?>
<!DOCTYPE svg PUBLIC "-//W3C//DTD SVG 1.1//EN"
 "http://www.w3.org/Graphics/SVG/1.1/DTD/svg11.dtd">
<!-- Generated by graphviz version 2.43.0 (0)
 -->
<!-- Title: zero_mate::arm1176jzf_s::CCPU_Core::Step Pages: 1 -->
<svg width="846pt" height="341pt"
 viewBox="0.00 0.00 846.00 340.50" xmlns="http://www.w3.org/2000/svg" xmlns:xlink="http://www.w3.org/1999/xlink">
<g id="graph0" class="graph" transform="scale(1 1) rotate(0) translate(4 336.5)">
<title>zero_mate::arm1176jzf_s::CCPU_Core::Step</title>
<!-- Node1 -->
<g id="node1" class="node">
<title>Node1</title>
<g id="a_node1"><a xlink:title=" ">
<polygon fill="#bfbfbf" stroke="black" points="0,-49.5 0,-79.5 130,-79.5 130,-49.5 0,-49.5"/>
<text text-anchor="start" x="8" y="-67.5" font-family="Helvetica,sans-Serif" font-size="10.00">zero_mate::arm1176jzf</text>
<text text-anchor="middle" x="65" y="-56.5" font-family="Helvetica,sans-Serif" font-size="10.00">_s::CCPU_Core::Step</text>
</a>
</g>
</g>
<!-- Node2 -->
<g id="node2" class="node">
<title>Node2</title>
<g id="a_node2"><a xlink:href="classzero__mate_1_1arm1176jzf__s_1_1CCPU__Core.html#af500d91bd836a74df0e758990c4ecc7d" target="_top" xlink:title=" ">
<polygon fill="none" stroke="black" points="166,-104.5 166,-134.5 298,-134.5 298,-104.5 166,-104.5"/>
<text text-anchor="start" x="174" y="-122.5" font-family="Helvetica,sans-Serif" font-size="10.00">zero_mate::arm1176jzf</text>
<text text-anchor="middle" x="232" y="-111.5" font-family="Helvetica,sans-Serif" font-size="10.00">_s::CCPU_Core::Execute</text>
</a>
</g>
</g>
<!-- Node1&#45;&gt;Node2 -->
<g id="edge1" class="edge">
<title>Node1&#45;&gt;Node2</title>
<path fill="none" stroke="midnightblue" d="M111.09,-79.53C131.28,-86.26 155.26,-94.25 176.45,-101.32"/>
<polygon fill="midnightblue" stroke="midnightblue" points="175.37,-104.65 185.97,-104.49 177.59,-98.01 175.37,-104.65"/>
</g>
<!-- Node3 -->
<g id="node3" class="node">
<title>Node3</title>
<g id="a_node3"><a xlink:href="classzero__mate_1_1arm1176jzf__s_1_1CCPU__Core.html#aa327755c4c57c01f03e16fb3d1195f6a" target="_top" xlink:title="Fetches the next instruction.">
<polygon fill="none" stroke="black" points="167,-44 167,-85 297,-85 297,-44 167,-44"/>
<text text-anchor="start" x="175" y="-73" font-family="Helvetica,sans-Serif" font-size="10.00">zero_mate::arm1176jzf</text>
<text text-anchor="start" x="175" y="-62" font-family="Helvetica,sans-Serif" font-size="10.00">_s::CCPU_Core::Fetch</text>
<text text-anchor="middle" x="232" y="-51" font-family="Helvetica,sans-Serif" font-size="10.00">_Instruction</text>
</a>
</g>
</g>
<!-- Node1&#45;&gt;Node3 -->
<g id="edge2" class="edge">
<title>Node1&#45;&gt;Node3</title>
<path fill="none" stroke="midnightblue" d="M130.27,-64.5C138.92,-64.5 147.85,-64.5 156.65,-64.5"/>
<polygon fill="midnightblue" stroke="midnightblue" points="156.91,-68 166.91,-64.5 156.91,-61 156.91,-68"/>
</g>
<!-- Node8 -->
<g id="node8" class="node">
<title>Node8</title>
<g id="a_node8"><a xlink:href="classzero__mate_1_1arm1176jzf__s_1_1CCPU__Core.html#a423eacd01e574e782a2b7cf51f28c56c" target="_top" xlink:title="Returns a reference to the PC register (r15)">
<polygon fill="none" stroke="black" points="512.5,-0.5 512.5,-30.5 642.5,-30.5 642.5,-0.5 512.5,-0.5"/>
<text text-anchor="start" x="520.5" y="-18.5" font-family="Helvetica,sans-Serif" font-size="10.00">zero_mate::arm1176jzf</text>
<text text-anchor="middle" x="577.5" y="-7.5" font-family="Helvetica,sans-Serif" font-size="10.00">_s::CCPU_Core::PC</text>
</a>
</g>
</g>
<!-- Node1&#45;&gt;Node8 -->
<g id="edge12" class="edge">
<title>Node1&#45;&gt;Node8</title>
<path fill="none" stroke="midnightblue" d="M107.79,-49.47C125.5,-43.75 146.52,-37.82 166,-34.5 282.29,-14.67 419.62,-12.53 502.29,-13.5"/>
<polygon fill="midnightblue" stroke="midnightblue" points="502.29,-17 512.34,-13.64 502.39,-10 502.29,-17"/>
</g>
<!-- Node4 -->
<g id="node4" class="node">
<title>Node4</title>
<g id="a_node4"><a xlink:href="classzero__mate_1_1arm1176jzf__s_1_1CCPU__Core.html#a85e6ef006a36e1adb56abd3ecc6481be" target="_top" xlink:title="Executes a CPU exception.">
<polygon fill="none" stroke="black" points="334,-99 334,-140 466,-140 466,-99 334,-99"/>
<text text-anchor="start" x="342" y="-128" font-family="Helvetica,sans-Serif" font-size="10.00">zero_mate::arm1176jzf</text>
<text text-anchor="start" x="342" y="-117" font-family="Helvetica,sans-Serif" font-size="10.00">_s::CCPU_Core::Execute</text>
<text text-anchor="middle" x="400" y="-106" font-family="Helvetica,sans-Serif" font-size="10.00">_Exception</text>
</a>
</g>
</g>
<!-- Node3&#45;&gt;Node4 -->
<g id="edge3" class="edge">
<title>Node3&#45;&gt;Node4</title>
<path fill="none" stroke="midnightblue" d="M295.28,-85.14C305.71,-88.59 316.6,-92.2 327.24,-95.72"/>
<polygon fill="midnightblue" stroke="midnightblue" points="326.33,-99.11 336.92,-98.93 328.53,-92.46 326.33,-99.11"/>
</g>
<!-- Node3&#45;&gt;Node8 -->
<g id="edge11" class="edge">
<title>Node3&#45;&gt;Node8</title>
<path fill="none" stroke="midnightblue" d="M297.21,-55.34C355.42,-47.04 441.23,-34.8 502.35,-26.08"/>
<polygon fill="midnightblue" stroke="midnightblue" points="502.91,-29.53 512.32,-24.66 501.92,-22.6 502.91,-29.53"/>
</g>
<!-- Node5 -->
<g id="node5" class="node">
<title>Node5</title>
<g id="a_node5"><a xlink:href="classzero__mate_1_1arm1176jzf__s_1_1exceptions_1_1CCPU__Exception.html#ab18a4a4b6a54029ccf141784cfe9c737" target="_top" xlink:title=" ">
<polygon fill="none" stroke="black" points="502,-291 502,-332 653,-332 653,-291 502,-291"/>
<text text-anchor="start" x="510" y="-320" font-family="Helvetica,sans-Serif" font-size="10.00">zero_mate::arm1176jzf</text>
<text text-anchor="start" x="510" y="-309" font-family="Helvetica,sans-Serif" font-size="10.00">_s::exceptions::CCPU</text>
<text text-anchor="middle" x="577.5" y="-298" font-family="Helvetica,sans-Serif" font-size="10.00">_Exception::Get_CPU_Mode</text>
</a>
</g>
</g>
<!-- Node4&#45;&gt;Node5 -->
<g id="edge4" class="edge">
<title>Node4&#45;&gt;Node5</title>
<path fill="none" stroke="midnightblue" d="M408.82,-140.05C422.68,-173.95 454.65,-241.77 502,-281.5 503.56,-282.81 505.19,-284.07 506.87,-285.28"/>
<polygon fill="midnightblue" stroke="midnightblue" points="505.33,-288.45 515.64,-290.91 509.12,-282.56 505.33,-288.45"/>
</g>
<!-- Node6 -->
<g id="node6" class="node">
<title>Node6</title>
<g id="a_node6"><a xlink:href="classzero__mate_1_1arm1176jzf__s_1_1exceptions_1_1CCPU__Exception.html#ae87c33c76ed6571b2408fd293710b6c4" target="_top" xlink:title=" ">
<polygon fill="none" stroke="black" points="504.5,-219.5 504.5,-271.5 650.5,-271.5 650.5,-219.5 504.5,-219.5"/>
<text text-anchor="start" x="512.5" y="-259.5" font-family="Helvetica,sans-Serif" font-size="10.00">zero_mate::arm1176jzf</text>
<text text-anchor="start" x="512.5" y="-248.5" font-family="Helvetica,sans-Serif" font-size="10.00">_s::exceptions::CCPU</text>
<text text-anchor="start" x="512.5" y="-237.5" font-family="Helvetica,sans-Serif" font-size="10.00">_Exception::Get_Exception</text>
<text text-anchor="middle" x="577.5" y="-226.5" font-family="Helvetica,sans-Serif" font-size="10.00">_Vector</text>
</a>
</g>
</g>
<!-- Node4&#45;&gt;Node6 -->
<g id="edge5" class="edge">
<title>Node4&#45;&gt;Node6</title>
<path fill="none" stroke="midnightblue" d="M420.88,-140.28C440.3,-159.81 471.34,-189.02 502,-209.5 504.41,-211.11 506.9,-212.69 509.44,-214.23"/>
<polygon fill="midnightblue" stroke="midnightblue" points="507.86,-217.36 518.27,-219.33 511.36,-211.3 507.86,-217.36"/>
</g>
<!-- Node7 -->
<g id="node7" class="node">
<title>Node7</title>
<g id="a_node7"><a xlink:href="classzero__mate_1_1arm1176jzf__s_1_1exceptions_1_1CCPU__Exception.html#aabb81de8a3e09534245ef3851a31c3c0" target="_top" xlink:title=" ">
<polygon fill="none" stroke="black" points="512.5,-159 512.5,-200 642.5,-200 642.5,-159 512.5,-159"/>
<text text-anchor="start" x="520.5" y="-188" font-family="Helvetica,sans-Serif" font-size="10.00">zero_mate::arm1176jzf</text>
<text text-anchor="start" x="520.5" y="-177" font-family="Helvetica,sans-Serif" font-size="10.00">_s::exceptions::CCPU</text>
<text text-anchor="middle" x="577.5" y="-166" font-family="Helvetica,sans-Serif" font-size="10.00">_Exception::Get_Type</text>
</a>
</g>
</g>
<!-- Node4&#45;&gt;Node7 -->
<g id="edge6" class="edge">
<title>Node4&#45;&gt;Node7</title>
<path fill="none" stroke="midnightblue" d="M461.4,-140.15C475.96,-145.13 491.63,-150.49 506.59,-155.6"/>
<polygon fill="midnightblue" stroke="midnightblue" points="505.69,-158.99 516.29,-158.92 507.96,-152.37 505.69,-158.99"/>
</g>
<!-- Node4&#45;&gt;Node8 -->
<g id="edge7" class="edge">
<title>Node4&#45;&gt;Node8</title>
<path fill="none" stroke="midnightblue" d="M431.68,-98.97C442.72,-91.28 455.13,-82.27 466,-73.5 482.89,-59.87 483.3,-51.53 502,-40.5 505.57,-38.39 509.34,-36.44 513.22,-34.62"/>
<polygon fill="midnightblue" stroke="midnightblue" points="514.62,-37.83 522.4,-30.64 511.83,-31.41 514.62,-37.83"/>
</g>
<!-- Node9 -->
<g id="node9" class="node">
<title>Node9</title>
<g id="a_node9"><a xlink:href="classzero__mate_1_1arm1176jzf__s_1_1CCPU__Context.html#a7efff674f8141eab73cb69099220f0d5" target="_top" xlink:title=" ">
<polygon fill="none" stroke="black" points="512.5,-99 512.5,-140 642.5,-140 642.5,-99 512.5,-99"/>
<text text-anchor="start" x="520.5" y="-128" font-family="Helvetica,sans-Serif" font-size="10.00">zero_mate::arm1176jzf</text>
<text text-anchor="start" x="520.5" y="-117" font-family="Helvetica,sans-Serif" font-size="10.00">_s::CCPU_Context::Set</text>
<text text-anchor="middle" x="577.5" y="-106" font-family="Helvetica,sans-Serif" font-size="10.00">_CPU_Mode</text>
</a>
</g>
</g>
<!-- Node4&#45;&gt;Node9 -->
<g id="edge8" class="edge">
<title>Node4&#45;&gt;Node9</title>
<path fill="none" stroke="midnightblue" d="M466.35,-119.5C477.96,-119.5 490.13,-119.5 501.97,-119.5"/>
<polygon fill="midnightblue" stroke="midnightblue" points="502.26,-123 512.26,-119.5 502.26,-116 502.26,-123"/>
</g>
<!-- Node10 -->
<g id="node10" class="node">
<title>Node10</title>
<g id="a_node10"><a xlink:href="classzero__mate_1_1utils_1_1CLogging__System.html#a8904feb1d77dc350717ebcd00e7e5443" target="_top" xlink:title=" ">
<polygon fill="none" stroke="black" points="504.5,-49.5 504.5,-79.5 650.5,-79.5 650.5,-49.5 504.5,-49.5"/>
<text text-anchor="start" x="512.5" y="-67.5" font-family="Helvetica,sans-Serif" font-size="10.00">zero_mate::utils::CLogging</text>
<text text-anchor="middle" x="577.5" y="-56.5" font-family="Helvetica,sans-Serif" font-size="10.00">_System::Warning</text>
</a>
</g>
</g>
<!-- Node4&#45;&gt;Node10 -->
<g id="edge9" class="edge">
<title>Node4&#45;&gt;Node10</title>
<path fill="none" stroke="midnightblue" d="M466.35,-99.02C483.54,-93.63 501.96,-87.86 518.72,-82.61"/>
<polygon fill="midnightblue" stroke="midnightblue" points="519.88,-85.91 528.37,-79.58 517.78,-79.23 519.88,-85.91"/>
</g>
<!-- Node11 -->
<g id="node11" class="node">
<title>Node11</title>
<g id="a_node11"><a xlink:href="classzero__mate_1_1utils_1_1CLogging__System.html#af3fd8f336b5853e954283d93f2c32edd" target="_top" xlink:title=" ">
<polygon fill="none" stroke="black" points="689,-49.5 689,-79.5 838,-79.5 838,-49.5 689,-49.5"/>
<text text-anchor="start" x="697" y="-67.5" font-family="Helvetica,sans-Serif" font-size="10.00">zero_mate::utils::CLogging</text>
<text text-anchor="middle" x="763.5" y="-56.5" font-family="Helvetica,sans-Serif" font-size="10.00">_System::Extract_Filename</text>
</a>
</g>
</g>
<!-- Node10&#45;&gt;Node11 -->
<g id="edge10" class="edge">
<title>Node10&#45;&gt;Node11</title>
<path fill="none" stroke="midnightblue" d="M650.69,-64.5C659.86,-64.5 669.31,-64.5 678.64,-64.5"/>
<polygon fill="midnightblue" stroke="midnightblue" points="678.7,-68 688.7,-64.5 678.7,-61 678.7,-68"/>
</g>
</g>
</svg>
