<?xml version="1.0" encoding="UTF-8" standalone="no"?>
<!DOCTYPE svg PUBLIC "-//W3C//DTD SVG 1.1//EN"
 "http://www.w3.org/Graphics/SVG/1.1/DTD/svg11.dtd">
<!-- Generated by graphviz version 2.43.0 (0)
 -->
<!-- Title: zero_mate::gui::CLog_Window::Set_Log_Message_Color Pages: 1 -->
<svg width="739pt" height="110pt"
 viewBox="0.00 0.00 739.00 110.00" xmlns="http://www.w3.org/2000/svg" xmlns:xlink="http://www.w3.org/1999/xlink">
<g id="graph0" class="graph" transform="scale(1 1) rotate(0) translate(4 106)">
<title>zero_mate::gui::CLog_Window::Set_Log_Message_Color</title>
<!-- Node1 -->
<g id="node1" class="node">
<title>Node1</title>
<g id="a_node1"><a xlink:title="Sets the color of a log message based on its type (error, info, etc.)">
<polygon fill="#bfbfbf" stroke="black" points="547,-36 547,-66 731,-66 731,-36 547,-36"/>
<text text-anchor="start" x="555" y="-54" font-family="Helvetica,sans-Serif" font-size="10.00">zero_mate::gui::CLog</text>
<text text-anchor="middle" x="639" y="-43" font-family="Helvetica,sans-Serif" font-size="10.00">_Window::Set_Log_Message_Color</text>
</a>
</g>
</g>
<!-- Node2 -->
<g id="node2" class="node">
<title>Node2</title>
<g id="a_node2"><a xlink:href="classzero__mate_1_1gui_1_1CLog__Window.html#a67b875f7111438d9100d927992e27c4f" target="_top" xlink:title="Renders all log messages (no filter activated).">
<polygon fill="none" stroke="black" points="369,-60.5 369,-101.5 510,-101.5 510,-60.5 369,-60.5"/>
<text text-anchor="start" x="377" y="-89.5" font-family="Helvetica,sans-Serif" font-size="10.00">zero_mate::gui::CLog</text>
<text text-anchor="start" x="377" y="-78.5" font-family="Helvetica,sans-Serif" font-size="10.00">_Window::Render_All_Log</text>
<text text-anchor="middle" x="439.5" y="-67.5" font-family="Helvetica,sans-Serif" font-size="10.00">_Messages</text>
</a>
</g>
</g>
<!-- Node1&#45;&gt;Node2 -->
<g id="edge1" class="edge">
<title>Node1&#45;&gt;Node2</title>
<path fill="none" stroke="midnightblue" d="M536.63,-66.4C527.65,-67.76 518.7,-69.12 510.08,-70.43"/>
<polygon fill="midnightblue" stroke="midnightblue" points="537.4,-69.82 546.77,-64.86 536.35,-62.9 537.4,-69.82"/>
</g>
<!-- Node5 -->
<g id="node5" class="node">
<title>Node5</title>
<g id="a_node5"><a xlink:href="classzero__mate_1_1gui_1_1CLog__Window.html#adb7453fd69db4264b631251e48b68201" target="_top" xlink:title="Renders log messages that satisfy the criteria given by a message filter.">
<polygon fill="none" stroke="black" points="368,-0.5 368,-41.5 511,-41.5 511,-0.5 368,-0.5"/>
<text text-anchor="start" x="376" y="-29.5" font-family="Helvetica,sans-Serif" font-size="10.00">zero_mate::gui::CLog</text>
<text text-anchor="start" x="376" y="-18.5" font-family="Helvetica,sans-Serif" font-size="10.00">_Window::Render_Filtered</text>
<text text-anchor="middle" x="439.5" y="-7.5" font-family="Helvetica,sans-Serif" font-size="10.00">_Log_Messages</text>
</a>
</g>
</g>
<!-- Node1&#45;&gt;Node5 -->
<g id="edge4" class="edge">
<title>Node1&#45;&gt;Node5</title>
<path fill="none" stroke="midnightblue" d="M536.68,-35.61C528.09,-34.31 519.53,-33 511.25,-31.75"/>
<polygon fill="midnightblue" stroke="midnightblue" points="536.35,-39.1 546.77,-37.14 537.4,-32.18 536.35,-39.1"/>
</g>
<!-- Node3 -->
<g id="node3" class="node">
<title>Node3</title>
<g id="a_node3"><a xlink:href="classzero__mate_1_1gui_1_1CLog__Window.html#ac72abb295653473388e92ec658b85e7e" target="_top" xlink:title="Renders the message scrolling area.">
<polygon fill="none" stroke="black" points="155,-36 155,-66 332,-66 332,-36 155,-36"/>
<text text-anchor="start" x="163" y="-54" font-family="Helvetica,sans-Serif" font-size="10.00">zero_mate::gui::CLog</text>
<text text-anchor="middle" x="243.5" y="-43" font-family="Helvetica,sans-Serif" font-size="10.00">_Window::Render_Message_Area</text>
</a>
</g>
</g>
<!-- Node2&#45;&gt;Node3 -->
<g id="edge2" class="edge">
<title>Node2&#45;&gt;Node3</title>
<path fill="none" stroke="midnightblue" d="M358.62,-68.65C349.92,-67.3 341.03,-65.93 332.23,-64.57"/>
<polygon fill="midnightblue" stroke="midnightblue" points="358.32,-72.14 368.74,-70.21 359.39,-65.22 358.32,-72.14"/>
</g>
<!-- Node4 -->
<g id="node4" class="node">
<title>Node4</title>
<g id="a_node4"><a xlink:href="classzero__mate_1_1gui_1_1CLog__Window.html#a679fe192aa1335396f06e63678bb71d5" target="_top" xlink:title="Renders the window (IGUI_Window interface).">
<polygon fill="none" stroke="black" points="0,-36 0,-66 119,-66 119,-36 0,-36"/>
<text text-anchor="start" x="8" y="-54" font-family="Helvetica,sans-Serif" font-size="10.00">zero_mate::gui::CLog</text>
<text text-anchor="middle" x="59.5" y="-43" font-family="Helvetica,sans-Serif" font-size="10.00">_Window::Render</text>
</a>
</g>
</g>
<!-- Node3&#45;&gt;Node4 -->
<g id="edge3" class="edge">
<title>Node3&#45;&gt;Node4</title>
<path fill="none" stroke="midnightblue" d="M144.75,-51C136.06,-51 127.45,-51 119.24,-51"/>
<polygon fill="midnightblue" stroke="midnightblue" points="144.97,-54.5 154.97,-51 144.97,-47.5 144.97,-54.5"/>
</g>
<!-- Node5&#45;&gt;Node3 -->
<g id="edge5" class="edge">
<title>Node5&#45;&gt;Node3</title>
<path fill="none" stroke="midnightblue" d="M358.02,-33.45C349.51,-34.76 340.82,-36.1 332.24,-37.43"/>
<polygon fill="midnightblue" stroke="midnightblue" points="358.57,-36.9 367.91,-31.92 357.5,-29.98 358.57,-36.9"/>
</g>
</g>
</svg>
