<?xml version="1.0" encoding="UTF-8" standalone="no"?>
<!DOCTYPE svg PUBLIC "-//W3C//DTD SVG 1.1//EN"
 "http://www.w3.org/Graphics/SVG/1.1/DTD/svg11.dtd">
<!-- Generated by graphviz version 2.43.0 (0)
 -->
<!-- Title: zero_mate::peripheral::CMini_UART::Get_Char_Length Pages: 1 -->
<svg width="844pt" height="149pt"
 viewBox="0.00 0.00 844.00 148.50" xmlns="http://www.w3.org/2000/svg" xmlns:xlink="http://www.w3.org/1999/xlink">
<g id="graph0" class="graph" transform="scale(1 1) rotate(0) translate(4 144.5)">
<title>zero_mate::peripheral::CMini_UART::Get_Char_Length</title>
<!-- Node1 -->
<g id="node1" class="node">
<title>Node1</title>
<g id="a_node1"><a xlink:title="Returns the length of payload (7 or 8 bits).">
<polygon fill="#bfbfbf" stroke="black" points="704,-44 704,-85 836,-85 836,-44 704,-44"/>
<text text-anchor="start" x="712" y="-73" font-family="Helvetica,sans-Serif" font-size="10.00">zero_mate::peripheral</text>
<text text-anchor="start" x="712" y="-62" font-family="Helvetica,sans-Serif" font-size="10.00">::CMini_UART::Get_Char</text>
<text text-anchor="middle" x="770" y="-51" font-family="Helvetica,sans-Serif" font-size="10.00">_Length</text>
</a>
</g>
</g>
<!-- Node2 -->
<g id="node2" class="node">
<title>Node2</title>
<g id="a_node2"><a xlink:href="classzero__mate_1_1peripheral_1_1CMini__UART.html#aa1f84217d3edc234677d1b755f829a92" target="_top" xlink:title="Receives another bit of the current payload (actual data).">
<polygon fill="none" stroke="black" points="526,-99 526,-140 652,-140 652,-99 526,-99"/>
<text text-anchor="start" x="534" y="-128" font-family="Helvetica,sans-Serif" font-size="10.00">zero_mate::peripheral</text>
<text text-anchor="start" x="534" y="-117" font-family="Helvetica,sans-Serif" font-size="10.00">::CMini_UART::Receive</text>
<text text-anchor="middle" x="589" y="-106" font-family="Helvetica,sans-Serif" font-size="10.00">_Payload</text>
</a>
</g>
</g>
<!-- Node1&#45;&gt;Node2 -->
<g id="edge1" class="edge">
<title>Node1&#45;&gt;Node2</title>
<path fill="none" stroke="midnightblue" d="M694.25,-87.47C680.22,-91.78 665.69,-96.24 652.1,-100.42"/>
<polygon fill="midnightblue" stroke="midnightblue" points="695.34,-90.79 703.87,-84.51 693.28,-84.1 695.34,-90.79"/>
</g>
<!-- Node6 -->
<g id="node6" class="node">
<title>Node6</title>
<g id="a_node6"><a xlink:href="classzero__mate_1_1gui_1_1CAUX__Window.html#a84134555bb7100075f909c0de2f0829b" target="_top" xlink:title="Renders information related to the mini UART auxiliary peripheral.">
<polygon fill="none" stroke="black" points="510,-49.5 510,-79.5 668,-79.5 668,-49.5 510,-49.5"/>
<text text-anchor="start" x="518" y="-67.5" font-family="Helvetica,sans-Serif" font-size="10.00">zero_mate::gui::CAUX</text>
<text text-anchor="middle" x="589" y="-56.5" font-family="Helvetica,sans-Serif" font-size="10.00">_Window::Render_Mini_UART</text>
</a>
</g>
</g>
<!-- Node1&#45;&gt;Node6 -->
<g id="edge5" class="edge">
<title>Node1&#45;&gt;Node6</title>
<path fill="none" stroke="midnightblue" d="M693.69,-64.5C685.25,-64.5 676.64,-64.5 668.17,-64.5"/>
<polygon fill="midnightblue" stroke="midnightblue" points="693.87,-68 703.87,-64.5 693.87,-61 693.87,-68"/>
</g>
<!-- Node8 -->
<g id="node8" class="node">
<title>Node8</title>
<g id="a_node8"><a xlink:href="classzero__mate_1_1peripheral_1_1CMini__UART.html#a26406d8e22c04d3107bcfaba34a36d4b" target="_top" xlink:title="Sends another bit of the current payload (actual data).">
<polygon fill="none" stroke="black" points="511.5,-0.5 511.5,-30.5 666.5,-30.5 666.5,-0.5 511.5,-0.5"/>
<text text-anchor="start" x="519.5" y="-18.5" font-family="Helvetica,sans-Serif" font-size="10.00">zero_mate::peripheral</text>
<text text-anchor="middle" x="589" y="-7.5" font-family="Helvetica,sans-Serif" font-size="10.00">::CMini_UART::Send_Payload</text>
</a>
</g>
</g>
<!-- Node1&#45;&gt;Node8 -->
<g id="edge7" class="edge">
<title>Node1&#45;&gt;Node8</title>
<path fill="none" stroke="midnightblue" d="M693.8,-43.91C677.45,-39.44 660.45,-34.79 645.06,-30.57"/>
<polygon fill="midnightblue" stroke="midnightblue" points="693.3,-47.41 703.87,-46.67 695.15,-40.66 693.3,-47.41"/>
</g>
<!-- Node3 -->
<g id="node3" class="node">
<title>Node3</title>
<g id="a_node3"><a xlink:href="classzero__mate_1_1peripheral_1_1CMini__UART.html#a6b04378225c55c43c00805cb5bdb99b3" target="_top" xlink:title="Updates the reception state machines.">
<polygon fill="none" stroke="black" points="333,-101.5 333,-131.5 474,-131.5 474,-101.5 333,-101.5"/>
<text text-anchor="start" x="341" y="-119.5" font-family="Helvetica,sans-Serif" font-size="10.00">zero_mate::peripheral</text>
<text text-anchor="middle" x="403.5" y="-108.5" font-family="Helvetica,sans-Serif" font-size="10.00">::CMini_UART::Update_RX</text>
</a>
</g>
</g>
<!-- Node2&#45;&gt;Node3 -->
<g id="edge2" class="edge">
<title>Node2&#45;&gt;Node3</title>
<path fill="none" stroke="midnightblue" d="M515.58,-118.32C501.93,-118.09 487.69,-117.86 474.14,-117.64"/>
<polygon fill="midnightblue" stroke="midnightblue" points="515.82,-121.82 525.88,-118.48 515.93,-114.82 515.82,-121.82"/>
</g>
<!-- Node4 -->
<g id="node4" class="node">
<title>Node4</title>
<g id="a_node4"><a xlink:href="classzero__mate_1_1peripheral_1_1CMini__UART.html#a3b75064597a5fbfe9c4c7d1f2e0c7e5f" target="_top" xlink:title="Updates the state machines (transmission/reception).">
<polygon fill="none" stroke="black" points="173,-49.5 173,-79.5 297,-79.5 297,-49.5 173,-49.5"/>
<text text-anchor="start" x="181" y="-67.5" font-family="Helvetica,sans-Serif" font-size="10.00">zero_mate::peripheral</text>
<text text-anchor="middle" x="235" y="-56.5" font-family="Helvetica,sans-Serif" font-size="10.00">::CMini_UART::Update</text>
</a>
</g>
</g>
<!-- Node3&#45;&gt;Node4 -->
<g id="edge3" class="edge">
<title>Node3&#45;&gt;Node4</title>
<path fill="none" stroke="midnightblue" d="M344.53,-98.4C324.78,-92.23 302.94,-85.41 284.05,-79.51"/>
<polygon fill="midnightblue" stroke="midnightblue" points="343.75,-101.82 354.34,-101.46 345.84,-95.14 343.75,-101.82"/>
</g>
<!-- Node5 -->
<g id="node5" class="node">
<title>Node5</title>
<g id="a_node5"><a xlink:href="classzero__mate_1_1peripheral_1_1CMini__UART.html#aae5f7e2bbffa6e3881675058a0aedf6f" target="_top" xlink:title="Updates the number of passed CPU cycles (forwarded from the AUX peripheral).">
<polygon fill="none" stroke="black" points="0,-44 0,-85 137,-85 137,-44 0,-44"/>
<text text-anchor="start" x="8" y="-73" font-family="Helvetica,sans-Serif" font-size="10.00">zero_mate::peripheral</text>
<text text-anchor="start" x="8" y="-62" font-family="Helvetica,sans-Serif" font-size="10.00">::CMini_UART::Increment</text>
<text text-anchor="middle" x="68.5" y="-51" font-family="Helvetica,sans-Serif" font-size="10.00">_Passed_Cycles</text>
</a>
</g>
</g>
<!-- Node4&#45;&gt;Node5 -->
<g id="edge4" class="edge">
<title>Node4&#45;&gt;Node5</title>
<path fill="none" stroke="midnightblue" d="M162.56,-64.5C154.13,-64.5 145.54,-64.5 137.16,-64.5"/>
<polygon fill="midnightblue" stroke="midnightblue" points="162.75,-68 172.75,-64.5 162.75,-61 162.75,-68"/>
</g>
<!-- Node7 -->
<g id="node7" class="node">
<title>Node7</title>
<g id="a_node7"><a xlink:href="classzero__mate_1_1gui_1_1CAUX__Window.html#a1441eb934e43fe96d1324da6f0b9d2a0" target="_top" xlink:title="Renders GPIO pins (IGUI_Window interface).">
<polygon fill="none" stroke="black" points="342,-49.5 342,-79.5 465,-79.5 465,-49.5 342,-49.5"/>
<text text-anchor="start" x="350" y="-67.5" font-family="Helvetica,sans-Serif" font-size="10.00">zero_mate::gui::CAUX</text>
<text text-anchor="middle" x="403.5" y="-56.5" font-family="Helvetica,sans-Serif" font-size="10.00">_Window::Render</text>
</a>
</g>
</g>
<!-- Node6&#45;&gt;Node7 -->
<g id="edge6" class="edge">
<title>Node6&#45;&gt;Node7</title>
<path fill="none" stroke="midnightblue" d="M499.65,-64.5C487.92,-64.5 476.12,-64.5 465.01,-64.5"/>
<polygon fill="midnightblue" stroke="midnightblue" points="499.91,-68 509.91,-64.5 499.91,-61 499.91,-68"/>
</g>
<!-- Node9 -->
<g id="node9" class="node">
<title>Node9</title>
<g id="a_node9"><a xlink:href="classzero__mate_1_1peripheral_1_1CMini__UART.html#a39f26f9ac5a5cb08b2a292f5c6fab6db" target="_top" xlink:title="Updates the transmission state machine.">
<polygon fill="none" stroke="black" points="333.5,-0.5 333.5,-30.5 473.5,-30.5 473.5,-0.5 333.5,-0.5"/>
<text text-anchor="start" x="341.5" y="-18.5" font-family="Helvetica,sans-Serif" font-size="10.00">zero_mate::peripheral</text>
<text text-anchor="middle" x="403.5" y="-7.5" font-family="Helvetica,sans-Serif" font-size="10.00">::CMini_UART::Update_TX</text>
</a>
</g>
</g>
<!-- Node8&#45;&gt;Node9 -->
<g id="edge8" class="edge">
<title>Node8&#45;&gt;Node9</title>
<path fill="none" stroke="midnightblue" d="M501.24,-15.5C491.98,-15.5 482.66,-15.5 473.64,-15.5"/>
<polygon fill="midnightblue" stroke="midnightblue" points="501.24,-19 511.24,-15.5 501.24,-12 501.24,-19"/>
</g>
<!-- Node9&#45;&gt;Node4 -->
<g id="edge9" class="edge">
<title>Node9&#45;&gt;Node4</title>
<path fill="none" stroke="midnightblue" d="M341.45,-33.47C323.61,-38.72 304.3,-44.4 287.14,-49.45"/>
<polygon fill="midnightblue" stroke="midnightblue" points="342.58,-36.78 351.19,-30.6 340.6,-30.07 342.58,-36.78"/>
</g>
</g>
</svg>
