<?xml version="1.0" encoding="UTF-8" standalone="no"?>
<!DOCTYPE svg PUBLIC "-//W3C//DTD SVG 1.1//EN"
 "http://www.w3.org/Graphics/SVG/1.1/DTD/svg11.dtd">
<!-- Generated by graphviz version 2.43.0 (0)
 -->
<!-- Title: zero_mate::gui::CLog_Window::Render Pages: 1 -->
<svg width="526pt" height="160pt"
 viewBox="0.00 0.00 526.00 159.50" xmlns="http://www.w3.org/2000/svg" xmlns:xlink="http://www.w3.org/1999/xlink">
<g id="graph0" class="graph" transform="scale(1 1) rotate(0) translate(4 155.5)">
<title>zero_mate::gui::CLog_Window::Render</title>
<!-- Node1 -->
<g id="node1" class="node">
<title>Node1</title>
<g id="a_node1"><a xlink:title=" ">
<polygon fill="#bfbfbf" stroke="black" points="0,-66 0,-96 119,-96 119,-66 0,-66"/>
<text text-anchor="start" x="8" y="-84" font-family="Helvetica,sans-Serif" font-size="10.00">zero_mate::gui::CLog</text>
<text text-anchor="middle" x="59.5" y="-73" font-family="Helvetica,sans-Serif" font-size="10.00">_Window::Render</text>
</a>
</g>
</g>
<!-- Node2 -->
<g id="node2" class="node">
<title>Node2</title>
<g id="a_node2"><a xlink:href="classzero__mate_1_1gui_1_1CLog__Window.html#aab3c1c25eedfe7230d905ae5355265c0" target="_top" xlink:title=" ">
<polygon fill="none" stroke="black" points="167,-121 167,-151 286,-151 286,-121 167,-121"/>
<text text-anchor="start" x="175" y="-139" font-family="Helvetica,sans-Serif" font-size="10.00">zero_mate::gui::CLog</text>
<text text-anchor="middle" x="226.5" y="-128" font-family="Helvetica,sans-Serif" font-size="10.00">_Window::Clear</text>
</a>
</g>
</g>
<!-- Node1&#45;&gt;Node2 -->
<g id="edge1" class="edge">
<title>Node1&#45;&gt;Node2</title>
<path fill="none" stroke="midnightblue" d="M105.59,-96.03C125.78,-102.76 149.76,-110.75 170.95,-117.82"/>
<polygon fill="midnightblue" stroke="midnightblue" points="169.87,-121.15 180.47,-120.99 172.09,-114.51 169.87,-121.15"/>
</g>
<!-- Node4 -->
<g id="node4" class="node">
<title>Node4</title>
<g id="a_node4"><a xlink:href="classzero__mate_1_1gui_1_1CLog__Window.html#a67b875f7111438d9100d927992e27c4f" target="_top" xlink:title=" ">
<polygon fill="none" stroke="black" points="156,-0.5 156,-41.5 297,-41.5 297,-0.5 156,-0.5"/>
<text text-anchor="start" x="164" y="-29.5" font-family="Helvetica,sans-Serif" font-size="10.00">zero_mate::gui::CLog</text>
<text text-anchor="start" x="164" y="-18.5" font-family="Helvetica,sans-Serif" font-size="10.00">_Window::Render_All_Log</text>
<text text-anchor="middle" x="226.5" y="-7.5" font-family="Helvetica,sans-Serif" font-size="10.00">_Messages</text>
</a>
</g>
</g>
<!-- Node1&#45;&gt;Node4 -->
<g id="edge3" class="edge">
<title>Node1&#45;&gt;Node4</title>
<path fill="none" stroke="midnightblue" d="M102.14,-65.86C119.45,-59.56 139.98,-52.1 159.27,-45.08"/>
<polygon fill="midnightblue" stroke="midnightblue" points="160.72,-48.28 168.92,-41.58 158.32,-41.7 160.72,-48.28"/>
</g>
<!-- Node7 -->
<g id="node7" class="node">
<title>Node7</title>
<g id="a_node7"><a xlink:href="classzero__mate_1_1gui_1_1CLog__Window.html#adb7453fd69db4264b631251e48b68201" target="_top" xlink:title=" ">
<polygon fill="none" stroke="black" points="155,-60.5 155,-101.5 298,-101.5 298,-60.5 155,-60.5"/>
<text text-anchor="start" x="163" y="-89.5" font-family="Helvetica,sans-Serif" font-size="10.00">zero_mate::gui::CLog</text>
<text text-anchor="start" x="163" y="-78.5" font-family="Helvetica,sans-Serif" font-size="10.00">_Window::Render_Filtered</text>
<text text-anchor="middle" x="226.5" y="-67.5" font-family="Helvetica,sans-Serif" font-size="10.00">_Log_Messages</text>
</a>
</g>
</g>
<!-- Node1&#45;&gt;Node7 -->
<g id="edge6" class="edge">
<title>Node1&#45;&gt;Node7</title>
<path fill="none" stroke="midnightblue" d="M119.14,-81C127.46,-81 136.14,-81 144.79,-81"/>
<polygon fill="midnightblue" stroke="midnightblue" points="144.91,-84.5 154.91,-81 144.91,-77.5 144.91,-84.5"/>
</g>
<!-- Node3 -->
<g id="node3" class="node">
<title>Node3</title>
<g id="a_node3"><a xlink:href="classzero__mate_1_1gui_1_1CCircular__Log__Buffer.html#af165b3edecdde5d0ea7a10957849921b" target="_top" xlink:title=" ">
<polygon fill="none" stroke="black" points="356,-121 356,-151 496,-151 496,-121 356,-121"/>
<text text-anchor="start" x="364" y="-139" font-family="Helvetica,sans-Serif" font-size="10.00">zero_mate::gui::CCircular</text>
<text text-anchor="middle" x="426" y="-128" font-family="Helvetica,sans-Serif" font-size="10.00">_Log_Buffer::Clear</text>
</a>
</g>
</g>
<!-- Node2&#45;&gt;Node3 -->
<g id="edge2" class="edge">
<title>Node2&#45;&gt;Node3</title>
<path fill="none" stroke="midnightblue" d="M286.22,-136C304.81,-136 325.68,-136 345.48,-136"/>
<polygon fill="midnightblue" stroke="midnightblue" points="345.72,-139.5 355.72,-136 345.72,-132.5 345.72,-139.5"/>
</g>
<!-- Node5 -->
<g id="node5" class="node">
<title>Node5</title>
<g id="a_node5"><a xlink:href="classzero__mate_1_1gui_1_1CCircular__Log__Buffer.html#ac16e7e106825569a5fe48b06eefb28be" target="_top" xlink:title=" ">
<polygon fill="none" stroke="black" points="356,-9 356,-39 496,-39 496,-9 356,-9"/>
<text text-anchor="start" x="364" y="-27" font-family="Helvetica,sans-Serif" font-size="10.00">zero_mate::gui::CCircular</text>
<text text-anchor="middle" x="426" y="-16" font-family="Helvetica,sans-Serif" font-size="10.00">_Log_Buffer::Get_Data</text>
</a>
</g>
</g>
<!-- Node4&#45;&gt;Node5 -->
<g id="edge4" class="edge">
<title>Node4&#45;&gt;Node5</title>
<path fill="none" stroke="midnightblue" d="M297.13,-22.06C312.8,-22.3 329.54,-22.55 345.58,-22.79"/>
<polygon fill="midnightblue" stroke="midnightblue" points="345.95,-26.3 356,-22.95 346.05,-19.3 345.95,-26.3"/>
</g>
<!-- Node6 -->
<g id="node6" class="node">
<title>Node6</title>
<g id="a_node6"><a xlink:href="classzero__mate_1_1gui_1_1CLog__Window.html#acd4c871dccefcf04fb9b3bb8973086c0" target="_top" xlink:title=" ">
<polygon fill="none" stroke="black" points="334,-61 334,-91 518,-91 518,-61 334,-61"/>
<text text-anchor="start" x="342" y="-79" font-family="Helvetica,sans-Serif" font-size="10.00">zero_mate::gui::CLog</text>
<text text-anchor="middle" x="426" y="-68" font-family="Helvetica,sans-Serif" font-size="10.00">_Window::Set_Log_Message_Color</text>
</a>
</g>
</g>
<!-- Node4&#45;&gt;Node6 -->
<g id="edge5" class="edge">
<title>Node4&#45;&gt;Node6</title>
<path fill="none" stroke="midnightblue" d="M297.13,-40.39C317.94,-46.18 340.64,-52.51 361.06,-58.19"/>
<polygon fill="midnightblue" stroke="midnightblue" points="360.31,-61.62 370.88,-60.93 362.19,-54.88 360.31,-61.62"/>
</g>
<!-- Node7&#45;&gt;Node5 -->
<g id="edge7" class="edge">
<title>Node7&#45;&gt;Node5</title>
<path fill="none" stroke="midnightblue" d="M298.24,-60.58C319.36,-54.49 342.34,-47.86 362.86,-41.93"/>
<polygon fill="midnightblue" stroke="midnightblue" points="364.08,-45.22 372.72,-39.09 362.14,-38.5 364.08,-45.22"/>
</g>
<!-- Node7&#45;&gt;Node6 -->
<g id="edge8" class="edge">
<title>Node7&#45;&gt;Node6</title>
<path fill="none" stroke="midnightblue" d="M298.24,-79.21C306.52,-79 315.08,-78.78 323.66,-78.57"/>
<polygon fill="midnightblue" stroke="midnightblue" points="323.83,-82.06 333.74,-78.31 323.65,-75.06 323.83,-82.06"/>
</g>
</g>
</svg>
