<?xml version="1.0" encoding="UTF-8" standalone="no"?>
<!DOCTYPE svg PUBLIC "-//W3C//DTD SVG 1.1//EN"
 "http://www.w3.org/Graphics/SVG/1.1/DTD/svg11.dtd">
<!-- Generated by graphviz version 2.43.0 (0)
 -->
<!-- Title: zero_mate::utils::CLogging_System::Debug Pages: 1 -->
<svg width="515pt" height="520pt"
 viewBox="0.00 0.00 515.00 520.00" xmlns="http://www.w3.org/2000/svg" xmlns:xlink="http://www.w3.org/1999/xlink">
<g id="graph0" class="graph" transform="scale(1 1) rotate(0) translate(4 516)">
<title>zero_mate::utils::CLogging_System::Debug</title>
<!-- Node1 -->
<g id="node1" class="node">
<title>Node1</title>
<g id="a_node1"><a xlink:title="Logs a debug message via all registered loggers.">
<polygon fill="#bfbfbf" stroke="black" points="361,-246 361,-276 507,-276 507,-246 361,-246"/>
<text text-anchor="start" x="369" y="-264" font-family="Helvetica,sans-Serif" font-size="10.00">zero_mate::utils::CLogging</text>
<text text-anchor="middle" x="434" y="-253" font-family="Helvetica,sans-Serif" font-size="10.00">_System::Debug</text>
</a>
</g>
</g>
<!-- Node2 -->
<g id="node2" class="node">
<title>Node2</title>
<g id="a_node2"><a xlink:href="classzero__mate_1_1peripheral_1_1CGPIO__Manager.html#a4a4e9cf470ed6f7dbfb3ada75d35e47c" target="_top" xlink:title="Clears a pending interrupt by writing a 1 to the GPEDS register.">
<polygon fill="none" stroke="black" points="170,-301 170,-331 325,-331 325,-301 170,-301"/>
<text text-anchor="start" x="178" y="-319" font-family="Helvetica,sans-Serif" font-size="10.00">zero_mate::peripheral</text>
<text text-anchor="middle" x="247.5" y="-308" font-family="Helvetica,sans-Serif" font-size="10.00">::CGPIO_Manager::Clear_IRQ</text>
</a>
</g>
</g>
<!-- Node1&#45;&gt;Node2 -->
<g id="edge1" class="edge">
<title>Node1&#45;&gt;Node2</title>
<path fill="none" stroke="midnightblue" d="M372.9,-278.92C348.96,-286.05 321.73,-294.17 298.85,-300.99"/>
<polygon fill="midnightblue" stroke="midnightblue" points="374,-282.24 382.58,-276.03 372,-275.53 374,-282.24"/>
</g>
<!-- Node4 -->
<g id="node4" class="node">
<title>Node4</title>
<g id="a_node4"><a xlink:href="classzero__mate_1_1peripheral_1_1CInterrupt__Controller.html#aa731c1d6e73a4db1087a803ca5fe5557" target="_top" xlink:title="Enables/disables interrupts from a basic IRQ source.">
<polygon fill="none" stroke="black" points="171,-410.5 171,-451.5 324,-451.5 324,-410.5 171,-410.5"/>
<text text-anchor="start" x="179" y="-439.5" font-family="Helvetica,sans-Serif" font-size="10.00">zero_mate::peripheral</text>
<text text-anchor="start" x="179" y="-428.5" font-family="Helvetica,sans-Serif" font-size="10.00">::CInterrupt_Controller</text>
<text text-anchor="middle" x="247.5" y="-417.5" font-family="Helvetica,sans-Serif" font-size="10.00">::Enable_IRQ_Basic_Sources</text>
</a>
</g>
</g>
<!-- Node1&#45;&gt;Node4 -->
<g id="edge3" class="edge">
<title>Node1&#45;&gt;Node4</title>
<path fill="none" stroke="midnightblue" d="M420.01,-285.02C402.26,-315.79 367.72,-368.94 325,-401 320.32,-404.51 315.18,-407.67 309.84,-410.49"/>
<polygon fill="midnightblue" stroke="midnightblue" points="423.1,-286.67 424.96,-276.24 417,-283.23 423.1,-286.67"/>
</g>
<!-- Node6 -->
<g id="node6" class="node">
<title>Node6</title>
<g id="a_node6"><a xlink:href="classzero__mate_1_1peripheral_1_1CInterrupt__Controller.html#ac3c9423e443ca2389cef743f32713cca" target="_top" xlink:title="Enables/disables interrupts from an IRQ source.">
<polygon fill="none" stroke="black" points="185,-470.5 185,-511.5 310,-511.5 310,-470.5 185,-470.5"/>
<text text-anchor="start" x="193" y="-499.5" font-family="Helvetica,sans-Serif" font-size="10.00">zero_mate::peripheral</text>
<text text-anchor="start" x="193" y="-488.5" font-family="Helvetica,sans-Serif" font-size="10.00">::CInterrupt_Controller</text>
<text text-anchor="middle" x="247.5" y="-477.5" font-family="Helvetica,sans-Serif" font-size="10.00">::Enable_IRQ_Sources</text>
</a>
</g>
</g>
<!-- Node1&#45;&gt;Node6 -->
<g id="edge5" class="edge">
<title>Node1&#45;&gt;Node6</title>
<path fill="none" stroke="midnightblue" d="M425.86,-285.69C412.62,-327.37 380.43,-411.92 325,-461 320.51,-464.97 315.44,-468.45 310.09,-471.48"/>
<polygon fill="midnightblue" stroke="midnightblue" points="429.23,-286.65 428.82,-276.07 422.54,-284.6 429.23,-286.65"/>
</g>
<!-- Node7 -->
<g id="node7" class="node">
<title>Node7</title>
<g id="a_node7"><a xlink:href="classzero__mate_1_1peripheral_1_1CGPIO__Manager.html#ad29d57528b73baef90b0ca885a297e4d" target="_top" xlink:title="Enables/disables an interrupt for all pins within a given register.">
<polygon fill="none" stroke="black" points="185.5,-240.5 185.5,-281.5 309.5,-281.5 309.5,-240.5 185.5,-240.5"/>
<text text-anchor="start" x="193.5" y="-269.5" font-family="Helvetica,sans-Serif" font-size="10.00">zero_mate::peripheral</text>
<text text-anchor="start" x="193.5" y="-258.5" font-family="Helvetica,sans-Serif" font-size="10.00">::CGPIO_Manager::Set</text>
<text text-anchor="middle" x="247.5" y="-247.5" font-family="Helvetica,sans-Serif" font-size="10.00">_Interrupt</text>
</a>
</g>
</g>
<!-- Node1&#45;&gt;Node7 -->
<g id="edge7" class="edge">
<title>Node1&#45;&gt;Node7</title>
<path fill="none" stroke="midnightblue" d="M350.83,-261C336.95,-261 322.75,-261 309.52,-261"/>
<polygon fill="midnightblue" stroke="midnightblue" points="350.87,-264.5 360.87,-261 350.87,-257.5 350.87,-264.5"/>
</g>
<!-- Node8 -->
<g id="node8" class="node">
<title>Node8</title>
<g id="a_node8"><a xlink:href="classzero__mate_1_1peripheral_1_1external_1_1CButton.html#ad7960043a2404cc20757275d215bfca7" target="_top" xlink:title="Presses/Release the button based on the stated passed in as a parameter.">
<polygon fill="none" stroke="black" points="185.5,-0.5 185.5,-41.5 309.5,-41.5 309.5,-0.5 185.5,-0.5"/>
<text text-anchor="start" x="193.5" y="-29.5" font-family="Helvetica,sans-Serif" font-size="10.00">zero_mate::peripheral</text>
<text text-anchor="start" x="193.5" y="-18.5" font-family="Helvetica,sans-Serif" font-size="10.00">::external::CButton::</text>
<text text-anchor="middle" x="247.5" y="-7.5" font-family="Helvetica,sans-Serif" font-size="10.00">Set_Output</text>
</a>
</g>
</g>
<!-- Node1&#45;&gt;Node8 -->
<g id="edge9" class="edge">
<title>Node1&#45;&gt;Node8</title>
<path fill="none" stroke="midnightblue" d="M426.48,-236C413.93,-192.58 382.47,-102.93 325,-51 320.45,-46.89 315.27,-43.31 309.8,-40.2"/>
<polygon fill="midnightblue" stroke="midnightblue" points="423.14,-237.06 429.2,-245.75 429.88,-235.17 423.14,-237.06"/>
</g>
<!-- Node10 -->
<g id="node10" class="node">
<title>Node10</title>
<g id="a_node10"><a xlink:href="classzero__mate_1_1peripheral_1_1CInterrupt__Controller.html#a32373b931bb37ef8ee92f95a3f833284" target="_top" xlink:title="Notifies the interrupt controller about a pending interrupt triggered by a basic IRQ source.">
<polygon fill="none" stroke="black" points="185,-180.5 185,-221.5 310,-221.5 310,-180.5 185,-180.5"/>
<text text-anchor="start" x="193" y="-209.5" font-family="Helvetica,sans-Serif" font-size="10.00">zero_mate::peripheral</text>
<text text-anchor="start" x="193" y="-198.5" font-family="Helvetica,sans-Serif" font-size="10.00">::CInterrupt_Controller</text>
<text text-anchor="middle" x="247.5" y="-187.5" font-family="Helvetica,sans-Serif" font-size="10.00">::Signalize_Basic_IRQ</text>
</a>
</g>
</g>
<!-- Node1&#45;&gt;Node10 -->
<g id="edge11" class="edge">
<title>Node1&#45;&gt;Node10</title>
<path fill="none" stroke="midnightblue" d="M376.67,-242.68C355.6,-235.83 331.56,-228.01 310.04,-221.01"/>
<polygon fill="midnightblue" stroke="midnightblue" points="375.85,-246.1 386.44,-245.86 378.02,-239.44 375.85,-246.1"/>
</g>
<!-- Node11 -->
<g id="node11" class="node">
<title>Node11</title>
<g id="a_node11"><a xlink:href="classzero__mate_1_1peripheral_1_1CInterrupt__Controller.html#aa559a3a604ae1877cbbe749724d8a399" target="_top" xlink:title="Notifies the interrupt controller about a pending interrupt triggered by an IRQ source.">
<polygon fill="none" stroke="black" points="185,-120.5 185,-161.5 310,-161.5 310,-120.5 185,-120.5"/>
<text text-anchor="start" x="193" y="-149.5" font-family="Helvetica,sans-Serif" font-size="10.00">zero_mate::peripheral</text>
<text text-anchor="start" x="193" y="-138.5" font-family="Helvetica,sans-Serif" font-size="10.00">::CInterrupt_Controller</text>
<text text-anchor="middle" x="247.5" y="-127.5" font-family="Helvetica,sans-Serif" font-size="10.00">::Signalize_IRQ</text>
</a>
</g>
</g>
<!-- Node1&#45;&gt;Node11 -->
<g id="edge12" class="edge">
<title>Node1&#45;&gt;Node11</title>
<path fill="none" stroke="midnightblue" d="M410.75,-238.75C389.98,-218.93 357.41,-190.17 325,-171 319.23,-167.59 313,-164.41 306.67,-161.51"/>
<polygon fill="midnightblue" stroke="midnightblue" points="408.49,-241.43 418.11,-245.87 413.36,-236.4 408.49,-241.43"/>
</g>
<!-- Node12 -->
<g id="node12" class="node">
<title>Node12</title>
<g id="a_node12"><a xlink:href="classzero__mate_1_1peripheral_1_1CGPIO__Manager.html#ad7c6aa486cf3b116ffae9f16eec64064" target="_top" xlink:title="Updates the function of all pins within a given register.">
<polygon fill="none" stroke="black" points="176,-60.5 176,-101.5 319,-101.5 319,-60.5 176,-60.5"/>
<text text-anchor="start" x="184" y="-89.5" font-family="Helvetica,sans-Serif" font-size="10.00">zero_mate::peripheral</text>
<text text-anchor="start" x="184" y="-78.5" font-family="Helvetica,sans-Serif" font-size="10.00">::CGPIO_Manager::Update</text>
<text text-anchor="middle" x="247.5" y="-67.5" font-family="Helvetica,sans-Serif" font-size="10.00">_Pin_Function</text>
</a>
</g>
</g>
<!-- Node1&#45;&gt;Node12 -->
<g id="edge13" class="edge">
<title>Node1&#45;&gt;Node12</title>
<path fill="none" stroke="midnightblue" d="M420.97,-236.25C403.85,-203.42 369.56,-145.6 325,-111 320.49,-107.5 315.53,-104.36 310.35,-101.56"/>
<polygon fill="midnightblue" stroke="midnightblue" points="418.06,-238.26 425.72,-245.59 424.3,-235.09 418.06,-238.26"/>
</g>
<!-- Node13 -->
<g id="node13" class="node">
<title>Node13</title>
<g id="a_node13"><a xlink:href="classzero__mate_1_1peripheral_1_1CGPIO__Manager.html#ae93785da50eefb8a8cc21c1c59a32726" target="_top" xlink:title="Updates the state of all pins within a given register.">
<polygon fill="none" stroke="black" points="176,-350.5 176,-391.5 319,-391.5 319,-350.5 176,-350.5"/>
<text text-anchor="start" x="184" y="-379.5" font-family="Helvetica,sans-Serif" font-size="10.00">zero_mate::peripheral</text>
<text text-anchor="start" x="184" y="-368.5" font-family="Helvetica,sans-Serif" font-size="10.00">::CGPIO_Manager::Update</text>
<text text-anchor="middle" x="247.5" y="-357.5" font-family="Helvetica,sans-Serif" font-size="10.00">_Pin_State</text>
</a>
</g>
</g>
<!-- Node1&#45;&gt;Node13 -->
<g id="edge15" class="edge">
<title>Node1&#45;&gt;Node13</title>
<path fill="none" stroke="midnightblue" d="M407.82,-282.66C386.72,-300.05 355.28,-324.24 325,-341 319.01,-344.32 312.58,-347.44 306.08,-350.34"/>
<polygon fill="midnightblue" stroke="midnightblue" points="410.21,-285.22 415.65,-276.13 405.73,-279.85 410.21,-285.22"/>
</g>
<!-- Node3 -->
<g id="node3" class="node">
<title>Node3</title>
<g id="a_node3"><a xlink:href="classzero__mate_1_1peripheral_1_1CGPIO__Manager.html#a26aa957dbb7682447e4ebf9aa078c00c" target="_top" xlink:title="Writes data to the peripheral (IPeripheral interface).">
<polygon fill="none" stroke="black" points="0,-273 0,-303 134,-303 134,-273 0,-273"/>
<text text-anchor="start" x="8" y="-291" font-family="Helvetica,sans-Serif" font-size="10.00">zero_mate::peripheral</text>
<text text-anchor="middle" x="67" y="-280" font-family="Helvetica,sans-Serif" font-size="10.00">::CGPIO_Manager::Write</text>
</a>
</g>
</g>
<!-- Node2&#45;&gt;Node3 -->
<g id="edge2" class="edge">
<title>Node2&#45;&gt;Node3</title>
<path fill="none" stroke="midnightblue" d="M159.67,-302.38C151.04,-301.03 142.37,-299.67 134.01,-298.35"/>
<polygon fill="midnightblue" stroke="midnightblue" points="159.34,-305.87 169.76,-303.96 160.43,-298.96 159.34,-305.87"/>
</g>
<!-- Node5 -->
<g id="node5" class="node">
<title>Node5</title>
<g id="a_node5"><a xlink:href="classzero__mate_1_1peripheral_1_1CInterrupt__Controller.html#ab37428109c8e5f862b528417048903f3" target="_top" xlink:title="Writes data to the peripheral (IPeripheral interface).">
<polygon fill="none" stroke="black" points="4.5,-440.5 4.5,-481.5 129.5,-481.5 129.5,-440.5 4.5,-440.5"/>
<text text-anchor="start" x="12.5" y="-469.5" font-family="Helvetica,sans-Serif" font-size="10.00">zero_mate::peripheral</text>
<text text-anchor="start" x="12.5" y="-458.5" font-family="Helvetica,sans-Serif" font-size="10.00">::CInterrupt_Controller</text>
<text text-anchor="middle" x="67" y="-447.5" font-family="Helvetica,sans-Serif" font-size="10.00">::Write</text>
</a>
</g>
</g>
<!-- Node4&#45;&gt;Node5 -->
<g id="edge4" class="edge">
<title>Node4&#45;&gt;Node5</title>
<path fill="none" stroke="midnightblue" d="M160.8,-445.4C150.33,-447.16 139.8,-448.93 129.77,-450.62"/>
<polygon fill="midnightblue" stroke="midnightblue" points="161.52,-448.83 170.8,-443.72 160.36,-441.93 161.52,-448.83"/>
</g>
<!-- Node6&#45;&gt;Node5 -->
<g id="edge6" class="edge">
<title>Node6&#45;&gt;Node5</title>
<path fill="none" stroke="midnightblue" d="M174.64,-478.92C159.74,-476.42 144.17,-473.8 129.68,-471.37"/>
<polygon fill="midnightblue" stroke="midnightblue" points="174.38,-482.43 184.82,-480.63 175.54,-475.52 174.38,-482.43"/>
</g>
<!-- Node7&#45;&gt;Node3 -->
<g id="edge8" class="edge">
<title>Node7&#45;&gt;Node3</title>
<path fill="none" stroke="midnightblue" d="M174.9,-271.83C161.43,-273.87 147.41,-275.99 134.12,-278"/>
<polygon fill="midnightblue" stroke="midnightblue" points="175.71,-275.25 185.07,-270.29 174.66,-268.33 175.71,-275.25"/>
</g>
<!-- Node9 -->
<g id="node9" class="node">
<title>Node9</title>
<g id="a_node9"><a xlink:href="classzero__mate_1_1peripheral_1_1external_1_1CButton.html#a17cf51247a37038de86b10089c9b339f" target="_top" xlink:title="Toggles the button.">
<polygon fill="none" stroke="black" points="5,-0.5 5,-41.5 129,-41.5 129,-0.5 5,-0.5"/>
<text text-anchor="start" x="13" y="-29.5" font-family="Helvetica,sans-Serif" font-size="10.00">zero_mate::peripheral</text>
<text text-anchor="start" x="13" y="-18.5" font-family="Helvetica,sans-Serif" font-size="10.00">::external::CButton::</text>
<text text-anchor="middle" x="67" y="-7.5" font-family="Helvetica,sans-Serif" font-size="10.00">Toggle</text>
</a>
</g>
</g>
<!-- Node8&#45;&gt;Node9 -->
<g id="edge10" class="edge">
<title>Node8&#45;&gt;Node9</title>
<path fill="none" stroke="midnightblue" d="M174.76,-21C159.68,-21 143.9,-21 129.24,-21"/>
<polygon fill="midnightblue" stroke="midnightblue" points="175.07,-24.5 185.07,-21 175.07,-17.5 175.07,-24.5"/>
</g>
<!-- Node12&#45;&gt;Node3 -->
<g id="edge14" class="edge">
<title>Node12&#45;&gt;Node3</title>
<path fill="none" stroke="midnightblue" d="M174.81,-107.18C173.15,-108.4 171.54,-109.67 170,-111 116.25,-157.28 84.23,-239.28 72.79,-272.94"/>
<polygon fill="midnightblue" stroke="midnightblue" points="177.03,-109.91 183.49,-101.52 173.21,-104.05 177.03,-109.91"/>
</g>
<!-- Node13&#45;&gt;Node3 -->
<g id="edge16" class="edge">
<title>Node13&#45;&gt;Node3</title>
<path fill="none" stroke="midnightblue" d="M182.51,-346.49C178.26,-344.68 174.05,-342.84 170,-341 144.2,-329.28 115.64,-314.25 95.32,-303.2"/>
<polygon fill="midnightblue" stroke="midnightblue" points="181.3,-349.78 191.88,-350.39 183.99,-343.32 181.3,-349.78"/>
</g>
</g>
</svg>
