<?xml version="1.0" encoding="UTF-8" standalone="no"?>
<!DOCTYPE svg PUBLIC "-//W3C//DTD SVG 1.1//EN"
 "http://www.w3.org/Graphics/SVG/1.1/DTD/svg11.dtd">
<!-- Generated by graphviz version 2.43.0 (0)
 -->
<!-- Title: zero_mate::gui::CRegisters_Window::Render_Register_Tabs Pages: 1 -->
<svg width="1133pt" height="298pt"
 viewBox="0.00 0.00 1133.00 297.50" xmlns="http://www.w3.org/2000/svg" xmlns:xlink="http://www.w3.org/1999/xlink">
<g id="graph0" class="graph" transform="scale(1 1) rotate(0) translate(4 293.5)">
<title>zero_mate::gui::CRegisters_Window::Render_Register_Tabs</title>
<!-- Node1 -->
<g id="node1" class="node">
<title>Node1</title>
<g id="a_node1"><a xlink:title=" ">
<polygon fill="#bfbfbf" stroke="black" points="0,-139.5 0,-169.5 173,-169.5 173,-139.5 0,-139.5"/>
<text text-anchor="start" x="8" y="-157.5" font-family="Helvetica,sans-Serif" font-size="10.00">zero_mate::gui::CRegisters</text>
<text text-anchor="middle" x="86.5" y="-146.5" font-family="Helvetica,sans-Serif" font-size="10.00">_Window::Render_Register_Tabs</text>
</a>
</g>
</g>
<!-- Node2 -->
<g id="node2" class="node">
<title>Node2</title>
<g id="a_node2"><a xlink:href="classzero__mate_1_1gui_1_1CRegisters__Window.html#ab255199c377b463784b2cf30606c2d18" target="_top" xlink:title=" ">
<polygon fill="none" stroke="black" points="226,-208.5 226,-238.5 374,-238.5 374,-208.5 226,-208.5"/>
<text text-anchor="start" x="234" y="-226.5" font-family="Helvetica,sans-Serif" font-size="10.00">zero_mate::gui::CRegisters</text>
<text text-anchor="middle" x="300" y="-215.5" font-family="Helvetica,sans-Serif" font-size="10.00">_Window::Render_Flags</text>
</a>
</g>
</g>
<!-- Node1&#45;&gt;Node2 -->
<g id="edge1" class="edge">
<title>Node1&#45;&gt;Node2</title>
<path fill="none" stroke="midnightblue" d="M133.65,-169.56C165.85,-180.06 208.98,-194.13 243.12,-205.27"/>
<polygon fill="midnightblue" stroke="midnightblue" points="242.35,-208.7 252.95,-208.48 244.52,-202.05 242.35,-208.7"/>
</g>
<!-- Node4 -->
<g id="node4" class="node">
<title>Node4</title>
<g id="a_node4"><a xlink:href="classzero__mate_1_1gui_1_1CRegisters__Window.html#ad3bf490925aef83d99eda63e054f7c43" target="_top" xlink:title=" ">
<polygon fill="none" stroke="black" points="209,-115.5 209,-145.5 391,-145.5 391,-115.5 209,-115.5"/>
<text text-anchor="start" x="217" y="-133.5" font-family="Helvetica,sans-Serif" font-size="10.00">zero_mate::gui::CRegisters</text>
<text text-anchor="middle" x="300" y="-122.5" font-family="Helvetica,sans-Serif" font-size="10.00">_Window::Render_Registers_Table</text>
</a>
</g>
</g>
<!-- Node1&#45;&gt;Node4 -->
<g id="edge3" class="edge">
<title>Node1&#45;&gt;Node4</title>
<path fill="none" stroke="midnightblue" d="M173.22,-144.77C181.61,-143.82 190.18,-142.85 198.71,-141.88"/>
<polygon fill="midnightblue" stroke="midnightblue" points="199.13,-145.35 208.68,-140.75 198.35,-138.4 199.13,-145.35"/>
</g>
<!-- Node3 -->
<g id="node3" class="node">
<title>Node3</title>
<g id="a_node3"><a xlink:href="classzero__mate_1_1arm1176jzf__s_1_1CCPU__Context.html#a0013811c3eef6d91ddfd2423a08889ef" target="_top" xlink:title="Checks whether a given flag is set in the CPSR register of the current CPU mode.">
<polygon fill="none" stroke="black" points="441,-248 441,-289 571,-289 571,-248 441,-248"/>
<text text-anchor="start" x="449" y="-277" font-family="Helvetica,sans-Serif" font-size="10.00">zero_mate::arm1176jzf</text>
<text text-anchor="start" x="449" y="-266" font-family="Helvetica,sans-Serif" font-size="10.00">_s::CCPU_Context::Is</text>
<text text-anchor="middle" x="506" y="-255" font-family="Helvetica,sans-Serif" font-size="10.00">_Flag_Set</text>
</a>
</g>
</g>
<!-- Node2&#45;&gt;Node3 -->
<g id="edge2" class="edge">
<title>Node2&#45;&gt;Node3</title>
<path fill="none" stroke="midnightblue" d="M369.21,-238.55C389.12,-242.94 410.96,-247.76 431.2,-252.22"/>
<polygon fill="midnightblue" stroke="midnightblue" points="430.47,-255.64 440.99,-254.38 431.98,-248.81 430.47,-255.64"/>
</g>
<!-- Node5 -->
<g id="node5" class="node">
<title>Node5</title>
<g id="a_node5"><a xlink:href="classzero__mate_1_1arm1176jzf__s_1_1CCPU__Context.html#acf66c6ff905975912dbf52133ddfeceb" target="_top" xlink:title="Returns a reference the CPSR register of the current CPU mode.">
<polygon fill="none" stroke="black" points="427,-198.5 427,-228.5 585,-228.5 585,-198.5 427,-198.5"/>
<text text-anchor="start" x="435" y="-216.5" font-family="Helvetica,sans-Serif" font-size="10.00">zero_mate::arm1176jzf</text>
<text text-anchor="middle" x="506" y="-205.5" font-family="Helvetica,sans-Serif" font-size="10.00">_s::CCPU_Context::Get_CPSR</text>
</a>
</g>
</g>
<!-- Node4&#45;&gt;Node5 -->
<g id="edge4" class="edge">
<title>Node4&#45;&gt;Node5</title>
<path fill="none" stroke="midnightblue" d="M331.11,-145.61C356.36,-157.98 393.56,-175.5 427,-188.5 432.83,-190.77 438.95,-192.99 445.11,-195.12"/>
<polygon fill="midnightblue" stroke="midnightblue" points="444.16,-198.5 454.75,-198.39 446.4,-191.87 444.16,-198.5"/>
</g>
<!-- Node6 -->
<g id="node6" class="node">
<title>Node6</title>
<g id="a_node6"><a xlink:href="classzero__mate_1_1arm1176jzf__s_1_1CCPU__Context.html#a22efcb34f3c1bd9f46f1f75771103ef9" target="_top" xlink:title="Returns a const reference to a register of a particular CPU mode.">
<polygon fill="none" stroke="black" points="441,-138 441,-179 571,-179 571,-138 441,-138"/>
<text text-anchor="start" x="449" y="-167" font-family="Helvetica,sans-Serif" font-size="10.00">zero_mate::arm1176jzf</text>
<text text-anchor="start" x="449" y="-156" font-family="Helvetica,sans-Serif" font-size="10.00">_s::CCPU_Context::Get</text>
<text text-anchor="middle" x="506" y="-145" font-family="Helvetica,sans-Serif" font-size="10.00">_Register</text>
</a>
</g>
</g>
<!-- Node4&#45;&gt;Node6 -->
<g id="edge5" class="edge">
<title>Node4&#45;&gt;Node6</title>
<path fill="none" stroke="midnightblue" d="M391.07,-142.86C404.29,-144.68 417.79,-146.53 430.65,-148.29"/>
<polygon fill="midnightblue" stroke="midnightblue" points="430.42,-151.8 440.81,-149.69 431.38,-144.86 430.42,-151.8"/>
</g>
<!-- Node7 -->
<g id="node7" class="node">
<title>Node7</title>
<g id="a_node7"><a xlink:href="classzero__mate_1_1arm1176jzf__s_1_1CCPU__Context.html#ae00681efcbc4adfcfde001a67c5baeca" target="_top" xlink:title="Returns the value of the SPSR register of the current CPU mode.">
<polygon fill="none" stroke="black" points="427.5,-88.5 427.5,-118.5 584.5,-118.5 584.5,-88.5 427.5,-88.5"/>
<text text-anchor="start" x="435.5" y="-106.5" font-family="Helvetica,sans-Serif" font-size="10.00">zero_mate::arm1176jzf</text>
<text text-anchor="middle" x="506" y="-95.5" font-family="Helvetica,sans-Serif" font-size="10.00">_s::CCPU_Context::Get_SPSR</text>
</a>
</g>
</g>
<!-- Node4&#45;&gt;Node7 -->
<g id="edge6" class="edge">
<title>Node4&#45;&gt;Node7</title>
<path fill="none" stroke="midnightblue" d="M391.07,-118.58C399.74,-117.43 408.53,-116.27 417.17,-115.12"/>
<polygon fill="midnightblue" stroke="midnightblue" points="417.79,-118.57 427.24,-113.79 416.87,-111.63 417.79,-118.57"/>
</g>
<!-- Node11 -->
<g id="node11" class="node">
<title>Node11</title>
<g id="a_node11"><a xlink:href="classzero__mate_1_1arm1176jzf__s_1_1CCPU__Context.html#a6fc387fa0b0dd040c4e2463606d933e4" target="_top" xlink:title="Checks if the CPU mode passed in as a parameter supports the SPSR register or not.">
<polygon fill="none" stroke="black" points="802,-39 802,-80 932,-80 932,-39 802,-39"/>
<text text-anchor="start" x="810" y="-68" font-family="Helvetica,sans-Serif" font-size="10.00">zero_mate::arm1176jzf</text>
<text text-anchor="start" x="810" y="-57" font-family="Helvetica,sans-Serif" font-size="10.00">_s::CCPU_Context::Is</text>
<text text-anchor="middle" x="867" y="-46" font-family="Helvetica,sans-Serif" font-size="10.00">_Mode_With_No_SPSR</text>
</a>
</g>
</g>
<!-- Node4&#45;&gt;Node11 -->
<g id="edge11" class="edge">
<title>Node4&#45;&gt;Node11</title>
<path fill="none" stroke="midnightblue" d="M329.59,-115.32C354.54,-102.91 392.11,-86.2 427,-78.5 552.75,-50.73 703.56,-51.32 791.69,-54.95"/>
<polygon fill="midnightblue" stroke="midnightblue" points="791.71,-58.45 801.86,-55.39 792.02,-51.46 791.71,-58.45"/>
</g>
<!-- Node12 -->
<g id="node12" class="node">
<title>Node12</title>
<g id="a_node12"><a xlink:href="classzero__mate_1_1gui_1_1CRegisters__Window.html#a01300a0700c4a72bda627efb62154b87" target="_top" xlink:title=" ">
<polygon fill="none" stroke="black" points="432,-0.5 432,-30.5 580,-30.5 580,-0.5 432,-0.5"/>
<text text-anchor="start" x="440" y="-18.5" font-family="Helvetica,sans-Serif" font-size="10.00">zero_mate::gui::CRegisters</text>
<text text-anchor="middle" x="506" y="-7.5" font-family="Helvetica,sans-Serif" font-size="10.00">_Window::Render_Value</text>
</a>
</g>
</g>
<!-- Node4&#45;&gt;Node12 -->
<g id="edge12" class="edge">
<title>Node4&#45;&gt;Node12</title>
<path fill="none" stroke="midnightblue" d="M320.64,-115.18C344.71,-96.91 387.22,-66.23 427,-45.5 434.58,-41.55 442.81,-37.83 450.98,-34.44"/>
<polygon fill="midnightblue" stroke="midnightblue" points="452.53,-37.59 460.5,-30.62 449.92,-31.09 452.53,-37.59"/>
</g>
<!-- Node8 -->
<g id="node8" class="node">
<title>Node8</title>
<g id="a_node8"><a xlink:href="classzero__mate_1_1arm1176jzf__s_1_1CCPU__Context.html#a050dada520ca82a21874045815c596a8" target="_top" xlink:title=" ">
<polygon fill="none" stroke="black" points="621,-88 621,-129 758,-129 758,-88 621,-88"/>
<text text-anchor="start" x="629" y="-117" font-family="Helvetica,sans-Serif" font-size="10.00">zero_mate::arm1176jzf</text>
<text text-anchor="start" x="629" y="-106" font-family="Helvetica,sans-Serif" font-size="10.00">_s::CCPU_Context::Verify</text>
<text text-anchor="middle" x="689.5" y="-95" font-family="Helvetica,sans-Serif" font-size="10.00">_SPSR_Accessibility</text>
</a>
</g>
</g>
<!-- Node7&#45;&gt;Node8 -->
<g id="edge7" class="edge">
<title>Node7&#45;&gt;Node8</title>
<path fill="none" stroke="midnightblue" d="M584.76,-105.64C593.41,-105.88 602.21,-106.12 610.85,-106.36"/>
<polygon fill="midnightblue" stroke="midnightblue" points="610.81,-109.86 620.91,-106.64 611.01,-102.86 610.81,-109.86"/>
</g>
<!-- Node9 -->
<g id="node9" class="node">
<title>Node9</title>
<g id="a_node9"><a xlink:href="classzero__mate_1_1utils_1_1CLogging__System.html#aba3c5c64cd12e058e6a288db2cd89a15" target="_top" xlink:title="Logs an error message via all registered loggers.">
<polygon fill="none" stroke="black" points="794,-99.5 794,-129.5 940,-129.5 940,-99.5 794,-99.5"/>
<text text-anchor="start" x="802" y="-117.5" font-family="Helvetica,sans-Serif" font-size="10.00">zero_mate::utils::CLogging</text>
<text text-anchor="middle" x="867" y="-106.5" font-family="Helvetica,sans-Serif" font-size="10.00">_System::Error</text>
</a>
</g>
</g>
<!-- Node8&#45;&gt;Node9 -->
<g id="edge8" class="edge">
<title>Node8&#45;&gt;Node9</title>
<path fill="none" stroke="midnightblue" d="M758.1,-110.81C766.5,-111.1 775.16,-111.39 783.75,-111.69"/>
<polygon fill="midnightblue" stroke="midnightblue" points="783.66,-115.19 793.77,-112.03 783.9,-108.19 783.66,-115.19"/>
</g>
<!-- Node8&#45;&gt;Node11 -->
<g id="edge10" class="edge">
<title>Node8&#45;&gt;Node11</title>
<path fill="none" stroke="midnightblue" d="M758.1,-89.63C769.23,-86.52 780.81,-83.28 792.09,-80.14"/>
<polygon fill="midnightblue" stroke="midnightblue" points="793.2,-83.46 801.89,-77.4 791.32,-76.72 793.2,-83.46"/>
</g>
<!-- Node10 -->
<g id="node10" class="node">
<title>Node10</title>
<g id="a_node10"><a xlink:href="classzero__mate_1_1utils_1_1CLogging__System.html#a90671387b53987d6fd3c85348cb234e4" target="_top" xlink:title="Extract the filename from a given location within the source files.">
<polygon fill="none" stroke="black" points="976,-99.5 976,-129.5 1125,-129.5 1125,-99.5 976,-99.5"/>
<text text-anchor="start" x="984" y="-117.5" font-family="Helvetica,sans-Serif" font-size="10.00">zero_mate::utils::CLogging</text>
<text text-anchor="middle" x="1050.5" y="-106.5" font-family="Helvetica,sans-Serif" font-size="10.00">_System::Extract_Filename</text>
</a>
</g>
</g>
<!-- Node9&#45;&gt;Node10 -->
<g id="edge9" class="edge">
<title>Node9&#45;&gt;Node10</title>
<path fill="none" stroke="midnightblue" d="M940.26,-114.5C948.55,-114.5 957.06,-114.5 965.49,-114.5"/>
<polygon fill="midnightblue" stroke="midnightblue" points="965.71,-118 975.71,-114.5 965.71,-111 965.71,-118"/>
</g>
</g>
</svg>
