<?xml version="1.0" encoding="UTF-8" standalone="no"?>
<!DOCTYPE svg PUBLIC "-//W3C//DTD SVG 1.1//EN"
 "http://www.w3.org/Graphics/SVG/1.1/DTD/svg11.dtd">
<!-- Generated by graphviz version 2.43.0 (0)
 -->
<!-- Title: zero_mate::gui::external_peripheral::CButton_Window::Render Pages: 1 -->
<svg width="366pt" height="110pt"
 viewBox="0.00 0.00 366.00 110.00" xmlns="http://www.w3.org/2000/svg" xmlns:xlink="http://www.w3.org/1999/xlink">
<g id="graph0" class="graph" transform="scale(1 1) rotate(0) translate(4 106)">
<title>zero_mate::gui::external_peripheral::CButton_Window::Render</title>
<!-- Node1 -->
<g id="node1" class="node">
<title>Node1</title>
<g id="a_node1"><a xlink:title=" ">
<polygon fill="#bfbfbf" stroke="black" points="0,-30.5 0,-71.5 161,-71.5 161,-30.5 0,-30.5"/>
<text text-anchor="start" x="8" y="-59.5" font-family="Helvetica,sans-Serif" font-size="10.00">zero_mate::gui::external</text>
<text text-anchor="start" x="8" y="-48.5" font-family="Helvetica,sans-Serif" font-size="10.00">_peripheral::CButton_Window</text>
<text text-anchor="middle" x="80.5" y="-37.5" font-family="Helvetica,sans-Serif" font-size="10.00">::Render</text>
</a>
</g>
</g>
<!-- Node2 -->
<g id="node2" class="node">
<title>Node2</title>
<g id="a_node2"><a xlink:href="classzero__mate_1_1gui_1_1external__peripheral_1_1CButton__Window.html#a1fc3554a8cb25e0784ddc85966a2e18b" target="_top" xlink:title=" ">
<polygon fill="none" stroke="black" points="197,-60.5 197,-101.5 358,-101.5 358,-60.5 197,-60.5"/>
<text text-anchor="start" x="205" y="-89.5" font-family="Helvetica,sans-Serif" font-size="10.00">zero_mate::gui::external</text>
<text text-anchor="start" x="205" y="-78.5" font-family="Helvetica,sans-Serif" font-size="10.00">_peripheral::CButton_Window</text>
<text text-anchor="middle" x="277.5" y="-67.5" font-family="Helvetica,sans-Serif" font-size="10.00">::Render_Button</text>
</a>
</g>
</g>
<!-- Node1&#45;&gt;Node2 -->
<g id="edge1" class="edge">
<title>Node1&#45;&gt;Node2</title>
<path fill="none" stroke="midnightblue" d="M161.1,-63.25C169.57,-64.55 178.24,-65.88 186.82,-67.2"/>
<polygon fill="midnightblue" stroke="midnightblue" points="186.43,-70.68 196.84,-68.75 187.49,-63.77 186.43,-70.68"/>
</g>
<!-- Node3 -->
<g id="node3" class="node">
<title>Node3</title>
<g id="a_node3"><a xlink:href="classzero__mate_1_1gui_1_1external__peripheral_1_1CButton__Window.html#a7fbbc6bc84388b48cb967dfdd6119d64" target="_top" xlink:title=" ">
<polygon fill="none" stroke="black" points="197,-0.5 197,-41.5 358,-41.5 358,-0.5 197,-0.5"/>
<text text-anchor="start" x="205" y="-29.5" font-family="Helvetica,sans-Serif" font-size="10.00">zero_mate::gui::external</text>
<text text-anchor="start" x="205" y="-18.5" font-family="Helvetica,sans-Serif" font-size="10.00">_peripheral::CButton_Window</text>
<text text-anchor="middle" x="277.5" y="-7.5" font-family="Helvetica,sans-Serif" font-size="10.00">::Render_Combobox</text>
</a>
</g>
</g>
<!-- Node1&#45;&gt;Node3 -->
<g id="edge2" class="edge">
<title>Node1&#45;&gt;Node3</title>
<path fill="none" stroke="midnightblue" d="M161.1,-38.75C169.57,-37.45 178.24,-36.12 186.82,-34.8"/>
<polygon fill="midnightblue" stroke="midnightblue" points="187.49,-38.23 196.84,-33.25 186.43,-31.32 187.49,-38.23"/>
</g>
</g>
</svg>
