<?xml version="1.0" encoding="UTF-8" standalone="no"?>
<!DOCTYPE svg PUBLIC "-//W3C//DTD SVG 1.1//EN"
 "http://www.w3.org/Graphics/SVG/1.1/DTD/svg11.dtd">
<!-- Generated by graphviz version 2.43.0 (0)
 -->
<!-- Title: zero_mate::gui::CRegisters_Window::Render_Registers_Table Pages: 1 -->
<svg width="384pt" height="259pt"
 viewBox="0.00 0.00 384.00 259.00" xmlns="http://www.w3.org/2000/svg" xmlns:xlink="http://www.w3.org/1999/xlink">
<g id="graph0" class="graph" transform="scale(1 1) rotate(0) translate(4 255)">
<title>zero_mate::gui::CRegisters_Window::Render_Registers_Table</title>
<!-- Node1 -->
<g id="node1" class="node">
<title>Node1</title>
<g id="a_node1"><a xlink:title=" ">
<polygon fill="#bfbfbf" stroke="black" points="0,-110.5 0,-140.5 182,-140.5 182,-110.5 0,-110.5"/>
<text text-anchor="start" x="8" y="-128.5" font-family="Helvetica,sans-Serif" font-size="10.00">zero_mate::gui::CRegisters</text>
<text text-anchor="middle" x="91" y="-117.5" font-family="Helvetica,sans-Serif" font-size="10.00">_Window::Render_Registers_Table</text>
</a>
</g>
</g>
<!-- Node2 -->
<g id="node2" class="node">
<title>Node2</title>
<g id="a_node2"><a xlink:href="classzero__mate_1_1arm1176jzf__s_1_1CCPU__Context.html#acf66c6ff905975912dbf52133ddfeceb" target="_top" xlink:title=" ">
<polygon fill="none" stroke="black" points="218,-220.5 218,-250.5 376,-250.5 376,-220.5 218,-220.5"/>
<text text-anchor="start" x="226" y="-238.5" font-family="Helvetica,sans-Serif" font-size="10.00">zero_mate::arm1176jzf</text>
<text text-anchor="middle" x="297" y="-227.5" font-family="Helvetica,sans-Serif" font-size="10.00">_s::CCPU_Context::Get_CPSR</text>
</a>
</g>
</g>
<!-- Node1&#45;&gt;Node2 -->
<g id="edge1" class="edge">
<title>Node1&#45;&gt;Node2</title>
<path fill="none" stroke="midnightblue" d="M110.61,-140.55C134.33,-159.13 177.17,-190.68 218,-210.5 222.6,-212.73 227.45,-214.83 232.38,-216.79"/>
<polygon fill="midnightblue" stroke="midnightblue" points="231.34,-220.14 241.93,-220.38 233.8,-213.58 231.34,-220.14"/>
</g>
<!-- Node3 -->
<g id="node3" class="node">
<title>Node3</title>
<g id="a_node3"><a xlink:href="classzero__mate_1_1arm1176jzf__s_1_1CCPU__Context.html#a22efcb34f3c1bd9f46f1f75771103ef9" target="_top" xlink:title=" ">
<polygon fill="none" stroke="black" points="232,-160 232,-201 362,-201 362,-160 232,-160"/>
<text text-anchor="start" x="240" y="-189" font-family="Helvetica,sans-Serif" font-size="10.00">zero_mate::arm1176jzf</text>
<text text-anchor="start" x="240" y="-178" font-family="Helvetica,sans-Serif" font-size="10.00">_s::CCPU_Context::Get</text>
<text text-anchor="middle" x="297" y="-167" font-family="Helvetica,sans-Serif" font-size="10.00">_Register</text>
</a>
</g>
</g>
<!-- Node1&#45;&gt;Node3 -->
<g id="edge2" class="edge">
<title>Node1&#45;&gt;Node3</title>
<path fill="none" stroke="midnightblue" d="M147.74,-140.53C170.55,-146.68 197.28,-153.88 221.71,-160.47"/>
<polygon fill="midnightblue" stroke="midnightblue" points="221.1,-163.93 231.66,-163.15 222.92,-157.17 221.1,-163.93"/>
</g>
<!-- Node4 -->
<g id="node4" class="node">
<title>Node4</title>
<g id="a_node4"><a xlink:href="classzero__mate_1_1arm1176jzf__s_1_1CCPU__Context.html#ae00681efcbc4adfcfde001a67c5baeca" target="_top" xlink:title=" ">
<polygon fill="none" stroke="black" points="218.5,-110.5 218.5,-140.5 375.5,-140.5 375.5,-110.5 218.5,-110.5"/>
<text text-anchor="start" x="226.5" y="-128.5" font-family="Helvetica,sans-Serif" font-size="10.00">zero_mate::arm1176jzf</text>
<text text-anchor="middle" x="297" y="-117.5" font-family="Helvetica,sans-Serif" font-size="10.00">_s::CCPU_Context::Get_SPSR</text>
</a>
</g>
</g>
<!-- Node1&#45;&gt;Node4 -->
<g id="edge3" class="edge">
<title>Node1&#45;&gt;Node4</title>
<path fill="none" stroke="midnightblue" d="M182.07,-125.5C190.74,-125.5 199.53,-125.5 208.17,-125.5"/>
<polygon fill="midnightblue" stroke="midnightblue" points="208.24,-129 218.24,-125.5 208.24,-122 208.24,-129"/>
</g>
<!-- Node5 -->
<g id="node5" class="node">
<title>Node5</title>
<g id="a_node5"><a xlink:href="classzero__mate_1_1arm1176jzf__s_1_1CCPU__Context.html#a6fc387fa0b0dd040c4e2463606d933e4" target="_top" xlink:title=" ">
<polygon fill="none" stroke="black" points="232,-50 232,-91 362,-91 362,-50 232,-50"/>
<text text-anchor="start" x="240" y="-79" font-family="Helvetica,sans-Serif" font-size="10.00">zero_mate::arm1176jzf</text>
<text text-anchor="start" x="240" y="-68" font-family="Helvetica,sans-Serif" font-size="10.00">_s::CCPU_Context::Is</text>
<text text-anchor="middle" x="297" y="-57" font-family="Helvetica,sans-Serif" font-size="10.00">_Mode_With_No_SPSR</text>
</a>
</g>
</g>
<!-- Node1&#45;&gt;Node5 -->
<g id="edge4" class="edge">
<title>Node1&#45;&gt;Node5</title>
<path fill="none" stroke="midnightblue" d="M147.74,-110.47C170.55,-104.32 197.28,-97.12 221.71,-90.53"/>
<polygon fill="midnightblue" stroke="midnightblue" points="222.92,-93.83 231.66,-87.85 221.1,-87.07 222.92,-93.83"/>
</g>
<!-- Node6 -->
<g id="node6" class="node">
<title>Node6</title>
<g id="a_node6"><a xlink:href="classzero__mate_1_1gui_1_1CRegisters__Window.html#a01300a0700c4a72bda627efb62154b87" target="_top" xlink:title=" ">
<polygon fill="none" stroke="black" points="223,-0.5 223,-30.5 371,-30.5 371,-0.5 223,-0.5"/>
<text text-anchor="start" x="231" y="-18.5" font-family="Helvetica,sans-Serif" font-size="10.00">zero_mate::gui::CRegisters</text>
<text text-anchor="middle" x="297" y="-7.5" font-family="Helvetica,sans-Serif" font-size="10.00">_Window::Render_Value</text>
</a>
</g>
</g>
<!-- Node1&#45;&gt;Node6 -->
<g id="edge5" class="edge">
<title>Node1&#45;&gt;Node6</title>
<path fill="none" stroke="midnightblue" d="M110.61,-110.45C134.33,-91.87 177.17,-60.32 218,-40.5 222.6,-38.27 227.45,-36.17 232.38,-34.21"/>
<polygon fill="midnightblue" stroke="midnightblue" points="233.8,-37.42 241.93,-30.62 231.34,-30.86 233.8,-37.42"/>
</g>
</g>
</svg>
