<?xml version="1.0" encoding="UTF-8" standalone="no"?>
<!DOCTYPE svg PUBLIC "-//W3C//DTD SVG 1.1//EN"
 "http://www.w3.org/Graphics/SVG/1.1/DTD/svg11.dtd">
<!-- Generated by graphviz version 2.43.0 (0)
 -->
<!-- Title: zero_mate::arm1176jzf_s::mmu::CMMU::Fetch_DL1_From_RAM Pages: 1 -->
<svg width="509pt" height="50pt"
 viewBox="0.00 0.00 509.00 50.00" xmlns="http://www.w3.org/2000/svg" xmlns:xlink="http://www.w3.org/1999/xlink">
<g id="graph0" class="graph" transform="scale(1 1) rotate(0) translate(4 46)">
<title>zero_mate::arm1176jzf_s::mmu::CMMU::Fetch_DL1_From_RAM</title>
<!-- Node1 -->
<g id="node1" class="node">
<title>Node1</title>
<g id="a_node1"><a xlink:title="Fetches the first level page tables (tbbr0, tbbr1) from the RAM.">
<polygon fill="#bfbfbf" stroke="black" points="0,-0.5 0,-41.5 130,-41.5 130,-0.5 0,-0.5"/>
<text text-anchor="start" x="8" y="-29.5" font-family="Helvetica,sans-Serif" font-size="10.00">zero_mate::arm1176jzf</text>
<text text-anchor="start" x="8" y="-18.5" font-family="Helvetica,sans-Serif" font-size="10.00">_s::mmu::CMMU::Fetch</text>
<text text-anchor="middle" x="65" y="-7.5" font-family="Helvetica,sans-Serif" font-size="10.00">_DL1_From_RAM</text>
</a>
</g>
</g>
<!-- Node2 -->
<g id="node2" class="node">
<title>Node2</title>
<g id="a_node2"><a xlink:href="classzero__mate_1_1coprocessor_1_1cp15_1_1CC2.html#ae01856374ec8bac99ac7652c0d99de48" target="_top" xlink:title="Returns the physical address of a given page table.">
<polygon fill="none" stroke="black" points="166,-6 166,-36 329,-36 329,-6 166,-6"/>
<text text-anchor="start" x="174" y="-24" font-family="Helvetica,sans-Serif" font-size="10.00">zero_mate::coprocessor</text>
<text text-anchor="middle" x="247.5" y="-13" font-family="Helvetica,sans-Serif" font-size="10.00">::cp15::CC2::Get_TTB_Address</text>
</a>
</g>
</g>
<!-- Node1&#45;&gt;Node2 -->
<g id="edge1" class="edge">
<title>Node1&#45;&gt;Node2</title>
<path fill="none" stroke="midnightblue" d="M130.15,-21C138.45,-21 147.07,-21 155.71,-21"/>
<polygon fill="midnightblue" stroke="midnightblue" points="155.82,-24.5 165.82,-21 155.82,-17.5 155.82,-24.5"/>
</g>
<!-- Node3 -->
<g id="node3" class="node">
<title>Node3</title>
<g id="a_node3"><a xlink:href="classzero__mate_1_1coprocessor_1_1cp15_1_1CC2.html#ac31765da4a10567be0232abedeff1b75" target="_top" xlink:title="Extracts bits determined by a given mask from a given secondary register.">
<polygon fill="none" stroke="black" points="365,-0.5 365,-41.5 501,-41.5 501,-0.5 365,-0.5"/>
<text text-anchor="start" x="373" y="-29.5" font-family="Helvetica,sans-Serif" font-size="10.00">zero_mate::coprocessor</text>
<text text-anchor="start" x="373" y="-18.5" font-family="Helvetica,sans-Serif" font-size="10.00">::cp15::CC2::Extract_Bits</text>
<text text-anchor="middle" x="433" y="-7.5" font-family="Helvetica,sans-Serif" font-size="10.00">_From_TTBR</text>
</a>
</g>
</g>
<!-- Node2&#45;&gt;Node3 -->
<g id="edge2" class="edge">
<title>Node2&#45;&gt;Node3</title>
<path fill="none" stroke="midnightblue" d="M329.25,-21C337.73,-21 346.33,-21 354.77,-21"/>
<polygon fill="midnightblue" stroke="midnightblue" points="354.96,-24.5 364.96,-21 354.96,-17.5 354.96,-24.5"/>
</g>
</g>
</svg>
