<?xml version="1.0" encoding="UTF-8" standalone="no"?>
<!DOCTYPE svg PUBLIC "-//W3C//DTD SVG 1.1//EN"
 "http://www.w3.org/Graphics/SVG/1.1/DTD/svg11.dtd">
<!-- Generated by graphviz version 2.43.0 (0)
 -->
<!-- Title: zero_mate::peripheral::CMini_UART::Update_RX Pages: 1 -->
<svg width="894pt" height="280pt"
 viewBox="0.00 0.00 894.00 279.50" xmlns="http://www.w3.org/2000/svg" xmlns:xlink="http://www.w3.org/1999/xlink">
<g id="graph0" class="graph" transform="scale(1 1) rotate(0) translate(4 275.5)">
<title>zero_mate::peripheral::CMini_UART::Update_RX</title>
<!-- Node1 -->
<g id="node1" class="node">
<title>Node1</title>
<g id="a_node1"><a xlink:title="Updates the reception state machines.">
<polygon fill="#bfbfbf" stroke="black" points="0,-145.5 0,-175.5 141,-175.5 141,-145.5 0,-145.5"/>
<text text-anchor="start" x="8" y="-163.5" font-family="Helvetica,sans-Serif" font-size="10.00">zero_mate::peripheral</text>
<text text-anchor="middle" x="70.5" y="-152.5" font-family="Helvetica,sans-Serif" font-size="10.00">::CMini_UART::Update_RX</text>
</a>
</g>
</g>
<!-- Node2 -->
<g id="node2" class="node">
<title>Node2</title>
<g id="a_node2"><a xlink:href="classzero__mate_1_1peripheral_1_1CMini__UART.html#a2a71009ed1f6227341dad8926bd73d81" target="_top" xlink:title="Returns information about whether the receiver is enabled or not.">
<polygon fill="none" stroke="black" points="177,-230 177,-271 320,-271 320,-230 177,-230"/>
<text text-anchor="start" x="185" y="-259" font-family="Helvetica,sans-Serif" font-size="10.00">zero_mate::peripheral</text>
<text text-anchor="start" x="185" y="-248" font-family="Helvetica,sans-Serif" font-size="10.00">::CMini_UART::Is_Receiver</text>
<text text-anchor="middle" x="248.5" y="-237" font-family="Helvetica,sans-Serif" font-size="10.00">_Enabled</text>
</a>
</g>
</g>
<!-- Node1&#45;&gt;Node2 -->
<g id="edge1" class="edge">
<title>Node1&#45;&gt;Node2</title>
<path fill="none" stroke="midnightblue" d="M96.22,-175.63C117.32,-188.29 148.68,-206.48 177,-220.5 180.52,-222.24 184.17,-223.98 187.86,-225.7"/>
<polygon fill="midnightblue" stroke="midnightblue" points="186.56,-228.95 197.11,-229.89 189.45,-222.57 186.56,-228.95"/>
</g>
<!-- Node3 -->
<g id="node3" class="node">
<title>Node3</title>
<g id="a_node3"><a xlink:href="classzero__mate_1_1peripheral_1_1CMini__UART.html#aa1f84217d3edc234677d1b755f829a92" target="_top" xlink:title="Receives another bit of the current payload (actual data).">
<polygon fill="none" stroke="black" points="185.5,-170 185.5,-211 311.5,-211 311.5,-170 185.5,-170"/>
<text text-anchor="start" x="193.5" y="-199" font-family="Helvetica,sans-Serif" font-size="10.00">zero_mate::peripheral</text>
<text text-anchor="start" x="193.5" y="-188" font-family="Helvetica,sans-Serif" font-size="10.00">::CMini_UART::Receive</text>
<text text-anchor="middle" x="248.5" y="-177" font-family="Helvetica,sans-Serif" font-size="10.00">_Payload</text>
</a>
</g>
</g>
<!-- Node1&#45;&gt;Node3 -->
<g id="edge2" class="edge">
<title>Node1&#45;&gt;Node3</title>
<path fill="none" stroke="midnightblue" d="M141.06,-172.36C152.36,-174.28 164.08,-176.28 175.43,-178.22"/>
<polygon fill="midnightblue" stroke="midnightblue" points="174.85,-181.67 185.29,-179.9 176.02,-174.77 174.85,-181.67"/>
</g>
<!-- Node6 -->
<g id="node6" class="node">
<title>Node6</title>
<g id="a_node6"><a xlink:href="classzero__mate_1_1peripheral_1_1CMini__UART.html#a3545c8e0edd034e14ef0a4f8b83cbc0e" target="_top" xlink:title="Receives a start bit.">
<polygon fill="none" stroke="black" points="185.5,-110 185.5,-151 311.5,-151 311.5,-110 185.5,-110"/>
<text text-anchor="start" x="193.5" y="-139" font-family="Helvetica,sans-Serif" font-size="10.00">zero_mate::peripheral</text>
<text text-anchor="start" x="193.5" y="-128" font-family="Helvetica,sans-Serif" font-size="10.00">::CMini_UART::Receive</text>
<text text-anchor="middle" x="248.5" y="-117" font-family="Helvetica,sans-Serif" font-size="10.00">_Start_Bit</text>
</a>
</g>
</g>
<!-- Node1&#45;&gt;Node6 -->
<g id="edge5" class="edge">
<title>Node1&#45;&gt;Node6</title>
<path fill="none" stroke="midnightblue" d="M141.06,-148.64C152.36,-146.72 164.08,-144.72 175.43,-142.78"/>
<polygon fill="midnightblue" stroke="midnightblue" points="176.02,-146.23 185.29,-141.1 174.85,-139.33 176.02,-146.23"/>
</g>
<!-- Node7 -->
<g id="node7" class="node">
<title>Node7</title>
<g id="a_node7"><a xlink:href="classzero__mate_1_1peripheral_1_1CMini__UART.html#a61374ff136a5d8f6ce17ae0a01e72c77" target="_top" xlink:title="Receives a stop bit.">
<polygon fill="none" stroke="black" points="185.5,-50 185.5,-91 311.5,-91 311.5,-50 185.5,-50"/>
<text text-anchor="start" x="193.5" y="-79" font-family="Helvetica,sans-Serif" font-size="10.00">zero_mate::peripheral</text>
<text text-anchor="start" x="193.5" y="-68" font-family="Helvetica,sans-Serif" font-size="10.00">::CMini_UART::Receive</text>
<text text-anchor="middle" x="248.5" y="-57" font-family="Helvetica,sans-Serif" font-size="10.00">_Stop_Bit</text>
</a>
</g>
</g>
<!-- Node1&#45;&gt;Node7 -->
<g id="edge6" class="edge">
<title>Node1&#45;&gt;Node7</title>
<path fill="none" stroke="midnightblue" d="M96.22,-145.37C117.32,-132.71 148.68,-114.52 177,-100.5 180.52,-98.76 184.17,-97.02 187.86,-95.3"/>
<polygon fill="midnightblue" stroke="midnightblue" points="189.45,-98.43 197.11,-91.11 186.56,-92.05 189.45,-98.43"/>
</g>
<!-- Node4 -->
<g id="node4" class="node">
<title>Node4</title>
<g id="a_node4"><a xlink:href="classzero__mate_1_1peripheral_1_1CMini__UART.html#a2f29b39f721b4ae5acf81f61ab210325" target="_top" xlink:title="Returns the length of payload (7 or 8 bits).">
<polygon fill="none" stroke="black" points="363,-225 363,-266 495,-266 495,-225 363,-225"/>
<text text-anchor="start" x="371" y="-254" font-family="Helvetica,sans-Serif" font-size="10.00">zero_mate::peripheral</text>
<text text-anchor="start" x="371" y="-243" font-family="Helvetica,sans-Serif" font-size="10.00">::CMini_UART::Get_Char</text>
<text text-anchor="middle" x="429" y="-232" font-family="Helvetica,sans-Serif" font-size="10.00">_Length</text>
</a>
</g>
</g>
<!-- Node3&#45;&gt;Node4 -->
<g id="edge3" class="edge">
<title>Node3&#45;&gt;Node4</title>
<path fill="none" stroke="midnightblue" d="M311.68,-209.66C324.96,-213.75 339.12,-218.11 352.83,-222.34"/>
<polygon fill="midnightblue" stroke="midnightblue" points="352.12,-225.78 362.71,-225.38 354.18,-219.09 352.12,-225.78"/>
</g>
<!-- Node5 -->
<g id="node5" class="node">
<title>Node5</title>
<g id="a_node5"><a xlink:href="classzero__mate_1_1peripheral_1_1CMini__UART.html#a4e01dd26b71c9c13ec8a81510cbf2450" target="_top" xlink:title="Returns the data length from a given enumeration.">
<polygon fill="none" stroke="black" points="363,-165 363,-206 495,-206 495,-165 363,-165"/>
<text text-anchor="start" x="371" y="-194" font-family="Helvetica,sans-Serif" font-size="10.00">zero_mate::peripheral</text>
<text text-anchor="start" x="371" y="-183" font-family="Helvetica,sans-Serif" font-size="10.00">::CMini_UART::Get_Char</text>
<text text-anchor="middle" x="429" y="-172" font-family="Helvetica,sans-Serif" font-size="10.00">_Length_Value</text>
</a>
</g>
</g>
<!-- Node3&#45;&gt;Node5 -->
<g id="edge4" class="edge">
<title>Node3&#45;&gt;Node5</title>
<path fill="none" stroke="midnightblue" d="M311.68,-188.76C324.83,-188.39 338.84,-188 352.43,-187.62"/>
<polygon fill="midnightblue" stroke="midnightblue" points="352.81,-191.11 362.71,-187.33 352.61,-184.11 352.81,-191.11"/>
</g>
<!-- Node8 -->
<g id="node8" class="node">
<title>Node8</title>
<g id="a_node8"><a xlink:href="classzero__mate_1_1utils_1_1CLogging__System.html#a57ed77e1a5cf822cea532cc5e05c3f60" target="_top" xlink:title="Logs an error message via all registered loggers.">
<polygon fill="none" stroke="black" points="356,-110.5 356,-140.5 502,-140.5 502,-110.5 356,-110.5"/>
<text text-anchor="start" x="364" y="-128.5" font-family="Helvetica,sans-Serif" font-size="10.00">zero_mate::utils::CLogging</text>
<text text-anchor="middle" x="429" y="-117.5" font-family="Helvetica,sans-Serif" font-size="10.00">_System::Error</text>
</a>
</g>
</g>
<!-- Node7&#45;&gt;Node8 -->
<g id="edge7" class="edge">
<title>Node7&#45;&gt;Node8</title>
<path fill="none" stroke="midnightblue" d="M311.68,-89.66C330.44,-95.44 350.97,-101.77 369.49,-107.47"/>
<polygon fill="midnightblue" stroke="midnightblue" points="368.66,-110.88 379.25,-110.48 370.73,-104.19 368.66,-110.88"/>
</g>
<!-- Node13 -->
<g id="node13" class="node">
<title>Node13</title>
<g id="a_node13"><a xlink:href="classzero__mate_1_1peripheral_1_1CMini__UART.html#aafdd369ea20fb588fdba59b98e20b3b8" target="_top" xlink:title="Returns information about a receive interrupt is enabled.">
<polygon fill="none" stroke="black" points="359,-50 359,-91 499,-91 499,-50 359,-50"/>
<text text-anchor="start" x="367" y="-79" font-family="Helvetica,sans-Serif" font-size="10.00">zero_mate::peripheral</text>
<text text-anchor="start" x="367" y="-68" font-family="Helvetica,sans-Serif" font-size="10.00">::CMini_UART::Is_Receive</text>
<text text-anchor="middle" x="429" y="-57" font-family="Helvetica,sans-Serif" font-size="10.00">_Interrupt_Enabled</text>
</a>
</g>
</g>
<!-- Node7&#45;&gt;Node13 -->
<g id="edge12" class="edge">
<title>Node7&#45;&gt;Node13</title>
<path fill="none" stroke="midnightblue" d="M311.68,-70.5C323.55,-70.5 336.12,-70.5 348.45,-70.5"/>
<polygon fill="midnightblue" stroke="midnightblue" points="348.72,-74 358.72,-70.5 348.72,-67 348.72,-74"/>
</g>
<!-- Node14 -->
<g id="node14" class="node">
<title>Node14</title>
<g id="a_node14"><a xlink:href="classzero__mate_1_1peripheral_1_1CMini__UART.html#a792a3a1a286bf0e7f47bb255bc104294" target="_top" xlink:title="Triggers an interrupt.">
<polygon fill="none" stroke="black" points="357.5,-0.5 357.5,-30.5 500.5,-30.5 500.5,-0.5 357.5,-0.5"/>
<text text-anchor="start" x="365.5" y="-18.5" font-family="Helvetica,sans-Serif" font-size="10.00">zero_mate::peripheral</text>
<text text-anchor="middle" x="429" y="-7.5" font-family="Helvetica,sans-Serif" font-size="10.00">::CMini_UART::Trigger_IRQ</text>
</a>
</g>
</g>
<!-- Node7&#45;&gt;Node14 -->
<g id="edge13" class="edge">
<title>Node7&#45;&gt;Node14</title>
<path fill="none" stroke="midnightblue" d="M311.68,-51.34C330.44,-45.56 350.97,-39.23 369.49,-33.53"/>
<polygon fill="midnightblue" stroke="midnightblue" points="370.73,-36.81 379.25,-30.52 368.66,-30.12 370.73,-36.81"/>
</g>
<!-- Node9 -->
<g id="node9" class="node">
<title>Node9</title>
<g id="a_node9"><a xlink:href="classzero__mate_1_1utils_1_1CLogging__System.html#a71ed11c796553cbe8fd99773406a1060" target="_top" xlink:title="Creates a formatted message to be logged.">
<polygon fill="none" stroke="black" points="538,-132 538,-173 690,-173 690,-132 538,-132"/>
<text text-anchor="start" x="546" y="-161" font-family="Helvetica,sans-Serif" font-size="10.00">zero_mate::utils::CLogging</text>
<text text-anchor="start" x="546" y="-150" font-family="Helvetica,sans-Serif" font-size="10.00">_System::Create_Formatted</text>
<text text-anchor="middle" x="614" y="-139" font-family="Helvetica,sans-Serif" font-size="10.00">_Log_Msg</text>
</a>
</g>
</g>
<!-- Node8&#45;&gt;Node9 -->
<g id="edge8" class="edge">
<title>Node8&#45;&gt;Node9</title>
<path fill="none" stroke="midnightblue" d="M502.06,-136.13C510.55,-137.38 519.26,-138.67 527.9,-139.94"/>
<polygon fill="midnightblue" stroke="midnightblue" points="527.59,-143.44 537.99,-141.43 528.61,-136.51 527.59,-143.44"/>
</g>
<!-- Node12 -->
<g id="node12" class="node">
<title>Node12</title>
<g id="a_node12"><a xlink:href="classzero__mate_1_1utils_1_1CLogging__System.html#ad371c67ef65763966ccf9291002e86f3" target="_top" xlink:title="Extract the filename from a given location within the source files.">
<polygon fill="none" stroke="black" points="539.5,-82.5 539.5,-112.5 688.5,-112.5 688.5,-82.5 539.5,-82.5"/>
<text text-anchor="start" x="547.5" y="-100.5" font-family="Helvetica,sans-Serif" font-size="10.00">zero_mate::utils::CLogging</text>
<text text-anchor="middle" x="614" y="-89.5" font-family="Helvetica,sans-Serif" font-size="10.00">_System::Extract_Filename</text>
</a>
</g>
</g>
<!-- Node8&#45;&gt;Node12 -->
<g id="edge11" class="edge">
<title>Node8&#45;&gt;Node12</title>
<path fill="none" stroke="midnightblue" d="M502.06,-114.47C511.1,-113.09 520.4,-111.67 529.59,-110.26"/>
<polygon fill="midnightblue" stroke="midnightblue" points="530.14,-113.72 539.5,-108.75 529.09,-106.8 530.14,-113.72"/>
</g>
<!-- Node10 -->
<g id="node10" class="node">
<title>Node10</title>
<g id="a_node10"><a xlink:href="classzero__mate_1_1utils_1_1CLogging__System.html#aa70c102c805079042ffea2a6f2a5ad64" target="_top" xlink:title="Formats a given timestamp.">
<polygon fill="none" stroke="black" points="726,-161.5 726,-191.5 886,-191.5 886,-161.5 726,-161.5"/>
<text text-anchor="start" x="734" y="-179.5" font-family="Helvetica,sans-Serif" font-size="10.00">zero_mate::utils::CLogging</text>
<text text-anchor="middle" x="806" y="-168.5" font-family="Helvetica,sans-Serif" font-size="10.00">_System::Format_Timestamp</text>
</a>
</g>
</g>
<!-- Node9&#45;&gt;Node10 -->
<g id="edge9" class="edge">
<title>Node9&#45;&gt;Node10</title>
<path fill="none" stroke="midnightblue" d="M690.09,-161.99C698.52,-163.05 707.16,-164.14 715.74,-165.23"/>
<polygon fill="midnightblue" stroke="midnightblue" points="715.41,-168.71 725.77,-166.49 716.29,-161.77 715.41,-168.71"/>
</g>
<!-- Node11 -->
<g id="node11" class="node">
<title>Node11</title>
<g id="a_node11"><a xlink:href="classzero__mate_1_1utils_1_1CLogging__System.html#ae3ca637537dde05e0b9119145c840331" target="_top" xlink:title="Returns the current timestamp that will be used in a log message.">
<polygon fill="none" stroke="black" points="733,-112.5 733,-142.5 879,-142.5 879,-112.5 733,-112.5"/>
<text text-anchor="start" x="741" y="-130.5" font-family="Helvetica,sans-Serif" font-size="10.00">zero_mate::utils::CLogging</text>
<text text-anchor="middle" x="806" y="-119.5" font-family="Helvetica,sans-Serif" font-size="10.00">_System::Get_Timestamp</text>
</a>
</g>
</g>
<!-- Node9&#45;&gt;Node11 -->
<g id="edge10" class="edge">
<title>Node9&#45;&gt;Node11</title>
<path fill="none" stroke="midnightblue" d="M690.09,-142.62C700.89,-141.2 712.05,-139.73 722.98,-138.29"/>
<polygon fill="midnightblue" stroke="midnightblue" points="723.47,-141.76 732.93,-136.98 722.56,-134.82 723.47,-141.76"/>
</g>
</g>
</svg>
