<?xml version="1.0" encoding="UTF-8" standalone="no"?>
<!DOCTYPE svg PUBLIC "-//W3C//DTD SVG 1.1//EN"
 "http://www.w3.org/Graphics/SVG/1.1/DTD/svg11.dtd">
<!-- Generated by graphviz version 2.43.0 (0)
 -->
<!-- Title: zero_mate::gui::CRegisters_Window Pages: 1 -->
<svg width="307pt" height="195pt"
 viewBox="0.00 0.00 307.00 195.00" xmlns="http://www.w3.org/2000/svg" xmlns:xlink="http://www.w3.org/1999/xlink">
<g id="graph0" class="graph" transform="scale(1 1) rotate(0) translate(4 191)">
<title>zero_mate::gui::CRegisters_Window</title>
<!-- Node1 -->
<g id="node1" class="node">
<title>Node1</title>
<g id="a_node1"><a xlink:title=" ">
<polygon fill="#bfbfbf" stroke="black" points="30,-0.5 30,-30.5 178,-30.5 178,-0.5 30,-0.5"/>
<text text-anchor="start" x="38" y="-18.5" font-family="Helvetica,sans-Serif" font-size="10.00">zero_mate::gui::CRegisters</text>
<text text-anchor="middle" x="104" y="-7.5" font-family="Helvetica,sans-Serif" font-size="10.00">_Window</text>
</a>
</g>
</g>
<!-- Node2 -->
<g id="node2" class="node">
<title>Node2</title>
<g id="a_node2"><a xlink:href="classzero__mate_1_1gui_1_1CGUI__Window.html" target="_top" xlink:title=" ">
<polygon fill="none" stroke="black" points="0,-78.5 0,-108.5 120,-108.5 120,-78.5 0,-78.5"/>
<text text-anchor="start" x="8" y="-96.5" font-family="Helvetica,sans-Serif" font-size="10.00">zero_mate::gui::CGUI</text>
<text text-anchor="middle" x="60" y="-85.5" font-family="Helvetica,sans-Serif" font-size="10.00">_Window</text>
</a>
</g>
</g>
<!-- Node2&#45;&gt;Node1 -->
<g id="edge1" class="edge">
<title>Node2&#45;&gt;Node1</title>
<path fill="none" stroke="midnightblue" d="M73.49,-69.2C80.76,-56.64 89.5,-41.54 95.76,-30.73"/>
<polygon fill="midnightblue" stroke="midnightblue" points="70.26,-67.8 68.28,-78.2 76.32,-71.3 70.26,-67.8"/>
</g>
<!-- Node3 -->
<g id="node3" class="node">
<title>Node3</title>
<g id="a_node3"><a xlink:href="classzero__mate_1_1arm1176jzf__s_1_1CCPU__Context.html" target="_top" xlink:title="This class represents the context (registers) of the CPU.">
<polygon fill="none" stroke="black" points="138,-78.5 138,-108.5 268,-108.5 268,-78.5 138,-78.5"/>
<text text-anchor="start" x="146" y="-96.5" font-family="Helvetica,sans-Serif" font-size="10.00">zero_mate::arm1176jzf</text>
<text text-anchor="middle" x="203" y="-85.5" font-family="Helvetica,sans-Serif" font-size="10.00">_s::CCPU_Context</text>
</a>
</g>
</g>
<!-- Node3&#45;&gt;Node1 -->
<g id="edge2" class="edge">
<title>Node3&#45;&gt;Node1</title>
<path fill="none" stroke="#9a32cd" stroke-dasharray="5,2" d="M176.44,-72.11C159.41,-59.04 137.72,-42.39 122.54,-30.73"/>
<polygon fill="#9a32cd" stroke="#9a32cd" points="174.32,-74.89 184.38,-78.2 178.58,-69.34 174.32,-74.89"/>
<text text-anchor="middle" x="198" y="-52" font-family="Helvetica,sans-Serif" font-size="10.00"> m_cpu_context</text>
</g>
<!-- Node4 -->
<g id="node4" class="node">
<title>Node4</title>
<g id="a_node4"><a xlink:href="classzero__mate_1_1utils_1_1CLogging__System.html" target="_top" xlink:title="This class defines a logging system that is used throughout the project.">
<polygon fill="none" stroke="black" points="130,-156.5 130,-186.5 276,-186.5 276,-156.5 130,-156.5"/>
<text text-anchor="start" x="138" y="-174.5" font-family="Helvetica,sans-Serif" font-size="10.00">zero_mate::utils::CLogging</text>
<text text-anchor="middle" x="203" y="-163.5" font-family="Helvetica,sans-Serif" font-size="10.00">_System</text>
</a>
</g>
</g>
<!-- Node4&#45;&gt;Node3 -->
<g id="edge3" class="edge">
<title>Node4&#45;&gt;Node3</title>
<path fill="none" stroke="#9a32cd" stroke-dasharray="5,2" d="M203,-146.09C203,-133.76 203,-119.22 203,-108.73"/>
<polygon fill="#9a32cd" stroke="#9a32cd" points="199.5,-146.2 203,-156.2 206.5,-146.21 199.5,-146.2"/>
<text text-anchor="middle" x="251" y="-130" font-family="Helvetica,sans-Serif" font-size="10.00"> m_logging_system</text>
</g>
</g>
</svg>
