<?xml version="1.0" encoding="UTF-8" standalone="no"?>
<!DOCTYPE svg PUBLIC "-//W3C//DTD SVG 1.1//EN"
 "http://www.w3.org/Graphics/SVG/1.1/DTD/svg11.dtd">
<!-- Generated by graphviz version 2.43.0 (0)
 -->
<!-- Title: zero_mate::gui::CControl_Window::Run Pages: 1 -->
<svg width="711pt" height="118pt"
 viewBox="0.00 0.00 711.00 118.00" xmlns="http://www.w3.org/2000/svg" xmlns:xlink="http://www.w3.org/1999/xlink">
<g id="graph0" class="graph" transform="scale(1 1) rotate(0) translate(4 114)">
<title>zero_mate::gui::CControl_Window::Run</title>
<!-- Node1 -->
<g id="node1" class="node">
<title>Node1</title>
<g id="a_node1"><a xlink:title="Runs CPU execution (separate thread).">
<polygon fill="#bfbfbf" stroke="black" points="0,-27.5 0,-57.5 137,-57.5 137,-27.5 0,-27.5"/>
<text text-anchor="start" x="8" y="-45.5" font-family="Helvetica,sans-Serif" font-size="10.00">zero_mate::gui::CControl</text>
<text text-anchor="middle" x="68.5" y="-34.5" font-family="Helvetica,sans-Serif" font-size="10.00">_Window::Run</text>
</a>
</g>
</g>
<!-- Node2 -->
<g id="node2" class="node">
<title>Node2</title>
<g id="a_node2"><a xlink:href="classzero__mate_1_1utils_1_1CLogging__System.html#a455d99c3614dc92ffbdbdcdb6b8b8bb8" target="_top" xlink:title="Logs an info message via all registered loggers.">
<polygon fill="none" stroke="black" points="173,-27.5 173,-57.5 319,-57.5 319,-27.5 173,-27.5"/>
<text text-anchor="start" x="181" y="-45.5" font-family="Helvetica,sans-Serif" font-size="10.00">zero_mate::utils::CLogging</text>
<text text-anchor="middle" x="246" y="-34.5" font-family="Helvetica,sans-Serif" font-size="10.00">_System::Info</text>
</a>
</g>
</g>
<!-- Node1&#45;&gt;Node2 -->
<g id="edge1" class="edge">
<title>Node1&#45;&gt;Node2</title>
<path fill="none" stroke="midnightblue" d="M137.1,-42.5C145.5,-42.5 154.16,-42.5 162.75,-42.5"/>
<polygon fill="midnightblue" stroke="midnightblue" points="162.77,-46 172.77,-42.5 162.77,-39 162.77,-46"/>
</g>
<!-- Node3 -->
<g id="node3" class="node">
<title>Node3</title>
<g id="a_node3"><a xlink:href="classzero__mate_1_1utils_1_1CLogging__System.html#a71ed11c796553cbe8fd99773406a1060" target="_top" xlink:title="Creates a formatted message to be logged.">
<polygon fill="none" stroke="black" points="355,-50 355,-91 507,-91 507,-50 355,-50"/>
<text text-anchor="start" x="363" y="-79" font-family="Helvetica,sans-Serif" font-size="10.00">zero_mate::utils::CLogging</text>
<text text-anchor="start" x="363" y="-68" font-family="Helvetica,sans-Serif" font-size="10.00">_System::Create_Formatted</text>
<text text-anchor="middle" x="431" y="-57" font-family="Helvetica,sans-Serif" font-size="10.00">_Log_Msg</text>
</a>
</g>
</g>
<!-- Node2&#45;&gt;Node3 -->
<g id="edge2" class="edge">
<title>Node2&#45;&gt;Node3</title>
<path fill="none" stroke="midnightblue" d="M319.06,-53.53C327.55,-54.82 336.26,-56.16 344.9,-57.48"/>
<polygon fill="midnightblue" stroke="midnightblue" points="344.58,-60.97 354.99,-59.02 345.64,-54.05 344.58,-60.97"/>
</g>
<!-- Node6 -->
<g id="node6" class="node">
<title>Node6</title>
<g id="a_node6"><a xlink:href="classzero__mate_1_1utils_1_1CLogging__System.html#ad371c67ef65763966ccf9291002e86f3" target="_top" xlink:title="Extract the filename from a given location within the source files.">
<polygon fill="none" stroke="black" points="356.5,-0.5 356.5,-30.5 505.5,-30.5 505.5,-0.5 356.5,-0.5"/>
<text text-anchor="start" x="364.5" y="-18.5" font-family="Helvetica,sans-Serif" font-size="10.00">zero_mate::utils::CLogging</text>
<text text-anchor="middle" x="431" y="-7.5" font-family="Helvetica,sans-Serif" font-size="10.00">_System::Extract_Filename</text>
</a>
</g>
</g>
<!-- Node2&#45;&gt;Node6 -->
<g id="edge5" class="edge">
<title>Node2&#45;&gt;Node6</title>
<path fill="none" stroke="midnightblue" d="M319.06,-31.87C328.1,-30.53 337.4,-29.16 346.59,-27.81"/>
<polygon fill="midnightblue" stroke="midnightblue" points="347.12,-31.27 356.5,-26.34 346.1,-24.34 347.12,-31.27"/>
</g>
<!-- Node4 -->
<g id="node4" class="node">
<title>Node4</title>
<g id="a_node4"><a xlink:href="classzero__mate_1_1utils_1_1CLogging__System.html#aa70c102c805079042ffea2a6f2a5ad64" target="_top" xlink:title="Formats a given timestamp.">
<polygon fill="none" stroke="black" points="543,-79.5 543,-109.5 703,-109.5 703,-79.5 543,-79.5"/>
<text text-anchor="start" x="551" y="-97.5" font-family="Helvetica,sans-Serif" font-size="10.00">zero_mate::utils::CLogging</text>
<text text-anchor="middle" x="623" y="-86.5" font-family="Helvetica,sans-Serif" font-size="10.00">_System::Format_Timestamp</text>
</a>
</g>
</g>
<!-- Node3&#45;&gt;Node4 -->
<g id="edge3" class="edge">
<title>Node3&#45;&gt;Node4</title>
<path fill="none" stroke="midnightblue" d="M507.09,-79.99C515.52,-81.05 524.16,-82.14 532.74,-83.23"/>
<polygon fill="midnightblue" stroke="midnightblue" points="532.41,-86.71 542.77,-84.49 533.29,-79.77 532.41,-86.71"/>
</g>
<!-- Node5 -->
<g id="node5" class="node">
<title>Node5</title>
<g id="a_node5"><a xlink:href="classzero__mate_1_1utils_1_1CLogging__System.html#ae3ca637537dde05e0b9119145c840331" target="_top" xlink:title="Returns the current timestamp that will be used in a log message.">
<polygon fill="none" stroke="black" points="550,-30.5 550,-60.5 696,-60.5 696,-30.5 550,-30.5"/>
<text text-anchor="start" x="558" y="-48.5" font-family="Helvetica,sans-Serif" font-size="10.00">zero_mate::utils::CLogging</text>
<text text-anchor="middle" x="623" y="-37.5" font-family="Helvetica,sans-Serif" font-size="10.00">_System::Get_Timestamp</text>
</a>
</g>
</g>
<!-- Node3&#45;&gt;Node5 -->
<g id="edge4" class="edge">
<title>Node3&#45;&gt;Node5</title>
<path fill="none" stroke="midnightblue" d="M507.09,-60.62C517.89,-59.2 529.05,-57.73 539.98,-56.29"/>
<polygon fill="midnightblue" stroke="midnightblue" points="540.47,-59.76 549.93,-54.98 539.56,-52.82 540.47,-59.76"/>
</g>
</g>
</svg>
