<?xml version="1.0" encoding="UTF-8" standalone="no"?>
<!DOCTYPE svg PUBLIC "-//W3C//DTD SVG 1.1//EN"
 "http://www.w3.org/Graphics/SVG/1.1/DTD/svg11.dtd">
<!-- Generated by graphviz version 2.43.0 (0)
 -->
<!-- Title: zero_mate::arm1176jzf_s::CCPU_Core::Execute Pages: 1 -->
<svg width="322pt" height="389pt"
 viewBox="0.00 0.00 322.00 389.00" xmlns="http://www.w3.org/2000/svg" xmlns:xlink="http://www.w3.org/1999/xlink">
<g id="graph0" class="graph" transform="scale(1 1) rotate(0) translate(4 385)">
<title>zero_mate::arm1176jzf_s::CCPU_Core::Execute</title>
<!-- Node1 -->
<g id="node1" class="node">
<title>Node1</title>
<g id="a_node1"><a xlink:title="Executes a single data transfer instruction.">
<polygon fill="#bfbfbf" stroke="black" points="0,-175.5 0,-205.5 132,-205.5 132,-175.5 0,-175.5"/>
<text text-anchor="start" x="8" y="-193.5" font-family="Helvetica,sans-Serif" font-size="10.00">zero_mate::arm1176jzf</text>
<text text-anchor="middle" x="66" y="-182.5" font-family="Helvetica,sans-Serif" font-size="10.00">_s::CCPU_Core::Execute</text>
</a>
</g>
</g>
<!-- Node2 -->
<g id="node2" class="node">
<title>Node2</title>
<g id="a_node2"><a xlink:href="classzero__mate_1_1arm1176jzf__s_1_1CCPU__Core.html#ab8055407426b0f25544d2b33a89b22a7" target="_top" xlink:title="Calculates the offset from the base address in a single data transfer instruction.">
<polygon fill="none" stroke="black" points="168,-350.5 168,-380.5 314,-380.5 314,-350.5 168,-350.5"/>
<text text-anchor="start" x="176" y="-368.5" font-family="Helvetica,sans-Serif" font-size="10.00">zero_mate::arm1176jzf</text>
<text text-anchor="middle" x="241" y="-357.5" font-family="Helvetica,sans-Serif" font-size="10.00">_s::CCPU_Core::Get_Offset</text>
</a>
</g>
</g>
<!-- Node1&#45;&gt;Node2 -->
<g id="edge1" class="edge">
<title>Node1&#45;&gt;Node2</title>
<path fill="none" stroke="midnightblue" d="M73.21,-205.63C86.28,-235.67 119.49,-303.15 168,-340.5 170.44,-342.38 173.03,-344.12 175.72,-345.74"/>
<polygon fill="midnightblue" stroke="midnightblue" points="174.14,-348.86 184.61,-350.48 177.44,-342.69 174.14,-348.86"/>
</g>
<!-- Node3 -->
<g id="node3" class="node">
<title>Node3</title>
<g id="a_node3"><a xlink:href="classzero__mate_1_1arm1176jzf__s_1_1isa_1_1CSingle__Data__Transfer.html#ae1e6db1cdc189dab1777b4de9719e107" target="_top" xlink:title=" ">
<polygon fill="none" stroke="black" points="176,-290 176,-331 306,-331 306,-290 176,-290"/>
<text text-anchor="start" x="184" y="-319" font-family="Helvetica,sans-Serif" font-size="10.00">zero_mate::arm1176jzf</text>
<text text-anchor="start" x="184" y="-308" font-family="Helvetica,sans-Serif" font-size="10.00">_s::isa::CSingle_Data</text>
<text text-anchor="middle" x="241" y="-297" font-family="Helvetica,sans-Serif" font-size="10.00">_Transfer::Get_Rd</text>
</a>
</g>
</g>
<!-- Node1&#45;&gt;Node3 -->
<g id="edge2" class="edge">
<title>Node1&#45;&gt;Node3</title>
<path fill="none" stroke="midnightblue" d="M80.8,-205.59C99.18,-224.99 133.4,-258.75 168,-280.5 170.61,-282.14 173.32,-283.73 176.11,-285.26"/>
<polygon fill="midnightblue" stroke="midnightblue" points="174.67,-288.45 185.16,-289.94 177.89,-282.24 174.67,-288.45"/>
</g>
<!-- Node4 -->
<g id="node4" class="node">
<title>Node4</title>
<g id="a_node4"><a xlink:href="classzero__mate_1_1arm1176jzf__s_1_1isa_1_1CSingle__Data__Transfer.html#ad788aeba680123d742a3b2efc2ddf8ef" target="_top" xlink:title=" ">
<polygon fill="none" stroke="black" points="176,-230 176,-271 306,-271 306,-230 176,-230"/>
<text text-anchor="start" x="184" y="-259" font-family="Helvetica,sans-Serif" font-size="10.00">zero_mate::arm1176jzf</text>
<text text-anchor="start" x="184" y="-248" font-family="Helvetica,sans-Serif" font-size="10.00">_s::isa::CSingle_Data</text>
<text text-anchor="middle" x="241" y="-237" font-family="Helvetica,sans-Serif" font-size="10.00">_Transfer::Get_Rn</text>
</a>
</g>
</g>
<!-- Node1&#45;&gt;Node4 -->
<g id="edge3" class="edge">
<title>Node1&#45;&gt;Node4</title>
<path fill="none" stroke="midnightblue" d="M110.66,-205.64C128.97,-211.99 150.72,-219.54 171.11,-226.61"/>
<polygon fill="midnightblue" stroke="midnightblue" points="170.08,-229.95 180.68,-229.92 172.37,-223.34 170.08,-229.95"/>
</g>
<!-- Node5 -->
<g id="node5" class="node">
<title>Node5</title>
<g id="a_node5"><a xlink:href="classzero__mate_1_1arm1176jzf__s_1_1isa_1_1CSingle__Data__Transfer.html#ab2bd06becd608f8810e8da5fe41b031c" target="_top" xlink:title=" ">
<polygon fill="none" stroke="black" points="176,-170 176,-211 306,-211 306,-170 176,-170"/>
<text text-anchor="start" x="184" y="-199" font-family="Helvetica,sans-Serif" font-size="10.00">zero_mate::arm1176jzf</text>
<text text-anchor="start" x="184" y="-188" font-family="Helvetica,sans-Serif" font-size="10.00">_s::isa::CSingle_Data</text>
<text text-anchor="middle" x="241" y="-177" font-family="Helvetica,sans-Serif" font-size="10.00">_Transfer::Is_B_Bit_Set</text>
</a>
</g>
</g>
<!-- Node1&#45;&gt;Node5 -->
<g id="edge4" class="edge">
<title>Node1&#45;&gt;Node5</title>
<path fill="none" stroke="midnightblue" d="M132.4,-190.5C143.32,-190.5 154.71,-190.5 165.83,-190.5"/>
<polygon fill="midnightblue" stroke="midnightblue" points="165.94,-194 175.94,-190.5 165.94,-187 165.94,-194"/>
</g>
<!-- Node6 -->
<g id="node6" class="node">
<title>Node6</title>
<g id="a_node6"><a xlink:href="classzero__mate_1_1arm1176jzf__s_1_1isa_1_1CSingle__Data__Transfer.html#a4adfebcac49e96096806ede7e5fbeb81" target="_top" xlink:title=" ">
<polygon fill="none" stroke="black" points="176,-110 176,-151 306,-151 306,-110 176,-110"/>
<text text-anchor="start" x="184" y="-139" font-family="Helvetica,sans-Serif" font-size="10.00">zero_mate::arm1176jzf</text>
<text text-anchor="start" x="184" y="-128" font-family="Helvetica,sans-Serif" font-size="10.00">_s::isa::CSingle_Data</text>
<text text-anchor="middle" x="241" y="-117" font-family="Helvetica,sans-Serif" font-size="10.00">_Transfer::Is_P_Bit_Set</text>
</a>
</g>
</g>
<!-- Node1&#45;&gt;Node6 -->
<g id="edge5" class="edge">
<title>Node1&#45;&gt;Node6</title>
<path fill="none" stroke="midnightblue" d="M110.66,-175.36C128.97,-169.01 150.72,-161.46 171.11,-154.39"/>
<polygon fill="midnightblue" stroke="midnightblue" points="172.37,-157.66 180.68,-151.08 170.08,-151.05 172.37,-157.66"/>
</g>
<!-- Node7 -->
<g id="node7" class="node">
<title>Node7</title>
<g id="a_node7"><a xlink:href="classzero__mate_1_1arm1176jzf__s_1_1isa_1_1CSingle__Data__Transfer.html#ae92a645b6f504daf95c0a09085f79139" target="_top" xlink:title=" ">
<polygon fill="none" stroke="black" points="176,-50 176,-91 306,-91 306,-50 176,-50"/>
<text text-anchor="start" x="184" y="-79" font-family="Helvetica,sans-Serif" font-size="10.00">zero_mate::arm1176jzf</text>
<text text-anchor="start" x="184" y="-68" font-family="Helvetica,sans-Serif" font-size="10.00">_s::isa::CSingle_Data</text>
<text text-anchor="middle" x="241" y="-57" font-family="Helvetica,sans-Serif" font-size="10.00">_Transfer::Is_W_Bit_Set</text>
</a>
</g>
</g>
<!-- Node1&#45;&gt;Node7 -->
<g id="edge6" class="edge">
<title>Node1&#45;&gt;Node7</title>
<path fill="none" stroke="midnightblue" d="M80.8,-175.41C99.18,-156.01 133.4,-122.25 168,-100.5 170.61,-98.86 173.32,-97.27 176.11,-95.74"/>
<polygon fill="midnightblue" stroke="midnightblue" points="177.89,-98.76 185.16,-91.06 174.67,-92.55 177.89,-98.76"/>
</g>
<!-- Node8 -->
<g id="node8" class="node">
<title>Node8</title>
<g id="a_node8"><a xlink:href="classzero__mate_1_1arm1176jzf__s_1_1CCPU__Core.html#a423eacd01e574e782a2b7cf51f28c56c" target="_top" xlink:title="Returns a reference to the PC register (r15)">
<polygon fill="none" stroke="black" points="176,-0.5 176,-30.5 306,-30.5 306,-0.5 176,-0.5"/>
<text text-anchor="start" x="184" y="-18.5" font-family="Helvetica,sans-Serif" font-size="10.00">zero_mate::arm1176jzf</text>
<text text-anchor="middle" x="241" y="-7.5" font-family="Helvetica,sans-Serif" font-size="10.00">_s::CCPU_Core::PC</text>
</a>
</g>
</g>
<!-- Node1&#45;&gt;Node8 -->
<g id="edge7" class="edge">
<title>Node1&#45;&gt;Node8</title>
<path fill="none" stroke="midnightblue" d="M73.21,-175.37C86.28,-145.33 119.49,-77.85 168,-40.5 170.44,-38.62 173.03,-36.88 175.72,-35.26"/>
<polygon fill="midnightblue" stroke="midnightblue" points="177.44,-38.31 184.61,-30.52 174.14,-32.14 177.44,-38.31"/>
</g>
</g>
</svg>
