<?xml version="1.0" encoding="UTF-8" standalone="no"?>
<!DOCTYPE svg PUBLIC "-//W3C//DTD SVG 1.1//EN"
 "http://www.w3.org/Graphics/SVG/1.1/DTD/svg11.dtd">
<!-- Generated by graphviz version 2.43.0 (0)
 -->
<!-- Title: zero_mate::arm1176jzf_s::CCPU_Context::Is_Flag_Set Pages: 1 -->
<svg width="914pt" height="270pt"
 viewBox="0.00 0.00 914.00 269.50" xmlns="http://www.w3.org/2000/svg" xmlns:xlink="http://www.w3.org/1999/xlink">
<g id="graph0" class="graph" transform="scale(1 1) rotate(0) translate(4 265.5)">
<title>zero_mate::arm1176jzf_s::CCPU_Context::Is_Flag_Set</title>
<!-- Node1 -->
<g id="node1" class="node">
<title>Node1</title>
<g id="a_node1"><a xlink:title="Checks whether a given flag is set in the CPSR register of the current CPU mode.">
<polygon fill="#bfbfbf" stroke="black" points="776,-115.5 776,-156.5 906,-156.5 906,-115.5 776,-115.5"/>
<text text-anchor="start" x="784" y="-144.5" font-family="Helvetica,sans-Serif" font-size="10.00">zero_mate::arm1176jzf</text>
<text text-anchor="start" x="784" y="-133.5" font-family="Helvetica,sans-Serif" font-size="10.00">_s::CCPU_Context::Is</text>
<text text-anchor="middle" x="841" y="-122.5" font-family="Helvetica,sans-Serif" font-size="10.00">_Flag_Set</text>
</a>
</g>
</g>
<!-- Node2 -->
<g id="node2" class="node">
<title>Node2</title>
<g id="a_node2"><a xlink:href="classzero__mate_1_1arm1176jzf__s_1_1CCPU__Core.html#a92c997ad914fb73cec7feb5fa26d8ead" target="_top" xlink:title="Executes a data processing instruction.">
<polygon fill="none" stroke="black" points="592.5,-231 592.5,-261 724.5,-261 724.5,-231 592.5,-231"/>
<text text-anchor="start" x="600.5" y="-249" font-family="Helvetica,sans-Serif" font-size="10.00">zero_mate::arm1176jzf</text>
<text text-anchor="middle" x="658.5" y="-238" font-family="Helvetica,sans-Serif" font-size="10.00">_s::CCPU_Core::Execute</text>
</a>
</g>
</g>
<!-- Node1&#45;&gt;Node2 -->
<g id="edge1" class="edge">
<title>Node1&#45;&gt;Node2</title>
<path fill="none" stroke="midnightblue" d="M813.66,-163.63C794.69,-182.13 767.67,-205.78 740,-221 733.08,-224.81 725.49,-228.12 717.83,-230.98"/>
<polygon fill="midnightblue" stroke="midnightblue" points="816.14,-166.1 820.76,-156.57 811.2,-161.13 816.14,-166.1"/>
</g>
<!-- Node3 -->
<g id="node3" class="node">
<title>Node3</title>
<g id="a_node3"><a xlink:href="classzero__mate_1_1peripheral_1_1CInterrupt__Controller.html#aea7c1519af8962e9327048e552a8cc4c" target="_top" xlink:title="Returns information about whether there is a pending IRQ.">
<polygon fill="none" stroke="black" points="592,-170.5 592,-211.5 725,-211.5 725,-170.5 592,-170.5"/>
<text text-anchor="start" x="600" y="-199.5" font-family="Helvetica,sans-Serif" font-size="10.00">zero_mate::peripheral</text>
<text text-anchor="start" x="600" y="-188.5" font-family="Helvetica,sans-Serif" font-size="10.00">::CInterrupt_Controller</text>
<text text-anchor="middle" x="658.5" y="-177.5" font-family="Helvetica,sans-Serif" font-size="10.00">::Has_Pending_Interrupt</text>
</a>
</g>
</g>
<!-- Node1&#45;&gt;Node3 -->
<g id="edge2" class="edge">
<title>Node1&#45;&gt;Node3</title>
<path fill="none" stroke="midnightblue" d="M766.11,-158.52C752.58,-162.64 738.54,-166.92 725.27,-170.96"/>
<polygon fill="midnightblue" stroke="midnightblue" points="767.31,-161.81 775.85,-155.55 765.27,-155.11 767.31,-161.81"/>
</g>
<!-- Node4 -->
<g id="node4" class="node">
<title>Node4</title>
<g id="a_node4"><a xlink:href="classzero__mate_1_1gui_1_1CRegisters__Window.html#ab910a37cb5f1cd13e2566c87a6bc0121" target="_top" xlink:title="Renders flags of the CPSR register.">
<polygon fill="none" stroke="black" points="577,-121 577,-151 740,-151 740,-121 577,-121"/>
<text text-anchor="start" x="585" y="-139" font-family="Helvetica,sans-Serif" font-size="10.00">zero_mate::gui::CRegisters</text>
<text text-anchor="middle" x="658.5" y="-128" font-family="Helvetica,sans-Serif" font-size="10.00">_Window::Render_CPSR_Flags</text>
</a>
</g>
</g>
<!-- Node1&#45;&gt;Node4 -->
<g id="edge3" class="edge">
<title>Node1&#45;&gt;Node4</title>
<path fill="none" stroke="midnightblue" d="M765.7,-136C757.28,-136 748.67,-136 740.18,-136"/>
<polygon fill="midnightblue" stroke="midnightblue" points="765.85,-139.5 775.85,-136 765.85,-132.5 765.85,-139.5"/>
</g>
<!-- Node8 -->
<g id="node8" class="node">
<title>Node8</title>
<g id="a_node8"><a xlink:href="classzero__mate_1_1peripheral_1_1CInterrupt__Controller.html#a32373b931bb37ef8ee92f95a3f833284" target="_top" xlink:title="Notifies the interrupt controller about a pending interrupt triggered by a basic IRQ source.">
<polygon fill="none" stroke="black" points="596,-60.5 596,-101.5 721,-101.5 721,-60.5 596,-60.5"/>
<text text-anchor="start" x="604" y="-89.5" font-family="Helvetica,sans-Serif" font-size="10.00">zero_mate::peripheral</text>
<text text-anchor="start" x="604" y="-78.5" font-family="Helvetica,sans-Serif" font-size="10.00">::CInterrupt_Controller</text>
<text text-anchor="middle" x="658.5" y="-67.5" font-family="Helvetica,sans-Serif" font-size="10.00">::Signalize_Basic_IRQ</text>
</a>
</g>
</g>
<!-- Node1&#45;&gt;Node8 -->
<g id="edge7" class="edge">
<title>Node1&#45;&gt;Node8</title>
<path fill="none" stroke="midnightblue" d="M766.11,-113.49C751.13,-108.92 735.52,-104.16 721.02,-99.75"/>
<polygon fill="midnightblue" stroke="midnightblue" points="765.27,-116.89 775.85,-116.45 767.31,-110.19 765.27,-116.89"/>
</g>
<!-- Node9 -->
<g id="node9" class="node">
<title>Node9</title>
<g id="a_node9"><a xlink:href="classzero__mate_1_1peripheral_1_1CInterrupt__Controller.html#aa559a3a604ae1877cbbe749724d8a399" target="_top" xlink:title="Notifies the interrupt controller about a pending interrupt triggered by an IRQ source.">
<polygon fill="none" stroke="black" points="596,-0.5 596,-41.5 721,-41.5 721,-0.5 596,-0.5"/>
<text text-anchor="start" x="604" y="-29.5" font-family="Helvetica,sans-Serif" font-size="10.00">zero_mate::peripheral</text>
<text text-anchor="start" x="604" y="-18.5" font-family="Helvetica,sans-Serif" font-size="10.00">::CInterrupt_Controller</text>
<text text-anchor="middle" x="658.5" y="-7.5" font-family="Helvetica,sans-Serif" font-size="10.00">::Signalize_IRQ</text>
</a>
</g>
</g>
<!-- Node1&#45;&gt;Node9 -->
<g id="edge8" class="edge">
<title>Node1&#45;&gt;Node9</title>
<path fill="none" stroke="midnightblue" d="M812.76,-108.26C793.71,-90.07 766.95,-66.81 740,-51 734.08,-47.53 727.69,-44.34 721.19,-41.43"/>
<polygon fill="midnightblue" stroke="midnightblue" points="810.57,-111 820.18,-115.46 815.44,-105.98 810.57,-111"/>
</g>
<!-- Node5 -->
<g id="node5" class="node">
<title>Node5</title>
<g id="a_node5"><a xlink:href="classzero__mate_1_1gui_1_1CRegisters__Window.html#a25928c2ab0086154b73843f84a831953" target="_top" xlink:title="Renders different format tabs of a given CPU mode.">
<polygon fill="none" stroke="black" points="368,-121 368,-151 541,-151 541,-121 368,-121"/>
<text text-anchor="start" x="376" y="-139" font-family="Helvetica,sans-Serif" font-size="10.00">zero_mate::gui::CRegisters</text>
<text text-anchor="middle" x="454.5" y="-128" font-family="Helvetica,sans-Serif" font-size="10.00">_Window::Render_Register_Tabs</text>
</a>
</g>
</g>
<!-- Node4&#45;&gt;Node5 -->
<g id="edge4" class="edge">
<title>Node4&#45;&gt;Node5</title>
<path fill="none" stroke="midnightblue" d="M566.52,-136C558.04,-136 549.47,-136 541.04,-136"/>
<polygon fill="midnightblue" stroke="midnightblue" points="566.79,-139.5 576.79,-136 566.79,-132.5 566.79,-139.5"/>
</g>
<!-- Node6 -->
<g id="node6" class="node">
<title>Node6</title>
<g id="a_node6"><a xlink:href="classzero__mate_1_1gui_1_1CRegisters__Window.html#ac9b00209a3db86452bf51d8f4c9dbf72" target="_top" xlink:title="Renders tabs for different CPU modes (SVC, IRQ, FIQ, etc.)">
<polygon fill="none" stroke="black" points="184,-115.5 184,-156.5 332,-156.5 332,-115.5 184,-115.5"/>
<text text-anchor="start" x="192" y="-144.5" font-family="Helvetica,sans-Serif" font-size="10.00">zero_mate::gui::CRegisters</text>
<text text-anchor="start" x="192" y="-133.5" font-family="Helvetica,sans-Serif" font-size="10.00">_Window::Render_Register</text>
<text text-anchor="middle" x="258" y="-122.5" font-family="Helvetica,sans-Serif" font-size="10.00">_Modes_Tabs</text>
</a>
</g>
</g>
<!-- Node5&#45;&gt;Node6 -->
<g id="edge5" class="edge">
<title>Node5&#45;&gt;Node6</title>
<path fill="none" stroke="midnightblue" d="M357.81,-136C349.18,-136 340.54,-136 332.15,-136"/>
<polygon fill="midnightblue" stroke="midnightblue" points="357.91,-139.5 367.91,-136 357.91,-132.5 357.91,-139.5"/>
</g>
<!-- Node7 -->
<g id="node7" class="node">
<title>Node7</title>
<g id="a_node7"><a xlink:href="classzero__mate_1_1gui_1_1CRegisters__Window.html#a12beb19205052a340193be90b32e5717" target="_top" xlink:title="Renders the windows (IGUI_Window interface).">
<polygon fill="none" stroke="black" points="0,-121 0,-151 148,-151 148,-121 0,-121"/>
<text text-anchor="start" x="8" y="-139" font-family="Helvetica,sans-Serif" font-size="10.00">zero_mate::gui::CRegisters</text>
<text text-anchor="middle" x="74" y="-128" font-family="Helvetica,sans-Serif" font-size="10.00">_Window::Render</text>
</a>
</g>
</g>
<!-- Node6&#45;&gt;Node7 -->
<g id="edge6" class="edge">
<title>Node6&#45;&gt;Node7</title>
<path fill="none" stroke="midnightblue" d="M173.48,-136C165.01,-136 156.44,-136 148.09,-136"/>
<polygon fill="midnightblue" stroke="midnightblue" points="173.76,-139.5 183.76,-136 173.76,-132.5 173.76,-139.5"/>
</g>
</g>
</svg>
