<?xml version="1.0" encoding="UTF-8" standalone="no"?>
<!DOCTYPE svg PUBLIC "-//W3C//DTD SVG 1.1//EN"
 "http://www.w3.org/Graphics/SVG/1.1/DTD/svg11.dtd">
<!-- Generated by graphviz version 2.43.0 (0)
 -->
<!-- Title: zero_mate::gui::external_peripheral::CSeven_Segment_Display::Render Pages: 1 -->
<svg width="818pt" height="230pt"
 viewBox="0.00 0.00 818.00 230.00" xmlns="http://www.w3.org/2000/svg" xmlns:xlink="http://www.w3.org/1999/xlink">
<g id="graph0" class="graph" transform="scale(1 1) rotate(0) translate(4 226)">
<title>zero_mate::gui::external_peripheral::CSeven_Segment_Display::Render</title>
<!-- Node1 -->
<g id="node1" class="node">
<title>Node1</title>
<g id="a_node1"><a xlink:title=" ">
<polygon fill="#bfbfbf" stroke="black" points="0,-120.5 0,-161.5 163,-161.5 163,-120.5 0,-120.5"/>
<text text-anchor="start" x="8" y="-149.5" font-family="Helvetica,sans-Serif" font-size="10.00">zero_mate::gui::external</text>
<text text-anchor="start" x="8" y="-138.5" font-family="Helvetica,sans-Serif" font-size="10.00">_peripheral::CSeven_Segment</text>
<text text-anchor="middle" x="81.5" y="-127.5" font-family="Helvetica,sans-Serif" font-size="10.00">_Display::Render</text>
</a>
</g>
</g>
<!-- Node2 -->
<g id="node2" class="node">
<title>Node2</title>
<g id="a_node2"><a xlink:href="classzero__mate_1_1gui_1_1external__peripheral_1_1CSeven__Segment__Display.html#ae278b7c08c0bc7204e380657b5e5a8d8" target="_top" xlink:title=" ">
<polygon fill="none" stroke="black" points="199,-165.5 199,-206.5 423,-206.5 423,-165.5 199,-165.5"/>
<text text-anchor="start" x="207" y="-194.5" font-family="Helvetica,sans-Serif" font-size="10.00">zero_mate::gui::external</text>
<text text-anchor="start" x="207" y="-183.5" font-family="Helvetica,sans-Serif" font-size="10.00">_peripheral::CSeven_Segment</text>
<text text-anchor="middle" x="311" y="-172.5" font-family="Helvetica,sans-Serif" font-size="10.00">_Display::Render_Seven_Segment_Display</text>
</a>
</g>
</g>
<!-- Node1&#45;&gt;Node2 -->
<g id="edge1" class="edge">
<title>Node1&#45;&gt;Node2</title>
<path fill="none" stroke="midnightblue" d="M163.03,-156.93C173.8,-159.06 185.02,-161.28 196.23,-163.5"/>
<polygon fill="midnightblue" stroke="midnightblue" points="195.58,-166.94 206.07,-165.44 196.94,-160.07 195.58,-166.94"/>
</g>
<!-- Node5 -->
<g id="node5" class="node">
<title>Node5</title>
<g id="a_node5"><a xlink:href="classzero__mate_1_1gui_1_1external__peripheral_1_1CSeven__Segment__Display.html#ab573aa6d5494ede9b1c9d6b608de6349" target="_top" xlink:title=" ">
<polygon fill="none" stroke="black" points="225.5,-90.5 225.5,-131.5 396.5,-131.5 396.5,-90.5 225.5,-90.5"/>
<text text-anchor="start" x="233.5" y="-119.5" font-family="Helvetica,sans-Serif" font-size="10.00">zero_mate::gui::external</text>
<text text-anchor="start" x="233.5" y="-108.5" font-family="Helvetica,sans-Serif" font-size="10.00">_peripheral::CSeven_Segment</text>
<text text-anchor="middle" x="311" y="-97.5" font-family="Helvetica,sans-Serif" font-size="10.00">_Display::Render_Shift_Register</text>
</a>
</g>
</g>
<!-- Node1&#45;&gt;Node5 -->
<g id="edge4" class="edge">
<title>Node1&#45;&gt;Node5</title>
<path fill="none" stroke="midnightblue" d="M163.03,-130.38C179.91,-128.15 197.86,-125.79 215.21,-123.5"/>
<polygon fill="midnightblue" stroke="midnightblue" points="215.89,-126.94 225.34,-122.16 214.97,-120 215.89,-126.94"/>
</g>
<!-- Node3 -->
<g id="node3" class="node">
<title>Node3</title>
<g id="a_node3"><a xlink:href="classzero__mate_1_1gui_1_1external__peripheral_1_1CSeven__Segment__Display.html#a8f1f6987199c9bf6c4bdf4067d926c42" target="_top" xlink:title=" ">
<polygon fill="none" stroke="black" points="471.5,-180.5 471.5,-221.5 634.5,-221.5 634.5,-180.5 471.5,-180.5"/>
<text text-anchor="start" x="479.5" y="-209.5" font-family="Helvetica,sans-Serif" font-size="10.00">zero_mate::gui::external</text>
<text text-anchor="start" x="479.5" y="-198.5" font-family="Helvetica,sans-Serif" font-size="10.00">_peripheral::CSeven_Segment</text>
<text text-anchor="middle" x="553" y="-187.5" font-family="Helvetica,sans-Serif" font-size="10.00">_Display::Get_Segment_Color</text>
</a>
</g>
</g>
<!-- Node2&#45;&gt;Node3 -->
<g id="edge2" class="edge">
<title>Node2&#45;&gt;Node3</title>
<path fill="none" stroke="midnightblue" d="M423.22,-192.95C435.86,-193.74 448.64,-194.54 460.98,-195.31"/>
<polygon fill="midnightblue" stroke="midnightblue" points="461.03,-198.82 471.23,-195.95 461.47,-191.83 461.03,-198.82"/>
</g>
<!-- Node4 -->
<g id="node4" class="node">
<title>Node4</title>
<g id="a_node4"><a xlink:href="namespacezero__mate_1_1utils_1_1math.html#af7d93c996dab2ff1b91c5a399dcfe29f" target="_top" xlink:title="Tests whether a bit is set in the given integral variable.">
<polygon fill="none" stroke="black" points="683,-186 683,-216 810,-216 810,-186 683,-186"/>
<text text-anchor="start" x="691" y="-204" font-family="Helvetica,sans-Serif" font-size="10.00">zero_mate::utils::math</text>
<text text-anchor="middle" x="746.5" y="-193" font-family="Helvetica,sans-Serif" font-size="10.00">::Is_Bit_Set</text>
</a>
</g>
</g>
<!-- Node3&#45;&gt;Node4 -->
<g id="edge3" class="edge">
<title>Node3&#45;&gt;Node4</title>
<path fill="none" stroke="midnightblue" d="M634.66,-201C647.28,-201 660.25,-201 672.68,-201"/>
<polygon fill="midnightblue" stroke="midnightblue" points="672.97,-204.5 682.97,-201 672.97,-197.5 672.97,-204.5"/>
</g>
<!-- Node6 -->
<g id="node6" class="node">
<title>Node6</title>
<g id="a_node6"><a xlink:href="classzero__mate_1_1gui_1_1external__peripheral_1_1CSeven__Segment__Display.html#a31c38aef585c8d1bfbb9ba8495f74990" target="_top" xlink:title=" ">
<polygon fill="none" stroke="black" points="459,-120.5 459,-161.5 647,-161.5 647,-120.5 459,-120.5"/>
<text text-anchor="start" x="467" y="-149.5" font-family="Helvetica,sans-Serif" font-size="10.00">zero_mate::gui::external</text>
<text text-anchor="start" x="467" y="-138.5" font-family="Helvetica,sans-Serif" font-size="10.00">_peripheral::CSeven_Segment</text>
<text text-anchor="middle" x="553" y="-127.5" font-family="Helvetica,sans-Serif" font-size="10.00">_Display::Render_Clock_Combobox</text>
</a>
</g>
</g>
<!-- Node5&#45;&gt;Node6 -->
<g id="edge5" class="edge">
<title>Node5&#45;&gt;Node6</title>
<path fill="none" stroke="midnightblue" d="M396.62,-121.58C413.42,-123.68 431.25,-125.91 448.61,-128.08"/>
<polygon fill="midnightblue" stroke="midnightblue" points="448.4,-131.58 458.76,-129.34 449.27,-124.63 448.4,-131.58"/>
</g>
<!-- Node7 -->
<g id="node7" class="node">
<title>Node7</title>
<g id="a_node7"><a xlink:href="classzero__mate_1_1gui_1_1external__peripheral_1_1CSeven__Segment__Display.html#a67c5b65dcfe3f0720214b95df0fa4677" target="_top" xlink:title=" ">
<polygon fill="none" stroke="black" points="460.5,-60.5 460.5,-101.5 645.5,-101.5 645.5,-60.5 460.5,-60.5"/>
<text text-anchor="start" x="468.5" y="-89.5" font-family="Helvetica,sans-Serif" font-size="10.00">zero_mate::gui::external</text>
<text text-anchor="start" x="468.5" y="-78.5" font-family="Helvetica,sans-Serif" font-size="10.00">_peripheral::CSeven_Segment</text>
<text text-anchor="middle" x="553" y="-67.5" font-family="Helvetica,sans-Serif" font-size="10.00">_Display::Render_Data_Combobox</text>
</a>
</g>
</g>
<!-- Node5&#45;&gt;Node7 -->
<g id="edge6" class="edge">
<title>Node5&#45;&gt;Node7</title>
<path fill="none" stroke="midnightblue" d="M396.62,-100.42C413.88,-98.27 432.21,-95.97 450,-93.75"/>
<polygon fill="midnightblue" stroke="midnightblue" points="450.92,-97.16 460.4,-92.45 450.05,-90.22 450.92,-97.16"/>
</g>
<!-- Node8 -->
<g id="node8" class="node">
<title>Node8</title>
<g id="a_node8"><a xlink:href="classzero__mate_1_1gui_1_1external__peripheral_1_1CSeven__Segment__Display.html#a8d40266b4b661d7543d44fefd8630b81" target="_top" xlink:title=" ">
<polygon fill="none" stroke="black" points="459,-0.5 459,-41.5 647,-41.5 647,-0.5 459,-0.5"/>
<text text-anchor="start" x="467" y="-29.5" font-family="Helvetica,sans-Serif" font-size="10.00">zero_mate::gui::external</text>
<text text-anchor="start" x="467" y="-18.5" font-family="Helvetica,sans-Serif" font-size="10.00">_peripheral::CSeven_Segment</text>
<text text-anchor="middle" x="553" y="-7.5" font-family="Helvetica,sans-Serif" font-size="10.00">_Display::Render_Latch_Combobox</text>
</a>
</g>
</g>
<!-- Node5&#45;&gt;Node8 -->
<g id="edge7" class="edge">
<title>Node5&#45;&gt;Node8</title>
<path fill="none" stroke="midnightblue" d="M359.64,-90.49C388.24,-78.44 425.47,-63.23 459,-51 464.75,-48.9 470.73,-46.8 476.76,-44.73"/>
<polygon fill="midnightblue" stroke="midnightblue" points="477.89,-48.05 486.25,-41.53 475.65,-41.41 477.89,-48.05"/>
</g>
</g>
</svg>
