<?xml version="1.0" encoding="UTF-8" standalone="no"?>
<!DOCTYPE svg PUBLIC "-//W3C//DTD SVG 1.1//EN"
 "http://www.w3.org/Graphics/SVG/1.1/DTD/svg11.dtd">
<!-- Generated by graphviz version 2.43.0 (0)
 -->
<!-- Title: zero_mate::peripheral::CARM_Timer::Write Pages: 1 -->
<svg width="508pt" height="61pt"
 viewBox="0.00 0.00 508.00 61.00" xmlns="http://www.w3.org/2000/svg" xmlns:xlink="http://www.w3.org/1999/xlink">
<g id="graph0" class="graph" transform="scale(1 1) rotate(0) translate(4 57)">
<title>zero_mate::peripheral::CARM_Timer::Write</title>
<!-- Node1 -->
<g id="node1" class="node">
<title>Node1</title>
<g id="a_node1"><a xlink:title="Writes data to the peripheral (IPeripheral interface).">
<polygon fill="#bfbfbf" stroke="black" points="0,-0.5 0,-30.5 124,-30.5 124,-0.5 0,-0.5"/>
<text text-anchor="start" x="8" y="-18.5" font-family="Helvetica,sans-Serif" font-size="10.00">zero_mate::peripheral</text>
<text text-anchor="middle" x="62" y="-7.5" font-family="Helvetica,sans-Serif" font-size="10.00">::CARM_Timer::Write</text>
</a>
</g>
</g>
<!-- Node2 -->
<g id="node2" class="node">
<title>Node2</title>
<g id="a_node2"><a xlink:href="classzero__mate_1_1peripheral_1_1CARM__Timer.html#a9f2ae98d766d97f06f4b153a99bafcaa" target="_top" xlink:title="Clear a pending interrupt (helper function).">
<polygon fill="none" stroke="black" points="160,-22.5 160,-52.5 331,-52.5 331,-22.5 160,-22.5"/>
<text text-anchor="start" x="168" y="-40.5" font-family="Helvetica,sans-Serif" font-size="10.00">zero_mate::peripheral</text>
<text text-anchor="middle" x="245.5" y="-29.5" font-family="Helvetica,sans-Serif" font-size="10.00">::CARM_Timer::Clear_Basic_IRQ</text>
</a>
</g>
</g>
<!-- Node1&#45;&gt;Node2 -->
<g id="edge1" class="edge">
<title>Node1&#45;&gt;Node2</title>
<path fill="none" stroke="midnightblue" d="M124.19,-22.92C132.41,-23.91 140.98,-24.95 149.6,-26"/>
<polygon fill="midnightblue" stroke="midnightblue" points="149.38,-29.5 159.73,-27.22 150.22,-22.55 149.38,-29.5"/>
</g>
<!-- Node3 -->
<g id="node3" class="node">
<title>Node3</title>
<g id="a_node3"><a xlink:href="classzero__mate_1_1peripheral_1_1CARM__Timer.html#a8aa88bde21b52e4ae5132f8e2a5fb73a" target="_top" xlink:title="Returns the current content of a register.">
<polygon fill="none" stroke="black" points="367,-0.5 367,-30.5 500,-30.5 500,-0.5 367,-0.5"/>
<text text-anchor="start" x="375" y="-18.5" font-family="Helvetica,sans-Serif" font-size="10.00">zero_mate::peripheral</text>
<text text-anchor="middle" x="433.5" y="-7.5" font-family="Helvetica,sans-Serif" font-size="10.00">::CARM_Timer::Get_Reg</text>
</a>
</g>
</g>
<!-- Node1&#45;&gt;Node3 -->
<g id="edge3" class="edge">
<title>Node1&#45;&gt;Node3</title>
<path fill="none" stroke="midnightblue" d="M124.05,-14.05C135.97,-13.82 148.38,-13.62 160,-13.5 236,-12.72 255,-12.75 331,-13.5 339.36,-13.58 348.11,-13.7 356.81,-13.84"/>
<polygon fill="midnightblue" stroke="midnightblue" points="356.92,-17.35 366.98,-14.02 357.04,-10.35 356.92,-17.35"/>
</g>
<!-- Node2&#45;&gt;Node3 -->
<g id="edge2" class="edge">
<title>Node2&#45;&gt;Node3</title>
<path fill="none" stroke="midnightblue" d="M331.06,-27.5C339.59,-26.49 348.22,-25.47 356.64,-24.47"/>
<polygon fill="midnightblue" stroke="midnightblue" points="357.29,-27.92 366.81,-23.27 356.47,-20.97 357.29,-27.92"/>
</g>
</g>
</svg>
