<?xml version="1.0" encoding="UTF-8" standalone="no"?>
<!DOCTYPE svg PUBLIC "-//W3C//DTD SVG 1.1//EN"
 "http://www.w3.org/Graphics/SVG/1.1/DTD/svg11.dtd">
<!-- Generated by graphviz version 2.43.0 (0)
 -->
<!-- Title: zero_mate::arm1176jzf_s::CCPU_Context::Get_Register Pages: 1 -->
<svg width="933pt" height="192pt"
 viewBox="0.00 0.00 933.00 192.00" xmlns="http://www.w3.org/2000/svg" xmlns:xlink="http://www.w3.org/1999/xlink">
<g id="graph0" class="graph" transform="scale(1 1) rotate(0) translate(4 188)">
<title>zero_mate::arm1176jzf_s::CCPU_Context::Get_Register</title>
<!-- Node1 -->
<g id="node1" class="node">
<title>Node1</title>
<g id="a_node1"><a xlink:title="Returns a const reference to a register of a particular CPU mode.">
<polygon fill="#bfbfbf" stroke="black" points="795,-71.5 795,-112.5 925,-112.5 925,-71.5 795,-71.5"/>
<text text-anchor="start" x="803" y="-100.5" font-family="Helvetica,sans-Serif" font-size="10.00">zero_mate::arm1176jzf</text>
<text text-anchor="start" x="803" y="-89.5" font-family="Helvetica,sans-Serif" font-size="10.00">_s::CCPU_Context::Get</text>
<text text-anchor="middle" x="860" y="-78.5" font-family="Helvetica,sans-Serif" font-size="10.00">_Register</text>
</a>
</g>
</g>
<!-- Node2 -->
<g id="node2" class="node">
<title>Node2</title>
<g id="a_node2"><a xlink:href="classzero__mate_1_1arm1176jzf__s_1_1CCPU__Core.html#a65fef8be920aaccdf3cfea5b0e3d0cee" target="_top" xlink:title="Calculates the base address of a data transfer instruction.">
<polygon fill="none" stroke="black" points="598,-142.5 598,-183.5 738,-183.5 738,-142.5 598,-142.5"/>
<text text-anchor="start" x="606" y="-171.5" font-family="Helvetica,sans-Serif" font-size="10.00">zero_mate::arm1176jzf</text>
<text text-anchor="start" x="606" y="-160.5" font-family="Helvetica,sans-Serif" font-size="10.00">_s::CCPU_Core::Calculate</text>
<text text-anchor="middle" x="668" y="-149.5" font-family="Helvetica,sans-Serif" font-size="10.00">_Base_Address</text>
</a>
</g>
</g>
<!-- Node1&#45;&gt;Node2 -->
<g id="edge1" class="edge">
<title>Node1&#45;&gt;Node2</title>
<path fill="none" stroke="midnightblue" d="M794.44,-116.13C771.6,-124.66 746.14,-134.17 724.16,-142.39"/>
<polygon fill="midnightblue" stroke="midnightblue" points="795.9,-119.32 804.04,-112.54 793.45,-112.76 795.9,-119.32"/>
</g>
<!-- Node3 -->
<g id="node3" class="node">
<title>Node3</title>
<g id="a_node3"><a xlink:href="classzero__mate_1_1arm1176jzf__s_1_1CCPU__Core.html#a524d4d2622a78e1c416bf4528700bc00" target="_top" xlink:title="Executes a block data transfer instruction.">
<polygon fill="none" stroke="black" points="388.5,-123 388.5,-153 520.5,-153 520.5,-123 388.5,-123"/>
<text text-anchor="start" x="396.5" y="-141" font-family="Helvetica,sans-Serif" font-size="10.00">zero_mate::arm1176jzf</text>
<text text-anchor="middle" x="454.5" y="-130" font-family="Helvetica,sans-Serif" font-size="10.00">_s::CCPU_Core::Execute</text>
</a>
</g>
</g>
<!-- Node1&#45;&gt;Node3 -->
<g id="edge3" class="edge">
<title>Node1&#45;&gt;Node3</title>
<path fill="none" stroke="midnightblue" d="M784.68,-100.47C709,-109.1 592.84,-122.34 520.66,-130.57"/>
<polygon fill="midnightblue" stroke="midnightblue" points="785.08,-103.95 794.62,-99.34 784.29,-97 785.08,-103.95"/>
</g>
<!-- Node4 -->
<g id="node4" class="node">
<title>Node4</title>
<g id="a_node4"><a xlink:href="classzero__mate_1_1arm1176jzf__s_1_1CCPU__Context.html#a509b98ecf06c3100d69232f696d50150" target="_top" xlink:title="Returns a const reference to a register of the current CPU mode.">
<polygon fill="none" stroke="black" points="589,-55 589,-85 747,-85 747,-55 589,-55"/>
<text text-anchor="start" x="597" y="-73" font-family="Helvetica,sans-Serif" font-size="10.00">zero_mate::arm1176jzf</text>
<text text-anchor="middle" x="668" y="-62" font-family="Helvetica,sans-Serif" font-size="10.00">_s::CCPU_Context::operator[]</text>
</a>
</g>
</g>
<!-- Node1&#45;&gt;Node4 -->
<g id="edge4" class="edge">
<title>Node1&#45;&gt;Node4</title>
<path fill="none" stroke="midnightblue" d="M784.75,-83.4C772.45,-81.98 759.67,-80.5 747.28,-79.06"/>
<polygon fill="midnightblue" stroke="midnightblue" points="784.6,-86.91 794.94,-84.58 785.41,-79.96 784.6,-86.91"/>
</g>
<!-- Node5 -->
<g id="node5" class="node">
<title>Node5</title>
<g id="a_node5"><a xlink:href="classzero__mate_1_1gui_1_1CRegisters__Window.html#a1779ad3caf45c3e8dd342ef8057dfff7" target="_top" xlink:title="Renders table with CPU registers of a given CPU mode.">
<polygon fill="none" stroke="black" points="577,-6 577,-36 759,-36 759,-6 577,-6"/>
<text text-anchor="start" x="585" y="-24" font-family="Helvetica,sans-Serif" font-size="10.00">zero_mate::gui::CRegisters</text>
<text text-anchor="middle" x="668" y="-13" font-family="Helvetica,sans-Serif" font-size="10.00">_Window::Render_Registers_Table</text>
</a>
</g>
</g>
<!-- Node1&#45;&gt;Node5 -->
<g id="edge5" class="edge">
<title>Node1&#45;&gt;Node5</title>
<path fill="none" stroke="midnightblue" d="M810.13,-66.9C794.1,-59.24 776.02,-51.21 759,-45 750.19,-41.78 740.75,-38.79 731.42,-36.09"/>
<polygon fill="midnightblue" stroke="midnightblue" points="808.79,-70.13 819.31,-71.35 811.84,-63.84 808.79,-70.13"/>
</g>
<!-- Node2&#45;&gt;Node3 -->
<g id="edge2" class="edge">
<title>Node2&#45;&gt;Node3</title>
<path fill="none" stroke="midnightblue" d="M587.71,-153.63C565.59,-151.01 541.81,-148.2 520.6,-145.7"/>
<polygon fill="midnightblue" stroke="midnightblue" points="587.41,-157.12 597.75,-154.81 588.23,-150.16 587.41,-157.12"/>
</g>
<!-- Node6 -->
<g id="node6" class="node">
<title>Node6</title>
<g id="a_node6"><a xlink:href="classzero__mate_1_1gui_1_1CRegisters__Window.html#a25928c2ab0086154b73843f84a831953" target="_top" xlink:title="Renders different format tabs of a given CPU mode.">
<polygon fill="none" stroke="black" points="368,-6 368,-36 541,-36 541,-6 368,-6"/>
<text text-anchor="start" x="376" y="-24" font-family="Helvetica,sans-Serif" font-size="10.00">zero_mate::gui::CRegisters</text>
<text text-anchor="middle" x="454.5" y="-13" font-family="Helvetica,sans-Serif" font-size="10.00">_Window::Render_Register_Tabs</text>
</a>
</g>
</g>
<!-- Node5&#45;&gt;Node6 -->
<g id="edge6" class="edge">
<title>Node5&#45;&gt;Node6</title>
<path fill="none" stroke="midnightblue" d="M566.89,-21C558.25,-21 549.56,-21 541.05,-21"/>
<polygon fill="midnightblue" stroke="midnightblue" points="567,-24.5 577,-21 567,-17.5 567,-24.5"/>
</g>
<!-- Node7 -->
<g id="node7" class="node">
<title>Node7</title>
<g id="a_node7"><a xlink:href="classzero__mate_1_1gui_1_1CRegisters__Window.html#ac9b00209a3db86452bf51d8f4c9dbf72" target="_top" xlink:title="Renders tabs for different CPU modes (SVC, IRQ, FIQ, etc.)">
<polygon fill="none" stroke="black" points="184,-0.5 184,-41.5 332,-41.5 332,-0.5 184,-0.5"/>
<text text-anchor="start" x="192" y="-29.5" font-family="Helvetica,sans-Serif" font-size="10.00">zero_mate::gui::CRegisters</text>
<text text-anchor="start" x="192" y="-18.5" font-family="Helvetica,sans-Serif" font-size="10.00">_Window::Render_Register</text>
<text text-anchor="middle" x="258" y="-7.5" font-family="Helvetica,sans-Serif" font-size="10.00">_Modes_Tabs</text>
</a>
</g>
</g>
<!-- Node6&#45;&gt;Node7 -->
<g id="edge7" class="edge">
<title>Node6&#45;&gt;Node7</title>
<path fill="none" stroke="midnightblue" d="M357.81,-21C349.18,-21 340.54,-21 332.15,-21"/>
<polygon fill="midnightblue" stroke="midnightblue" points="357.91,-24.5 367.91,-21 357.91,-17.5 357.91,-24.5"/>
</g>
<!-- Node8 -->
<g id="node8" class="node">
<title>Node8</title>
<g id="a_node8"><a xlink:href="classzero__mate_1_1gui_1_1CRegisters__Window.html#a12beb19205052a340193be90b32e5717" target="_top" xlink:title="Renders the windows (IGUI_Window interface).">
<polygon fill="none" stroke="black" points="0,-6 0,-36 148,-36 148,-6 0,-6"/>
<text text-anchor="start" x="8" y="-24" font-family="Helvetica,sans-Serif" font-size="10.00">zero_mate::gui::CRegisters</text>
<text text-anchor="middle" x="74" y="-13" font-family="Helvetica,sans-Serif" font-size="10.00">_Window::Render</text>
</a>
</g>
</g>
<!-- Node7&#45;&gt;Node8 -->
<g id="edge8" class="edge">
<title>Node7&#45;&gt;Node8</title>
<path fill="none" stroke="midnightblue" d="M173.48,-21C165.01,-21 156.44,-21 148.09,-21"/>
<polygon fill="midnightblue" stroke="midnightblue" points="173.76,-24.5 183.76,-21 173.76,-17.5 173.76,-24.5"/>
</g>
</g>
</svg>
