<?xml version="1.0" encoding="UTF-8" standalone="no"?>
<!DOCTYPE svg PUBLIC "-//W3C//DTD SVG 1.1//EN"
 "http://www.w3.org/Graphics/SVG/1.1/DTD/svg11.dtd">
<!-- Generated by graphviz version 2.43.0 (0)
 -->
<!-- Title: zero_mate::peripheral::CMini_UART::Set_RX_Pin Pages: 1 -->
<svg width="904pt" height="118pt"
 viewBox="0.00 0.00 904.00 118.00" xmlns="http://www.w3.org/2000/svg" xmlns:xlink="http://www.w3.org/1999/xlink">
<g id="graph0" class="graph" transform="scale(1 1) rotate(0) translate(4 114)">
<title>zero_mate::peripheral::CMini_UART::Set_RX_Pin</title>
<!-- Node1 -->
<g id="node1" class="node">
<title>Node1</title>
<g id="a_node1"><a xlink:title="Sets the state of the RX pin.">
<polygon fill="#bfbfbf" stroke="black" points="0,-27.5 0,-57.5 142,-57.5 142,-27.5 0,-27.5"/>
<text text-anchor="start" x="8" y="-45.5" font-family="Helvetica,sans-Serif" font-size="10.00">zero_mate::peripheral</text>
<text text-anchor="middle" x="71" y="-34.5" font-family="Helvetica,sans-Serif" font-size="10.00">::CMini_UART::Set_RX_Pin</text>
</a>
</g>
</g>
<!-- Node2 -->
<g id="node2" class="node">
<title>Node2</title>
<g id="a_node2"><a xlink:href="classzero__mate_1_1peripheral_1_1CMini__UART.html#a9243af4f42d118a598a00c0f79d366e1" target="_top" xlink:title="Sets the state of a given GPIO pin.">
<polygon fill="none" stroke="black" points="178,-27.5 178,-57.5 330,-57.5 330,-27.5 178,-27.5"/>
<text text-anchor="start" x="186" y="-45.5" font-family="Helvetica,sans-Serif" font-size="10.00">zero_mate::peripheral</text>
<text text-anchor="middle" x="254" y="-34.5" font-family="Helvetica,sans-Serif" font-size="10.00">::CMini_UART::Set_GPIO_pin</text>
</a>
</g>
</g>
<!-- Node1&#45;&gt;Node2 -->
<g id="edge1" class="edge">
<title>Node1&#45;&gt;Node2</title>
<path fill="none" stroke="midnightblue" d="M142.24,-42.5C150.5,-42.5 159.01,-42.5 167.45,-42.5"/>
<polygon fill="midnightblue" stroke="midnightblue" points="167.71,-46 177.71,-42.5 167.71,-39 167.71,-46"/>
</g>
<!-- Node3 -->
<g id="node3" class="node">
<title>Node3</title>
<g id="a_node3"><a xlink:href="classzero__mate_1_1utils_1_1CLogging__System.html#a57ed77e1a5cf822cea532cc5e05c3f60" target="_top" xlink:title="Logs an error message via all registered loggers.">
<polygon fill="none" stroke="black" points="366,-27.5 366,-57.5 512,-57.5 512,-27.5 366,-27.5"/>
<text text-anchor="start" x="374" y="-45.5" font-family="Helvetica,sans-Serif" font-size="10.00">zero_mate::utils::CLogging</text>
<text text-anchor="middle" x="439" y="-34.5" font-family="Helvetica,sans-Serif" font-size="10.00">_System::Error</text>
</a>
</g>
</g>
<!-- Node2&#45;&gt;Node3 -->
<g id="edge2" class="edge">
<title>Node2&#45;&gt;Node3</title>
<path fill="none" stroke="midnightblue" d="M330.23,-42.5C338.57,-42.5 347.09,-42.5 355.52,-42.5"/>
<polygon fill="midnightblue" stroke="midnightblue" points="355.72,-46 365.72,-42.5 355.72,-39 355.72,-46"/>
</g>
<!-- Node4 -->
<g id="node4" class="node">
<title>Node4</title>
<g id="a_node4"><a xlink:href="classzero__mate_1_1utils_1_1CLogging__System.html#a71ed11c796553cbe8fd99773406a1060" target="_top" xlink:title="Creates a formatted message to be logged.">
<polygon fill="none" stroke="black" points="548,-50 548,-91 700,-91 700,-50 548,-50"/>
<text text-anchor="start" x="556" y="-79" font-family="Helvetica,sans-Serif" font-size="10.00">zero_mate::utils::CLogging</text>
<text text-anchor="start" x="556" y="-68" font-family="Helvetica,sans-Serif" font-size="10.00">_System::Create_Formatted</text>
<text text-anchor="middle" x="624" y="-57" font-family="Helvetica,sans-Serif" font-size="10.00">_Log_Msg</text>
</a>
</g>
</g>
<!-- Node3&#45;&gt;Node4 -->
<g id="edge3" class="edge">
<title>Node3&#45;&gt;Node4</title>
<path fill="none" stroke="midnightblue" d="M512.06,-53.53C520.55,-54.82 529.26,-56.16 537.9,-57.48"/>
<polygon fill="midnightblue" stroke="midnightblue" points="537.58,-60.97 547.99,-59.02 538.64,-54.05 537.58,-60.97"/>
</g>
<!-- Node7 -->
<g id="node7" class="node">
<title>Node7</title>
<g id="a_node7"><a xlink:href="classzero__mate_1_1utils_1_1CLogging__System.html#ad371c67ef65763966ccf9291002e86f3" target="_top" xlink:title="Extract the filename from a given location within the source files.">
<polygon fill="none" stroke="black" points="549.5,-0.5 549.5,-30.5 698.5,-30.5 698.5,-0.5 549.5,-0.5"/>
<text text-anchor="start" x="557.5" y="-18.5" font-family="Helvetica,sans-Serif" font-size="10.00">zero_mate::utils::CLogging</text>
<text text-anchor="middle" x="624" y="-7.5" font-family="Helvetica,sans-Serif" font-size="10.00">_System::Extract_Filename</text>
</a>
</g>
</g>
<!-- Node3&#45;&gt;Node7 -->
<g id="edge6" class="edge">
<title>Node3&#45;&gt;Node7</title>
<path fill="none" stroke="midnightblue" d="M512.06,-31.87C521.1,-30.53 530.4,-29.16 539.59,-27.81"/>
<polygon fill="midnightblue" stroke="midnightblue" points="540.12,-31.27 549.5,-26.34 539.1,-24.34 540.12,-31.27"/>
</g>
<!-- Node5 -->
<g id="node5" class="node">
<title>Node5</title>
<g id="a_node5"><a xlink:href="classzero__mate_1_1utils_1_1CLogging__System.html#aa70c102c805079042ffea2a6f2a5ad64" target="_top" xlink:title="Formats a given timestamp.">
<polygon fill="none" stroke="black" points="736,-79.5 736,-109.5 896,-109.5 896,-79.5 736,-79.5"/>
<text text-anchor="start" x="744" y="-97.5" font-family="Helvetica,sans-Serif" font-size="10.00">zero_mate::utils::CLogging</text>
<text text-anchor="middle" x="816" y="-86.5" font-family="Helvetica,sans-Serif" font-size="10.00">_System::Format_Timestamp</text>
</a>
</g>
</g>
<!-- Node4&#45;&gt;Node5 -->
<g id="edge4" class="edge">
<title>Node4&#45;&gt;Node5</title>
<path fill="none" stroke="midnightblue" d="M700.09,-79.99C708.52,-81.05 717.16,-82.14 725.74,-83.23"/>
<polygon fill="midnightblue" stroke="midnightblue" points="725.41,-86.71 735.77,-84.49 726.29,-79.77 725.41,-86.71"/>
</g>
<!-- Node6 -->
<g id="node6" class="node">
<title>Node6</title>
<g id="a_node6"><a xlink:href="classzero__mate_1_1utils_1_1CLogging__System.html#ae3ca637537dde05e0b9119145c840331" target="_top" xlink:title="Returns the current timestamp that will be used in a log message.">
<polygon fill="none" stroke="black" points="743,-30.5 743,-60.5 889,-60.5 889,-30.5 743,-30.5"/>
<text text-anchor="start" x="751" y="-48.5" font-family="Helvetica,sans-Serif" font-size="10.00">zero_mate::utils::CLogging</text>
<text text-anchor="middle" x="816" y="-37.5" font-family="Helvetica,sans-Serif" font-size="10.00">_System::Get_Timestamp</text>
</a>
</g>
</g>
<!-- Node4&#45;&gt;Node6 -->
<g id="edge5" class="edge">
<title>Node4&#45;&gt;Node6</title>
<path fill="none" stroke="midnightblue" d="M700.09,-60.62C710.89,-59.2 722.05,-57.73 732.98,-56.29"/>
<polygon fill="midnightblue" stroke="midnightblue" points="733.47,-59.76 742.93,-54.98 732.56,-52.82 733.47,-59.76"/>
</g>
</g>
</svg>
