<?xml version="1.0" encoding="UTF-8" standalone="no"?>
<!DOCTYPE svg PUBLIC "-//W3C//DTD SVG 1.1//EN"
 "http://www.w3.org/Graphics/SVG/1.1/DTD/svg11.dtd">
<!-- Generated by graphviz version 2.43.0 (0)
 -->
<!-- Title: zero_mate::coprocessor::cp15::CC1 Pages: 1 -->
<svg width="177pt" height="185pt"
 viewBox="0.00 0.00 177.00 185.00" xmlns="http://www.w3.org/2000/svg" xmlns:xlink="http://www.w3.org/1999/xlink">
<g id="graph0" class="graph" transform="scale(1 1) rotate(0) translate(4 181)">
<title>zero_mate::coprocessor::cp15::CC1</title>
<!-- Node1 -->
<g id="node1" class="node">
<title>Node1</title>
<g id="a_node1"><a xlink:title="This class represents primary register C1 of coprocessor CP15.">
<polygon fill="#bfbfbf" stroke="black" points="6.5,-0.5 6.5,-30.5 139.5,-30.5 139.5,-0.5 6.5,-0.5"/>
<text text-anchor="start" x="14.5" y="-18.5" font-family="Helvetica,sans-Serif" font-size="10.00">zero_mate::coprocessor</text>
<text text-anchor="middle" x="73" y="-7.5" font-family="Helvetica,sans-Serif" font-size="10.00">::cp15::CC1</text>
</a>
</g>
</g>
<!-- Node2 -->
<g id="node2" class="node">
<title>Node2</title>
<g id="a_node2"><a xlink:href="classzero__mate_1_1coprocessor_1_1cp15_1_1IPrimary__Reg.html" target="_top" xlink:title="This interface defines common functionality of every primary register of coprocessor CP15.">
<polygon fill="none" stroke="black" points="6.5,-68.5 6.5,-98.5 139.5,-98.5 139.5,-68.5 6.5,-68.5"/>
<text text-anchor="start" x="14.5" y="-86.5" font-family="Helvetica,sans-Serif" font-size="10.00">zero_mate::coprocessor</text>
<text text-anchor="middle" x="73" y="-75.5" font-family="Helvetica,sans-Serif" font-size="10.00">::cp15::IPrimary_Reg</text>
</a>
</g>
</g>
<!-- Node2&#45;&gt;Node1 -->
<g id="edge1" class="edge">
<title>Node2&#45;&gt;Node1</title>
<path fill="none" stroke="midnightblue" d="M73,-58.03C73,-48.86 73,-38.74 73,-30.79"/>
<polygon fill="midnightblue" stroke="midnightblue" points="69.5,-58.18 73,-68.18 76.5,-58.18 69.5,-58.18"/>
</g>
<!-- Node3 -->
<g id="node3" class="node">
<title>Node3</title>
<g id="a_node3"><a xlink:href="classzero__mate_1_1utils_1_1CLogging__System.html" target="_top" xlink:title="This class defines a logging system that is used throughout the project.">
<polygon fill="none" stroke="black" points="0,-146.5 0,-176.5 146,-176.5 146,-146.5 0,-146.5"/>
<text text-anchor="start" x="8" y="-164.5" font-family="Helvetica,sans-Serif" font-size="10.00">zero_mate::utils::CLogging</text>
<text text-anchor="middle" x="73" y="-153.5" font-family="Helvetica,sans-Serif" font-size="10.00">_System</text>
</a>
</g>
</g>
<!-- Node3&#45;&gt;Node2 -->
<g id="edge2" class="edge">
<title>Node3&#45;&gt;Node2</title>
<path fill="none" stroke="#9a32cd" stroke-dasharray="5,2" d="M73,-136.09C73,-123.76 73,-109.22 73,-98.73"/>
<polygon fill="#9a32cd" stroke="#9a32cd" points="69.5,-136.2 73,-146.2 76.5,-136.21 69.5,-136.2"/>
<text text-anchor="middle" x="121" y="-120" font-family="Helvetica,sans-Serif" font-size="10.00"> m_logging_system</text>
</g>
</g>
</svg>
