<?xml version="1.0" encoding="UTF-8" standalone="no"?>
<!DOCTYPE svg PUBLIC "-//W3C//DTD SVG 1.1//EN"
 "http://www.w3.org/Graphics/SVG/1.1/DTD/svg11.dtd">
<!-- Generated by graphviz version 2.43.0 (0)
 -->
<!-- Title: zero_mate::arm1176jzf_s::CCPU_Core::Run Pages: 1 -->
<svg width="827pt" height="292pt"
 viewBox="0.00 0.00 827.00 291.50" xmlns="http://www.w3.org/2000/svg" xmlns:xlink="http://www.w3.org/1999/xlink">
<g id="graph0" class="graph" transform="scale(1 1) rotate(0) translate(4 287.5)">
<title>zero_mate::arm1176jzf_s::CCPU_Core::Run</title>
<!-- Node1 -->
<g id="node1" class="node">
<title>Node1</title>
<g id="a_node1"><a xlink:title="Starts the execution.">
<polygon fill="#bfbfbf" stroke="black" points="0,-244 0,-274 130,-274 130,-244 0,-244"/>
<text text-anchor="start" x="8" y="-262" font-family="Helvetica,sans-Serif" font-size="10.00">zero_mate::arm1176jzf</text>
<text text-anchor="middle" x="65" y="-251" font-family="Helvetica,sans-Serif" font-size="10.00">_s::CCPU_Core::Run</text>
</a>
</g>
</g>
<!-- Node2 -->
<g id="node2" class="node">
<title>Node2</title>
<g id="a_node2"><a xlink:href="classzero__mate_1_1arm1176jzf__s_1_1CCPU__Core.html#a423eacd01e574e782a2b7cf51f28c56c" target="_top" xlink:title="Returns a reference to the PC register (r15)">
<polygon fill="none" stroke="black" points="678.5,-253 678.5,-283 808.5,-283 808.5,-253 678.5,-253"/>
<text text-anchor="start" x="686.5" y="-271" font-family="Helvetica,sans-Serif" font-size="10.00">zero_mate::arm1176jzf</text>
<text text-anchor="middle" x="743.5" y="-260" font-family="Helvetica,sans-Serif" font-size="10.00">_s::CCPU_Core::PC</text>
</a>
</g>
</g>
<!-- Node1&#45;&gt;Node2 -->
<g id="edge1" class="edge">
<title>Node1&#45;&gt;Node2</title>
<path fill="none" stroke="midnightblue" d="M130.08,-261.81C234.99,-266.08 449.94,-273.47 632,-271 643.69,-270.84 656.08,-270.59 668.17,-270.29"/>
<polygon fill="midnightblue" stroke="midnightblue" points="668.32,-273.79 678.23,-270.04 668.15,-266.79 668.32,-273.79"/>
</g>
<!-- Node3 -->
<g id="node3" class="node">
<title>Node3</title>
<g id="a_node3"><a xlink:href="classzero__mate_1_1arm1176jzf__s_1_1CCPU__Core.html#a1665360d8ae71ed541b4c10f39e655a5" target="_top" xlink:title=" ">
<polygon fill="none" stroke="black" points="166,-222 166,-252 296,-252 296,-222 166,-222"/>
<text text-anchor="start" x="174" y="-240" font-family="Helvetica,sans-Serif" font-size="10.00">zero_mate::arm1176jzf</text>
<text text-anchor="middle" x="231" y="-229" font-family="Helvetica,sans-Serif" font-size="10.00">_s::CCPU_Core::Step</text>
</a>
</g>
</g>
<!-- Node1&#45;&gt;Node3 -->
<g id="edge2" class="edge">
<title>Node1&#45;&gt;Node3</title>
<path fill="none" stroke="midnightblue" d="M130.35,-250.37C138.73,-249.24 147.37,-248.08 155.9,-246.94"/>
<polygon fill="midnightblue" stroke="midnightblue" points="156.39,-250.41 165.84,-245.61 155.46,-243.47 156.39,-250.41"/>
</g>
<!-- Node3&#45;&gt;Node2 -->
<g id="edge12" class="edge">
<title>Node3&#45;&gt;Node2</title>
<path fill="none" stroke="midnightblue" d="M296.14,-240.89C390.9,-246.65 567.87,-257.4 668.17,-263.49"/>
<polygon fill="midnightblue" stroke="midnightblue" points="668.03,-266.98 678.22,-264.1 668.45,-260 668.03,-266.98"/>
</g>
<!-- Node4 -->
<g id="node4" class="node">
<title>Node4</title>
<g id="a_node4"><a xlink:href="classzero__mate_1_1arm1176jzf__s_1_1CCPU__Core.html#af500d91bd836a74df0e758990c4ecc7d" target="_top" xlink:title=" ">
<polygon fill="none" stroke="black" points="332,-203 332,-233 464,-233 464,-203 332,-203"/>
<text text-anchor="start" x="340" y="-221" font-family="Helvetica,sans-Serif" font-size="10.00">zero_mate::arm1176jzf</text>
<text text-anchor="middle" x="398" y="-210" font-family="Helvetica,sans-Serif" font-size="10.00">_s::CCPU_Core::Execute</text>
</a>
</g>
</g>
<!-- Node3&#45;&gt;Node4 -->
<g id="edge3" class="edge">
<title>Node3&#45;&gt;Node4</title>
<path fill="none" stroke="midnightblue" d="M296.27,-229.6C304.66,-228.63 313.31,-227.64 321.86,-226.65"/>
<polygon fill="midnightblue" stroke="midnightblue" points="322.29,-230.13 331.82,-225.51 321.49,-223.17 322.29,-230.13"/>
</g>
<!-- Node5 -->
<g id="node5" class="node">
<title>Node5</title>
<g id="a_node5"><a xlink:href="classzero__mate_1_1arm1176jzf__s_1_1CCPU__Core.html#aa327755c4c57c01f03e16fb3d1195f6a" target="_top" xlink:title="Fetches the next instruction.">
<polygon fill="none" stroke="black" points="333,-142.5 333,-183.5 463,-183.5 463,-142.5 333,-142.5"/>
<text text-anchor="start" x="341" y="-171.5" font-family="Helvetica,sans-Serif" font-size="10.00">zero_mate::arm1176jzf</text>
<text text-anchor="start" x="341" y="-160.5" font-family="Helvetica,sans-Serif" font-size="10.00">_s::CCPU_Core::Fetch</text>
<text text-anchor="middle" x="398" y="-149.5" font-family="Helvetica,sans-Serif" font-size="10.00">_Instruction</text>
</a>
</g>
</g>
<!-- Node3&#45;&gt;Node5 -->
<g id="edge4" class="edge">
<title>Node3&#45;&gt;Node5</title>
<path fill="none" stroke="midnightblue" d="M265.79,-221.85C287.61,-212.06 316.51,-199.1 341.64,-187.83"/>
<polygon fill="midnightblue" stroke="midnightblue" points="343.37,-190.89 351.06,-183.6 340.5,-184.5 343.37,-190.89"/>
</g>
<!-- Node5&#45;&gt;Node2 -->
<g id="edge11" class="edge">
<title>Node5&#45;&gt;Node2</title>
<path fill="none" stroke="midnightblue" d="M463.21,-182.63C526.39,-201.94 622.07,-231.19 683.42,-249.94"/>
<polygon fill="midnightblue" stroke="midnightblue" points="682.75,-253.4 693.33,-252.97 684.79,-246.7 682.75,-253.4"/>
</g>
<!-- Node6 -->
<g id="node6" class="node">
<title>Node6</title>
<g id="a_node6"><a xlink:href="classzero__mate_1_1arm1176jzf__s_1_1CCPU__Core.html#a85e6ef006a36e1adb56abd3ecc6481be" target="_top" xlink:title="Executes a CPU exception.">
<polygon fill="none" stroke="black" points="500,-131.5 500,-172.5 632,-172.5 632,-131.5 500,-131.5"/>
<text text-anchor="start" x="508" y="-160.5" font-family="Helvetica,sans-Serif" font-size="10.00">zero_mate::arm1176jzf</text>
<text text-anchor="start" x="508" y="-149.5" font-family="Helvetica,sans-Serif" font-size="10.00">_s::CCPU_Core::Execute</text>
<text text-anchor="middle" x="566" y="-138.5" font-family="Helvetica,sans-Serif" font-size="10.00">_Exception</text>
</a>
</g>
</g>
<!-- Node5&#45;&gt;Node6 -->
<g id="edge5" class="edge">
<title>Node5&#45;&gt;Node6</title>
<path fill="none" stroke="midnightblue" d="M463.18,-158.75C471.93,-158.17 480.97,-157.57 489.9,-156.98"/>
<polygon fill="midnightblue" stroke="midnightblue" points="490.15,-160.47 499.89,-156.31 489.69,-153.48 490.15,-160.47"/>
</g>
<!-- Node6&#45;&gt;Node2 -->
<g id="edge9" class="edge">
<title>Node6&#45;&gt;Node2</title>
<path fill="none" stroke="midnightblue" d="M599.03,-172.68C609.97,-180.38 621.96,-189.55 632,-199 650.39,-216.33 647.21,-228.64 668,-243 670.84,-244.96 673.84,-246.77 676.95,-248.46"/>
<polygon fill="midnightblue" stroke="midnightblue" points="675.41,-251.6 685.93,-252.85 678.49,-245.31 675.41,-251.6"/>
</g>
<!-- Node7 -->
<g id="node7" class="node">
<title>Node7</title>
<g id="a_node7"><a xlink:href="classzero__mate_1_1arm1176jzf__s_1_1exceptions_1_1CCPU__Exception.html#ab18a4a4b6a54029ccf141784cfe9c737" target="_top" xlink:title="Returns the mode into which the CPU will switch when the exception is thrown.">
<polygon fill="none" stroke="black" points="668,-192.5 668,-233.5 819,-233.5 819,-192.5 668,-192.5"/>
<text text-anchor="start" x="676" y="-221.5" font-family="Helvetica,sans-Serif" font-size="10.00">zero_mate::arm1176jzf</text>
<text text-anchor="start" x="676" y="-210.5" font-family="Helvetica,sans-Serif" font-size="10.00">_s::exceptions::CCPU</text>
<text text-anchor="middle" x="743.5" y="-199.5" font-family="Helvetica,sans-Serif" font-size="10.00">_Exception::Get_CPU_Mode</text>
</a>
</g>
</g>
<!-- Node6&#45;&gt;Node7 -->
<g id="edge6" class="edge">
<title>Node6&#45;&gt;Node7</title>
<path fill="none" stroke="midnightblue" d="M626.42,-172.65C641.65,-177.95 658.16,-183.69 673.82,-189.13"/>
<polygon fill="midnightblue" stroke="midnightblue" points="672.85,-192.5 683.44,-192.47 675.15,-185.88 672.85,-192.5"/>
</g>
<!-- Node8 -->
<g id="node8" class="node">
<title>Node8</title>
<g id="a_node8"><a xlink:href="classzero__mate_1_1arm1176jzf__s_1_1exceptions_1_1CCPU__Exception.html#ae87c33c76ed6571b2408fd293710b6c4" target="_top" xlink:title="Returns the address of the handler of the exception.">
<polygon fill="none" stroke="black" points="670.5,-121 670.5,-173 816.5,-173 816.5,-121 670.5,-121"/>
<text text-anchor="start" x="678.5" y="-161" font-family="Helvetica,sans-Serif" font-size="10.00">zero_mate::arm1176jzf</text>
<text text-anchor="start" x="678.5" y="-150" font-family="Helvetica,sans-Serif" font-size="10.00">_s::exceptions::CCPU</text>
<text text-anchor="start" x="678.5" y="-139" font-family="Helvetica,sans-Serif" font-size="10.00">_Exception::Get_Exception</text>
<text text-anchor="middle" x="743.5" y="-128" font-family="Helvetica,sans-Serif" font-size="10.00">_Vector</text>
</a>
</g>
</g>
<!-- Node6&#45;&gt;Node8 -->
<g id="edge7" class="edge">
<title>Node6&#45;&gt;Node8</title>
<path fill="none" stroke="midnightblue" d="M632.35,-150.14C641.44,-149.88 650.87,-149.61 660.22,-149.34"/>
<polygon fill="midnightblue" stroke="midnightblue" points="660.42,-152.84 670.31,-149.06 660.22,-145.84 660.42,-152.84"/>
</g>
<!-- Node9 -->
<g id="node9" class="node">
<title>Node9</title>
<g id="a_node9"><a xlink:href="classzero__mate_1_1arm1176jzf__s_1_1exceptions_1_1CCPU__Exception.html#aabb81de8a3e09534245ef3851a31c3c0" target="_top" xlink:title="Returns the type of the exception.">
<polygon fill="none" stroke="black" points="678.5,-60.5 678.5,-101.5 808.5,-101.5 808.5,-60.5 678.5,-60.5"/>
<text text-anchor="start" x="686.5" y="-89.5" font-family="Helvetica,sans-Serif" font-size="10.00">zero_mate::arm1176jzf</text>
<text text-anchor="start" x="686.5" y="-78.5" font-family="Helvetica,sans-Serif" font-size="10.00">_s::exceptions::CCPU</text>
<text text-anchor="middle" x="743.5" y="-67.5" font-family="Helvetica,sans-Serif" font-size="10.00">_Exception::Get_Type</text>
</a>
</g>
</g>
<!-- Node6&#45;&gt;Node9 -->
<g id="edge8" class="edge">
<title>Node6&#45;&gt;Node9</title>
<path fill="none" stroke="midnightblue" d="M617.76,-131.46C637.87,-123.33 661.14,-113.92 682.1,-105.44"/>
<polygon fill="midnightblue" stroke="midnightblue" points="683.59,-108.61 691.55,-101.61 680.97,-102.12 683.59,-108.61"/>
</g>
<!-- Node10 -->
<g id="node10" class="node">
<title>Node10</title>
<g id="a_node10"><a xlink:href="classzero__mate_1_1arm1176jzf__s_1_1CCPU__Context.html#a7efff674f8141eab73cb69099220f0d5" target="_top" xlink:title="Sets the mode of the CPU.">
<polygon fill="none" stroke="black" points="678.5,-0.5 678.5,-41.5 808.5,-41.5 808.5,-0.5 678.5,-0.5"/>
<text text-anchor="start" x="686.5" y="-29.5" font-family="Helvetica,sans-Serif" font-size="10.00">zero_mate::arm1176jzf</text>
<text text-anchor="start" x="686.5" y="-18.5" font-family="Helvetica,sans-Serif" font-size="10.00">_s::CCPU_Context::Set</text>
<text text-anchor="middle" x="743.5" y="-7.5" font-family="Helvetica,sans-Serif" font-size="10.00">_CPU_Mode</text>
</a>
</g>
</g>
<!-- Node6&#45;&gt;Node10 -->
<g id="edge10" class="edge">
<title>Node6&#45;&gt;Node10</title>
<path fill="none" stroke="midnightblue" d="M583.27,-131.34C601.78,-109 633.87,-73.56 668,-51 670.4,-49.41 672.9,-47.89 675.46,-46.43"/>
<polygon fill="midnightblue" stroke="midnightblue" points="677.19,-49.47 684.38,-41.69 673.9,-43.29 677.19,-49.47"/>
</g>
</g>
</svg>
