<?xml version="1.0" encoding="UTF-8" standalone="no"?>
<!DOCTYPE svg PUBLIC "-//W3C//DTD SVG 1.1//EN"
 "http://www.w3.org/Graphics/SVG/1.1/DTD/svg11.dtd">
<!-- Generated by graphviz version 2.43.0 (0)
 -->
<!-- Title: zero_mate::arm1176jzf_s::CCPU_Core::Checks_Coprocessor_Access_Mode Pages: 1 -->
<svg width="727pt" height="179pt"
 viewBox="0.00 0.00 727.00 178.50" xmlns="http://www.w3.org/2000/svg" xmlns:xlink="http://www.w3.org/1999/xlink">
<g id="graph0" class="graph" transform="scale(1 1) rotate(0) translate(4 174.5)">
<title>zero_mate::arm1176jzf_s::CCPU_Core::Checks_Coprocessor_Access_Mode</title>
<!-- Node1 -->
<g id="node1" class="node">
<title>Node1</title>
<g id="a_node1"><a xlink:title="Checks whether a given coprocessor can be accessed from the current CPU mode.">
<polygon fill="#bfbfbf" stroke="black" points="0,-27.5 0,-68.5 153,-68.5 153,-27.5 0,-27.5"/>
<text text-anchor="start" x="8" y="-56.5" font-family="Helvetica,sans-Serif" font-size="10.00">zero_mate::arm1176jzf</text>
<text text-anchor="start" x="8" y="-45.5" font-family="Helvetica,sans-Serif" font-size="10.00">_s::CCPU_Core::Checks</text>
<text text-anchor="middle" x="76.5" y="-34.5" font-family="Helvetica,sans-Serif" font-size="10.00">_Coprocessor_Access_Mode</text>
</a>
</g>
</g>
<!-- Node2 -->
<g id="node2" class="node">
<title>Node2</title>
<g id="a_node2"><a xlink:href="classzero__mate_1_1utils_1_1CLogging__System.html#a57ed77e1a5cf822cea532cc5e05c3f60" target="_top" xlink:title="Logs an error message via all registered loggers.">
<polygon fill="none" stroke="black" points="189,-61 189,-91 335,-91 335,-61 189,-61"/>
<text text-anchor="start" x="197" y="-79" font-family="Helvetica,sans-Serif" font-size="10.00">zero_mate::utils::CLogging</text>
<text text-anchor="middle" x="262" y="-68" font-family="Helvetica,sans-Serif" font-size="10.00">_System::Error</text>
</a>
</g>
</g>
<!-- Node1&#45;&gt;Node2 -->
<g id="edge1" class="edge">
<title>Node1&#45;&gt;Node2</title>
<path fill="none" stroke="midnightblue" d="M153.2,-59.55C161.64,-60.84 170.27,-62.16 178.79,-63.46"/>
<polygon fill="midnightblue" stroke="midnightblue" points="178.31,-66.92 188.72,-64.97 179.37,-60 178.31,-66.92"/>
</g>
<!-- Node7 -->
<g id="node7" class="node">
<title>Node7</title>
<g id="a_node7"><a xlink:href="classzero__mate_1_1arm1176jzf__s_1_1CCPU__Context.html#a573470217091c27cf30f1411ea453e5d" target="_top" xlink:title="Checks if the CPU is in a privileged mode.">
<polygon fill="none" stroke="black" points="197,-0.5 197,-41.5 327,-41.5 327,-0.5 197,-0.5"/>
<text text-anchor="start" x="205" y="-29.5" font-family="Helvetica,sans-Serif" font-size="10.00">zero_mate::arm1176jzf</text>
<text text-anchor="start" x="205" y="-18.5" font-family="Helvetica,sans-Serif" font-size="10.00">_s::CCPU_Context::Is</text>
<text text-anchor="middle" x="262" y="-7.5" font-family="Helvetica,sans-Serif" font-size="10.00">_In_Privileged_Mode</text>
</a>
</g>
</g>
<!-- Node1&#45;&gt;Node7 -->
<g id="edge6" class="edge">
<title>Node1&#45;&gt;Node7</title>
<path fill="none" stroke="midnightblue" d="M153.2,-36.86C164.31,-35.23 175.74,-33.54 186.82,-31.91"/>
<polygon fill="midnightblue" stroke="midnightblue" points="187.5,-35.35 196.88,-30.43 186.48,-28.43 187.5,-35.35"/>
</g>
<!-- Node3 -->
<g id="node3" class="node">
<title>Node3</title>
<g id="a_node3"><a xlink:href="classzero__mate_1_1utils_1_1CLogging__System.html#a71ed11c796553cbe8fd99773406a1060" target="_top" xlink:title="Creates a formatted message to be logged.">
<polygon fill="none" stroke="black" points="371,-110.5 371,-151.5 523,-151.5 523,-110.5 371,-110.5"/>
<text text-anchor="start" x="379" y="-139.5" font-family="Helvetica,sans-Serif" font-size="10.00">zero_mate::utils::CLogging</text>
<text text-anchor="start" x="379" y="-128.5" font-family="Helvetica,sans-Serif" font-size="10.00">_System::Create_Formatted</text>
<text text-anchor="middle" x="447" y="-117.5" font-family="Helvetica,sans-Serif" font-size="10.00">_Log_Msg</text>
</a>
</g>
</g>
<!-- Node2&#45;&gt;Node3 -->
<g id="edge2" class="edge">
<title>Node2&#45;&gt;Node3</title>
<path fill="none" stroke="midnightblue" d="M313.01,-91.03C329.95,-96.12 349.3,-101.94 367.89,-107.53"/>
<polygon fill="midnightblue" stroke="midnightblue" points="366.95,-110.9 377.53,-110.42 368.96,-104.19 366.95,-110.9"/>
</g>
<!-- Node6 -->
<g id="node6" class="node">
<title>Node6</title>
<g id="a_node6"><a xlink:href="classzero__mate_1_1utils_1_1CLogging__System.html#ad371c67ef65763966ccf9291002e86f3" target="_top" xlink:title="Extract the filename from a given location within the source files.">
<polygon fill="none" stroke="black" points="372.5,-61 372.5,-91 521.5,-91 521.5,-61 372.5,-61"/>
<text text-anchor="start" x="380.5" y="-79" font-family="Helvetica,sans-Serif" font-size="10.00">zero_mate::utils::CLogging</text>
<text text-anchor="middle" x="447" y="-68" font-family="Helvetica,sans-Serif" font-size="10.00">_System::Extract_Filename</text>
</a>
</g>
</g>
<!-- Node2&#45;&gt;Node6 -->
<g id="edge5" class="edge">
<title>Node2&#45;&gt;Node6</title>
<path fill="none" stroke="midnightblue" d="M335.06,-76C344,-76 353.2,-76 362.29,-76"/>
<polygon fill="midnightblue" stroke="midnightblue" points="362.5,-79.5 372.5,-76 362.5,-72.5 362.5,-79.5"/>
</g>
<!-- Node4 -->
<g id="node4" class="node">
<title>Node4</title>
<g id="a_node4"><a xlink:href="classzero__mate_1_1utils_1_1CLogging__System.html#aa70c102c805079042ffea2a6f2a5ad64" target="_top" xlink:title="Formats a given timestamp.">
<polygon fill="none" stroke="black" points="559,-140 559,-170 719,-170 719,-140 559,-140"/>
<text text-anchor="start" x="567" y="-158" font-family="Helvetica,sans-Serif" font-size="10.00">zero_mate::utils::CLogging</text>
<text text-anchor="middle" x="639" y="-147" font-family="Helvetica,sans-Serif" font-size="10.00">_System::Format_Timestamp</text>
</a>
</g>
</g>
<!-- Node3&#45;&gt;Node4 -->
<g id="edge3" class="edge">
<title>Node3&#45;&gt;Node4</title>
<path fill="none" stroke="midnightblue" d="M523.09,-140.49C531.52,-141.55 540.16,-142.64 548.74,-143.73"/>
<polygon fill="midnightblue" stroke="midnightblue" points="548.41,-147.21 558.77,-144.99 549.29,-140.27 548.41,-147.21"/>
</g>
<!-- Node5 -->
<g id="node5" class="node">
<title>Node5</title>
<g id="a_node5"><a xlink:href="classzero__mate_1_1utils_1_1CLogging__System.html#ae3ca637537dde05e0b9119145c840331" target="_top" xlink:title="Returns the current timestamp that will be used in a log message.">
<polygon fill="none" stroke="black" points="566,-91 566,-121 712,-121 712,-91 566,-91"/>
<text text-anchor="start" x="574" y="-109" font-family="Helvetica,sans-Serif" font-size="10.00">zero_mate::utils::CLogging</text>
<text text-anchor="middle" x="639" y="-98" font-family="Helvetica,sans-Serif" font-size="10.00">_System::Get_Timestamp</text>
</a>
</g>
</g>
<!-- Node3&#45;&gt;Node5 -->
<g id="edge4" class="edge">
<title>Node3&#45;&gt;Node5</title>
<path fill="none" stroke="midnightblue" d="M523.09,-121.12C533.89,-119.7 545.05,-118.23 555.98,-116.79"/>
<polygon fill="midnightblue" stroke="midnightblue" points="556.47,-120.26 565.93,-115.48 555.56,-113.32 556.47,-120.26"/>
</g>
<!-- Node8 -->
<g id="node8" class="node">
<title>Node8</title>
<g id="a_node8"><a xlink:href="classzero__mate_1_1arm1176jzf__s_1_1CCPU__Context.html#aa740f9219bb413d707ac72f373e60d3a" target="_top" xlink:title="Returns the current mode of the CPU.">
<polygon fill="none" stroke="black" points="382,-0.5 382,-41.5 512,-41.5 512,-0.5 382,-0.5"/>
<text text-anchor="start" x="390" y="-29.5" font-family="Helvetica,sans-Serif" font-size="10.00">zero_mate::arm1176jzf</text>
<text text-anchor="start" x="390" y="-18.5" font-family="Helvetica,sans-Serif" font-size="10.00">_s::CCPU_Context::Get</text>
<text text-anchor="middle" x="447" y="-7.5" font-family="Helvetica,sans-Serif" font-size="10.00">_CPU_Mode</text>
</a>
</g>
</g>
<!-- Node7&#45;&gt;Node8 -->
<g id="edge7" class="edge">
<title>Node7&#45;&gt;Node8</title>
<path fill="none" stroke="midnightblue" d="M327,-21C341.41,-21 356.81,-21 371.6,-21"/>
<polygon fill="midnightblue" stroke="midnightblue" points="371.72,-24.5 381.72,-21 371.72,-17.5 371.72,-24.5"/>
</g>
</g>
</svg>
