<?xml version="1.0" encoding="UTF-8" standalone="no"?>
<!DOCTYPE svg PUBLIC "-//W3C//DTD SVG 1.1//EN"
 "http://www.w3.org/Graphics/SVG/1.1/DTD/svg11.dtd">
<!-- Generated by graphviz version 2.43.0 (0)
 -->
<!-- Title: zero_mate::gui::CARM_Timer_Window::Render Pages: 1 -->
<svg width="513pt" height="110pt"
 viewBox="0.00 0.00 513.00 110.00" xmlns="http://www.w3.org/2000/svg" xmlns:xlink="http://www.w3.org/1999/xlink">
<g id="graph0" class="graph" transform="scale(1 1) rotate(0) translate(4 106)">
<title>zero_mate::gui::CARM_Timer_Window::Render</title>
<!-- Node1 -->
<g id="node1" class="node">
<title>Node1</title>
<g id="a_node1"><a xlink:title="Renders the ARM timer registers (IGUI_Window interface).">
<polygon fill="#bfbfbf" stroke="black" points="0,-36 0,-66 134,-66 134,-36 0,-36"/>
<text text-anchor="start" x="8" y="-54" font-family="Helvetica,sans-Serif" font-size="10.00">zero_mate::gui::CARM</text>
<text text-anchor="middle" x="67" y="-43" font-family="Helvetica,sans-Serif" font-size="10.00">_Timer_Window::Render</text>
</a>
</g>
</g>
<!-- Node2 -->
<g id="node2" class="node">
<title>Node2</title>
<g id="a_node2"><a xlink:href="classzero__mate_1_1gui_1_1CARM__Timer__Window.html#ae81010b350ca24a45d2bd7bb6e979d72" target="_top" xlink:title="Render individual bits of the ARM timer control register.">
<polygon fill="none" stroke="black" points="170,-60.5 170,-101.5 304,-101.5 304,-60.5 170,-60.5"/>
<text text-anchor="start" x="178" y="-89.5" font-family="Helvetica,sans-Serif" font-size="10.00">zero_mate::gui::CARM</text>
<text text-anchor="start" x="178" y="-78.5" font-family="Helvetica,sans-Serif" font-size="10.00">_Timer_Window::Render</text>
<text text-anchor="middle" x="237" y="-67.5" font-family="Helvetica,sans-Serif" font-size="10.00">_Control_Register</text>
</a>
</g>
</g>
<!-- Node1&#45;&gt;Node2 -->
<g id="edge1" class="edge">
<title>Node1&#45;&gt;Node2</title>
<path fill="none" stroke="midnightblue" d="M134.4,-62.86C142.77,-64.35 151.39,-65.89 159.89,-67.41"/>
<polygon fill="midnightblue" stroke="midnightblue" points="159.35,-70.87 169.81,-69.18 160.58,-63.98 159.35,-70.87"/>
</g>
<!-- Node4 -->
<g id="node4" class="node">
<title>Node4</title>
<g id="a_node4"><a xlink:href="classzero__mate_1_1gui_1_1CARM__Timer__Window.html#a9285c91bad23db6dc55b0fab3bd8161a" target="_top" xlink:title="Renders ARM timer registers (value, load, etc.).">
<polygon fill="none" stroke="black" points="170,-0.5 170,-41.5 304,-41.5 304,-0.5 170,-0.5"/>
<text text-anchor="start" x="178" y="-29.5" font-family="Helvetica,sans-Serif" font-size="10.00">zero_mate::gui::CARM</text>
<text text-anchor="start" x="178" y="-18.5" font-family="Helvetica,sans-Serif" font-size="10.00">_Timer_Window::Render</text>
<text text-anchor="middle" x="237" y="-7.5" font-family="Helvetica,sans-Serif" font-size="10.00">_Registers</text>
</a>
</g>
</g>
<!-- Node1&#45;&gt;Node4 -->
<g id="edge3" class="edge">
<title>Node1&#45;&gt;Node4</title>
<path fill="none" stroke="midnightblue" d="M134.4,-39.14C142.77,-37.65 151.39,-36.11 159.89,-34.59"/>
<polygon fill="midnightblue" stroke="midnightblue" points="160.58,-38.02 169.81,-32.82 159.35,-31.13 160.58,-38.02"/>
</g>
<!-- Node3 -->
<g id="node3" class="node">
<title>Node3</title>
<g id="a_node3"><a xlink:href="classzero__mate_1_1gui_1_1CARM__Timer__Window.html#a37b1eac29643357b2406f711c35a9f83" target="_top" xlink:title="Renders a table (register values).">
<polygon fill="none" stroke="black" points="340,-36 340,-66 505,-66 505,-36 340,-36"/>
<text text-anchor="start" x="348" y="-54" font-family="Helvetica,sans-Serif" font-size="10.00">zero_mate::gui::CARM</text>
<text text-anchor="middle" x="422.5" y="-43" font-family="Helvetica,sans-Serif" font-size="10.00">_Timer_Window::Render_Table</text>
</a>
</g>
</g>
<!-- Node2&#45;&gt;Node3 -->
<g id="edge2" class="edge">
<title>Node2&#45;&gt;Node3</title>
<path fill="none" stroke="midnightblue" d="M304.25,-70.17C312.59,-68.81 321.23,-67.39 329.87,-65.98"/>
<polygon fill="midnightblue" stroke="midnightblue" points="330.69,-69.39 340,-64.32 329.56,-62.48 330.69,-69.39"/>
</g>
<!-- Node4&#45;&gt;Node3 -->
<g id="edge4" class="edge">
<title>Node4&#45;&gt;Node3</title>
<path fill="none" stroke="midnightblue" d="M304.25,-31.83C312.59,-33.19 321.23,-34.61 329.87,-36.02"/>
<polygon fill="midnightblue" stroke="midnightblue" points="329.56,-39.52 340,-37.68 330.69,-32.61 329.56,-39.52"/>
</g>
</g>
</svg>
