<?xml version="1.0" encoding="UTF-8" standalone="no"?>
<!DOCTYPE svg PUBLIC "-//W3C//DTD SVG 1.1//EN"
 "http://www.w3.org/Graphics/SVG/1.1/DTD/svg11.dtd">
<!-- Generated by graphviz version 2.43.0 (0)
 -->
<!-- Title: zero_mate::peripheral::CMini_UART::Get_Char_Length Pages: 1 -->
<svg width="844pt" height="160pt"
 viewBox="0.00 0.00 844.00 159.50" xmlns="http://www.w3.org/2000/svg" xmlns:xlink="http://www.w3.org/1999/xlink">
<g id="graph0" class="graph" transform="scale(1 1) rotate(0) translate(4 155.5)">
<title>zero_mate::peripheral::CMini_UART::Get_Char_Length</title>
<!-- Node1 -->
<g id="node1" class="node">
<title>Node1</title>
<g id="a_node1"><a xlink:title="Returns the length of payload (7 or 8 bits).">
<polygon fill="#bfbfbf" stroke="black" points="704,-60.5 704,-101.5 836,-101.5 836,-60.5 704,-60.5"/>
<text text-anchor="start" x="712" y="-89.5" font-family="Helvetica,sans-Serif" font-size="10.00">zero_mate::peripheral</text>
<text text-anchor="start" x="712" y="-78.5" font-family="Helvetica,sans-Serif" font-size="10.00">::CMini_UART::Get_Char</text>
<text text-anchor="middle" x="770" y="-67.5" font-family="Helvetica,sans-Serif" font-size="10.00">_Length</text>
</a>
</g>
</g>
<!-- Node2 -->
<g id="node2" class="node">
<title>Node2</title>
<g id="a_node2"><a xlink:href="classzero__mate_1_1gui_1_1CAUX__Window.html#a84134555bb7100075f909c0de2f0829b" target="_top" xlink:title="Renders information related to the mini UART auxiliary peripheral.">
<polygon fill="none" stroke="black" points="510,-121 510,-151 668,-151 668,-121 510,-121"/>
<text text-anchor="start" x="518" y="-139" font-family="Helvetica,sans-Serif" font-size="10.00">zero_mate::gui::CAUX</text>
<text text-anchor="middle" x="589" y="-128" font-family="Helvetica,sans-Serif" font-size="10.00">_Window::Render_Mini_UART</text>
</a>
</g>
</g>
<!-- Node1&#45;&gt;Node2 -->
<g id="edge1" class="edge">
<title>Node1&#45;&gt;Node2</title>
<path fill="none" stroke="midnightblue" d="M694.23,-103.97C675.61,-109.7 656.11,-115.69 639.08,-120.92"/>
<polygon fill="midnightblue" stroke="midnightblue" points="695.34,-107.29 703.87,-101.01 693.28,-100.6 695.34,-107.29"/>
</g>
<!-- Node4 -->
<g id="node4" class="node">
<title>Node4</title>
<g id="a_node4"><a xlink:href="classzero__mate_1_1peripheral_1_1CMini__UART.html#a50ba19a573540915346f49f559f8d595" target="_top" xlink:title="Receives another bit of the current payload (actual data).">
<polygon fill="none" stroke="black" points="510,-60.5 510,-101.5 668,-101.5 668,-60.5 510,-60.5"/>
<text text-anchor="start" x="518" y="-89.5" font-family="Helvetica,sans-Serif" font-size="10.00">zero_mate::peripheral</text>
<text text-anchor="start" x="518" y="-78.5" font-family="Helvetica,sans-Serif" font-size="10.00">::CMini_UART::UART_Receive</text>
<text text-anchor="middle" x="589" y="-67.5" font-family="Helvetica,sans-Serif" font-size="10.00">_Payload</text>
</a>
</g>
</g>
<!-- Node1&#45;&gt;Node4 -->
<g id="edge3" class="edge">
<title>Node1&#45;&gt;Node4</title>
<path fill="none" stroke="midnightblue" d="M693.69,-81C685.25,-81 676.64,-81 668.17,-81"/>
<polygon fill="midnightblue" stroke="midnightblue" points="693.87,-84.5 703.87,-81 693.87,-77.5 693.87,-84.5"/>
</g>
<!-- Node8 -->
<g id="node8" class="node">
<title>Node8</title>
<g id="a_node8"><a xlink:href="classzero__mate_1_1peripheral_1_1CMini__UART.html#a2c1cebe25a3de866fb30387c9d3e1093" target="_top" xlink:title="Sends another bit of the current payload (actual data).">
<polygon fill="none" stroke="black" points="517.5,-0.5 517.5,-41.5 660.5,-41.5 660.5,-0.5 517.5,-0.5"/>
<text text-anchor="start" x="525.5" y="-29.5" font-family="Helvetica,sans-Serif" font-size="10.00">zero_mate::peripheral</text>
<text text-anchor="start" x="525.5" y="-18.5" font-family="Helvetica,sans-Serif" font-size="10.00">::CMini_UART::UART_Send</text>
<text text-anchor="middle" x="589" y="-7.5" font-family="Helvetica,sans-Serif" font-size="10.00">_Payload</text>
</a>
</g>
</g>
<!-- Node1&#45;&gt;Node8 -->
<g id="edge7" class="edge">
<title>Node1&#45;&gt;Node8</title>
<path fill="none" stroke="midnightblue" d="M698.12,-57.24C682.63,-52.05 666.35,-46.59 651.27,-41.54"/>
<polygon fill="midnightblue" stroke="midnightblue" points="697.05,-60.58 707.65,-60.44 699.28,-53.94 697.05,-60.58"/>
</g>
<!-- Node3 -->
<g id="node3" class="node">
<title>Node3</title>
<g id="a_node3"><a xlink:href="classzero__mate_1_1gui_1_1CAUX__Window.html#a1441eb934e43fe96d1324da6f0b9d2a0" target="_top" xlink:title="Renders GPIO pins (IGUI_Window interface).">
<polygon fill="none" stroke="black" points="342,-121 342,-151 465,-151 465,-121 342,-121"/>
<text text-anchor="start" x="350" y="-139" font-family="Helvetica,sans-Serif" font-size="10.00">zero_mate::gui::CAUX</text>
<text text-anchor="middle" x="403.5" y="-128" font-family="Helvetica,sans-Serif" font-size="10.00">_Window::Render</text>
</a>
</g>
</g>
<!-- Node2&#45;&gt;Node3 -->
<g id="edge2" class="edge">
<title>Node2&#45;&gt;Node3</title>
<path fill="none" stroke="midnightblue" d="M499.65,-136C487.92,-136 476.12,-136 465.01,-136"/>
<polygon fill="midnightblue" stroke="midnightblue" points="499.91,-139.5 509.91,-136 499.91,-132.5 499.91,-139.5"/>
</g>
<!-- Node5 -->
<g id="node5" class="node">
<title>Node5</title>
<g id="a_node5"><a xlink:href="classzero__mate_1_1peripheral_1_1CMini__UART.html#a6b04378225c55c43c00805cb5bdb99b3" target="_top" xlink:title="Updates the reception state machines.">
<polygon fill="none" stroke="black" points="333,-61 333,-91 474,-91 474,-61 333,-61"/>
<text text-anchor="start" x="341" y="-79" font-family="Helvetica,sans-Serif" font-size="10.00">zero_mate::peripheral</text>
<text text-anchor="middle" x="403.5" y="-68" font-family="Helvetica,sans-Serif" font-size="10.00">::CMini_UART::Update_RX</text>
</a>
</g>
</g>
<!-- Node4&#45;&gt;Node5 -->
<g id="edge4" class="edge">
<title>Node4&#45;&gt;Node5</title>
<path fill="none" stroke="midnightblue" d="M499.82,-78.6C491.18,-78.36 482.51,-78.13 474.1,-77.9"/>
<polygon fill="midnightblue" stroke="midnightblue" points="499.82,-82.1 509.91,-78.87 500.01,-75.1 499.82,-82.1"/>
</g>
<!-- Node6 -->
<g id="node6" class="node">
<title>Node6</title>
<g id="a_node6"><a xlink:href="classzero__mate_1_1peripheral_1_1CMini__UART.html#a3b75064597a5fbfe9c4c7d1f2e0c7e5f" target="_top" xlink:title="Updates the state machines (transmission/reception).">
<polygon fill="none" stroke="black" points="173,-33 173,-63 297,-63 297,-33 173,-33"/>
<text text-anchor="start" x="181" y="-51" font-family="Helvetica,sans-Serif" font-size="10.00">zero_mate::peripheral</text>
<text text-anchor="middle" x="235" y="-40" font-family="Helvetica,sans-Serif" font-size="10.00">::CMini_UART::Update</text>
</a>
</g>
</g>
<!-- Node5&#45;&gt;Node6 -->
<g id="edge5" class="edge">
<title>Node5&#45;&gt;Node6</title>
<path fill="none" stroke="midnightblue" d="M322.79,-62.59C314.17,-61.15 305.51,-59.69 297.16,-58.29"/>
<polygon fill="midnightblue" stroke="midnightblue" points="322.41,-66.08 332.85,-64.29 323.57,-59.18 322.41,-66.08"/>
</g>
<!-- Node7 -->
<g id="node7" class="node">
<title>Node7</title>
<g id="a_node7"><a xlink:href="classzero__mate_1_1peripheral_1_1CMini__UART.html#aae5f7e2bbffa6e3881675058a0aedf6f" target="_top" xlink:title="Updates the number of passed CPU cycles (forwarded from the AUX peripheral).">
<polygon fill="none" stroke="black" points="0,-27.5 0,-68.5 137,-68.5 137,-27.5 0,-27.5"/>
<text text-anchor="start" x="8" y="-56.5" font-family="Helvetica,sans-Serif" font-size="10.00">zero_mate::peripheral</text>
<text text-anchor="start" x="8" y="-45.5" font-family="Helvetica,sans-Serif" font-size="10.00">::CMini_UART::Increment</text>
<text text-anchor="middle" x="68.5" y="-34.5" font-family="Helvetica,sans-Serif" font-size="10.00">_Passed_Cycles</text>
</a>
</g>
</g>
<!-- Node6&#45;&gt;Node7 -->
<g id="edge6" class="edge">
<title>Node6&#45;&gt;Node7</title>
<path fill="none" stroke="midnightblue" d="M162.56,-48C154.13,-48 145.54,-48 137.16,-48"/>
<polygon fill="midnightblue" stroke="midnightblue" points="162.75,-51.5 172.75,-48 162.75,-44.5 162.75,-51.5"/>
</g>
<!-- Node9 -->
<g id="node9" class="node">
<title>Node9</title>
<g id="a_node9"><a xlink:href="classzero__mate_1_1peripheral_1_1CMini__UART.html#a39f26f9ac5a5cb08b2a292f5c6fab6db" target="_top" xlink:title="Updates the transmission state machine.">
<polygon fill="none" stroke="black" points="333.5,-9 333.5,-39 473.5,-39 473.5,-9 333.5,-9"/>
<text text-anchor="start" x="341.5" y="-27" font-family="Helvetica,sans-Serif" font-size="10.00">zero_mate::peripheral</text>
<text text-anchor="middle" x="403.5" y="-16" font-family="Helvetica,sans-Serif" font-size="10.00">::CMini_UART::Update_TX</text>
</a>
</g>
</g>
<!-- Node8&#45;&gt;Node9 -->
<g id="edge8" class="edge">
<title>Node8&#45;&gt;Node9</title>
<path fill="none" stroke="midnightblue" d="M507.14,-22.32C495.96,-22.5 484.57,-22.69 473.64,-22.87"/>
<polygon fill="midnightblue" stroke="midnightblue" points="507.38,-25.82 517.32,-22.16 507.26,-18.82 507.38,-25.82"/>
</g>
<!-- Node9&#45;&gt;Node6 -->
<g id="edge9" class="edge">
<title>Node9&#45;&gt;Node6</title>
<path fill="none" stroke="midnightblue" d="M323.16,-35.44C314.45,-36.69 305.69,-37.95 297.25,-39.17"/>
<polygon fill="midnightblue" stroke="midnightblue" points="323.94,-38.86 333.34,-33.97 322.94,-31.93 323.94,-38.86"/>
</g>
</g>
</svg>
