<?xml version="1.0" encoding="UTF-8" standalone="no"?>
<!DOCTYPE svg PUBLIC "-//W3C//DTD SVG 1.1//EN"
 "http://www.w3.org/Graphics/SVG/1.1/DTD/svg11.dtd">
<!-- Generated by graphviz version 2.43.0 (0)
 -->
<!-- Title: zero_mate::peripheral::CBSC::I2C_Send_Stop_Bit Pages: 1 -->
<svg width="1080pt" height="118pt"
 viewBox="0.00 0.00 1080.00 118.00" xmlns="http://www.w3.org/2000/svg" xmlns:xlink="http://www.w3.org/1999/xlink">
<g id="graph0" class="graph" transform="scale(1 1) rotate(0) translate(4 114)">
<title>zero_mate::peripheral::CBSC::I2C_Send_Stop_Bit</title>
<!-- Node1 -->
<g id="node1" class="node">
<title>Node1</title>
<g id="a_node1"><a xlink:title="Sends a stop bit (end of a frame).">
<polygon fill="#bfbfbf" stroke="black" points="0,-27.5 0,-57.5 146,-57.5 146,-27.5 0,-27.5"/>
<text text-anchor="start" x="8" y="-45.5" font-family="Helvetica,sans-Serif" font-size="10.00">zero_mate::peripheral</text>
<text text-anchor="middle" x="73" y="-34.5" font-family="Helvetica,sans-Serif" font-size="10.00">::CBSC::I2C_Send_Stop_Bit</text>
</a>
</g>
</g>
<!-- Node2 -->
<g id="node2" class="node">
<title>Node2</title>
<g id="a_node2"><a xlink:href="classzero__mate_1_1peripheral_1_1CBSC.html#a74b84158da1933e79f091706e27c12f5" target="_top" xlink:title="Sets the state of a given GPIO pin.">
<polygon fill="none" stroke="black" points="382,-27.5 382,-57.5 506,-57.5 506,-27.5 382,-27.5"/>
<text text-anchor="start" x="390" y="-45.5" font-family="Helvetica,sans-Serif" font-size="10.00">zero_mate::peripheral</text>
<text text-anchor="middle" x="444" y="-34.5" font-family="Helvetica,sans-Serif" font-size="10.00">::CBSC::Set_GPIO_pin</text>
</a>
</g>
</g>
<!-- Node1&#45;&gt;Node2 -->
<g id="edge1" class="edge">
<title>Node1&#45;&gt;Node2</title>
<path fill="none" stroke="midnightblue" d="M146.03,-44.78C158.04,-45.08 170.37,-45.34 182,-45.5 254.88,-46.51 273.12,-46.63 346,-45.5 354.35,-45.37 363.11,-45.18 371.8,-44.95"/>
<polygon fill="midnightblue" stroke="midnightblue" points="372.05,-48.45 381.95,-44.68 371.86,-41.45 372.05,-48.45"/>
</g>
<!-- Node8 -->
<g id="node8" class="node">
<title>Node8</title>
<g id="a_node8"><a xlink:href="classzero__mate_1_1peripheral_1_1CBSC.html#a47d44cc0056a39f0404e501c4449355a" target="_top" xlink:title="Terminates an ongoing transaction (stop bit).">
<polygon fill="none" stroke="black" points="182,-5.5 182,-35.5 346,-35.5 346,-5.5 182,-5.5"/>
<text text-anchor="start" x="190" y="-23.5" font-family="Helvetica,sans-Serif" font-size="10.00">zero_mate::peripheral</text>
<text text-anchor="middle" x="264" y="-12.5" font-family="Helvetica,sans-Serif" font-size="10.00">::CBSC::Terminate_Transaction</text>
</a>
</g>
</g>
<!-- Node1&#45;&gt;Node8 -->
<g id="edge7" class="edge">
<title>Node1&#45;&gt;Node8</title>
<path fill="none" stroke="midnightblue" d="M146.26,-34.09C154.65,-33.11 163.29,-32.11 171.89,-31.11"/>
<polygon fill="midnightblue" stroke="midnightblue" points="172.42,-34.57 181.95,-29.93 171.61,-27.61 172.42,-34.57"/>
</g>
<!-- Node3 -->
<g id="node3" class="node">
<title>Node3</title>
<g id="a_node3"><a xlink:href="classzero__mate_1_1utils_1_1CLogging__System.html#a57ed77e1a5cf822cea532cc5e05c3f60" target="_top" xlink:title="Logs an error message via all registered loggers.">
<polygon fill="none" stroke="black" points="542,-27.5 542,-57.5 688,-57.5 688,-27.5 542,-27.5"/>
<text text-anchor="start" x="550" y="-45.5" font-family="Helvetica,sans-Serif" font-size="10.00">zero_mate::utils::CLogging</text>
<text text-anchor="middle" x="615" y="-34.5" font-family="Helvetica,sans-Serif" font-size="10.00">_System::Error</text>
</a>
</g>
</g>
<!-- Node2&#45;&gt;Node3 -->
<g id="edge2" class="edge">
<title>Node2&#45;&gt;Node3</title>
<path fill="none" stroke="midnightblue" d="M506.01,-42.5C514.37,-42.5 523.06,-42.5 531.72,-42.5"/>
<polygon fill="midnightblue" stroke="midnightblue" points="531.85,-46 541.85,-42.5 531.85,-39 531.85,-46"/>
</g>
<!-- Node4 -->
<g id="node4" class="node">
<title>Node4</title>
<g id="a_node4"><a xlink:href="classzero__mate_1_1utils_1_1CLogging__System.html#a71ed11c796553cbe8fd99773406a1060" target="_top" xlink:title="Creates a formatted message to be logged.">
<polygon fill="none" stroke="black" points="724,-50 724,-91 876,-91 876,-50 724,-50"/>
<text text-anchor="start" x="732" y="-79" font-family="Helvetica,sans-Serif" font-size="10.00">zero_mate::utils::CLogging</text>
<text text-anchor="start" x="732" y="-68" font-family="Helvetica,sans-Serif" font-size="10.00">_System::Create_Formatted</text>
<text text-anchor="middle" x="800" y="-57" font-family="Helvetica,sans-Serif" font-size="10.00">_Log_Msg</text>
</a>
</g>
</g>
<!-- Node3&#45;&gt;Node4 -->
<g id="edge3" class="edge">
<title>Node3&#45;&gt;Node4</title>
<path fill="none" stroke="midnightblue" d="M688.06,-53.53C696.55,-54.82 705.26,-56.16 713.9,-57.48"/>
<polygon fill="midnightblue" stroke="midnightblue" points="713.58,-60.97 723.99,-59.02 714.64,-54.05 713.58,-60.97"/>
</g>
<!-- Node7 -->
<g id="node7" class="node">
<title>Node7</title>
<g id="a_node7"><a xlink:href="classzero__mate_1_1utils_1_1CLogging__System.html#ad371c67ef65763966ccf9291002e86f3" target="_top" xlink:title="Extract the filename from a given location within the source files.">
<polygon fill="none" stroke="black" points="725.5,-0.5 725.5,-30.5 874.5,-30.5 874.5,-0.5 725.5,-0.5"/>
<text text-anchor="start" x="733.5" y="-18.5" font-family="Helvetica,sans-Serif" font-size="10.00">zero_mate::utils::CLogging</text>
<text text-anchor="middle" x="800" y="-7.5" font-family="Helvetica,sans-Serif" font-size="10.00">_System::Extract_Filename</text>
</a>
</g>
</g>
<!-- Node3&#45;&gt;Node7 -->
<g id="edge6" class="edge">
<title>Node3&#45;&gt;Node7</title>
<path fill="none" stroke="midnightblue" d="M688.06,-31.87C697.1,-30.53 706.4,-29.16 715.59,-27.81"/>
<polygon fill="midnightblue" stroke="midnightblue" points="716.12,-31.27 725.5,-26.34 715.1,-24.34 716.12,-31.27"/>
</g>
<!-- Node5 -->
<g id="node5" class="node">
<title>Node5</title>
<g id="a_node5"><a xlink:href="classzero__mate_1_1utils_1_1CLogging__System.html#aa70c102c805079042ffea2a6f2a5ad64" target="_top" xlink:title="Formats a given timestamp.">
<polygon fill="none" stroke="black" points="912,-79.5 912,-109.5 1072,-109.5 1072,-79.5 912,-79.5"/>
<text text-anchor="start" x="920" y="-97.5" font-family="Helvetica,sans-Serif" font-size="10.00">zero_mate::utils::CLogging</text>
<text text-anchor="middle" x="992" y="-86.5" font-family="Helvetica,sans-Serif" font-size="10.00">_System::Format_Timestamp</text>
</a>
</g>
</g>
<!-- Node4&#45;&gt;Node5 -->
<g id="edge4" class="edge">
<title>Node4&#45;&gt;Node5</title>
<path fill="none" stroke="midnightblue" d="M876.09,-79.99C884.52,-81.05 893.16,-82.14 901.74,-83.23"/>
<polygon fill="midnightblue" stroke="midnightblue" points="901.41,-86.71 911.77,-84.49 902.29,-79.77 901.41,-86.71"/>
</g>
<!-- Node6 -->
<g id="node6" class="node">
<title>Node6</title>
<g id="a_node6"><a xlink:href="classzero__mate_1_1utils_1_1CLogging__System.html#ae3ca637537dde05e0b9119145c840331" target="_top" xlink:title="Returns the current timestamp that will be used in a log message.">
<polygon fill="none" stroke="black" points="919,-30.5 919,-60.5 1065,-60.5 1065,-30.5 919,-30.5"/>
<text text-anchor="start" x="927" y="-48.5" font-family="Helvetica,sans-Serif" font-size="10.00">zero_mate::utils::CLogging</text>
<text text-anchor="middle" x="992" y="-37.5" font-family="Helvetica,sans-Serif" font-size="10.00">_System::Get_Timestamp</text>
</a>
</g>
</g>
<!-- Node4&#45;&gt;Node6 -->
<g id="edge5" class="edge">
<title>Node4&#45;&gt;Node6</title>
<path fill="none" stroke="midnightblue" d="M876.09,-60.62C886.89,-59.2 898.05,-57.73 908.98,-56.29"/>
<polygon fill="midnightblue" stroke="midnightblue" points="909.47,-59.76 918.93,-54.98 908.56,-52.82 909.47,-59.76"/>
</g>
<!-- Node8&#45;&gt;Node2 -->
<g id="edge8" class="edge">
<title>Node8&#45;&gt;Node2</title>
<path fill="none" stroke="midnightblue" d="M346.19,-30.53C354.73,-31.59 363.36,-32.66 371.78,-33.7"/>
<polygon fill="midnightblue" stroke="midnightblue" points="371.56,-37.2 381.91,-34.95 372.42,-30.25 371.56,-37.2"/>
</g>
</g>
</svg>
