<?xml version="1.0" encoding="UTF-8" standalone="no"?>
<!DOCTYPE svg PUBLIC "-//W3C//DTD SVG 1.1//EN"
 "http://www.w3.org/Graphics/SVG/1.1/DTD/svg11.dtd">
<!-- Generated by graphviz version 2.43.0 (0)
 -->
<!-- Title: zero_mate::gui::CSource_Code_Window::Render Pages: 1 -->
<svg width="555pt" height="160pt"
 viewBox="0.00 0.00 555.00 159.50" xmlns="http://www.w3.org/2000/svg" xmlns:xlink="http://www.w3.org/1999/xlink">
<g id="graph0" class="graph" transform="scale(1 1) rotate(0) translate(4 155.5)">
<title>zero_mate::gui::CSource_Code_Window::Render</title>
<!-- Node1 -->
<g id="node1" class="node">
<title>Node1</title>
<g id="a_node1"><a xlink:title=" ">
<polygon fill="#bfbfbf" stroke="black" points="0,-55.5 0,-85.5 135,-85.5 135,-55.5 0,-55.5"/>
<text text-anchor="start" x="8" y="-73.5" font-family="Helvetica,sans-Serif" font-size="10.00">zero_mate::gui::CSource</text>
<text text-anchor="middle" x="67.5" y="-62.5" font-family="Helvetica,sans-Serif" font-size="10.00">_Code_Window::Render</text>
</a>
</g>
</g>
<!-- Node2 -->
<g id="node2" class="node">
<title>Node2</title>
<g id="a_node2"><a xlink:href="classzero__mate_1_1gui_1_1CSource__Code__Window.html#acdb10e47501c4cf6af2c50383388cc4a" target="_top" xlink:title=" ">
<polygon fill="none" stroke="black" points="171,-55.5 171,-85.5 364,-85.5 364,-55.5 171,-55.5"/>
<text text-anchor="start" x="179" y="-73.5" font-family="Helvetica,sans-Serif" font-size="10.00">zero_mate::gui::CSource</text>
<text text-anchor="middle" x="267.5" y="-62.5" font-family="Helvetica,sans-Serif" font-size="10.00">_Code_Window::Render_Code_Block</text>
</a>
</g>
</g>
<!-- Node1&#45;&gt;Node2 -->
<g id="edge1" class="edge">
<title>Node1&#45;&gt;Node2</title>
<path fill="none" stroke="midnightblue" d="M135.26,-70.5C143.49,-70.5 152.05,-70.5 160.69,-70.5"/>
<polygon fill="midnightblue" stroke="midnightblue" points="160.84,-74 170.84,-70.5 160.84,-67 160.84,-74"/>
</g>
<!-- Node3 -->
<g id="node3" class="node">
<title>Node3</title>
<g id="a_node3"><a xlink:href="classzero__mate_1_1gui_1_1CSource__Code__Window.html#a8ab01667cca3406c621027962c2d22bd" target="_top" xlink:title=" ">
<polygon fill="none" stroke="black" points="406,-110 406,-151 541,-151 541,-110 406,-110"/>
<text text-anchor="start" x="414" y="-139" font-family="Helvetica,sans-Serif" font-size="10.00">zero_mate::gui::CSource</text>
<text text-anchor="start" x="414" y="-128" font-family="Helvetica,sans-Serif" font-size="10.00">_Code_Window::Extract</text>
<text text-anchor="middle" x="473.5" y="-117" font-family="Helvetica,sans-Serif" font-size="10.00">_Class_Name</text>
</a>
</g>
</g>
<!-- Node2&#45;&gt;Node3 -->
<g id="edge2" class="edge">
<title>Node2&#45;&gt;Node3</title>
<path fill="none" stroke="midnightblue" d="M319.71,-85.56C342.84,-92.37 370.65,-100.54 396.16,-108.05"/>
<polygon fill="midnightblue" stroke="midnightblue" points="395.23,-111.42 405.82,-110.89 397.21,-104.71 395.23,-111.42"/>
</g>
<!-- Node4 -->
<g id="node4" class="node">
<title>Node4</title>
<g id="a_node4"><a xlink:href="classzero__mate_1_1gui_1_1CSource__Code__Window.html#a9f6a5501665b1b3c3883c88660873d09" target="_top" xlink:title=" ">
<polygon fill="none" stroke="black" points="403.5,-50 403.5,-91 543.5,-91 543.5,-50 403.5,-50"/>
<text text-anchor="start" x="411.5" y="-79" font-family="Helvetica,sans-Serif" font-size="10.00">zero_mate::gui::CSource</text>
<text text-anchor="start" x="411.5" y="-68" font-family="Helvetica,sans-Serif" font-size="10.00">_Code_Window::Highlight</text>
<text text-anchor="middle" x="473.5" y="-57" font-family="Helvetica,sans-Serif" font-size="10.00">_Code_Block</text>
</a>
</g>
</g>
<!-- Node2&#45;&gt;Node4 -->
<g id="edge3" class="edge">
<title>Node2&#45;&gt;Node4</title>
<path fill="none" stroke="midnightblue" d="M364.23,-70.5C373.88,-70.5 383.61,-70.5 393.07,-70.5"/>
<polygon fill="midnightblue" stroke="midnightblue" points="393.21,-74 403.21,-70.5 393.21,-67 393.21,-74"/>
</g>
<!-- Node5 -->
<g id="node5" class="node">
<title>Node5</title>
<g id="a_node5"><a xlink:href="classzero__mate_1_1gui_1_1CSource__Code__Window.html#afefe1191e405b0ad44c81b54ff63ad97" target="_top" xlink:title=" ">
<polygon fill="none" stroke="black" points="400,-0.5 400,-30.5 547,-30.5 547,-0.5 400,-0.5"/>
<text text-anchor="start" x="408" y="-18.5" font-family="Helvetica,sans-Serif" font-size="10.00">zero_mate::gui::CSource</text>
<text text-anchor="middle" x="473.5" y="-7.5" font-family="Helvetica,sans-Serif" font-size="10.00">_Code_Window::Pick_Color</text>
</a>
</g>
</g>
<!-- Node2&#45;&gt;Node5 -->
<g id="edge4" class="edge">
<title>Node2&#45;&gt;Node5</title>
<path fill="none" stroke="midnightblue" d="M324.24,-55.47C349.77,-48.59 380.19,-40.39 406.82,-33.21"/>
<polygon fill="midnightblue" stroke="midnightblue" points="408.08,-36.49 416.82,-30.51 406.26,-29.73 408.08,-36.49"/>
</g>
</g>
</svg>
