<?xml version="1.0" encoding="UTF-8" standalone="no"?>
<!DOCTYPE svg PUBLIC "-//W3C//DTD SVG 1.1//EN"
 "http://www.w3.org/Graphics/SVG/1.1/DTD/svg11.dtd">
<!-- Generated by graphviz version 2.43.0 (0)
 -->
<!-- Title: zero_mate::peripheral::CGPIO_Manager::Set_Pin_State Pages: 1 -->
<svg width="470pt" height="110pt"
 viewBox="0.00 0.00 470.00 110.00" xmlns="http://www.w3.org/2000/svg" xmlns:xlink="http://www.w3.org/1999/xlink">
<g id="graph0" class="graph" transform="scale(1 1) rotate(0) translate(4 106)">
<title>zero_mate::peripheral::CGPIO_Manager::Set_Pin_State</title>
<!-- Node1 -->
<g id="node1" class="node">
<title>Node1</title>
<g id="a_node1"><a xlink:title=" ">
<polygon fill="#bfbfbf" stroke="black" points="0,-30.5 0,-71.5 124,-71.5 124,-30.5 0,-30.5"/>
<text text-anchor="start" x="8" y="-59.5" font-family="Helvetica,sans-Serif" font-size="10.00">zero_mate::peripheral</text>
<text text-anchor="start" x="8" y="-48.5" font-family="Helvetica,sans-Serif" font-size="10.00">::CGPIO_Manager::Set</text>
<text text-anchor="middle" x="62" y="-37.5" font-family="Helvetica,sans-Serif" font-size="10.00">_Pin_State</text>
</a>
</g>
</g>
<!-- Node2 -->
<g id="node2" class="node">
<title>Node2</title>
<g id="a_node2"><a xlink:href="classzero__mate_1_1peripheral_1_1CInterrupt__Controller.html#a35b97d4871edb1ee3a0fbda305c58b95" target="_top" xlink:title="Returns the corresponding IRQ source for a given GPIO pin.">
<polygon fill="none" stroke="black" points="168,-60.5 168,-101.5 293,-101.5 293,-60.5 168,-60.5"/>
<text text-anchor="start" x="176" y="-89.5" font-family="Helvetica,sans-Serif" font-size="10.00">zero_mate::peripheral</text>
<text text-anchor="start" x="176" y="-78.5" font-family="Helvetica,sans-Serif" font-size="10.00">::CInterrupt_Controller</text>
<text text-anchor="middle" x="230.5" y="-67.5" font-family="Helvetica,sans-Serif" font-size="10.00">::Get_IRQ_Source</text>
</a>
</g>
</g>
<!-- Node1&#45;&gt;Node2 -->
<g id="edge1" class="edge">
<title>Node1&#45;&gt;Node2</title>
<path fill="none" stroke="midnightblue" d="M124.05,-62C135.11,-63.99 146.73,-66.09 158.05,-68.13"/>
<polygon fill="midnightblue" stroke="midnightblue" points="157.43,-71.57 167.9,-69.9 158.68,-64.68 157.43,-71.57"/>
</g>
<!-- Node3 -->
<g id="node3" class="node">
<title>Node3</title>
<g id="a_node3"><a xlink:href="classzero__mate_1_1peripheral_1_1CGPIO__Manager.html#ace77f20004c7db6f9aacb7f9695dd04f" target="_top" xlink:title=" ">
<polygon fill="none" stroke="black" points="160,-0.5 160,-41.5 301,-41.5 301,-0.5 160,-0.5"/>
<text text-anchor="start" x="168" y="-29.5" font-family="Helvetica,sans-Serif" font-size="10.00">zero_mate::peripheral</text>
<text text-anchor="start" x="168" y="-18.5" font-family="Helvetica,sans-Serif" font-size="10.00">::CGPIO_Manager::Reflect</text>
<text text-anchor="middle" x="230.5" y="-7.5" font-family="Helvetica,sans-Serif" font-size="10.00">_Pin_State_In_GPLEVn</text>
</a>
</g>
</g>
<!-- Node1&#45;&gt;Node3 -->
<g id="edge2" class="edge">
<title>Node1&#45;&gt;Node3</title>
<path fill="none" stroke="midnightblue" d="M124.05,-40C132.39,-38.5 141.05,-36.94 149.66,-35.39"/>
<polygon fill="midnightblue" stroke="midnightblue" points="150.5,-38.79 159.72,-33.57 149.26,-31.9 150.5,-38.79"/>
</g>
<!-- Node4 -->
<g id="node4" class="node">
<title>Node4</title>
<g id="a_node4"><a xlink:href="classzero__mate_1_1peripheral_1_1CGPIO__Manager.html#aa6b0515a8e4fecb78bebfbb79a13994b" target="_top" xlink:title=" ">
<polygon fill="none" stroke="black" points="337,-0.5 337,-41.5 462,-41.5 462,-0.5 337,-0.5"/>
<text text-anchor="start" x="345" y="-29.5" font-family="Helvetica,sans-Serif" font-size="10.00">zero_mate::peripheral</text>
<text text-anchor="start" x="345" y="-18.5" font-family="Helvetica,sans-Serif" font-size="10.00">::CGPIO_Manager::Get</text>
<text text-anchor="middle" x="399.5" y="-7.5" font-family="Helvetica,sans-Serif" font-size="10.00">_Register_Index</text>
</a>
</g>
</g>
<!-- Node3&#45;&gt;Node4 -->
<g id="edge3" class="edge">
<title>Node3&#45;&gt;Node4</title>
<path fill="none" stroke="midnightblue" d="M301.36,-21C309.74,-21 318.32,-21 326.73,-21"/>
<polygon fill="midnightblue" stroke="midnightblue" points="326.89,-24.5 336.89,-21 326.89,-17.5 326.89,-24.5"/>
</g>
</g>
</svg>
