<?xml version="1.0" encoding="UTF-8" standalone="no"?>
<!DOCTYPE svg PUBLIC "-//W3C//DTD SVG 1.1//EN"
 "http://www.w3.org/Graphics/SVG/1.1/DTD/svg11.dtd">
<!-- Generated by graphviz version 2.43.0 (0)
 -->
<!-- Title: zero_mate::utils::CLogging_System::Debug Pages: 1 -->
<svg width="577pt" height="510pt"
 viewBox="0.00 0.00 577.00 509.50" xmlns="http://www.w3.org/2000/svg" xmlns:xlink="http://www.w3.org/1999/xlink">
<g id="graph0" class="graph" transform="scale(1 1) rotate(0) translate(4 505.5)">
<title>zero_mate::utils::CLogging_System::Debug</title>
<!-- Node1 -->
<g id="node1" class="node">
<title>Node1</title>
<g id="a_node1"><a xlink:title=" ">
<polygon fill="#bfbfbf" stroke="black" points="423,-235.5 423,-265.5 569,-265.5 569,-235.5 423,-235.5"/>
<text text-anchor="start" x="431" y="-253.5" font-family="Helvetica,sans-Serif" font-size="10.00">zero_mate::utils::CLogging</text>
<text text-anchor="middle" x="496" y="-242.5" font-family="Helvetica,sans-Serif" font-size="10.00">_System::Debug</text>
</a>
</g>
</g>
<!-- Node2 -->
<g id="node2" class="node">
<title>Node2</title>
<g id="a_node2"><a xlink:href="classzero__mate_1_1peripheral_1_1CGPIO__Manager.html#a4a4e9cf470ed6f7dbfb3ada75d35e47c" target="_top" xlink:title="Clears a pending interrupt by writing a 1 to the GPEDS register.">
<polygon fill="none" stroke="black" points="212.5,-290.5 212.5,-320.5 367.5,-320.5 367.5,-290.5 212.5,-290.5"/>
<text text-anchor="start" x="220.5" y="-308.5" font-family="Helvetica,sans-Serif" font-size="10.00">zero_mate::peripheral</text>
<text text-anchor="middle" x="290" y="-297.5" font-family="Helvetica,sans-Serif" font-size="10.00">::CGPIO_Manager::Clear_IRQ</text>
</a>
</g>
</g>
<!-- Node1&#45;&gt;Node2 -->
<g id="edge1" class="edge">
<title>Node1&#45;&gt;Node2</title>
<path fill="none" stroke="midnightblue" d="M431.53,-268.31C416.92,-272.37 401.43,-276.62 387,-280.5 374.86,-283.77 361.84,-287.2 349.42,-290.45"/>
<polygon fill="midnightblue" stroke="midnightblue" points="432.79,-271.6 441.49,-265.55 430.92,-264.85 432.79,-271.6"/>
</g>
<!-- Node4 -->
<g id="node4" class="node">
<title>Node4</title>
<g id="a_node4"><a xlink:href="classzero__mate_1_1peripheral_1_1CInterrupt__Controller.html#aa731c1d6e73a4db1087a803ca5fe5557" target="_top" xlink:title="Enables/disables interrupts from a basic IRQ source.">
<polygon fill="none" stroke="black" points="213.5,-400 213.5,-441 366.5,-441 366.5,-400 213.5,-400"/>
<text text-anchor="start" x="221.5" y="-429" font-family="Helvetica,sans-Serif" font-size="10.00">zero_mate::peripheral</text>
<text text-anchor="start" x="221.5" y="-418" font-family="Helvetica,sans-Serif" font-size="10.00">::CInterrupt_Controller</text>
<text text-anchor="middle" x="290" y="-407" font-family="Helvetica,sans-Serif" font-size="10.00">::Enable_IRQ_Basic_Sources</text>
</a>
</g>
</g>
<!-- Node1&#45;&gt;Node4 -->
<g id="edge3" class="edge">
<title>Node1&#45;&gt;Node4</title>
<path fill="none" stroke="midnightblue" d="M482.62,-274.51C465.33,-305.71 431.06,-359.82 387,-390.5 380.84,-394.79 374.04,-398.49 366.99,-401.67"/>
<polygon fill="midnightblue" stroke="midnightblue" points="485.75,-276.07 487.43,-265.61 479.59,-272.74 485.75,-276.07"/>
</g>
<!-- Node6 -->
<g id="node6" class="node">
<title>Node6</title>
<g id="a_node6"><a xlink:href="classzero__mate_1_1peripheral_1_1CInterrupt__Controller.html#ac3c9423e443ca2389cef743f32713cca" target="_top" xlink:title="Enables/disables interrupts from an IRQ source.">
<polygon fill="none" stroke="black" points="227.5,-460 227.5,-501 352.5,-501 352.5,-460 227.5,-460"/>
<text text-anchor="start" x="235.5" y="-489" font-family="Helvetica,sans-Serif" font-size="10.00">zero_mate::peripheral</text>
<text text-anchor="start" x="235.5" y="-478" font-family="Helvetica,sans-Serif" font-size="10.00">::CInterrupt_Controller</text>
<text text-anchor="middle" x="290" y="-467" font-family="Helvetica,sans-Serif" font-size="10.00">::Enable_IRQ_Sources</text>
</a>
</g>
</g>
<!-- Node1&#45;&gt;Node6 -->
<g id="edge5" class="edge">
<title>Node1&#45;&gt;Node6</title>
<path fill="none" stroke="midnightblue" d="M488.32,-275.31C475.68,-317.52 444.27,-403.3 387,-450.5 377.1,-458.66 364.97,-464.61 352.7,-468.94"/>
<polygon fill="midnightblue" stroke="midnightblue" points="491.72,-276.14 491.13,-265.57 484.99,-274.2 491.72,-276.14"/>
</g>
<!-- Node7 -->
<g id="node7" class="node">
<title>Node7</title>
<g id="a_node7"><a xlink:href="classzero__mate_1_1gui_1_1external__peripheral_1_1CButton.html#a2bb2c24120ea7126337ece50fe599b09" target="_top" xlink:title=" ">
<polygon fill="none" stroke="black" points="193,-0.5 193,-30.5 387,-30.5 387,-0.5 193,-0.5"/>
<text text-anchor="start" x="201" y="-18.5" font-family="Helvetica,sans-Serif" font-size="10.00">zero_mate::gui::external</text>
<text text-anchor="middle" x="290" y="-7.5" font-family="Helvetica,sans-Serif" font-size="10.00">_peripheral::CButton::Render_Button</text>
</a>
</g>
</g>
<!-- Node1&#45;&gt;Node7 -->
<g id="edge7" class="edge">
<title>Node1&#45;&gt;Node7</title>
<path fill="none" stroke="midnightblue" d="M489.26,-225.42C477.79,-181.14 447.75,-89.15 387,-40.5 382.16,-36.62 376.78,-33.34 371.12,-30.57"/>
<polygon fill="midnightblue" stroke="midnightblue" points="485.92,-226.49 491.73,-235.36 492.71,-224.81 485.92,-226.49"/>
</g>
<!-- Node9 -->
<g id="node9" class="node">
<title>Node9</title>
<g id="a_node9"><a xlink:href="classzero__mate_1_1peripheral_1_1CGPIO__Manager.html#ad29d57528b73baef90b0ca885a297e4d" target="_top" xlink:title="Enables/disables an interrupt for all pins within a given register.">
<polygon fill="none" stroke="black" points="228,-230 228,-271 352,-271 352,-230 228,-230"/>
<text text-anchor="start" x="236" y="-259" font-family="Helvetica,sans-Serif" font-size="10.00">zero_mate::peripheral</text>
<text text-anchor="start" x="236" y="-248" font-family="Helvetica,sans-Serif" font-size="10.00">::CGPIO_Manager::Set</text>
<text text-anchor="middle" x="290" y="-237" font-family="Helvetica,sans-Serif" font-size="10.00">_Interrupt</text>
</a>
</g>
</g>
<!-- Node1&#45;&gt;Node9 -->
<g id="edge9" class="edge">
<title>Node1&#45;&gt;Node9</title>
<path fill="none" stroke="midnightblue" d="M412.68,-250.5C392.51,-250.5 371.28,-250.5 352.3,-250.5"/>
<polygon fill="midnightblue" stroke="midnightblue" points="412.79,-254 422.79,-250.5 412.79,-247 412.79,-254"/>
</g>
<!-- Node10 -->
<g id="node10" class="node">
<title>Node10</title>
<g id="a_node10"><a xlink:href="classzero__mate_1_1peripheral_1_1CInterrupt__Controller.html#a32373b931bb37ef8ee92f95a3f833284" target="_top" xlink:title="Notifies the interrupt controller about a pending interrupt triggered by a basic IRQ source.">
<polygon fill="none" stroke="black" points="227.5,-170 227.5,-211 352.5,-211 352.5,-170 227.5,-170"/>
<text text-anchor="start" x="235.5" y="-199" font-family="Helvetica,sans-Serif" font-size="10.00">zero_mate::peripheral</text>
<text text-anchor="start" x="235.5" y="-188" font-family="Helvetica,sans-Serif" font-size="10.00">::CInterrupt_Controller</text>
<text text-anchor="middle" x="290" y="-177" font-family="Helvetica,sans-Serif" font-size="10.00">::Signalize_Basic_IRQ</text>
</a>
</g>
</g>
<!-- Node1&#45;&gt;Node10 -->
<g id="edge11" class="edge">
<title>Node1&#45;&gt;Node10</title>
<path fill="none" stroke="midnightblue" d="M434.16,-232.61C408.47,-225.05 378.59,-216.26 352.79,-208.67"/>
<polygon fill="midnightblue" stroke="midnightblue" points="433.2,-235.97 443.79,-235.44 435.18,-229.26 433.2,-235.97"/>
</g>
<!-- Node11 -->
<g id="node11" class="node">
<title>Node11</title>
<g id="a_node11"><a xlink:href="classzero__mate_1_1peripheral_1_1CInterrupt__Controller.html#aa559a3a604ae1877cbbe749724d8a399" target="_top" xlink:title="Notifies the interrupt controller about a pending interrupt triggered by an IRQ source.">
<polygon fill="none" stroke="black" points="227.5,-110 227.5,-151 352.5,-151 352.5,-110 227.5,-110"/>
<text text-anchor="start" x="235.5" y="-139" font-family="Helvetica,sans-Serif" font-size="10.00">zero_mate::peripheral</text>
<text text-anchor="start" x="235.5" y="-128" font-family="Helvetica,sans-Serif" font-size="10.00">::CInterrupt_Controller</text>
<text text-anchor="middle" x="290" y="-117" font-family="Helvetica,sans-Serif" font-size="10.00">::Signalize_IRQ</text>
</a>
</g>
</g>
<!-- Node1&#45;&gt;Node11 -->
<g id="edge12" class="edge">
<title>Node1&#45;&gt;Node11</title>
<path fill="none" stroke="midnightblue" d="M473.42,-228.05C452.88,-207.84 420.26,-178.62 387,-160.5 376.34,-154.69 364.4,-149.83 352.65,-145.82"/>
<polygon fill="midnightblue" stroke="midnightblue" points="471.13,-230.71 480.67,-235.31 476.08,-225.76 471.13,-230.71"/>
</g>
<!-- Node12 -->
<g id="node12" class="node">
<title>Node12</title>
<g id="a_node12"><a xlink:href="classzero__mate_1_1peripheral_1_1CGPIO__Manager.html#ad7c6aa486cf3b116ffae9f16eec64064" target="_top" xlink:title="Updates the function of all pins within a given register.">
<polygon fill="none" stroke="black" points="218.5,-50 218.5,-91 361.5,-91 361.5,-50 218.5,-50"/>
<text text-anchor="start" x="226.5" y="-79" font-family="Helvetica,sans-Serif" font-size="10.00">zero_mate::peripheral</text>
<text text-anchor="start" x="226.5" y="-68" font-family="Helvetica,sans-Serif" font-size="10.00">::CGPIO_Manager::Update</text>
<text text-anchor="middle" x="290" y="-57" font-family="Helvetica,sans-Serif" font-size="10.00">_Pin_Function</text>
</a>
</g>
</g>
<!-- Node1&#45;&gt;Node12 -->
<g id="edge13" class="edge">
<title>Node1&#45;&gt;Node12</title>
<path fill="none" stroke="midnightblue" d="M483.79,-226.22C467.25,-193.03 433.19,-133.81 387,-100.5 379.35,-94.98 370.66,-90.46 361.7,-86.76"/>
<polygon fill="midnightblue" stroke="midnightblue" points="480.65,-227.78 488.17,-235.24 486.95,-224.72 480.65,-227.78"/>
</g>
<!-- Node13 -->
<g id="node13" class="node">
<title>Node13</title>
<g id="a_node13"><a xlink:href="classzero__mate_1_1peripheral_1_1CGPIO__Manager.html#ae93785da50eefb8a8cc21c1c59a32726" target="_top" xlink:title="Updates the state of all pins within a given register.">
<polygon fill="none" stroke="black" points="218.5,-340 218.5,-381 361.5,-381 361.5,-340 218.5,-340"/>
<text text-anchor="start" x="226.5" y="-369" font-family="Helvetica,sans-Serif" font-size="10.00">zero_mate::peripheral</text>
<text text-anchor="start" x="226.5" y="-358" font-family="Helvetica,sans-Serif" font-size="10.00">::CGPIO_Manager::Update</text>
<text text-anchor="middle" x="290" y="-347" font-family="Helvetica,sans-Serif" font-size="10.00">_Pin_State</text>
</a>
</g>
</g>
<!-- Node1&#45;&gt;Node13 -->
<g id="edge15" class="edge">
<title>Node1&#45;&gt;Node13</title>
<path fill="none" stroke="midnightblue" d="M470.5,-272.42C449.58,-290.17 418.03,-314.73 387,-330.5 378.98,-334.57 370.31,-338.22 361.56,-341.45"/>
<polygon fill="midnightblue" stroke="midnightblue" points="472.95,-274.93 478.24,-265.75 468.38,-269.62 472.95,-274.93"/>
</g>
<!-- Node3 -->
<g id="node3" class="node">
<title>Node3</title>
<g id="a_node3"><a xlink:href="classzero__mate_1_1peripheral_1_1CGPIO__Manager.html#a26aa957dbb7682447e4ebf9aa078c00c" target="_top" xlink:title="Writes data to the peripheral (IPeripheral interface).">
<polygon fill="none" stroke="black" points="11.5,-262.5 11.5,-292.5 145.5,-292.5 145.5,-262.5 11.5,-262.5"/>
<text text-anchor="start" x="19.5" y="-280.5" font-family="Helvetica,sans-Serif" font-size="10.00">zero_mate::peripheral</text>
<text text-anchor="middle" x="78.5" y="-269.5" font-family="Helvetica,sans-Serif" font-size="10.00">::CGPIO_Manager::Write</text>
</a>
</g>
</g>
<!-- Node2&#45;&gt;Node3 -->
<g id="edge2" class="edge">
<title>Node2&#45;&gt;Node3</title>
<path fill="none" stroke="midnightblue" d="M202.38,-293.92C183.48,-291.4 163.76,-288.76 145.8,-286.36"/>
<polygon fill="midnightblue" stroke="midnightblue" points="202.1,-297.42 212.48,-295.27 203.03,-290.48 202.1,-297.42"/>
</g>
<!-- Node5 -->
<g id="node5" class="node">
<title>Node5</title>
<g id="a_node5"><a xlink:href="classzero__mate_1_1peripheral_1_1CInterrupt__Controller.html#ab37428109c8e5f862b528417048903f3" target="_top" xlink:title="Writes data to the peripheral (IPeripheral interface).">
<polygon fill="none" stroke="black" points="16,-430 16,-471 141,-471 141,-430 16,-430"/>
<text text-anchor="start" x="24" y="-459" font-family="Helvetica,sans-Serif" font-size="10.00">zero_mate::peripheral</text>
<text text-anchor="start" x="24" y="-448" font-family="Helvetica,sans-Serif" font-size="10.00">::CInterrupt_Controller</text>
<text text-anchor="middle" x="78.5" y="-437" font-family="Helvetica,sans-Serif" font-size="10.00">::Write</text>
</a>
</g>
</g>
<!-- Node4&#45;&gt;Node5 -->
<g id="edge4" class="edge">
<title>Node4&#45;&gt;Node5</title>
<path fill="none" stroke="midnightblue" d="M203.26,-432.78C182.49,-435.75 160.68,-438.87 141.26,-441.66"/>
<polygon fill="midnightblue" stroke="midnightblue" points="203.96,-436.21 213.37,-431.33 202.97,-429.28 203.96,-436.21"/>
</g>
<!-- Node6&#45;&gt;Node5 -->
<g id="edge6" class="edge">
<title>Node6&#45;&gt;Node5</title>
<path fill="none" stroke="midnightblue" d="M217.22,-470.22C192.48,-466.68 165,-462.74 141.14,-459.33"/>
<polygon fill="midnightblue" stroke="midnightblue" points="216.88,-473.71 227.28,-471.66 217.87,-466.78 216.88,-473.71"/>
</g>
<!-- Node8 -->
<g id="node8" class="node">
<title>Node8</title>
<g id="a_node8"><a xlink:href="classzero__mate_1_1gui_1_1external__peripheral_1_1CButton.html#aac3d95dcbf1b19e892a6a1b3f035631c" target="_top" xlink:title=" ">
<polygon fill="none" stroke="black" points="0,-0.5 0,-30.5 157,-30.5 157,-0.5 0,-0.5"/>
<text text-anchor="start" x="8" y="-18.5" font-family="Helvetica,sans-Serif" font-size="10.00">zero_mate::gui::external</text>
<text text-anchor="middle" x="78.5" y="-7.5" font-family="Helvetica,sans-Serif" font-size="10.00">_peripheral::CButton::Render</text>
</a>
</g>
</g>
<!-- Node7&#45;&gt;Node8 -->
<g id="edge8" class="edge">
<title>Node7&#45;&gt;Node8</title>
<path fill="none" stroke="midnightblue" d="M182.74,-15.5C174.13,-15.5 165.54,-15.5 157.19,-15.5"/>
<polygon fill="midnightblue" stroke="midnightblue" points="182.83,-19 192.83,-15.5 182.83,-12 182.83,-19"/>
</g>
<!-- Node9&#45;&gt;Node3 -->
<g id="edge10" class="edge">
<title>Node9&#45;&gt;Node3</title>
<path fill="none" stroke="midnightblue" d="M217.7,-259.69C194.44,-262.69 168.74,-266 145.86,-268.95"/>
<polygon fill="midnightblue" stroke="midnightblue" points="218.37,-263.13 227.84,-258.38 217.48,-256.19 218.37,-263.13"/>
</g>
<!-- Node12&#45;&gt;Node3 -->
<g id="edge14" class="edge">
<title>Node12&#45;&gt;Node3</title>
<path fill="none" stroke="midnightblue" d="M208.56,-90.78C203.06,-93.61 197.8,-96.84 193,-100.5 134.81,-144.9 98.15,-228.32 84.99,-262.41"/>
<polygon fill="midnightblue" stroke="midnightblue" points="210.43,-93.77 218.01,-86.38 207.47,-87.43 210.43,-93.77"/>
</g>
<!-- Node13&#45;&gt;Node3 -->
<g id="edge16" class="edge">
<title>Node13&#45;&gt;Node3</title>
<path fill="none" stroke="midnightblue" d="M209.77,-336.67C204.06,-334.67 198.42,-332.6 193,-330.5 163.8,-319.18 131.54,-303.82 108.9,-292.56"/>
<polygon fill="midnightblue" stroke="midnightblue" points="208.81,-340.04 219.4,-339.96 211.07,-333.41 208.81,-340.04"/>
</g>
</g>
</svg>
