<?xml version="1.0" encoding="UTF-8" standalone="no"?>
<!DOCTYPE svg PUBLIC "-//W3C//DTD SVG 1.1//EN"
 "http://www.w3.org/Graphics/SVG/1.1/DTD/svg11.dtd">
<!-- Generated by graphviz version 2.43.0 (0)
 -->
<!-- Title: zero_mate::utils::CLogging_System::Info Pages: 1 -->
<svg width="862pt" height="149pt"
 viewBox="0.00 0.00 862.00 148.50" xmlns="http://www.w3.org/2000/svg" xmlns:xlink="http://www.w3.org/1999/xlink">
<g id="graph0" class="graph" transform="scale(1 1) rotate(0) translate(4 144.5)">
<title>zero_mate::utils::CLogging_System::Info</title>
<!-- Node1 -->
<g id="node1" class="node">
<title>Node1</title>
<g id="a_node1"><a xlink:title="Logs an info message via all registered loggers.">
<polygon fill="#bfbfbf" stroke="black" points="708,-24.5 708,-54.5 854,-54.5 854,-24.5 708,-24.5"/>
<text text-anchor="start" x="716" y="-42.5" font-family="Helvetica,sans-Serif" font-size="10.00">zero_mate::utils::CLogging</text>
<text text-anchor="middle" x="781" y="-31.5" font-family="Helvetica,sans-Serif" font-size="10.00">_System::Info</text>
</a>
</g>
</g>
<!-- Node2 -->
<g id="node2" class="node">
<title>Node2</title>
<g id="a_node2"><a xlink:href="classzero__mate_1_1gui_1_1CTop__Bar__Menu.html#af8e80293dff0c20be7ea071d50dec62c" target="_top" xlink:title="Loads a single ELF file.">
<polygon fill="none" stroke="black" points="527,-49.5 527,-79.5 672,-79.5 672,-49.5 527,-49.5"/>
<text text-anchor="start" x="535" y="-67.5" font-family="Helvetica,sans-Serif" font-size="10.00">zero_mate::gui::CTop</text>
<text text-anchor="middle" x="599.5" y="-56.5" font-family="Helvetica,sans-Serif" font-size="10.00">_Bar_Menu::Load_ELF_File</text>
</a>
</g>
</g>
<!-- Node1&#45;&gt;Node2 -->
<g id="edge1" class="edge">
<title>Node1&#45;&gt;Node2</title>
<path fill="none" stroke="midnightblue" d="M697.74,-50.96C689.15,-52.15 680.46,-53.36 672,-54.54"/>
<polygon fill="midnightblue" stroke="midnightblue" points="698.34,-54.41 707.77,-49.56 697.38,-47.47 698.34,-54.41"/>
</g>
<!-- Node7 -->
<g id="node7" class="node">
<title>Node7</title>
<g id="a_node7"><a xlink:href="classzero__mate_1_1gui_1_1CControl__Window.html#ad83b2651e1d6bf8ed72e3553526f17ca" target="_top" xlink:title="Runs CPU execution (separate thread).">
<polygon fill="none" stroke="black" points="531,-0.5 531,-30.5 668,-30.5 668,-0.5 531,-0.5"/>
<text text-anchor="start" x="539" y="-18.5" font-family="Helvetica,sans-Serif" font-size="10.00">zero_mate::gui::CControl</text>
<text text-anchor="middle" x="599.5" y="-7.5" font-family="Helvetica,sans-Serif" font-size="10.00">_Window::Run</text>
</a>
</g>
</g>
<!-- Node1&#45;&gt;Node7 -->
<g id="edge7" class="edge">
<title>Node1&#45;&gt;Node7</title>
<path fill="none" stroke="midnightblue" d="M697.59,-28.48C687.76,-27.17 677.81,-25.84 668.22,-24.56"/>
<polygon fill="midnightblue" stroke="midnightblue" points="697.39,-31.99 707.77,-29.84 698.32,-25.05 697.39,-31.99"/>
</g>
<!-- Node3 -->
<g id="node3" class="node">
<title>Node3</title>
<g id="a_node3"><a xlink:href="classzero__mate_1_1gui_1_1CTop__Bar__Menu.html#a7fee26ed69f7536b8396d3fe2f97c5e4" target="_top" xlink:title="Loads ELF files selected by the user using the file browser.">
<polygon fill="none" stroke="black" points="339,-98.5 339,-128.5 489,-128.5 489,-98.5 339,-98.5"/>
<text text-anchor="start" x="347" y="-116.5" font-family="Helvetica,sans-Serif" font-size="10.00">zero_mate::gui::CTop</text>
<text text-anchor="middle" x="414" y="-105.5" font-family="Helvetica,sans-Serif" font-size="10.00">_Bar_Menu::Load_ELF_Files</text>
</a>
</g>
</g>
<!-- Node2&#45;&gt;Node3 -->
<g id="edge2" class="edge">
<title>Node2&#45;&gt;Node3</title>
<path fill="none" stroke="midnightblue" d="M532.5,-82.12C512.43,-87.48 490.56,-93.32 471.2,-98.49"/>
<polygon fill="midnightblue" stroke="midnightblue" points="533.44,-85.5 542.2,-79.53 531.63,-78.73 533.44,-85.5"/>
</g>
<!-- Node6 -->
<g id="node6" class="node">
<title>Node6</title>
<g id="a_node6"><a xlink:href="classzero__mate_1_1gui_1_1CTop__Bar__Menu.html#a73157cb5a8ef5d61769403bbd700cfbf" target="_top" xlink:title="Reloads the kernel.">
<polygon fill="none" stroke="black" points="155,-49.5 155,-79.5 301,-79.5 301,-49.5 155,-49.5"/>
<text text-anchor="start" x="163" y="-67.5" font-family="Helvetica,sans-Serif" font-size="10.00">zero_mate::gui::CTop</text>
<text text-anchor="middle" x="228" y="-56.5" font-family="Helvetica,sans-Serif" font-size="10.00">_Bar_Menu::Reload_Kernel</text>
</a>
</g>
</g>
<!-- Node2&#45;&gt;Node6 -->
<g id="edge5" class="edge">
<title>Node2&#45;&gt;Node6</title>
<path fill="none" stroke="midnightblue" d="M516.68,-64.5C452.14,-64.5 362.99,-64.5 301.11,-64.5"/>
<polygon fill="midnightblue" stroke="midnightblue" points="516.82,-68 526.82,-64.5 516.82,-61 516.82,-68"/>
</g>
<!-- Node4 -->
<g id="node4" class="node">
<title>Node4</title>
<g id="a_node4"><a xlink:href="classzero__mate_1_1gui_1_1CTop__Bar__Menu.html#a8dbf5620303332f1ad1b7449793a3621" target="_top" xlink:title="Renders the file browser.">
<polygon fill="none" stroke="black" points="161,-99 161,-140 295,-140 295,-99 161,-99"/>
<text text-anchor="start" x="169" y="-128" font-family="Helvetica,sans-Serif" font-size="10.00">zero_mate::gui::CTop</text>
<text text-anchor="start" x="169" y="-117" font-family="Helvetica,sans-Serif" font-size="10.00">_Bar_Menu::Render_File</text>
<text text-anchor="middle" x="228" y="-106" font-family="Helvetica,sans-Serif" font-size="10.00">_Browser</text>
</a>
</g>
</g>
<!-- Node3&#45;&gt;Node4 -->
<g id="edge3" class="edge">
<title>Node3&#45;&gt;Node4</title>
<path fill="none" stroke="midnightblue" d="M328.69,-116.25C317.45,-116.62 306.05,-116.99 295.17,-117.34"/>
<polygon fill="midnightblue" stroke="midnightblue" points="329.07,-119.74 338.96,-115.91 328.85,-112.74 329.07,-119.74"/>
</g>
<!-- Node5 -->
<g id="node5" class="node">
<title>Node5</title>
<g id="a_node5"><a xlink:href="classzero__mate_1_1gui_1_1CTop__Bar__Menu.html#ad8f10caa7780d6c4e9fb20c4ab702a60" target="_top" xlink:title="Renders the bar (IGUI_Window interface).">
<polygon fill="none" stroke="black" points="0,-76.5 0,-106.5 119,-106.5 119,-76.5 0,-76.5"/>
<text text-anchor="start" x="8" y="-94.5" font-family="Helvetica,sans-Serif" font-size="10.00">zero_mate::gui::CTop</text>
<text text-anchor="middle" x="59.5" y="-83.5" font-family="Helvetica,sans-Serif" font-size="10.00">_Bar_Menu::Render</text>
</a>
</g>
</g>
<!-- Node4&#45;&gt;Node5 -->
<g id="edge4" class="edge">
<title>Node4&#45;&gt;Node5</title>
<path fill="none" stroke="midnightblue" d="M150.61,-106.65C140,-104.87 129.23,-103.06 119.02,-101.34"/>
<polygon fill="midnightblue" stroke="midnightblue" points="150.27,-110.15 160.72,-108.35 151.44,-103.24 150.27,-110.15"/>
</g>
<!-- Node6&#45;&gt;Node5 -->
<g id="edge6" class="edge">
<title>Node6&#45;&gt;Node5</title>
<path fill="none" stroke="midnightblue" d="M144.8,-77.83C136.14,-79.23 127.47,-80.64 119.15,-81.99"/>
<polygon fill="midnightblue" stroke="midnightblue" points="145.63,-81.24 154.94,-76.19 144.51,-74.33 145.63,-81.24"/>
</g>
<!-- Node8 -->
<g id="node8" class="node">
<title>Node8</title>
<g id="a_node8"><a xlink:href="classzero__mate_1_1gui_1_1CControl__Window.html#a1c2dbf328ff8bb1d5be18824806b8995" target="_top" xlink:title="Starts CPU execution as a separate thread.">
<polygon fill="none" stroke="black" points="337,-0.5 337,-30.5 491,-30.5 491,-0.5 337,-0.5"/>
<text text-anchor="start" x="345" y="-18.5" font-family="Helvetica,sans-Serif" font-size="10.00">zero_mate::gui::CControl</text>
<text text-anchor="middle" x="414" y="-7.5" font-family="Helvetica,sans-Serif" font-size="10.00">_Window::Start_CPU_Thread</text>
</a>
</g>
</g>
<!-- Node7&#45;&gt;Node8 -->
<g id="edge8" class="edge">
<title>Node7&#45;&gt;Node8</title>
<path fill="none" stroke="midnightblue" d="M520.8,-15.5C510.95,-15.5 500.89,-15.5 491.07,-15.5"/>
<polygon fill="midnightblue" stroke="midnightblue" points="520.95,-19 530.95,-15.5 520.95,-12 520.95,-19"/>
</g>
<!-- Node9 -->
<g id="node9" class="node">
<title>Node9</title>
<g id="a_node9"><a xlink:href="classzero__mate_1_1gui_1_1CControl__Window.html#aabafaf7d45b7c4516719dce03772ee5a" target="_top" xlink:title="Renders the window (IGUI_Window interface).">
<polygon fill="none" stroke="black" points="159.5,-0.5 159.5,-30.5 296.5,-30.5 296.5,-0.5 159.5,-0.5"/>
<text text-anchor="start" x="167.5" y="-18.5" font-family="Helvetica,sans-Serif" font-size="10.00">zero_mate::gui::CControl</text>
<text text-anchor="middle" x="228" y="-7.5" font-family="Helvetica,sans-Serif" font-size="10.00">_Window::Render</text>
</a>
</g>
</g>
<!-- Node8&#45;&gt;Node9 -->
<g id="edge9" class="edge">
<title>Node8&#45;&gt;Node9</title>
<path fill="none" stroke="midnightblue" d="M326.75,-15.5C316.63,-15.5 306.41,-15.5 296.59,-15.5"/>
<polygon fill="midnightblue" stroke="midnightblue" points="326.83,-19 336.83,-15.5 326.83,-12 326.83,-19"/>
</g>
</g>
</svg>
