<?xml version="1.0" encoding="UTF-8" standalone="no"?>
<!DOCTYPE svg PUBLIC "-//W3C//DTD SVG 1.1//EN"
 "http://www.w3.org/Graphics/SVG/1.1/DTD/svg11.dtd">
<!-- Generated by graphviz version 2.43.0 (0)
 -->
<!-- Title: zero_mate::peripheral::CGPIO_Manager::Update_Pin_State Pages: 1 -->
<svg width="485pt" height="110pt"
 viewBox="0.00 0.00 485.00 110.00" xmlns="http://www.w3.org/2000/svg" xmlns:xlink="http://www.w3.org/1999/xlink">
<g id="graph0" class="graph" transform="scale(1 1) rotate(0) translate(4 106)">
<title>zero_mate::peripheral::CGPIO_Manager::Update_Pin_State</title>
<!-- Node1 -->
<g id="node1" class="node">
<title>Node1</title>
<g id="a_node1"><a xlink:title="Updates the state of all pins within a given register.">
<polygon fill="#bfbfbf" stroke="black" points="0,-30.5 0,-71.5 143,-71.5 143,-30.5 0,-30.5"/>
<text text-anchor="start" x="8" y="-59.5" font-family="Helvetica,sans-Serif" font-size="10.00">zero_mate::peripheral</text>
<text text-anchor="start" x="8" y="-48.5" font-family="Helvetica,sans-Serif" font-size="10.00">::CGPIO_Manager::Update</text>
<text text-anchor="middle" x="71.5" y="-37.5" font-family="Helvetica,sans-Serif" font-size="10.00">_Pin_State</text>
</a>
</g>
</g>
<!-- Node2 -->
<g id="node2" class="node">
<title>Node2</title>
<g id="a_node2"><a xlink:href="classzero__mate_1_1peripheral_1_1CGPIO__Manager.html#afb4a55159afdaa47cd3640dfd1e0106b" target="_top" xlink:title="Mirrors the state of a given in in the GPLEV register.">
<polygon fill="none" stroke="black" points="179,-60.5 179,-101.5 316,-101.5 316,-60.5 179,-60.5"/>
<text text-anchor="start" x="187" y="-89.5" font-family="Helvetica,sans-Serif" font-size="10.00">zero_mate::peripheral</text>
<text text-anchor="start" x="187" y="-78.5" font-family="Helvetica,sans-Serif" font-size="10.00">::CGPIO_Manager::Mirror</text>
<text text-anchor="middle" x="247.5" y="-67.5" font-family="Helvetica,sans-Serif" font-size="10.00">_Pin_State_In_GPLEVn</text>
</a>
</g>
</g>
<!-- Node1&#45;&gt;Node2 -->
<g id="edge1" class="edge">
<title>Node1&#45;&gt;Node2</title>
<path fill="none" stroke="midnightblue" d="M143.02,-63.16C151.55,-64.63 160.3,-66.14 168.93,-67.63"/>
<polygon fill="midnightblue" stroke="midnightblue" points="168.53,-71.11 178.98,-69.36 169.72,-64.21 168.53,-71.11"/>
</g>
<!-- Node4 -->
<g id="node4" class="node">
<title>Node4</title>
<g id="a_node4"><a xlink:href="classzero__mate_1_1peripheral_1_1CGPIO__Manager.html#a623c62636a57d6c63db1331a42100452" target="_top" xlink:title="Notifies external peripherals that subscribe to the given pin about the change of its state.">
<polygon fill="none" stroke="black" points="179,-0.5 179,-41.5 316,-41.5 316,-0.5 179,-0.5"/>
<text text-anchor="start" x="187" y="-29.5" font-family="Helvetica,sans-Serif" font-size="10.00">zero_mate::peripheral</text>
<text text-anchor="start" x="187" y="-18.5" font-family="Helvetica,sans-Serif" font-size="10.00">::CGPIO_Manager::Notify</text>
<text text-anchor="middle" x="247.5" y="-7.5" font-family="Helvetica,sans-Serif" font-size="10.00">_External_Peripherals</text>
</a>
</g>
</g>
<!-- Node1&#45;&gt;Node4 -->
<g id="edge3" class="edge">
<title>Node1&#45;&gt;Node4</title>
<path fill="none" stroke="midnightblue" d="M143.02,-38.84C151.55,-37.37 160.3,-35.86 168.93,-34.37"/>
<polygon fill="midnightblue" stroke="midnightblue" points="169.72,-37.79 178.98,-32.64 168.53,-30.89 169.72,-37.79"/>
</g>
<!-- Node3 -->
<g id="node3" class="node">
<title>Node3</title>
<g id="a_node3"><a xlink:href="classzero__mate_1_1peripheral_1_1CGPIO__Manager.html#aa6b0515a8e4fecb78bebfbb79a13994b" target="_top" xlink:title="Returns the index of the register (out of the two alternatives) based on the pin index.">
<polygon fill="none" stroke="black" points="352,-60.5 352,-101.5 477,-101.5 477,-60.5 352,-60.5"/>
<text text-anchor="start" x="360" y="-89.5" font-family="Helvetica,sans-Serif" font-size="10.00">zero_mate::peripheral</text>
<text text-anchor="start" x="360" y="-78.5" font-family="Helvetica,sans-Serif" font-size="10.00">::CGPIO_Manager::Get</text>
<text text-anchor="middle" x="414.5" y="-67.5" font-family="Helvetica,sans-Serif" font-size="10.00">_Register_Index</text>
</a>
</g>
</g>
<!-- Node2&#45;&gt;Node3 -->
<g id="edge2" class="edge">
<title>Node2&#45;&gt;Node3</title>
<path fill="none" stroke="midnightblue" d="M316.09,-81C324.5,-81 333.13,-81 341.61,-81"/>
<polygon fill="midnightblue" stroke="midnightblue" points="341.85,-84.5 351.85,-81 341.85,-77.5 341.85,-84.5"/>
</g>
</g>
</svg>
