<?xml version="1.0" encoding="UTF-8" standalone="no"?>
<!DOCTYPE svg PUBLIC "-//W3C//DTD SVG 1.1//EN"
 "http://www.w3.org/Graphics/SVG/1.1/DTD/svg11.dtd">
<!-- Generated by graphviz version 2.43.0 (0)
 -->
<!-- Title: zero_mate::arm1176jzf_s::CCPU_Context::Init_Undefined_Banked_Regs Pages: 1 -->
<svg width="662pt" height="110pt"
 viewBox="0.00 0.00 662.00 110.00" xmlns="http://www.w3.org/2000/svg" xmlns:xlink="http://www.w3.org/1999/xlink">
<g id="graph0" class="graph" transform="scale(1 1) rotate(0) translate(4 106)">
<title>zero_mate::arm1176jzf_s::CCPU_Context::Init_Undefined_Banked_Regs</title>
<!-- Node1 -->
<g id="node1" class="node">
<title>Node1</title>
<g id="a_node1"><a xlink:title="Resets the banked registers of the Undefined mode to 0.">
<polygon fill="#bfbfbf" stroke="black" points="512,-30.5 512,-71.5 654,-71.5 654,-30.5 512,-30.5"/>
<text text-anchor="start" x="520" y="-59.5" font-family="Helvetica,sans-Serif" font-size="10.00">zero_mate::arm1176jzf</text>
<text text-anchor="start" x="520" y="-48.5" font-family="Helvetica,sans-Serif" font-size="10.00">_s::CCPU_Context::Init</text>
<text text-anchor="middle" x="583" y="-37.5" font-family="Helvetica,sans-Serif" font-size="10.00">_Undefined_Banked_Regs</text>
</a>
</g>
</g>
<!-- Node2 -->
<g id="node2" class="node">
<title>Node2</title>
<g id="a_node2"><a xlink:href="classzero__mate_1_1arm1176jzf__s_1_1CCPU__Context.html#a2f550e28044af7ff0ddb866527a95356" target="_top" xlink:title="Initializes (resets) all CPU registers.">
<polygon fill="none" stroke="black" points="346,-30.5 346,-71.5 476,-71.5 476,-30.5 346,-30.5"/>
<text text-anchor="start" x="354" y="-59.5" font-family="Helvetica,sans-Serif" font-size="10.00">zero_mate::arm1176jzf</text>
<text text-anchor="start" x="354" y="-48.5" font-family="Helvetica,sans-Serif" font-size="10.00">_s::CCPU_Context::Init</text>
<text text-anchor="middle" x="411" y="-37.5" font-family="Helvetica,sans-Serif" font-size="10.00">_Registers</text>
</a>
</g>
</g>
<!-- Node1&#45;&gt;Node2 -->
<g id="edge1" class="edge">
<title>Node1&#45;&gt;Node2</title>
<path fill="none" stroke="midnightblue" d="M501.85,-51C493.26,-51 484.61,-51 476.24,-51"/>
<polygon fill="midnightblue" stroke="midnightblue" points="501.87,-54.5 511.87,-51 501.87,-47.5 501.87,-54.5"/>
</g>
<!-- Node3 -->
<g id="node3" class="node">
<title>Node3</title>
<g id="a_node3"><a xlink:href="classzero__mate_1_1arm1176jzf__s_1_1CCPU__Context.html#a286edf7ca93bc920f9896b5b777b4b8b" target="_top" xlink:title="Resets the context of the CPU.">
<polygon fill="none" stroke="black" points="173,-36 173,-66 310,-66 310,-36 173,-36"/>
<text text-anchor="start" x="181" y="-54" font-family="Helvetica,sans-Serif" font-size="10.00">zero_mate::arm1176jzf</text>
<text text-anchor="middle" x="241.5" y="-43" font-family="Helvetica,sans-Serif" font-size="10.00">_s::CCPU_Context::Reset</text>
</a>
</g>
</g>
<!-- Node2&#45;&gt;Node3 -->
<g id="edge2" class="edge">
<title>Node2&#45;&gt;Node3</title>
<path fill="none" stroke="midnightblue" d="M335.53,-51C327.1,-51 318.55,-51 310.22,-51"/>
<polygon fill="midnightblue" stroke="midnightblue" points="335.72,-54.5 345.72,-51 335.72,-47.5 335.72,-54.5"/>
</g>
<!-- Node4 -->
<g id="node4" class="node">
<title>Node4</title>
<g id="a_node4"><a xlink:href="classzero__mate_1_1arm1176jzf__s_1_1CCPU__Context.html#afb2bc49ac16284a27b81cec3322f8898" target="_top" xlink:title="Constructor of the class.">
<polygon fill="none" stroke="black" points="0,-60.5 0,-101.5 137,-101.5 137,-60.5 0,-60.5"/>
<text text-anchor="start" x="8" y="-89.5" font-family="Helvetica,sans-Serif" font-size="10.00">zero_mate::arm1176jzf</text>
<text text-anchor="start" x="8" y="-78.5" font-family="Helvetica,sans-Serif" font-size="10.00">_s::CCPU_Context::CCPU</text>
<text text-anchor="middle" x="68.5" y="-67.5" font-family="Helvetica,sans-Serif" font-size="10.00">_Context</text>
</a>
</g>
</g>
<!-- Node3&#45;&gt;Node4 -->
<g id="edge3" class="edge">
<title>Node3&#45;&gt;Node4</title>
<path fill="none" stroke="midnightblue" d="M162.9,-64.61C154.31,-66.12 145.61,-67.65 137.15,-69.13"/>
<polygon fill="midnightblue" stroke="midnightblue" points="163.67,-68.03 172.92,-62.86 162.46,-61.14 163.67,-68.03"/>
</g>
<!-- Node5 -->
<g id="node5" class="node">
<title>Node5</title>
<g id="a_node5"><a xlink:href="classzero__mate_1_1arm1176jzf__s_1_1CCPU__Core.html#acb9dcca2bec495d4424c6183c6ac7064" target="_top" xlink:title="Resets the CPU context.">
<polygon fill="none" stroke="black" points="3.5,-0.5 3.5,-41.5 133.5,-41.5 133.5,-0.5 3.5,-0.5"/>
<text text-anchor="start" x="11.5" y="-29.5" font-family="Helvetica,sans-Serif" font-size="10.00">zero_mate::arm1176jzf</text>
<text text-anchor="start" x="11.5" y="-18.5" font-family="Helvetica,sans-Serif" font-size="10.00">_s::CCPU_Core::Reset</text>
<text text-anchor="middle" x="68.5" y="-7.5" font-family="Helvetica,sans-Serif" font-size="10.00">_Context</text>
</a>
</g>
</g>
<!-- Node3&#45;&gt;Node5 -->
<g id="edge4" class="edge">
<title>Node3&#45;&gt;Node5</title>
<path fill="none" stroke="midnightblue" d="M162.79,-37.37C153,-35.65 143.07,-33.91 133.53,-32.23"/>
<polygon fill="midnightblue" stroke="midnightblue" points="162.46,-40.86 172.92,-39.14 163.67,-33.97 162.46,-40.86"/>
</g>
</g>
</svg>
