<?xml version="1.0" encoding="UTF-8" standalone="no"?>
<!DOCTYPE svg PUBLIC "-//W3C//DTD SVG 1.1//EN"
 "http://www.w3.org/Graphics/SVG/1.1/DTD/svg11.dtd">
<!-- Generated by graphviz version 2.43.0 (0)
 -->
<!-- Title: zero_mate::arm1176jzf_s::CCPU_Core::Execute Pages: 1 -->
<svg width="522pt" height="387pt"
 viewBox="0.00 0.00 522.00 387.00" xmlns="http://www.w3.org/2000/svg" xmlns:xlink="http://www.w3.org/1999/xlink">
<g id="graph0" class="graph" transform="scale(1 1) rotate(0) translate(4 383)">
<title>zero_mate::arm1176jzf_s::CCPU_Core::Execute</title>
<!-- Node1 -->
<g id="node1" class="node">
<title>Node1</title>
<g id="a_node1"><a xlink:title="Executes a single instruction.">
<polygon fill="#bfbfbf" stroke="black" points="0,-156 0,-186 132,-186 132,-156 0,-156"/>
<text text-anchor="start" x="8" y="-174" font-family="Helvetica,sans-Serif" font-size="10.00">zero_mate::arm1176jzf</text>
<text text-anchor="middle" x="66" y="-163" font-family="Helvetica,sans-Serif" font-size="10.00">_s::CCPU_Core::Execute</text>
</a>
</g>
</g>
<!-- Node2 -->
<g id="node2" class="node">
<title>Node2</title>
<g id="a_node2"><a xlink:href="classzero__mate_1_1arm1176jzf__s_1_1CCPU__Core.html#a1274541dc5225c51feceb54dd709f0e4" target="_top" xlink:title="If there are any pending interrupts, it throws the exceptions::CIRQ exception.">
<polygon fill="none" stroke="black" points="182.5,-290.5 182.5,-331.5 312.5,-331.5 312.5,-290.5 182.5,-290.5"/>
<text text-anchor="start" x="190.5" y="-319.5" font-family="Helvetica,sans-Serif" font-size="10.00">zero_mate::arm1176jzf</text>
<text text-anchor="start" x="190.5" y="-308.5" font-family="Helvetica,sans-Serif" font-size="10.00">_s::CCPU_Core::Check</text>
<text text-anchor="middle" x="247.5" y="-297.5" font-family="Helvetica,sans-Serif" font-size="10.00">_For_Pending_IRQ</text>
</a>
</g>
</g>
<!-- Node1&#45;&gt;Node2 -->
<g id="edge1" class="edge">
<title>Node1&#45;&gt;Node2</title>
<path fill="none" stroke="midnightblue" d="M77.38,-186.23C94,-209.59 128.75,-254.35 168,-281 170.38,-282.61 172.85,-284.16 175.4,-285.63"/>
<polygon fill="midnightblue" stroke="midnightblue" points="173.8,-288.75 184.27,-290.37 177.1,-282.57 173.8,-288.75"/>
</g>
<!-- Node3 -->
<g id="node3" class="node">
<title>Node3</title>
<g id="a_node3"><a xlink:href="classzero__mate_1_1arm1176jzf__s_1_1CCPU__Core.html#af500d91bd836a74df0e758990c4ecc7d" target="_top" xlink:title=" ">
<polygon fill="none" stroke="black" points="181.5,-241 181.5,-271 313.5,-271 313.5,-241 181.5,-241"/>
<text text-anchor="start" x="189.5" y="-259" font-family="Helvetica,sans-Serif" font-size="10.00">zero_mate::arm1176jzf</text>
<text text-anchor="middle" x="247.5" y="-248" font-family="Helvetica,sans-Serif" font-size="10.00">_s::CCPU_Core::Execute</text>
</a>
</g>
</g>
<!-- Node1&#45;&gt;Node3 -->
<g id="edge2" class="edge">
<title>Node1&#45;&gt;Node3</title>
<path fill="none" stroke="midnightblue" d="M89.07,-186.11C109.02,-199.28 139.53,-218.21 168,-231 173.06,-233.27 178.38,-235.43 183.77,-237.45"/>
<polygon fill="midnightblue" stroke="midnightblue" points="182.92,-240.87 193.52,-240.95 185.29,-234.28 182.92,-240.87"/>
</g>
<!-- Node4 -->
<g id="node4" class="node">
<title>Node4</title>
<g id="a_node4"><a xlink:href="classzero__mate_1_1arm1176jzf__s_1_1CCPU__Core.html#a85e6ef006a36e1adb56abd3ecc6481be" target="_top" xlink:title="Executes a CPU exception.">
<polygon fill="none" stroke="black" points="181.5,-180.5 181.5,-221.5 313.5,-221.5 313.5,-180.5 181.5,-180.5"/>
<text text-anchor="start" x="189.5" y="-209.5" font-family="Helvetica,sans-Serif" font-size="10.00">zero_mate::arm1176jzf</text>
<text text-anchor="start" x="189.5" y="-198.5" font-family="Helvetica,sans-Serif" font-size="10.00">_s::CCPU_Core::Execute</text>
<text text-anchor="middle" x="247.5" y="-187.5" font-family="Helvetica,sans-Serif" font-size="10.00">_Exception</text>
</a>
</g>
</g>
<!-- Node1&#45;&gt;Node4 -->
<g id="edge3" class="edge">
<title>Node1&#45;&gt;Node4</title>
<path fill="none" stroke="midnightblue" d="M132.06,-181.87C144.85,-184.01 158.37,-186.27 171.46,-188.46"/>
<polygon fill="midnightblue" stroke="midnightblue" points="170.92,-191.92 181.36,-190.11 172.08,-185.01 170.92,-191.92"/>
</g>
<!-- Node10 -->
<g id="node10" class="node">
<title>Node10</title>
<g id="a_node10"><a xlink:href="classzero__mate_1_1arm1176jzf__s_1_1isa_1_1CISA__Decoder.html#ace4e1013614b87601866df1679a42e6e" target="_top" xlink:title="Looks up an instruction type in the instruction look&#45;up table.">
<polygon fill="none" stroke="black" points="182.5,-120.5 182.5,-161.5 312.5,-161.5 312.5,-120.5 182.5,-120.5"/>
<text text-anchor="start" x="190.5" y="-149.5" font-family="Helvetica,sans-Serif" font-size="10.00">zero_mate::arm1176jzf</text>
<text text-anchor="start" x="190.5" y="-138.5" font-family="Helvetica,sans-Serif" font-size="10.00">_s::isa::CISA_Decoder</text>
<text text-anchor="middle" x="247.5" y="-127.5" font-family="Helvetica,sans-Serif" font-size="10.00">::Get_Instruction_Type</text>
</a>
</g>
</g>
<!-- Node1&#45;&gt;Node10 -->
<g id="edge9" class="edge">
<title>Node1&#45;&gt;Node10</title>
<path fill="none" stroke="midnightblue" d="M132.06,-160.13C145.09,-157.95 158.87,-155.64 172.19,-153.42"/>
<polygon fill="midnightblue" stroke="midnightblue" points="172.98,-156.84 182.27,-151.74 171.83,-149.93 172.98,-156.84"/>
</g>
<!-- Node11 -->
<g id="node11" class="node">
<title>Node11</title>
<g id="a_node11"><a xlink:href="classzero__mate_1_1arm1176jzf__s_1_1CCPU__Core.html#ae71d278b2aa5b43c174c50ee2d7aa281" target="_top" xlink:title="Checks whether a given instruction should be executed or skipped based on its condition field.">
<polygon fill="none" stroke="black" points="168,-60.5 168,-101.5 327,-101.5 327,-60.5 168,-60.5"/>
<text text-anchor="start" x="176" y="-89.5" font-family="Helvetica,sans-Serif" font-size="10.00">zero_mate::arm1176jzf</text>
<text text-anchor="start" x="176" y="-78.5" font-family="Helvetica,sans-Serif" font-size="10.00">_s::CCPU_Core::Is_Instruction</text>
<text text-anchor="middle" x="247.5" y="-67.5" font-family="Helvetica,sans-Serif" font-size="10.00">_Condition_Met</text>
</a>
</g>
</g>
<!-- Node1&#45;&gt;Node11 -->
<g id="edge10" class="edge">
<title>Node1&#45;&gt;Node11</title>
<path fill="none" stroke="midnightblue" d="M90.04,-155.77C110.12,-142.88 140.28,-124.41 168,-111 171.77,-109.18 175.68,-107.39 179.65,-105.64"/>
<polygon fill="midnightblue" stroke="midnightblue" points="181.16,-108.8 188.99,-101.67 178.42,-102.36 181.16,-108.8"/>
</g>
<!-- Node13 -->
<g id="node13" class="node">
<title>Node13</title>
<g id="a_node13"><a xlink:href="classzero__mate_1_1arm1176jzf__s_1_1CCPU__Core.html#ae73e94e5c041f3d0f32d405a326fcf77" target="_top" xlink:title="Updates all CPU cycle listeners.">
<polygon fill="none" stroke="black" points="182.5,-0.5 182.5,-41.5 312.5,-41.5 312.5,-0.5 182.5,-0.5"/>
<text text-anchor="start" x="190.5" y="-29.5" font-family="Helvetica,sans-Serif" font-size="10.00">zero_mate::arm1176jzf</text>
<text text-anchor="start" x="190.5" y="-18.5" font-family="Helvetica,sans-Serif" font-size="10.00">_s::CCPU_Core::Update</text>
<text text-anchor="middle" x="247.5" y="-7.5" font-family="Helvetica,sans-Serif" font-size="10.00">_Cycle_Listeners</text>
</a>
</g>
</g>
<!-- Node1&#45;&gt;Node13 -->
<g id="edge12" class="edge">
<title>Node1&#45;&gt;Node13</title>
<path fill="none" stroke="midnightblue" d="M76.01,-155.98C91.74,-130.94 126.5,-80.51 168,-51 170.13,-49.48 172.35,-48.03 174.64,-46.64"/>
<polygon fill="midnightblue" stroke="midnightblue" points="176.67,-49.52 183.71,-41.6 173.27,-43.4 176.67,-49.52"/>
</g>
<!-- Node5 -->
<g id="node5" class="node">
<title>Node5</title>
<g id="a_node5"><a xlink:href="classzero__mate_1_1arm1176jzf__s_1_1exceptions_1_1CCPU__Exception.html#ab18a4a4b6a54029ccf141784cfe9c737" target="_top" xlink:title="Returns the mode into which the CPU will switch when the exception is thrown.">
<polygon fill="none" stroke="black" points="363,-337.5 363,-378.5 514,-378.5 514,-337.5 363,-337.5"/>
<text text-anchor="start" x="371" y="-366.5" font-family="Helvetica,sans-Serif" font-size="10.00">zero_mate::arm1176jzf</text>
<text text-anchor="start" x="371" y="-355.5" font-family="Helvetica,sans-Serif" font-size="10.00">_s::exceptions::CCPU</text>
<text text-anchor="middle" x="438.5" y="-344.5" font-family="Helvetica,sans-Serif" font-size="10.00">_Exception::Get_CPU_Mode</text>
</a>
</g>
</g>
<!-- Node4&#45;&gt;Node5 -->
<g id="edge4" class="edge">
<title>Node4&#45;&gt;Node5</title>
<path fill="none" stroke="midnightblue" d="M313.83,-221.51C318.62,-224.55 323.1,-228.03 327,-232 358.94,-264.5 331.17,-295.39 363,-328 364.07,-329.09 365.18,-330.14 366.33,-331.16"/>
<polygon fill="midnightblue" stroke="midnightblue" points="364.35,-334.05 374.42,-337.34 368.59,-328.49 364.35,-334.05"/>
</g>
<!-- Node6 -->
<g id="node6" class="node">
<title>Node6</title>
<g id="a_node6"><a xlink:href="classzero__mate_1_1arm1176jzf__s_1_1exceptions_1_1CCPU__Exception.html#ae87c33c76ed6571b2408fd293710b6c4" target="_top" xlink:title="Returns the address of the handler of the exception.">
<polygon fill="none" stroke="black" points="365.5,-266 365.5,-318 511.5,-318 511.5,-266 365.5,-266"/>
<text text-anchor="start" x="373.5" y="-306" font-family="Helvetica,sans-Serif" font-size="10.00">zero_mate::arm1176jzf</text>
<text text-anchor="start" x="373.5" y="-295" font-family="Helvetica,sans-Serif" font-size="10.00">_s::exceptions::CCPU</text>
<text text-anchor="start" x="373.5" y="-284" font-family="Helvetica,sans-Serif" font-size="10.00">_Exception::Get_Exception</text>
<text text-anchor="middle" x="438.5" y="-273" font-family="Helvetica,sans-Serif" font-size="10.00">_Vector</text>
</a>
</g>
</g>
<!-- Node4&#45;&gt;Node6 -->
<g id="edge5" class="edge">
<title>Node4&#45;&gt;Node6</title>
<path fill="none" stroke="midnightblue" d="M304.9,-221.59C312.44,-224.83 319.99,-228.33 327,-232 344.04,-240.91 346.3,-246.46 363,-256 366.02,-257.73 369.14,-259.45 372.31,-261.15"/>
<polygon fill="midnightblue" stroke="midnightblue" points="370.85,-264.34 381.33,-265.89 374.11,-258.14 370.85,-264.34"/>
</g>
<!-- Node7 -->
<g id="node7" class="node">
<title>Node7</title>
<g id="a_node7"><a xlink:href="classzero__mate_1_1arm1176jzf__s_1_1exceptions_1_1CCPU__Exception.html#aabb81de8a3e09534245ef3851a31c3c0" target="_top" xlink:title="Returns the type of the exception.">
<polygon fill="none" stroke="black" points="373.5,-205.5 373.5,-246.5 503.5,-246.5 503.5,-205.5 373.5,-205.5"/>
<text text-anchor="start" x="381.5" y="-234.5" font-family="Helvetica,sans-Serif" font-size="10.00">zero_mate::arm1176jzf</text>
<text text-anchor="start" x="381.5" y="-223.5" font-family="Helvetica,sans-Serif" font-size="10.00">_s::exceptions::CCPU</text>
<text text-anchor="middle" x="438.5" y="-212.5" font-family="Helvetica,sans-Serif" font-size="10.00">_Exception::Get_Type</text>
</a>
</g>
</g>
<!-- Node4&#45;&gt;Node7 -->
<g id="edge6" class="edge">
<title>Node4&#45;&gt;Node7</title>
<path fill="none" stroke="midnightblue" d="M313.54,-209.6C329.55,-211.72 346.81,-214 363.21,-216.17"/>
<polygon fill="midnightblue" stroke="midnightblue" points="362.92,-219.67 373.3,-217.51 363.84,-212.73 362.92,-219.67"/>
</g>
<!-- Node8 -->
<g id="node8" class="node">
<title>Node8</title>
<g id="a_node8"><a xlink:href="classzero__mate_1_1arm1176jzf__s_1_1CCPU__Core.html#a423eacd01e574e782a2b7cf51f28c56c" target="_top" xlink:title="Returns a reference to the PC register (r15)">
<polygon fill="none" stroke="black" points="373.5,-156 373.5,-186 503.5,-186 503.5,-156 373.5,-156"/>
<text text-anchor="start" x="381.5" y="-174" font-family="Helvetica,sans-Serif" font-size="10.00">zero_mate::arm1176jzf</text>
<text text-anchor="middle" x="438.5" y="-163" font-family="Helvetica,sans-Serif" font-size="10.00">_s::CCPU_Core::PC</text>
</a>
</g>
</g>
<!-- Node4&#45;&gt;Node8 -->
<g id="edge7" class="edge">
<title>Node4&#45;&gt;Node8</title>
<path fill="none" stroke="midnightblue" d="M313.54,-190.68C329.55,-188.14 346.81,-185.4 363.21,-182.79"/>
<polygon fill="midnightblue" stroke="midnightblue" points="363.97,-186.22 373.3,-181.19 362.87,-179.3 363.97,-186.22"/>
</g>
<!-- Node9 -->
<g id="node9" class="node">
<title>Node9</title>
<g id="a_node9"><a xlink:href="classzero__mate_1_1arm1176jzf__s_1_1CCPU__Context.html#a7efff674f8141eab73cb69099220f0d5" target="_top" xlink:title="Sets the mode of the CPU.">
<polygon fill="none" stroke="black" points="373.5,-95.5 373.5,-136.5 503.5,-136.5 503.5,-95.5 373.5,-95.5"/>
<text text-anchor="start" x="381.5" y="-124.5" font-family="Helvetica,sans-Serif" font-size="10.00">zero_mate::arm1176jzf</text>
<text text-anchor="start" x="381.5" y="-113.5" font-family="Helvetica,sans-Serif" font-size="10.00">_s::CCPU_Context::Set</text>
<text text-anchor="middle" x="438.5" y="-102.5" font-family="Helvetica,sans-Serif" font-size="10.00">_CPU_Mode</text>
</a>
</g>
</g>
<!-- Node4&#45;&gt;Node9 -->
<g id="edge8" class="edge">
<title>Node4&#45;&gt;Node9</title>
<path fill="none" stroke="midnightblue" d="M306.59,-180.49C313.57,-177.53 320.52,-174.35 327,-171 344.09,-162.18 346.04,-156.07 363,-147 366.93,-144.9 371.03,-142.84 375.2,-140.85"/>
<polygon fill="midnightblue" stroke="midnightblue" points="376.79,-143.97 384.4,-136.6 373.86,-137.61 376.79,-143.97"/>
</g>
<!-- Node12 -->
<g id="node12" class="node">
<title>Node12</title>
<g id="a_node12"><a xlink:href="classzero__mate_1_1arm1176jzf__s_1_1isa_1_1CInstruction.html#aedbef9330e0e59007d0b05841a626d21" target="_top" xlink:title="Returns the condition field of the instruction.">
<polygon fill="none" stroke="black" points="373.5,-35.5 373.5,-76.5 503.5,-76.5 503.5,-35.5 373.5,-35.5"/>
<text text-anchor="start" x="381.5" y="-64.5" font-family="Helvetica,sans-Serif" font-size="10.00">zero_mate::arm1176jzf</text>
<text text-anchor="start" x="381.5" y="-53.5" font-family="Helvetica,sans-Serif" font-size="10.00">_s::isa::CInstruction</text>
<text text-anchor="middle" x="438.5" y="-42.5" font-family="Helvetica,sans-Serif" font-size="10.00">::Get_Condition</text>
</a>
</g>
</g>
<!-- Node11&#45;&gt;Node12 -->
<g id="edge11" class="edge">
<title>Node11&#45;&gt;Node12</title>
<path fill="none" stroke="midnightblue" d="M327.01,-70.61C338.93,-69.04 351.21,-67.41 363.04,-65.85"/>
<polygon fill="midnightblue" stroke="midnightblue" points="363.85,-69.27 373.31,-64.49 362.93,-62.33 363.85,-69.27"/>
</g>
</g>
</svg>
