<?xml version="1.0" encoding="UTF-8" standalone="no"?>
<!DOCTYPE svg PUBLIC "-//W3C//DTD SVG 1.1//EN"
 "http://www.w3.org/Graphics/SVG/1.1/DTD/svg11.dtd">
<!-- Generated by graphviz version 2.43.0 (0)
 -->
<!-- Title: zero_mate::arm1176jzf_s::CCPU_Core::Execute Pages: 1 -->
<svg width="1120pt" height="181pt"
 viewBox="0.00 0.00 1120.00 180.50" xmlns="http://www.w3.org/2000/svg" xmlns:xlink="http://www.w3.org/1999/xlink">
<g id="graph0" class="graph" transform="scale(1 1) rotate(0) translate(4 176.5)">
<title>zero_mate::arm1176jzf_s::CCPU_Core::Execute</title>
<!-- Node1 -->
<g id="node1" class="node">
<title>Node1</title>
<g id="a_node1"><a xlink:title="Executes a coprocessor data transfer instruction (coprocessor instruction (2)).">
<polygon fill="#bfbfbf" stroke="black" points="0,-36 0,-66 132,-66 132,-36 0,-36"/>
<text text-anchor="start" x="8" y="-54" font-family="Helvetica,sans-Serif" font-size="10.00">zero_mate::arm1176jzf</text>
<text text-anchor="middle" x="66" y="-43" font-family="Helvetica,sans-Serif" font-size="10.00">_s::CCPU_Core::Execute</text>
</a>
</g>
</g>
<!-- Node2 -->
<g id="node2" class="node">
<title>Node2</title>
<g id="a_node2"><a xlink:href="classzero__mate_1_1arm1176jzf__s_1_1CCPU__Core.html#a9d662bbaf486e8924698ecf2208d0d73" target="_top" xlink:title="Performs coprocessor accessibility checks.">
<polygon fill="none" stroke="black" points="168,-30.5 168,-71.5 357,-71.5 357,-30.5 168,-30.5"/>
<text text-anchor="start" x="176" y="-59.5" font-family="Helvetica,sans-Serif" font-size="10.00">zero_mate::arm1176jzf</text>
<text text-anchor="start" x="176" y="-48.5" font-family="Helvetica,sans-Serif" font-size="10.00">_s::CCPU_Core::Perform</text>
<text text-anchor="middle" x="262.5" y="-37.5" font-family="Helvetica,sans-Serif" font-size="10.00">_Coprocessor_Accessibility_Checks</text>
</a>
</g>
</g>
<!-- Node1&#45;&gt;Node2 -->
<g id="edge1" class="edge">
<title>Node1&#45;&gt;Node2</title>
<path fill="none" stroke="midnightblue" d="M132.04,-51C140.29,-51 148.9,-51 157.57,-51"/>
<polygon fill="midnightblue" stroke="midnightblue" points="157.77,-54.5 167.77,-51 157.77,-47.5 157.77,-54.5"/>
</g>
<!-- Node3 -->
<g id="node3" class="node">
<title>Node3</title>
<g id="a_node3"><a xlink:href="classzero__mate_1_1arm1176jzf__s_1_1CCPU__Core.html#a91c67a1c5fa304f2a58e0ab07ce7e8ac" target="_top" xlink:title="Checks whether a given coprocessor is present or not.">
<polygon fill="none" stroke="black" points="404,-60.5 404,-101.5 535,-101.5 535,-60.5 404,-60.5"/>
<text text-anchor="start" x="412" y="-89.5" font-family="Helvetica,sans-Serif" font-size="10.00">zero_mate::arm1176jzf</text>
<text text-anchor="start" x="412" y="-78.5" font-family="Helvetica,sans-Serif" font-size="10.00">_s::CCPU_Core::Check</text>
<text text-anchor="middle" x="469.5" y="-67.5" font-family="Helvetica,sans-Serif" font-size="10.00">_Coprocessor_Presence</text>
</a>
</g>
</g>
<!-- Node2&#45;&gt;Node3 -->
<g id="edge2" class="edge">
<title>Node2&#45;&gt;Node3</title>
<path fill="none" stroke="midnightblue" d="M357,-64.68C369.38,-66.49 381.93,-68.33 393.93,-70.09"/>
<polygon fill="midnightblue" stroke="midnightblue" points="393.46,-73.56 403.86,-71.54 394.47,-66.63 393.46,-73.56"/>
</g>
<!-- Node9 -->
<g id="node9" class="node">
<title>Node9</title>
<g id="a_node9"><a xlink:href="classzero__mate_1_1arm1176jzf__s_1_1CCPU__Core.html#a0dbd5d6ffc531f762b49956d27f93be3" target="_top" xlink:title="Checks whether a given coprocessor can be accessed from the current CPU mode.">
<polygon fill="none" stroke="black" points="393,-0.5 393,-41.5 546,-41.5 546,-0.5 393,-0.5"/>
<text text-anchor="start" x="401" y="-29.5" font-family="Helvetica,sans-Serif" font-size="10.00">zero_mate::arm1176jzf</text>
<text text-anchor="start" x="401" y="-18.5" font-family="Helvetica,sans-Serif" font-size="10.00">_s::CCPU_Core::Checks</text>
<text text-anchor="middle" x="469.5" y="-7.5" font-family="Helvetica,sans-Serif" font-size="10.00">_Coprocessor_Access_Mode</text>
</a>
</g>
</g>
<!-- Node2&#45;&gt;Node9 -->
<g id="edge8" class="edge">
<title>Node2&#45;&gt;Node9</title>
<path fill="none" stroke="midnightblue" d="M357,-37.32C365.65,-36.05 374.39,-34.77 382.97,-33.52"/>
<polygon fill="midnightblue" stroke="midnightblue" points="383.56,-36.97 392.95,-32.06 382.54,-30.04 383.56,-36.97"/>
</g>
<!-- Node4 -->
<g id="node4" class="node">
<title>Node4</title>
<g id="a_node4"><a xlink:href="classzero__mate_1_1utils_1_1CLogging__System.html#a57ed77e1a5cf822cea532cc5e05c3f60" target="_top" xlink:title="Logs an error message via all registered loggers.">
<polygon fill="none" stroke="black" points="582,-64 582,-94 728,-94 728,-64 582,-64"/>
<text text-anchor="start" x="590" y="-82" font-family="Helvetica,sans-Serif" font-size="10.00">zero_mate::utils::CLogging</text>
<text text-anchor="middle" x="655" y="-71" font-family="Helvetica,sans-Serif" font-size="10.00">_System::Error</text>
</a>
</g>
</g>
<!-- Node3&#45;&gt;Node4 -->
<g id="edge3" class="edge">
<title>Node3&#45;&gt;Node4</title>
<path fill="none" stroke="midnightblue" d="M535.2,-80.29C546.96,-80.17 559.39,-80.03 571.59,-79.9"/>
<polygon fill="midnightblue" stroke="midnightblue" points="571.8,-83.4 581.76,-79.79 571.72,-76.4 571.8,-83.4"/>
</g>
<!-- Node5 -->
<g id="node5" class="node">
<title>Node5</title>
<g id="a_node5"><a xlink:href="classzero__mate_1_1utils_1_1CLogging__System.html#a71ed11c796553cbe8fd99773406a1060" target="_top" xlink:title="Creates a formatted message to be logged.">
<polygon fill="none" stroke="black" points="764,-112.5 764,-153.5 916,-153.5 916,-112.5 764,-112.5"/>
<text text-anchor="start" x="772" y="-141.5" font-family="Helvetica,sans-Serif" font-size="10.00">zero_mate::utils::CLogging</text>
<text text-anchor="start" x="772" y="-130.5" font-family="Helvetica,sans-Serif" font-size="10.00">_System::Create_Formatted</text>
<text text-anchor="middle" x="840" y="-119.5" font-family="Helvetica,sans-Serif" font-size="10.00">_Log_Msg</text>
</a>
</g>
</g>
<!-- Node4&#45;&gt;Node5 -->
<g id="edge4" class="edge">
<title>Node4&#45;&gt;Node5</title>
<path fill="none" stroke="midnightblue" d="M706.98,-94.04C723.31,-98.86 741.79,-104.32 759.65,-109.59"/>
<polygon fill="midnightblue" stroke="midnightblue" points="758.91,-113.02 769.49,-112.49 760.89,-106.3 758.91,-113.02"/>
</g>
<!-- Node8 -->
<g id="node8" class="node">
<title>Node8</title>
<g id="a_node8"><a xlink:href="classzero__mate_1_1utils_1_1CLogging__System.html#ad371c67ef65763966ccf9291002e86f3" target="_top" xlink:title="Extract the filename from a given location within the source files.">
<polygon fill="none" stroke="black" points="765.5,-63 765.5,-93 914.5,-93 914.5,-63 765.5,-63"/>
<text text-anchor="start" x="773.5" y="-81" font-family="Helvetica,sans-Serif" font-size="10.00">zero_mate::utils::CLogging</text>
<text text-anchor="middle" x="840" y="-70" font-family="Helvetica,sans-Serif" font-size="10.00">_System::Extract_Filename</text>
</a>
</g>
</g>
<!-- Node4&#45;&gt;Node8 -->
<g id="edge7" class="edge">
<title>Node4&#45;&gt;Node8</title>
<path fill="none" stroke="midnightblue" d="M728.06,-78.61C737,-78.56 746.2,-78.51 755.29,-78.46"/>
<polygon fill="midnightblue" stroke="midnightblue" points="755.52,-81.96 765.5,-78.4 755.48,-74.96 755.52,-81.96"/>
</g>
<!-- Node6 -->
<g id="node6" class="node">
<title>Node6</title>
<g id="a_node6"><a xlink:href="classzero__mate_1_1utils_1_1CLogging__System.html#aa70c102c805079042ffea2a6f2a5ad64" target="_top" xlink:title="Formats a given timestamp.">
<polygon fill="none" stroke="black" points="952,-142 952,-172 1112,-172 1112,-142 952,-142"/>
<text text-anchor="start" x="960" y="-160" font-family="Helvetica,sans-Serif" font-size="10.00">zero_mate::utils::CLogging</text>
<text text-anchor="middle" x="1032" y="-149" font-family="Helvetica,sans-Serif" font-size="10.00">_System::Format_Timestamp</text>
</a>
</g>
</g>
<!-- Node5&#45;&gt;Node6 -->
<g id="edge5" class="edge">
<title>Node5&#45;&gt;Node6</title>
<path fill="none" stroke="midnightblue" d="M916.09,-142.49C924.52,-143.55 933.16,-144.64 941.74,-145.73"/>
<polygon fill="midnightblue" stroke="midnightblue" points="941.41,-149.21 951.77,-146.99 942.29,-142.27 941.41,-149.21"/>
</g>
<!-- Node7 -->
<g id="node7" class="node">
<title>Node7</title>
<g id="a_node7"><a xlink:href="classzero__mate_1_1utils_1_1CLogging__System.html#ae3ca637537dde05e0b9119145c840331" target="_top" xlink:title="Returns the current timestamp that will be used in a log message.">
<polygon fill="none" stroke="black" points="959,-93 959,-123 1105,-123 1105,-93 959,-93"/>
<text text-anchor="start" x="967" y="-111" font-family="Helvetica,sans-Serif" font-size="10.00">zero_mate::utils::CLogging</text>
<text text-anchor="middle" x="1032" y="-100" font-family="Helvetica,sans-Serif" font-size="10.00">_System::Get_Timestamp</text>
</a>
</g>
</g>
<!-- Node5&#45;&gt;Node7 -->
<g id="edge6" class="edge">
<title>Node5&#45;&gt;Node7</title>
<path fill="none" stroke="midnightblue" d="M916.09,-123.12C926.89,-121.7 938.05,-120.23 948.98,-118.79"/>
<polygon fill="midnightblue" stroke="midnightblue" points="949.47,-122.26 958.93,-117.48 948.56,-115.32 949.47,-122.26"/>
</g>
<!-- Node9&#45;&gt;Node4 -->
<g id="edge9" class="edge">
<title>Node9&#45;&gt;Node4</title>
<path fill="none" stroke="midnightblue" d="M535.45,-41.53C555.47,-47.86 577.36,-54.78 596.82,-60.93"/>
<polygon fill="midnightblue" stroke="midnightblue" points="595.86,-64.29 606.45,-63.97 597.97,-57.62 595.86,-64.29"/>
</g>
<!-- Node10 -->
<g id="node10" class="node">
<title>Node10</title>
<g id="a_node10"><a xlink:href="classzero__mate_1_1arm1176jzf__s_1_1CCPU__Context.html#a573470217091c27cf30f1411ea453e5d" target="_top" xlink:title="Checks if the CPU is in a privileged mode.">
<polygon fill="none" stroke="black" points="590,-0.5 590,-41.5 720,-41.5 720,-0.5 590,-0.5"/>
<text text-anchor="start" x="598" y="-29.5" font-family="Helvetica,sans-Serif" font-size="10.00">zero_mate::arm1176jzf</text>
<text text-anchor="start" x="598" y="-18.5" font-family="Helvetica,sans-Serif" font-size="10.00">_s::CCPU_Context::Is</text>
<text text-anchor="middle" x="655" y="-7.5" font-family="Helvetica,sans-Serif" font-size="10.00">_In_Privileged_Mode</text>
</a>
</g>
</g>
<!-- Node9&#45;&gt;Node10 -->
<g id="edge10" class="edge">
<title>Node9&#45;&gt;Node10</title>
<path fill="none" stroke="midnightblue" d="M546.2,-21C557.31,-21 568.74,-21 579.82,-21"/>
<polygon fill="midnightblue" stroke="midnightblue" points="579.88,-24.5 589.88,-21 579.88,-17.5 579.88,-24.5"/>
</g>
<!-- Node11 -->
<g id="node11" class="node">
<title>Node11</title>
<g id="a_node11"><a xlink:href="classzero__mate_1_1arm1176jzf__s_1_1CCPU__Context.html#aa740f9219bb413d707ac72f373e60d3a" target="_top" xlink:title="Returns the current mode of the CPU.">
<polygon fill="none" stroke="black" points="775,-0.5 775,-41.5 905,-41.5 905,-0.5 775,-0.5"/>
<text text-anchor="start" x="783" y="-29.5" font-family="Helvetica,sans-Serif" font-size="10.00">zero_mate::arm1176jzf</text>
<text text-anchor="start" x="783" y="-18.5" font-family="Helvetica,sans-Serif" font-size="10.00">_s::CCPU_Context::Get</text>
<text text-anchor="middle" x="840" y="-7.5" font-family="Helvetica,sans-Serif" font-size="10.00">_CPU_Mode</text>
</a>
</g>
</g>
<!-- Node10&#45;&gt;Node11 -->
<g id="edge11" class="edge">
<title>Node10&#45;&gt;Node11</title>
<path fill="none" stroke="midnightblue" d="M720,-21C734.41,-21 749.81,-21 764.6,-21"/>
<polygon fill="midnightblue" stroke="midnightblue" points="764.72,-24.5 774.72,-21 764.72,-17.5 764.72,-24.5"/>
</g>
</g>
</svg>
