<?xml version="1.0" encoding="UTF-8" standalone="no"?>
<!DOCTYPE svg PUBLIC "-//W3C//DTD SVG 1.1//EN"
 "http://www.w3.org/Graphics/SVG/1.1/DTD/svg11.dtd">
<!-- Generated by graphviz version 2.43.0 (0)
 -->
<!-- Title: zero_mate::arm1176jzf_s::CCPU_Core::Execute_MRS Pages: 1 -->
<svg width="361pt" height="209pt"
 viewBox="0.00 0.00 361.00 209.00" xmlns="http://www.w3.org/2000/svg" xmlns:xlink="http://www.w3.org/1999/xlink">
<g id="graph0" class="graph" transform="scale(1 1) rotate(0) translate(4 205)">
<title>zero_mate::arm1176jzf_s::CCPU_Core::Execute_MRS</title>
<!-- Node1 -->
<g id="node1" class="node">
<title>Node1</title>
<g id="a_node1"><a xlink:title="Executes an MRS instruction (move data from CPSR/SPSR to an ARM register).">
<polygon fill="#bfbfbf" stroke="black" points="0,-85.5 0,-115.5 159,-115.5 159,-85.5 0,-85.5"/>
<text text-anchor="start" x="8" y="-103.5" font-family="Helvetica,sans-Serif" font-size="10.00">zero_mate::arm1176jzf</text>
<text text-anchor="middle" x="79.5" y="-92.5" font-family="Helvetica,sans-Serif" font-size="10.00">_s::CCPU_Core::Execute_MRS</text>
</a>
</g>
</g>
<!-- Node2 -->
<g id="node2" class="node">
<title>Node2</title>
<g id="a_node2"><a xlink:href="classzero__mate_1_1arm1176jzf__s_1_1CCPU__Context.html#acf66c6ff905975912dbf52133ddfeceb" target="_top" xlink:title=" ">
<polygon fill="none" stroke="black" points="195,-170.5 195,-200.5 353,-200.5 353,-170.5 195,-170.5"/>
<text text-anchor="start" x="203" y="-188.5" font-family="Helvetica,sans-Serif" font-size="10.00">zero_mate::arm1176jzf</text>
<text text-anchor="middle" x="274" y="-177.5" font-family="Helvetica,sans-Serif" font-size="10.00">_s::CCPU_Context::Get_CPSR</text>
</a>
</g>
</g>
<!-- Node1&#45;&gt;Node2 -->
<g id="edge1" class="edge">
<title>Node1&#45;&gt;Node2</title>
<path fill="none" stroke="midnightblue" d="M106.26,-115.64C129.07,-128.65 163.53,-147.33 195,-160.5 200.46,-162.79 206.21,-164.99 212.01,-167.08"/>
<polygon fill="midnightblue" stroke="midnightblue" points="211.18,-170.49 221.77,-170.48 213.48,-163.88 211.18,-170.49"/>
</g>
<!-- Node3 -->
<g id="node3" class="node">
<title>Node3</title>
<g id="a_node3"><a xlink:href="classzero__mate_1_1arm1176jzf__s_1_1isa_1_1CPSR__Transfer.html#a00b5bba41731bc7acf875645d64a88a6" target="_top" xlink:title=" ">
<polygon fill="none" stroke="black" points="209,-110 209,-151 339,-151 339,-110 209,-110"/>
<text text-anchor="start" x="217" y="-139" font-family="Helvetica,sans-Serif" font-size="10.00">zero_mate::arm1176jzf</text>
<text text-anchor="start" x="217" y="-128" font-family="Helvetica,sans-Serif" font-size="10.00">_s::isa::CPSR_Transfer</text>
<text text-anchor="middle" x="274" y="-117" font-family="Helvetica,sans-Serif" font-size="10.00">::Get_Rd</text>
</a>
</g>
</g>
<!-- Node1&#45;&gt;Node3 -->
<g id="edge2" class="edge">
<title>Node1&#45;&gt;Node3</title>
<path fill="none" stroke="midnightblue" d="M159.07,-112.75C172.12,-114.78 185.61,-116.88 198.55,-118.9"/>
<polygon fill="midnightblue" stroke="midnightblue" points="198.36,-122.41 208.78,-120.49 199.44,-115.49 198.36,-122.41"/>
</g>
<!-- Node4 -->
<g id="node4" class="node">
<title>Node4</title>
<g id="a_node4"><a xlink:href="classzero__mate_1_1arm1176jzf__s_1_1isa_1_1CPSR__Transfer.html#ada397b14e5cf27991a1b575c95f945bc" target="_top" xlink:title=" ">
<polygon fill="none" stroke="black" points="209,-50 209,-91 339,-91 339,-50 209,-50"/>
<text text-anchor="start" x="217" y="-79" font-family="Helvetica,sans-Serif" font-size="10.00">zero_mate::arm1176jzf</text>
<text text-anchor="start" x="217" y="-68" font-family="Helvetica,sans-Serif" font-size="10.00">_s::isa::CPSR_Transfer</text>
<text text-anchor="middle" x="274" y="-57" font-family="Helvetica,sans-Serif" font-size="10.00">::Get_Register_Type</text>
</a>
</g>
</g>
<!-- Node1&#45;&gt;Node4 -->
<g id="edge3" class="edge">
<title>Node1&#45;&gt;Node4</title>
<path fill="none" stroke="midnightblue" d="M159.07,-88.25C172.12,-86.22 185.61,-84.12 198.55,-82.1"/>
<polygon fill="midnightblue" stroke="midnightblue" points="199.44,-85.51 208.78,-80.51 198.36,-78.59 199.44,-85.51"/>
</g>
<!-- Node5 -->
<g id="node5" class="node">
<title>Node5</title>
<g id="a_node5"><a xlink:href="classzero__mate_1_1arm1176jzf__s_1_1CCPU__Context.html#ae00681efcbc4adfcfde001a67c5baeca" target="_top" xlink:title=" ">
<polygon fill="none" stroke="black" points="195.5,-0.5 195.5,-30.5 352.5,-30.5 352.5,-0.5 195.5,-0.5"/>
<text text-anchor="start" x="203.5" y="-18.5" font-family="Helvetica,sans-Serif" font-size="10.00">zero_mate::arm1176jzf</text>
<text text-anchor="middle" x="274" y="-7.5" font-family="Helvetica,sans-Serif" font-size="10.00">_s::CCPU_Context::Get_SPSR</text>
</a>
</g>
</g>
<!-- Node1&#45;&gt;Node5 -->
<g id="edge4" class="edge">
<title>Node1&#45;&gt;Node5</title>
<path fill="none" stroke="midnightblue" d="M106.26,-85.36C129.07,-72.35 163.53,-53.67 195,-40.5 200.46,-38.21 206.21,-36.01 212.01,-33.92"/>
<polygon fill="midnightblue" stroke="midnightblue" points="213.48,-37.12 221.77,-30.52 211.18,-30.51 213.48,-37.12"/>
</g>
</g>
</svg>
