<?xml version="1.0" encoding="UTF-8" standalone="no"?>
<!DOCTYPE svg PUBLIC "-//W3C//DTD SVG 1.1//EN"
 "http://www.w3.org/Graphics/SVG/1.1/DTD/svg11.dtd">
<!-- Generated by graphviz version 2.43.0 (0)
 -->
<!-- Title: zero_mate::gui::CRegisters_Window::Render Pages: 1 -->
<svg width="1719pt" height="298pt"
 viewBox="0.00 0.00 1719.00 297.50" xmlns="http://www.w3.org/2000/svg" xmlns:xlink="http://www.w3.org/1999/xlink">
<g id="graph0" class="graph" transform="scale(1 1) rotate(0) translate(4 293.5)">
<title>zero_mate::gui::CRegisters_Window::Render</title>
<!-- Node1 -->
<g id="node1" class="node">
<title>Node1</title>
<g id="a_node1"><a xlink:title="Renders the windows (IGUI_Window interface).">
<polygon fill="#bfbfbf" stroke="black" points="0,-194.5 0,-224.5 148,-224.5 148,-194.5 0,-194.5"/>
<text text-anchor="start" x="8" y="-212.5" font-family="Helvetica,sans-Serif" font-size="10.00">zero_mate::gui::CRegisters</text>
<text text-anchor="middle" x="74" y="-201.5" font-family="Helvetica,sans-Serif" font-size="10.00">_Window::Render</text>
</a>
</g>
</g>
<!-- Node2 -->
<g id="node2" class="node">
<title>Node2</title>
<g id="a_node2"><a xlink:href="classzero__mate_1_1gui_1_1CRegisters__Window.html#a5d2aecdd70593ed8765fb5a72d28ff0c" target="_top" xlink:title="Checks if the CPU mode has changed.">
<polygon fill="none" stroke="black" points="184,-244 184,-285 350,-285 350,-244 184,-244"/>
<text text-anchor="start" x="192" y="-273" font-family="Helvetica,sans-Serif" font-size="10.00">zero_mate::gui::CRegisters</text>
<text text-anchor="start" x="192" y="-262" font-family="Helvetica,sans-Serif" font-size="10.00">_Window::Check_If_CPU_Mode</text>
<text text-anchor="middle" x="267" y="-251" font-family="Helvetica,sans-Serif" font-size="10.00">_Changes</text>
</a>
</g>
</g>
<!-- Node1&#45;&gt;Node2 -->
<g id="edge1" class="edge">
<title>Node1&#45;&gt;Node2</title>
<path fill="none" stroke="midnightblue" d="M127.19,-224.53C144.96,-229.64 165.26,-235.49 184.75,-241.1"/>
<polygon fill="midnightblue" stroke="midnightblue" points="183.96,-244.52 194.54,-243.92 185.9,-237.79 183.96,-244.52"/>
</g>
<!-- Node4 -->
<g id="node4" class="node">
<title>Node4</title>
<g id="a_node4"><a xlink:href="classzero__mate_1_1gui_1_1CRegisters__Window.html#afee27571a09be2cad3cd096b1c36040a" target="_top" xlink:title="Renders a label displaying the current CPU mode.">
<polygon fill="none" stroke="black" points="188,-194.5 188,-224.5 346,-224.5 346,-194.5 188,-194.5"/>
<text text-anchor="start" x="196" y="-212.5" font-family="Helvetica,sans-Serif" font-size="10.00">zero_mate::gui::CRegisters</text>
<text text-anchor="middle" x="267" y="-201.5" font-family="Helvetica,sans-Serif" font-size="10.00">_Window::Render_CPU_Mode</text>
</a>
</g>
</g>
<!-- Node1&#45;&gt;Node4 -->
<g id="edge3" class="edge">
<title>Node1&#45;&gt;Node4</title>
<path fill="none" stroke="midnightblue" d="M148.03,-209.5C157.72,-209.5 167.74,-209.5 177.65,-209.5"/>
<polygon fill="midnightblue" stroke="midnightblue" points="177.93,-213 187.93,-209.5 177.93,-206 177.93,-213"/>
</g>
<!-- Node5 -->
<g id="node5" class="node">
<title>Node5</title>
<g id="a_node5"><a xlink:href="classzero__mate_1_1gui_1_1CRegisters__Window.html#ac9b00209a3db86452bf51d8f4c9dbf72" target="_top" xlink:title="Renders tabs for different CPU modes (SVC, IRQ, FIQ, etc.)">
<polygon fill="none" stroke="black" points="193,-134 193,-175 341,-175 341,-134 193,-134"/>
<text text-anchor="start" x="201" y="-163" font-family="Helvetica,sans-Serif" font-size="10.00">zero_mate::gui::CRegisters</text>
<text text-anchor="start" x="201" y="-152" font-family="Helvetica,sans-Serif" font-size="10.00">_Window::Render_Register</text>
<text text-anchor="middle" x="267" y="-141" font-family="Helvetica,sans-Serif" font-size="10.00">_Modes_Tabs</text>
</a>
</g>
</g>
<!-- Node1&#45;&gt;Node5 -->
<g id="edge5" class="edge">
<title>Node1&#45;&gt;Node5</title>
<path fill="none" stroke="midnightblue" d="M127.19,-194.47C144.96,-189.36 165.26,-183.51 184.75,-177.9"/>
<polygon fill="midnightblue" stroke="midnightblue" points="185.9,-181.21 194.54,-175.08 183.96,-174.48 185.9,-181.21"/>
</g>
<!-- Node3 -->
<g id="node3" class="node">
<title>Node3</title>
<g id="a_node3"><a xlink:href="classzero__mate_1_1arm1176jzf__s_1_1CCPU__Context.html#aa740f9219bb413d707ac72f373e60d3a" target="_top" xlink:title="Returns the current mode of the CPU.">
<polygon fill="none" stroke="black" points="407.5,-216 407.5,-257 537.5,-257 537.5,-216 407.5,-216"/>
<text text-anchor="start" x="415.5" y="-245" font-family="Helvetica,sans-Serif" font-size="10.00">zero_mate::arm1176jzf</text>
<text text-anchor="start" x="415.5" y="-234" font-family="Helvetica,sans-Serif" font-size="10.00">_s::CCPU_Context::Get</text>
<text text-anchor="middle" x="472.5" y="-223" font-family="Helvetica,sans-Serif" font-size="10.00">_CPU_Mode</text>
</a>
</g>
</g>
<!-- Node2&#45;&gt;Node3 -->
<g id="edge2" class="edge">
<title>Node2&#45;&gt;Node3</title>
<path fill="none" stroke="midnightblue" d="M350.18,-253.19C365.84,-251.04 382.14,-248.8 397.52,-246.68"/>
<polygon fill="midnightblue" stroke="midnightblue" points="398.05,-250.14 407.47,-245.31 397.09,-243.21 398.05,-250.14"/>
</g>
<!-- Node4&#45;&gt;Node3 -->
<g id="edge4" class="edge">
<title>Node4&#45;&gt;Node3</title>
<path fill="none" stroke="midnightblue" d="M346.1,-219.86C362.9,-222.09 380.61,-224.44 397.26,-226.65"/>
<polygon fill="midnightblue" stroke="midnightblue" points="397.1,-230.16 407.47,-228 398.02,-223.22 397.1,-230.16"/>
</g>
<!-- Node6 -->
<g id="node6" class="node">
<title>Node6</title>
<g id="a_node6"><a xlink:href="classzero__mate_1_1gui_1_1CRegisters__Window.html#a25928c2ab0086154b73843f84a831953" target="_top" xlink:title="Renders different format tabs of a given CPU mode.">
<polygon fill="none" stroke="black" points="386,-139.5 386,-169.5 559,-169.5 559,-139.5 386,-139.5"/>
<text text-anchor="start" x="394" y="-157.5" font-family="Helvetica,sans-Serif" font-size="10.00">zero_mate::gui::CRegisters</text>
<text text-anchor="middle" x="472.5" y="-146.5" font-family="Helvetica,sans-Serif" font-size="10.00">_Window::Render_Register_Tabs</text>
</a>
</g>
</g>
<!-- Node5&#45;&gt;Node6 -->
<g id="edge6" class="edge">
<title>Node5&#45;&gt;Node6</title>
<path fill="none" stroke="midnightblue" d="M341.18,-154.5C352.37,-154.5 364.07,-154.5 375.66,-154.5"/>
<polygon fill="midnightblue" stroke="midnightblue" points="375.81,-158 385.81,-154.5 375.81,-151 375.81,-158"/>
</g>
<!-- Node7 -->
<g id="node7" class="node">
<title>Node7</title>
<g id="a_node7"><a xlink:href="classzero__mate_1_1gui_1_1CRegisters__Window.html#ab910a37cb5f1cd13e2566c87a6bc0121" target="_top" xlink:title="Renders flags of the CPSR register.">
<polygon fill="none" stroke="black" points="604.5,-208.5 604.5,-238.5 767.5,-238.5 767.5,-208.5 604.5,-208.5"/>
<text text-anchor="start" x="612.5" y="-226.5" font-family="Helvetica,sans-Serif" font-size="10.00">zero_mate::gui::CRegisters</text>
<text text-anchor="middle" x="686" y="-215.5" font-family="Helvetica,sans-Serif" font-size="10.00">_Window::Render_CPSR_Flags</text>
</a>
</g>
</g>
<!-- Node6&#45;&gt;Node7 -->
<g id="edge7" class="edge">
<title>Node6&#45;&gt;Node7</title>
<path fill="none" stroke="midnightblue" d="M519.65,-169.56C551.85,-180.06 594.98,-194.13 629.12,-205.27"/>
<polygon fill="midnightblue" stroke="midnightblue" points="628.35,-208.7 638.95,-208.48 630.52,-202.05 628.35,-208.7"/>
</g>
<!-- Node9 -->
<g id="node9" class="node">
<title>Node9</title>
<g id="a_node9"><a xlink:href="classzero__mate_1_1gui_1_1CRegisters__Window.html#a1779ad3caf45c3e8dd342ef8057dfff7" target="_top" xlink:title="Renders table with CPU registers of a given CPU mode.">
<polygon fill="none" stroke="black" points="595,-115.5 595,-145.5 777,-145.5 777,-115.5 595,-115.5"/>
<text text-anchor="start" x="603" y="-133.5" font-family="Helvetica,sans-Serif" font-size="10.00">zero_mate::gui::CRegisters</text>
<text text-anchor="middle" x="686" y="-122.5" font-family="Helvetica,sans-Serif" font-size="10.00">_Window::Render_Registers_Table</text>
</a>
</g>
</g>
<!-- Node6&#45;&gt;Node9 -->
<g id="edge9" class="edge">
<title>Node6&#45;&gt;Node9</title>
<path fill="none" stroke="midnightblue" d="M559.22,-144.77C567.61,-143.82 576.18,-142.85 584.71,-141.88"/>
<polygon fill="midnightblue" stroke="midnightblue" points="585.13,-145.35 594.68,-140.75 584.35,-138.4 585.13,-145.35"/>
</g>
<!-- Node8 -->
<g id="node8" class="node">
<title>Node8</title>
<g id="a_node8"><a xlink:href="classzero__mate_1_1arm1176jzf__s_1_1CCPU__Context.html#a0013811c3eef6d91ddfd2423a08889ef" target="_top" xlink:title="Checks whether a given flag is set in the CPSR register of the current CPU mode.">
<polygon fill="none" stroke="black" points="827.5,-248 827.5,-289 957.5,-289 957.5,-248 827.5,-248"/>
<text text-anchor="start" x="835.5" y="-277" font-family="Helvetica,sans-Serif" font-size="10.00">zero_mate::arm1176jzf</text>
<text text-anchor="start" x="835.5" y="-266" font-family="Helvetica,sans-Serif" font-size="10.00">_s::CCPU_Context::Is</text>
<text text-anchor="middle" x="892.5" y="-255" font-family="Helvetica,sans-Serif" font-size="10.00">_Flag_Set</text>
</a>
</g>
</g>
<!-- Node7&#45;&gt;Node8 -->
<g id="edge8" class="edge">
<title>Node7&#45;&gt;Node8</title>
<path fill="none" stroke="midnightblue" d="M755.38,-238.55C775.34,-242.94 797.23,-247.76 817.52,-252.22"/>
<polygon fill="midnightblue" stroke="midnightblue" points="816.82,-255.65 827.33,-254.38 818.32,-248.81 816.82,-255.65"/>
</g>
<!-- Node10 -->
<g id="node10" class="node">
<title>Node10</title>
<g id="a_node10"><a xlink:href="classzero__mate_1_1arm1176jzf__s_1_1CCPU__Context.html#acf66c6ff905975912dbf52133ddfeceb" target="_top" xlink:title="Returns a reference the CPSR register of the current CPU mode.">
<polygon fill="none" stroke="black" points="813.5,-198.5 813.5,-228.5 971.5,-228.5 971.5,-198.5 813.5,-198.5"/>
<text text-anchor="start" x="821.5" y="-216.5" font-family="Helvetica,sans-Serif" font-size="10.00">zero_mate::arm1176jzf</text>
<text text-anchor="middle" x="892.5" y="-205.5" font-family="Helvetica,sans-Serif" font-size="10.00">_s::CCPU_Context::Get_CPSR</text>
</a>
</g>
</g>
<!-- Node9&#45;&gt;Node10 -->
<g id="edge10" class="edge">
<title>Node9&#45;&gt;Node10</title>
<path fill="none" stroke="midnightblue" d="M716.85,-145.51C742.1,-157.89 779.43,-175.49 813,-188.5 818.86,-190.77 825.03,-193 831.22,-195.14"/>
<polygon fill="midnightblue" stroke="midnightblue" points="830.33,-198.53 840.93,-198.41 832.57,-191.9 830.33,-198.53"/>
</g>
<!-- Node11 -->
<g id="node11" class="node">
<title>Node11</title>
<g id="a_node11"><a xlink:href="classzero__mate_1_1arm1176jzf__s_1_1CCPU__Context.html#a22efcb34f3c1bd9f46f1f75771103ef9" target="_top" xlink:title="Returns a const reference to a register of a particular CPU mode.">
<polygon fill="none" stroke="black" points="827.5,-138 827.5,-179 957.5,-179 957.5,-138 827.5,-138"/>
<text text-anchor="start" x="835.5" y="-167" font-family="Helvetica,sans-Serif" font-size="10.00">zero_mate::arm1176jzf</text>
<text text-anchor="start" x="835.5" y="-156" font-family="Helvetica,sans-Serif" font-size="10.00">_s::CCPU_Context::Get</text>
<text text-anchor="middle" x="892.5" y="-145" font-family="Helvetica,sans-Serif" font-size="10.00">_Register</text>
</a>
</g>
</g>
<!-- Node9&#45;&gt;Node11 -->
<g id="edge11" class="edge">
<title>Node9&#45;&gt;Node11</title>
<path fill="none" stroke="midnightblue" d="M777.29,-142.86C790.63,-144.69 804.25,-146.55 817.21,-148.33"/>
<polygon fill="midnightblue" stroke="midnightblue" points="817.07,-151.84 827.45,-149.73 818.02,-144.91 817.07,-151.84"/>
</g>
<!-- Node12 -->
<g id="node12" class="node">
<title>Node12</title>
<g id="a_node12"><a xlink:href="classzero__mate_1_1arm1176jzf__s_1_1CCPU__Context.html#ae00681efcbc4adfcfde001a67c5baeca" target="_top" xlink:title="Returns the value of the SPSR register of the current CPU mode.">
<polygon fill="none" stroke="black" points="814,-88.5 814,-118.5 971,-118.5 971,-88.5 814,-88.5"/>
<text text-anchor="start" x="822" y="-106.5" font-family="Helvetica,sans-Serif" font-size="10.00">zero_mate::arm1176jzf</text>
<text text-anchor="middle" x="892.5" y="-95.5" font-family="Helvetica,sans-Serif" font-size="10.00">_s::CCPU_Context::Get_SPSR</text>
</a>
</g>
</g>
<!-- Node9&#45;&gt;Node12 -->
<g id="edge12" class="edge">
<title>Node9&#45;&gt;Node12</title>
<path fill="none" stroke="midnightblue" d="M777.29,-118.58C786.06,-117.42 794.95,-116.25 803.69,-115.09"/>
<polygon fill="midnightblue" stroke="midnightblue" points="804.41,-118.53 813.87,-113.75 803.5,-111.59 804.41,-118.53"/>
</g>
<!-- Node19 -->
<g id="node19" class="node">
<title>Node19</title>
<g id="a_node19"><a xlink:href="classzero__mate_1_1arm1176jzf__s_1_1CCPU__Context.html#a6fc387fa0b0dd040c4e2463606d933e4" target="_top" xlink:title="Checks if the CPU mode passed in as a parameter supports the SPSR register or not.">
<polygon fill="none" stroke="black" points="1189,-39 1189,-80 1319,-80 1319,-39 1189,-39"/>
<text text-anchor="start" x="1197" y="-68" font-family="Helvetica,sans-Serif" font-size="10.00">zero_mate::arm1176jzf</text>
<text text-anchor="start" x="1197" y="-57" font-family="Helvetica,sans-Serif" font-size="10.00">_s::CCPU_Context::Is</text>
<text text-anchor="middle" x="1254" y="-46" font-family="Helvetica,sans-Serif" font-size="10.00">_Mode_With_No_SPSR</text>
</a>
</g>
</g>
<!-- Node9&#45;&gt;Node19 -->
<g id="edge20" class="edge">
<title>Node9&#45;&gt;Node19</title>
<path fill="none" stroke="midnightblue" d="M716.13,-115.39C741.1,-103.26 778.42,-87.05 813,-79.5 939.12,-51.96 1090.24,-52.04 1178.54,-55.3"/>
<polygon fill="midnightblue" stroke="midnightblue" points="1178.6,-58.8 1188.73,-55.7 1178.88,-51.81 1178.6,-58.8"/>
</g>
<!-- Node20 -->
<g id="node20" class="node">
<title>Node20</title>
<g id="a_node20"><a xlink:href="classzero__mate_1_1gui_1_1CRegisters__Window.html#a5240e615ada1d612975e9339ae715f1e" target="_top" xlink:title="Renders a raw integer value in a given format.">
<polygon fill="none" stroke="black" points="813,-0.5 813,-30.5 972,-30.5 972,-0.5 813,-0.5"/>
<text text-anchor="start" x="821" y="-18.5" font-family="Helvetica,sans-Serif" font-size="10.00">zero_mate::gui::CRegisters</text>
<text text-anchor="middle" x="892.5" y="-7.5" font-family="Helvetica,sans-Serif" font-size="10.00">_Window::Render_Raw_Value</text>
</a>
</g>
</g>
<!-- Node9&#45;&gt;Node20 -->
<g id="edge21" class="edge">
<title>Node9&#45;&gt;Node20</title>
<path fill="none" stroke="midnightblue" d="M706.21,-115.49C730.19,-97.24 772.96,-66.31 813,-45.5 820.71,-41.49 829.09,-37.72 837.4,-34.3"/>
<polygon fill="midnightblue" stroke="midnightblue" points="838.72,-37.54 846.72,-30.59 836.13,-31.04 838.72,-37.54"/>
</g>
<!-- Node13 -->
<g id="node13" class="node">
<title>Node13</title>
<g id="a_node13"><a xlink:href="classzero__mate_1_1arm1176jzf__s_1_1CCPU__Context.html#a050dada520ca82a21874045815c596a8" target="_top" xlink:title=" ">
<polygon fill="none" stroke="black" points="1008,-88 1008,-129 1145,-129 1145,-88 1008,-88"/>
<text text-anchor="start" x="1016" y="-117" font-family="Helvetica,sans-Serif" font-size="10.00">zero_mate::arm1176jzf</text>
<text text-anchor="start" x="1016" y="-106" font-family="Helvetica,sans-Serif" font-size="10.00">_s::CCPU_Context::Verify</text>
<text text-anchor="middle" x="1076.5" y="-95" font-family="Helvetica,sans-Serif" font-size="10.00">_SPSR_Accessibility</text>
</a>
</g>
</g>
<!-- Node12&#45;&gt;Node13 -->
<g id="edge13" class="edge">
<title>Node12&#45;&gt;Node13</title>
<path fill="none" stroke="midnightblue" d="M971.21,-105.63C979.96,-105.88 988.88,-106.12 997.63,-106.36"/>
<polygon fill="midnightblue" stroke="midnightblue" points="997.72,-109.86 1007.81,-106.64 997.91,-102.87 997.72,-109.86"/>
</g>
<!-- Node14 -->
<g id="node14" class="node">
<title>Node14</title>
<g id="a_node14"><a xlink:href="classzero__mate_1_1utils_1_1CLogging__System.html#aba3c5c64cd12e058e6a288db2cd89a15" target="_top" xlink:title="Logs an error message via all registered loggers.">
<polygon fill="none" stroke="black" points="1181,-99.5 1181,-129.5 1327,-129.5 1327,-99.5 1181,-99.5"/>
<text text-anchor="start" x="1189" y="-117.5" font-family="Helvetica,sans-Serif" font-size="10.00">zero_mate::utils::CLogging</text>
<text text-anchor="middle" x="1254" y="-106.5" font-family="Helvetica,sans-Serif" font-size="10.00">_System::Error</text>
</a>
</g>
</g>
<!-- Node13&#45;&gt;Node14 -->
<g id="edge14" class="edge">
<title>Node13&#45;&gt;Node14</title>
<path fill="none" stroke="midnightblue" d="M1145.1,-110.81C1153.5,-111.1 1162.16,-111.39 1170.75,-111.69"/>
<polygon fill="midnightblue" stroke="midnightblue" points="1170.66,-115.19 1180.77,-112.03 1170.9,-108.19 1170.66,-115.19"/>
</g>
<!-- Node13&#45;&gt;Node19 -->
<g id="edge19" class="edge">
<title>Node13&#45;&gt;Node19</title>
<path fill="none" stroke="midnightblue" d="M1145.1,-89.63C1156.23,-86.52 1167.81,-83.28 1179.09,-80.14"/>
<polygon fill="midnightblue" stroke="midnightblue" points="1180.2,-83.46 1188.89,-77.4 1178.32,-76.72 1180.2,-83.46"/>
</g>
<!-- Node15 -->
<g id="node15" class="node">
<title>Node15</title>
<g id="a_node15"><a xlink:href="classzero__mate_1_1utils_1_1CLogging__System.html#a71ed11c796553cbe8fd99773406a1060" target="_top" xlink:title="Creates a formatted message to be logged.">
<polygon fill="none" stroke="black" points="1363,-121 1363,-162 1515,-162 1515,-121 1363,-121"/>
<text text-anchor="start" x="1371" y="-150" font-family="Helvetica,sans-Serif" font-size="10.00">zero_mate::utils::CLogging</text>
<text text-anchor="start" x="1371" y="-139" font-family="Helvetica,sans-Serif" font-size="10.00">_System::Create_Formatted</text>
<text text-anchor="middle" x="1439" y="-128" font-family="Helvetica,sans-Serif" font-size="10.00">_Log_Msg</text>
</a>
</g>
</g>
<!-- Node14&#45;&gt;Node15 -->
<g id="edge15" class="edge">
<title>Node14&#45;&gt;Node15</title>
<path fill="none" stroke="midnightblue" d="M1327.06,-125.13C1335.55,-126.38 1344.26,-127.67 1352.9,-128.94"/>
<polygon fill="midnightblue" stroke="midnightblue" points="1352.59,-132.44 1362.99,-130.43 1353.61,-125.51 1352.59,-132.44"/>
</g>
<!-- Node18 -->
<g id="node18" class="node">
<title>Node18</title>
<g id="a_node18"><a xlink:href="classzero__mate_1_1utils_1_1CLogging__System.html#a90671387b53987d6fd3c85348cb234e4" target="_top" xlink:title="Extract the filename from a given location within the source files.">
<polygon fill="none" stroke="black" points="1364.5,-71.5 1364.5,-101.5 1513.5,-101.5 1513.5,-71.5 1364.5,-71.5"/>
<text text-anchor="start" x="1372.5" y="-89.5" font-family="Helvetica,sans-Serif" font-size="10.00">zero_mate::utils::CLogging</text>
<text text-anchor="middle" x="1439" y="-78.5" font-family="Helvetica,sans-Serif" font-size="10.00">_System::Extract_Filename</text>
</a>
</g>
</g>
<!-- Node14&#45;&gt;Node18 -->
<g id="edge18" class="edge">
<title>Node14&#45;&gt;Node18</title>
<path fill="none" stroke="midnightblue" d="M1327.06,-103.47C1336.1,-102.09 1345.4,-100.67 1354.59,-99.26"/>
<polygon fill="midnightblue" stroke="midnightblue" points="1355.14,-102.72 1364.5,-97.75 1354.09,-95.8 1355.14,-102.72"/>
</g>
<!-- Node16 -->
<g id="node16" class="node">
<title>Node16</title>
<g id="a_node16"><a xlink:href="classzero__mate_1_1utils_1_1CLogging__System.html#aa70c102c805079042ffea2a6f2a5ad64" target="_top" xlink:title="Formats a given timestamp.">
<polygon fill="none" stroke="black" points="1551,-150.5 1551,-180.5 1711,-180.5 1711,-150.5 1551,-150.5"/>
<text text-anchor="start" x="1559" y="-168.5" font-family="Helvetica,sans-Serif" font-size="10.00">zero_mate::utils::CLogging</text>
<text text-anchor="middle" x="1631" y="-157.5" font-family="Helvetica,sans-Serif" font-size="10.00">_System::Format_Timestamp</text>
</a>
</g>
</g>
<!-- Node15&#45;&gt;Node16 -->
<g id="edge16" class="edge">
<title>Node15&#45;&gt;Node16</title>
<path fill="none" stroke="midnightblue" d="M1515.09,-150.99C1523.52,-152.05 1532.16,-153.14 1540.74,-154.23"/>
<polygon fill="midnightblue" stroke="midnightblue" points="1540.41,-157.71 1550.77,-155.49 1541.29,-150.77 1540.41,-157.71"/>
</g>
<!-- Node17 -->
<g id="node17" class="node">
<title>Node17</title>
<g id="a_node17"><a xlink:href="classzero__mate_1_1utils_1_1CLogging__System.html#ae3ca637537dde05e0b9119145c840331" target="_top" xlink:title="Returns the current timestamp that will be used in a log message.">
<polygon fill="none" stroke="black" points="1558,-101.5 1558,-131.5 1704,-131.5 1704,-101.5 1558,-101.5"/>
<text text-anchor="start" x="1566" y="-119.5" font-family="Helvetica,sans-Serif" font-size="10.00">zero_mate::utils::CLogging</text>
<text text-anchor="middle" x="1631" y="-108.5" font-family="Helvetica,sans-Serif" font-size="10.00">_System::Get_Timestamp</text>
</a>
</g>
</g>
<!-- Node15&#45;&gt;Node17 -->
<g id="edge17" class="edge">
<title>Node15&#45;&gt;Node17</title>
<path fill="none" stroke="midnightblue" d="M1515.09,-131.62C1525.89,-130.2 1537.05,-128.73 1547.98,-127.29"/>
<polygon fill="midnightblue" stroke="midnightblue" points="1548.47,-130.76 1557.93,-125.98 1547.56,-123.82 1548.47,-130.76"/>
</g>
</g>
</svg>
