<?xml version="1.0" encoding="UTF-8" standalone="no"?>
<!DOCTYPE svg PUBLIC "-//W3C//DTD SVG 1.1//EN"
 "http://www.w3.org/Graphics/SVG/1.1/DTD/svg11.dtd">
<!-- Generated by graphviz version 2.43.0 (0)
 -->
<!-- Title: zero_mate::utils::CLogging_System::Warning Pages: 1 -->
<svg width="862pt" height="542pt"
 viewBox="0.00 0.00 862.00 542.00" xmlns="http://www.w3.org/2000/svg" xmlns:xlink="http://www.w3.org/1999/xlink">
<g id="graph0" class="graph" transform="scale(1 1) rotate(0) translate(4 538)">
<title>zero_mate::utils::CLogging_System::Warning</title>
<!-- Node1 -->
<g id="node1" class="node">
<title>Node1</title>
<g id="a_node1"><a xlink:title="Logs a warning message via all registered loggers.">
<polygon fill="#bfbfbf" stroke="black" points="708,-221.5 708,-251.5 854,-251.5 854,-221.5 708,-221.5"/>
<text text-anchor="start" x="716" y="-239.5" font-family="Helvetica,sans-Serif" font-size="10.00">zero_mate::utils::CLogging</text>
<text text-anchor="middle" x="781" y="-228.5" font-family="Helvetica,sans-Serif" font-size="10.00">_System::Warning</text>
</a>
</g>
</g>
<!-- Node2 -->
<g id="node2" class="node">
<title>Node2</title>
<g id="a_node2"><a xlink:href="classzero__mate_1_1arm1176jzf__s_1_1CCPU__Core.html#a85e6ef006a36e1adb56abd3ecc6481be" target="_top" xlink:title="Executes a CPU exception.">
<polygon fill="none" stroke="black" points="521,-443 521,-484 653,-484 653,-443 521,-443"/>
<text text-anchor="start" x="529" y="-472" font-family="Helvetica,sans-Serif" font-size="10.00">zero_mate::arm1176jzf</text>
<text text-anchor="start" x="529" y="-461" font-family="Helvetica,sans-Serif" font-size="10.00">_s::CCPU_Core::Execute</text>
<text text-anchor="middle" x="587" y="-450" font-family="Helvetica,sans-Serif" font-size="10.00">_Exception</text>
</a>
</g>
</g>
<!-- Node1&#45;&gt;Node2 -->
<g id="edge1" class="edge">
<title>Node1&#45;&gt;Node2</title>
<path fill="none" stroke="midnightblue" d="M772.82,-261.31C759.59,-302.74 727.54,-386.13 672,-433.5 666.34,-438.32 659.86,-442.39 653.05,-445.82"/>
<polygon fill="midnightblue" stroke="midnightblue" points="776.17,-262.32 775.78,-251.73 769.48,-260.25 776.17,-262.32"/>
</g>
<!-- Node8 -->
<g id="node8" class="node">
<title>Node8</title>
<g id="a_node8"><a xlink:href="namespacezero__mate_1_1gui.html#ad17e948433f50f210774367b5671af03" target="_top" xlink:title=" ">
<polygon fill="none" stroke="black" points="515.5,-405 515.5,-424 658.5,-424 658.5,-405 515.5,-405"/>
<text text-anchor="middle" x="587" y="-412" font-family="Helvetica,sans-Serif" font-size="10.00">zero_mate::gui::Main_GUI</text>
</a>
</g>
</g>
<!-- Node1&#45;&gt;Node8 -->
<g id="edge7" class="edge">
<title>Node1&#45;&gt;Node8</title>
<path fill="none" stroke="midnightblue" d="M770.27,-261.15C754.94,-296.65 721.69,-361.63 672,-395.5 666.32,-399.37 659.96,-402.47 653.37,-404.94"/>
<polygon fill="midnightblue" stroke="midnightblue" points="773.66,-262.13 774.29,-251.56 767.2,-259.43 773.66,-262.13"/>
</g>
<!-- Node10 -->
<g id="node10" class="node">
<title>Node10</title>
<g id="a_node10"><a xlink:href="classzero__mate_1_1arm1176jzf__s_1_1CCPU__Core.html#a00f4cf1169d774a50886f60f5f166f8b" target="_top" xlink:title="Performs a halfword data write to a given address.">
<polygon fill="none" stroke="black" points="502,-345 502,-386 672,-386 672,-345 502,-345"/>
<text text-anchor="start" x="510" y="-374" font-family="Helvetica,sans-Serif" font-size="10.00">zero_mate::arm1176jzf</text>
<text text-anchor="start" x="510" y="-363" font-family="Helvetica,sans-Serif" font-size="10.00">_s::CCPU_Core::Perform</text>
<text text-anchor="middle" x="587" y="-352" font-family="Helvetica,sans-Serif" font-size="10.00">_Halfword_Data_Transfer_Write</text>
</a>
</g>
</g>
<!-- Node1&#45;&gt;Node10 -->
<g id="edge9" class="edge">
<title>Node1&#45;&gt;Node10</title>
<path fill="none" stroke="midnightblue" d="M760.31,-259.2C740.09,-281.31 706.73,-314.57 672,-335.5 666.3,-338.94 660.14,-342.07 653.84,-344.89"/>
<polygon fill="midnightblue" stroke="midnightblue" points="763.06,-261.38 767.15,-251.6 757.86,-256.7 763.06,-261.38"/>
</g>
<!-- Node12 -->
<g id="node12" class="node">
<title>Node12</title>
<g id="a_node12"><a xlink:href="classzero__mate_1_1peripheral_1_1CARM__Timer.html#a9c9fd268222fa96e4a81d65f7340235c" target="_top" xlink:title="Reads data from the peripheral (IPeripheral interface).">
<polygon fill="none" stroke="black" points="525,-295.5 525,-325.5 649,-325.5 649,-295.5 525,-295.5"/>
<text text-anchor="start" x="533" y="-313.5" font-family="Helvetica,sans-Serif" font-size="10.00">zero_mate::peripheral</text>
<text text-anchor="middle" x="587" y="-302.5" font-family="Helvetica,sans-Serif" font-size="10.00">::CARM_Timer::Read</text>
</a>
</g>
</g>
<!-- Node1&#45;&gt;Node12 -->
<g id="edge11" class="edge">
<title>Node1&#45;&gt;Node12</title>
<path fill="none" stroke="midnightblue" d="M741.49,-256.1C721.15,-266 695.57,-277.74 672,-286.5 663.47,-289.67 654.32,-292.67 645.32,-295.41"/>
<polygon fill="midnightblue" stroke="midnightblue" points="743.3,-259.11 750.73,-251.56 740.21,-252.83 743.3,-259.11"/>
</g>
<!-- Node13 -->
<g id="node13" class="node">
<title>Node13</title>
<g id="a_node13"><a xlink:href="classzero__mate_1_1peripheral_1_1CAUX.html#aedef3fa569fbcba697c28a9a5a3ecab9" target="_top" xlink:title="Reads data from the peripheral (IPeripheral interface).">
<polygon fill="none" stroke="black" points="525,-246.5 525,-276.5 649,-276.5 649,-246.5 525,-246.5"/>
<text text-anchor="start" x="533" y="-264.5" font-family="Helvetica,sans-Serif" font-size="10.00">zero_mate::peripheral</text>
<text text-anchor="middle" x="587" y="-253.5" font-family="Helvetica,sans-Serif" font-size="10.00">::CAUX::Read</text>
</a>
</g>
</g>
<!-- Node1&#45;&gt;Node13 -->
<g id="edge12" class="edge">
<title>Node1&#45;&gt;Node13</title>
<path fill="none" stroke="midnightblue" d="M697.87,-247.19C681.52,-249.32 664.62,-251.52 649.13,-253.54"/>
<polygon fill="midnightblue" stroke="midnightblue" points="698.5,-250.64 707.96,-245.88 697.59,-243.7 698.5,-250.64"/>
</g>
<!-- Node14 -->
<g id="node14" class="node">
<title>Node14</title>
<g id="a_node14"><a xlink:href="classzero__mate_1_1peripheral_1_1CGPIO__Manager.html#ac3edf689b30c39f2406fa6308fdeb2e9" target="_top" xlink:title="Reads data from the peripheral (IPeripheral interface).">
<polygon fill="none" stroke="black" points="521,-197.5 521,-227.5 653,-227.5 653,-197.5 521,-197.5"/>
<text text-anchor="start" x="529" y="-215.5" font-family="Helvetica,sans-Serif" font-size="10.00">zero_mate::peripheral</text>
<text text-anchor="middle" x="587" y="-204.5" font-family="Helvetica,sans-Serif" font-size="10.00">::CGPIO_Manager::Read</text>
</a>
</g>
</g>
<!-- Node1&#45;&gt;Node14 -->
<g id="edge13" class="edge">
<title>Node1&#45;&gt;Node14</title>
<path fill="none" stroke="midnightblue" d="M697.74,-226.22C682.84,-224.35 667.49,-222.44 653.17,-220.65"/>
<polygon fill="midnightblue" stroke="midnightblue" points="697.6,-229.73 707.96,-227.5 698.47,-222.78 697.6,-229.73"/>
</g>
<!-- Node15 -->
<g id="node15" class="node">
<title>Node15</title>
<g id="a_node15"><a xlink:href="classzero__mate_1_1peripheral_1_1CGPIO__Manager.html#ae93785da50eefb8a8cc21c1c59a32726" target="_top" xlink:title="Updates the state of all pins within a given register.">
<polygon fill="none" stroke="black" points="515.5,-137 515.5,-178 658.5,-178 658.5,-137 515.5,-137"/>
<text text-anchor="start" x="523.5" y="-166" font-family="Helvetica,sans-Serif" font-size="10.00">zero_mate::peripheral</text>
<text text-anchor="start" x="523.5" y="-155" font-family="Helvetica,sans-Serif" font-size="10.00">::CGPIO_Manager::Update</text>
<text text-anchor="middle" x="587" y="-144" font-family="Helvetica,sans-Serif" font-size="10.00">_Pin_State</text>
</a>
</g>
</g>
<!-- Node1&#45;&gt;Node15 -->
<g id="edge14" class="edge">
<title>Node1&#45;&gt;Node15</title>
<path fill="none" stroke="midnightblue" d="M739.46,-217.14C719.34,-207.79 694.57,-196.63 672,-187.5 664.1,-184.31 655.72,-181.1 647.43,-178.03"/>
<polygon fill="midnightblue" stroke="midnightblue" points="738.1,-220.37 748.64,-221.44 741.06,-214.03 738.1,-220.37"/>
</g>
<!-- Node16 -->
<g id="node16" class="node">
<title>Node16</title>
<g id="a_node16"><a xlink:href="classzero__mate_1_1peripheral_1_1CGPIO__Manager.html#a26aa957dbb7682447e4ebf9aa078c00c" target="_top" xlink:title="Writes data to the peripheral (IPeripheral interface).">
<polygon fill="none" stroke="black" points="332,-118.5 332,-148.5 466,-148.5 466,-118.5 332,-118.5"/>
<text text-anchor="start" x="340" y="-136.5" font-family="Helvetica,sans-Serif" font-size="10.00">zero_mate::peripheral</text>
<text text-anchor="middle" x="399" y="-125.5" font-family="Helvetica,sans-Serif" font-size="10.00">::CGPIO_Manager::Write</text>
</a>
</g>
</g>
<!-- Node1&#45;&gt;Node16 -->
<g id="edge18" class="edge">
<title>Node1&#45;&gt;Node16</title>
<path fill="none" stroke="midnightblue" d="M765.13,-212.82C746.91,-186.29 713.31,-144.72 672,-127.5 603.99,-99.15 517.86,-107.58 460.95,-118.49"/>
<polygon fill="midnightblue" stroke="midnightblue" points="762.25,-214.81 770.71,-221.19 768.08,-210.93 762.25,-214.81"/>
</g>
<!-- Node17 -->
<g id="node17" class="node">
<title>Node17</title>
<g id="a_node17"><a xlink:href="classzero__mate_1_1peripheral_1_1CARM__Timer.html#adb5da1b77debf34bb53e590c1774af34" target="_top" xlink:title="Writes data to the peripheral (IPeripheral interface).">
<polygon fill="none" stroke="black" points="525,-49.5 525,-79.5 649,-79.5 649,-49.5 525,-49.5"/>
<text text-anchor="start" x="533" y="-67.5" font-family="Helvetica,sans-Serif" font-size="10.00">zero_mate::peripheral</text>
<text text-anchor="middle" x="587" y="-56.5" font-family="Helvetica,sans-Serif" font-size="10.00">::CARM_Timer::Write</text>
</a>
</g>
</g>
<!-- Node1&#45;&gt;Node17 -->
<g id="edge16" class="edge">
<title>Node1&#45;&gt;Node17</title>
<path fill="none" stroke="midnightblue" d="M767.51,-212.41C750.11,-181.06 715.72,-126.49 672,-94.5 663.75,-88.46 654.17,-83.55 644.5,-79.57"/>
<polygon fill="midnightblue" stroke="midnightblue" points="764.52,-214.23 772.36,-221.35 770.67,-210.89 764.52,-214.23"/>
</g>
<!-- Node18 -->
<g id="node18" class="node">
<title>Node18</title>
<g id="a_node18"><a xlink:href="classzero__mate_1_1peripheral_1_1CAUX.html#a66c343e995d87042d200831e5692a3a9" target="_top" xlink:title="Writes data to the peripheral (IPeripheral interface).">
<polygon fill="none" stroke="black" points="525,-0.5 525,-30.5 649,-30.5 649,-0.5 525,-0.5"/>
<text text-anchor="start" x="533" y="-18.5" font-family="Helvetica,sans-Serif" font-size="10.00">zero_mate::peripheral</text>
<text text-anchor="middle" x="587" y="-7.5" font-family="Helvetica,sans-Serif" font-size="10.00">::CAUX::Write</text>
</a>
</g>
</g>
<!-- Node1&#45;&gt;Node18 -->
<g id="edge17" class="edge">
<title>Node1&#45;&gt;Node18</title>
<path fill="none" stroke="midnightblue" d="M773.24,-211.6C760.55,-169.69 729.18,-85.16 672,-39.5 665.24,-34.11 657.33,-29.92 649.11,-26.68"/>
<polygon fill="midnightblue" stroke="midnightblue" points="769.9,-212.67 776.06,-221.29 776.62,-210.71 769.9,-212.67"/>
</g>
<!-- Node3 -->
<g id="node3" class="node">
<title>Node3</title>
<g id="a_node3"><a xlink:href="classzero__mate_1_1arm1176jzf__s_1_1CCPU__Core.html#ac81ae05305c6916b7eda83abff602dcf" target="_top" xlink:title="Executes a single instruction.">
<polygon fill="none" stroke="black" points="333,-503.5 333,-533.5 465,-533.5 465,-503.5 333,-503.5"/>
<text text-anchor="start" x="341" y="-521.5" font-family="Helvetica,sans-Serif" font-size="10.00">zero_mate::arm1176jzf</text>
<text text-anchor="middle" x="399" y="-510.5" font-family="Helvetica,sans-Serif" font-size="10.00">_s::CCPU_Core::Execute</text>
</a>
</g>
</g>
<!-- Node2&#45;&gt;Node3 -->
<g id="edge2" class="edge">
<title>Node2&#45;&gt;Node3</title>
<path fill="none" stroke="midnightblue" d="M511.14,-485.64C490.92,-491.61 469.52,-497.94 450.95,-503.43"/>
<polygon fill="midnightblue" stroke="midnightblue" points="512.35,-488.93 520.95,-482.74 510.36,-482.22 512.35,-488.93"/>
</g>
<!-- Node4 -->
<g id="node4" class="node">
<title>Node4</title>
<g id="a_node4"><a xlink:href="classzero__mate_1_1arm1176jzf__s_1_1CCPU__Core.html#aa327755c4c57c01f03e16fb3d1195f6a" target="_top" xlink:title="Fetches the next instruction.">
<polygon fill="none" stroke="black" points="334,-443 334,-484 464,-484 464,-443 334,-443"/>
<text text-anchor="start" x="342" y="-472" font-family="Helvetica,sans-Serif" font-size="10.00">zero_mate::arm1176jzf</text>
<text text-anchor="start" x="342" y="-461" font-family="Helvetica,sans-Serif" font-size="10.00">_s::CCPU_Core::Fetch</text>
<text text-anchor="middle" x="399" y="-450" font-family="Helvetica,sans-Serif" font-size="10.00">_Instruction</text>
</a>
</g>
</g>
<!-- Node2&#45;&gt;Node4 -->
<g id="edge3" class="edge">
<title>Node2&#45;&gt;Node4</title>
<path fill="none" stroke="midnightblue" d="M510.87,-463.5C495.36,-463.5 479.15,-463.5 464.08,-463.5"/>
<polygon fill="midnightblue" stroke="midnightblue" points="510.95,-467 520.95,-463.5 510.95,-460 510.95,-467"/>
</g>
<!-- Node5 -->
<g id="node5" class="node">
<title>Node5</title>
<g id="a_node5"><a xlink:href="classzero__mate_1_1arm1176jzf__s_1_1CCPU__Core.html#a1665360d8ae71ed541b4c10f39e655a5" target="_top" xlink:title=" ">
<polygon fill="none" stroke="black" points="166,-448.5 166,-478.5 296,-478.5 296,-448.5 166,-448.5"/>
<text text-anchor="start" x="174" y="-466.5" font-family="Helvetica,sans-Serif" font-size="10.00">zero_mate::arm1176jzf</text>
<text text-anchor="middle" x="231" y="-455.5" font-family="Helvetica,sans-Serif" font-size="10.00">_s::CCPU_Core::Step</text>
</a>
</g>
</g>
<!-- Node4&#45;&gt;Node5 -->
<g id="edge4" class="edge">
<title>Node4&#45;&gt;Node5</title>
<path fill="none" stroke="midnightblue" d="M323.53,-463.5C314.35,-463.5 305.02,-463.5 296.01,-463.5"/>
<polygon fill="midnightblue" stroke="midnightblue" points="323.82,-467 333.82,-463.5 323.82,-460 323.82,-467"/>
</g>
<!-- Node6 -->
<g id="node6" class="node">
<title>Node6</title>
<g id="a_node6"><a xlink:href="classzero__mate_1_1arm1176jzf__s_1_1CCPU__Core.html#ad07b9956fd3f7b6c64b93c69243092f4" target="_top" xlink:title="Starts the execution.">
<polygon fill="none" stroke="black" points="0,-473.5 0,-503.5 130,-503.5 130,-473.5 0,-473.5"/>
<text text-anchor="start" x="8" y="-491.5" font-family="Helvetica,sans-Serif" font-size="10.00">zero_mate::arm1176jzf</text>
<text text-anchor="middle" x="65" y="-480.5" font-family="Helvetica,sans-Serif" font-size="10.00">_s::CCPU_Core::Run</text>
</a>
</g>
</g>
<!-- Node5&#45;&gt;Node6 -->
<g id="edge5" class="edge">
<title>Node5&#45;&gt;Node6</title>
<path fill="none" stroke="midnightblue" d="M155.71,-474.82C147.18,-476.12 138.54,-477.44 130.16,-478.72"/>
<polygon fill="midnightblue" stroke="midnightblue" points="156.3,-478.28 165.65,-473.31 155.24,-471.36 156.3,-478.28"/>
</g>
<!-- Node7 -->
<g id="node7" class="node">
<title>Node7</title>
<g id="a_node7"><a xlink:href="classzero__mate_1_1arm1176jzf__s_1_1CCPU__Core.html#a16544e9981489e1f4a25405248e5a5c0" target="_top" xlink:title=" ">
<polygon fill="none" stroke="black" points="0,-424.5 0,-454.5 130,-454.5 130,-424.5 0,-424.5"/>
<text text-anchor="start" x="8" y="-442.5" font-family="Helvetica,sans-Serif" font-size="10.00">zero_mate::arm1176jzf</text>
<text text-anchor="middle" x="65" y="-431.5" font-family="Helvetica,sans-Serif" font-size="10.00">_s::CCPU_Core::Steps</text>
</a>
</g>
</g>
<!-- Node5&#45;&gt;Node7 -->
<g id="edge6" class="edge">
<title>Node5&#45;&gt;Node7</title>
<path fill="none" stroke="midnightblue" d="M155.71,-452.63C147.18,-451.38 138.54,-450.12 130.16,-448.89"/>
<polygon fill="midnightblue" stroke="midnightblue" points="155.25,-456.1 165.65,-454.08 156.27,-449.17 155.25,-456.1"/>
</g>
<!-- Node9 -->
<g id="node9" class="node">
<title>Node9</title>
<g id="a_node9"><a xlink:href="main_8cpp.html#ac0f2228420376f4db7e1274f2b41667c" target="_top" xlink:title="Entry point of the application.">
<polygon fill="none" stroke="black" points="378.5,-405 378.5,-424 419.5,-424 419.5,-405 378.5,-405"/>
<text text-anchor="middle" x="399" y="-412" font-family="Helvetica,sans-Serif" font-size="10.00">main</text>
</a>
</g>
</g>
<!-- Node8&#45;&gt;Node9 -->
<g id="edge8" class="edge">
<title>Node8&#45;&gt;Node9</title>
<path fill="none" stroke="midnightblue" d="M505.25,-414.5C473.69,-414.5 440.21,-414.5 419.7,-414.5"/>
<polygon fill="midnightblue" stroke="midnightblue" points="505.42,-418 515.42,-414.5 505.42,-411 505.42,-418"/>
</g>
<!-- Node11 -->
<g id="node11" class="node">
<title>Node11</title>
<g id="a_node11"><a xlink:href="classzero__mate_1_1arm1176jzf__s_1_1CCPU__Core.html#ae5fc1112d78d8c344841fd94d1356635" target="_top" xlink:title="Executes a halfword data transfer instruction.">
<polygon fill="none" stroke="black" points="333,-350.5 333,-380.5 465,-380.5 465,-350.5 333,-350.5"/>
<text text-anchor="start" x="341" y="-368.5" font-family="Helvetica,sans-Serif" font-size="10.00">zero_mate::arm1176jzf</text>
<text text-anchor="middle" x="399" y="-357.5" font-family="Helvetica,sans-Serif" font-size="10.00">_s::CCPU_Core::Execute</text>
</a>
</g>
</g>
<!-- Node10&#45;&gt;Node11 -->
<g id="edge10" class="edge">
<title>Node10&#45;&gt;Node11</title>
<path fill="none" stroke="midnightblue" d="M491.84,-365.5C482.85,-365.5 473.87,-365.5 465.25,-365.5"/>
<polygon fill="midnightblue" stroke="midnightblue" points="491.98,-369 501.98,-365.5 491.98,-362 491.98,-369"/>
</g>
<!-- Node15&#45;&gt;Node16 -->
<g id="edge15" class="edge">
<title>Node15&#45;&gt;Node16</title>
<path fill="none" stroke="midnightblue" d="M505.48,-147.11C492.39,-145.42 478.95,-143.69 466.24,-142.05"/>
<polygon fill="midnightblue" stroke="midnightblue" points="505.05,-150.58 515.42,-148.39 505.95,-143.64 505.05,-150.58"/>
</g>
</g>
</svg>
