<?xml version="1.0" encoding="UTF-8" standalone="no"?>
<!DOCTYPE svg PUBLIC "-//W3C//DTD SVG 1.1//EN"
 "http://www.w3.org/Graphics/SVG/1.1/DTD/svg11.dtd">
<!-- Generated by graphviz version 2.43.0 (0)
 -->
<!-- Title: zero_mate::arm1176jzf_s::CCPU_Core Pages: 1 -->
<svg width="697pt" height="117pt"
 viewBox="0.00 0.00 697.00 116.50" xmlns="http://www.w3.org/2000/svg" xmlns:xlink="http://www.w3.org/1999/xlink">
<g id="graph0" class="graph" transform="scale(1 1) rotate(0) translate(4 112.5)">
<title>zero_mate::arm1176jzf_s::CCPU_Core</title>
<!-- Node1 -->
<g id="node1" class="node">
<title>Node1</title>
<g id="a_node1"><a xlink:title="Raspberry Pi Zero CPU core (arm1176jzf_s).">
<polygon fill="#bfbfbf" stroke="black" points="559,-49.5 559,-79.5 689,-79.5 689,-49.5 559,-49.5"/>
<text text-anchor="start" x="567" y="-67.5" font-family="Helvetica,sans-Serif" font-size="10.00">zero_mate::arm1176jzf</text>
<text text-anchor="middle" x="624" y="-56.5" font-family="Helvetica,sans-Serif" font-size="10.00">_s::CCPU_Core</text>
</a>
</g>
</g>
<!-- Node2 -->
<g id="node2" class="node">
<title>Node2</title>
<g id="a_node2"><a xlink:href="classzero__mate_1_1arm1176jzf__s_1_1CCPU__Context.html" target="_top" xlink:title="This class represents the context (registers) of the CPU.">
<polygon fill="none" stroke="black" points="278,-49.5 278,-79.5 408,-79.5 408,-49.5 278,-49.5"/>
<text text-anchor="start" x="286" y="-67.5" font-family="Helvetica,sans-Serif" font-size="10.00">zero_mate::arm1176jzf</text>
<text text-anchor="middle" x="343" y="-56.5" font-family="Helvetica,sans-Serif" font-size="10.00">_s::CCPU_Context</text>
</a>
</g>
</g>
<!-- Node2&#45;&gt;Node1 -->
<g id="edge1" class="edge">
<title>Node2&#45;&gt;Node1</title>
<path fill="none" stroke="#9a32cd" stroke-dasharray="5,2" d="M418.03,-64.5C461.86,-64.5 516.83,-64.5 558.81,-64.5"/>
<polygon fill="#9a32cd" stroke="#9a32cd" points="418.01,-61 408.01,-64.5 418.01,-68 418.01,-61"/>
<text text-anchor="middle" x="483.5" y="-67.5" font-family="Helvetica,sans-Serif" font-size="10.00"> m_context</text>
</g>
<!-- Node3 -->
<g id="node3" class="node">
<title>Node3</title>
<g id="a_node3"><a xlink:href="classzero__mate_1_1utils_1_1CLogging__System.html" target="_top" xlink:title="This class defines a logging system that is used throughout the project.">
<polygon fill="none" stroke="black" points="0,-75.5 0,-105.5 146,-105.5 146,-75.5 0,-75.5"/>
<text text-anchor="start" x="8" y="-93.5" font-family="Helvetica,sans-Serif" font-size="10.00">zero_mate::utils::CLogging</text>
<text text-anchor="middle" x="73" y="-82.5" font-family="Helvetica,sans-Serif" font-size="10.00">_System</text>
</a>
</g>
</g>
<!-- Node3&#45;&gt;Node1 -->
<g id="edge4" class="edge">
<title>Node3&#45;&gt;Node1</title>
<path fill="none" stroke="#9a32cd" stroke-dasharray="5,2" d="M156.3,-95.26C158.9,-95.35 161.47,-95.43 164,-95.5 331.64,-100.15 374.59,-100.28 541,-79.5 546.74,-78.78 552.7,-77.92 558.65,-76.98"/>
<polygon fill="#9a32cd" stroke="#9a32cd" points="156.32,-91.76 146.2,-94.86 156.05,-98.75 156.32,-91.76"/>
<text text-anchor="middle" x="343" y="-100.5" font-family="Helvetica,sans-Serif" font-size="10.00"> m_logging_system</text>
</g>
<!-- Node3&#45;&gt;Node2 -->
<g id="edge2" class="edge">
<title>Node3&#45;&gt;Node2</title>
<path fill="none" stroke="#9a32cd" stroke-dasharray="5,2" d="M156.47,-82.5C195.55,-78.71 241.52,-74.25 277.93,-70.72"/>
<polygon fill="#9a32cd" stroke="#9a32cd" points="155.79,-79.05 146.17,-83.5 156.46,-86.02 155.79,-79.05"/>
<text text-anchor="middle" x="212" y="-83.5" font-family="Helvetica,sans-Serif" font-size="10.00"> m_logging_system</text>
</g>
<!-- Node4 -->
<g id="node4" class="node">
<title>Node4</title>
<g id="a_node4"><a xlink:href="classzero__mate_1_1arm1176jzf__s_1_1isa_1_1CISA__Decoder.html" target="_top" xlink:title="This class represents an instruction decoder.">
<polygon fill="none" stroke="black" points="278,-0.5 278,-30.5 408,-30.5 408,-0.5 278,-0.5"/>
<text text-anchor="start" x="286" y="-18.5" font-family="Helvetica,sans-Serif" font-size="10.00">zero_mate::arm1176jzf</text>
<text text-anchor="middle" x="343" y="-7.5" font-family="Helvetica,sans-Serif" font-size="10.00">_s::isa::CISA_Decoder</text>
</a>
</g>
</g>
<!-- Node4&#45;&gt;Node1 -->
<g id="edge3" class="edge">
<title>Node4&#45;&gt;Node1</title>
<path fill="none" stroke="#9a32cd" stroke-dasharray="5,2" d="M418.52,-28.18C455.39,-34.5 500.55,-42.31 541,-49.5 546.84,-50.54 552.92,-51.63 559,-52.73"/>
<polygon fill="#9a32cd" stroke="#9a32cd" points="418.8,-24.68 408.35,-26.44 417.62,-31.58 418.8,-24.68"/>
<text text-anchor="middle" x="483.5" y="-52.5" font-family="Helvetica,sans-Serif" font-size="10.00"> m_instruction_decoder</text>
</g>
</g>
</svg>
