<?xml version="1.0" encoding="UTF-8" standalone="no"?>
<!DOCTYPE svg PUBLIC "-//W3C//DTD SVG 1.1//EN"
 "http://www.w3.org/Graphics/SVG/1.1/DTD/svg11.dtd">
<!-- Generated by graphviz version 2.43.0 (0)
 -->
<!-- Title: zero_mate::arm1176jzf_s::CCPU_Core::Execute Pages: 1 -->
<svg width="904pt" height="649pt"
 viewBox="0.00 0.00 904.00 649.00" xmlns="http://www.w3.org/2000/svg" xmlns:xlink="http://www.w3.org/1999/xlink">
<g id="graph0" class="graph" transform="scale(1 1) rotate(0) translate(4 645)">
<title>zero_mate::arm1176jzf_s::CCPU_Core::Execute</title>
<!-- Node1 -->
<g id="node1" class="node">
<title>Node1</title>
<g id="a_node1"><a xlink:title="Executes a PSR transfer instruction.">
<polygon fill="#bfbfbf" stroke="black" points="0,-355 0,-385 132,-385 132,-355 0,-355"/>
<text text-anchor="start" x="8" y="-373" font-family="Helvetica,sans-Serif" font-size="10.00">zero_mate::arm1176jzf</text>
<text text-anchor="middle" x="66" y="-362" font-family="Helvetica,sans-Serif" font-size="10.00">_s::CCPU_Core::Execute</text>
</a>
</g>
</g>
<!-- Node2 -->
<g id="node2" class="node">
<title>Node2</title>
<g id="a_node2"><a xlink:href="classzero__mate_1_1arm1176jzf__s_1_1CCPU__Core.html#a82f0fa55ec787c7a39bac81b7437aec2" target="_top" xlink:title="Executes an MRS instruction (move data from CPSR/SPSR to an ARM register).">
<polygon fill="none" stroke="black" points="168,-495 168,-525 327,-525 327,-495 168,-495"/>
<text text-anchor="start" x="176" y="-513" font-family="Helvetica,sans-Serif" font-size="10.00">zero_mate::arm1176jzf</text>
<text text-anchor="middle" x="247.5" y="-502" font-family="Helvetica,sans-Serif" font-size="10.00">_s::CCPU_Core::Execute_MRS</text>
</a>
</g>
</g>
<!-- Node1&#45;&gt;Node2 -->
<g id="edge1" class="edge">
<title>Node1&#45;&gt;Node2</title>
<path fill="none" stroke="midnightblue" d="M86.55,-385.25C118.6,-410.25 182.4,-460.01 219,-488.55"/>
<polygon fill="midnightblue" stroke="midnightblue" points="217.21,-491.59 227.24,-494.98 221.51,-486.07 217.21,-491.59"/>
</g>
<!-- Node7 -->
<g id="node7" class="node">
<title>Node7</title>
<g id="a_node7"><a xlink:href="classzero__mate_1_1arm1176jzf__s_1_1CCPU__Core.html#abe7461d09a52f28f99037717f61975c6" target="_top" xlink:title="Executes an MSR instruction (move data to CPSR/SPSR from an ARM register).">
<polygon fill="none" stroke="black" points="168,-355 168,-385 327,-385 327,-355 168,-355"/>
<text text-anchor="start" x="176" y="-373" font-family="Helvetica,sans-Serif" font-size="10.00">zero_mate::arm1176jzf</text>
<text text-anchor="middle" x="247.5" y="-362" font-family="Helvetica,sans-Serif" font-size="10.00">_s::CCPU_Core::Execute_MSR</text>
</a>
</g>
</g>
<!-- Node1&#45;&gt;Node7 -->
<g id="edge6" class="edge">
<title>Node1&#45;&gt;Node7</title>
<path fill="none" stroke="midnightblue" d="M132.06,-370C140.42,-370 149.1,-370 157.76,-370"/>
<polygon fill="midnightblue" stroke="midnightblue" points="157.91,-373.5 167.91,-370 157.91,-366.5 157.91,-373.5"/>
</g>
<!-- Node25 -->
<g id="node25" class="node">
<title>Node25</title>
<g id="a_node25"><a xlink:href="classzero__mate_1_1arm1176jzf__s_1_1isa_1_1CPSR__Transfer.html#a19fb927b60d403cb72f1a9702815beb8" target="_top" xlink:title=" ">
<polygon fill="none" stroke="black" points="182.5,-294.5 182.5,-335.5 312.5,-335.5 312.5,-294.5 182.5,-294.5"/>
<text text-anchor="start" x="190.5" y="-323.5" font-family="Helvetica,sans-Serif" font-size="10.00">zero_mate::arm1176jzf</text>
<text text-anchor="start" x="190.5" y="-312.5" font-family="Helvetica,sans-Serif" font-size="10.00">_s::isa::CPSR_Transfer</text>
<text text-anchor="middle" x="247.5" y="-301.5" font-family="Helvetica,sans-Serif" font-size="10.00">::Get_Type</text>
</a>
</g>
</g>
<!-- Node1&#45;&gt;Node25 -->
<g id="edge27" class="edge">
<title>Node1&#45;&gt;Node25</title>
<path fill="none" stroke="midnightblue" d="M116.05,-354.97C133.54,-349.61 153.65,-343.45 172.76,-337.59"/>
<polygon fill="midnightblue" stroke="midnightblue" points="173.81,-340.93 182.35,-334.66 171.76,-334.24 173.81,-340.93"/>
</g>
<!-- Node3 -->
<g id="node3" class="node">
<title>Node3</title>
<g id="a_node3"><a xlink:href="classzero__mate_1_1arm1176jzf__s_1_1CCPU__Context.html#acf66c6ff905975912dbf52133ddfeceb" target="_top" xlink:title=" ">
<polygon fill="none" stroke="black" points="363,-550 363,-580 521,-580 521,-550 363,-550"/>
<text text-anchor="start" x="371" y="-568" font-family="Helvetica,sans-Serif" font-size="10.00">zero_mate::arm1176jzf</text>
<text text-anchor="middle" x="442" y="-557" font-family="Helvetica,sans-Serif" font-size="10.00">_s::CCPU_Context::Get_CPSR</text>
</a>
</g>
</g>
<!-- Node2&#45;&gt;Node3 -->
<g id="edge2" class="edge">
<title>Node2&#45;&gt;Node3</title>
<path fill="none" stroke="midnightblue" d="M301.1,-525.03C325.08,-531.88 353.64,-540.04 378.69,-547.2"/>
<polygon fill="midnightblue" stroke="midnightblue" points="377.89,-550.61 388.46,-549.99 379.81,-543.88 377.89,-550.61"/>
</g>
<!-- Node4 -->
<g id="node4" class="node">
<title>Node4</title>
<g id="a_node4"><a xlink:href="classzero__mate_1_1arm1176jzf__s_1_1isa_1_1CPSR__Transfer.html#a00b5bba41731bc7acf875645d64a88a6" target="_top" xlink:title=" ">
<polygon fill="none" stroke="black" points="377,-599.5 377,-640.5 507,-640.5 507,-599.5 377,-599.5"/>
<text text-anchor="start" x="385" y="-628.5" font-family="Helvetica,sans-Serif" font-size="10.00">zero_mate::arm1176jzf</text>
<text text-anchor="start" x="385" y="-617.5" font-family="Helvetica,sans-Serif" font-size="10.00">_s::isa::CPSR_Transfer</text>
<text text-anchor="middle" x="442" y="-606.5" font-family="Helvetica,sans-Serif" font-size="10.00">::Get_Rd</text>
</a>
</g>
</g>
<!-- Node2&#45;&gt;Node4 -->
<g id="edge3" class="edge">
<title>Node2&#45;&gt;Node4</title>
<path fill="none" stroke="midnightblue" d="M267.03,-525.08C288.96,-542.4 327.03,-570.88 363,-590 366.43,-591.82 370,-593.6 373.64,-595.31"/>
<polygon fill="midnightblue" stroke="midnightblue" points="372.24,-598.51 382.79,-599.42 375.11,-592.13 372.24,-598.51"/>
</g>
<!-- Node5 -->
<g id="node5" class="node">
<title>Node5</title>
<g id="a_node5"><a xlink:href="classzero__mate_1_1arm1176jzf__s_1_1isa_1_1CPSR__Transfer.html#ada397b14e5cf27991a1b575c95f945bc" target="_top" xlink:title=" ">
<polygon fill="none" stroke="black" points="377,-489.5 377,-530.5 507,-530.5 507,-489.5 377,-489.5"/>
<text text-anchor="start" x="385" y="-518.5" font-family="Helvetica,sans-Serif" font-size="10.00">zero_mate::arm1176jzf</text>
<text text-anchor="start" x="385" y="-507.5" font-family="Helvetica,sans-Serif" font-size="10.00">_s::isa::CPSR_Transfer</text>
<text text-anchor="middle" x="442" y="-496.5" font-family="Helvetica,sans-Serif" font-size="10.00">::Get_Register_Type</text>
</a>
</g>
</g>
<!-- Node2&#45;&gt;Node5 -->
<g id="edge4" class="edge">
<title>Node2&#45;&gt;Node5</title>
<path fill="none" stroke="midnightblue" d="M327.07,-510C340.12,-510 353.61,-510 366.55,-510"/>
<polygon fill="midnightblue" stroke="midnightblue" points="366.78,-513.5 376.78,-510 366.78,-506.5 366.78,-513.5"/>
</g>
<!-- Node6 -->
<g id="node6" class="node">
<title>Node6</title>
<g id="a_node6"><a xlink:href="classzero__mate_1_1arm1176jzf__s_1_1CCPU__Context.html#ae00681efcbc4adfcfde001a67c5baeca" target="_top" xlink:title=" ">
<polygon fill="none" stroke="black" points="363.5,-440 363.5,-470 520.5,-470 520.5,-440 363.5,-440"/>
<text text-anchor="start" x="371.5" y="-458" font-family="Helvetica,sans-Serif" font-size="10.00">zero_mate::arm1176jzf</text>
<text text-anchor="middle" x="442" y="-447" font-family="Helvetica,sans-Serif" font-size="10.00">_s::CCPU_Context::Get_SPSR</text>
</a>
</g>
</g>
<!-- Node2&#45;&gt;Node6 -->
<g id="edge5" class="edge">
<title>Node2&#45;&gt;Node6</title>
<path fill="none" stroke="midnightblue" d="M301.1,-494.97C325.08,-488.12 353.64,-479.96 378.69,-472.8"/>
<polygon fill="midnightblue" stroke="midnightblue" points="379.81,-476.12 388.46,-470.01 377.89,-469.39 379.81,-476.12"/>
</g>
<!-- Node7&#45;&gt;Node3 -->
<g id="edge7" class="edge">
<title>Node7&#45;&gt;Node3</title>
<path fill="none" stroke="midnightblue" d="M258.95,-385.36C274.02,-407.55 302.73,-449.87 327,-486 343.08,-509.94 339.98,-522.62 363,-540 365.47,-541.87 368.09,-543.6 370.81,-545.2"/>
<polygon fill="midnightblue" stroke="midnightblue" points="369.31,-548.37 379.79,-549.9 372.56,-542.16 369.31,-548.37"/>
</g>
<!-- Node7&#45;&gt;Node5 -->
<g id="edge13" class="edge">
<title>Node7&#45;&gt;Node5</title>
<path fill="none" stroke="midnightblue" d="M260.74,-385.13C280.21,-408.36 320.43,-452.94 363,-480 365.61,-481.66 368.33,-483.25 371.11,-484.77"/>
<polygon fill="midnightblue" stroke="midnightblue" points="369.7,-487.98 380.2,-489.4 372.88,-481.74 369.7,-487.98"/>
</g>
<!-- Node7&#45;&gt;Node6 -->
<g id="edge18" class="edge">
<title>Node7&#45;&gt;Node6</title>
<path fill="none" stroke="midnightblue" d="M274.26,-385.14C297.07,-398.15 331.53,-416.83 363,-430 368.46,-432.29 374.21,-434.49 380.01,-436.58"/>
<polygon fill="midnightblue" stroke="midnightblue" points="379.18,-439.99 389.77,-439.98 381.48,-433.38 379.18,-439.99"/>
</g>
<!-- Node8 -->
<g id="node8" class="node">
<title>Node8</title>
<g id="a_node8"><a xlink:href="classzero__mate_1_1arm1176jzf__s_1_1isa_1_1CPSR__Transfer.html#a01a26a3a6acf88a634a319d0a8a49daa" target="_top" xlink:title=" ">
<polygon fill="none" stroke="black" points="377,-379.5 377,-420.5 507,-420.5 507,-379.5 377,-379.5"/>
<text text-anchor="start" x="385" y="-408.5" font-family="Helvetica,sans-Serif" font-size="10.00">zero_mate::arm1176jzf</text>
<text text-anchor="start" x="385" y="-397.5" font-family="Helvetica,sans-Serif" font-size="10.00">_s::isa::CPSR_Transfer</text>
<text text-anchor="middle" x="442" y="-386.5" font-family="Helvetica,sans-Serif" font-size="10.00">::Get_Mask</text>
</a>
</g>
</g>
<!-- Node7&#45;&gt;Node8 -->
<g id="edge8" class="edge">
<title>Node7&#45;&gt;Node8</title>
<path fill="none" stroke="midnightblue" d="M327.07,-382.25C340.12,-384.28 353.61,-386.38 366.55,-388.4"/>
<polygon fill="midnightblue" stroke="midnightblue" points="366.36,-391.91 376.78,-389.99 367.44,-384.99 366.36,-391.91"/>
</g>
<!-- Node13 -->
<g id="node13" class="node">
<title>Node13</title>
<g id="a_node13"><a xlink:href="classzero__mate_1_1arm1176jzf__s_1_1isa_1_1CPSR__Transfer.html#aad8286360247014777a9f9784af744fd" target="_top" xlink:title=" ">
<polygon fill="none" stroke="black" points="377,-319.5 377,-360.5 507,-360.5 507,-319.5 377,-319.5"/>
<text text-anchor="start" x="385" y="-348.5" font-family="Helvetica,sans-Serif" font-size="10.00">zero_mate::arm1176jzf</text>
<text text-anchor="start" x="385" y="-337.5" font-family="Helvetica,sans-Serif" font-size="10.00">_s::isa::CPSR_Transfer</text>
<text text-anchor="middle" x="442" y="-326.5" font-family="Helvetica,sans-Serif" font-size="10.00">::Get_Rm</text>
</a>
</g>
</g>
<!-- Node7&#45;&gt;Node13 -->
<g id="edge14" class="edge">
<title>Node7&#45;&gt;Node13</title>
<path fill="none" stroke="midnightblue" d="M327.07,-357.75C340.12,-355.72 353.61,-353.62 366.55,-351.6"/>
<polygon fill="midnightblue" stroke="midnightblue" points="367.44,-355.01 376.78,-350.01 366.36,-348.09 367.44,-355.01"/>
</g>
<!-- Node14 -->
<g id="node14" class="node">
<title>Node14</title>
<g id="a_node14"><a xlink:href="classzero__mate_1_1arm1176jzf__s_1_1CCPU__Core.html#ac0b5e216097f56e428a5c67eb63a08d9" target="_top" xlink:title="Calculates the second immediate operand of a given instruction.">
<polygon fill="none" stroke="black" points="366,-259.5 366,-300.5 518,-300.5 518,-259.5 366,-259.5"/>
<text text-anchor="start" x="374" y="-288.5" font-family="Helvetica,sans-Serif" font-size="10.00">zero_mate::arm1176jzf</text>
<text text-anchor="start" x="374" y="-277.5" font-family="Helvetica,sans-Serif" font-size="10.00">_s::CCPU_Core::Get_Second</text>
<text text-anchor="middle" x="442" y="-266.5" font-family="Helvetica,sans-Serif" font-size="10.00">_Operand_Imm</text>
</a>
</g>
</g>
<!-- Node7&#45;&gt;Node14 -->
<g id="edge15" class="edge">
<title>Node7&#45;&gt;Node14</title>
<path fill="none" stroke="midnightblue" d="M306.45,-354.96C313.59,-352.12 320.62,-348.82 327,-345 346.14,-333.53 344.2,-322.03 363,-310 365.6,-308.33 368.32,-306.74 371.1,-305.21"/>
<polygon fill="midnightblue" stroke="midnightblue" points="372.87,-308.23 380.18,-300.57 369.69,-302 372.87,-308.23"/>
</g>
<!-- Node17 -->
<g id="node17" class="node">
<title>Node17</title>
<g id="a_node17"><a xlink:href="classzero__mate_1_1arm1176jzf__s_1_1isa_1_1CPSR__Transfer.html#ae211666723c56b5f5ea617c8fe51619f" target="_top" xlink:title=" ">
<polygon fill="none" stroke="black" points="377,-199.5 377,-240.5 507,-240.5 507,-199.5 377,-199.5"/>
<text text-anchor="start" x="385" y="-228.5" font-family="Helvetica,sans-Serif" font-size="10.00">zero_mate::arm1176jzf</text>
<text text-anchor="start" x="385" y="-217.5" font-family="Helvetica,sans-Serif" font-size="10.00">_s::isa::CPSR_Transfer</text>
<text text-anchor="middle" x="442" y="-206.5" font-family="Helvetica,sans-Serif" font-size="10.00">::Is_Immediate</text>
</a>
</g>
</g>
<!-- Node7&#45;&gt;Node17 -->
<g id="edge19" class="edge">
<title>Node7&#45;&gt;Node17</title>
<path fill="none" stroke="midnightblue" d="M313.36,-354.83C318.31,-352.08 322.95,-348.84 327,-345 359.78,-313.94 331.15,-282.01 363,-250 364.66,-248.33 366.43,-246.75 368.28,-245.26"/>
<polygon fill="midnightblue" stroke="midnightblue" points="370.68,-247.85 376.86,-239.25 366.66,-242.11 370.68,-247.85"/>
</g>
<!-- Node18 -->
<g id="node18" class="node">
<title>Node18</title>
<g id="a_node18"><a xlink:href="classzero__mate_1_1arm1176jzf__s_1_1CCPU__Context.html#a53765299c790cc790e15deb2c701bd2a" target="_top" xlink:title=" ">
<polygon fill="none" stroke="black" points="364,-134 364,-164 520,-164 520,-134 364,-134"/>
<text text-anchor="start" x="372" y="-152" font-family="Helvetica,sans-Serif" font-size="10.00">zero_mate::arm1176jzf</text>
<text text-anchor="middle" x="442" y="-141" font-family="Helvetica,sans-Serif" font-size="10.00">_s::CCPU_Context::Set_CPSR</text>
</a>
</g>
</g>
<!-- Node7&#45;&gt;Node18 -->
<g id="edge20" class="edge">
<title>Node7&#45;&gt;Node18</title>
<path fill="none" stroke="midnightblue" d="M314.67,-354.95C319.22,-352.18 323.41,-348.89 327,-345 374.97,-293.03 319.78,-245.98 363,-190 369.66,-181.38 378.65,-174.38 388.15,-168.77"/>
<polygon fill="midnightblue" stroke="midnightblue" points="389.84,-171.84 396.98,-164 386.52,-165.68 389.84,-171.84"/>
</g>
<!-- Node24 -->
<g id="node24" class="node">
<title>Node24</title>
<g id="a_node24"><a xlink:href="classzero__mate_1_1arm1176jzf__s_1_1CCPU__Context.html#a1b322131a1168763d2b8083c17a1079b" target="_top" xlink:title=" ">
<polygon fill="none" stroke="black" points="364.5,-85 364.5,-115 519.5,-115 519.5,-85 364.5,-85"/>
<text text-anchor="start" x="372.5" y="-103" font-family="Helvetica,sans-Serif" font-size="10.00">zero_mate::arm1176jzf</text>
<text text-anchor="middle" x="442" y="-92" font-family="Helvetica,sans-Serif" font-size="10.00">_s::CCPU_Context::Set_SPSR</text>
</a>
</g>
</g>
<!-- Node7&#45;&gt;Node24 -->
<g id="edge26" class="edge">
<title>Node7&#45;&gt;Node24</title>
<path fill="none" stroke="midnightblue" d="M315.32,-354.98C319.66,-352.19 323.63,-348.9 327,-345 391.76,-270.01 298.31,-200.05 363,-125 364.15,-123.67 365.37,-122.4 366.65,-121.21"/>
<polygon fill="midnightblue" stroke="midnightblue" points="368.83,-123.95 374.6,-115.06 364.55,-118.41 368.83,-123.95"/>
</g>
<!-- Node9 -->
<g id="node9" class="node">
<title>Node9</title>
<g id="a_node9"><a xlink:href="classzero__mate_1_1arm1176jzf__s_1_1isa_1_1CPSR__Transfer.html#a57095b246ae459c4135f5d5d9f6cbc85" target="_top" xlink:title=" ">
<polygon fill="none" stroke="black" points="569,-508.5 569,-549.5 699,-549.5 699,-508.5 569,-508.5"/>
<text text-anchor="start" x="577" y="-537.5" font-family="Helvetica,sans-Serif" font-size="10.00">zero_mate::arm1176jzf</text>
<text text-anchor="start" x="577" y="-526.5" font-family="Helvetica,sans-Serif" font-size="10.00">_s::isa::CPSR_Transfer</text>
<text text-anchor="middle" x="634" y="-515.5" font-family="Helvetica,sans-Serif" font-size="10.00">::Is_C_Bit_Set</text>
</a>
</g>
</g>
<!-- Node8&#45;&gt;Node9 -->
<g id="edge9" class="edge">
<title>Node8&#45;&gt;Node9</title>
<path fill="none" stroke="midnightblue" d="M506.61,-420.65C511.77,-423.68 516.66,-427.11 521,-431 546.46,-453.83 531.52,-476.2 557,-499 558.47,-500.31 560,-501.57 561.58,-502.78"/>
<polygon fill="midnightblue" stroke="midnightblue" points="559.64,-505.69 569.89,-508.38 563.56,-499.89 559.64,-505.69"/>
</g>
<!-- Node10 -->
<g id="node10" class="node">
<title>Node10</title>
<g id="a_node10"><a xlink:href="classzero__mate_1_1arm1176jzf__s_1_1isa_1_1CPSR__Transfer.html#aa2fa7591782207b606ca5542f57622cb" target="_top" xlink:title=" ">
<polygon fill="none" stroke="black" points="569,-448.5 569,-489.5 699,-489.5 699,-448.5 569,-448.5"/>
<text text-anchor="start" x="577" y="-477.5" font-family="Helvetica,sans-Serif" font-size="10.00">zero_mate::arm1176jzf</text>
<text text-anchor="start" x="577" y="-466.5" font-family="Helvetica,sans-Serif" font-size="10.00">_s::isa::CPSR_Transfer</text>
<text text-anchor="middle" x="634" y="-455.5" font-family="Helvetica,sans-Serif" font-size="10.00">::Is_F_Bit_Set</text>
</a>
</g>
</g>
<!-- Node8&#45;&gt;Node10 -->
<g id="edge10" class="edge">
<title>Node8&#45;&gt;Node10</title>
<path fill="none" stroke="midnightblue" d="M499.49,-420.52C520.65,-428.2 544.87,-436.99 566.82,-444.97"/>
<polygon fill="midnightblue" stroke="midnightblue" points="565.8,-448.32 576.4,-448.44 568.19,-441.74 565.8,-448.32"/>
</g>
<!-- Node11 -->
<g id="node11" class="node">
<title>Node11</title>
<g id="a_node11"><a xlink:href="classzero__mate_1_1arm1176jzf__s_1_1isa_1_1CPSR__Transfer.html#a6a0b2b90bc8fa9d50266f4416f2b5a0d" target="_top" xlink:title=" ">
<polygon fill="none" stroke="black" points="569,-388.5 569,-429.5 699,-429.5 699,-388.5 569,-388.5"/>
<text text-anchor="start" x="577" y="-417.5" font-family="Helvetica,sans-Serif" font-size="10.00">zero_mate::arm1176jzf</text>
<text text-anchor="start" x="577" y="-406.5" font-family="Helvetica,sans-Serif" font-size="10.00">_s::isa::CPSR_Transfer</text>
<text text-anchor="middle" x="634" y="-395.5" font-family="Helvetica,sans-Serif" font-size="10.00">::Is_S_Bit_Set</text>
</a>
</g>
</g>
<!-- Node8&#45;&gt;Node11 -->
<g id="edge11" class="edge">
<title>Node8&#45;&gt;Node11</title>
<path fill="none" stroke="midnightblue" d="M507.06,-403.03C523.57,-403.82 541.47,-404.66 558.46,-405.47"/>
<polygon fill="midnightblue" stroke="midnightblue" points="558.74,-408.99 568.89,-405.96 559.07,-401.99 558.74,-408.99"/>
</g>
<!-- Node12 -->
<g id="node12" class="node">
<title>Node12</title>
<g id="a_node12"><a xlink:href="classzero__mate_1_1arm1176jzf__s_1_1isa_1_1CPSR__Transfer.html#ad7c504ddc0bf7e0d391e49993b6159ef" target="_top" xlink:title=" ">
<polygon fill="none" stroke="black" points="569,-328.5 569,-369.5 699,-369.5 699,-328.5 569,-328.5"/>
<text text-anchor="start" x="577" y="-357.5" font-family="Helvetica,sans-Serif" font-size="10.00">zero_mate::arm1176jzf</text>
<text text-anchor="start" x="577" y="-346.5" font-family="Helvetica,sans-Serif" font-size="10.00">_s::isa::CPSR_Transfer</text>
<text text-anchor="middle" x="634" y="-335.5" font-family="Helvetica,sans-Serif" font-size="10.00">::Is_X_Bit_Set</text>
</a>
</g>
</g>
<!-- Node8&#45;&gt;Node12 -->
<g id="edge12" class="edge">
<title>Node8&#45;&gt;Node12</title>
<path fill="none" stroke="midnightblue" d="M507.06,-382.8C523.72,-378.33 541.81,-373.48 558.94,-368.88"/>
<polygon fill="midnightblue" stroke="midnightblue" points="560.14,-372.18 568.89,-366.21 558.33,-365.42 560.14,-372.18"/>
</g>
<!-- Node15 -->
<g id="node15" class="node">
<title>Node15</title>
<g id="a_node15"><a xlink:href="classzero__mate_1_1arm1176jzf__s_1_1CCPU__Context.html#a0013811c3eef6d91ddfd2423a08889ef" target="_top" xlink:title=" ">
<polygon fill="none" stroke="black" points="569,-268.5 569,-309.5 699,-309.5 699,-268.5 569,-268.5"/>
<text text-anchor="start" x="577" y="-297.5" font-family="Helvetica,sans-Serif" font-size="10.00">zero_mate::arm1176jzf</text>
<text text-anchor="start" x="577" y="-286.5" font-family="Helvetica,sans-Serif" font-size="10.00">_s::CCPU_Context::Is</text>
<text text-anchor="middle" x="634" y="-275.5" font-family="Helvetica,sans-Serif" font-size="10.00">_Flag_Set</text>
</a>
</g>
</g>
<!-- Node14&#45;&gt;Node15 -->
<g id="edge16" class="edge">
<title>Node14&#45;&gt;Node15</title>
<path fill="none" stroke="midnightblue" d="M518.09,-283.56C531.48,-284.19 545.43,-284.85 558.79,-285.48"/>
<polygon fill="midnightblue" stroke="midnightblue" points="558.73,-288.99 568.88,-285.96 559.06,-281.99 558.73,-288.99"/>
</g>
<!-- Node16 -->
<g id="node16" class="node">
<title>Node16</title>
<g id="a_node16"><a xlink:href="namespacezero__mate_1_1utils_1_1math.html#a9cdc39df63ef0d6d33123bac4fffb89b" target="_top" xlink:title="Performs an ROR (rotate right extended) operation on the given integral value.">
<polygon fill="none" stroke="black" points="557,-230.5 557,-249.5 711,-249.5 711,-230.5 557,-230.5"/>
<text text-anchor="middle" x="634" y="-237.5" font-family="Helvetica,sans-Serif" font-size="10.00">zero_mate::utils::math::ROR</text>
</a>
</g>
</g>
<!-- Node14&#45;&gt;Node16 -->
<g id="edge17" class="edge">
<title>Node14&#45;&gt;Node16</title>
<path fill="none" stroke="midnightblue" d="M518.09,-264.19C538.05,-259.99 559.24,-255.53 577.91,-251.6"/>
<polygon fill="midnightblue" stroke="midnightblue" points="578.65,-255.02 587.71,-249.53 577.21,-248.17 578.65,-255.02"/>
</g>
<!-- Node19 -->
<g id="node19" class="node">
<title>Node19</title>
<g id="a_node19"><a xlink:href="classzero__mate_1_1utils_1_1CLogging__System.html#aba3c5c64cd12e058e6a288db2cd89a15" target="_top" xlink:title=" ">
<polygon fill="none" stroke="black" points="561,-181 561,-211 707,-211 707,-181 561,-181"/>
<text text-anchor="start" x="569" y="-199" font-family="Helvetica,sans-Serif" font-size="10.00">zero_mate::utils::CLogging</text>
<text text-anchor="middle" x="634" y="-188" font-family="Helvetica,sans-Serif" font-size="10.00">_System::Error</text>
</a>
</g>
</g>
<!-- Node18&#45;&gt;Node19 -->
<g id="edge21" class="edge">
<title>Node18&#45;&gt;Node19</title>
<path fill="none" stroke="midnightblue" d="M503.64,-164C522.32,-168.62 543.05,-173.75 562.34,-178.52"/>
<polygon fill="midnightblue" stroke="midnightblue" points="561.74,-181.98 572.28,-180.98 563.42,-175.18 561.74,-181.98"/>
</g>
<!-- Node21 -->
<g id="node21" class="node">
<title>Node21</title>
<g id="a_node21"><a xlink:href="classzero__mate_1_1arm1176jzf__s_1_1CCPU__Context.html#aa740f9219bb413d707ac72f373e60d3a" target="_top" xlink:title=" ">
<polygon fill="none" stroke="black" points="569,-120.5 569,-161.5 699,-161.5 699,-120.5 569,-120.5"/>
<text text-anchor="start" x="577" y="-149.5" font-family="Helvetica,sans-Serif" font-size="10.00">zero_mate::arm1176jzf</text>
<text text-anchor="start" x="577" y="-138.5" font-family="Helvetica,sans-Serif" font-size="10.00">_s::CCPU_Context::Get</text>
<text text-anchor="middle" x="634" y="-127.5" font-family="Helvetica,sans-Serif" font-size="10.00">_CPU_Mode</text>
</a>
</g>
</g>
<!-- Node18&#45;&gt;Node21 -->
<g id="edge23" class="edge">
<title>Node18&#45;&gt;Node21</title>
<path fill="none" stroke="midnightblue" d="M520.01,-145.76C532.83,-145.22 546.11,-144.66 558.86,-144.12"/>
<polygon fill="midnightblue" stroke="midnightblue" points="559.11,-147.61 568.96,-143.7 558.82,-140.62 559.11,-147.61"/>
</g>
<!-- Node22 -->
<g id="node22" class="node">
<title>Node22</title>
<g id="a_node22"><a xlink:href="classzero__mate_1_1arm1176jzf__s_1_1CCPU__Context.html#aa53dae8f0dd16d916a852e572dfa95ba" target="_top" xlink:title=" ">
<polygon fill="none" stroke="black" points="562.5,-60.5 562.5,-101.5 705.5,-101.5 705.5,-60.5 562.5,-60.5"/>
<text text-anchor="start" x="570.5" y="-89.5" font-family="Helvetica,sans-Serif" font-size="10.00">zero_mate::arm1176jzf</text>
<text text-anchor="start" x="570.5" y="-78.5" font-family="Helvetica,sans-Serif" font-size="10.00">_s::CCPU_Context::Invalid</text>
<text text-anchor="middle" x="634" y="-67.5" font-family="Helvetica,sans-Serif" font-size="10.00">_Change_Of_Control_Bits</text>
</a>
</g>
</g>
<!-- Node18&#45;&gt;Node22 -->
<g id="edge24" class="edge">
<title>Node18&#45;&gt;Node22</title>
<path fill="none" stroke="midnightblue" d="M493.95,-133.93C503,-131.08 512.31,-128.04 521,-125 523.85,-124 547.01,-114.92 571.53,-105.26"/>
<polygon fill="midnightblue" stroke="midnightblue" points="572.94,-108.47 580.96,-101.54 570.37,-101.95 572.94,-108.47"/>
</g>
<!-- Node23 -->
<g id="node23" class="node">
<title>Node23</title>
<g id="a_node23"><a xlink:href="classzero__mate_1_1arm1176jzf__s_1_1CCPU__Context.html#a7efff674f8141eab73cb69099220f0d5" target="_top" xlink:title=" ">
<polygon fill="none" stroke="black" points="569,-0.5 569,-41.5 699,-41.5 699,-0.5 569,-0.5"/>
<text text-anchor="start" x="577" y="-29.5" font-family="Helvetica,sans-Serif" font-size="10.00">zero_mate::arm1176jzf</text>
<text text-anchor="start" x="577" y="-18.5" font-family="Helvetica,sans-Serif" font-size="10.00">_s::CCPU_Context::Set</text>
<text text-anchor="middle" x="634" y="-7.5" font-family="Helvetica,sans-Serif" font-size="10.00">_CPU_Mode</text>
</a>
</g>
</g>
<!-- Node18&#45;&gt;Node23 -->
<g id="edge25" class="edge">
<title>Node18&#45;&gt;Node23</title>
<path fill="none" stroke="midnightblue" d="M507.84,-133.85C512.56,-131.34 517.02,-128.41 521,-125 548.78,-101.21 530.16,-75.85 557,-51 558.29,-49.81 559.63,-48.66 561.02,-47.56"/>
<polygon fill="midnightblue" stroke="midnightblue" points="563.2,-50.3 569.39,-41.7 559.19,-44.56 563.2,-50.3"/>
</g>
<!-- Node20 -->
<g id="node20" class="node">
<title>Node20</title>
<g id="a_node20"><a xlink:href="classzero__mate_1_1utils_1_1CLogging__System.html#af3fd8f336b5853e954283d93f2c32edd" target="_top" xlink:title=" ">
<polygon fill="none" stroke="black" points="747,-181 747,-211 896,-211 896,-181 747,-181"/>
<text text-anchor="start" x="755" y="-199" font-family="Helvetica,sans-Serif" font-size="10.00">zero_mate::utils::CLogging</text>
<text text-anchor="middle" x="821.5" y="-188" font-family="Helvetica,sans-Serif" font-size="10.00">_System::Extract_Filename</text>
</a>
</g>
</g>
<!-- Node19&#45;&gt;Node20 -->
<g id="edge22" class="edge">
<title>Node19&#45;&gt;Node20</title>
<path fill="none" stroke="midnightblue" d="M707.25,-196C716.91,-196 726.89,-196 736.73,-196"/>
<polygon fill="midnightblue" stroke="midnightblue" points="736.92,-199.5 746.92,-196 736.92,-192.5 736.92,-199.5"/>
</g>
</g>
</svg>
