<?xml version="1.0" encoding="UTF-8" standalone="no"?>
<!DOCTYPE svg PUBLIC "-//W3C//DTD SVG 1.1//EN"
 "http://www.w3.org/Graphics/SVG/1.1/DTD/svg11.dtd">
<!-- Generated by graphviz version 2.43.0 (0)
 -->
<!-- Title: zero_mate::gui::CAUX_Window::Render Pages: 1 -->
<svg width="517pt" height="230pt"
 viewBox="0.00 0.00 517.00 230.00" xmlns="http://www.w3.org/2000/svg" xmlns:xlink="http://www.w3.org/1999/xlink">
<g id="graph0" class="graph" transform="scale(1 1) rotate(0) translate(4 226)">
<title>zero_mate::gui::CAUX_Window::Render</title>
<!-- Node1 -->
<g id="node1" class="node">
<title>Node1</title>
<g id="a_node1"><a xlink:title="Renders GPIO pins (IGUI_Window interface).">
<polygon fill="#bfbfbf" stroke="black" points="0,-120 0,-150 123,-150 123,-120 0,-120"/>
<text text-anchor="start" x="8" y="-138" font-family="Helvetica,sans-Serif" font-size="10.00">zero_mate::gui::CAUX</text>
<text text-anchor="middle" x="61.5" y="-127" font-family="Helvetica,sans-Serif" font-size="10.00">_Window::Render</text>
</a>
</g>
</g>
<!-- Node2 -->
<g id="node2" class="node">
<title>Node2</title>
<g id="a_node2"><a xlink:href="classzero__mate_1_1gui_1_1CAUX__Window.html#a8e358814f5acb7ee712a6193dbfc908f" target="_top" xlink:title="Renders the ENABLES and IRQ register of the AUX peripheral.">
<polygon fill="none" stroke="black" points="174.5,-145 174.5,-175 301.5,-175 301.5,-145 174.5,-145"/>
<text text-anchor="start" x="182.5" y="-163" font-family="Helvetica,sans-Serif" font-size="10.00">zero_mate::gui::CAUX</text>
<text text-anchor="middle" x="238" y="-152" font-family="Helvetica,sans-Serif" font-size="10.00">_Window::Render_AUX</text>
</a>
</g>
</g>
<!-- Node1&#45;&gt;Node2 -->
<g id="edge1" class="edge">
<title>Node1&#45;&gt;Node2</title>
<path fill="none" stroke="midnightblue" d="M123.04,-143.67C136.43,-145.59 150.74,-147.64 164.55,-149.62"/>
<polygon fill="midnightblue" stroke="midnightblue" points="164.1,-153.09 174.49,-151.04 165.09,-146.16 164.1,-153.09"/>
</g>
<!-- Node3 -->
<g id="node3" class="node">
<title>Node3</title>
<g id="a_node3"><a xlink:href="classzero__mate_1_1gui_1_1CAUX__Window.html#a84134555bb7100075f909c0de2f0829b" target="_top" xlink:title="Renders information related to the mini UART auxiliary peripheral.">
<polygon fill="none" stroke="black" points="159,-96 159,-126 317,-126 317,-96 159,-96"/>
<text text-anchor="start" x="167" y="-114" font-family="Helvetica,sans-Serif" font-size="10.00">zero_mate::gui::CAUX</text>
<text text-anchor="middle" x="238" y="-103" font-family="Helvetica,sans-Serif" font-size="10.00">_Window::Render_Mini_UART</text>
</a>
</g>
</g>
<!-- Node1&#45;&gt;Node3 -->
<g id="edge2" class="edge">
<title>Node1&#45;&gt;Node3</title>
<path fill="none" stroke="midnightblue" d="M123.04,-126.67C131.32,-125.53 139.95,-124.35 148.6,-123.16"/>
<polygon fill="midnightblue" stroke="midnightblue" points="149.31,-126.59 158.74,-121.76 148.36,-119.66 149.31,-126.59"/>
</g>
<!-- Node4 -->
<g id="node4" class="node">
<title>Node4</title>
<g id="a_node4"><a xlink:href="classzero__mate_1_1peripheral_1_1CMini__UART.html#a3ab953c18059ccd52099be9bb7b6edac" target="_top" xlink:title="Returns the set up baud rate.">
<polygon fill="none" stroke="black" points="364,-180.5 364,-221.5 498,-221.5 498,-180.5 364,-180.5"/>
<text text-anchor="start" x="372" y="-209.5" font-family="Helvetica,sans-Serif" font-size="10.00">zero_mate::peripheral</text>
<text text-anchor="start" x="372" y="-198.5" font-family="Helvetica,sans-Serif" font-size="10.00">::CMini_UART::Get_Baud</text>
<text text-anchor="middle" x="431" y="-187.5" font-family="Helvetica,sans-Serif" font-size="10.00">_Rate_Counter</text>
</a>
</g>
</g>
<!-- Node3&#45;&gt;Node4 -->
<g id="edge3" class="edge">
<title>Node3&#45;&gt;Node4</title>
<path fill="none" stroke="midnightblue" d="M296.58,-126.07C303.68,-128.9 310.66,-132.19 317,-136 336.13,-147.49 334.23,-158.93 353,-171 355.57,-172.65 358.25,-174.24 361,-175.76"/>
<polygon fill="midnightblue" stroke="midnightblue" points="359.47,-178.91 369.97,-180.38 362.68,-172.69 359.47,-178.91"/>
</g>
<!-- Node5 -->
<g id="node5" class="node">
<title>Node5</title>
<g id="a_node5"><a xlink:href="classzero__mate_1_1peripheral_1_1CMini__UART.html#a2f29b39f721b4ae5acf81f61ab210325" target="_top" xlink:title="Returns the length of payload (7 or 8 bits).">
<polygon fill="none" stroke="black" points="365,-120.5 365,-161.5 497,-161.5 497,-120.5 365,-120.5"/>
<text text-anchor="start" x="373" y="-149.5" font-family="Helvetica,sans-Serif" font-size="10.00">zero_mate::peripheral</text>
<text text-anchor="start" x="373" y="-138.5" font-family="Helvetica,sans-Serif" font-size="10.00">::CMini_UART::Get_Char</text>
<text text-anchor="middle" x="431" y="-127.5" font-family="Helvetica,sans-Serif" font-size="10.00">_Length</text>
</a>
</g>
</g>
<!-- Node3&#45;&gt;Node5 -->
<g id="edge4" class="edge">
<title>Node3&#45;&gt;Node5</title>
<path fill="none" stroke="midnightblue" d="M317.24,-123.29C329.63,-125.24 342.43,-127.25 354.75,-129.18"/>
<polygon fill="midnightblue" stroke="midnightblue" points="354.55,-132.69 364.98,-130.79 355.64,-125.78 354.55,-132.69"/>
</g>
<!-- Node6 -->
<g id="node6" class="node">
<title>Node6</title>
<g id="a_node6"><a xlink:href="classzero__mate_1_1peripheral_1_1CMini__UART.html#a2a71009ed1f6227341dad8926bd73d81" target="_top" xlink:title="Returns information about whether the receiver is enabled or not.">
<polygon fill="none" stroke="black" points="359.5,-60.5 359.5,-101.5 502.5,-101.5 502.5,-60.5 359.5,-60.5"/>
<text text-anchor="start" x="367.5" y="-89.5" font-family="Helvetica,sans-Serif" font-size="10.00">zero_mate::peripheral</text>
<text text-anchor="start" x="367.5" y="-78.5" font-family="Helvetica,sans-Serif" font-size="10.00">::CMini_UART::Is_Receiver</text>
<text text-anchor="middle" x="431" y="-67.5" font-family="Helvetica,sans-Serif" font-size="10.00">_Enabled</text>
</a>
</g>
</g>
<!-- Node3&#45;&gt;Node6 -->
<g id="edge5" class="edge">
<title>Node3&#45;&gt;Node6</title>
<path fill="none" stroke="midnightblue" d="M317.24,-98.71C327.78,-97.06 338.61,-95.35 349.19,-93.69"/>
<polygon fill="midnightblue" stroke="midnightblue" points="349.91,-97.12 359.24,-92.11 348.82,-90.21 349.91,-97.12"/>
</g>
<!-- Node7 -->
<g id="node7" class="node">
<title>Node7</title>
<g id="a_node7"><a xlink:href="classzero__mate_1_1peripheral_1_1CMini__UART.html#a968340fbf2802af5178531146bca03c8" target="_top" xlink:title="Returns information about whether the transmitter is enabled or not.">
<polygon fill="none" stroke="black" points="353,-0.5 353,-41.5 509,-41.5 509,-0.5 353,-0.5"/>
<text text-anchor="start" x="361" y="-29.5" font-family="Helvetica,sans-Serif" font-size="10.00">zero_mate::peripheral</text>
<text text-anchor="start" x="361" y="-18.5" font-family="Helvetica,sans-Serif" font-size="10.00">::CMini_UART::Is_Transmitter</text>
<text text-anchor="middle" x="431" y="-7.5" font-family="Helvetica,sans-Serif" font-size="10.00">_Enabled</text>
</a>
</g>
</g>
<!-- Node3&#45;&gt;Node7 -->
<g id="edge6" class="edge">
<title>Node3&#45;&gt;Node7</title>
<path fill="none" stroke="midnightblue" d="M265.75,-95.82C288.59,-83.13 322.48,-64.92 353,-51 357.07,-49.14 361.3,-47.29 365.58,-45.47"/>
<polygon fill="midnightblue" stroke="midnightblue" points="367.11,-48.63 375,-41.55 364.42,-42.16 367.11,-48.63"/>
</g>
</g>
</svg>
