<?xml version="1.0" encoding="UTF-8" standalone="no"?>
<!DOCTYPE svg PUBLIC "-//W3C//DTD SVG 1.1//EN"
 "http://www.w3.org/Graphics/SVG/1.1/DTD/svg11.dtd">
<!-- Generated by graphviz version 2.43.0 (0)
 -->
<!-- Title: zero_mate::arm1176jzf_s::isa::CPSR_Transfer::Is_S_Bit_Set Pages: 1 -->
<svg width="667pt" height="50pt"
 viewBox="0.00 0.00 667.00 50.00" xmlns="http://www.w3.org/2000/svg" xmlns:xlink="http://www.w3.org/1999/xlink">
<g id="graph0" class="graph" transform="scale(1 1) rotate(0) translate(4 46)">
<title>zero_mate::arm1176jzf_s::isa::CPSR_Transfer::Is_S_Bit_Set</title>
<!-- Node1 -->
<g id="node1" class="node">
<title>Node1</title>
<g id="a_node1"><a xlink:title=" ">
<polygon fill="#bfbfbf" stroke="black" points="529,-0.5 529,-41.5 659,-41.5 659,-0.5 529,-0.5"/>
<text text-anchor="start" x="537" y="-29.5" font-family="Helvetica,sans-Serif" font-size="10.00">zero_mate::arm1176jzf</text>
<text text-anchor="start" x="537" y="-18.5" font-family="Helvetica,sans-Serif" font-size="10.00">_s::isa::CPSR_Transfer</text>
<text text-anchor="middle" x="594" y="-7.5" font-family="Helvetica,sans-Serif" font-size="10.00">::Is_S_Bit_Set</text>
</a>
</g>
</g>
<!-- Node2 -->
<g id="node2" class="node">
<title>Node2</title>
<g id="a_node2"><a xlink:href="classzero__mate_1_1arm1176jzf__s_1_1isa_1_1CPSR__Transfer.html#a01a26a3a6acf88a634a319d0a8a49daa" target="_top" xlink:title=" ">
<polygon fill="none" stroke="black" points="363,-0.5 363,-41.5 493,-41.5 493,-0.5 363,-0.5"/>
<text text-anchor="start" x="371" y="-29.5" font-family="Helvetica,sans-Serif" font-size="10.00">zero_mate::arm1176jzf</text>
<text text-anchor="start" x="371" y="-18.5" font-family="Helvetica,sans-Serif" font-size="10.00">_s::isa::CPSR_Transfer</text>
<text text-anchor="middle" x="428" y="-7.5" font-family="Helvetica,sans-Serif" font-size="10.00">::Get_Mask</text>
</a>
</g>
</g>
<!-- Node1&#45;&gt;Node2 -->
<g id="edge1" class="edge">
<title>Node1&#45;&gt;Node2</title>
<path fill="none" stroke="midnightblue" d="M518.44,-21C510,-21 501.45,-21 493.16,-21"/>
<polygon fill="midnightblue" stroke="midnightblue" points="518.65,-24.5 528.65,-21 518.65,-17.5 518.65,-24.5"/>
</g>
<!-- Node3 -->
<g id="node3" class="node">
<title>Node3</title>
<g id="a_node3"><a xlink:href="classzero__mate_1_1arm1176jzf__s_1_1CCPU__Core.html#abe7461d09a52f28f99037717f61975c6" target="_top" xlink:title="Executes an MSR instruction (move data to CPSR/SPSR from an ARM register).">
<polygon fill="none" stroke="black" points="168,-6 168,-36 327,-36 327,-6 168,-6"/>
<text text-anchor="start" x="176" y="-24" font-family="Helvetica,sans-Serif" font-size="10.00">zero_mate::arm1176jzf</text>
<text text-anchor="middle" x="247.5" y="-13" font-family="Helvetica,sans-Serif" font-size="10.00">_s::CCPU_Core::Execute_MSR</text>
</a>
</g>
</g>
<!-- Node2&#45;&gt;Node3 -->
<g id="edge2" class="edge">
<title>Node2&#45;&gt;Node3</title>
<path fill="none" stroke="midnightblue" d="M352.62,-21C344.18,-21 335.55,-21 327.06,-21"/>
<polygon fill="midnightblue" stroke="midnightblue" points="352.81,-24.5 362.81,-21 352.81,-17.5 352.81,-24.5"/>
</g>
<!-- Node4 -->
<g id="node4" class="node">
<title>Node4</title>
<g id="a_node4"><a xlink:href="classzero__mate_1_1arm1176jzf__s_1_1CCPU__Core.html#a3a90c040b3cbe4545a9acc5e35acdd45" target="_top" xlink:title="Executes a PSR transfer instruction.">
<polygon fill="none" stroke="black" points="0,-6 0,-36 132,-36 132,-6 0,-6"/>
<text text-anchor="start" x="8" y="-24" font-family="Helvetica,sans-Serif" font-size="10.00">zero_mate::arm1176jzf</text>
<text text-anchor="middle" x="66" y="-13" font-family="Helvetica,sans-Serif" font-size="10.00">_s::CCPU_Core::Execute</text>
</a>
</g>
</g>
<!-- Node3&#45;&gt;Node4 -->
<g id="edge3" class="edge">
<title>Node3&#45;&gt;Node4</title>
<path fill="none" stroke="midnightblue" d="M157.71,-21C149.12,-21 140.52,-21 132.23,-21"/>
<polygon fill="midnightblue" stroke="midnightblue" points="157.77,-24.5 167.77,-21 157.77,-17.5 157.77,-24.5"/>
</g>
</g>
</svg>
