<?xml version="1.0" encoding="UTF-8" standalone="no"?>
<!DOCTYPE svg PUBLIC "-//W3C//DTD SVG 1.1//EN"
 "http://www.w3.org/Graphics/SVG/1.1/DTD/svg11.dtd">
<!-- Generated by graphviz version 2.43.0 (0)
 -->
<!-- Title: zero_mate::peripheral::IPeripheral Pages: 1 -->
<svg width="293pt" height="186pt"
 viewBox="0.00 0.00 293.00 186.00" xmlns="http://www.w3.org/2000/svg" xmlns:xlink="http://www.w3.org/1999/xlink">
<g id="graph0" class="graph" transform="scale(1 1) rotate(0) translate(4 182)">
<title>zero_mate::peripheral::IPeripheral</title>
<!-- Node1 -->
<g id="node1" class="node">
<title>Node1</title>
<g id="a_node1"><a xlink:title="This class represents a general interface of a memory&#45;mapped peripheral.">
<polygon fill="#bfbfbf" stroke="black" points="0,-73.5 0,-103.5 124,-103.5 124,-73.5 0,-73.5"/>
<text text-anchor="start" x="8" y="-91.5" font-family="Helvetica,sans-Serif" font-size="10.00">zero_mate::peripheral</text>
<text text-anchor="middle" x="62" y="-80.5" font-family="Helvetica,sans-Serif" font-size="10.00">::IPeripheral</text>
</a>
</g>
</g>
<!-- Node2 -->
<g id="node2" class="node">
<title>Node2</title>
<g id="a_node2"><a xlink:href="classzero__mate_1_1peripheral_1_1CARM__Timer.html" target="_top" xlink:title="This class represents the ARM timer used in BCM2835.">
<polygon fill="none" stroke="black" points="160.5,-147.5 160.5,-177.5 284.5,-177.5 284.5,-147.5 160.5,-147.5"/>
<text text-anchor="start" x="168.5" y="-165.5" font-family="Helvetica,sans-Serif" font-size="10.00">zero_mate::peripheral</text>
<text text-anchor="middle" x="222.5" y="-154.5" font-family="Helvetica,sans-Serif" font-size="10.00">::CARM_Timer</text>
</a>
</g>
</g>
<!-- Node1&#45;&gt;Node2 -->
<g id="edge1" class="edge">
<title>Node1&#45;&gt;Node2</title>
<path fill="none" stroke="midnightblue" d="M99.63,-108.52C117.6,-118.05 139.71,-129.34 160,-138.5 166.79,-141.56 174.1,-144.62 181.22,-147.47"/>
<polygon fill="midnightblue" stroke="midnightblue" points="101.11,-105.34 90.64,-103.72 97.81,-111.52 101.11,-105.34"/>
</g>
<!-- Node3 -->
<g id="node3" class="node">
<title>Node3</title>
<g id="a_node3"><a xlink:href="classzero__mate_1_1peripheral_1_1CGPIO__Manager.html" target="_top" xlink:title="This class represents a GPIO (general&#45;purpose I/O) manager.">
<polygon fill="none" stroke="black" points="160.5,-98.5 160.5,-128.5 284.5,-128.5 284.5,-98.5 160.5,-98.5"/>
<text text-anchor="start" x="168.5" y="-116.5" font-family="Helvetica,sans-Serif" font-size="10.00">zero_mate::peripheral</text>
<text text-anchor="middle" x="222.5" y="-105.5" font-family="Helvetica,sans-Serif" font-size="10.00">::CGPIO_Manager</text>
</a>
</g>
</g>
<!-- Node1&#45;&gt;Node3 -->
<g id="edge2" class="edge">
<title>Node1&#45;&gt;Node3</title>
<path fill="none" stroke="midnightblue" d="M134.39,-99.76C143.06,-101.13 151.87,-102.52 160.38,-103.86"/>
<polygon fill="midnightblue" stroke="midnightblue" points="134.7,-96.27 124.28,-98.17 133.61,-103.18 134.7,-96.27"/>
</g>
<!-- Node4 -->
<g id="node4" class="node">
<title>Node4</title>
<g id="a_node4"><a xlink:href="classzero__mate_1_1peripheral_1_1CInterrupt__Controller.html" target="_top" xlink:title="This class represents the interrupt controller used in BCM2835.">
<polygon fill="none" stroke="black" points="160,-49.5 160,-79.5 285,-79.5 285,-49.5 160,-49.5"/>
<text text-anchor="start" x="168" y="-67.5" font-family="Helvetica,sans-Serif" font-size="10.00">zero_mate::peripheral</text>
<text text-anchor="middle" x="222.5" y="-56.5" font-family="Helvetica,sans-Serif" font-size="10.00">::CInterrupt_Controller</text>
</a>
</g>
</g>
<!-- Node1&#45;&gt;Node4 -->
<g id="edge3" class="edge">
<title>Node1&#45;&gt;Node4</title>
<path fill="none" stroke="midnightblue" d="M134.24,-77.71C142.79,-76.42 151.46,-75.11 159.86,-73.83"/>
<polygon fill="midnightblue" stroke="midnightblue" points="133.64,-74.26 124.28,-79.22 134.69,-81.18 133.64,-74.26"/>
</g>
<!-- Node5 -->
<g id="node5" class="node">
<title>Node5</title>
<g id="a_node5"><a xlink:href="classzero__mate_1_1peripheral_1_1CMonitor.html" target="_top" xlink:title=" ">
<polygon fill="none" stroke="black" points="160.5,-0.5 160.5,-30.5 284.5,-30.5 284.5,-0.5 160.5,-0.5"/>
<text text-anchor="start" x="168.5" y="-18.5" font-family="Helvetica,sans-Serif" font-size="10.00">zero_mate::peripheral</text>
<text text-anchor="middle" x="222.5" y="-7.5" font-family="Helvetica,sans-Serif" font-size="10.00">::CMonitor</text>
</a>
</g>
</g>
<!-- Node1&#45;&gt;Node5 -->
<g id="edge4" class="edge">
<title>Node1&#45;&gt;Node5</title>
<path fill="none" stroke="midnightblue" d="M100.95,-68.92C118.73,-59.95 140.3,-49.36 160,-40.5 167.46,-37.14 175.52,-33.72 183.26,-30.54"/>
<polygon fill="midnightblue" stroke="midnightblue" points="99.36,-65.8 92.02,-73.44 102.52,-72.04 99.36,-65.8"/>
</g>
</g>
</svg>
