<?xml version="1.0" encoding="UTF-8" standalone="no"?>
<!DOCTYPE svg PUBLIC "-//W3C//DTD SVG 1.1//EN"
 "http://www.w3.org/Graphics/SVG/1.1/DTD/svg11.dtd">
<!-- Generated by graphviz version 2.43.0 (0)
 -->
<!-- Title: zero_mate::peripheral::CARM_Timer::Reset Pages: 1 -->
<svg width="311pt" height="100pt"
 viewBox="0.00 0.00 311.00 99.50" xmlns="http://www.w3.org/2000/svg" xmlns:xlink="http://www.w3.org/1999/xlink">
<g id="graph0" class="graph" transform="scale(1 1) rotate(0) translate(4 95.5)">
<title>zero_mate::peripheral::CARM_Timer::Reset</title>
<!-- Node1 -->
<g id="node1" class="node">
<title>Node1</title>
<g id="a_node1"><a xlink:title="Resets/re&#45;initializes the ARM timer (IPeripheral interface).">
<polygon fill="#bfbfbf" stroke="black" points="0,-33 0,-63 124,-63 124,-33 0,-33"/>
<text text-anchor="start" x="8" y="-51" font-family="Helvetica,sans-Serif" font-size="10.00">zero_mate::peripheral</text>
<text text-anchor="middle" x="62" y="-40" font-family="Helvetica,sans-Serif" font-size="10.00">::CARM_Timer::Reset</text>
</a>
</g>
</g>
<!-- Node2 -->
<g id="node2" class="node">
<title>Node2</title>
<g id="a_node2"><a xlink:href="classzero__mate_1_1peripheral_1_1CARM__Timer.html#a8aa88bde21b52e4ae5132f8e2a5fb73a" target="_top" xlink:title="Returns the current content of a register.">
<polygon fill="none" stroke="black" points="165,-61 165,-91 298,-91 298,-61 165,-61"/>
<text text-anchor="start" x="173" y="-79" font-family="Helvetica,sans-Serif" font-size="10.00">zero_mate::peripheral</text>
<text text-anchor="middle" x="231.5" y="-68" font-family="Helvetica,sans-Serif" font-size="10.00">::CARM_Timer::Get_Reg</text>
</a>
</g>
</g>
<!-- Node1&#45;&gt;Node2 -->
<g id="edge1" class="edge">
<title>Node1&#45;&gt;Node2</title>
<path fill="none" stroke="midnightblue" d="M124.42,-58.27C134.29,-59.92 144.61,-61.64 154.78,-63.34"/>
<polygon fill="midnightblue" stroke="midnightblue" points="154.42,-66.83 164.86,-65.03 155.57,-59.93 154.42,-66.83"/>
</g>
<!-- Node3 -->
<g id="node3" class="node">
<title>Node3</title>
<g id="a_node3"><a xlink:href="classzero__mate_1_1peripheral_1_1CARM__Timer_1_1CPrescaler.html#a4d0394597d809b327d0fc83ad8dfb900" target="_top" xlink:title="Resets the prescaler.">
<polygon fill="none" stroke="black" points="160,-0.5 160,-41.5 303,-41.5 303,-0.5 160,-0.5"/>
<text text-anchor="start" x="168" y="-29.5" font-family="Helvetica,sans-Serif" font-size="10.00">zero_mate::peripheral</text>
<text text-anchor="start" x="168" y="-18.5" font-family="Helvetica,sans-Serif" font-size="10.00">::CARM_Timer::CPrescaler</text>
<text text-anchor="middle" x="231.5" y="-7.5" font-family="Helvetica,sans-Serif" font-size="10.00">::Reset</text>
</a>
</g>
</g>
<!-- Node1&#45;&gt;Node3 -->
<g id="edge2" class="edge">
<title>Node1&#45;&gt;Node3</title>
<path fill="none" stroke="midnightblue" d="M124.42,-38.1C132.67,-36.77 141.24,-35.39 149.77,-34.01"/>
<polygon fill="midnightblue" stroke="midnightblue" points="150.42,-37.45 159.73,-32.41 149.3,-30.54 150.42,-37.45"/>
</g>
</g>
</svg>
