<?xml version="1.0" encoding="UTF-8" standalone="no"?>
<!DOCTYPE svg PUBLIC "-//W3C//DTD SVG 1.1//EN"
 "http://www.w3.org/Graphics/SVG/1.1/DTD/svg11.dtd">
<!-- Generated by graphviz version 2.43.0 (0)
 -->
<!-- Title: zero_mate::peripheral::CBSC::Increment_Passed_Cycles Pages: 1 -->
<svg width="1288pt" height="339pt"
 viewBox="0.00 0.00 1288.00 339.14" xmlns="http://www.w3.org/2000/svg" xmlns:xlink="http://www.w3.org/1999/xlink">
<g id="graph0" class="graph" transform="scale(1 1) rotate(0) translate(4 335.14)">
<title>zero_mate::peripheral::CBSC::Increment_Passed_Cycles</title>
<!-- Node1 -->
<g id="node1" class="node">
<title>Node1</title>
<g id="a_node1"><a xlink:title="Notifies the peripheral about how many CPU cycles have passed by.">
<polygon fill="#bfbfbf" stroke="black" points="0,-136.93 0,-177.93 143,-177.93 143,-136.93 0,-136.93"/>
<text text-anchor="start" x="8" y="-165.93" font-family="Helvetica,sans-Serif" font-size="10.00">zero_mate::peripheral</text>
<text text-anchor="start" x="8" y="-154.93" font-family="Helvetica,sans-Serif" font-size="10.00">::CBSC::Increment_Passed</text>
<text text-anchor="middle" x="71.5" y="-143.93" font-family="Helvetica,sans-Serif" font-size="10.00">_Cycles</text>
</a>
</g>
</g>
<!-- Node2 -->
<g id="node2" class="node">
<title>Node2</title>
<g id="a_node2"><a xlink:href="classzero__mate_1_1peripheral_1_1CBSC.html#a74b84158da1933e79f091706e27c12f5" target="_top" xlink:title=" ">
<polygon fill="none" stroke="black" points="576,-170.43 576,-200.43 700,-200.43 700,-170.43 576,-170.43"/>
<text text-anchor="start" x="584" y="-188.43" font-family="Helvetica,sans-Serif" font-size="10.00">zero_mate::peripheral</text>
<text text-anchor="middle" x="638" y="-177.43" font-family="Helvetica,sans-Serif" font-size="10.00">::CBSC::Set_GPIO_pin</text>
</a>
</g>
</g>
<!-- Node1&#45;&gt;Node2 -->
<g id="edge1" class="edge">
<title>Node1&#45;&gt;Node2</title>
<path fill="none" stroke="midnightblue" d="M101.09,-178.04C153.23,-214.21 268.57,-287.79 379,-314.43 442.51,-329.75 466.62,-341.67 526,-314.43 572.97,-292.88 607.57,-240.56 624.78,-209.58"/>
<polygon fill="midnightblue" stroke="midnightblue" points="627.9,-211.17 629.56,-200.7 621.74,-207.85 627.9,-211.17"/>
</g>
<!-- Node8 -->
<g id="node8" class="node">
<title>Node8</title>
<g id="a_node8"><a xlink:href="classzero__mate_1_1peripheral_1_1CBSC.html#a47d44cc0056a39f0404e501c4449355a" target="_top" xlink:title=" ">
<polygon fill="none" stroke="black" points="179,-93.43 179,-123.43 343,-123.43 343,-93.43 179,-93.43"/>
<text text-anchor="start" x="187" y="-111.43" font-family="Helvetica,sans-Serif" font-size="10.00">zero_mate::peripheral</text>
<text text-anchor="middle" x="261" y="-100.43" font-family="Helvetica,sans-Serif" font-size="10.00">::CBSC::Terminate_Transaction</text>
</a>
</g>
</g>
<!-- Node1&#45;&gt;Node8 -->
<g id="edge7" class="edge">
<title>Node1&#45;&gt;Node8</title>
<path fill="none" stroke="midnightblue" d="M143.12,-138.97C159.37,-134.73 176.6,-130.22 192.71,-126.02"/>
<polygon fill="midnightblue" stroke="midnightblue" points="193.78,-129.35 202.57,-123.44 192.01,-122.58 193.78,-129.35"/>
</g>
<!-- Node9 -->
<g id="node9" class="node">
<title>Node9</title>
<g id="a_node9"><a xlink:href="classzero__mate_1_1peripheral_1_1CBSC.html#aa195c567531f97d585212978ab0f687a" target="_top" xlink:title=" ">
<polygon fill="none" stroke="black" points="199,-142.43 199,-172.43 323,-172.43 323,-142.43 199,-142.43"/>
<text text-anchor="start" x="207" y="-160.43" font-family="Helvetica,sans-Serif" font-size="10.00">zero_mate::peripheral</text>
<text text-anchor="middle" x="261" y="-149.43" font-family="Helvetica,sans-Serif" font-size="10.00">::CBSC::Update</text>
</a>
</g>
</g>
<!-- Node1&#45;&gt;Node9 -->
<g id="edge8" class="edge">
<title>Node1&#45;&gt;Node9</title>
<path fill="none" stroke="midnightblue" d="M143.12,-157.43C158.05,-157.43 173.81,-157.43 188.76,-157.43"/>
<polygon fill="midnightblue" stroke="midnightblue" points="188.96,-160.93 198.96,-157.43 188.96,-153.93 188.96,-160.93"/>
</g>
<!-- Node3 -->
<g id="node3" class="node">
<title>Node3</title>
<g id="a_node3"><a xlink:href="classzero__mate_1_1utils_1_1CLogging__System.html#a57ed77e1a5cf822cea532cc5e05c3f60" target="_top" xlink:title="Logs an error message via all registered loggers.">
<polygon fill="none" stroke="black" points="750,-123.43 750,-153.43 896,-153.43 896,-123.43 750,-123.43"/>
<text text-anchor="start" x="758" y="-141.43" font-family="Helvetica,sans-Serif" font-size="10.00">zero_mate::utils::CLogging</text>
<text text-anchor="middle" x="823" y="-130.43" font-family="Helvetica,sans-Serif" font-size="10.00">_System::Error</text>
</a>
</g>
</g>
<!-- Node2&#45;&gt;Node3 -->
<g id="edge2" class="edge">
<title>Node2&#45;&gt;Node3</title>
<path fill="none" stroke="midnightblue" d="M697.41,-170.43C715.32,-165.83 735.18,-160.73 753.69,-155.97"/>
<polygon fill="midnightblue" stroke="midnightblue" points="754.71,-159.33 763.52,-153.45 752.97,-152.55 754.71,-159.33"/>
</g>
<!-- Node4 -->
<g id="node4" class="node">
<title>Node4</title>
<g id="a_node4"><a xlink:href="classzero__mate_1_1utils_1_1CLogging__System.html#a71ed11c796553cbe8fd99773406a1060" target="_top" xlink:title="Creates a formatted message to be logged.">
<polygon fill="none" stroke="black" points="932,-145.93 932,-186.93 1084,-186.93 1084,-145.93 932,-145.93"/>
<text text-anchor="start" x="940" y="-174.93" font-family="Helvetica,sans-Serif" font-size="10.00">zero_mate::utils::CLogging</text>
<text text-anchor="start" x="940" y="-163.93" font-family="Helvetica,sans-Serif" font-size="10.00">_System::Create_Formatted</text>
<text text-anchor="middle" x="1008" y="-152.93" font-family="Helvetica,sans-Serif" font-size="10.00">_Log_Msg</text>
</a>
</g>
</g>
<!-- Node3&#45;&gt;Node4 -->
<g id="edge3" class="edge">
<title>Node3&#45;&gt;Node4</title>
<path fill="none" stroke="midnightblue" d="M896.06,-149.46C904.55,-150.75 913.26,-152.09 921.9,-153.41"/>
<polygon fill="midnightblue" stroke="midnightblue" points="921.58,-156.9 931.99,-154.95 922.64,-149.98 921.58,-156.9"/>
</g>
<!-- Node7 -->
<g id="node7" class="node">
<title>Node7</title>
<g id="a_node7"><a xlink:href="classzero__mate_1_1utils_1_1CLogging__System.html#ad371c67ef65763966ccf9291002e86f3" target="_top" xlink:title="Extract the filename from a given location within the source files.">
<polygon fill="none" stroke="black" points="933.5,-96.43 933.5,-126.43 1082.5,-126.43 1082.5,-96.43 933.5,-96.43"/>
<text text-anchor="start" x="941.5" y="-114.43" font-family="Helvetica,sans-Serif" font-size="10.00">zero_mate::utils::CLogging</text>
<text text-anchor="middle" x="1008" y="-103.43" font-family="Helvetica,sans-Serif" font-size="10.00">_System::Extract_Filename</text>
</a>
</g>
</g>
<!-- Node3&#45;&gt;Node7 -->
<g id="edge6" class="edge">
<title>Node3&#45;&gt;Node7</title>
<path fill="none" stroke="midnightblue" d="M896.06,-127.8C905.1,-126.46 914.4,-125.09 923.59,-123.74"/>
<polygon fill="midnightblue" stroke="midnightblue" points="924.12,-127.2 933.5,-122.27 923.1,-120.27 924.12,-127.2"/>
</g>
<!-- Node5 -->
<g id="node5" class="node">
<title>Node5</title>
<g id="a_node5"><a xlink:href="classzero__mate_1_1utils_1_1CLogging__System.html#aa70c102c805079042ffea2a6f2a5ad64" target="_top" xlink:title="Formats a given timestamp.">
<polygon fill="none" stroke="black" points="1120,-175.43 1120,-205.43 1280,-205.43 1280,-175.43 1120,-175.43"/>
<text text-anchor="start" x="1128" y="-193.43" font-family="Helvetica,sans-Serif" font-size="10.00">zero_mate::utils::CLogging</text>
<text text-anchor="middle" x="1200" y="-182.43" font-family="Helvetica,sans-Serif" font-size="10.00">_System::Format_Timestamp</text>
</a>
</g>
</g>
<!-- Node4&#45;&gt;Node5 -->
<g id="edge4" class="edge">
<title>Node4&#45;&gt;Node5</title>
<path fill="none" stroke="midnightblue" d="M1084.09,-175.92C1092.52,-176.98 1101.16,-178.07 1109.74,-179.16"/>
<polygon fill="midnightblue" stroke="midnightblue" points="1109.41,-182.64 1119.77,-180.42 1110.29,-175.7 1109.41,-182.64"/>
</g>
<!-- Node6 -->
<g id="node6" class="node">
<title>Node6</title>
<g id="a_node6"><a xlink:href="classzero__mate_1_1utils_1_1CLogging__System.html#ae3ca637537dde05e0b9119145c840331" target="_top" xlink:title="Returns the current timestamp that will be used in a log message.">
<polygon fill="none" stroke="black" points="1127,-126.43 1127,-156.43 1273,-156.43 1273,-126.43 1127,-126.43"/>
<text text-anchor="start" x="1135" y="-144.43" font-family="Helvetica,sans-Serif" font-size="10.00">zero_mate::utils::CLogging</text>
<text text-anchor="middle" x="1200" y="-133.43" font-family="Helvetica,sans-Serif" font-size="10.00">_System::Get_Timestamp</text>
</a>
</g>
</g>
<!-- Node4&#45;&gt;Node6 -->
<g id="edge5" class="edge">
<title>Node4&#45;&gt;Node6</title>
<path fill="none" stroke="midnightblue" d="M1084.09,-156.55C1094.89,-155.13 1106.05,-153.66 1116.98,-152.22"/>
<polygon fill="midnightblue" stroke="midnightblue" points="1117.47,-155.69 1126.93,-150.91 1116.56,-148.75 1117.47,-155.69"/>
</g>
<!-- Node10 -->
<g id="node10" class="node">
<title>Node10</title>
<g id="a_node10"><a xlink:href="classzero__mate_1_1peripheral_1_1CBSC.html#aadbb0ba14e605ee9f1be46c02f549aaa" target="_top" xlink:title=" ">
<polygon fill="none" stroke="black" points="562,-99.43 562,-129.43 714,-129.43 714,-99.43 562,-99.43"/>
<text text-anchor="start" x="570" y="-117.43" font-family="Helvetica,sans-Serif" font-size="10.00">zero_mate::peripheral</text>
<text text-anchor="middle" x="638" y="-106.43" font-family="Helvetica,sans-Serif" font-size="10.00">::CBSC::I2C_Receive_ACK_1</text>
</a>
</g>
</g>
<!-- Node9&#45;&gt;Node10 -->
<g id="edge9" class="edge">
<title>Node9&#45;&gt;Node10</title>
<path fill="none" stroke="midnightblue" d="M323.32,-145.48C330.45,-142.35 337.22,-138.41 343,-133.43 371.63,-108.78 347.13,-76.71 379,-56.43 451.35,-10.39 555.47,-62.41 606.48,-93.91"/>
<polygon fill="midnightblue" stroke="midnightblue" points="604.76,-96.95 615.08,-99.33 608.49,-91.04 604.76,-96.95"/>
</g>
<!-- Node11 -->
<g id="node11" class="node">
<title>Node11</title>
<g id="a_node11"><a xlink:href="classzero__mate_1_1peripheral_1_1CBSC.html#a316b2af702507bdc0f385f5cf10bf47a" target="_top" xlink:title=" ">
<polygon fill="none" stroke="black" points="562,-6.43 562,-36.43 714,-36.43 714,-6.43 562,-6.43"/>
<text text-anchor="start" x="570" y="-24.43" font-family="Helvetica,sans-Serif" font-size="10.00">zero_mate::peripheral</text>
<text text-anchor="middle" x="638" y="-13.43" font-family="Helvetica,sans-Serif" font-size="10.00">::CBSC::I2C_Receive_ACK_2</text>
</a>
</g>
</g>
<!-- Node9&#45;&gt;Node11 -->
<g id="edge11" class="edge">
<title>Node9&#45;&gt;Node11</title>
<path fill="none" stroke="midnightblue" d="M323.34,-146.14C330.55,-142.91 337.34,-138.76 343,-133.43 377.1,-101.34 341.34,-62.25 379,-34.43 431.21,4.14 506.86,3.25 562.75,-4.81"/>
<polygon fill="midnightblue" stroke="midnightblue" points="562.53,-8.32 572.95,-6.39 563.6,-1.4 562.53,-8.32"/>
</g>
<!-- Node12 -->
<g id="node12" class="node">
<title>Node12</title>
<g id="a_node12"><a xlink:href="classzero__mate_1_1peripheral_1_1CBSC.html#abc87dd5711f004d648286ec13e22bb28" target="_top" xlink:title=" ">
<polygon fill="none" stroke="black" points="388.5,-274.43 388.5,-304.43 516.5,-304.43 516.5,-274.43 388.5,-274.43"/>
<text text-anchor="start" x="396.5" y="-292.43" font-family="Helvetica,sans-Serif" font-size="10.00">zero_mate::peripheral</text>
<text text-anchor="middle" x="452.5" y="-281.43" font-family="Helvetica,sans-Serif" font-size="10.00">::CBSC::I2C_Send_Data</text>
</a>
</g>
</g>
<!-- Node9&#45;&gt;Node12 -->
<g id="edge13" class="edge">
<title>Node9&#45;&gt;Node12</title>
<path fill="none" stroke="midnightblue" d="M274.48,-172.5C294.36,-195.59 335.42,-239.75 379,-265.43 381.86,-267.11 384.84,-268.7 387.91,-270.18"/>
<polygon fill="midnightblue" stroke="midnightblue" points="386.75,-273.5 397.31,-274.36 389.59,-267.1 386.75,-273.5"/>
</g>
<!-- Node13 -->
<g id="node13" class="node">
<title>Node13</title>
<g id="a_node13"><a xlink:href="classzero__mate_1_1peripheral_1_1CBSC.html#acf265364a9484ecfad37ab0893d981c7" target="_top" xlink:title=" ">
<polygon fill="none" stroke="black" points="382.5,-225.43 382.5,-255.43 522.5,-255.43 522.5,-225.43 382.5,-225.43"/>
<text text-anchor="start" x="390.5" y="-243.43" font-family="Helvetica,sans-Serif" font-size="10.00">zero_mate::peripheral</text>
<text text-anchor="middle" x="452.5" y="-232.43" font-family="Helvetica,sans-Serif" font-size="10.00">::CBSC::I2C_Send_RW_Bit</text>
</a>
</g>
</g>
<!-- Node9&#45;&gt;Node13 -->
<g id="edge16" class="edge">
<title>Node9&#45;&gt;Node13</title>
<path fill="none" stroke="midnightblue" d="M289.9,-172.53C313.31,-184.89 347.84,-202.4 379,-215.43 384.14,-217.58 389.54,-219.7 394.98,-221.73"/>
<polygon fill="midnightblue" stroke="midnightblue" points="394.16,-225.16 404.76,-225.3 396.56,-218.58 394.16,-225.16"/>
</g>
<!-- Node14 -->
<g id="node14" class="node">
<title>Node14</title>
<g id="a_node14"><a xlink:href="classzero__mate_1_1peripheral_1_1CBSC.html#a0535fad6da893f066addecb99f455192" target="_top" xlink:title=" ">
<polygon fill="none" stroke="black" points="386.5,-164.93 386.5,-205.93 518.5,-205.93 518.5,-164.93 386.5,-164.93"/>
<text text-anchor="start" x="394.5" y="-193.93" font-family="Helvetica,sans-Serif" font-size="10.00">zero_mate::peripheral</text>
<text text-anchor="start" x="394.5" y="-182.93" font-family="Helvetica,sans-Serif" font-size="10.00">::CBSC::I2C_Send_Slave</text>
<text text-anchor="middle" x="452.5" y="-171.93" font-family="Helvetica,sans-Serif" font-size="10.00">_Address</text>
</a>
</g>
</g>
<!-- Node9&#45;&gt;Node14 -->
<g id="edge18" class="edge">
<title>Node9&#45;&gt;Node14</title>
<path fill="none" stroke="midnightblue" d="M323,-166.44C339.92,-168.94 358.48,-171.69 376.11,-174.29"/>
<polygon fill="midnightblue" stroke="midnightblue" points="375.96,-177.81 386.36,-175.81 376.98,-170.88 375.96,-177.81"/>
</g>
<!-- Node15 -->
<g id="node15" class="node">
<title>Node15</title>
<g id="a_node15"><a xlink:href="classzero__mate_1_1peripheral_1_1CBSC.html#a3554dd56ba5d95d2eada7b0fd5a92c55" target="_top" xlink:title=" ">
<polygon fill="none" stroke="black" points="379,-115.43 379,-145.43 526,-145.43 526,-115.43 379,-115.43"/>
<text text-anchor="start" x="387" y="-133.43" font-family="Helvetica,sans-Serif" font-size="10.00">zero_mate::peripheral</text>
<text text-anchor="middle" x="452.5" y="-122.43" font-family="Helvetica,sans-Serif" font-size="10.00">::CBSC::I2C_Send_Start_Bit</text>
</a>
</g>
</g>
<!-- Node9&#45;&gt;Node15 -->
<g id="edge20" class="edge">
<title>Node9&#45;&gt;Node15</title>
<path fill="none" stroke="midnightblue" d="M323,-148.74C337.56,-146.66 353.34,-144.42 368.69,-142.23"/>
<polygon fill="midnightblue" stroke="midnightblue" points="369.29,-145.68 378.7,-140.8 368.31,-138.75 369.29,-145.68"/>
</g>
<!-- Node16 -->
<g id="node16" class="node">
<title>Node16</title>
<g id="a_node16"><a xlink:href="classzero__mate_1_1peripheral_1_1CBSC.html#aa830cee242bb74a3779bb54c4baee609" target="_top" xlink:title=" ">
<polygon fill="none" stroke="black" points="379.5,-66.43 379.5,-96.43 525.5,-96.43 525.5,-66.43 379.5,-66.43"/>
<text text-anchor="start" x="387.5" y="-84.43" font-family="Helvetica,sans-Serif" font-size="10.00">zero_mate::peripheral</text>
<text text-anchor="middle" x="452.5" y="-73.43" font-family="Helvetica,sans-Serif" font-size="10.00">::CBSC::I2C_Send_Stop_Bit</text>
</a>
</g>
</g>
<!-- Node9&#45;&gt;Node16 -->
<g id="edge22" class="edge">
<title>Node9&#45;&gt;Node16</title>
<path fill="none" stroke="midnightblue" d="M321.78,-142.37C329.08,-139.76 336.32,-136.79 343,-133.43 360.87,-124.45 361.33,-115.8 379,-106.43 383.01,-104.3 387.24,-102.3 391.56,-100.42"/>
<polygon fill="midnightblue" stroke="midnightblue" points="393.17,-103.54 401.11,-96.52 390.52,-97.06 393.17,-103.54"/>
</g>
<!-- Node10&#45;&gt;Node3 -->
<g id="edge10" class="edge">
<title>Node10&#45;&gt;Node3</title>
<path fill="none" stroke="midnightblue" d="M714.23,-124.3C722.66,-125.4 731.28,-126.53 739.79,-127.65"/>
<polygon fill="midnightblue" stroke="midnightblue" points="739.35,-131.12 749.72,-128.95 740.26,-124.18 739.35,-131.12"/>
</g>
<!-- Node11&#45;&gt;Node3 -->
<g id="edge12" class="edge">
<title>Node11&#45;&gt;Node3</title>
<path fill="none" stroke="midnightblue" d="M662.55,-36.49C694.85,-57.14 753.05,-94.34 789.48,-117.64"/>
<polygon fill="midnightblue" stroke="midnightblue" points="787.94,-120.81 798.25,-123.25 791.71,-114.91 787.94,-120.81"/>
</g>
<!-- Node12&#45;&gt;Node2 -->
<g id="edge15" class="edge">
<title>Node12&#45;&gt;Node2</title>
<path fill="none" stroke="midnightblue" d="M505.39,-274.41C512.46,-271.75 519.51,-268.75 526,-265.43 557.7,-249.24 590.33,-224.59 611.93,-206.94"/>
<polygon fill="midnightblue" stroke="midnightblue" points="614.18,-209.62 619.64,-200.54 609.71,-204.23 614.18,-209.62"/>
</g>
<!-- Node12&#45;&gt;Node3 -->
<g id="edge14" class="edge">
<title>Node12&#45;&gt;Node3</title>
<path fill="none" stroke="midnightblue" d="M516.72,-275.78C570.7,-262.84 649.58,-240.85 714,-210.43 743.37,-196.56 773.91,-175.48 794.98,-159.71"/>
<polygon fill="midnightblue" stroke="midnightblue" points="797.28,-162.36 803.13,-153.53 793.05,-156.79 797.28,-162.36"/>
</g>
<!-- Node13&#45;&gt;Node2 -->
<g id="edge17" class="edge">
<title>Node13&#45;&gt;Node2</title>
<path fill="none" stroke="midnightblue" d="M503.64,-225.4C526.4,-218.58 553.49,-210.46 577.29,-203.33"/>
<polygon fill="midnightblue" stroke="midnightblue" points="578.34,-206.66 586.92,-200.44 576.33,-199.96 578.34,-206.66"/>
</g>
<!-- Node14&#45;&gt;Node2 -->
<g id="edge19" class="edge">
<title>Node14&#45;&gt;Node2</title>
<path fill="none" stroke="midnightblue" d="M518.71,-185.43C534.01,-185.43 550.38,-185.43 565.92,-185.43"/>
<polygon fill="midnightblue" stroke="midnightblue" points="565.99,-188.93 575.99,-185.43 565.99,-181.93 565.99,-188.93"/>
</g>
<!-- Node15&#45;&gt;Node2 -->
<g id="edge21" class="edge">
<title>Node15&#45;&gt;Node2</title>
<path fill="none" stroke="midnightblue" d="M503.64,-145.46C526.4,-152.28 553.49,-160.4 577.29,-167.53"/>
<polygon fill="midnightblue" stroke="midnightblue" points="576.33,-170.9 586.92,-170.42 578.34,-164.2 576.33,-170.9"/>
</g>
<!-- Node16&#45;&gt;Node2 -->
<g id="edge23" class="edge">
<title>Node16&#45;&gt;Node2</title>
<path fill="none" stroke="midnightblue" d="M505.76,-96.54C512.77,-99.39 519.71,-102.68 526,-106.43 544.65,-117.53 544.67,-126.36 562,-139.43 574.07,-148.53 588.02,-157.47 600.59,-165.01"/>
<polygon fill="midnightblue" stroke="midnightblue" points="599.06,-168.18 609.45,-170.24 602.62,-162.15 599.06,-168.18"/>
</g>
</g>
</svg>
