<?xml version="1.0" encoding="UTF-8" standalone="no"?>
<!DOCTYPE svg PUBLIC "-//W3C//DTD SVG 1.1//EN"
 "http://www.w3.org/Graphics/SVG/1.1/DTD/svg11.dtd">
<!-- Generated by graphviz version 2.43.0 (0)
 -->
<!-- Title: zero_mate::peripheral::CInterrupt_Controller::Reset Pages: 1 -->
<svg width="300pt" height="122pt"
 viewBox="0.00 0.00 300.00 121.50" xmlns="http://www.w3.org/2000/svg" xmlns:xlink="http://www.w3.org/1999/xlink">
<g id="graph0" class="graph" transform="scale(1 1) rotate(0) translate(4 117.5)">
<title>zero_mate::peripheral::CInterrupt_Controller::Reset</title>
<!-- Node1 -->
<g id="node1" class="node">
<title>Node1</title>
<g id="a_node1"><a xlink:title="Resets/re&#45;initializes the interrupt controller (IPeripheral interface).">
<polygon fill="#bfbfbf" stroke="black" points="0,-33.5 0,-74.5 125,-74.5 125,-33.5 0,-33.5"/>
<text text-anchor="start" x="8" y="-62.5" font-family="Helvetica,sans-Serif" font-size="10.00">zero_mate::peripheral</text>
<text text-anchor="start" x="8" y="-51.5" font-family="Helvetica,sans-Serif" font-size="10.00">::CInterrupt_Controller</text>
<text text-anchor="middle" x="62.5" y="-40.5" font-family="Helvetica,sans-Serif" font-size="10.00">::Reset</text>
</a>
</g>
</g>
<!-- Node2 -->
<g id="node2" class="node">
<title>Node2</title>
<g id="a_node2"><a xlink:href="classzero__mate_1_1peripheral_1_1CInterrupt__Controller.html#a9f4f351805d9081a77d7949c494fd29b" target="_top" xlink:title="Initializes the collection of basic IRQ sources.">
<polygon fill="none" stroke="black" points="164,-61 164,-113 289,-113 289,-61 164,-61"/>
<text text-anchor="start" x="172" y="-101" font-family="Helvetica,sans-Serif" font-size="10.00">zero_mate::peripheral</text>
<text text-anchor="start" x="172" y="-90" font-family="Helvetica,sans-Serif" font-size="10.00">::CInterrupt_Controller</text>
<text text-anchor="start" x="172" y="-79" font-family="Helvetica,sans-Serif" font-size="10.00">::Initialize_Basic_IRQ</text>
<text text-anchor="middle" x="226.5" y="-68" font-family="Helvetica,sans-Serif" font-size="10.00">_Sources</text>
</a>
</g>
</g>
<!-- Node1&#45;&gt;Node2 -->
<g id="edge1" class="edge">
<title>Node1&#45;&gt;Node2</title>
<path fill="none" stroke="midnightblue" d="M125.21,-66.57C134.63,-68.49 144.42,-70.48 154.04,-72.44"/>
<polygon fill="midnightblue" stroke="midnightblue" points="153.47,-75.9 163.96,-74.46 154.86,-69.04 153.47,-75.9"/>
</g>
<!-- Node3 -->
<g id="node3" class="node">
<title>Node3</title>
<g id="a_node3"><a xlink:href="classzero__mate_1_1peripheral_1_1CInterrupt__Controller.html#a888a57d7926bd4900a70fb25ef1e1a1c" target="_top" xlink:title="Initializes the collection of IRQ sources.">
<polygon fill="none" stroke="black" points="161,-0.5 161,-41.5 292,-41.5 292,-0.5 161,-0.5"/>
<text text-anchor="start" x="169" y="-29.5" font-family="Helvetica,sans-Serif" font-size="10.00">zero_mate::peripheral</text>
<text text-anchor="start" x="169" y="-18.5" font-family="Helvetica,sans-Serif" font-size="10.00">::CInterrupt_Controller</text>
<text text-anchor="middle" x="226.5" y="-7.5" font-family="Helvetica,sans-Serif" font-size="10.00">::Initialize_IRQ_Sources</text>
</a>
</g>
</g>
<!-- Node1&#45;&gt;Node3 -->
<g id="edge2" class="edge">
<title>Node1&#45;&gt;Node3</title>
<path fill="none" stroke="midnightblue" d="M125.21,-41.43C133.56,-39.73 142.21,-37.97 150.76,-36.22"/>
<polygon fill="midnightblue" stroke="midnightblue" points="151.63,-39.62 160.73,-34.19 150.24,-32.76 151.63,-39.62"/>
</g>
</g>
</svg>
