<?xml version="1.0" encoding="UTF-8" standalone="no"?>
<!DOCTYPE svg PUBLIC "-//W3C//DTD SVG 1.1//EN"
 "http://www.w3.org/Graphics/SVG/1.1/DTD/svg11.dtd">
<!-- Generated by graphviz version 2.43.0 (0)
 -->
<!-- Title: zero_mate::arm1176jzf_s::CCPU_Core::Execute Pages: 1 -->
<svg width="700pt" height="522pt"
 viewBox="0.00 0.00 700.00 522.00" xmlns="http://www.w3.org/2000/svg" xmlns:xlink="http://www.w3.org/1999/xlink">
<g id="graph0" class="graph" transform="scale(1 1) rotate(0) translate(4 518)">
<title>zero_mate::arm1176jzf_s::CCPU_Core::Execute</title>
<!-- Node1 -->
<g id="node1" class="node">
<title>Node1</title>
<g id="a_node1"><a xlink:title="Executes a data processing instruction.">
<polygon fill="#bfbfbf" stroke="black" points="0,-255.5 0,-285.5 132,-285.5 132,-255.5 0,-255.5"/>
<text text-anchor="start" x="8" y="-273.5" font-family="Helvetica,sans-Serif" font-size="10.00">zero_mate::arm1176jzf</text>
<text text-anchor="middle" x="66" y="-262.5" font-family="Helvetica,sans-Serif" font-size="10.00">_s::CCPU_Core::Execute</text>
</a>
</g>
</g>
<!-- Node2 -->
<g id="node2" class="node">
<title>Node2</title>
<g id="a_node2"><a xlink:href="classzero__mate_1_1utils_1_1CLogging__System.html#aba3c5c64cd12e058e6a288db2cd89a15" target="_top" xlink:title=" ">
<polygon fill="none" stroke="black" points="361,-483.5 361,-513.5 507,-513.5 507,-483.5 361,-483.5"/>
<text text-anchor="start" x="369" y="-501.5" font-family="Helvetica,sans-Serif" font-size="10.00">zero_mate::utils::CLogging</text>
<text text-anchor="middle" x="434" y="-490.5" font-family="Helvetica,sans-Serif" font-size="10.00">_System::Error</text>
</a>
</g>
</g>
<!-- Node1&#45;&gt;Node2 -->
<g id="edge1" class="edge">
<title>Node1&#45;&gt;Node2</title>
<path fill="none" stroke="midnightblue" d="M70.29,-285.77C79.03,-322.35 106.52,-415.18 168,-458.5 220.81,-495.71 294.3,-504.33 350.49,-504.41"/>
<polygon fill="midnightblue" stroke="midnightblue" points="350.8,-507.91 360.78,-504.34 350.75,-500.91 350.8,-507.91"/>
</g>
<!-- Node4 -->
<g id="node4" class="node">
<title>Node4</title>
<g id="a_node4"><a xlink:href="namespacezero__mate_1_1arm1176jzf__s_1_1alu.html#a95c11d8dc8e4ebc2c1dc6ca22403c871" target="_top" xlink:title=" ">
<polygon fill="none" stroke="black" points="181.5,-340.5 181.5,-370.5 311.5,-370.5 311.5,-340.5 181.5,-340.5"/>
<text text-anchor="start" x="189.5" y="-358.5" font-family="Helvetica,sans-Serif" font-size="10.00">zero_mate::arm1176jzf</text>
<text text-anchor="middle" x="246.5" y="-347.5" font-family="Helvetica,sans-Serif" font-size="10.00">_s::alu::Execute</text>
</a>
</g>
</g>
<!-- Node1&#45;&gt;Node4 -->
<g id="edge3" class="edge">
<title>Node1&#45;&gt;Node4</title>
<path fill="none" stroke="midnightblue" d="M89.08,-285.59C109.04,-298.74 139.56,-317.66 168,-330.5 172.99,-332.75 178.25,-334.9 183.58,-336.91"/>
<polygon fill="midnightblue" stroke="midnightblue" points="182.6,-340.29 193.2,-340.4 184.99,-333.7 182.6,-340.29"/>
</g>
<!-- Node5 -->
<g id="node5" class="node">
<title>Node5</title>
<g id="a_node5"><a xlink:href="classzero__mate_1_1arm1176jzf__s_1_1CCPU__Context.html#aa740f9219bb413d707ac72f373e60d3a" target="_top" xlink:title=" ">
<polygon fill="none" stroke="black" points="369,-423 369,-464 499,-464 499,-423 369,-423"/>
<text text-anchor="start" x="377" y="-452" font-family="Helvetica,sans-Serif" font-size="10.00">zero_mate::arm1176jzf</text>
<text text-anchor="start" x="377" y="-441" font-family="Helvetica,sans-Serif" font-size="10.00">_s::CCPU_Context::Get</text>
<text text-anchor="middle" x="434" y="-430" font-family="Helvetica,sans-Serif" font-size="10.00">_CPU_Mode</text>
</a>
</g>
</g>
<!-- Node1&#45;&gt;Node5 -->
<g id="edge4" class="edge">
<title>Node1&#45;&gt;Node5</title>
<path fill="none" stroke="midnightblue" d="M71.36,-285.51C81.8,-318.41 111.67,-396.58 168,-429.5 225.48,-463.09 302.51,-463.22 358.7,-456.96"/>
<polygon fill="midnightblue" stroke="midnightblue" points="359.43,-460.4 368.94,-455.72 358.59,-453.45 359.43,-460.4"/>
</g>
<!-- Node6 -->
<g id="node6" class="node">
<title>Node6</title>
<g id="a_node6"><a xlink:href="classzero__mate_1_1arm1176jzf__s_1_1isa_1_1CData__Processing.html#abab3b1a6c85f524936f52e2891d88cd1" target="_top" xlink:title=" ">
<polygon fill="none" stroke="black" points="176,-280 176,-321 317,-321 317,-280 176,-280"/>
<text text-anchor="start" x="184" y="-309" font-family="Helvetica,sans-Serif" font-size="10.00">zero_mate::arm1176jzf</text>
<text text-anchor="start" x="184" y="-298" font-family="Helvetica,sans-Serif" font-size="10.00">_s::isa::CData_Processing</text>
<text text-anchor="middle" x="246.5" y="-287" font-family="Helvetica,sans-Serif" font-size="10.00">::Get_Rd</text>
</a>
</g>
</g>
<!-- Node1&#45;&gt;Node6 -->
<g id="edge5" class="edge">
<title>Node1&#45;&gt;Node6</title>
<path fill="none" stroke="midnightblue" d="M132.2,-281.46C143.22,-283.31 154.76,-285.25 166.09,-287.15"/>
<polygon fill="midnightblue" stroke="midnightblue" points="165.53,-290.61 175.97,-288.81 166.69,-283.71 165.53,-290.61"/>
</g>
<!-- Node7 -->
<g id="node7" class="node">
<title>Node7</title>
<g id="a_node7"><a xlink:href="classzero__mate_1_1arm1176jzf__s_1_1isa_1_1CData__Processing.html#a4be853e364e5cc801c6f3922727220c3" target="_top" xlink:title=" ">
<polygon fill="none" stroke="black" points="176,-220 176,-261 317,-261 317,-220 176,-220"/>
<text text-anchor="start" x="184" y="-249" font-family="Helvetica,sans-Serif" font-size="10.00">zero_mate::arm1176jzf</text>
<text text-anchor="start" x="184" y="-238" font-family="Helvetica,sans-Serif" font-size="10.00">_s::isa::CData_Processing</text>
<text text-anchor="middle" x="246.5" y="-227" font-family="Helvetica,sans-Serif" font-size="10.00">::Get_Rn</text>
</a>
</g>
</g>
<!-- Node1&#45;&gt;Node7 -->
<g id="edge6" class="edge">
<title>Node1&#45;&gt;Node7</title>
<path fill="none" stroke="midnightblue" d="M132.2,-259.54C143.22,-257.69 154.76,-255.75 166.09,-253.85"/>
<polygon fill="midnightblue" stroke="midnightblue" points="166.69,-257.29 175.97,-252.19 165.53,-250.39 166.69,-257.29"/>
</g>
<!-- Node8 -->
<g id="node8" class="node">
<title>Node8</title>
<g id="a_node8"><a xlink:href="classzero__mate_1_1arm1176jzf__s_1_1CCPU__Core.html#aa5b55276e454abfced2b5714b936e98d" target="_top" xlink:title="Calculates the second operand of a data processing instruction.">
<polygon fill="none" stroke="black" points="170.5,-160 170.5,-201 322.5,-201 322.5,-160 170.5,-160"/>
<text text-anchor="start" x="178.5" y="-189" font-family="Helvetica,sans-Serif" font-size="10.00">zero_mate::arm1176jzf</text>
<text text-anchor="start" x="178.5" y="-178" font-family="Helvetica,sans-Serif" font-size="10.00">_s::CCPU_Core::Get_Second</text>
<text text-anchor="middle" x="246.5" y="-167" font-family="Helvetica,sans-Serif" font-size="10.00">_Operand</text>
</a>
</g>
</g>
<!-- Node1&#45;&gt;Node8 -->
<g id="edge7" class="edge">
<title>Node1&#45;&gt;Node8</title>
<path fill="none" stroke="midnightblue" d="M90.06,-255.3C110.14,-242.42 140.3,-223.97 168,-210.5 171.8,-208.65 175.73,-206.84 179.74,-205.07"/>
<polygon fill="midnightblue" stroke="midnightblue" points="181.33,-208.19 189.15,-201.04 178.58,-201.76 181.33,-208.19"/>
</g>
<!-- Node9 -->
<g id="node9" class="node">
<title>Node9</title>
<g id="a_node9"><a xlink:href="classzero__mate_1_1arm1176jzf__s_1_1CCPU__Context.html#ae00681efcbc4adfcfde001a67c5baeca" target="_top" xlink:title=" ">
<polygon fill="none" stroke="black" points="168,-110.5 168,-140.5 325,-140.5 325,-110.5 168,-110.5"/>
<text text-anchor="start" x="176" y="-128.5" font-family="Helvetica,sans-Serif" font-size="10.00">zero_mate::arm1176jzf</text>
<text text-anchor="middle" x="246.5" y="-117.5" font-family="Helvetica,sans-Serif" font-size="10.00">_s::CCPU_Context::Get_SPSR</text>
</a>
</g>
</g>
<!-- Node1&#45;&gt;Node9 -->
<g id="edge8" class="edge">
<title>Node1&#45;&gt;Node9</title>
<path fill="none" stroke="midnightblue" d="M75.85,-255.24C91.32,-229.84 125.73,-178.9 168,-150.5 171.05,-148.45 174.29,-146.55 177.64,-144.81"/>
<polygon fill="midnightblue" stroke="midnightblue" points="179.16,-147.96 186.71,-140.53 176.17,-141.63 179.16,-147.96"/>
</g>
<!-- Node10 -->
<g id="node10" class="node">
<title>Node10</title>
<g id="a_node10"><a xlink:href="classzero__mate_1_1arm1176jzf__s_1_1CCPU__Context.html#a6fc387fa0b0dd040c4e2463606d933e4" target="_top" xlink:title=" ">
<polygon fill="none" stroke="black" points="181.5,-50 181.5,-91 311.5,-91 311.5,-50 181.5,-50"/>
<text text-anchor="start" x="189.5" y="-79" font-family="Helvetica,sans-Serif" font-size="10.00">zero_mate::arm1176jzf</text>
<text text-anchor="start" x="189.5" y="-68" font-family="Helvetica,sans-Serif" font-size="10.00">_s::CCPU_Context::Is</text>
<text text-anchor="middle" x="246.5" y="-57" font-family="Helvetica,sans-Serif" font-size="10.00">_Mode_With_No_SPSR</text>
</a>
</g>
</g>
<!-- Node1&#45;&gt;Node10 -->
<g id="edge9" class="edge">
<title>Node1&#45;&gt;Node10</title>
<path fill="none" stroke="midnightblue" d="M72.21,-255.03C84.06,-222.08 116.1,-144.39 168,-100.5 169.57,-99.17 171.2,-97.9 172.89,-96.68"/>
<polygon fill="midnightblue" stroke="midnightblue" points="175.2,-99.36 181.72,-91.01 171.42,-93.47 175.2,-99.36"/>
</g>
<!-- Node11 -->
<g id="node11" class="node">
<title>Node11</title>
<g id="a_node11"><a xlink:href="classzero__mate_1_1arm1176jzf__s_1_1CCPU__Context.html#a53765299c790cc790e15deb2c701bd2a" target="_top" xlink:title=" ">
<polygon fill="none" stroke="black" points="168.5,-389.5 168.5,-419.5 324.5,-419.5 324.5,-389.5 168.5,-389.5"/>
<text text-anchor="start" x="176.5" y="-407.5" font-family="Helvetica,sans-Serif" font-size="10.00">zero_mate::arm1176jzf</text>
<text text-anchor="middle" x="246.5" y="-396.5" font-family="Helvetica,sans-Serif" font-size="10.00">_s::CCPU_Context::Set_CPSR</text>
</a>
</g>
</g>
<!-- Node1&#45;&gt;Node11 -->
<g id="edge10" class="edge">
<title>Node1&#45;&gt;Node11</title>
<path fill="none" stroke="midnightblue" d="M76.91,-285.66C93.15,-309.33 127.69,-354.99 168,-380.5 170.59,-382.14 173.31,-383.68 176.1,-385.11"/>
<polygon fill="midnightblue" stroke="midnightblue" points="174.71,-388.33 185.26,-389.37 177.67,-381.98 174.71,-388.33"/>
</g>
<!-- Node14 -->
<g id="node14" class="node">
<title>Node14</title>
<g id="a_node14"><a xlink:href="classzero__mate_1_1arm1176jzf__s_1_1CCPU__Context.html#a984bace2773aca71cf04701aa0ce9c54" target="_top" xlink:title=" ">
<polygon fill="none" stroke="black" points="170.5,-0.5 170.5,-30.5 322.5,-30.5 322.5,-0.5 170.5,-0.5"/>
<text text-anchor="start" x="178.5" y="-18.5" font-family="Helvetica,sans-Serif" font-size="10.00">zero_mate::arm1176jzf</text>
<text text-anchor="middle" x="246.5" y="-7.5" font-family="Helvetica,sans-Serif" font-size="10.00">_s::CCPU_Context::Set_Flag</text>
</a>
</g>
</g>
<!-- Node1&#45;&gt;Node14 -->
<g id="edge15" class="edge">
<title>Node1&#45;&gt;Node14</title>
<path fill="none" stroke="midnightblue" d="M69.27,-255.39C76.2,-214.59 100.84,-101.15 168,-40.5 169.75,-38.92 171.6,-37.44 173.52,-36.06"/>
<polygon fill="midnightblue" stroke="midnightblue" points="175.76,-38.79 182.43,-30.56 172.08,-32.84 175.76,-38.79"/>
</g>
<!-- Node3 -->
<g id="node3" class="node">
<title>Node3</title>
<g id="a_node3"><a xlink:href="classzero__mate_1_1utils_1_1CLogging__System.html#af3fd8f336b5853e954283d93f2c32edd" target="_top" xlink:title=" ">
<polygon fill="none" stroke="black" points="543,-483.5 543,-513.5 692,-513.5 692,-483.5 543,-483.5"/>
<text text-anchor="start" x="551" y="-501.5" font-family="Helvetica,sans-Serif" font-size="10.00">zero_mate::utils::CLogging</text>
<text text-anchor="middle" x="617.5" y="-490.5" font-family="Helvetica,sans-Serif" font-size="10.00">_System::Extract_Filename</text>
</a>
</g>
</g>
<!-- Node2&#45;&gt;Node3 -->
<g id="edge2" class="edge">
<title>Node2&#45;&gt;Node3</title>
<path fill="none" stroke="midnightblue" d="M507.26,-498.5C515.55,-498.5 524.06,-498.5 532.49,-498.5"/>
<polygon fill="midnightblue" stroke="midnightblue" points="532.71,-502 542.71,-498.5 532.71,-495 532.71,-502"/>
</g>
<!-- Node11&#45;&gt;Node2 -->
<g id="edge11" class="edge">
<title>Node11&#45;&gt;Node2</title>
<path fill="none" stroke="midnightblue" d="M269.33,-419.7C291.63,-434.75 327.62,-457.78 361,-473.5 365.67,-475.7 370.59,-477.81 375.57,-479.8"/>
<polygon fill="midnightblue" stroke="midnightblue" points="374.59,-483.18 385.18,-483.5 377.1,-476.64 374.59,-483.18"/>
</g>
<!-- Node11&#45;&gt;Node5 -->
<g id="edge12" class="edge">
<title>Node11&#45;&gt;Node5</title>
<path fill="none" stroke="midnightblue" d="M318.95,-419.52C332.05,-422.28 345.74,-425.15 358.91,-427.92"/>
<polygon fill="midnightblue" stroke="midnightblue" points="358.35,-431.38 368.86,-430.02 359.79,-424.53 358.35,-431.38"/>
</g>
<!-- Node12 -->
<g id="node12" class="node">
<title>Node12</title>
<g id="a_node12"><a xlink:href="classzero__mate_1_1arm1176jzf__s_1_1CCPU__Context.html#aa53dae8f0dd16d916a852e572dfa95ba" target="_top" xlink:title=" ">
<polygon fill="none" stroke="black" points="362.5,-363 362.5,-404 505.5,-404 505.5,-363 362.5,-363"/>
<text text-anchor="start" x="370.5" y="-392" font-family="Helvetica,sans-Serif" font-size="10.00">zero_mate::arm1176jzf</text>
<text text-anchor="start" x="370.5" y="-381" font-family="Helvetica,sans-Serif" font-size="10.00">_s::CCPU_Context::Invalid</text>
<text text-anchor="middle" x="434" y="-370" font-family="Helvetica,sans-Serif" font-size="10.00">_Change_Of_Control_Bits</text>
</a>
</g>
</g>
<!-- Node11&#45;&gt;Node12 -->
<g id="edge13" class="edge">
<title>Node11&#45;&gt;Node12</title>
<path fill="none" stroke="midnightblue" d="M324.56,-395.78C333.77,-394.73 343.19,-393.67 352.45,-392.62"/>
<polygon fill="midnightblue" stroke="midnightblue" points="352.87,-396.09 362.41,-391.49 352.08,-389.14 352.87,-396.09"/>
</g>
<!-- Node13 -->
<g id="node13" class="node">
<title>Node13</title>
<g id="a_node13"><a xlink:href="classzero__mate_1_1arm1176jzf__s_1_1CCPU__Context.html#a7efff674f8141eab73cb69099220f0d5" target="_top" xlink:title=" ">
<polygon fill="none" stroke="black" points="369,-303 369,-344 499,-344 499,-303 369,-303"/>
<text text-anchor="start" x="377" y="-332" font-family="Helvetica,sans-Serif" font-size="10.00">zero_mate::arm1176jzf</text>
<text text-anchor="start" x="377" y="-321" font-family="Helvetica,sans-Serif" font-size="10.00">_s::CCPU_Context::Set</text>
<text text-anchor="middle" x="434" y="-310" font-family="Helvetica,sans-Serif" font-size="10.00">_CPU_Mode</text>
</a>
</g>
</g>
<!-- Node11&#45;&gt;Node13 -->
<g id="edge14" class="edge">
<title>Node11&#45;&gt;Node13</title>
<path fill="none" stroke="midnightblue" d="M304.28,-389.41C311.41,-386.8 318.48,-383.83 325,-380.5 342.81,-371.41 343.64,-363.42 361,-353.5 363.97,-351.8 367.06,-350.15 370.21,-348.54"/>
<polygon fill="midnightblue" stroke="midnightblue" points="371.74,-351.69 379.2,-344.17 368.68,-345.39 371.74,-351.69"/>
</g>
</g>
</svg>
