<?xml version="1.0" encoding="UTF-8" standalone="no"?>
<!DOCTYPE svg PUBLIC "-//W3C//DTD SVG 1.1//EN"
 "http://www.w3.org/Graphics/SVG/1.1/DTD/svg11.dtd">
<!-- Generated by graphviz version 2.43.0 (0)
 -->
<!-- Title: zero_mate::gui::IGUI_Window Pages: 1 -->
<svg width="308pt" height="627pt"
 viewBox="0.00 0.00 308.00 627.00" xmlns="http://www.w3.org/2000/svg" xmlns:xlink="http://www.w3.org/1999/xlink">
<g id="graph0" class="graph" transform="scale(1 1) rotate(0) translate(4 623)">
<title>zero_mate::gui::IGUI_Window</title>
<!-- Node1 -->
<g id="node1" class="node">
<title>Node1</title>
<g id="a_node1"><a xlink:title="Common interface for all GUI windows.">
<polygon fill="#bfbfbf" stroke="black" points="0,-294.5 0,-324.5 116,-324.5 116,-294.5 0,-294.5"/>
<text text-anchor="start" x="8" y="-312.5" font-family="Helvetica,sans-Serif" font-size="10.00">zero_mate::gui::IGUI</text>
<text text-anchor="middle" x="58" y="-301.5" font-family="Helvetica,sans-Serif" font-size="10.00">_Window</text>
</a>
</g>
</g>
<!-- Node2 -->
<g id="node2" class="node">
<title>Node2</title>
<g id="a_node2"><a xlink:href="classzero__mate_1_1gui_1_1CARM__Timer__Window.html" target="_top" xlink:title="This windows visualizes the contents of the ARM timer registers.">
<polygon fill="none" stroke="black" points="163.5,-588.5 163.5,-618.5 288.5,-618.5 288.5,-588.5 163.5,-588.5"/>
<text text-anchor="start" x="171.5" y="-606.5" font-family="Helvetica,sans-Serif" font-size="10.00">zero_mate::gui::CARM</text>
<text text-anchor="middle" x="226" y="-595.5" font-family="Helvetica,sans-Serif" font-size="10.00">_Timer_Window</text>
</a>
</g>
</g>
<!-- Node1&#45;&gt;Node2 -->
<g id="edge1" class="edge">
<title>Node1&#45;&gt;Node2</title>
<path fill="none" stroke="midnightblue" d="M60.46,-335C64.87,-388.02 82.46,-510.93 152,-579.5 155.51,-582.97 159.54,-585.93 163.85,-588.47"/>
<polygon fill="midnightblue" stroke="midnightblue" points="63.93,-334.5 59.71,-324.79 56.95,-335.02 63.93,-334.5"/>
</g>
<!-- Node3 -->
<g id="node3" class="node">
<title>Node3</title>
<g id="a_node3"><a xlink:href="classzero__mate_1_1gui_1_1CAUX__Window.html" target="_top" xlink:title="This class represents the windows that visualizes auxiliary peripherals.">
<polygon fill="none" stroke="black" points="164.5,-539.5 164.5,-569.5 287.5,-569.5 287.5,-539.5 164.5,-539.5"/>
<text text-anchor="start" x="172.5" y="-557.5" font-family="Helvetica,sans-Serif" font-size="10.00">zero_mate::gui::CAUX</text>
<text text-anchor="middle" x="226" y="-546.5" font-family="Helvetica,sans-Serif" font-size="10.00">_Window</text>
</a>
</g>
</g>
<!-- Node1&#45;&gt;Node3 -->
<g id="edge2" class="edge">
<title>Node1&#45;&gt;Node3</title>
<path fill="none" stroke="midnightblue" d="M62.62,-334.46C70.51,-379.93 93.5,-476.54 152,-530.5 155.73,-533.94 159.95,-536.88 164.45,-539.41"/>
<polygon fill="midnightblue" stroke="midnightblue" points="66.07,-333.86 61,-324.56 59.16,-334.99 66.07,-333.86"/>
</g>
<!-- Node4 -->
<g id="node4" class="node">
<title>Node4</title>
<g id="a_node4"><a xlink:href="classzero__mate_1_1gui_1_1CCP15__Window.html" target="_top" xlink:title="This class represents a window that displays information related to CP15 (coprocessor 15).">
<polygon fill="none" stroke="black" points="162.5,-490.5 162.5,-520.5 289.5,-520.5 289.5,-490.5 162.5,-490.5"/>
<text text-anchor="start" x="170.5" y="-508.5" font-family="Helvetica,sans-Serif" font-size="10.00">zero_mate::gui::CCP15</text>
<text text-anchor="middle" x="226" y="-497.5" font-family="Helvetica,sans-Serif" font-size="10.00">_Window</text>
</a>
</g>
</g>
<!-- Node1&#45;&gt;Node4 -->
<g id="edge3" class="edge">
<title>Node1&#45;&gt;Node4</title>
<path fill="none" stroke="midnightblue" d="M66.02,-334.63C77.72,-371.98 104.71,-441.96 152,-481.5 156.09,-484.92 160.69,-487.86 165.53,-490.39"/>
<polygon fill="midnightblue" stroke="midnightblue" points="69.23,-333.16 63,-324.59 62.53,-335.17 69.23,-333.16"/>
</g>
<!-- Node5 -->
<g id="node5" class="node">
<title>Node5</title>
<g id="a_node5"><a xlink:href="classzero__mate_1_1gui_1_1CControl__Window.html" target="_top" xlink:title="This class represents a window that allows the user to control CPU execution.">
<polygon fill="none" stroke="black" points="157.5,-441.5 157.5,-471.5 294.5,-471.5 294.5,-441.5 157.5,-441.5"/>
<text text-anchor="start" x="165.5" y="-459.5" font-family="Helvetica,sans-Serif" font-size="10.00">zero_mate::gui::CControl</text>
<text text-anchor="middle" x="226" y="-448.5" font-family="Helvetica,sans-Serif" font-size="10.00">_Window</text>
</a>
</g>
</g>
<!-- Node1&#45;&gt;Node5 -->
<g id="edge4" class="edge">
<title>Node1&#45;&gt;Node5</title>
<path fill="none" stroke="midnightblue" d="M71.39,-333.75C86.73,-361.46 115.37,-406.32 152,-432.5 156.78,-435.91 162.07,-438.86 167.55,-441.41"/>
<polygon fill="midnightblue" stroke="midnightblue" points="74.36,-331.87 66.53,-324.73 68.19,-335.19 74.36,-331.87"/>
</g>
<!-- Node6 -->
<g id="node6" class="node">
<title>Node6</title>
<g id="a_node6"><a xlink:href="classzero__mate_1_1gui_1_1CDemo__Window.html" target="_top" xlink:title="This class displays the ImGui and ImPlot demos.">
<polygon fill="none" stroke="black" points="160.5,-392.5 160.5,-422.5 291.5,-422.5 291.5,-392.5 160.5,-392.5"/>
<text text-anchor="start" x="168.5" y="-410.5" font-family="Helvetica,sans-Serif" font-size="10.00">zero_mate::gui::CDemo</text>
<text text-anchor="middle" x="226" y="-399.5" font-family="Helvetica,sans-Serif" font-size="10.00">_Window</text>
</a>
</g>
</g>
<!-- Node1&#45;&gt;Node6 -->
<g id="edge5" class="edge">
<title>Node1&#45;&gt;Node6</title>
<path fill="none" stroke="midnightblue" d="M82.15,-331.81C100.03,-348.01 126.02,-369.48 152,-383.5 158.22,-386.86 165,-389.85 171.83,-392.49"/>
<polygon fill="midnightblue" stroke="midnightblue" points="84.26,-328.99 74.54,-324.77 79.51,-334.13 84.26,-328.99"/>
</g>
<!-- Node7 -->
<g id="node7" class="node">
<title>Node7</title>
<g id="a_node7"><a xlink:href="classzero__mate_1_1gui_1_1CGPIO__Window.html" target="_top" xlink:title="This class represents a windows that displays information about GPIO pins.">
<polygon fill="none" stroke="black" points="163,-343.5 163,-373.5 289,-373.5 289,-343.5 163,-343.5"/>
<text text-anchor="start" x="171" y="-361.5" font-family="Helvetica,sans-Serif" font-size="10.00">zero_mate::gui::CGPIO</text>
<text text-anchor="middle" x="226" y="-350.5" font-family="Helvetica,sans-Serif" font-size="10.00">_Window</text>
</a>
</g>
</g>
<!-- Node1&#45;&gt;Node7 -->
<g id="edge6" class="edge">
<title>Node1&#45;&gt;Node7</title>
<path fill="none" stroke="midnightblue" d="M119.87,-327.47C137.65,-332.72 156.9,-338.4 174.01,-343.45"/>
<polygon fill="midnightblue" stroke="midnightblue" points="120.74,-324.08 110.16,-324.6 118.76,-330.79 120.74,-324.08"/>
</g>
<!-- Node8 -->
<g id="node8" class="node">
<title>Node8</title>
<g id="a_node8"><a xlink:href="classzero__mate_1_1gui_1_1CInterrupt__Controller__Window.html" target="_top" xlink:title="This class defines a window that displays information about the interrupt controller.">
<polygon fill="none" stroke="black" points="154,-294.5 154,-324.5 298,-324.5 298,-294.5 154,-294.5"/>
<text text-anchor="start" x="162" y="-312.5" font-family="Helvetica,sans-Serif" font-size="10.00">zero_mate::gui::CInterrupt</text>
<text text-anchor="middle" x="226" y="-301.5" font-family="Helvetica,sans-Serif" font-size="10.00">_Controller_Window</text>
</a>
</g>
</g>
<!-- Node1&#45;&gt;Node8 -->
<g id="edge7" class="edge">
<title>Node1&#45;&gt;Node8</title>
<path fill="none" stroke="midnightblue" d="M126.29,-309.5C135.41,-309.5 144.8,-309.5 153.98,-309.5"/>
<polygon fill="midnightblue" stroke="midnightblue" points="126.13,-306 116.13,-309.5 126.13,-313 126.13,-306"/>
</g>
<!-- Node9 -->
<g id="node9" class="node">
<title>Node9</title>
<g id="a_node9"><a xlink:href="classzero__mate_1_1gui_1_1CLog__Window.html" target="_top" xlink:title="This class represents a window that displays log messages.">
<polygon fill="none" stroke="black" points="166.5,-245.5 166.5,-275.5 285.5,-275.5 285.5,-245.5 166.5,-245.5"/>
<text text-anchor="start" x="174.5" y="-263.5" font-family="Helvetica,sans-Serif" font-size="10.00">zero_mate::gui::CLog</text>
<text text-anchor="middle" x="226" y="-252.5" font-family="Helvetica,sans-Serif" font-size="10.00">_Window</text>
</a>
</g>
</g>
<!-- Node1&#45;&gt;Node9 -->
<g id="edge8" class="edge">
<title>Node1&#45;&gt;Node9</title>
<path fill="none" stroke="midnightblue" d="M119.87,-291.53C137.65,-286.28 156.9,-280.6 174.01,-275.55"/>
<polygon fill="midnightblue" stroke="midnightblue" points="118.76,-288.21 110.16,-294.4 120.74,-294.92 118.76,-288.21"/>
</g>
<!-- Node10 -->
<g id="node10" class="node">
<title>Node10</title>
<g id="a_node10"><a xlink:href="classzero__mate_1_1gui_1_1CMonitor__Window.html" target="_top" xlink:title="This class represents a window that visualizes the memory&#45;mapped debug monitor.">
<polygon fill="none" stroke="black" points="156,-196.5 156,-226.5 296,-226.5 296,-196.5 156,-196.5"/>
<text text-anchor="start" x="164" y="-214.5" font-family="Helvetica,sans-Serif" font-size="10.00">zero_mate::gui::CMonitor</text>
<text text-anchor="middle" x="226" y="-203.5" font-family="Helvetica,sans-Serif" font-size="10.00">_Window</text>
</a>
</g>
</g>
<!-- Node1&#45;&gt;Node10 -->
<g id="edge9" class="edge">
<title>Node1&#45;&gt;Node10</title>
<path fill="none" stroke="midnightblue" d="M82.58,-287.32C100.5,-271.42 126.35,-250.44 152,-236.5 158.83,-232.79 166.31,-229.48 173.8,-226.57"/>
<polygon fill="midnightblue" stroke="midnightblue" points="80.02,-284.92 74.94,-294.22 84.71,-290.11 80.02,-284.92"/>
</g>
<!-- Node11 -->
<g id="node11" class="node">
<title>Node11</title>
<g id="a_node11"><a xlink:href="classzero__mate_1_1gui_1_1CRAM__Window.html" target="_top" xlink:title="This class represents a windows that visualizes the contents of the RAM.">
<polygon fill="none" stroke="black" points="163.5,-147.5 163.5,-177.5 288.5,-177.5 288.5,-147.5 163.5,-147.5"/>
<text text-anchor="start" x="171.5" y="-165.5" font-family="Helvetica,sans-Serif" font-size="10.00">zero_mate::gui::CRAM</text>
<text text-anchor="middle" x="226" y="-154.5" font-family="Helvetica,sans-Serif" font-size="10.00">_Window</text>
</a>
</g>
</g>
<!-- Node1&#45;&gt;Node11 -->
<g id="edge10" class="edge">
<title>Node1&#45;&gt;Node11</title>
<path fill="none" stroke="midnightblue" d="M71.5,-285.52C86.94,-258.12 115.67,-213.7 152,-187.5 157.32,-183.66 163.28,-180.38 169.44,-177.57"/>
<polygon fill="midnightblue" stroke="midnightblue" points="68.35,-284 66.6,-294.45 74.48,-287.36 68.35,-284"/>
</g>
<!-- Node12 -->
<g id="node12" class="node">
<title>Node12</title>
<g id="a_node12"><a xlink:href="classzero__mate_1_1gui_1_1CRegisters__Window.html" target="_top" xlink:title="This class represents the window that displays the contents of all CPU registers.">
<polygon fill="none" stroke="black" points="152,-98.5 152,-128.5 300,-128.5 300,-98.5 152,-98.5"/>
<text text-anchor="start" x="160" y="-116.5" font-family="Helvetica,sans-Serif" font-size="10.00">zero_mate::gui::CRegisters</text>
<text text-anchor="middle" x="226" y="-105.5" font-family="Helvetica,sans-Serif" font-size="10.00">_Window</text>
</a>
</g>
</g>
<!-- Node1&#45;&gt;Node12 -->
<g id="edge11" class="edge">
<title>Node1&#45;&gt;Node12</title>
<path fill="none" stroke="midnightblue" d="M66.21,-284.31C78.09,-247.2 105.24,-177.99 152,-138.5 156.61,-134.61 161.85,-131.32 167.36,-128.53"/>
<polygon fill="midnightblue" stroke="midnightblue" points="62.73,-283.71 63.14,-294.3 69.42,-285.77 62.73,-283.71"/>
</g>
<!-- Node13 -->
<g id="node13" class="node">
<title>Node13</title>
<g id="a_node13"><a xlink:href="classzero__mate_1_1gui_1_1CSource__Code__Window.html" target="_top" xlink:title="This class represents a windows that displays the contents of loaded ELF files.">
<polygon fill="none" stroke="black" points="158.5,-49.5 158.5,-79.5 293.5,-79.5 293.5,-49.5 158.5,-49.5"/>
<text text-anchor="start" x="166.5" y="-67.5" font-family="Helvetica,sans-Serif" font-size="10.00">zero_mate::gui::CSource</text>
<text text-anchor="middle" x="226" y="-56.5" font-family="Helvetica,sans-Serif" font-size="10.00">_Code_Window</text>
</a>
</g>
</g>
<!-- Node1&#45;&gt;Node13 -->
<g id="edge12" class="edge">
<title>Node1&#45;&gt;Node13</title>
<path fill="none" stroke="midnightblue" d="M62.77,-284.39C70.88,-239.1 94.16,-143.43 152,-89.5 156.12,-85.66 160.85,-82.41 165.88,-79.66"/>
<polygon fill="midnightblue" stroke="midnightblue" points="59.32,-283.82 61.11,-294.27 66.22,-284.99 59.32,-283.82"/>
</g>
<!-- Node14 -->
<g id="node14" class="node">
<title>Node14</title>
<g id="a_node14"><a xlink:href="classzero__mate_1_1gui_1_1CTop__Bar__Menu.html" target="_top" xlink:title="This class represents a top bar through which the user can load ELF files.">
<polygon fill="none" stroke="black" points="166.5,-0.5 166.5,-30.5 285.5,-30.5 285.5,-0.5 166.5,-0.5"/>
<text text-anchor="start" x="174.5" y="-18.5" font-family="Helvetica,sans-Serif" font-size="10.00">zero_mate::gui::CTop</text>
<text text-anchor="middle" x="226" y="-7.5" font-family="Helvetica,sans-Serif" font-size="10.00">_Bar_Menu</text>
</a>
</g>
</g>
<!-- Node1&#45;&gt;Node14 -->
<g id="edge13" class="edge">
<title>Node1&#45;&gt;Node14</title>
<path fill="none" stroke="midnightblue" d="M60.56,-284.16C65.16,-231.46 83.07,-109.23 152,-40.5 156.17,-36.34 161.07,-32.87 166.32,-29.98"/>
<polygon fill="midnightblue" stroke="midnightblue" points="57.06,-284.07 59.77,-294.31 64.03,-284.61 57.06,-284.07"/>
</g>
</g>
</svg>
