<?xml version="1.0" encoding="UTF-8" standalone="no"?>
<!DOCTYPE svg PUBLIC "-//W3C//DTD SVG 1.1//EN"
 "http://www.w3.org/Graphics/SVG/1.1/DTD/svg11.dtd">
<!-- Generated by graphviz version 2.43.0 (0)
 -->
<!-- Title: zero_mate::coprocessor::cp10::isa::CCP_Instruction Pages: 1 -->
<svg width="330pt" height="170pt"
 viewBox="0.00 0.00 330.00 170.00" xmlns="http://www.w3.org/2000/svg" xmlns:xlink="http://www.w3.org/1999/xlink">
<g id="graph0" class="graph" transform="scale(1 1) rotate(0) translate(4 166)">
<title>zero_mate::coprocessor::cp10::isa::CCP_Instruction</title>
<!-- Node1 -->
<g id="node1" class="node">
<title>Node1</title>
<g id="a_node1"><a xlink:title="This class represents a general CP10 instruction.">
<polygon fill="#bfbfbf" stroke="black" points="0,-66 0,-96 149,-96 149,-66 0,-66"/>
<text text-anchor="start" x="8" y="-84" font-family="Helvetica,sans-Serif" font-size="10.00">zero_mate::coprocessor</text>
<text text-anchor="middle" x="74.5" y="-73" font-family="Helvetica,sans-Serif" font-size="10.00">::cp10::isa::CCP_Instruction</text>
</a>
</g>
</g>
<!-- Node2 -->
<g id="node2" class="node">
<title>Node2</title>
<g id="a_node2"><a xlink:href="classzero__mate_1_1coprocessor_1_1cp10_1_1isa_1_1CCP__Data__Processing__Inst.html" target="_top" xlink:title="This class represents a general CP10 data processing instruction.">
<polygon fill="none" stroke="black" points="187,-120.5 187,-161.5 320,-161.5 320,-120.5 187,-120.5"/>
<text text-anchor="start" x="195" y="-149.5" font-family="Helvetica,sans-Serif" font-size="10.00">zero_mate::coprocessor</text>
<text text-anchor="start" x="195" y="-138.5" font-family="Helvetica,sans-Serif" font-size="10.00">::cp10::isa::CCP_Data</text>
<text text-anchor="middle" x="253.5" y="-127.5" font-family="Helvetica,sans-Serif" font-size="10.00">_Processing_Inst</text>
</a>
</g>
</g>
<!-- Node1&#45;&gt;Node2 -->
<g id="edge1" class="edge">
<title>Node1&#45;&gt;Node2</title>
<path fill="none" stroke="midnightblue" d="M129.85,-99.42C149.45,-106.07 171.69,-113.61 191.8,-120.42"/>
<polygon fill="midnightblue" stroke="midnightblue" points="130.76,-96.04 120.16,-96.14 128.51,-102.67 130.76,-96.04"/>
</g>
<!-- Node3 -->
<g id="node3" class="node">
<title>Node3</title>
<g id="a_node3"><a xlink:href="classzero__mate_1_1coprocessor_1_1cp10_1_1isa_1_1CCP__Data__Transfer__Inst.html" target="_top" xlink:title="This class represents a general CP10 data transfer instruction (load/store).">
<polygon fill="none" stroke="black" points="187,-60.5 187,-101.5 320,-101.5 320,-60.5 187,-60.5"/>
<text text-anchor="start" x="195" y="-89.5" font-family="Helvetica,sans-Serif" font-size="10.00">zero_mate::coprocessor</text>
<text text-anchor="start" x="195" y="-78.5" font-family="Helvetica,sans-Serif" font-size="10.00">::cp10::isa::CCP_Data</text>
<text text-anchor="middle" x="253.5" y="-67.5" font-family="Helvetica,sans-Serif" font-size="10.00">_Transfer_Inst</text>
</a>
</g>
</g>
<!-- Node1&#45;&gt;Node3 -->
<g id="edge2" class="edge">
<title>Node1&#45;&gt;Node3</title>
<path fill="none" stroke="midnightblue" d="M159.08,-81C168.4,-81 177.79,-81 186.83,-81"/>
<polygon fill="midnightblue" stroke="midnightblue" points="159.03,-77.5 149.03,-81 159.03,-84.5 159.03,-77.5"/>
</g>
<!-- Node4 -->
<g id="node4" class="node">
<title>Node4</title>
<g id="a_node4"><a xlink:href="classzero__mate_1_1coprocessor_1_1cp10_1_1isa_1_1CCP__Register__Transfer__Inst.html" target="_top" xlink:title="This class represents a general CP10 register transfer instruction.">
<polygon fill="none" stroke="black" points="185,-0.5 185,-41.5 322,-41.5 322,-0.5 185,-0.5"/>
<text text-anchor="start" x="193" y="-29.5" font-family="Helvetica,sans-Serif" font-size="10.00">zero_mate::coprocessor</text>
<text text-anchor="start" x="193" y="-18.5" font-family="Helvetica,sans-Serif" font-size="10.00">::cp10::isa::CCP_Register</text>
<text text-anchor="middle" x="253.5" y="-7.5" font-family="Helvetica,sans-Serif" font-size="10.00">_Transfer_Inst</text>
</a>
</g>
</g>
<!-- Node1&#45;&gt;Node4 -->
<g id="edge3" class="edge">
<title>Node1&#45;&gt;Node4</title>
<path fill="none" stroke="midnightblue" d="M129.85,-62.58C149.45,-55.93 171.69,-48.39 191.8,-41.58"/>
<polygon fill="midnightblue" stroke="midnightblue" points="128.51,-59.33 120.16,-65.86 130.76,-65.96 128.51,-59.33"/>
</g>
</g>
</svg>
