<?xml version="1.0" encoding="UTF-8" standalone="no"?>
<!DOCTYPE svg PUBLIC "-//W3C//DTD SVG 1.1//EN"
 "http://www.w3.org/Graphics/SVG/1.1/DTD/svg11.dtd">
<!-- Generated by graphviz version 2.43.0 (0)
 -->
<!-- Title: zero_mate::arm1176jzf_s::CCPU_Core::Execute Pages: 1 -->
<svg width="746pt" height="110pt"
 viewBox="0.00 0.00 746.00 110.00" xmlns="http://www.w3.org/2000/svg" xmlns:xlink="http://www.w3.org/1999/xlink">
<g id="graph0" class="graph" transform="scale(1 1) rotate(0) translate(4 106)">
<title>zero_mate::arm1176jzf_s::CCPU_Core::Execute</title>
<!-- Node1 -->
<g id="node1" class="node">
<title>Node1</title>
<g id="a_node1"><a xlink:title="Executes a coprocessor data operation instruction (coprocessor instruction (3)).">
<polygon fill="#bfbfbf" stroke="black" points="0,-36 0,-66 132,-66 132,-36 0,-36"/>
<text text-anchor="start" x="8" y="-54" font-family="Helvetica,sans-Serif" font-size="10.00">zero_mate::arm1176jzf</text>
<text text-anchor="middle" x="66" y="-43" font-family="Helvetica,sans-Serif" font-size="10.00">_s::CCPU_Core::Execute</text>
</a>
</g>
</g>
<!-- Node2 -->
<g id="node2" class="node">
<title>Node2</title>
<g id="a_node2"><a xlink:href="classzero__mate_1_1arm1176jzf__s_1_1CCPU__Core.html#ad2c251aa49f9dc14f692a986ef3a090b" target="_top" xlink:title="Checks if a coprocessor of a given id is present of not.">
<polygon fill="none" stroke="black" points="202.5,-60.5 202.5,-101.5 336.5,-101.5 336.5,-60.5 202.5,-60.5"/>
<text text-anchor="start" x="210.5" y="-89.5" font-family="Helvetica,sans-Serif" font-size="10.00">zero_mate::arm1176jzf</text>
<text text-anchor="start" x="210.5" y="-78.5" font-family="Helvetica,sans-Serif" font-size="10.00">_s::CCPU_Core::Check</text>
<text text-anchor="middle" x="269.5" y="-67.5" font-family="Helvetica,sans-Serif" font-size="10.00">_Coprocessor_Existence</text>
</a>
</g>
</g>
<!-- Node1&#45;&gt;Node2 -->
<g id="edge1" class="edge">
<title>Node1&#45;&gt;Node2</title>
<path fill="none" stroke="midnightblue" d="M132.14,-60.7C151.32,-63.55 172.48,-66.7 192.29,-69.65"/>
<polygon fill="midnightblue" stroke="midnightblue" points="191.79,-73.12 202.2,-71.13 192.82,-66.19 191.79,-73.12"/>
</g>
<!-- Node5 -->
<g id="node5" class="node">
<title>Node5</title>
<g id="a_node5"><a xlink:href="classzero__mate_1_1arm1176jzf__s_1_1isa_1_1CCoprocessor__Data__Operation.html#a5e97c6684180d49e08dea4313ac8df79" target="_top" xlink:title=" ">
<polygon fill="none" stroke="black" points="168,-0.5 168,-41.5 371,-41.5 371,-0.5 168,-0.5"/>
<text text-anchor="start" x="176" y="-29.5" font-family="Helvetica,sans-Serif" font-size="10.00">zero_mate::arm1176jzf</text>
<text text-anchor="start" x="176" y="-18.5" font-family="Helvetica,sans-Serif" font-size="10.00">_s::isa::CCoprocessor</text>
<text text-anchor="middle" x="269.5" y="-7.5" font-family="Helvetica,sans-Serif" font-size="10.00">_Data_Operation::Get_Coprocessor_ID</text>
</a>
</g>
</g>
<!-- Node1&#45;&gt;Node5 -->
<g id="edge4" class="edge">
<title>Node1&#45;&gt;Node5</title>
<path fill="none" stroke="midnightblue" d="M132.14,-41.3C140.41,-40.07 149.05,-38.78 157.79,-37.48"/>
<polygon fill="midnightblue" stroke="midnightblue" points="158.31,-40.94 167.69,-36.01 157.28,-34.02 158.31,-40.94"/>
</g>
<!-- Node3 -->
<g id="node3" class="node">
<title>Node3</title>
<g id="a_node3"><a xlink:href="classzero__mate_1_1utils_1_1CLogging__System.html#aba3c5c64cd12e058e6a288db2cd89a15" target="_top" xlink:title=" ">
<polygon fill="none" stroke="black" points="407,-66 407,-96 553,-96 553,-66 407,-66"/>
<text text-anchor="start" x="415" y="-84" font-family="Helvetica,sans-Serif" font-size="10.00">zero_mate::utils::CLogging</text>
<text text-anchor="middle" x="480" y="-73" font-family="Helvetica,sans-Serif" font-size="10.00">_System::Error</text>
</a>
</g>
</g>
<!-- Node2&#45;&gt;Node3 -->
<g id="edge2" class="edge">
<title>Node2&#45;&gt;Node3</title>
<path fill="none" stroke="midnightblue" d="M336.76,-81C355.75,-81 376.68,-81 396.52,-81"/>
<polygon fill="midnightblue" stroke="midnightblue" points="396.77,-84.5 406.77,-81 396.77,-77.5 396.77,-84.5"/>
</g>
<!-- Node4 -->
<g id="node4" class="node">
<title>Node4</title>
<g id="a_node4"><a xlink:href="classzero__mate_1_1utils_1_1CLogging__System.html#af3fd8f336b5853e954283d93f2c32edd" target="_top" xlink:title=" ">
<polygon fill="none" stroke="black" points="589,-66 589,-96 738,-96 738,-66 589,-66"/>
<text text-anchor="start" x="597" y="-84" font-family="Helvetica,sans-Serif" font-size="10.00">zero_mate::utils::CLogging</text>
<text text-anchor="middle" x="663.5" y="-73" font-family="Helvetica,sans-Serif" font-size="10.00">_System::Extract_Filename</text>
</a>
</g>
</g>
<!-- Node3&#45;&gt;Node4 -->
<g id="edge3" class="edge">
<title>Node3&#45;&gt;Node4</title>
<path fill="none" stroke="midnightblue" d="M553.26,-81C561.55,-81 570.06,-81 578.49,-81"/>
<polygon fill="midnightblue" stroke="midnightblue" points="578.71,-84.5 588.71,-81 578.71,-77.5 578.71,-84.5"/>
</g>
</g>
</svg>
