<?xml version="1.0" encoding="UTF-8" standalone="no"?>
<!DOCTYPE svg PUBLIC "-//W3C//DTD SVG 1.1//EN"
 "http://www.w3.org/Graphics/SVG/1.1/DTD/svg11.dtd">
<!-- Generated by graphviz version 2.43.0 (0)
 -->
<!-- Title: zero_mate::utils::CLogging_System::Extract_Filename Pages: 1 -->
<svg width="1103pt" height="1332pt"
 viewBox="0.00 0.00 1103.00 1332.00" xmlns="http://www.w3.org/2000/svg" xmlns:xlink="http://www.w3.org/1999/xlink">
<g id="graph0" class="graph" transform="scale(1 1) rotate(0) translate(4 1328)">
<title>zero_mate::utils::CLogging_System::Extract_Filename</title>
<!-- Node1 -->
<g id="node1" class="node">
<title>Node1</title>
<g id="a_node1"><a xlink:title=" ">
<polygon fill="#bfbfbf" stroke="black" points="946,-445.5 946,-475.5 1095,-475.5 1095,-445.5 946,-445.5"/>
<text text-anchor="start" x="954" y="-463.5" font-family="Helvetica,sans-Serif" font-size="10.00">zero_mate::utils::CLogging</text>
<text text-anchor="middle" x="1020.5" y="-452.5" font-family="Helvetica,sans-Serif" font-size="10.00">_System::Extract_Filename</text>
</a>
</g>
</g>
<!-- Node2 -->
<g id="node2" class="node">
<title>Node2</title>
<g id="a_node2"><a xlink:href="classzero__mate_1_1utils_1_1CLogging__System.html#a365eaf1db85bd115fe69c5d9f93b81ee" target="_top" xlink:title=" ">
<polygon fill="none" stroke="black" points="764,-675.5 764,-705.5 910,-705.5 910,-675.5 764,-675.5"/>
<text text-anchor="start" x="772" y="-693.5" font-family="Helvetica,sans-Serif" font-size="10.00">zero_mate::utils::CLogging</text>
<text text-anchor="middle" x="837" y="-682.5" font-family="Helvetica,sans-Serif" font-size="10.00">_System::Debug</text>
</a>
</g>
</g>
<!-- Node1&#45;&gt;Node2 -->
<g id="edge1" class="edge">
<title>Node1&#45;&gt;Node2</title>
<path fill="none" stroke="midnightblue" d="M1001.23,-483.66C964.15,-530.64 880.96,-636.06 849.95,-675.35"/>
<polygon fill="midnightblue" stroke="midnightblue" points="1004.14,-485.61 1007.59,-475.59 998.65,-481.27 1004.14,-485.61"/>
</g>
<!-- Node15 -->
<g id="node15" class="node">
<title>Node15</title>
<g id="a_node15"><a xlink:href="classzero__mate_1_1utils_1_1CLogging__System.html#aba3c5c64cd12e058e6a288db2cd89a15" target="_top" xlink:title=" ">
<polygon fill="none" stroke="black" points="764,-246.5 764,-276.5 910,-276.5 910,-246.5 764,-246.5"/>
<text text-anchor="start" x="772" y="-264.5" font-family="Helvetica,sans-Serif" font-size="10.00">zero_mate::utils::CLogging</text>
<text text-anchor="middle" x="837" y="-253.5" font-family="Helvetica,sans-Serif" font-size="10.00">_System::Error</text>
</a>
</g>
</g>
<!-- Node1&#45;&gt;Node15 -->
<g id="edge18" class="edge">
<title>Node1&#45;&gt;Node15</title>
<path fill="none" stroke="midnightblue" d="M998.62,-437.61C961.11,-396.48 883.3,-311.16 851.74,-276.56"/>
<polygon fill="midnightblue" stroke="midnightblue" points="996.23,-440.19 1005.56,-445.22 1001.41,-435.47 996.23,-440.19"/>
</g>
<!-- Node29 -->
<g id="node29" class="node">
<title>Node29</title>
<g id="a_node29"><a xlink:href="classzero__mate_1_1utils_1_1CLogging__System.html#aee146ee8db11fa8f184757f980d35c02" target="_top" xlink:title=" ">
<polygon fill="none" stroke="black" points="764,-33.5 764,-63.5 910,-63.5 910,-33.5 764,-33.5"/>
<text text-anchor="start" x="772" y="-51.5" font-family="Helvetica,sans-Serif" font-size="10.00">zero_mate::utils::CLogging</text>
<text text-anchor="middle" x="837" y="-40.5" font-family="Helvetica,sans-Serif" font-size="10.00">_System::Info</text>
</a>
</g>
</g>
<!-- Node1&#45;&gt;Node29 -->
<g id="edge33" class="edge">
<title>Node1&#45;&gt;Node29</title>
<path fill="none" stroke="midnightblue" d="M1008.71,-436.01C974.97,-359.43 872.08,-125.87 844.74,-63.79"/>
<polygon fill="midnightblue" stroke="midnightblue" points="1005.59,-437.61 1012.83,-445.35 1012,-434.79 1005.59,-437.61"/>
</g>
<!-- Node31 -->
<g id="node31" class="node">
<title>Node31</title>
<g id="a_node31"><a xlink:href="classzero__mate_1_1utils_1_1CLogging__System.html#a8904feb1d77dc350717ebcd00e7e5443" target="_top" xlink:title=" ">
<polygon fill="none" stroke="black" points="764,-1052.5 764,-1082.5 910,-1082.5 910,-1052.5 764,-1052.5"/>
<text text-anchor="start" x="772" y="-1070.5" font-family="Helvetica,sans-Serif" font-size="10.00">zero_mate::utils::CLogging</text>
<text text-anchor="middle" x="837" y="-1059.5" font-family="Helvetica,sans-Serif" font-size="10.00">_System::Warning</text>
</a>
</g>
</g>
<!-- Node1&#45;&gt;Node31 -->
<g id="edge37" class="edge">
<title>Node1&#45;&gt;Node31</title>
<path fill="none" stroke="midnightblue" d="M1012.11,-485.21C981.7,-586.9 866.71,-971.5 842.49,-1052.48"/>
<polygon fill="midnightblue" stroke="midnightblue" points="1015.5,-486.09 1015.01,-475.5 1008.8,-484.08 1015.5,-486.09"/>
</g>
<!-- Node3 -->
<g id="node3" class="node">
<title>Node3</title>
<g id="a_node3"><a xlink:href="classzero__mate_1_1peripheral_1_1CGPIO__Manager.html#a4a4e9cf470ed6f7dbfb3ada75d35e47c" target="_top" xlink:title=" ">
<polygon fill="none" stroke="black" points="553.5,-820.5 553.5,-850.5 708.5,-850.5 708.5,-820.5 553.5,-820.5"/>
<text text-anchor="start" x="561.5" y="-838.5" font-family="Helvetica,sans-Serif" font-size="10.00">zero_mate::peripheral</text>
<text text-anchor="middle" x="631" y="-827.5" font-family="Helvetica,sans-Serif" font-size="10.00">::CGPIO_Manager::Clear_IRQ</text>
</a>
</g>
</g>
<!-- Node2&#45;&gt;Node3 -->
<g id="edge2" class="edge">
<title>Node2&#45;&gt;Node3</title>
<path fill="none" stroke="midnightblue" d="M821.05,-714.18C802.54,-741.52 768.45,-785.9 728,-810.5 721.67,-814.35 714.76,-817.61 707.64,-820.37"/>
<polygon fill="midnightblue" stroke="midnightblue" points="824.12,-715.88 826.72,-705.61 818.28,-712.02 824.12,-715.88"/>
</g>
<!-- Node5 -->
<g id="node5" class="node">
<title>Node5</title>
<g id="a_node5"><a xlink:href="classzero__mate_1_1gui_1_1external__peripheral_1_1CButton.html#a2bb2c24120ea7126337ece50fe599b09" target="_top" xlink:title=" ">
<polygon fill="none" stroke="black" points="534,-470.5 534,-500.5 728,-500.5 728,-470.5 534,-470.5"/>
<text text-anchor="start" x="542" y="-488.5" font-family="Helvetica,sans-Serif" font-size="10.00">zero_mate::gui::external</text>
<text text-anchor="middle" x="631" y="-477.5" font-family="Helvetica,sans-Serif" font-size="10.00">_peripheral::CButton::Render_Button</text>
</a>
</g>
</g>
<!-- Node2&#45;&gt;Node5 -->
<g id="edge4" class="edge">
<title>Node2&#45;&gt;Node5</title>
<path fill="none" stroke="midnightblue" d="M828.13,-665.95C814.33,-626.89 781.97,-550.9 728,-510.5 722.9,-506.68 717.27,-503.44 711.36,-500.7"/>
<polygon fill="midnightblue" stroke="midnightblue" points="824.85,-667.15 831.39,-675.48 831.47,-664.89 824.85,-667.15"/>
</g>
<!-- Node7 -->
<g id="node7" class="node">
<title>Node7</title>
<g id="a_node7"><a xlink:href="classzero__mate_1_1peripheral_1_1CGPIO__Manager.html#ad29d57528b73baef90b0ca885a297e4d" target="_top" xlink:title=" ">
<polygon fill="none" stroke="black" points="569,-640 569,-681 693,-681 693,-640 569,-640"/>
<text text-anchor="start" x="577" y="-669" font-family="Helvetica,sans-Serif" font-size="10.00">zero_mate::peripheral</text>
<text text-anchor="start" x="577" y="-658" font-family="Helvetica,sans-Serif" font-size="10.00">::CGPIO_Manager::Set</text>
<text text-anchor="middle" x="631" y="-647" font-family="Helvetica,sans-Serif" font-size="10.00">_Interrupt</text>
</a>
</g>
</g>
<!-- Node2&#45;&gt;Node7 -->
<g id="edge6" class="edge">
<title>Node2&#45;&gt;Node7</title>
<path fill="none" stroke="midnightblue" d="M753.68,-678.39C733.51,-675.43 712.28,-672.31 693.3,-669.52"/>
<polygon fill="midnightblue" stroke="midnightblue" points="753.39,-681.89 763.79,-679.88 754.41,-674.96 753.39,-681.89"/>
</g>
<!-- Node8 -->
<g id="node8" class="node">
<title>Node8</title>
<g id="a_node8"><a xlink:href="classzero__mate_1_1peripheral_1_1CInterrupt__Controller.html#a32373b931bb37ef8ee92f95a3f833284" target="_top" xlink:title=" ">
<polygon fill="none" stroke="black" points="568.5,-760 568.5,-801 693.5,-801 693.5,-760 568.5,-760"/>
<text text-anchor="start" x="576.5" y="-789" font-family="Helvetica,sans-Serif" font-size="10.00">zero_mate::peripheral</text>
<text text-anchor="start" x="576.5" y="-778" font-family="Helvetica,sans-Serif" font-size="10.00">::CInterrupt_Controller</text>
<text text-anchor="middle" x="631" y="-767" font-family="Helvetica,sans-Serif" font-size="10.00">::Signalize_Basic_IRQ</text>
</a>
</g>
</g>
<!-- Node2&#45;&gt;Node8 -->
<g id="edge8" class="edge">
<title>Node2&#45;&gt;Node8</title>
<path fill="none" stroke="midnightblue" d="M803.45,-710.88C782.46,-723.44 754.27,-739.24 728,-750.5 717.09,-755.18 705.2,-759.49 693.62,-763.29"/>
<polygon fill="midnightblue" stroke="midnightblue" points="805.53,-713.72 812.27,-705.54 801.9,-707.73 805.53,-713.72"/>
</g>
<!-- Node9 -->
<g id="node9" class="node">
<title>Node9</title>
<g id="a_node9"><a xlink:href="classzero__mate_1_1peripheral_1_1CInterrupt__Controller.html#aa559a3a604ae1877cbbe749724d8a399" target="_top" xlink:title=" ">
<polygon fill="none" stroke="black" points="568.5,-700 568.5,-741 693.5,-741 693.5,-700 568.5,-700"/>
<text text-anchor="start" x="576.5" y="-729" font-family="Helvetica,sans-Serif" font-size="10.00">zero_mate::peripheral</text>
<text text-anchor="start" x="576.5" y="-718" font-family="Helvetica,sans-Serif" font-size="10.00">::CInterrupt_Controller</text>
<text text-anchor="middle" x="631" y="-707" font-family="Helvetica,sans-Serif" font-size="10.00">::Signalize_IRQ</text>
</a>
</g>
</g>
<!-- Node2&#45;&gt;Node9 -->
<g id="edge9" class="edge">
<title>Node2&#45;&gt;Node9</title>
<path fill="none" stroke="midnightblue" d="M753.73,-702.6C733.67,-705.55 712.55,-708.65 693.63,-711.44"/>
<polygon fill="midnightblue" stroke="midnightblue" points="754.41,-706.04 763.79,-701.12 753.39,-699.11 754.41,-706.04"/>
</g>
<!-- Node10 -->
<g id="node10" class="node">
<title>Node10</title>
<g id="a_node10"><a xlink:href="classzero__mate_1_1peripheral_1_1CInterrupt__Controller.html#a6f074a301f17ac293e1cd4555067461f" target="_top" xlink:title=" ">
<polygon fill="none" stroke="black" points="553.5,-580 553.5,-621 708.5,-621 708.5,-580 553.5,-580"/>
<text text-anchor="start" x="561.5" y="-609" font-family="Helvetica,sans-Serif" font-size="10.00">zero_mate::peripheral</text>
<text text-anchor="start" x="561.5" y="-598" font-family="Helvetica,sans-Serif" font-size="10.00">::CInterrupt_Controller</text>
<text text-anchor="middle" x="631" y="-587" font-family="Helvetica,sans-Serif" font-size="10.00">::Update_IRQ_Basic_Sources</text>
</a>
</g>
</g>
<!-- Node2&#45;&gt;Node10 -->
<g id="edge10" class="edge">
<title>Node2&#45;&gt;Node10</title>
<path fill="none" stroke="midnightblue" d="M803.45,-670.12C782.46,-657.56 754.27,-641.76 728,-630.5 720.14,-627.13 711.77,-623.95 703.37,-621.01"/>
<polygon fill="midnightblue" stroke="midnightblue" points="801.9,-673.27 812.27,-675.46 805.53,-667.28 801.9,-673.27"/>
</g>
<!-- Node12 -->
<g id="node12" class="node">
<title>Node12</title>
<g id="a_node12"><a xlink:href="classzero__mate_1_1peripheral_1_1CInterrupt__Controller.html#ae94d5f5a394ae360ab5e57ee4caa97f5" target="_top" xlink:title=" ">
<polygon fill="none" stroke="black" points="568.5,-520 568.5,-561 693.5,-561 693.5,-520 568.5,-520"/>
<text text-anchor="start" x="576.5" y="-549" font-family="Helvetica,sans-Serif" font-size="10.00">zero_mate::peripheral</text>
<text text-anchor="start" x="576.5" y="-538" font-family="Helvetica,sans-Serif" font-size="10.00">::CInterrupt_Controller</text>
<text text-anchor="middle" x="631" y="-527" font-family="Helvetica,sans-Serif" font-size="10.00">::Update_IRQ_Sources</text>
</a>
</g>
</g>
<!-- Node2&#45;&gt;Node12 -->
<g id="edge12" class="edge">
<title>Node2&#45;&gt;Node12</title>
<path fill="none" stroke="midnightblue" d="M820.54,-666.73C801.76,-639.66 767.63,-595.93 728,-570.5 717.57,-563.81 705.53,-558.52 693.6,-554.37"/>
<polygon fill="midnightblue" stroke="midnightblue" points="817.79,-668.91 826.31,-675.21 823.58,-664.98 817.79,-668.91"/>
</g>
<!-- Node13 -->
<g id="node13" class="node">
<title>Node13</title>
<g id="a_node13"><a xlink:href="classzero__mate_1_1peripheral_1_1CGPIO__Manager.html#ad7c6aa486cf3b116ffae9f16eec64064" target="_top" xlink:title=" ">
<polygon fill="none" stroke="black" points="559.5,-870 559.5,-911 702.5,-911 702.5,-870 559.5,-870"/>
<text text-anchor="start" x="567.5" y="-899" font-family="Helvetica,sans-Serif" font-size="10.00">zero_mate::peripheral</text>
<text text-anchor="start" x="567.5" y="-888" font-family="Helvetica,sans-Serif" font-size="10.00">::CGPIO_Manager::Update</text>
<text text-anchor="middle" x="631" y="-877" font-family="Helvetica,sans-Serif" font-size="10.00">_Pin_Function</text>
</a>
</g>
</g>
<!-- Node2&#45;&gt;Node13 -->
<g id="edge14" class="edge">
<title>Node2&#45;&gt;Node13</title>
<path fill="none" stroke="midnightblue" d="M826.78,-715.26C811.75,-752.28 778.48,-821.81 728,-860.5 720.38,-866.34 711.6,-871.06 702.51,-874.86"/>
<polygon fill="midnightblue" stroke="midnightblue" points="830.12,-716.32 830.54,-705.74 823.61,-713.76 830.12,-716.32"/>
</g>
<!-- Node14 -->
<g id="node14" class="node">
<title>Node14</title>
<g id="a_node14"><a xlink:href="classzero__mate_1_1peripheral_1_1CGPIO__Manager.html#ae93785da50eefb8a8cc21c1c59a32726" target="_top" xlink:title=" ">
<polygon fill="none" stroke="black" points="559.5,-930 559.5,-971 702.5,-971 702.5,-930 559.5,-930"/>
<text text-anchor="start" x="567.5" y="-959" font-family="Helvetica,sans-Serif" font-size="10.00">zero_mate::peripheral</text>
<text text-anchor="start" x="567.5" y="-948" font-family="Helvetica,sans-Serif" font-size="10.00">::CGPIO_Manager::Update</text>
<text text-anchor="middle" x="631" y="-937" font-family="Helvetica,sans-Serif" font-size="10.00">_Pin_State</text>
</a>
</g>
</g>
<!-- Node2&#45;&gt;Node14 -->
<g id="edge16" class="edge">
<title>Node2&#45;&gt;Node14</title>
<path fill="none" stroke="midnightblue" d="M831.17,-715.63C820.81,-762.75 791.99,-864.67 728,-920.5 720.63,-926.93 711.89,-931.98 702.74,-935.95"/>
<polygon fill="midnightblue" stroke="midnightblue" points="834.64,-716.16 833.27,-705.66 827.79,-714.73 834.64,-716.16"/>
</g>
<!-- Node4 -->
<g id="node4" class="node">
<title>Node4</title>
<g id="a_node4"><a xlink:href="classzero__mate_1_1peripheral_1_1CGPIO__Manager.html#a26aa957dbb7682447e4ebf9aa078c00c" target="_top" xlink:title=" ">
<polygon fill="none" stroke="black" points="351.5,-875.5 351.5,-905.5 485.5,-905.5 485.5,-875.5 351.5,-875.5"/>
<text text-anchor="start" x="359.5" y="-893.5" font-family="Helvetica,sans-Serif" font-size="10.00">zero_mate::peripheral</text>
<text text-anchor="middle" x="418.5" y="-882.5" font-family="Helvetica,sans-Serif" font-size="10.00">::CGPIO_Manager::Write</text>
</a>
</g>
</g>
<!-- Node3&#45;&gt;Node4 -->
<g id="edge3" class="edge">
<title>Node3&#45;&gt;Node4</title>
<path fill="none" stroke="midnightblue" d="M562.3,-853.12C552.8,-855.59 543.15,-858.11 534,-860.5 515.41,-865.36 495.13,-870.67 476.86,-875.45"/>
<polygon fill="midnightblue" stroke="midnightblue" points="563.33,-856.47 572.12,-850.56 561.56,-849.69 563.33,-856.47"/>
</g>
<!-- Node6 -->
<g id="node6" class="node">
<title>Node6</title>
<g id="a_node6"><a xlink:href="classzero__mate_1_1gui_1_1external__peripheral_1_1CButton.html#aac3d95dcbf1b19e892a6a1b3f035631c" target="_top" xlink:title=" ">
<polygon fill="none" stroke="black" points="340,-470.5 340,-500.5 497,-500.5 497,-470.5 340,-470.5"/>
<text text-anchor="start" x="348" y="-488.5" font-family="Helvetica,sans-Serif" font-size="10.00">zero_mate::gui::external</text>
<text text-anchor="middle" x="418.5" y="-477.5" font-family="Helvetica,sans-Serif" font-size="10.00">_peripheral::CButton::Render</text>
</a>
</g>
</g>
<!-- Node5&#45;&gt;Node6 -->
<g id="edge5" class="edge">
<title>Node5&#45;&gt;Node6</title>
<path fill="none" stroke="midnightblue" d="M523.83,-485.5C514.81,-485.5 505.81,-485.5 497.08,-485.5"/>
<polygon fill="midnightblue" stroke="midnightblue" points="523.99,-489 533.99,-485.5 523.99,-482 523.99,-489"/>
</g>
<!-- Node7&#45;&gt;Node4 -->
<g id="edge7" class="edge">
<title>Node7&#45;&gt;Node4</title>
<path fill="none" stroke="midnightblue" d="M559.38,-675.75C550.28,-679.62 541.53,-684.45 534,-690.5 470.37,-741.62 435.44,-838.27 423.88,-875.42"/>
<polygon fill="midnightblue" stroke="midnightblue" points="560.88,-678.93 568.95,-672.07 558.36,-672.4 560.88,-678.93"/>
</g>
<!-- Node11 -->
<g id="node11" class="node">
<title>Node11</title>
<g id="a_node11"><a xlink:href="classzero__mate_1_1peripheral_1_1CInterrupt__Controller.html#ab37428109c8e5f862b528417048903f3" target="_top" xlink:title=" ">
<polygon fill="none" stroke="black" points="356,-550 356,-591 481,-591 481,-550 356,-550"/>
<text text-anchor="start" x="364" y="-579" font-family="Helvetica,sans-Serif" font-size="10.00">zero_mate::peripheral</text>
<text text-anchor="start" x="364" y="-568" font-family="Helvetica,sans-Serif" font-size="10.00">::CInterrupt_Controller</text>
<text text-anchor="middle" x="418.5" y="-557" font-family="Helvetica,sans-Serif" font-size="10.00">::Write</text>
</a>
</g>
</g>
<!-- Node10&#45;&gt;Node11 -->
<g id="edge11" class="edge">
<title>Node10&#45;&gt;Node11</title>
<path fill="none" stroke="midnightblue" d="M543.28,-588.14C522.46,-585.17 500.63,-582.06 481.21,-579.29"/>
<polygon fill="midnightblue" stroke="midnightblue" points="543.02,-591.64 553.41,-589.58 544,-584.71 543.02,-591.64"/>
</g>
<!-- Node12&#45;&gt;Node11 -->
<g id="edge13" class="edge">
<title>Node12&#45;&gt;Node11</title>
<path fill="none" stroke="midnightblue" d="M558.11,-550.75C533.12,-554.31 505.33,-558.27 481.23,-561.7"/>
<polygon fill="midnightblue" stroke="midnightblue" points="558.86,-554.17 568.27,-549.3 557.87,-547.24 558.86,-554.17"/>
</g>
<!-- Node13&#45;&gt;Node4 -->
<g id="edge15" class="edge">
<title>Node13&#45;&gt;Node4</title>
<path fill="none" stroke="midnightblue" d="M549.15,-890.5C528.18,-890.5 505.85,-890.5 485.73,-890.5"/>
<polygon fill="midnightblue" stroke="midnightblue" points="549.32,-894 559.32,-890.5 549.32,-887 549.32,-894"/>
</g>
<!-- Node14&#45;&gt;Node4 -->
<g id="edge17" class="edge">
<title>Node14&#45;&gt;Node4</title>
<path fill="none" stroke="midnightblue" d="M549.53,-927.56C523.67,-920.19 495.7,-912.22 472.35,-905.56"/>
<polygon fill="midnightblue" stroke="midnightblue" points="548.74,-930.98 559.32,-930.35 550.66,-924.25 548.74,-930.98"/>
</g>
<!-- Node16 -->
<g id="node16" class="node">
<title>Node16</title>
<g id="a_node16"><a xlink:href="classzero__mate_1_1arm1176jzf__s_1_1CCPU__Core.html#ad2c251aa49f9dc14f692a986ef3a090b" target="_top" xlink:title="Checks if a coprocessor of a given id is present of not.">
<polygon fill="none" stroke="black" points="564,-143 564,-184 698,-184 698,-143 564,-143"/>
<text text-anchor="start" x="572" y="-172" font-family="Helvetica,sans-Serif" font-size="10.00">zero_mate::arm1176jzf</text>
<text text-anchor="start" x="572" y="-161" font-family="Helvetica,sans-Serif" font-size="10.00">_s::CCPU_Core::Check</text>
<text text-anchor="middle" x="631" y="-150" font-family="Helvetica,sans-Serif" font-size="10.00">_Coprocessor_Existence</text>
</a>
</g>
</g>
<!-- Node15&#45;&gt;Node16 -->
<g id="edge19" class="edge">
<title>Node15&#45;&gt;Node16</title>
<path fill="none" stroke="midnightblue" d="M804.5,-241.11C783.38,-227.95 754.65,-211.01 728,-198.5 717,-193.34 705.01,-188.43 693.36,-184.01"/>
<polygon fill="midnightblue" stroke="midnightblue" points="802.73,-244.13 813.06,-246.49 806.46,-238.21 802.73,-244.13"/>
</g>
<!-- Node18 -->
<g id="node18" class="node">
<title>Node18</title>
<g id="a_node18"><a xlink:href="classzero__mate_1_1arm1176jzf__s_1_1CCPU__Core.html#a92c997ad914fb73cec7feb5fa26d8ead" target="_top" xlink:title="Executes a data processing instruction.">
<polygon fill="none" stroke="black" points="352.5,-285.5 352.5,-315.5 484.5,-315.5 484.5,-285.5 352.5,-285.5"/>
<text text-anchor="start" x="360.5" y="-303.5" font-family="Helvetica,sans-Serif" font-size="10.00">zero_mate::arm1176jzf</text>
<text text-anchor="middle" x="418.5" y="-292.5" font-family="Helvetica,sans-Serif" font-size="10.00">_s::CCPU_Core::Execute</text>
</a>
</g>
</g>
<!-- Node15&#45;&gt;Node18 -->
<g id="edge21" class="edge">
<title>Node15&#45;&gt;Node18</title>
<path fill="none" stroke="midnightblue" d="M782.56,-243.57C765.35,-238.63 746.05,-233.96 728,-231.5 642.57,-219.85 617.07,-208.4 534,-231.5 496.43,-241.94 458.86,-268.4 437.47,-285.35"/>
<polygon fill="midnightblue" stroke="midnightblue" points="781.84,-247.01 792.43,-246.5 783.83,-240.3 781.84,-247.01"/>
</g>
<!-- Node19 -->
<g id="node19" class="node">
<title>Node19</title>
<g id="a_node19"><a xlink:href="classzero__mate_1_1coprocessor_1_1CCP15.html#ad77826237c15f2dae64384f0615cf139" target="_top" xlink:title=" ">
<polygon fill="none" stroke="black" points="564.5,-361 564.5,-402 697.5,-402 697.5,-361 564.5,-361"/>
<text text-anchor="start" x="572.5" y="-390" font-family="Helvetica,sans-Serif" font-size="10.00">zero_mate::coprocessor</text>
<text text-anchor="start" x="572.5" y="-379" font-family="Helvetica,sans-Serif" font-size="10.00">::CCP15::Perform_Data</text>
<text text-anchor="middle" x="631" y="-368" font-family="Helvetica,sans-Serif" font-size="10.00">_Operation</text>
</a>
</g>
</g>
<!-- Node15&#45;&gt;Node19 -->
<g id="edge22" class="edge">
<title>Node15&#45;&gt;Node19</title>
<path fill="none" stroke="midnightblue" d="M814.42,-283.95C793.88,-304.16 761.26,-333.38 728,-351.5 718.57,-356.64 708.13,-361.04 697.71,-364.76"/>
<polygon fill="midnightblue" stroke="midnightblue" points="817.08,-286.24 821.67,-276.69 812.13,-281.29 817.08,-286.24"/>
</g>
<!-- Node20 -->
<g id="node20" class="node">
<title>Node20</title>
<g id="a_node20"><a xlink:href="classzero__mate_1_1coprocessor_1_1CCP15.html#a945c53f9e128ebfe380e96e02988d3f0" target="_top" xlink:title=" ">
<polygon fill="none" stroke="black" points="564.5,-301 564.5,-342 697.5,-342 697.5,-301 564.5,-301"/>
<text text-anchor="start" x="572.5" y="-330" font-family="Helvetica,sans-Serif" font-size="10.00">zero_mate::coprocessor</text>
<text text-anchor="start" x="572.5" y="-319" font-family="Helvetica,sans-Serif" font-size="10.00">::CCP15::Perform_Data</text>
<text text-anchor="middle" x="631" y="-308" font-family="Helvetica,sans-Serif" font-size="10.00">_Transfer</text>
</a>
</g>
</g>
<!-- Node15&#45;&gt;Node20 -->
<g id="edge23" class="edge">
<title>Node15&#45;&gt;Node20</title>
<path fill="none" stroke="midnightblue" d="M774.93,-279.46C750.53,-286.64 722.38,-294.92 697.55,-302.22"/>
<polygon fill="midnightblue" stroke="midnightblue" points="776.18,-282.74 784.79,-276.56 774.2,-276.03 776.18,-282.74"/>
</g>
<!-- Node21 -->
<g id="node21" class="node">
<title>Node21</title>
<g id="a_node21"><a xlink:href="classzero__mate_1_1coprocessor_1_1CCP15.html#aa6e5433a8d6dd2203585c7cf9696a85e" target="_top" xlink:title=" ">
<polygon fill="none" stroke="black" points="558.5,-241 558.5,-282 703.5,-282 703.5,-241 558.5,-241"/>
<text text-anchor="start" x="566.5" y="-270" font-family="Helvetica,sans-Serif" font-size="10.00">zero_mate::coprocessor</text>
<text text-anchor="start" x="566.5" y="-259" font-family="Helvetica,sans-Serif" font-size="10.00">::CCP15::Perform_Register</text>
<text text-anchor="middle" x="631" y="-248" font-family="Helvetica,sans-Serif" font-size="10.00">_Transfer</text>
</a>
</g>
</g>
<!-- Node15&#45;&gt;Node21 -->
<g id="edge24" class="edge">
<title>Node15&#45;&gt;Node21</title>
<path fill="none" stroke="midnightblue" d="M753.62,-261.5C737.11,-261.5 719.89,-261.5 703.77,-261.5"/>
<polygon fill="midnightblue" stroke="midnightblue" points="753.79,-265 763.79,-261.5 753.79,-258 753.79,-265"/>
</g>
<!-- Node22 -->
<g id="node22" class="node">
<title>Node22</title>
<g id="a_node22"><a xlink:href="classzero__mate_1_1gui_1_1CControl__Window.html#a46cc1dd042f93990abb7b0b68f566a2d" target="_top" xlink:title=" ">
<polygon fill="none" stroke="black" points="555,-83 555,-124 707,-124 707,-83 555,-83"/>
<text text-anchor="start" x="563" y="-112" font-family="Helvetica,sans-Serif" font-size="10.00">zero_mate::gui::CControl</text>
<text text-anchor="start" x="563" y="-101" font-family="Helvetica,sans-Serif" font-size="10.00">_Window::Print_No_ELF_File</text>
<text text-anchor="middle" x="631" y="-90" font-family="Helvetica,sans-Serif" font-size="10.00">_Loaded_Error_Msg</text>
</a>
</g>
</g>
<!-- Node15&#45;&gt;Node22 -->
<g id="edge25" class="edge">
<title>Node15&#45;&gt;Node22</title>
<path fill="none" stroke="midnightblue" d="M822.03,-237.86C803.87,-209.13 769.52,-161.09 728,-133.5 721.6,-129.25 714.56,-125.57 707.3,-122.4"/>
<polygon fill="midnightblue" stroke="midnightblue" points="819.11,-239.79 827.34,-246.46 825.06,-236.11 819.11,-239.79"/>
</g>
<!-- Node25 -->
<g id="node25" class="node">
<title>Node25</title>
<g id="a_node25"><a xlink:href="classzero__mate_1_1gui_1_1CFile__Window.html#affaac4b63e2d16566e84c333a0f48468" target="_top" xlink:title=" ">
<polygon fill="none" stroke="black" points="571.5,-33.5 571.5,-63.5 690.5,-63.5 690.5,-33.5 571.5,-33.5"/>
<text text-anchor="start" x="579.5" y="-51.5" font-family="Helvetica,sans-Serif" font-size="10.00">zero_mate::gui::CFile</text>
<text text-anchor="middle" x="631" y="-40.5" font-family="Helvetica,sans-Serif" font-size="10.00">_Window::Render</text>
</a>
</g>
</g>
<!-- Node15&#45;&gt;Node25 -->
<g id="edge28" class="edge">
<title>Node15&#45;&gt;Node25</title>
<path fill="none" stroke="midnightblue" d="M828.73,-236.73C815.54,-196.22 783.73,-116.05 728,-73.5 717.19,-65.24 703.9,-59.7 690.71,-55.99"/>
<polygon fill="midnightblue" stroke="midnightblue" points="825.42,-237.87 831.76,-246.36 832.1,-235.77 825.42,-237.87"/>
</g>
<!-- Node26 -->
<g id="node26" class="node">
<title>Node26</title>
<g id="a_node26"><a xlink:href="classzero__mate_1_1arm1176jzf__s_1_1CCPU__Context.html#a53765299c790cc790e15deb2c701bd2a" target="_top" xlink:title=" ">
<polygon fill="none" stroke="black" points="553,-421.5 553,-451.5 709,-451.5 709,-421.5 553,-421.5"/>
<text text-anchor="start" x="561" y="-439.5" font-family="Helvetica,sans-Serif" font-size="10.00">zero_mate::arm1176jzf</text>
<text text-anchor="middle" x="631" y="-428.5" font-family="Helvetica,sans-Serif" font-size="10.00">_s::CCPU_Context::Set_CPSR</text>
</a>
</g>
</g>
<!-- Node15&#45;&gt;Node26 -->
<g id="edge29" class="edge">
<title>Node15&#45;&gt;Node26</title>
<path fill="none" stroke="midnightblue" d="M825.01,-286.09C808.73,-319.66 774.98,-379.31 728,-411.5 722.18,-415.49 715.75,-418.85 709.08,-421.66"/>
<polygon fill="midnightblue" stroke="midnightblue" points="828.22,-287.5 829.32,-276.97 821.88,-284.52 828.22,-287.5"/>
</g>
<!-- Node17 -->
<g id="node17" class="node">
<title>Node17</title>
<g id="a_node17"><a xlink:href="classzero__mate_1_1arm1176jzf__s_1_1CCPU__Core.html#ae54c96b9b4395337b22c4ce3686d7862" target="_top" xlink:title="Executes a coprocessor register transfer instruction (coprocessor instruction (1)).">
<polygon fill="none" stroke="black" points="352.5,-148.5 352.5,-178.5 484.5,-178.5 484.5,-148.5 352.5,-148.5"/>
<text text-anchor="start" x="360.5" y="-166.5" font-family="Helvetica,sans-Serif" font-size="10.00">zero_mate::arm1176jzf</text>
<text text-anchor="middle" x="418.5" y="-155.5" font-family="Helvetica,sans-Serif" font-size="10.00">_s::CCPU_Core::Execute</text>
</a>
</g>
</g>
<!-- Node16&#45;&gt;Node17 -->
<g id="edge20" class="edge">
<title>Node16&#45;&gt;Node17</title>
<path fill="none" stroke="midnightblue" d="M553.72,-163.5C531.05,-163.5 506.45,-163.5 484.57,-163.5"/>
<polygon fill="midnightblue" stroke="midnightblue" points="553.97,-167 563.97,-163.5 553.97,-160 553.97,-167"/>
</g>
<!-- Node23 -->
<g id="node23" class="node">
<title>Node23</title>
<g id="a_node23"><a xlink:href="classzero__mate_1_1gui_1_1CControl__Window.html#a9be0d8c611ece954a13f3763744b074f" target="_top" xlink:title=" ">
<polygon fill="none" stroke="black" points="348,-61 348,-102 489,-102 489,-61 348,-61"/>
<text text-anchor="start" x="356" y="-90" font-family="Helvetica,sans-Serif" font-size="10.00">zero_mate::gui::CControl</text>
<text text-anchor="start" x="356" y="-79" font-family="Helvetica,sans-Serif" font-size="10.00">_Window::Render_Control</text>
<text text-anchor="middle" x="418.5" y="-68" font-family="Helvetica,sans-Serif" font-size="10.00">_Buttons</text>
</a>
</g>
</g>
<!-- Node22&#45;&gt;Node23 -->
<g id="edge26" class="edge">
<title>Node22&#45;&gt;Node23</title>
<path fill="none" stroke="midnightblue" d="M544.76,-94.59C526.33,-92.67 507.06,-90.65 489.3,-88.8"/>
<polygon fill="midnightblue" stroke="midnightblue" points="544.59,-98.09 554.9,-95.65 545.31,-91.13 544.59,-98.09"/>
</g>
<!-- Node24 -->
<g id="node24" class="node">
<title>Node24</title>
<g id="a_node24"><a xlink:href="classzero__mate_1_1gui_1_1CControl__Window.html#aabafaf7d45b7c4516719dce03772ee5a" target="_top" xlink:title=" ">
<polygon fill="none" stroke="black" points="166,-39.5 166,-69.5 303,-69.5 303,-39.5 166,-39.5"/>
<text text-anchor="start" x="174" y="-57.5" font-family="Helvetica,sans-Serif" font-size="10.00">zero_mate::gui::CControl</text>
<text text-anchor="middle" x="234.5" y="-46.5" font-family="Helvetica,sans-Serif" font-size="10.00">_Window::Render</text>
</a>
</g>
</g>
<!-- Node23&#45;&gt;Node24 -->
<g id="edge27" class="edge">
<title>Node23&#45;&gt;Node24</title>
<path fill="none" stroke="midnightblue" d="M337.85,-69.68C326.31,-67.97 314.52,-66.22 303.24,-64.55"/>
<polygon fill="midnightblue" stroke="midnightblue" points="337.51,-73.17 347.91,-71.18 338.54,-66.25 337.51,-73.17"/>
</g>
<!-- Node26&#45;&gt;Node18 -->
<g id="edge30" class="edge">
<title>Node26&#45;&gt;Node18</title>
<path fill="none" stroke="midnightblue" d="M546.51,-417.66C542.19,-415.79 537.99,-413.75 534,-411.5 489.36,-386.39 449.44,-339.61 430.73,-315.58"/>
<polygon fill="midnightblue" stroke="midnightblue" points="545.54,-421.04 556.12,-421.47 548.12,-414.53 545.54,-421.04"/>
</g>
<!-- Node27 -->
<g id="node27" class="node">
<title>Node27</title>
<g id="a_node27"><a xlink:href="classzero__mate_1_1arm1176jzf__s_1_1CCPU__Core.html#abe7461d09a52f28f99037717f61975c6" target="_top" xlink:title="Executes an MSR instruction (move data to CPSR/SPSR from an ARM register).">
<polygon fill="none" stroke="black" points="339,-421.5 339,-451.5 498,-451.5 498,-421.5 339,-421.5"/>
<text text-anchor="start" x="347" y="-439.5" font-family="Helvetica,sans-Serif" font-size="10.00">zero_mate::arm1176jzf</text>
<text text-anchor="middle" x="418.5" y="-428.5" font-family="Helvetica,sans-Serif" font-size="10.00">_s::CCPU_Core::Execute_MSR</text>
</a>
</g>
</g>
<!-- Node26&#45;&gt;Node27 -->
<g id="edge31" class="edge">
<title>Node26&#45;&gt;Node27</title>
<path fill="none" stroke="midnightblue" d="M542.67,-436.5C527.89,-436.5 512.63,-436.5 498.09,-436.5"/>
<polygon fill="midnightblue" stroke="midnightblue" points="542.81,-440 552.81,-436.5 542.81,-433 542.81,-440"/>
</g>
<!-- Node28 -->
<g id="node28" class="node">
<title>Node28</title>
<g id="a_node28"><a xlink:href="classzero__mate_1_1arm1176jzf__s_1_1CCPU__Core.html#a3a90c040b3cbe4545a9acc5e35acdd45" target="_top" xlink:title="Executes a PSR transfer instruction.">
<polygon fill="none" stroke="black" points="168.5,-421.5 168.5,-451.5 300.5,-451.5 300.5,-421.5 168.5,-421.5"/>
<text text-anchor="start" x="176.5" y="-439.5" font-family="Helvetica,sans-Serif" font-size="10.00">zero_mate::arm1176jzf</text>
<text text-anchor="middle" x="234.5" y="-428.5" font-family="Helvetica,sans-Serif" font-size="10.00">_s::CCPU_Core::Execute</text>
</a>
</g>
</g>
<!-- Node27&#45;&gt;Node28 -->
<g id="edge32" class="edge">
<title>Node27&#45;&gt;Node28</title>
<path fill="none" stroke="midnightblue" d="M328.75,-436.5C319.27,-436.5 309.77,-436.5 300.64,-436.5"/>
<polygon fill="midnightblue" stroke="midnightblue" points="329,-440 339,-436.5 329,-433 329,-440"/>
</g>
<!-- Node29&#45;&gt;Node25 -->
<g id="edge34" class="edge">
<title>Node29&#45;&gt;Node25</title>
<path fill="none" stroke="midnightblue" d="M753.56,-48.5C732.49,-48.5 710.27,-48.5 690.67,-48.5"/>
<polygon fill="midnightblue" stroke="midnightblue" points="753.79,-52 763.79,-48.5 753.79,-45 753.79,-52"/>
</g>
<!-- Node30 -->
<g id="node30" class="node">
<title>Node30</title>
<g id="a_node30"><a xlink:href="classzero__mate_1_1gui_1_1CControl__Window.html#ad83b2651e1d6bf8ed72e3553526f17ca" target="_top" xlink:title=" ">
<polygon fill="none" stroke="black" points="350,-0.5 350,-30.5 487,-30.5 487,-0.5 350,-0.5"/>
<text text-anchor="start" x="358" y="-18.5" font-family="Helvetica,sans-Serif" font-size="10.00">zero_mate::gui::CControl</text>
<text text-anchor="middle" x="418.5" y="-7.5" font-family="Helvetica,sans-Serif" font-size="10.00">_Window::Run</text>
</a>
</g>
</g>
<!-- Node29&#45;&gt;Node30 -->
<g id="edge35" class="edge">
<title>Node29&#45;&gt;Node30</title>
<path fill="none" stroke="midnightblue" d="M770.83,-31.19C756.8,-28.09 741.98,-25.28 728,-23.5 645.62,-13.01 549.9,-12.29 487.2,-13.35"/>
<polygon fill="midnightblue" stroke="midnightblue" points="770.36,-34.67 780.89,-33.49 771.92,-27.85 770.36,-34.67"/>
</g>
<!-- Node30&#45;&gt;Node24 -->
<g id="edge36" class="edge">
<title>Node30&#45;&gt;Node24</title>
<path fill="none" stroke="midnightblue" d="M339.85,-32.14C327.66,-34.75 315.15,-37.43 303.21,-39.99"/>
<polygon fill="midnightblue" stroke="midnightblue" points="340.94,-35.48 349.99,-29.97 339.48,-28.64 340.94,-35.48"/>
</g>
<!-- Node31&#45;&gt;Node4 -->
<g id="edge50" class="edge">
<title>Node31&#45;&gt;Node4</title>
<path fill="none" stroke="midnightblue" d="M797.67,-1047.99C777.38,-1038.3 751.8,-1027.08 728,-1019.5 644.2,-992.81 613.86,-1017.34 534,-980.5 493.36,-961.75 454.18,-925.9 433.87,-905.57"/>
<polygon fill="midnightblue" stroke="midnightblue" points="796.36,-1051.25 806.89,-1052.46 799.42,-1044.95 796.36,-1051.25"/>
</g>
<!-- Node31&#45;&gt;Node14 -->
<g id="edge48" class="edge">
<title>Node31&#45;&gt;Node14</title>
<path fill="none" stroke="midnightblue" d="M811.76,-1045.69C790.78,-1027.69 759.01,-1002.42 728,-985.5 718.19,-980.15 707.39,-975.31 696.69,-971.06"/>
<polygon fill="midnightblue" stroke="midnightblue" points="809.68,-1048.52 819.52,-1052.45 814.27,-1043.24 809.68,-1048.52"/>
</g>
<!-- Node32 -->
<g id="node32" class="node">
<title>Node32</title>
<g id="a_node32"><a xlink:href="classzero__mate_1_1arm1176jzf__s_1_1CCPU__Core.html#a85e6ef006a36e1adb56abd3ecc6481be" target="_top" xlink:title="Executes a CPU exception.">
<polygon fill="none" stroke="black" points="565,-1236 565,-1277 697,-1277 697,-1236 565,-1236"/>
<text text-anchor="start" x="573" y="-1265" font-family="Helvetica,sans-Serif" font-size="10.00">zero_mate::arm1176jzf</text>
<text text-anchor="start" x="573" y="-1254" font-family="Helvetica,sans-Serif" font-size="10.00">_s::CCPU_Core::Execute</text>
<text text-anchor="middle" x="631" y="-1243" font-family="Helvetica,sans-Serif" font-size="10.00">_Exception</text>
</a>
</g>
</g>
<!-- Node31&#45;&gt;Node32 -->
<g id="edge38" class="edge">
<title>Node31&#45;&gt;Node32</title>
<path fill="none" stroke="midnightblue" d="M825.66,-1092.16C809.77,-1127.13 776.04,-1190.84 728,-1226.5 718.82,-1233.32 708.05,-1238.61 697.11,-1242.71"/>
<polygon fill="midnightblue" stroke="midnightblue" points="829,-1093.26 829.85,-1082.7 822.6,-1090.43 829,-1093.26"/>
</g>
<!-- Node38 -->
<g id="node38" class="node">
<title>Node38</title>
<g id="a_node38"><a xlink:href="classzero__mate_1_1arm1176jzf__s_1_1CCPU__Core.html#a00f4cf1169d774a50886f60f5f166f8b" target="_top" xlink:title="Performs a halfword data write to a given address.">
<polygon fill="none" stroke="black" points="546,-1176 546,-1217 716,-1217 716,-1176 546,-1176"/>
<text text-anchor="start" x="554" y="-1205" font-family="Helvetica,sans-Serif" font-size="10.00">zero_mate::arm1176jzf</text>
<text text-anchor="start" x="554" y="-1194" font-family="Helvetica,sans-Serif" font-size="10.00">_s::CCPU_Core::Perform</text>
<text text-anchor="middle" x="631" y="-1183" font-family="Helvetica,sans-Serif" font-size="10.00">_Halfword_Data_Transfer_Write</text>
</a>
</g>
</g>
<!-- Node31&#45;&gt;Node38 -->
<g id="edge44" class="edge">
<title>Node31&#45;&gt;Node38</title>
<path fill="none" stroke="midnightblue" d="M816.49,-1090.5C796.4,-1112.84 763.14,-1146.27 728,-1166.5 721.95,-1169.99 715.44,-1173.11 708.77,-1175.91"/>
<polygon fill="midnightblue" stroke="midnightblue" points="819.28,-1092.63 823.27,-1082.82 814.03,-1087.99 819.28,-1092.63"/>
</g>
<!-- Node40 -->
<g id="node40" class="node">
<title>Node40</title>
<g id="a_node40"><a xlink:href="classzero__mate_1_1peripheral_1_1CARM__Timer.html#a9c9fd268222fa96e4a81d65f7340235c" target="_top" xlink:title=" ">
<polygon fill="none" stroke="black" points="569,-1126.5 569,-1156.5 693,-1156.5 693,-1126.5 569,-1126.5"/>
<text text-anchor="start" x="577" y="-1144.5" font-family="Helvetica,sans-Serif" font-size="10.00">zero_mate::peripheral</text>
<text text-anchor="middle" x="631" y="-1133.5" font-family="Helvetica,sans-Serif" font-size="10.00">::CARM_Timer::Read</text>
</a>
</g>
</g>
<!-- Node31&#45;&gt;Node40 -->
<g id="edge46" class="edge">
<title>Node31&#45;&gt;Node40</title>
<path fill="none" stroke="midnightblue" d="M798.31,-1087.08C777.89,-1097.14 751.99,-1109.03 728,-1117.5 716.9,-1121.42 704.87,-1124.96 693.2,-1128.04"/>
<polygon fill="midnightblue" stroke="midnightblue" points="799.9,-1090.2 807.28,-1082.61 796.77,-1083.94 799.9,-1090.2"/>
</g>
<!-- Node41 -->
<g id="node41" class="node">
<title>Node41</title>
<g id="a_node41"><a xlink:href="classzero__mate_1_1peripheral_1_1CGPIO__Manager.html#ac3edf689b30c39f2406fa6308fdeb2e9" target="_top" xlink:title=" ">
<polygon fill="none" stroke="black" points="565,-1077.5 565,-1107.5 697,-1107.5 697,-1077.5 565,-1077.5"/>
<text text-anchor="start" x="573" y="-1095.5" font-family="Helvetica,sans-Serif" font-size="10.00">zero_mate::peripheral</text>
<text text-anchor="middle" x="631" y="-1084.5" font-family="Helvetica,sans-Serif" font-size="10.00">::CGPIO_Manager::Read</text>
</a>
</g>
</g>
<!-- Node31&#45;&gt;Node41 -->
<g id="edge47" class="edge">
<title>Node31&#45;&gt;Node41</title>
<path fill="none" stroke="midnightblue" d="M753.77,-1077.58C734.98,-1079.88 715.27,-1082.3 697.31,-1084.5"/>
<polygon fill="midnightblue" stroke="midnightblue" points="754.29,-1081.04 763.79,-1076.35 753.44,-1074.09 754.29,-1081.04"/>
</g>
<!-- Node42 -->
<g id="node42" class="node">
<title>Node42</title>
<g id="a_node42"><a xlink:href="classzero__mate_1_1peripheral_1_1CARM__Timer.html#adb5da1b77debf34bb53e590c1774af34" target="_top" xlink:title=" ">
<polygon fill="none" stroke="black" points="569,-1028.5 569,-1058.5 693,-1058.5 693,-1028.5 569,-1028.5"/>
<text text-anchor="start" x="577" y="-1046.5" font-family="Helvetica,sans-Serif" font-size="10.00">zero_mate::peripheral</text>
<text text-anchor="middle" x="631" y="-1035.5" font-family="Helvetica,sans-Serif" font-size="10.00">::CARM_Timer::Write</text>
</a>
</g>
</g>
<!-- Node31&#45;&gt;Node42 -->
<g id="edge49" class="edge">
<title>Node31&#45;&gt;Node42</title>
<path fill="none" stroke="midnightblue" d="M753.68,-1057.82C733.51,-1055.44 712.28,-1052.95 693.3,-1050.71"/>
<polygon fill="midnightblue" stroke="midnightblue" points="753.45,-1061.31 763.79,-1059 754.27,-1054.36 753.45,-1061.31"/>
</g>
<!-- Node33 -->
<g id="node33" class="node">
<title>Node33</title>
<g id="a_node33"><a xlink:href="classzero__mate_1_1arm1176jzf__s_1_1CCPU__Core.html#ac81ae05305c6916b7eda83abff602dcf" target="_top" xlink:title="Executes a single instruction.">
<polygon fill="none" stroke="black" points="352.5,-1293.5 352.5,-1323.5 484.5,-1323.5 484.5,-1293.5 352.5,-1293.5"/>
<text text-anchor="start" x="360.5" y="-1311.5" font-family="Helvetica,sans-Serif" font-size="10.00">zero_mate::arm1176jzf</text>
<text text-anchor="middle" x="418.5" y="-1300.5" font-family="Helvetica,sans-Serif" font-size="10.00">_s::CCPU_Core::Execute</text>
</a>
</g>
</g>
<!-- Node32&#45;&gt;Node33 -->
<g id="edge39" class="edge">
<title>Node32&#45;&gt;Node33</title>
<path fill="none" stroke="midnightblue" d="M554.89,-1275.05C530.46,-1281.09 503.67,-1287.71 480.41,-1293.45"/>
<polygon fill="midnightblue" stroke="midnightblue" points="555.97,-1278.39 564.84,-1272.6 554.29,-1271.6 555.97,-1278.39"/>
</g>
<!-- Node34 -->
<g id="node34" class="node">
<title>Node34</title>
<g id="a_node34"><a xlink:href="classzero__mate_1_1arm1176jzf__s_1_1CCPU__Core.html#aa327755c4c57c01f03e16fb3d1195f6a" target="_top" xlink:title="Fetches the next instruction.">
<polygon fill="none" stroke="black" points="353.5,-1233 353.5,-1274 483.5,-1274 483.5,-1233 353.5,-1233"/>
<text text-anchor="start" x="361.5" y="-1262" font-family="Helvetica,sans-Serif" font-size="10.00">zero_mate::arm1176jzf</text>
<text text-anchor="start" x="361.5" y="-1251" font-family="Helvetica,sans-Serif" font-size="10.00">_s::CCPU_Core::Fetch</text>
<text text-anchor="middle" x="418.5" y="-1240" font-family="Helvetica,sans-Serif" font-size="10.00">_Instruction</text>
</a>
</g>
</g>
<!-- Node32&#45;&gt;Node34 -->
<g id="edge40" class="edge">
<title>Node32&#45;&gt;Node34</title>
<path fill="none" stroke="midnightblue" d="M554.67,-1255.43C531.42,-1255.1 506.05,-1254.73 483.63,-1254.41"/>
<polygon fill="midnightblue" stroke="midnightblue" points="554.79,-1258.93 564.84,-1255.57 554.89,-1251.93 554.79,-1258.93"/>
</g>
<!-- Node35 -->
<g id="node35" class="node">
<title>Node35</title>
<g id="a_node35"><a xlink:href="classzero__mate_1_1arm1176jzf__s_1_1CCPU__Core.html#a1665360d8ae71ed541b4c10f39e655a5" target="_top" xlink:title=" ">
<polygon fill="none" stroke="black" points="169.5,-1238.5 169.5,-1268.5 299.5,-1268.5 299.5,-1238.5 169.5,-1238.5"/>
<text text-anchor="start" x="177.5" y="-1256.5" font-family="Helvetica,sans-Serif" font-size="10.00">zero_mate::arm1176jzf</text>
<text text-anchor="middle" x="234.5" y="-1245.5" font-family="Helvetica,sans-Serif" font-size="10.00">_s::CCPU_Core::Step</text>
</a>
</g>
</g>
<!-- Node34&#45;&gt;Node35 -->
<g id="edge41" class="edge">
<title>Node34&#45;&gt;Node35</title>
<path fill="none" stroke="midnightblue" d="M343,-1253.5C328.63,-1253.5 313.7,-1253.5 299.7,-1253.5"/>
<polygon fill="midnightblue" stroke="midnightblue" points="343.33,-1257 353.33,-1253.5 343.33,-1250 343.33,-1257"/>
</g>
<!-- Node36 -->
<g id="node36" class="node">
<title>Node36</title>
<g id="a_node36"><a xlink:href="classzero__mate_1_1arm1176jzf__s_1_1CCPU__Core.html#ad07b9956fd3f7b6c64b93c69243092f4" target="_top" xlink:title="Starts the execution.">
<polygon fill="none" stroke="black" points="0,-1262.5 0,-1292.5 130,-1292.5 130,-1262.5 0,-1262.5"/>
<text text-anchor="start" x="8" y="-1280.5" font-family="Helvetica,sans-Serif" font-size="10.00">zero_mate::arm1176jzf</text>
<text text-anchor="middle" x="65" y="-1269.5" font-family="Helvetica,sans-Serif" font-size="10.00">_s::CCPU_Core::Run</text>
</a>
</g>
</g>
<!-- Node35&#45;&gt;Node36 -->
<g id="edge42" class="edge">
<title>Node35&#45;&gt;Node36</title>
<path fill="none" stroke="midnightblue" d="M159.19,-1264.15C149.49,-1265.54 139.62,-1266.95 130.11,-1268.31"/>
<polygon fill="midnightblue" stroke="midnightblue" points="159.82,-1267.59 169.22,-1262.71 158.82,-1260.66 159.82,-1267.59"/>
</g>
<!-- Node37 -->
<g id="node37" class="node">
<title>Node37</title>
<g id="a_node37"><a xlink:href="classzero__mate_1_1arm1176jzf__s_1_1CCPU__Core.html#a16544e9981489e1f4a25405248e5a5c0" target="_top" xlink:title=" ">
<polygon fill="none" stroke="black" points="0,-1213.5 0,-1243.5 130,-1243.5 130,-1213.5 0,-1213.5"/>
<text text-anchor="start" x="8" y="-1231.5" font-family="Helvetica,sans-Serif" font-size="10.00">zero_mate::arm1176jzf</text>
<text text-anchor="middle" x="65" y="-1220.5" font-family="Helvetica,sans-Serif" font-size="10.00">_s::CCPU_Core::Steps</text>
</a>
</g>
</g>
<!-- Node35&#45;&gt;Node37 -->
<g id="edge43" class="edge">
<title>Node35&#45;&gt;Node37</title>
<path fill="none" stroke="midnightblue" d="M159.19,-1242.41C149.49,-1240.96 139.62,-1239.49 130.11,-1238.07"/>
<polygon fill="midnightblue" stroke="midnightblue" points="158.81,-1245.89 169.22,-1243.91 159.85,-1238.97 158.81,-1245.89"/>
</g>
<!-- Node39 -->
<g id="node39" class="node">
<title>Node39</title>
<g id="a_node39"><a xlink:href="classzero__mate_1_1arm1176jzf__s_1_1CCPU__Core.html#ae5fc1112d78d8c344841fd94d1356635" target="_top" xlink:title="Executes a halfword data transfer instruction.">
<polygon fill="none" stroke="black" points="352.5,-1181.5 352.5,-1211.5 484.5,-1211.5 484.5,-1181.5 352.5,-1181.5"/>
<text text-anchor="start" x="360.5" y="-1199.5" font-family="Helvetica,sans-Serif" font-size="10.00">zero_mate::arm1176jzf</text>
<text text-anchor="middle" x="418.5" y="-1188.5" font-family="Helvetica,sans-Serif" font-size="10.00">_s::CCPU_Core::Execute</text>
</a>
</g>
</g>
<!-- Node38&#45;&gt;Node39 -->
<g id="edge45" class="edge">
<title>Node38&#45;&gt;Node39</title>
<path fill="none" stroke="midnightblue" d="M535.79,-1196.5C518.52,-1196.5 500.85,-1196.5 484.67,-1196.5"/>
<polygon fill="midnightblue" stroke="midnightblue" points="535.9,-1200 545.9,-1196.5 535.9,-1193 535.9,-1200"/>
</g>
</g>
</svg>
