<?xml version="1.0" encoding="UTF-8" standalone="no"?>
<!DOCTYPE svg PUBLIC "-//W3C//DTD SVG 1.1//EN"
 "http://www.w3.org/Graphics/SVG/1.1/DTD/svg11.dtd">
<!-- Generated by graphviz version 2.43.0 (0)
 -->
<!-- Title: zero_mate::arm1176jzf_s::isa::CInstruction::Get_Value Pages: 1 -->
<svg width="345pt" height="1012pt"
 viewBox="0.00 0.00 345.00 1012.00" xmlns="http://www.w3.org/2000/svg" xmlns:xlink="http://www.w3.org/1999/xlink">
<g id="graph0" class="graph" transform="scale(1 1) rotate(0) translate(4 1008)">
<title>zero_mate::arm1176jzf_s::isa::CInstruction::Get_Value</title>
<!-- Node1 -->
<g id="node1" class="node">
<title>Node1</title>
<g id="a_node1"><a xlink:title=" ">
<polygon fill="#bfbfbf" stroke="black" points="207,-460 207,-501 337,-501 337,-460 207,-460"/>
<text text-anchor="start" x="215" y="-489" font-family="Helvetica,sans-Serif" font-size="10.00">zero_mate::arm1176jzf</text>
<text text-anchor="start" x="215" y="-478" font-family="Helvetica,sans-Serif" font-size="10.00">_s::isa::CInstruction</text>
<text text-anchor="middle" x="272" y="-467" font-family="Helvetica,sans-Serif" font-size="10.00">::Get_Value</text>
</a>
</g>
</g>
<!-- Node2 -->
<g id="node2" class="node">
<title>Node2</title>
<g id="a_node2"><a xlink:href="classzero__mate_1_1arm1176jzf__s_1_1isa_1_1CBlock__Data__Transfer.html#ac6cb358f08a87becb57bb6a081abce4a" target="_top" xlink:title=" ">
<polygon fill="none" stroke="black" points="20.5,-951.5 20.5,-1003.5 150.5,-1003.5 150.5,-951.5 20.5,-951.5"/>
<text text-anchor="start" x="28.5" y="-991.5" font-family="Helvetica,sans-Serif" font-size="10.00">zero_mate::arm1176jzf</text>
<text text-anchor="start" x="28.5" y="-980.5" font-family="Helvetica,sans-Serif" font-size="10.00">_s::isa::CBlock_Data</text>
<text text-anchor="start" x="28.5" y="-969.5" font-family="Helvetica,sans-Serif" font-size="10.00">_Transfer::CBlock_Data</text>
<text text-anchor="middle" x="85.5" y="-958.5" font-family="Helvetica,sans-Serif" font-size="10.00">_Transfer</text>
</a>
</g>
</g>
<!-- Node1&#45;&gt;Node2 -->
<g id="edge1" class="edge">
<title>Node1&#45;&gt;Node2</title>
<path fill="none" stroke="midnightblue" d="M268.04,-511.33C258.63,-603.69 226.65,-875.84 171,-942.5 165.4,-949.2 158.31,-954.64 150.62,-959.05"/>
<polygon fill="midnightblue" stroke="midnightblue" points="271.54,-511.53 269.06,-501.23 264.58,-510.83 271.54,-511.53"/>
</g>
<!-- Node3 -->
<g id="node3" class="node">
<title>Node3</title>
<g id="a_node3"><a xlink:href="classzero__mate_1_1arm1176jzf__s_1_1isa_1_1CBranch.html#a30056c7b5f585274dbcd776898dc8ad4" target="_top" xlink:title=" ">
<polygon fill="none" stroke="black" points="15.5,-902.5 15.5,-932.5 155.5,-932.5 155.5,-902.5 15.5,-902.5"/>
<text text-anchor="start" x="23.5" y="-920.5" font-family="Helvetica,sans-Serif" font-size="10.00">zero_mate::arm1176jzf</text>
<text text-anchor="middle" x="85.5" y="-909.5" font-family="Helvetica,sans-Serif" font-size="10.00">_s::isa::CBranch::CBranch</text>
</a>
</g>
</g>
<!-- Node1&#45;&gt;Node3 -->
<g id="edge2" class="edge">
<title>Node1&#45;&gt;Node3</title>
<path fill="none" stroke="midnightblue" d="M267.57,-511.16C257.37,-597.14 224.51,-837.85 171,-893.5 166.56,-898.12 161.3,-901.87 155.62,-904.9"/>
<polygon fill="midnightblue" stroke="midnightblue" points="271.08,-511.35 268.76,-501.01 264.12,-510.53 271.08,-511.35"/>
</g>
<!-- Node4 -->
<g id="node4" class="node">
<title>Node4</title>
<g id="a_node4"><a xlink:href="classzero__mate_1_1arm1176jzf__s_1_1isa_1_1CBranch__And__Exchange.html#aad700400022da84663d96606fffc90c3" target="_top" xlink:title=" ">
<polygon fill="none" stroke="black" points="15.5,-831.5 15.5,-883.5 155.5,-883.5 155.5,-831.5 15.5,-831.5"/>
<text text-anchor="start" x="23.5" y="-871.5" font-family="Helvetica,sans-Serif" font-size="10.00">zero_mate::arm1176jzf</text>
<text text-anchor="start" x="23.5" y="-860.5" font-family="Helvetica,sans-Serif" font-size="10.00">_s::isa::CBranch_And</text>
<text text-anchor="start" x="23.5" y="-849.5" font-family="Helvetica,sans-Serif" font-size="10.00">_Exchange::CBranch_And</text>
<text text-anchor="middle" x="85.5" y="-838.5" font-family="Helvetica,sans-Serif" font-size="10.00">_Exchange</text>
</a>
</g>
</g>
<!-- Node1&#45;&gt;Node4 -->
<g id="edge3" class="edge">
<title>Node1&#45;&gt;Node4</title>
<path fill="none" stroke="midnightblue" d="M270.52,-511.19C267.88,-576.64 252.79,-731.34 171,-822.5 166.55,-827.46 161.28,-831.74 155.59,-835.42"/>
<polygon fill="midnightblue" stroke="midnightblue" points="274.02,-511.23 270.86,-501.12 267.03,-511 274.02,-511.23"/>
</g>
<!-- Node5 -->
<g id="node5" class="node">
<title>Node5</title>
<g id="a_node5"><a xlink:href="classzero__mate_1_1arm1176jzf__s_1_1isa_1_1CCLZ.html#a46df676c42d4f7f3513ee9f7af32c0a5" target="_top" xlink:title=" ">
<polygon fill="none" stroke="black" points="20.5,-782.5 20.5,-812.5 150.5,-812.5 150.5,-782.5 20.5,-782.5"/>
<text text-anchor="start" x="28.5" y="-800.5" font-family="Helvetica,sans-Serif" font-size="10.00">zero_mate::arm1176jzf</text>
<text text-anchor="middle" x="85.5" y="-789.5" font-family="Helvetica,sans-Serif" font-size="10.00">_s::isa::CCLZ::CCLZ</text>
</a>
</g>
</g>
<!-- Node1&#45;&gt;Node5 -->
<g id="edge4" class="edge">
<title>Node1&#45;&gt;Node5</title>
<path fill="none" stroke="midnightblue" d="M269.51,-511.6C264.96,-571.2 246.42,-701.92 171,-773.5 165.14,-779.06 158.08,-783.35 150.58,-786.66"/>
<polygon fill="midnightblue" stroke="midnightblue" points="273.03,-511.54 270.21,-501.33 266.04,-511.07 273.03,-511.54"/>
</g>
<!-- Node6 -->
<g id="node6" class="node">
<title>Node6</title>
<g id="a_node6"><a xlink:href="classzero__mate_1_1arm1176jzf__s_1_1isa_1_1CCoprocessor__Data__Operation.html#a8363ed08cf7dd20e91251d33c4eaa450" target="_top" xlink:title=" ">
<polygon fill="none" stroke="black" points="0,-711.5 0,-763.5 171,-763.5 171,-711.5 0,-711.5"/>
<text text-anchor="start" x="8" y="-751.5" font-family="Helvetica,sans-Serif" font-size="10.00">zero_mate::arm1176jzf</text>
<text text-anchor="start" x="8" y="-740.5" font-family="Helvetica,sans-Serif" font-size="10.00">_s::isa::CCoprocessor</text>
<text text-anchor="start" x="8" y="-729.5" font-family="Helvetica,sans-Serif" font-size="10.00">_Data_Operation::CCoprocessor</text>
<text text-anchor="middle" x="85.5" y="-718.5" font-family="Helvetica,sans-Serif" font-size="10.00">_Data_Operation</text>
</a>
</g>
</g>
<!-- Node1&#45;&gt;Node6 -->
<g id="edge5" class="edge">
<title>Node1&#45;&gt;Node6</title>
<path fill="none" stroke="midnightblue" d="M264.82,-511.11C253.81,-558.2 226.57,-648.6 171,-702.5 167.69,-705.71 164.05,-708.63 160.2,-711.31"/>
<polygon fill="midnightblue" stroke="midnightblue" points="268.26,-511.72 267.04,-501.2 261.43,-510.19 268.26,-511.72"/>
</g>
<!-- Node7 -->
<g id="node7" class="node">
<title>Node7</title>
<g id="a_node7"><a xlink:href="classzero__mate_1_1arm1176jzf__s_1_1isa_1_1CCoprocessor__Data__Transfer.html#a0a783b6407be94b39ef6be5b0e148dae" target="_top" xlink:title=" ">
<polygon fill="none" stroke="black" points="4.5,-640.5 4.5,-692.5 166.5,-692.5 166.5,-640.5 4.5,-640.5"/>
<text text-anchor="start" x="12.5" y="-680.5" font-family="Helvetica,sans-Serif" font-size="10.00">zero_mate::arm1176jzf</text>
<text text-anchor="start" x="12.5" y="-669.5" font-family="Helvetica,sans-Serif" font-size="10.00">_s::isa::CCoprocessor</text>
<text text-anchor="start" x="12.5" y="-658.5" font-family="Helvetica,sans-Serif" font-size="10.00">_Data_Transfer::CCoprocessor</text>
<text text-anchor="middle" x="85.5" y="-647.5" font-family="Helvetica,sans-Serif" font-size="10.00">_Data_Transfer</text>
</a>
</g>
</g>
<!-- Node1&#45;&gt;Node7 -->
<g id="edge6" class="edge">
<title>Node1&#45;&gt;Node7</title>
<path fill="none" stroke="midnightblue" d="M257.84,-510.44C241.74,-544.01 211.53,-598.1 171,-631.5 167.08,-634.73 162.82,-637.7 158.36,-640.43"/>
<polygon fill="midnightblue" stroke="midnightblue" points="261.13,-511.68 262.2,-501.14 254.79,-508.72 261.13,-511.68"/>
</g>
<!-- Node8 -->
<g id="node8" class="node">
<title>Node8</title>
<g id="a_node8"><a xlink:href="classzero__mate_1_1arm1176jzf__s_1_1isa_1_1CCoprocessor__Reg__Transfer.html#aa942a180ba6032a44e3e654948b46782" target="_top" xlink:title=" ">
<polygon fill="none" stroke="black" points="6.5,-569.5 6.5,-621.5 164.5,-621.5 164.5,-569.5 6.5,-569.5"/>
<text text-anchor="start" x="14.5" y="-609.5" font-family="Helvetica,sans-Serif" font-size="10.00">zero_mate::arm1176jzf</text>
<text text-anchor="start" x="14.5" y="-598.5" font-family="Helvetica,sans-Serif" font-size="10.00">_s::isa::CCoprocessor</text>
<text text-anchor="start" x="14.5" y="-587.5" font-family="Helvetica,sans-Serif" font-size="10.00">_Reg_Transfer::CCoprocessor</text>
<text text-anchor="middle" x="85.5" y="-576.5" font-family="Helvetica,sans-Serif" font-size="10.00">_Reg_Transfer</text>
</a>
</g>
</g>
<!-- Node1&#45;&gt;Node8 -->
<g id="edge7" class="edge">
<title>Node1&#45;&gt;Node8</title>
<path fill="none" stroke="midnightblue" d="M241.18,-508.07C222.11,-524.73 196.29,-545.56 171,-560.5 165.67,-563.65 160,-566.65 154.22,-569.48"/>
<polygon fill="midnightblue" stroke="midnightblue" points="243.75,-510.47 248.92,-501.22 239.11,-505.23 243.75,-510.47"/>
</g>
<!-- Node9 -->
<g id="node9" class="node">
<title>Node9</title>
<g id="a_node9"><a xlink:href="classzero__mate_1_1arm1176jzf__s_1_1isa_1_1CCPS.html#a75cce5bda8c70e413d7f1f88e9323249" target="_top" xlink:title=" ">
<polygon fill="none" stroke="black" points="20.5,-520.5 20.5,-550.5 150.5,-550.5 150.5,-520.5 20.5,-520.5"/>
<text text-anchor="start" x="28.5" y="-538.5" font-family="Helvetica,sans-Serif" font-size="10.00">zero_mate::arm1176jzf</text>
<text text-anchor="middle" x="85.5" y="-527.5" font-family="Helvetica,sans-Serif" font-size="10.00">_s::isa::CCPS::CCPS</text>
</a>
</g>
</g>
<!-- Node1&#45;&gt;Node9 -->
<g id="edge8" class="edge">
<title>Node1&#45;&gt;Node9</title>
<path fill="none" stroke="midnightblue" d="M197.39,-502.62C188.5,-505.28 179.55,-507.95 171,-510.5 160.15,-513.73 148.51,-517.19 137.45,-520.46"/>
<polygon fill="midnightblue" stroke="midnightblue" points="198.42,-505.96 206.99,-499.74 196.41,-499.26 198.42,-505.96"/>
</g>
<!-- Node10 -->
<g id="node10" class="node">
<title>Node10</title>
<g id="a_node10"><a xlink:href="classzero__mate_1_1arm1176jzf__s_1_1isa_1_1CData__Processing.html#a8f3ff59c8a7ab7d1481be7da9cdd87a5" target="_top" xlink:title=" ">
<polygon fill="none" stroke="black" points="15,-460 15,-501 156,-501 156,-460 15,-460"/>
<text text-anchor="start" x="23" y="-489" font-family="Helvetica,sans-Serif" font-size="10.00">zero_mate::arm1176jzf</text>
<text text-anchor="start" x="23" y="-478" font-family="Helvetica,sans-Serif" font-size="10.00">_s::isa::CData_Processing</text>
<text text-anchor="middle" x="85.5" y="-467" font-family="Helvetica,sans-Serif" font-size="10.00">::CData_Processing</text>
</a>
</g>
</g>
<!-- Node1&#45;&gt;Node10 -->
<g id="edge9" class="edge">
<title>Node1&#45;&gt;Node10</title>
<path fill="none" stroke="midnightblue" d="M196.82,-480.5C183.37,-480.5 169.38,-480.5 156.06,-480.5"/>
<polygon fill="midnightblue" stroke="midnightblue" points="196.99,-484 206.99,-480.5 196.99,-477 196.99,-484"/>
</g>
<!-- Node11 -->
<g id="node11" class="node">
<title>Node11</title>
<g id="a_node11"><a xlink:href="classzero__mate_1_1arm1176jzf__s_1_1isa_1_1CExtend.html#a012f2053c4d67990dac614de38ad3e25" target="_top" xlink:title=" ">
<polygon fill="none" stroke="black" points="15.5,-410.5 15.5,-440.5 155.5,-440.5 155.5,-410.5 15.5,-410.5"/>
<text text-anchor="start" x="23.5" y="-428.5" font-family="Helvetica,sans-Serif" font-size="10.00">zero_mate::arm1176jzf</text>
<text text-anchor="middle" x="85.5" y="-417.5" font-family="Helvetica,sans-Serif" font-size="10.00">_s::isa::CExtend::CExtend</text>
</a>
</g>
</g>
<!-- Node1&#45;&gt;Node11 -->
<g id="edge10" class="edge">
<title>Node1&#45;&gt;Node11</title>
<path fill="none" stroke="midnightblue" d="M197.39,-458.38C188.5,-455.72 179.55,-453.05 171,-450.5 160.15,-447.27 148.51,-443.81 137.45,-440.54"/>
<polygon fill="midnightblue" stroke="midnightblue" points="196.41,-461.74 206.99,-461.26 198.42,-455.04 196.41,-461.74"/>
</g>
<!-- Node12 -->
<g id="node12" class="node">
<title>Node12</title>
<g id="a_node12"><a xlink:href="classzero__mate_1_1arm1176jzf__s_1_1isa_1_1CHalfword__Data__Transfer.html#aa1b7aabeade3143b665e1cb02baac9af" target="_top" xlink:title=" ">
<polygon fill="none" stroke="black" points="12.5,-339.5 12.5,-391.5 158.5,-391.5 158.5,-339.5 12.5,-339.5"/>
<text text-anchor="start" x="20.5" y="-379.5" font-family="Helvetica,sans-Serif" font-size="10.00">zero_mate::arm1176jzf</text>
<text text-anchor="start" x="20.5" y="-368.5" font-family="Helvetica,sans-Serif" font-size="10.00">_s::isa::CHalfword_Data</text>
<text text-anchor="start" x="20.5" y="-357.5" font-family="Helvetica,sans-Serif" font-size="10.00">_Transfer::CHalfword_Data</text>
<text text-anchor="middle" x="85.5" y="-346.5" font-family="Helvetica,sans-Serif" font-size="10.00">_Transfer</text>
</a>
</g>
</g>
<!-- Node1&#45;&gt;Node12 -->
<g id="edge11" class="edge">
<title>Node1&#45;&gt;Node12</title>
<path fill="none" stroke="midnightblue" d="M240.69,-453.06C221.62,-436.71 195.97,-416.32 171,-401.5 165.1,-398 158.8,-394.66 152.4,-391.53"/>
<polygon fill="midnightblue" stroke="midnightblue" points="238.6,-455.88 248.44,-459.8 243.19,-450.6 238.6,-455.88"/>
</g>
<!-- Node13 -->
<g id="node13" class="node">
<title>Node13</title>
<g id="a_node13"><a xlink:href="classzero__mate_1_1arm1176jzf__s_1_1isa_1_1CMultiply.html#abc30850917adde367b55e7f4c54324e2" target="_top" xlink:title=" ">
<polygon fill="none" stroke="black" points="9.5,-290.5 9.5,-320.5 161.5,-320.5 161.5,-290.5 9.5,-290.5"/>
<text text-anchor="start" x="17.5" y="-308.5" font-family="Helvetica,sans-Serif" font-size="10.00">zero_mate::arm1176jzf</text>
<text text-anchor="middle" x="85.5" y="-297.5" font-family="Helvetica,sans-Serif" font-size="10.00">_s::isa::CMultiply::CMultiply</text>
</a>
</g>
</g>
<!-- Node1&#45;&gt;Node13 -->
<g id="edge12" class="edge">
<title>Node1&#45;&gt;Node13</title>
<path fill="none" stroke="midnightblue" d="M258.66,-450.53C243.14,-416.5 213.31,-361.69 171,-330.5 165.7,-326.6 159.8,-323.3 153.65,-320.51"/>
<polygon fill="midnightblue" stroke="midnightblue" points="255.58,-452.23 262.83,-459.95 261.98,-449.39 255.58,-452.23"/>
</g>
<!-- Node14 -->
<g id="node14" class="node">
<title>Node14</title>
<g id="a_node14"><a xlink:href="classzero__mate_1_1arm1176jzf__s_1_1isa_1_1CMultiply__Long.html#a408fee3fada26ed5ef79a58ff18506e5" target="_top" xlink:title=" ">
<polygon fill="none" stroke="black" points="20.5,-230 20.5,-271 150.5,-271 150.5,-230 20.5,-230"/>
<text text-anchor="start" x="28.5" y="-259" font-family="Helvetica,sans-Serif" font-size="10.00">zero_mate::arm1176jzf</text>
<text text-anchor="start" x="28.5" y="-248" font-family="Helvetica,sans-Serif" font-size="10.00">_s::isa::CMultiply_Long</text>
<text text-anchor="middle" x="85.5" y="-237" font-family="Helvetica,sans-Serif" font-size="10.00">::CMultiply_Long</text>
</a>
</g>
</g>
<!-- Node1&#45;&gt;Node14 -->
<g id="edge13" class="edge">
<title>Node1&#45;&gt;Node14</title>
<path fill="none" stroke="midnightblue" d="M263.44,-450.26C251.15,-407.04 222.82,-327.73 171,-281.5 165.05,-276.2 158.12,-271.77 150.83,-268.09"/>
<polygon fill="midnightblue" stroke="midnightblue" points="260.07,-451.21 266.09,-459.92 266.82,-449.35 260.07,-451.21"/>
</g>
<!-- Node15 -->
<g id="node15" class="node">
<title>Node15</title>
<g id="a_node15"><a xlink:href="classzero__mate_1_1arm1176jzf__s_1_1isa_1_1CPSR__Transfer.html#ac8d8328d9bc45e281c062a7ea8e3bdfc" target="_top" xlink:title=" ">
<polygon fill="none" stroke="black" points="20.5,-170 20.5,-211 150.5,-211 150.5,-170 20.5,-170"/>
<text text-anchor="start" x="28.5" y="-199" font-family="Helvetica,sans-Serif" font-size="10.00">zero_mate::arm1176jzf</text>
<text text-anchor="start" x="28.5" y="-188" font-family="Helvetica,sans-Serif" font-size="10.00">_s::isa::CPSR_Transfer</text>
<text text-anchor="middle" x="85.5" y="-177" font-family="Helvetica,sans-Serif" font-size="10.00">::CPSR_Transfer</text>
</a>
</g>
</g>
<!-- Node1&#45;&gt;Node15 -->
<g id="edge14" class="edge">
<title>Node1&#45;&gt;Node15</title>
<path fill="none" stroke="midnightblue" d="M267.54,-449.82C259.87,-396.05 236.6,-284.41 171,-220.5 165.2,-214.85 158.27,-210.26 150.91,-206.53"/>
<polygon fill="midnightblue" stroke="midnightblue" points="264.07,-450.33 268.87,-459.77 271.01,-449.4 264.07,-450.33"/>
</g>
<!-- Node16 -->
<g id="node16" class="node">
<title>Node16</title>
<g id="a_node16"><a xlink:href="classzero__mate_1_1arm1176jzf__s_1_1isa_1_1CRFE.html#a79c52e00518e3bf50f5815499e709e32" target="_top" xlink:title=" ">
<polygon fill="none" stroke="black" points="20.5,-120.5 20.5,-150.5 150.5,-150.5 150.5,-120.5 20.5,-120.5"/>
<text text-anchor="start" x="28.5" y="-138.5" font-family="Helvetica,sans-Serif" font-size="10.00">zero_mate::arm1176jzf</text>
<text text-anchor="middle" x="85.5" y="-127.5" font-family="Helvetica,sans-Serif" font-size="10.00">_s::isa::CRFE::CRFE</text>
</a>
</g>
</g>
<!-- Node1&#45;&gt;Node16 -->
<g id="edge15" class="edge">
<title>Node1&#45;&gt;Node16</title>
<path fill="none" stroke="midnightblue" d="M270.52,-449.8C267.82,-386.53 252.54,-240.81 171,-160.5 165.22,-154.81 158.22,-150.41 150.74,-147"/>
<polygon fill="midnightblue" stroke="midnightblue" points="267.02,-450.06 270.87,-459.93 274.02,-449.81 267.02,-450.06"/>
</g>
<!-- Node17 -->
<g id="node17" class="node">
<title>Node17</title>
<g id="a_node17"><a xlink:href="classzero__mate_1_1arm1176jzf__s_1_1isa_1_1CSingle__Data__Transfer.html#ab14aef2f1825e2150fb6dc57a6c2b36e" target="_top" xlink:title=" ">
<polygon fill="none" stroke="black" points="19.5,-49.5 19.5,-101.5 151.5,-101.5 151.5,-49.5 19.5,-49.5"/>
<text text-anchor="start" x="27.5" y="-89.5" font-family="Helvetica,sans-Serif" font-size="10.00">zero_mate::arm1176jzf</text>
<text text-anchor="start" x="27.5" y="-78.5" font-family="Helvetica,sans-Serif" font-size="10.00">_s::isa::CSingle_Data</text>
<text text-anchor="start" x="27.5" y="-67.5" font-family="Helvetica,sans-Serif" font-size="10.00">_Transfer::CSingle_Data</text>
<text text-anchor="middle" x="85.5" y="-56.5" font-family="Helvetica,sans-Serif" font-size="10.00">_Transfer</text>
</a>
</g>
</g>
<!-- Node1&#45;&gt;Node17 -->
<g id="edge16" class="edge">
<title>Node1&#45;&gt;Node17</title>
<path fill="none" stroke="midnightblue" d="M271.25,-449.43C270.15,-380.2 258.08,-211.52 171,-111.5 165.56,-105.25 158.84,-100.05 151.58,-95.73"/>
<polygon fill="midnightblue" stroke="midnightblue" points="267.75,-449.69 271.34,-459.66 274.75,-449.63 267.75,-449.69"/>
</g>
<!-- Node18 -->
<g id="node18" class="node">
<title>Node18</title>
<g id="a_node18"><a xlink:href="classzero__mate_1_1arm1176jzf__s_1_1isa_1_1CSRS.html#a6b30d0a54171b3b227c068aa4f65b863" target="_top" xlink:title=" ">
<polygon fill="none" stroke="black" points="20.5,-0.5 20.5,-30.5 150.5,-30.5 150.5,-0.5 20.5,-0.5"/>
<text text-anchor="start" x="28.5" y="-18.5" font-family="Helvetica,sans-Serif" font-size="10.00">zero_mate::arm1176jzf</text>
<text text-anchor="middle" x="85.5" y="-7.5" font-family="Helvetica,sans-Serif" font-size="10.00">_s::isa::CSRS::CSRS</text>
</a>
</g>
</g>
<!-- Node1&#45;&gt;Node18 -->
<g id="edge17" class="edge">
<title>Node1&#45;&gt;Node18</title>
<path fill="none" stroke="midnightblue" d="M268.02,-449.68C258.72,-359.83 227.45,-100.69 171,-40.5 165.35,-34.47 158.32,-29.88 150.75,-26.38"/>
<polygon fill="midnightblue" stroke="midnightblue" points="264.55,-450.18 269.04,-459.77 271.51,-449.47 264.55,-450.18"/>
</g>
</g>
</svg>
