<?xml version="1.0" encoding="UTF-8" standalone="no"?>
<!DOCTYPE svg PUBLIC "-//W3C//DTD SVG 1.1//EN"
 "http://www.w3.org/Graphics/SVG/1.1/DTD/svg11.dtd">
<!-- Generated by graphviz version 2.43.0 (0)
 -->
<!-- Title: zero_mate::arm1176jzf_s::CCPU_Core::Execute Pages: 1 -->
<svg width="873pt" height="274pt"
 viewBox="0.00 0.00 873.00 273.50" xmlns="http://www.w3.org/2000/svg" xmlns:xlink="http://www.w3.org/1999/xlink">
<g id="graph0" class="graph" transform="scale(1 1) rotate(0) translate(4 269.5)">
<title>zero_mate::arm1176jzf_s::CCPU_Core::Execute</title>
<!-- Node1 -->
<g id="node1" class="node">
<title>Node1</title>
<g id="a_node1"><a xlink:title="Executes an SRS instruction.">
<polygon fill="#bfbfbf" stroke="black" points="0,-123.5 0,-153.5 132,-153.5 132,-123.5 0,-123.5"/>
<text text-anchor="start" x="8" y="-141.5" font-family="Helvetica,sans-Serif" font-size="10.00">zero_mate::arm1176jzf</text>
<text text-anchor="middle" x="66" y="-130.5" font-family="Helvetica,sans-Serif" font-size="10.00">_s::CCPU_Core::Execute</text>
</a>
</g>
</g>
<!-- Node2 -->
<g id="node2" class="node">
<title>Node2</title>
<g id="a_node2"><a xlink:href="classzero__mate_1_1arm1176jzf__s_1_1CCPU__Core.html#a65fef8be920aaccdf3cfea5b0e3d0cee" target="_top" xlink:title="Calculates the base address of a data transfer instruction.">
<polygon fill="none" stroke="black" points="176.5,-224 176.5,-265 316.5,-265 316.5,-224 176.5,-224"/>
<text text-anchor="start" x="184.5" y="-253" font-family="Helvetica,sans-Serif" font-size="10.00">zero_mate::arm1176jzf</text>
<text text-anchor="start" x="184.5" y="-242" font-family="Helvetica,sans-Serif" font-size="10.00">_s::CCPU_Core::Calculate</text>
<text text-anchor="middle" x="246.5" y="-231" font-family="Helvetica,sans-Serif" font-size="10.00">_Base_Address</text>
</a>
</g>
</g>
<!-- Node1&#45;&gt;Node2 -->
<g id="edge1" class="edge">
<title>Node1&#45;&gt;Node2</title>
<path fill="none" stroke="midnightblue" d="M86.02,-153.51C105.81,-168.73 138.03,-192.4 168,-209.5 173.94,-212.89 180.28,-216.2 186.66,-219.35"/>
<polygon fill="midnightblue" stroke="midnightblue" points="185.49,-222.67 196.02,-223.84 188.52,-216.36 185.49,-222.67"/>
</g>
<!-- Node3 -->
<g id="node3" class="node">
<title>Node3</title>
<g id="a_node3"><a xlink:href="classzero__mate_1_1arm1176jzf__s_1_1CCPU__Context.html#a22efcb34f3c1bd9f46f1f75771103ef9" target="_top" xlink:title="Returns a const reference to a register of a particular CPU mode.">
<polygon fill="none" stroke="black" points="364.5,-205 364.5,-246 494.5,-246 494.5,-205 364.5,-205"/>
<text text-anchor="start" x="372.5" y="-234" font-family="Helvetica,sans-Serif" font-size="10.00">zero_mate::arm1176jzf</text>
<text text-anchor="start" x="372.5" y="-223" font-family="Helvetica,sans-Serif" font-size="10.00">_s::CCPU_Context::Get</text>
<text text-anchor="middle" x="429.5" y="-212" font-family="Helvetica,sans-Serif" font-size="10.00">_Register</text>
</a>
</g>
</g>
<!-- Node1&#45;&gt;Node3 -->
<g id="edge6" class="edge">
<title>Node1&#45;&gt;Node3</title>
<path fill="none" stroke="midnightblue" d="M109.44,-153.53C127.37,-159.58 148.57,-166.33 168,-171.5 230.27,-188.07 302.03,-202.62 354.45,-212.43"/>
<polygon fill="midnightblue" stroke="midnightblue" points="353.86,-215.88 364.34,-214.26 355.14,-208.99 353.86,-215.88"/>
</g>
<!-- Node4 -->
<g id="node4" class="node">
<title>Node4</title>
<g id="a_node4"><a xlink:href="classzero__mate_1_1utils_1_1CLogging__System.html#aba3c5c64cd12e058e6a288db2cd89a15" target="_top" xlink:title=" ">
<polygon fill="none" stroke="black" points="534,-91.5 534,-121.5 680,-121.5 680,-91.5 534,-91.5"/>
<text text-anchor="start" x="542" y="-109.5" font-family="Helvetica,sans-Serif" font-size="10.00">zero_mate::utils::CLogging</text>
<text text-anchor="middle" x="607" y="-98.5" font-family="Helvetica,sans-Serif" font-size="10.00">_System::Error</text>
</a>
</g>
</g>
<!-- Node1&#45;&gt;Node4 -->
<g id="edge3" class="edge">
<title>Node1&#45;&gt;Node4</title>
<path fill="none" stroke="midnightblue" d="M132.26,-141.33C216.93,-144.08 369.07,-145.87 498,-130.5 511.15,-128.93 525.04,-126.47 538.33,-123.71"/>
<polygon fill="midnightblue" stroke="midnightblue" points="539.32,-127.08 548.36,-121.55 537.84,-120.23 539.32,-127.08"/>
</g>
<!-- Node6 -->
<g id="node6" class="node">
<title>Node6</title>
<g id="a_node6"><a xlink:href="classzero__mate_1_1arm1176jzf__s_1_1CCPU__Context.html#aa740f9219bb413d707ac72f373e60d3a" target="_top" xlink:title="Returns the current mode of the CPU.">
<polygon fill="none" stroke="black" points="364.5,-80 364.5,-121 494.5,-121 494.5,-80 364.5,-80"/>
<text text-anchor="start" x="372.5" y="-109" font-family="Helvetica,sans-Serif" font-size="10.00">zero_mate::arm1176jzf</text>
<text text-anchor="start" x="372.5" y="-98" font-family="Helvetica,sans-Serif" font-size="10.00">_s::CCPU_Context::Get</text>
<text text-anchor="middle" x="429.5" y="-87" font-family="Helvetica,sans-Serif" font-size="10.00">_CPU_Mode</text>
</a>
</g>
</g>
<!-- Node1&#45;&gt;Node6 -->
<g id="edge5" class="edge">
<title>Node1&#45;&gt;Node6</title>
<path fill="none" stroke="midnightblue" d="M132.05,-131.66C194.47,-125.1 288.65,-115.2 354.04,-108.33"/>
<polygon fill="midnightblue" stroke="midnightblue" points="354.7,-111.78 364.28,-107.25 353.97,-104.82 354.7,-111.78"/>
</g>
<!-- Node7 -->
<g id="node7" class="node">
<title>Node7</title>
<g id="a_node7"><a xlink:href="classzero__mate_1_1arm1176jzf__s_1_1CCPU__Context.html#ae00681efcbc4adfcfde001a67c5baeca" target="_top" xlink:title="Returns the value of the SPSR register of the current CPU mode.">
<polygon fill="none" stroke="black" points="168,-0.5 168,-30.5 325,-30.5 325,-0.5 168,-0.5"/>
<text text-anchor="start" x="176" y="-18.5" font-family="Helvetica,sans-Serif" font-size="10.00">zero_mate::arm1176jzf</text>
<text text-anchor="middle" x="246.5" y="-7.5" font-family="Helvetica,sans-Serif" font-size="10.00">_s::CCPU_Context::Get_SPSR</text>
</a>
</g>
</g>
<!-- Node1&#45;&gt;Node7 -->
<g id="edge7" class="edge">
<title>Node1&#45;&gt;Node7</title>
<path fill="none" stroke="midnightblue" d="M78.74,-123.35C96.07,-101.97 130.52,-63.03 168,-40.5 171.45,-38.43 175.08,-36.51 178.82,-34.73"/>
<polygon fill="midnightblue" stroke="midnightblue" points="180.53,-37.81 188.3,-30.61 177.73,-31.39 180.53,-37.81"/>
</g>
<!-- Node10 -->
<g id="node10" class="node">
<title>Node10</title>
<g id="a_node10"><a xlink:href="classzero__mate_1_1arm1176jzf__s_1_1CCPU__Context.html#a573470217091c27cf30f1411ea453e5d" target="_top" xlink:title="Checks if the CPU is in a privileged mode.">
<polygon fill="none" stroke="black" points="181.5,-50 181.5,-91 311.5,-91 311.5,-50 181.5,-50"/>
<text text-anchor="start" x="189.5" y="-79" font-family="Helvetica,sans-Serif" font-size="10.00">zero_mate::arm1176jzf</text>
<text text-anchor="start" x="189.5" y="-68" font-family="Helvetica,sans-Serif" font-size="10.00">_s::CCPU_Context::Is</text>
<text text-anchor="middle" x="246.5" y="-57" font-family="Helvetica,sans-Serif" font-size="10.00">_In_Privileged_Mode</text>
</a>
</g>
</g>
<!-- Node1&#45;&gt;Node10 -->
<g id="edge11" class="edge">
<title>Node1&#45;&gt;Node10</title>
<path fill="none" stroke="midnightblue" d="M106.61,-123.41C128.75,-114.98 156.85,-104.27 181.97,-94.7"/>
<polygon fill="midnightblue" stroke="midnightblue" points="183.34,-97.92 191.44,-91.09 180.85,-91.38 183.34,-97.92"/>
</g>
<!-- Node2&#45;&gt;Node3 -->
<g id="edge2" class="edge">
<title>Node2&#45;&gt;Node3</title>
<path fill="none" stroke="midnightblue" d="M316.7,-237.24C328.94,-235.95 341.74,-234.61 354.11,-233.31"/>
<polygon fill="midnightblue" stroke="midnightblue" points="354.81,-236.75 364.39,-232.23 354.08,-229.79 354.81,-236.75"/>
</g>
<!-- Node5 -->
<g id="node5" class="node">
<title>Node5</title>
<g id="a_node5"><a xlink:href="classzero__mate_1_1utils_1_1CLogging__System.html#af3fd8f336b5853e954283d93f2c32edd" target="_top" xlink:title=" ">
<polygon fill="none" stroke="black" points="716,-91.5 716,-121.5 865,-121.5 865,-91.5 716,-91.5"/>
<text text-anchor="start" x="724" y="-109.5" font-family="Helvetica,sans-Serif" font-size="10.00">zero_mate::utils::CLogging</text>
<text text-anchor="middle" x="790.5" y="-98.5" font-family="Helvetica,sans-Serif" font-size="10.00">_System::Extract_Filename</text>
</a>
</g>
</g>
<!-- Node4&#45;&gt;Node5 -->
<g id="edge4" class="edge">
<title>Node4&#45;&gt;Node5</title>
<path fill="none" stroke="midnightblue" d="M680.26,-106.5C688.55,-106.5 697.06,-106.5 705.49,-106.5"/>
<polygon fill="midnightblue" stroke="midnightblue" points="705.71,-110 715.71,-106.5 705.71,-103 705.71,-110"/>
</g>
<!-- Node8 -->
<g id="node8" class="node">
<title>Node8</title>
<g id="a_node8"><a xlink:href="classzero__mate_1_1arm1176jzf__s_1_1CCPU__Context.html#a050dada520ca82a21874045815c596a8" target="_top" xlink:title=" ">
<polygon fill="none" stroke="black" points="361,-4 361,-45 498,-45 498,-4 361,-4"/>
<text text-anchor="start" x="369" y="-33" font-family="Helvetica,sans-Serif" font-size="10.00">zero_mate::arm1176jzf</text>
<text text-anchor="start" x="369" y="-22" font-family="Helvetica,sans-Serif" font-size="10.00">_s::CCPU_Context::Verify</text>
<text text-anchor="middle" x="429.5" y="-11" font-family="Helvetica,sans-Serif" font-size="10.00">_SPSR_Accessibility</text>
</a>
</g>
</g>
<!-- Node7&#45;&gt;Node8 -->
<g id="edge8" class="edge">
<title>Node7&#45;&gt;Node8</title>
<path fill="none" stroke="midnightblue" d="M325.05,-19.36C333.51,-19.78 342.12,-20.2 350.58,-20.63"/>
<polygon fill="midnightblue" stroke="midnightblue" points="350.65,-24.13 360.81,-21.13 351,-17.14 350.65,-24.13"/>
</g>
<!-- Node8&#45;&gt;Node4 -->
<g id="edge9" class="edge">
<title>Node8&#45;&gt;Node4</title>
<path fill="none" stroke="midnightblue" d="M474.79,-45.19C502.31,-58.05 537.46,-74.48 564.46,-87.09"/>
<polygon fill="midnightblue" stroke="midnightblue" points="563.1,-90.32 573.64,-91.38 566.06,-83.98 563.1,-90.32"/>
</g>
<!-- Node9 -->
<g id="node9" class="node">
<title>Node9</title>
<g id="a_node9"><a xlink:href="classzero__mate_1_1arm1176jzf__s_1_1CCPU__Context.html#a6fc387fa0b0dd040c4e2463606d933e4" target="_top" xlink:title="Checks if the CPU mode passed in as a parameter supports the SPSR register or not.">
<polygon fill="none" stroke="black" points="542,-4 542,-45 672,-45 672,-4 542,-4"/>
<text text-anchor="start" x="550" y="-33" font-family="Helvetica,sans-Serif" font-size="10.00">zero_mate::arm1176jzf</text>
<text text-anchor="start" x="550" y="-22" font-family="Helvetica,sans-Serif" font-size="10.00">_s::CCPU_Context::Is</text>
<text text-anchor="middle" x="607" y="-11" font-family="Helvetica,sans-Serif" font-size="10.00">_Mode_With_No_SPSR</text>
</a>
</g>
</g>
<!-- Node8&#45;&gt;Node9 -->
<g id="edge10" class="edge">
<title>Node8&#45;&gt;Node9</title>
<path fill="none" stroke="midnightblue" d="M498.1,-24.5C509.12,-24.5 520.58,-24.5 531.75,-24.5"/>
<polygon fill="midnightblue" stroke="midnightblue" points="531.89,-28 541.89,-24.5 531.89,-21 531.89,-28"/>
</g>
<!-- Node10&#45;&gt;Node6 -->
<g id="edge12" class="edge">
<title>Node10&#45;&gt;Node6</title>
<path fill="none" stroke="midnightblue" d="M311.57,-81.12C325.32,-83.4 339.96,-85.82 354.06,-88.16"/>
<polygon fill="midnightblue" stroke="midnightblue" points="353.77,-91.66 364.21,-89.84 354.92,-84.76 353.77,-91.66"/>
</g>
</g>
</svg>
