<?xml version="1.0" encoding="UTF-8" standalone="no"?>
<!DOCTYPE svg PUBLIC "-//W3C//DTD SVG 1.1//EN"
 "http://www.w3.org/Graphics/SVG/1.1/DTD/svg11.dtd">
<!-- Generated by graphviz version 2.43.0 (0)
 -->
<!-- Title: zero_mate::arm1176jzf_s::CCPU_Core::Steps Pages: 1 -->
<svg width="1012pt" height="341pt"
 viewBox="0.00 0.00 1012.00 340.50" xmlns="http://www.w3.org/2000/svg" xmlns:xlink="http://www.w3.org/1999/xlink">
<g id="graph0" class="graph" transform="scale(1 1) rotate(0) translate(4 336.5)">
<title>zero_mate::arm1176jzf_s::CCPU_Core::Steps</title>
<!-- Node1 -->
<g id="node1" class="node">
<title>Node1</title>
<g id="a_node1"><a xlink:title=" ">
<polygon fill="#bfbfbf" stroke="black" points="0,-49.5 0,-79.5 130,-79.5 130,-49.5 0,-49.5"/>
<text text-anchor="start" x="8" y="-67.5" font-family="Helvetica,sans-Serif" font-size="10.00">zero_mate::arm1176jzf</text>
<text text-anchor="middle" x="65" y="-56.5" font-family="Helvetica,sans-Serif" font-size="10.00">_s::CCPU_Core::Steps</text>
</a>
</g>
</g>
<!-- Node2 -->
<g id="node2" class="node">
<title>Node2</title>
<g id="a_node2"><a xlink:href="classzero__mate_1_1arm1176jzf__s_1_1CCPU__Core.html#a1665360d8ae71ed541b4c10f39e655a5" target="_top" xlink:title=" ">
<polygon fill="none" stroke="black" points="166,-49.5 166,-79.5 296,-79.5 296,-49.5 166,-49.5"/>
<text text-anchor="start" x="174" y="-67.5" font-family="Helvetica,sans-Serif" font-size="10.00">zero_mate::arm1176jzf</text>
<text text-anchor="middle" x="231" y="-56.5" font-family="Helvetica,sans-Serif" font-size="10.00">_s::CCPU_Core::Step</text>
</a>
</g>
</g>
<!-- Node1&#45;&gt;Node2 -->
<g id="edge1" class="edge">
<title>Node1&#45;&gt;Node2</title>
<path fill="none" stroke="midnightblue" d="M130.35,-64.5C138.64,-64.5 147.19,-64.5 155.62,-64.5"/>
<polygon fill="midnightblue" stroke="midnightblue" points="155.84,-68 165.84,-64.5 155.84,-61 155.84,-68"/>
</g>
<!-- Node3 -->
<g id="node3" class="node">
<title>Node3</title>
<g id="a_node3"><a xlink:href="classzero__mate_1_1arm1176jzf__s_1_1CCPU__Core.html#af500d91bd836a74df0e758990c4ecc7d" target="_top" xlink:title=" ">
<polygon fill="none" stroke="black" points="332,-104.5 332,-134.5 464,-134.5 464,-104.5 332,-104.5"/>
<text text-anchor="start" x="340" y="-122.5" font-family="Helvetica,sans-Serif" font-size="10.00">zero_mate::arm1176jzf</text>
<text text-anchor="middle" x="398" y="-111.5" font-family="Helvetica,sans-Serif" font-size="10.00">_s::CCPU_Core::Execute</text>
</a>
</g>
</g>
<!-- Node2&#45;&gt;Node3 -->
<g id="edge2" class="edge">
<title>Node2&#45;&gt;Node3</title>
<path fill="none" stroke="midnightblue" d="M277.09,-79.53C297.28,-86.26 321.26,-94.25 342.45,-101.32"/>
<polygon fill="midnightblue" stroke="midnightblue" points="341.37,-104.65 351.97,-104.49 343.59,-98.01 341.37,-104.65"/>
</g>
<!-- Node4 -->
<g id="node4" class="node">
<title>Node4</title>
<g id="a_node4"><a xlink:href="classzero__mate_1_1arm1176jzf__s_1_1CCPU__Core.html#aa327755c4c57c01f03e16fb3d1195f6a" target="_top" xlink:title="Fetches the next instruction.">
<polygon fill="none" stroke="black" points="333,-44 333,-85 463,-85 463,-44 333,-44"/>
<text text-anchor="start" x="341" y="-73" font-family="Helvetica,sans-Serif" font-size="10.00">zero_mate::arm1176jzf</text>
<text text-anchor="start" x="341" y="-62" font-family="Helvetica,sans-Serif" font-size="10.00">_s::CCPU_Core::Fetch</text>
<text text-anchor="middle" x="398" y="-51" font-family="Helvetica,sans-Serif" font-size="10.00">_Instruction</text>
</a>
</g>
</g>
<!-- Node2&#45;&gt;Node4 -->
<g id="edge3" class="edge">
<title>Node2&#45;&gt;Node4</title>
<path fill="none" stroke="midnightblue" d="M296.27,-64.5C304.92,-64.5 313.85,-64.5 322.65,-64.5"/>
<polygon fill="midnightblue" stroke="midnightblue" points="322.91,-68 332.91,-64.5 322.91,-61 322.91,-68"/>
</g>
<!-- Node9 -->
<g id="node9" class="node">
<title>Node9</title>
<g id="a_node9"><a xlink:href="classzero__mate_1_1arm1176jzf__s_1_1CCPU__Core.html#a423eacd01e574e782a2b7cf51f28c56c" target="_top" xlink:title="Returns a reference to the PC register (r15)">
<polygon fill="none" stroke="black" points="678.5,-0.5 678.5,-30.5 808.5,-30.5 808.5,-0.5 678.5,-0.5"/>
<text text-anchor="start" x="686.5" y="-18.5" font-family="Helvetica,sans-Serif" font-size="10.00">zero_mate::arm1176jzf</text>
<text text-anchor="middle" x="743.5" y="-7.5" font-family="Helvetica,sans-Serif" font-size="10.00">_s::CCPU_Core::PC</text>
</a>
</g>
</g>
<!-- Node2&#45;&gt;Node9 -->
<g id="edge13" class="edge">
<title>Node2&#45;&gt;Node9</title>
<path fill="none" stroke="midnightblue" d="M273.79,-49.47C291.5,-43.75 312.52,-37.82 332,-34.5 448.29,-14.67 585.62,-12.53 668.29,-13.5"/>
<polygon fill="midnightblue" stroke="midnightblue" points="668.29,-17 678.34,-13.64 668.39,-10 668.29,-17"/>
</g>
<!-- Node5 -->
<g id="node5" class="node">
<title>Node5</title>
<g id="a_node5"><a xlink:href="classzero__mate_1_1arm1176jzf__s_1_1CCPU__Core.html#a85e6ef006a36e1adb56abd3ecc6481be" target="_top" xlink:title="Executes a CPU exception.">
<polygon fill="none" stroke="black" points="500,-99 500,-140 632,-140 632,-99 500,-99"/>
<text text-anchor="start" x="508" y="-128" font-family="Helvetica,sans-Serif" font-size="10.00">zero_mate::arm1176jzf</text>
<text text-anchor="start" x="508" y="-117" font-family="Helvetica,sans-Serif" font-size="10.00">_s::CCPU_Core::Execute</text>
<text text-anchor="middle" x="566" y="-106" font-family="Helvetica,sans-Serif" font-size="10.00">_Exception</text>
</a>
</g>
</g>
<!-- Node4&#45;&gt;Node5 -->
<g id="edge4" class="edge">
<title>Node4&#45;&gt;Node5</title>
<path fill="none" stroke="midnightblue" d="M461.28,-85.14C471.71,-88.59 482.6,-92.2 493.24,-95.72"/>
<polygon fill="midnightblue" stroke="midnightblue" points="492.33,-99.11 502.92,-98.93 494.53,-92.46 492.33,-99.11"/>
</g>
<!-- Node4&#45;&gt;Node9 -->
<g id="edge12" class="edge">
<title>Node4&#45;&gt;Node9</title>
<path fill="none" stroke="midnightblue" d="M463.21,-55.34C521.42,-47.04 607.23,-34.8 668.35,-26.08"/>
<polygon fill="midnightblue" stroke="midnightblue" points="668.91,-29.53 678.32,-24.66 667.92,-22.6 668.91,-29.53"/>
</g>
<!-- Node6 -->
<g id="node6" class="node">
<title>Node6</title>
<g id="a_node6"><a xlink:href="classzero__mate_1_1arm1176jzf__s_1_1exceptions_1_1CCPU__Exception.html#ab18a4a4b6a54029ccf141784cfe9c737" target="_top" xlink:title="Returns the mode into which the CPU will switch when the exception is thrown.">
<polygon fill="none" stroke="black" points="668,-291 668,-332 819,-332 819,-291 668,-291"/>
<text text-anchor="start" x="676" y="-320" font-family="Helvetica,sans-Serif" font-size="10.00">zero_mate::arm1176jzf</text>
<text text-anchor="start" x="676" y="-309" font-family="Helvetica,sans-Serif" font-size="10.00">_s::exceptions::CCPU</text>
<text text-anchor="middle" x="743.5" y="-298" font-family="Helvetica,sans-Serif" font-size="10.00">_Exception::Get_CPU_Mode</text>
</a>
</g>
</g>
<!-- Node5&#45;&gt;Node6 -->
<g id="edge5" class="edge">
<title>Node5&#45;&gt;Node6</title>
<path fill="none" stroke="midnightblue" d="M574.82,-140.05C588.68,-173.95 620.65,-241.77 668,-281.5 669.56,-282.81 671.19,-284.07 672.87,-285.28"/>
<polygon fill="midnightblue" stroke="midnightblue" points="671.33,-288.45 681.64,-290.91 675.12,-282.56 671.33,-288.45"/>
</g>
<!-- Node7 -->
<g id="node7" class="node">
<title>Node7</title>
<g id="a_node7"><a xlink:href="classzero__mate_1_1arm1176jzf__s_1_1exceptions_1_1CCPU__Exception.html#ae87c33c76ed6571b2408fd293710b6c4" target="_top" xlink:title="Returns the address of the handler of the exception.">
<polygon fill="none" stroke="black" points="670.5,-219.5 670.5,-271.5 816.5,-271.5 816.5,-219.5 670.5,-219.5"/>
<text text-anchor="start" x="678.5" y="-259.5" font-family="Helvetica,sans-Serif" font-size="10.00">zero_mate::arm1176jzf</text>
<text text-anchor="start" x="678.5" y="-248.5" font-family="Helvetica,sans-Serif" font-size="10.00">_s::exceptions::CCPU</text>
<text text-anchor="start" x="678.5" y="-237.5" font-family="Helvetica,sans-Serif" font-size="10.00">_Exception::Get_Exception</text>
<text text-anchor="middle" x="743.5" y="-226.5" font-family="Helvetica,sans-Serif" font-size="10.00">_Vector</text>
</a>
</g>
</g>
<!-- Node5&#45;&gt;Node7 -->
<g id="edge6" class="edge">
<title>Node5&#45;&gt;Node7</title>
<path fill="none" stroke="midnightblue" d="M586.88,-140.28C606.3,-159.81 637.34,-189.02 668,-209.5 670.41,-211.11 672.9,-212.69 675.44,-214.23"/>
<polygon fill="midnightblue" stroke="midnightblue" points="673.86,-217.36 684.27,-219.33 677.36,-211.3 673.86,-217.36"/>
</g>
<!-- Node8 -->
<g id="node8" class="node">
<title>Node8</title>
<g id="a_node8"><a xlink:href="classzero__mate_1_1arm1176jzf__s_1_1exceptions_1_1CCPU__Exception.html#aabb81de8a3e09534245ef3851a31c3c0" target="_top" xlink:title="Returns the type of the exception.">
<polygon fill="none" stroke="black" points="678.5,-159 678.5,-200 808.5,-200 808.5,-159 678.5,-159"/>
<text text-anchor="start" x="686.5" y="-188" font-family="Helvetica,sans-Serif" font-size="10.00">zero_mate::arm1176jzf</text>
<text text-anchor="start" x="686.5" y="-177" font-family="Helvetica,sans-Serif" font-size="10.00">_s::exceptions::CCPU</text>
<text text-anchor="middle" x="743.5" y="-166" font-family="Helvetica,sans-Serif" font-size="10.00">_Exception::Get_Type</text>
</a>
</g>
</g>
<!-- Node5&#45;&gt;Node8 -->
<g id="edge7" class="edge">
<title>Node5&#45;&gt;Node8</title>
<path fill="none" stroke="midnightblue" d="M627.4,-140.15C641.96,-145.13 657.63,-150.49 672.59,-155.6"/>
<polygon fill="midnightblue" stroke="midnightblue" points="671.69,-158.99 682.29,-158.92 673.96,-152.37 671.69,-158.99"/>
</g>
<!-- Node5&#45;&gt;Node9 -->
<g id="edge8" class="edge">
<title>Node5&#45;&gt;Node9</title>
<path fill="none" stroke="midnightblue" d="M597.68,-98.97C608.72,-91.28 621.13,-82.27 632,-73.5 648.89,-59.87 649.3,-51.53 668,-40.5 671.57,-38.39 675.34,-36.44 679.22,-34.62"/>
<polygon fill="midnightblue" stroke="midnightblue" points="680.62,-37.83 688.4,-30.64 677.83,-31.41 680.62,-37.83"/>
</g>
<!-- Node10 -->
<g id="node10" class="node">
<title>Node10</title>
<g id="a_node10"><a xlink:href="classzero__mate_1_1arm1176jzf__s_1_1CCPU__Context.html#a7efff674f8141eab73cb69099220f0d5" target="_top" xlink:title="Sets the mode of the CPU.">
<polygon fill="none" stroke="black" points="678.5,-99 678.5,-140 808.5,-140 808.5,-99 678.5,-99"/>
<text text-anchor="start" x="686.5" y="-128" font-family="Helvetica,sans-Serif" font-size="10.00">zero_mate::arm1176jzf</text>
<text text-anchor="start" x="686.5" y="-117" font-family="Helvetica,sans-Serif" font-size="10.00">_s::CCPU_Context::Set</text>
<text text-anchor="middle" x="743.5" y="-106" font-family="Helvetica,sans-Serif" font-size="10.00">_CPU_Mode</text>
</a>
</g>
</g>
<!-- Node5&#45;&gt;Node10 -->
<g id="edge9" class="edge">
<title>Node5&#45;&gt;Node10</title>
<path fill="none" stroke="midnightblue" d="M632.35,-119.5C643.96,-119.5 656.13,-119.5 667.97,-119.5"/>
<polygon fill="midnightblue" stroke="midnightblue" points="668.26,-123 678.26,-119.5 668.26,-116 668.26,-123"/>
</g>
<!-- Node11 -->
<g id="node11" class="node">
<title>Node11</title>
<g id="a_node11"><a xlink:href="classzero__mate_1_1utils_1_1CLogging__System.html#a8904feb1d77dc350717ebcd00e7e5443" target="_top" xlink:title="Logs a warning message via all registered loggers.">
<polygon fill="none" stroke="black" points="670.5,-49.5 670.5,-79.5 816.5,-79.5 816.5,-49.5 670.5,-49.5"/>
<text text-anchor="start" x="678.5" y="-67.5" font-family="Helvetica,sans-Serif" font-size="10.00">zero_mate::utils::CLogging</text>
<text text-anchor="middle" x="743.5" y="-56.5" font-family="Helvetica,sans-Serif" font-size="10.00">_System::Warning</text>
</a>
</g>
</g>
<!-- Node5&#45;&gt;Node11 -->
<g id="edge10" class="edge">
<title>Node5&#45;&gt;Node11</title>
<path fill="none" stroke="midnightblue" d="M632.35,-99.02C649.54,-93.63 667.96,-87.86 684.72,-82.61"/>
<polygon fill="midnightblue" stroke="midnightblue" points="685.88,-85.91 694.37,-79.58 683.78,-79.23 685.88,-85.91"/>
</g>
<!-- Node12 -->
<g id="node12" class="node">
<title>Node12</title>
<g id="a_node12"><a xlink:href="classzero__mate_1_1utils_1_1CLogging__System.html#a90671387b53987d6fd3c85348cb234e4" target="_top" xlink:title="Extract the filename from a given location within the source files.">
<polygon fill="none" stroke="black" points="855,-49.5 855,-79.5 1004,-79.5 1004,-49.5 855,-49.5"/>
<text text-anchor="start" x="863" y="-67.5" font-family="Helvetica,sans-Serif" font-size="10.00">zero_mate::utils::CLogging</text>
<text text-anchor="middle" x="929.5" y="-56.5" font-family="Helvetica,sans-Serif" font-size="10.00">_System::Extract_Filename</text>
</a>
</g>
</g>
<!-- Node11&#45;&gt;Node12 -->
<g id="edge11" class="edge">
<title>Node11&#45;&gt;Node12</title>
<path fill="none" stroke="midnightblue" d="M816.69,-64.5C825.86,-64.5 835.31,-64.5 844.64,-64.5"/>
<polygon fill="midnightblue" stroke="midnightblue" points="844.7,-68 854.7,-64.5 844.7,-61 844.7,-68"/>
</g>
</g>
</svg>
