<?xml version="1.0" encoding="UTF-8" standalone="no"?>
<!DOCTYPE svg PUBLIC "-//W3C//DTD SVG 1.1//EN"
 "http://www.w3.org/Graphics/SVG/1.1/DTD/svg11.dtd">
<!-- Generated by graphviz version 2.43.0 (0)
 -->
<!-- Title: zero_mate::gui::CRegisters_Window::Render Pages: 1 -->
<svg width="777pt" height="320pt"
 viewBox="0.00 0.00 777.00 319.50" xmlns="http://www.w3.org/2000/svg" xmlns:xlink="http://www.w3.org/1999/xlink">
<g id="graph0" class="graph" transform="scale(1 1) rotate(0) translate(4 315.5)">
<title>zero_mate::gui::CRegisters_Window::Render</title>
<!-- Node1 -->
<g id="node1" class="node">
<title>Node1</title>
<g id="a_node1"><a xlink:title=" ">
<polygon fill="#bfbfbf" stroke="black" points="0,-188.5 0,-218.5 148,-218.5 148,-188.5 0,-188.5"/>
<text text-anchor="start" x="8" y="-206.5" font-family="Helvetica,sans-Serif" font-size="10.00">zero_mate::gui::CRegisters</text>
<text text-anchor="middle" x="74" y="-195.5" font-family="Helvetica,sans-Serif" font-size="10.00">_Window::Render</text>
</a>
</g>
</g>
<!-- Node2 -->
<g id="node2" class="node">
<title>Node2</title>
<g id="a_node2"><a xlink:href="classzero__mate_1_1arm1176jzf__s_1_1CCPU__Context.html#aa740f9219bb413d707ac72f373e60d3a" target="_top" xlink:title=" ">
<polygon fill="none" stroke="black" points="205.5,-211 205.5,-252 335.5,-252 335.5,-211 205.5,-211"/>
<text text-anchor="start" x="213.5" y="-240" font-family="Helvetica,sans-Serif" font-size="10.00">zero_mate::arm1176jzf</text>
<text text-anchor="start" x="213.5" y="-229" font-family="Helvetica,sans-Serif" font-size="10.00">_s::CCPU_Context::Get</text>
<text text-anchor="middle" x="270.5" y="-218" font-family="Helvetica,sans-Serif" font-size="10.00">_CPU_Mode</text>
</a>
</g>
</g>
<!-- Node1&#45;&gt;Node2 -->
<g id="edge1" class="edge">
<title>Node1&#45;&gt;Node2</title>
<path fill="none" stroke="midnightblue" d="M148.25,-214.05C163.63,-216.26 179.85,-218.59 195.25,-220.81"/>
<polygon fill="midnightblue" stroke="midnightblue" points="194.85,-224.29 205.24,-222.25 195.84,-217.36 194.85,-224.29"/>
</g>
<!-- Node3 -->
<g id="node3" class="node">
<title>Node3</title>
<g id="a_node3"><a xlink:href="classzero__mate_1_1gui_1_1CRegisters__Window.html#acd9fc32fa1db2adfa6de67fdcd47035c" target="_top" xlink:title=" ">
<polygon fill="none" stroke="black" points="184,-161.5 184,-191.5 357,-191.5 357,-161.5 184,-161.5"/>
<text text-anchor="start" x="192" y="-179.5" font-family="Helvetica,sans-Serif" font-size="10.00">zero_mate::gui::CRegisters</text>
<text text-anchor="middle" x="270.5" y="-168.5" font-family="Helvetica,sans-Serif" font-size="10.00">_Window::Render_Register_Tabs</text>
</a>
</g>
</g>
<!-- Node1&#45;&gt;Node3 -->
<g id="edge2" class="edge">
<title>Node1&#45;&gt;Node3</title>
<path fill="none" stroke="midnightblue" d="M148.25,-193.33C156.61,-192.17 165.23,-190.98 173.82,-189.78"/>
<polygon fill="midnightblue" stroke="midnightblue" points="174.46,-193.23 183.89,-188.38 173.5,-186.29 174.46,-193.23"/>
</g>
<!-- Node4 -->
<g id="node4" class="node">
<title>Node4</title>
<g id="a_node4"><a xlink:href="classzero__mate_1_1gui_1_1CRegisters__Window.html#ab255199c377b463784b2cf30606c2d18" target="_top" xlink:title=" ">
<polygon fill="none" stroke="black" points="410,-230.5 410,-260.5 558,-260.5 558,-230.5 410,-230.5"/>
<text text-anchor="start" x="418" y="-248.5" font-family="Helvetica,sans-Serif" font-size="10.00">zero_mate::gui::CRegisters</text>
<text text-anchor="middle" x="484" y="-237.5" font-family="Helvetica,sans-Serif" font-size="10.00">_Window::Render_Flags</text>
</a>
</g>
</g>
<!-- Node3&#45;&gt;Node4 -->
<g id="edge3" class="edge">
<title>Node3&#45;&gt;Node4</title>
<path fill="none" stroke="midnightblue" d="M324.54,-191.55C335.31,-194.73 346.54,-198.15 357,-201.5 381.91,-209.48 409.34,-218.98 432.24,-227.11"/>
<polygon fill="midnightblue" stroke="midnightblue" points="431.16,-230.44 441.75,-230.49 433.51,-223.84 431.16,-230.44"/>
</g>
<!-- Node6 -->
<g id="node6" class="node">
<title>Node6</title>
<g id="a_node6"><a xlink:href="classzero__mate_1_1gui_1_1CRegisters__Window.html#ad3bf490925aef83d99eda63e054f7c43" target="_top" xlink:title=" ">
<polygon fill="none" stroke="black" points="393,-137.5 393,-167.5 575,-167.5 575,-137.5 393,-137.5"/>
<text text-anchor="start" x="401" y="-155.5" font-family="Helvetica,sans-Serif" font-size="10.00">zero_mate::gui::CRegisters</text>
<text text-anchor="middle" x="484" y="-144.5" font-family="Helvetica,sans-Serif" font-size="10.00">_Window::Render_Registers_Table</text>
</a>
</g>
</g>
<!-- Node3&#45;&gt;Node6 -->
<g id="edge5" class="edge">
<title>Node3&#45;&gt;Node6</title>
<path fill="none" stroke="midnightblue" d="M357.22,-166.77C365.61,-165.82 374.18,-164.85 382.71,-163.88"/>
<polygon fill="midnightblue" stroke="midnightblue" points="383.13,-167.35 392.68,-162.75 382.35,-160.4 383.13,-167.35"/>
</g>
<!-- Node5 -->
<g id="node5" class="node">
<title>Node5</title>
<g id="a_node5"><a xlink:href="classzero__mate_1_1arm1176jzf__s_1_1CCPU__Context.html#a0013811c3eef6d91ddfd2423a08889ef" target="_top" xlink:title=" ">
<polygon fill="none" stroke="black" points="625,-270 625,-311 755,-311 755,-270 625,-270"/>
<text text-anchor="start" x="633" y="-299" font-family="Helvetica,sans-Serif" font-size="10.00">zero_mate::arm1176jzf</text>
<text text-anchor="start" x="633" y="-288" font-family="Helvetica,sans-Serif" font-size="10.00">_s::CCPU_Context::Is</text>
<text text-anchor="middle" x="690" y="-277" font-family="Helvetica,sans-Serif" font-size="10.00">_Flag_Set</text>
</a>
</g>
</g>
<!-- Node4&#45;&gt;Node5 -->
<g id="edge4" class="edge">
<title>Node4&#45;&gt;Node5</title>
<path fill="none" stroke="midnightblue" d="M553.21,-260.55C573.12,-264.94 594.96,-269.76 615.2,-274.22"/>
<polygon fill="midnightblue" stroke="midnightblue" points="614.47,-277.64 624.99,-276.38 615.98,-270.81 614.47,-277.64"/>
</g>
<!-- Node7 -->
<g id="node7" class="node">
<title>Node7</title>
<g id="a_node7"><a xlink:href="classzero__mate_1_1arm1176jzf__s_1_1CCPU__Context.html#acf66c6ff905975912dbf52133ddfeceb" target="_top" xlink:title=" ">
<polygon fill="none" stroke="black" points="611,-220.5 611,-250.5 769,-250.5 769,-220.5 611,-220.5"/>
<text text-anchor="start" x="619" y="-238.5" font-family="Helvetica,sans-Serif" font-size="10.00">zero_mate::arm1176jzf</text>
<text text-anchor="middle" x="690" y="-227.5" font-family="Helvetica,sans-Serif" font-size="10.00">_s::CCPU_Context::Get_CPSR</text>
</a>
</g>
</g>
<!-- Node6&#45;&gt;Node7 -->
<g id="edge6" class="edge">
<title>Node6&#45;&gt;Node7</title>
<path fill="none" stroke="midnightblue" d="M515.11,-167.61C540.36,-179.98 577.56,-197.5 611,-210.5 616.83,-212.77 622.95,-214.99 629.11,-217.12"/>
<polygon fill="midnightblue" stroke="midnightblue" points="628.16,-220.5 638.75,-220.39 630.4,-213.87 628.16,-220.5"/>
</g>
<!-- Node8 -->
<g id="node8" class="node">
<title>Node8</title>
<g id="a_node8"><a xlink:href="classzero__mate_1_1arm1176jzf__s_1_1CCPU__Context.html#a22efcb34f3c1bd9f46f1f75771103ef9" target="_top" xlink:title=" ">
<polygon fill="none" stroke="black" points="625,-160 625,-201 755,-201 755,-160 625,-160"/>
<text text-anchor="start" x="633" y="-189" font-family="Helvetica,sans-Serif" font-size="10.00">zero_mate::arm1176jzf</text>
<text text-anchor="start" x="633" y="-178" font-family="Helvetica,sans-Serif" font-size="10.00">_s::CCPU_Context::Get</text>
<text text-anchor="middle" x="690" y="-167" font-family="Helvetica,sans-Serif" font-size="10.00">_Register</text>
</a>
</g>
</g>
<!-- Node6&#45;&gt;Node8 -->
<g id="edge7" class="edge">
<title>Node6&#45;&gt;Node8</title>
<path fill="none" stroke="midnightblue" d="M575.07,-164.86C588.29,-166.68 601.79,-168.53 614.65,-170.29"/>
<polygon fill="midnightblue" stroke="midnightblue" points="614.42,-173.8 624.81,-171.69 615.38,-166.86 614.42,-173.8"/>
</g>
<!-- Node9 -->
<g id="node9" class="node">
<title>Node9</title>
<g id="a_node9"><a xlink:href="classzero__mate_1_1arm1176jzf__s_1_1CCPU__Context.html#ae00681efcbc4adfcfde001a67c5baeca" target="_top" xlink:title=" ">
<polygon fill="none" stroke="black" points="611.5,-110.5 611.5,-140.5 768.5,-140.5 768.5,-110.5 611.5,-110.5"/>
<text text-anchor="start" x="619.5" y="-128.5" font-family="Helvetica,sans-Serif" font-size="10.00">zero_mate::arm1176jzf</text>
<text text-anchor="middle" x="690" y="-117.5" font-family="Helvetica,sans-Serif" font-size="10.00">_s::CCPU_Context::Get_SPSR</text>
</a>
</g>
</g>
<!-- Node6&#45;&gt;Node9 -->
<g id="edge8" class="edge">
<title>Node6&#45;&gt;Node9</title>
<path fill="none" stroke="midnightblue" d="M575.07,-140.58C583.74,-139.43 592.53,-138.27 601.17,-137.12"/>
<polygon fill="midnightblue" stroke="midnightblue" points="601.79,-140.57 611.24,-135.79 600.87,-133.63 601.79,-140.57"/>
</g>
<!-- Node10 -->
<g id="node10" class="node">
<title>Node10</title>
<g id="a_node10"><a xlink:href="classzero__mate_1_1arm1176jzf__s_1_1CCPU__Context.html#a6fc387fa0b0dd040c4e2463606d933e4" target="_top" xlink:title=" ">
<polygon fill="none" stroke="black" points="625,-50 625,-91 755,-91 755,-50 625,-50"/>
<text text-anchor="start" x="633" y="-79" font-family="Helvetica,sans-Serif" font-size="10.00">zero_mate::arm1176jzf</text>
<text text-anchor="start" x="633" y="-68" font-family="Helvetica,sans-Serif" font-size="10.00">_s::CCPU_Context::Is</text>
<text text-anchor="middle" x="690" y="-57" font-family="Helvetica,sans-Serif" font-size="10.00">_Mode_With_No_SPSR</text>
</a>
</g>
</g>
<!-- Node6&#45;&gt;Node10 -->
<g id="edge9" class="edge">
<title>Node6&#45;&gt;Node10</title>
<path fill="none" stroke="midnightblue" d="M521.91,-137.49C547.02,-127.3 580.99,-113.54 611,-101.5 616.37,-99.35 621.95,-97.11 627.55,-94.88"/>
<polygon fill="midnightblue" stroke="midnightblue" points="628.96,-98.09 636.96,-91.13 626.37,-91.58 628.96,-98.09"/>
</g>
<!-- Node11 -->
<g id="node11" class="node">
<title>Node11</title>
<g id="a_node11"><a xlink:href="classzero__mate_1_1gui_1_1CRegisters__Window.html#a01300a0700c4a72bda627efb62154b87" target="_top" xlink:title=" ">
<polygon fill="none" stroke="black" points="616,-0.5 616,-30.5 764,-30.5 764,-0.5 616,-0.5"/>
<text text-anchor="start" x="624" y="-18.5" font-family="Helvetica,sans-Serif" font-size="10.00">zero_mate::gui::CRegisters</text>
<text text-anchor="middle" x="690" y="-7.5" font-family="Helvetica,sans-Serif" font-size="10.00">_Window::Render_Value</text>
</a>
</g>
</g>
<!-- Node6&#45;&gt;Node11 -->
<g id="edge10" class="edge">
<title>Node6&#45;&gt;Node11</title>
<path fill="none" stroke="midnightblue" d="M498.19,-137.24C519.6,-113.37 564.22,-67.18 611,-40.5 614.86,-38.3 618.93,-36.27 623.12,-34.39"/>
<polygon fill="midnightblue" stroke="midnightblue" points="624.52,-37.6 632.41,-30.53 621.83,-31.13 624.52,-37.6"/>
</g>
</g>
</svg>
