<?xml version="1.0" encoding="UTF-8" standalone="no"?>
<!DOCTYPE svg PUBLIC "-//W3C//DTD SVG 1.1//EN"
 "http://www.w3.org/Graphics/SVG/1.1/DTD/svg11.dtd">
<!-- Generated by graphviz version 2.43.0 (0)
 -->
<!-- Title: zero_mate::arm1176jzf_s::CCPU_Core::Get_Shift_Amount Pages: 1 -->
<svg width="323pt" height="170pt"
 viewBox="0.00 0.00 323.00 170.00" xmlns="http://www.w3.org/2000/svg" xmlns:xlink="http://www.w3.org/1999/xlink">
<g id="graph0" class="graph" transform="scale(1 1) rotate(0) translate(4 166)">
<title>zero_mate::arm1176jzf_s::CCPU_Core::Get_Shift_Amount</title>
<!-- Node1 -->
<g id="node1" class="node">
<title>Node1</title>
<g id="a_node1"><a xlink:title="Calculates the shift amount of a data processing instruction.">
<polygon fill="#bfbfbf" stroke="black" points="0,-60.5 0,-101.5 138,-101.5 138,-60.5 0,-60.5"/>
<text text-anchor="start" x="8" y="-89.5" font-family="Helvetica,sans-Serif" font-size="10.00">zero_mate::arm1176jzf</text>
<text text-anchor="start" x="8" y="-78.5" font-family="Helvetica,sans-Serif" font-size="10.00">_s::CCPU_Core::Get_Shift</text>
<text text-anchor="middle" x="69" y="-67.5" font-family="Helvetica,sans-Serif" font-size="10.00">_Amount</text>
</a>
</g>
</g>
<!-- Node2 -->
<g id="node2" class="node">
<title>Node2</title>
<g id="a_node2"><a xlink:href="classzero__mate_1_1arm1176jzf__s_1_1isa_1_1CData__Processing.html#a3916c98bc269c3856c47187f7a50d43a" target="_top" xlink:title=" ">
<polygon fill="none" stroke="black" points="174,-120.5 174,-161.5 315,-161.5 315,-120.5 174,-120.5"/>
<text text-anchor="start" x="182" y="-149.5" font-family="Helvetica,sans-Serif" font-size="10.00">zero_mate::arm1176jzf</text>
<text text-anchor="start" x="182" y="-138.5" font-family="Helvetica,sans-Serif" font-size="10.00">_s::isa::CData_Processing</text>
<text text-anchor="middle" x="244.5" y="-127.5" font-family="Helvetica,sans-Serif" font-size="10.00">::Get_Rs</text>
</a>
</g>
</g>
<!-- Node1&#45;&gt;Node2 -->
<g id="edge1" class="edge">
<title>Node1&#45;&gt;Node2</title>
<path fill="none" stroke="midnightblue" d="M129.71,-101.65C144.1,-106.63 159.6,-111.99 174.38,-117.1"/>
<polygon fill="midnightblue" stroke="midnightblue" points="173.38,-120.45 183.98,-120.42 175.67,-113.84 173.38,-120.45"/>
</g>
<!-- Node3 -->
<g id="node3" class="node">
<title>Node3</title>
<g id="a_node3"><a xlink:href="classzero__mate_1_1arm1176jzf__s_1_1isa_1_1CData__Processing.html#ae851afadd74822ec9363797ab332f45a" target="_top" xlink:title=" ">
<polygon fill="none" stroke="black" points="174,-60.5 174,-101.5 315,-101.5 315,-60.5 174,-60.5"/>
<text text-anchor="start" x="182" y="-89.5" font-family="Helvetica,sans-Serif" font-size="10.00">zero_mate::arm1176jzf</text>
<text text-anchor="start" x="182" y="-78.5" font-family="Helvetica,sans-Serif" font-size="10.00">_s::isa::CData_Processing</text>
<text text-anchor="middle" x="244.5" y="-67.5" font-family="Helvetica,sans-Serif" font-size="10.00">::Get_Shift_Amount</text>
</a>
</g>
</g>
<!-- Node1&#45;&gt;Node3 -->
<g id="edge2" class="edge">
<title>Node1&#45;&gt;Node3</title>
<path fill="none" stroke="midnightblue" d="M138.07,-81C146.53,-81 155.24,-81 163.86,-81"/>
<polygon fill="midnightblue" stroke="midnightblue" points="163.91,-84.5 173.91,-81 163.91,-77.5 163.91,-84.5"/>
</g>
<!-- Node4 -->
<g id="node4" class="node">
<title>Node4</title>
<g id="a_node4"><a xlink:href="classzero__mate_1_1arm1176jzf__s_1_1isa_1_1CData__Processing.html#a6984b9f9491dc809a9fe85e62d98d3a9" target="_top" xlink:title=" ">
<polygon fill="none" stroke="black" points="174,-0.5 174,-41.5 315,-41.5 315,-0.5 174,-0.5"/>
<text text-anchor="start" x="182" y="-29.5" font-family="Helvetica,sans-Serif" font-size="10.00">zero_mate::arm1176jzf</text>
<text text-anchor="start" x="182" y="-18.5" font-family="Helvetica,sans-Serif" font-size="10.00">_s::isa::CData_Processing</text>
<text text-anchor="middle" x="244.5" y="-7.5" font-family="Helvetica,sans-Serif" font-size="10.00">::Is_Immediate_Shift</text>
</a>
</g>
</g>
<!-- Node1&#45;&gt;Node4 -->
<g id="edge3" class="edge">
<title>Node1&#45;&gt;Node4</title>
<path fill="none" stroke="midnightblue" d="M129.71,-60.35C144.1,-55.37 159.6,-50.01 174.38,-44.9"/>
<polygon fill="midnightblue" stroke="midnightblue" points="175.67,-48.16 183.98,-41.58 173.38,-41.55 175.67,-48.16"/>
</g>
</g>
</svg>
