<?xml version="1.0" encoding="UTF-8" standalone="no"?>
<!DOCTYPE svg PUBLIC "-//W3C//DTD SVG 1.1//EN"
 "http://www.w3.org/Graphics/SVG/1.1/DTD/svg11.dtd">
<!-- Generated by graphviz version 2.43.0 (0)
 -->
<!-- Title: zero_mate::arm1176jzf_s::CCPU_Context::Get_SPSR Pages: 1 -->
<svg width="776pt" height="186pt"
 viewBox="0.00 0.00 776.00 186.00" xmlns="http://www.w3.org/2000/svg" xmlns:xlink="http://www.w3.org/1999/xlink">
<g id="graph0" class="graph" transform="scale(1 1) rotate(0) translate(4 182)">
<title>zero_mate::arm1176jzf_s::CCPU_Context::Get_SPSR</title>
<!-- Node1 -->
<g id="node1" class="node">
<title>Node1</title>
<g id="a_node1"><a xlink:title="Returns the value of the SPSR register of the current CPU mode.">
<polygon fill="#bfbfbf" stroke="black" points="611,-73.5 611,-103.5 768,-103.5 768,-73.5 611,-73.5"/>
<text text-anchor="start" x="619" y="-91.5" font-family="Helvetica,sans-Serif" font-size="10.00">zero_mate::arm1176jzf</text>
<text text-anchor="middle" x="689.5" y="-80.5" font-family="Helvetica,sans-Serif" font-size="10.00">_s::CCPU_Context::Get_SPSR</text>
</a>
</g>
</g>
<!-- Node2 -->
<g id="node2" class="node">
<title>Node2</title>
<g id="a_node2"><a xlink:href="classzero__mate_1_1arm1176jzf__s_1_1CCPU__Core.html#a92c997ad914fb73cec7feb5fa26d8ead" target="_top" xlink:title="Executes a data processing instruction.">
<polygon fill="none" stroke="black" points="418,-147.5 418,-177.5 550,-177.5 550,-147.5 418,-147.5"/>
<text text-anchor="start" x="426" y="-165.5" font-family="Helvetica,sans-Serif" font-size="10.00">zero_mate::arm1176jzf</text>
<text text-anchor="middle" x="484" y="-154.5" font-family="Helvetica,sans-Serif" font-size="10.00">_s::CCPU_Core::Execute</text>
</a>
</g>
</g>
<!-- Node1&#45;&gt;Node2 -->
<g id="edge1" class="edge">
<title>Node1&#45;&gt;Node2</title>
<path fill="none" stroke="midnightblue" d="M648.57,-107.9C627.09,-117.87 599.95,-129.74 575,-138.5 565.85,-141.72 556.04,-144.74 546.39,-147.49"/>
<polygon fill="midnightblue" stroke="midnightblue" points="650.14,-111.03 657.71,-103.61 647.17,-104.69 650.14,-111.03"/>
</g>
<!-- Node3 -->
<g id="node3" class="node">
<title>Node3</title>
<g id="a_node3"><a xlink:href="classzero__mate_1_1arm1176jzf__s_1_1CCPU__Core.html#a82f0fa55ec787c7a39bac81b7437aec2" target="_top" xlink:title="Executes an MRS instruction (move data from CPSR/SPSR to an ARM register).">
<polygon fill="none" stroke="black" points="404.5,-98.5 404.5,-128.5 563.5,-128.5 563.5,-98.5 404.5,-98.5"/>
<text text-anchor="start" x="412.5" y="-116.5" font-family="Helvetica,sans-Serif" font-size="10.00">zero_mate::arm1176jzf</text>
<text text-anchor="middle" x="484" y="-105.5" font-family="Helvetica,sans-Serif" font-size="10.00">_s::CCPU_Core::Execute_MRS</text>
</a>
</g>
</g>
<!-- Node1&#45;&gt;Node3 -->
<g id="edge2" class="edge">
<title>Node1&#45;&gt;Node3</title>
<path fill="none" stroke="midnightblue" d="M600.71,-99.28C588.39,-100.8 575.79,-102.35 563.65,-103.84"/>
<polygon fill="midnightblue" stroke="midnightblue" points="601.49,-102.72 610.98,-98.02 600.63,-95.77 601.49,-102.72"/>
</g>
<!-- Node5 -->
<g id="node5" class="node">
<title>Node5</title>
<g id="a_node5"><a xlink:href="classzero__mate_1_1arm1176jzf__s_1_1CCPU__Core.html#abe7461d09a52f28f99037717f61975c6" target="_top" xlink:title="Executes an MSR instruction (move data to CPSR/SPSR from an ARM register).">
<polygon fill="none" stroke="black" points="404.5,-49.5 404.5,-79.5 563.5,-79.5 563.5,-49.5 404.5,-49.5"/>
<text text-anchor="start" x="412.5" y="-67.5" font-family="Helvetica,sans-Serif" font-size="10.00">zero_mate::arm1176jzf</text>
<text text-anchor="middle" x="484" y="-56.5" font-family="Helvetica,sans-Serif" font-size="10.00">_s::CCPU_Core::Execute_MSR</text>
</a>
</g>
</g>
<!-- Node1&#45;&gt;Node5 -->
<g id="edge4" class="edge">
<title>Node1&#45;&gt;Node5</title>
<path fill="none" stroke="midnightblue" d="M600.71,-78.15C588.39,-76.69 575.79,-75.21 563.65,-73.78"/>
<polygon fill="midnightblue" stroke="midnightblue" points="600.64,-81.66 610.98,-79.36 601.46,-74.71 600.64,-81.66"/>
</g>
<!-- Node6 -->
<g id="node6" class="node">
<title>Node6</title>
<g id="a_node6"><a xlink:href="classzero__mate_1_1gui_1_1CRegisters__Window.html#ad3bf490925aef83d99eda63e054f7c43" target="_top" xlink:title=" ">
<polygon fill="none" stroke="black" points="393,-0.5 393,-30.5 575,-30.5 575,-0.5 393,-0.5"/>
<text text-anchor="start" x="401" y="-18.5" font-family="Helvetica,sans-Serif" font-size="10.00">zero_mate::gui::CRegisters</text>
<text text-anchor="middle" x="484" y="-7.5" font-family="Helvetica,sans-Serif" font-size="10.00">_Window::Render_Registers_Table</text>
</a>
</g>
</g>
<!-- Node1&#45;&gt;Node6 -->
<g id="edge6" class="edge">
<title>Node1&#45;&gt;Node6</title>
<path fill="none" stroke="midnightblue" d="M646.32,-69.13C625.17,-59.81 599,-48.87 575,-40.5 564.89,-36.98 554.02,-33.61 543.44,-30.55"/>
<polygon fill="midnightblue" stroke="midnightblue" points="645.11,-72.42 655.67,-73.28 647.95,-66.02 645.11,-72.42"/>
</g>
<!-- Node4 -->
<g id="node4" class="node">
<title>Node4</title>
<g id="a_node4"><a xlink:href="classzero__mate_1_1arm1176jzf__s_1_1CCPU__Core.html#a3a90c040b3cbe4545a9acc5e35acdd45" target="_top" xlink:title="Executes a PSR transfer instruction.">
<polygon fill="none" stroke="black" points="204.5,-73.5 204.5,-103.5 336.5,-103.5 336.5,-73.5 204.5,-73.5"/>
<text text-anchor="start" x="212.5" y="-91.5" font-family="Helvetica,sans-Serif" font-size="10.00">zero_mate::arm1176jzf</text>
<text text-anchor="middle" x="270.5" y="-80.5" font-family="Helvetica,sans-Serif" font-size="10.00">_s::CCPU_Core::Execute</text>
</a>
</g>
</g>
<!-- Node3&#45;&gt;Node4 -->
<g id="edge3" class="edge">
<title>Node3&#45;&gt;Node4</title>
<path fill="none" stroke="midnightblue" d="M394.26,-103.01C375.01,-100.74 354.99,-98.37 336.83,-96.22"/>
<polygon fill="midnightblue" stroke="midnightblue" points="393.9,-106.49 404.25,-104.19 394.73,-99.54 393.9,-106.49"/>
</g>
<!-- Node5&#45;&gt;Node4 -->
<g id="edge5" class="edge">
<title>Node5&#45;&gt;Node4</title>
<path fill="none" stroke="midnightblue" d="M394.26,-74.57C375.01,-76.75 354.99,-79.03 336.83,-81.09"/>
<polygon fill="midnightblue" stroke="midnightblue" points="394.7,-78.04 404.25,-73.44 393.91,-71.09 394.7,-78.04"/>
</g>
<!-- Node7 -->
<g id="node7" class="node">
<title>Node7</title>
<g id="a_node7"><a xlink:href="classzero__mate_1_1gui_1_1CRegisters__Window.html#acd9fc32fa1db2adfa6de67fdcd47035c" target="_top" xlink:title=" ">
<polygon fill="none" stroke="black" points="184,-0.5 184,-30.5 357,-30.5 357,-0.5 184,-0.5"/>
<text text-anchor="start" x="192" y="-18.5" font-family="Helvetica,sans-Serif" font-size="10.00">zero_mate::gui::CRegisters</text>
<text text-anchor="middle" x="270.5" y="-7.5" font-family="Helvetica,sans-Serif" font-size="10.00">_Window::Render_Register_Tabs</text>
</a>
</g>
</g>
<!-- Node6&#45;&gt;Node7 -->
<g id="edge7" class="edge">
<title>Node6&#45;&gt;Node7</title>
<path fill="none" stroke="midnightblue" d="M382.89,-15.5C374.25,-15.5 365.56,-15.5 357.05,-15.5"/>
<polygon fill="midnightblue" stroke="midnightblue" points="383,-19 393,-15.5 383,-12 383,-19"/>
</g>
<!-- Node8 -->
<g id="node8" class="node">
<title>Node8</title>
<g id="a_node8"><a xlink:href="classzero__mate_1_1gui_1_1CRegisters__Window.html#a12beb19205052a340193be90b32e5717" target="_top" xlink:title=" ">
<polygon fill="none" stroke="black" points="0,-0.5 0,-30.5 148,-30.5 148,-0.5 0,-0.5"/>
<text text-anchor="start" x="8" y="-18.5" font-family="Helvetica,sans-Serif" font-size="10.00">zero_mate::gui::CRegisters</text>
<text text-anchor="middle" x="74" y="-7.5" font-family="Helvetica,sans-Serif" font-size="10.00">_Window::Render</text>
</a>
</g>
</g>
<!-- Node7&#45;&gt;Node8 -->
<g id="edge8" class="edge">
<title>Node7&#45;&gt;Node8</title>
<path fill="none" stroke="midnightblue" d="M173.81,-15.5C165.18,-15.5 156.54,-15.5 148.15,-15.5"/>
<polygon fill="midnightblue" stroke="midnightblue" points="173.91,-19 183.91,-15.5 173.91,-12 173.91,-19"/>
</g>
</g>
</svg>
