<?xml version="1.0" encoding="UTF-8" standalone="no"?>
<!DOCTYPE svg PUBLIC "-//W3C//DTD SVG 1.1//EN"
 "http://www.w3.org/Graphics/SVG/1.1/DTD/svg11.dtd">
<!-- Generated by graphviz version 2.43.0 (0)
 -->
<!-- Title: zero_mate::peripheral::CARM_Timer::Increment_Passed_Cycles Pages: 1 -->
<svg width="527pt" height="258pt"
 viewBox="0.00 0.00 527.00 257.50" xmlns="http://www.w3.org/2000/svg" xmlns:xlink="http://www.w3.org/1999/xlink">
<g id="graph0" class="graph" transform="scale(1 1) rotate(0) translate(4 253.5)">
<title>zero_mate::peripheral::CARM_Timer::Increment_Passed_Cycles</title>
<!-- Node1 -->
<g id="node1" class="node">
<title>Node1</title>
<g id="a_node1"><a xlink:title="Updates the timer (ISystem_Clock_Listener interface).">
<polygon fill="#bfbfbf" stroke="black" points="0,-120.5 0,-161.5 141,-161.5 141,-120.5 0,-120.5"/>
<text text-anchor="start" x="8" y="-149.5" font-family="Helvetica,sans-Serif" font-size="10.00">zero_mate::peripheral</text>
<text text-anchor="start" x="8" y="-138.5" font-family="Helvetica,sans-Serif" font-size="10.00">::CARM_Timer::Increment</text>
<text text-anchor="middle" x="70.5" y="-127.5" font-family="Helvetica,sans-Serif" font-size="10.00">_Passed_Cycles</text>
</a>
</g>
</g>
<!-- Node2 -->
<g id="node2" class="node">
<title>Node2</title>
<g id="a_node2"><a xlink:href="classzero__mate_1_1peripheral_1_1CARM__Timer.html#a6f089d92275345a7f7a363c942bc8692" target="_top" xlink:title="Returns the current content of the control register.">
<polygon fill="none" stroke="black" points="177,-219 177,-249 350,-249 350,-219 177,-219"/>
<text text-anchor="start" x="185" y="-237" font-family="Helvetica,sans-Serif" font-size="10.00">zero_mate::peripheral</text>
<text text-anchor="middle" x="263.5" y="-226" font-family="Helvetica,sans-Serif" font-size="10.00">::CARM_Timer::Get_Control_Reg</text>
</a>
</g>
</g>
<!-- Node1&#45;&gt;Node2 -->
<g id="edge1" class="edge">
<title>Node1&#45;&gt;Node2</title>
<path fill="none" stroke="midnightblue" d="M102.45,-161.73C123.01,-174.94 150.92,-191.79 177,-204 185.67,-208.06 195.05,-211.88 204.31,-215.36"/>
<polygon fill="midnightblue" stroke="midnightblue" points="203.29,-218.71 213.89,-218.84 205.69,-212.13 203.29,-218.71"/>
</g>
<!-- Node3 -->
<g id="node3" class="node">
<title>Node3</title>
<g id="a_node3"><a xlink:href="classzero__mate_1_1peripheral_1_1CARM__Timer.html#a8aa88bde21b52e4ae5132f8e2a5fb73a" target="_top" xlink:title="Returns the current content of a register.">
<polygon fill="none" stroke="black" points="386,-175 386,-205 519,-205 519,-175 386,-175"/>
<text text-anchor="start" x="394" y="-193" font-family="Helvetica,sans-Serif" font-size="10.00">zero_mate::peripheral</text>
<text text-anchor="middle" x="452.5" y="-182" font-family="Helvetica,sans-Serif" font-size="10.00">::CARM_Timer::Get_Reg</text>
</a>
</g>
</g>
<!-- Node1&#45;&gt;Node3 -->
<g id="edge3" class="edge">
<title>Node1&#45;&gt;Node3</title>
<path fill="none" stroke="midnightblue" d="M135.73,-161.56C149.24,-165.23 163.49,-168.64 177,-171 243.56,-182.64 320.37,-187.21 375.78,-188.98"/>
<polygon fill="midnightblue" stroke="midnightblue" points="375.77,-192.48 385.87,-189.28 375.98,-185.49 375.77,-192.48"/>
</g>
<!-- Node4 -->
<g id="node4" class="node">
<title>Node4</title>
<g id="a_node4"><a xlink:href="classzero__mate_1_1peripheral_1_1CARM__Timer_1_1CPrescaler.html#a4e0c606ec657b298b2d5c6db851e9ecf" target="_top" xlink:title="Updates the prescaler.">
<polygon fill="none" stroke="black" points="192,-120.5 192,-161.5 335,-161.5 335,-120.5 192,-120.5"/>
<text text-anchor="start" x="200" y="-149.5" font-family="Helvetica,sans-Serif" font-size="10.00">zero_mate::peripheral</text>
<text text-anchor="start" x="200" y="-138.5" font-family="Helvetica,sans-Serif" font-size="10.00">::CARM_Timer::CPrescaler</text>
<text text-anchor="middle" x="263.5" y="-127.5" font-family="Helvetica,sans-Serif" font-size="10.00">::Prescale_Cycle_Passed</text>
</a>
</g>
</g>
<!-- Node1&#45;&gt;Node4 -->
<g id="edge4" class="edge">
<title>Node1&#45;&gt;Node4</title>
<path fill="none" stroke="midnightblue" d="M141.27,-141C154.43,-141 168.3,-141 181.76,-141"/>
<polygon fill="midnightblue" stroke="midnightblue" points="181.96,-144.5 191.96,-141 181.96,-137.5 181.96,-144.5"/>
</g>
<!-- Node5 -->
<g id="node5" class="node">
<title>Node5</title>
<g id="a_node5"><a xlink:href="classzero__mate_1_1peripheral_1_1CARM__Timer_1_1CPrescaler.html#a781c1f391f64fd775d32b65dee2ba98d" target="_top" xlink:title="Sets a new limit of the prescaler.">
<polygon fill="none" stroke="black" points="192,-60.5 192,-101.5 335,-101.5 335,-60.5 192,-60.5"/>
<text text-anchor="start" x="200" y="-89.5" font-family="Helvetica,sans-Serif" font-size="10.00">zero_mate::peripheral</text>
<text text-anchor="start" x="200" y="-78.5" font-family="Helvetica,sans-Serif" font-size="10.00">::CARM_Timer::CPrescaler</text>
<text text-anchor="middle" x="263.5" y="-67.5" font-family="Helvetica,sans-Serif" font-size="10.00">::Set_Limit</text>
</a>
</g>
</g>
<!-- Node1&#45;&gt;Node5 -->
<g id="edge5" class="edge">
<title>Node1&#45;&gt;Node5</title>
<path fill="none" stroke="midnightblue" d="M136.96,-120.44C153.21,-115.33 170.75,-109.82 187.42,-104.58"/>
<polygon fill="midnightblue" stroke="midnightblue" points="188.63,-107.87 197.12,-101.54 186.53,-101.2 188.63,-107.87"/>
</g>
<!-- Node6 -->
<g id="node6" class="node">
<title>Node6</title>
<g id="a_node6"><a xlink:href="classzero__mate_1_1peripheral_1_1CARM__Timer.html#a9abc7d434c8ec8120e49e2add79e7346" target="_top" xlink:title="This procedure is called whenever the timer reaches 0 (helper function).">
<polygon fill="none" stroke="black" points="191.5,-0.5 191.5,-41.5 335.5,-41.5 335.5,-0.5 191.5,-0.5"/>
<text text-anchor="start" x="199.5" y="-29.5" font-family="Helvetica,sans-Serif" font-size="10.00">zero_mate::peripheral</text>
<text text-anchor="start" x="199.5" y="-18.5" font-family="Helvetica,sans-Serif" font-size="10.00">::CARM_Timer::Timer_Has</text>
<text text-anchor="middle" x="263.5" y="-7.5" font-family="Helvetica,sans-Serif" font-size="10.00">_Reached_Zero</text>
</a>
</g>
</g>
<!-- Node1&#45;&gt;Node6 -->
<g id="edge6" class="edge">
<title>Node1&#45;&gt;Node6</title>
<path fill="none" stroke="midnightblue" d="M91.17,-120.25C111.16,-100.18 143.82,-70.08 177,-51 180.19,-49.17 183.51,-47.42 186.9,-45.75"/>
<polygon fill="midnightblue" stroke="midnightblue" points="188.43,-48.91 196.05,-41.55 185.51,-42.55 188.43,-48.91"/>
</g>
<!-- Node2&#45;&gt;Node3 -->
<g id="edge2" class="edge">
<title>Node2&#45;&gt;Node3</title>
<path fill="none" stroke="midnightblue" d="M328.33,-218.98C344.19,-215.25 361.32,-211.22 377.62,-207.38"/>
<polygon fill="midnightblue" stroke="midnightblue" points="378.71,-210.72 387.64,-205.03 377.1,-203.91 378.71,-210.72"/>
</g>
<!-- Node6&#45;&gt;Node3 -->
<g id="edge7" class="edge">
<title>Node6&#45;&gt;Node3</title>
<path fill="none" stroke="midnightblue" d="M334.9,-41.68C340.22,-44.44 345.33,-47.53 350,-51 391.56,-81.86 423.36,-134.62 439.57,-165.49"/>
<polygon fill="midnightblue" stroke="midnightblue" points="436.61,-167.39 444.28,-174.69 442.84,-164.2 436.61,-167.39"/>
</g>
</g>
</svg>
