<?xml version="1.0" encoding="UTF-8" standalone="no"?>
<!DOCTYPE svg PUBLIC "-//W3C//DTD SVG 1.1//EN"
 "http://www.w3.org/Graphics/SVG/1.1/DTD/svg11.dtd">
<!-- Generated by graphviz version 2.43.0 (0)
 -->
<!-- Title: zero_mate::peripheral::CGPIO_Manager::Notify_External_Peripherals Pages: 1 -->
<svg width="494pt" height="50pt"
 viewBox="0.00 0.00 494.00 50.00" xmlns="http://www.w3.org/2000/svg" xmlns:xlink="http://www.w3.org/1999/xlink">
<g id="graph0" class="graph" transform="scale(1 1) rotate(0) translate(4 46)">
<title>zero_mate::peripheral::CGPIO_Manager::Notify_External_Peripherals</title>
<!-- Node1 -->
<g id="node1" class="node">
<title>Node1</title>
<g id="a_node1"><a xlink:title="Notifies external peripherals that subscribe to the given pin about the change of its state.">
<polygon fill="#bfbfbf" stroke="black" points="349,-0.5 349,-41.5 486,-41.5 486,-0.5 349,-0.5"/>
<text text-anchor="start" x="357" y="-29.5" font-family="Helvetica,sans-Serif" font-size="10.00">zero_mate::peripheral</text>
<text text-anchor="start" x="357" y="-18.5" font-family="Helvetica,sans-Serif" font-size="10.00">::CGPIO_Manager::Notify</text>
<text text-anchor="middle" x="417.5" y="-7.5" font-family="Helvetica,sans-Serif" font-size="10.00">_External_Peripherals</text>
</a>
</g>
</g>
<!-- Node2 -->
<g id="node2" class="node">
<title>Node2</title>
<g id="a_node2"><a xlink:href="classzero__mate_1_1peripheral_1_1CGPIO__Manager.html#ae93785da50eefb8a8cc21c1c59a32726" target="_top" xlink:title="Updates the state of all pins within a given register.">
<polygon fill="none" stroke="black" points="170,-0.5 170,-41.5 313,-41.5 313,-0.5 170,-0.5"/>
<text text-anchor="start" x="178" y="-29.5" font-family="Helvetica,sans-Serif" font-size="10.00">zero_mate::peripheral</text>
<text text-anchor="start" x="178" y="-18.5" font-family="Helvetica,sans-Serif" font-size="10.00">::CGPIO_Manager::Update</text>
<text text-anchor="middle" x="241.5" y="-7.5" font-family="Helvetica,sans-Serif" font-size="10.00">_Pin_State</text>
</a>
</g>
</g>
<!-- Node1&#45;&gt;Node2 -->
<g id="edge1" class="edge">
<title>Node1&#45;&gt;Node2</title>
<path fill="none" stroke="midnightblue" d="M338.53,-21C330.11,-21 321.58,-21 313.25,-21"/>
<polygon fill="midnightblue" stroke="midnightblue" points="338.73,-24.5 348.73,-21 338.73,-17.5 338.73,-24.5"/>
</g>
<!-- Node3 -->
<g id="node3" class="node">
<title>Node3</title>
<g id="a_node3"><a xlink:href="classzero__mate_1_1peripheral_1_1CGPIO__Manager.html#a26aa957dbb7682447e4ebf9aa078c00c" target="_top" xlink:title="Writes data to the peripheral (IPeripheral interface).">
<polygon fill="none" stroke="black" points="0,-6 0,-36 134,-36 134,-6 0,-6"/>
<text text-anchor="start" x="8" y="-24" font-family="Helvetica,sans-Serif" font-size="10.00">zero_mate::peripheral</text>
<text text-anchor="middle" x="67" y="-13" font-family="Helvetica,sans-Serif" font-size="10.00">::CGPIO_Manager::Write</text>
</a>
</g>
</g>
<!-- Node2&#45;&gt;Node3 -->
<g id="edge2" class="edge">
<title>Node2&#45;&gt;Node3</title>
<path fill="none" stroke="midnightblue" d="M159.79,-21C151.19,-21 142.51,-21 134.11,-21"/>
<polygon fill="midnightblue" stroke="midnightblue" points="159.84,-24.5 169.84,-21 159.84,-17.5 159.84,-24.5"/>
</g>
</g>
</svg>
