<?xml version="1.0" encoding="UTF-8" standalone="no"?>
<!DOCTYPE svg PUBLIC "-//W3C//DTD SVG 1.1//EN"
 "http://www.w3.org/Graphics/SVG/1.1/DTD/svg11.dtd">
<!-- Generated by graphviz version 2.43.0 (0)
 -->
<!-- Title: zero_mate::peripheral::CMini_UART::Get_Baud_Rate_Counter Pages: 1 -->
<svg width="495pt" height="100pt"
 viewBox="0.00 0.00 495.00 99.50" xmlns="http://www.w3.org/2000/svg" xmlns:xlink="http://www.w3.org/1999/xlink">
<g id="graph0" class="graph" transform="scale(1 1) rotate(0) translate(4 95.5)">
<title>zero_mate::peripheral::CMini_UART::Get_Baud_Rate_Counter</title>
<!-- Node1 -->
<g id="node1" class="node">
<title>Node1</title>
<g id="a_node1"><a xlink:title="Returns the set up baud rate.">
<polygon fill="#bfbfbf" stroke="black" points="353,-22 353,-63 487,-63 487,-22 353,-22"/>
<text text-anchor="start" x="361" y="-51" font-family="Helvetica,sans-Serif" font-size="10.00">zero_mate::peripheral</text>
<text text-anchor="start" x="361" y="-40" font-family="Helvetica,sans-Serif" font-size="10.00">::CMini_UART::Get_Baud</text>
<text text-anchor="middle" x="420" y="-29" font-family="Helvetica,sans-Serif" font-size="10.00">_Rate_Counter</text>
</a>
</g>
</g>
<!-- Node2 -->
<g id="node2" class="node">
<title>Node2</title>
<g id="a_node2"><a xlink:href="classzero__mate_1_1peripheral_1_1CMini__UART.html#aae5f7e2bbffa6e3881675058a0aedf6f" target="_top" xlink:title="Updates the number of passed CPU cycles (forwarded from the AUX peripheral).">
<polygon fill="none" stroke="black" points="169.5,-50 169.5,-91 306.5,-91 306.5,-50 169.5,-50"/>
<text text-anchor="start" x="177.5" y="-79" font-family="Helvetica,sans-Serif" font-size="10.00">zero_mate::peripheral</text>
<text text-anchor="start" x="177.5" y="-68" font-family="Helvetica,sans-Serif" font-size="10.00">::CMini_UART::Increment</text>
<text text-anchor="middle" x="238" y="-57" font-family="Helvetica,sans-Serif" font-size="10.00">_Passed_Cycles</text>
</a>
</g>
</g>
<!-- Node1&#45;&gt;Node2 -->
<g id="edge1" class="edge">
<title>Node1&#45;&gt;Node2</title>
<path fill="none" stroke="midnightblue" d="M342.93,-54.33C330.83,-56.21 318.39,-58.15 306.5,-60"/>
<polygon fill="midnightblue" stroke="midnightblue" points="343.65,-57.76 353,-52.77 342.58,-50.85 343.65,-57.76"/>
</g>
<!-- Node3 -->
<g id="node3" class="node">
<title>Node3</title>
<g id="a_node3"><a xlink:href="classzero__mate_1_1gui_1_1CAUX__Window.html#a84134555bb7100075f909c0de2f0829b" target="_top" xlink:title="Renders information related to the mini UART auxiliary peripheral.">
<polygon fill="none" stroke="black" points="159,-0.5 159,-30.5 317,-30.5 317,-0.5 159,-0.5"/>
<text text-anchor="start" x="167" y="-18.5" font-family="Helvetica,sans-Serif" font-size="10.00">zero_mate::gui::CAUX</text>
<text text-anchor="middle" x="238" y="-7.5" font-family="Helvetica,sans-Serif" font-size="10.00">_Window::Render_Mini_UART</text>
</a>
</g>
</g>
<!-- Node1&#45;&gt;Node3 -->
<g id="edge2" class="edge">
<title>Node1&#45;&gt;Node3</title>
<path fill="none" stroke="midnightblue" d="M343.06,-31.11C334.51,-29.83 325.78,-28.52 317.21,-27.23"/>
<polygon fill="midnightblue" stroke="midnightblue" points="342.59,-34.58 353,-32.6 343.63,-27.65 342.59,-34.58"/>
</g>
<!-- Node4 -->
<g id="node4" class="node">
<title>Node4</title>
<g id="a_node4"><a xlink:href="classzero__mate_1_1gui_1_1CAUX__Window.html#a1441eb934e43fe96d1324da6f0b9d2a0" target="_top" xlink:title="Renders GPIO pins (IGUI_Window interface).">
<polygon fill="none" stroke="black" points="0,-0.5 0,-30.5 123,-30.5 123,-0.5 0,-0.5"/>
<text text-anchor="start" x="8" y="-18.5" font-family="Helvetica,sans-Serif" font-size="10.00">zero_mate::gui::CAUX</text>
<text text-anchor="middle" x="61.5" y="-7.5" font-family="Helvetica,sans-Serif" font-size="10.00">_Window::Render</text>
</a>
</g>
</g>
<!-- Node3&#45;&gt;Node4 -->
<g id="edge3" class="edge">
<title>Node3&#45;&gt;Node4</title>
<path fill="none" stroke="midnightblue" d="M148.8,-15.5C140.14,-15.5 131.5,-15.5 123.22,-15.5"/>
<polygon fill="midnightblue" stroke="midnightblue" points="148.94,-19 158.94,-15.5 148.94,-12 148.94,-19"/>
</g>
</g>
</svg>
