<?xml version="1.0" encoding="UTF-8" standalone="no"?>
<!DOCTYPE svg PUBLIC "-//W3C//DTD SVG 1.1//EN"
 "http://www.w3.org/Graphics/SVG/1.1/DTD/svg11.dtd">
<!-- Generated by graphviz version 2.43.0 (0)
 -->
<!-- Title: zero_mate::arm1176jzf_s::CCPU_Core::Execute Pages: 1 -->
<svg width="1078pt" height="587pt"
 viewBox="0.00 0.00 1078.00 586.70" xmlns="http://www.w3.org/2000/svg" xmlns:xlink="http://www.w3.org/1999/xlink">
<g id="graph0" class="graph" transform="scale(1 1) rotate(0) translate(4 582.7)">
<title>zero_mate::arm1176jzf_s::CCPU_Core::Execute</title>
<!-- Node1 -->
<g id="node1" class="node">
<title>Node1</title>
<g id="a_node1"><a xlink:title="Executes a data processing instruction.">
<polygon fill="#bfbfbf" stroke="black" points="0,-262.5 0,-292.5 132,-292.5 132,-262.5 0,-262.5"/>
<text text-anchor="start" x="8" y="-280.5" font-family="Helvetica,sans-Serif" font-size="10.00">zero_mate::arm1176jzf</text>
<text text-anchor="middle" x="66" y="-269.5" font-family="Helvetica,sans-Serif" font-size="10.00">_s::CCPU_Core::Execute</text>
</a>
</g>
</g>
<!-- Node2 -->
<g id="node2" class="node">
<title>Node2</title>
<g id="a_node2"><a xlink:href="classzero__mate_1_1utils_1_1CLogging__System.html#a57ed77e1a5cf822cea532cc5e05c3f60" target="_top" xlink:title="Logs an error message via all registered loggers.">
<polygon fill="none" stroke="black" points="540,-262.5 540,-292.5 686,-292.5 686,-262.5 540,-262.5"/>
<text text-anchor="start" x="548" y="-280.5" font-family="Helvetica,sans-Serif" font-size="10.00">zero_mate::utils::CLogging</text>
<text text-anchor="middle" x="613" y="-269.5" font-family="Helvetica,sans-Serif" font-size="10.00">_System::Error</text>
</a>
</g>
</g>
<!-- Node1&#45;&gt;Node2 -->
<g id="edge1" class="edge">
<title>Node1&#45;&gt;Node2</title>
<path fill="none" stroke="midnightblue" d="M71,-292.61C81.15,-328.06 111.2,-417.29 168,-466.5 283.28,-566.39 377.07,-621.1 504,-536.5 584.4,-482.91 605.05,-356.9 610.27,-302.85"/>
<polygon fill="midnightblue" stroke="midnightblue" points="613.77,-303.01 611.14,-292.75 606.79,-302.41 613.77,-303.01"/>
</g>
<!-- Node7 -->
<g id="node7" class="node">
<title>Node7</title>
<g id="a_node7"><a xlink:href="namespacezero__mate_1_1arm1176jzf__s_1_1alu.html#a73ff714734ac2e53a9374d1f2b9877d6" target="_top" xlink:title="Performs an ALU operation.">
<polygon fill="none" stroke="black" points="181.5,-426.5 181.5,-456.5 311.5,-456.5 311.5,-426.5 181.5,-426.5"/>
<text text-anchor="start" x="189.5" y="-444.5" font-family="Helvetica,sans-Serif" font-size="10.00">zero_mate::arm1176jzf</text>
<text text-anchor="middle" x="246.5" y="-433.5" font-family="Helvetica,sans-Serif" font-size="10.00">_s::alu::Execute</text>
</a>
</g>
</g>
<!-- Node1&#45;&gt;Node7 -->
<g id="edge6" class="edge">
<title>Node1&#45;&gt;Node7</title>
<path fill="none" stroke="midnightblue" d="M74.09,-292.92C88,-321.51 121.63,-382.89 168,-416.5 170.63,-418.41 173.42,-420.18 176.31,-421.81"/>
<polygon fill="midnightblue" stroke="midnightblue" points="174.73,-424.94 185.24,-426.34 177.9,-418.69 174.73,-424.94"/>
</g>
<!-- Node8 -->
<g id="node8" class="node">
<title>Node8</title>
<g id="a_node8"><a xlink:href="classzero__mate_1_1arm1176jzf__s_1_1CCPU__Context.html#aa740f9219bb413d707ac72f373e60d3a" target="_top" xlink:title="Returns the current mode of the CPU.">
<polygon fill="none" stroke="black" points="367.5,-306 367.5,-347 497.5,-347 497.5,-306 367.5,-306"/>
<text text-anchor="start" x="375.5" y="-335" font-family="Helvetica,sans-Serif" font-size="10.00">zero_mate::arm1176jzf</text>
<text text-anchor="start" x="375.5" y="-324" font-family="Helvetica,sans-Serif" font-size="10.00">_s::CCPU_Context::Get</text>
<text text-anchor="middle" x="432.5" y="-313" font-family="Helvetica,sans-Serif" font-size="10.00">_CPU_Mode</text>
</a>
</g>
</g>
<!-- Node1&#45;&gt;Node8 -->
<g id="edge7" class="edge">
<title>Node1&#45;&gt;Node8</title>
<path fill="none" stroke="midnightblue" d="M124.14,-292.53C138.39,-295.88 153.69,-299.13 168,-301.5 231.46,-312 304.3,-318.49 357.29,-322.22"/>
<polygon fill="midnightblue" stroke="midnightblue" points="357.07,-325.71 367.28,-322.91 357.55,-318.73 357.07,-325.71"/>
</g>
<!-- Node9 -->
<g id="node9" class="node">
<title>Node9</title>
<g id="a_node9"><a xlink:href="classzero__mate_1_1arm1176jzf__s_1_1CCPU__Core.html#aa5b55276e454abfced2b5714b936e98d" target="_top" xlink:title="Calculates the second operand of a data processing instruction.">
<polygon fill="none" stroke="black" points="170.5,-366 170.5,-407 322.5,-407 322.5,-366 170.5,-366"/>
<text text-anchor="start" x="178.5" y="-395" font-family="Helvetica,sans-Serif" font-size="10.00">zero_mate::arm1176jzf</text>
<text text-anchor="start" x="178.5" y="-384" font-family="Helvetica,sans-Serif" font-size="10.00">_s::CCPU_Core::Get_Second</text>
<text text-anchor="middle" x="246.5" y="-373" font-family="Helvetica,sans-Serif" font-size="10.00">_Operand</text>
</a>
</g>
</g>
<!-- Node1&#45;&gt;Node9 -->
<g id="edge8" class="edge">
<title>Node1&#45;&gt;Node9</title>
<path fill="none" stroke="midnightblue" d="M91.82,-292.66C120.49,-310.16 168.14,-339.26 202.8,-360.42"/>
<polygon fill="midnightblue" stroke="midnightblue" points="201.4,-363.67 211.76,-365.89 205.04,-357.7 201.4,-363.67"/>
</g>
<!-- Node13 -->
<g id="node13" class="node">
<title>Node13</title>
<g id="a_node13"><a xlink:href="classzero__mate_1_1arm1176jzf__s_1_1CCPU__Context.html#ae00681efcbc4adfcfde001a67c5baeca" target="_top" xlink:title="Returns the value of the SPSR register of the current CPU mode.">
<polygon fill="none" stroke="black" points="168,-213.5 168,-243.5 325,-243.5 325,-213.5 168,-213.5"/>
<text text-anchor="start" x="176" y="-231.5" font-family="Helvetica,sans-Serif" font-size="10.00">zero_mate::arm1176jzf</text>
<text text-anchor="middle" x="246.5" y="-220.5" font-family="Helvetica,sans-Serif" font-size="10.00">_s::CCPU_Context::Get_SPSR</text>
</a>
</g>
</g>
<!-- Node1&#45;&gt;Node13 -->
<g id="edge12" class="edge">
<title>Node1&#45;&gt;Node13</title>
<path fill="none" stroke="midnightblue" d="M122.01,-262.4C140.59,-257.3 161.51,-251.56 180.77,-246.27"/>
<polygon fill="midnightblue" stroke="midnightblue" points="181.95,-249.57 190.67,-243.55 180.1,-242.82 181.95,-249.57"/>
</g>
<!-- Node15 -->
<g id="node15" class="node">
<title>Node15</title>
<g id="a_node15"><a xlink:href="classzero__mate_1_1arm1176jzf__s_1_1CCPU__Context.html#a6fc387fa0b0dd040c4e2463606d933e4" target="_top" xlink:title="Checks if the CPU mode passed in as a parameter supports the SPSR register or not.">
<polygon fill="none" stroke="black" points="548,-64 548,-105 678,-105 678,-64 548,-64"/>
<text text-anchor="start" x="556" y="-93" font-family="Helvetica,sans-Serif" font-size="10.00">zero_mate::arm1176jzf</text>
<text text-anchor="start" x="556" y="-82" font-family="Helvetica,sans-Serif" font-size="10.00">_s::CCPU_Context::Is</text>
<text text-anchor="middle" x="613" y="-71" font-family="Helvetica,sans-Serif" font-size="10.00">_Mode_With_No_SPSR</text>
</a>
</g>
</g>
<!-- Node1&#45;&gt;Node15 -->
<g id="edge17" class="edge">
<title>Node1&#45;&gt;Node15</title>
<path fill="none" stroke="midnightblue" d="M74.5,-262.27C88.86,-234.62 122.87,-176.05 168,-143.5 277.53,-64.5 442.79,-65.53 537.76,-74.37"/>
<polygon fill="midnightblue" stroke="midnightblue" points="537.56,-77.87 547.85,-75.36 538.25,-70.9 537.56,-77.87"/>
</g>
<!-- Node16 -->
<g id="node16" class="node">
<title>Node16</title>
<g id="a_node16"><a xlink:href="classzero__mate_1_1arm1176jzf__s_1_1CCPU__Context.html#a0013811c3eef6d91ddfd2423a08889ef" target="_top" xlink:title="Checks whether a given flag is set in the CPSR register of the current CPU mode.">
<polygon fill="none" stroke="black" points="181.5,-153 181.5,-194 311.5,-194 311.5,-153 181.5,-153"/>
<text text-anchor="start" x="189.5" y="-182" font-family="Helvetica,sans-Serif" font-size="10.00">zero_mate::arm1176jzf</text>
<text text-anchor="start" x="189.5" y="-171" font-family="Helvetica,sans-Serif" font-size="10.00">_s::CCPU_Context::Is</text>
<text text-anchor="middle" x="246.5" y="-160" font-family="Helvetica,sans-Serif" font-size="10.00">_Flag_Set</text>
</a>
</g>
</g>
<!-- Node1&#45;&gt;Node16 -->
<g id="edge16" class="edge">
<title>Node1&#45;&gt;Node16</title>
<path fill="none" stroke="midnightblue" d="M84.64,-262.33C104.07,-246.17 136.73,-220.62 168,-203.5 171.23,-201.73 174.58,-200.02 178,-198.37"/>
<polygon fill="midnightblue" stroke="midnightblue" points="179.56,-201.51 187.18,-194.15 176.64,-195.15 179.56,-201.51"/>
</g>
<!-- Node17 -->
<g id="node17" class="node">
<title>Node17</title>
<g id="a_node17"><a xlink:href="classzero__mate_1_1arm1176jzf__s_1_1CCPU__Context.html#a53765299c790cc790e15deb2c701bd2a" target="_top" xlink:title="Sets a new value to the CPSR register.">
<polygon fill="none" stroke="black" points="168.5,-262.5 168.5,-292.5 324.5,-292.5 324.5,-262.5 168.5,-262.5"/>
<text text-anchor="start" x="176.5" y="-280.5" font-family="Helvetica,sans-Serif" font-size="10.00">zero_mate::arm1176jzf</text>
<text text-anchor="middle" x="246.5" y="-269.5" font-family="Helvetica,sans-Serif" font-size="10.00">_s::CCPU_Context::Set_CPSR</text>
</a>
</g>
</g>
<!-- Node1&#45;&gt;Node17 -->
<g id="edge18" class="edge">
<title>Node1&#45;&gt;Node17</title>
<path fill="none" stroke="midnightblue" d="M132.2,-277.5C140.65,-277.5 149.4,-277.5 158.14,-277.5"/>
<polygon fill="midnightblue" stroke="midnightblue" points="158.36,-281 168.36,-277.5 158.36,-274 158.36,-281"/>
</g>
<!-- Node20 -->
<g id="node20" class="node">
<title>Node20</title>
<g id="a_node20"><a xlink:href="classzero__mate_1_1arm1176jzf__s_1_1CCPU__Context.html#a984bace2773aca71cf04701aa0ce9c54" target="_top" xlink:title="Sets/resets a flag in the CPSR register of the current CPU mode.">
<polygon fill="none" stroke="black" points="170.5,-0.5 170.5,-30.5 322.5,-30.5 322.5,-0.5 170.5,-0.5"/>
<text text-anchor="start" x="178.5" y="-18.5" font-family="Helvetica,sans-Serif" font-size="10.00">zero_mate::arm1176jzf</text>
<text text-anchor="middle" x="246.5" y="-7.5" font-family="Helvetica,sans-Serif" font-size="10.00">_s::CCPU_Context::Set_Flag</text>
</a>
</g>
</g>
<!-- Node1&#45;&gt;Node20 -->
<g id="edge23" class="edge">
<title>Node1&#45;&gt;Node20</title>
<path fill="none" stroke="midnightblue" d="M69.42,-262.47C76.72,-221.83 102.23,-108.61 168,-45.5 171.97,-41.69 176.47,-38.35 181.27,-35.43"/>
<polygon fill="midnightblue" stroke="midnightblue" points="183.04,-38.45 190.16,-30.6 179.7,-32.3 183.04,-38.45"/>
</g>
<!-- Node3 -->
<g id="node3" class="node">
<title>Node3</title>
<g id="a_node3"><a xlink:href="classzero__mate_1_1utils_1_1CLogging__System.html#a71ed11c796553cbe8fd99773406a1060" target="_top" xlink:title="Creates a formatted message to be logged.">
<polygon fill="none" stroke="black" points="722,-284 722,-325 874,-325 874,-284 722,-284"/>
<text text-anchor="start" x="730" y="-313" font-family="Helvetica,sans-Serif" font-size="10.00">zero_mate::utils::CLogging</text>
<text text-anchor="start" x="730" y="-302" font-family="Helvetica,sans-Serif" font-size="10.00">_System::Create_Formatted</text>
<text text-anchor="middle" x="798" y="-291" font-family="Helvetica,sans-Serif" font-size="10.00">_Log_Msg</text>
</a>
</g>
</g>
<!-- Node2&#45;&gt;Node3 -->
<g id="edge2" class="edge">
<title>Node2&#45;&gt;Node3</title>
<path fill="none" stroke="midnightblue" d="M686.06,-288.13C694.55,-289.38 703.26,-290.67 711.9,-291.94"/>
<polygon fill="midnightblue" stroke="midnightblue" points="711.59,-295.44 721.99,-293.43 712.61,-288.51 711.59,-295.44"/>
</g>
<!-- Node6 -->
<g id="node6" class="node">
<title>Node6</title>
<g id="a_node6"><a xlink:href="classzero__mate_1_1utils_1_1CLogging__System.html#ad371c67ef65763966ccf9291002e86f3" target="_top" xlink:title="Extract the filename from a given location within the source files.">
<polygon fill="none" stroke="black" points="723.5,-234.5 723.5,-264.5 872.5,-264.5 872.5,-234.5 723.5,-234.5"/>
<text text-anchor="start" x="731.5" y="-252.5" font-family="Helvetica,sans-Serif" font-size="10.00">zero_mate::utils::CLogging</text>
<text text-anchor="middle" x="798" y="-241.5" font-family="Helvetica,sans-Serif" font-size="10.00">_System::Extract_Filename</text>
</a>
</g>
</g>
<!-- Node2&#45;&gt;Node6 -->
<g id="edge5" class="edge">
<title>Node2&#45;&gt;Node6</title>
<path fill="none" stroke="midnightblue" d="M686.06,-266.47C695.1,-265.09 704.4,-263.67 713.59,-262.26"/>
<polygon fill="midnightblue" stroke="midnightblue" points="714.14,-265.72 723.5,-260.75 713.09,-258.8 714.14,-265.72"/>
</g>
<!-- Node4 -->
<g id="node4" class="node">
<title>Node4</title>
<g id="a_node4"><a xlink:href="classzero__mate_1_1utils_1_1CLogging__System.html#aa70c102c805079042ffea2a6f2a5ad64" target="_top" xlink:title="Formats a given timestamp.">
<polygon fill="none" stroke="black" points="910,-313.5 910,-343.5 1070,-343.5 1070,-313.5 910,-313.5"/>
<text text-anchor="start" x="918" y="-331.5" font-family="Helvetica,sans-Serif" font-size="10.00">zero_mate::utils::CLogging</text>
<text text-anchor="middle" x="990" y="-320.5" font-family="Helvetica,sans-Serif" font-size="10.00">_System::Format_Timestamp</text>
</a>
</g>
</g>
<!-- Node3&#45;&gt;Node4 -->
<g id="edge3" class="edge">
<title>Node3&#45;&gt;Node4</title>
<path fill="none" stroke="midnightblue" d="M874.09,-313.99C882.52,-315.05 891.16,-316.14 899.74,-317.23"/>
<polygon fill="midnightblue" stroke="midnightblue" points="899.41,-320.71 909.77,-318.49 900.29,-313.77 899.41,-320.71"/>
</g>
<!-- Node5 -->
<g id="node5" class="node">
<title>Node5</title>
<g id="a_node5"><a xlink:href="classzero__mate_1_1utils_1_1CLogging__System.html#ae3ca637537dde05e0b9119145c840331" target="_top" xlink:title="Returns the current timestamp that will be used in a log message.">
<polygon fill="none" stroke="black" points="917,-264.5 917,-294.5 1063,-294.5 1063,-264.5 917,-264.5"/>
<text text-anchor="start" x="925" y="-282.5" font-family="Helvetica,sans-Serif" font-size="10.00">zero_mate::utils::CLogging</text>
<text text-anchor="middle" x="990" y="-271.5" font-family="Helvetica,sans-Serif" font-size="10.00">_System::Get_Timestamp</text>
</a>
</g>
</g>
<!-- Node3&#45;&gt;Node5 -->
<g id="edge4" class="edge">
<title>Node3&#45;&gt;Node5</title>
<path fill="none" stroke="midnightblue" d="M874.09,-294.62C884.89,-293.2 896.05,-291.73 906.98,-290.29"/>
<polygon fill="midnightblue" stroke="midnightblue" points="907.47,-293.76 916.93,-288.98 906.56,-286.82 907.47,-293.76"/>
</g>
<!-- Node10 -->
<g id="node10" class="node">
<title>Node10</title>
<g id="a_node10"><a xlink:href="classzero__mate_1_1arm1176jzf__s_1_1isa_1_1CData__Processing.html#a73d5c3a98f3fe036a1348d4d7485d0e9" target="_top" xlink:title="Returns the index of the second operand register (Rm).">
<polygon fill="none" stroke="black" points="362,-426 362,-467 503,-467 503,-426 362,-426"/>
<text text-anchor="start" x="370" y="-455" font-family="Helvetica,sans-Serif" font-size="10.00">zero_mate::arm1176jzf</text>
<text text-anchor="start" x="370" y="-444" font-family="Helvetica,sans-Serif" font-size="10.00">_s::isa::CData_Processing</text>
<text text-anchor="middle" x="432.5" y="-433" font-family="Helvetica,sans-Serif" font-size="10.00">::Get_Rm_Idx</text>
</a>
</g>
</g>
<!-- Node9&#45;&gt;Node10 -->
<g id="edge9" class="edge">
<title>Node9&#45;&gt;Node10</title>
<path fill="none" stroke="midnightblue" d="M310.56,-407.06C326.07,-412.12 342.8,-417.58 358.72,-422.77"/>
<polygon fill="midnightblue" stroke="midnightblue" points="357.93,-426.19 368.52,-425.96 360.1,-419.53 357.93,-426.19"/>
</g>
<!-- Node11 -->
<g id="node11" class="node">
<title>Node11</title>
<g id="a_node11"><a xlink:href="classzero__mate_1_1arm1176jzf__s_1_1isa_1_1CData__Processing.html#ae43548d291eecc463c519086e7527ff2" target="_top" xlink:title="Returns the shift type used when constructing the second operand.">
<polygon fill="none" stroke="black" points="362,-366 362,-407 503,-407 503,-366 362,-366"/>
<text text-anchor="start" x="370" y="-395" font-family="Helvetica,sans-Serif" font-size="10.00">zero_mate::arm1176jzf</text>
<text text-anchor="start" x="370" y="-384" font-family="Helvetica,sans-Serif" font-size="10.00">_s::isa::CData_Processing</text>
<text text-anchor="middle" x="432.5" y="-373" font-family="Helvetica,sans-Serif" font-size="10.00">::Get_Shift_Type</text>
</a>
</g>
</g>
<!-- Node9&#45;&gt;Node11 -->
<g id="edge10" class="edge">
<title>Node9&#45;&gt;Node11</title>
<path fill="none" stroke="midnightblue" d="M322.61,-386.5C332.27,-386.5 342.19,-386.5 351.92,-386.5"/>
<polygon fill="midnightblue" stroke="midnightblue" points="351.97,-390 361.97,-386.5 351.97,-383 351.97,-390"/>
</g>
<!-- Node12 -->
<g id="node12" class="node">
<title>Node12</title>
<g id="a_node12"><a xlink:href="classzero__mate_1_1arm1176jzf__s_1_1isa_1_1CData__Processing.html#a1dc73c441b156452b1467eaa5cab46f5" target="_top" xlink:title="Returns the value of the I bit (bit 25 = immediate second operand).">
<polygon fill="none" stroke="black" points="362,-486 362,-527 503,-527 503,-486 362,-486"/>
<text text-anchor="start" x="370" y="-515" font-family="Helvetica,sans-Serif" font-size="10.00">zero_mate::arm1176jzf</text>
<text text-anchor="start" x="370" y="-504" font-family="Helvetica,sans-Serif" font-size="10.00">_s::isa::CData_Processing</text>
<text text-anchor="middle" x="432.5" y="-493" font-family="Helvetica,sans-Serif" font-size="10.00">::Is_I_Bit_Set</text>
</a>
</g>
</g>
<!-- Node9&#45;&gt;Node12 -->
<g id="edge11" class="edge">
<title>Node9&#45;&gt;Node12</title>
<path fill="none" stroke="midnightblue" d="M309.68,-407.03C315.14,-410.1 320.35,-413.57 325,-417.5 348.46,-437.33 337.76,-456.42 361,-476.5 362.51,-477.8 364.08,-479.06 365.71,-480.27"/>
<polygon fill="midnightblue" stroke="midnightblue" points="363.95,-483.3 374.22,-485.9 367.82,-477.46 363.95,-483.3"/>
</g>
<!-- Node14 -->
<g id="node14" class="node">
<title>Node14</title>
<g id="a_node14"><a xlink:href="classzero__mate_1_1arm1176jzf__s_1_1CCPU__Context.html#a050dada520ca82a21874045815c596a8" target="_top" xlink:title=" ">
<polygon fill="none" stroke="black" points="364,-88 364,-129 501,-129 501,-88 364,-88"/>
<text text-anchor="start" x="372" y="-117" font-family="Helvetica,sans-Serif" font-size="10.00">zero_mate::arm1176jzf</text>
<text text-anchor="start" x="372" y="-106" font-family="Helvetica,sans-Serif" font-size="10.00">_s::CCPU_Context::Verify</text>
<text text-anchor="middle" x="432.5" y="-95" font-family="Helvetica,sans-Serif" font-size="10.00">_SPSR_Accessibility</text>
</a>
</g>
</g>
<!-- Node13&#45;&gt;Node14 -->
<g id="edge13" class="edge">
<title>Node13&#45;&gt;Node14</title>
<path fill="none" stroke="midnightblue" d="M309.43,-213.4C315,-210.63 320.31,-207.36 325,-203.5 350.5,-182.52 336.47,-160.61 361,-138.5 362.32,-137.31 363.7,-136.15 365.13,-135.04"/>
<polygon fill="midnightblue" stroke="midnightblue" points="367.46,-137.69 373.72,-129.14 363.49,-131.92 367.46,-137.69"/>
</g>
<!-- Node14&#45;&gt;Node2 -->
<g id="edge14" class="edge">
<title>Node14&#45;&gt;Node2</title>
<path fill="none" stroke="midnightblue" d="M489.65,-129.2C494.7,-131.99 499.57,-135.09 504,-138.5 546.13,-170.95 580.88,-223.5 598.82,-253.84"/>
<polygon fill="midnightblue" stroke="midnightblue" points="595.8,-255.6 603.84,-262.49 601.85,-252.09 595.8,-255.6"/>
</g>
<!-- Node14&#45;&gt;Node15 -->
<g id="edge15" class="edge">
<title>Node14&#45;&gt;Node15</title>
<path fill="none" stroke="midnightblue" d="M501.24,-99.39C513.18,-97.79 525.67,-96.11 537.78,-94.48"/>
<polygon fill="midnightblue" stroke="midnightblue" points="538.4,-97.93 547.84,-93.13 537.46,-90.99 538.4,-97.93"/>
</g>
<!-- Node17&#45;&gt;Node2 -->
<g id="edge19" class="edge">
<title>Node17&#45;&gt;Node2</title>
<path fill="none" stroke="midnightblue" d="M324.8,-277.5C384.98,-277.5 468.32,-277.5 529.72,-277.5"/>
<polygon fill="midnightblue" stroke="midnightblue" points="529.77,-281 539.77,-277.5 529.77,-274 529.77,-281"/>
</g>
<!-- Node17&#45;&gt;Node8 -->
<g id="edge20" class="edge">
<title>Node17&#45;&gt;Node8</title>
<path fill="none" stroke="midnightblue" d="M303.96,-292.53C320.89,-297.04 339.73,-302.06 357.61,-306.82"/>
<polygon fill="midnightblue" stroke="midnightblue" points="356.87,-310.25 367.43,-309.44 358.67,-303.48 356.87,-310.25"/>
</g>
<!-- Node18 -->
<g id="node18" class="node">
<title>Node18</title>
<g id="a_node18"><a xlink:href="classzero__mate_1_1arm1176jzf__s_1_1CCPU__Context.html#aa53dae8f0dd16d916a852e572dfa95ba" target="_top" xlink:title="Checks if there is an invalid attempt to change the control bits of the CPSR register.">
<polygon fill="none" stroke="black" points="361,-148 361,-189 504,-189 504,-148 361,-148"/>
<text text-anchor="start" x="369" y="-177" font-family="Helvetica,sans-Serif" font-size="10.00">zero_mate::arm1176jzf</text>
<text text-anchor="start" x="369" y="-166" font-family="Helvetica,sans-Serif" font-size="10.00">_s::CCPU_Context::Invalid</text>
<text text-anchor="middle" x="432.5" y="-155" font-family="Helvetica,sans-Serif" font-size="10.00">_Change_Of_Control_Bits</text>
</a>
</g>
</g>
<!-- Node17&#45;&gt;Node18 -->
<g id="edge21" class="edge">
<title>Node17&#45;&gt;Node18</title>
<path fill="none" stroke="midnightblue" d="M308.32,-262.37C314.24,-259.6 319.93,-256.34 325,-252.5 348.01,-235.1 338.8,-216.92 361,-198.5 362.57,-197.19 364.21,-195.94 365.9,-194.73"/>
<polygon fill="midnightblue" stroke="midnightblue" points="368.2,-197.41 374.73,-189.07 364.42,-191.52 368.2,-197.41"/>
</g>
<!-- Node19 -->
<g id="node19" class="node">
<title>Node19</title>
<g id="a_node19"><a xlink:href="classzero__mate_1_1arm1176jzf__s_1_1CCPU__Context.html#a7efff674f8141eab73cb69099220f0d5" target="_top" xlink:title="Sets the mode of the CPU.">
<polygon fill="none" stroke="black" points="367.5,-208 367.5,-249 497.5,-249 497.5,-208 367.5,-208"/>
<text text-anchor="start" x="375.5" y="-237" font-family="Helvetica,sans-Serif" font-size="10.00">zero_mate::arm1176jzf</text>
<text text-anchor="start" x="375.5" y="-226" font-family="Helvetica,sans-Serif" font-size="10.00">_s::CCPU_Context::Set</text>
<text text-anchor="middle" x="432.5" y="-215" font-family="Helvetica,sans-Serif" font-size="10.00">_CPU_Mode</text>
</a>
</g>
</g>
<!-- Node17&#45;&gt;Node19 -->
<g id="edge22" class="edge">
<title>Node17&#45;&gt;Node19</title>
<path fill="none" stroke="midnightblue" d="M303.96,-262.47C320.89,-257.96 339.73,-252.94 357.61,-248.18"/>
<polygon fill="midnightblue" stroke="midnightblue" points="358.67,-251.52 367.43,-245.56 356.87,-244.75 358.67,-251.52"/>
</g>
</g>
</svg>
