<?xml version="1.0" encoding="UTF-8" standalone="no"?>
<!DOCTYPE svg PUBLIC "-//W3C//DTD SVG 1.1//EN"
 "http://www.w3.org/Graphics/SVG/1.1/DTD/svg11.dtd">
<!-- Generated by graphviz version 2.43.0 (0)
 -->
<!-- Title: zero_mate::peripheral::CARM_Timer::CARM_Timer Pages: 1 -->
<svg width="502pt" height="100pt"
 viewBox="0.00 0.00 502.00 99.50" xmlns="http://www.w3.org/2000/svg" xmlns:xlink="http://www.w3.org/1999/xlink">
<g id="graph0" class="graph" transform="scale(1 1) rotate(0) translate(4 95.5)">
<title>zero_mate::peripheral::CARM_Timer::CARM_Timer</title>
<!-- Node1 -->
<g id="node1" class="node">
<title>Node1</title>
<g id="a_node1"><a xlink:title="Creates an instance of the class.">
<polygon fill="#bfbfbf" stroke="black" points="0,-33 0,-63 155,-63 155,-33 0,-33"/>
<text text-anchor="start" x="8" y="-51" font-family="Helvetica,sans-Serif" font-size="10.00">zero_mate::peripheral</text>
<text text-anchor="middle" x="77.5" y="-40" font-family="Helvetica,sans-Serif" font-size="10.00">::CARM_Timer::CARM_Timer</text>
</a>
</g>
</g>
<!-- Node2 -->
<g id="node2" class="node">
<title>Node2</title>
<g id="a_node2"><a xlink:href="classzero__mate_1_1peripheral_1_1CARM__Timer.html#a98d9eb00ca1545607ed62e4051063eb7" target="_top" xlink:title="Resets/re&#45;initializes the ARM timer (IPeripheral interface).">
<polygon fill="none" stroke="black" points="191,-33 191,-63 315,-63 315,-33 191,-33"/>
<text text-anchor="start" x="199" y="-51" font-family="Helvetica,sans-Serif" font-size="10.00">zero_mate::peripheral</text>
<text text-anchor="middle" x="253" y="-40" font-family="Helvetica,sans-Serif" font-size="10.00">::CARM_Timer::Reset</text>
</a>
</g>
</g>
<!-- Node1&#45;&gt;Node2 -->
<g id="edge1" class="edge">
<title>Node1&#45;&gt;Node2</title>
<path fill="none" stroke="midnightblue" d="M155.1,-48C163.62,-48 172.27,-48 180.72,-48"/>
<polygon fill="midnightblue" stroke="midnightblue" points="180.91,-51.5 190.91,-48 180.91,-44.5 180.91,-51.5"/>
</g>
<!-- Node3 -->
<g id="node3" class="node">
<title>Node3</title>
<g id="a_node3"><a xlink:href="classzero__mate_1_1peripheral_1_1CARM__Timer.html#a8aa88bde21b52e4ae5132f8e2a5fb73a" target="_top" xlink:title="Returns the current content of a register.">
<polygon fill="none" stroke="black" points="356,-61 356,-91 489,-91 489,-61 356,-61"/>
<text text-anchor="start" x="364" y="-79" font-family="Helvetica,sans-Serif" font-size="10.00">zero_mate::peripheral</text>
<text text-anchor="middle" x="422.5" y="-68" font-family="Helvetica,sans-Serif" font-size="10.00">::CARM_Timer::Get_Reg</text>
</a>
</g>
</g>
<!-- Node2&#45;&gt;Node3 -->
<g id="edge2" class="edge">
<title>Node2&#45;&gt;Node3</title>
<path fill="none" stroke="midnightblue" d="M315.42,-58.27C325.29,-59.92 335.61,-61.64 345.78,-63.34"/>
<polygon fill="midnightblue" stroke="midnightblue" points="345.42,-66.83 355.86,-65.03 346.57,-59.93 345.42,-66.83"/>
</g>
<!-- Node4 -->
<g id="node4" class="node">
<title>Node4</title>
<g id="a_node4"><a xlink:href="classzero__mate_1_1peripheral_1_1CARM__Timer_1_1CPrescaler.html#a4d0394597d809b327d0fc83ad8dfb900" target="_top" xlink:title="Resets the prescaler.">
<polygon fill="none" stroke="black" points="351,-0.5 351,-41.5 494,-41.5 494,-0.5 351,-0.5"/>
<text text-anchor="start" x="359" y="-29.5" font-family="Helvetica,sans-Serif" font-size="10.00">zero_mate::peripheral</text>
<text text-anchor="start" x="359" y="-18.5" font-family="Helvetica,sans-Serif" font-size="10.00">::CARM_Timer::CPrescaler</text>
<text text-anchor="middle" x="422.5" y="-7.5" font-family="Helvetica,sans-Serif" font-size="10.00">::Reset</text>
</a>
</g>
</g>
<!-- Node2&#45;&gt;Node4 -->
<g id="edge3" class="edge">
<title>Node2&#45;&gt;Node4</title>
<path fill="none" stroke="midnightblue" d="M315.42,-38.1C323.67,-36.77 332.24,-35.39 340.77,-34.01"/>
<polygon fill="midnightblue" stroke="midnightblue" points="341.42,-37.45 350.73,-32.41 340.3,-30.54 341.42,-37.45"/>
</g>
</g>
</svg>
