<?xml version="1.0" encoding="UTF-8" standalone="no"?>
<!DOCTYPE svg PUBLIC "-//W3C//DTD SVG 1.1//EN"
 "http://www.w3.org/Graphics/SVG/1.1/DTD/svg11.dtd">
<!-- Generated by graphviz version 2.43.0 (0)
 -->
<!-- Title: zero_mate::gui::CLog_Window::Render_Clear_Button Pages: 1 -->
<svg width="470pt" height="50pt"
 viewBox="0.00 0.00 470.00 50.00" xmlns="http://www.w3.org/2000/svg" xmlns:xlink="http://www.w3.org/1999/xlink">
<g id="graph0" class="graph" transform="scale(1 1) rotate(0) translate(4 46)">
<title>zero_mate::gui::CLog_Window::Render_Clear_Button</title>
<!-- Node1 -->
<g id="node1" class="node">
<title>Node1</title>
<g id="a_node1"><a xlink:title="Renders a clear button for clearing the message area.">
<polygon fill="#bfbfbf" stroke="black" points="0,-0.5 0,-41.5 131,-41.5 131,-0.5 0,-0.5"/>
<text text-anchor="start" x="8" y="-29.5" font-family="Helvetica,sans-Serif" font-size="10.00">zero_mate::gui::CLog</text>
<text text-anchor="start" x="8" y="-18.5" font-family="Helvetica,sans-Serif" font-size="10.00">_Window::Render_Clear</text>
<text text-anchor="middle" x="65.5" y="-7.5" font-family="Helvetica,sans-Serif" font-size="10.00">_Button</text>
</a>
</g>
</g>
<!-- Node2 -->
<g id="node2" class="node">
<title>Node2</title>
<g id="a_node2"><a xlink:href="classzero__mate_1_1gui_1_1CLog__Window.html#aab3c1c25eedfe7230d905ae5355265c0" target="_top" xlink:title="Clears all log messages.">
<polygon fill="none" stroke="black" points="167,-6 167,-36 286,-36 286,-6 167,-6"/>
<text text-anchor="start" x="175" y="-24" font-family="Helvetica,sans-Serif" font-size="10.00">zero_mate::gui::CLog</text>
<text text-anchor="middle" x="226.5" y="-13" font-family="Helvetica,sans-Serif" font-size="10.00">_Window::Clear</text>
</a>
</g>
</g>
<!-- Node1&#45;&gt;Node2 -->
<g id="edge1" class="edge">
<title>Node1&#45;&gt;Node2</title>
<path fill="none" stroke="midnightblue" d="M131.17,-21C139.55,-21 148.15,-21 156.59,-21"/>
<polygon fill="midnightblue" stroke="midnightblue" points="156.77,-24.5 166.77,-21 156.77,-17.5 156.77,-24.5"/>
</g>
<!-- Node3 -->
<g id="node3" class="node">
<title>Node3</title>
<g id="a_node3"><a xlink:href="classzero__mate_1_1gui_1_1CCircular__Log__Buffer.html#af165b3edecdde5d0ea7a10957849921b" target="_top" xlink:title="Clears the circular buffer (deletes all log messages).">
<polygon fill="none" stroke="black" points="322,-6 322,-36 462,-36 462,-6 322,-6"/>
<text text-anchor="start" x="330" y="-24" font-family="Helvetica,sans-Serif" font-size="10.00">zero_mate::gui::CCircular</text>
<text text-anchor="middle" x="392" y="-13" font-family="Helvetica,sans-Serif" font-size="10.00">_Log_Buffer::Clear</text>
</a>
</g>
</g>
<!-- Node2&#45;&gt;Node3 -->
<g id="edge2" class="edge">
<title>Node2&#45;&gt;Node3</title>
<path fill="none" stroke="midnightblue" d="M286.07,-21C294.43,-21 303.15,-21 311.82,-21"/>
<polygon fill="midnightblue" stroke="midnightblue" points="311.97,-24.5 321.97,-21 311.97,-17.5 311.97,-24.5"/>
</g>
</g>
</svg>
