<?xml version="1.0" encoding="UTF-8" standalone="no"?>
<!DOCTYPE svg PUBLIC "-//W3C//DTD SVG 1.1//EN"
 "http://www.w3.org/Graphics/SVG/1.1/DTD/svg11.dtd">
<!-- Generated by graphviz version 2.43.0 (0)
 -->
<!-- Title: zero_mate::gui::CControl_Window::Render Pages: 1 -->
<svg width="907pt" height="198pt"
 viewBox="0.00 0.00 907.00 197.50" xmlns="http://www.w3.org/2000/svg" xmlns:xlink="http://www.w3.org/1999/xlink">
<g id="graph0" class="graph" transform="scale(1 1) rotate(0) translate(4 193.5)">
<title>zero_mate::gui::CControl_Window::Render</title>
<!-- Node1 -->
<g id="node1" class="node">
<title>Node1</title>
<g id="a_node1"><a xlink:title=" ">
<polygon fill="#bfbfbf" stroke="black" points="0,-73.5 0,-103.5 137,-103.5 137,-73.5 0,-73.5"/>
<text text-anchor="start" x="8" y="-91.5" font-family="Helvetica,sans-Serif" font-size="10.00">zero_mate::gui::CControl</text>
<text text-anchor="middle" x="68.5" y="-80.5" font-family="Helvetica,sans-Serif" font-size="10.00">_Window::Render</text>
</a>
</g>
</g>
<!-- Node2 -->
<g id="node2" class="node">
<title>Node2</title>
<g id="a_node2"><a xlink:href="classzero__mate_1_1gui_1_1CControl__Window.html#a9be0d8c611ece954a13f3763744b074f" target="_top" xlink:title=" ">
<polygon fill="none" stroke="black" points="188,-148 188,-189 329,-189 329,-148 188,-148"/>
<text text-anchor="start" x="196" y="-177" font-family="Helvetica,sans-Serif" font-size="10.00">zero_mate::gui::CControl</text>
<text text-anchor="start" x="196" y="-166" font-family="Helvetica,sans-Serif" font-size="10.00">_Window::Render_Control</text>
<text text-anchor="middle" x="258.5" y="-155" font-family="Helvetica,sans-Serif" font-size="10.00">_Buttons</text>
</a>
</g>
</g>
<!-- Node1&#45;&gt;Node2 -->
<g id="edge1" class="edge">
<title>Node1&#45;&gt;Node2</title>
<path fill="none" stroke="midnightblue" d="M98.56,-103.59C119.09,-113.99 147.4,-127.81 173,-138.5 177.73,-140.47 182.63,-142.44 187.6,-144.36"/>
<polygon fill="midnightblue" stroke="midnightblue" points="186.59,-147.72 197.18,-147.99 189.07,-141.17 186.59,-147.72"/>
</g>
<!-- Node6 -->
<g id="node6" class="node">
<title>Node6</title>
<g id="a_node6"><a xlink:href="classzero__mate_1_1gui_1_1CControl__Window.html#a2b7970947b3c184bdddece580ba6d4f8" target="_top" xlink:title=" ">
<polygon fill="none" stroke="black" points="180,-98.5 180,-128.5 337,-128.5 337,-98.5 180,-98.5"/>
<text text-anchor="start" x="188" y="-116.5" font-family="Helvetica,sans-Serif" font-size="10.00">zero_mate::gui::CControl</text>
<text text-anchor="middle" x="258.5" y="-105.5" font-family="Helvetica,sans-Serif" font-size="10.00">_Window::Render_CPU_State</text>
</a>
</g>
</g>
<!-- Node1&#45;&gt;Node6 -->
<g id="edge5" class="edge">
<title>Node1&#45;&gt;Node6</title>
<path fill="none" stroke="midnightblue" d="M137.11,-97.49C147.75,-98.9 158.88,-100.38 169.89,-101.85"/>
<polygon fill="midnightblue" stroke="midnightblue" points="169.58,-105.34 179.95,-103.19 170.5,-98.4 169.58,-105.34"/>
</g>
<!-- Node7 -->
<g id="node7" class="node">
<title>Node7</title>
<g id="a_node7"><a xlink:href="classzero__mate_1_1gui_1_1CControl__Window.html#a74f6b0b602377c47ae321127a4c90d29" target="_top" xlink:title=" ">
<polygon fill="none" stroke="black" points="173,-49.5 173,-79.5 344,-79.5 344,-49.5 173,-49.5"/>
<text text-anchor="start" x="181" y="-67.5" font-family="Helvetica,sans-Serif" font-size="10.00">zero_mate::gui::CControl</text>
<text text-anchor="middle" x="258.5" y="-56.5" font-family="Helvetica,sans-Serif" font-size="10.00">_Window::Render_ImGUI_Demo</text>
</a>
</g>
</g>
<!-- Node1&#45;&gt;Node7 -->
<g id="edge6" class="edge">
<title>Node1&#45;&gt;Node7</title>
<path fill="none" stroke="midnightblue" d="M137.11,-79.87C145.43,-78.81 154.05,-77.71 162.69,-76.6"/>
<polygon fill="midnightblue" stroke="midnightblue" points="163.33,-80.05 172.81,-75.31 162.44,-73.11 163.33,-80.05"/>
</g>
<!-- Node8 -->
<g id="node8" class="node">
<title>Node8</title>
<g id="a_node8"><a xlink:href="classzero__mate_1_1gui_1_1CControl__Window.html#ad83b2651e1d6bf8ed72e3553526f17ca" target="_top" xlink:title=" ">
<polygon fill="none" stroke="black" points="190,-0.5 190,-30.5 327,-30.5 327,-0.5 190,-0.5"/>
<text text-anchor="start" x="198" y="-18.5" font-family="Helvetica,sans-Serif" font-size="10.00">zero_mate::gui::CControl</text>
<text text-anchor="middle" x="258.5" y="-7.5" font-family="Helvetica,sans-Serif" font-size="10.00">_Window::Run</text>
</a>
</g>
</g>
<!-- Node1&#45;&gt;Node8 -->
<g id="edge7" class="edge">
<title>Node1&#45;&gt;Node8</title>
<path fill="none" stroke="midnightblue" d="M97.95,-73.47C118.43,-63.03 146.95,-49.29 173,-39.5 178.49,-37.44 184.23,-35.45 190.03,-33.57"/>
<polygon fill="midnightblue" stroke="midnightblue" points="191.32,-36.84 199.81,-30.5 189.22,-30.16 191.32,-36.84"/>
</g>
<!-- Node3 -->
<g id="node3" class="node">
<title>Node3</title>
<g id="a_node3"><a xlink:href="classzero__mate_1_1gui_1_1CControl__Window.html#a46cc1dd042f93990abb7b0b68f566a2d" target="_top" xlink:title=" ">
<polygon fill="none" stroke="black" points="380,-122 380,-163 532,-163 532,-122 380,-122"/>
<text text-anchor="start" x="388" y="-151" font-family="Helvetica,sans-Serif" font-size="10.00">zero_mate::gui::CControl</text>
<text text-anchor="start" x="388" y="-140" font-family="Helvetica,sans-Serif" font-size="10.00">_Window::Print_No_ELF_File</text>
<text text-anchor="middle" x="456" y="-129" font-family="Helvetica,sans-Serif" font-size="10.00">_Loaded_Error_Msg</text>
</a>
</g>
</g>
<!-- Node2&#45;&gt;Node3 -->
<g id="edge2" class="edge">
<title>Node2&#45;&gt;Node3</title>
<path fill="none" stroke="midnightblue" d="M329.25,-159.22C342.36,-157.48 356.2,-155.64 369.72,-153.84"/>
<polygon fill="midnightblue" stroke="midnightblue" points="370.52,-157.27 379.97,-152.48 369.6,-150.33 370.52,-157.27"/>
</g>
<!-- Node4 -->
<g id="node4" class="node">
<title>Node4</title>
<g id="a_node4"><a xlink:href="classzero__mate_1_1utils_1_1CLogging__System.html#aba3c5c64cd12e058e6a288db2cd89a15" target="_top" xlink:title="Logs an error message via all registered loggers.">
<polygon fill="none" stroke="black" points="568,-101.5 568,-131.5 714,-131.5 714,-101.5 568,-101.5"/>
<text text-anchor="start" x="576" y="-119.5" font-family="Helvetica,sans-Serif" font-size="10.00">zero_mate::utils::CLogging</text>
<text text-anchor="middle" x="641" y="-108.5" font-family="Helvetica,sans-Serif" font-size="10.00">_System::Error</text>
</a>
</g>
</g>
<!-- Node3&#45;&gt;Node4 -->
<g id="edge3" class="edge">
<title>Node3&#45;&gt;Node4</title>
<path fill="none" stroke="midnightblue" d="M532.23,-131.81C540.66,-130.61 549.28,-129.39 557.79,-128.18"/>
<polygon fill="midnightblue" stroke="midnightblue" points="558.31,-131.64 567.72,-126.77 557.33,-124.71 558.31,-131.64"/>
</g>
<!-- Node5 -->
<g id="node5" class="node">
<title>Node5</title>
<g id="a_node5"><a xlink:href="classzero__mate_1_1utils_1_1CLogging__System.html#af3fd8f336b5853e954283d93f2c32edd" target="_top" xlink:title="Extract the filename from a given location within the source files.">
<polygon fill="none" stroke="black" points="750,-76.5 750,-106.5 899,-106.5 899,-76.5 750,-76.5"/>
<text text-anchor="start" x="758" y="-94.5" font-family="Helvetica,sans-Serif" font-size="10.00">zero_mate::utils::CLogging</text>
<text text-anchor="middle" x="824.5" y="-83.5" font-family="Helvetica,sans-Serif" font-size="10.00">_System::Extract_Filename</text>
</a>
</g>
</g>
<!-- Node4&#45;&gt;Node5 -->
<g id="edge4" class="edge">
<title>Node4&#45;&gt;Node5</title>
<path fill="none" stroke="midnightblue" d="M714.26,-106.55C722.64,-105.39 731.24,-104.21 739.76,-103.03"/>
<polygon fill="midnightblue" stroke="midnightblue" points="740.28,-106.5 749.71,-101.66 739.33,-99.56 740.28,-106.5"/>
</g>
<!-- Node9 -->
<g id="node9" class="node">
<title>Node9</title>
<g id="a_node9"><a xlink:href="classzero__mate_1_1utils_1_1CLogging__System.html#aee146ee8db11fa8f184757f980d35c02" target="_top" xlink:title="Logs an info message via all registered loggers.">
<polygon fill="none" stroke="black" points="568,-52.5 568,-82.5 714,-82.5 714,-52.5 568,-52.5"/>
<text text-anchor="start" x="576" y="-70.5" font-family="Helvetica,sans-Serif" font-size="10.00">zero_mate::utils::CLogging</text>
<text text-anchor="middle" x="641" y="-59.5" font-family="Helvetica,sans-Serif" font-size="10.00">_System::Info</text>
</a>
</g>
</g>
<!-- Node8&#45;&gt;Node9 -->
<g id="edge8" class="edge">
<title>Node8&#45;&gt;Node9</title>
<path fill="none" stroke="midnightblue" d="M327.09,-24.74C391.61,-33.55 488.95,-46.86 557.91,-56.28"/>
<polygon fill="midnightblue" stroke="midnightblue" points="557.48,-59.76 567.87,-57.64 558.43,-52.82 557.48,-59.76"/>
</g>
<!-- Node9&#45;&gt;Node5 -->
<g id="edge9" class="edge">
<title>Node9&#45;&gt;Node5</title>
<path fill="none" stroke="midnightblue" d="M714.26,-77.05C722.64,-78.16 731.24,-79.3 739.76,-80.43"/>
<polygon fill="midnightblue" stroke="midnightblue" points="739.34,-83.9 749.71,-81.74 740.26,-76.96 739.34,-83.9"/>
</g>
</g>
</svg>
