<?xml version="1.0" encoding="UTF-8" standalone="no"?>
<!DOCTYPE svg PUBLIC "-//W3C//DTD SVG 1.1//EN"
 "http://www.w3.org/Graphics/SVG/1.1/DTD/svg11.dtd">
<!-- Generated by graphviz version 2.43.0 (0)
 -->
<!-- Title: zero_mate::arm1176jzf_s::CCPU_Core::Execute Pages: 1 -->
<svg width="543pt" height="318pt"
 viewBox="0.00 0.00 543.00 318.00" xmlns="http://www.w3.org/2000/svg" xmlns:xlink="http://www.w3.org/1999/xlink">
<g id="graph0" class="graph" transform="scale(1 1) rotate(0) translate(4 314)">
<title>zero_mate::arm1176jzf_s::CCPU_Core::Execute</title>
<!-- Node1 -->
<g id="node1" class="node">
<title>Node1</title>
<g id="a_node1"><a xlink:title="Executes a branch and exchange instruction.">
<polygon fill="#bfbfbf" stroke="black" points="0,-134.5 0,-164.5 132,-164.5 132,-134.5 0,-134.5"/>
<text text-anchor="start" x="8" y="-152.5" font-family="Helvetica,sans-Serif" font-size="10.00">zero_mate::arm1176jzf</text>
<text text-anchor="middle" x="66" y="-141.5" font-family="Helvetica,sans-Serif" font-size="10.00">_s::CCPU_Core::Execute</text>
</a>
</g>
</g>
<!-- Node2 -->
<g id="node2" class="node">
<title>Node2</title>
<g id="a_node2"><a xlink:href="classzero__mate_1_1utils_1_1CLogging__System.html#aba3c5c64cd12e058e6a288db2cd89a15" target="_top" xlink:title=" ">
<polygon fill="none" stroke="black" points="186,-279.5 186,-309.5 332,-309.5 332,-279.5 186,-279.5"/>
<text text-anchor="start" x="194" y="-297.5" font-family="Helvetica,sans-Serif" font-size="10.00">zero_mate::utils::CLogging</text>
<text text-anchor="middle" x="259" y="-286.5" font-family="Helvetica,sans-Serif" font-size="10.00">_System::Error</text>
</a>
</g>
</g>
<!-- Node1&#45;&gt;Node2 -->
<g id="edge1" class="edge">
<title>Node1&#45;&gt;Node2</title>
<path fill="none" stroke="midnightblue" d="M75.48,-164.55C90.65,-190.08 124.93,-241.83 168,-269.5 171.19,-271.55 174.55,-273.43 178.01,-275.16"/>
<polygon fill="midnightblue" stroke="midnightblue" points="176.86,-278.48 187.41,-279.4 179.73,-272.1 176.86,-278.48"/>
</g>
<!-- Node4 -->
<g id="node4" class="node">
<title>Node4</title>
<g id="a_node4"><a xlink:href="classzero__mate_1_1arm1176jzf__s_1_1isa_1_1CBranch__And__Exchange.html#a14962904052af58aaa297b25d1223150" target="_top" xlink:title=" ">
<polygon fill="none" stroke="black" points="168,-219 168,-260 350,-260 350,-219 168,-219"/>
<text text-anchor="start" x="176" y="-248" font-family="Helvetica,sans-Serif" font-size="10.00">zero_mate::arm1176jzf</text>
<text text-anchor="start" x="176" y="-237" font-family="Helvetica,sans-Serif" font-size="10.00">_s::isa::CBranch_And</text>
<text text-anchor="middle" x="259" y="-226" font-family="Helvetica,sans-Serif" font-size="10.00">_Exchange::Get_Instruction_Mode</text>
</a>
</g>
</g>
<!-- Node1&#45;&gt;Node4 -->
<g id="edge3" class="edge">
<title>Node1&#45;&gt;Node4</title>
<path fill="none" stroke="midnightblue" d="M89.11,-164.52C109.09,-177.63 139.62,-196.52 168,-209.5 172.36,-211.49 176.89,-213.42 181.49,-215.27"/>
<polygon fill="midnightblue" stroke="midnightblue" points="180.44,-218.61 191.03,-218.96 182.96,-212.09 180.44,-218.61"/>
</g>
<!-- Node5 -->
<g id="node5" class="node">
<title>Node5</title>
<g id="a_node5"><a xlink:href="classzero__mate_1_1arm1176jzf__s_1_1isa_1_1CBranch__And__Exchange.html#affbe28cb77bad59867c2a8ee097c50df" target="_top" xlink:title=" ">
<polygon fill="none" stroke="black" points="194,-159 194,-200 324,-200 324,-159 194,-159"/>
<text text-anchor="start" x="202" y="-188" font-family="Helvetica,sans-Serif" font-size="10.00">zero_mate::arm1176jzf</text>
<text text-anchor="start" x="202" y="-177" font-family="Helvetica,sans-Serif" font-size="10.00">_s::isa::CBranch_And</text>
<text text-anchor="middle" x="259" y="-166" font-family="Helvetica,sans-Serif" font-size="10.00">_Exchange::Get_Rm</text>
</a>
</g>
</g>
<!-- Node1&#45;&gt;Node5 -->
<g id="edge4" class="edge">
<title>Node1&#45;&gt;Node5</title>
<path fill="none" stroke="midnightblue" d="M132.2,-159.74C148.82,-162.35 166.81,-165.18 183.84,-167.85"/>
<polygon fill="midnightblue" stroke="midnightblue" points="183.32,-171.31 193.74,-169.41 184.41,-164.4 183.32,-171.31"/>
</g>
<!-- Node6 -->
<g id="node6" class="node">
<title>Node6</title>
<g id="a_node6"><a xlink:href="classzero__mate_1_1arm1176jzf__s_1_1isa_1_1CBranch__And__Exchange.html#aeb730772253321c35b39e8af3a36552d" target="_top" xlink:title=" ">
<polygon fill="none" stroke="black" points="192,-99 192,-140 326,-140 326,-99 192,-99"/>
<text text-anchor="start" x="200" y="-128" font-family="Helvetica,sans-Serif" font-size="10.00">zero_mate::arm1176jzf</text>
<text text-anchor="start" x="200" y="-117" font-family="Helvetica,sans-Serif" font-size="10.00">_s::isa::CBranch_And</text>
<text text-anchor="middle" x="259" y="-106" font-family="Helvetica,sans-Serif" font-size="10.00">_Exchange::Is_L_Bit_Set</text>
</a>
</g>
</g>
<!-- Node1&#45;&gt;Node6 -->
<g id="edge5" class="edge">
<title>Node1&#45;&gt;Node6</title>
<path fill="none" stroke="midnightblue" d="M132.2,-139.26C148.13,-136.76 165.31,-134.06 181.71,-131.48"/>
<polygon fill="midnightblue" stroke="midnightblue" points="182.46,-134.91 191.8,-129.9 181.38,-127.99 182.46,-134.91"/>
</g>
<!-- Node7 -->
<g id="node7" class="node">
<title>Node7</title>
<g id="a_node7"><a xlink:href="classzero__mate_1_1arm1176jzf__s_1_1CCPU__Core.html#ae4ef4e8216220eacc525799066321ce9" target="_top" xlink:title="Returns a reference to the LR register (r14 = link register)">
<polygon fill="none" stroke="black" points="194,-49.5 194,-79.5 324,-79.5 324,-49.5 194,-49.5"/>
<text text-anchor="start" x="202" y="-67.5" font-family="Helvetica,sans-Serif" font-size="10.00">zero_mate::arm1176jzf</text>
<text text-anchor="middle" x="259" y="-56.5" font-family="Helvetica,sans-Serif" font-size="10.00">_s::CCPU_Core::LR</text>
</a>
</g>
</g>
<!-- Node1&#45;&gt;Node7 -->
<g id="edge6" class="edge">
<title>Node1&#45;&gt;Node7</title>
<path fill="none" stroke="midnightblue" d="M88.57,-134.39C108.43,-121.04 139.11,-101.83 168,-89.5 173.68,-87.08 179.66,-84.82 185.72,-82.74"/>
<polygon fill="midnightblue" stroke="midnightblue" points="186.88,-86.04 195.29,-79.6 184.7,-79.39 186.88,-86.04"/>
</g>
<!-- Node8 -->
<g id="node8" class="node">
<title>Node8</title>
<g id="a_node8"><a xlink:href="classzero__mate_1_1arm1176jzf__s_1_1CCPU__Core.html#a423eacd01e574e782a2b7cf51f28c56c" target="_top" xlink:title="Returns a reference to the PC register (r15)">
<polygon fill="none" stroke="black" points="194,-0.5 194,-30.5 324,-30.5 324,-0.5 194,-0.5"/>
<text text-anchor="start" x="202" y="-18.5" font-family="Helvetica,sans-Serif" font-size="10.00">zero_mate::arm1176jzf</text>
<text text-anchor="middle" x="259" y="-7.5" font-family="Helvetica,sans-Serif" font-size="10.00">_s::CCPU_Core::PC</text>
</a>
</g>
</g>
<!-- Node1&#45;&gt;Node8 -->
<g id="edge7" class="edge">
<title>Node1&#45;&gt;Node8</title>
<path fill="none" stroke="midnightblue" d="M76.85,-134.34C93.02,-110.7 127.46,-65.2 168,-40.5 173.06,-37.42 178.5,-34.71 184.12,-32.32"/>
<polygon fill="midnightblue" stroke="midnightblue" points="185.65,-35.49 193.71,-28.62 183.12,-28.96 185.65,-35.49"/>
</g>
<!-- Node3 -->
<g id="node3" class="node">
<title>Node3</title>
<g id="a_node3"><a xlink:href="classzero__mate_1_1utils_1_1CLogging__System.html#af3fd8f336b5853e954283d93f2c32edd" target="_top" xlink:title=" ">
<polygon fill="none" stroke="black" points="386,-279.5 386,-309.5 535,-309.5 535,-279.5 386,-279.5"/>
<text text-anchor="start" x="394" y="-297.5" font-family="Helvetica,sans-Serif" font-size="10.00">zero_mate::utils::CLogging</text>
<text text-anchor="middle" x="460.5" y="-286.5" font-family="Helvetica,sans-Serif" font-size="10.00">_System::Extract_Filename</text>
</a>
</g>
</g>
<!-- Node2&#45;&gt;Node3 -->
<g id="edge2" class="edge">
<title>Node2&#45;&gt;Node3</title>
<path fill="none" stroke="midnightblue" d="M332.02,-294.5C346.26,-294.5 361.32,-294.5 375.9,-294.5"/>
<polygon fill="midnightblue" stroke="midnightblue" points="375.9,-298 385.9,-294.5 375.9,-291 375.9,-298"/>
</g>
</g>
</svg>
