<?xml version="1.0" encoding="UTF-8" standalone="no"?>
<!DOCTYPE svg PUBLIC "-//W3C//DTD SVG 1.1//EN"
 "http://www.w3.org/Graphics/SVG/1.1/DTD/svg11.dtd">
<!-- Generated by graphviz version 2.43.0 (0)
 -->
<!-- Title: zero_mate::arm1176jzf_s::CCPU_Core::Fetch_Instruction Pages: 1 -->
<svg width="493pt" height="292pt"
 viewBox="0.00 0.00 493.00 291.50" xmlns="http://www.w3.org/2000/svg" xmlns:xlink="http://www.w3.org/1999/xlink">
<g id="graph0" class="graph" transform="scale(1 1) rotate(0) translate(4 287.5)">
<title>zero_mate::arm1176jzf_s::CCPU_Core::Fetch_Instruction</title>
<!-- Node1 -->
<g id="node1" class="node">
<title>Node1</title>
<g id="a_node1"><a xlink:title="Fetches the next instruction.">
<polygon fill="#bfbfbf" stroke="black" points="0,-52 0,-93 130,-93 130,-52 0,-52"/>
<text text-anchor="start" x="8" y="-81" font-family="Helvetica,sans-Serif" font-size="10.00">zero_mate::arm1176jzf</text>
<text text-anchor="start" x="8" y="-70" font-family="Helvetica,sans-Serif" font-size="10.00">_s::CCPU_Core::Fetch</text>
<text text-anchor="middle" x="65" y="-59" font-family="Helvetica,sans-Serif" font-size="10.00">_Instruction</text>
</a>
</g>
</g>
<!-- Node2 -->
<g id="node2" class="node">
<title>Node2</title>
<g id="a_node2"><a xlink:href="classzero__mate_1_1arm1176jzf__s_1_1CCPU__Core.html#a85e6ef006a36e1adb56abd3ecc6481be" target="_top" xlink:title="Executes a CPU exception.">
<polygon fill="none" stroke="black" points="166,-80 166,-121 298,-121 298,-80 166,-80"/>
<text text-anchor="start" x="174" y="-109" font-family="Helvetica,sans-Serif" font-size="10.00">zero_mate::arm1176jzf</text>
<text text-anchor="start" x="174" y="-98" font-family="Helvetica,sans-Serif" font-size="10.00">_s::CCPU_Core::Execute</text>
<text text-anchor="middle" x="232" y="-87" font-family="Helvetica,sans-Serif" font-size="10.00">_Exception</text>
</a>
</g>
</g>
<!-- Node1&#45;&gt;Node2 -->
<g id="edge1" class="edge">
<title>Node1&#45;&gt;Node2</title>
<path fill="none" stroke="midnightblue" d="M130.27,-83.41C138.66,-84.83 147.31,-86.3 155.86,-87.75"/>
<polygon fill="midnightblue" stroke="midnightblue" points="155.38,-91.22 165.82,-89.44 156.55,-84.32 155.38,-91.22"/>
</g>
<!-- Node6 -->
<g id="node6" class="node">
<title>Node6</title>
<g id="a_node6"><a xlink:href="classzero__mate_1_1arm1176jzf__s_1_1CCPU__Core.html#a423eacd01e574e782a2b7cf51f28c56c" target="_top" xlink:title="Returns a reference to the PC register (r15)">
<polygon fill="none" stroke="black" points="344.5,-0.5 344.5,-30.5 474.5,-30.5 474.5,-0.5 344.5,-0.5"/>
<text text-anchor="start" x="352.5" y="-18.5" font-family="Helvetica,sans-Serif" font-size="10.00">zero_mate::arm1176jzf</text>
<text text-anchor="middle" x="409.5" y="-7.5" font-family="Helvetica,sans-Serif" font-size="10.00">_s::CCPU_Core::PC</text>
</a>
</g>
</g>
<!-- Node1&#45;&gt;Node6 -->
<g id="edge7" class="edge">
<title>Node1&#45;&gt;Node6</title>
<path fill="none" stroke="midnightblue" d="M130.02,-61.85C187.98,-52.2 273.35,-37.99 334.27,-27.85"/>
<polygon fill="midnightblue" stroke="midnightblue" points="334.92,-31.29 344.21,-26.2 333.77,-24.39 334.92,-31.29"/>
</g>
<!-- Node3 -->
<g id="node3" class="node">
<title>Node3</title>
<g id="a_node3"><a xlink:href="classzero__mate_1_1arm1176jzf__s_1_1exceptions_1_1CCPU__Exception.html#ab18a4a4b6a54029ccf141784cfe9c737" target="_top" xlink:title="Returns the mode into which the CPU will switch when the exception is thrown.">
<polygon fill="none" stroke="black" points="334,-242 334,-283 485,-283 485,-242 334,-242"/>
<text text-anchor="start" x="342" y="-271" font-family="Helvetica,sans-Serif" font-size="10.00">zero_mate::arm1176jzf</text>
<text text-anchor="start" x="342" y="-260" font-family="Helvetica,sans-Serif" font-size="10.00">_s::exceptions::CCPU</text>
<text text-anchor="middle" x="409.5" y="-249" font-family="Helvetica,sans-Serif" font-size="10.00">_Exception::Get_CPU_Mode</text>
</a>
</g>
</g>
<!-- Node2&#45;&gt;Node3 -->
<g id="edge2" class="edge">
<title>Node2&#45;&gt;Node3</title>
<path fill="none" stroke="midnightblue" d="M244.03,-121.14C260.26,-149.74 293.12,-201.41 334,-232.5 335.85,-233.91 337.77,-235.26 339.75,-236.55"/>
<polygon fill="midnightblue" stroke="midnightblue" points="338.36,-239.8 348.75,-241.89 341.93,-233.77 338.36,-239.8"/>
</g>
<!-- Node4 -->
<g id="node4" class="node">
<title>Node4</title>
<g id="a_node4"><a xlink:href="classzero__mate_1_1arm1176jzf__s_1_1exceptions_1_1CCPU__Exception.html#ae87c33c76ed6571b2408fd293710b6c4" target="_top" xlink:title="Returns the address of the handler of the exception.">
<polygon fill="none" stroke="black" points="336.5,-170.5 336.5,-222.5 482.5,-222.5 482.5,-170.5 336.5,-170.5"/>
<text text-anchor="start" x="344.5" y="-210.5" font-family="Helvetica,sans-Serif" font-size="10.00">zero_mate::arm1176jzf</text>
<text text-anchor="start" x="344.5" y="-199.5" font-family="Helvetica,sans-Serif" font-size="10.00">_s::exceptions::CCPU</text>
<text text-anchor="start" x="344.5" y="-188.5" font-family="Helvetica,sans-Serif" font-size="10.00">_Exception::Get_Exception</text>
<text text-anchor="middle" x="409.5" y="-177.5" font-family="Helvetica,sans-Serif" font-size="10.00">_Vector</text>
</a>
</g>
</g>
<!-- Node2&#45;&gt;Node4 -->
<g id="edge3" class="edge">
<title>Node2&#45;&gt;Node4</title>
<path fill="none" stroke="midnightblue" d="M266.25,-121.23C285.75,-133.14 311,-148.14 334,-160.5 337.29,-162.27 340.69,-164.05 344.13,-165.83"/>
<polygon fill="midnightblue" stroke="midnightblue" points="342.8,-169.08 353.31,-170.49 345.97,-162.84 342.8,-169.08"/>
</g>
<!-- Node5 -->
<g id="node5" class="node">
<title>Node5</title>
<g id="a_node5"><a xlink:href="classzero__mate_1_1arm1176jzf__s_1_1exceptions_1_1CCPU__Exception.html#aabb81de8a3e09534245ef3851a31c3c0" target="_top" xlink:title="Returns the type of the exception.">
<polygon fill="none" stroke="black" points="344.5,-110 344.5,-151 474.5,-151 474.5,-110 344.5,-110"/>
<text text-anchor="start" x="352.5" y="-139" font-family="Helvetica,sans-Serif" font-size="10.00">zero_mate::arm1176jzf</text>
<text text-anchor="start" x="352.5" y="-128" font-family="Helvetica,sans-Serif" font-size="10.00">_s::exceptions::CCPU</text>
<text text-anchor="middle" x="409.5" y="-117" font-family="Helvetica,sans-Serif" font-size="10.00">_Exception::Get_Type</text>
</a>
</g>
</g>
<!-- Node2&#45;&gt;Node5 -->
<g id="edge4" class="edge">
<title>Node2&#45;&gt;Node5</title>
<path fill="none" stroke="midnightblue" d="M298.35,-111.67C310.07,-113.68 322.37,-115.78 334.32,-117.82"/>
<polygon fill="midnightblue" stroke="midnightblue" points="333.82,-121.28 344.26,-119.52 335,-114.38 333.82,-121.28"/>
</g>
<!-- Node2&#45;&gt;Node6 -->
<g id="edge5" class="edge">
<title>Node2&#45;&gt;Node6</title>
<path fill="none" stroke="midnightblue" d="M268.5,-79.92C278.09,-74.31 288.46,-68.2 298,-62.5 314.09,-52.88 317,-48.42 334,-40.5 338.87,-38.23 344,-36.07 349.2,-34.03"/>
<polygon fill="midnightblue" stroke="midnightblue" points="350.46,-37.3 358.6,-30.51 348.01,-30.74 350.46,-37.3"/>
</g>
<!-- Node7 -->
<g id="node7" class="node">
<title>Node7</title>
<g id="a_node7"><a xlink:href="classzero__mate_1_1arm1176jzf__s_1_1CCPU__Context.html#a7efff674f8141eab73cb69099220f0d5" target="_top" xlink:title="Sets the mode of the CPU.">
<polygon fill="none" stroke="black" points="344.5,-50 344.5,-91 474.5,-91 474.5,-50 344.5,-50"/>
<text text-anchor="start" x="352.5" y="-79" font-family="Helvetica,sans-Serif" font-size="10.00">zero_mate::arm1176jzf</text>
<text text-anchor="start" x="352.5" y="-68" font-family="Helvetica,sans-Serif" font-size="10.00">_s::CCPU_Context::Set</text>
<text text-anchor="middle" x="409.5" y="-57" font-family="Helvetica,sans-Serif" font-size="10.00">_CPU_Mode</text>
</a>
</g>
</g>
<!-- Node2&#45;&gt;Node7 -->
<g id="edge6" class="edge">
<title>Node2&#45;&gt;Node7</title>
<path fill="none" stroke="midnightblue" d="M298.35,-89.33C310.07,-87.32 322.37,-85.22 334.32,-83.18"/>
<polygon fill="midnightblue" stroke="midnightblue" points="335,-86.62 344.26,-81.48 333.82,-79.72 335,-86.62"/>
</g>
</g>
</svg>
