<?xml version="1.0" encoding="UTF-8" standalone="no"?>
<!DOCTYPE svg PUBLIC "-//W3C//DTD SVG 1.1//EN"
 "http://www.w3.org/Graphics/SVG/1.1/DTD/svg11.dtd">
<!-- Generated by graphviz version 2.43.0 (0)
 -->
<!-- Title: zero_mate::gui::CSource_Code_Window::Should_Code_Block_Be_Highlighted Pages: 1 -->
<svg width="995pt" height="50pt"
 viewBox="0.00 0.00 995.00 50.00" xmlns="http://www.w3.org/2000/svg" xmlns:xlink="http://www.w3.org/1999/xlink">
<g id="graph0" class="graph" transform="scale(1 1) rotate(0) translate(4 46)">
<title>zero_mate::gui::CSource_Code_Window::Should_Code_Block_Be_Highlighted</title>
<!-- Node1 -->
<g id="node1" class="node">
<title>Node1</title>
<g id="a_node1"><a xlink:title="Checks if the block of code which is currently being rendered should be highlighted or not.">
<polygon fill="#bfbfbf" stroke="black" points="828,-0.5 828,-41.5 987,-41.5 987,-0.5 828,-0.5"/>
<text text-anchor="start" x="836" y="-29.5" font-family="Helvetica,sans-Serif" font-size="10.00">zero_mate::gui::CSource</text>
<text text-anchor="start" x="836" y="-18.5" font-family="Helvetica,sans-Serif" font-size="10.00">_Code_Window::Should_Code</text>
<text text-anchor="middle" x="907.5" y="-7.5" font-family="Helvetica,sans-Serif" font-size="10.00">_Block_Be_Highlighted</text>
</a>
</g>
</g>
<!-- Node2 -->
<g id="node2" class="node">
<title>Node2</title>
<g id="a_node2"><a xlink:href="classzero__mate_1_1gui_1_1CSource__Code__Window.html#af9afd629a519bacd1ce89faf8bbcdb9c" target="_top" xlink:title="Renders a block of code (a single function/method).">
<polygon fill="none" stroke="black" points="599,-6 599,-36 792,-36 792,-6 599,-6"/>
<text text-anchor="start" x="607" y="-24" font-family="Helvetica,sans-Serif" font-size="10.00">zero_mate::gui::CSource</text>
<text text-anchor="middle" x="695.5" y="-13" font-family="Helvetica,sans-Serif" font-size="10.00">_Code_Window::Render_Code_Block</text>
</a>
</g>
</g>
<!-- Node1&#45;&gt;Node2 -->
<g id="edge1" class="edge">
<title>Node1&#45;&gt;Node2</title>
<path fill="none" stroke="midnightblue" d="M817.51,-21C809.09,-21 800.52,-21 792.04,-21"/>
<polygon fill="midnightblue" stroke="midnightblue" points="817.71,-24.5 827.71,-21 817.71,-17.5 817.71,-24.5"/>
</g>
<!-- Node3 -->
<g id="node3" class="node">
<title>Node3</title>
<g id="a_node3"><a xlink:href="classzero__mate_1_1gui_1_1CSource__Code__Window.html#a2088711954d53ac5f57e4a085770590f" target="_top" xlink:title="Renders a single tab (ELF source file).">
<polygon fill="none" stroke="black" points="411,-6 411,-36 563,-36 563,-6 411,-6"/>
<text text-anchor="start" x="419" y="-24" font-family="Helvetica,sans-Serif" font-size="10.00">zero_mate::gui::CSource</text>
<text text-anchor="middle" x="487" y="-13" font-family="Helvetica,sans-Serif" font-size="10.00">_Code_Window::Render_Tab</text>
</a>
</g>
</g>
<!-- Node2&#45;&gt;Node3 -->
<g id="edge2" class="edge">
<title>Node2&#45;&gt;Node3</title>
<path fill="none" stroke="midnightblue" d="M588.73,-21C580.14,-21 571.58,-21 563.28,-21"/>
<polygon fill="midnightblue" stroke="midnightblue" points="588.81,-24.5 598.81,-21 588.81,-17.5 588.81,-24.5"/>
</g>
<!-- Node4 -->
<g id="node4" class="node">
<title>Node4</title>
<g id="a_node4"><a xlink:href="classzero__mate_1_1gui_1_1CSource__Code__Window.html#a1f2a59252814f5b499c09bf2959741ad" target="_top" xlink:title="Renders the disassembled contents of all ELF loaded into the emulator.">
<polygon fill="none" stroke="black" points="171,-6 171,-36 375,-36 375,-6 171,-6"/>
<text text-anchor="start" x="179" y="-24" font-family="Helvetica,sans-Serif" font-size="10.00">zero_mate::gui::CSource</text>
<text text-anchor="middle" x="273" y="-13" font-family="Helvetica,sans-Serif" font-size="10.00">_Code_Window::Render_Source_Codes</text>
</a>
</g>
</g>
<!-- Node3&#45;&gt;Node4 -->
<g id="edge3" class="edge">
<title>Node3&#45;&gt;Node4</title>
<path fill="none" stroke="midnightblue" d="M400.82,-21C392.42,-21 383.84,-21 375.3,-21"/>
<polygon fill="midnightblue" stroke="midnightblue" points="400.96,-24.5 410.96,-21 400.96,-17.5 400.96,-24.5"/>
</g>
<!-- Node5 -->
<g id="node5" class="node">
<title>Node5</title>
<g id="a_node5"><a xlink:href="classzero__mate_1_1gui_1_1CSource__Code__Window.html#a24d4560bdcaf8c4fb0611de1b55ac687" target="_top" xlink:title="Renders the window (IGUI_Window interface).">
<polygon fill="none" stroke="black" points="0,-6 0,-36 135,-36 135,-6 0,-6"/>
<text text-anchor="start" x="8" y="-24" font-family="Helvetica,sans-Serif" font-size="10.00">zero_mate::gui::CSource</text>
<text text-anchor="middle" x="67.5" y="-13" font-family="Helvetica,sans-Serif" font-size="10.00">_Code_Window::Render</text>
</a>
</g>
</g>
<!-- Node4&#45;&gt;Node5 -->
<g id="edge4" class="edge">
<title>Node4&#45;&gt;Node5</title>
<path fill="none" stroke="midnightblue" d="M160.67,-21C152.03,-21 143.49,-21 135.28,-21"/>
<polygon fill="midnightblue" stroke="midnightblue" points="160.85,-24.5 170.85,-21 160.85,-17.5 160.85,-24.5"/>
</g>
</g>
</svg>
