<?xml version="1.0" encoding="UTF-8" standalone="no"?>
<!DOCTYPE svg PUBLIC "-//W3C//DTD SVG 1.1//EN"
 "http://www.w3.org/Graphics/SVG/1.1/DTD/svg11.dtd">
<!-- Generated by graphviz version 2.43.0 (0)
 -->
<!-- Title: zero_mate::gui::CMonitor_Window::Render Pages: 1 -->
<svg width="538pt" height="88pt"
 viewBox="0.00 0.00 538.00 88.00" xmlns="http://www.w3.org/2000/svg" xmlns:xlink="http://www.w3.org/1999/xlink">
<g id="graph0" class="graph" transform="scale(1 1) rotate(0) translate(4 84)">
<title>zero_mate::gui::CMonitor_Window::Render</title>
<!-- Node1 -->
<g id="node1" class="node">
<title>Node1</title>
<g id="a_node1"><a xlink:title="Renders the debug memory&#45;mapped monitor (IGUI_Window interface).">
<polygon fill="#bfbfbf" stroke="black" points="0,-24.5 0,-54.5 140,-54.5 140,-24.5 0,-24.5"/>
<text text-anchor="start" x="8" y="-42.5" font-family="Helvetica,sans-Serif" font-size="10.00">zero_mate::gui::CMonitor</text>
<text text-anchor="middle" x="70" y="-31.5" font-family="Helvetica,sans-Serif" font-size="10.00">_Window::Render</text>
</a>
</g>
</g>
<!-- Node2 -->
<g id="node2" class="node">
<title>Node2</title>
<g id="a_node2"><a xlink:href="classzero__mate_1_1gui_1_1CMonitor__Window.html#a5d0f74e6f49d94dbd80ce748e04141bc" target="_top" xlink:title="Renders the contents of the memory&#45;mapped debug monitor.">
<polygon fill="none" stroke="black" points="188,-49.5 188,-79.5 331,-79.5 331,-49.5 188,-49.5"/>
<text text-anchor="start" x="196" y="-67.5" font-family="Helvetica,sans-Serif" font-size="10.00">zero_mate::gui::CMonitor</text>
<text text-anchor="middle" x="259.5" y="-56.5" font-family="Helvetica,sans-Serif" font-size="10.00">_Window::Render_Monitor</text>
</a>
</g>
</g>
<!-- Node1&#45;&gt;Node2 -->
<g id="edge1" class="edge">
<title>Node1&#45;&gt;Node2</title>
<path fill="none" stroke="midnightblue" d="M140.02,-48.7C152.3,-50.34 165.18,-52.06 177.75,-53.73"/>
<polygon fill="midnightblue" stroke="midnightblue" points="177.37,-57.21 187.74,-55.07 178.29,-50.27 177.37,-57.21"/>
</g>
<!-- Node4 -->
<g id="node4" class="node">
<title>Node4</title>
<g id="a_node4"><a xlink:href="classzero__mate_1_1gui_1_1CMonitor__Window.html#af0d486e1af7b25e189a425e9134b70c5" target="_top" xlink:title="Renders general information about the monitor (width, height, ...)">
<polygon fill="none" stroke="black" points="176,-0.5 176,-30.5 343,-30.5 343,-0.5 176,-0.5"/>
<text text-anchor="start" x="184" y="-18.5" font-family="Helvetica,sans-Serif" font-size="10.00">zero_mate::gui::CMonitor</text>
<text text-anchor="middle" x="259.5" y="-7.5" font-family="Helvetica,sans-Serif" font-size="10.00">_Window::Render_Monitor_Info</text>
</a>
</g>
</g>
<!-- Node1&#45;&gt;Node4 -->
<g id="edge3" class="edge">
<title>Node1&#45;&gt;Node4</title>
<path fill="none" stroke="midnightblue" d="M140.02,-30.67C148.42,-29.59 157.12,-28.48 165.8,-27.37"/>
<polygon fill="midnightblue" stroke="midnightblue" points="166.49,-30.81 175.96,-26.06 165.6,-23.86 166.49,-30.81"/>
</g>
<!-- Node3 -->
<g id="node3" class="node">
<title>Node3</title>
<g id="a_node3"><a xlink:href="classzero__mate_1_1gui_1_1CMonitor__Window.html#a2d7c8f0dafc37fcdfba3979870827462" target="_top" xlink:title="Retrieves a junk of data from the monitor which represents the current row.">
<polygon fill="none" stroke="black" points="379,-49.5 379,-79.5 530,-79.5 530,-49.5 379,-49.5"/>
<text text-anchor="start" x="387" y="-67.5" font-family="Helvetica,sans-Serif" font-size="10.00">zero_mate::gui::CMonitor</text>
<text text-anchor="middle" x="454.5" y="-56.5" font-family="Helvetica,sans-Serif" font-size="10.00">_Window::Get_Current_Row</text>
</a>
</g>
</g>
<!-- Node2&#45;&gt;Node3 -->
<g id="edge2" class="edge">
<title>Node2&#45;&gt;Node3</title>
<path fill="none" stroke="midnightblue" d="M331.27,-64.5C343.37,-64.5 356.06,-64.5 368.49,-64.5"/>
<polygon fill="midnightblue" stroke="midnightblue" points="368.85,-68 378.85,-64.5 368.85,-61 368.85,-68"/>
</g>
</g>
</svg>
