<?xml version="1.0" encoding="UTF-8" standalone="no"?>
<!DOCTYPE svg PUBLIC "-//W3C//DTD SVG 1.1//EN"
 "http://www.w3.org/Graphics/SVG/1.1/DTD/svg11.dtd">
<!-- Generated by graphviz version 2.43.0 (0)
 -->
<!-- Title: zero_mate::arm1176jzf_s::CCPU_Core Pages: 1 -->
<svg width="303pt" height="117pt"
 viewBox="0.00 0.00 303.00 117.00" xmlns="http://www.w3.org/2000/svg" xmlns:xlink="http://www.w3.org/1999/xlink">
<g id="graph0" class="graph" transform="scale(1 1) rotate(0) translate(4 113)">
<title>zero_mate::arm1176jzf_s::CCPU_Core</title>
<!-- Node1 -->
<g id="node1" class="node">
<title>Node1</title>
<g id="a_node1"><a xlink:title="Raspberry Pi Zero CPU core (arm1176jzf_s).">
<polygon fill="#bfbfbf" stroke="black" points="74,-0.5 74,-30.5 204,-30.5 204,-0.5 74,-0.5"/>
<text text-anchor="start" x="82" y="-18.5" font-family="Helvetica,sans-Serif" font-size="10.00">zero_mate::arm1176jzf</text>
<text text-anchor="middle" x="139" y="-7.5" font-family="Helvetica,sans-Serif" font-size="10.00">_s::CCPU_Core</text>
</a>
</g>
</g>
<!-- Node2 -->
<g id="node2" class="node">
<title>Node2</title>
<g id="a_node2"><a xlink:href="classzero__mate_1_1arm1176jzf__s_1_1CCPU__Context.html" target="_top" xlink:title="This class represents the context (registers) of the CPU.">
<polygon fill="none" stroke="black" points="0,-78.5 0,-108.5 130,-108.5 130,-78.5 0,-78.5"/>
<text text-anchor="start" x="8" y="-96.5" font-family="Helvetica,sans-Serif" font-size="10.00">zero_mate::arm1176jzf</text>
<text text-anchor="middle" x="65" y="-85.5" font-family="Helvetica,sans-Serif" font-size="10.00">_s::CCPU_Context</text>
</a>
</g>
</g>
<!-- Node2&#45;&gt;Node1 -->
<g id="edge1" class="edge">
<title>Node2&#45;&gt;Node1</title>
<path fill="none" stroke="#9a32cd" stroke-dasharray="5,2" d="M85.9,-71.03C98.46,-58.13 114.1,-42.07 125.14,-30.73"/>
<polygon fill="#9a32cd" stroke="#9a32cd" points="83.39,-68.6 78.92,-78.2 88.4,-73.48 83.39,-68.6"/>
<text text-anchor="middle" x="134.5" y="-52" font-family="Helvetica,sans-Serif" font-size="10.00"> m_context</text>
</g>
<!-- Node3 -->
<g id="node3" class="node">
<title>Node3</title>
<g id="a_node3"><a xlink:href="classzero__mate_1_1arm1176jzf__s_1_1isa_1_1CISA__Decoder.html" target="_top" xlink:title="This class represents an instruction decoder.">
<polygon fill="none" stroke="black" points="148,-78.5 148,-108.5 278,-108.5 278,-78.5 148,-78.5"/>
<text text-anchor="start" x="156" y="-96.5" font-family="Helvetica,sans-Serif" font-size="10.00">zero_mate::arm1176jzf</text>
<text text-anchor="middle" x="213" y="-85.5" font-family="Helvetica,sans-Serif" font-size="10.00">_s::isa::CISA_Decoder</text>
</a>
</g>
</g>
<!-- Node3&#45;&gt;Node1 -->
<g id="edge2" class="edge">
<title>Node3&#45;&gt;Node1</title>
<path fill="none" stroke="#9a32cd" stroke-dasharray="5,2" d="M192.1,-71.03C179.54,-58.13 163.9,-42.07 152.86,-30.73"/>
<polygon fill="#9a32cd" stroke="#9a32cd" points="189.6,-73.48 199.08,-78.2 194.61,-68.6 189.6,-73.48"/>
<text text-anchor="middle" x="237.5" y="-52" font-family="Helvetica,sans-Serif" font-size="10.00"> m_instruction_decoder</text>
</g>
</g>
</svg>
