<?xml version="1.0" encoding="UTF-8" standalone="no"?>
<!DOCTYPE svg PUBLIC "-//W3C//DTD SVG 1.1//EN"
 "http://www.w3.org/Graphics/SVG/1.1/DTD/svg11.dtd">
<!-- Generated by graphviz version 2.43.0 (0)
 -->
<!-- Title: zero_mate::arm1176jzf_s::CCPU_Core::Execute_Exception Pages: 1 -->
<svg width="711pt" height="429pt"
 viewBox="0.00 0.00 711.00 428.50" xmlns="http://www.w3.org/2000/svg" xmlns:xlink="http://www.w3.org/1999/xlink">
<g id="graph0" class="graph" transform="scale(1 1) rotate(0) translate(4 424.5)">
<title>zero_mate::arm1176jzf_s::CCPU_Core::Execute_Exception</title>
<!-- Node1 -->
<g id="node1" class="node">
<title>Node1</title>
<g id="a_node1"><a xlink:title="Executes a CPU exception.">
<polygon fill="#bfbfbf" stroke="black" points="0,-187 0,-228 132,-228 132,-187 0,-187"/>
<text text-anchor="start" x="8" y="-216" font-family="Helvetica,sans-Serif" font-size="10.00">zero_mate::arm1176jzf</text>
<text text-anchor="start" x="8" y="-205" font-family="Helvetica,sans-Serif" font-size="10.00">_s::CCPU_Core::Execute</text>
<text text-anchor="middle" x="66" y="-194" font-family="Helvetica,sans-Serif" font-size="10.00">_Exception</text>
</a>
</g>
</g>
<!-- Node2 -->
<g id="node2" class="node">
<title>Node2</title>
<g id="a_node2"><a xlink:href="classzero__mate_1_1arm1176jzf__s_1_1exceptions_1_1CCPU__Exception.html#ab18a4a4b6a54029ccf141784cfe9c737" target="_top" xlink:title="Returns the mode into which the CPU will switch when the exception is thrown.">
<polygon fill="none" stroke="black" points="168,-379 168,-420 319,-420 319,-379 168,-379"/>
<text text-anchor="start" x="176" y="-408" font-family="Helvetica,sans-Serif" font-size="10.00">zero_mate::arm1176jzf</text>
<text text-anchor="start" x="176" y="-397" font-family="Helvetica,sans-Serif" font-size="10.00">_s::exceptions::CCPU</text>
<text text-anchor="middle" x="243.5" y="-386" font-family="Helvetica,sans-Serif" font-size="10.00">_Exception::Get_CPU_Mode</text>
</a>
</g>
</g>
<!-- Node1&#45;&gt;Node2 -->
<g id="edge1" class="edge">
<title>Node1&#45;&gt;Node2</title>
<path fill="none" stroke="midnightblue" d="M74.82,-228.05C88.68,-261.95 120.65,-329.77 168,-369.5 169.56,-370.81 171.19,-372.07 172.87,-373.28"/>
<polygon fill="midnightblue" stroke="midnightblue" points="171.33,-376.45 181.64,-378.91 175.12,-370.56 171.33,-376.45"/>
</g>
<!-- Node3 -->
<g id="node3" class="node">
<title>Node3</title>
<g id="a_node3"><a xlink:href="classzero__mate_1_1arm1176jzf__s_1_1exceptions_1_1CCPU__Exception.html#ae87c33c76ed6571b2408fd293710b6c4" target="_top" xlink:title="Returns the address of the handler of the exception.">
<polygon fill="none" stroke="black" points="170.5,-307.5 170.5,-359.5 316.5,-359.5 316.5,-307.5 170.5,-307.5"/>
<text text-anchor="start" x="178.5" y="-347.5" font-family="Helvetica,sans-Serif" font-size="10.00">zero_mate::arm1176jzf</text>
<text text-anchor="start" x="178.5" y="-336.5" font-family="Helvetica,sans-Serif" font-size="10.00">_s::exceptions::CCPU</text>
<text text-anchor="start" x="178.5" y="-325.5" font-family="Helvetica,sans-Serif" font-size="10.00">_Exception::Get_Exception</text>
<text text-anchor="middle" x="243.5" y="-314.5" font-family="Helvetica,sans-Serif" font-size="10.00">_Vector</text>
</a>
</g>
</g>
<!-- Node1&#45;&gt;Node3 -->
<g id="edge2" class="edge">
<title>Node1&#45;&gt;Node3</title>
<path fill="none" stroke="midnightblue" d="M86.88,-228.28C106.3,-247.81 137.34,-277.02 168,-297.5 170.41,-299.11 172.9,-300.69 175.44,-302.23"/>
<polygon fill="midnightblue" stroke="midnightblue" points="173.86,-305.36 184.27,-307.33 177.36,-299.3 173.86,-305.36"/>
</g>
<!-- Node4 -->
<g id="node4" class="node">
<title>Node4</title>
<g id="a_node4"><a xlink:href="classzero__mate_1_1arm1176jzf__s_1_1exceptions_1_1CCPU__Exception.html#aabb81de8a3e09534245ef3851a31c3c0" target="_top" xlink:title="Returns the type of the exception.">
<polygon fill="none" stroke="black" points="178.5,-247 178.5,-288 308.5,-288 308.5,-247 178.5,-247"/>
<text text-anchor="start" x="186.5" y="-276" font-family="Helvetica,sans-Serif" font-size="10.00">zero_mate::arm1176jzf</text>
<text text-anchor="start" x="186.5" y="-265" font-family="Helvetica,sans-Serif" font-size="10.00">_s::exceptions::CCPU</text>
<text text-anchor="middle" x="243.5" y="-254" font-family="Helvetica,sans-Serif" font-size="10.00">_Exception::Get_Type</text>
</a>
</g>
</g>
<!-- Node1&#45;&gt;Node4 -->
<g id="edge3" class="edge">
<title>Node1&#45;&gt;Node4</title>
<path fill="none" stroke="midnightblue" d="M127.4,-228.15C141.96,-233.13 157.63,-238.49 172.59,-243.6"/>
<polygon fill="midnightblue" stroke="midnightblue" points="171.69,-246.99 182.29,-246.92 173.96,-240.37 171.69,-246.99"/>
</g>
<!-- Node5 -->
<g id="node5" class="node">
<title>Node5</title>
<g id="a_node5"><a xlink:href="classzero__mate_1_1arm1176jzf__s_1_1CCPU__Core.html#ad6dadfc114c7d0d6b43496f9f5651be7" target="_top" xlink:title="Checks if the IVT (interrupt vector table) has been reallocated to the higher address (0xFFFF0000).">
<polygon fill="none" stroke="black" points="168,-187 168,-228 319,-228 319,-187 168,-187"/>
<text text-anchor="start" x="176" y="-216" font-family="Helvetica,sans-Serif" font-size="10.00">zero_mate::arm1176jzf</text>
<text text-anchor="start" x="176" y="-205" font-family="Helvetica,sans-Serif" font-size="10.00">_s::CCPU_Core::Is_IVT</text>
<text text-anchor="middle" x="243.5" y="-194" font-family="Helvetica,sans-Serif" font-size="10.00">_Reallocated_To_High_Addr</text>
</a>
</g>
</g>
<!-- Node1&#45;&gt;Node5 -->
<g id="edge4" class="edge">
<title>Node1&#45;&gt;Node5</title>
<path fill="none" stroke="midnightblue" d="M132.35,-207.5C140.69,-207.5 149.31,-207.5 157.89,-207.5"/>
<polygon fill="midnightblue" stroke="midnightblue" points="157.93,-211 167.93,-207.5 157.93,-204 157.93,-211"/>
</g>
<!-- Node8 -->
<g id="node8" class="node">
<title>Node8</title>
<g id="a_node8"><a xlink:href="classzero__mate_1_1arm1176jzf__s_1_1CCPU__Core.html#a423eacd01e574e782a2b7cf51f28c56c" target="_top" xlink:title="Returns a reference to the PC register (r15)">
<polygon fill="none" stroke="black" points="178.5,-137.5 178.5,-167.5 308.5,-167.5 308.5,-137.5 178.5,-137.5"/>
<text text-anchor="start" x="186.5" y="-155.5" font-family="Helvetica,sans-Serif" font-size="10.00">zero_mate::arm1176jzf</text>
<text text-anchor="middle" x="243.5" y="-144.5" font-family="Helvetica,sans-Serif" font-size="10.00">_s::CCPU_Core::PC</text>
</a>
</g>
</g>
<!-- Node1&#45;&gt;Node8 -->
<g id="edge7" class="edge">
<title>Node1&#45;&gt;Node8</title>
<path fill="none" stroke="midnightblue" d="M132.35,-187.02C149.54,-181.63 167.96,-175.86 184.72,-170.61"/>
<polygon fill="midnightblue" stroke="midnightblue" points="185.88,-173.91 194.37,-167.58 183.78,-167.23 185.88,-173.91"/>
</g>
<!-- Node9 -->
<g id="node9" class="node">
<title>Node9</title>
<g id="a_node9"><a xlink:href="classzero__mate_1_1arm1176jzf__s_1_1CCPU__Context.html#a7efff674f8141eab73cb69099220f0d5" target="_top" xlink:title="Sets the mode of the CPU.">
<polygon fill="none" stroke="black" points="178.5,-77 178.5,-118 308.5,-118 308.5,-77 178.5,-77"/>
<text text-anchor="start" x="186.5" y="-106" font-family="Helvetica,sans-Serif" font-size="10.00">zero_mate::arm1176jzf</text>
<text text-anchor="start" x="186.5" y="-95" font-family="Helvetica,sans-Serif" font-size="10.00">_s::CCPU_Context::Set</text>
<text text-anchor="middle" x="243.5" y="-84" font-family="Helvetica,sans-Serif" font-size="10.00">_CPU_Mode</text>
</a>
</g>
</g>
<!-- Node1&#45;&gt;Node9 -->
<g id="edge8" class="edge">
<title>Node1&#45;&gt;Node9</title>
<path fill="none" stroke="midnightblue" d="M89.78,-186.75C109.45,-169.58 139.17,-145.35 168,-128.5 171.44,-126.49 175.03,-124.54 178.71,-122.67"/>
<polygon fill="midnightblue" stroke="midnightblue" points="180.49,-125.7 187.95,-118.18 177.43,-119.4 180.49,-125.7"/>
</g>
<!-- Node10 -->
<g id="node10" class="node">
<title>Node10</title>
<g id="a_node10"><a xlink:href="classzero__mate_1_1utils_1_1CLogging__System.html#a8904feb1d77dc350717ebcd00e7e5443" target="_top" xlink:title="Logs a warning message via all registered loggers.">
<polygon fill="none" stroke="black" points="170.5,-27.5 170.5,-57.5 316.5,-57.5 316.5,-27.5 170.5,-27.5"/>
<text text-anchor="start" x="178.5" y="-45.5" font-family="Helvetica,sans-Serif" font-size="10.00">zero_mate::utils::CLogging</text>
<text text-anchor="middle" x="243.5" y="-34.5" font-family="Helvetica,sans-Serif" font-size="10.00">_System::Warning</text>
</a>
</g>
</g>
<!-- Node1&#45;&gt;Node10 -->
<g id="edge9" class="edge">
<title>Node1&#45;&gt;Node10</title>
<path fill="none" stroke="midnightblue" d="M76.68,-186.78C91.92,-156.33 124.32,-99.67 168,-67.5 170.64,-65.56 173.43,-63.76 176.34,-62.1"/>
<polygon fill="midnightblue" stroke="midnightblue" points="178.01,-65.17 185.32,-57.5 174.82,-58.94 178.01,-65.17"/>
</g>
<!-- Node6 -->
<g id="node6" class="node">
<title>Node6</title>
<g id="a_node6"><a xlink:href="classzero__mate_1_1coprocessor_1_1cp15_1_1CC1.html#ac6b22a989b3f58443f36e32999150eb6" target="_top" xlink:title=" ">
<polygon fill="none" stroke="black" points="364.5,-187 364.5,-228 497.5,-228 497.5,-187 364.5,-187"/>
<text text-anchor="start" x="372.5" y="-216" font-family="Helvetica,sans-Serif" font-size="10.00">zero_mate::coprocessor</text>
<text text-anchor="start" x="372.5" y="-205" font-family="Helvetica,sans-Serif" font-size="10.00">::cp15::CC1::Is_Control</text>
<text text-anchor="middle" x="431" y="-194" font-family="Helvetica,sans-Serif" font-size="10.00">_Flag_Set</text>
</a>
</g>
</g>
<!-- Node5&#45;&gt;Node6 -->
<g id="edge5" class="edge">
<title>Node5&#45;&gt;Node6</title>
<path fill="none" stroke="midnightblue" d="M319.15,-207.5C330.75,-207.5 342.75,-207.5 354.37,-207.5"/>
<polygon fill="midnightblue" stroke="midnightblue" points="354.47,-211 364.47,-207.5 354.47,-204 354.47,-211"/>
</g>
<!-- Node7 -->
<g id="node7" class="node">
<title>Node7</title>
<g id="a_node7"><a xlink:href="classzero__mate_1_1coprocessor_1_1cp15_1_1IPrimary__Reg.html#a0780610d57b65a633a1776be372116a6" target="_top" xlink:title="Checks whether a flag is set in a given register.">
<polygon fill="none" stroke="black" points="556.5,-187 556.5,-228 689.5,-228 689.5,-187 556.5,-187"/>
<text text-anchor="start" x="564.5" y="-216" font-family="Helvetica,sans-Serif" font-size="10.00">zero_mate::coprocessor</text>
<text text-anchor="start" x="564.5" y="-205" font-family="Helvetica,sans-Serif" font-size="10.00">::cp15::IPrimary_Reg::</text>
<text text-anchor="middle" x="623" y="-194" font-family="Helvetica,sans-Serif" font-size="10.00">Is_Flag_Set</text>
</a>
</g>
</g>
<!-- Node6&#45;&gt;Node7 -->
<g id="edge6" class="edge">
<title>Node6&#45;&gt;Node7</title>
<path fill="none" stroke="midnightblue" d="M497.65,-207.5C513.23,-207.5 529.97,-207.5 545.96,-207.5"/>
<polygon fill="midnightblue" stroke="midnightblue" points="546.34,-211 556.34,-207.5 546.34,-204 546.34,-211"/>
</g>
<!-- Node11 -->
<g id="node11" class="node">
<title>Node11</title>
<g id="a_node11"><a xlink:href="classzero__mate_1_1utils_1_1CLogging__System.html#a71ed11c796553cbe8fd99773406a1060" target="_top" xlink:title="Creates a formatted message to be logged.">
<polygon fill="none" stroke="black" points="355,-50 355,-91 507,-91 507,-50 355,-50"/>
<text text-anchor="start" x="363" y="-79" font-family="Helvetica,sans-Serif" font-size="10.00">zero_mate::utils::CLogging</text>
<text text-anchor="start" x="363" y="-68" font-family="Helvetica,sans-Serif" font-size="10.00">_System::Create_Formatted</text>
<text text-anchor="middle" x="431" y="-57" font-family="Helvetica,sans-Serif" font-size="10.00">_Log_Msg</text>
</a>
</g>
</g>
<!-- Node10&#45;&gt;Node11 -->
<g id="edge10" class="edge">
<title>Node10&#45;&gt;Node11</title>
<path fill="none" stroke="midnightblue" d="M316.75,-53.41C325.94,-54.79 335.41,-56.22 344.78,-57.64"/>
<polygon fill="midnightblue" stroke="midnightblue" points="344.48,-61.13 354.89,-59.16 345.52,-54.21 344.48,-61.13"/>
</g>
<!-- Node14 -->
<g id="node14" class="node">
<title>Node14</title>
<g id="a_node14"><a xlink:href="classzero__mate_1_1utils_1_1CLogging__System.html#a90671387b53987d6fd3c85348cb234e4" target="_top" xlink:title="Extract the filename from a given location within the source files.">
<polygon fill="none" stroke="black" points="356.5,-0.5 356.5,-30.5 505.5,-30.5 505.5,-0.5 356.5,-0.5"/>
<text text-anchor="start" x="364.5" y="-18.5" font-family="Helvetica,sans-Serif" font-size="10.00">zero_mate::utils::CLogging</text>
<text text-anchor="middle" x="431" y="-7.5" font-family="Helvetica,sans-Serif" font-size="10.00">_System::Extract_Filename</text>
</a>
</g>
</g>
<!-- Node10&#45;&gt;Node14 -->
<g id="edge13" class="edge">
<title>Node10&#45;&gt;Node14</title>
<path fill="none" stroke="midnightblue" d="M316.75,-31.98C326.41,-30.58 336.39,-29.12 346.23,-27.69"/>
<polygon fill="midnightblue" stroke="midnightblue" points="347.03,-31.11 356.42,-26.21 346.02,-24.19 347.03,-31.11"/>
</g>
<!-- Node12 -->
<g id="node12" class="node">
<title>Node12</title>
<g id="a_node12"><a xlink:href="classzero__mate_1_1utils_1_1CLogging__System.html#aa70c102c805079042ffea2a6f2a5ad64" target="_top" xlink:title="Formats a given timestamp.">
<polygon fill="none" stroke="black" points="543,-79.5 543,-109.5 703,-109.5 703,-79.5 543,-79.5"/>
<text text-anchor="start" x="551" y="-97.5" font-family="Helvetica,sans-Serif" font-size="10.00">zero_mate::utils::CLogging</text>
<text text-anchor="middle" x="623" y="-86.5" font-family="Helvetica,sans-Serif" font-size="10.00">_System::Format_Timestamp</text>
</a>
</g>
</g>
<!-- Node11&#45;&gt;Node12 -->
<g id="edge11" class="edge">
<title>Node11&#45;&gt;Node12</title>
<path fill="none" stroke="midnightblue" d="M507.09,-79.99C515.52,-81.05 524.16,-82.14 532.74,-83.23"/>
<polygon fill="midnightblue" stroke="midnightblue" points="532.41,-86.71 542.77,-84.49 533.29,-79.77 532.41,-86.71"/>
</g>
<!-- Node13 -->
<g id="node13" class="node">
<title>Node13</title>
<g id="a_node13"><a xlink:href="classzero__mate_1_1utils_1_1CLogging__System.html#ae3ca637537dde05e0b9119145c840331" target="_top" xlink:title="Returns the current timestamp that will be used in a log message.">
<polygon fill="none" stroke="black" points="550,-30.5 550,-60.5 696,-60.5 696,-30.5 550,-30.5"/>
<text text-anchor="start" x="558" y="-48.5" font-family="Helvetica,sans-Serif" font-size="10.00">zero_mate::utils::CLogging</text>
<text text-anchor="middle" x="623" y="-37.5" font-family="Helvetica,sans-Serif" font-size="10.00">_System::Get_Timestamp</text>
</a>
</g>
</g>
<!-- Node11&#45;&gt;Node13 -->
<g id="edge12" class="edge">
<title>Node11&#45;&gt;Node13</title>
<path fill="none" stroke="midnightblue" d="M507.09,-60.62C517.89,-59.2 529.05,-57.73 539.98,-56.29"/>
<polygon fill="midnightblue" stroke="midnightblue" points="540.47,-59.76 549.93,-54.98 539.56,-52.82 540.47,-59.76"/>
</g>
</g>
</svg>
