<?xml version="1.0" encoding="UTF-8" standalone="no"?>
<!DOCTYPE svg PUBLIC "-//W3C//DTD SVG 1.1//EN"
 "http://www.w3.org/Graphics/SVG/1.1/DTD/svg11.dtd">
<!-- Generated by graphviz version 2.43.0 (0)
 -->
<!-- Title: zero_mate::peripheral::CGPIO_Manager::Write Pages: 1 -->
<svg width="700pt" height="319pt"
 viewBox="0.00 0.00 700.00 318.50" xmlns="http://www.w3.org/2000/svg" xmlns:xlink="http://www.w3.org/1999/xlink">
<g id="graph0" class="graph" transform="scale(1 1) rotate(0) translate(4 314.5)">
<title>zero_mate::peripheral::CGPIO_Manager::Write</title>
<!-- Node1 -->
<g id="node1" class="node">
<title>Node1</title>
<g id="a_node1"><a xlink:title="Writes data to the peripheral (IPeripheral interface).">
<polygon fill="#bfbfbf" stroke="black" points="0,-137.5 0,-167.5 134,-167.5 134,-137.5 0,-137.5"/>
<text text-anchor="start" x="8" y="-155.5" font-family="Helvetica,sans-Serif" font-size="10.00">zero_mate::peripheral</text>
<text text-anchor="middle" x="67" y="-144.5" font-family="Helvetica,sans-Serif" font-size="10.00">::CGPIO_Manager::Write</text>
</a>
</g>
</g>
<!-- Node2 -->
<g id="node2" class="node">
<title>Node2</title>
<g id="a_node2"><a xlink:href="classzero__mate_1_1peripheral_1_1CGPIO__Manager.html#a4a4e9cf470ed6f7dbfb3ada75d35e47c" target="_top" xlink:title="Clears a pending interrupt by writing a 1 to the GPEDS register.">
<polygon fill="none" stroke="black" points="170,-252.5 170,-282.5 325,-282.5 325,-252.5 170,-252.5"/>
<text text-anchor="start" x="178" y="-270.5" font-family="Helvetica,sans-Serif" font-size="10.00">zero_mate::peripheral</text>
<text text-anchor="middle" x="247.5" y="-259.5" font-family="Helvetica,sans-Serif" font-size="10.00">::CGPIO_Manager::Clear_IRQ</text>
</a>
</g>
</g>
<!-- Node1&#45;&gt;Node2 -->
<g id="edge1" class="edge">
<title>Node1&#45;&gt;Node2</title>
<path fill="none" stroke="midnightblue" d="M81.4,-167.67C99.63,-187.46 134.12,-221.99 170,-242.5 173.68,-244.61 177.57,-246.57 181.56,-248.38"/>
<polygon fill="midnightblue" stroke="midnightblue" points="180.44,-251.71 191.01,-252.36 183.15,-245.25 180.44,-251.71"/>
</g>
<!-- Node7 -->
<g id="node7" class="node">
<title>Node7</title>
<g id="a_node7"><a xlink:href="classzero__mate_1_1peripheral_1_1CGPIO__Manager.html#ad29d57528b73baef90b0ca885a297e4d" target="_top" xlink:title="Enables/disables an interrupt for all pins within a given register.">
<polygon fill="none" stroke="black" points="185.5,-192 185.5,-233 309.5,-233 309.5,-192 185.5,-192"/>
<text text-anchor="start" x="193.5" y="-221" font-family="Helvetica,sans-Serif" font-size="10.00">zero_mate::peripheral</text>
<text text-anchor="start" x="193.5" y="-210" font-family="Helvetica,sans-Serif" font-size="10.00">::CGPIO_Manager::Set</text>
<text text-anchor="middle" x="247.5" y="-199" font-family="Helvetica,sans-Serif" font-size="10.00">_Interrupt</text>
</a>
</g>
</g>
<!-- Node1&#45;&gt;Node7 -->
<g id="edge6" class="edge">
<title>Node1&#45;&gt;Node7</title>
<path fill="none" stroke="midnightblue" d="M113.04,-167.64C132.03,-174.02 154.59,-181.61 175.71,-188.7"/>
<polygon fill="midnightblue" stroke="midnightblue" points="174.69,-192.06 185.29,-191.92 176.93,-185.42 174.69,-192.06"/>
</g>
<!-- Node8 -->
<g id="node8" class="node">
<title>Node8</title>
<g id="a_node8"><a xlink:href="classzero__mate_1_1peripheral_1_1CGPIO__Manager.html#ad7c6aa486cf3b116ffae9f16eec64064" target="_top" xlink:title="Updates the function of all pins within a given register.">
<polygon fill="none" stroke="black" points="176,-132 176,-173 319,-173 319,-132 176,-132"/>
<text text-anchor="start" x="184" y="-161" font-family="Helvetica,sans-Serif" font-size="10.00">zero_mate::peripheral</text>
<text text-anchor="start" x="184" y="-150" font-family="Helvetica,sans-Serif" font-size="10.00">::CGPIO_Manager::Update</text>
<text text-anchor="middle" x="247.5" y="-139" font-family="Helvetica,sans-Serif" font-size="10.00">_Pin_Function</text>
</a>
</g>
</g>
<!-- Node1&#45;&gt;Node8 -->
<g id="edge9" class="edge">
<title>Node1&#45;&gt;Node8</title>
<path fill="none" stroke="midnightblue" d="M134.21,-152.5C144.51,-152.5 155.25,-152.5 165.83,-152.5"/>
<polygon fill="midnightblue" stroke="midnightblue" points="165.9,-156 175.9,-152.5 165.9,-149 165.9,-156"/>
</g>
<!-- Node9 -->
<g id="node9" class="node">
<title>Node9</title>
<g id="a_node9"><a xlink:href="classzero__mate_1_1peripheral_1_1CGPIO__Manager.html#ae93785da50eefb8a8cc21c1c59a32726" target="_top" xlink:title="Updates the state of all pins within a given register.">
<polygon fill="none" stroke="black" points="176,-72 176,-113 319,-113 319,-72 176,-72"/>
<text text-anchor="start" x="184" y="-101" font-family="Helvetica,sans-Serif" font-size="10.00">zero_mate::peripheral</text>
<text text-anchor="start" x="184" y="-90" font-family="Helvetica,sans-Serif" font-size="10.00">::CGPIO_Manager::Update</text>
<text text-anchor="middle" x="247.5" y="-79" font-family="Helvetica,sans-Serif" font-size="10.00">_Pin_State</text>
</a>
</g>
</g>
<!-- Node1&#45;&gt;Node9 -->
<g id="edge11" class="edge">
<title>Node1&#45;&gt;Node9</title>
<path fill="none" stroke="midnightblue" d="M113.04,-137.36C132.03,-130.98 154.59,-123.39 175.71,-116.3"/>
<polygon fill="midnightblue" stroke="midnightblue" points="176.93,-119.58 185.29,-113.08 174.69,-112.94 176.93,-119.58"/>
</g>
<!-- Node13 -->
<g id="node13" class="node">
<title>Node13</title>
<g id="a_node13"><a xlink:href="classzero__mate_1_1utils_1_1CLogging__System.html#a8904feb1d77dc350717ebcd00e7e5443" target="_top" xlink:title="Logs a warning message via all registered loggers.">
<polygon fill="none" stroke="black" points="361,-0.5 361,-30.5 507,-30.5 507,-0.5 361,-0.5"/>
<text text-anchor="start" x="369" y="-18.5" font-family="Helvetica,sans-Serif" font-size="10.00">zero_mate::utils::CLogging</text>
<text text-anchor="middle" x="434" y="-7.5" font-family="Helvetica,sans-Serif" font-size="10.00">_System::Warning</text>
</a>
</g>
</g>
<!-- Node1&#45;&gt;Node13 -->
<g id="edge19" class="edge">
<title>Node1&#45;&gt;Node13</title>
<path fill="none" stroke="midnightblue" d="M80.39,-137.27C98.01,-116.74 132.36,-80.68 170,-62.5 226.6,-35.16 296.98,-23.6 350.68,-18.77"/>
<polygon fill="midnightblue" stroke="midnightblue" points="351.18,-22.24 360.85,-17.92 350.59,-15.26 351.18,-22.24"/>
</g>
<!-- Node3 -->
<g id="node3" class="node">
<title>Node3</title>
<g id="a_node3"><a xlink:href="classzero__mate_1_1utils_1_1CLogging__System.html#a365eaf1db85bd115fe69c5d9f93b81ee" target="_top" xlink:title="Logs a debug message via all registered loggers.">
<polygon fill="none" stroke="black" points="361,-170.5 361,-200.5 507,-200.5 507,-170.5 361,-170.5"/>
<text text-anchor="start" x="369" y="-188.5" font-family="Helvetica,sans-Serif" font-size="10.00">zero_mate::utils::CLogging</text>
<text text-anchor="middle" x="434" y="-177.5" font-family="Helvetica,sans-Serif" font-size="10.00">_System::Debug</text>
</a>
</g>
</g>
<!-- Node2&#45;&gt;Node3 -->
<g id="edge2" class="edge">
<title>Node2&#45;&gt;Node3</title>
<path fill="none" stroke="midnightblue" d="M304,-252.39C311.27,-249.54 318.46,-246.26 325,-242.5 343.56,-231.84 342.53,-221.33 361,-210.5 364.6,-208.39 368.4,-206.42 372.3,-204.59"/>
<polygon fill="midnightblue" stroke="midnightblue" points="373.76,-207.77 381.53,-200.57 370.97,-201.35 373.76,-207.77"/>
</g>
<!-- Node5 -->
<g id="node5" class="node">
<title>Node5</title>
<g id="a_node5"><a xlink:href="classzero__mate_1_1peripheral_1_1CInterrupt__Controller.html#a35b97d4871edb1ee3a0fbda305c58b95" target="_top" xlink:title="Returns the corresponding IRQ source for a given GPIO pin.">
<polygon fill="none" stroke="black" points="371.5,-269 371.5,-310 496.5,-310 496.5,-269 371.5,-269"/>
<text text-anchor="start" x="379.5" y="-298" font-family="Helvetica,sans-Serif" font-size="10.00">zero_mate::peripheral</text>
<text text-anchor="start" x="379.5" y="-287" font-family="Helvetica,sans-Serif" font-size="10.00">::CInterrupt_Controller</text>
<text text-anchor="middle" x="434" y="-276" font-family="Helvetica,sans-Serif" font-size="10.00">::Get_IRQ_Source</text>
</a>
</g>
</g>
<!-- Node2&#45;&gt;Node5 -->
<g id="edge4" class="edge">
<title>Node2&#45;&gt;Node5</title>
<path fill="none" stroke="midnightblue" d="M325.14,-276.64C337.09,-278.06 349.39,-279.53 361.22,-280.94"/>
<polygon fill="midnightblue" stroke="midnightblue" points="361.14,-284.46 371.48,-282.16 361.96,-277.5 361.14,-284.46"/>
</g>
<!-- Node6 -->
<g id="node6" class="node">
<title>Node6</title>
<g id="a_node6"><a xlink:href="namespacezero__mate_1_1utils_1_1math.html#af7d93c996dab2ff1b91c5a399dcfe29f" target="_top" xlink:title="Tests whether a bit is set in the given integral variable.">
<polygon fill="none" stroke="black" points="370.5,-219.5 370.5,-249.5 497.5,-249.5 497.5,-219.5 370.5,-219.5"/>
<text text-anchor="start" x="378.5" y="-237.5" font-family="Helvetica,sans-Serif" font-size="10.00">zero_mate::utils::math</text>
<text text-anchor="middle" x="434" y="-226.5" font-family="Helvetica,sans-Serif" font-size="10.00">::Is_Bit_Set</text>
</a>
</g>
</g>
<!-- Node2&#45;&gt;Node6 -->
<g id="edge5" class="edge">
<title>Node2&#45;&gt;Node6</title>
<path fill="none" stroke="midnightblue" d="M325.14,-253.79C336.78,-251.71 348.76,-249.57 360.31,-247.5"/>
<polygon fill="midnightblue" stroke="midnightblue" points="361.11,-250.91 370.34,-245.71 359.88,-244.02 361.11,-250.91"/>
</g>
<!-- Node4 -->
<g id="node4" class="node">
<title>Node4</title>
<g id="a_node4"><a xlink:href="classzero__mate_1_1utils_1_1CLogging__System.html#a90671387b53987d6fd3c85348cb234e4" target="_top" xlink:title="Extract the filename from a given location within the source files.">
<polygon fill="none" stroke="black" points="543,-0.5 543,-30.5 692,-30.5 692,-0.5 543,-0.5"/>
<text text-anchor="start" x="551" y="-18.5" font-family="Helvetica,sans-Serif" font-size="10.00">zero_mate::utils::CLogging</text>
<text text-anchor="middle" x="617.5" y="-7.5" font-family="Helvetica,sans-Serif" font-size="10.00">_System::Extract_Filename</text>
</a>
</g>
</g>
<!-- Node3&#45;&gt;Node4 -->
<g id="edge3" class="edge">
<title>Node3&#45;&gt;Node4</title>
<path fill="none" stroke="midnightblue" d="M494.46,-170.3C499.06,-167.56 503.34,-164.32 507,-160.5 545.52,-120.29 504.35,-80.58 543,-40.5 544.4,-39.04 545.89,-37.67 547.46,-36.38"/>
<polygon fill="midnightblue" stroke="midnightblue" points="549.6,-39.15 555.81,-30.57 545.61,-33.41 549.6,-39.15"/>
</g>
<!-- Node7&#45;&gt;Node3 -->
<g id="edge7" class="edge">
<title>Node7&#45;&gt;Node3</title>
<path fill="none" stroke="midnightblue" d="M309.68,-203.55C322.85,-201.62 336.97,-199.55 350.79,-197.53"/>
<polygon fill="midnightblue" stroke="midnightblue" points="351.39,-200.98 360.78,-196.07 350.38,-194.05 351.39,-200.98"/>
</g>
<!-- Node7&#45;&gt;Node6 -->
<g id="edge8" class="edge">
<title>Node7&#45;&gt;Node6</title>
<path fill="none" stroke="midnightblue" d="M309.68,-219.8C325.84,-221.72 343.43,-223.82 360.14,-225.81"/>
<polygon fill="midnightblue" stroke="midnightblue" points="360.06,-229.33 370.41,-227.04 360.89,-222.38 360.06,-229.33"/>
</g>
<!-- Node8&#45;&gt;Node3 -->
<g id="edge10" class="edge">
<title>Node8&#45;&gt;Node3</title>
<path fill="none" stroke="midnightblue" d="M319.04,-165.12C329.45,-166.98 340.25,-168.91 350.86,-170.81"/>
<polygon fill="midnightblue" stroke="midnightblue" points="350.51,-174.3 360.97,-172.62 351.74,-167.41 350.51,-174.3"/>
</g>
<!-- Node9&#45;&gt;Node3 -->
<g id="edge12" class="edge">
<title>Node9&#45;&gt;Node3</title>
<path fill="none" stroke="midnightblue" d="M308.69,-113.12C314.38,-115.95 319.91,-119.07 325,-122.5 344.29,-135.5 341.46,-147.88 361,-160.5 364.13,-162.52 367.44,-164.4 370.86,-166.14"/>
<polygon fill="midnightblue" stroke="midnightblue" points="369.55,-169.4 380.09,-170.45 372.51,-163.05 369.55,-169.4"/>
</g>
<!-- Node9&#45;&gt;Node6 -->
<g id="edge13" class="edge">
<title>Node9&#45;&gt;Node6</title>
<path fill="none" stroke="midnightblue" d="M313.15,-113.14C317.43,-115.89 321.44,-119 325,-122.5 355.1,-152.16 330.14,-181.63 361,-210.5 362.14,-211.57 363.33,-212.59 364.57,-213.57"/>
<polygon fill="midnightblue" stroke="midnightblue" points="362.99,-216.72 373.24,-219.37 366.88,-210.9 362.99,-216.72"/>
</g>
<!-- Node10 -->
<g id="node10" class="node">
<title>Node10</title>
<g id="a_node10"><a xlink:href="classzero__mate_1_1peripheral_1_1CGPIO__Manager.html#afb4a55159afdaa47cd3640dfd1e0106b" target="_top" xlink:title="Mirrors the state of a given in in the GPLEV register.">
<polygon fill="none" stroke="black" points="365.5,-50 365.5,-91 502.5,-91 502.5,-50 365.5,-50"/>
<text text-anchor="start" x="373.5" y="-79" font-family="Helvetica,sans-Serif" font-size="10.00">zero_mate::peripheral</text>
<text text-anchor="start" x="373.5" y="-68" font-family="Helvetica,sans-Serif" font-size="10.00">::CGPIO_Manager::Mirror</text>
<text text-anchor="middle" x="434" y="-57" font-family="Helvetica,sans-Serif" font-size="10.00">_Pin_State_In_GPLEVn</text>
</a>
</g>
</g>
<!-- Node9&#45;&gt;Node10 -->
<g id="edge14" class="edge">
<title>Node9&#45;&gt;Node10</title>
<path fill="none" stroke="midnightblue" d="M319.04,-84.09C330.88,-82.68 343.23,-81.2 355.24,-79.77"/>
<polygon fill="midnightblue" stroke="midnightblue" points="355.72,-83.24 365.23,-78.58 354.89,-76.29 355.72,-83.24"/>
</g>
<!-- Node12 -->
<g id="node12" class="node">
<title>Node12</title>
<g id="a_node12"><a xlink:href="classzero__mate_1_1peripheral_1_1CGPIO__Manager.html#a623c62636a57d6c63db1331a42100452" target="_top" xlink:title="Notifies external peripherals that subscribe to the given pin about the change of its state.">
<polygon fill="none" stroke="black" points="365.5,-110 365.5,-151 502.5,-151 502.5,-110 365.5,-110"/>
<text text-anchor="start" x="373.5" y="-139" font-family="Helvetica,sans-Serif" font-size="10.00">zero_mate::peripheral</text>
<text text-anchor="start" x="373.5" y="-128" font-family="Helvetica,sans-Serif" font-size="10.00">::CGPIO_Manager::Notify</text>
<text text-anchor="middle" x="434" y="-117" font-family="Helvetica,sans-Serif" font-size="10.00">_External_Peripherals</text>
</a>
</g>
</g>
<!-- Node9&#45;&gt;Node12 -->
<g id="edge16" class="edge">
<title>Node9&#45;&gt;Node12</title>
<path fill="none" stroke="midnightblue" d="M319.04,-107.03C330.88,-109.47 343.23,-112.01 355.24,-114.48"/>
<polygon fill="midnightblue" stroke="midnightblue" points="354.73,-117.95 365.23,-116.54 356.15,-111.1 354.73,-117.95"/>
</g>
<!-- Node9&#45;&gt;Node13 -->
<g id="edge17" class="edge">
<title>Node9&#45;&gt;Node13</title>
<path fill="none" stroke="midnightblue" d="M290.27,-72C311.28,-61.99 337.26,-50.08 361,-40.5 366.42,-38.31 372.12,-36.13 377.84,-34.03"/>
<polygon fill="midnightblue" stroke="midnightblue" points="379.21,-37.25 387.43,-30.56 376.83,-30.67 379.21,-37.25"/>
</g>
<!-- Node11 -->
<g id="node11" class="node">
<title>Node11</title>
<g id="a_node11"><a xlink:href="classzero__mate_1_1peripheral_1_1CGPIO__Manager.html#aa6b0515a8e4fecb78bebfbb79a13994b" target="_top" xlink:title="Returns the index of the register (out of the two alternatives) based on the pin index.">
<polygon fill="none" stroke="black" points="555,-50 555,-91 680,-91 680,-50 555,-50"/>
<text text-anchor="start" x="563" y="-79" font-family="Helvetica,sans-Serif" font-size="10.00">zero_mate::peripheral</text>
<text text-anchor="start" x="563" y="-68" font-family="Helvetica,sans-Serif" font-size="10.00">::CGPIO_Manager::Get</text>
<text text-anchor="middle" x="617.5" y="-57" font-family="Helvetica,sans-Serif" font-size="10.00">_Register_Index</text>
</a>
</g>
</g>
<!-- Node10&#45;&gt;Node11 -->
<g id="edge15" class="edge">
<title>Node10&#45;&gt;Node11</title>
<path fill="none" stroke="midnightblue" d="M502.58,-70.5C516.37,-70.5 530.92,-70.5 544.85,-70.5"/>
<polygon fill="midnightblue" stroke="midnightblue" points="544.85,-74 554.85,-70.5 544.85,-67 544.85,-74"/>
</g>
<!-- Node13&#45;&gt;Node4 -->
<g id="edge18" class="edge">
<title>Node13&#45;&gt;Node4</title>
<path fill="none" stroke="midnightblue" d="M507.26,-15.5C515.55,-15.5 524.06,-15.5 532.49,-15.5"/>
<polygon fill="midnightblue" stroke="midnightblue" points="532.71,-19 542.71,-15.5 532.71,-12 532.71,-19"/>
</g>
</g>
</svg>
