<?xml version="1.0" encoding="UTF-8" standalone="no"?>
<!DOCTYPE svg PUBLIC "-//W3C//DTD SVG 1.1//EN"
 "http://www.w3.org/Graphics/SVG/1.1/DTD/svg11.dtd">
<!-- Generated by graphviz version 2.43.0 (0)
 -->
<!-- Title: zero_mate::gui::external_peripheral::CSeven_Segment_Display::Render_Seven_Segment_Display Pages: 1 -->
<svg width="594pt" height="50pt"
 viewBox="0.00 0.00 594.00 50.00" xmlns="http://www.w3.org/2000/svg" xmlns:xlink="http://www.w3.org/1999/xlink">
<g id="graph0" class="graph" transform="scale(1 1) rotate(0) translate(4 46)">
<title>zero_mate::gui::external_peripheral::CSeven_Segment_Display::Render_Seven_Segment_Display</title>
<!-- Node1 -->
<g id="node1" class="node">
<title>Node1</title>
<g id="a_node1"><a xlink:title=" ">
<polygon fill="#bfbfbf" stroke="black" points="0,-0.5 0,-41.5 224,-41.5 224,-0.5 0,-0.5"/>
<text text-anchor="start" x="8" y="-29.5" font-family="Helvetica,sans-Serif" font-size="10.00">zero_mate::gui::external</text>
<text text-anchor="start" x="8" y="-18.5" font-family="Helvetica,sans-Serif" font-size="10.00">_peripheral::CSeven_Segment</text>
<text text-anchor="middle" x="112" y="-7.5" font-family="Helvetica,sans-Serif" font-size="10.00">_Display::Render_Seven_Segment_Display</text>
</a>
</g>
</g>
<!-- Node2 -->
<g id="node2" class="node">
<title>Node2</title>
<g id="a_node2"><a xlink:href="classzero__mate_1_1gui_1_1external__peripheral_1_1CSeven__Segment__Display.html#a8f1f6987199c9bf6c4bdf4067d926c42" target="_top" xlink:title=" ">
<polygon fill="none" stroke="black" points="260,-0.5 260,-41.5 423,-41.5 423,-0.5 260,-0.5"/>
<text text-anchor="start" x="268" y="-29.5" font-family="Helvetica,sans-Serif" font-size="10.00">zero_mate::gui::external</text>
<text text-anchor="start" x="268" y="-18.5" font-family="Helvetica,sans-Serif" font-size="10.00">_peripheral::CSeven_Segment</text>
<text text-anchor="middle" x="341.5" y="-7.5" font-family="Helvetica,sans-Serif" font-size="10.00">_Display::Get_Segment_Color</text>
</a>
</g>
</g>
<!-- Node1&#45;&gt;Node2 -->
<g id="edge1" class="edge">
<title>Node1&#45;&gt;Node2</title>
<path fill="none" stroke="midnightblue" d="M224.08,-21C232.66,-21 241.26,-21 249.69,-21"/>
<polygon fill="midnightblue" stroke="midnightblue" points="249.87,-24.5 259.87,-21 249.87,-17.5 249.87,-24.5"/>
</g>
<!-- Node3 -->
<g id="node3" class="node">
<title>Node3</title>
<g id="a_node3"><a xlink:href="namespacezero__mate_1_1utils_1_1math.html#af7d93c996dab2ff1b91c5a399dcfe29f" target="_top" xlink:title="Tests whether a bit is set in the given integral variable.">
<polygon fill="none" stroke="black" points="459,-6 459,-36 586,-36 586,-6 459,-6"/>
<text text-anchor="start" x="467" y="-24" font-family="Helvetica,sans-Serif" font-size="10.00">zero_mate::utils::math</text>
<text text-anchor="middle" x="522.5" y="-13" font-family="Helvetica,sans-Serif" font-size="10.00">::Is_Bit_Set</text>
</a>
</g>
</g>
<!-- Node2&#45;&gt;Node3 -->
<g id="edge2" class="edge">
<title>Node2&#45;&gt;Node3</title>
<path fill="none" stroke="midnightblue" d="M423.1,-21C431.61,-21 440.23,-21 448.64,-21"/>
<polygon fill="midnightblue" stroke="midnightblue" points="448.79,-24.5 458.79,-21 448.79,-17.5 448.79,-24.5"/>
</g>
</g>
</svg>
