<?xml version="1.0" encoding="UTF-8" standalone="no"?>
<!DOCTYPE svg PUBLIC "-//W3C//DTD SVG 1.1//EN"
 "http://www.w3.org/Graphics/SVG/1.1/DTD/svg11.dtd">
<!-- Generated by graphviz version 2.43.0 (0)
 -->
<!-- Title: zero_mate::peripheral::CARM_Timer::Write Pages: 1 -->
<svg width="524pt" height="127pt"
 viewBox="0.00 0.00 524.00 127.00" xmlns="http://www.w3.org/2000/svg" xmlns:xlink="http://www.w3.org/1999/xlink">
<g id="graph0" class="graph" transform="scale(1 1) rotate(0) translate(4 123)">
<title>zero_mate::peripheral::CARM_Timer::Write</title>
<!-- Node1 -->
<g id="node1" class="node">
<title>Node1</title>
<g id="a_node1"><a xlink:title="Writes data to the peripheral (IPeripheral interface).">
<polygon fill="#bfbfbf" stroke="black" points="0,-44.5 0,-74.5 124,-74.5 124,-44.5 0,-44.5"/>
<text text-anchor="start" x="8" y="-62.5" font-family="Helvetica,sans-Serif" font-size="10.00">zero_mate::peripheral</text>
<text text-anchor="middle" x="62" y="-51.5" font-family="Helvetica,sans-Serif" font-size="10.00">::CARM_Timer::Write</text>
</a>
</g>
</g>
<!-- Node2 -->
<g id="node2" class="node">
<title>Node2</title>
<g id="a_node2"><a xlink:href="classzero__mate_1_1peripheral_1_1CARM__Timer.html#a9f2ae98d766d97f06f4b153a99bafcaa" target="_top" xlink:title="Clear a pending interrupt (helper function).">
<polygon fill="none" stroke="black" points="160,-88.5 160,-118.5 331,-118.5 331,-88.5 160,-88.5"/>
<text text-anchor="start" x="168" y="-106.5" font-family="Helvetica,sans-Serif" font-size="10.00">zero_mate::peripheral</text>
<text text-anchor="middle" x="245.5" y="-95.5" font-family="Helvetica,sans-Serif" font-size="10.00">::CARM_Timer::Clear_Basic_IRQ</text>
</a>
</g>
</g>
<!-- Node1&#45;&gt;Node2 -->
<g id="edge1" class="edge">
<title>Node1&#45;&gt;Node2</title>
<path fill="none" stroke="midnightblue" d="M124.19,-74.34C139.71,-78.1 156.51,-82.17 172.5,-86.05"/>
<polygon fill="midnightblue" stroke="midnightblue" points="171.79,-89.47 182.33,-88.43 173.44,-82.67 171.79,-89.47"/>
</g>
<!-- Node3 -->
<g id="node3" class="node">
<title>Node3</title>
<g id="a_node3"><a xlink:href="classzero__mate_1_1peripheral_1_1CARM__Timer.html#a8aa88bde21b52e4ae5132f8e2a5fb73a" target="_top" xlink:title="Returns the current content of a register.">
<polygon fill="none" stroke="black" points="375,-68.5 375,-98.5 508,-98.5 508,-68.5 375,-68.5"/>
<text text-anchor="start" x="383" y="-86.5" font-family="Helvetica,sans-Serif" font-size="10.00">zero_mate::peripheral</text>
<text text-anchor="middle" x="441.5" y="-75.5" font-family="Helvetica,sans-Serif" font-size="10.00">::CARM_Timer::Get_Reg</text>
</a>
</g>
</g>
<!-- Node1&#45;&gt;Node3 -->
<g id="edge3" class="edge">
<title>Node1&#45;&gt;Node3</title>
<path fill="none" stroke="midnightblue" d="M124.07,-63.38C189.61,-67.55 293.8,-74.17 364.57,-78.67"/>
<polygon fill="midnightblue" stroke="midnightblue" points="364.56,-82.18 374.76,-79.32 365,-75.19 364.56,-82.18"/>
</g>
<!-- Node4 -->
<g id="node4" class="node">
<title>Node4</title>
<g id="a_node4"><a xlink:href="classzero__mate_1_1utils_1_1CLogging__System.html#a8904feb1d77dc350717ebcd00e7e5443" target="_top" xlink:title=" ">
<polygon fill="none" stroke="black" points="172.5,-0.5 172.5,-30.5 318.5,-30.5 318.5,-0.5 172.5,-0.5"/>
<text text-anchor="start" x="180.5" y="-18.5" font-family="Helvetica,sans-Serif" font-size="10.00">zero_mate::utils::CLogging</text>
<text text-anchor="middle" x="245.5" y="-7.5" font-family="Helvetica,sans-Serif" font-size="10.00">_System::Warning</text>
</a>
</g>
</g>
<!-- Node1&#45;&gt;Node4 -->
<g id="edge4" class="edge">
<title>Node1&#45;&gt;Node4</title>
<path fill="none" stroke="midnightblue" d="M124.19,-44.66C139.71,-40.9 156.51,-36.83 172.5,-32.95"/>
<polygon fill="midnightblue" stroke="midnightblue" points="173.44,-36.33 182.33,-30.57 171.79,-29.53 173.44,-36.33"/>
</g>
<!-- Node2&#45;&gt;Node3 -->
<g id="edge2" class="edge">
<title>Node2&#45;&gt;Node3</title>
<path fill="none" stroke="midnightblue" d="M331.03,-94.79C342.28,-93.63 353.77,-92.44 364.86,-91.3"/>
<polygon fill="midnightblue" stroke="midnightblue" points="365.33,-94.77 374.92,-90.26 364.62,-87.8 365.33,-94.77"/>
</g>
<!-- Node5 -->
<g id="node5" class="node">
<title>Node5</title>
<g id="a_node5"><a xlink:href="classzero__mate_1_1utils_1_1CLogging__System.html#af3fd8f336b5853e954283d93f2c32edd" target="_top" xlink:title=" ">
<polygon fill="none" stroke="black" points="367,-0.5 367,-30.5 516,-30.5 516,-0.5 367,-0.5"/>
<text text-anchor="start" x="375" y="-18.5" font-family="Helvetica,sans-Serif" font-size="10.00">zero_mate::utils::CLogging</text>
<text text-anchor="middle" x="441.5" y="-7.5" font-family="Helvetica,sans-Serif" font-size="10.00">_System::Extract_Filename</text>
</a>
</g>
</g>
<!-- Node4&#45;&gt;Node5 -->
<g id="edge5" class="edge">
<title>Node4&#45;&gt;Node5</title>
<path fill="none" stroke="midnightblue" d="M318.74,-15.5C331.15,-15.5 344.14,-15.5 356.82,-15.5"/>
<polygon fill="midnightblue" stroke="midnightblue" points="356.91,-19 366.91,-15.5 356.91,-12 356.91,-19"/>
</g>
</g>
</svg>
