<?xml version="1.0" encoding="UTF-8" standalone="no"?>
<!DOCTYPE svg PUBLIC "-//W3C//DTD SVG 1.1//EN"
 "http://www.w3.org/Graphics/SVG/1.1/DTD/svg11.dtd">
<!-- Generated by graphviz version 2.43.0 (0)
 -->
<!-- Title: zero_mate::arm1176jzf_s::mmu::CMMU::Get_Physical_Addr Pages: 1 -->
<svg width="954pt" height="370pt"
 viewBox="0.00 0.00 954.00 370.00" xmlns="http://www.w3.org/2000/svg" xmlns:xlink="http://www.w3.org/1999/xlink">
<g id="graph0" class="graph" transform="scale(1 1) rotate(0) translate(4 366)">
<title>zero_mate::arm1176jzf_s::mmu::CMMU::Get_Physical_Addr</title>
<!-- Node1 -->
<g id="node1" class="node">
<title>Node1</title>
<g id="a_node1"><a xlink:title="Converts a given virtual address into a physical address.">
<polygon fill="#bfbfbf" stroke="black" points="0,-211 0,-241 194,-241 194,-211 0,-211"/>
<text text-anchor="start" x="8" y="-229" font-family="Helvetica,sans-Serif" font-size="10.00">zero_mate::arm1176jzf</text>
<text text-anchor="middle" x="97" y="-218" font-family="Helvetica,sans-Serif" font-size="10.00">_s::mmu::CMMU::Get_Physical_Addr</text>
</a>
</g>
</g>
<!-- Node2 -->
<g id="node2" class="node">
<title>Node2</title>
<g id="a_node2"><a xlink:href="classzero__mate_1_1arm1176jzf__s_1_1mmu_1_1CMMU.html#a2af0846c0e594495eeeb2ec51717dfa7" target="_top" xlink:title="Fetches the first level page tables (tbbr0, tbbr1) from the RAM.">
<polygon fill="none" stroke="black" points="254.5,-320.5 254.5,-361.5 384.5,-361.5 384.5,-320.5 254.5,-320.5"/>
<text text-anchor="start" x="262.5" y="-349.5" font-family="Helvetica,sans-Serif" font-size="10.00">zero_mate::arm1176jzf</text>
<text text-anchor="start" x="262.5" y="-338.5" font-family="Helvetica,sans-Serif" font-size="10.00">_s::mmu::CMMU::Fetch</text>
<text text-anchor="middle" x="319.5" y="-327.5" font-family="Helvetica,sans-Serif" font-size="10.00">_DL1_From_RAM</text>
</a>
</g>
</g>
<!-- Node1&#45;&gt;Node2 -->
<g id="edge1" class="edge">
<title>Node1&#45;&gt;Node2</title>
<path fill="none" stroke="midnightblue" d="M118.11,-241.19C143.23,-259.63 188.02,-290.75 230,-311 234.84,-313.33 239.91,-315.57 245.07,-317.69"/>
<polygon fill="midnightblue" stroke="midnightblue" points="243.83,-320.96 254.42,-321.37 246.4,-314.45 243.83,-320.96"/>
</g>
<!-- Node5 -->
<g id="node5" class="node">
<title>Node5</title>
<g id="a_node5"><a xlink:href="classzero__mate_1_1arm1176jzf__s_1_1mmu_1_1CMMU.html#a6b99dfecfa3116a2524cd0a5e5217a9a" target="_top" xlink:title="Checks if the TLB entries should be invalidated and if so, it clears the cache.">
<polygon fill="none" stroke="black" points="254.5,-260.5 254.5,-301.5 384.5,-301.5 384.5,-260.5 254.5,-260.5"/>
<text text-anchor="start" x="262.5" y="-289.5" font-family="Helvetica,sans-Serif" font-size="10.00">zero_mate::arm1176jzf</text>
<text text-anchor="start" x="262.5" y="-278.5" font-family="Helvetica,sans-Serif" font-size="10.00">_s::mmu::CMMU::Flush</text>
<text text-anchor="middle" x="319.5" y="-267.5" font-family="Helvetica,sans-Serif" font-size="10.00">_TLB_If_Needed</text>
</a>
</g>
</g>
<!-- Node1&#45;&gt;Node5 -->
<g id="edge4" class="edge">
<title>Node1&#45;&gt;Node5</title>
<path fill="none" stroke="midnightblue" d="M158.25,-241.03C184.94,-247.69 216.59,-255.58 244.69,-262.59"/>
<polygon fill="midnightblue" stroke="midnightblue" points="243.91,-266 254.46,-265.03 245.61,-259.21 243.91,-266"/>
</g>
<!-- Node6 -->
<g id="node6" class="node">
<title>Node6</title>
<g id="a_node6"><a xlink:href="classzero__mate_1_1arm1176jzf__s_1_1mmu_1_1CMMU.html#a2c8669fcd6fc4be14872ba31f3a63c1c" target="_top" xlink:title="Returns the page table that will be used for address translation (boundary register C2 C0 2).">
<polygon fill="none" stroke="black" points="230,-211 230,-241 409,-241 409,-211 230,-211"/>
<text text-anchor="start" x="238" y="-229" font-family="Helvetica,sans-Serif" font-size="10.00">zero_mate::arm1176jzf</text>
<text text-anchor="middle" x="319.5" y="-218" font-family="Helvetica,sans-Serif" font-size="10.00">_s::mmu::CMMU::Get_Page_Table</text>
</a>
</g>
</g>
<!-- Node1&#45;&gt;Node6 -->
<g id="edge5" class="edge">
<title>Node1&#45;&gt;Node6</title>
<path fill="none" stroke="midnightblue" d="M194.07,-226C202.49,-226 211.02,-226 219.46,-226"/>
<polygon fill="midnightblue" stroke="midnightblue" points="219.69,-229.5 229.69,-226 219.69,-222.5 219.69,-229.5"/>
</g>
<!-- Node7 -->
<g id="node7" class="node">
<title>Node7</title>
<g id="a_node7"><a xlink:href="classzero__mate_1_1arm1176jzf__s_1_1mmu_1_1CMMU.html#ab7c06f58fdf9bd0ad522175c47b9dd0e" target="_top" xlink:title="Retrieves a given page from a page table by a given virtual address.">
<polygon fill="none" stroke="black" points="245,-150.5 245,-191.5 394,-191.5 394,-150.5 245,-150.5"/>
<text text-anchor="start" x="253" y="-179.5" font-family="Helvetica,sans-Serif" font-size="10.00">zero_mate::arm1176jzf</text>
<text text-anchor="start" x="253" y="-168.5" font-family="Helvetica,sans-Serif" font-size="10.00">_s::mmu::CMMU::Get_Page</text>
<text text-anchor="middle" x="319.5" y="-157.5" font-family="Helvetica,sans-Serif" font-size="10.00">_Table_Record</text>
</a>
</g>
</g>
<!-- Node1&#45;&gt;Node7 -->
<g id="edge6" class="edge">
<title>Node1&#45;&gt;Node7</title>
<path fill="none" stroke="midnightblue" d="M158.25,-210.97C181.89,-205.07 209.42,-198.21 234.93,-191.85"/>
<polygon fill="midnightblue" stroke="midnightblue" points="236.11,-195.16 244.96,-189.34 234.41,-188.37 236.11,-195.16"/>
</g>
<!-- Node9 -->
<g id="node9" class="node">
<title>Node9</title>
<g id="a_node9"><a xlink:href="classzero__mate_1_1arm1176jzf__s_1_1mmu_1_1CMMU.html#ab1413e798b9ac2d3bcdf521e7dfe7bdf" target="_top" xlink:title="Verifies page access (calls a chain of functions that validate the access).">
<polygon fill="none" stroke="black" points="254,-90.5 254,-131.5 385,-131.5 385,-90.5 254,-90.5"/>
<text text-anchor="start" x="262" y="-119.5" font-family="Helvetica,sans-Serif" font-size="10.00">zero_mate::arm1176jzf</text>
<text text-anchor="start" x="262" y="-108.5" font-family="Helvetica,sans-Serif" font-size="10.00">_s::mmu::CMMU::Verify</text>
<text text-anchor="middle" x="319.5" y="-97.5" font-family="Helvetica,sans-Serif" font-size="10.00">_Access</text>
</a>
</g>
</g>
<!-- Node1&#45;&gt;Node9 -->
<g id="edge8" class="edge">
<title>Node1&#45;&gt;Node9</title>
<path fill="none" stroke="midnightblue" d="M118.11,-210.81C143.23,-192.37 188.02,-161.25 230,-141 234.63,-138.77 239.47,-136.63 244.4,-134.59"/>
<polygon fill="midnightblue" stroke="midnightblue" points="245.94,-137.74 253.95,-130.81 243.36,-131.24 245.94,-137.74"/>
</g>
<!-- Node3 -->
<g id="node3" class="node">
<title>Node3</title>
<g id="a_node3"><a xlink:href="classzero__mate_1_1coprocessor_1_1cp15_1_1CC2.html#ae01856374ec8bac99ac7652c0d99de48" target="_top" xlink:title="Returns the physical address of a given page table.">
<polygon fill="none" stroke="black" points="445,-326 445,-356 608,-356 608,-326 445,-326"/>
<text text-anchor="start" x="453" y="-344" font-family="Helvetica,sans-Serif" font-size="10.00">zero_mate::coprocessor</text>
<text text-anchor="middle" x="526.5" y="-333" font-family="Helvetica,sans-Serif" font-size="10.00">::cp15::CC2::Get_TTB_Address</text>
</a>
</g>
</g>
<!-- Node2&#45;&gt;Node3 -->
<g id="edge2" class="edge">
<title>Node2&#45;&gt;Node3</title>
<path fill="none" stroke="midnightblue" d="M384.52,-341C400.38,-341 417.67,-341 434.55,-341"/>
<polygon fill="midnightblue" stroke="midnightblue" points="434.98,-344.5 444.98,-341 434.98,-337.5 434.98,-344.5"/>
</g>
<!-- Node4 -->
<g id="node4" class="node">
<title>Node4</title>
<g id="a_node4"><a xlink:href="classzero__mate_1_1coprocessor_1_1cp15_1_1CC2.html#ac31765da4a10567be0232abedeff1b75" target="_top" xlink:title="Extracts bits determined by a given mask from a given secondary register.">
<polygon fill="none" stroke="black" points="644,-320.5 644,-361.5 780,-361.5 780,-320.5 644,-320.5"/>
<text text-anchor="start" x="652" y="-349.5" font-family="Helvetica,sans-Serif" font-size="10.00">zero_mate::coprocessor</text>
<text text-anchor="start" x="652" y="-338.5" font-family="Helvetica,sans-Serif" font-size="10.00">::cp15::CC2::Extract_Bits</text>
<text text-anchor="middle" x="712" y="-327.5" font-family="Helvetica,sans-Serif" font-size="10.00">_From_TTBR</text>
</a>
</g>
</g>
<!-- Node3&#45;&gt;Node4 -->
<g id="edge3" class="edge">
<title>Node3&#45;&gt;Node4</title>
<path fill="none" stroke="midnightblue" d="M608.25,-341C616.73,-341 625.33,-341 633.77,-341"/>
<polygon fill="midnightblue" stroke="midnightblue" points="633.96,-344.5 643.96,-341 633.96,-337.5 633.96,-344.5"/>
</g>
<!-- Node8 -->
<g id="node8" class="node">
<title>Node8</title>
<g id="a_node8"><a xlink:href="classzero__mate_1_1arm1176jzf__s_1_1mmu_1_1CPage__Entry.html#a4f2dc11deaa1a64983e18d91bcaee1c5" target="_top" xlink:title="Returns the raw value of the page.">
<polygon fill="none" stroke="black" points="461.5,-150.5 461.5,-191.5 591.5,-191.5 591.5,-150.5 461.5,-150.5"/>
<text text-anchor="start" x="469.5" y="-179.5" font-family="Helvetica,sans-Serif" font-size="10.00">zero_mate::arm1176jzf</text>
<text text-anchor="start" x="469.5" y="-168.5" font-family="Helvetica,sans-Serif" font-size="10.00">_s::mmu::CPage_Entry</text>
<text text-anchor="middle" x="526.5" y="-157.5" font-family="Helvetica,sans-Serif" font-size="10.00">::Get_Value</text>
</a>
</g>
</g>
<!-- Node7&#45;&gt;Node8 -->
<g id="edge7" class="edge">
<title>Node7&#45;&gt;Node8</title>
<path fill="none" stroke="midnightblue" d="M394.22,-171C412.72,-171 432.58,-171 451.11,-171"/>
<polygon fill="midnightblue" stroke="midnightblue" points="451.25,-174.5 461.25,-171 451.25,-167.5 451.25,-174.5"/>
</g>
<!-- Node10 -->
<g id="node10" class="node">
<title>Node10</title>
<g id="a_node10"><a xlink:href="classzero__mate_1_1arm1176jzf__s_1_1mmu_1_1CMMU.html#a0e32ece3d5ac208c69fa5573fcea3205" target="_top" xlink:title="Verifies access privileges when accessing a page (virtual address).">
<polygon fill="none" stroke="black" points="461,-90.5 461,-131.5 592,-131.5 592,-90.5 461,-90.5"/>
<text text-anchor="start" x="469" y="-119.5" font-family="Helvetica,sans-Serif" font-size="10.00">zero_mate::arm1176jzf</text>
<text text-anchor="start" x="469" y="-108.5" font-family="Helvetica,sans-Serif" font-size="10.00">_s::mmu::CMMU::Verify</text>
<text text-anchor="middle" x="526.5" y="-97.5" font-family="Helvetica,sans-Serif" font-size="10.00">_Access_Privileges</text>
</a>
</g>
</g>
<!-- Node9&#45;&gt;Node10 -->
<g id="edge9" class="edge">
<title>Node9&#45;&gt;Node10</title>
<path fill="none" stroke="midnightblue" d="M385.08,-111C405.95,-111 429.27,-111 450.81,-111"/>
<polygon fill="midnightblue" stroke="midnightblue" points="450.89,-114.5 460.89,-111 450.89,-107.5 450.89,-114.5"/>
</g>
<!-- Node15 -->
<g id="node15" class="node">
<title>Node15</title>
<g id="a_node15"><a xlink:href="classzero__mate_1_1arm1176jzf__s_1_1mmu_1_1CMMU.html#ac834a31f545bceaea03c3fa127bf0fa1" target="_top" xlink:title="Verifies the access type.">
<polygon fill="none" stroke="black" points="461,-30.5 461,-71.5 592,-71.5 592,-30.5 461,-30.5"/>
<text text-anchor="start" x="469" y="-59.5" font-family="Helvetica,sans-Serif" font-size="10.00">zero_mate::arm1176jzf</text>
<text text-anchor="start" x="469" y="-48.5" font-family="Helvetica,sans-Serif" font-size="10.00">_s::mmu::CMMU::Verify</text>
<text text-anchor="middle" x="526.5" y="-37.5" font-family="Helvetica,sans-Serif" font-size="10.00">_Access_Type</text>
</a>
</g>
</g>
<!-- Node9&#45;&gt;Node15 -->
<g id="edge14" class="edge">
<title>Node9&#45;&gt;Node15</title>
<path fill="none" stroke="midnightblue" d="M385.08,-92.1C406.05,-85.96 429.48,-79.1 451.1,-72.78"/>
<polygon fill="midnightblue" stroke="midnightblue" points="452.28,-76.08 460.89,-69.91 450.31,-69.36 452.28,-76.08"/>
</g>
<!-- Node11 -->
<g id="node11" class="node">
<title>Node11</title>
<g id="a_node11"><a xlink:href="classzero__mate_1_1arm1176jzf__s_1_1mmu_1_1CPage__Entry.html#a005e8820c6fa2cdcaa49471491760fa8" target="_top" xlink:title="Returns page access privileges.">
<polygon fill="none" stroke="black" points="646,-180.5 646,-221.5 778,-221.5 778,-180.5 646,-180.5"/>
<text text-anchor="start" x="654" y="-209.5" font-family="Helvetica,sans-Serif" font-size="10.00">zero_mate::arm1176jzf</text>
<text text-anchor="start" x="654" y="-198.5" font-family="Helvetica,sans-Serif" font-size="10.00">_s::mmu::CPage_Entry</text>
<text text-anchor="middle" x="712" y="-187.5" font-family="Helvetica,sans-Serif" font-size="10.00">::Get_Access_Privileges</text>
</a>
</g>
</g>
<!-- Node10&#45;&gt;Node11 -->
<g id="edge10" class="edge">
<title>Node10&#45;&gt;Node11</title>
<path fill="none" stroke="midnightblue" d="M589.58,-131.68C595.94,-134.52 602.19,-137.63 608,-141 626.01,-151.45 626.33,-159.97 644,-171 646.57,-172.6 649.23,-174.16 651.96,-175.68"/>
<polygon fill="midnightblue" stroke="midnightblue" points="650.34,-178.78 660.82,-180.36 653.61,-172.59 650.34,-178.78"/>
</g>
<!-- Node12 -->
<g id="node12" class="node">
<title>Node12</title>
<g id="a_node12"><a xlink:href="classzero__mate_1_1arm1176jzf__s_1_1mmu_1_1CPage__Entry.html#a3c5fdd9febd92dc1fb1a41d2f936abc3" target="_top" xlink:title="Returns privileged mode page access restrictions (R/RW).">
<polygon fill="none" stroke="black" points="647,-120.5 647,-161.5 777,-161.5 777,-120.5 647,-120.5"/>
<text text-anchor="start" x="655" y="-149.5" font-family="Helvetica,sans-Serif" font-size="10.00">zero_mate::arm1176jzf</text>
<text text-anchor="start" x="655" y="-138.5" font-family="Helvetica,sans-Serif" font-size="10.00">_s::mmu::CPage_Entry</text>
<text text-anchor="middle" x="712" y="-127.5" font-family="Helvetica,sans-Serif" font-size="10.00">::Get_NAPX</text>
</a>
</g>
</g>
<!-- Node10&#45;&gt;Node12 -->
<g id="edge11" class="edge">
<title>Node10&#45;&gt;Node12</title>
<path fill="none" stroke="midnightblue" d="M592.2,-121.58C606.62,-123.93 622.01,-126.45 636.78,-128.87"/>
<polygon fill="midnightblue" stroke="midnightblue" points="636.46,-132.36 646.89,-130.52 637.58,-125.45 636.46,-132.36"/>
</g>
<!-- Node13 -->
<g id="node13" class="node">
<title>Node13</title>
<g id="a_node13"><a xlink:href="classzero__mate_1_1arm1176jzf__s_1_1CCPU__Context.html#a573470217091c27cf30f1411ea453e5d" target="_top" xlink:title="Checks if the CPU is in a privileged mode.">
<polygon fill="none" stroke="black" points="647,-60.5 647,-101.5 777,-101.5 777,-60.5 647,-60.5"/>
<text text-anchor="start" x="655" y="-89.5" font-family="Helvetica,sans-Serif" font-size="10.00">zero_mate::arm1176jzf</text>
<text text-anchor="start" x="655" y="-78.5" font-family="Helvetica,sans-Serif" font-size="10.00">_s::CCPU_Context::Is</text>
<text text-anchor="middle" x="712" y="-67.5" font-family="Helvetica,sans-Serif" font-size="10.00">_In_Privileged_Mode</text>
</a>
</g>
</g>
<!-- Node10&#45;&gt;Node13 -->
<g id="edge12" class="edge">
<title>Node10&#45;&gt;Node13</title>
<path fill="none" stroke="midnightblue" d="M592.2,-100.42C606.62,-98.07 622.01,-95.55 636.78,-93.13"/>
<polygon fill="midnightblue" stroke="midnightblue" points="637.58,-96.55 646.89,-91.48 636.46,-89.64 637.58,-96.55"/>
</g>
<!-- Node14 -->
<g id="node14" class="node">
<title>Node14</title>
<g id="a_node14"><a xlink:href="classzero__mate_1_1arm1176jzf__s_1_1CCPU__Context.html#aa740f9219bb413d707ac72f373e60d3a" target="_top" xlink:title="Returns the current mode of the CPU.">
<polygon fill="none" stroke="black" points="816,-60.5 816,-101.5 946,-101.5 946,-60.5 816,-60.5"/>
<text text-anchor="start" x="824" y="-89.5" font-family="Helvetica,sans-Serif" font-size="10.00">zero_mate::arm1176jzf</text>
<text text-anchor="start" x="824" y="-78.5" font-family="Helvetica,sans-Serif" font-size="10.00">_s::CCPU_Context::Get</text>
<text text-anchor="middle" x="881" y="-67.5" font-family="Helvetica,sans-Serif" font-size="10.00">_CPU_Mode</text>
</a>
</g>
</g>
<!-- Node13&#45;&gt;Node14 -->
<g id="edge13" class="edge">
<title>Node13&#45;&gt;Node14</title>
<path fill="none" stroke="midnightblue" d="M777.09,-81C786.41,-81 796.07,-81 805.58,-81"/>
<polygon fill="midnightblue" stroke="midnightblue" points="805.81,-84.5 815.81,-81 805.81,-77.5 805.81,-84.5"/>
</g>
<!-- Node16 -->
<g id="node16" class="node">
<title>Node16</title>
<g id="a_node16"><a xlink:href="classzero__mate_1_1arm1176jzf__s_1_1mmu_1_1CPage__Entry.html#adefd9403af02fbb79298b706f7d6c7e3" target="_top" xlink:title="Returns the page access type.">
<polygon fill="none" stroke="black" points="647,-0.5 647,-41.5 777,-41.5 777,-0.5 647,-0.5"/>
<text text-anchor="start" x="655" y="-29.5" font-family="Helvetica,sans-Serif" font-size="10.00">zero_mate::arm1176jzf</text>
<text text-anchor="start" x="655" y="-18.5" font-family="Helvetica,sans-Serif" font-size="10.00">_s::mmu::CPage_Entry</text>
<text text-anchor="middle" x="712" y="-7.5" font-family="Helvetica,sans-Serif" font-size="10.00">::Get_Access_Type</text>
</a>
</g>
</g>
<!-- Node15&#45;&gt;Node16 -->
<g id="edge15" class="edge">
<title>Node15&#45;&gt;Node16</title>
<path fill="none" stroke="midnightblue" d="M592.2,-40.42C606.62,-38.07 622.01,-35.55 636.78,-33.13"/>
<polygon fill="midnightblue" stroke="midnightblue" points="637.58,-36.55 646.89,-31.48 636.46,-29.64 637.58,-36.55"/>
</g>
</g>
</svg>
