<?xml version="1.0" encoding="UTF-8" standalone="no"?>
<!DOCTYPE svg PUBLIC "-//W3C//DTD SVG 1.1//EN"
 "http://www.w3.org/Graphics/SVG/1.1/DTD/svg11.dtd">
<!-- Generated by graphviz version 2.43.0 (0)
 -->
<!-- Title: zero_mate::utils::CLogging_System::Info Pages: 1 -->
<svg width="683pt" height="140pt"
 viewBox="0.00 0.00 683.00 140.00" xmlns="http://www.w3.org/2000/svg" xmlns:xlink="http://www.w3.org/1999/xlink">
<g id="graph0" class="graph" transform="scale(1 1) rotate(0) translate(4 136)">
<title>zero_mate::utils::CLogging_System::Info</title>
<!-- Node1 -->
<g id="node1" class="node">
<title>Node1</title>
<g id="a_node1"><a xlink:title="Logs an info message via all registered loggers.">
<polygon fill="#bfbfbf" stroke="black" points="529,-52.5 529,-82.5 675,-82.5 675,-52.5 529,-52.5"/>
<text text-anchor="start" x="537" y="-70.5" font-family="Helvetica,sans-Serif" font-size="10.00">zero_mate::utils::CLogging</text>
<text text-anchor="middle" x="602" y="-59.5" font-family="Helvetica,sans-Serif" font-size="10.00">_System::Info</text>
</a>
</g>
</g>
<!-- Node2 -->
<g id="node2" class="node">
<title>Node2</title>
<g id="a_node2"><a xlink:href="classzero__mate_1_1gui_1_1CFile__Window.html#affaac4b63e2d16566e84c333a0f48468" target="_top" xlink:title=" ">
<polygon fill="none" stroke="black" points="362,-101.5 362,-131.5 481,-131.5 481,-101.5 362,-101.5"/>
<text text-anchor="start" x="370" y="-119.5" font-family="Helvetica,sans-Serif" font-size="10.00">zero_mate::gui::CFile</text>
<text text-anchor="middle" x="421.5" y="-108.5" font-family="Helvetica,sans-Serif" font-size="10.00">_Window::Render</text>
</a>
</g>
</g>
<!-- Node1&#45;&gt;Node2 -->
<g id="edge1" class="edge">
<title>Node1&#45;&gt;Node2</title>
<path fill="none" stroke="midnightblue" d="M536.08,-85.32C516.81,-90.61 495.9,-96.35 477.33,-101.45"/>
<polygon fill="midnightblue" stroke="midnightblue" points="537.27,-88.62 545.99,-82.6 535.42,-81.87 537.27,-88.62"/>
</g>
<!-- Node3 -->
<g id="node3" class="node">
<title>Node3</title>
<g id="a_node3"><a xlink:href="classzero__mate_1_1gui_1_1CControl__Window.html#a37a3c37d6d92c239742abf75b3aebec9" target="_top" xlink:title=" ">
<polygon fill="none" stroke="black" points="350,-52.5 350,-82.5 493,-82.5 493,-52.5 350,-52.5"/>
<text text-anchor="start" x="358" y="-70.5" font-family="Helvetica,sans-Serif" font-size="10.00">zero_mate::gui::CControl</text>
<text text-anchor="middle" x="421.5" y="-59.5" font-family="Helvetica,sans-Serif" font-size="10.00">_Window::Reset_Emulator</text>
</a>
</g>
</g>
<!-- Node1&#45;&gt;Node3 -->
<g id="edge2" class="edge">
<title>Node1&#45;&gt;Node3</title>
<path fill="none" stroke="midnightblue" d="M518.87,-67.5C510.27,-67.5 501.58,-67.5 493.12,-67.5"/>
<polygon fill="midnightblue" stroke="midnightblue" points="518.91,-71 528.91,-67.5 518.91,-64 518.91,-71"/>
</g>
<!-- Node6 -->
<g id="node6" class="node">
<title>Node6</title>
<g id="a_node6"><a xlink:href="classzero__mate_1_1gui_1_1CControl__Window.html#ad83b2651e1d6bf8ed72e3553526f17ca" target="_top" xlink:title=" ">
<polygon fill="none" stroke="black" points="175,-0.5 175,-30.5 312,-30.5 312,-0.5 175,-0.5"/>
<text text-anchor="start" x="183" y="-18.5" font-family="Helvetica,sans-Serif" font-size="10.00">zero_mate::gui::CControl</text>
<text text-anchor="middle" x="243.5" y="-7.5" font-family="Helvetica,sans-Serif" font-size="10.00">_Window::Run</text>
</a>
</g>
</g>
<!-- Node1&#45;&gt;Node6 -->
<g id="edge5" class="edge">
<title>Node1&#45;&gt;Node6</title>
<path fill="none" stroke="midnightblue" d="M528.78,-50.34C516.87,-47.83 504.62,-45.44 493,-43.5 432.08,-33.33 362.14,-25.82 312.01,-21.15"/>
<polygon fill="midnightblue" stroke="midnightblue" points="528.17,-53.79 538.69,-52.47 529.65,-46.94 528.17,-53.79"/>
</g>
<!-- Node4 -->
<g id="node4" class="node">
<title>Node4</title>
<g id="a_node4"><a xlink:href="classzero__mate_1_1gui_1_1CControl__Window.html#a9be0d8c611ece954a13f3763744b074f" target="_top" xlink:title=" ">
<polygon fill="none" stroke="black" points="173,-50 173,-91 314,-91 314,-50 173,-50"/>
<text text-anchor="start" x="181" y="-79" font-family="Helvetica,sans-Serif" font-size="10.00">zero_mate::gui::CControl</text>
<text text-anchor="start" x="181" y="-68" font-family="Helvetica,sans-Serif" font-size="10.00">_Window::Render_Control</text>
<text text-anchor="middle" x="243.5" y="-57" font-family="Helvetica,sans-Serif" font-size="10.00">_Buttons</text>
</a>
</g>
</g>
<!-- Node3&#45;&gt;Node4 -->
<g id="edge3" class="edge">
<title>Node3&#45;&gt;Node4</title>
<path fill="none" stroke="midnightblue" d="M339.92,-68.87C331.34,-69.02 322.67,-69.17 314.23,-69.31"/>
<polygon fill="midnightblue" stroke="midnightblue" points="339.99,-72.37 349.93,-68.7 339.87,-65.37 339.99,-72.37"/>
</g>
<!-- Node5 -->
<g id="node5" class="node">
<title>Node5</title>
<g id="a_node5"><a xlink:href="classzero__mate_1_1gui_1_1CControl__Window.html#aabafaf7d45b7c4516719dce03772ee5a" target="_top" xlink:title=" ">
<polygon fill="none" stroke="black" points="0,-27.5 0,-57.5 137,-57.5 137,-27.5 0,-27.5"/>
<text text-anchor="start" x="8" y="-45.5" font-family="Helvetica,sans-Serif" font-size="10.00">zero_mate::gui::CControl</text>
<text text-anchor="middle" x="68.5" y="-34.5" font-family="Helvetica,sans-Serif" font-size="10.00">_Window::Render</text>
</a>
</g>
</g>
<!-- Node4&#45;&gt;Node5 -->
<g id="edge4" class="edge">
<title>Node4&#45;&gt;Node5</title>
<path fill="none" stroke="midnightblue" d="M162.66,-57.58C154.12,-56.2 145.48,-54.8 137.1,-53.44"/>
<polygon fill="midnightblue" stroke="midnightblue" points="162.2,-61.05 172.63,-59.19 163.32,-54.14 162.2,-61.05"/>
</g>
<!-- Node6&#45;&gt;Node5 -->
<g id="edge6" class="edge">
<title>Node6&#45;&gt;Node5</title>
<path fill="none" stroke="midnightblue" d="M164.72,-27.64C155.54,-29.07 146.22,-30.53 137.18,-31.94"/>
<polygon fill="midnightblue" stroke="midnightblue" points="165.28,-31.09 174.62,-26.09 164.2,-24.18 165.28,-31.09"/>
</g>
</g>
</svg>
