<?xml version="1.0" encoding="UTF-8" standalone="no"?>
<!DOCTYPE svg PUBLIC "-//W3C//DTD SVG 1.1//EN"
 "http://www.w3.org/Graphics/SVG/1.1/DTD/svg11.dtd">
<!-- Generated by graphviz version 2.43.0 (0)
 -->
<!-- Title: zero_mate::arm1176jzf_s::CCPU_Core::Execute Pages: 1 -->
<svg width="469pt" height="209pt"
 viewBox="0.00 0.00 469.00 208.50" xmlns="http://www.w3.org/2000/svg" xmlns:xlink="http://www.w3.org/1999/xlink">
<g id="graph0" class="graph" transform="scale(1 1) rotate(0) translate(4 204.5)">
<title>zero_mate::arm1176jzf_s::CCPU_Core::Execute</title>
<!-- Node1 -->
<g id="node1" class="node">
<title>Node1</title>
<g id="a_node1"><a xlink:title="Executes a branch instruction.">
<polygon fill="#bfbfbf" stroke="black" points="0,-76.5 0,-106.5 132,-106.5 132,-76.5 0,-76.5"/>
<text text-anchor="start" x="8" y="-94.5" font-family="Helvetica,sans-Serif" font-size="10.00">zero_mate::arm1176jzf</text>
<text text-anchor="middle" x="66" y="-83.5" font-family="Helvetica,sans-Serif" font-size="10.00">_s::CCPU_Core::Execute</text>
</a>
</g>
</g>
<!-- Node2 -->
<g id="node2" class="node">
<title>Node2</title>
<g id="a_node2"><a xlink:href="classzero__mate_1_1arm1176jzf__s_1_1isa_1_1CBranch.html#a802cd5fadc7952225e152142ab047b0f" target="_top" xlink:title=" ">
<polygon fill="none" stroke="black" points="168,-159 168,-200 298,-200 298,-159 168,-159"/>
<text text-anchor="start" x="176" y="-188" font-family="Helvetica,sans-Serif" font-size="10.00">zero_mate::arm1176jzf</text>
<text text-anchor="start" x="176" y="-177" font-family="Helvetica,sans-Serif" font-size="10.00">_s::isa::CBranch::Get</text>
<text text-anchor="middle" x="233" y="-166" font-family="Helvetica,sans-Serif" font-size="10.00">_Offset</text>
</a>
</g>
</g>
<!-- Node1&#45;&gt;Node2 -->
<g id="edge1" class="edge">
<title>Node1&#45;&gt;Node2</title>
<path fill="none" stroke="midnightblue" d="M92,-106.63C112.24,-118.69 141.63,-135.78 168,-149.5 171.24,-151.19 174.59,-152.88 177.98,-154.57"/>
<polygon fill="midnightblue" stroke="midnightblue" points="176.49,-157.74 187.01,-158.99 179.56,-151.45 176.49,-157.74"/>
</g>
<!-- Node4 -->
<g id="node4" class="node">
<title>Node4</title>
<g id="a_node4"><a xlink:href="classzero__mate_1_1arm1176jzf__s_1_1isa_1_1CBranch.html#a5ab4f86fc2f299cc21e711211a80441b" target="_top" xlink:title=" ">
<polygon fill="none" stroke="black" points="168,-99 168,-140 298,-140 298,-99 168,-99"/>
<text text-anchor="start" x="176" y="-128" font-family="Helvetica,sans-Serif" font-size="10.00">zero_mate::arm1176jzf</text>
<text text-anchor="start" x="176" y="-117" font-family="Helvetica,sans-Serif" font-size="10.00">_s::isa::CBranch::Is</text>
<text text-anchor="middle" x="233" y="-106" font-family="Helvetica,sans-Serif" font-size="10.00">_L_Bit_Set</text>
</a>
</g>
</g>
<!-- Node1&#45;&gt;Node4 -->
<g id="edge3" class="edge">
<title>Node1&#45;&gt;Node4</title>
<path fill="none" stroke="midnightblue" d="M132.21,-102.57C140.63,-103.99 149.3,-105.47 157.84,-106.92"/>
<polygon fill="midnightblue" stroke="midnightblue" points="157.36,-110.38 167.8,-108.61 158.53,-103.48 157.36,-110.38"/>
</g>
<!-- Node5 -->
<g id="node5" class="node">
<title>Node5</title>
<g id="a_node5"><a xlink:href="classzero__mate_1_1arm1176jzf__s_1_1CCPU__Core.html#ae4ef4e8216220eacc525799066321ce9" target="_top" xlink:title="Returns a reference to the LR register (r14 = link register)">
<polygon fill="none" stroke="black" points="168,-49.5 168,-79.5 298,-79.5 298,-49.5 168,-49.5"/>
<text text-anchor="start" x="176" y="-67.5" font-family="Helvetica,sans-Serif" font-size="10.00">zero_mate::arm1176jzf</text>
<text text-anchor="middle" x="233" y="-56.5" font-family="Helvetica,sans-Serif" font-size="10.00">_s::CCPU_Core::LR</text>
</a>
</g>
</g>
<!-- Node1&#45;&gt;Node5 -->
<g id="edge4" class="edge">
<title>Node1&#45;&gt;Node5</title>
<path fill="none" stroke="midnightblue" d="M132.21,-80.83C140.63,-79.45 149.3,-78.03 157.84,-76.63"/>
<polygon fill="midnightblue" stroke="midnightblue" points="158.5,-80.07 167.8,-75.01 157.37,-73.17 158.5,-80.07"/>
</g>
<!-- Node6 -->
<g id="node6" class="node">
<title>Node6</title>
<g id="a_node6"><a xlink:href="classzero__mate_1_1arm1176jzf__s_1_1CCPU__Core.html#a423eacd01e574e782a2b7cf51f28c56c" target="_top" xlink:title="Returns a reference to the PC register (r15)">
<polygon fill="none" stroke="black" points="168,-0.5 168,-30.5 298,-30.5 298,-0.5 168,-0.5"/>
<text text-anchor="start" x="176" y="-18.5" font-family="Helvetica,sans-Serif" font-size="10.00">zero_mate::arm1176jzf</text>
<text text-anchor="middle" x="233" y="-7.5" font-family="Helvetica,sans-Serif" font-size="10.00">_s::CCPU_Core::PC</text>
</a>
</g>
</g>
<!-- Node1&#45;&gt;Node6 -->
<g id="edge5" class="edge">
<title>Node1&#45;&gt;Node6</title>
<path fill="none" stroke="midnightblue" d="M94.95,-76.48C115.04,-65.92 142.89,-51.71 168,-40.5 172.65,-38.43 177.52,-36.35 182.42,-34.33"/>
<polygon fill="midnightblue" stroke="midnightblue" points="183.86,-37.52 191.81,-30.52 181.23,-31.03 183.86,-37.52"/>
</g>
<!-- Node3 -->
<g id="node3" class="node">
<title>Node3</title>
<g id="a_node3"><a xlink:href="namespacezero__mate_1_1utils_1_1math.html#af7d93c996dab2ff1b91c5a399dcfe29f" target="_top" xlink:title="Tests whether a bit is set in the given integral variable.">
<polygon fill="none" stroke="black" points="334,-164.5 334,-194.5 461,-194.5 461,-164.5 334,-164.5"/>
<text text-anchor="start" x="342" y="-182.5" font-family="Helvetica,sans-Serif" font-size="10.00">zero_mate::utils::math</text>
<text text-anchor="middle" x="397.5" y="-171.5" font-family="Helvetica,sans-Serif" font-size="10.00">::Is_Bit_Set</text>
</a>
</g>
</g>
<!-- Node2&#45;&gt;Node3 -->
<g id="edge2" class="edge">
<title>Node2&#45;&gt;Node3</title>
<path fill="none" stroke="midnightblue" d="M298.22,-179.5C306.55,-179.5 315.12,-179.5 323.58,-179.5"/>
<polygon fill="midnightblue" stroke="midnightblue" points="323.8,-183 333.8,-179.5 323.8,-176 323.8,-183"/>
</g>
</g>
</svg>
