<?xml version="1.0" encoding="UTF-8" standalone="no"?>
<!DOCTYPE svg PUBLIC "-//W3C//DTD SVG 1.1//EN"
 "http://www.w3.org/Graphics/SVG/1.1/DTD/svg11.dtd">
<!-- Generated by graphviz version 2.43.0 (0)
 -->
<!-- Title: zero_mate::arm1176jzf_s::CCPU_Core::Get_Second_Operand_Imm Pages: 1 -->
<svg width="350pt" height="148pt"
 viewBox="0.00 0.00 350.00 148.00" xmlns="http://www.w3.org/2000/svg" xmlns:xlink="http://www.w3.org/1999/xlink">
<g id="graph0" class="graph" transform="scale(1 1) rotate(0) translate(4 144)">
<title>zero_mate::arm1176jzf_s::CCPU_Core::Get_Second_Operand_Imm</title>
<!-- Node1 -->
<g id="node1" class="node">
<title>Node1</title>
<g id="a_node1"><a xlink:title="Calculates the second immediate operand of a given instruction.">
<polygon fill="#bfbfbf" stroke="black" points="0,-38.5 0,-79.5 152,-79.5 152,-38.5 0,-38.5"/>
<text text-anchor="start" x="8" y="-67.5" font-family="Helvetica,sans-Serif" font-size="10.00">zero_mate::arm1176jzf</text>
<text text-anchor="start" x="8" y="-56.5" font-family="Helvetica,sans-Serif" font-size="10.00">_s::CCPU_Core::Get_Second</text>
<text text-anchor="middle" x="76" y="-45.5" font-family="Helvetica,sans-Serif" font-size="10.00">_Operand_Imm</text>
</a>
</g>
</g>
<!-- Node2 -->
<g id="node2" class="node">
<title>Node2</title>
<g id="a_node2"><a xlink:href="classzero__mate_1_1arm1176jzf__s_1_1isa_1_1CData__Processing.html#a5c64aa0622ddf4f42bccfa900673d005" target="_top" xlink:title="Return the immediate value (unsigned 8&#45;bit value).">
<polygon fill="none" stroke="black" points="194.5,-98.5 194.5,-139.5 335.5,-139.5 335.5,-98.5 194.5,-98.5"/>
<text text-anchor="start" x="202.5" y="-127.5" font-family="Helvetica,sans-Serif" font-size="10.00">zero_mate::arm1176jzf</text>
<text text-anchor="start" x="202.5" y="-116.5" font-family="Helvetica,sans-Serif" font-size="10.00">_s::isa::CData_Processing</text>
<text text-anchor="middle" x="265" y="-105.5" font-family="Helvetica,sans-Serif" font-size="10.00">::Get_Immediate</text>
</a>
</g>
</g>
<!-- Node1&#45;&gt;Node2 -->
<g id="edge1" class="edge">
<title>Node1&#45;&gt;Node2</title>
<path fill="none" stroke="midnightblue" d="M141.09,-79.56C156.85,-84.62 173.85,-90.08 190.04,-95.27"/>
<polygon fill="midnightblue" stroke="midnightblue" points="189.4,-98.74 199.99,-98.46 191.54,-92.07 189.4,-98.74"/>
</g>
<!-- Node3 -->
<g id="node3" class="node">
<title>Node3</title>
<g id="a_node3"><a xlink:href="classzero__mate_1_1arm1176jzf__s_1_1isa_1_1CData__Processing.html#acd5c9629ee16e0512678279f85158b72" target="_top" xlink:title="Returns the shift amount to be applied to the immediate value.">
<polygon fill="none" stroke="black" points="194.5,-38.5 194.5,-79.5 335.5,-79.5 335.5,-38.5 194.5,-38.5"/>
<text text-anchor="start" x="202.5" y="-67.5" font-family="Helvetica,sans-Serif" font-size="10.00">zero_mate::arm1176jzf</text>
<text text-anchor="start" x="202.5" y="-56.5" font-family="Helvetica,sans-Serif" font-size="10.00">_s::isa::CData_Processing</text>
<text text-anchor="middle" x="265" y="-45.5" font-family="Helvetica,sans-Serif" font-size="10.00">::Get_Rotate</text>
</a>
</g>
</g>
<!-- Node1&#45;&gt;Node3 -->
<g id="edge2" class="edge">
<title>Node1&#45;&gt;Node3</title>
<path fill="none" stroke="midnightblue" d="M152.25,-59C162.79,-59 173.65,-59 184.26,-59"/>
<polygon fill="midnightblue" stroke="midnightblue" points="184.35,-62.5 194.35,-59 184.35,-55.5 184.35,-62.5"/>
</g>
<!-- Node4 -->
<g id="node4" class="node">
<title>Node4</title>
<g id="a_node4"><a xlink:href="namespacezero__mate_1_1utils_1_1math.html#a9cdc39df63ef0d6d33123bac4fffb89b" target="_top" xlink:title="Performs an ROR (rotate right extended) operation on the given integral value.">
<polygon fill="none" stroke="black" points="188,-0.5 188,-19.5 342,-19.5 342,-0.5 188,-0.5"/>
<text text-anchor="middle" x="265" y="-7.5" font-family="Helvetica,sans-Serif" font-size="10.00">zero_mate::utils::math::ROR</text>
</a>
</g>
</g>
<!-- Node1&#45;&gt;Node4 -->
<g id="edge3" class="edge">
<title>Node1&#45;&gt;Node4</title>
<path fill="none" stroke="midnightblue" d="M152.18,-38.47C164.15,-35.26 176.41,-32.02 188,-29 196.89,-26.69 206.39,-24.27 215.54,-21.97"/>
<polygon fill="midnightblue" stroke="midnightblue" points="216.45,-25.35 225.3,-19.52 214.75,-18.56 216.45,-25.35"/>
</g>
</g>
</svg>
