<?xml version="1.0" encoding="UTF-8" standalone="no"?>
<!DOCTYPE svg PUBLIC "-//W3C//DTD SVG 1.1//EN"
 "http://www.w3.org/Graphics/SVG/1.1/DTD/svg11.dtd">
<!-- Generated by graphviz version 2.43.0 (0)
 -->
<!-- Title: zero_mate::arm1176jzf_s::isa::CInstruction Pages: 1 -->
<svg width="315pt" height="1100pt"
 viewBox="0.00 0.00 315.00 1100.00" xmlns="http://www.w3.org/2000/svg" xmlns:xlink="http://www.w3.org/1999/xlink">
<g id="graph0" class="graph" transform="scale(1 1) rotate(0) translate(4 1096)">
<title>zero_mate::arm1176jzf_s::isa::CInstruction</title>
<!-- Node1 -->
<g id="node1" class="node">
<title>Node1</title>
<g id="a_node1"><a xlink:title="This class represents a parent class for all ARM instructions used in the emulator.">
<polygon fill="#bfbfbf" stroke="black" points="0,-508 0,-538 130,-538 130,-508 0,-508"/>
<text text-anchor="start" x="8" y="-526" font-family="Helvetica,sans-Serif" font-size="10.00">zero_mate::arm1176jzf</text>
<text text-anchor="middle" x="65" y="-515" font-family="Helvetica,sans-Serif" font-size="10.00">_s::isa::CInstruction</text>
</a>
</g>
</g>
<!-- Node2 -->
<g id="node2" class="node">
<title>Node2</title>
<g id="a_node2"><a xlink:href="classzero__mate_1_1arm1176jzf__s_1_1isa_1_1CBlock__Data__Transfer.html" target="_top" xlink:title="This class represents a data block transfer instruction.">
<polygon fill="none" stroke="black" points="171.5,-1050.5 171.5,-1091.5 301.5,-1091.5 301.5,-1050.5 171.5,-1050.5"/>
<text text-anchor="start" x="179.5" y="-1079.5" font-family="Helvetica,sans-Serif" font-size="10.00">zero_mate::arm1176jzf</text>
<text text-anchor="start" x="179.5" y="-1068.5" font-family="Helvetica,sans-Serif" font-size="10.00">_s::isa::CBlock_Data</text>
<text text-anchor="middle" x="236.5" y="-1057.5" font-family="Helvetica,sans-Serif" font-size="10.00">_Transfer</text>
</a>
</g>
</g>
<!-- Node1&#45;&gt;Node2 -->
<g id="edge1" class="edge">
<title>Node1&#45;&gt;Node2</title>
<path fill="none" stroke="#8b1a1a" d="M67.79,-548.23C74.82,-641.17 103.35,-963.05 166,-1041 168.8,-1044.48 172.08,-1047.57 175.67,-1050.3"/>
<polygon fill="#8b1a1a" stroke="#8b1a1a" points="71.26,-547.78 67.03,-538.06 64.28,-548.29 71.26,-547.78"/>
</g>
<!-- Node3 -->
<g id="node3" class="node">
<title>Node3</title>
<g id="a_node3"><a xlink:href="classzero__mate_1_1arm1176jzf__s_1_1isa_1_1CBranch.html" target="_top" xlink:title="This class represents a branch instruction.">
<polygon fill="none" stroke="black" points="171.5,-1001 171.5,-1031 301.5,-1031 301.5,-1001 171.5,-1001"/>
<text text-anchor="start" x="179.5" y="-1019" font-family="Helvetica,sans-Serif" font-size="10.00">zero_mate::arm1176jzf</text>
<text text-anchor="middle" x="236.5" y="-1008" font-family="Helvetica,sans-Serif" font-size="10.00">_s::isa::CBranch</text>
</a>
</g>
</g>
<!-- Node1&#45;&gt;Node3 -->
<g id="edge2" class="edge">
<title>Node1&#45;&gt;Node3</title>
<path fill="none" stroke="midnightblue" d="M68.21,-548.45C76.29,-636.04 106.9,-923.34 166,-991 169.37,-994.86 173.39,-998.13 177.77,-1000.89"/>
<polygon fill="midnightblue" stroke="midnightblue" points="71.68,-547.99 67.3,-538.34 64.71,-548.62 71.68,-547.99"/>
</g>
<!-- Node4 -->
<g id="node4" class="node">
<title>Node4</title>
<g id="a_node4"><a xlink:href="classzero__mate_1_1arm1176jzf__s_1_1isa_1_1CBranch__And__Exchange.html" target="_top" xlink:title="This class represents a branch and exchange instruction.">
<polygon fill="none" stroke="black" points="171.5,-940.5 171.5,-981.5 301.5,-981.5 301.5,-940.5 171.5,-940.5"/>
<text text-anchor="start" x="179.5" y="-969.5" font-family="Helvetica,sans-Serif" font-size="10.00">zero_mate::arm1176jzf</text>
<text text-anchor="start" x="179.5" y="-958.5" font-family="Helvetica,sans-Serif" font-size="10.00">_s::isa::CBranch_And</text>
<text text-anchor="middle" x="236.5" y="-947.5" font-family="Helvetica,sans-Serif" font-size="10.00">_Exchange</text>
</a>
</g>
</g>
<!-- Node1&#45;&gt;Node4 -->
<g id="edge3" class="edge">
<title>Node1&#45;&gt;Node4</title>
<path fill="none" stroke="midnightblue" d="M69.2,-548.13C79.77,-627.58 115.75,-871.56 166,-931 168.97,-934.51 172.43,-937.63 176.18,-940.38"/>
<polygon fill="midnightblue" stroke="midnightblue" points="72.65,-547.51 67.88,-538.05 65.71,-548.42 72.65,-547.51"/>
</g>
<!-- Node5 -->
<g id="node5" class="node">
<title>Node5</title>
<g id="a_node5"><a xlink:href="classzero__mate_1_1arm1176jzf__s_1_1isa_1_1CCLZ.html" target="_top" xlink:title="This class represents a count leading zeros instruction.">
<polygon fill="none" stroke="black" points="171.5,-891 171.5,-921 301.5,-921 301.5,-891 171.5,-891"/>
<text text-anchor="start" x="179.5" y="-909" font-family="Helvetica,sans-Serif" font-size="10.00">zero_mate::arm1176jzf</text>
<text text-anchor="middle" x="236.5" y="-898" font-family="Helvetica,sans-Serif" font-size="10.00">_s::isa::CCLZ</text>
</a>
</g>
</g>
<!-- Node1&#45;&gt;Node5 -->
<g id="edge4" class="edge">
<title>Node1&#45;&gt;Node5</title>
<path fill="none" stroke="midnightblue" d="M65.5,-548.44C65.65,-613.08 75.05,-785.34 166,-882 169.24,-885.44 172.99,-888.39 177.04,-890.91"/>
<polygon fill="midnightblue" stroke="midnightblue" points="69,-548.36 65.56,-538.34 62,-548.32 69,-548.36"/>
</g>
<!-- Node6 -->
<g id="node6" class="node">
<title>Node6</title>
<g id="a_node6"><a xlink:href="classzero__mate_1_1arm1176jzf__s_1_1isa_1_1CCPS.html" target="_top" xlink:title="This class represents a change processor state instruction.">
<polygon fill="none" stroke="black" points="171.5,-842 171.5,-872 301.5,-872 301.5,-842 171.5,-842"/>
<text text-anchor="start" x="179.5" y="-860" font-family="Helvetica,sans-Serif" font-size="10.00">zero_mate::arm1176jzf</text>
<text text-anchor="middle" x="236.5" y="-849" font-family="Helvetica,sans-Serif" font-size="10.00">_s::isa::CCPS</text>
</a>
</g>
</g>
<!-- Node1&#45;&gt;Node6 -->
<g id="edge5" class="edge">
<title>Node1&#45;&gt;Node6</title>
<path fill="none" stroke="midnightblue" d="M66.95,-548.35C70.47,-606.46 87.15,-750.56 166,-832 169.75,-835.87 174.13,-839.14 178.85,-841.91"/>
<polygon fill="midnightblue" stroke="midnightblue" points="70.43,-548.03 66.41,-538.22 63.44,-548.39 70.43,-548.03"/>
</g>
<!-- Node7 -->
<g id="node7" class="node">
<title>Node7</title>
<g id="a_node7"><a xlink:href="classzero__mate_1_1arm1176jzf__s_1_1isa_1_1CCoprocessor__Data__Operation.html" target="_top" xlink:title="This class represents a coprocessor data operation.">
<polygon fill="none" stroke="black" points="171.5,-781.5 171.5,-822.5 301.5,-822.5 301.5,-781.5 171.5,-781.5"/>
<text text-anchor="start" x="179.5" y="-810.5" font-family="Helvetica,sans-Serif" font-size="10.00">zero_mate::arm1176jzf</text>
<text text-anchor="start" x="179.5" y="-799.5" font-family="Helvetica,sans-Serif" font-size="10.00">_s::isa::CCoprocessor</text>
<text text-anchor="middle" x="236.5" y="-788.5" font-family="Helvetica,sans-Serif" font-size="10.00">_Data_Operation</text>
</a>
</g>
</g>
<!-- Node1&#45;&gt;Node7 -->
<g id="edge6" class="edge">
<title>Node1&#45;&gt;Node7</title>
<path fill="none" stroke="midnightblue" d="M69.62,-548.12C77.94,-597.31 102.82,-707.18 166,-772 169.39,-775.48 173.26,-778.58 177.39,-781.34"/>
<polygon fill="midnightblue" stroke="midnightblue" points="73.04,-547.37 68,-538.05 66.13,-548.47 73.04,-547.37"/>
</g>
<!-- Node8 -->
<g id="node8" class="node">
<title>Node8</title>
<g id="a_node8"><a xlink:href="classzero__mate_1_1arm1176jzf__s_1_1isa_1_1CCoprocessor__Data__Transfer.html" target="_top" xlink:title="This class represents a coprocessor data transfer instruction.">
<polygon fill="none" stroke="black" points="171.5,-721.5 171.5,-762.5 301.5,-762.5 301.5,-721.5 171.5,-721.5"/>
<text text-anchor="start" x="179.5" y="-750.5" font-family="Helvetica,sans-Serif" font-size="10.00">zero_mate::arm1176jzf</text>
<text text-anchor="start" x="179.5" y="-739.5" font-family="Helvetica,sans-Serif" font-size="10.00">_s::isa::CCoprocessor</text>
<text text-anchor="middle" x="236.5" y="-728.5" font-family="Helvetica,sans-Serif" font-size="10.00">_Data_Transfer</text>
</a>
</g>
</g>
<!-- Node1&#45;&gt;Node8 -->
<g id="edge7" class="edge">
<title>Node1&#45;&gt;Node8</title>
<path fill="none" stroke="midnightblue" d="M73.17,-547.81C85.8,-587.47 115.56,-665.41 166,-712 169.76,-715.48 174,-718.59 178.46,-721.37"/>
<polygon fill="midnightblue" stroke="midnightblue" points="76.49,-546.68 70.2,-538.15 69.8,-548.74 76.49,-546.68"/>
</g>
<!-- Node9 -->
<g id="node9" class="node">
<title>Node9</title>
<g id="a_node9"><a xlink:href="classzero__mate_1_1arm1176jzf__s_1_1isa_1_1CCoprocessor__Reg__Transfer.html" target="_top" xlink:title="This class represents a coprocessor register transfer instruction.">
<polygon fill="none" stroke="black" points="171.5,-661.5 171.5,-702.5 301.5,-702.5 301.5,-661.5 171.5,-661.5"/>
<text text-anchor="start" x="179.5" y="-690.5" font-family="Helvetica,sans-Serif" font-size="10.00">zero_mate::arm1176jzf</text>
<text text-anchor="start" x="179.5" y="-679.5" font-family="Helvetica,sans-Serif" font-size="10.00">_s::isa::CCoprocessor</text>
<text text-anchor="middle" x="236.5" y="-668.5" font-family="Helvetica,sans-Serif" font-size="10.00">_Reg_Transfer</text>
</a>
</g>
</g>
<!-- Node1&#45;&gt;Node9 -->
<g id="edge8" class="edge">
<title>Node1&#45;&gt;Node9</title>
<path fill="none" stroke="midnightblue" d="M79.44,-547C96.39,-575.39 127.97,-622.52 166,-652 170.47,-655.46 175.39,-658.61 180.5,-661.45"/>
<polygon fill="midnightblue" stroke="midnightblue" points="82.33,-545.01 74.27,-538.14 76.29,-548.54 82.33,-545.01"/>
</g>
<!-- Node10 -->
<g id="node10" class="node">
<title>Node10</title>
<g id="a_node10"><a xlink:href="classzero__mate_1_1arm1176jzf__s_1_1isa_1_1CData__Processing.html" target="_top" xlink:title="This class represents a data processing instruction.">
<polygon fill="none" stroke="black" points="166,-612 166,-642 307,-642 307,-612 166,-612"/>
<text text-anchor="start" x="174" y="-630" font-family="Helvetica,sans-Serif" font-size="10.00">zero_mate::arm1176jzf</text>
<text text-anchor="middle" x="236.5" y="-619" font-family="Helvetica,sans-Serif" font-size="10.00">_s::isa::CData_Processing</text>
</a>
</g>
</g>
<!-- Node1&#45;&gt;Node10 -->
<g id="edge9" class="edge">
<title>Node1&#45;&gt;Node10</title>
<path fill="none" stroke="midnightblue" d="M88.78,-545.03C108.05,-562.69 137.08,-587.06 166,-603 172.04,-606.33 178.62,-609.32 185.25,-611.97"/>
<polygon fill="midnightblue" stroke="midnightblue" points="91.1,-542.41 81.4,-538.16 86.33,-547.53 91.1,-542.41"/>
</g>
<!-- Node11 -->
<g id="node11" class="node">
<title>Node11</title>
<g id="a_node11"><a xlink:href="classzero__mate_1_1arm1176jzf__s_1_1isa_1_1CExtend.html" target="_top" xlink:title="This class represents an extend instruction.">
<polygon fill="none" stroke="black" points="171.5,-563 171.5,-593 301.5,-593 301.5,-563 171.5,-563"/>
<text text-anchor="start" x="179.5" y="-581" font-family="Helvetica,sans-Serif" font-size="10.00">zero_mate::arm1176jzf</text>
<text text-anchor="middle" x="236.5" y="-570" font-family="Helvetica,sans-Serif" font-size="10.00">_s::isa::CExtend</text>
</a>
</g>
</g>
<!-- Node1&#45;&gt;Node11 -->
<g id="edge10" class="edge">
<title>Node1&#45;&gt;Node11</title>
<path fill="none" stroke="#8b1a1a" d="M122.1,-541.2C143.87,-548.27 168.51,-556.26 189.24,-562.99"/>
<polygon fill="#8b1a1a" stroke="#8b1a1a" points="122.91,-537.79 112.32,-538.03 120.75,-544.44 122.91,-537.79"/>
</g>
<!-- Node12 -->
<g id="node12" class="node">
<title>Node12</title>
<g id="a_node12"><a xlink:href="classzero__mate_1_1arm1176jzf__s_1_1isa_1_1CHalfword__Data__Transfer.html" target="_top" xlink:title="This class represents a Halfword data transfer instruction.">
<polygon fill="none" stroke="black" points="170.5,-502.5 170.5,-543.5 302.5,-543.5 302.5,-502.5 170.5,-502.5"/>
<text text-anchor="start" x="178.5" y="-531.5" font-family="Helvetica,sans-Serif" font-size="10.00">zero_mate::arm1176jzf</text>
<text text-anchor="start" x="178.5" y="-520.5" font-family="Helvetica,sans-Serif" font-size="10.00">_s::isa::CHalfword_Data</text>
<text text-anchor="middle" x="236.5" y="-509.5" font-family="Helvetica,sans-Serif" font-size="10.00">_Transfer</text>
</a>
</g>
</g>
<!-- Node1&#45;&gt;Node12 -->
<g id="edge11" class="edge">
<title>Node1&#45;&gt;Node12</title>
<path fill="none" stroke="midnightblue" d="M140.11,-523C150.22,-523 160.55,-523 170.48,-523"/>
<polygon fill="midnightblue" stroke="midnightblue" points="140.08,-519.5 130.08,-523 140.08,-526.5 140.08,-519.5"/>
</g>
<!-- Node13 -->
<g id="node13" class="node">
<title>Node13</title>
<g id="a_node13"><a xlink:href="classzero__mate_1_1arm1176jzf__s_1_1isa_1_1CMultiply.html" target="_top" xlink:title="This class represents a multiplication instruction.">
<polygon fill="none" stroke="black" points="171.5,-453 171.5,-483 301.5,-483 301.5,-453 171.5,-453"/>
<text text-anchor="start" x="179.5" y="-471" font-family="Helvetica,sans-Serif" font-size="10.00">zero_mate::arm1176jzf</text>
<text text-anchor="middle" x="236.5" y="-460" font-family="Helvetica,sans-Serif" font-size="10.00">_s::isa::CMultiply</text>
</a>
</g>
</g>
<!-- Node1&#45;&gt;Node13 -->
<g id="edge12" class="edge">
<title>Node1&#45;&gt;Node13</title>
<path fill="none" stroke="midnightblue" d="M122.1,-504.8C143.87,-497.73 168.51,-489.74 189.24,-483.01"/>
<polygon fill="midnightblue" stroke="midnightblue" points="120.75,-501.56 112.32,-507.97 122.91,-508.21 120.75,-501.56"/>
</g>
<!-- Node14 -->
<g id="node14" class="node">
<title>Node14</title>
<g id="a_node14"><a xlink:href="classzero__mate_1_1arm1176jzf__s_1_1isa_1_1CMultiply__Long.html" target="_top" xlink:title="This class represents a multiplication long instruction.">
<polygon fill="none" stroke="black" points="171.5,-404 171.5,-434 301.5,-434 301.5,-404 171.5,-404"/>
<text text-anchor="start" x="179.5" y="-422" font-family="Helvetica,sans-Serif" font-size="10.00">zero_mate::arm1176jzf</text>
<text text-anchor="middle" x="236.5" y="-411" font-family="Helvetica,sans-Serif" font-size="10.00">_s::isa::CMultiply_Long</text>
</a>
</g>
</g>
<!-- Node1&#45;&gt;Node14 -->
<g id="edge13" class="edge">
<title>Node1&#45;&gt;Node14</title>
<path fill="none" stroke="midnightblue" d="M89.23,-501.05C108.56,-483.71 137.44,-459.86 166,-444 172.61,-440.33 179.87,-437.02 187.12,-434.1"/>
<polygon fill="midnightblue" stroke="midnightblue" points="86.84,-498.49 81.81,-507.81 91.56,-503.66 86.84,-498.49"/>
</g>
<!-- Node15 -->
<g id="node15" class="node">
<title>Node15</title>
<g id="a_node15"><a xlink:href="classzero__mate_1_1arm1176jzf__s_1_1isa_1_1CPSR__Transfer.html" target="_top" xlink:title="This class represents a PSR instruction.">
<polygon fill="none" stroke="black" points="171.5,-355 171.5,-385 301.5,-385 301.5,-355 171.5,-355"/>
<text text-anchor="start" x="179.5" y="-373" font-family="Helvetica,sans-Serif" font-size="10.00">zero_mate::arm1176jzf</text>
<text text-anchor="middle" x="236.5" y="-362" font-family="Helvetica,sans-Serif" font-size="10.00">_s::isa::CPSR_Transfer</text>
</a>
</g>
</g>
<!-- Node1&#45;&gt;Node15 -->
<g id="edge14" class="edge">
<title>Node1&#45;&gt;Node15</title>
<path fill="none" stroke="midnightblue" d="M79.18,-498.79C95.88,-470.22 127.21,-423.07 166,-395 171.3,-391.17 177.24,-387.87 183.37,-385.04"/>
<polygon fill="midnightblue" stroke="midnightblue" points="76.01,-497.29 74.09,-507.71 82.09,-500.76 76.01,-497.29"/>
</g>
<!-- Node16 -->
<g id="node16" class="node">
<title>Node16</title>
<g id="a_node16"><a xlink:href="classzero__mate_1_1arm1176jzf__s_1_1isa_1_1CRFE.html" target="_top" xlink:title="This class represents an RFE instruction (return from exception).">
<polygon fill="none" stroke="black" points="171.5,-306 171.5,-336 301.5,-336 301.5,-306 171.5,-306"/>
<text text-anchor="start" x="179.5" y="-324" font-family="Helvetica,sans-Serif" font-size="10.00">zero_mate::arm1176jzf</text>
<text text-anchor="middle" x="236.5" y="-313" font-family="Helvetica,sans-Serif" font-size="10.00">_s::isa::CRFE</text>
</a>
</g>
</g>
<!-- Node1&#45;&gt;Node16 -->
<g id="edge15" class="edge">
<title>Node1&#45;&gt;Node16</title>
<path fill="none" stroke="#8b1a1a" d="M73.76,-498.07C86.81,-460.05 116.69,-387.61 166,-346 170.61,-342.11 175.86,-338.81 181.38,-336.01"/>
<polygon fill="#8b1a1a" stroke="#8b1a1a" points="70.35,-497.24 70.52,-507.83 76.99,-499.44 70.35,-497.24"/>
</g>
<!-- Node17 -->
<g id="node17" class="node">
<title>Node17</title>
<g id="a_node17"><a xlink:href="classzero__mate_1_1arm1176jzf__s_1_1isa_1_1CSMLAWy.html" target="_top" xlink:title="This class represents a CSMLAWy instruction.">
<polygon fill="none" stroke="black" points="171.5,-257 171.5,-287 301.5,-287 301.5,-257 171.5,-257"/>
<text text-anchor="start" x="179.5" y="-275" font-family="Helvetica,sans-Serif" font-size="10.00">zero_mate::arm1176jzf</text>
<text text-anchor="middle" x="236.5" y="-264" font-family="Helvetica,sans-Serif" font-size="10.00">_s::isa::CSMLAWy</text>
</a>
</g>
</g>
<!-- Node1&#45;&gt;Node17 -->
<g id="edge16" class="edge">
<title>Node1&#45;&gt;Node17</title>
<path fill="none" stroke="#8b1a1a" d="M70.37,-497.95C79.7,-451.82 105.83,-353.03 166,-297 170.13,-293.16 174.89,-289.89 179.95,-287.13"/>
<polygon fill="#8b1a1a" stroke="#8b1a1a" points="66.9,-497.5 68.44,-507.98 73.77,-498.82 66.9,-497.5"/>
</g>
<!-- Node18 -->
<g id="node18" class="node">
<title>Node18</title>
<g id="a_node18"><a xlink:href="classzero__mate_1_1arm1176jzf__s_1_1isa_1_1CSMLAxy.html" target="_top" xlink:title="This class represents a CSMLAxy instruction.">
<polygon fill="none" stroke="black" points="171.5,-208 171.5,-238 301.5,-238 301.5,-208 171.5,-208"/>
<text text-anchor="start" x="179.5" y="-226" font-family="Helvetica,sans-Serif" font-size="10.00">zero_mate::arm1176jzf</text>
<text text-anchor="middle" x="236.5" y="-215" font-family="Helvetica,sans-Serif" font-size="10.00">_s::isa::CSMLAxy</text>
</a>
</g>
</g>
<!-- Node1&#45;&gt;Node18 -->
<g id="edge17" class="edge">
<title>Node1&#45;&gt;Node18</title>
<path fill="none" stroke="midnightblue" d="M68.11,-497.88C73.92,-444.51 94.8,-318.96 166,-248 169.91,-244.11 174.46,-240.82 179.34,-238.04"/>
<polygon fill="midnightblue" stroke="midnightblue" points="64.63,-497.54 67.12,-507.84 71.59,-498.23 64.63,-497.54"/>
</g>
<!-- Node19 -->
<g id="node19" class="node">
<title>Node19</title>
<g id="a_node19"><a xlink:href="classzero__mate_1_1arm1176jzf__s_1_1isa_1_1CSMULWy.html" target="_top" xlink:title="This class represents a CSMULWy instruction.">
<polygon fill="none" stroke="black" points="171.5,-159 171.5,-189 301.5,-189 301.5,-159 171.5,-159"/>
<text text-anchor="start" x="179.5" y="-177" font-family="Helvetica,sans-Serif" font-size="10.00">zero_mate::arm1176jzf</text>
<text text-anchor="middle" x="236.5" y="-166" font-family="Helvetica,sans-Serif" font-size="10.00">_s::isa::CSMULWy</text>
</a>
</g>
</g>
<!-- Node1&#45;&gt;Node19 -->
<g id="edge18" class="edge">
<title>Node1&#45;&gt;Node19</title>
<path fill="none" stroke="midnightblue" d="M66.49,-497.67C69.03,-437.61 83.7,-285.16 166,-199 169.72,-195.11 174.09,-191.82 178.8,-189.04"/>
<polygon fill="midnightblue" stroke="midnightblue" points="62.99,-497.66 66.15,-507.77 69.99,-497.9 62.99,-497.66"/>
</g>
<!-- Node20 -->
<g id="node20" class="node">
<title>Node20</title>
<g id="a_node20"><a xlink:href="classzero__mate_1_1arm1176jzf__s_1_1isa_1_1CSMULxy.html" target="_top" xlink:title="This class represents a SMULxy instruction.">
<polygon fill="none" stroke="black" points="171.5,-110 171.5,-140 301.5,-140 301.5,-110 171.5,-110"/>
<text text-anchor="start" x="179.5" y="-128" font-family="Helvetica,sans-Serif" font-size="10.00">zero_mate::arm1176jzf</text>
<text text-anchor="middle" x="236.5" y="-117" font-family="Helvetica,sans-Serif" font-size="10.00">_s::isa::CSMULxy</text>
</a>
</g>
</g>
<!-- Node1&#45;&gt;Node20 -->
<g id="edge19" class="edge">
<title>Node1&#45;&gt;Node20</title>
<path fill="none" stroke="midnightblue" d="M65.25,-497.58C64.72,-431.37 72.46,-251.68 166,-150 169.56,-146.13 173.76,-142.86 178.31,-140.09"/>
<polygon fill="midnightblue" stroke="midnightblue" points="61.76,-497.95 65.42,-507.89 68.76,-497.84 61.76,-497.95"/>
</g>
<!-- Node21 -->
<g id="node21" class="node">
<title>Node21</title>
<g id="a_node21"><a xlink:href="classzero__mate_1_1arm1176jzf__s_1_1isa_1_1CSRS.html" target="_top" xlink:title="his class represents an SRS instruction (store return state onto a stack).">
<polygon fill="none" stroke="black" points="171.5,-61 171.5,-91 301.5,-91 301.5,-61 171.5,-61"/>
<text text-anchor="start" x="179.5" y="-79" font-family="Helvetica,sans-Serif" font-size="10.00">zero_mate::arm1176jzf</text>
<text text-anchor="middle" x="236.5" y="-68" font-family="Helvetica,sans-Serif" font-size="10.00">_s::isa::CSRS</text>
</a>
</g>
</g>
<!-- Node1&#45;&gt;Node21 -->
<g id="edge20" class="edge">
<title>Node1&#45;&gt;Node21</title>
<path fill="none" stroke="#8b1a1a" d="M68.84,-497.68C78.46,-415.98 112.29,-161.13 166,-101 169.42,-97.17 173.46,-93.93 177.86,-91.19"/>
<polygon fill="#8b1a1a" stroke="#8b1a1a" points="65.34,-497.48 67.66,-507.82 72.29,-498.28 65.34,-497.48"/>
</g>
<!-- Node22 -->
<g id="node22" class="node">
<title>Node22</title>
<g id="a_node22"><a xlink:href="classzero__mate_1_1arm1176jzf__s_1_1isa_1_1CSingle__Data__Transfer.html" target="_top" xlink:title="This class represents a single data transfer instruction.">
<polygon fill="none" stroke="black" points="171.5,-0.5 171.5,-41.5 301.5,-41.5 301.5,-0.5 171.5,-0.5"/>
<text text-anchor="start" x="179.5" y="-29.5" font-family="Helvetica,sans-Serif" font-size="10.00">zero_mate::arm1176jzf</text>
<text text-anchor="start" x="179.5" y="-18.5" font-family="Helvetica,sans-Serif" font-size="10.00">_s::isa::CSingle_Data</text>
<text text-anchor="middle" x="236.5" y="-7.5" font-family="Helvetica,sans-Serif" font-size="10.00">_Transfer</text>
</a>
</g>
</g>
<!-- Node1&#45;&gt;Node22 -->
<g id="edge21" class="edge">
<title>Node1&#45;&gt;Node22</title>
<path fill="none" stroke="#8b1a1a" d="M68.37,-497.54C76.99,-409.91 109.15,-122.27 166,-52 169.16,-48.1 172.91,-44.67 177.01,-41.66"/>
<polygon fill="#8b1a1a" stroke="#8b1a1a" points="64.87,-497.37 67.4,-507.66 71.84,-498.04 64.87,-497.37"/>
</g>
</g>
</svg>
