<?xml version="1.0" encoding="UTF-8" standalone="no"?>
<!DOCTYPE svg PUBLIC "-//W3C//DTD SVG 1.1//EN"
 "http://www.w3.org/Graphics/SVG/1.1/DTD/svg11.dtd">
<!-- Generated by graphviz version 2.43.0 (0)
 -->
<!-- Title: zero_mate::peripheral::CGPIO_Manager::Update_Pin_State Pages: 1 -->
<svg width="717pt" height="261pt"
 viewBox="0.00 0.00 717.00 260.50" xmlns="http://www.w3.org/2000/svg" xmlns:xlink="http://www.w3.org/1999/xlink">
<g id="graph0" class="graph" transform="scale(1 1) rotate(0) translate(4 256.5)">
<title>zero_mate::peripheral::CGPIO_Manager::Update_Pin_State</title>
<!-- Node1 -->
<g id="node1" class="node">
<title>Node1</title>
<g id="a_node1"><a xlink:title="Updates the state of all pins within a given register.">
<polygon fill="#bfbfbf" stroke="black" points="0,-115.5 0,-156.5 143,-156.5 143,-115.5 0,-115.5"/>
<text text-anchor="start" x="8" y="-144.5" font-family="Helvetica,sans-Serif" font-size="10.00">zero_mate::peripheral</text>
<text text-anchor="start" x="8" y="-133.5" font-family="Helvetica,sans-Serif" font-size="10.00">::CGPIO_Manager::Update</text>
<text text-anchor="middle" x="71.5" y="-122.5" font-family="Helvetica,sans-Serif" font-size="10.00">_Pin_State</text>
</a>
</g>
</g>
<!-- Node2 -->
<g id="node2" class="node">
<title>Node2</title>
<g id="a_node2"><a xlink:href="classzero__mate_1_1utils_1_1CLogging__System.html#a365eaf1db85bd115fe69c5d9f93b81ee" target="_top" xlink:title="Logs a debug message via all registered loggers.">
<polygon fill="none" stroke="black" points="179,-170 179,-200 325,-200 325,-170 179,-170"/>
<text text-anchor="start" x="187" y="-188" font-family="Helvetica,sans-Serif" font-size="10.00">zero_mate::utils::CLogging</text>
<text text-anchor="middle" x="252" y="-177" font-family="Helvetica,sans-Serif" font-size="10.00">_System::Debug</text>
</a>
</g>
</g>
<!-- Node1&#45;&gt;Node2 -->
<g id="edge1" class="edge">
<title>Node1&#45;&gt;Node2</title>
<path fill="none" stroke="midnightblue" d="M143.05,-155.37C157.24,-159.26 172.1,-163.34 186.09,-167.18"/>
<polygon fill="midnightblue" stroke="midnightblue" points="185.53,-170.66 196.1,-169.93 187.38,-163.91 185.53,-170.66"/>
</g>
<!-- Node7 -->
<g id="node7" class="node">
<title>Node7</title>
<g id="a_node7"><a xlink:href="namespacezero__mate_1_1utils_1_1math.html#af7d93c996dab2ff1b91c5a399dcfe29f" target="_top" xlink:title="Tests whether a bit is set in the given integral variable.">
<polygon fill="none" stroke="black" points="188.5,-121 188.5,-151 315.5,-151 315.5,-121 188.5,-121"/>
<text text-anchor="start" x="196.5" y="-139" font-family="Helvetica,sans-Serif" font-size="10.00">zero_mate::utils::math</text>
<text text-anchor="middle" x="252" y="-128" font-family="Helvetica,sans-Serif" font-size="10.00">::Is_Bit_Set</text>
</a>
</g>
</g>
<!-- Node1&#45;&gt;Node7 -->
<g id="edge6" class="edge">
<title>Node1&#45;&gt;Node7</title>
<path fill="none" stroke="midnightblue" d="M143.05,-136C154.65,-136 166.7,-136 178.36,-136"/>
<polygon fill="midnightblue" stroke="midnightblue" points="178.48,-139.5 188.48,-136 178.48,-132.5 178.48,-139.5"/>
</g>
<!-- Node8 -->
<g id="node8" class="node">
<title>Node8</title>
<g id="a_node8"><a xlink:href="classzero__mate_1_1peripheral_1_1CGPIO__Manager.html#afb4a55159afdaa47cd3640dfd1e0106b" target="_top" xlink:title="Mirrors the state of a given in in the GPLEV register.">
<polygon fill="none" stroke="black" points="183.5,-60.5 183.5,-101.5 320.5,-101.5 320.5,-60.5 183.5,-60.5"/>
<text text-anchor="start" x="191.5" y="-89.5" font-family="Helvetica,sans-Serif" font-size="10.00">zero_mate::peripheral</text>
<text text-anchor="start" x="191.5" y="-78.5" font-family="Helvetica,sans-Serif" font-size="10.00">::CGPIO_Manager::Mirror</text>
<text text-anchor="middle" x="252" y="-67.5" font-family="Helvetica,sans-Serif" font-size="10.00">_Pin_State_In_GPLEVn</text>
</a>
</g>
</g>
<!-- Node1&#45;&gt;Node8 -->
<g id="edge7" class="edge">
<title>Node1&#45;&gt;Node8</title>
<path fill="none" stroke="midnightblue" d="M139.22,-115.44C150.75,-111.89 162.81,-108.17 174.57,-104.55"/>
<polygon fill="midnightblue" stroke="midnightblue" points="175.83,-107.82 184.36,-101.53 173.77,-101.13 175.83,-107.82"/>
</g>
<!-- Node10 -->
<g id="node10" class="node">
<title>Node10</title>
<g id="a_node10"><a xlink:href="classzero__mate_1_1peripheral_1_1CGPIO__Manager.html#a623c62636a57d6c63db1331a42100452" target="_top" xlink:title="Notifies external peripherals that subscribe to the given pin about the change of its state.">
<polygon fill="none" stroke="black" points="183.5,-0.5 183.5,-41.5 320.5,-41.5 320.5,-0.5 183.5,-0.5"/>
<text text-anchor="start" x="191.5" y="-29.5" font-family="Helvetica,sans-Serif" font-size="10.00">zero_mate::peripheral</text>
<text text-anchor="start" x="191.5" y="-18.5" font-family="Helvetica,sans-Serif" font-size="10.00">::CGPIO_Manager::Notify</text>
<text text-anchor="middle" x="252" y="-7.5" font-family="Helvetica,sans-Serif" font-size="10.00">_External_Peripherals</text>
</a>
</g>
</g>
<!-- Node1&#45;&gt;Node10 -->
<g id="edge9" class="edge">
<title>Node1&#45;&gt;Node10</title>
<path fill="none" stroke="midnightblue" d="M94.41,-115.47C115.06,-96.89 147.44,-69.67 179,-51 181.8,-49.35 184.7,-47.74 187.67,-46.18"/>
<polygon fill="midnightblue" stroke="midnightblue" points="189.33,-49.27 196.72,-41.68 186.21,-43 189.33,-49.27"/>
</g>
<!-- Node11 -->
<g id="node11" class="node">
<title>Node11</title>
<g id="a_node11"><a xlink:href="classzero__mate_1_1utils_1_1CLogging__System.html#a8904feb1d77dc350717ebcd00e7e5443" target="_top" xlink:title="Logs a warning message via all registered loggers.">
<polygon fill="none" stroke="black" points="179,-219 179,-249 325,-249 325,-219 179,-219"/>
<text text-anchor="start" x="187" y="-237" font-family="Helvetica,sans-Serif" font-size="10.00">zero_mate::utils::CLogging</text>
<text text-anchor="middle" x="252" y="-226" font-family="Helvetica,sans-Serif" font-size="10.00">_System::Warning</text>
</a>
</g>
</g>
<!-- Node1&#45;&gt;Node11 -->
<g id="edge10" class="edge">
<title>Node1&#45;&gt;Node11</title>
<path fill="none" stroke="midnightblue" d="M98.41,-156.68C119.25,-172.58 149.78,-194.25 179,-209 183.28,-211.16 187.79,-213.21 192.38,-215.14"/>
<polygon fill="midnightblue" stroke="midnightblue" points="191.27,-218.46 201.86,-218.91 193.86,-211.96 191.27,-218.46"/>
</g>
<!-- Node3 -->
<g id="node3" class="node">
<title>Node3</title>
<g id="a_node3"><a xlink:href="classzero__mate_1_1utils_1_1CLogging__System.html#a71ed11c796553cbe8fd99773406a1060" target="_top" xlink:title="Creates a formatted message to be logged.">
<polygon fill="none" stroke="black" points="361,-161.5 361,-202.5 513,-202.5 513,-161.5 361,-161.5"/>
<text text-anchor="start" x="369" y="-190.5" font-family="Helvetica,sans-Serif" font-size="10.00">zero_mate::utils::CLogging</text>
<text text-anchor="start" x="369" y="-179.5" font-family="Helvetica,sans-Serif" font-size="10.00">_System::Create_Formatted</text>
<text text-anchor="middle" x="437" y="-168.5" font-family="Helvetica,sans-Serif" font-size="10.00">_Log_Msg</text>
</a>
</g>
</g>
<!-- Node2&#45;&gt;Node3 -->
<g id="edge2" class="edge">
<title>Node2&#45;&gt;Node3</title>
<path fill="none" stroke="midnightblue" d="M325.06,-183.82C333.55,-183.68 342.26,-183.54 350.9,-183.4"/>
<polygon fill="midnightblue" stroke="midnightblue" points="351.05,-186.89 360.99,-183.23 350.94,-179.89 351.05,-186.89"/>
</g>
<!-- Node6 -->
<g id="node6" class="node">
<title>Node6</title>
<g id="a_node6"><a xlink:href="classzero__mate_1_1utils_1_1CLogging__System.html#a90671387b53987d6fd3c85348cb234e4" target="_top" xlink:title="Extract the filename from a given location within the source files.">
<polygon fill="none" stroke="black" points="362.5,-222 362.5,-252 511.5,-252 511.5,-222 362.5,-222"/>
<text text-anchor="start" x="370.5" y="-240" font-family="Helvetica,sans-Serif" font-size="10.00">zero_mate::utils::CLogging</text>
<text text-anchor="middle" x="437" y="-229" font-family="Helvetica,sans-Serif" font-size="10.00">_System::Extract_Filename</text>
</a>
</g>
</g>
<!-- Node2&#45;&gt;Node6 -->
<g id="edge5" class="edge">
<title>Node2&#45;&gt;Node6</title>
<path fill="none" stroke="midnightblue" d="M305.93,-200.04C326.99,-206.02 351.37,-212.95 373.31,-219.19"/>
<polygon fill="midnightblue" stroke="midnightblue" points="372.61,-222.63 383.19,-221.99 374.53,-215.89 372.61,-222.63"/>
</g>
<!-- Node4 -->
<g id="node4" class="node">
<title>Node4</title>
<g id="a_node4"><a xlink:href="classzero__mate_1_1utils_1_1CLogging__System.html#aa70c102c805079042ffea2a6f2a5ad64" target="_top" xlink:title="Formats a given timestamp.">
<polygon fill="none" stroke="black" points="549,-192 549,-222 709,-222 709,-192 549,-192"/>
<text text-anchor="start" x="557" y="-210" font-family="Helvetica,sans-Serif" font-size="10.00">zero_mate::utils::CLogging</text>
<text text-anchor="middle" x="629" y="-199" font-family="Helvetica,sans-Serif" font-size="10.00">_System::Format_Timestamp</text>
</a>
</g>
</g>
<!-- Node3&#45;&gt;Node4 -->
<g id="edge3" class="edge">
<title>Node3&#45;&gt;Node4</title>
<path fill="none" stroke="midnightblue" d="M513.09,-191.88C521.52,-192.99 530.16,-194.13 538.74,-195.26"/>
<polygon fill="midnightblue" stroke="midnightblue" points="538.4,-198.74 548.77,-196.57 539.31,-191.8 538.4,-198.74"/>
</g>
<!-- Node5 -->
<g id="node5" class="node">
<title>Node5</title>
<g id="a_node5"><a xlink:href="classzero__mate_1_1utils_1_1CLogging__System.html#ae3ca637537dde05e0b9119145c840331" target="_top" xlink:title="Returns the current timestamp that will be used in a log message.">
<polygon fill="none" stroke="black" points="556,-143 556,-173 702,-173 702,-143 556,-143"/>
<text text-anchor="start" x="564" y="-161" font-family="Helvetica,sans-Serif" font-size="10.00">zero_mate::utils::CLogging</text>
<text text-anchor="middle" x="629" y="-150" font-family="Helvetica,sans-Serif" font-size="10.00">_System::Get_Timestamp</text>
</a>
</g>
</g>
<!-- Node3&#45;&gt;Node5 -->
<g id="edge4" class="edge">
<title>Node3&#45;&gt;Node5</title>
<path fill="none" stroke="midnightblue" d="M513.09,-172.51C523.89,-171.15 535.05,-169.74 545.98,-168.36"/>
<polygon fill="midnightblue" stroke="midnightblue" points="546.45,-171.83 555.93,-167.1 545.57,-164.88 546.45,-171.83"/>
</g>
<!-- Node9 -->
<g id="node9" class="node">
<title>Node9</title>
<g id="a_node9"><a xlink:href="classzero__mate_1_1peripheral_1_1CGPIO__Manager.html#aa6b0515a8e4fecb78bebfbb79a13994b" target="_top" xlink:title="Returns the index of the register (out of the two alternatives) based on the pin index.">
<polygon fill="none" stroke="black" points="374.5,-60.5 374.5,-101.5 499.5,-101.5 499.5,-60.5 374.5,-60.5"/>
<text text-anchor="start" x="382.5" y="-89.5" font-family="Helvetica,sans-Serif" font-size="10.00">zero_mate::peripheral</text>
<text text-anchor="start" x="382.5" y="-78.5" font-family="Helvetica,sans-Serif" font-size="10.00">::CGPIO_Manager::Get</text>
<text text-anchor="middle" x="437" y="-67.5" font-family="Helvetica,sans-Serif" font-size="10.00">_Register_Index</text>
</a>
</g>
</g>
<!-- Node8&#45;&gt;Node9 -->
<g id="edge8" class="edge">
<title>Node8&#45;&gt;Node9</title>
<path fill="none" stroke="midnightblue" d="M320.62,-81C334.8,-81 349.79,-81 364.12,-81"/>
<polygon fill="midnightblue" stroke="midnightblue" points="364.4,-84.5 374.4,-81 364.4,-77.5 364.4,-84.5"/>
</g>
<!-- Node11&#45;&gt;Node3 -->
<g id="edge11" class="edge">
<title>Node11&#45;&gt;Node3</title>
<path fill="none" stroke="midnightblue" d="M305.93,-218.96C320.88,-214.71 337.51,-209.99 353.75,-205.37"/>
<polygon fill="midnightblue" stroke="midnightblue" points="355.12,-208.62 363.79,-202.52 353.21,-201.89 355.12,-208.62"/>
</g>
<!-- Node11&#45;&gt;Node6 -->
<g id="edge12" class="edge">
<title>Node11&#45;&gt;Node6</title>
<path fill="none" stroke="midnightblue" d="M325.06,-235.18C334,-235.33 343.2,-235.48 352.29,-235.63"/>
<polygon fill="midnightblue" stroke="midnightblue" points="352.44,-239.13 362.5,-235.8 352.56,-232.13 352.44,-239.13"/>
</g>
</g>
</svg>
