<?xml version="1.0" encoding="UTF-8" standalone="no"?>
<!DOCTYPE svg PUBLIC "-//W3C//DTD SVG 1.1//EN"
 "http://www.w3.org/Graphics/SVG/1.1/DTD/svg11.dtd">
<!-- Generated by graphviz version 2.43.0 (0)
 -->
<!-- Title: zero_mate::peripheral::CARM_Timer::Get_Reg Pages: 1 -->
<svg width="527pt" height="275pt"
 viewBox="0.00 0.00 527.00 274.50" xmlns="http://www.w3.org/2000/svg" xmlns:xlink="http://www.w3.org/1999/xlink">
<g id="graph0" class="graph" transform="scale(1 1) rotate(0) translate(4 270.5)">
<title>zero_mate::peripheral::CARM_Timer::Get_Reg</title>
<!-- Node1 -->
<g id="node1" class="node">
<title>Node1</title>
<g id="a_node1"><a xlink:title="Returns the current content of a register.">
<polygon fill="#bfbfbf" stroke="black" points="386,-121 386,-151 519,-151 519,-121 386,-121"/>
<text text-anchor="start" x="394" y="-139" font-family="Helvetica,sans-Serif" font-size="10.00">zero_mate::peripheral</text>
<text text-anchor="middle" x="452.5" y="-128" font-family="Helvetica,sans-Serif" font-size="10.00">::CARM_Timer::Get_Reg</text>
</a>
</g>
</g>
<!-- Node2 -->
<g id="node2" class="node">
<title>Node2</title>
<g id="a_node2"><a xlink:href="classzero__mate_1_1peripheral_1_1CARM__Timer.html#a6e04a50b8de25f632bd3fd6f0650ca89" target="_top" xlink:title="Creates an instance of the class.">
<polygon fill="none" stroke="black" points="186,-236 186,-266 341,-266 341,-236 186,-236"/>
<text text-anchor="start" x="194" y="-254" font-family="Helvetica,sans-Serif" font-size="10.00">zero_mate::peripheral</text>
<text text-anchor="middle" x="263.5" y="-243" font-family="Helvetica,sans-Serif" font-size="10.00">::CARM_Timer::CARM_Timer</text>
</a>
</g>
</g>
<!-- Node1&#45;&gt;Node2 -->
<g id="edge1" class="edge">
<title>Node1&#45;&gt;Node2</title>
<path fill="none" stroke="midnightblue" d="M431.72,-158.92C412.73,-179.56 382.23,-209.3 350,-227 343.78,-230.41 337.04,-233.38 330.16,-235.94"/>
<polygon fill="midnightblue" stroke="midnightblue" points="434.56,-161 438.65,-151.23 429.36,-156.31 434.56,-161"/>
</g>
<!-- Node3 -->
<g id="node3" class="node">
<title>Node3</title>
<g id="a_node3"><a xlink:href="classzero__mate_1_1peripheral_1_1CARM__Timer.html#a9f2ae98d766d97f06f4b153a99bafcaa" target="_top" xlink:title="Clear a pending interrupt (helper function).">
<polygon fill="none" stroke="black" points="178,-187 178,-217 349,-217 349,-187 178,-187"/>
<text text-anchor="start" x="186" y="-205" font-family="Helvetica,sans-Serif" font-size="10.00">zero_mate::peripheral</text>
<text text-anchor="middle" x="263.5" y="-194" font-family="Helvetica,sans-Serif" font-size="10.00">::CARM_Timer::Clear_Basic_IRQ</text>
</a>
</g>
</g>
<!-- Node1&#45;&gt;Node3 -->
<g id="edge2" class="edge">
<title>Node1&#45;&gt;Node3</title>
<path fill="none" stroke="midnightblue" d="M399.4,-154.52C383.54,-160.14 366.06,-166.33 350,-172 336.2,-176.87 321.15,-182.16 307.57,-186.92"/>
<polygon fill="midnightblue" stroke="midnightblue" points="400.79,-157.74 409.04,-151.1 398.45,-151.14 400.79,-157.74"/>
</g>
<!-- Node4 -->
<g id="node4" class="node">
<title>Node4</title>
<g id="a_node4"><a xlink:href="classzero__mate_1_1peripheral_1_1CARM__Timer.html#adb5da1b77debf34bb53e590c1774af34" target="_top" xlink:title="Writes data to the peripheral (IPeripheral interface).">
<polygon fill="none" stroke="black" points="8.5,-165 8.5,-195 132.5,-195 132.5,-165 8.5,-165"/>
<text text-anchor="start" x="16.5" y="-183" font-family="Helvetica,sans-Serif" font-size="10.00">zero_mate::peripheral</text>
<text text-anchor="middle" x="70.5" y="-172" font-family="Helvetica,sans-Serif" font-size="10.00">::CARM_Timer::Write</text>
</a>
</g>
</g>
<!-- Node1&#45;&gt;Node4 -->
<g id="edge9" class="edge">
<title>Node1&#45;&gt;Node4</title>
<path fill="none" stroke="midnightblue" d="M375.47,-144.8C304.12,-153.06 198.76,-165.26 132.69,-172.92"/>
<polygon fill="midnightblue" stroke="midnightblue" points="376.21,-148.24 385.74,-143.61 375.41,-141.29 376.21,-148.24"/>
</g>
<!-- Node5 -->
<g id="node5" class="node">
<title>Node5</title>
<g id="a_node5"><a xlink:href="classzero__mate_1_1peripheral_1_1CARM__Timer.html#a6f089d92275345a7f7a363c942bc8692" target="_top" xlink:title="Returns the current content of the control register.">
<polygon fill="none" stroke="black" points="177,-99 177,-129 350,-129 350,-99 177,-99"/>
<text text-anchor="start" x="185" y="-117" font-family="Helvetica,sans-Serif" font-size="10.00">zero_mate::peripheral</text>
<text text-anchor="middle" x="263.5" y="-106" font-family="Helvetica,sans-Serif" font-size="10.00">::CARM_Timer::Get_Control_Reg</text>
</a>
</g>
</g>
<!-- Node1&#45;&gt;Node5 -->
<g id="edge4" class="edge">
<title>Node1&#45;&gt;Node5</title>
<path fill="none" stroke="midnightblue" d="M375.66,-127.08C367.22,-126.08 358.58,-125.07 350.03,-124.06"/>
<polygon fill="midnightblue" stroke="midnightblue" points="375.49,-130.58 385.83,-128.27 376.31,-123.63 375.49,-130.58"/>
</g>
<!-- Node6 -->
<g id="node6" class="node">
<title>Node6</title>
<g id="a_node6"><a xlink:href="classzero__mate_1_1peripheral_1_1CARM__Timer.html#afc4c9659823762252dd1ea58b8a76e1e" target="_top" xlink:title="Updates the timer (ISystem_Clock_Listener interface).">
<polygon fill="none" stroke="black" points="0,-49.5 0,-90.5 141,-90.5 141,-49.5 0,-49.5"/>
<text text-anchor="start" x="8" y="-78.5" font-family="Helvetica,sans-Serif" font-size="10.00">zero_mate::peripheral</text>
<text text-anchor="start" x="8" y="-67.5" font-family="Helvetica,sans-Serif" font-size="10.00">::CARM_Timer::Increment</text>
<text text-anchor="middle" x="70.5" y="-56.5" font-family="Helvetica,sans-Serif" font-size="10.00">_Passed_Cycles</text>
</a>
</g>
</g>
<!-- Node1&#45;&gt;Node6 -->
<g id="edge6" class="edge">
<title>Node1&#45;&gt;Node6</title>
<path fill="none" stroke="midnightblue" d="M416,-116.16C397.01,-106.53 372.88,-95.81 350,-90 280.46,-72.35 198.24,-68.42 141.25,-68.25"/>
<polygon fill="midnightblue" stroke="midnightblue" points="414.4,-119.27 424.88,-120.78 417.62,-113.06 414.4,-119.27"/>
</g>
<!-- Node7 -->
<g id="node7" class="node">
<title>Node7</title>
<g id="a_node7"><a xlink:href="classzero__mate_1_1peripheral_1_1CARM__Timer.html#a9abc7d434c8ec8120e49e2add79e7346" target="_top" xlink:title="This procedure is called whenever the timer reaches 0 (helper function).">
<polygon fill="none" stroke="black" points="191.5,-0.5 191.5,-41.5 335.5,-41.5 335.5,-0.5 191.5,-0.5"/>
<text text-anchor="start" x="199.5" y="-29.5" font-family="Helvetica,sans-Serif" font-size="10.00">zero_mate::peripheral</text>
<text text-anchor="start" x="199.5" y="-18.5" font-family="Helvetica,sans-Serif" font-size="10.00">::CARM_Timer::Timer_Has</text>
<text text-anchor="middle" x="263.5" y="-7.5" font-family="Helvetica,sans-Serif" font-size="10.00">_Reached_Zero</text>
</a>
</g>
</g>
<!-- Node1&#45;&gt;Node7 -->
<g id="edge7" class="edge">
<title>Node1&#45;&gt;Node7</title>
<path fill="none" stroke="midnightblue" d="M427.73,-114.11C407.99,-96.74 378.62,-72.69 350,-56 340.99,-50.75 331.05,-45.91 321.22,-41.6"/>
<polygon fill="midnightblue" stroke="midnightblue" points="425.51,-116.83 435.31,-120.87 430.17,-111.6 425.51,-116.83"/>
</g>
<!-- Node3&#45;&gt;Node4 -->
<g id="edge3" class="edge">
<title>Node3&#45;&gt;Node4</title>
<path fill="none" stroke="midnightblue" d="M167.83,-191.1C155.84,-189.71 143.82,-188.33 132.55,-187.03"/>
<polygon fill="midnightblue" stroke="midnightblue" points="167.56,-194.59 177.89,-192.25 168.36,-187.63 167.56,-194.59"/>
</g>
<!-- Node5&#45;&gt;Node6 -->
<g id="edge5" class="edge">
<title>Node5&#45;&gt;Node6</title>
<path fill="none" stroke="midnightblue" d="M187.44,-96.71C172.23,-93.21 156.31,-89.54 141.3,-86.08"/>
<polygon fill="midnightblue" stroke="midnightblue" points="186.77,-100.15 197.3,-98.98 188.34,-93.33 186.77,-100.15"/>
</g>
<!-- Node7&#45;&gt;Node6 -->
<g id="edge8" class="edge">
<title>Node7&#45;&gt;Node6</title>
<path fill="none" stroke="midnightblue" d="M181.64,-41.74C168.16,-45.2 154.27,-48.77 141.09,-52.15"/>
<polygon fill="midnightblue" stroke="midnightblue" points="182.56,-45.12 191.38,-39.25 180.82,-38.34 182.56,-45.12"/>
</g>
</g>
</svg>
