<?xml version="1.0" encoding="UTF-8" standalone="no"?>
<!DOCTYPE svg PUBLIC "-//W3C//DTD SVG 1.1//EN"
 "http://www.w3.org/Graphics/SVG/1.1/DTD/svg11.dtd">
<!-- Generated by graphviz version 2.43.0 (0)
 -->
<!-- Title: zero_mate::gui::CControl_Window::Reset_Emulator Pages: 1 -->
<svg width="518pt" height="137pt"
 viewBox="0.00 0.00 518.00 137.00" xmlns="http://www.w3.org/2000/svg" xmlns:xlink="http://www.w3.org/1999/xlink">
<g id="graph0" class="graph" transform="scale(1 1) rotate(0) translate(4 133)">
<title>zero_mate::gui::CControl_Window::Reset_Emulator</title>
<!-- Node1 -->
<g id="node1" class="node">
<title>Node1</title>
<g id="a_node1"><a xlink:title=" ">
<polygon fill="#bfbfbf" stroke="black" points="0,-49.5 0,-79.5 143,-79.5 143,-49.5 0,-49.5"/>
<text text-anchor="start" x="8" y="-67.5" font-family="Helvetica,sans-Serif" font-size="10.00">zero_mate::gui::CControl</text>
<text text-anchor="middle" x="71.5" y="-56.5" font-family="Helvetica,sans-Serif" font-size="10.00">_Window::Reset_Emulator</text>
</a>
</g>
</g>
<!-- Node2 -->
<g id="node2" class="node">
<title>Node2</title>
<g id="a_node2"><a xlink:href="classzero__mate_1_1utils_1_1CLogging__System.html#aba3c5c64cd12e058e6a288db2cd89a15" target="_top" xlink:title="Logs an error message via all registered loggers.">
<polygon fill="none" stroke="black" points="179,-98.5 179,-128.5 325,-128.5 325,-98.5 179,-98.5"/>
<text text-anchor="start" x="187" y="-116.5" font-family="Helvetica,sans-Serif" font-size="10.00">zero_mate::utils::CLogging</text>
<text text-anchor="middle" x="252" y="-105.5" font-family="Helvetica,sans-Serif" font-size="10.00">_System::Error</text>
</a>
</g>
</g>
<!-- Node1&#45;&gt;Node2 -->
<g id="edge1" class="edge">
<title>Node1&#45;&gt;Node2</title>
<path fill="none" stroke="midnightblue" d="M127.51,-79.6C146.09,-84.7 167.01,-90.44 186.27,-95.73"/>
<polygon fill="midnightblue" stroke="midnightblue" points="185.6,-99.18 196.17,-98.45 187.45,-92.43 185.6,-99.18"/>
</g>
<!-- Node4 -->
<g id="node4" class="node">
<title>Node4</title>
<g id="a_node4"><a xlink:href="classzero__mate_1_1utils_1_1CLogging__System.html#aee146ee8db11fa8f184757f980d35c02" target="_top" xlink:title="Logs an info message via all registered loggers.">
<polygon fill="none" stroke="black" points="179,-49.5 179,-79.5 325,-79.5 325,-49.5 179,-49.5"/>
<text text-anchor="start" x="187" y="-67.5" font-family="Helvetica,sans-Serif" font-size="10.00">zero_mate::utils::CLogging</text>
<text text-anchor="middle" x="252" y="-56.5" font-family="Helvetica,sans-Serif" font-size="10.00">_System::Info</text>
</a>
</g>
</g>
<!-- Node1&#45;&gt;Node4 -->
<g id="edge3" class="edge">
<title>Node1&#45;&gt;Node4</title>
<path fill="none" stroke="midnightblue" d="M143.05,-64.5C151.52,-64.5 160.23,-64.5 168.86,-64.5"/>
<polygon fill="midnightblue" stroke="midnightblue" points="168.92,-68 178.92,-64.5 168.92,-61 168.92,-68"/>
</g>
<!-- Node5 -->
<g id="node5" class="node">
<title>Node5</title>
<g id="a_node5"><a xlink:href="namespacezero__mate_1_1utils_1_1elf.html#a7af51862dcfbf3eda33e79e06f610595" target="_top" xlink:title="Reloads the same kernel that was loaded using the Load_Kernel function.">
<polygon fill="none" stroke="black" points="195,-0.5 195,-30.5 309,-30.5 309,-0.5 195,-0.5"/>
<text text-anchor="start" x="203" y="-18.5" font-family="Helvetica,sans-Serif" font-size="10.00">zero_mate::utils::elf</text>
<text text-anchor="middle" x="252" y="-7.5" font-family="Helvetica,sans-Serif" font-size="10.00">::Reload_Kernel</text>
</a>
</g>
</g>
<!-- Node1&#45;&gt;Node5 -->
<g id="edge5" class="edge">
<title>Node1&#45;&gt;Node5</title>
<path fill="none" stroke="midnightblue" d="M127.51,-49.4C146.09,-44.3 167.01,-38.56 186.27,-33.27"/>
<polygon fill="midnightblue" stroke="midnightblue" points="187.45,-36.57 196.17,-30.55 185.6,-29.82 187.45,-36.57"/>
</g>
<!-- Node3 -->
<g id="node3" class="node">
<title>Node3</title>
<g id="a_node3"><a xlink:href="classzero__mate_1_1utils_1_1CLogging__System.html#a90671387b53987d6fd3c85348cb234e4" target="_top" xlink:title="Extract the filename from a given location within the source files.">
<polygon fill="none" stroke="black" points="361,-73.5 361,-103.5 510,-103.5 510,-73.5 361,-73.5"/>
<text text-anchor="start" x="369" y="-91.5" font-family="Helvetica,sans-Serif" font-size="10.00">zero_mate::utils::CLogging</text>
<text text-anchor="middle" x="435.5" y="-80.5" font-family="Helvetica,sans-Serif" font-size="10.00">_System::Extract_Filename</text>
</a>
</g>
</g>
<!-- Node2&#45;&gt;Node3 -->
<g id="edge2" class="edge">
<title>Node2&#45;&gt;Node3</title>
<path fill="none" stroke="midnightblue" d="M325.26,-103.55C333.64,-102.39 342.24,-101.21 350.76,-100.03"/>
<polygon fill="midnightblue" stroke="midnightblue" points="351.28,-103.5 360.71,-98.66 350.33,-96.56 351.28,-103.5"/>
</g>
<!-- Node4&#45;&gt;Node3 -->
<g id="edge4" class="edge">
<title>Node4&#45;&gt;Node3</title>
<path fill="none" stroke="midnightblue" d="M325.26,-74.05C333.64,-75.16 342.24,-76.3 350.76,-77.43"/>
<polygon fill="midnightblue" stroke="midnightblue" points="350.34,-80.9 360.71,-78.74 351.26,-73.96 350.34,-80.9"/>
</g>
<!-- Node6 -->
<g id="node6" class="node">
<title>Node6</title>
<g id="a_node6"><a xlink:href="namespacezero__mate_1_1utils_1_1elf.html#a95a9f666929811b558bcb9da0969972a" target="_top" xlink:title="Loads a given ELF file (kernel) into the memory.">
<polygon fill="none" stroke="black" points="378.5,-0.5 378.5,-30.5 492.5,-30.5 492.5,-0.5 378.5,-0.5"/>
<text text-anchor="start" x="386.5" y="-18.5" font-family="Helvetica,sans-Serif" font-size="10.00">zero_mate::utils::elf</text>
<text text-anchor="middle" x="435.5" y="-7.5" font-family="Helvetica,sans-Serif" font-size="10.00">::Load_Kernel</text>
</a>
</g>
</g>
<!-- Node5&#45;&gt;Node6 -->
<g id="edge6" class="edge">
<title>Node5&#45;&gt;Node6</title>
<path fill="none" stroke="midnightblue" d="M309.43,-15.5C328.04,-15.5 348.92,-15.5 368.2,-15.5"/>
<polygon fill="midnightblue" stroke="midnightblue" points="368.41,-19 378.41,-15.5 368.41,-12 368.41,-19"/>
</g>
</g>
</svg>
