<?xml version="1.0" encoding="UTF-8" standalone="no"?>
<!DOCTYPE svg PUBLIC "-//W3C//DTD SVG 1.1//EN"
 "http://www.w3.org/Graphics/SVG/1.1/DTD/svg11.dtd">
<!-- Generated by graphviz version 2.43.0 (0)
 -->
<!-- Title: zero_mate::arm1176jzf_s::CCPU_Core::Execute Pages: 1 -->
<svg width="522pt" height="280pt"
 viewBox="0.00 0.00 522.00 280.00" xmlns="http://www.w3.org/2000/svg" xmlns:xlink="http://www.w3.org/1999/xlink">
<g id="graph0" class="graph" transform="scale(1 1) rotate(0) translate(4 276)">
<title>zero_mate::arm1176jzf_s::CCPU_Core::Execute</title>
<!-- Node1 -->
<g id="node1" class="node">
<title>Node1</title>
<g id="a_node1"><a xlink:title="Executes a CPS instruction.">
<polygon fill="#bfbfbf" stroke="black" points="0,-148.5 0,-178.5 132,-178.5 132,-148.5 0,-148.5"/>
<text text-anchor="start" x="8" y="-166.5" font-family="Helvetica,sans-Serif" font-size="10.00">zero_mate::arm1176jzf</text>
<text text-anchor="middle" x="66" y="-155.5" font-family="Helvetica,sans-Serif" font-size="10.00">_s::CCPU_Core::Execute</text>
</a>
</g>
</g>
<!-- Node2 -->
<g id="node2" class="node">
<title>Node2</title>
<g id="a_node2"><a xlink:href="classzero__mate_1_1arm1176jzf__s_1_1CCPU__Context.html#acf66c6ff905975912dbf52133ddfeceb" target="_top" xlink:title="Returns a reference the CPSR register of the current CPU mode.">
<polygon fill="none" stroke="black" points="168,-241.5 168,-271.5 326,-271.5 326,-241.5 168,-241.5"/>
<text text-anchor="start" x="176" y="-259.5" font-family="Helvetica,sans-Serif" font-size="10.00">zero_mate::arm1176jzf</text>
<text text-anchor="middle" x="247" y="-248.5" font-family="Helvetica,sans-Serif" font-size="10.00">_s::CCPU_Context::Get_CPSR</text>
</a>
</g>
</g>
<!-- Node1&#45;&gt;Node2 -->
<g id="edge1" class="edge">
<title>Node1&#45;&gt;Node2</title>
<path fill="none" stroke="midnightblue" d="M88.37,-178.51C108.35,-192.13 139.33,-212.21 168,-226.5 175.92,-230.45 184.5,-234.22 192.98,-237.68"/>
<polygon fill="midnightblue" stroke="midnightblue" points="191.87,-241 202.45,-241.43 194.45,-234.49 191.87,-241"/>
</g>
<!-- Node3 -->
<g id="node3" class="node">
<title>Node3</title>
<g id="a_node3"><a xlink:href="classzero__mate_1_1arm1176jzf__s_1_1CCPU__Context.html#aa740f9219bb413d707ac72f373e60d3a" target="_top" xlink:title="Returns the current mode of the CPU.">
<polygon fill="none" stroke="black" points="373,-170 373,-211 503,-211 503,-170 373,-170"/>
<text text-anchor="start" x="381" y="-199" font-family="Helvetica,sans-Serif" font-size="10.00">zero_mate::arm1176jzf</text>
<text text-anchor="start" x="381" y="-188" font-family="Helvetica,sans-Serif" font-size="10.00">_s::CCPU_Context::Get</text>
<text text-anchor="middle" x="438" y="-177" font-family="Helvetica,sans-Serif" font-size="10.00">_CPU_Mode</text>
</a>
</g>
</g>
<!-- Node1&#45;&gt;Node3 -->
<g id="edge2" class="edge">
<title>Node1&#45;&gt;Node3</title>
<path fill="none" stroke="midnightblue" d="M107.68,-178.5C125.86,-184.44 147.73,-190.55 168,-193.5 233.24,-202.98 308.32,-201.1 362.55,-197.5"/>
<polygon fill="midnightblue" stroke="midnightblue" points="363.03,-200.97 372.77,-196.78 362.55,-193.99 363.03,-200.97"/>
</g>
<!-- Node4 -->
<g id="node4" class="node">
<title>Node4</title>
<g id="a_node4"><a xlink:href="classzero__mate_1_1arm1176jzf__s_1_1CCPU__Context.html#a573470217091c27cf30f1411ea453e5d" target="_top" xlink:title="Checks if the CPU is in a privileged mode.">
<polygon fill="none" stroke="black" points="182,-143 182,-184 312,-184 312,-143 182,-143"/>
<text text-anchor="start" x="190" y="-172" font-family="Helvetica,sans-Serif" font-size="10.00">zero_mate::arm1176jzf</text>
<text text-anchor="start" x="190" y="-161" font-family="Helvetica,sans-Serif" font-size="10.00">_s::CCPU_Context::Is</text>
<text text-anchor="middle" x="247" y="-150" font-family="Helvetica,sans-Serif" font-size="10.00">_In_Privileged_Mode</text>
</a>
</g>
</g>
<!-- Node1&#45;&gt;Node4 -->
<g id="edge3" class="edge">
<title>Node1&#45;&gt;Node4</title>
<path fill="none" stroke="midnightblue" d="M132.13,-163.5C144.91,-163.5 158.4,-163.5 171.46,-163.5"/>
<polygon fill="midnightblue" stroke="midnightblue" points="171.82,-167 181.82,-163.5 171.82,-160 171.82,-167"/>
</g>
<!-- Node5 -->
<g id="node5" class="node">
<title>Node5</title>
<g id="a_node5"><a xlink:href="classzero__mate_1_1arm1176jzf__s_1_1CCPU__Context.html#a53765299c790cc790e15deb2c701bd2a" target="_top" xlink:title="Sets a new value to the CPSR register.">
<polygon fill="none" stroke="black" points="169,-93.5 169,-123.5 325,-123.5 325,-93.5 169,-93.5"/>
<text text-anchor="start" x="177" y="-111.5" font-family="Helvetica,sans-Serif" font-size="10.00">zero_mate::arm1176jzf</text>
<text text-anchor="middle" x="247" y="-100.5" font-family="Helvetica,sans-Serif" font-size="10.00">_s::CCPU_Context::Set_CPSR</text>
</a>
</g>
</g>
<!-- Node1&#45;&gt;Node5 -->
<g id="edge5" class="edge">
<title>Node1&#45;&gt;Node5</title>
<path fill="none" stroke="midnightblue" d="M115.91,-148.47C138.01,-141.68 164.3,-133.6 187.44,-126.49"/>
<polygon fill="midnightblue" stroke="midnightblue" points="188.62,-129.79 197.15,-123.51 186.56,-123.1 188.62,-129.79"/>
</g>
<!-- Node8 -->
<g id="node8" class="node">
<title>Node8</title>
<g id="a_node8"><a xlink:href="classzero__mate_1_1arm1176jzf__s_1_1CCPU__Core.html#a568509274f1d8ed69a2b263a7a0ec00f" target="_top" xlink:title="Sets interrupt mask bits (A, I, and F) in the given value that is treated as the new value of the CPS...">
<polygon fill="none" stroke="black" points="168.5,-25 168.5,-66 325.5,-66 325.5,-25 168.5,-25"/>
<text text-anchor="start" x="176.5" y="-54" font-family="Helvetica,sans-Serif" font-size="10.00">zero_mate::arm1176jzf</text>
<text text-anchor="start" x="176.5" y="-43" font-family="Helvetica,sans-Serif" font-size="10.00">_s::CCPU_Core::Set_Interrupt</text>
<text text-anchor="middle" x="247" y="-32" font-family="Helvetica,sans-Serif" font-size="10.00">_Mask_Bits</text>
</a>
</g>
</g>
<!-- Node1&#45;&gt;Node8 -->
<g id="edge9" class="edge">
<title>Node1&#45;&gt;Node8</title>
<path fill="none" stroke="midnightblue" d="M84.09,-148.39C103.57,-131.6 136.76,-104.25 168,-84.5 175.53,-79.74 183.72,-75.11 191.87,-70.79"/>
<polygon fill="midnightblue" stroke="midnightblue" points="193.74,-73.77 201.02,-66.07 190.53,-67.55 193.74,-73.77"/>
</g>
<!-- Node4&#45;&gt;Node3 -->
<g id="edge4" class="edge">
<title>Node4&#45;&gt;Node3</title>
<path fill="none" stroke="midnightblue" d="M312.25,-172.68C328.47,-175 346.01,-177.5 362.68,-179.88"/>
<polygon fill="midnightblue" stroke="midnightblue" points="362.53,-183.4 372.93,-181.35 363.52,-176.47 362.53,-183.4"/>
</g>
<!-- Node5&#45;&gt;Node3 -->
<g id="edge6" class="edge">
<title>Node5&#45;&gt;Node3</title>
<path fill="none" stroke="midnightblue" d="M303.07,-123.59C310.94,-126.48 318.8,-129.78 326,-133.5 343.77,-142.68 344.56,-150.7 362,-160.5 365.18,-162.29 368.49,-164.02 371.87,-165.7"/>
<polygon fill="midnightblue" stroke="midnightblue" points="370.4,-168.87 380.94,-169.98 373.39,-162.54 370.4,-168.87"/>
</g>
<!-- Node6 -->
<g id="node6" class="node">
<title>Node6</title>
<g id="a_node6"><a xlink:href="classzero__mate_1_1arm1176jzf__s_1_1CCPU__Context.html#aa53dae8f0dd16d916a852e572dfa95ba" target="_top" xlink:title="Checks if there is an invalid attempt to change the control bits of the CPSR register.">
<polygon fill="none" stroke="black" points="366.5,-110 366.5,-151 509.5,-151 509.5,-110 366.5,-110"/>
<text text-anchor="start" x="374.5" y="-139" font-family="Helvetica,sans-Serif" font-size="10.00">zero_mate::arm1176jzf</text>
<text text-anchor="start" x="374.5" y="-128" font-family="Helvetica,sans-Serif" font-size="10.00">_s::CCPU_Context::Invalid</text>
<text text-anchor="middle" x="438" y="-117" font-family="Helvetica,sans-Serif" font-size="10.00">_Change_Of_Control_Bits</text>
</a>
</g>
</g>
<!-- Node5&#45;&gt;Node6 -->
<g id="edge7" class="edge">
<title>Node5&#45;&gt;Node6</title>
<path fill="none" stroke="midnightblue" d="M325.15,-117.48C335.4,-118.67 345.95,-119.9 356.26,-121.1"/>
<polygon fill="midnightblue" stroke="midnightblue" points="356.15,-124.61 366.49,-122.29 356.96,-117.66 356.15,-124.61"/>
</g>
<!-- Node7 -->
<g id="node7" class="node">
<title>Node7</title>
<g id="a_node7"><a xlink:href="classzero__mate_1_1arm1176jzf__s_1_1CCPU__Context.html#a7efff674f8141eab73cb69099220f0d5" target="_top" xlink:title="Sets the mode of the CPU.">
<polygon fill="none" stroke="black" points="373,-50 373,-91 503,-91 503,-50 373,-50"/>
<text text-anchor="start" x="381" y="-79" font-family="Helvetica,sans-Serif" font-size="10.00">zero_mate::arm1176jzf</text>
<text text-anchor="start" x="381" y="-68" font-family="Helvetica,sans-Serif" font-size="10.00">_s::CCPU_Context::Set</text>
<text text-anchor="middle" x="438" y="-57" font-family="Helvetica,sans-Serif" font-size="10.00">_CPU_Mode</text>
</a>
</g>
</g>
<!-- Node5&#45;&gt;Node7 -->
<g id="edge8" class="edge">
<title>Node5&#45;&gt;Node7</title>
<path fill="none" stroke="midnightblue" d="M322.7,-93.48C335.94,-90.82 349.72,-88.05 362.94,-85.39"/>
<polygon fill="midnightblue" stroke="midnightblue" points="363.8,-88.79 372.92,-83.38 362.42,-81.92 363.8,-88.79"/>
</g>
<!-- Node9 -->
<g id="node9" class="node">
<title>Node9</title>
<g id="a_node9"><a xlink:href="classzero__mate_1_1arm1176jzf__s_1_1CCPU__Context.html#a984bace2773aca71cf04701aa0ce9c54" target="_top" xlink:title="Sets/resets a flag in the CPSR register of the current CPU mode.">
<polygon fill="none" stroke="black" points="362,-0.5 362,-30.5 514,-30.5 514,-0.5 362,-0.5"/>
<text text-anchor="start" x="370" y="-18.5" font-family="Helvetica,sans-Serif" font-size="10.00">zero_mate::arm1176jzf</text>
<text text-anchor="middle" x="438" y="-7.5" font-family="Helvetica,sans-Serif" font-size="10.00">_s::CCPU_Context::Set_Flag</text>
</a>
</g>
</g>
<!-- Node8&#45;&gt;Node9 -->
<g id="edge10" class="edge">
<title>Node8&#45;&gt;Node9</title>
<path fill="none" stroke="midnightblue" d="M325.69,-33.17C334.25,-31.81 343.01,-30.42 351.65,-29.05"/>
<polygon fill="midnightblue" stroke="midnightblue" points="352.42,-32.47 361.74,-27.45 351.32,-25.56 352.42,-32.47"/>
</g>
</g>
</svg>
