<?xml version="1.0" encoding="UTF-8" standalone="no"?>
<!DOCTYPE svg PUBLIC "-//W3C//DTD SVG 1.1//EN"
 "http://www.w3.org/Graphics/SVG/1.1/DTD/svg11.dtd">
<!-- Generated by graphviz version 2.43.0 (0)
 -->
<!-- Title: zero_mate::arm1176jzf_s::CCPU_Context::Verify_SPSR_Accessibility Pages: 1 -->
<svg width="1133pt" height="192pt"
 viewBox="0.00 0.00 1133.00 191.50" xmlns="http://www.w3.org/2000/svg" xmlns:xlink="http://www.w3.org/1999/xlink">
<g id="graph0" class="graph" transform="scale(1 1) rotate(0) translate(4 187.5)">
<title>zero_mate::arm1176jzf_s::CCPU_Context::Verify_SPSR_Accessibility</title>
<!-- Node1 -->
<g id="node1" class="node">
<title>Node1</title>
<g id="a_node1"><a xlink:title=" ">
<polygon fill="#bfbfbf" stroke="black" points="988,-19 988,-60 1125,-60 1125,-19 988,-19"/>
<text text-anchor="start" x="996" y="-48" font-family="Helvetica,sans-Serif" font-size="10.00">zero_mate::arm1176jzf</text>
<text text-anchor="start" x="996" y="-37" font-family="Helvetica,sans-Serif" font-size="10.00">_s::CCPU_Context::Verify</text>
<text text-anchor="middle" x="1056.5" y="-26" font-family="Helvetica,sans-Serif" font-size="10.00">_SPSR_Accessibility</text>
</a>
</g>
</g>
<!-- Node2 -->
<g id="node2" class="node">
<title>Node2</title>
<g id="a_node2"><a xlink:href="classzero__mate_1_1arm1176jzf__s_1_1CCPU__Context.html#ae00681efcbc4adfcfde001a67c5baeca" target="_top" xlink:title="Returns the value of the SPSR register of the current CPU mode.">
<polygon fill="none" stroke="black" points="795,-49.5 795,-79.5 952,-79.5 952,-49.5 795,-49.5"/>
<text text-anchor="start" x="803" y="-67.5" font-family="Helvetica,sans-Serif" font-size="10.00">zero_mate::arm1176jzf</text>
<text text-anchor="middle" x="873.5" y="-56.5" font-family="Helvetica,sans-Serif" font-size="10.00">_s::CCPU_Context::Get_SPSR</text>
</a>
</g>
</g>
<!-- Node1&#45;&gt;Node2 -->
<g id="edge1" class="edge">
<title>Node1&#45;&gt;Node2</title>
<path fill="none" stroke="midnightblue" d="M977.91,-50.22C969.37,-51.4 960.67,-52.6 952.12,-53.78"/>
<polygon fill="midnightblue" stroke="midnightblue" points="978.42,-53.68 987.84,-48.84 977.46,-46.75 978.42,-53.68"/>
</g>
<!-- Node11 -->
<g id="node11" class="node">
<title>Node11</title>
<g id="a_node11"><a xlink:href="classzero__mate_1_1arm1176jzf__s_1_1CCPU__Context.html#a1b322131a1168763d2b8083c17a1079b" target="_top" xlink:title="Sets the value of the SPSR register in the CPU mode passed in as a parameter.">
<polygon fill="none" stroke="black" points="796,-0.5 796,-30.5 951,-30.5 951,-0.5 796,-0.5"/>
<text text-anchor="start" x="804" y="-18.5" font-family="Helvetica,sans-Serif" font-size="10.00">zero_mate::arm1176jzf</text>
<text text-anchor="middle" x="873.5" y="-7.5" font-family="Helvetica,sans-Serif" font-size="10.00">_s::CCPU_Context::Set_SPSR</text>
</a>
</g>
</g>
<!-- Node1&#45;&gt;Node11 -->
<g id="edge11" class="edge">
<title>Node1&#45;&gt;Node11</title>
<path fill="none" stroke="midnightblue" d="M977.65,-29.18C968.88,-28.01 959.95,-26.83 951.2,-25.67"/>
<polygon fill="midnightblue" stroke="midnightblue" points="977.47,-32.68 987.84,-30.53 978.39,-25.74 977.47,-32.68"/>
</g>
<!-- Node3 -->
<g id="node3" class="node">
<title>Node3</title>
<g id="a_node3"><a xlink:href="classzero__mate_1_1arm1176jzf__s_1_1CCPU__Core.html#a92c997ad914fb73cec7feb5fa26d8ead" target="_top" xlink:title="Executes a data processing instruction.">
<polygon fill="none" stroke="black" points="602,-98.5 602,-128.5 734,-128.5 734,-98.5 602,-98.5"/>
<text text-anchor="start" x="610" y="-116.5" font-family="Helvetica,sans-Serif" font-size="10.00">zero_mate::arm1176jzf</text>
<text text-anchor="middle" x="668" y="-105.5" font-family="Helvetica,sans-Serif" font-size="10.00">_s::CCPU_Core::Execute</text>
</a>
</g>
</g>
<!-- Node2&#45;&gt;Node3 -->
<g id="edge2" class="edge">
<title>Node2&#45;&gt;Node3</title>
<path fill="none" stroke="midnightblue" d="M800.22,-81.9C777.71,-87.32 753.09,-93.25 731.32,-98.49"/>
<polygon fill="midnightblue" stroke="midnightblue" points="801.16,-85.28 810.06,-79.53 799.52,-78.47 801.16,-85.28"/>
</g>
<!-- Node4 -->
<g id="node4" class="node">
<title>Node4</title>
<g id="a_node4"><a xlink:href="classzero__mate_1_1arm1176jzf__s_1_1CCPU__Core.html#a82f0fa55ec787c7a39bac81b7437aec2" target="_top" xlink:title="Executes an MRS instruction (move data from CPSR/SPSR to an ARM register).">
<polygon fill="none" stroke="black" points="588.5,-49.5 588.5,-79.5 747.5,-79.5 747.5,-49.5 588.5,-49.5"/>
<text text-anchor="start" x="596.5" y="-67.5" font-family="Helvetica,sans-Serif" font-size="10.00">zero_mate::arm1176jzf</text>
<text text-anchor="middle" x="668" y="-56.5" font-family="Helvetica,sans-Serif" font-size="10.00">_s::CCPU_Core::Execute_MRS</text>
</a>
</g>
</g>
<!-- Node2&#45;&gt;Node4 -->
<g id="edge3" class="edge">
<title>Node2&#45;&gt;Node4</title>
<path fill="none" stroke="midnightblue" d="M784.71,-64.5C772.39,-64.5 759.79,-64.5 747.65,-64.5"/>
<polygon fill="midnightblue" stroke="midnightblue" points="784.98,-68 794.98,-64.5 784.98,-61 784.98,-68"/>
</g>
<!-- Node6 -->
<g id="node6" class="node">
<title>Node6</title>
<g id="a_node6"><a xlink:href="classzero__mate_1_1arm1176jzf__s_1_1CCPU__Core.html#abe7461d09a52f28f99037717f61975c6" target="_top" xlink:title="Executes an MSR instruction (move data to CPSR/SPSR from an ARM register).">
<polygon fill="none" stroke="black" points="588.5,-0.5 588.5,-30.5 747.5,-30.5 747.5,-0.5 588.5,-0.5"/>
<text text-anchor="start" x="596.5" y="-18.5" font-family="Helvetica,sans-Serif" font-size="10.00">zero_mate::arm1176jzf</text>
<text text-anchor="middle" x="668" y="-7.5" font-family="Helvetica,sans-Serif" font-size="10.00">_s::CCPU_Core::Execute_MSR</text>
</a>
</g>
</g>
<!-- Node2&#45;&gt;Node6 -->
<g id="edge5" class="edge">
<title>Node2&#45;&gt;Node6</title>
<path fill="none" stroke="midnightblue" d="M800.22,-47.1C777.71,-41.68 753.09,-35.75 731.32,-30.51"/>
<polygon fill="midnightblue" stroke="midnightblue" points="799.52,-50.53 810.06,-49.47 801.16,-43.72 799.52,-50.53"/>
</g>
<!-- Node7 -->
<g id="node7" class="node">
<title>Node7</title>
<g id="a_node7"><a xlink:href="classzero__mate_1_1gui_1_1CRegisters__Window.html#a1779ad3caf45c3e8dd342ef8057dfff7" target="_top" xlink:title="Renders table with CPU registers of a given CPU mode.">
<polygon fill="none" stroke="black" points="577,-147.5 577,-177.5 759,-177.5 759,-147.5 577,-147.5"/>
<text text-anchor="start" x="585" y="-165.5" font-family="Helvetica,sans-Serif" font-size="10.00">zero_mate::gui::CRegisters</text>
<text text-anchor="middle" x="668" y="-154.5" font-family="Helvetica,sans-Serif" font-size="10.00">_Window::Render_Registers_Table</text>
</a>
</g>
</g>
<!-- Node2&#45;&gt;Node7 -->
<g id="edge7" class="edge">
<title>Node2&#45;&gt;Node7</title>
<path fill="none" stroke="midnightblue" d="M845.27,-85.82C823.12,-102.25 790.49,-124.47 759,-138.5 751.47,-141.86 743.36,-144.83 735.22,-147.44"/>
<polygon fill="midnightblue" stroke="midnightblue" points="847.62,-88.43 853.5,-79.61 843.41,-82.84 847.62,-88.43"/>
</g>
<!-- Node5 -->
<g id="node5" class="node">
<title>Node5</title>
<g id="a_node5"><a xlink:href="classzero__mate_1_1arm1176jzf__s_1_1CCPU__Core.html#a3a90c040b3cbe4545a9acc5e35acdd45" target="_top" xlink:title="Executes a PSR transfer instruction.">
<polygon fill="none" stroke="black" points="388.5,-24.5 388.5,-54.5 520.5,-54.5 520.5,-24.5 388.5,-24.5"/>
<text text-anchor="start" x="396.5" y="-42.5" font-family="Helvetica,sans-Serif" font-size="10.00">zero_mate::arm1176jzf</text>
<text text-anchor="middle" x="454.5" y="-31.5" font-family="Helvetica,sans-Serif" font-size="10.00">_s::CCPU_Core::Execute</text>
</a>
</g>
</g>
<!-- Node4&#45;&gt;Node5 -->
<g id="edge4" class="edge">
<title>Node4&#45;&gt;Node5</title>
<path fill="none" stroke="midnightblue" d="M578.26,-54.01C559.01,-51.74 538.99,-49.37 520.83,-47.22"/>
<polygon fill="midnightblue" stroke="midnightblue" points="577.9,-57.49 588.25,-55.19 578.73,-50.54 577.9,-57.49"/>
</g>
<!-- Node6&#45;&gt;Node5 -->
<g id="edge6" class="edge">
<title>Node6&#45;&gt;Node5</title>
<path fill="none" stroke="midnightblue" d="M578.26,-25.57C559.01,-27.75 538.99,-30.03 520.83,-32.09"/>
<polygon fill="midnightblue" stroke="midnightblue" points="578.7,-29.04 588.25,-24.44 577.91,-22.09 578.7,-29.04"/>
</g>
<!-- Node8 -->
<g id="node8" class="node">
<title>Node8</title>
<g id="a_node8"><a xlink:href="classzero__mate_1_1gui_1_1CRegisters__Window.html#a25928c2ab0086154b73843f84a831953" target="_top" xlink:title="Renders different format tabs of a given CPU mode.">
<polygon fill="none" stroke="black" points="368,-147.5 368,-177.5 541,-177.5 541,-147.5 368,-147.5"/>
<text text-anchor="start" x="376" y="-165.5" font-family="Helvetica,sans-Serif" font-size="10.00">zero_mate::gui::CRegisters</text>
<text text-anchor="middle" x="454.5" y="-154.5" font-family="Helvetica,sans-Serif" font-size="10.00">_Window::Render_Register_Tabs</text>
</a>
</g>
</g>
<!-- Node7&#45;&gt;Node8 -->
<g id="edge8" class="edge">
<title>Node7&#45;&gt;Node8</title>
<path fill="none" stroke="midnightblue" d="M566.89,-162.5C558.25,-162.5 549.56,-162.5 541.05,-162.5"/>
<polygon fill="midnightblue" stroke="midnightblue" points="567,-166 577,-162.5 567,-159 567,-166"/>
</g>
<!-- Node9 -->
<g id="node9" class="node">
<title>Node9</title>
<g id="a_node9"><a xlink:href="classzero__mate_1_1gui_1_1CRegisters__Window.html#ac9b00209a3db86452bf51d8f4c9dbf72" target="_top" xlink:title="Renders tabs for different CPU modes (SVC, IRQ, FIQ, etc.)">
<polygon fill="none" stroke="black" points="184,-142 184,-183 332,-183 332,-142 184,-142"/>
<text text-anchor="start" x="192" y="-171" font-family="Helvetica,sans-Serif" font-size="10.00">zero_mate::gui::CRegisters</text>
<text text-anchor="start" x="192" y="-160" font-family="Helvetica,sans-Serif" font-size="10.00">_Window::Render_Register</text>
<text text-anchor="middle" x="258" y="-149" font-family="Helvetica,sans-Serif" font-size="10.00">_Modes_Tabs</text>
</a>
</g>
</g>
<!-- Node8&#45;&gt;Node9 -->
<g id="edge9" class="edge">
<title>Node8&#45;&gt;Node9</title>
<path fill="none" stroke="midnightblue" d="M357.81,-162.5C349.18,-162.5 340.54,-162.5 332.15,-162.5"/>
<polygon fill="midnightblue" stroke="midnightblue" points="357.91,-166 367.91,-162.5 357.91,-159 357.91,-166"/>
</g>
<!-- Node10 -->
<g id="node10" class="node">
<title>Node10</title>
<g id="a_node10"><a xlink:href="classzero__mate_1_1gui_1_1CRegisters__Window.html#a12beb19205052a340193be90b32e5717" target="_top" xlink:title="Renders the windows (IGUI_Window interface).">
<polygon fill="none" stroke="black" points="0,-147.5 0,-177.5 148,-177.5 148,-147.5 0,-147.5"/>
<text text-anchor="start" x="8" y="-165.5" font-family="Helvetica,sans-Serif" font-size="10.00">zero_mate::gui::CRegisters</text>
<text text-anchor="middle" x="74" y="-154.5" font-family="Helvetica,sans-Serif" font-size="10.00">_Window::Render</text>
</a>
</g>
</g>
<!-- Node9&#45;&gt;Node10 -->
<g id="edge10" class="edge">
<title>Node9&#45;&gt;Node10</title>
<path fill="none" stroke="midnightblue" d="M173.48,-162.5C165.01,-162.5 156.44,-162.5 148.09,-162.5"/>
<polygon fill="midnightblue" stroke="midnightblue" points="173.76,-166 183.76,-162.5 173.76,-159 173.76,-166"/>
</g>
<!-- Node11&#45;&gt;Node6 -->
<g id="edge12" class="edge">
<title>Node11&#45;&gt;Node6</title>
<path fill="none" stroke="midnightblue" d="M785.77,-15.5C773.1,-15.5 760.11,-15.5 747.61,-15.5"/>
<polygon fill="midnightblue" stroke="midnightblue" points="785.86,-19 795.86,-15.5 785.86,-12 785.86,-19"/>
</g>
</g>
</svg>
