<?xml version="1.0" encoding="UTF-8" standalone="no"?>
<!DOCTYPE svg PUBLIC "-//W3C//DTD SVG 1.1//EN"
 "http://www.w3.org/Graphics/SVG/1.1/DTD/svg11.dtd">
<!-- Generated by graphviz version 2.43.0 (0)
 -->
<!-- Title: zero_mate::gui::CSource_Code_Window::Render_Source_Codes Pages: 1 -->
<svg width="1320pt" height="259pt"
 viewBox="0.00 0.00 1320.00 259.00" xmlns="http://www.w3.org/2000/svg" xmlns:xlink="http://www.w3.org/1999/xlink">
<g id="graph0" class="graph" transform="scale(1 1) rotate(0) translate(4 255)">
<title>zero_mate::gui::CSource_Code_Window::Render_Source_Codes</title>
<!-- Node1 -->
<g id="node1" class="node">
<title>Node1</title>
<g id="a_node1"><a xlink:title="Renders the disassembled contents of all ELF loaded into the emulator.">
<polygon fill="#bfbfbf" stroke="black" points="0,-110.5 0,-140.5 204,-140.5 204,-110.5 0,-110.5"/>
<text text-anchor="start" x="8" y="-128.5" font-family="Helvetica,sans-Serif" font-size="10.00">zero_mate::gui::CSource</text>
<text text-anchor="middle" x="102" y="-117.5" font-family="Helvetica,sans-Serif" font-size="10.00">_Code_Window::Render_Source_Codes</text>
</a>
</g>
</g>
<!-- Node2 -->
<g id="node2" class="node">
<title>Node2</title>
<g id="a_node2"><a xlink:href="classzero__mate_1_1gui_1_1CSource__Code__Window.html#a2088711954d53ac5f57e4a085770590f" target="_top" xlink:title="Renders a single tab (ELF source file).">
<polygon fill="none" stroke="black" points="240,-110.5 240,-140.5 392,-140.5 392,-110.5 240,-110.5"/>
<text text-anchor="start" x="248" y="-128.5" font-family="Helvetica,sans-Serif" font-size="10.00">zero_mate::gui::CSource</text>
<text text-anchor="middle" x="316" y="-117.5" font-family="Helvetica,sans-Serif" font-size="10.00">_Code_Window::Render_Tab</text>
</a>
</g>
</g>
<!-- Node1&#45;&gt;Node2 -->
<g id="edge1" class="edge">
<title>Node1&#45;&gt;Node2</title>
<path fill="none" stroke="midnightblue" d="M204.03,-125.5C212.6,-125.5 221.21,-125.5 229.64,-125.5"/>
<polygon fill="midnightblue" stroke="midnightblue" points="229.82,-129 239.82,-125.5 229.82,-122 229.82,-129"/>
</g>
<!-- Node3 -->
<g id="node3" class="node">
<title>Node3</title>
<g id="a_node3"><a xlink:href="classzero__mate_1_1gui_1_1CSource__Code__Window.html#af9afd629a519bacd1ce89faf8bbcdb9c" target="_top" xlink:title="Renders a block of code (a single function/method).">
<polygon fill="none" stroke="black" points="428,-110.5 428,-140.5 621,-140.5 621,-110.5 428,-110.5"/>
<text text-anchor="start" x="436" y="-128.5" font-family="Helvetica,sans-Serif" font-size="10.00">zero_mate::gui::CSource</text>
<text text-anchor="middle" x="524.5" y="-117.5" font-family="Helvetica,sans-Serif" font-size="10.00">_Code_Window::Render_Code_Block</text>
</a>
</g>
</g>
<!-- Node2&#45;&gt;Node3 -->
<g id="edge2" class="edge">
<title>Node2&#45;&gt;Node3</title>
<path fill="none" stroke="midnightblue" d="M392.14,-125.5C400.51,-125.5 409.15,-125.5 417.81,-125.5"/>
<polygon fill="midnightblue" stroke="midnightblue" points="417.97,-129 427.97,-125.5 417.97,-122 417.97,-129"/>
</g>
<!-- Node4 -->
<g id="node4" class="node">
<title>Node4</title>
<g id="a_node4"><a xlink:href="namespacezero__mate_1_1gui_1_1color.html#a60970f5b5a08721617863b63cc7cc292" target="_top" xlink:title="Assigns a string its corresponding color based on its hash value.">
<polygon fill="none" stroke="black" points="685.5,-220.5 685.5,-250.5 831.5,-250.5 831.5,-220.5 685.5,-220.5"/>
<text text-anchor="start" x="693.5" y="-238.5" font-family="Helvetica,sans-Serif" font-size="10.00">zero_mate::gui::color</text>
<text text-anchor="middle" x="758.5" y="-227.5" font-family="Helvetica,sans-Serif" font-size="10.00">::Assign_Color_From_Hash</text>
</a>
</g>
</g>
<!-- Node3&#45;&gt;Node4 -->
<g id="edge3" class="edge">
<title>Node3&#45;&gt;Node4</title>
<path fill="none" stroke="midnightblue" d="M544.4,-140.62C568.96,-159.56 613.85,-191.8 657,-210.5 663.04,-213.12 669.41,-215.5 675.89,-217.65"/>
<polygon fill="midnightblue" stroke="midnightblue" points="674.85,-221 685.44,-220.66 676.95,-214.32 674.85,-221"/>
</g>
<!-- Node5 -->
<g id="node5" class="node">
<title>Node5</title>
<g id="a_node5"><a xlink:href="classzero__mate_1_1gui_1_1CSource__Code__Window.html#a8ab01667cca3406c621027962c2d22bd" target="_top" xlink:title="Extracts the class name from a given label (function name).">
<polygon fill="none" stroke="black" points="691,-160 691,-201 826,-201 826,-160 691,-160"/>
<text text-anchor="start" x="699" y="-189" font-family="Helvetica,sans-Serif" font-size="10.00">zero_mate::gui::CSource</text>
<text text-anchor="start" x="699" y="-178" font-family="Helvetica,sans-Serif" font-size="10.00">_Code_Window::Extract</text>
<text text-anchor="middle" x="758.5" y="-167" font-family="Helvetica,sans-Serif" font-size="10.00">_Class_Name</text>
</a>
</g>
</g>
<!-- Node3&#45;&gt;Node5 -->
<g id="edge4" class="edge">
<title>Node3&#45;&gt;Node5</title>
<path fill="none" stroke="midnightblue" d="M588.9,-140.53C617.34,-147.27 651.14,-155.29 680.99,-162.36"/>
<polygon fill="midnightblue" stroke="midnightblue" points="680.4,-165.82 690.94,-164.72 682.02,-159.01 680.4,-165.82"/>
</g>
<!-- Node6 -->
<g id="node6" class="node">
<title>Node6</title>
<g id="a_node6"><a xlink:href="classzero__mate_1_1gui_1_1CSource__Code__Window.html#ad8c35af3bc3c8881eeca1de82afc6b35" target="_top" xlink:title="Renders a table that containing disassembled instructions.">
<polygon fill="none" stroke="black" points="663,-110.5 663,-140.5 854,-140.5 854,-110.5 663,-110.5"/>
<text text-anchor="start" x="671" y="-128.5" font-family="Helvetica,sans-Serif" font-size="10.00">zero_mate::gui::CSource</text>
<text text-anchor="middle" x="758.5" y="-117.5" font-family="Helvetica,sans-Serif" font-size="10.00">_Code_Window::Render_Code_Table</text>
</a>
</g>
</g>
<!-- Node3&#45;&gt;Node6 -->
<g id="edge5" class="edge">
<title>Node3&#45;&gt;Node6</title>
<path fill="none" stroke="midnightblue" d="M621.2,-125.5C631.61,-125.5 642.24,-125.5 652.74,-125.5"/>
<polygon fill="midnightblue" stroke="midnightblue" points="652.77,-129 662.77,-125.5 652.77,-122 652.77,-129"/>
</g>
<!-- Node10 -->
<g id="node10" class="node">
<title>Node10</title>
<g id="a_node10"><a xlink:href="classzero__mate_1_1gui_1_1CSource__Code__Window.html#ad485f4213e9fff6ac5327683e2e6abc7" target="_top" xlink:title="Checks if the block of code which is currently being rendered should be highlighted or not.">
<polygon fill="none" stroke="black" points="679,-50 679,-91 838,-91 838,-50 679,-50"/>
<text text-anchor="start" x="687" y="-79" font-family="Helvetica,sans-Serif" font-size="10.00">zero_mate::gui::CSource</text>
<text text-anchor="start" x="687" y="-68" font-family="Helvetica,sans-Serif" font-size="10.00">_Code_Window::Should_Code</text>
<text text-anchor="middle" x="758.5" y="-57" font-family="Helvetica,sans-Serif" font-size="10.00">_Block_Be_Highlighted</text>
</a>
</g>
</g>
<!-- Node3&#45;&gt;Node10 -->
<g id="edge9" class="edge">
<title>Node3&#45;&gt;Node10</title>
<path fill="none" stroke="midnightblue" d="M588.9,-110.47C613.63,-104.61 642.41,-97.78 669.12,-91.45"/>
<polygon fill="midnightblue" stroke="midnightblue" points="669.93,-94.86 678.85,-89.14 668.32,-88.05 669.93,-94.86"/>
</g>
<!-- Node11 -->
<g id="node11" class="node">
<title>Node11</title>
<g id="a_node11"><a xlink:href="classzero__mate_1_1gui_1_1CSource__Code__Window.html#a0fa8c26175b9585a867f343c1148d258" target="_top" xlink:title="Skips a block of code (function) which is collapsed and therefore not visible to the user.">
<polygon fill="none" stroke="black" points="657,-0.5 657,-30.5 860,-30.5 860,-0.5 657,-0.5"/>
<text text-anchor="start" x="665" y="-18.5" font-family="Helvetica,sans-Serif" font-size="10.00">zero_mate::gui::CSource</text>
<text text-anchor="middle" x="758.5" y="-7.5" font-family="Helvetica,sans-Serif" font-size="10.00">_Code_Window::Skip_Collapsed_Block</text>
</a>
</g>
</g>
<!-- Node3&#45;&gt;Node11 -->
<g id="edge10" class="edge">
<title>Node3&#45;&gt;Node11</title>
<path fill="none" stroke="midnightblue" d="M544.4,-110.38C568.96,-91.44 613.85,-59.2 657,-40.5 662.79,-37.99 668.89,-35.7 675.09,-33.61"/>
<polygon fill="midnightblue" stroke="midnightblue" points="676.43,-36.86 684.9,-30.5 674.31,-30.19 676.43,-36.86"/>
</g>
<!-- Node7 -->
<g id="node7" class="node">
<title>Node7</title>
<g id="a_node7"><a xlink:href="classzero__mate_1_1gui_1_1CSource__Code__Window.html#a92af51ccb5ebca752cddaac27c38f1f8" target="_top" xlink:title="Renders the body of a source code table.">
<polygon fill="none" stroke="black" points="896,-137.5 896,-167.5 1087,-167.5 1087,-137.5 896,-137.5"/>
<text text-anchor="start" x="904" y="-155.5" font-family="Helvetica,sans-Serif" font-size="10.00">zero_mate::gui::CSource</text>
<text text-anchor="middle" x="991.5" y="-144.5" font-family="Helvetica,sans-Serif" font-size="10.00">_Code_Window::Render_Table_Body</text>
</a>
</g>
</g>
<!-- Node6&#45;&gt;Node7 -->
<g id="edge6" class="edge">
<title>Node6&#45;&gt;Node7</title>
<path fill="none" stroke="midnightblue" d="M854.12,-136.56C864.51,-137.77 875.13,-139.02 885.63,-140.24"/>
<polygon fill="midnightblue" stroke="midnightblue" points="885.31,-143.73 895.65,-141.41 886.12,-136.78 885.31,-143.73"/>
</g>
<!-- Node9 -->
<g id="node9" class="node">
<title>Node9</title>
<g id="a_node9"><a xlink:href="classzero__mate_1_1gui_1_1CSource__Code__Window.html#aa46c591d1c9bb994ccee55d371919e37" target="_top" xlink:title="Renders table headings (breakpoint, address, opcode, disassembly)">
<polygon fill="none" stroke="black" points="911,-77 911,-118 1072,-118 1072,-77 911,-77"/>
<text text-anchor="start" x="919" y="-106" font-family="Helvetica,sans-Serif" font-size="10.00">zero_mate::gui::CSource</text>
<text text-anchor="start" x="919" y="-95" font-family="Helvetica,sans-Serif" font-size="10.00">_Code_Window::Render_Table</text>
<text text-anchor="middle" x="991.5" y="-84" font-family="Helvetica,sans-Serif" font-size="10.00">_Headings</text>
</a>
</g>
</g>
<!-- Node6&#45;&gt;Node9 -->
<g id="edge8" class="edge">
<title>Node6&#45;&gt;Node9</title>
<path fill="none" stroke="midnightblue" d="M854.12,-114.03C869.56,-112.16 885.5,-110.23 900.81,-108.37"/>
<polygon fill="midnightblue" stroke="midnightblue" points="901.27,-111.84 910.77,-107.16 900.42,-104.89 901.27,-111.84"/>
</g>
<!-- Node8 -->
<g id="node8" class="node">
<title>Node8</title>
<g id="a_node8"><a xlink:href="classzero__mate_1_1gui_1_1CSource__Code__Window.html#a854994af8a4bb90df17e2e24c8d7a3a5" target="_top" xlink:title="Renders a single breakpoint.">
<polygon fill="none" stroke="black" points="1123,-137.5 1123,-167.5 1312,-167.5 1312,-137.5 1123,-137.5"/>
<text text-anchor="start" x="1131" y="-155.5" font-family="Helvetica,sans-Serif" font-size="10.00">zero_mate::gui::CSource</text>
<text text-anchor="middle" x="1217.5" y="-144.5" font-family="Helvetica,sans-Serif" font-size="10.00">_Code_Window::Render_Breakpoint</text>
</a>
</g>
</g>
<!-- Node7&#45;&gt;Node8 -->
<g id="edge7" class="edge">
<title>Node7&#45;&gt;Node8</title>
<path fill="none" stroke="midnightblue" d="M1087.17,-152.5C1095.67,-152.5 1104.3,-152.5 1112.87,-152.5"/>
<polygon fill="midnightblue" stroke="midnightblue" points="1112.88,-156 1122.88,-152.5 1112.88,-149 1112.88,-156"/>
</g>
</g>
</svg>
