<?xml version="1.0" encoding="UTF-8" standalone="no"?>
<!DOCTYPE svg PUBLIC "-//W3C//DTD SVG 1.1//EN"
 "http://www.w3.org/Graphics/SVG/1.1/DTD/svg11.dtd">
<!-- Generated by graphviz version 2.43.0 (0)
 -->
<!-- Title: zero_mate::gui::CRegisters_Window::Render_Registers_Table Pages: 1 -->
<svg width="723pt" height="237pt"
 viewBox="0.00 0.00 723.00 237.00" xmlns="http://www.w3.org/2000/svg" xmlns:xlink="http://www.w3.org/1999/xlink">
<g id="graph0" class="graph" transform="scale(1 1) rotate(0) translate(4 233)">
<title>zero_mate::gui::CRegisters_Window::Render_Registers_Table</title>
<!-- Node1 -->
<g id="node1" class="node">
<title>Node1</title>
<g id="a_node1"><a xlink:title=" ">
<polygon fill="#bfbfbf" stroke="black" points="0,-88.5 0,-118.5 182,-118.5 182,-88.5 0,-88.5"/>
<text text-anchor="start" x="8" y="-106.5" font-family="Helvetica,sans-Serif" font-size="10.00">zero_mate::gui::CRegisters</text>
<text text-anchor="middle" x="91" y="-95.5" font-family="Helvetica,sans-Serif" font-size="10.00">_Window::Render_Registers_Table</text>
</a>
</g>
</g>
<!-- Node2 -->
<g id="node2" class="node">
<title>Node2</title>
<g id="a_node2"><a xlink:href="classzero__mate_1_1arm1176jzf__s_1_1CCPU__Context.html#acf66c6ff905975912dbf52133ddfeceb" target="_top" xlink:title="Returns a reference the CPSR register of the current CPU mode.">
<polygon fill="none" stroke="black" points="218,-198.5 218,-228.5 376,-228.5 376,-198.5 218,-198.5"/>
<text text-anchor="start" x="226" y="-216.5" font-family="Helvetica,sans-Serif" font-size="10.00">zero_mate::arm1176jzf</text>
<text text-anchor="middle" x="297" y="-205.5" font-family="Helvetica,sans-Serif" font-size="10.00">_s::CCPU_Context::Get_CPSR</text>
</a>
</g>
</g>
<!-- Node1&#45;&gt;Node2 -->
<g id="edge1" class="edge">
<title>Node1&#45;&gt;Node2</title>
<path fill="none" stroke="midnightblue" d="M110.61,-118.55C134.33,-137.13 177.17,-168.68 218,-188.5 222.6,-190.73 227.45,-192.83 232.38,-194.79"/>
<polygon fill="midnightblue" stroke="midnightblue" points="231.34,-198.14 241.93,-198.38 233.8,-191.58 231.34,-198.14"/>
</g>
<!-- Node3 -->
<g id="node3" class="node">
<title>Node3</title>
<g id="a_node3"><a xlink:href="classzero__mate_1_1arm1176jzf__s_1_1CCPU__Context.html#a22efcb34f3c1bd9f46f1f75771103ef9" target="_top" xlink:title="Returns a const reference to a register of a particular CPU mode.">
<polygon fill="none" stroke="black" points="232,-138 232,-179 362,-179 362,-138 232,-138"/>
<text text-anchor="start" x="240" y="-167" font-family="Helvetica,sans-Serif" font-size="10.00">zero_mate::arm1176jzf</text>
<text text-anchor="start" x="240" y="-156" font-family="Helvetica,sans-Serif" font-size="10.00">_s::CCPU_Context::Get</text>
<text text-anchor="middle" x="297" y="-145" font-family="Helvetica,sans-Serif" font-size="10.00">_Register</text>
</a>
</g>
</g>
<!-- Node1&#45;&gt;Node3 -->
<g id="edge2" class="edge">
<title>Node1&#45;&gt;Node3</title>
<path fill="none" stroke="midnightblue" d="M147.74,-118.53C170.55,-124.68 197.28,-131.88 221.71,-138.47"/>
<polygon fill="midnightblue" stroke="midnightblue" points="221.1,-141.93 231.66,-141.15 222.92,-135.17 221.1,-141.93"/>
</g>
<!-- Node4 -->
<g id="node4" class="node">
<title>Node4</title>
<g id="a_node4"><a xlink:href="classzero__mate_1_1arm1176jzf__s_1_1CCPU__Context.html#ae00681efcbc4adfcfde001a67c5baeca" target="_top" xlink:title="Returns the value of the SPSR register of the current CPU mode.">
<polygon fill="none" stroke="black" points="218.5,-88.5 218.5,-118.5 375.5,-118.5 375.5,-88.5 218.5,-88.5"/>
<text text-anchor="start" x="226.5" y="-106.5" font-family="Helvetica,sans-Serif" font-size="10.00">zero_mate::arm1176jzf</text>
<text text-anchor="middle" x="297" y="-95.5" font-family="Helvetica,sans-Serif" font-size="10.00">_s::CCPU_Context::Get_SPSR</text>
</a>
</g>
</g>
<!-- Node1&#45;&gt;Node4 -->
<g id="edge3" class="edge">
<title>Node1&#45;&gt;Node4</title>
<path fill="none" stroke="midnightblue" d="M182.07,-103.5C190.74,-103.5 199.53,-103.5 208.17,-103.5"/>
<polygon fill="midnightblue" stroke="midnightblue" points="208.24,-107 218.24,-103.5 208.24,-100 208.24,-107"/>
</g>
<!-- Node6 -->
<g id="node6" class="node">
<title>Node6</title>
<g id="a_node6"><a xlink:href="classzero__mate_1_1arm1176jzf__s_1_1CCPU__Context.html#a6fc387fa0b0dd040c4e2463606d933e4" target="_top" xlink:title="Checks if the CPU mode passed in as a parameter supports the SPSR register or not.">
<polygon fill="none" stroke="black" points="585,-63 585,-104 715,-104 715,-63 585,-63"/>
<text text-anchor="start" x="593" y="-92" font-family="Helvetica,sans-Serif" font-size="10.00">zero_mate::arm1176jzf</text>
<text text-anchor="start" x="593" y="-81" font-family="Helvetica,sans-Serif" font-size="10.00">_s::CCPU_Context::Is</text>
<text text-anchor="middle" x="650" y="-70" font-family="Helvetica,sans-Serif" font-size="10.00">_Mode_With_No_SPSR</text>
</a>
</g>
</g>
<!-- Node1&#45;&gt;Node6 -->
<g id="edge6" class="edge">
<title>Node1&#45;&gt;Node6</title>
<path fill="none" stroke="midnightblue" d="M155.09,-88.47C175.09,-84.38 197.36,-80.53 218,-78.5 342.7,-66.25 488.66,-72.16 574.72,-77.72"/>
<polygon fill="midnightblue" stroke="midnightblue" points="574.71,-81.23 584.92,-78.4 575.17,-74.24 574.71,-81.23"/>
</g>
<!-- Node7 -->
<g id="node7" class="node">
<title>Node7</title>
<g id="a_node7"><a xlink:href="classzero__mate_1_1gui_1_1CRegisters__Window.html#a01300a0700c4a72bda627efb62154b87" target="_top" xlink:title=" ">
<polygon fill="none" stroke="black" points="223,-0.5 223,-30.5 371,-30.5 371,-0.5 223,-0.5"/>
<text text-anchor="start" x="231" y="-18.5" font-family="Helvetica,sans-Serif" font-size="10.00">zero_mate::gui::CRegisters</text>
<text text-anchor="middle" x="297" y="-7.5" font-family="Helvetica,sans-Serif" font-size="10.00">_Window::Render_Value</text>
</a>
</g>
</g>
<!-- Node1&#45;&gt;Node7 -->
<g id="edge7" class="edge">
<title>Node1&#45;&gt;Node7</title>
<path fill="none" stroke="midnightblue" d="M123.34,-88.39C148.68,-76.34 185.39,-59.26 218,-45.5 226.93,-41.73 236.51,-37.89 245.79,-34.26"/>
<polygon fill="midnightblue" stroke="midnightblue" points="247.25,-37.45 255.32,-30.58 244.73,-30.92 247.25,-37.45"/>
</g>
<!-- Node5 -->
<g id="node5" class="node">
<title>Node5</title>
<g id="a_node5"><a xlink:href="classzero__mate_1_1arm1176jzf__s_1_1CCPU__Context.html#a050dada520ca82a21874045815c596a8" target="_top" xlink:title=" ">
<polygon fill="none" stroke="black" points="412,-88 412,-129 549,-129 549,-88 412,-88"/>
<text text-anchor="start" x="420" y="-117" font-family="Helvetica,sans-Serif" font-size="10.00">zero_mate::arm1176jzf</text>
<text text-anchor="start" x="420" y="-106" font-family="Helvetica,sans-Serif" font-size="10.00">_s::CCPU_Context::Verify</text>
<text text-anchor="middle" x="480.5" y="-95" font-family="Helvetica,sans-Serif" font-size="10.00">_SPSR_Accessibility</text>
</a>
</g>
</g>
<!-- Node4&#45;&gt;Node5 -->
<g id="edge4" class="edge">
<title>Node4&#45;&gt;Node5</title>
<path fill="none" stroke="midnightblue" d="M375.76,-105.64C384.41,-105.88 393.21,-106.12 401.85,-106.36"/>
<polygon fill="midnightblue" stroke="midnightblue" points="401.81,-109.86 411.91,-106.64 402.01,-102.86 401.81,-109.86"/>
</g>
<!-- Node5&#45;&gt;Node6 -->
<g id="edge5" class="edge">
<title>Node5&#45;&gt;Node6</title>
<path fill="none" stroke="midnightblue" d="M549.15,-98.4C557.63,-97.14 566.34,-95.84 574.92,-94.56"/>
<polygon fill="midnightblue" stroke="midnightblue" points="575.53,-98.01 584.9,-93.07 574.49,-91.08 575.53,-98.01"/>
</g>
</g>
</svg>
