<?xml version="1.0" encoding="UTF-8" standalone="no"?>
<!DOCTYPE svg PUBLIC "-//W3C//DTD SVG 1.1//EN"
 "http://www.w3.org/Graphics/SVG/1.1/DTD/svg11.dtd">
<!-- Generated by graphviz version 2.43.0 (0)
 -->
<!-- Title: zero_mate::gui::CControl_Window::Print_No_ELF_File_Loaded_Error_Msg Pages: 1 -->
<svg width="711pt" height="88pt"
 viewBox="0.00 0.00 711.00 88.00" xmlns="http://www.w3.org/2000/svg" xmlns:xlink="http://www.w3.org/1999/xlink">
<g id="graph0" class="graph" transform="scale(1 1) rotate(0) translate(4 84)">
<title>zero_mate::gui::CControl_Window::Print_No_ELF_File_Loaded_Error_Msg</title>
<!-- Node1 -->
<g id="node1" class="node">
<title>Node1</title>
<g id="a_node1"><a xlink:title="Log an error message saying that no ELF file (kernel) has been loaded yet.">
<polygon fill="#bfbfbf" stroke="black" points="551,-19 551,-60 703,-60 703,-19 551,-19"/>
<text text-anchor="start" x="559" y="-48" font-family="Helvetica,sans-Serif" font-size="10.00">zero_mate::gui::CControl</text>
<text text-anchor="start" x="559" y="-37" font-family="Helvetica,sans-Serif" font-size="10.00">_Window::Print_No_ELF_File</text>
<text text-anchor="middle" x="627" y="-26" font-family="Helvetica,sans-Serif" font-size="10.00">_Loaded_Error_Msg</text>
</a>
</g>
</g>
<!-- Node2 -->
<g id="node2" class="node">
<title>Node2</title>
<g id="a_node2"><a xlink:href="classzero__mate_1_1gui_1_1CControl__Window.html#ac547361a03efba8bcb05e216ae512dac" target="_top" xlink:title="Renders the run control button.">
<polygon fill="none" stroke="black" points="351.5,-49.5 351.5,-79.5 513.5,-79.5 513.5,-49.5 351.5,-49.5"/>
<text text-anchor="start" x="359.5" y="-67.5" font-family="Helvetica,sans-Serif" font-size="10.00">zero_mate::gui::CControl</text>
<text text-anchor="middle" x="432.5" y="-56.5" font-family="Helvetica,sans-Serif" font-size="10.00">_Window::Render_Run_Button</text>
</a>
</g>
</g>
<!-- Node1&#45;&gt;Node2 -->
<g id="edge1" class="edge">
<title>Node1&#45;&gt;Node2</title>
<path fill="none" stroke="midnightblue" d="M540.71,-50.58C531.76,-51.74 522.68,-52.92 513.79,-54.07"/>
<polygon fill="midnightblue" stroke="midnightblue" points="541.28,-54.03 550.75,-49.27 540.38,-47.09 541.28,-54.03"/>
</g>
<!-- Node5 -->
<g id="node5" class="node">
<title>Node5</title>
<g id="a_node5"><a xlink:href="classzero__mate_1_1gui_1_1CControl__Window.html#a9dabdbd3011cc2a5a13e7409a65deb3e" target="_top" xlink:title="Renders the step control button.">
<polygon fill="none" stroke="black" points="350,-0.5 350,-30.5 515,-30.5 515,-0.5 350,-0.5"/>
<text text-anchor="start" x="358" y="-18.5" font-family="Helvetica,sans-Serif" font-size="10.00">zero_mate::gui::CControl</text>
<text text-anchor="middle" x="432.5" y="-7.5" font-family="Helvetica,sans-Serif" font-size="10.00">_Window::Render_Step_Button</text>
</a>
</g>
</g>
<!-- Node1&#45;&gt;Node5 -->
<g id="edge4" class="edge">
<title>Node1&#45;&gt;Node5</title>
<path fill="none" stroke="midnightblue" d="M540.78,-28.88C532.24,-27.81 523.57,-26.73 515.06,-25.67"/>
<polygon fill="midnightblue" stroke="midnightblue" points="540.39,-32.35 550.75,-30.12 541.26,-25.41 540.39,-32.35"/>
</g>
<!-- Node3 -->
<g id="node3" class="node">
<title>Node3</title>
<g id="a_node3"><a xlink:href="classzero__mate_1_1gui_1_1CControl__Window.html#a9be0d8c611ece954a13f3763744b074f" target="_top" xlink:title="Renders the control button (step, stop, run)">
<polygon fill="none" stroke="black" points="173,-19 173,-60 314,-60 314,-19 173,-19"/>
<text text-anchor="start" x="181" y="-48" font-family="Helvetica,sans-Serif" font-size="10.00">zero_mate::gui::CControl</text>
<text text-anchor="start" x="181" y="-37" font-family="Helvetica,sans-Serif" font-size="10.00">_Window::Render_Control</text>
<text text-anchor="middle" x="243.5" y="-26" font-family="Helvetica,sans-Serif" font-size="10.00">_Buttons</text>
</a>
</g>
</g>
<!-- Node2&#45;&gt;Node3 -->
<g id="edge2" class="edge">
<title>Node2&#45;&gt;Node3</title>
<path fill="none" stroke="midnightblue" d="M341.46,-52.46C332.28,-51.23 323.05,-50 314.14,-48.81"/>
<polygon fill="midnightblue" stroke="midnightblue" points="341.01,-55.93 351.38,-53.79 341.93,-48.99 341.01,-55.93"/>
</g>
<!-- Node4 -->
<g id="node4" class="node">
<title>Node4</title>
<g id="a_node4"><a xlink:href="classzero__mate_1_1gui_1_1CControl__Window.html#aabafaf7d45b7c4516719dce03772ee5a" target="_top" xlink:title="Renders the window (IGUI_Window interface).">
<polygon fill="none" stroke="black" points="0,-24.5 0,-54.5 137,-54.5 137,-24.5 0,-24.5"/>
<text text-anchor="start" x="8" y="-42.5" font-family="Helvetica,sans-Serif" font-size="10.00">zero_mate::gui::CControl</text>
<text text-anchor="middle" x="68.5" y="-31.5" font-family="Helvetica,sans-Serif" font-size="10.00">_Window::Render</text>
</a>
</g>
</g>
<!-- Node3&#45;&gt;Node4 -->
<g id="edge3" class="edge">
<title>Node3&#45;&gt;Node4</title>
<path fill="none" stroke="midnightblue" d="M162.38,-39.5C153.93,-39.5 145.39,-39.5 137.1,-39.5"/>
<polygon fill="midnightblue" stroke="midnightblue" points="162.63,-43 172.63,-39.5 162.63,-36 162.63,-43"/>
</g>
<!-- Node5&#45;&gt;Node3 -->
<g id="edge5" class="edge">
<title>Node5&#45;&gt;Node3</title>
<path fill="none" stroke="midnightblue" d="M339.67,-27.29C331.07,-28.39 322.44,-29.5 314.09,-30.57"/>
<polygon fill="midnightblue" stroke="midnightblue" points="340.28,-30.74 349.75,-25.99 339.39,-23.79 340.28,-30.74"/>
</g>
</g>
</svg>
