<?xml version="1.0" encoding="UTF-8" standalone="no"?>
<!DOCTYPE svg PUBLIC "-//W3C//DTD SVG 1.1//EN"
 "http://www.w3.org/Graphics/SVG/1.1/DTD/svg11.dtd">
<!-- Generated by graphviz version 2.43.0 (0)
 -->
<!-- Title: zero_mate::arm1176jzf_s::CCPU_Core::Execute Pages: 1 -->
<svg width="678pt" height="473pt"
 viewBox="0.00 0.00 678.00 473.00" xmlns="http://www.w3.org/2000/svg" xmlns:xlink="http://www.w3.org/1999/xlink">
<g id="graph0" class="graph" transform="scale(1 1) rotate(0) translate(4 469)">
<title>zero_mate::arm1176jzf_s::CCPU_Core::Execute</title>
<!-- Node1 -->
<g id="node1" class="node">
<title>Node1</title>
<g id="a_node1"><a xlink:title="Executes a data processing instruction.">
<polygon fill="#bfbfbf" stroke="black" points="0,-181 0,-211 132,-211 132,-181 0,-181"/>
<text text-anchor="start" x="8" y="-199" font-family="Helvetica,sans-Serif" font-size="10.00">zero_mate::arm1176jzf</text>
<text text-anchor="middle" x="66" y="-188" font-family="Helvetica,sans-Serif" font-size="10.00">_s::CCPU_Core::Execute</text>
</a>
</g>
</g>
<!-- Node2 -->
<g id="node2" class="node">
<title>Node2</title>
<g id="a_node2"><a xlink:href="namespacezero__mate_1_1arm1176jzf__s_1_1alu.html#a73ff714734ac2e53a9374d1f2b9877d6" target="_top" xlink:title="Performs an ALU operation.">
<polygon fill="none" stroke="black" points="181.5,-364 181.5,-394 311.5,-394 311.5,-364 181.5,-364"/>
<text text-anchor="start" x="189.5" y="-382" font-family="Helvetica,sans-Serif" font-size="10.00">zero_mate::arm1176jzf</text>
<text text-anchor="middle" x="246.5" y="-371" font-family="Helvetica,sans-Serif" font-size="10.00">_s::alu::Execute</text>
</a>
</g>
</g>
<!-- Node1&#45;&gt;Node2 -->
<g id="edge1" class="edge">
<title>Node1&#45;&gt;Node2</title>
<path fill="none" stroke="midnightblue" d="M72.53,-211.07C84.78,-242.38 117.22,-314.83 168,-354 170.44,-355.88 173.03,-357.62 175.72,-359.24"/>
<polygon fill="midnightblue" stroke="midnightblue" points="174.14,-362.36 184.61,-363.96 177.42,-356.18 174.14,-362.36"/>
</g>
<!-- Node3 -->
<g id="node3" class="node">
<title>Node3</title>
<g id="a_node3"><a xlink:href="classzero__mate_1_1arm1176jzf__s_1_1CCPU__Context.html#aa740f9219bb413d707ac72f373e60d3a" target="_top" xlink:title="Returns the current mode of the CPU.">
<polygon fill="none" stroke="black" points="367.5,-129.5 367.5,-170.5 497.5,-170.5 497.5,-129.5 367.5,-129.5"/>
<text text-anchor="start" x="375.5" y="-158.5" font-family="Helvetica,sans-Serif" font-size="10.00">zero_mate::arm1176jzf</text>
<text text-anchor="start" x="375.5" y="-147.5" font-family="Helvetica,sans-Serif" font-size="10.00">_s::CCPU_Context::Get</text>
<text text-anchor="middle" x="432.5" y="-136.5" font-family="Helvetica,sans-Serif" font-size="10.00">_CPU_Mode</text>
</a>
</g>
</g>
<!-- Node1&#45;&gt;Node3 -->
<g id="edge2" class="edge">
<title>Node1&#45;&gt;Node3</title>
<path fill="none" stroke="midnightblue" d="M132.17,-187.78C195.37,-179.8 291.15,-167.71 357.27,-159.37"/>
<polygon fill="midnightblue" stroke="midnightblue" points="357.72,-162.84 367.2,-158.11 356.85,-155.89 357.72,-162.84"/>
</g>
<!-- Node4 -->
<g id="node4" class="node">
<title>Node4</title>
<g id="a_node4"><a xlink:href="classzero__mate_1_1arm1176jzf__s_1_1CCPU__Core.html#aa5b55276e454abfced2b5714b936e98d" target="_top" xlink:title="Calculates the second operand of a data processing instruction.">
<polygon fill="none" stroke="black" points="170.5,-303.5 170.5,-344.5 322.5,-344.5 322.5,-303.5 170.5,-303.5"/>
<text text-anchor="start" x="178.5" y="-332.5" font-family="Helvetica,sans-Serif" font-size="10.00">zero_mate::arm1176jzf</text>
<text text-anchor="start" x="178.5" y="-321.5" font-family="Helvetica,sans-Serif" font-size="10.00">_s::CCPU_Core::Get_Second</text>
<text text-anchor="middle" x="246.5" y="-310.5" font-family="Helvetica,sans-Serif" font-size="10.00">_Operand</text>
</a>
</g>
</g>
<!-- Node1&#45;&gt;Node4 -->
<g id="edge3" class="edge">
<title>Node1&#45;&gt;Node4</title>
<path fill="none" stroke="midnightblue" d="M80.94,-211C99.47,-230.34 133.86,-264.17 168,-287 174.14,-291.1 180.8,-295 187.55,-298.62"/>
<polygon fill="midnightblue" stroke="midnightblue" points="186.28,-301.91 196.77,-303.38 189.49,-295.69 186.28,-301.91"/>
</g>
<!-- Node8 -->
<g id="node8" class="node">
<title>Node8</title>
<g id="a_node8"><a xlink:href="classzero__mate_1_1arm1176jzf__s_1_1CCPU__Context.html#ae00681efcbc4adfcfde001a67c5baeca" target="_top" xlink:title="Returns the value of the SPSR register of the current CPU mode.">
<polygon fill="none" stroke="black" points="168,-247 168,-277 325,-277 325,-247 168,-247"/>
<text text-anchor="start" x="176" y="-265" font-family="Helvetica,sans-Serif" font-size="10.00">zero_mate::arm1176jzf</text>
<text text-anchor="middle" x="246.5" y="-254" font-family="Helvetica,sans-Serif" font-size="10.00">_s::CCPU_Context::Get_SPSR</text>
</a>
</g>
</g>
<!-- Node1&#45;&gt;Node8 -->
<g id="edge7" class="edge">
<title>Node1&#45;&gt;Node8</title>
<path fill="none" stroke="midnightblue" d="M107.95,-211.14C133.92,-220.74 167.68,-233.23 195.26,-243.43"/>
<polygon fill="midnightblue" stroke="midnightblue" points="194.15,-246.74 204.74,-246.93 196.57,-240.18 194.15,-246.74"/>
</g>
<!-- Node10 -->
<g id="node10" class="node">
<title>Node10</title>
<g id="a_node10"><a xlink:href="classzero__mate_1_1arm1176jzf__s_1_1CCPU__Context.html#a6fc387fa0b0dd040c4e2463606d933e4" target="_top" xlink:title="Checks if the CPU mode passed in as a parameter supports the SPSR register or not.">
<polygon fill="none" stroke="black" points="540,-218.5 540,-259.5 670,-259.5 670,-218.5 540,-218.5"/>
<text text-anchor="start" x="548" y="-247.5" font-family="Helvetica,sans-Serif" font-size="10.00">zero_mate::arm1176jzf</text>
<text text-anchor="start" x="548" y="-236.5" font-family="Helvetica,sans-Serif" font-size="10.00">_s::CCPU_Context::Is</text>
<text text-anchor="middle" x="605" y="-225.5" font-family="Helvetica,sans-Serif" font-size="10.00">_Mode_With_No_SPSR</text>
</a>
</g>
</g>
<!-- Node1&#45;&gt;Node10 -->
<g id="edge11" class="edge">
<title>Node1&#45;&gt;Node10</title>
<path fill="none" stroke="midnightblue" d="M132.04,-201.21C232.3,-209.24 424.04,-224.59 529.65,-233.05"/>
<polygon fill="midnightblue" stroke="midnightblue" points="529.66,-236.56 539.9,-233.87 530.22,-229.58 529.66,-236.56"/>
</g>
<!-- Node11 -->
<g id="node11" class="node">
<title>Node11</title>
<g id="a_node11"><a xlink:href="classzero__mate_1_1arm1176jzf__s_1_1CCPU__Context.html#a0013811c3eef6d91ddfd2423a08889ef" target="_top" xlink:title="Checks whether a given flag is set in the CPSR register of the current CPU mode.">
<polygon fill="none" stroke="black" points="181.5,-107.5 181.5,-148.5 311.5,-148.5 311.5,-107.5 181.5,-107.5"/>
<text text-anchor="start" x="189.5" y="-136.5" font-family="Helvetica,sans-Serif" font-size="10.00">zero_mate::arm1176jzf</text>
<text text-anchor="start" x="189.5" y="-125.5" font-family="Helvetica,sans-Serif" font-size="10.00">_s::CCPU_Context::Is</text>
<text text-anchor="middle" x="246.5" y="-114.5" font-family="Helvetica,sans-Serif" font-size="10.00">_Flag_Set</text>
</a>
</g>
</g>
<!-- Node1&#45;&gt;Node11 -->
<g id="edge10" class="edge">
<title>Node1&#45;&gt;Node11</title>
<path fill="none" stroke="midnightblue" d="M106.61,-180.91C128.75,-172.48 156.85,-161.77 181.97,-152.2"/>
<polygon fill="midnightblue" stroke="midnightblue" points="183.34,-155.42 191.44,-148.59 180.85,-148.88 183.34,-155.42"/>
</g>
<!-- Node12 -->
<g id="node12" class="node">
<title>Node12</title>
<g id="a_node12"><a xlink:href="classzero__mate_1_1arm1176jzf__s_1_1CCPU__Context.html#a53765299c790cc790e15deb2c701bd2a" target="_top" xlink:title="Sets a new value to the CPSR register.">
<polygon fill="none" stroke="black" points="168.5,-58 168.5,-88 324.5,-88 324.5,-58 168.5,-58"/>
<text text-anchor="start" x="176.5" y="-76" font-family="Helvetica,sans-Serif" font-size="10.00">zero_mate::arm1176jzf</text>
<text text-anchor="middle" x="246.5" y="-65" font-family="Helvetica,sans-Serif" font-size="10.00">_s::CCPU_Context::Set_CPSR</text>
</a>
</g>
</g>
<!-- Node1&#45;&gt;Node12 -->
<g id="edge12" class="edge">
<title>Node1&#45;&gt;Node12</title>
<path fill="none" stroke="midnightblue" d="M78.74,-180.85C96.07,-159.47 130.52,-120.53 168,-98 171.45,-95.93 175.08,-94.01 178.82,-92.23"/>
<polygon fill="midnightblue" stroke="midnightblue" points="180.53,-95.31 188.3,-88.11 177.73,-88.89 180.53,-95.31"/>
</g>
<!-- Node15 -->
<g id="node15" class="node">
<title>Node15</title>
<g id="a_node15"><a xlink:href="classzero__mate_1_1arm1176jzf__s_1_1CCPU__Context.html#a984bace2773aca71cf04701aa0ce9c54" target="_top" xlink:title="Sets/resets a flag in the CPSR register of the current CPU mode.">
<polygon fill="none" stroke="black" points="170.5,-9 170.5,-39 322.5,-39 322.5,-9 170.5,-9"/>
<text text-anchor="start" x="178.5" y="-27" font-family="Helvetica,sans-Serif" font-size="10.00">zero_mate::arm1176jzf</text>
<text text-anchor="middle" x="246.5" y="-16" font-family="Helvetica,sans-Serif" font-size="10.00">_s::CCPU_Context::Set_Flag</text>
</a>
</g>
</g>
<!-- Node1&#45;&gt;Node15 -->
<g id="edge16" class="edge">
<title>Node1&#45;&gt;Node15</title>
<path fill="none" stroke="midnightblue" d="M73.16,-180.93C86.14,-151.05 119.21,-84.04 168,-48 169.89,-46.61 171.86,-45.29 173.89,-44.05"/>
<polygon fill="midnightblue" stroke="midnightblue" points="175.99,-46.9 183.16,-39.09 172.69,-40.73 175.99,-46.9"/>
</g>
<!-- Node5 -->
<g id="node5" class="node">
<title>Node5</title>
<g id="a_node5"><a xlink:href="classzero__mate_1_1arm1176jzf__s_1_1isa_1_1CData__Processing.html#a73d5c3a98f3fe036a1348d4d7485d0e9" target="_top" xlink:title="Returns the index of the second operand register (Rm).">
<polygon fill="none" stroke="black" points="362,-303.5 362,-344.5 503,-344.5 503,-303.5 362,-303.5"/>
<text text-anchor="start" x="370" y="-332.5" font-family="Helvetica,sans-Serif" font-size="10.00">zero_mate::arm1176jzf</text>
<text text-anchor="start" x="370" y="-321.5" font-family="Helvetica,sans-Serif" font-size="10.00">_s::isa::CData_Processing</text>
<text text-anchor="middle" x="432.5" y="-310.5" font-family="Helvetica,sans-Serif" font-size="10.00">::Get_Rm_Idx</text>
</a>
</g>
</g>
<!-- Node4&#45;&gt;Node5 -->
<g id="edge4" class="edge">
<title>Node4&#45;&gt;Node5</title>
<path fill="none" stroke="midnightblue" d="M322.61,-324C332.27,-324 342.19,-324 351.92,-324"/>
<polygon fill="midnightblue" stroke="midnightblue" points="351.97,-327.5 361.97,-324 351.97,-320.5 351.97,-327.5"/>
</g>
<!-- Node6 -->
<g id="node6" class="node">
<title>Node6</title>
<g id="a_node6"><a xlink:href="classzero__mate_1_1arm1176jzf__s_1_1isa_1_1CData__Processing.html#ae43548d291eecc463c519086e7527ff2" target="_top" xlink:title="Returns the shift type used when constructing the second operand.">
<polygon fill="none" stroke="black" points="362,-423.5 362,-464.5 503,-464.5 503,-423.5 362,-423.5"/>
<text text-anchor="start" x="370" y="-452.5" font-family="Helvetica,sans-Serif" font-size="10.00">zero_mate::arm1176jzf</text>
<text text-anchor="start" x="370" y="-441.5" font-family="Helvetica,sans-Serif" font-size="10.00">_s::isa::CData_Processing</text>
<text text-anchor="middle" x="432.5" y="-430.5" font-family="Helvetica,sans-Serif" font-size="10.00">::Get_Shift_Type</text>
</a>
</g>
</g>
<!-- Node4&#45;&gt;Node6 -->
<g id="edge5" class="edge">
<title>Node4&#45;&gt;Node6</title>
<path fill="none" stroke="midnightblue" d="M309.68,-344.53C315.14,-347.6 320.35,-351.07 325,-355 348.46,-374.83 337.76,-393.92 361,-414 362.51,-415.3 364.08,-416.56 365.71,-417.77"/>
<polygon fill="midnightblue" stroke="midnightblue" points="363.95,-420.8 374.22,-423.4 367.82,-414.96 363.95,-420.8"/>
</g>
<!-- Node7 -->
<g id="node7" class="node">
<title>Node7</title>
<g id="a_node7"><a xlink:href="classzero__mate_1_1arm1176jzf__s_1_1isa_1_1CData__Processing.html#a1dc73c441b156452b1467eaa5cab46f5" target="_top" xlink:title="Returns the value of the I bit (bit 25 = immediate second operand).">
<polygon fill="none" stroke="black" points="362,-363.5 362,-404.5 503,-404.5 503,-363.5 362,-363.5"/>
<text text-anchor="start" x="370" y="-392.5" font-family="Helvetica,sans-Serif" font-size="10.00">zero_mate::arm1176jzf</text>
<text text-anchor="start" x="370" y="-381.5" font-family="Helvetica,sans-Serif" font-size="10.00">_s::isa::CData_Processing</text>
<text text-anchor="middle" x="432.5" y="-370.5" font-family="Helvetica,sans-Serif" font-size="10.00">::Is_I_Bit_Set</text>
</a>
</g>
</g>
<!-- Node4&#45;&gt;Node7 -->
<g id="edge6" class="edge">
<title>Node4&#45;&gt;Node7</title>
<path fill="none" stroke="midnightblue" d="M310.56,-344.56C326.07,-349.62 342.8,-355.08 358.72,-360.27"/>
<polygon fill="midnightblue" stroke="midnightblue" points="357.93,-363.69 368.52,-363.46 360.1,-357.03 357.93,-363.69"/>
</g>
<!-- Node9 -->
<g id="node9" class="node">
<title>Node9</title>
<g id="a_node9"><a xlink:href="classzero__mate_1_1arm1176jzf__s_1_1CCPU__Context.html#a050dada520ca82a21874045815c596a8" target="_top" xlink:title=" ">
<polygon fill="none" stroke="black" points="364,-243.5 364,-284.5 501,-284.5 501,-243.5 364,-243.5"/>
<text text-anchor="start" x="372" y="-272.5" font-family="Helvetica,sans-Serif" font-size="10.00">zero_mate::arm1176jzf</text>
<text text-anchor="start" x="372" y="-261.5" font-family="Helvetica,sans-Serif" font-size="10.00">_s::CCPU_Context::Verify</text>
<text text-anchor="middle" x="432.5" y="-250.5" font-family="Helvetica,sans-Serif" font-size="10.00">_SPSR_Accessibility</text>
</a>
</g>
</g>
<!-- Node8&#45;&gt;Node9 -->
<g id="edge8" class="edge">
<title>Node8&#45;&gt;Node9</title>
<path fill="none" stroke="midnightblue" d="M325.27,-262.85C334.7,-262.95 344.34,-263.05 353.78,-263.16"/>
<polygon fill="midnightblue" stroke="midnightblue" points="353.88,-266.66 363.92,-263.27 353.95,-259.66 353.88,-266.66"/>
</g>
<!-- Node9&#45;&gt;Node10 -->
<g id="edge9" class="edge">
<title>Node9&#45;&gt;Node10</title>
<path fill="none" stroke="midnightblue" d="M501.38,-254.05C510.72,-252.68 520.35,-251.26 529.8,-249.88"/>
<polygon fill="midnightblue" stroke="midnightblue" points="530.58,-253.3 539.96,-248.39 529.56,-246.38 530.58,-253.3"/>
</g>
<!-- Node12&#45;&gt;Node3 -->
<g id="edge13" class="edge">
<title>Node12&#45;&gt;Node3</title>
<path fill="none" stroke="midnightblue" d="M297.9,-88.11C307,-91.16 316.35,-94.51 325,-98 344.5,-105.86 365.4,-115.73 383.48,-124.75"/>
<polygon fill="midnightblue" stroke="midnightblue" points="382.15,-128 392.65,-129.38 385.3,-121.75 382.15,-128"/>
</g>
<!-- Node13 -->
<g id="node13" class="node">
<title>Node13</title>
<g id="a_node13"><a xlink:href="classzero__mate_1_1arm1176jzf__s_1_1CCPU__Context.html#aa53dae8f0dd16d916a852e572dfa95ba" target="_top" xlink:title="Checks if there is an invalid attempt to change the control bits of the CPSR register.">
<polygon fill="none" stroke="black" points="361,-60.5 361,-101.5 504,-101.5 504,-60.5 361,-60.5"/>
<text text-anchor="start" x="369" y="-89.5" font-family="Helvetica,sans-Serif" font-size="10.00">zero_mate::arm1176jzf</text>
<text text-anchor="start" x="369" y="-78.5" font-family="Helvetica,sans-Serif" font-size="10.00">_s::CCPU_Context::Invalid</text>
<text text-anchor="middle" x="432.5" y="-67.5" font-family="Helvetica,sans-Serif" font-size="10.00">_Change_Of_Control_Bits</text>
</a>
</g>
</g>
<!-- Node12&#45;&gt;Node13 -->
<g id="edge14" class="edge">
<title>Node12&#45;&gt;Node13</title>
<path fill="none" stroke="midnightblue" d="M324.73,-76.36C333.36,-76.73 342.16,-77.12 350.82,-77.49"/>
<polygon fill="midnightblue" stroke="midnightblue" points="350.77,-80.99 360.91,-77.93 351.08,-74 350.77,-80.99"/>
</g>
<!-- Node14 -->
<g id="node14" class="node">
<title>Node14</title>
<g id="a_node14"><a xlink:href="classzero__mate_1_1arm1176jzf__s_1_1CCPU__Context.html#a7efff674f8141eab73cb69099220f0d5" target="_top" xlink:title="Sets the mode of the CPU.">
<polygon fill="none" stroke="black" points="367.5,-0.5 367.5,-41.5 497.5,-41.5 497.5,-0.5 367.5,-0.5"/>
<text text-anchor="start" x="375.5" y="-29.5" font-family="Helvetica,sans-Serif" font-size="10.00">zero_mate::arm1176jzf</text>
<text text-anchor="start" x="375.5" y="-18.5" font-family="Helvetica,sans-Serif" font-size="10.00">_s::CCPU_Context::Set</text>
<text text-anchor="middle" x="432.5" y="-7.5" font-family="Helvetica,sans-Serif" font-size="10.00">_CPU_Mode</text>
</a>
</g>
</g>
<!-- Node12&#45;&gt;Node14 -->
<g id="edge15" class="edge">
<title>Node12&#45;&gt;Node14</title>
<path fill="none" stroke="midnightblue" d="M300.72,-57.96C318.44,-52.95 338.5,-47.28 357.5,-41.91"/>
<polygon fill="midnightblue" stroke="midnightblue" points="358.64,-45.23 367.32,-39.14 356.74,-38.49 358.64,-45.23"/>
</g>
</g>
</svg>
