<?xml version="1.0" encoding="UTF-8" standalone="no"?>
<!DOCTYPE svg PUBLIC "-//W3C//DTD SVG 1.1//EN"
 "http://www.w3.org/Graphics/SVG/1.1/DTD/svg11.dtd">
<!-- Generated by graphviz version 2.43.0 (0)
 -->
<!-- Title: zero_mate::peripheral::CMini_UART::Receive_Payload Pages: 1 -->
<svg width="302pt" height="110pt"
 viewBox="0.00 0.00 302.00 110.00" xmlns="http://www.w3.org/2000/svg" xmlns:xlink="http://www.w3.org/1999/xlink">
<g id="graph0" class="graph" transform="scale(1 1) rotate(0) translate(4 106)">
<title>zero_mate::peripheral::CMini_UART::Receive_Payload</title>
<!-- Node1 -->
<g id="node1" class="node">
<title>Node1</title>
<g id="a_node1"><a xlink:title="Receives another bit of the current payload (actual data).">
<polygon fill="#bfbfbf" stroke="black" points="0,-30.5 0,-71.5 126,-71.5 126,-30.5 0,-30.5"/>
<text text-anchor="start" x="8" y="-59.5" font-family="Helvetica,sans-Serif" font-size="10.00">zero_mate::peripheral</text>
<text text-anchor="start" x="8" y="-48.5" font-family="Helvetica,sans-Serif" font-size="10.00">::CMini_UART::Receive</text>
<text text-anchor="middle" x="63" y="-37.5" font-family="Helvetica,sans-Serif" font-size="10.00">_Payload</text>
</a>
</g>
</g>
<!-- Node2 -->
<g id="node2" class="node">
<title>Node2</title>
<g id="a_node2"><a xlink:href="classzero__mate_1_1peripheral_1_1CMini__UART.html#a2f29b39f721b4ae5acf81f61ab210325" target="_top" xlink:title="Returns the length of payload (7 or 8 bits).">
<polygon fill="none" stroke="black" points="162,-60.5 162,-101.5 294,-101.5 294,-60.5 162,-60.5"/>
<text text-anchor="start" x="170" y="-89.5" font-family="Helvetica,sans-Serif" font-size="10.00">zero_mate::peripheral</text>
<text text-anchor="start" x="170" y="-78.5" font-family="Helvetica,sans-Serif" font-size="10.00">::CMini_UART::Get_Char</text>
<text text-anchor="middle" x="228" y="-67.5" font-family="Helvetica,sans-Serif" font-size="10.00">_Length</text>
</a>
</g>
</g>
<!-- Node1&#45;&gt;Node2 -->
<g id="edge1" class="edge">
<title>Node1&#45;&gt;Node2</title>
<path fill="none" stroke="midnightblue" d="M126.09,-62.43C134.49,-63.97 143.19,-65.58 151.8,-67.16"/>
<polygon fill="midnightblue" stroke="midnightblue" points="151.36,-70.64 161.83,-69.01 152.63,-63.75 151.36,-70.64"/>
</g>
<!-- Node3 -->
<g id="node3" class="node">
<title>Node3</title>
<g id="a_node3"><a xlink:href="classzero__mate_1_1peripheral_1_1CMini__UART.html#a4e01dd26b71c9c13ec8a81510cbf2450" target="_top" xlink:title="Returns the data length from a given enumeration.">
<polygon fill="none" stroke="black" points="162,-0.5 162,-41.5 294,-41.5 294,-0.5 162,-0.5"/>
<text text-anchor="start" x="170" y="-29.5" font-family="Helvetica,sans-Serif" font-size="10.00">zero_mate::peripheral</text>
<text text-anchor="start" x="170" y="-18.5" font-family="Helvetica,sans-Serif" font-size="10.00">::CMini_UART::Get_Char</text>
<text text-anchor="middle" x="228" y="-7.5" font-family="Helvetica,sans-Serif" font-size="10.00">_Length_Value</text>
</a>
</g>
</g>
<!-- Node1&#45;&gt;Node3 -->
<g id="edge2" class="edge">
<title>Node1&#45;&gt;Node3</title>
<path fill="none" stroke="midnightblue" d="M126.09,-39.57C134.49,-38.03 143.19,-36.42 151.8,-34.84"/>
<polygon fill="midnightblue" stroke="midnightblue" points="152.63,-38.25 161.83,-32.99 151.36,-31.36 152.63,-38.25"/>
</g>
</g>
</svg>
