<?xml version="1.0" encoding="UTF-8" standalone="no"?>
<!DOCTYPE svg PUBLIC "-//W3C//DTD SVG 1.1//EN"
 "http://www.w3.org/Graphics/SVG/1.1/DTD/svg11.dtd">
<!-- Generated by graphviz version 2.43.0 (0)
 -->
<!-- Title: zero_mate::peripheral::CBSC::Set_GPIO_pin Pages: 1 -->
<svg width="698pt" height="118pt"
 viewBox="0.00 0.00 698.00 118.00" xmlns="http://www.w3.org/2000/svg" xmlns:xlink="http://www.w3.org/1999/xlink">
<g id="graph0" class="graph" transform="scale(1 1) rotate(0) translate(4 114)">
<title>zero_mate::peripheral::CBSC::Set_GPIO_pin</title>
<!-- Node1 -->
<g id="node1" class="node">
<title>Node1</title>
<g id="a_node1"><a xlink:title="Sets the state of a given GPIO pin.">
<polygon fill="#bfbfbf" stroke="black" points="0,-27.5 0,-57.5 124,-57.5 124,-27.5 0,-27.5"/>
<text text-anchor="start" x="8" y="-45.5" font-family="Helvetica,sans-Serif" font-size="10.00">zero_mate::peripheral</text>
<text text-anchor="middle" x="62" y="-34.5" font-family="Helvetica,sans-Serif" font-size="10.00">::CBSC::Set_GPIO_pin</text>
</a>
</g>
</g>
<!-- Node2 -->
<g id="node2" class="node">
<title>Node2</title>
<g id="a_node2"><a xlink:href="classzero__mate_1_1utils_1_1CLogging__System.html#a57ed77e1a5cf822cea532cc5e05c3f60" target="_top" xlink:title="Logs an error message via all registered loggers.">
<polygon fill="none" stroke="black" points="160,-27.5 160,-57.5 306,-57.5 306,-27.5 160,-27.5"/>
<text text-anchor="start" x="168" y="-45.5" font-family="Helvetica,sans-Serif" font-size="10.00">zero_mate::utils::CLogging</text>
<text text-anchor="middle" x="233" y="-34.5" font-family="Helvetica,sans-Serif" font-size="10.00">_System::Error</text>
</a>
</g>
</g>
<!-- Node1&#45;&gt;Node2 -->
<g id="edge1" class="edge">
<title>Node1&#45;&gt;Node2</title>
<path fill="none" stroke="midnightblue" d="M124.01,-42.5C132.37,-42.5 141.06,-42.5 149.72,-42.5"/>
<polygon fill="midnightblue" stroke="midnightblue" points="149.85,-46 159.85,-42.5 149.85,-39 149.85,-46"/>
</g>
<!-- Node3 -->
<g id="node3" class="node">
<title>Node3</title>
<g id="a_node3"><a xlink:href="classzero__mate_1_1utils_1_1CLogging__System.html#a71ed11c796553cbe8fd99773406a1060" target="_top" xlink:title="Creates a formatted message to be logged.">
<polygon fill="none" stroke="black" points="342,-50 342,-91 494,-91 494,-50 342,-50"/>
<text text-anchor="start" x="350" y="-79" font-family="Helvetica,sans-Serif" font-size="10.00">zero_mate::utils::CLogging</text>
<text text-anchor="start" x="350" y="-68" font-family="Helvetica,sans-Serif" font-size="10.00">_System::Create_Formatted</text>
<text text-anchor="middle" x="418" y="-57" font-family="Helvetica,sans-Serif" font-size="10.00">_Log_Msg</text>
</a>
</g>
</g>
<!-- Node2&#45;&gt;Node3 -->
<g id="edge2" class="edge">
<title>Node2&#45;&gt;Node3</title>
<path fill="none" stroke="midnightblue" d="M306.06,-53.53C314.55,-54.82 323.26,-56.16 331.9,-57.48"/>
<polygon fill="midnightblue" stroke="midnightblue" points="331.58,-60.97 341.99,-59.02 332.64,-54.05 331.58,-60.97"/>
</g>
<!-- Node6 -->
<g id="node6" class="node">
<title>Node6</title>
<g id="a_node6"><a xlink:href="classzero__mate_1_1utils_1_1CLogging__System.html#ad371c67ef65763966ccf9291002e86f3" target="_top" xlink:title="Extract the filename from a given location within the source files.">
<polygon fill="none" stroke="black" points="343.5,-0.5 343.5,-30.5 492.5,-30.5 492.5,-0.5 343.5,-0.5"/>
<text text-anchor="start" x="351.5" y="-18.5" font-family="Helvetica,sans-Serif" font-size="10.00">zero_mate::utils::CLogging</text>
<text text-anchor="middle" x="418" y="-7.5" font-family="Helvetica,sans-Serif" font-size="10.00">_System::Extract_Filename</text>
</a>
</g>
</g>
<!-- Node2&#45;&gt;Node6 -->
<g id="edge5" class="edge">
<title>Node2&#45;&gt;Node6</title>
<path fill="none" stroke="midnightblue" d="M306.06,-31.87C315.1,-30.53 324.4,-29.16 333.59,-27.81"/>
<polygon fill="midnightblue" stroke="midnightblue" points="334.12,-31.27 343.5,-26.34 333.1,-24.34 334.12,-31.27"/>
</g>
<!-- Node4 -->
<g id="node4" class="node">
<title>Node4</title>
<g id="a_node4"><a xlink:href="classzero__mate_1_1utils_1_1CLogging__System.html#aa70c102c805079042ffea2a6f2a5ad64" target="_top" xlink:title="Formats a given timestamp.">
<polygon fill="none" stroke="black" points="530,-79.5 530,-109.5 690,-109.5 690,-79.5 530,-79.5"/>
<text text-anchor="start" x="538" y="-97.5" font-family="Helvetica,sans-Serif" font-size="10.00">zero_mate::utils::CLogging</text>
<text text-anchor="middle" x="610" y="-86.5" font-family="Helvetica,sans-Serif" font-size="10.00">_System::Format_Timestamp</text>
</a>
</g>
</g>
<!-- Node3&#45;&gt;Node4 -->
<g id="edge3" class="edge">
<title>Node3&#45;&gt;Node4</title>
<path fill="none" stroke="midnightblue" d="M494.09,-79.99C502.52,-81.05 511.16,-82.14 519.74,-83.23"/>
<polygon fill="midnightblue" stroke="midnightblue" points="519.41,-86.71 529.77,-84.49 520.29,-79.77 519.41,-86.71"/>
</g>
<!-- Node5 -->
<g id="node5" class="node">
<title>Node5</title>
<g id="a_node5"><a xlink:href="classzero__mate_1_1utils_1_1CLogging__System.html#ae3ca637537dde05e0b9119145c840331" target="_top" xlink:title="Returns the current timestamp that will be used in a log message.">
<polygon fill="none" stroke="black" points="537,-30.5 537,-60.5 683,-60.5 683,-30.5 537,-30.5"/>
<text text-anchor="start" x="545" y="-48.5" font-family="Helvetica,sans-Serif" font-size="10.00">zero_mate::utils::CLogging</text>
<text text-anchor="middle" x="610" y="-37.5" font-family="Helvetica,sans-Serif" font-size="10.00">_System::Get_Timestamp</text>
</a>
</g>
</g>
<!-- Node3&#45;&gt;Node5 -->
<g id="edge4" class="edge">
<title>Node3&#45;&gt;Node5</title>
<path fill="none" stroke="midnightblue" d="M494.09,-60.62C504.89,-59.2 516.05,-57.73 526.98,-56.29"/>
<polygon fill="midnightblue" stroke="midnightblue" points="527.47,-59.76 536.93,-54.98 526.56,-52.82 527.47,-59.76"/>
</g>
</g>
</svg>
