<?xml version="1.0" encoding="UTF-8" standalone="no"?>
<!DOCTYPE svg PUBLIC "-//W3C//DTD SVG 1.1//EN"
 "http://www.w3.org/Graphics/SVG/1.1/DTD/svg11.dtd">
<!-- Generated by graphviz version 2.43.0 (0)
 -->
<!-- Title: zero_mate::arm1176jzf_s::CCPU_Context::Is_Flag_Set Pages: 1 -->
<svg width="719pt" height="280pt"
 viewBox="0.00 0.00 719.00 280.00" xmlns="http://www.w3.org/2000/svg" xmlns:xlink="http://www.w3.org/1999/xlink">
<g id="graph0" class="graph" transform="scale(1 1) rotate(0) translate(4 276)">
<title>zero_mate::arm1176jzf_s::CCPU_Context::Is_Flag_Set</title>
<!-- Node1 -->
<g id="node1" class="node">
<title>Node1</title>
<g id="a_node1"><a xlink:title=" ">
<polygon fill="#bfbfbf" stroke="black" points="581,-115.5 581,-156.5 711,-156.5 711,-115.5 581,-115.5"/>
<text text-anchor="start" x="589" y="-144.5" font-family="Helvetica,sans-Serif" font-size="10.00">zero_mate::arm1176jzf</text>
<text text-anchor="start" x="589" y="-133.5" font-family="Helvetica,sans-Serif" font-size="10.00">_s::CCPU_Context::Is</text>
<text text-anchor="middle" x="646" y="-122.5" font-family="Helvetica,sans-Serif" font-size="10.00">_Flag_Set</text>
</a>
</g>
</g>
<!-- Node2 -->
<g id="node2" class="node">
<title>Node2</title>
<g id="a_node2"><a xlink:href="classzero__mate_1_1arm1176jzf__s_1_1CCPU__Core.html#ac0b5e216097f56e428a5c67eb63a08d9" target="_top" xlink:title="Calculates the second immediate operand of a given instruction.">
<polygon fill="none" stroke="black" points="393,-230.5 393,-271.5 545,-271.5 545,-230.5 393,-230.5"/>
<text text-anchor="start" x="401" y="-259.5" font-family="Helvetica,sans-Serif" font-size="10.00">zero_mate::arm1176jzf</text>
<text text-anchor="start" x="401" y="-248.5" font-family="Helvetica,sans-Serif" font-size="10.00">_s::CCPU_Core::Get_Second</text>
<text text-anchor="middle" x="469" y="-237.5" font-family="Helvetica,sans-Serif" font-size="10.00">_Operand_Imm</text>
</a>
</g>
</g>
<!-- Node1&#45;&gt;Node2 -->
<g id="edge1" class="edge">
<title>Node1&#45;&gt;Node2</title>
<path fill="none" stroke="midnightblue" d="M617.27,-163.88C598.19,-181.93 571.58,-204.97 545,-221 539.36,-224.4 533.26,-227.57 527.06,-230.47"/>
<polygon fill="midnightblue" stroke="midnightblue" points="619.92,-166.19 624.71,-156.74 615.07,-161.14 619.92,-166.19"/>
</g>
<!-- Node5 -->
<g id="node5" class="node">
<title>Node5</title>
<g id="a_node5"><a xlink:href="classzero__mate_1_1peripheral_1_1CInterrupt__Controller.html#aea7c1519af8962e9327048e552a8cc4c" target="_top" xlink:title=" ">
<polygon fill="none" stroke="black" points="402.5,-170.5 402.5,-211.5 535.5,-211.5 535.5,-170.5 402.5,-170.5"/>
<text text-anchor="start" x="410.5" y="-199.5" font-family="Helvetica,sans-Serif" font-size="10.00">zero_mate::peripheral</text>
<text text-anchor="start" x="410.5" y="-188.5" font-family="Helvetica,sans-Serif" font-size="10.00">::CInterrupt_Controller</text>
<text text-anchor="middle" x="469" y="-177.5" font-family="Helvetica,sans-Serif" font-size="10.00">::Has_Pending_Interrupt</text>
</a>
</g>
</g>
<!-- Node1&#45;&gt;Node5 -->
<g id="edge4" class="edge">
<title>Node1&#45;&gt;Node5</title>
<path fill="none" stroke="midnightblue" d="M570.98,-159.26C559.14,-162.99 546.96,-166.81 535.33,-170.47"/>
<polygon fill="midnightblue" stroke="midnightblue" points="572.34,-162.5 580.83,-156.17 570.24,-155.83 572.34,-162.5"/>
</g>
<!-- Node6 -->
<g id="node6" class="node">
<title>Node6</title>
<g id="a_node6"><a xlink:href="classzero__mate_1_1gui_1_1CRegisters__Window.html#ab255199c377b463784b2cf30606c2d18" target="_top" xlink:title=" ">
<polygon fill="none" stroke="black" points="395,-121 395,-151 543,-151 543,-121 395,-121"/>
<text text-anchor="start" x="403" y="-139" font-family="Helvetica,sans-Serif" font-size="10.00">zero_mate::gui::CRegisters</text>
<text text-anchor="middle" x="469" y="-128" font-family="Helvetica,sans-Serif" font-size="10.00">_Window::Render_Flags</text>
</a>
</g>
</g>
<!-- Node1&#45;&gt;Node6 -->
<g id="edge5" class="edge">
<title>Node1&#45;&gt;Node6</title>
<path fill="none" stroke="midnightblue" d="M570.62,-136C561.49,-136 552.15,-136 543.04,-136"/>
<polygon fill="midnightblue" stroke="midnightblue" points="570.83,-139.5 580.83,-136 570.83,-132.5 570.83,-139.5"/>
</g>
<!-- Node9 -->
<g id="node9" class="node">
<title>Node9</title>
<g id="a_node9"><a xlink:href="classzero__mate_1_1peripheral_1_1CInterrupt__Controller.html#a32373b931bb37ef8ee92f95a3f833284" target="_top" xlink:title=" ">
<polygon fill="none" stroke="black" points="406.5,-60.5 406.5,-101.5 531.5,-101.5 531.5,-60.5 406.5,-60.5"/>
<text text-anchor="start" x="414.5" y="-89.5" font-family="Helvetica,sans-Serif" font-size="10.00">zero_mate::peripheral</text>
<text text-anchor="start" x="414.5" y="-78.5" font-family="Helvetica,sans-Serif" font-size="10.00">::CInterrupt_Controller</text>
<text text-anchor="middle" x="469" y="-67.5" font-family="Helvetica,sans-Serif" font-size="10.00">::Signalize_Basic_IRQ</text>
</a>
</g>
</g>
<!-- Node1&#45;&gt;Node9 -->
<g id="edge8" class="edge">
<title>Node1&#45;&gt;Node9</title>
<path fill="none" stroke="midnightblue" d="M571.29,-112.83C558.05,-108.67 544.38,-104.38 531.54,-100.34"/>
<polygon fill="midnightblue" stroke="midnightblue" points="570.24,-116.17 580.83,-115.83 572.34,-109.5 570.24,-116.17"/>
</g>
<!-- Node10 -->
<g id="node10" class="node">
<title>Node10</title>
<g id="a_node10"><a xlink:href="classzero__mate_1_1peripheral_1_1CInterrupt__Controller.html#aa559a3a604ae1877cbbe749724d8a399" target="_top" xlink:title=" ">
<polygon fill="none" stroke="black" points="406.5,-0.5 406.5,-41.5 531.5,-41.5 531.5,-0.5 406.5,-0.5"/>
<text text-anchor="start" x="414.5" y="-29.5" font-family="Helvetica,sans-Serif" font-size="10.00">zero_mate::peripheral</text>
<text text-anchor="start" x="414.5" y="-18.5" font-family="Helvetica,sans-Serif" font-size="10.00">::CInterrupt_Controller</text>
<text text-anchor="middle" x="469" y="-7.5" font-family="Helvetica,sans-Serif" font-size="10.00">::Signalize_IRQ</text>
</a>
</g>
</g>
<!-- Node1&#45;&gt;Node10 -->
<g id="edge9" class="edge">
<title>Node1&#45;&gt;Node10</title>
<path fill="none" stroke="midnightblue" d="M617.27,-108.12C598.19,-90.07 571.58,-67.03 545,-51 539.36,-47.6 533.26,-44.43 527.06,-41.53"/>
<polygon fill="midnightblue" stroke="midnightblue" points="615.07,-110.86 624.71,-115.26 619.92,-105.81 615.07,-110.86"/>
</g>
<!-- Node3 -->
<g id="node3" class="node">
<title>Node3</title>
<g id="a_node3"><a xlink:href="classzero__mate_1_1arm1176jzf__s_1_1CCPU__Core.html#abe7461d09a52f28f99037717f61975c6" target="_top" xlink:title="Executes an MSR instruction (move data to CPSR/SPSR from an ARM register).">
<polygon fill="none" stroke="black" points="191,-236 191,-266 350,-266 350,-236 191,-236"/>
<text text-anchor="start" x="199" y="-254" font-family="Helvetica,sans-Serif" font-size="10.00">zero_mate::arm1176jzf</text>
<text text-anchor="middle" x="270.5" y="-243" font-family="Helvetica,sans-Serif" font-size="10.00">_s::CCPU_Core::Execute_MSR</text>
</a>
</g>
</g>
<!-- Node2&#45;&gt;Node3 -->
<g id="edge2" class="edge">
<title>Node2&#45;&gt;Node3</title>
<path fill="none" stroke="midnightblue" d="M382.62,-251C371.84,-251 360.85,-251 350.18,-251"/>
<polygon fill="midnightblue" stroke="midnightblue" points="382.87,-254.5 392.87,-251 382.87,-247.5 382.87,-254.5"/>
</g>
<!-- Node4 -->
<g id="node4" class="node">
<title>Node4</title>
<g id="a_node4"><a xlink:href="classzero__mate_1_1arm1176jzf__s_1_1CCPU__Core.html#a3a90c040b3cbe4545a9acc5e35acdd45" target="_top" xlink:title="Executes a PSR transfer instruction.">
<polygon fill="none" stroke="black" points="8,-236 8,-266 140,-266 140,-236 8,-236"/>
<text text-anchor="start" x="16" y="-254" font-family="Helvetica,sans-Serif" font-size="10.00">zero_mate::arm1176jzf</text>
<text text-anchor="middle" x="74" y="-243" font-family="Helvetica,sans-Serif" font-size="10.00">_s::CCPU_Core::Execute</text>
</a>
</g>
</g>
<!-- Node3&#45;&gt;Node4 -->
<g id="edge3" class="edge">
<title>Node3&#45;&gt;Node4</title>
<path fill="none" stroke="midnightblue" d="M180.59,-251C166.97,-251 153.12,-251 140.14,-251"/>
<polygon fill="midnightblue" stroke="midnightblue" points="180.95,-254.5 190.95,-251 180.95,-247.5 180.95,-254.5"/>
</g>
<!-- Node7 -->
<g id="node7" class="node">
<title>Node7</title>
<g id="a_node7"><a xlink:href="classzero__mate_1_1gui_1_1CRegisters__Window.html#acd9fc32fa1db2adfa6de67fdcd47035c" target="_top" xlink:title=" ">
<polygon fill="none" stroke="black" points="184,-121 184,-151 357,-151 357,-121 184,-121"/>
<text text-anchor="start" x="192" y="-139" font-family="Helvetica,sans-Serif" font-size="10.00">zero_mate::gui::CRegisters</text>
<text text-anchor="middle" x="270.5" y="-128" font-family="Helvetica,sans-Serif" font-size="10.00">_Window::Render_Register_Tabs</text>
</a>
</g>
</g>
<!-- Node6&#45;&gt;Node7 -->
<g id="edge6" class="edge">
<title>Node6&#45;&gt;Node7</title>
<path fill="none" stroke="midnightblue" d="M384.7,-136C375.64,-136 366.41,-136 357.33,-136"/>
<polygon fill="midnightblue" stroke="midnightblue" points="384.83,-139.5 394.83,-136 384.83,-132.5 384.83,-139.5"/>
</g>
<!-- Node8 -->
<g id="node8" class="node">
<title>Node8</title>
<g id="a_node8"><a xlink:href="classzero__mate_1_1gui_1_1CRegisters__Window.html#a12beb19205052a340193be90b32e5717" target="_top" xlink:title=" ">
<polygon fill="none" stroke="black" points="0,-121 0,-151 148,-151 148,-121 0,-121"/>
<text text-anchor="start" x="8" y="-139" font-family="Helvetica,sans-Serif" font-size="10.00">zero_mate::gui::CRegisters</text>
<text text-anchor="middle" x="74" y="-128" font-family="Helvetica,sans-Serif" font-size="10.00">_Window::Render</text>
</a>
</g>
</g>
<!-- Node7&#45;&gt;Node8 -->
<g id="edge7" class="edge">
<title>Node7&#45;&gt;Node8</title>
<path fill="none" stroke="midnightblue" d="M173.81,-136C165.18,-136 156.54,-136 148.15,-136"/>
<polygon fill="midnightblue" stroke="midnightblue" points="173.91,-139.5 183.91,-136 173.91,-132.5 173.91,-139.5"/>
</g>
</g>
</svg>
