<?xml version="1.0" encoding="UTF-8" standalone="no"?>
<!DOCTYPE svg PUBLIC "-//W3C//DTD SVG 1.1//EN"
 "http://www.w3.org/Graphics/SVG/1.1/DTD/svg11.dtd">
<!-- Generated by graphviz version 2.43.0 (0)
 -->
<!-- Title: zero_mate::arm1176jzf_s::CCPU_Core::Execute Pages: 1 -->
<svg width="328pt" height="284pt"
 viewBox="0.00 0.00 328.00 284.00" xmlns="http://www.w3.org/2000/svg" xmlns:xlink="http://www.w3.org/1999/xlink">
<g id="graph0" class="graph" transform="scale(1 1) rotate(0) translate(4 280)">
<title>zero_mate::arm1176jzf_s::CCPU_Core::Execute</title>
<!-- Node1 -->
<g id="node1" class="node">
<title>Node1</title>
<g id="a_node1"><a xlink:title="Executes a multiply instruction.">
<polygon fill="#bfbfbf" stroke="black" points="0,-122.5 0,-152.5 132,-152.5 132,-122.5 0,-122.5"/>
<text text-anchor="start" x="8" y="-140.5" font-family="Helvetica,sans-Serif" font-size="10.00">zero_mate::arm1176jzf</text>
<text text-anchor="middle" x="66" y="-129.5" font-family="Helvetica,sans-Serif" font-size="10.00">_s::CCPU_Core::Execute</text>
</a>
</g>
</g>
<!-- Node2 -->
<g id="node2" class="node">
<title>Node2</title>
<g id="a_node2"><a xlink:href="namespacezero__mate_1_1arm1176jzf__s_1_1mac.html#ae0004fe8005cb2c044afa26992a8f42a" target="_top" xlink:title=" ">
<polygon fill="none" stroke="black" points="179,-245.5 179,-275.5 309,-275.5 309,-245.5 179,-245.5"/>
<text text-anchor="start" x="187" y="-263.5" font-family="Helvetica,sans-Serif" font-size="10.00">zero_mate::arm1176jzf</text>
<text text-anchor="middle" x="244" y="-252.5" font-family="Helvetica,sans-Serif" font-size="10.00">_s::mac::Execute</text>
</a>
</g>
</g>
<!-- Node1&#45;&gt;Node2 -->
<g id="edge1" class="edge">
<title>Node1&#45;&gt;Node2</title>
<path fill="none" stroke="midnightblue" d="M78.7,-152.82C95.98,-174.45 130.36,-213.81 168,-236.5 170.81,-238.19 173.75,-239.78 176.78,-241.27"/>
<polygon fill="midnightblue" stroke="midnightblue" points="175.49,-244.53 186.05,-245.43 178.36,-238.14 175.49,-244.53"/>
</g>
<!-- Node3 -->
<g id="node3" class="node">
<title>Node3</title>
<g id="a_node3"><a xlink:href="classzero__mate_1_1arm1176jzf__s_1_1isa_1_1CMultiply.html#ac38ab98cc4727130bd58a4512eefa132" target="_top" xlink:title=" ">
<polygon fill="none" stroke="black" points="174,-196.5 174,-226.5 314,-226.5 314,-196.5 174,-196.5"/>
<text text-anchor="start" x="182" y="-214.5" font-family="Helvetica,sans-Serif" font-size="10.00">zero_mate::arm1176jzf</text>
<text text-anchor="middle" x="244" y="-203.5" font-family="Helvetica,sans-Serif" font-size="10.00">_s::isa::CMultiply::Get_Rd</text>
</a>
</g>
</g>
<!-- Node1&#45;&gt;Node3 -->
<g id="edge2" class="edge">
<title>Node1&#45;&gt;Node3</title>
<path fill="none" stroke="midnightblue" d="M94.78,-152.66C114.78,-163.23 142.61,-177.22 168,-187.5 172.71,-189.41 177.63,-191.27 182.61,-193.05"/>
<polygon fill="midnightblue" stroke="midnightblue" points="181.61,-196.41 192.2,-196.39 183.9,-189.8 181.61,-196.41"/>
</g>
<!-- Node4 -->
<g id="node4" class="node">
<title>Node4</title>
<g id="a_node4"><a xlink:href="classzero__mate_1_1arm1176jzf__s_1_1isa_1_1CMultiply.html#a56ec52a35f5aef145fb547a57c7a228a" target="_top" xlink:title=" ">
<polygon fill="none" stroke="black" points="172,-147.5 172,-177.5 316,-177.5 316,-147.5 172,-147.5"/>
<text text-anchor="start" x="180" y="-165.5" font-family="Helvetica,sans-Serif" font-size="10.00">zero_mate::arm1176jzf</text>
<text text-anchor="middle" x="244" y="-154.5" font-family="Helvetica,sans-Serif" font-size="10.00">_s::isa::CMultiply::Get_Rm</text>
</a>
</g>
</g>
<!-- Node1&#45;&gt;Node4 -->
<g id="edge3" class="edge">
<title>Node1&#45;&gt;Node4</title>
<path fill="none" stroke="midnightblue" d="M132.04,-146.74C141.73,-148.12 151.82,-149.55 161.8,-150.97"/>
<polygon fill="midnightblue" stroke="midnightblue" points="161.33,-154.43 171.72,-152.37 162.31,-147.5 161.33,-154.43"/>
</g>
<!-- Node5 -->
<g id="node5" class="node">
<title>Node5</title>
<g id="a_node5"><a xlink:href="classzero__mate_1_1arm1176jzf__s_1_1isa_1_1CMultiply.html#a0d23cea043b23a1cc08cbcf48c4c0764" target="_top" xlink:title=" ">
<polygon fill="none" stroke="black" points="174,-98.5 174,-128.5 314,-128.5 314,-98.5 174,-98.5"/>
<text text-anchor="start" x="182" y="-116.5" font-family="Helvetica,sans-Serif" font-size="10.00">zero_mate::arm1176jzf</text>
<text text-anchor="middle" x="244" y="-105.5" font-family="Helvetica,sans-Serif" font-size="10.00">_s::isa::CMultiply::Get_Rn</text>
</a>
</g>
</g>
<!-- Node1&#45;&gt;Node5 -->
<g id="edge4" class="edge">
<title>Node1&#45;&gt;Node5</title>
<path fill="none" stroke="midnightblue" d="M132.04,-128.63C142.35,-127.22 153.12,-125.76 163.71,-124.31"/>
<polygon fill="midnightblue" stroke="midnightblue" points="164.37,-127.76 173.8,-122.94 163.42,-120.82 164.37,-127.76"/>
</g>
<!-- Node6 -->
<g id="node6" class="node">
<title>Node6</title>
<g id="a_node6"><a xlink:href="classzero__mate_1_1arm1176jzf__s_1_1isa_1_1CMultiply.html#a52a03bf2551e48ea8bbe4b0006afee48" target="_top" xlink:title=" ">
<polygon fill="none" stroke="black" points="174,-49.5 174,-79.5 314,-79.5 314,-49.5 174,-49.5"/>
<text text-anchor="start" x="182" y="-67.5" font-family="Helvetica,sans-Serif" font-size="10.00">zero_mate::arm1176jzf</text>
<text text-anchor="middle" x="244" y="-56.5" font-family="Helvetica,sans-Serif" font-size="10.00">_s::isa::CMultiply::Get_Rs</text>
</a>
</g>
</g>
<!-- Node1&#45;&gt;Node6 -->
<g id="edge5" class="edge">
<title>Node1&#45;&gt;Node6</title>
<path fill="none" stroke="midnightblue" d="M96.19,-122.47C116.14,-112.48 143.33,-99.43 168,-89.5 173.55,-87.27 179.38,-85.07 185.23,-82.96"/>
<polygon fill="midnightblue" stroke="midnightblue" points="186.8,-86.12 195.07,-79.51 184.48,-79.52 186.8,-86.12"/>
</g>
<!-- Node7 -->
<g id="node7" class="node">
<title>Node7</title>
<g id="a_node7"><a xlink:href="classzero__mate_1_1arm1176jzf__s_1_1CCPU__Context.html#a984bace2773aca71cf04701aa0ce9c54" target="_top" xlink:title=" ">
<polygon fill="none" stroke="black" points="168,-0.5 168,-30.5 320,-30.5 320,-0.5 168,-0.5"/>
<text text-anchor="start" x="176" y="-18.5" font-family="Helvetica,sans-Serif" font-size="10.00">zero_mate::arm1176jzf</text>
<text text-anchor="middle" x="244" y="-7.5" font-family="Helvetica,sans-Serif" font-size="10.00">_s::CCPU_Context::Set_Flag</text>
</a>
</g>
</g>
<!-- Node1&#45;&gt;Node7 -->
<g id="edge6" class="edge">
<title>Node1&#45;&gt;Node7</title>
<path fill="none" stroke="midnightblue" d="M79.1,-122.2C96.6,-101.03 130.96,-62.88 168,-40.5 171.4,-38.44 175,-36.53 178.7,-34.76"/>
<polygon fill="midnightblue" stroke="midnightblue" points="180.32,-37.87 188.06,-30.63 177.5,-31.46 180.32,-37.87"/>
</g>
</g>
</svg>
