<?xml version="1.0" encoding="UTF-8" standalone="no"?>
<!DOCTYPE svg PUBLIC "-//W3C//DTD SVG 1.1//EN"
 "http://www.w3.org/Graphics/SVG/1.1/DTD/svg11.dtd">
<!-- Generated by graphviz version 2.43.0 (0)
 -->
<!-- Title: zero_mate::arm1176jzf_s::CCPU_Core::Execute_MSR Pages: 1 -->
<svg width="736pt" height="581pt"
 viewBox="0.00 0.00 736.00 581.00" xmlns="http://www.w3.org/2000/svg" xmlns:xlink="http://www.w3.org/1999/xlink">
<g id="graph0" class="graph" transform="scale(1 1) rotate(0) translate(4 577)">
<title>zero_mate::arm1176jzf_s::CCPU_Core::Execute_MSR</title>
<!-- Node1 -->
<g id="node1" class="node">
<title>Node1</title>
<g id="a_node1"><a xlink:title="Executes an MSR instruction (move data to CPSR/SPSR from an ARM register).">
<polygon fill="#bfbfbf" stroke="black" points="0,-261 0,-291 159,-291 159,-261 0,-261"/>
<text text-anchor="start" x="8" y="-279" font-family="Helvetica,sans-Serif" font-size="10.00">zero_mate::arm1176jzf</text>
<text text-anchor="middle" x="79.5" y="-268" font-family="Helvetica,sans-Serif" font-size="10.00">_s::CCPU_Core::Execute_MSR</text>
</a>
</g>
</g>
<!-- Node2 -->
<g id="node2" class="node">
<title>Node2</title>
<g id="a_node2"><a xlink:href="classzero__mate_1_1arm1176jzf__s_1_1CCPU__Context.html#acf66c6ff905975912dbf52133ddfeceb" target="_top" xlink:title=" ">
<polygon fill="none" stroke="black" points="195,-496 195,-526 353,-526 353,-496 195,-496"/>
<text text-anchor="start" x="203" y="-514" font-family="Helvetica,sans-Serif" font-size="10.00">zero_mate::arm1176jzf</text>
<text text-anchor="middle" x="274" y="-503" font-family="Helvetica,sans-Serif" font-size="10.00">_s::CCPU_Context::Get_CPSR</text>
</a>
</g>
</g>
<!-- Node1&#45;&gt;Node2 -->
<g id="edge1" class="edge">
<title>Node1&#45;&gt;Node2</title>
<path fill="none" stroke="midnightblue" d="M84.51,-291.22C95.44,-329.72 129.39,-431.75 195,-486 197.06,-487.7 199.24,-489.29 201.51,-490.78"/>
<polygon fill="midnightblue" stroke="midnightblue" points="200.23,-494.07 210.65,-495.97 203.69,-487.99 200.23,-494.07"/>
</g>
<!-- Node3 -->
<g id="node3" class="node">
<title>Node3</title>
<g id="a_node3"><a xlink:href="classzero__mate_1_1arm1176jzf__s_1_1isa_1_1CPSR__Transfer.html#a01a26a3a6acf88a634a319d0a8a49daa" target="_top" xlink:title=" ">
<polygon fill="none" stroke="black" points="209,-435.5 209,-476.5 339,-476.5 339,-435.5 209,-435.5"/>
<text text-anchor="start" x="217" y="-464.5" font-family="Helvetica,sans-Serif" font-size="10.00">zero_mate::arm1176jzf</text>
<text text-anchor="start" x="217" y="-453.5" font-family="Helvetica,sans-Serif" font-size="10.00">_s::isa::CPSR_Transfer</text>
<text text-anchor="middle" x="274" y="-442.5" font-family="Helvetica,sans-Serif" font-size="10.00">::Get_Mask</text>
</a>
</g>
</g>
<!-- Node1&#45;&gt;Node3 -->
<g id="edge2" class="edge">
<title>Node1&#45;&gt;Node3</title>
<path fill="none" stroke="midnightblue" d="M88.44,-291.43C104.61,-321.4 144.13,-387.89 195,-426 197.03,-427.52 199.15,-428.98 201.33,-430.37"/>
<polygon fill="midnightblue" stroke="midnightblue" points="199.63,-433.42 210.04,-435.4 203.13,-427.36 199.63,-433.42"/>
</g>
<!-- Node8 -->
<g id="node8" class="node">
<title>Node8</title>
<g id="a_node8"><a xlink:href="classzero__mate_1_1arm1176jzf__s_1_1isa_1_1CPSR__Transfer.html#ada397b14e5cf27991a1b575c95f945bc" target="_top" xlink:title=" ">
<polygon fill="none" stroke="black" points="209,-375.5 209,-416.5 339,-416.5 339,-375.5 209,-375.5"/>
<text text-anchor="start" x="217" y="-404.5" font-family="Helvetica,sans-Serif" font-size="10.00">zero_mate::arm1176jzf</text>
<text text-anchor="start" x="217" y="-393.5" font-family="Helvetica,sans-Serif" font-size="10.00">_s::isa::CPSR_Transfer</text>
<text text-anchor="middle" x="274" y="-382.5" font-family="Helvetica,sans-Serif" font-size="10.00">::Get_Register_Type</text>
</a>
</g>
</g>
<!-- Node1&#45;&gt;Node8 -->
<g id="edge7" class="edge">
<title>Node1&#45;&gt;Node8</title>
<path fill="none" stroke="midnightblue" d="M96.44,-291.1C117.6,-310.5 156.75,-344.27 195,-366 198.06,-367.74 201.23,-369.41 204.48,-371.03"/>
<polygon fill="midnightblue" stroke="midnightblue" points="203.24,-374.31 213.78,-375.4 206.22,-367.97 203.24,-374.31"/>
</g>
<!-- Node9 -->
<g id="node9" class="node">
<title>Node9</title>
<g id="a_node9"><a xlink:href="classzero__mate_1_1arm1176jzf__s_1_1isa_1_1CPSR__Transfer.html#aad8286360247014777a9f9784af744fd" target="_top" xlink:title=" ">
<polygon fill="none" stroke="black" points="209,-315.5 209,-356.5 339,-356.5 339,-315.5 209,-315.5"/>
<text text-anchor="start" x="217" y="-344.5" font-family="Helvetica,sans-Serif" font-size="10.00">zero_mate::arm1176jzf</text>
<text text-anchor="start" x="217" y="-333.5" font-family="Helvetica,sans-Serif" font-size="10.00">_s::isa::CPSR_Transfer</text>
<text text-anchor="middle" x="274" y="-322.5" font-family="Helvetica,sans-Serif" font-size="10.00">::Get_Rm</text>
</a>
</g>
</g>
<!-- Node1&#45;&gt;Node9 -->
<g id="edge8" class="edge">
<title>Node1&#45;&gt;Node9</title>
<path fill="none" stroke="midnightblue" d="M129.08,-291.14C150.32,-297.76 175.71,-305.67 199.2,-313"/>
<polygon fill="midnightblue" stroke="midnightblue" points="198.2,-316.35 208.79,-315.99 200.29,-309.67 198.2,-316.35"/>
</g>
<!-- Node10 -->
<g id="node10" class="node">
<title>Node10</title>
<g id="a_node10"><a xlink:href="classzero__mate_1_1arm1176jzf__s_1_1CCPU__Core.html#ac0b5e216097f56e428a5c67eb63a08d9" target="_top" xlink:title="Calculates the second immediate operand of a given instruction.">
<polygon fill="none" stroke="black" points="198,-255.5 198,-296.5 350,-296.5 350,-255.5 198,-255.5"/>
<text text-anchor="start" x="206" y="-284.5" font-family="Helvetica,sans-Serif" font-size="10.00">zero_mate::arm1176jzf</text>
<text text-anchor="start" x="206" y="-273.5" font-family="Helvetica,sans-Serif" font-size="10.00">_s::CCPU_Core::Get_Second</text>
<text text-anchor="middle" x="274" y="-262.5" font-family="Helvetica,sans-Serif" font-size="10.00">_Operand_Imm</text>
</a>
</g>
</g>
<!-- Node1&#45;&gt;Node10 -->
<g id="edge9" class="edge">
<title>Node1&#45;&gt;Node10</title>
<path fill="none" stroke="midnightblue" d="M159.07,-276C168.47,-276 178.09,-276 187.57,-276"/>
<polygon fill="midnightblue" stroke="midnightblue" points="187.78,-279.5 197.78,-276 187.78,-272.5 187.78,-279.5"/>
</g>
<!-- Node13 -->
<g id="node13" class="node">
<title>Node13</title>
<g id="a_node13"><a xlink:href="classzero__mate_1_1arm1176jzf__s_1_1CCPU__Context.html#ae00681efcbc4adfcfde001a67c5baeca" target="_top" xlink:title=" ">
<polygon fill="none" stroke="black" points="195.5,-206 195.5,-236 352.5,-236 352.5,-206 195.5,-206"/>
<text text-anchor="start" x="203.5" y="-224" font-family="Helvetica,sans-Serif" font-size="10.00">zero_mate::arm1176jzf</text>
<text text-anchor="middle" x="274" y="-213" font-family="Helvetica,sans-Serif" font-size="10.00">_s::CCPU_Context::Get_SPSR</text>
</a>
</g>
</g>
<!-- Node1&#45;&gt;Node13 -->
<g id="edge12" class="edge">
<title>Node1&#45;&gt;Node13</title>
<path fill="none" stroke="midnightblue" d="M133.1,-260.97C157.08,-254.12 185.64,-245.96 210.69,-238.8"/>
<polygon fill="midnightblue" stroke="midnightblue" points="211.81,-242.12 220.46,-236.01 209.89,-235.39 211.81,-242.12"/>
</g>
<!-- Node14 -->
<g id="node14" class="node">
<title>Node14</title>
<g id="a_node14"><a xlink:href="classzero__mate_1_1arm1176jzf__s_1_1isa_1_1CPSR__Transfer.html#ae211666723c56b5f5ea617c8fe51619f" target="_top" xlink:title=" ">
<polygon fill="none" stroke="black" points="209,-145.5 209,-186.5 339,-186.5 339,-145.5 209,-145.5"/>
<text text-anchor="start" x="217" y="-174.5" font-family="Helvetica,sans-Serif" font-size="10.00">zero_mate::arm1176jzf</text>
<text text-anchor="start" x="217" y="-163.5" font-family="Helvetica,sans-Serif" font-size="10.00">_s::isa::CPSR_Transfer</text>
<text text-anchor="middle" x="274" y="-152.5" font-family="Helvetica,sans-Serif" font-size="10.00">::Is_Immediate</text>
</a>
</g>
</g>
<!-- Node1&#45;&gt;Node14 -->
<g id="edge13" class="edge">
<title>Node1&#45;&gt;Node14</title>
<path fill="none" stroke="midnightblue" d="M99.5,-260.89C121.55,-243.84 159.44,-216.02 195,-197 199.01,-194.85 203.2,-192.77 207.48,-190.77"/>
<polygon fill="midnightblue" stroke="midnightblue" points="209.23,-193.81 216.91,-186.51 206.35,-187.43 209.23,-193.81"/>
</g>
<!-- Node15 -->
<g id="node15" class="node">
<title>Node15</title>
<g id="a_node15"><a xlink:href="classzero__mate_1_1arm1176jzf__s_1_1CCPU__Context.html#a53765299c790cc790e15deb2c701bd2a" target="_top" xlink:title=" ">
<polygon fill="none" stroke="black" points="196,-96 196,-126 352,-126 352,-96 196,-96"/>
<text text-anchor="start" x="204" y="-114" font-family="Helvetica,sans-Serif" font-size="10.00">zero_mate::arm1176jzf</text>
<text text-anchor="middle" x="274" y="-103" font-family="Helvetica,sans-Serif" font-size="10.00">_s::CCPU_Context::Set_CPSR</text>
</a>
</g>
</g>
<!-- Node1&#45;&gt;Node15 -->
<g id="edge14" class="edge">
<title>Node1&#45;&gt;Node15</title>
<path fill="none" stroke="midnightblue" d="M88.79,-260.93C105.27,-232.36 144.91,-170.1 195,-136 197.91,-134.02 200.99,-132.19 204.17,-130.5"/>
<polygon fill="midnightblue" stroke="midnightblue" points="205.87,-133.56 213.37,-126.09 202.84,-127.25 205.87,-133.56"/>
</g>
<!-- Node21 -->
<g id="node21" class="node">
<title>Node21</title>
<g id="a_node21"><a xlink:href="classzero__mate_1_1arm1176jzf__s_1_1CCPU__Context.html#a1b322131a1168763d2b8083c17a1079b" target="_top" xlink:title=" ">
<polygon fill="none" stroke="black" points="196.5,-47 196.5,-77 351.5,-77 351.5,-47 196.5,-47"/>
<text text-anchor="start" x="204.5" y="-65" font-family="Helvetica,sans-Serif" font-size="10.00">zero_mate::arm1176jzf</text>
<text text-anchor="middle" x="274" y="-54" font-family="Helvetica,sans-Serif" font-size="10.00">_s::CCPU_Context::Set_SPSR</text>
</a>
</g>
</g>
<!-- Node1&#45;&gt;Node21 -->
<g id="edge20" class="edge">
<title>Node1&#45;&gt;Node21</title>
<path fill="none" stroke="midnightblue" d="M85.42,-260.99C97.87,-225.37 134.02,-135.13 195,-87 197.3,-85.18 199.74,-83.5 202.28,-81.93"/>
<polygon fill="midnightblue" stroke="midnightblue" points="204.11,-84.92 211.23,-77.06 200.77,-78.77 204.11,-84.92"/>
</g>
<!-- Node4 -->
<g id="node4" class="node">
<title>Node4</title>
<g id="a_node4"><a xlink:href="classzero__mate_1_1arm1176jzf__s_1_1isa_1_1CPSR__Transfer.html#a57095b246ae459c4135f5d5d9f6cbc85" target="_top" xlink:title=" ">
<polygon fill="none" stroke="black" points="401,-531.5 401,-572.5 531,-572.5 531,-531.5 401,-531.5"/>
<text text-anchor="start" x="409" y="-560.5" font-family="Helvetica,sans-Serif" font-size="10.00">zero_mate::arm1176jzf</text>
<text text-anchor="start" x="409" y="-549.5" font-family="Helvetica,sans-Serif" font-size="10.00">_s::isa::CPSR_Transfer</text>
<text text-anchor="middle" x="466" y="-538.5" font-family="Helvetica,sans-Serif" font-size="10.00">::Is_C_Bit_Set</text>
</a>
</g>
</g>
<!-- Node3&#45;&gt;Node4 -->
<g id="edge3" class="edge">
<title>Node3&#45;&gt;Node4</title>
<path fill="none" stroke="midnightblue" d="M334.18,-476.61C340.72,-479.73 347.13,-483.2 353,-487 371.73,-499.13 370.26,-509.89 389,-522 391.46,-523.59 394.01,-525.11 396.63,-526.58"/>
<polygon fill="midnightblue" stroke="midnightblue" points="395.26,-529.81 405.75,-531.32 398.49,-523.6 395.26,-529.81"/>
</g>
<!-- Node5 -->
<g id="node5" class="node">
<title>Node5</title>
<g id="a_node5"><a xlink:href="classzero__mate_1_1arm1176jzf__s_1_1isa_1_1CPSR__Transfer.html#aa2fa7591782207b606ca5542f57622cb" target="_top" xlink:title=" ">
<polygon fill="none" stroke="black" points="401,-471.5 401,-512.5 531,-512.5 531,-471.5 401,-471.5"/>
<text text-anchor="start" x="409" y="-500.5" font-family="Helvetica,sans-Serif" font-size="10.00">zero_mate::arm1176jzf</text>
<text text-anchor="start" x="409" y="-489.5" font-family="Helvetica,sans-Serif" font-size="10.00">_s::isa::CPSR_Transfer</text>
<text text-anchor="middle" x="466" y="-478.5" font-family="Helvetica,sans-Serif" font-size="10.00">::Is_F_Bit_Set</text>
</a>
</g>
</g>
<!-- Node3&#45;&gt;Node5 -->
<g id="edge4" class="edge">
<title>Node3&#45;&gt;Node5</title>
<path fill="none" stroke="midnightblue" d="M339.06,-468.14C355.72,-471.29 373.81,-474.72 390.94,-477.97"/>
<polygon fill="midnightblue" stroke="midnightblue" points="390.42,-481.43 400.89,-479.85 391.72,-474.55 390.42,-481.43"/>
</g>
<!-- Node6 -->
<g id="node6" class="node">
<title>Node6</title>
<g id="a_node6"><a xlink:href="classzero__mate_1_1arm1176jzf__s_1_1isa_1_1CPSR__Transfer.html#a6a0b2b90bc8fa9d50266f4416f2b5a0d" target="_top" xlink:title=" ">
<polygon fill="none" stroke="black" points="401,-411.5 401,-452.5 531,-452.5 531,-411.5 401,-411.5"/>
<text text-anchor="start" x="409" y="-440.5" font-family="Helvetica,sans-Serif" font-size="10.00">zero_mate::arm1176jzf</text>
<text text-anchor="start" x="409" y="-429.5" font-family="Helvetica,sans-Serif" font-size="10.00">_s::isa::CPSR_Transfer</text>
<text text-anchor="middle" x="466" y="-418.5" font-family="Helvetica,sans-Serif" font-size="10.00">::Is_S_Bit_Set</text>
</a>
</g>
</g>
<!-- Node3&#45;&gt;Node6 -->
<g id="edge5" class="edge">
<title>Node3&#45;&gt;Node6</title>
<path fill="none" stroke="midnightblue" d="M339.06,-447.91C355.72,-445.8 373.81,-443.52 390.94,-441.36"/>
<polygon fill="midnightblue" stroke="midnightblue" points="391.41,-444.82 400.89,-440.1 390.53,-437.88 391.41,-444.82"/>
</g>
<!-- Node7 -->
<g id="node7" class="node">
<title>Node7</title>
<g id="a_node7"><a xlink:href="classzero__mate_1_1arm1176jzf__s_1_1isa_1_1CPSR__Transfer.html#ad7c504ddc0bf7e0d391e49993b6159ef" target="_top" xlink:title=" ">
<polygon fill="none" stroke="black" points="401,-351.5 401,-392.5 531,-392.5 531,-351.5 401,-351.5"/>
<text text-anchor="start" x="409" y="-380.5" font-family="Helvetica,sans-Serif" font-size="10.00">zero_mate::arm1176jzf</text>
<text text-anchor="start" x="409" y="-369.5" font-family="Helvetica,sans-Serif" font-size="10.00">_s::isa::CPSR_Transfer</text>
<text text-anchor="middle" x="466" y="-358.5" font-family="Helvetica,sans-Serif" font-size="10.00">::Is_X_Bit_Set</text>
</a>
</g>
</g>
<!-- Node3&#45;&gt;Node7 -->
<g id="edge6" class="edge">
<title>Node3&#45;&gt;Node7</title>
<path fill="none" stroke="midnightblue" d="M332.72,-435.46C339.66,-432.51 346.56,-429.33 353,-426 370.08,-417.16 371.96,-410.91 389,-402 392.44,-400.2 396.01,-398.45 399.64,-396.74"/>
<polygon fill="midnightblue" stroke="midnightblue" points="401.09,-399.93 408.77,-392.63 398.22,-393.55 401.09,-399.93"/>
</g>
<!-- Node11 -->
<g id="node11" class="node">
<title>Node11</title>
<g id="a_node11"><a xlink:href="classzero__mate_1_1arm1176jzf__s_1_1CCPU__Context.html#a0013811c3eef6d91ddfd2423a08889ef" target="_top" xlink:title=" ">
<polygon fill="none" stroke="black" points="401,-286.5 401,-327.5 531,-327.5 531,-286.5 401,-286.5"/>
<text text-anchor="start" x="409" y="-315.5" font-family="Helvetica,sans-Serif" font-size="10.00">zero_mate::arm1176jzf</text>
<text text-anchor="start" x="409" y="-304.5" font-family="Helvetica,sans-Serif" font-size="10.00">_s::CCPU_Context::Is</text>
<text text-anchor="middle" x="466" y="-293.5" font-family="Helvetica,sans-Serif" font-size="10.00">_Flag_Set</text>
</a>
</g>
</g>
<!-- Node10&#45;&gt;Node11 -->
<g id="edge10" class="edge">
<title>Node10&#45;&gt;Node11</title>
<path fill="none" stroke="midnightblue" d="M350.09,-288.25C363.48,-290.44 377.43,-292.71 390.79,-294.89"/>
<polygon fill="midnightblue" stroke="midnightblue" points="390.45,-298.38 400.88,-296.54 391.58,-291.47 390.45,-298.38"/>
</g>
<!-- Node12 -->
<g id="node12" class="node">
<title>Node12</title>
<g id="a_node12"><a xlink:href="namespacezero__mate_1_1utils_1_1math.html#a9cdc39df63ef0d6d33123bac4fffb89b" target="_top" xlink:title="Performs an ROR (rotate right extended) operation on the given integral value.">
<polygon fill="none" stroke="black" points="389,-248.5 389,-267.5 543,-267.5 543,-248.5 389,-248.5"/>
<text text-anchor="middle" x="466" y="-255.5" font-family="Helvetica,sans-Serif" font-size="10.00">zero_mate::utils::math::ROR</text>
</a>
</g>
</g>
<!-- Node10&#45;&gt;Node12 -->
<g id="edge11" class="edge">
<title>Node10&#45;&gt;Node12</title>
<path fill="none" stroke="midnightblue" d="M350.09,-268.89C359.56,-267.99 369.31,-267.07 378.93,-266.15"/>
<polygon fill="midnightblue" stroke="midnightblue" points="379.27,-269.64 388.9,-265.21 378.61,-262.67 379.27,-269.64"/>
</g>
<!-- Node16 -->
<g id="node16" class="node">
<title>Node16</title>
<g id="a_node16"><a xlink:href="classzero__mate_1_1utils_1_1CLogging__System.html#aba3c5c64cd12e058e6a288db2cd89a15" target="_top" xlink:title=" ">
<polygon fill="none" stroke="black" points="393,-181 393,-211 539,-211 539,-181 393,-181"/>
<text text-anchor="start" x="401" y="-199" font-family="Helvetica,sans-Serif" font-size="10.00">zero_mate::utils::CLogging</text>
<text text-anchor="middle" x="466" y="-188" font-family="Helvetica,sans-Serif" font-size="10.00">_System::Error</text>
</a>
</g>
</g>
<!-- Node15&#45;&gt;Node16 -->
<g id="edge15" class="edge">
<title>Node15&#45;&gt;Node16</title>
<path fill="none" stroke="midnightblue" d="M332.58,-126.07C339.68,-128.9 346.66,-132.19 353,-136 372.13,-147.49 369.91,-159.44 389,-171 392.44,-173.09 396.08,-175.02 399.83,-176.81"/>
<polygon fill="midnightblue" stroke="midnightblue" points="398.74,-180.15 409.3,-180.96 401.55,-173.74 398.74,-180.15"/>
</g>
<!-- Node18 -->
<g id="node18" class="node">
<title>Node18</title>
<g id="a_node18"><a xlink:href="classzero__mate_1_1arm1176jzf__s_1_1CCPU__Context.html#aa740f9219bb413d707ac72f373e60d3a" target="_top" xlink:title=" ">
<polygon fill="none" stroke="black" points="401,-120.5 401,-161.5 531,-161.5 531,-120.5 401,-120.5"/>
<text text-anchor="start" x="409" y="-149.5" font-family="Helvetica,sans-Serif" font-size="10.00">zero_mate::arm1176jzf</text>
<text text-anchor="start" x="409" y="-138.5" font-family="Helvetica,sans-Serif" font-size="10.00">_s::CCPU_Context::Get</text>
<text text-anchor="middle" x="466" y="-127.5" font-family="Helvetica,sans-Serif" font-size="10.00">_CPU_Mode</text>
</a>
</g>
</g>
<!-- Node15&#45;&gt;Node18 -->
<g id="edge17" class="edge">
<title>Node15&#45;&gt;Node18</title>
<path fill="none" stroke="midnightblue" d="M352.01,-123.16C364.83,-125.18 378.11,-127.28 390.86,-129.29"/>
<polygon fill="midnightblue" stroke="midnightblue" points="390.53,-132.79 400.96,-130.89 391.62,-125.87 390.53,-132.79"/>
</g>
<!-- Node19 -->
<g id="node19" class="node">
<title>Node19</title>
<g id="a_node19"><a xlink:href="classzero__mate_1_1arm1176jzf__s_1_1CCPU__Context.html#aa53dae8f0dd16d916a852e572dfa95ba" target="_top" xlink:title=" ">
<polygon fill="none" stroke="black" points="394.5,-60.5 394.5,-101.5 537.5,-101.5 537.5,-60.5 394.5,-60.5"/>
<text text-anchor="start" x="402.5" y="-89.5" font-family="Helvetica,sans-Serif" font-size="10.00">zero_mate::arm1176jzf</text>
<text text-anchor="start" x="402.5" y="-78.5" font-family="Helvetica,sans-Serif" font-size="10.00">_s::CCPU_Context::Invalid</text>
<text text-anchor="middle" x="466" y="-67.5" font-family="Helvetica,sans-Serif" font-size="10.00">_Change_Of_Control_Bits</text>
</a>
</g>
</g>
<!-- Node15&#45;&gt;Node19 -->
<g id="edge18" class="edge">
<title>Node15&#45;&gt;Node19</title>
<path fill="none" stroke="midnightblue" d="M352.01,-98.84C362.61,-97.17 373.52,-95.44 384.19,-93.76"/>
<polygon fill="midnightblue" stroke="midnightblue" points="384.99,-97.18 394.32,-92.16 383.9,-90.26 384.99,-97.18"/>
</g>
<!-- Node20 -->
<g id="node20" class="node">
<title>Node20</title>
<g id="a_node20"><a xlink:href="classzero__mate_1_1arm1176jzf__s_1_1CCPU__Context.html#a7efff674f8141eab73cb69099220f0d5" target="_top" xlink:title=" ">
<polygon fill="none" stroke="black" points="401,-0.5 401,-41.5 531,-41.5 531,-0.5 401,-0.5"/>
<text text-anchor="start" x="409" y="-29.5" font-family="Helvetica,sans-Serif" font-size="10.00">zero_mate::arm1176jzf</text>
<text text-anchor="start" x="409" y="-18.5" font-family="Helvetica,sans-Serif" font-size="10.00">_s::CCPU_Context::Set</text>
<text text-anchor="middle" x="466" y="-7.5" font-family="Helvetica,sans-Serif" font-size="10.00">_CPU_Mode</text>
</a>
</g>
</g>
<!-- Node15&#45;&gt;Node20 -->
<g id="edge19" class="edge">
<title>Node15&#45;&gt;Node20</title>
<path fill="none" stroke="midnightblue" d="M334.67,-96C341.06,-93.42 347.3,-90.43 353,-87 372.39,-75.33 370.08,-63.41 389,-51 391.45,-49.39 393.99,-47.85 396.6,-46.38"/>
<polygon fill="midnightblue" stroke="midnightblue" points="398.47,-49.35 405.7,-41.6 395.22,-43.15 398.47,-49.35"/>
</g>
<!-- Node17 -->
<g id="node17" class="node">
<title>Node17</title>
<g id="a_node17"><a xlink:href="classzero__mate_1_1utils_1_1CLogging__System.html#af3fd8f336b5853e954283d93f2c32edd" target="_top" xlink:title=" ">
<polygon fill="none" stroke="black" points="579,-181 579,-211 728,-211 728,-181 579,-181"/>
<text text-anchor="start" x="587" y="-199" font-family="Helvetica,sans-Serif" font-size="10.00">zero_mate::utils::CLogging</text>
<text text-anchor="middle" x="653.5" y="-188" font-family="Helvetica,sans-Serif" font-size="10.00">_System::Extract_Filename</text>
</a>
</g>
</g>
<!-- Node16&#45;&gt;Node17 -->
<g id="edge16" class="edge">
<title>Node16&#45;&gt;Node17</title>
<path fill="none" stroke="midnightblue" d="M539.25,-196C548.91,-196 558.89,-196 568.73,-196"/>
<polygon fill="midnightblue" stroke="midnightblue" points="568.92,-199.5 578.92,-196 568.92,-192.5 568.92,-199.5"/>
</g>
</g>
</svg>
