<?xml version="1.0" encoding="UTF-8" standalone="no"?>
<!DOCTYPE svg PUBLIC "-//W3C//DTD SVG 1.1//EN"
 "http://www.w3.org/Graphics/SVG/1.1/DTD/svg11.dtd">
<!-- Generated by graphviz version 2.43.0 (0)
 -->
<!-- Title: zero_mate::coprocessor::cp15::CC2::Get_Boundary Pages: 1 -->
<svg width="536pt" height="50pt"
 viewBox="0.00 0.00 536.00 50.00" xmlns="http://www.w3.org/2000/svg" xmlns:xlink="http://www.w3.org/1999/xlink">
<g id="graph0" class="graph" transform="scale(1 1) rotate(0) translate(4 46)">
<title>zero_mate::coprocessor::cp15::CC2::Get_Boundary</title>
<!-- Node1 -->
<g id="node1" class="node">
<title>Node1</title>
<g id="a_node1"><a xlink:title="Returns the boundary value that determines the use of either TTB0 or TTB1.">
<polygon fill="#bfbfbf" stroke="black" points="0,-6 0,-36 146,-36 146,-6 0,-6"/>
<text text-anchor="start" x="8" y="-24" font-family="Helvetica,sans-Serif" font-size="10.00">zero_mate::coprocessor</text>
<text text-anchor="middle" x="73" y="-13" font-family="Helvetica,sans-Serif" font-size="10.00">::cp15::CC2::Get_Boundary</text>
</a>
</g>
</g>
<!-- Node2 -->
<g id="node2" class="node">
<title>Node2</title>
<g id="a_node2"><a xlink:href="classzero__mate_1_1coprocessor_1_1cp15_1_1CC2.html#a254552682bdf6d29017d76ac916f542b" target="_top" xlink:title="Returns the set boundary type that determines the use of either TTB0 or TTB1.">
<polygon fill="none" stroke="black" points="182,-6 182,-36 356,-36 356,-6 182,-6"/>
<text text-anchor="start" x="190" y="-24" font-family="Helvetica,sans-Serif" font-size="10.00">zero_mate::coprocessor</text>
<text text-anchor="middle" x="269" y="-13" font-family="Helvetica,sans-Serif" font-size="10.00">::cp15::CC2::Get_Boundary_Type</text>
</a>
</g>
</g>
<!-- Node1&#45;&gt;Node2 -->
<g id="edge1" class="edge">
<title>Node1&#45;&gt;Node2</title>
<path fill="none" stroke="midnightblue" d="M146.24,-21C154.6,-21 163.23,-21 171.84,-21"/>
<polygon fill="midnightblue" stroke="midnightblue" points="171.94,-24.5 181.94,-21 171.94,-17.5 171.94,-24.5"/>
</g>
<!-- Node3 -->
<g id="node3" class="node">
<title>Node3</title>
<g id="a_node3"><a xlink:href="classzero__mate_1_1coprocessor_1_1cp15_1_1CC2.html#ac791c544839c158bfba9aaa4d6a1aa91" target="_top" xlink:title="Extract bits from the NCRm_C0_Register::Translation_Table_Base_Control register.">
<polygon fill="none" stroke="black" points="392,-0.5 392,-41.5 528,-41.5 528,-0.5 392,-0.5"/>
<text text-anchor="start" x="400" y="-29.5" font-family="Helvetica,sans-Serif" font-size="10.00">zero_mate::coprocessor</text>
<text text-anchor="start" x="400" y="-18.5" font-family="Helvetica,sans-Serif" font-size="10.00">::cp15::CC2::Extract_Bits</text>
<text text-anchor="middle" x="460" y="-7.5" font-family="Helvetica,sans-Serif" font-size="10.00">_From_TTB_Ctrl</text>
</a>
</g>
</g>
<!-- Node2&#45;&gt;Node3 -->
<g id="edge2" class="edge">
<title>Node2&#45;&gt;Node3</title>
<path fill="none" stroke="midnightblue" d="M356.2,-21C364.72,-21 373.32,-21 381.74,-21"/>
<polygon fill="midnightblue" stroke="midnightblue" points="381.89,-24.5 391.89,-21 381.89,-17.5 381.89,-24.5"/>
</g>
</g>
</svg>
