<?xml version="1.0" encoding="UTF-8" standalone="no"?>
<!DOCTYPE svg PUBLIC "-//W3C//DTD SVG 1.1//EN"
 "http://www.w3.org/Graphics/SVG/1.1/DTD/svg11.dtd">
<!-- Generated by graphviz version 2.43.0 (0)
 -->
<!-- Title: zero_mate::arm1176jzf_s::exceptions::CCPU_Exception::Get_Exception_Vector Pages: 1 -->
<svg width="822pt" height="118pt"
 viewBox="0.00 0.00 822.00 118.00" xmlns="http://www.w3.org/2000/svg" xmlns:xlink="http://www.w3.org/1999/xlink">
<g id="graph0" class="graph" transform="scale(1 1) rotate(0) translate(4 114)">
<title>zero_mate::arm1176jzf_s::exceptions::CCPU_Exception::Get_Exception_Vector</title>
<!-- Node1 -->
<g id="node1" class="node">
<title>Node1</title>
<g id="a_node1"><a xlink:title="Returns the address of the handler of the exception.">
<polygon fill="#bfbfbf" stroke="black" points="668,-40.5 668,-92.5 814,-92.5 814,-40.5 668,-40.5"/>
<text text-anchor="start" x="676" y="-80.5" font-family="Helvetica,sans-Serif" font-size="10.00">zero_mate::arm1176jzf</text>
<text text-anchor="start" x="676" y="-69.5" font-family="Helvetica,sans-Serif" font-size="10.00">_s::exceptions::CCPU</text>
<text text-anchor="start" x="676" y="-58.5" font-family="Helvetica,sans-Serif" font-size="10.00">_Exception::Get_Exception</text>
<text text-anchor="middle" x="741" y="-47.5" font-family="Helvetica,sans-Serif" font-size="10.00">_Vector</text>
</a>
</g>
</g>
<!-- Node2 -->
<g id="node2" class="node">
<title>Node2</title>
<g id="a_node2"><a xlink:href="classzero__mate_1_1arm1176jzf__s_1_1CCPU__Core.html#a85e6ef006a36e1adb56abd3ecc6481be" target="_top" xlink:title="Executes a CPU exception.">
<polygon fill="none" stroke="black" points="500,-46 500,-87 632,-87 632,-46 500,-46"/>
<text text-anchor="start" x="508" y="-75" font-family="Helvetica,sans-Serif" font-size="10.00">zero_mate::arm1176jzf</text>
<text text-anchor="start" x="508" y="-64" font-family="Helvetica,sans-Serif" font-size="10.00">_s::CCPU_Core::Execute</text>
<text text-anchor="middle" x="566" y="-53" font-family="Helvetica,sans-Serif" font-size="10.00">_Exception</text>
</a>
</g>
</g>
<!-- Node1&#45;&gt;Node2 -->
<g id="edge1" class="edge">
<title>Node1&#45;&gt;Node2</title>
<path fill="none" stroke="midnightblue" d="M657.8,-66.5C649.18,-66.5 640.49,-66.5 632.1,-66.5"/>
<polygon fill="midnightblue" stroke="midnightblue" points="657.89,-70 667.89,-66.5 657.89,-63 657.89,-70"/>
</g>
<!-- Node3 -->
<g id="node3" class="node">
<title>Node3</title>
<g id="a_node3"><a xlink:href="classzero__mate_1_1arm1176jzf__s_1_1CCPU__Core.html#ac81ae05305c6916b7eda83abff602dcf" target="_top" xlink:title="Executes a single instruction.">
<polygon fill="none" stroke="black" points="332,-79.5 332,-109.5 464,-109.5 464,-79.5 332,-79.5"/>
<text text-anchor="start" x="340" y="-97.5" font-family="Helvetica,sans-Serif" font-size="10.00">zero_mate::arm1176jzf</text>
<text text-anchor="middle" x="398" y="-86.5" font-family="Helvetica,sans-Serif" font-size="10.00">_s::CCPU_Core::Execute</text>
</a>
</g>
</g>
<!-- Node2&#45;&gt;Node3 -->
<g id="edge2" class="edge">
<title>Node2&#45;&gt;Node3</title>
<path fill="none" stroke="midnightblue" d="M489.89,-79.17C481.32,-80.61 472.64,-82.08 464.22,-83.5"/>
<polygon fill="midnightblue" stroke="midnightblue" points="490.59,-82.6 499.87,-77.49 489.43,-75.7 490.59,-82.6"/>
</g>
<!-- Node4 -->
<g id="node4" class="node">
<title>Node4</title>
<g id="a_node4"><a xlink:href="classzero__mate_1_1arm1176jzf__s_1_1CCPU__Core.html#aa327755c4c57c01f03e16fb3d1195f6a" target="_top" xlink:title="Fetches the next instruction.">
<polygon fill="none" stroke="black" points="333,-19 333,-60 463,-60 463,-19 333,-19"/>
<text text-anchor="start" x="341" y="-48" font-family="Helvetica,sans-Serif" font-size="10.00">zero_mate::arm1176jzf</text>
<text text-anchor="start" x="341" y="-37" font-family="Helvetica,sans-Serif" font-size="10.00">_s::CCPU_Core::Fetch</text>
<text text-anchor="middle" x="398" y="-26" font-family="Helvetica,sans-Serif" font-size="10.00">_Instruction</text>
</a>
</g>
</g>
<!-- Node2&#45;&gt;Node4 -->
<g id="edge3" class="edge">
<title>Node2&#45;&gt;Node4</title>
<path fill="none" stroke="midnightblue" d="M489.86,-54.28C480.93,-52.83 471.88,-51.35 463.13,-49.93"/>
<polygon fill="midnightblue" stroke="midnightblue" points="489.44,-57.76 499.87,-55.91 490.56,-50.85 489.44,-57.76"/>
</g>
<!-- Node5 -->
<g id="node5" class="node">
<title>Node5</title>
<g id="a_node5"><a xlink:href="classzero__mate_1_1arm1176jzf__s_1_1CCPU__Core.html#a1665360d8ae71ed541b4c10f39e655a5" target="_top" xlink:title=" ">
<polygon fill="none" stroke="black" points="166,-24.5 166,-54.5 296,-54.5 296,-24.5 166,-24.5"/>
<text text-anchor="start" x="174" y="-42.5" font-family="Helvetica,sans-Serif" font-size="10.00">zero_mate::arm1176jzf</text>
<text text-anchor="middle" x="231" y="-31.5" font-family="Helvetica,sans-Serif" font-size="10.00">_s::CCPU_Core::Step</text>
</a>
</g>
</g>
<!-- Node4&#45;&gt;Node5 -->
<g id="edge4" class="edge">
<title>Node4&#45;&gt;Node5</title>
<path fill="none" stroke="midnightblue" d="M322.47,-39.5C313.67,-39.5 304.74,-39.5 296.09,-39.5"/>
<polygon fill="midnightblue" stroke="midnightblue" points="322.73,-43 332.73,-39.5 322.73,-36 322.73,-43"/>
</g>
<!-- Node6 -->
<g id="node6" class="node">
<title>Node6</title>
<g id="a_node6"><a xlink:href="classzero__mate_1_1arm1176jzf__s_1_1CCPU__Core.html#ad07b9956fd3f7b6c64b93c69243092f4" target="_top" xlink:title="Starts the execution.">
<polygon fill="none" stroke="black" points="0,-49.5 0,-79.5 130,-79.5 130,-49.5 0,-49.5"/>
<text text-anchor="start" x="8" y="-67.5" font-family="Helvetica,sans-Serif" font-size="10.00">zero_mate::arm1176jzf</text>
<text text-anchor="middle" x="65" y="-56.5" font-family="Helvetica,sans-Serif" font-size="10.00">_s::CCPU_Core::Run</text>
</a>
</g>
</g>
<!-- Node5&#45;&gt;Node6 -->
<g id="edge5" class="edge">
<title>Node5&#45;&gt;Node6</title>
<path fill="none" stroke="midnightblue" d="M155.71,-50.82C147.18,-52.12 138.54,-53.44 130.16,-54.72"/>
<polygon fill="midnightblue" stroke="midnightblue" points="156.3,-54.28 165.65,-49.31 155.24,-47.36 156.3,-54.28"/>
</g>
<!-- Node7 -->
<g id="node7" class="node">
<title>Node7</title>
<g id="a_node7"><a xlink:href="classzero__mate_1_1arm1176jzf__s_1_1CCPU__Core.html#a16544e9981489e1f4a25405248e5a5c0" target="_top" xlink:title=" ">
<polygon fill="none" stroke="black" points="0,-0.5 0,-30.5 130,-30.5 130,-0.5 0,-0.5"/>
<text text-anchor="start" x="8" y="-18.5" font-family="Helvetica,sans-Serif" font-size="10.00">zero_mate::arm1176jzf</text>
<text text-anchor="middle" x="65" y="-7.5" font-family="Helvetica,sans-Serif" font-size="10.00">_s::CCPU_Core::Steps</text>
</a>
</g>
</g>
<!-- Node5&#45;&gt;Node7 -->
<g id="edge6" class="edge">
<title>Node5&#45;&gt;Node7</title>
<path fill="none" stroke="midnightblue" d="M155.71,-28.63C147.18,-27.38 138.54,-26.12 130.16,-24.89"/>
<polygon fill="midnightblue" stroke="midnightblue" points="155.25,-32.1 165.65,-30.08 156.27,-25.17 155.25,-32.1"/>
</g>
</g>
</svg>
