<?xml version="1.0" encoding="UTF-8" standalone="no"?>
<!DOCTYPE svg PUBLIC "-//W3C//DTD SVG 1.1//EN"
 "http://www.w3.org/Graphics/SVG/1.1/DTD/svg11.dtd">
<!-- Generated by graphviz version 2.43.0 (0)
 -->
<!-- Title: zero_mate::gui::CControl_Window::Render_Control_Buttons Pages: 1 -->
<svg width="704pt" height="146pt"
 viewBox="0.00 0.00 704.00 145.50" xmlns="http://www.w3.org/2000/svg" xmlns:xlink="http://www.w3.org/1999/xlink">
<g id="graph0" class="graph" transform="scale(1 1) rotate(0) translate(4 141.5)">
<title>zero_mate::gui::CControl_Window::Render_Control_Buttons</title>
<!-- Node1 -->
<g id="node1" class="node">
<title>Node1</title>
<g id="a_node1"><a xlink:title=" ">
<polygon fill="#bfbfbf" stroke="black" points="0,-68 0,-109 141,-109 141,-68 0,-68"/>
<text text-anchor="start" x="8" y="-97" font-family="Helvetica,sans-Serif" font-size="10.00">zero_mate::gui::CControl</text>
<text text-anchor="start" x="8" y="-86" font-family="Helvetica,sans-Serif" font-size="10.00">_Window::Render_Control</text>
<text text-anchor="middle" x="70.5" y="-75" font-family="Helvetica,sans-Serif" font-size="10.00">_Buttons</text>
</a>
</g>
</g>
<!-- Node2 -->
<g id="node2" class="node">
<title>Node2</title>
<g id="a_node2"><a xlink:href="classzero__mate_1_1gui_1_1CControl__Window.html#a46cc1dd042f93990abb7b0b68f566a2d" target="_top" xlink:title=" ">
<polygon fill="none" stroke="black" points="177,-96 177,-137 329,-137 329,-96 177,-96"/>
<text text-anchor="start" x="185" y="-125" font-family="Helvetica,sans-Serif" font-size="10.00">zero_mate::gui::CControl</text>
<text text-anchor="start" x="185" y="-114" font-family="Helvetica,sans-Serif" font-size="10.00">_Window::Print_No_ELF_File</text>
<text text-anchor="middle" x="253" y="-103" font-family="Helvetica,sans-Serif" font-size="10.00">_Loaded_Error_Msg</text>
</a>
</g>
</g>
<!-- Node1&#45;&gt;Node2 -->
<g id="edge1" class="edge">
<title>Node1&#45;&gt;Node2</title>
<path fill="none" stroke="midnightblue" d="M141.03,-99.29C149.45,-100.59 158.13,-101.94 166.74,-103.27"/>
<polygon fill="midnightblue" stroke="midnightblue" points="166.39,-106.76 176.81,-104.84 167.47,-99.84 166.39,-106.76"/>
</g>
<!-- Node5 -->
<g id="node5" class="node">
<title>Node5</title>
<g id="a_node5"><a xlink:href="classzero__mate_1_1gui_1_1CControl__Window.html#a37a3c37d6d92c239742abf75b3aebec9" target="_top" xlink:title=" ">
<polygon fill="none" stroke="black" points="181.5,-46.5 181.5,-76.5 324.5,-76.5 324.5,-46.5 181.5,-46.5"/>
<text text-anchor="start" x="189.5" y="-64.5" font-family="Helvetica,sans-Serif" font-size="10.00">zero_mate::gui::CControl</text>
<text text-anchor="middle" x="253" y="-53.5" font-family="Helvetica,sans-Serif" font-size="10.00">_Window::Reset_Emulator</text>
</a>
</g>
</g>
<!-- Node1&#45;&gt;Node5 -->
<g id="edge4" class="edge">
<title>Node1&#45;&gt;Node5</title>
<path fill="none" stroke="midnightblue" d="M141.03,-78.1C150.93,-76.62 161.19,-75.08 171.29,-73.57"/>
<polygon fill="midnightblue" stroke="midnightblue" points="171.94,-77.01 181.31,-72.07 170.91,-70.09 171.94,-77.01"/>
</g>
<!-- Node3 -->
<g id="node3" class="node">
<title>Node3</title>
<g id="a_node3"><a xlink:href="classzero__mate_1_1utils_1_1CLogging__System.html#aba3c5c64cd12e058e6a288db2cd89a15" target="_top" xlink:title="Logs an error message via all registered loggers.">
<polygon fill="none" stroke="black" points="365,-98.5 365,-128.5 511,-128.5 511,-98.5 365,-98.5"/>
<text text-anchor="start" x="373" y="-116.5" font-family="Helvetica,sans-Serif" font-size="10.00">zero_mate::utils::CLogging</text>
<text text-anchor="middle" x="438" y="-105.5" font-family="Helvetica,sans-Serif" font-size="10.00">_System::Error</text>
</a>
</g>
</g>
<!-- Node2&#45;&gt;Node3 -->
<g id="edge2" class="edge">
<title>Node2&#45;&gt;Node3</title>
<path fill="none" stroke="midnightblue" d="M329.23,-115.27C337.57,-115.13 346.09,-114.99 354.52,-114.85"/>
<polygon fill="midnightblue" stroke="midnightblue" points="354.78,-118.35 364.72,-114.68 354.66,-111.35 354.78,-118.35"/>
</g>
<!-- Node4 -->
<g id="node4" class="node">
<title>Node4</title>
<g id="a_node4"><a xlink:href="classzero__mate_1_1utils_1_1CLogging__System.html#af3fd8f336b5853e954283d93f2c32edd" target="_top" xlink:title="Extract the filename from a given location within the source files.">
<polygon fill="none" stroke="black" points="547,-73.5 547,-103.5 696,-103.5 696,-73.5 547,-73.5"/>
<text text-anchor="start" x="555" y="-91.5" font-family="Helvetica,sans-Serif" font-size="10.00">zero_mate::utils::CLogging</text>
<text text-anchor="middle" x="621.5" y="-80.5" font-family="Helvetica,sans-Serif" font-size="10.00">_System::Extract_Filename</text>
</a>
</g>
</g>
<!-- Node3&#45;&gt;Node4 -->
<g id="edge3" class="edge">
<title>Node3&#45;&gt;Node4</title>
<path fill="none" stroke="midnightblue" d="M511.26,-103.55C519.64,-102.39 528.24,-101.21 536.76,-100.03"/>
<polygon fill="midnightblue" stroke="midnightblue" points="537.28,-103.5 546.71,-98.66 536.33,-96.56 537.28,-103.5"/>
</g>
<!-- Node5&#45;&gt;Node3 -->
<g id="edge5" class="edge">
<title>Node5&#45;&gt;Node3</title>
<path fill="none" stroke="midnightblue" d="M306.93,-76.54C327.99,-82.52 352.37,-89.45 374.31,-95.69"/>
<polygon fill="midnightblue" stroke="midnightblue" points="373.61,-99.13 384.19,-98.49 375.53,-92.39 373.61,-99.13"/>
</g>
<!-- Node6 -->
<g id="node6" class="node">
<title>Node6</title>
<g id="a_node6"><a xlink:href="classzero__mate_1_1utils_1_1CLogging__System.html#aee146ee8db11fa8f184757f980d35c02" target="_top" xlink:title="Logs an info message via all registered loggers.">
<polygon fill="none" stroke="black" points="365,-49.5 365,-79.5 511,-79.5 511,-49.5 365,-49.5"/>
<text text-anchor="start" x="373" y="-67.5" font-family="Helvetica,sans-Serif" font-size="10.00">zero_mate::utils::CLogging</text>
<text text-anchor="middle" x="438" y="-56.5" font-family="Helvetica,sans-Serif" font-size="10.00">_System::Info</text>
</a>
</g>
</g>
<!-- Node5&#45;&gt;Node6 -->
<g id="edge6" class="edge">
<title>Node5&#45;&gt;Node6</title>
<path fill="none" stroke="midnightblue" d="M324.75,-62.66C334.63,-62.82 344.86,-62.99 354.93,-63.15"/>
<polygon fill="midnightblue" stroke="midnightblue" points="354.87,-66.65 364.92,-63.32 354.98,-59.65 354.87,-66.65"/>
</g>
<!-- Node7 -->
<g id="node7" class="node">
<title>Node7</title>
<g id="a_node7"><a xlink:href="namespacezero__mate_1_1utils_1_1elf.html#a7af51862dcfbf3eda33e79e06f610595" target="_top" xlink:title="Reloads the same kernel that was loaded using the Load_Kernel function.">
<polygon fill="none" stroke="black" points="381,-0.5 381,-30.5 495,-30.5 495,-0.5 381,-0.5"/>
<text text-anchor="start" x="389" y="-18.5" font-family="Helvetica,sans-Serif" font-size="10.00">zero_mate::utils::elf</text>
<text text-anchor="middle" x="438" y="-7.5" font-family="Helvetica,sans-Serif" font-size="10.00">::Reload_Kernel</text>
</a>
</g>
</g>
<!-- Node5&#45;&gt;Node7 -->
<g id="edge8" class="edge">
<title>Node5&#45;&gt;Node7</title>
<path fill="none" stroke="midnightblue" d="M313.92,-46.44C332.21,-41.84 352.42,-36.76 371.09,-32.07"/>
<polygon fill="midnightblue" stroke="midnightblue" points="372.13,-35.41 380.98,-29.58 370.43,-28.63 372.13,-35.41"/>
</g>
<!-- Node6&#45;&gt;Node4 -->
<g id="edge7" class="edge">
<title>Node6&#45;&gt;Node4</title>
<path fill="none" stroke="midnightblue" d="M511.26,-74.05C519.64,-75.16 528.24,-76.3 536.76,-77.43"/>
<polygon fill="midnightblue" stroke="midnightblue" points="536.34,-80.9 546.71,-78.74 537.26,-73.96 536.34,-80.9"/>
</g>
<!-- Node8 -->
<g id="node8" class="node">
<title>Node8</title>
<g id="a_node8"><a xlink:href="namespacezero__mate_1_1utils_1_1elf.html#a95a9f666929811b558bcb9da0969972a" target="_top" xlink:title="Loads a given ELF file (kernel) into the memory.">
<polygon fill="none" stroke="black" points="564.5,-0.5 564.5,-30.5 678.5,-30.5 678.5,-0.5 564.5,-0.5"/>
<text text-anchor="start" x="572.5" y="-18.5" font-family="Helvetica,sans-Serif" font-size="10.00">zero_mate::utils::elf</text>
<text text-anchor="middle" x="621.5" y="-7.5" font-family="Helvetica,sans-Serif" font-size="10.00">::Load_Kernel</text>
</a>
</g>
</g>
<!-- Node7&#45;&gt;Node8 -->
<g id="edge9" class="edge">
<title>Node7&#45;&gt;Node8</title>
<path fill="none" stroke="midnightblue" d="M495.43,-15.5C514.04,-15.5 534.92,-15.5 554.2,-15.5"/>
<polygon fill="midnightblue" stroke="midnightblue" points="554.41,-19 564.41,-15.5 554.41,-12 554.41,-19"/>
</g>
</g>
</svg>
