<?xml version="1.0" encoding="UTF-8" standalone="no"?>
<!DOCTYPE svg PUBLIC "-//W3C//DTD SVG 1.1//EN"
 "http://www.w3.org/Graphics/SVG/1.1/DTD/svg11.dtd">
<!-- Generated by graphviz version 2.43.0 (0)
 -->
<!-- Title: zero_mate::arm1176jzf_s::CCPU_Core::Fetch_Instruction Pages: 1 -->
<svg width="877pt" height="401pt"
 viewBox="0.00 0.00 877.00 400.50" xmlns="http://www.w3.org/2000/svg" xmlns:xlink="http://www.w3.org/1999/xlink">
<g id="graph0" class="graph" transform="scale(1 1) rotate(0) translate(4 396.5)">
<title>zero_mate::arm1176jzf_s::CCPU_Core::Fetch_Instruction</title>
<!-- Node1 -->
<g id="node1" class="node">
<title>Node1</title>
<g id="a_node1"><a xlink:title="Fetches the next instruction.">
<polygon fill="#bfbfbf" stroke="black" points="0,-77 0,-118 130,-118 130,-77 0,-77"/>
<text text-anchor="start" x="8" y="-106" font-family="Helvetica,sans-Serif" font-size="10.00">zero_mate::arm1176jzf</text>
<text text-anchor="start" x="8" y="-95" font-family="Helvetica,sans-Serif" font-size="10.00">_s::CCPU_Core::Fetch</text>
<text text-anchor="middle" x="65" y="-84" font-family="Helvetica,sans-Serif" font-size="10.00">_Instruction</text>
</a>
</g>
</g>
<!-- Node2 -->
<g id="node2" class="node">
<title>Node2</title>
<g id="a_node2"><a xlink:href="classzero__mate_1_1arm1176jzf__s_1_1CCPU__Core.html#a85e6ef006a36e1adb56abd3ecc6481be" target="_top" xlink:title="Executes a CPU exception.">
<polygon fill="none" stroke="black" points="166,-129 166,-170 298,-170 298,-129 166,-129"/>
<text text-anchor="start" x="174" y="-158" font-family="Helvetica,sans-Serif" font-size="10.00">zero_mate::arm1176jzf</text>
<text text-anchor="start" x="174" y="-147" font-family="Helvetica,sans-Serif" font-size="10.00">_s::CCPU_Core::Execute</text>
<text text-anchor="middle" x="232" y="-136" font-family="Helvetica,sans-Serif" font-size="10.00">_Exception</text>
</a>
</g>
</g>
<!-- Node1&#45;&gt;Node2 -->
<g id="edge1" class="edge">
<title>Node1&#45;&gt;Node2</title>
<path fill="none" stroke="midnightblue" d="M130.27,-117.75C138.75,-120.43 147.5,-123.18 156.14,-125.91"/>
<polygon fill="midnightblue" stroke="midnightblue" points="155.23,-129.29 165.82,-128.96 157.34,-122.62 155.23,-129.29"/>
</g>
<!-- Node9 -->
<g id="node9" class="node">
<title>Node9</title>
<g id="a_node9"><a xlink:href="classzero__mate_1_1arm1176jzf__s_1_1CCPU__Core.html#a423eacd01e574e782a2b7cf51f28c56c" target="_top" xlink:title="Returns a reference to the PC register (r15)">
<polygon fill="none" stroke="black" points="344.5,-0.5 344.5,-30.5 474.5,-30.5 474.5,-0.5 344.5,-0.5"/>
<text text-anchor="start" x="352.5" y="-18.5" font-family="Helvetica,sans-Serif" font-size="10.00">zero_mate::arm1176jzf</text>
<text text-anchor="middle" x="409.5" y="-7.5" font-family="Helvetica,sans-Serif" font-size="10.00">_s::CCPU_Core::PC</text>
</a>
</g>
</g>
<!-- Node1&#45;&gt;Node9 -->
<g id="edge15" class="edge">
<title>Node1&#45;&gt;Node9</title>
<path fill="none" stroke="midnightblue" d="M130.02,-82.17C188.43,-68.19 274.7,-47.53 335.72,-32.93"/>
<polygon fill="midnightblue" stroke="midnightblue" points="336.75,-36.28 345.66,-30.54 335.12,-29.47 336.75,-36.28"/>
</g>
<!-- Node3 -->
<g id="node3" class="node">
<title>Node3</title>
<g id="a_node3"><a xlink:href="classzero__mate_1_1arm1176jzf__s_1_1exceptions_1_1CCPU__Exception.html#ab18a4a4b6a54029ccf141784cfe9c737" target="_top" xlink:title="Returns the mode into which the CPU will switch when the exception is thrown.">
<polygon fill="none" stroke="black" points="334,-351 334,-392 485,-392 485,-351 334,-351"/>
<text text-anchor="start" x="342" y="-380" font-family="Helvetica,sans-Serif" font-size="10.00">zero_mate::arm1176jzf</text>
<text text-anchor="start" x="342" y="-369" font-family="Helvetica,sans-Serif" font-size="10.00">_s::exceptions::CCPU</text>
<text text-anchor="middle" x="409.5" y="-358" font-family="Helvetica,sans-Serif" font-size="10.00">_Exception::Get_CPU_Mode</text>
</a>
</g>
</g>
<!-- Node2&#45;&gt;Node3 -->
<g id="edge2" class="edge">
<title>Node2&#45;&gt;Node3</title>
<path fill="none" stroke="midnightblue" d="M238.63,-170.11C250.2,-208.83 280.2,-292.9 334,-341.5 335.32,-342.69 336.69,-343.83 338.1,-344.94"/>
<polygon fill="midnightblue" stroke="midnightblue" points="336.4,-348.01 346.62,-350.79 340.36,-342.24 336.4,-348.01"/>
</g>
<!-- Node4 -->
<g id="node4" class="node">
<title>Node4</title>
<g id="a_node4"><a xlink:href="classzero__mate_1_1arm1176jzf__s_1_1exceptions_1_1CCPU__Exception.html#ae87c33c76ed6571b2408fd293710b6c4" target="_top" xlink:title="Returns the address of the handler of the exception.">
<polygon fill="none" stroke="black" points="336.5,-279.5 336.5,-331.5 482.5,-331.5 482.5,-279.5 336.5,-279.5"/>
<text text-anchor="start" x="344.5" y="-319.5" font-family="Helvetica,sans-Serif" font-size="10.00">zero_mate::arm1176jzf</text>
<text text-anchor="start" x="344.5" y="-308.5" font-family="Helvetica,sans-Serif" font-size="10.00">_s::exceptions::CCPU</text>
<text text-anchor="start" x="344.5" y="-297.5" font-family="Helvetica,sans-Serif" font-size="10.00">_Exception::Get_Exception</text>
<text text-anchor="middle" x="409.5" y="-286.5" font-family="Helvetica,sans-Serif" font-size="10.00">_Vector</text>
</a>
</g>
</g>
<!-- Node2&#45;&gt;Node4 -->
<g id="edge3" class="edge">
<title>Node2&#45;&gt;Node4</title>
<path fill="none" stroke="midnightblue" d="M246.24,-170.05C263.76,-195.95 296.8,-240.59 334,-269.5 335.84,-270.93 337.75,-272.33 339.71,-273.69"/>
<polygon fill="midnightblue" stroke="midnightblue" points="338.27,-276.92 348.58,-279.39 342.06,-271.04 338.27,-276.92"/>
</g>
<!-- Node5 -->
<g id="node5" class="node">
<title>Node5</title>
<g id="a_node5"><a xlink:href="classzero__mate_1_1arm1176jzf__s_1_1exceptions_1_1CCPU__Exception.html#aabb81de8a3e09534245ef3851a31c3c0" target="_top" xlink:title="Returns the type of the exception.">
<polygon fill="none" stroke="black" points="344.5,-219 344.5,-260 474.5,-260 474.5,-219 344.5,-219"/>
<text text-anchor="start" x="352.5" y="-248" font-family="Helvetica,sans-Serif" font-size="10.00">zero_mate::arm1176jzf</text>
<text text-anchor="start" x="352.5" y="-237" font-family="Helvetica,sans-Serif" font-size="10.00">_s::exceptions::CCPU</text>
<text text-anchor="middle" x="409.5" y="-226" font-family="Helvetica,sans-Serif" font-size="10.00">_Exception::Get_Type</text>
</a>
</g>
</g>
<!-- Node2&#45;&gt;Node5 -->
<g id="edge4" class="edge">
<title>Node2&#45;&gt;Node5</title>
<path fill="none" stroke="midnightblue" d="M265.05,-170.25C284.56,-182.45 310.24,-197.74 334,-209.5 337.55,-211.26 341.24,-213 344.98,-214.7"/>
<polygon fill="midnightblue" stroke="midnightblue" points="343.79,-218 354.35,-218.84 346.62,-211.59 343.79,-218"/>
</g>
<!-- Node6 -->
<g id="node6" class="node">
<title>Node6</title>
<g id="a_node6"><a xlink:href="classzero__mate_1_1arm1176jzf__s_1_1CCPU__Core.html#ad6dadfc114c7d0d6b43496f9f5651be7" target="_top" xlink:title="Checks if the IVT (interrupt vector table) has been reallocated to the higher address (0xFFFF0000).">
<polygon fill="none" stroke="black" points="334,-159 334,-200 485,-200 485,-159 334,-159"/>
<text text-anchor="start" x="342" y="-188" font-family="Helvetica,sans-Serif" font-size="10.00">zero_mate::arm1176jzf</text>
<text text-anchor="start" x="342" y="-177" font-family="Helvetica,sans-Serif" font-size="10.00">_s::CCPU_Core::Is_IVT</text>
<text text-anchor="middle" x="409.5" y="-166" font-family="Helvetica,sans-Serif" font-size="10.00">_Reallocated_To_High_Addr</text>
</a>
</g>
</g>
<!-- Node2&#45;&gt;Node6 -->
<g id="edge5" class="edge">
<title>Node2&#45;&gt;Node6</title>
<path fill="none" stroke="midnightblue" d="M298.35,-160.67C306.69,-162.1 315.31,-163.57 323.89,-165.04"/>
<polygon fill="midnightblue" stroke="midnightblue" points="323.49,-168.52 333.93,-166.75 324.67,-161.62 323.49,-168.52"/>
</g>
<!-- Node2&#45;&gt;Node9 -->
<g id="edge8" class="edge">
<title>Node2&#45;&gt;Node9</title>
<path fill="none" stroke="midnightblue" d="M256.47,-128.86C269.25,-117.2 285.05,-102.07 298,-87.5 315.71,-67.56 312.29,-54.98 334,-39.5 336.08,-38.02 338.26,-36.62 340.51,-35.31"/>
<polygon fill="midnightblue" stroke="midnightblue" points="342.22,-38.36 349.48,-30.65 338.99,-32.15 342.22,-38.36"/>
</g>
<!-- Node10 -->
<g id="node10" class="node">
<title>Node10</title>
<g id="a_node10"><a xlink:href="classzero__mate_1_1arm1176jzf__s_1_1CCPU__Context.html#a7efff674f8141eab73cb69099220f0d5" target="_top" xlink:title="Sets the mode of the CPU.">
<polygon fill="none" stroke="black" points="344.5,-99 344.5,-140 474.5,-140 474.5,-99 344.5,-99"/>
<text text-anchor="start" x="352.5" y="-128" font-family="Helvetica,sans-Serif" font-size="10.00">zero_mate::arm1176jzf</text>
<text text-anchor="start" x="352.5" y="-117" font-family="Helvetica,sans-Serif" font-size="10.00">_s::CCPU_Context::Set</text>
<text text-anchor="middle" x="409.5" y="-106" font-family="Helvetica,sans-Serif" font-size="10.00">_CPU_Mode</text>
</a>
</g>
</g>
<!-- Node2&#45;&gt;Node10 -->
<g id="edge9" class="edge">
<title>Node2&#45;&gt;Node10</title>
<path fill="none" stroke="midnightblue" d="M298.35,-138.33C310.07,-136.32 322.37,-134.22 334.32,-132.18"/>
<polygon fill="midnightblue" stroke="midnightblue" points="335,-135.62 344.26,-130.48 333.82,-128.72 335,-135.62"/>
</g>
<!-- Node11 -->
<g id="node11" class="node">
<title>Node11</title>
<g id="a_node11"><a xlink:href="classzero__mate_1_1utils_1_1CLogging__System.html#a2bb4d37b178f29335f726875bad91bd4" target="_top" xlink:title="Logs a warning message via all registered loggers.">
<polygon fill="none" stroke="black" points="336.5,-49.5 336.5,-79.5 482.5,-79.5 482.5,-49.5 336.5,-49.5"/>
<text text-anchor="start" x="344.5" y="-67.5" font-family="Helvetica,sans-Serif" font-size="10.00">zero_mate::utils::CLogging</text>
<text text-anchor="middle" x="409.5" y="-56.5" font-family="Helvetica,sans-Serif" font-size="10.00">_System::Warning</text>
</a>
</g>
</g>
<!-- Node2&#45;&gt;Node11 -->
<g id="edge10" class="edge">
<title>Node2&#45;&gt;Node11</title>
<path fill="none" stroke="midnightblue" d="M263.91,-128.8C283.44,-116.32 309.53,-100.72 334,-89.5 338.88,-87.26 344.03,-85.12 349.23,-83.1"/>
<polygon fill="midnightblue" stroke="midnightblue" points="350.49,-86.37 358.64,-79.59 348.04,-79.81 350.49,-86.37"/>
</g>
<!-- Node7 -->
<g id="node7" class="node">
<title>Node7</title>
<g id="a_node7"><a xlink:href="classzero__mate_1_1coprocessor_1_1cp15_1_1CC1.html#ac6b22a989b3f58443f36e32999150eb6" target="_top" xlink:title=" ">
<polygon fill="none" stroke="black" points="530.5,-159 530.5,-200 663.5,-200 663.5,-159 530.5,-159"/>
<text text-anchor="start" x="538.5" y="-188" font-family="Helvetica,sans-Serif" font-size="10.00">zero_mate::coprocessor</text>
<text text-anchor="start" x="538.5" y="-177" font-family="Helvetica,sans-Serif" font-size="10.00">::cp15::CC1::Is_Control</text>
<text text-anchor="middle" x="597" y="-166" font-family="Helvetica,sans-Serif" font-size="10.00">_Flag_Set</text>
</a>
</g>
</g>
<!-- Node6&#45;&gt;Node7 -->
<g id="edge6" class="edge">
<title>Node6&#45;&gt;Node7</title>
<path fill="none" stroke="midnightblue" d="M485.15,-179.5C496.75,-179.5 508.75,-179.5 520.37,-179.5"/>
<polygon fill="midnightblue" stroke="midnightblue" points="520.47,-183 530.47,-179.5 520.47,-176 520.47,-183"/>
</g>
<!-- Node8 -->
<g id="node8" class="node">
<title>Node8</title>
<g id="a_node8"><a xlink:href="classzero__mate_1_1coprocessor_1_1cp15_1_1IPrimary__Reg.html#a0780610d57b65a633a1776be372116a6" target="_top" xlink:title="Checks whether a flag is set in a given register.">
<polygon fill="none" stroke="black" points="722.5,-159 722.5,-200 855.5,-200 855.5,-159 722.5,-159"/>
<text text-anchor="start" x="730.5" y="-188" font-family="Helvetica,sans-Serif" font-size="10.00">zero_mate::coprocessor</text>
<text text-anchor="start" x="730.5" y="-177" font-family="Helvetica,sans-Serif" font-size="10.00">::cp15::IPrimary_Reg::</text>
<text text-anchor="middle" x="789" y="-166" font-family="Helvetica,sans-Serif" font-size="10.00">Is_Flag_Set</text>
</a>
</g>
</g>
<!-- Node7&#45;&gt;Node8 -->
<g id="edge7" class="edge">
<title>Node7&#45;&gt;Node8</title>
<path fill="none" stroke="midnightblue" d="M663.65,-179.5C679.23,-179.5 695.97,-179.5 711.96,-179.5"/>
<polygon fill="midnightblue" stroke="midnightblue" points="712.34,-183 722.34,-179.5 712.34,-176 712.34,-183"/>
</g>
<!-- Node12 -->
<g id="node12" class="node">
<title>Node12</title>
<g id="a_node12"><a xlink:href="classzero__mate_1_1utils_1_1CLogging__System.html#a71ed11c796553cbe8fd99773406a1060" target="_top" xlink:title="Creates a formatted message to be logged.">
<polygon fill="none" stroke="black" points="521,-72 521,-113 673,-113 673,-72 521,-72"/>
<text text-anchor="start" x="529" y="-101" font-family="Helvetica,sans-Serif" font-size="10.00">zero_mate::utils::CLogging</text>
<text text-anchor="start" x="529" y="-90" font-family="Helvetica,sans-Serif" font-size="10.00">_System::Create_Formatted</text>
<text text-anchor="middle" x="597" y="-79" font-family="Helvetica,sans-Serif" font-size="10.00">_Log_Msg</text>
</a>
</g>
</g>
<!-- Node11&#45;&gt;Node12 -->
<g id="edge11" class="edge">
<title>Node11&#45;&gt;Node12</title>
<path fill="none" stroke="midnightblue" d="M482.75,-75.41C491.94,-76.79 501.41,-78.22 510.78,-79.64"/>
<polygon fill="midnightblue" stroke="midnightblue" points="510.48,-83.13 520.89,-81.16 511.52,-76.21 510.48,-83.13"/>
</g>
<!-- Node15 -->
<g id="node15" class="node">
<title>Node15</title>
<g id="a_node15"><a xlink:href="classzero__mate_1_1utils_1_1CLogging__System.html#ad371c67ef65763966ccf9291002e86f3" target="_top" xlink:title="Extract the filename from a given location within the source files.">
<polygon fill="none" stroke="black" points="522.5,-22.5 522.5,-52.5 671.5,-52.5 671.5,-22.5 522.5,-22.5"/>
<text text-anchor="start" x="530.5" y="-40.5" font-family="Helvetica,sans-Serif" font-size="10.00">zero_mate::utils::CLogging</text>
<text text-anchor="middle" x="597" y="-29.5" font-family="Helvetica,sans-Serif" font-size="10.00">_System::Extract_Filename</text>
</a>
</g>
</g>
<!-- Node11&#45;&gt;Node15 -->
<g id="edge14" class="edge">
<title>Node11&#45;&gt;Node15</title>
<path fill="none" stroke="midnightblue" d="M482.75,-53.98C492.41,-52.58 502.39,-51.12 512.23,-49.69"/>
<polygon fill="midnightblue" stroke="midnightblue" points="513.03,-53.11 522.42,-48.21 512.02,-46.19 513.03,-53.11"/>
</g>
<!-- Node13 -->
<g id="node13" class="node">
<title>Node13</title>
<g id="a_node13"><a xlink:href="classzero__mate_1_1utils_1_1CLogging__System.html#aa70c102c805079042ffea2a6f2a5ad64" target="_top" xlink:title="Formats a given timestamp.">
<polygon fill="none" stroke="black" points="709,-93.5 709,-123.5 869,-123.5 869,-93.5 709,-93.5"/>
<text text-anchor="start" x="717" y="-111.5" font-family="Helvetica,sans-Serif" font-size="10.00">zero_mate::utils::CLogging</text>
<text text-anchor="middle" x="789" y="-100.5" font-family="Helvetica,sans-Serif" font-size="10.00">_System::Format_Timestamp</text>
</a>
</g>
</g>
<!-- Node12&#45;&gt;Node13 -->
<g id="edge12" class="edge">
<title>Node12&#45;&gt;Node13</title>
<path fill="none" stroke="midnightblue" d="M673.09,-98.82C681.52,-99.53 690.16,-100.26 698.74,-100.98"/>
<polygon fill="midnightblue" stroke="midnightblue" points="698.51,-104.48 708.77,-101.83 699.1,-97.5 698.51,-104.48"/>
</g>
<!-- Node14 -->
<g id="node14" class="node">
<title>Node14</title>
<g id="a_node14"><a xlink:href="classzero__mate_1_1utils_1_1CLogging__System.html#ae3ca637537dde05e0b9119145c840331" target="_top" xlink:title="Returns the current timestamp that will be used in a log message.">
<polygon fill="none" stroke="black" points="716,-44.5 716,-74.5 862,-74.5 862,-44.5 716,-44.5"/>
<text text-anchor="start" x="724" y="-62.5" font-family="Helvetica,sans-Serif" font-size="10.00">zero_mate::utils::CLogging</text>
<text text-anchor="middle" x="789" y="-51.5" font-family="Helvetica,sans-Serif" font-size="10.00">_System::Get_Timestamp</text>
</a>
</g>
</g>
<!-- Node12&#45;&gt;Node14 -->
<g id="edge13" class="edge">
<title>Node12&#45;&gt;Node14</title>
<path fill="none" stroke="midnightblue" d="M673.09,-79.46C683.89,-77.58 695.05,-75.64 705.98,-73.75"/>
<polygon fill="midnightblue" stroke="midnightblue" points="706.68,-77.18 715.93,-72.02 705.48,-70.28 706.68,-77.18"/>
</g>
</g>
</svg>
