<?xml version="1.0" encoding="UTF-8" standalone="no"?>
<!DOCTYPE svg PUBLIC "-//W3C//DTD SVG 1.1//EN"
 "http://www.w3.org/Graphics/SVG/1.1/DTD/svg11.dtd">
<!-- Generated by graphviz version 2.43.0 (0)
 -->
<!-- Title: zero_mate::gui::CGUI_Window Pages: 1 -->
<svg width="312pt" height="578pt"
 viewBox="0.00 0.00 312.00 578.00" xmlns="http://www.w3.org/2000/svg" xmlns:xlink="http://www.w3.org/1999/xlink">
<g id="graph0" class="graph" transform="scale(1 1) rotate(0) translate(4 574)">
<title>zero_mate::gui::CGUI_Window</title>
<!-- Node1 -->
<g id="node1" class="node">
<title>Node1</title>
<g id="a_node1"><a xlink:title=" ">
<polygon fill="#bfbfbf" stroke="black" points="0,-269.5 0,-299.5 120,-299.5 120,-269.5 0,-269.5"/>
<text text-anchor="start" x="8" y="-287.5" font-family="Helvetica,sans-Serif" font-size="10.00">zero_mate::gui::CGUI</text>
<text text-anchor="middle" x="60" y="-276.5" font-family="Helvetica,sans-Serif" font-size="10.00">_Window</text>
</a>
</g>
</g>
<!-- Node2 -->
<g id="node2" class="node">
<title>Node2</title>
<g id="a_node2"><a xlink:href="classzero__mate_1_1gui_1_1CARM__Timer__Window.html" target="_top" xlink:title=" ">
<polygon fill="none" stroke="black" points="167.5,-539.5 167.5,-569.5 292.5,-569.5 292.5,-539.5 167.5,-539.5"/>
<text text-anchor="start" x="175.5" y="-557.5" font-family="Helvetica,sans-Serif" font-size="10.00">zero_mate::gui::CARM</text>
<text text-anchor="middle" x="230" y="-546.5" font-family="Helvetica,sans-Serif" font-size="10.00">_Timer_Window</text>
</a>
</g>
</g>
<!-- Node1&#45;&gt;Node2 -->
<g id="edge1" class="edge">
<title>Node1&#45;&gt;Node2</title>
<path fill="none" stroke="midnightblue" d="M63.66,-309.8C70.19,-359.25 91.52,-469.22 156,-530.5 159.58,-533.9 163.65,-536.82 167.99,-539.32"/>
<polygon fill="midnightblue" stroke="midnightblue" points="67.11,-309.17 62.42,-299.67 60.16,-310.02 67.11,-309.17"/>
</g>
<!-- Node3 -->
<g id="node3" class="node">
<title>Node3</title>
<g id="a_node3"><a xlink:href="classzero__mate_1_1gui_1_1CCP15__Window.html" target="_top" xlink:title=" ">
<polygon fill="none" stroke="black" points="166.5,-490.5 166.5,-520.5 293.5,-520.5 293.5,-490.5 166.5,-490.5"/>
<text text-anchor="start" x="174.5" y="-508.5" font-family="Helvetica,sans-Serif" font-size="10.00">zero_mate::gui::CCP15</text>
<text text-anchor="middle" x="230" y="-497.5" font-family="Helvetica,sans-Serif" font-size="10.00">_Window</text>
</a>
</g>
</g>
<!-- Node1&#45;&gt;Node3 -->
<g id="edge2" class="edge">
<title>Node1&#45;&gt;Node3</title>
<path fill="none" stroke="midnightblue" d="M66.31,-309.38C76.47,-350.98 102.54,-434.65 156,-481.5 159.91,-484.93 164.33,-487.87 169,-490.39"/>
<polygon fill="midnightblue" stroke="midnightblue" points="69.69,-308.48 64.02,-299.53 62.88,-310.07 69.69,-308.48"/>
</g>
<!-- Node4 -->
<g id="node4" class="node">
<title>Node4</title>
<g id="a_node4"><a xlink:href="classzero__mate_1_1gui_1_1CControl__Window.html" target="_top" xlink:title=" ">
<polygon fill="none" stroke="black" points="161.5,-441.5 161.5,-471.5 298.5,-471.5 298.5,-441.5 161.5,-441.5"/>
<text text-anchor="start" x="169.5" y="-459.5" font-family="Helvetica,sans-Serif" font-size="10.00">zero_mate::gui::CControl</text>
<text text-anchor="middle" x="230" y="-448.5" font-family="Helvetica,sans-Serif" font-size="10.00">_Window</text>
</a>
</g>
</g>
<!-- Node1&#45;&gt;Node4 -->
<g id="edge3" class="edge">
<title>Node1&#45;&gt;Node4</title>
<path fill="none" stroke="midnightblue" d="M70.63,-309.29C84.6,-342.11 113.56,-399.64 156,-432.5 160.43,-435.93 165.37,-438.88 170.54,-441.42"/>
<polygon fill="midnightblue" stroke="midnightblue" points="73.83,-307.86 66.78,-299.96 67.36,-310.54 73.83,-307.86"/>
</g>
<!-- Node5 -->
<g id="node5" class="node">
<title>Node5</title>
<g id="a_node5"><a xlink:href="classzero__mate_1_1gui_1_1CFile__Window.html" target="_top" xlink:title=" ">
<polygon fill="none" stroke="black" points="170.5,-392.5 170.5,-422.5 289.5,-422.5 289.5,-392.5 170.5,-392.5"/>
<text text-anchor="start" x="178.5" y="-410.5" font-family="Helvetica,sans-Serif" font-size="10.00">zero_mate::gui::CFile</text>
<text text-anchor="middle" x="230" y="-399.5" font-family="Helvetica,sans-Serif" font-size="10.00">_Window</text>
</a>
</g>
</g>
<!-- Node1&#45;&gt;Node5 -->
<g id="edge4" class="edge">
<title>Node1&#45;&gt;Node5</title>
<path fill="none" stroke="midnightblue" d="M77.87,-307.8C95.16,-330.14 124,-363.36 156,-383.5 161.42,-386.91 167.37,-389.89 173.47,-392.47"/>
<polygon fill="midnightblue" stroke="midnightblue" points="80.65,-305.67 71.82,-299.82 75.07,-309.9 80.65,-305.67"/>
</g>
<!-- Node6 -->
<g id="node6" class="node">
<title>Node6</title>
<g id="a_node6"><a xlink:href="classzero__mate_1_1gui_1_1CGPIO__Window.html" target="_top" xlink:title=" ">
<polygon fill="none" stroke="black" points="167,-343.5 167,-373.5 293,-373.5 293,-343.5 167,-343.5"/>
<text text-anchor="start" x="175" y="-361.5" font-family="Helvetica,sans-Serif" font-size="10.00">zero_mate::gui::CGPIO</text>
<text text-anchor="middle" x="230" y="-350.5" font-family="Helvetica,sans-Serif" font-size="10.00">_Window</text>
</a>
</g>
</g>
<!-- Node1&#45;&gt;Node6 -->
<g id="edge5" class="edge">
<title>Node1&#45;&gt;Node6</title>
<path fill="none" stroke="midnightblue" d="M95.86,-304.64C113.54,-314.39 135.54,-325.83 156,-334.5 163.49,-337.68 171.56,-340.7 179.5,-343.47"/>
<polygon fill="midnightblue" stroke="midnightblue" points="97.48,-301.54 87.04,-299.72 94.07,-307.65 97.48,-301.54"/>
</g>
<!-- Node7 -->
<g id="node7" class="node">
<title>Node7</title>
<g id="a_node7"><a xlink:href="classzero__mate_1_1gui_1_1CInterrupt__Controller__Window.html" target="_top" xlink:title=" ">
<polygon fill="none" stroke="black" points="158,-294.5 158,-324.5 302,-324.5 302,-294.5 158,-294.5"/>
<text text-anchor="start" x="166" y="-312.5" font-family="Helvetica,sans-Serif" font-size="10.00">zero_mate::gui::CInterrupt</text>
<text text-anchor="middle" x="230" y="-301.5" font-family="Helvetica,sans-Serif" font-size="10.00">_Controller_Window</text>
</a>
</g>
</g>
<!-- Node1&#45;&gt;Node7 -->
<g id="edge6" class="edge">
<title>Node1&#45;&gt;Node7</title>
<path fill="none" stroke="midnightblue" d="M130.37,-294.82C139.47,-296.18 148.8,-297.57 157.92,-298.92"/>
<polygon fill="midnightblue" stroke="midnightblue" points="130.64,-291.32 120.23,-293.31 129.61,-298.25 130.64,-291.32"/>
</g>
<!-- Node8 -->
<g id="node8" class="node">
<title>Node8</title>
<g id="a_node8"><a xlink:href="classzero__mate_1_1gui_1_1CLog__Window.html" target="_top" xlink:title=" ">
<polygon fill="none" stroke="black" points="170.5,-245.5 170.5,-275.5 289.5,-275.5 289.5,-245.5 170.5,-245.5"/>
<text text-anchor="start" x="178.5" y="-263.5" font-family="Helvetica,sans-Serif" font-size="10.00">zero_mate::gui::CLog</text>
<text text-anchor="middle" x="230" y="-252.5" font-family="Helvetica,sans-Serif" font-size="10.00">_Window</text>
</a>
</g>
</g>
<!-- Node1&#45;&gt;Node8 -->
<g id="edge7" class="edge">
<title>Node1&#45;&gt;Node8</title>
<path fill="none" stroke="midnightblue" d="M130.28,-274.6C143.57,-272.7 157.38,-270.73 170.3,-268.89"/>
<polygon fill="midnightblue" stroke="midnightblue" points="129.64,-271.16 120.23,-276.04 130.63,-278.09 129.64,-271.16"/>
</g>
<!-- Node9 -->
<g id="node9" class="node">
<title>Node9</title>
<g id="a_node9"><a xlink:href="classzero__mate_1_1gui_1_1CMonitor__Window.html" target="_top" xlink:title=" ">
<polygon fill="none" stroke="black" points="160,-196.5 160,-226.5 300,-226.5 300,-196.5 160,-196.5"/>
<text text-anchor="start" x="168" y="-214.5" font-family="Helvetica,sans-Serif" font-size="10.00">zero_mate::gui::CMonitor</text>
<text text-anchor="middle" x="230" y="-203.5" font-family="Helvetica,sans-Serif" font-size="10.00">_Window</text>
</a>
</g>
</g>
<!-- Node1&#45;&gt;Node9 -->
<g id="edge8" class="edge">
<title>Node1&#45;&gt;Node9</title>
<path fill="none" stroke="midnightblue" d="M97.62,-264.51C115.04,-255.39 136.32,-244.8 156,-236.5 164.27,-233.01 173.21,-229.64 181.91,-226.56"/>
<polygon fill="midnightblue" stroke="midnightblue" points="95.58,-261.63 88.38,-269.4 98.85,-267.82 95.58,-261.63"/>
</g>
<!-- Node10 -->
<g id="node10" class="node">
<title>Node10</title>
<g id="a_node10"><a xlink:href="classzero__mate_1_1gui_1_1CRAM__Window.html" target="_top" xlink:title=" ">
<polygon fill="none" stroke="black" points="167.5,-147.5 167.5,-177.5 292.5,-177.5 292.5,-147.5 167.5,-147.5"/>
<text text-anchor="start" x="175.5" y="-165.5" font-family="Helvetica,sans-Serif" font-size="10.00">zero_mate::gui::CRAM</text>
<text text-anchor="middle" x="230" y="-154.5" font-family="Helvetica,sans-Serif" font-size="10.00">_Window</text>
</a>
</g>
</g>
<!-- Node1&#45;&gt;Node10 -->
<g id="edge9" class="edge">
<title>Node1&#45;&gt;Node10</title>
<path fill="none" stroke="midnightblue" d="M78.54,-261.12C96.01,-239.31 124.67,-207.27 156,-187.5 162,-183.71 168.65,-180.42 175.42,-177.58"/>
<polygon fill="midnightblue" stroke="midnightblue" points="75.62,-259.18 72.2,-269.21 81.13,-263.5 75.62,-259.18"/>
</g>
<!-- Node11 -->
<g id="node11" class="node">
<title>Node11</title>
<g id="a_node11"><a xlink:href="classzero__mate_1_1gui_1_1CRegisters__Window.html" target="_top" xlink:title=" ">
<polygon fill="none" stroke="black" points="156,-98.5 156,-128.5 304,-128.5 304,-98.5 156,-98.5"/>
<text text-anchor="start" x="164" y="-116.5" font-family="Helvetica,sans-Serif" font-size="10.00">zero_mate::gui::CRegisters</text>
<text text-anchor="middle" x="230" y="-105.5" font-family="Helvetica,sans-Serif" font-size="10.00">_Window</text>
</a>
</g>
</g>
<!-- Node1&#45;&gt;Node11 -->
<g id="edge10" class="edge">
<title>Node1&#45;&gt;Node11</title>
<path fill="none" stroke="midnightblue" d="M70.96,-259.7C85.17,-227.35 114.24,-171.04 156,-138.5 160.97,-134.63 166.57,-131.34 172.41,-128.54"/>
<polygon fill="midnightblue" stroke="midnightblue" points="67.57,-258.73 66.87,-269.3 74.01,-261.47 67.57,-258.73"/>
</g>
<!-- Node12 -->
<g id="node12" class="node">
<title>Node12</title>
<g id="a_node12"><a xlink:href="classzero__mate_1_1gui_1_1CSource__Code__Window.html" target="_top" xlink:title=" ">
<polygon fill="none" stroke="black" points="162.5,-49.5 162.5,-79.5 297.5,-79.5 297.5,-49.5 162.5,-49.5"/>
<text text-anchor="start" x="170.5" y="-67.5" font-family="Helvetica,sans-Serif" font-size="10.00">zero_mate::gui::CSource</text>
<text text-anchor="middle" x="230" y="-56.5" font-family="Helvetica,sans-Serif" font-size="10.00">_Code_Window</text>
</a>
</g>
</g>
<!-- Node1&#45;&gt;Node12 -->
<g id="edge11" class="edge">
<title>Node1&#45;&gt;Node12</title>
<path fill="none" stroke="midnightblue" d="M66.53,-259.63C76.94,-218.46 103.3,-136.07 156,-89.5 160.42,-85.6 165.47,-82.3 170.82,-79.51"/>
<polygon fill="midnightblue" stroke="midnightblue" points="63.11,-258.85 64.16,-269.4 69.92,-260.5 63.11,-258.85"/>
</g>
<!-- Node13 -->
<g id="node13" class="node">
<title>Node13</title>
<g id="a_node13"><a xlink:href="classzero__mate_1_1gui_1_1external__peripheral_1_1CButton.html" target="_top" xlink:title=" ">
<polygon fill="none" stroke="black" points="162,-0.5 162,-30.5 298,-30.5 298,-0.5 162,-0.5"/>
<text text-anchor="start" x="170" y="-18.5" font-family="Helvetica,sans-Serif" font-size="10.00">zero_mate::gui::external</text>
<text text-anchor="middle" x="230" y="-7.5" font-family="Helvetica,sans-Serif" font-size="10.00">_peripheral::CButton</text>
</a>
</g>
</g>
<!-- Node1&#45;&gt;Node13 -->
<g id="edge12" class="edge">
<title>Node1&#45;&gt;Node13</title>
<path fill="none" stroke="midnightblue" d="M63.79,-259.47C70.55,-210.54 92.26,-101.65 156,-40.5 160.06,-36.6 164.75,-33.31 169.76,-30.54"/>
<polygon fill="midnightblue" stroke="midnightblue" points="60.3,-259.13 62.5,-269.5 67.25,-260.03 60.3,-259.13"/>
</g>
</g>
</svg>
