<?xml version="1.0" encoding="UTF-8" standalone="no"?>
<!DOCTYPE svg PUBLIC "-//W3C//DTD SVG 1.1//EN"
 "http://www.w3.org/Graphics/SVG/1.1/DTD/svg11.dtd">
<!-- Generated by graphviz version 2.43.0 (0)
 -->
<!-- Title: src/gui/windows/control_window.hpp Pages: 1 -->
<svg width="3162pt" height="486pt"
 viewBox="0.00 0.00 3161.50 486.00" xmlns="http://www.w3.org/2000/svg" xmlns:xlink="http://www.w3.org/1999/xlink">
<g id="graph0" class="graph" transform="scale(1 1) rotate(0) translate(4 482)">
<title>src/gui/windows/control_window.hpp</title>
<!-- Node1 -->
<g id="node1" class="node">
<title>Node1</title>
<g id="a_node1"><a xlink:title=" ">
<polygon fill="#bfbfbf" stroke="black" points="31.5,-447.5 31.5,-477.5 162.5,-477.5 162.5,-447.5 31.5,-447.5"/>
<text text-anchor="start" x="39.5" y="-465.5" font-family="Helvetica,sans-Serif" font-size="10.00">src/gui/windows/control</text>
<text text-anchor="middle" x="97" y="-454.5" font-family="Helvetica,sans-Serif" font-size="10.00">_window.hpp</text>
</a>
</g>
</g>
<!-- Node2 -->
<g id="node2" class="node">
<title>Node2</title>
<g id="a_node2"><a xlink:title=" ">
<polygon fill="none" stroke="#bfbfbf" points="0,-386 0,-405 50,-405 50,-386 0,-386"/>
<text text-anchor="middle" x="25" y="-393" font-family="Helvetica,sans-Serif" font-size="10.00">atomic</text>
</a>
</g>
</g>
<!-- Node1&#45;&gt;Node2 -->
<g id="edge1" class="edge">
<title>Node1&#45;&gt;Node2</title>
<path fill="none" stroke="midnightblue" d="M81.38,-447.4C69.82,-436.96 54.08,-422.75 42.17,-412"/>
<polygon fill="midnightblue" stroke="midnightblue" points="44.4,-409.3 34.63,-405.19 39.71,-414.49 44.4,-409.3"/>
</g>
<!-- Node3 -->
<g id="node3" class="node">
<title>Node3</title>
<g id="a_node3"><a xlink:href="window_8hpp.html" target="_top" xlink:title=" ">
<polygon fill="none" stroke="black" points="4.5,-257.5 4.5,-276.5 87.5,-276.5 87.5,-257.5 4.5,-257.5"/>
<text text-anchor="middle" x="46" y="-264.5" font-family="Helvetica,sans-Serif" font-size="10.00">../window.hpp</text>
</a>
</g>
</g>
<!-- Node1&#45;&gt;Node3 -->
<g id="edge2" class="edge">
<title>Node1&#45;&gt;Node3</title>
<path fill="none" stroke="midnightblue" d="M93.25,-447.27C84.16,-412.8 60.97,-324.81 50.85,-286.4"/>
<polygon fill="midnightblue" stroke="midnightblue" points="54.19,-285.35 48.26,-276.58 47.42,-287.14 54.19,-285.35"/>
</g>
<!-- Node5 -->
<g id="node5" class="node">
<title>Node5</title>
<g id="a_node5"><a xlink:href="logger_8hpp.html" target="_top" xlink:title=" ">
<polygon fill="none" stroke="black" points="269.5,-56.5 269.5,-86.5 382.5,-86.5 382.5,-56.5 269.5,-56.5"/>
<text text-anchor="start" x="277.5" y="-74.5" font-family="Helvetica,sans-Serif" font-size="10.00">../../core/utils/logger</text>
<text text-anchor="middle" x="326" y="-63.5" font-family="Helvetica,sans-Serif" font-size="10.00">/logger.hpp</text>
</a>
</g>
</g>
<!-- Node1&#45;&gt;Node5 -->
<g id="edge4" class="edge">
<title>Node1&#45;&gt;Node5</title>
<path fill="none" stroke="midnightblue" d="M100.4,-447.34C105.86,-423.27 116,-372.8 116,-329.5 116,-329.5 116,-329.5 116,-204.5 116,-135.66 197.88,-101.33 259.38,-85.24"/>
<polygon fill="midnightblue" stroke="midnightblue" points="260.6,-88.55 269.45,-82.72 258.9,-81.76 260.6,-88.55"/>
</g>
<!-- Node11 -->
<g id="node11" class="node">
<title>Node11</title>
<g id="a_node11"><a xlink:href="core_8hpp.html" target="_top" xlink:title="This file defines a class that represents a CPU core (arm1176jzf_s).">
<polygon fill="none" stroke="black" points="585,-380.5 585,-410.5 699,-410.5 699,-380.5 585,-380.5"/>
<text text-anchor="start" x="593" y="-398.5" font-family="Helvetica,sans-Serif" font-size="10.00">../../core/arm1176jzf</text>
<text text-anchor="middle" x="642" y="-387.5" font-family="Helvetica,sans-Serif" font-size="10.00">_s/core.hpp</text>
</a>
</g>
</g>
<!-- Node1&#45;&gt;Node11 -->
<g id="edge11" class="edge">
<title>Node1&#45;&gt;Node11</title>
<path fill="none" stroke="midnightblue" d="M162.74,-453.66C266.99,-441.23 469.19,-417.11 574.52,-404.55"/>
<polygon fill="midnightblue" stroke="midnightblue" points="575.2,-407.99 584.71,-403.33 574.37,-401.04 575.2,-407.99"/>
</g>
<!-- Node4 -->
<g id="node4" class="node">
<title>Node4</title>
<g id="a_node4"><a xlink:title=" ">
<polygon fill="none" stroke="#bfbfbf" points="38,-0.5 38,-19.5 96,-19.5 96,-0.5 38,-0.5"/>
<text text-anchor="middle" x="67" y="-7.5" font-family="Helvetica,sans-Serif" font-size="10.00">memory</text>
</a>
</g>
</g>
<!-- Node3&#45;&gt;Node4 -->
<g id="edge3" class="edge">
<title>Node3&#45;&gt;Node4</title>
<path fill="none" stroke="midnightblue" d="M46.72,-257.22C49.72,-220.82 61.21,-81.27 65.43,-30.02"/>
<polygon fill="midnightblue" stroke="midnightblue" points="68.95,-29.99 66.28,-19.74 61.97,-29.42 68.95,-29.99"/>
</g>
<!-- Node5&#45;&gt;Node4 -->
<g id="edge7" class="edge">
<title>Node5&#45;&gt;Node4</title>
<path fill="none" stroke="midnightblue" d="M269.48,-57.52C220.01,-46.15 149.45,-29.94 106.02,-19.96"/>
<polygon fill="midnightblue" stroke="midnightblue" points="106.65,-16.52 96.12,-17.69 105.08,-23.34 106.65,-16.52"/>
</g>
<!-- Node6 -->
<g id="node6" class="node">
<title>Node6</title>
<g id="a_node6"><a xlink:title=" ">
<polygon fill="none" stroke="#bfbfbf" points="122,-0.5 122,-19.5 170,-19.5 170,-0.5 122,-0.5"/>
<text text-anchor="middle" x="146" y="-7.5" font-family="Helvetica,sans-Serif" font-size="10.00">mutex</text>
</a>
</g>
</g>
<!-- Node5&#45;&gt;Node6 -->
<g id="edge5" class="edge">
<title>Node5&#45;&gt;Node6</title>
<path fill="none" stroke="midnightblue" d="M283.34,-56.4C251.72,-45.95 209.21,-31.89 179.9,-22.2"/>
<polygon fill="midnightblue" stroke="midnightblue" points="180.71,-18.79 170.12,-18.97 178.51,-25.43 180.71,-18.79"/>
</g>
<!-- Node7 -->
<g id="node7" class="node">
<title>Node7</title>
<g id="a_node7"><a xlink:title=" ">
<polygon fill="none" stroke="#bfbfbf" points="390.5,-0.5 390.5,-19.5 437.5,-19.5 437.5,-0.5 390.5,-0.5"/>
<text text-anchor="middle" x="414" y="-7.5" font-family="Helvetica,sans-Serif" font-size="10.00">vector</text>
</a>
</g>
</g>
<!-- Node5&#45;&gt;Node7 -->
<g id="edge6" class="edge">
<title>Node5&#45;&gt;Node7</title>
<path fill="none" stroke="midnightblue" d="M346.85,-56.4C360.7,-47.04 378.81,-34.79 392.74,-25.38"/>
<polygon fill="midnightblue" stroke="midnightblue" points="394.87,-28.16 401.2,-19.66 390.95,-22.36 394.87,-28.16"/>
</g>
<!-- Node8 -->
<g id="node8" class="node">
<title>Node8</title>
<g id="a_node8"><a xlink:title=" ">
<polygon fill="none" stroke="#bfbfbf" points="845,-0.5 845,-19.5 895,-19.5 895,-0.5 845,-0.5"/>
<text text-anchor="middle" x="870" y="-7.5" font-family="Helvetica,sans-Serif" font-size="10.00">cstdint</text>
</a>
</g>
</g>
<!-- Node5&#45;&gt;Node8 -->
<g id="edge8" class="edge">
<title>Node5&#45;&gt;Node8</title>
<path fill="none" stroke="midnightblue" d="M382.53,-62.66C399.4,-60.41 417.94,-58.02 435,-56 583.4,-38.46 760.74,-21.29 834.8,-14.29"/>
<polygon fill="midnightblue" stroke="midnightblue" points="835.33,-17.76 844.96,-13.33 834.68,-10.79 835.33,-17.76"/>
</g>
<!-- Node9 -->
<g id="node9" class="node">
<title>Node9</title>
<g id="a_node9"><a xlink:title=" ">
<polygon fill="none" stroke="#bfbfbf" points="188.5,-0.5 188.5,-19.5 261.5,-19.5 261.5,-0.5 188.5,-0.5"/>
<text text-anchor="middle" x="225" y="-7.5" font-family="Helvetica,sans-Serif" font-size="10.00">string_view</text>
</a>
</g>
</g>
<!-- Node5&#45;&gt;Node9 -->
<g id="edge9" class="edge">
<title>Node5&#45;&gt;Node9</title>
<path fill="none" stroke="midnightblue" d="M302.06,-56.4C285.87,-46.86 264.59,-34.32 248.5,-24.84"/>
<polygon fill="midnightblue" stroke="midnightblue" points="250.09,-21.72 239.7,-19.66 246.54,-27.75 250.09,-21.72"/>
</g>
<!-- Node10 -->
<g id="node10" class="node">
<title>Node10</title>
<g id="a_node10"><a xlink:title=" ">
<polygon fill="none" stroke="#bfbfbf" points="279.5,-0.5 279.5,-19.5 372.5,-19.5 372.5,-0.5 279.5,-0.5"/>
<text text-anchor="middle" x="326" y="-7.5" font-family="Helvetica,sans-Serif" font-size="10.00">source_location</text>
</a>
</g>
</g>
<!-- Node5&#45;&gt;Node10 -->
<g id="edge10" class="edge">
<title>Node5&#45;&gt;Node10</title>
<path fill="none" stroke="midnightblue" d="M326,-56.4C326,-48.47 326,-38.46 326,-29.86"/>
<polygon fill="midnightblue" stroke="midnightblue" points="329.5,-29.66 326,-19.66 322.5,-29.66 329.5,-29.66"/>
</g>
<!-- Node11&#45;&gt;Node5 -->
<g id="edge77" class="edge">
<title>Node11&#45;&gt;Node5</title>
<path fill="none" stroke="midnightblue" d="M584.76,-391.01C537.35,-385.99 469.63,-373.76 418,-344 382.85,-323.74 373.51,-313.6 356,-277 327.27,-216.93 324.43,-136.5 325.04,-96.79"/>
<polygon fill="midnightblue" stroke="midnightblue" points="328.54,-96.8 325.28,-86.72 321.54,-96.63 328.54,-96.8"/>
</g>
<!-- Node12 -->
<g id="node12" class="node">
<title>Node12</title>
<g id="a_node12"><a xlink:href="context_8hpp.html" target="_top" xlink:title=" ">
<polygon fill="none" stroke="black" points="793,-129 793,-148 867,-148 867,-129 793,-129"/>
<text text-anchor="middle" x="830" y="-136" font-family="Helvetica,sans-Serif" font-size="10.00">context.hpp</text>
</a>
</g>
</g>
<!-- Node11&#45;&gt;Node12 -->
<g id="edge12" class="edge">
<title>Node11&#45;&gt;Node12</title>
<path fill="none" stroke="midnightblue" d="M656.58,-380.25C685.05,-351.89 748.92,-285.52 791,-221 804.34,-200.55 815.88,-174.83 822.87,-157.81"/>
<polygon fill="midnightblue" stroke="midnightblue" points="826.15,-159.05 826.62,-148.47 819.65,-156.45 826.15,-159.05"/>
</g>
<!-- Node15 -->
<g id="node15" class="node">
<title>Node15</title>
<g id="a_node15"><a xlink:href="exceptions_8hpp.html" target="_top" xlink:title=" ">
<polygon fill="none" stroke="black" points="216.5,-257.5 216.5,-276.5 307.5,-276.5 307.5,-257.5 216.5,-257.5"/>
<text text-anchor="middle" x="262" y="-264.5" font-family="Helvetica,sans-Serif" font-size="10.00">exceptions.hpp</text>
</a>
</g>
</g>
<!-- Node11&#45;&gt;Node15 -->
<g id="edge17" class="edge">
<title>Node11&#45;&gt;Node15</title>
<path fill="none" stroke="midnightblue" d="M584.69,-390.47C504.97,-384.03 365.5,-369.46 322,-344 298.6,-330.31 280.88,-303.71 270.96,-285.9"/>
<polygon fill="midnightblue" stroke="midnightblue" points="273.92,-284.02 266.15,-276.82 267.74,-287.29 273.92,-284.02"/>
</g>
<!-- Node18 -->
<g id="node18" class="node">
<title>Node18</title>
<g id="a_node18"><a xlink:href="isa_8hpp.html" target="_top" xlink:title=" ">
<polygon fill="none" stroke="black" points="1926.5,-196 1926.5,-215 1995.5,-215 1995.5,-196 1926.5,-196"/>
<text text-anchor="middle" x="1961" y="-203" font-family="Helvetica,sans-Serif" font-size="10.00">isa/isa.hpp</text>
</a>
</g>
</g>
<!-- Node11&#45;&gt;Node18 -->
<g id="edge21" class="edge">
<title>Node11&#45;&gt;Node18</title>
<path fill="none" stroke="midnightblue" d="M699.1,-386.36C920.25,-354.84 1717.94,-241.14 1916.17,-212.89"/>
<polygon fill="midnightblue" stroke="midnightblue" points="1916.82,-216.33 1926.22,-211.46 1915.83,-209.4 1916.82,-216.33"/>
</g>
<!-- Node37 -->
<g id="node37" class="node">
<title>Node37</title>
<g id="a_node37"><a xlink:href="isa__decoder_8hpp.html" target="_top" xlink:title=" ">
<polygon fill="none" stroke="black" points="885.5,-129 885.5,-148 998.5,-148 998.5,-129 885.5,-129"/>
<text text-anchor="middle" x="942" y="-136" font-family="Helvetica,sans-Serif" font-size="10.00">isa/isa_decoder.hpp</text>
</a>
</g>
</g>
<!-- Node11&#45;&gt;Node37 -->
<g id="edge58" class="edge">
<title>Node11&#45;&gt;Node37</title>
<path fill="none" stroke="midnightblue" d="M699.13,-392.61C774.23,-388.81 900.15,-377.49 930,-344 976.93,-291.34 958.34,-197.51 947.59,-157.93"/>
<polygon fill="midnightblue" stroke="midnightblue" points="950.94,-156.93 944.82,-148.28 944.21,-158.86 950.94,-156.93"/>
</g>
<!-- Node38 -->
<g id="node38" class="node">
<title>Node38</title>
<g id="a_node38"><a xlink:href="bus_8hpp.html" target="_top" xlink:title="This file defines an interface the CPU uses to access different memory&#45;mapped peripherals.">
<polygon fill="none" stroke="black" points="427,-319 427,-338 491,-338 491,-319 427,-319"/>
<text text-anchor="middle" x="459" y="-326" font-family="Helvetica,sans-Serif" font-size="10.00">../bus.hpp</text>
</a>
</g>
</g>
<!-- Node11&#45;&gt;Node38 -->
<g id="edge62" class="edge">
<title>Node11&#45;&gt;Node38</title>
<path fill="none" stroke="midnightblue" d="M602.29,-380.4C569.47,-368.74 523.4,-352.37 492.44,-341.38"/>
<polygon fill="midnightblue" stroke="midnightblue" points="493.55,-338.06 482.95,-338.01 491.2,-344.65 493.55,-338.06"/>
</g>
<!-- Node42 -->
<g id="node42" class="node">
<title>Node42</title>
<g id="a_node42"><a xlink:href="math_8hpp.html" target="_top" xlink:title="This file defines and implements a variety of handy helper functions that are used throughout the pro...">
<polygon fill="none" stroke="black" points="825,-319 825,-338 921,-338 921,-319 825,-319"/>
<text text-anchor="middle" x="873" y="-326" font-family="Helvetica,sans-Serif" font-size="10.00">../utils/math.hpp</text>
</a>
</g>
</g>
<!-- Node11&#45;&gt;Node42 -->
<g id="edge76" class="edge">
<title>Node11&#45;&gt;Node42</title>
<path fill="none" stroke="midnightblue" d="M691.84,-380.48C734.06,-368.6 793.8,-351.79 832.96,-340.77"/>
<polygon fill="midnightblue" stroke="midnightblue" points="834.01,-344.11 842.69,-338.03 832.12,-337.37 834.01,-344.11"/>
</g>
<!-- Node43 -->
<g id="node43" class="node">
<title>Node43</title>
<g id="a_node43"><a xlink:href="interrupt__controller_8hpp.html" target="_top" xlink:title=" ">
<polygon fill="none" stroke="black" points="625.5,-190.5 625.5,-220.5 750.5,-220.5 750.5,-190.5 625.5,-190.5"/>
<text text-anchor="start" x="633.5" y="-208.5" font-family="Helvetica,sans-Serif" font-size="10.00">../peripherals/interrupt</text>
<text text-anchor="middle" x="688" y="-197.5" font-family="Helvetica,sans-Serif" font-size="10.00">_controller.hpp</text>
</a>
</g>
</g>
<!-- Node11&#45;&gt;Node43 -->
<g id="edge78" class="edge">
<title>Node11&#45;&gt;Node43</title>
<path fill="none" stroke="midnightblue" d="M650.45,-380.41C655.99,-370.54 662.94,-356.87 667,-344 679.12,-305.58 684.36,-258.83 686.54,-230.93"/>
<polygon fill="midnightblue" stroke="midnightblue" points="690.04,-231.1 687.26,-220.88 683.06,-230.61 690.04,-231.1"/>
</g>
<!-- Node44 -->
<g id="node44" class="node">
<title>Node44</title>
<g id="a_node44"><a xlink:href="system__clock__listener_8hpp.html" target="_top" xlink:title=" ">
<polygon fill="none" stroke="black" points="538.5,-313.5 538.5,-343.5 657.5,-343.5 657.5,-313.5 538.5,-313.5"/>
<text text-anchor="start" x="546.5" y="-331.5" font-family="Helvetica,sans-Serif" font-size="10.00">../peripherals/system</text>
<text text-anchor="middle" x="598" y="-320.5" font-family="Helvetica,sans-Serif" font-size="10.00">_clock_listener.hpp</text>
</a>
</g>
</g>
<!-- Node11&#45;&gt;Node44 -->
<g id="edge84" class="edge">
<title>Node11&#45;&gt;Node44</title>
<path fill="none" stroke="midnightblue" d="M632.45,-380.4C626.86,-372.13 619.67,-361.51 613.3,-352.1"/>
<polygon fill="midnightblue" stroke="midnightblue" points="616.03,-349.9 607.53,-343.58 610.24,-353.82 616.03,-349.9"/>
</g>
<!-- Node12&#45;&gt;Node5 -->
<g id="edge16" class="edge">
<title>Node12&#45;&gt;Node5</title>
<path fill="none" stroke="midnightblue" d="M792.94,-132.72C708.37,-121.81 500.2,-94.97 392.68,-81.1"/>
<polygon fill="midnightblue" stroke="midnightblue" points="392.96,-77.61 382.59,-79.8 392.06,-84.55 392.96,-77.61"/>
</g>
<!-- Node12&#45;&gt;Node8 -->
<g id="edge14" class="edge">
<title>Node12&#45;&gt;Node8</title>
<path fill="none" stroke="midnightblue" d="M834.13,-128.71C838.69,-118.76 846.05,-101.96 851,-87 857.39,-67.67 862.81,-44.97 866.2,-29.44"/>
<polygon fill="midnightblue" stroke="midnightblue" points="869.64,-30.06 868.3,-19.55 862.8,-28.61 869.64,-30.06"/>
</g>
<!-- Node13 -->
<g id="node13" class="node">
<title>Node13</title>
<g id="a_node13"><a xlink:title=" ">
<polygon fill="none" stroke="#bfbfbf" points="800,-62 800,-81 842,-81 842,-62 800,-62"/>
<text text-anchor="middle" x="821" y="-69" font-family="Helvetica,sans-Serif" font-size="10.00">array</text>
</a>
</g>
</g>
<!-- Node12&#45;&gt;Node13 -->
<g id="edge13" class="edge">
<title>Node12&#45;&gt;Node13</title>
<path fill="none" stroke="midnightblue" d="M828.79,-128.73C827.46,-119.18 825.31,-103.62 823.6,-91.28"/>
<polygon fill="midnightblue" stroke="midnightblue" points="827.03,-90.55 822.19,-81.13 820.1,-91.51 827.03,-90.55"/>
</g>
<!-- Node14 -->
<g id="node14" class="node">
<title>Node14</title>
<g id="a_node14"><a xlink:title=" ">
<polygon fill="none" stroke="#bfbfbf" points="680.5,-62 680.5,-81 773.5,-81 773.5,-62 680.5,-62"/>
<text text-anchor="middle" x="727" y="-69" font-family="Helvetica,sans-Serif" font-size="10.00">unordered_map</text>
</a>
</g>
</g>
<!-- Node12&#45;&gt;Node14 -->
<g id="edge15" class="edge">
<title>Node12&#45;&gt;Node14</title>
<path fill="none" stroke="midnightblue" d="M816.11,-128.73C798.97,-117.92 769.6,-99.38 749.29,-86.57"/>
<polygon fill="midnightblue" stroke="midnightblue" points="751,-83.5 740.67,-81.13 747.26,-89.42 751,-83.5"/>
</g>
<!-- Node15&#45;&gt;Node12 -->
<g id="edge20" class="edge">
<title>Node15&#45;&gt;Node12</title>
<path fill="none" stroke="midnightblue" d="M307.89,-261.55C323.19,-260.08 340.33,-258.45 356,-257 445.75,-248.7 679.85,-262.22 760,-221 787.81,-206.7 809.22,-176.17 820.68,-156.8"/>
<polygon fill="midnightblue" stroke="midnightblue" points="823.74,-158.5 825.62,-148.08 817.65,-155.05 823.74,-158.5"/>
</g>
<!-- Node16 -->
<g id="node16" class="node">
<title>Node16</title>
<g id="a_node16"><a xlink:title=" ">
<polygon fill="none" stroke="#bfbfbf" points="144.5,-196 144.5,-215 209.5,-215 209.5,-196 144.5,-196"/>
<text text-anchor="middle" x="177" y="-203" font-family="Helvetica,sans-Serif" font-size="10.00">stdexcept</text>
</a>
</g>
</g>
<!-- Node15&#45;&gt;Node16 -->
<g id="edge18" class="edge">
<title>Node15&#45;&gt;Node16</title>
<path fill="none" stroke="midnightblue" d="M249.82,-257.48C236.19,-247.93 213.87,-232.31 197.53,-220.87"/>
<polygon fill="midnightblue" stroke="midnightblue" points="199.36,-217.88 189.16,-215.01 195.34,-223.61 199.36,-217.88"/>
</g>
<!-- Node17 -->
<g id="node17" class="node">
<title>Node17</title>
<g id="a_node17"><a xlink:title=" ">
<polygon fill="none" stroke="#bfbfbf" points="227.5,-196 227.5,-215 306.5,-215 306.5,-196 227.5,-196"/>
<text text-anchor="middle" x="267" y="-203" font-family="Helvetica,sans-Serif" font-size="10.00">fmt/format.h</text>
</a>
</g>
</g>
<!-- Node15&#45;&gt;Node17 -->
<g id="edge19" class="edge">
<title>Node15&#45;&gt;Node17</title>
<path fill="none" stroke="midnightblue" d="M262.72,-257.48C263.42,-249.08 264.52,-235.98 265.43,-225.16"/>
<polygon fill="midnightblue" stroke="midnightblue" points="268.94,-225.27 266.28,-215.01 261.96,-224.68 268.94,-225.27"/>
</g>
<!-- Node19 -->
<g id="node19" class="node">
<title>Node19</title>
<g id="a_node19"><a xlink:href="instruction_8hpp.html" target="_top" xlink:title=" ">
<polygon fill="none" stroke="black" points="1865.5,-62 1865.5,-81 1954.5,-81 1954.5,-62 1865.5,-62"/>
<text text-anchor="middle" x="1910" y="-69" font-family="Helvetica,sans-Serif" font-size="10.00">instruction.hpp</text>
</a>
</g>
</g>
<!-- Node18&#45;&gt;Node19 -->
<g id="edge22" class="edge">
<title>Node18&#45;&gt;Node19</title>
<path fill="none" stroke="midnightblue" d="M1933.99,-195.87C1914.88,-188.18 1890.66,-174.87 1879,-154 1867.18,-132.84 1882.27,-106.27 1895.23,-89.34"/>
<polygon fill="midnightblue" stroke="midnightblue" points="1898.06,-91.4 1901.66,-81.44 1892.63,-86.98 1898.06,-91.4"/>
</g>
<!-- Node20 -->
<g id="node20" class="node">
<title>Node20</title>
<g id="a_node20"><a xlink:href="branch__and__exchange_8hpp.html" target="_top" xlink:title=" ">
<polygon fill="none" stroke="black" points="1888,-129 1888,-148 2034,-148 2034,-129 1888,-129"/>
<text text-anchor="middle" x="1961" y="-136" font-family="Helvetica,sans-Serif" font-size="10.00">branch_and_exchange.hpp</text>
</a>
</g>
</g>
<!-- Node18&#45;&gt;Node20 -->
<g id="edge24" class="edge">
<title>Node18&#45;&gt;Node20</title>
<path fill="none" stroke="midnightblue" d="M1961,-195.73C1961,-186.18 1961,-170.62 1961,-158.28"/>
<polygon fill="midnightblue" stroke="midnightblue" points="1964.5,-158.13 1961,-148.13 1957.5,-158.13 1964.5,-158.13"/>
</g>
<!-- Node21 -->
<g id="node21" class="node">
<title>Node21</title>
<g id="a_node21"><a xlink:href="branch_8hpp.html" target="_top" xlink:title=" ">
<polygon fill="none" stroke="black" points="2052.5,-129 2052.5,-148 2123.5,-148 2123.5,-129 2052.5,-129"/>
<text text-anchor="middle" x="2088" y="-136" font-family="Helvetica,sans-Serif" font-size="10.00">branch.hpp</text>
</a>
</g>
</g>
<!-- Node18&#45;&gt;Node21 -->
<g id="edge26" class="edge">
<title>Node18&#45;&gt;Node21</title>
<path fill="none" stroke="midnightblue" d="M1977.86,-195.87C1999.4,-184.84 2036.9,-165.66 2062.08,-152.77"/>
<polygon fill="midnightblue" stroke="midnightblue" points="2063.76,-155.84 2071.07,-148.17 2060.57,-149.61 2063.76,-155.84"/>
</g>
<!-- Node22 -->
<g id="node22" class="node">
<title>Node22</title>
<g id="a_node22"><a xlink:href="data__processing_8hpp.html" target="_top" xlink:title=" ">
<polygon fill="none" stroke="black" points="2141.5,-129 2141.5,-148 2258.5,-148 2258.5,-129 2141.5,-129"/>
<text text-anchor="middle" x="2200" y="-136" font-family="Helvetica,sans-Serif" font-size="10.00">data_processing.hpp</text>
</a>
</g>
</g>
<!-- Node18&#45;&gt;Node22 -->
<g id="edge28" class="edge">
<title>Node18&#45;&gt;Node22</title>
<path fill="none" stroke="midnightblue" d="M1992.74,-195.87C2035.44,-184.25 2111.48,-163.58 2158.62,-150.75"/>
<polygon fill="midnightblue" stroke="midnightblue" points="2159.78,-154.07 2168.51,-148.06 2157.94,-147.31 2159.78,-154.07"/>
</g>
<!-- Node23 -->
<g id="node23" class="node">
<title>Node23</title>
<g id="a_node23"><a xlink:href="multiply_8hpp.html" target="_top" xlink:title=" ">
<polygon fill="none" stroke="black" points="2276.5,-129 2276.5,-148 2353.5,-148 2353.5,-129 2276.5,-129"/>
<text text-anchor="middle" x="2315" y="-136" font-family="Helvetica,sans-Serif" font-size="10.00">multiply.hpp</text>
</a>
</g>
</g>
<!-- Node18&#45;&gt;Node23 -->
<g id="edge30" class="edge">
<title>Node18&#45;&gt;Node23</title>
<path fill="none" stroke="midnightblue" d="M1995.83,-200.34C2053.09,-193.16 2170.47,-176.95 2268,-154 2271.82,-153.1 2275.78,-152.06 2279.71,-150.95"/>
<polygon fill="midnightblue" stroke="midnightblue" points="2280.72,-154.3 2289.32,-148.12 2278.73,-147.59 2280.72,-154.3"/>
</g>
<!-- Node24 -->
<g id="node24" class="node">
<title>Node24</title>
<g id="a_node24"><a xlink:href="multiply__long_8hpp.html" target="_top" xlink:title=" ">
<polygon fill="none" stroke="black" points="2372,-129 2372,-148 2476,-148 2476,-129 2372,-129"/>
<text text-anchor="middle" x="2424" y="-136" font-family="Helvetica,sans-Serif" font-size="10.00">multiply_long.hpp</text>
</a>
</g>
</g>
<!-- Node18&#45;&gt;Node24 -->
<g id="edge32" class="edge">
<title>Node18&#45;&gt;Node24</title>
<path fill="none" stroke="midnightblue" d="M1995.61,-201.43C2065.43,-194.95 2228.03,-178.44 2363,-154 2368.83,-152.94 2374.94,-151.68 2380.95,-150.35"/>
<polygon fill="midnightblue" stroke="midnightblue" points="2381.94,-153.71 2390.9,-148.06 2380.37,-146.89 2381.94,-153.71"/>
</g>
<!-- Node25 -->
<g id="node25" class="node">
<title>Node25</title>
<g id="a_node25"><a xlink:href="single__data__transfer_8hpp.html" target="_top" xlink:title=" ">
<polygon fill="none" stroke="black" points="2494.5,-129 2494.5,-148 2631.5,-148 2631.5,-129 2494.5,-129"/>
<text text-anchor="middle" x="2563" y="-136" font-family="Helvetica,sans-Serif" font-size="10.00">single_data_transfer.hpp</text>
</a>
</g>
</g>
<!-- Node18&#45;&gt;Node25 -->
<g id="edge34" class="edge">
<title>Node18&#45;&gt;Node25</title>
<path fill="none" stroke="midnightblue" d="M1995.77,-202.21C2079.99,-196.43 2301.51,-179.85 2485,-154 2493.43,-152.81 2502.34,-151.35 2511,-149.82"/>
<polygon fill="midnightblue" stroke="midnightblue" points="2511.8,-153.23 2521.01,-148 2510.55,-146.35 2511.8,-153.23"/>
</g>
<!-- Node26 -->
<g id="node26" class="node">
<title>Node26</title>
<g id="a_node26"><a xlink:href="block__data__transfer_8hpp.html" target="_top" xlink:title=" ">
<polygon fill="none" stroke="black" points="2650,-129 2650,-148 2784,-148 2784,-129 2650,-129"/>
<text text-anchor="middle" x="2717" y="-136" font-family="Helvetica,sans-Serif" font-size="10.00">block_data_transfer.hpp</text>
</a>
</g>
</g>
<!-- Node18&#45;&gt;Node26 -->
<g id="edge36" class="edge">
<title>Node18&#45;&gt;Node26</title>
<path fill="none" stroke="midnightblue" d="M1995.82,-203.32C2096.28,-199.62 2395.13,-186.48 2641,-154 2649.42,-152.89 2658.32,-151.44 2666.95,-149.89"/>
<polygon fill="midnightblue" stroke="midnightblue" points="2667.72,-153.31 2676.91,-148.04 2666.44,-146.43 2667.72,-153.31"/>
</g>
<!-- Node27 -->
<g id="node27" class="node">
<title>Node27</title>
<g id="a_node27"><a xlink:href="halfword__data__transfer_8hpp.html" target="_top" xlink:title=" ">
<polygon fill="none" stroke="black" points="2802.5,-129 2802.5,-148 2951.5,-148 2951.5,-129 2802.5,-129"/>
<text text-anchor="middle" x="2877" y="-136" font-family="Helvetica,sans-Serif" font-size="10.00">halfword_data_transfer.hpp</text>
</a>
</g>
</g>
<!-- Node18&#45;&gt;Node27 -->
<g id="edge38" class="edge">
<title>Node18&#45;&gt;Node27</title>
<path fill="none" stroke="midnightblue" d="M1995.6,-203.77C2109.8,-201.05 2485.03,-189.82 2793,-154 2802.71,-152.87 2813,-151.36 2822.93,-149.74"/>
<polygon fill="midnightblue" stroke="midnightblue" points="2823.82,-153.14 2833.1,-148.02 2822.66,-146.23 2823.82,-153.14"/>
</g>
<!-- Node28 -->
<g id="node28" class="node">
<title>Node28</title>
<g id="a_node28"><a xlink:href="extend_8hpp.html" target="_top" xlink:title=" ">
<polygon fill="none" stroke="black" points="2969.5,-129 2969.5,-148 3040.5,-148 3040.5,-129 2969.5,-129"/>
<text text-anchor="middle" x="3005" y="-136" font-family="Helvetica,sans-Serif" font-size="10.00">extend.hpp</text>
</a>
</g>
</g>
<!-- Node18&#45;&gt;Node28 -->
<g id="edge40" class="edge">
<title>Node18&#45;&gt;Node28</title>
<path fill="none" stroke="midnightblue" d="M1995.51,-204C2148.92,-201.56 2769.82,-189.66 2961,-154 2964.98,-153.26 2969.09,-152.25 2973.13,-151.1"/>
<polygon fill="midnightblue" stroke="midnightblue" points="2974.41,-154.37 2982.92,-148.06 2972.33,-147.69 2974.41,-154.37"/>
</g>
<!-- Node29 -->
<g id="node29" class="node">
<title>Node29</title>
<g id="a_node29"><a xlink:href="psr__transfer_8hpp.html" target="_top" xlink:title=" ">
<polygon fill="none" stroke="black" points="3058.5,-129 3058.5,-148 3153.5,-148 3153.5,-129 3058.5,-129"/>
<text text-anchor="middle" x="3106" y="-136" font-family="Helvetica,sans-Serif" font-size="10.00">psr_transfer.hpp</text>
</a>
</g>
</g>
<!-- Node18&#45;&gt;Node29 -->
<g id="edge42" class="edge">
<title>Node18&#45;&gt;Node29</title>
<path fill="none" stroke="midnightblue" d="M1995.51,-203.86C2157.03,-200.73 2839.35,-185.81 3050,-154 3055.85,-153.12 3061.98,-151.87 3067.94,-150.48"/>
<polygon fill="midnightblue" stroke="midnightblue" points="3068.89,-153.85 3077.75,-148.03 3067.2,-147.06 3068.89,-153.85"/>
</g>
<!-- Node30 -->
<g id="node30" class="node">
<title>Node30</title>
<g id="a_node30"><a xlink:href="cps_8hpp.html" target="_top" xlink:title=" ">
<polygon fill="none" stroke="black" points="1569,-129 1569,-148 1623,-148 1623,-129 1569,-129"/>
<text text-anchor="middle" x="1596" y="-136" font-family="Helvetica,sans-Serif" font-size="10.00">cps.hpp</text>
</a>
</g>
</g>
<!-- Node18&#45;&gt;Node30 -->
<g id="edge44" class="edge">
<title>Node18&#45;&gt;Node30</title>
<path fill="none" stroke="midnightblue" d="M1926.35,-201.83C1865.78,-196.57 1737.05,-182.8 1632,-154 1629.5,-153.31 1626.93,-152.51 1624.38,-151.63"/>
<polygon fill="midnightblue" stroke="midnightblue" points="1625.37,-148.26 1614.77,-148.01 1622.9,-154.81 1625.37,-148.26"/>
</g>
<!-- Node31 -->
<g id="node31" class="node">
<title>Node31</title>
<g id="a_node31"><a xlink:href="coprocessor__register__transfer_8hpp.html" target="_top" xlink:title=" ">
<polygon fill="none" stroke="black" points="1249,-123.5 1249,-153.5 1367,-153.5 1367,-123.5 1249,-123.5"/>
<text text-anchor="start" x="1257" y="-141.5" font-family="Helvetica,sans-Serif" font-size="10.00">coprocessor_register</text>
<text text-anchor="middle" x="1308" y="-130.5" font-family="Helvetica,sans-Serif" font-size="10.00">_transfer.hpp</text>
</a>
</g>
</g>
<!-- Node18&#45;&gt;Node31 -->
<g id="edge46" class="edge">
<title>Node18&#45;&gt;Node31</title>
<path fill="none" stroke="midnightblue" d="M1926.21,-203C1836.74,-198.84 1591.28,-185.38 1377.42,-154.09"/>
<polygon fill="midnightblue" stroke="midnightblue" points="1377.66,-150.59 1367.26,-152.59 1376.64,-157.51 1377.66,-150.59"/>
</g>
<!-- Node32 -->
<g id="node32" class="node">
<title>Node32</title>
<g id="a_node32"><a xlink:href="coprocessor__data__transfer_8hpp.html" target="_top" xlink:title=" ">
<polygon fill="none" stroke="black" points="1385,-129 1385,-148 1551,-148 1551,-129 1385,-129"/>
<text text-anchor="middle" x="1468" y="-136" font-family="Helvetica,sans-Serif" font-size="10.00">coprocessor_data_transfer.hpp</text>
</a>
</g>
</g>
<!-- Node18&#45;&gt;Node32 -->
<g id="edge48" class="edge">
<title>Node18&#45;&gt;Node32</title>
<path fill="none" stroke="midnightblue" d="M1926.35,-200.5C1856.81,-192.4 1695.3,-173.18 1560,-154 1550.49,-152.65 1540.45,-151.15 1530.63,-149.64"/>
<polygon fill="midnightblue" stroke="midnightblue" points="1530.92,-146.14 1520.5,-148.06 1529.84,-153.06 1530.92,-146.14"/>
</g>
<!-- Node33 -->
<g id="node33" class="node">
<title>Node33</title>
<g id="a_node33"><a xlink:href="coprocessor__data__operation_8hpp.html" target="_top" xlink:title=" ">
<polygon fill="none" stroke="black" points="1055.5,-129 1055.5,-148 1230.5,-148 1230.5,-129 1055.5,-129"/>
<text text-anchor="middle" x="1143" y="-136" font-family="Helvetica,sans-Serif" font-size="10.00">coprocessor_data_operation.hpp</text>
</a>
</g>
</g>
<!-- Node18&#45;&gt;Node33 -->
<g id="edge50" class="edge">
<title>Node18&#45;&gt;Node33</title>
<path fill="none" stroke="midnightblue" d="M1926.39,-203.04C1822.33,-198.45 1503.19,-182.84 1240,-154 1228.61,-152.75 1216.51,-151.16 1204.85,-149.49"/>
<polygon fill="midnightblue" stroke="midnightblue" points="1205.16,-145.99 1194.75,-148 1204.14,-152.92 1205.16,-145.99"/>
</g>
<!-- Node34 -->
<g id="node34" class="node">
<title>Node34</title>
<g id="a_node34"><a xlink:href="srs_8hpp.html" target="_top" xlink:title=" ">
<polygon fill="none" stroke="black" points="1641,-129 1641,-148 1693,-148 1693,-129 1641,-129"/>
<text text-anchor="middle" x="1667" y="-136" font-family="Helvetica,sans-Serif" font-size="10.00">srs.hpp</text>
</a>
</g>
</g>
<!-- Node18&#45;&gt;Node34 -->
<g id="edge52" class="edge">
<title>Node18&#45;&gt;Node34</title>
<path fill="none" stroke="midnightblue" d="M1926.28,-199.84C1876.26,-192.65 1781.33,-177.21 1703,-154 1700.57,-153.28 1698.08,-152.46 1695.59,-151.58"/>
<polygon fill="midnightblue" stroke="midnightblue" points="1696.78,-148.29 1686.19,-148.01 1694.3,-154.83 1696.78,-148.29"/>
</g>
<!-- Node35 -->
<g id="node35" class="node">
<title>Node35</title>
<g id="a_node35"><a xlink:href="rfe_8hpp.html" target="_top" xlink:title=" ">
<polygon fill="none" stroke="black" points="1711.5,-129 1711.5,-148 1762.5,-148 1762.5,-129 1711.5,-129"/>
<text text-anchor="middle" x="1737" y="-136" font-family="Helvetica,sans-Serif" font-size="10.00">rfe.hpp</text>
</a>
</g>
</g>
<!-- Node18&#45;&gt;Node35 -->
<g id="edge54" class="edge">
<title>Node18&#45;&gt;Node35</title>
<path fill="none" stroke="midnightblue" d="M1926.45,-196.72C1888.25,-187.77 1825.07,-172 1772,-154 1770.08,-153.35 1768.12,-152.65 1766.16,-151.91"/>
<polygon fill="midnightblue" stroke="midnightblue" points="1767.04,-148.5 1756.45,-148.09 1764.47,-155.01 1767.04,-148.5"/>
</g>
<!-- Node36 -->
<g id="node36" class="node">
<title>Node36</title>
<g id="a_node36"><a xlink:href="clz_8hpp.html" target="_top" xlink:title=" ">
<polygon fill="none" stroke="black" points="1780.5,-129 1780.5,-148 1831.5,-148 1831.5,-129 1780.5,-129"/>
<text text-anchor="middle" x="1806" y="-136" font-family="Helvetica,sans-Serif" font-size="10.00">clz.hpp</text>
</a>
</g>
</g>
<!-- Node18&#45;&gt;Node36 -->
<g id="edge56" class="edge">
<title>Node18&#45;&gt;Node36</title>
<path fill="none" stroke="midnightblue" d="M1940.42,-195.87C1913.67,-184.65 1866.75,-164.98 1836.03,-152.09"/>
<polygon fill="midnightblue" stroke="midnightblue" points="1837.24,-148.81 1826.67,-148.17 1834.54,-155.26 1837.24,-148.81"/>
</g>
<!-- Node19&#45;&gt;Node8 -->
<g id="edge23" class="edge">
<title>Node19&#45;&gt;Node8</title>
<path fill="none" stroke="midnightblue" d="M1865.31,-67.94C1691.43,-58 1061.92,-21.98 905.41,-13.03"/>
<polygon fill="midnightblue" stroke="midnightblue" points="905.57,-9.53 895.39,-12.45 905.17,-16.52 905.57,-9.53"/>
</g>
<!-- Node20&#45;&gt;Node19 -->
<g id="edge25" class="edge">
<title>Node20&#45;&gt;Node19</title>
<path fill="none" stroke="midnightblue" d="M1954.12,-128.73C1946.17,-118.6 1932.9,-101.69 1922.99,-89.06"/>
<polygon fill="midnightblue" stroke="midnightblue" points="1925.7,-86.83 1916.77,-81.13 1920.19,-91.16 1925.7,-86.83"/>
</g>
<!-- Node21&#45;&gt;Node19 -->
<g id="edge27" class="edge">
<title>Node21&#45;&gt;Node19</title>
<path fill="none" stroke="midnightblue" d="M2064.36,-128.87C2033.29,-117.52 1978.53,-97.52 1943.28,-84.65"/>
<polygon fill="midnightblue" stroke="midnightblue" points="1944.05,-81.21 1933.45,-81.06 1941.64,-87.78 1944.05,-81.21"/>
</g>
<!-- Node22&#45;&gt;Node19 -->
<g id="edge29" class="edge">
<title>Node22&#45;&gt;Node19</title>
<path fill="none" stroke="midnightblue" d="M2161.79,-128.94C2109.41,-117.2 2015.32,-96.11 1958.17,-83.3"/>
<polygon fill="midnightblue" stroke="midnightblue" points="1958.82,-79.86 1948.3,-81.08 1957.29,-86.69 1958.82,-79.86"/>
</g>
<!-- Node23&#45;&gt;Node19 -->
<g id="edge31" class="edge">
<title>Node23&#45;&gt;Node19</title>
<path fill="none" stroke="midnightblue" d="M2289.83,-128.93C2282.82,-126.76 2275.17,-124.6 2268,-123 2161.88,-99.3 2035.45,-84.55 1964.79,-77.49"/>
<polygon fill="midnightblue" stroke="midnightblue" points="1965.07,-74 1954.78,-76.51 1964.39,-80.97 1965.07,-74"/>
</g>
<!-- Node24&#45;&gt;Node19 -->
<g id="edge33" class="edge">
<title>Node24&#45;&gt;Node19</title>
<path fill="none" stroke="midnightblue" d="M2391.23,-128.93C2382.13,-126.77 2372.22,-124.6 2363,-123 2220.28,-98.18 2050.04,-83.03 1964.61,-76.42"/>
<polygon fill="midnightblue" stroke="midnightblue" points="1964.86,-72.93 1954.62,-75.65 1964.33,-79.91 1964.86,-72.93"/>
</g>
<!-- Node25&#45;&gt;Node19 -->
<g id="edge35" class="edge">
<title>Node25&#45;&gt;Node19</title>
<path fill="none" stroke="midnightblue" d="M2521.02,-128.93C2509.39,-126.76 2496.74,-124.6 2485,-123 2294.69,-97.02 2067.03,-81.63 1964.63,-75.54"/>
<polygon fill="midnightblue" stroke="midnightblue" points="1964.72,-72.04 1954.53,-74.95 1964.31,-79.03 1964.72,-72.04"/>
</g>
<!-- Node26&#45;&gt;Node19 -->
<g id="edge37" class="edge">
<title>Node26&#45;&gt;Node19</title>
<path fill="none" stroke="midnightblue" d="M2677.31,-129C2665.65,-126.76 2652.86,-124.53 2641,-123 2389.7,-90.47 2086.89,-77.99 1964.88,-74.05"/>
<polygon fill="midnightblue" stroke="midnightblue" points="1964.79,-70.55 1954.68,-73.73 1964.57,-77.54 1964.79,-70.55"/>
</g>
<!-- Node27&#45;&gt;Node19 -->
<g id="edge39" class="edge">
<title>Node27&#45;&gt;Node19</title>
<path fill="none" stroke="midnightblue" d="M2833.1,-128.95C2820.23,-126.71 2806.09,-124.5 2793,-123 2481.15,-87.28 2104.29,-76.41 1965.11,-73.47"/>
<polygon fill="midnightblue" stroke="midnightblue" points="1964.79,-69.97 1954.72,-73.26 1964.64,-76.97 1964.79,-69.97"/>
</g>
<!-- Node28&#45;&gt;Node19 -->
<g id="edge41" class="edge">
<title>Node28&#45;&gt;Node19</title>
<path fill="none" stroke="midnightblue" d="M2982.92,-128.93C2976,-126.6 2968.28,-124.35 2961,-123 2767.08,-87.08 2152.62,-75.83 1964.96,-73.18"/>
<polygon fill="midnightblue" stroke="midnightblue" points="1964.83,-69.68 1954.78,-73.04 1964.74,-76.68 1964.83,-69.68"/>
</g>
<!-- Node29&#45;&gt;Node19 -->
<g id="edge43" class="edge">
<title>Node29&#45;&gt;Node19</title>
<path fill="none" stroke="midnightblue" d="M3077.75,-128.96C3068.94,-126.63 3059.14,-124.37 3050,-123 2836.83,-91.04 2162.36,-76.93 1964.85,-73.41"/>
<polygon fill="midnightblue" stroke="midnightblue" points="1964.77,-69.91 1954.71,-73.23 1964.65,-76.91 1964.77,-69.91"/>
</g>
<!-- Node30&#45;&gt;Node19 -->
<g id="edge45" class="edge">
<title>Node30&#45;&gt;Node19</title>
<path fill="none" stroke="midnightblue" d="M1615.18,-128.94C1620.54,-126.77 1626.43,-124.61 1632,-123 1707.86,-101.08 1798.25,-86.76 1854.89,-79.15"/>
<polygon fill="midnightblue" stroke="midnightblue" points="1855.6,-82.58 1865.06,-77.8 1854.69,-75.64 1855.6,-82.58"/>
</g>
<!-- Node31&#45;&gt;Node19 -->
<g id="edge47" class="edge">
<title>Node31&#45;&gt;Node19</title>
<path fill="none" stroke="midnightblue" d="M1367.26,-124.44C1370.21,-123.92 1373.14,-123.44 1376,-123 1550.07,-96.3 1758.36,-81.49 1855.33,-75.57"/>
<polygon fill="midnightblue" stroke="midnightblue" points="1855.71,-79.06 1865.48,-74.96 1855.29,-72.07 1855.71,-79.06"/>
</g>
<!-- Node32&#45;&gt;Node19 -->
<g id="edge49" class="edge">
<title>Node32&#45;&gt;Node19</title>
<path fill="none" stroke="midnightblue" d="M1521.49,-128.95C1534.12,-126.96 1547.53,-124.88 1560,-123 1664.37,-107.25 1786.41,-89.88 1855.31,-80.17"/>
<polygon fill="midnightblue" stroke="midnightblue" points="1856.08,-83.59 1865.5,-78.73 1855.11,-76.66 1856.08,-83.59"/>
</g>
<!-- Node33&#45;&gt;Node19 -->
<g id="edge51" class="edge">
<title>Node33&#45;&gt;Node19</title>
<path fill="none" stroke="midnightblue" d="M1195.26,-128.97C1209.73,-126.81 1225.45,-124.63 1240,-123 1467.63,-97.44 1740.27,-81.38 1854.93,-75.28"/>
<polygon fill="midnightblue" stroke="midnightblue" points="1855.4,-78.76 1865.2,-74.74 1855.03,-71.77 1855.4,-78.76"/>
</g>
<!-- Node34&#45;&gt;Node19 -->
<g id="edge53" class="edge">
<title>Node34&#45;&gt;Node19</title>
<path fill="none" stroke="midnightblue" d="M1687,-128.85C1692.16,-126.79 1697.74,-124.69 1703,-123 1754.73,-106.37 1815.24,-92.2 1857.43,-83.14"/>
<polygon fill="midnightblue" stroke="midnightblue" points="1858.43,-86.5 1867.48,-81 1856.97,-79.66 1858.43,-86.5"/>
</g>
<!-- Node35&#45;&gt;Node19 -->
<g id="edge55" class="edge">
<title>Node35&#45;&gt;Node19</title>
<path fill="none" stroke="midnightblue" d="M1757.3,-128.92C1762.1,-126.94 1767.22,-124.86 1772,-123 1807.14,-109.3 1847.72,-94.58 1875.73,-84.59"/>
<polygon fill="midnightblue" stroke="midnightblue" points="1877.2,-87.78 1885.45,-81.13 1874.86,-81.18 1877.2,-87.78"/>
</g>
<!-- Node36&#45;&gt;Node19 -->
<g id="edge57" class="edge">
<title>Node36&#45;&gt;Node19</title>
<path fill="none" stroke="midnightblue" d="M1820.03,-128.73C1837.33,-117.92 1866.99,-99.38 1887.49,-86.57"/>
<polygon fill="midnightblue" stroke="midnightblue" points="1889.57,-89.4 1896.2,-81.13 1885.86,-83.46 1889.57,-89.4"/>
</g>
<!-- Node37&#45;&gt;Node8 -->
<g id="edge60" class="edge">
<title>Node37&#45;&gt;Node8</title>
<path fill="none" stroke="midnightblue" d="M937.05,-128.81C925.34,-108.22 895.72,-56.19 880.06,-28.68"/>
<polygon fill="midnightblue" stroke="midnightblue" points="882.97,-26.72 874.98,-19.76 876.89,-30.18 882.97,-26.72"/>
</g>
<!-- Node37&#45;&gt;Node13 -->
<g id="edge59" class="edge">
<title>Node37&#45;&gt;Node13</title>
<path fill="none" stroke="midnightblue" d="M925.68,-128.73C905.18,-117.72 869.8,-98.71 845.91,-85.88"/>
<polygon fill="midnightblue" stroke="midnightblue" points="847.53,-82.78 837.06,-81.13 844.21,-88.94 847.53,-82.78"/>
</g>
<!-- Node37&#45;&gt;Node19 -->
<g id="edge61" class="edge">
<title>Node37&#45;&gt;Node19</title>
<path fill="none" stroke="midnightblue" d="M997.76,-128.97C1013.64,-126.76 1030.98,-124.57 1047,-123 1351.61,-93.1 1718.57,-78.79 1855.23,-74.21"/>
<polygon fill="midnightblue" stroke="midnightblue" points="1855.56,-77.7 1865.44,-73.87 1855.33,-70.7 1855.56,-77.7"/>
</g>
<!-- Node38&#45;&gt;Node15 -->
<g id="edge75" class="edge">
<title>Node38&#45;&gt;Node15</title>
<path fill="none" stroke="midnightblue" d="M430.77,-318.98C396.4,-308.59 338.19,-291.01 299.92,-279.45"/>
<polygon fill="midnightblue" stroke="midnightblue" points="300.76,-276.05 290.17,-276.51 298.73,-282.75 300.76,-276.05"/>
</g>
<!-- Node39 -->
<g id="node39" class="node">
<title>Node39</title>
<g id="a_node39"><a xlink:href="cp15_8hpp.html" target="_top" xlink:title=" ">
<polygon fill="none" stroke="black" points="365,-257.5 365,-276.5 493,-276.5 493,-257.5 365,-257.5"/>
<text text-anchor="middle" x="429" y="-264.5" font-family="Helvetica,sans-Serif" font-size="10.00">coprocessors/cp15.hpp</text>
</a>
</g>
</g>
<!-- Node38&#45;&gt;Node39 -->
<g id="edge63" class="edge">
<title>Node38&#45;&gt;Node39</title>
<path fill="none" stroke="midnightblue" d="M454.7,-318.98C450.34,-310.32 443.44,-296.65 437.9,-285.65"/>
<polygon fill="midnightblue" stroke="midnightblue" points="440.92,-283.86 433.29,-276.51 434.67,-287.01 440.92,-283.86"/>
</g>
<!-- Node41 -->
<g id="node41" class="node">
<title>Node41</title>
<g id="a_node41"><a xlink:href="peripheral_8hpp.html" target="_top" xlink:title=" ">
<polygon fill="none" stroke="black" points="477.5,-129 477.5,-148 622.5,-148 622.5,-129 477.5,-129"/>
<text text-anchor="middle" x="550" y="-136" font-family="Helvetica,sans-Serif" font-size="10.00">peripherals/peripheral.hpp</text>
</a>
</g>
</g>
<!-- Node38&#45;&gt;Node41 -->
<g id="edge73" class="edge">
<title>Node38&#45;&gt;Node41</title>
<path fill="none" stroke="midnightblue" d="M468.03,-318.97C477.6,-309.5 492.61,-293.38 502,-277 524.67,-237.46 539.21,-185.44 545.83,-158.11"/>
<polygon fill="midnightblue" stroke="midnightblue" points="549.32,-158.55 548.19,-148.02 542.51,-156.96 549.32,-158.55"/>
</g>
<!-- Node39&#45;&gt;Node5 -->
<g id="edge72" class="edge">
<title>Node39&#45;&gt;Node5</title>
<path fill="none" stroke="midnightblue" d="M422.16,-257.34C415.34,-248.49 404.78,-234.22 397,-221 383.68,-198.38 352.91,-131.74 336.6,-95.92"/>
<polygon fill="midnightblue" stroke="midnightblue" points="339.73,-94.35 332.41,-86.69 333.36,-97.24 339.73,-94.35"/>
</g>
<!-- Node39&#45;&gt;Node7 -->
<g id="edge64" class="edge">
<title>Node39&#45;&gt;Node7</title>
<path fill="none" stroke="midnightblue" d="M428.48,-257.22C426.34,-220.82 418.13,-81.27 415.12,-30.02"/>
<polygon fill="midnightblue" stroke="midnightblue" points="418.6,-29.52 414.51,-19.74 411.61,-29.93 418.6,-29.52"/>
</g>
<!-- Node39&#45;&gt;Node14 -->
<g id="edge65" class="edge">
<title>Node39&#45;&gt;Node14</title>
<path fill="none" stroke="midnightblue" d="M447.38,-257.44C483.92,-240.1 567.68,-198.63 632,-154 661.57,-133.48 692.65,-105.4 710.9,-88.13"/>
<polygon fill="midnightblue" stroke="midnightblue" points="713.52,-90.46 718.33,-81.02 708.69,-85.4 713.52,-90.46"/>
</g>
<!-- Node40 -->
<g id="node40" class="node">
<title>Node40</title>
<g id="a_node40"><a xlink:href="coprocessor_8hpp.html" target="_top" xlink:title=" ">
<polygon fill="none" stroke="black" points="1037.5,-196 1037.5,-215 1132.5,-215 1132.5,-196 1037.5,-196"/>
<text text-anchor="middle" x="1085" y="-203" font-family="Helvetica,sans-Serif" font-size="10.00">coprocessor.hpp</text>
</a>
</g>
</g>
<!-- Node39&#45;&gt;Node40 -->
<g id="edge66" class="edge">
<title>Node39&#45;&gt;Node40</title>
<path fill="none" stroke="midnightblue" d="M493.09,-260.19C620.59,-248.62 904.27,-222.89 1026.79,-211.78"/>
<polygon fill="midnightblue" stroke="midnightblue" points="1027.44,-215.24 1037.08,-210.85 1026.81,-208.26 1027.44,-215.24"/>
</g>
<!-- Node40&#45;&gt;Node8 -->
<g id="edge67" class="edge">
<title>Node40&#45;&gt;Node8</title>
<path fill="none" stroke="midnightblue" d="M1077.27,-195.57C1063.78,-180.17 1034.83,-147.89 1008,-123 967.78,-85.7 916.88,-46.2 889.52,-25.54"/>
<polygon fill="midnightblue" stroke="midnightblue" points="891.61,-22.73 881.51,-19.52 887.4,-28.32 891.61,-22.73"/>
</g>
<!-- Node40&#45;&gt;Node12 -->
<g id="edge68" class="edge">
<title>Node40&#45;&gt;Node12</title>
<path fill="none" stroke="midnightblue" d="M1046.87,-195.98C1005.01,-186.45 935.93,-170.23 877,-154 873.6,-153.06 870.08,-152.05 866.56,-151.02"/>
<polygon fill="midnightblue" stroke="midnightblue" points="867.34,-147.6 856.76,-148.07 865.33,-154.3 867.34,-147.6"/>
</g>
<!-- Node40&#45;&gt;Node31 -->
<g id="edge69" class="edge">
<title>Node40&#45;&gt;Node31</title>
<path fill="none" stroke="midnightblue" d="M1114.61,-195.87C1149.02,-185.84 1206.6,-169.06 1250.01,-156.4"/>
<polygon fill="midnightblue" stroke="midnightblue" points="1251.25,-159.69 1259.87,-153.53 1249.29,-152.97 1251.25,-159.69"/>
</g>
<!-- Node40&#45;&gt;Node32 -->
<g id="edge70" class="edge">
<title>Node40&#45;&gt;Node32</title>
<path fill="none" stroke="midnightblue" d="M1132.73,-196.4C1202.4,-184.58 1331.88,-162.6 1407.93,-149.69"/>
<polygon fill="midnightblue" stroke="midnightblue" points="1408.57,-153.14 1417.84,-148.01 1407.39,-146.24 1408.57,-153.14"/>
</g>
<!-- Node40&#45;&gt;Node33 -->
<g id="edge71" class="edge">
<title>Node40&#45;&gt;Node33</title>
<path fill="none" stroke="midnightblue" d="M1092.82,-195.73C1101.95,-185.5 1117.24,-168.36 1128.55,-155.69"/>
<polygon fill="midnightblue" stroke="midnightblue" points="1131.26,-157.92 1135.3,-148.13 1126.03,-153.26 1131.26,-157.92"/>
</g>
<!-- Node41&#45;&gt;Node8 -->
<g id="edge74" class="edge">
<title>Node41&#45;&gt;Node8</title>
<path fill="none" stroke="midnightblue" d="M560.01,-128.91C579.95,-112.26 626.61,-75.53 672,-56 726.22,-32.68 794.21,-20.61 834.76,-15.06"/>
<polygon fill="midnightblue" stroke="midnightblue" points="835.25,-18.52 844.71,-13.75 834.33,-11.58 835.25,-18.52"/>
</g>
<!-- Node43&#45;&gt;Node5 -->
<g id="edge83" class="edge">
<title>Node43&#45;&gt;Node5</title>
<path fill="none" stroke="midnightblue" d="M682.48,-190.35C674.41,-171.65 657.5,-139.21 632,-123 593.29,-98.4 470.6,-84.18 392.84,-77.41"/>
<polygon fill="midnightblue" stroke="midnightblue" points="392.91,-73.91 382.65,-76.55 392.32,-80.88 392.91,-73.91"/>
</g>
<!-- Node43&#45;&gt;Node12 -->
<g id="edge82" class="edge">
<title>Node43&#45;&gt;Node12</title>
<path fill="none" stroke="midnightblue" d="M718.81,-190.4C743.62,-179.04 778.18,-163.22 802.16,-152.24"/>
<polygon fill="midnightblue" stroke="midnightblue" points="803.78,-155.35 811.42,-148.01 800.87,-148.99 803.78,-155.35"/>
</g>
<!-- Node43&#45;&gt;Node13 -->
<g id="edge79" class="edge">
<title>Node43&#45;&gt;Node13</title>
<path fill="none" stroke="midnightblue" d="M702.23,-190.37C727.25,-165.54 778.94,-114.24 805.1,-88.28"/>
<polygon fill="midnightblue" stroke="midnightblue" points="807.71,-90.63 812.34,-81.1 802.77,-85.66 807.71,-90.63"/>
</g>
<!-- Node43&#45;&gt;Node14 -->
<g id="edge80" class="edge">
<title>Node43&#45;&gt;Node14</title>
<path fill="none" stroke="midnightblue" d="M692.21,-190.35C695.22,-180.23 699.37,-166.28 703,-154 709.39,-132.39 716.7,-107.56 721.56,-91.03"/>
<polygon fill="midnightblue" stroke="midnightblue" points="725.02,-91.65 724.48,-81.07 718.31,-89.68 725.02,-91.65"/>
</g>
<!-- Node43&#45;&gt;Node41 -->
<g id="edge81" class="edge">
<title>Node43&#45;&gt;Node41</title>
<path fill="none" stroke="midnightblue" d="M658.06,-190.4C634.06,-179.09 600.66,-163.36 577.37,-152.39"/>
<polygon fill="midnightblue" stroke="midnightblue" points="578.6,-149.1 568.06,-148.01 575.62,-155.43 578.6,-149.1"/>
</g>
<!-- Node44&#45;&gt;Node8 -->
<g id="edge85" class="edge">
<title>Node44&#45;&gt;Node8</title>
<path fill="none" stroke="midnightblue" d="M576.74,-313.32C529.48,-280.01 423.34,-194.2 469,-123 509.21,-60.3 744.56,-25.97 834.8,-14.96"/>
<polygon fill="midnightblue" stroke="midnightblue" points="835.3,-18.43 844.82,-13.76 834.47,-11.48 835.3,-18.43"/>
</g>
</g>
</svg>
