<?xml version="1.0" encoding="UTF-8" standalone="no"?>
<!DOCTYPE svg PUBLIC "-//W3C//DTD SVG 1.1//EN"
 "http://www.w3.org/Graphics/SVG/1.1/DTD/svg11.dtd">
<!-- Generated by graphviz version 2.43.0 (0)
 -->
<!-- Title: src/gui/windows/control_window.hpp Pages: 1 -->
<svg width="2807pt" height="419pt"
 viewBox="0.00 0.00 2807.25 419.00" xmlns="http://www.w3.org/2000/svg" xmlns:xlink="http://www.w3.org/1999/xlink">
<g id="graph0" class="graph" transform="scale(1 1) rotate(0) translate(4 415)">
<title>src/gui/windows/control_window.hpp</title>
<!-- Node1 -->
<g id="node1" class="node">
<title>Node1</title>
<g id="a_node1"><a xlink:title=" ">
<polygon fill="#bfbfbf" stroke="black" points="79.5,-380.5 79.5,-410.5 210.5,-410.5 210.5,-380.5 79.5,-380.5"/>
<text text-anchor="start" x="87.5" y="-398.5" font-family="Helvetica,sans-Serif" font-size="10.00">src/gui/windows/control</text>
<text text-anchor="middle" x="145" y="-387.5" font-family="Helvetica,sans-Serif" font-size="10.00">_window.hpp</text>
</a>
</g>
</g>
<!-- Node2 -->
<g id="node2" class="node">
<title>Node2</title>
<g id="a_node2"><a xlink:title=" ">
<polygon fill="none" stroke="#bfbfbf" points="0,-319 0,-338 50,-338 50,-319 0,-319"/>
<text text-anchor="middle" x="25" y="-326" font-family="Helvetica,sans-Serif" font-size="10.00">atomic</text>
</a>
</g>
</g>
<!-- Node1&#45;&gt;Node2 -->
<g id="edge1" class="edge">
<title>Node1&#45;&gt;Node2</title>
<path fill="none" stroke="midnightblue" d="M118.96,-380.4C98.37,-369.24 69.83,-353.78 49.62,-342.83"/>
<polygon fill="midnightblue" stroke="midnightblue" points="51.17,-339.69 40.71,-338.01 47.83,-345.85 51.17,-339.69"/>
</g>
<!-- Node3 -->
<g id="node3" class="node">
<title>Node3</title>
<g id="a_node3"><a xlink:href="window_8hpp.html" target="_top" xlink:title=" ">
<polygon fill="none" stroke="black" points="68.5,-319 68.5,-338 151.5,-338 151.5,-319 68.5,-319"/>
<text text-anchor="middle" x="110" y="-326" font-family="Helvetica,sans-Serif" font-size="10.00">../window.hpp</text>
</a>
</g>
</g>
<!-- Node1&#45;&gt;Node3 -->
<g id="edge2" class="edge">
<title>Node1&#45;&gt;Node3</title>
<path fill="none" stroke="midnightblue" d="M137.41,-380.4C132.16,-370.66 125.16,-357.65 119.54,-347.21"/>
<polygon fill="midnightblue" stroke="midnightblue" points="122.5,-345.34 114.68,-338.19 116.34,-348.66 122.5,-345.34"/>
</g>
<!-- Node5 -->
<g id="node5" class="node">
<title>Node5</title>
<g id="a_node5"><a xlink:href="logger_8hpp.html" target="_top" xlink:title=" ">
<polygon fill="none" stroke="black" points="409.5,-0.5 409.5,-30.5 522.5,-30.5 522.5,-0.5 409.5,-0.5"/>
<text text-anchor="start" x="417.5" y="-18.5" font-family="Helvetica,sans-Serif" font-size="10.00">../../core/utils/logger</text>
<text text-anchor="middle" x="466" y="-7.5" font-family="Helvetica,sans-Serif" font-size="10.00">/logger.hpp</text>
</a>
</g>
</g>
<!-- Node1&#45;&gt;Node5 -->
<g id="edge4" class="edge">
<title>Node1&#45;&gt;Node5</title>
<path fill="none" stroke="midnightblue" d="M151.42,-380.18C161.52,-356.3 180,-306.6 180,-262.5 180,-262.5 180,-262.5 180,-143 180,-47.53 314.95,-23.53 399.45,-17.86"/>
<polygon fill="midnightblue" stroke="midnightblue" points="399.72,-21.35 409.5,-17.26 399.3,-14.36 399.72,-21.35"/>
</g>
<!-- Node6 -->
<g id="node6" class="node">
<title>Node6</title>
<g id="a_node6"><a xlink:href="core_8hpp.html" target="_top" xlink:title="This file defines a class that represents a CPU core (arm1176jzf_s).">
<polygon fill="none" stroke="black" points="603,-313.5 603,-343.5 717,-343.5 717,-313.5 603,-313.5"/>
<text text-anchor="start" x="611" y="-331.5" font-family="Helvetica,sans-Serif" font-size="10.00">../../core/arm1176jzf</text>
<text text-anchor="middle" x="660" y="-320.5" font-family="Helvetica,sans-Serif" font-size="10.00">_s/core.hpp</text>
</a>
</g>
</g>
<!-- Node1&#45;&gt;Node6 -->
<g id="edge5" class="edge">
<title>Node1&#45;&gt;Node6</title>
<path fill="none" stroke="midnightblue" d="M210.75,-386.2C309.09,-373.79 493.52,-350.51 592.74,-337.99"/>
<polygon fill="midnightblue" stroke="midnightblue" points="593.46,-341.43 602.94,-336.7 592.58,-334.48 593.46,-341.43"/>
</g>
<!-- Node4 -->
<g id="node4" class="node">
<title>Node4</title>
<g id="a_node4"><a xlink:title=" ">
<polygon fill="none" stroke="#bfbfbf" points="81,-252 81,-271 139,-271 139,-252 81,-252"/>
<text text-anchor="middle" x="110" y="-259" font-family="Helvetica,sans-Serif" font-size="10.00">memory</text>
</a>
</g>
</g>
<!-- Node3&#45;&gt;Node4 -->
<g id="edge3" class="edge">
<title>Node3&#45;&gt;Node4</title>
<path fill="none" stroke="midnightblue" d="M110,-318.73C110,-309.18 110,-293.62 110,-281.28"/>
<polygon fill="midnightblue" stroke="midnightblue" points="113.5,-281.13 110,-271.13 106.5,-281.13 113.5,-281.13"/>
</g>
<!-- Node6&#45;&gt;Node5 -->
<g id="edge60" class="edge">
<title>Node6&#45;&gt;Node5</title>
<path fill="none" stroke="midnightblue" d="M677.32,-313.44C705.78,-288.54 757.02,-235.08 733,-190 708.11,-143.29 571.06,-69.38 503.57,-35.1"/>
<polygon fill="midnightblue" stroke="midnightblue" points="505.04,-31.92 494.53,-30.53 501.88,-38.16 505.04,-31.92"/>
</g>
<!-- Node7 -->
<g id="node7" class="node">
<title>Node7</title>
<g id="a_node7"><a xlink:href="context_8hpp.html" target="_top" xlink:title="This file defines the context (registers) of the CPU.">
<polygon fill="none" stroke="black" points="429,-73 429,-92 503,-92 503,-73 429,-73"/>
<text text-anchor="middle" x="466" y="-80" font-family="Helvetica,sans-Serif" font-size="10.00">context.hpp</text>
</a>
</g>
</g>
<!-- Node6&#45;&gt;Node7 -->
<g id="edge6" class="edge">
<title>Node6&#45;&gt;Node7</title>
<path fill="none" stroke="midnightblue" d="M648.73,-313.33C615.07,-270.99 515.36,-145.59 479.25,-100.17"/>
<polygon fill="midnightblue" stroke="midnightblue" points="481.88,-97.84 472.91,-92.2 476.4,-102.2 481.88,-97.84"/>
</g>
<!-- Node8 -->
<g id="node8" class="node">
<title>Node8</title>
<g id="a_node8"><a xlink:href="exceptions_8hpp.html" target="_top" xlink:title="This file defines all exceptions that can be thrown by the CPU during execution.">
<polygon fill="none" stroke="black" points="246.5,-190.5 246.5,-209.5 337.5,-209.5 337.5,-190.5 246.5,-190.5"/>
<text text-anchor="middle" x="292" y="-197.5" font-family="Helvetica,sans-Serif" font-size="10.00">exceptions.hpp</text>
</a>
</g>
</g>
<!-- Node6&#45;&gt;Node8 -->
<g id="edge8" class="edge">
<title>Node6&#45;&gt;Node8</title>
<path fill="none" stroke="midnightblue" d="M602.92,-326.46C515.99,-323.7 356.04,-313.65 314,-277 297.69,-262.78 293.12,-237.29 292.02,-219.78"/>
<polygon fill="midnightblue" stroke="midnightblue" points="295.52,-219.51 291.71,-209.63 288.52,-219.73 295.52,-219.51"/>
</g>
<!-- Node10 -->
<g id="node10" class="node">
<title>Node10</title>
<g id="a_node10"><a xlink:href="isa_8hpp.html" target="_top" xlink:title="This file is just a helper file for including all ARM instructions supported by the emulator.">
<polygon fill="none" stroke="black" points="1556.5,-134.5 1556.5,-153.5 1625.5,-153.5 1625.5,-134.5 1556.5,-134.5"/>
<text text-anchor="middle" x="1591" y="-141.5" font-family="Helvetica,sans-Serif" font-size="10.00">isa/isa.hpp</text>
</a>
</g>
</g>
<!-- Node6&#45;&gt;Node10 -->
<g id="edge11" class="edge">
<title>Node6&#45;&gt;Node10</title>
<path fill="none" stroke="midnightblue" d="M717.16,-321.16C788.89,-312.84 915.55,-296.92 1023,-277 1221.37,-240.23 1455.09,-180.72 1548.92,-156.15"/>
<polygon fill="midnightblue" stroke="midnightblue" points="1550.09,-159.46 1558.87,-153.54 1548.31,-152.69 1550.09,-159.46"/>
</g>
<!-- Node29 -->
<g id="node29" class="node">
<title>Node29</title>
<g id="a_node29"><a xlink:href="isa__decoder_8hpp.html" target="_top" xlink:title="This file defines an instruction decoder.">
<polygon fill="none" stroke="black" points="2382.5,-190.5 2382.5,-209.5 2495.5,-209.5 2495.5,-190.5 2382.5,-190.5"/>
<text text-anchor="middle" x="2439" y="-197.5" font-family="Helvetica,sans-Serif" font-size="10.00">isa/isa_decoder.hpp</text>
</a>
</g>
</g>
<!-- Node6&#45;&gt;Node29 -->
<g id="edge47" class="edge">
<title>Node6&#45;&gt;Node29</title>
<path fill="none" stroke="midnightblue" d="M717.18,-323.43C981.98,-304.6 2088.35,-225.93 2372.33,-205.74"/>
<polygon fill="midnightblue" stroke="midnightblue" points="2372.75,-209.22 2382.48,-205.02 2372.26,-202.24 2372.75,-209.22"/>
</g>
<!-- Node30 -->
<g id="node30" class="node">
<title>Node30</title>
<g id="a_node30"><a xlink:href="bus_8hpp.html" target="_top" xlink:title="This file defines an interface the CPU uses to access different memory&#45;mapped peripherals.">
<polygon fill="none" stroke="black" points="470,-252 470,-271 534,-271 534,-252 470,-252"/>
<text text-anchor="middle" x="502" y="-259" font-family="Helvetica,sans-Serif" font-size="10.00">../bus.hpp</text>
</a>
</g>
</g>
<!-- Node6&#45;&gt;Node30 -->
<g id="edge49" class="edge">
<title>Node6&#45;&gt;Node30</title>
<path fill="none" stroke="midnightblue" d="M625.72,-313.4C597.87,-301.94 558.97,-285.94 532.27,-274.95"/>
<polygon fill="midnightblue" stroke="midnightblue" points="533.26,-271.57 522.68,-271.01 530.59,-278.05 533.26,-271.57"/>
</g>
<!-- Node34 -->
<g id="node34" class="node">
<title>Node34</title>
<g id="a_node34"><a xlink:href="math_8hpp.html" target="_top" xlink:title="This file defines and implements a variety of handy helper functions that are used throughout the pro...">
<polygon fill="none" stroke="black" points="780,-252 780,-271 876,-271 876,-252 780,-252"/>
<text text-anchor="middle" x="828" y="-259" font-family="Helvetica,sans-Serif" font-size="10.00">../utils/math.hpp</text>
</a>
</g>
</g>
<!-- Node6&#45;&gt;Node34 -->
<g id="edge59" class="edge">
<title>Node6&#45;&gt;Node34</title>
<path fill="none" stroke="midnightblue" d="M696.45,-313.4C726.32,-301.84 768.15,-285.66 796.56,-274.66"/>
<polygon fill="midnightblue" stroke="midnightblue" points="797.95,-277.88 806.01,-271.01 795.42,-271.35 797.95,-277.88"/>
</g>
<!-- Node35 -->
<g id="node35" class="node">
<title>Node35</title>
<g id="a_node35"><a xlink:href="interrupt__controller_8hpp.html" target="_top" xlink:title="This file defines the interrupt controller used in BCM2835.">
<polygon fill="none" stroke="black" points="323.5,-246.5 323.5,-276.5 448.5,-276.5 448.5,-246.5 323.5,-246.5"/>
<text text-anchor="start" x="331.5" y="-264.5" font-family="Helvetica,sans-Serif" font-size="10.00">../peripherals/interrupt</text>
<text text-anchor="middle" x="386" y="-253.5" font-family="Helvetica,sans-Serif" font-size="10.00">_controller.hpp</text>
</a>
</g>
</g>
<!-- Node6&#45;&gt;Node35 -->
<g id="edge61" class="edge">
<title>Node6&#45;&gt;Node35</title>
<path fill="none" stroke="midnightblue" d="M602.89,-313.95C559.94,-303.76 500.87,-289.75 455.22,-278.92"/>
<polygon fill="midnightblue" stroke="midnightblue" points="455.94,-275.49 445.4,-276.59 454.32,-282.3 455.94,-275.49"/>
</g>
<!-- Node36 -->
<g id="node36" class="node">
<title>Node36</title>
<g id="a_node36"><a xlink:href="system__clock__listener_8hpp.html" target="_top" xlink:title="This file defines an interface for a CPU clock listener.">
<polygon fill="none" stroke="black" points="894.5,-246.5 894.5,-276.5 1013.5,-276.5 1013.5,-246.5 894.5,-246.5"/>
<text text-anchor="start" x="902.5" y="-264.5" font-family="Helvetica,sans-Serif" font-size="10.00">../peripherals/system</text>
<text text-anchor="middle" x="954" y="-253.5" font-family="Helvetica,sans-Serif" font-size="10.00">_clock_listener.hpp</text>
</a>
</g>
</g>
<!-- Node6&#45;&gt;Node36 -->
<g id="edge65" class="edge">
<title>Node6&#45;&gt;Node36</title>
<path fill="none" stroke="midnightblue" d="M717.03,-314.89C764.86,-304.32 833.33,-289.18 884.38,-277.89"/>
<polygon fill="midnightblue" stroke="midnightblue" points="885.34,-281.26 894.35,-275.69 883.83,-274.43 885.34,-281.26"/>
</g>
<!-- Node7&#45;&gt;Node5 -->
<g id="edge7" class="edge">
<title>Node7&#45;&gt;Node5</title>
<path fill="none" stroke="midnightblue" d="M466,-72.73C466,-64.54 466,-51.92 466,-40.71"/>
<polygon fill="midnightblue" stroke="midnightblue" points="469.5,-40.59 466,-30.59 462.5,-40.59 469.5,-40.59"/>
</g>
<!-- Node8&#45;&gt;Node7 -->
<g id="edge10" class="edge">
<title>Node8&#45;&gt;Node7</title>
<path fill="none" stroke="midnightblue" d="M302.54,-190.34C318.45,-177.44 349.74,-152.68 378,-134 398.46,-120.48 422.69,-106.73 440.54,-97"/>
<polygon fill="midnightblue" stroke="midnightblue" points="442.6,-99.86 449.74,-92.03 439.28,-93.7 442.6,-99.86"/>
</g>
<!-- Node9 -->
<g id="node9" class="node">
<title>Node9</title>
<g id="a_node9"><a xlink:title=" ">
<polygon fill="none" stroke="#bfbfbf" points="246.5,-134.5 246.5,-153.5 325.5,-153.5 325.5,-134.5 246.5,-134.5"/>
<text text-anchor="middle" x="286" y="-141.5" font-family="Helvetica,sans-Serif" font-size="10.00">fmt/format.h</text>
</a>
</g>
</g>
<!-- Node8&#45;&gt;Node9 -->
<g id="edge9" class="edge">
<title>Node8&#45;&gt;Node9</title>
<path fill="none" stroke="midnightblue" d="M291.01,-190.08C290.21,-182.93 289.07,-172.64 288.08,-163.69"/>
<polygon fill="midnightblue" stroke="midnightblue" points="291.56,-163.3 286.97,-153.75 284.6,-164.08 291.56,-163.3"/>
</g>
<!-- Node11 -->
<g id="node11" class="node">
<title>Node11</title>
<g id="a_node11"><a xlink:href="instruction_8hpp.html" target="_top" xlink:title="This file defines the interface of a general ARM instruction.">
<polygon fill="none" stroke="black" points="1647.5,-6 1647.5,-25 1736.5,-25 1736.5,-6 1647.5,-6"/>
<text text-anchor="middle" x="1692" y="-13" font-family="Helvetica,sans-Serif" font-size="10.00">instruction.hpp</text>
</a>
</g>
</g>
<!-- Node10&#45;&gt;Node11 -->
<g id="edge12" class="edge">
<title>Node10&#45;&gt;Node11</title>
<path fill="none" stroke="midnightblue" d="M1591.11,-134.13C1591.73,-118.95 1594.9,-87.63 1610,-67 1622.42,-50.04 1642.41,-37.56 1659.55,-29.25"/>
<polygon fill="midnightblue" stroke="midnightblue" points="1661.07,-32.4 1668.71,-25.06 1658.16,-26.03 1661.07,-32.4"/>
</g>
<!-- Node12 -->
<g id="node12" class="node">
<title>Node12</title>
<g id="a_node12"><a xlink:href="branch__and__exchange_8hpp.html" target="_top" xlink:title="This file defines a branch and exchange instruction (BX).">
<polygon fill="none" stroke="black" points="1619,-73 1619,-92 1765,-92 1765,-73 1619,-73"/>
<text text-anchor="middle" x="1692" y="-80" font-family="Helvetica,sans-Serif" font-size="10.00">branch_and_exchange.hpp</text>
</a>
</g>
</g>
<!-- Node10&#45;&gt;Node12 -->
<g id="edge13" class="edge">
<title>Node10&#45;&gt;Node12</title>
<path fill="none" stroke="midnightblue" d="M1605.47,-134.48C1621.97,-124.75 1649.18,-108.73 1668.68,-97.24"/>
<polygon fill="midnightblue" stroke="midnightblue" points="1670.72,-100.1 1677.56,-92.01 1667.16,-94.07 1670.72,-100.1"/>
</g>
<!-- Node13 -->
<g id="node13" class="node">
<title>Node13</title>
<g id="a_node13"><a xlink:href="branch_8hpp.html" target="_top" xlink:title="This file defines a branch instruction (B, BL).">
<polygon fill="none" stroke="black" points="1783.5,-73 1783.5,-92 1854.5,-92 1854.5,-73 1783.5,-73"/>
<text text-anchor="middle" x="1819" y="-80" font-family="Helvetica,sans-Serif" font-size="10.00">branch.hpp</text>
</a>
</g>
</g>
<!-- Node10&#45;&gt;Node13 -->
<g id="edge15" class="edge">
<title>Node10&#45;&gt;Node13</title>
<path fill="none" stroke="midnightblue" d="M1625.59,-135.26C1662.53,-126.82 1722.7,-112.55 1774,-98 1777.16,-97.1 1780.43,-96.13 1783.7,-95.13"/>
<polygon fill="midnightblue" stroke="midnightblue" points="1784.9,-98.43 1793.39,-92.1 1782.81,-91.75 1784.9,-98.43"/>
</g>
<!-- Node14 -->
<g id="node14" class="node">
<title>Node14</title>
<g id="a_node14"><a xlink:href="data__processing_8hpp.html" target="_top" xlink:title="This file defines a data processing instruction.">
<polygon fill="none" stroke="black" points="1872.5,-73 1872.5,-92 1989.5,-92 1989.5,-73 1872.5,-73"/>
<text text-anchor="middle" x="1931" y="-80" font-family="Helvetica,sans-Serif" font-size="10.00">data_processing.hpp</text>
</a>
</g>
</g>
<!-- Node10&#45;&gt;Node14 -->
<g id="edge17" class="edge">
<title>Node10&#45;&gt;Node14</title>
<path fill="none" stroke="midnightblue" d="M1625.57,-137.87C1677.49,-130.03 1778.59,-114.27 1864,-98 1870.21,-96.82 1876.74,-95.5 1883.17,-94.15"/>
<polygon fill="midnightblue" stroke="midnightblue" points="1884.1,-97.54 1893.15,-92.03 1882.64,-90.69 1884.1,-97.54"/>
</g>
<!-- Node15 -->
<g id="node15" class="node">
<title>Node15</title>
<g id="a_node15"><a xlink:href="multiply_8hpp.html" target="_top" xlink:title="This file defines a multiplication instruction (MUL, MLA).">
<polygon fill="none" stroke="black" points="2007.5,-73 2007.5,-92 2084.5,-92 2084.5,-73 2007.5,-73"/>
<text text-anchor="middle" x="2046" y="-80" font-family="Helvetica,sans-Serif" font-size="10.00">multiply.hpp</text>
</a>
</g>
</g>
<!-- Node10&#45;&gt;Node15 -->
<g id="edge19" class="edge">
<title>Node10&#45;&gt;Node15</title>
<path fill="none" stroke="midnightblue" d="M1625.73,-141.39C1696.58,-137.62 1862.59,-126.3 1999,-98 2003.14,-97.14 2007.43,-96.07 2011.67,-94.91"/>
<polygon fill="midnightblue" stroke="midnightblue" points="2012.74,-98.24 2021.35,-92.07 2010.77,-91.52 2012.74,-98.24"/>
</g>
<!-- Node16 -->
<g id="node16" class="node">
<title>Node16</title>
<g id="a_node16"><a xlink:href="multiply__long_8hpp.html" target="_top" xlink:title="This file defines a multiplication (long) instruction.">
<polygon fill="none" stroke="black" points="2103,-73 2103,-92 2207,-92 2207,-73 2103,-73"/>
<text text-anchor="middle" x="2155" y="-80" font-family="Helvetica,sans-Serif" font-size="10.00">multiply_long.hpp</text>
</a>
</g>
</g>
<!-- Node10&#45;&gt;Node16 -->
<g id="edge21" class="edge">
<title>Node10&#45;&gt;Node16</title>
<path fill="none" stroke="midnightblue" d="M1625.67,-141.62C1707.6,-137.99 1919.41,-126.41 2094,-98 2100.2,-96.99 2106.71,-95.7 2113.08,-94.3"/>
<polygon fill="midnightblue" stroke="midnightblue" points="2113.92,-97.7 2122.88,-92.05 2112.35,-90.88 2113.92,-97.7"/>
</g>
<!-- Node17 -->
<g id="node17" class="node">
<title>Node17</title>
<g id="a_node17"><a xlink:href="single__data__transfer_8hpp.html" target="_top" xlink:title="This file defines single data transfer instruction (LDR, STR).">
<polygon fill="none" stroke="black" points="2225.5,-73 2225.5,-92 2362.5,-92 2362.5,-73 2225.5,-73"/>
<text text-anchor="middle" x="2294" y="-80" font-family="Helvetica,sans-Serif" font-size="10.00">single_data_transfer.hpp</text>
</a>
</g>
</g>
<!-- Node10&#45;&gt;Node17 -->
<g id="edge23" class="edge">
<title>Node10&#45;&gt;Node17</title>
<path fill="none" stroke="midnightblue" d="M1625.69,-141.87C1720.55,-138.47 1992.11,-126.78 2216,-98 2224.73,-96.88 2233.97,-95.41 2242.92,-93.84"/>
<polygon fill="midnightblue" stroke="midnightblue" points="2243.63,-97.27 2252.85,-92.04 2242.38,-90.38 2243.63,-97.27"/>
</g>
<!-- Node18 -->
<g id="node18" class="node">
<title>Node18</title>
<g id="a_node18"><a xlink:href="block__data__transfer_8hpp.html" target="_top" xlink:title="This file defines a block data transfer instruction (LDM, STM).">
<polygon fill="none" stroke="black" points="2381,-73 2381,-92 2515,-92 2515,-73 2381,-73"/>
<text text-anchor="middle" x="2448" y="-80" font-family="Helvetica,sans-Serif" font-size="10.00">block_data_transfer.hpp</text>
</a>
</g>
</g>
<!-- Node10&#45;&gt;Node18 -->
<g id="edge25" class="edge">
<title>Node10&#45;&gt;Node18</title>
<path fill="none" stroke="midnightblue" d="M1625.79,-142.62C1735.71,-141.06 2085.24,-133.46 2372,-98 2380.72,-96.92 2389.94,-95.45 2398.84,-93.85"/>
<polygon fill="midnightblue" stroke="midnightblue" points="2399.52,-97.29 2408.71,-92.01 2398.24,-90.4 2399.52,-97.29"/>
</g>
<!-- Node19 -->
<g id="node19" class="node">
<title>Node19</title>
<g id="a_node19"><a xlink:href="halfword__data__transfer_8hpp.html" target="_top" xlink:title="This file defines a Halfword data transfer instruction.">
<polygon fill="none" stroke="black" points="2533.5,-73 2533.5,-92 2682.5,-92 2682.5,-73 2533.5,-73"/>
<text text-anchor="middle" x="2608" y="-80" font-family="Helvetica,sans-Serif" font-size="10.00">halfword_data_transfer.hpp</text>
</a>
</g>
</g>
<!-- Node10&#45;&gt;Node19 -->
<g id="edge27" class="edge">
<title>Node10&#45;&gt;Node19</title>
<path fill="none" stroke="midnightblue" d="M1625.86,-142.86C1749.01,-142.03 2175.01,-136.39 2524,-98 2533.93,-96.91 2544.46,-95.38 2554.59,-93.73"/>
<polygon fill="midnightblue" stroke="midnightblue" points="2555.27,-97.17 2564.55,-92.05 2554.1,-90.26 2555.27,-97.17"/>
</g>
<!-- Node20 -->
<g id="node20" class="node">
<title>Node20</title>
<g id="a_node20"><a xlink:href="extend_8hpp.html" target="_top" xlink:title="This file defines an extend instruction.">
<polygon fill="none" stroke="black" points="2700.5,-73 2700.5,-92 2771.5,-92 2771.5,-73 2700.5,-73"/>
<text text-anchor="middle" x="2736" y="-80" font-family="Helvetica,sans-Serif" font-size="10.00">extend.hpp</text>
</a>
</g>
</g>
<!-- Node10&#45;&gt;Node20 -->
<g id="edge29" class="edge">
<title>Node10&#45;&gt;Node20</title>
<path fill="none" stroke="midnightblue" d="M1625.66,-142.87C1788.68,-142.08 2480.01,-136.49 2692,-98 2695.98,-97.28 2700.1,-96.28 2704.14,-95.14"/>
<polygon fill="midnightblue" stroke="midnightblue" points="2705.42,-98.41 2713.93,-92.1 2703.34,-91.72 2705.42,-98.41"/>
</g>
<!-- Node21 -->
<g id="node21" class="node">
<title>Node21</title>
<g id="a_node21"><a xlink:href="psr__transfer_8hpp.html" target="_top" xlink:title="This file defines a PSR instruction (MRS, MSR).">
<polygon fill="none" stroke="black" points="1186.5,-73 1186.5,-92 1281.5,-92 1281.5,-73 1186.5,-73"/>
<text text-anchor="middle" x="1234" y="-80" font-family="Helvetica,sans-Serif" font-size="10.00">psr_transfer.hpp</text>
</a>
</g>
</g>
<!-- Node10&#45;&gt;Node21 -->
<g id="edge31" class="edge">
<title>Node10&#45;&gt;Node21</title>
<path fill="none" stroke="midnightblue" d="M1556.16,-138.93C1500.03,-132.1 1386.25,-117.21 1291,-98 1285.88,-96.97 1280.52,-95.77 1275.24,-94.51"/>
<polygon fill="midnightblue" stroke="midnightblue" points="1275.78,-91.04 1265.23,-92.04 1274.1,-97.83 1275.78,-91.04"/>
</g>
<!-- Node22 -->
<g id="node22" class="node">
<title>Node22</title>
<g id="a_node22"><a xlink:href="cps_8hpp.html" target="_top" xlink:title="This file defines a change processor state instruction (CPS).">
<polygon fill="none" stroke="black" points="1300,-73 1300,-92 1354,-92 1354,-73 1300,-73"/>
<text text-anchor="middle" x="1327" y="-80" font-family="Helvetica,sans-Serif" font-size="10.00">cps.hpp</text>
</a>
</g>
</g>
<!-- Node10&#45;&gt;Node22 -->
<g id="edge33" class="edge">
<title>Node10&#45;&gt;Node22</title>
<path fill="none" stroke="midnightblue" d="M1556.13,-138.21C1510.97,-131.52 1430.1,-117.94 1363,-98 1360.57,-97.28 1358.08,-96.45 1355.59,-95.58"/>
<polygon fill="midnightblue" stroke="midnightblue" points="1356.78,-92.29 1346.19,-92.01 1354.3,-98.83 1356.78,-92.29"/>
</g>
<!-- Node23 -->
<g id="node23" class="node">
<title>Node23</title>
<g id="a_node23"><a xlink:href="coprocessor__register__transfer_8hpp.html" target="_top" xlink:title="This file defines a coprocessor register transfer (MRC, MCR).">
<polygon fill="none" stroke="black" points="866,-67.5 866,-97.5 984,-97.5 984,-67.5 866,-67.5"/>
<text text-anchor="start" x="874" y="-85.5" font-family="Helvetica,sans-Serif" font-size="10.00">coprocessor_register</text>
<text text-anchor="middle" x="925" y="-74.5" font-family="Helvetica,sans-Serif" font-size="10.00">_transfer.hpp</text>
</a>
</g>
</g>
<!-- Node10&#45;&gt;Node23 -->
<g id="edge35" class="edge">
<title>Node10&#45;&gt;Node23</title>
<path fill="none" stroke="midnightblue" d="M1556.44,-142.03C1465.79,-139.14 1213.6,-128.87 994.34,-98.06"/>
<polygon fill="midnightblue" stroke="midnightblue" points="994.65,-94.57 984.25,-96.63 993.66,-101.5 994.65,-94.57"/>
</g>
<!-- Node24 -->
<g id="node24" class="node">
<title>Node24</title>
<g id="a_node24"><a xlink:href="coprocessor__data__transfer_8hpp.html" target="_top" xlink:title="This file defines a coprocessor data transfer (LDC, STC).">
<polygon fill="none" stroke="black" points="1002,-73 1002,-92 1168,-92 1168,-73 1002,-73"/>
<text text-anchor="middle" x="1085" y="-80" font-family="Helvetica,sans-Serif" font-size="10.00">coprocessor_data_transfer.hpp</text>
</a>
</g>
</g>
<!-- Node10&#45;&gt;Node24 -->
<g id="edge37" class="edge">
<title>Node10&#45;&gt;Node24</title>
<path fill="none" stroke="midnightblue" d="M1556.4,-139.77C1485.36,-133.03 1317.97,-116.53 1178,-98 1168.04,-96.68 1157.49,-95.16 1147.22,-93.61"/>
<polygon fill="midnightblue" stroke="midnightblue" points="1147.49,-90.11 1137.08,-92.05 1146.43,-97.03 1147.49,-90.11"/>
</g>
<!-- Node25 -->
<g id="node25" class="node">
<title>Node25</title>
<g id="a_node25"><a xlink:href="coprocessor__data__operation_8hpp.html" target="_top" xlink:title="This file defines a coprocessor data operation (CDP).">
<polygon fill="none" stroke="black" points="672.5,-73 672.5,-92 847.5,-92 847.5,-73 672.5,-73"/>
<text text-anchor="middle" x="760" y="-80" font-family="Helvetica,sans-Serif" font-size="10.00">coprocessor_data_operation.hpp</text>
</a>
</g>
</g>
<!-- Node10&#45;&gt;Node25 -->
<g id="edge39" class="edge">
<title>Node10&#45;&gt;Node25</title>
<path fill="none" stroke="midnightblue" d="M1556.14,-141.94C1450.59,-138.51 1125.22,-126.22 857,-98 845.47,-96.79 833.22,-95.19 821.44,-93.51"/>
<polygon fill="midnightblue" stroke="midnightblue" points="821.64,-90 811.24,-92.01 820.63,-96.93 821.64,-90"/>
</g>
<!-- Node26 -->
<g id="node26" class="node">
<title>Node26</title>
<g id="a_node26"><a xlink:href="srs_8hpp.html" target="_top" xlink:title="This file defines an SRS instruction (store return state onto a stack).">
<polygon fill="none" stroke="black" points="1372,-73 1372,-92 1424,-92 1424,-73 1372,-73"/>
<text text-anchor="middle" x="1398" y="-80" font-family="Helvetica,sans-Serif" font-size="10.00">srs.hpp</text>
</a>
</g>
</g>
<!-- Node10&#45;&gt;Node26 -->
<g id="edge41" class="edge">
<title>Node10&#45;&gt;Node26</title>
<path fill="none" stroke="midnightblue" d="M1557.3,-134.43C1525.3,-126.03 1475.97,-112.42 1434,-98 1431.88,-97.27 1429.7,-96.49 1427.51,-95.67"/>
<polygon fill="midnightblue" stroke="midnightblue" points="1428.63,-92.35 1418.04,-92 1426.1,-98.88 1428.63,-92.35"/>
</g>
<!-- Node27 -->
<g id="node27" class="node">
<title>Node27</title>
<g id="a_node27"><a xlink:href="rfe_8hpp.html" target="_top" xlink:title="This file defines an RFE instruction (return from exception).">
<polygon fill="none" stroke="black" points="1442.5,-73 1442.5,-92 1493.5,-92 1493.5,-73 1442.5,-73"/>
<text text-anchor="middle" x="1468" y="-80" font-family="Helvetica,sans-Serif" font-size="10.00">rfe.hpp</text>
</a>
</g>
</g>
<!-- Node10&#45;&gt;Node27 -->
<g id="edge43" class="edge">
<title>Node10&#45;&gt;Node27</title>
<path fill="none" stroke="midnightblue" d="M1573.38,-134.48C1552.83,-124.53 1518.64,-107.99 1494.79,-96.46"/>
<polygon fill="midnightblue" stroke="midnightblue" points="1496.12,-93.21 1485.59,-92.01 1493.07,-99.51 1496.12,-93.21"/>
</g>
<!-- Node28 -->
<g id="node28" class="node">
<title>Node28</title>
<g id="a_node28"><a xlink:href="clz_8hpp.html" target="_top" xlink:title="This file defines a count leading zeros instruction (CLZ).">
<polygon fill="none" stroke="black" points="1511.5,-73 1511.5,-92 1562.5,-92 1562.5,-73 1511.5,-73"/>
<text text-anchor="middle" x="1537" y="-80" font-family="Helvetica,sans-Serif" font-size="10.00">clz.hpp</text>
</a>
</g>
</g>
<!-- Node10&#45;&gt;Node28 -->
<g id="edge45" class="edge">
<title>Node10&#45;&gt;Node28</title>
<path fill="none" stroke="midnightblue" d="M1583.26,-134.48C1575,-125.37 1561.72,-110.74 1551.51,-99.48"/>
<polygon fill="midnightblue" stroke="midnightblue" points="1554.03,-97.06 1544.72,-92.01 1548.85,-101.77 1554.03,-97.06"/>
</g>
<!-- Node12&#45;&gt;Node11 -->
<g id="edge14" class="edge">
<title>Node12&#45;&gt;Node11</title>
<path fill="none" stroke="midnightblue" d="M1692,-72.73C1692,-63.18 1692,-47.62 1692,-35.28"/>
<polygon fill="midnightblue" stroke="midnightblue" points="1695.5,-35.13 1692,-25.13 1688.5,-35.13 1695.5,-35.13"/>
</g>
<!-- Node13&#45;&gt;Node11 -->
<g id="edge16" class="edge">
<title>Node13&#45;&gt;Node11</title>
<path fill="none" stroke="midnightblue" d="M1802.14,-72.87C1780.6,-61.84 1743.1,-42.66 1717.92,-29.77"/>
<polygon fill="midnightblue" stroke="midnightblue" points="1719.43,-26.61 1708.93,-25.17 1716.24,-32.84 1719.43,-26.61"/>
</g>
<!-- Node14&#45;&gt;Node11 -->
<g id="edge18" class="edge">
<title>Node14&#45;&gt;Node11</title>
<path fill="none" stroke="midnightblue" d="M1899.26,-72.87C1856.56,-61.25 1780.52,-40.58 1733.38,-27.75"/>
<polygon fill="midnightblue" stroke="midnightblue" points="1734.06,-24.31 1723.49,-25.06 1732.22,-31.07 1734.06,-24.31"/>
</g>
<!-- Node15&#45;&gt;Node11 -->
<g id="edge20" class="edge">
<title>Node15&#45;&gt;Node11</title>
<path fill="none" stroke="midnightblue" d="M2020.32,-72.88C2013.44,-70.77 2005.98,-68.64 1999,-67 1911.77,-46.47 1808.67,-31.34 1746.9,-23.23"/>
<polygon fill="midnightblue" stroke="midnightblue" points="1746.97,-19.71 1736.61,-21.9 1746.07,-26.66 1746.97,-19.71"/>
</g>
<!-- Node16&#45;&gt;Node11 -->
<g id="edge22" class="edge">
<title>Node16&#45;&gt;Node11</title>
<path fill="none" stroke="midnightblue" d="M2121.9,-72.94C2112.89,-70.8 2103.1,-68.65 2094,-67 1970.63,-44.66 1824.17,-28.94 1746.58,-21.46"/>
<polygon fill="midnightblue" stroke="midnightblue" points="1746.84,-17.97 1736.56,-20.5 1746.18,-24.94 1746.84,-17.97"/>
</g>
<!-- Node17&#45;&gt;Node11 -->
<g id="edge24" class="edge">
<title>Node17&#45;&gt;Node11</title>
<path fill="none" stroke="midnightblue" d="M2252.01,-73C2240.38,-70.83 2227.73,-68.65 2216,-67 2045.51,-42.98 1842.18,-26.97 1746.67,-20.18"/>
<polygon fill="midnightblue" stroke="midnightblue" points="1746.89,-16.69 1736.67,-19.48 1746.4,-23.67 1746.89,-16.69"/>
</g>
<!-- Node18&#45;&gt;Node11 -->
<g id="edge26" class="edge">
<title>Node18&#45;&gt;Node11</title>
<path fill="none" stroke="midnightblue" d="M2407.91,-72.96C2396.36,-70.74 2383.72,-68.55 2372,-67 2140.74,-36.45 1862.6,-23.01 1746.77,-18.44"/>
<polygon fill="midnightblue" stroke="midnightblue" points="1746.86,-14.94 1736.74,-18.05 1746.59,-21.94 1746.86,-14.94"/>
</g>
<!-- Node19&#45;&gt;Node11 -->
<g id="edge28" class="edge">
<title>Node19&#45;&gt;Node11</title>
<path fill="none" stroke="midnightblue" d="M2564.1,-72.98C2551.22,-70.74 2537.08,-68.52 2524,-67 2232.55,-33.1 1880.85,-21.22 1747.17,-17.75"/>
<polygon fill="midnightblue" stroke="midnightblue" points="1746.88,-14.24 1736.8,-17.48 1746.7,-21.24 1746.88,-14.24"/>
</g>
<!-- Node20&#45;&gt;Node11 -->
<g id="edge30" class="edge">
<title>Node20&#45;&gt;Node11</title>
<path fill="none" stroke="midnightblue" d="M2713.92,-72.94C2707,-70.61 2699.27,-68.36 2692,-67 2508.34,-32.74 1928.08,-20.41 1746.72,-17.34"/>
<polygon fill="midnightblue" stroke="midnightblue" points="1746.67,-13.84 1736.61,-17.17 1746.55,-20.83 1746.67,-13.84"/>
</g>
<!-- Node21&#45;&gt;Node11 -->
<g id="edge32" class="edge">
<title>Node21&#45;&gt;Node11</title>
<path fill="none" stroke="midnightblue" d="M1264.61,-72.97C1273.11,-70.81 1282.37,-68.63 1291,-67 1413.72,-43.76 1559.66,-28.42 1637.19,-21.23"/>
<polygon fill="midnightblue" stroke="midnightblue" points="1637.57,-24.71 1647.21,-20.31 1636.94,-17.74 1637.57,-24.71"/>
</g>
<!-- Node22&#45;&gt;Node11 -->
<g id="edge34" class="edge">
<title>Node22&#45;&gt;Node11</title>
<path fill="none" stroke="midnightblue" d="M1345.77,-72.99C1351.24,-70.77 1357.28,-68.57 1363,-67 1457.56,-41.07 1571.3,-27.33 1637.25,-21.01"/>
<polygon fill="midnightblue" stroke="midnightblue" points="1637.79,-24.48 1647.42,-20.06 1637.14,-17.51 1637.79,-24.48"/>
</g>
<!-- Node23&#45;&gt;Node11 -->
<g id="edge36" class="edge">
<title>Node23&#45;&gt;Node11</title>
<path fill="none" stroke="midnightblue" d="M984.25,-68.36C987.2,-67.87 990.13,-67.41 993,-67 1231.25,-33.16 1518.58,-21.46 1636.95,-17.9"/>
<polygon fill="midnightblue" stroke="midnightblue" points="1637.31,-21.39 1647.2,-17.6 1637.11,-14.39 1637.31,-21.39"/>
</g>
<!-- Node24&#45;&gt;Node11 -->
<g id="edge38" class="edge">
<title>Node24&#45;&gt;Node11</title>
<path fill="none" stroke="midnightblue" d="M1136.58,-72.92C1150.04,-70.83 1164.55,-68.71 1178,-67 1344.76,-45.83 1542.93,-28.58 1637.07,-20.87"/>
<polygon fill="midnightblue" stroke="midnightblue" points="1637.53,-24.34 1647.21,-20.04 1636.96,-17.36 1637.53,-24.34"/>
</g>
<!-- Node25&#45;&gt;Node11 -->
<g id="edge40" class="edge">
<title>Node25&#45;&gt;Node11</title>
<path fill="none" stroke="midnightblue" d="M811.24,-72.98C825.98,-70.76 842.1,-68.56 857,-67 1150.16,-36.28 1503.32,-22.53 1637.08,-18.15"/>
<polygon fill="midnightblue" stroke="midnightblue" points="1637.2,-21.65 1647.08,-17.83 1636.97,-14.65 1637.2,-21.65"/>
</g>
<!-- Node26&#45;&gt;Node11 -->
<g id="edge42" class="edge">
<title>Node26&#45;&gt;Node11</title>
<path fill="none" stroke="midnightblue" d="M1417.19,-72.99C1422.56,-70.82 1428.44,-68.65 1434,-67 1502.72,-46.64 1584.21,-32.25 1636.95,-24.18"/>
<polygon fill="midnightblue" stroke="midnightblue" points="1637.73,-27.6 1647.1,-22.65 1636.69,-20.68 1637.73,-27.6"/>
</g>
<!-- Node27&#45;&gt;Node11 -->
<g id="edge44" class="edge">
<title>Node27&#45;&gt;Node11</title>
<path fill="none" stroke="midnightblue" d="M1487.45,-72.91C1492.47,-70.84 1497.89,-68.73 1503,-67 1550.39,-50.93 1605.83,-36.63 1644.36,-27.39"/>
<polygon fill="midnightblue" stroke="midnightblue" points="1645.35,-30.75 1654.27,-25.03 1643.73,-23.94 1645.35,-30.75"/>
</g>
<!-- Node28&#45;&gt;Node11 -->
<g id="edge46" class="edge">
<title>Node28&#45;&gt;Node11</title>
<path fill="none" stroke="midnightblue" d="M1557.58,-72.87C1584.33,-61.65 1631.25,-41.98 1661.97,-29.09"/>
<polygon fill="midnightblue" stroke="midnightblue" points="1663.46,-32.26 1671.33,-25.17 1660.76,-25.81 1663.46,-32.26"/>
</g>
<!-- Node29&#45;&gt;Node11 -->
<g id="edge48" class="edge">
<title>Node29&#45;&gt;Node11</title>
<path fill="none" stroke="midnightblue" d="M2495.77,-195.88C2613.93,-187.48 2868.35,-158.49 2781,-67 2744.98,-29.27 1963,-19.07 1746.9,-16.97"/>
<polygon fill="midnightblue" stroke="midnightblue" points="1746.77,-13.47 1736.74,-16.87 1746.71,-20.47 1746.77,-13.47"/>
</g>
<!-- Node30&#45;&gt;Node8 -->
<g id="edge58" class="edge">
<title>Node30&#45;&gt;Node8</title>
<path fill="none" stroke="midnightblue" d="M475.89,-251.86C469.71,-249.88 463.14,-247.82 457,-246 415.73,-233.73 368.28,-220.92 334.89,-212.12"/>
<polygon fill="midnightblue" stroke="midnightblue" points="335.56,-208.68 325,-209.53 333.78,-215.45 335.56,-208.68"/>
</g>
<!-- Node31 -->
<g id="node31" class="node">
<title>Node31</title>
<g id="a_node31"><a xlink:href="cp15_8hpp.html" target="_top" xlink:title="This file defines CP15 (system control coprocessor).">
<polygon fill="none" stroke="black" points="596,-190.5 596,-209.5 724,-209.5 724,-190.5 596,-190.5"/>
<text text-anchor="middle" x="660" y="-197.5" font-family="Helvetica,sans-Serif" font-size="10.00">coprocessors/cp15.hpp</text>
</a>
</g>
</g>
<!-- Node30&#45;&gt;Node31 -->
<g id="edge50" class="edge">
<title>Node30&#45;&gt;Node31</title>
<path fill="none" stroke="midnightblue" d="M524.64,-251.98C551.74,-241.77 597.31,-224.61 628,-213.05"/>
<polygon fill="midnightblue" stroke="midnightblue" points="629.28,-216.31 637.4,-209.51 626.81,-209.76 629.28,-216.31"/>
</g>
<!-- Node33 -->
<g id="node33" class="node">
<title>Node33</title>
<g id="a_node33"><a xlink:href="peripheral_8hpp.html" target="_top" xlink:title="This file defines an interface for a memory&#45;mapped peripheral.">
<polygon fill="none" stroke="black" points="394.5,-190.5 394.5,-209.5 539.5,-209.5 539.5,-190.5 394.5,-190.5"/>
<text text-anchor="middle" x="467" y="-197.5" font-family="Helvetica,sans-Serif" font-size="10.00">peripherals/peripheral.hpp</text>
</a>
</g>
</g>
<!-- Node30&#45;&gt;Node33 -->
<g id="edge57" class="edge">
<title>Node30&#45;&gt;Node33</title>
<path fill="none" stroke="midnightblue" d="M496.99,-251.98C491.84,-243.23 483.69,-229.37 477.18,-218.31"/>
<polygon fill="midnightblue" stroke="midnightblue" points="480.09,-216.35 472.01,-209.51 474.06,-219.9 480.09,-216.35"/>
</g>
<!-- Node31&#45;&gt;Node5 -->
<g id="edge56" class="edge">
<title>Node31&#45;&gt;Node5</title>
<path fill="none" stroke="midnightblue" d="M650.9,-190.44C621.92,-163.18 531.15,-77.78 488.53,-37.69"/>
<polygon fill="midnightblue" stroke="midnightblue" points="490.83,-35.06 481.15,-30.75 486.04,-40.16 490.83,-35.06"/>
</g>
<!-- Node32 -->
<g id="node32" class="node">
<title>Node32</title>
<g id="a_node32"><a xlink:href="coprocessor_8hpp.html" target="_top" xlink:title="This file defines a general interface of a coprocessor.">
<polygon fill="none" stroke="black" points="712.5,-134.5 712.5,-153.5 807.5,-153.5 807.5,-134.5 712.5,-134.5"/>
<text text-anchor="middle" x="760" y="-141.5" font-family="Helvetica,sans-Serif" font-size="10.00">coprocessor.hpp</text>
</a>
</g>
</g>
<!-- Node31&#45;&gt;Node32 -->
<g id="edge51" class="edge">
<title>Node31&#45;&gt;Node32</title>
<path fill="none" stroke="midnightblue" d="M676.07,-190.32C691.96,-181.74 716.51,-168.49 734.96,-158.52"/>
<polygon fill="midnightblue" stroke="midnightblue" points="736.84,-161.49 743.97,-153.65 733.51,-155.33 736.84,-161.49"/>
</g>
<!-- Node32&#45;&gt;Node7 -->
<g id="edge52" class="edge">
<title>Node32&#45;&gt;Node7</title>
<path fill="none" stroke="midnightblue" d="M717.88,-134.48C663.77,-123.52 570.1,-104.57 513.51,-93.11"/>
<polygon fill="midnightblue" stroke="midnightblue" points="513.88,-89.62 503.39,-91.07 512.5,-96.48 513.88,-89.62"/>
</g>
<!-- Node32&#45;&gt;Node23 -->
<g id="edge53" class="edge">
<title>Node32&#45;&gt;Node23</title>
<path fill="none" stroke="midnightblue" d="M783.64,-134.48C807.76,-125.78 845.89,-112.03 876.48,-101"/>
<polygon fill="midnightblue" stroke="midnightblue" points="877.89,-104.21 886.11,-97.52 875.52,-97.62 877.89,-104.21"/>
</g>
<!-- Node32&#45;&gt;Node24 -->
<g id="edge54" class="edge">
<title>Node32&#45;&gt;Node24</title>
<path fill="none" stroke="midnightblue" d="M806.56,-134.48C865.09,-123.76 965.48,-105.38 1028.38,-93.87"/>
<polygon fill="midnightblue" stroke="midnightblue" points="1029.32,-97.25 1038.52,-92.01 1028.05,-90.37 1029.32,-97.25"/>
</g>
<!-- Node32&#45;&gt;Node25 -->
<g id="edge55" class="edge">
<title>Node32&#45;&gt;Node25</title>
<path fill="none" stroke="midnightblue" d="M760,-134.48C760,-126.08 760,-112.98 760,-102.16"/>
<polygon fill="midnightblue" stroke="midnightblue" points="763.5,-102.01 760,-92.01 756.5,-102.01 763.5,-102.01"/>
</g>
<!-- Node35&#45;&gt;Node5 -->
<g id="edge64" class="edge">
<title>Node35&#45;&gt;Node5</title>
<path fill="none" stroke="midnightblue" d="M323.37,-255.95C292.02,-250.13 256.65,-237.41 237,-210 217.32,-182.55 219.39,-162.83 237,-134 272.09,-76.56 345.16,-46.04 399.38,-30.64"/>
<polygon fill="midnightblue" stroke="midnightblue" points="400.54,-33.95 409.27,-27.94 398.7,-27.2 400.54,-33.95"/>
</g>
<!-- Node35&#45;&gt;Node7 -->
<g id="edge63" class="edge">
<title>Node35&#45;&gt;Node7</title>
<path fill="none" stroke="midnightblue" d="M383.09,-246.3C380.72,-231.74 378.71,-208.68 385,-190 397.52,-152.85 428.73,-118.4 448.55,-99.24"/>
<polygon fill="midnightblue" stroke="midnightblue" points="451.13,-101.62 456.01,-92.22 446.33,-96.52 451.13,-101.62"/>
</g>
<!-- Node35&#45;&gt;Node33 -->
<g id="edge62" class="edge">
<title>Node35&#45;&gt;Node33</title>
<path fill="none" stroke="midnightblue" d="M405.2,-246.4C417.82,-237.13 434.29,-225.03 447.06,-215.65"/>
<polygon fill="midnightblue" stroke="midnightblue" points="449.23,-218.4 455.21,-209.66 445.08,-212.76 449.23,-218.4"/>
</g>
</g>
</svg>
