<?xml version="1.0" encoding="UTF-8" standalone="no"?>
<!DOCTYPE svg PUBLIC "-//W3C//DTD SVG 1.1//EN"
 "http://www.w3.org/Graphics/SVG/1.1/DTD/svg11.dtd">
<!-- Generated by graphviz version 2.43.0 (0)
 -->
<!-- Title: src/gui/windows/control_window.hpp Pages: 1 -->
<svg width="3000pt" height="475pt"
 viewBox="0.00 0.00 3000.25 475.00" xmlns="http://www.w3.org/2000/svg" xmlns:xlink="http://www.w3.org/1999/xlink">
<g id="graph0" class="graph" transform="scale(1 1) rotate(0) translate(4 471)">
<title>src/gui/windows/control_window.hpp</title>
<!-- Node1 -->
<g id="node1" class="node">
<title>Node1</title>
<g id="a_node1"><a xlink:title=" ">
<polygon fill="#bfbfbf" stroke="black" points="56.5,-436.5 56.5,-466.5 187.5,-466.5 187.5,-436.5 56.5,-436.5"/>
<text text-anchor="start" x="64.5" y="-454.5" font-family="Helvetica,sans-Serif" font-size="10.00">src/gui/windows/control</text>
<text text-anchor="middle" x="122" y="-443.5" font-family="Helvetica,sans-Serif" font-size="10.00">_window.hpp</text>
</a>
</g>
</g>
<!-- Node2 -->
<g id="node2" class="node">
<title>Node2</title>
<g id="a_node2"><a xlink:title=" ">
<polygon fill="none" stroke="#bfbfbf" points="25,-375 25,-394 75,-394 75,-375 25,-375"/>
<text text-anchor="middle" x="50" y="-382" font-family="Helvetica,sans-Serif" font-size="10.00">atomic</text>
</a>
</g>
</g>
<!-- Node1&#45;&gt;Node2 -->
<g id="edge1" class="edge">
<title>Node1&#45;&gt;Node2</title>
<path fill="none" stroke="midnightblue" d="M106.38,-436.4C94.82,-425.96 79.08,-411.75 67.17,-401"/>
<polygon fill="midnightblue" stroke="midnightblue" points="69.4,-398.3 59.63,-394.19 64.71,-403.49 69.4,-398.3"/>
</g>
<!-- Node3 -->
<g id="node3" class="node">
<title>Node3</title>
<g id="a_node3"><a xlink:href="window_8hpp.html" target="_top" xlink:title=" ">
<polygon fill="none" stroke="black" points="19.5,-257.5 19.5,-276.5 102.5,-276.5 102.5,-257.5 19.5,-257.5"/>
<text text-anchor="middle" x="61" y="-264.5" font-family="Helvetica,sans-Serif" font-size="10.00">../window.hpp</text>
</a>
</g>
</g>
<!-- Node1&#45;&gt;Node3 -->
<g id="edge2" class="edge">
<title>Node1&#45;&gt;Node3</title>
<path fill="none" stroke="midnightblue" d="M117.31,-436.48C106.44,-403.96 79.5,-323.34 67.24,-286.68"/>
<polygon fill="midnightblue" stroke="midnightblue" points="70.44,-285.19 63.95,-276.82 63.8,-287.41 70.44,-285.19"/>
</g>
<!-- Node5 -->
<g id="node5" class="node">
<title>Node5</title>
<g id="a_node5"><a xlink:href="logger_8hpp.html" target="_top" xlink:title=" ">
<polygon fill="none" stroke="black" points="122.5,-56.5 122.5,-86.5 235.5,-86.5 235.5,-56.5 122.5,-56.5"/>
<text text-anchor="start" x="130.5" y="-74.5" font-family="Helvetica,sans-Serif" font-size="10.00">../../core/utils/logger</text>
<text text-anchor="middle" x="179" y="-63.5" font-family="Helvetica,sans-Serif" font-size="10.00">/logger.hpp</text>
</a>
</g>
</g>
<!-- Node1&#45;&gt;Node5 -->
<g id="edge4" class="edge">
<title>Node1&#45;&gt;Node5</title>
<path fill="none" stroke="midnightblue" d="M125.57,-436.19C131.08,-412.85 141,-365.09 141,-324 141,-324 141,-324 141,-204.5 141,-165.34 156.63,-122.11 167.85,-96.14"/>
<polygon fill="midnightblue" stroke="midnightblue" points="171.15,-97.32 172.03,-86.76 164.76,-94.47 171.15,-97.32"/>
</g>
<!-- Node11 -->
<g id="node11" class="node">
<title>Node11</title>
<g id="a_node11"><a xlink:href="core_8hpp.html" target="_top" xlink:title="This file defines a class that represents a CPU core (arm1176jzf_s).">
<polygon fill="none" stroke="black" points="481,-369.5 481,-399.5 595,-399.5 595,-369.5 481,-369.5"/>
<text text-anchor="start" x="489" y="-387.5" font-family="Helvetica,sans-Serif" font-size="10.00">../../core/arm1176jzf</text>
<text text-anchor="middle" x="538" y="-376.5" font-family="Helvetica,sans-Serif" font-size="10.00">_s/core.hpp</text>
</a>
</g>
</g>
<!-- Node1&#45;&gt;Node11 -->
<g id="edge11" class="edge">
<title>Node1&#45;&gt;Node11</title>
<path fill="none" stroke="midnightblue" d="M187.92,-440.2C265.21,-428.12 392.63,-408.21 470.57,-396.04"/>
<polygon fill="midnightblue" stroke="midnightblue" points="471.42,-399.45 480.76,-394.44 470.34,-392.53 471.42,-399.45"/>
</g>
<!-- Node4 -->
<g id="node4" class="node">
<title>Node4</title>
<g id="a_node4"><a xlink:title=" ">
<polygon fill="none" stroke="#bfbfbf" points="0,-0.5 0,-19.5 58,-19.5 58,-0.5 0,-0.5"/>
<text text-anchor="middle" x="29" y="-7.5" font-family="Helvetica,sans-Serif" font-size="10.00">memory</text>
</a>
</g>
</g>
<!-- Node3&#45;&gt;Node4 -->
<g id="edge3" class="edge">
<title>Node3&#45;&gt;Node4</title>
<path fill="none" stroke="midnightblue" d="M59.9,-257.22C55.32,-220.75 37.74,-80.68 31.35,-29.7"/>
<polygon fill="midnightblue" stroke="midnightblue" points="34.81,-29.23 30.1,-19.74 27.87,-30.1 34.81,-29.23"/>
</g>
<!-- Node5&#45;&gt;Node4 -->
<g id="edge7" class="edge">
<title>Node5&#45;&gt;Node4</title>
<path fill="none" stroke="midnightblue" d="M143.45,-56.4C118.17,-46.37 84.53,-33.03 60.27,-23.4"/>
<polygon fill="midnightblue" stroke="midnightblue" points="61.41,-20.09 50.83,-19.66 58.83,-26.6 61.41,-20.09"/>
</g>
<!-- Node6 -->
<g id="node6" class="node">
<title>Node6</title>
<g id="a_node6"><a xlink:title=" ">
<polygon fill="none" stroke="#bfbfbf" points="76,-0.5 76,-19.5 124,-19.5 124,-0.5 76,-0.5"/>
<text text-anchor="middle" x="100" y="-7.5" font-family="Helvetica,sans-Serif" font-size="10.00">mutex</text>
</a>
</g>
</g>
<!-- Node5&#45;&gt;Node6 -->
<g id="edge5" class="edge">
<title>Node5&#45;&gt;Node6</title>
<path fill="none" stroke="midnightblue" d="M160.28,-56.4C148.09,-47.22 132.21,-35.26 119.81,-25.92"/>
<polygon fill="midnightblue" stroke="midnightblue" points="121.59,-22.88 111.5,-19.66 117.38,-28.47 121.59,-22.88"/>
</g>
<!-- Node7 -->
<g id="node7" class="node">
<title>Node7</title>
<g id="a_node7"><a xlink:title=" ">
<polygon fill="none" stroke="#bfbfbf" points="344.5,-0.5 344.5,-19.5 391.5,-19.5 391.5,-0.5 344.5,-0.5"/>
<text text-anchor="middle" x="368" y="-7.5" font-family="Helvetica,sans-Serif" font-size="10.00">vector</text>
</a>
</g>
</g>
<!-- Node5&#45;&gt;Node7 -->
<g id="edge6" class="edge">
<title>Node5&#45;&gt;Node7</title>
<path fill="none" stroke="midnightblue" d="M223.79,-56.4C257.72,-45.72 303.61,-31.27 334.43,-21.57"/>
<polygon fill="midnightblue" stroke="midnightblue" points="335.78,-24.81 344.26,-18.47 333.67,-18.14 335.78,-24.81"/>
</g>
<!-- Node8 -->
<g id="node8" class="node">
<title>Node8</title>
<g id="a_node8"><a xlink:title=" ">
<polygon fill="none" stroke="#bfbfbf" points="723,-0.5 723,-19.5 773,-19.5 773,-0.5 723,-0.5"/>
<text text-anchor="middle" x="748" y="-7.5" font-family="Helvetica,sans-Serif" font-size="10.00">cstdint</text>
</a>
</g>
</g>
<!-- Node5&#45;&gt;Node8 -->
<g id="edge8" class="edge">
<title>Node5&#45;&gt;Node8</title>
<path fill="none" stroke="midnightblue" d="M235.64,-64.58C352.55,-52.35 617.61,-24.63 712.99,-14.66"/>
<polygon fill="midnightblue" stroke="midnightblue" points="713.4,-18.14 722.98,-13.62 712.67,-11.18 713.4,-18.14"/>
</g>
<!-- Node9 -->
<g id="node9" class="node">
<title>Node9</title>
<g id="a_node9"><a xlink:title=" ">
<polygon fill="none" stroke="#bfbfbf" points="142.5,-0.5 142.5,-19.5 215.5,-19.5 215.5,-0.5 142.5,-0.5"/>
<text text-anchor="middle" x="179" y="-7.5" font-family="Helvetica,sans-Serif" font-size="10.00">string_view</text>
</a>
</g>
</g>
<!-- Node5&#45;&gt;Node9 -->
<g id="edge9" class="edge">
<title>Node5&#45;&gt;Node9</title>
<path fill="none" stroke="midnightblue" d="M179,-56.4C179,-48.47 179,-38.46 179,-29.86"/>
<polygon fill="midnightblue" stroke="midnightblue" points="182.5,-29.66 179,-19.66 175.5,-29.66 182.5,-29.66"/>
</g>
<!-- Node10 -->
<g id="node10" class="node">
<title>Node10</title>
<g id="a_node10"><a xlink:title=" ">
<polygon fill="none" stroke="#bfbfbf" points="233.5,-0.5 233.5,-19.5 326.5,-19.5 326.5,-0.5 233.5,-0.5"/>
<text text-anchor="middle" x="280" y="-7.5" font-family="Helvetica,sans-Serif" font-size="10.00">source_location</text>
</a>
</g>
</g>
<!-- Node5&#45;&gt;Node10 -->
<g id="edge10" class="edge">
<title>Node5&#45;&gt;Node10</title>
<path fill="none" stroke="midnightblue" d="M202.94,-56.4C219.13,-46.86 240.41,-34.32 256.5,-24.84"/>
<polygon fill="midnightblue" stroke="midnightblue" points="258.46,-27.75 265.3,-19.66 254.91,-21.72 258.46,-27.75"/>
</g>
<!-- Node11&#45;&gt;Node5 -->
<g id="edge73" class="edge">
<title>Node11&#45;&gt;Node5</title>
<path fill="none" stroke="midnightblue" d="M480.72,-377.09C379.36,-364.13 179,-330.61 179,-268 179,-268 179,-268 179,-204.5 179,-167 179,-123.51 179,-97.01"/>
<polygon fill="midnightblue" stroke="midnightblue" points="182.5,-96.76 179,-86.76 175.5,-96.76 182.5,-96.76"/>
</g>
<!-- Node12 -->
<g id="node12" class="node">
<title>Node12</title>
<g id="a_node12"><a xlink:href="context_8hpp.html" target="_top" xlink:title="This file defines the context (registers) of the CPU.">
<polygon fill="none" stroke="black" points="597,-129 597,-148 671,-148 671,-129 597,-129"/>
<text text-anchor="middle" x="634" y="-136" font-family="Helvetica,sans-Serif" font-size="10.00">context.hpp</text>
</a>
</g>
</g>
<!-- Node11&#45;&gt;Node12 -->
<g id="edge12" class="edge">
<title>Node11&#45;&gt;Node12</title>
<path fill="none" stroke="midnightblue" d="M543.58,-369.33C560.06,-327.43 608.55,-204.19 626.87,-157.61"/>
<polygon fill="midnightblue" stroke="midnightblue" points="630.17,-158.78 630.58,-148.2 623.66,-156.22 630.17,-158.78"/>
</g>
<!-- Node13 -->
<g id="node13" class="node">
<title>Node13</title>
<g id="a_node13"><a xlink:href="exceptions_8hpp.html" target="_top" xlink:title="This file defines all exceptions that can be thrown by the CPU during execution.">
<polygon fill="none" stroke="black" points="596.5,-257.5 596.5,-276.5 687.5,-276.5 687.5,-257.5 596.5,-257.5"/>
<text text-anchor="middle" x="642" y="-264.5" font-family="Helvetica,sans-Serif" font-size="10.00">exceptions.hpp</text>
</a>
</g>
</g>
<!-- Node11&#45;&gt;Node13 -->
<g id="edge14" class="edge">
<title>Node11&#45;&gt;Node13</title>
<path fill="none" stroke="midnightblue" d="M550.75,-369.34C570.17,-347.77 607.05,-306.81 627.48,-284.13"/>
<polygon fill="midnightblue" stroke="midnightblue" points="630.1,-286.44 634.19,-276.67 624.9,-281.76 630.1,-286.44"/>
</g>
<!-- Node15 -->
<g id="node15" class="node">
<title>Node15</title>
<g id="a_node15"><a xlink:href="isa_8hpp.html" target="_top" xlink:title=" ">
<polygon fill="none" stroke="black" points="1734.5,-196 1734.5,-215 1803.5,-215 1803.5,-196 1734.5,-196"/>
<text text-anchor="middle" x="1769" y="-203" font-family="Helvetica,sans-Serif" font-size="10.00">isa/isa.hpp</text>
</a>
</g>
</g>
<!-- Node11&#45;&gt;Node15 -->
<g id="edge17" class="edge">
<title>Node11&#45;&gt;Node15</title>
<path fill="none" stroke="midnightblue" d="M595.31,-375.26C806.09,-344.95 1535.81,-240.03 1724.29,-212.93"/>
<polygon fill="midnightblue" stroke="midnightblue" points="1724.99,-216.36 1734.39,-211.48 1724,-209.44 1724.99,-216.36"/>
</g>
<!-- Node34 -->
<g id="node34" class="node">
<title>Node34</title>
<g id="a_node34"><a xlink:href="isa__decoder_8hpp.html" target="_top" xlink:title=" ">
<polygon fill="none" stroke="black" points="844.5,-196 844.5,-215 957.5,-215 957.5,-196 844.5,-196"/>
<text text-anchor="middle" x="901" y="-203" font-family="Helvetica,sans-Serif" font-size="10.00">isa/isa_decoder.hpp</text>
</a>
</g>
</g>
<!-- Node11&#45;&gt;Node34 -->
<g id="edge54" class="edge">
<title>Node11&#45;&gt;Node34</title>
<path fill="none" stroke="midnightblue" d="M566.79,-369.46C635.35,-336.03 807.56,-252.06 874.14,-219.6"/>
<polygon fill="midnightblue" stroke="midnightblue" points="875.72,-222.72 883.17,-215.19 872.65,-216.43 875.72,-222.72"/>
</g>
<!-- Node36 -->
<g id="node36" class="node">
<title>Node36</title>
<g id="a_node36"><a xlink:href="bus_8hpp.html" target="_top" xlink:title="This file defines an interface the CPU uses to access different memory&#45;mapped peripherals.">
<polygon fill="none" stroke="black" points="476,-313.5 476,-332.5 540,-332.5 540,-313.5 476,-313.5"/>
<text text-anchor="middle" x="508" y="-320.5" font-family="Helvetica,sans-Serif" font-size="10.00">../bus.hpp</text>
</a>
</g>
</g>
<!-- Node11&#45;&gt;Node36 -->
<g id="edge58" class="edge">
<title>Node11&#45;&gt;Node36</title>
<path fill="none" stroke="midnightblue" d="M530.89,-369.4C526.71,-361.11 521.39,-350.55 516.93,-341.71"/>
<polygon fill="midnightblue" stroke="midnightblue" points="519.99,-340.01 512.37,-332.66 513.74,-343.16 519.99,-340.01"/>
</g>
<!-- Node41 -->
<g id="node41" class="node">
<title>Node41</title>
<g id="a_node41"><a xlink:href="math_8hpp.html" target="_top" xlink:title="This file defines and implements a variety of handy helper functions that are used throughout the pro...">
<polygon fill="none" stroke="black" points="324,-313.5 324,-332.5 420,-332.5 420,-313.5 324,-313.5"/>
<text text-anchor="middle" x="372" y="-320.5" font-family="Helvetica,sans-Serif" font-size="10.00">../utils/math.hpp</text>
</a>
</g>
</g>
<!-- Node11&#45;&gt;Node41 -->
<g id="edge72" class="edge">
<title>Node11&#45;&gt;Node41</title>
<path fill="none" stroke="midnightblue" d="M498.66,-369.4C470.44,-359.28 432.79,-345.79 405.9,-336.15"/>
<polygon fill="midnightblue" stroke="midnightblue" points="406.75,-332.74 396.15,-332.66 404.39,-339.33 406.75,-332.74"/>
</g>
<!-- Node42 -->
<g id="node42" class="node">
<title>Node42</title>
<g id="a_node42"><a xlink:href="interrupt__controller_8hpp.html" target="_top" xlink:title=" ">
<polygon fill="none" stroke="black" points="367.5,-190.5 367.5,-220.5 492.5,-220.5 492.5,-190.5 367.5,-190.5"/>
<text text-anchor="start" x="375.5" y="-208.5" font-family="Helvetica,sans-Serif" font-size="10.00">../peripherals/interrupt</text>
<text text-anchor="middle" x="430" y="-197.5" font-family="Helvetica,sans-Serif" font-size="10.00">_controller.hpp</text>
</a>
</g>
</g>
<!-- Node11&#45;&gt;Node42 -->
<g id="edge74" class="edge">
<title>Node11&#45;&gt;Node42</title>
<path fill="none" stroke="midnightblue" d="M509.87,-369.46C495.15,-360.81 477.96,-348.4 467,-333 444.96,-302.03 435.94,-257.99 432.33,-230.88"/>
<polygon fill="midnightblue" stroke="midnightblue" points="435.78,-230.24 431.12,-220.72 428.83,-231.06 435.78,-230.24"/>
</g>
<!-- Node43 -->
<g id="node43" class="node">
<title>Node43</title>
<g id="a_node43"><a xlink:href="system__clock__listener_8hpp.html" target="_top" xlink:title=" ">
<polygon fill="none" stroke="black" points="2380.5,-56.5 2380.5,-86.5 2499.5,-86.5 2499.5,-56.5 2380.5,-56.5"/>
<text text-anchor="start" x="2388.5" y="-74.5" font-family="Helvetica,sans-Serif" font-size="10.00">../peripherals/system</text>
<text text-anchor="middle" x="2440" y="-63.5" font-family="Helvetica,sans-Serif" font-size="10.00">_clock_listener.hpp</text>
</a>
</g>
</g>
<!-- Node11&#45;&gt;Node43 -->
<g id="edge80" class="edge">
<title>Node11&#45;&gt;Node43</title>
<path fill="none" stroke="midnightblue" d="M595,-382.35C963.16,-374.73 2990,-329.99 2990,-268 2990,-268 2990,-268 2990,-204.5 2990,-167.31 2999,-147.48 2971,-123 2936.98,-93.27 2646.21,-79.52 2509.94,-74.66"/>
<polygon fill="midnightblue" stroke="midnightblue" points="2509.73,-71.15 2499.61,-74.3 2509.49,-78.15 2509.73,-71.15"/>
</g>
<!-- Node12&#45;&gt;Node5 -->
<g id="edge13" class="edge">
<title>Node12&#45;&gt;Node5</title>
<path fill="none" stroke="midnightblue" d="M609.87,-128.98C602.89,-126.77 595.2,-124.57 588,-123 469,-97.12 327.42,-83.33 245.91,-76.99"/>
<polygon fill="midnightblue" stroke="midnightblue" points="246.02,-73.49 235.78,-76.22 245.49,-80.47 246.02,-73.49"/>
</g>
<!-- Node13&#45;&gt;Node12 -->
<g id="edge16" class="edge">
<title>Node13&#45;&gt;Node12</title>
<path fill="none" stroke="midnightblue" d="M637.89,-257.28C633.94,-248.38 628.26,-234.07 626,-221 622.31,-199.6 625.87,-174.72 629.34,-158.13"/>
<polygon fill="midnightblue" stroke="midnightblue" points="632.82,-158.65 631.64,-148.12 625.99,-157.08 632.82,-158.65"/>
</g>
<!-- Node14 -->
<g id="node14" class="node">
<title>Node14</title>
<g id="a_node14"><a xlink:title=" ">
<polygon fill="none" stroke="#bfbfbf" points="747.5,-196 747.5,-215 826.5,-215 826.5,-196 747.5,-196"/>
<text text-anchor="middle" x="787" y="-203" font-family="Helvetica,sans-Serif" font-size="10.00">fmt/format.h</text>
</a>
</g>
</g>
<!-- Node13&#45;&gt;Node14 -->
<g id="edge15" class="edge">
<title>Node13&#45;&gt;Node14</title>
<path fill="none" stroke="midnightblue" d="M662.77,-257.48C687.43,-247.36 728.75,-230.4 756.9,-218.85"/>
<polygon fill="midnightblue" stroke="midnightblue" points="758.34,-222.04 766.26,-215.01 755.68,-215.57 758.34,-222.04"/>
</g>
<!-- Node16 -->
<g id="node16" class="node">
<title>Node16</title>
<g id="a_node16"><a xlink:href="instruction_8hpp.html" target="_top" xlink:title=" ">
<polygon fill="none" stroke="black" points="1673.5,-62 1673.5,-81 1762.5,-81 1762.5,-62 1673.5,-62"/>
<text text-anchor="middle" x="1718" y="-69" font-family="Helvetica,sans-Serif" font-size="10.00">instruction.hpp</text>
</a>
</g>
</g>
<!-- Node15&#45;&gt;Node16 -->
<g id="edge18" class="edge">
<title>Node15&#45;&gt;Node16</title>
<path fill="none" stroke="midnightblue" d="M1741.99,-195.87C1722.88,-188.18 1698.66,-174.87 1687,-154 1675.18,-132.84 1690.27,-106.27 1703.23,-89.34"/>
<polygon fill="midnightblue" stroke="midnightblue" points="1706.06,-91.4 1709.66,-81.44 1700.63,-86.98 1706.06,-91.4"/>
</g>
<!-- Node17 -->
<g id="node17" class="node">
<title>Node17</title>
<g id="a_node17"><a xlink:href="branch__and__exchange_8hpp.html" target="_top" xlink:title=" ">
<polygon fill="none" stroke="black" points="1696,-129 1696,-148 1842,-148 1842,-129 1696,-129"/>
<text text-anchor="middle" x="1769" y="-136" font-family="Helvetica,sans-Serif" font-size="10.00">branch_and_exchange.hpp</text>
</a>
</g>
</g>
<!-- Node15&#45;&gt;Node17 -->
<g id="edge20" class="edge">
<title>Node15&#45;&gt;Node17</title>
<path fill="none" stroke="midnightblue" d="M1769,-195.73C1769,-186.18 1769,-170.62 1769,-158.28"/>
<polygon fill="midnightblue" stroke="midnightblue" points="1772.5,-158.13 1769,-148.13 1765.5,-158.13 1772.5,-158.13"/>
</g>
<!-- Node18 -->
<g id="node18" class="node">
<title>Node18</title>
<g id="a_node18"><a xlink:href="branch_8hpp.html" target="_top" xlink:title=" ">
<polygon fill="none" stroke="black" points="1860.5,-129 1860.5,-148 1931.5,-148 1931.5,-129 1860.5,-129"/>
<text text-anchor="middle" x="1896" y="-136" font-family="Helvetica,sans-Serif" font-size="10.00">branch.hpp</text>
</a>
</g>
</g>
<!-- Node15&#45;&gt;Node18 -->
<g id="edge22" class="edge">
<title>Node15&#45;&gt;Node18</title>
<path fill="none" stroke="midnightblue" d="M1785.86,-195.87C1807.4,-184.84 1844.9,-165.66 1870.08,-152.77"/>
<polygon fill="midnightblue" stroke="midnightblue" points="1871.76,-155.84 1879.07,-148.17 1868.57,-149.61 1871.76,-155.84"/>
</g>
<!-- Node19 -->
<g id="node19" class="node">
<title>Node19</title>
<g id="a_node19"><a xlink:href="data__processing_8hpp.html" target="_top" xlink:title=" ">
<polygon fill="none" stroke="black" points="1949.5,-129 1949.5,-148 2066.5,-148 2066.5,-129 1949.5,-129"/>
<text text-anchor="middle" x="2008" y="-136" font-family="Helvetica,sans-Serif" font-size="10.00">data_processing.hpp</text>
</a>
</g>
</g>
<!-- Node15&#45;&gt;Node19 -->
<g id="edge24" class="edge">
<title>Node15&#45;&gt;Node19</title>
<path fill="none" stroke="midnightblue" d="M1800.74,-195.87C1843.44,-184.25 1919.48,-163.58 1966.62,-150.75"/>
<polygon fill="midnightblue" stroke="midnightblue" points="1967.78,-154.07 1976.51,-148.06 1965.94,-147.31 1967.78,-154.07"/>
</g>
<!-- Node20 -->
<g id="node20" class="node">
<title>Node20</title>
<g id="a_node20"><a xlink:href="multiply_8hpp.html" target="_top" xlink:title=" ">
<polygon fill="none" stroke="black" points="2084.5,-129 2084.5,-148 2161.5,-148 2161.5,-129 2084.5,-129"/>
<text text-anchor="middle" x="2123" y="-136" font-family="Helvetica,sans-Serif" font-size="10.00">multiply.hpp</text>
</a>
</g>
</g>
<!-- Node15&#45;&gt;Node20 -->
<g id="edge26" class="edge">
<title>Node15&#45;&gt;Node20</title>
<path fill="none" stroke="midnightblue" d="M1803.83,-200.34C1861.09,-193.16 1978.47,-176.95 2076,-154 2079.82,-153.1 2083.78,-152.06 2087.71,-150.95"/>
<polygon fill="midnightblue" stroke="midnightblue" points="2088.72,-154.3 2097.32,-148.12 2086.73,-147.59 2088.72,-154.3"/>
</g>
<!-- Node21 -->
<g id="node21" class="node">
<title>Node21</title>
<g id="a_node21"><a xlink:href="multiply__long_8hpp.html" target="_top" xlink:title=" ">
<polygon fill="none" stroke="black" points="2180,-129 2180,-148 2284,-148 2284,-129 2180,-129"/>
<text text-anchor="middle" x="2232" y="-136" font-family="Helvetica,sans-Serif" font-size="10.00">multiply_long.hpp</text>
</a>
</g>
</g>
<!-- Node15&#45;&gt;Node21 -->
<g id="edge28" class="edge">
<title>Node15&#45;&gt;Node21</title>
<path fill="none" stroke="midnightblue" d="M1803.61,-201.43C1873.43,-194.95 2036.03,-178.44 2171,-154 2176.83,-152.94 2182.94,-151.68 2188.95,-150.35"/>
<polygon fill="midnightblue" stroke="midnightblue" points="2189.94,-153.71 2198.9,-148.06 2188.37,-146.89 2189.94,-153.71"/>
</g>
<!-- Node22 -->
<g id="node22" class="node">
<title>Node22</title>
<g id="a_node22"><a xlink:href="single__data__transfer_8hpp.html" target="_top" xlink:title=" ">
<polygon fill="none" stroke="black" points="2302.5,-129 2302.5,-148 2439.5,-148 2439.5,-129 2302.5,-129"/>
<text text-anchor="middle" x="2371" y="-136" font-family="Helvetica,sans-Serif" font-size="10.00">single_data_transfer.hpp</text>
</a>
</g>
</g>
<!-- Node15&#45;&gt;Node22 -->
<g id="edge30" class="edge">
<title>Node15&#45;&gt;Node22</title>
<path fill="none" stroke="midnightblue" d="M1803.77,-202.21C1887.99,-196.43 2109.51,-179.85 2293,-154 2301.43,-152.81 2310.34,-151.35 2319,-149.82"/>
<polygon fill="midnightblue" stroke="midnightblue" points="2319.8,-153.23 2329.01,-148 2318.55,-146.35 2319.8,-153.23"/>
</g>
<!-- Node23 -->
<g id="node23" class="node">
<title>Node23</title>
<g id="a_node23"><a xlink:href="block__data__transfer_8hpp.html" target="_top" xlink:title=" ">
<polygon fill="none" stroke="black" points="2458,-129 2458,-148 2592,-148 2592,-129 2458,-129"/>
<text text-anchor="middle" x="2525" y="-136" font-family="Helvetica,sans-Serif" font-size="10.00">block_data_transfer.hpp</text>
</a>
</g>
</g>
<!-- Node15&#45;&gt;Node23 -->
<g id="edge32" class="edge">
<title>Node15&#45;&gt;Node23</title>
<path fill="none" stroke="midnightblue" d="M1803.82,-203.32C1904.28,-199.62 2203.13,-186.48 2449,-154 2457.42,-152.89 2466.32,-151.44 2474.95,-149.89"/>
<polygon fill="midnightblue" stroke="midnightblue" points="2475.72,-153.31 2484.91,-148.04 2474.44,-146.43 2475.72,-153.31"/>
</g>
<!-- Node24 -->
<g id="node24" class="node">
<title>Node24</title>
<g id="a_node24"><a xlink:href="halfword__data__transfer_8hpp.html" target="_top" xlink:title=" ">
<polygon fill="none" stroke="black" points="2610.5,-129 2610.5,-148 2759.5,-148 2759.5,-129 2610.5,-129"/>
<text text-anchor="middle" x="2685" y="-136" font-family="Helvetica,sans-Serif" font-size="10.00">halfword_data_transfer.hpp</text>
</a>
</g>
</g>
<!-- Node15&#45;&gt;Node24 -->
<g id="edge34" class="edge">
<title>Node15&#45;&gt;Node24</title>
<path fill="none" stroke="midnightblue" d="M1803.6,-203.77C1917.8,-201.05 2293.03,-189.82 2601,-154 2610.71,-152.87 2621,-151.36 2630.93,-149.74"/>
<polygon fill="midnightblue" stroke="midnightblue" points="2631.82,-153.14 2641.1,-148.02 2630.66,-146.23 2631.82,-153.14"/>
</g>
<!-- Node25 -->
<g id="node25" class="node">
<title>Node25</title>
<g id="a_node25"><a xlink:href="extend_8hpp.html" target="_top" xlink:title=" ">
<polygon fill="none" stroke="black" points="2777.5,-129 2777.5,-148 2848.5,-148 2848.5,-129 2777.5,-129"/>
<text text-anchor="middle" x="2813" y="-136" font-family="Helvetica,sans-Serif" font-size="10.00">extend.hpp</text>
</a>
</g>
</g>
<!-- Node15&#45;&gt;Node25 -->
<g id="edge36" class="edge">
<title>Node15&#45;&gt;Node25</title>
<path fill="none" stroke="midnightblue" d="M1803.51,-204C1956.92,-201.56 2577.82,-189.66 2769,-154 2772.98,-153.26 2777.09,-152.25 2781.13,-151.1"/>
<polygon fill="midnightblue" stroke="midnightblue" points="2782.41,-154.37 2790.92,-148.06 2780.33,-147.69 2782.41,-154.37"/>
</g>
<!-- Node26 -->
<g id="node26" class="node">
<title>Node26</title>
<g id="a_node26"><a xlink:href="psr__transfer_8hpp.html" target="_top" xlink:title=" ">
<polygon fill="none" stroke="black" points="2866.5,-129 2866.5,-148 2961.5,-148 2961.5,-129 2866.5,-129"/>
<text text-anchor="middle" x="2914" y="-136" font-family="Helvetica,sans-Serif" font-size="10.00">psr_transfer.hpp</text>
</a>
</g>
</g>
<!-- Node15&#45;&gt;Node26 -->
<g id="edge38" class="edge">
<title>Node15&#45;&gt;Node26</title>
<path fill="none" stroke="midnightblue" d="M1803.51,-203.86C1965.03,-200.73 2647.35,-185.81 2858,-154 2863.85,-153.12 2869.98,-151.87 2875.94,-150.48"/>
<polygon fill="midnightblue" stroke="midnightblue" points="2876.89,-153.85 2885.75,-148.03 2875.2,-147.06 2876.89,-153.85"/>
</g>
<!-- Node27 -->
<g id="node27" class="node">
<title>Node27</title>
<g id="a_node27"><a xlink:href="cps_8hpp.html" target="_top" xlink:title=" ">
<polygon fill="none" stroke="black" points="1377,-129 1377,-148 1431,-148 1431,-129 1377,-129"/>
<text text-anchor="middle" x="1404" y="-136" font-family="Helvetica,sans-Serif" font-size="10.00">cps.hpp</text>
</a>
</g>
</g>
<!-- Node15&#45;&gt;Node27 -->
<g id="edge40" class="edge">
<title>Node15&#45;&gt;Node27</title>
<path fill="none" stroke="midnightblue" d="M1734.35,-201.83C1673.78,-196.57 1545.05,-182.8 1440,-154 1437.5,-153.31 1434.93,-152.51 1432.38,-151.63"/>
<polygon fill="midnightblue" stroke="midnightblue" points="1433.37,-148.26 1422.77,-148.01 1430.9,-154.81 1433.37,-148.26"/>
</g>
<!-- Node28 -->
<g id="node28" class="node">
<title>Node28</title>
<g id="a_node28"><a xlink:href="coprocessor__register__transfer_8hpp.html" target="_top" xlink:title=" ">
<polygon fill="none" stroke="black" points="863,-123.5 863,-153.5 981,-153.5 981,-123.5 863,-123.5"/>
<text text-anchor="start" x="871" y="-141.5" font-family="Helvetica,sans-Serif" font-size="10.00">coprocessor_register</text>
<text text-anchor="middle" x="922" y="-130.5" font-family="Helvetica,sans-Serif" font-size="10.00">_transfer.hpp</text>
</a>
</g>
</g>
<!-- Node15&#45;&gt;Node28 -->
<g id="edge42" class="edge">
<title>Node15&#45;&gt;Node28</title>
<path fill="none" stroke="midnightblue" d="M1734.27,-204.04C1625.76,-202.24 1283.42,-193.69 991.19,-154.03"/>
<polygon fill="midnightblue" stroke="midnightblue" points="991.63,-150.56 981.25,-152.66 990.68,-157.49 991.63,-150.56"/>
</g>
<!-- Node29 -->
<g id="node29" class="node">
<title>Node29</title>
<g id="a_node29"><a xlink:href="coprocessor__data__transfer_8hpp.html" target="_top" xlink:title=" ">
<polygon fill="none" stroke="black" points="999,-129 999,-148 1165,-148 1165,-129 999,-129"/>
<text text-anchor="middle" x="1082" y="-136" font-family="Helvetica,sans-Serif" font-size="10.00">coprocessor_data_transfer.hpp</text>
</a>
</g>
</g>
<!-- Node15&#45;&gt;Node29 -->
<g id="edge44" class="edge">
<title>Node15&#45;&gt;Node29</title>
<path fill="none" stroke="midnightblue" d="M1734.43,-202.41C1642.94,-196.69 1386.93,-179.5 1175,-154 1164.55,-152.74 1153.47,-151.2 1142.74,-149.6"/>
<polygon fill="midnightblue" stroke="midnightblue" points="1143.01,-146.1 1132.59,-148.04 1141.95,-153.01 1143.01,-146.1"/>
</g>
<!-- Node30 -->
<g id="node30" class="node">
<title>Node30</title>
<g id="a_node30"><a xlink:href="coprocessor__data__operation_8hpp.html" target="_top" xlink:title=" ">
<polygon fill="none" stroke="black" points="1183.5,-129 1183.5,-148 1358.5,-148 1358.5,-129 1183.5,-129"/>
<text text-anchor="middle" x="1271" y="-136" font-family="Helvetica,sans-Serif" font-size="10.00">coprocessor_data_operation.hpp</text>
</a>
</g>
</g>
<!-- Node15&#45;&gt;Node30 -->
<g id="edge46" class="edge">
<title>Node15&#45;&gt;Node30</title>
<path fill="none" stroke="midnightblue" d="M1734.37,-200.41C1664.85,-192.15 1503.37,-172.64 1368,-154 1357.77,-152.59 1346.95,-151.04 1336.39,-149.49"/>
<polygon fill="midnightblue" stroke="midnightblue" points="1336.77,-146 1326.37,-148 1335.75,-152.93 1336.77,-146"/>
</g>
<!-- Node31 -->
<g id="node31" class="node">
<title>Node31</title>
<g id="a_node31"><a xlink:href="srs_8hpp.html" target="_top" xlink:title=" ">
<polygon fill="none" stroke="black" points="1449,-129 1449,-148 1501,-148 1501,-129 1449,-129"/>
<text text-anchor="middle" x="1475" y="-136" font-family="Helvetica,sans-Serif" font-size="10.00">srs.hpp</text>
</a>
</g>
</g>
<!-- Node15&#45;&gt;Node31 -->
<g id="edge48" class="edge">
<title>Node15&#45;&gt;Node31</title>
<path fill="none" stroke="midnightblue" d="M1734.28,-199.84C1684.26,-192.65 1589.33,-177.21 1511,-154 1508.57,-153.28 1506.08,-152.46 1503.59,-151.58"/>
<polygon fill="midnightblue" stroke="midnightblue" points="1504.78,-148.29 1494.19,-148.01 1502.3,-154.83 1504.78,-148.29"/>
</g>
<!-- Node32 -->
<g id="node32" class="node">
<title>Node32</title>
<g id="a_node32"><a xlink:href="rfe_8hpp.html" target="_top" xlink:title=" ">
<polygon fill="none" stroke="black" points="1519.5,-129 1519.5,-148 1570.5,-148 1570.5,-129 1519.5,-129"/>
<text text-anchor="middle" x="1545" y="-136" font-family="Helvetica,sans-Serif" font-size="10.00">rfe.hpp</text>
</a>
</g>
</g>
<!-- Node15&#45;&gt;Node32 -->
<g id="edge50" class="edge">
<title>Node15&#45;&gt;Node32</title>
<path fill="none" stroke="midnightblue" d="M1734.45,-196.72C1696.25,-187.77 1633.07,-172 1580,-154 1578.08,-153.35 1576.12,-152.65 1574.16,-151.91"/>
<polygon fill="midnightblue" stroke="midnightblue" points="1575.04,-148.5 1564.45,-148.09 1572.47,-155.01 1575.04,-148.5"/>
</g>
<!-- Node33 -->
<g id="node33" class="node">
<title>Node33</title>
<g id="a_node33"><a xlink:href="clz_8hpp.html" target="_top" xlink:title=" ">
<polygon fill="none" stroke="black" points="1588.5,-129 1588.5,-148 1639.5,-148 1639.5,-129 1588.5,-129"/>
<text text-anchor="middle" x="1614" y="-136" font-family="Helvetica,sans-Serif" font-size="10.00">clz.hpp</text>
</a>
</g>
</g>
<!-- Node15&#45;&gt;Node33 -->
<g id="edge52" class="edge">
<title>Node15&#45;&gt;Node33</title>
<path fill="none" stroke="midnightblue" d="M1748.42,-195.87C1721.67,-184.65 1674.75,-164.98 1644.03,-152.09"/>
<polygon fill="midnightblue" stroke="midnightblue" points="1645.24,-148.81 1634.67,-148.17 1642.54,-155.26 1645.24,-148.81"/>
</g>
<!-- Node16&#45;&gt;Node8 -->
<g id="edge19" class="edge">
<title>Node16&#45;&gt;Node8</title>
<path fill="none" stroke="midnightblue" d="M1673.48,-67.77C1508.34,-57.64 932.7,-22.33 783.52,-13.18"/>
<polygon fill="midnightblue" stroke="midnightblue" points="783.33,-9.66 773.14,-12.54 782.91,-16.65 783.33,-9.66"/>
</g>
<!-- Node17&#45;&gt;Node16 -->
<g id="edge21" class="edge">
<title>Node17&#45;&gt;Node16</title>
<path fill="none" stroke="midnightblue" d="M1762.12,-128.73C1754.17,-118.6 1740.9,-101.69 1730.99,-89.06"/>
<polygon fill="midnightblue" stroke="midnightblue" points="1733.7,-86.83 1724.77,-81.13 1728.19,-91.16 1733.7,-86.83"/>
</g>
<!-- Node18&#45;&gt;Node16 -->
<g id="edge23" class="edge">
<title>Node18&#45;&gt;Node16</title>
<path fill="none" stroke="midnightblue" d="M1872.36,-128.87C1841.29,-117.52 1786.53,-97.52 1751.28,-84.65"/>
<polygon fill="midnightblue" stroke="midnightblue" points="1752.05,-81.21 1741.45,-81.06 1749.64,-87.78 1752.05,-81.21"/>
</g>
<!-- Node19&#45;&gt;Node16 -->
<g id="edge25" class="edge">
<title>Node19&#45;&gt;Node16</title>
<path fill="none" stroke="midnightblue" d="M1969.79,-128.94C1917.41,-117.2 1823.32,-96.11 1766.17,-83.3"/>
<polygon fill="midnightblue" stroke="midnightblue" points="1766.82,-79.86 1756.3,-81.08 1765.29,-86.69 1766.82,-79.86"/>
</g>
<!-- Node20&#45;&gt;Node16 -->
<g id="edge27" class="edge">
<title>Node20&#45;&gt;Node16</title>
<path fill="none" stroke="midnightblue" d="M2097.83,-128.93C2090.82,-126.76 2083.17,-124.6 2076,-123 1969.88,-99.3 1843.45,-84.55 1772.79,-77.49"/>
<polygon fill="midnightblue" stroke="midnightblue" points="1773.07,-74 1762.78,-76.51 1772.39,-80.97 1773.07,-74"/>
</g>
<!-- Node21&#45;&gt;Node16 -->
<g id="edge29" class="edge">
<title>Node21&#45;&gt;Node16</title>
<path fill="none" stroke="midnightblue" d="M2199.23,-128.93C2190.13,-126.77 2180.22,-124.6 2171,-123 2028.28,-98.18 1858.04,-83.03 1772.61,-76.42"/>
<polygon fill="midnightblue" stroke="midnightblue" points="1772.86,-72.93 1762.62,-75.65 1772.33,-79.91 1772.86,-72.93"/>
</g>
<!-- Node22&#45;&gt;Node16 -->
<g id="edge31" class="edge">
<title>Node22&#45;&gt;Node16</title>
<path fill="none" stroke="midnightblue" d="M2329.02,-128.93C2317.39,-126.76 2304.74,-124.6 2293,-123 2102.69,-97.02 1875.03,-81.63 1772.63,-75.54"/>
<polygon fill="midnightblue" stroke="midnightblue" points="1772.72,-72.04 1762.53,-74.95 1772.31,-79.03 1772.72,-72.04"/>
</g>
<!-- Node23&#45;&gt;Node16 -->
<g id="edge33" class="edge">
<title>Node23&#45;&gt;Node16</title>
<path fill="none" stroke="midnightblue" d="M2485.31,-129C2473.65,-126.76 2460.86,-124.53 2449,-123 2197.7,-90.47 1894.89,-77.99 1772.88,-74.05"/>
<polygon fill="midnightblue" stroke="midnightblue" points="1772.79,-70.55 1762.68,-73.73 1772.57,-77.54 1772.79,-70.55"/>
</g>
<!-- Node24&#45;&gt;Node16 -->
<g id="edge35" class="edge">
<title>Node24&#45;&gt;Node16</title>
<path fill="none" stroke="midnightblue" d="M2641.1,-128.95C2628.23,-126.71 2614.09,-124.5 2601,-123 2289.15,-87.28 1912.29,-76.41 1773.11,-73.47"/>
<polygon fill="midnightblue" stroke="midnightblue" points="1772.79,-69.97 1762.72,-73.26 1772.64,-76.97 1772.79,-69.97"/>
</g>
<!-- Node25&#45;&gt;Node16 -->
<g id="edge37" class="edge">
<title>Node25&#45;&gt;Node16</title>
<path fill="none" stroke="midnightblue" d="M2790.92,-128.93C2784,-126.6 2776.28,-124.35 2769,-123 2575.08,-87.08 1960.62,-75.83 1772.96,-73.18"/>
<polygon fill="midnightblue" stroke="midnightblue" points="1772.83,-69.68 1762.78,-73.04 1772.74,-76.68 1772.83,-69.68"/>
</g>
<!-- Node26&#45;&gt;Node16 -->
<g id="edge39" class="edge">
<title>Node26&#45;&gt;Node16</title>
<path fill="none" stroke="midnightblue" d="M2885.75,-128.96C2876.94,-126.63 2867.14,-124.37 2858,-123 2644.83,-91.04 1970.36,-76.93 1772.85,-73.41"/>
<polygon fill="midnightblue" stroke="midnightblue" points="1772.77,-69.91 1762.71,-73.23 1772.65,-76.91 1772.77,-69.91"/>
</g>
<!-- Node27&#45;&gt;Node16 -->
<g id="edge41" class="edge">
<title>Node27&#45;&gt;Node16</title>
<path fill="none" stroke="midnightblue" d="M1423.18,-128.94C1428.54,-126.77 1434.43,-124.61 1440,-123 1515.86,-101.08 1606.25,-86.76 1662.89,-79.15"/>
<polygon fill="midnightblue" stroke="midnightblue" points="1663.6,-82.58 1673.06,-77.8 1662.69,-75.64 1663.6,-82.58"/>
</g>
<!-- Node28&#45;&gt;Node16 -->
<g id="edge43" class="edge">
<title>Node28&#45;&gt;Node16</title>
<path fill="none" stroke="midnightblue" d="M981.25,-124.35C984.2,-123.86 987.13,-123.4 990,-123 1239.91,-87.87 1541.67,-76.83 1663.29,-73.67"/>
<polygon fill="midnightblue" stroke="midnightblue" points="1663.55,-77.16 1673.46,-73.41 1663.37,-70.16 1663.55,-77.16"/>
</g>
<!-- Node29&#45;&gt;Node16 -->
<g id="edge45" class="edge">
<title>Node29&#45;&gt;Node16</title>
<path fill="none" stroke="midnightblue" d="M1133.09,-128.95C1146.68,-126.84 1161.38,-124.69 1175,-123 1353.08,-100.86 1565.13,-83.82 1663.22,-76.47"/>
<polygon fill="midnightblue" stroke="midnightblue" points="1663.49,-79.96 1673.2,-75.72 1662.97,-72.98 1663.49,-79.96"/>
</g>
<!-- Node30&#45;&gt;Node16 -->
<g id="edge47" class="edge">
<title>Node30&#45;&gt;Node16</title>
<path fill="none" stroke="midnightblue" d="M1327.67,-128.98C1340.9,-127 1354.94,-124.92 1368,-123 1472.28,-107.68 1594.11,-90.2 1663.05,-80.34"/>
<polygon fill="midnightblue" stroke="midnightblue" points="1663.83,-83.76 1673.24,-78.88 1662.84,-76.83 1663.83,-83.76"/>
</g>
<!-- Node31&#45;&gt;Node16 -->
<g id="edge49" class="edge">
<title>Node31&#45;&gt;Node16</title>
<path fill="none" stroke="midnightblue" d="M1495,-128.85C1500.16,-126.79 1505.74,-124.69 1511,-123 1562.73,-106.37 1623.24,-92.2 1665.43,-83.14"/>
<polygon fill="midnightblue" stroke="midnightblue" points="1666.43,-86.5 1675.48,-81 1664.97,-79.66 1666.43,-86.5"/>
</g>
<!-- Node32&#45;&gt;Node16 -->
<g id="edge51" class="edge">
<title>Node32&#45;&gt;Node16</title>
<path fill="none" stroke="midnightblue" d="M1565.3,-128.92C1570.1,-126.94 1575.22,-124.86 1580,-123 1615.14,-109.3 1655.72,-94.58 1683.73,-84.59"/>
<polygon fill="midnightblue" stroke="midnightblue" points="1685.2,-87.78 1693.45,-81.13 1682.86,-81.18 1685.2,-87.78"/>
</g>
<!-- Node33&#45;&gt;Node16 -->
<g id="edge53" class="edge">
<title>Node33&#45;&gt;Node16</title>
<path fill="none" stroke="midnightblue" d="M1628.03,-128.73C1645.33,-117.92 1674.99,-99.38 1695.49,-86.57"/>
<polygon fill="midnightblue" stroke="midnightblue" points="1697.57,-89.4 1704.2,-81.13 1693.86,-83.46 1697.57,-89.4"/>
</g>
<!-- Node34&#45;&gt;Node8 -->
<g id="edge56" class="edge">
<title>Node34&#45;&gt;Node8</title>
<path fill="none" stroke="midnightblue" d="M889.51,-196C877.19,-186.55 857.44,-170.46 843,-154 806.75,-112.7 773.44,-56.72 757.64,-28.63"/>
<polygon fill="midnightblue" stroke="midnightblue" points="760.55,-26.66 752.64,-19.62 754.43,-30.06 760.55,-26.66"/>
</g>
<!-- Node34&#45;&gt;Node16 -->
<g id="edge57" class="edge">
<title>Node34&#45;&gt;Node16</title>
<path fill="none" stroke="midnightblue" d="M889.31,-195.79C869.29,-179.89 832.59,-145.69 854,-123 881.83,-93.5 1477.34,-77.84 1663.14,-73.66"/>
<polygon fill="midnightblue" stroke="midnightblue" points="1663.31,-77.15 1673.23,-73.43 1663.15,-70.16 1663.31,-77.15"/>
</g>
<!-- Node35 -->
<g id="node35" class="node">
<title>Node35</title>
<g id="a_node35"><a xlink:title=" ">
<polygon fill="none" stroke="#bfbfbf" points="727,-129 727,-148 769,-148 769,-129 727,-129"/>
<text text-anchor="middle" x="748" y="-136" font-family="Helvetica,sans-Serif" font-size="10.00">array</text>
</a>
</g>
</g>
<!-- Node34&#45;&gt;Node35 -->
<g id="edge55" class="edge">
<title>Node34&#45;&gt;Node35</title>
<path fill="none" stroke="midnightblue" d="M880.68,-195.87C854.28,-184.65 807.97,-164.98 777.64,-152.09"/>
<polygon fill="midnightblue" stroke="midnightblue" points="778.97,-148.86 768.4,-148.17 776.24,-155.3 778.97,-148.86"/>
</g>
<!-- Node36&#45;&gt;Node13 -->
<g id="edge71" class="edge">
<title>Node36&#45;&gt;Node13</title>
<path fill="none" stroke="midnightblue" d="M529.23,-313.44C551.38,-304.52 586.32,-290.44 611.44,-280.32"/>
<polygon fill="midnightblue" stroke="midnightblue" points="612.9,-283.5 620.87,-276.52 610.28,-277.01 612.9,-283.5"/>
</g>
<!-- Node37 -->
<g id="node37" class="node">
<title>Node37</title>
<g id="a_node37"><a xlink:href="cp15_8hpp.html" target="_top" xlink:title=" ">
<polygon fill="none" stroke="black" points="266,-257.5 266,-276.5 394,-276.5 394,-257.5 266,-257.5"/>
<text text-anchor="middle" x="330" y="-264.5" font-family="Helvetica,sans-Serif" font-size="10.00">coprocessors/cp15.hpp</text>
</a>
</g>
</g>
<!-- Node36&#45;&gt;Node37 -->
<g id="edge59" class="edge">
<title>Node36&#45;&gt;Node37</title>
<path fill="none" stroke="midnightblue" d="M479.8,-313.44C449.59,-304.28 401.49,-289.69 367.97,-279.52"/>
<polygon fill="midnightblue" stroke="midnightblue" points="368.66,-276.07 358.07,-276.52 366.63,-282.77 368.66,-276.07"/>
</g>
<!-- Node40 -->
<g id="node40" class="node">
<title>Node40</title>
<g id="a_node40"><a xlink:href="peripheral_8hpp.html" target="_top" xlink:title=" ">
<polygon fill="none" stroke="black" points="433.5,-129 433.5,-148 578.5,-148 578.5,-129 433.5,-129"/>
<text text-anchor="middle" x="506" y="-136" font-family="Helvetica,sans-Serif" font-size="10.00">peripherals/peripheral.hpp</text>
</a>
</g>
</g>
<!-- Node36&#45;&gt;Node40 -->
<g id="edge69" class="edge">
<title>Node36&#45;&gt;Node40</title>
<path fill="none" stroke="midnightblue" d="M507.9,-313.2C507.6,-285.19 506.64,-197.71 506.21,-158.66"/>
<polygon fill="midnightblue" stroke="midnightblue" points="509.7,-158.18 506.1,-148.21 502.71,-158.25 509.7,-158.18"/>
</g>
<!-- Node37&#45;&gt;Node5 -->
<g id="edge68" class="edge">
<title>Node37&#45;&gt;Node5</title>
<path fill="none" stroke="midnightblue" d="M301.49,-257.44C282.22,-250.38 257.39,-238.62 241,-221 223.44,-202.11 198.96,-133.22 186.67,-96.28"/>
<polygon fill="midnightblue" stroke="midnightblue" points="190,-95.18 183.55,-86.78 183.35,-97.37 190,-95.18"/>
</g>
<!-- Node37&#45;&gt;Node7 -->
<g id="edge60" class="edge">
<title>Node37&#45;&gt;Node7</title>
<path fill="none" stroke="midnightblue" d="M322.12,-257.34C302.89,-235.13 256.48,-174.29 275,-123 289.69,-82.32 326.3,-45.98 348.96,-26.35"/>
<polygon fill="midnightblue" stroke="midnightblue" points="351.49,-28.79 356.88,-19.67 346.98,-23.44 351.49,-28.79"/>
</g>
<!-- Node38 -->
<g id="node38" class="node">
<title>Node38</title>
<g id="a_node38"><a xlink:title=" ">
<polygon fill="none" stroke="#bfbfbf" points="283.5,-129 283.5,-148 376.5,-148 376.5,-129 283.5,-129"/>
<text text-anchor="middle" x="330" y="-136" font-family="Helvetica,sans-Serif" font-size="10.00">unordered_map</text>
</a>
</g>
</g>
<!-- Node37&#45;&gt;Node38 -->
<g id="edge61" class="edge">
<title>Node37&#45;&gt;Node38</title>
<path fill="none" stroke="midnightblue" d="M330,-257.31C330,-236.99 330,-186.05 330,-158.28"/>
<polygon fill="midnightblue" stroke="midnightblue" points="333.5,-158.26 330,-148.26 326.5,-158.26 333.5,-158.26"/>
</g>
<!-- Node39 -->
<g id="node39" class="node">
<title>Node39</title>
<g id="a_node39"><a xlink:href="coprocessor_8hpp.html" target="_top" xlink:title=" ">
<polygon fill="none" stroke="black" points="634.5,-196 634.5,-215 729.5,-215 729.5,-196 634.5,-196"/>
<text text-anchor="middle" x="682" y="-203" font-family="Helvetica,sans-Serif" font-size="10.00">coprocessor.hpp</text>
</a>
</g>
</g>
<!-- Node37&#45;&gt;Node39 -->
<g id="edge62" class="edge">
<title>Node37&#45;&gt;Node39</title>
<path fill="none" stroke="midnightblue" d="M380.43,-257.48C444.98,-246.56 556.56,-227.7 624.39,-216.24"/>
<polygon fill="midnightblue" stroke="midnightblue" points="625.2,-219.65 634.48,-214.53 624.04,-212.75 625.2,-219.65"/>
</g>
<!-- Node39&#45;&gt;Node8 -->
<g id="edge63" class="edge">
<title>Node39&#45;&gt;Node8</title>
<path fill="none" stroke="midnightblue" d="M684.92,-195.94C694.91,-166.66 727.83,-70.15 741.72,-29.41"/>
<polygon fill="midnightblue" stroke="midnightblue" points="745.05,-30.5 744.96,-19.91 738.42,-28.24 745.05,-30.5"/>
</g>
<!-- Node39&#45;&gt;Node12 -->
<g id="edge64" class="edge">
<title>Node39&#45;&gt;Node12</title>
<path fill="none" stroke="midnightblue" d="M675.53,-195.73C668.11,-185.7 655.8,-169.01 646.5,-156.42"/>
<polygon fill="midnightblue" stroke="midnightblue" points="649.13,-154.09 640.37,-148.13 643.5,-158.25 649.13,-154.09"/>
</g>
<!-- Node39&#45;&gt;Node28 -->
<g id="edge65" class="edge">
<title>Node39&#45;&gt;Node28</title>
<path fill="none" stroke="midnightblue" d="M713.87,-195.87C751.13,-185.78 813.65,-168.84 860.47,-156.16"/>
<polygon fill="midnightblue" stroke="midnightblue" points="861.47,-159.52 870.2,-153.53 859.64,-152.76 861.47,-159.52"/>
</g>
<!-- Node39&#45;&gt;Node29 -->
<g id="edge66" class="edge">
<title>Node39&#45;&gt;Node29</title>
<path fill="none" stroke="midnightblue" d="M712.93,-195.99C721.34,-193.85 730.49,-191.69 739,-190 849.54,-168.08 878.56,-170.77 990,-154 999.26,-152.61 1009.03,-151.1 1018.62,-149.61"/>
<polygon fill="midnightblue" stroke="midnightblue" points="1019.17,-153.06 1028.51,-148.06 1018.09,-146.15 1019.17,-153.06"/>
</g>
<!-- Node39&#45;&gt;Node30 -->
<g id="edge67" class="edge">
<title>Node39&#45;&gt;Node30</title>
<path fill="none" stroke="midnightblue" d="M711.68,-195.95C720.42,-193.71 730.04,-191.5 739,-190 930.33,-157.98 981.3,-176.35 1174,-154 1185.01,-152.72 1196.69,-151.16 1207.99,-149.53"/>
<polygon fill="midnightblue" stroke="midnightblue" points="1208.84,-152.95 1218.22,-148.03 1207.82,-146.02 1208.84,-152.95"/>
</g>
<!-- Node40&#45;&gt;Node8 -->
<g id="edge70" class="edge">
<title>Node40&#45;&gt;Node8</title>
<path fill="none" stroke="midnightblue" d="M522.63,-128.81C564.18,-107.09 672.72,-50.35 722.45,-24.36"/>
<polygon fill="midnightblue" stroke="midnightblue" points="724.33,-27.32 731.57,-19.59 721.09,-21.12 724.33,-27.32"/>
</g>
<!-- Node42&#45;&gt;Node5 -->
<g id="edge79" class="edge">
<title>Node42&#45;&gt;Node5</title>
<path fill="none" stroke="midnightblue" d="M426.26,-190.35C420.66,-171.97 408.27,-140.2 386,-123 345.93,-92.06 289.56,-79.77 245.75,-75.03"/>
<polygon fill="midnightblue" stroke="midnightblue" points="246.05,-71.54 235.76,-74.05 245.37,-78.51 246.05,-71.54"/>
</g>
<!-- Node42&#45;&gt;Node12 -->
<g id="edge78" class="edge">
<title>Node42&#45;&gt;Node12</title>
<path fill="none" stroke="midnightblue" d="M474.01,-190.48C510.9,-178.72 562.93,-162.14 597.53,-151.12"/>
<polygon fill="midnightblue" stroke="midnightblue" points="598.77,-154.4 607.23,-148.03 596.64,-147.73 598.77,-154.4"/>
</g>
<!-- Node42&#45;&gt;Node35 -->
<g id="edge75" class="edge">
<title>Node42&#45;&gt;Node35</title>
<path fill="none" stroke="midnightblue" d="M492.71,-192.03C543.3,-181.92 616.27,-167.23 680,-154 692.04,-151.5 705.25,-148.7 716.81,-146.22"/>
<polygon fill="midnightblue" stroke="midnightblue" points="717.83,-149.58 726.88,-144.07 716.37,-142.74 717.83,-149.58"/>
</g>
<!-- Node42&#45;&gt;Node38 -->
<g id="edge76" class="edge">
<title>Node42&#45;&gt;Node38</title>
<path fill="none" stroke="midnightblue" d="M408.3,-190.4C391.53,-179.5 368.43,-164.48 351.67,-153.58"/>
<polygon fill="midnightblue" stroke="midnightblue" points="353.38,-150.52 343.09,-148.01 349.56,-156.39 353.38,-150.52"/>
</g>
<!-- Node42&#45;&gt;Node40 -->
<g id="edge77" class="edge">
<title>Node42&#45;&gt;Node40</title>
<path fill="none" stroke="midnightblue" d="M446.49,-190.4C458.69,-179.96 475.31,-165.75 487.88,-155"/>
<polygon fill="midnightblue" stroke="midnightblue" points="490.51,-157.35 495.83,-148.19 485.96,-152.03 490.51,-157.35"/>
</g>
<!-- Node43&#45;&gt;Node8 -->
<g id="edge81" class="edge">
<title>Node43&#45;&gt;Node8</title>
<path fill="none" stroke="midnightblue" d="M2380.28,-68.4C2108.91,-58.86 996.16,-19.73 783.29,-12.24"/>
<polygon fill="midnightblue" stroke="midnightblue" points="783.4,-8.74 773.29,-11.89 783.16,-15.74 783.4,-8.74"/>
</g>
</g>
</svg>
