<?xml version="1.0" encoding="UTF-8" standalone="no"?>
<!DOCTYPE svg PUBLIC "-//W3C//DTD SVG 1.1//EN"
 "http://www.w3.org/Graphics/SVG/1.1/DTD/svg11.dtd">
<!-- Generated by graphviz version 2.43.0 (0)
 -->
<!-- Title: src/core/arm1176jzf_s/context.cpp Pages: 1 -->
<svg width="469pt" height="263pt"
 viewBox="0.00 0.00 468.50 263.00" xmlns="http://www.w3.org/2000/svg" xmlns:xlink="http://www.w3.org/1999/xlink">
<g id="graph0" class="graph" transform="scale(1 1) rotate(0) translate(4 259)">
<title>src/core/arm1176jzf_s/context.cpp</title>
<!-- Node1 -->
<g id="node1" class="node">
<title>Node1</title>
<g id="a_node1"><a xlink:title="This file implements the context (registers) of the CPU.">
<polygon fill="#bfbfbf" stroke="black" points="177.5,-224.5 177.5,-254.5 290.5,-254.5 290.5,-224.5 177.5,-224.5"/>
<text text-anchor="start" x="185.5" y="-242.5" font-family="Helvetica,sans-Serif" font-size="10.00">src/core/arm1176jzf</text>
<text text-anchor="middle" x="234" y="-231.5" font-family="Helvetica,sans-Serif" font-size="10.00">_s/context.cpp</text>
</a>
</g>
</g>
<!-- Node2 -->
<g id="node2" class="node">
<title>Node2</title>
<g id="a_node2"><a xlink:title=" ">
<polygon fill="none" stroke="#bfbfbf" points="67.5,-168.5 67.5,-187.5 168.5,-187.5 168.5,-168.5 67.5,-168.5"/>
<text text-anchor="middle" x="118" y="-175.5" font-family="Helvetica,sans-Serif" font-size="10.00">magic_enum.hpp</text>
</a>
</g>
</g>
<!-- Node1&#45;&gt;Node2 -->
<g id="edge1" class="edge">
<title>Node1&#45;&gt;Node2</title>
<path fill="none" stroke="midnightblue" d="M206.51,-224.4C187.57,-214.68 162.56,-201.86 143.96,-192.31"/>
<polygon fill="midnightblue" stroke="midnightblue" points="145.37,-189.11 134.88,-187.66 142.18,-195.34 145.37,-189.11"/>
</g>
<!-- Node3 -->
<g id="node3" class="node">
<title>Node3</title>
<g id="a_node3"><a xlink:href="context_8hpp.html" target="_top" xlink:title="This file defines the context (registers) of the CPU.">
<polygon fill="none" stroke="black" points="160,-112.5 160,-131.5 234,-131.5 234,-112.5 160,-112.5"/>
<text text-anchor="middle" x="197" y="-119.5" font-family="Helvetica,sans-Serif" font-size="10.00">context.hpp</text>
</a>
</g>
</g>
<!-- Node1&#45;&gt;Node3 -->
<g id="edge2" class="edge">
<title>Node1&#45;&gt;Node3</title>
<path fill="none" stroke="midnightblue" d="M229.14,-224.38C225.68,-214.27 220.97,-200.33 217,-188 211.97,-172.37 206.5,-154.54 202.56,-141.51"/>
<polygon fill="midnightblue" stroke="midnightblue" points="205.88,-140.42 199.64,-131.85 199.18,-142.44 205.88,-140.42"/>
</g>
<!-- Node11 -->
<g id="node11" class="node">
<title>Node11</title>
<g id="a_node11"><a xlink:href="exceptions_8hpp.html" target="_top" xlink:title="This file defines all exceptions that can be thrown by the CPU during execution.">
<polygon fill="none" stroke="black" points="225.5,-168.5 225.5,-187.5 316.5,-187.5 316.5,-168.5 225.5,-168.5"/>
<text text-anchor="middle" x="271" y="-175.5" font-family="Helvetica,sans-Serif" font-size="10.00">exceptions.hpp</text>
</a>
</g>
</g>
<!-- Node1&#45;&gt;Node11 -->
<g id="edge10" class="edge">
<title>Node1&#45;&gt;Node11</title>
<path fill="none" stroke="midnightblue" d="M242.77,-224.4C247.98,-216.02 254.63,-205.33 260.17,-196.42"/>
<polygon fill="midnightblue" stroke="midnightblue" points="263.31,-198 265.62,-187.66 257.36,-194.3 263.31,-198"/>
</g>
<!-- Node13 -->
<g id="node13" class="node">
<title>Node13</title>
<g id="a_node13"><a xlink:href="singleton_8hpp.html" target="_top" xlink:title="This file defines and implements a generic class that is used to treat other classes as singletons.">
<polygon fill="none" stroke="black" points="335,-168.5 335,-187.5 451,-187.5 451,-168.5 335,-168.5"/>
<text text-anchor="middle" x="393" y="-175.5" font-family="Helvetica,sans-Serif" font-size="10.00">../utils/singleton.hpp</text>
</a>
</g>
</g>
<!-- Node1&#45;&gt;Node13 -->
<g id="edge13" class="edge">
<title>Node1&#45;&gt;Node13</title>
<path fill="none" stroke="midnightblue" d="M271.68,-224.4C298.6,-214.33 334.45,-200.91 360.19,-191.28"/>
<polygon fill="midnightblue" stroke="midnightblue" points="361.73,-194.44 369.86,-187.66 359.27,-187.88 361.73,-194.44"/>
</g>
<!-- Node4 -->
<g id="node4" class="node">
<title>Node4</title>
<g id="a_node4"><a xlink:href="logger_8hpp.html" target="_top" xlink:title=" ">
<polygon fill="none" stroke="black" points="130,-56.5 130,-75.5 264,-75.5 264,-56.5 130,-56.5"/>
<text text-anchor="middle" x="197" y="-63.5" font-family="Helvetica,sans-Serif" font-size="10.00">../utils/logger/logger.hpp</text>
</a>
</g>
</g>
<!-- Node3&#45;&gt;Node4 -->
<g id="edge3" class="edge">
<title>Node3&#45;&gt;Node4</title>
<path fill="none" stroke="midnightblue" d="M197,-112.08C197,-105.01 197,-94.86 197,-85.99"/>
<polygon fill="midnightblue" stroke="midnightblue" points="200.5,-85.75 197,-75.75 193.5,-85.75 200.5,-85.75"/>
</g>
<!-- Node5 -->
<g id="node5" class="node">
<title>Node5</title>
<g id="a_node5"><a xlink:title=" ">
<polygon fill="none" stroke="#bfbfbf" points="0,-0.5 0,-19.5 48,-19.5 48,-0.5 0,-0.5"/>
<text text-anchor="middle" x="24" y="-7.5" font-family="Helvetica,sans-Serif" font-size="10.00">mutex</text>
</a>
</g>
</g>
<!-- Node4&#45;&gt;Node5 -->
<g id="edge4" class="edge">
<title>Node4&#45;&gt;Node5</title>
<path fill="none" stroke="midnightblue" d="M169.59,-56.44C139.28,-46.98 90.44,-31.74 57.79,-21.55"/>
<polygon fill="midnightblue" stroke="midnightblue" points="58.8,-18.2 48.21,-18.56 56.72,-24.88 58.8,-18.2"/>
</g>
<!-- Node6 -->
<g id="node6" class="node">
<title>Node6</title>
<g id="a_node6"><a xlink:title=" ">
<polygon fill="none" stroke="#bfbfbf" points="66.5,-0.5 66.5,-19.5 113.5,-19.5 113.5,-0.5 66.5,-0.5"/>
<text text-anchor="middle" x="90" y="-7.5" font-family="Helvetica,sans-Serif" font-size="10.00">vector</text>
</a>
</g>
</g>
<!-- Node4&#45;&gt;Node6 -->
<g id="edge5" class="edge">
<title>Node4&#45;&gt;Node6</title>
<path fill="none" stroke="midnightblue" d="M179.81,-56.32C162.65,-47.66 136.05,-34.24 116.25,-24.25"/>
<polygon fill="midnightblue" stroke="midnightblue" points="117.65,-21.04 107.15,-19.65 114.5,-27.28 117.65,-21.04"/>
</g>
<!-- Node7 -->
<g id="node7" class="node">
<title>Node7</title>
<g id="a_node7"><a xlink:title=" ">
<polygon fill="none" stroke="#bfbfbf" points="132,-0.5 132,-19.5 190,-19.5 190,-0.5 132,-0.5"/>
<text text-anchor="middle" x="161" y="-7.5" font-family="Helvetica,sans-Serif" font-size="10.00">memory</text>
</a>
</g>
</g>
<!-- Node4&#45;&gt;Node7 -->
<g id="edge6" class="edge">
<title>Node4&#45;&gt;Node7</title>
<path fill="none" stroke="midnightblue" d="M191.06,-56.08C186.02,-48.53 178.66,-37.49 172.49,-28.23"/>
<polygon fill="midnightblue" stroke="midnightblue" points="175.29,-26.13 166.83,-19.75 169.47,-30.01 175.29,-26.13"/>
</g>
<!-- Node8 -->
<g id="node8" class="node">
<title>Node8</title>
<g id="a_node8"><a xlink:title=" ">
<polygon fill="none" stroke="#bfbfbf" points="208,-0.5 208,-19.5 258,-19.5 258,-0.5 208,-0.5"/>
<text text-anchor="middle" x="233" y="-7.5" font-family="Helvetica,sans-Serif" font-size="10.00">cstdint</text>
</a>
</g>
</g>
<!-- Node4&#45;&gt;Node8 -->
<g id="edge7" class="edge">
<title>Node4&#45;&gt;Node8</title>
<path fill="none" stroke="midnightblue" d="M202.94,-56.08C207.98,-48.53 215.34,-37.49 221.51,-28.23"/>
<polygon fill="midnightblue" stroke="midnightblue" points="224.53,-30.01 227.17,-19.75 218.71,-26.13 224.53,-30.01"/>
</g>
<!-- Node9 -->
<g id="node9" class="node">
<title>Node9</title>
<g id="a_node9"><a xlink:title=" ">
<polygon fill="none" stroke="#bfbfbf" points="276.5,-0.5 276.5,-19.5 349.5,-19.5 349.5,-0.5 276.5,-0.5"/>
<text text-anchor="middle" x="313" y="-7.5" font-family="Helvetica,sans-Serif" font-size="10.00">string_view</text>
</a>
</g>
</g>
<!-- Node4&#45;&gt;Node9 -->
<g id="edge8" class="edge">
<title>Node4&#45;&gt;Node9</title>
<path fill="none" stroke="midnightblue" d="M215.38,-56.44C234.22,-47.68 263.73,-33.94 285.38,-23.86"/>
<polygon fill="midnightblue" stroke="midnightblue" points="287.12,-26.91 294.71,-19.52 284.16,-20.56 287.12,-26.91"/>
</g>
<!-- Node10 -->
<g id="node10" class="node">
<title>Node10</title>
<g id="a_node10"><a xlink:title=" ">
<polygon fill="none" stroke="#bfbfbf" points="367.5,-0.5 367.5,-19.5 460.5,-19.5 460.5,-0.5 367.5,-0.5"/>
<text text-anchor="middle" x="414" y="-7.5" font-family="Helvetica,sans-Serif" font-size="10.00">source_location</text>
</a>
</g>
</g>
<!-- Node4&#45;&gt;Node10 -->
<g id="edge9" class="edge">
<title>Node4&#45;&gt;Node10</title>
<path fill="none" stroke="midnightblue" d="M231.38,-56.44C268.92,-47.1 329.13,-32.12 370.07,-21.93"/>
<polygon fill="midnightblue" stroke="midnightblue" points="370.92,-25.33 379.78,-19.52 369.23,-18.53 370.92,-25.33"/>
</g>
<!-- Node11&#45;&gt;Node3 -->
<g id="edge12" class="edge">
<title>Node11&#45;&gt;Node3</title>
<path fill="none" stroke="midnightblue" d="M259.11,-168.32C247.85,-160.11 230.71,-147.6 217.29,-137.81"/>
<polygon fill="midnightblue" stroke="midnightblue" points="219.25,-134.9 209.11,-131.83 215.12,-140.56 219.25,-134.9"/>
</g>
<!-- Node12 -->
<g id="node12" class="node">
<title>Node12</title>
<g id="a_node12"><a xlink:title=" ">
<polygon fill="none" stroke="#bfbfbf" points="252.5,-112.5 252.5,-131.5 331.5,-131.5 331.5,-112.5 252.5,-112.5"/>
<text text-anchor="middle" x="292" y="-119.5" font-family="Helvetica,sans-Serif" font-size="10.00">fmt/format.h</text>
</a>
</g>
</g>
<!-- Node11&#45;&gt;Node12 -->
<g id="edge11" class="edge">
<title>Node11&#45;&gt;Node12</title>
<path fill="none" stroke="midnightblue" d="M274.47,-168.08C277.31,-160.77 281.43,-150.18 284.96,-141.1"/>
<polygon fill="midnightblue" stroke="midnightblue" points="288.23,-142.34 288.6,-131.75 281.71,-139.8 288.23,-142.34"/>
</g>
</g>
</svg>
