<?xml version="1.0" encoding="UTF-8" standalone="no"?>
<!DOCTYPE svg PUBLIC "-//W3C//DTD SVG 1.1//EN"
 "http://www.w3.org/Graphics/SVG/1.1/DTD/svg11.dtd">
<!-- Generated by graphviz version 2.43.0 (0)
 -->
<!-- Title: src/core/arm1176jzf_s/context.hpp Pages: 1 -->
<svg width="2078pt" height="463pt"
 viewBox="0.00 0.00 2077.50 463.00" xmlns="http://www.w3.org/2000/svg" xmlns:xlink="http://www.w3.org/1999/xlink">
<g id="graph0" class="graph" transform="scale(1 1) rotate(0) translate(4 459)">
<title>src/core/arm1176jzf_s/context.hpp</title>
<!-- Node1 -->
<g id="node1" class="node">
<title>Node1</title>
<g id="a_node1"><a xlink:title="This file defines the context (registers) of the CPU.">
<polygon fill="#bfbfbf" stroke="black" points="389,-424.5 389,-454.5 502,-454.5 502,-424.5 389,-424.5"/>
<text text-anchor="start" x="397" y="-442.5" font-family="Helvetica,sans-Serif" font-size="10.00">src/core/arm1176jzf</text>
<text text-anchor="middle" x="445.5" y="-431.5" font-family="Helvetica,sans-Serif" font-size="10.00">_s/context.hpp</text>
</a>
</g>
</g>
<!-- Node2 -->
<g id="node2" class="node">
<title>Node2</title>
<g id="a_node2"><a xlink:href="context_8cpp.html" target="_top" xlink:title="This file implements the context (registers) of the CPU.">
<polygon fill="none" stroke="black" points="275,-290.5 275,-320.5 388,-320.5 388,-290.5 275,-290.5"/>
<text text-anchor="start" x="283" y="-308.5" font-family="Helvetica,sans-Serif" font-size="10.00">src/core/arm1176jzf</text>
<text text-anchor="middle" x="331.5" y="-297.5" font-family="Helvetica,sans-Serif" font-size="10.00">_s/context.cpp</text>
</a>
</g>
</g>
<!-- Node1&#45;&gt;Node2 -->
<g id="edge1" class="edge">
<title>Node1&#45;&gt;Node2</title>
<path fill="none" stroke="midnightblue" d="M414.59,-418.65C402.75,-410.12 389.66,-399.47 379.5,-388 360.88,-366.98 345.72,-337.68 337.7,-320.54"/>
<polygon fill="midnightblue" stroke="midnightblue" points="412.73,-421.62 422.94,-424.47 416.74,-415.87 412.73,-421.62"/>
</g>
<!-- Node3 -->
<g id="node3" class="node">
<title>Node3</title>
<g id="a_node3"><a xlink:href="core_8hpp.html" target="_top" xlink:title="This file defines a class that represents a CPU core (arm1176jzf_s).">
<polygon fill="none" stroke="black" points="359,-156.5 359,-186.5 472,-186.5 472,-156.5 359,-156.5"/>
<text text-anchor="start" x="367" y="-174.5" font-family="Helvetica,sans-Serif" font-size="10.00">src/core/arm1176jzf</text>
<text text-anchor="middle" x="415.5" y="-163.5" font-family="Helvetica,sans-Serif" font-size="10.00">_s/core.hpp</text>
</a>
</g>
</g>
<!-- Node1&#45;&gt;Node3 -->
<g id="edge2" class="edge">
<title>Node1&#45;&gt;Node3</title>
<path fill="none" stroke="midnightblue" d="M391.86,-420.73C348.46,-403.08 290.59,-371.29 265.5,-321 235.32,-260.5 326.55,-210.07 379.87,-186.62"/>
<polygon fill="midnightblue" stroke="midnightblue" points="390.84,-424.09 401.43,-424.49 393.41,-417.57 390.84,-424.09"/>
</g>
<!-- Node14 -->
<g id="node14" class="node">
<title>Node14</title>
<g id="a_node14"><a xlink:href="exceptions_8hpp.html" target="_top" xlink:title="This file defines all exceptions that can be thrown by the CPU during execution.">
<polygon fill="none" stroke="black" points="389,-357.5 389,-387.5 502,-387.5 502,-357.5 389,-357.5"/>
<text text-anchor="start" x="397" y="-375.5" font-family="Helvetica,sans-Serif" font-size="10.00">src/core/arm1176jzf</text>
<text text-anchor="middle" x="445.5" y="-364.5" font-family="Helvetica,sans-Serif" font-size="10.00">_s/exceptions.hpp</text>
</a>
</g>
</g>
<!-- Node1&#45;&gt;Node14 -->
<g id="edge16" class="edge">
<title>Node1&#45;&gt;Node14</title>
<path fill="none" stroke="midnightblue" d="M445.5,-414.11C445.5,-405.15 445.5,-395.32 445.5,-387.58"/>
<polygon fill="midnightblue" stroke="midnightblue" points="442,-414.4 445.5,-424.4 449,-414.4 442,-414.4"/>
</g>
<!-- Node20 -->
<g id="node20" class="node">
<title>Node20</title>
<g id="a_node20"><a xlink:href="coprocessor_8hpp.html" target="_top" xlink:title="This file defines a general interface of a coprocessor.">
<polygon fill="none" stroke="black" points="614.5,-357.5 614.5,-387.5 736.5,-387.5 736.5,-357.5 614.5,-357.5"/>
<text text-anchor="start" x="622.5" y="-375.5" font-family="Helvetica,sans-Serif" font-size="10.00">src/core/coprocessors</text>
<text text-anchor="middle" x="675.5" y="-364.5" font-family="Helvetica,sans-Serif" font-size="10.00">/coprocessor.hpp</text>
</a>
</g>
</g>
<!-- Node1&#45;&gt;Node20 -->
<g id="edge30" class="edge">
<title>Node1&#45;&gt;Node20</title>
<path fill="none" stroke="midnightblue" d="M504.89,-421.71C542.32,-411.14 590.1,-397.63 625.57,-387.61"/>
<polygon fill="midnightblue" stroke="midnightblue" points="503.79,-418.39 495.12,-424.48 505.7,-425.12 503.79,-418.39"/>
</g>
<!-- Node26 -->
<g id="node26" class="node">
<title>Node26</title>
<g id="a_node26"><a xlink:href="interrupt__controller_8hpp.html" target="_top" xlink:title="This file defines the interrupt controller used in BCM2835.">
<polygon fill="none" stroke="black" points="1095.5,-290.5 1095.5,-320.5 1229.5,-320.5 1229.5,-290.5 1095.5,-290.5"/>
<text text-anchor="start" x="1103.5" y="-308.5" font-family="Helvetica,sans-Serif" font-size="10.00">src/core/peripherals</text>
<text text-anchor="middle" x="1162.5" y="-297.5" font-family="Helvetica,sans-Serif" font-size="10.00">/interrupt_controller.hpp</text>
</a>
</g>
</g>
<!-- Node1&#45;&gt;Node26 -->
<g id="edge38" class="edge">
<title>Node1&#45;&gt;Node26</title>
<path fill="none" stroke="midnightblue" d="M512.49,-427.74C573.35,-417.84 665.55,-402.54 745.5,-388 869.24,-365.5 1013.13,-336.82 1095.43,-320.17"/>
<polygon fill="midnightblue" stroke="midnightblue" points="511.56,-424.34 502.25,-429.4 512.68,-431.25 511.56,-424.34"/>
</g>
<!-- Node4 -->
<g id="node4" class="node">
<title>Node4</title>
<g id="a_node4"><a xlink:href="core_8cpp.html" target="_top" xlink:title="This file implements the CCPU_Core class defined in core.hpp.">
<polygon fill="none" stroke="black" points="0,-84 0,-114 113,-114 113,-84 0,-84"/>
<text text-anchor="start" x="8" y="-102" font-family="Helvetica,sans-Serif" font-size="10.00">src/core/arm1176jzf</text>
<text text-anchor="middle" x="56.5" y="-91" font-family="Helvetica,sans-Serif" font-size="10.00">_s/core.cpp</text>
</a>
</g>
</g>
<!-- Node3&#45;&gt;Node4 -->
<g id="edge3" class="edge">
<title>Node3&#45;&gt;Node4</title>
<path fill="none" stroke="midnightblue" d="M348.86,-161.41C289.16,-152.7 199.42,-138.21 122.5,-120 115.28,-118.29 107.68,-116.24 100.32,-114.1"/>
<polygon fill="midnightblue" stroke="midnightblue" points="348.51,-164.9 358.91,-162.87 349.52,-157.97 348.51,-164.9"/>
</g>
<!-- Node5 -->
<g id="node5" class="node">
<title>Node5</title>
<g id="a_node5"><a xlink:href="control__window_8hpp.html" target="_top" xlink:title=" ">
<polygon fill="none" stroke="black" points="290,-84 290,-114 421,-114 421,-84 290,-84"/>
<text text-anchor="start" x="298" y="-102" font-family="Helvetica,sans-Serif" font-size="10.00">src/gui/windows/control</text>
<text text-anchor="middle" x="355.5" y="-91" font-family="Helvetica,sans-Serif" font-size="10.00">_window.hpp</text>
</a>
</g>
</g>
<!-- Node3&#45;&gt;Node5 -->
<g id="edge4" class="edge">
<title>Node3&#45;&gt;Node5</title>
<path fill="none" stroke="midnightblue" d="M396.81,-148.54C387.29,-137.36 376,-124.08 367.62,-114.25"/>
<polygon fill="midnightblue" stroke="midnightblue" points="394.21,-150.89 403.36,-156.23 399.54,-146.35 394.21,-150.89"/>
</g>
<!-- Node8 -->
<g id="node8" class="node">
<title>Node8</title>
<g id="a_node8"><a xlink:href="file__window_8hpp.html" target="_top" xlink:title=" ">
<polygon fill="none" stroke="black" points="664,-84 664,-114 777,-114 777,-84 664,-84"/>
<text text-anchor="start" x="672" y="-102" font-family="Helvetica,sans-Serif" font-size="10.00">src/gui/windows/file</text>
<text text-anchor="middle" x="720.5" y="-91" font-family="Helvetica,sans-Serif" font-size="10.00">_window.hpp</text>
</a>
</g>
</g>
<!-- Node3&#45;&gt;Node8 -->
<g id="edge7" class="edge">
<title>Node3&#45;&gt;Node8</title>
<path fill="none" stroke="midnightblue" d="M482.41,-155.62C559.46,-139.38 581.11,-138.67 654.5,-120 661.58,-118.2 669.03,-116.12 676.28,-114"/>
<polygon fill="midnightblue" stroke="midnightblue" points="481.26,-152.29 472.21,-157.8 482.72,-159.14 481.26,-152.29"/>
</g>
<!-- Node10 -->
<g id="node10" class="node">
<title>Node10</title>
<g id="a_node10"><a xlink:href="registers__window_8hpp.html" target="_top" xlink:title=" ">
<polygon fill="none" stroke="black" points="131.5,-84 131.5,-114 271.5,-114 271.5,-84 131.5,-84"/>
<text text-anchor="start" x="139.5" y="-102" font-family="Helvetica,sans-Serif" font-size="10.00">src/gui/windows/registers</text>
<text text-anchor="middle" x="201.5" y="-91" font-family="Helvetica,sans-Serif" font-size="10.00">_window.hpp</text>
</a>
</g>
</g>
<!-- Node3&#45;&gt;Node10 -->
<g id="edge10" class="edge">
<title>Node3&#45;&gt;Node10</title>
<path fill="none" stroke="midnightblue" d="M363,-153.2C326.51,-141.18 278.49,-125.36 244.32,-114.11"/>
<polygon fill="midnightblue" stroke="midnightblue" points="362.37,-156.68 372.96,-156.49 364.56,-150.03 362.37,-156.68"/>
</g>
<!-- Node12 -->
<g id="node12" class="node">
<title>Node12</title>
<g id="a_node12"><a xlink:href="source__code__window_8hpp.html" target="_top" xlink:title=" ">
<polygon fill="none" stroke="black" points="515.5,-84 515.5,-114 645.5,-114 645.5,-84 515.5,-84"/>
<text text-anchor="start" x="523.5" y="-102" font-family="Helvetica,sans-Serif" font-size="10.00">src/gui/windows/source</text>
<text text-anchor="middle" x="580.5" y="-91" font-family="Helvetica,sans-Serif" font-size="10.00">_code_window.hpp</text>
</a>
</g>
</g>
<!-- Node3&#45;&gt;Node12 -->
<g id="edge13" class="edge">
<title>Node3&#45;&gt;Node12</title>
<path fill="none" stroke="midnightblue" d="M457.99,-152.34C485.89,-140.42 521.84,-125.07 547.56,-114.07"/>
<polygon fill="midnightblue" stroke="midnightblue" points="456.31,-149.26 448.49,-156.4 459.06,-155.69 456.31,-149.26"/>
</g>
<!-- Node6 -->
<g id="node6" class="node">
<title>Node6</title>
<g id="a_node6"><a xlink:href="gui_8cpp.html" target="_top" xlink:title=" ">
<polygon fill="none" stroke="black" points="986,-11.5 986,-30.5 1073,-30.5 1073,-11.5 986,-11.5"/>
<text text-anchor="middle" x="1029.5" y="-18.5" font-family="Helvetica,sans-Serif" font-size="10.00">src/gui/gui.cpp</text>
</a>
</g>
</g>
<!-- Node5&#45;&gt;Node6 -->
<g id="edge5" class="edge">
<title>Node5&#45;&gt;Node6</title>
<path fill="none" stroke="midnightblue" d="M431.35,-87.58C455.37,-84.38 482.03,-80.93 506.5,-78 683.99,-56.75 895.83,-35.25 985.72,-26.31"/>
<polygon fill="midnightblue" stroke="midnightblue" points="430.68,-84.13 421.23,-88.93 431.61,-91.07 430.68,-84.13"/>
</g>
<!-- Node7 -->
<g id="node7" class="node">
<title>Node7</title>
<g id="a_node7"><a xlink:href="control__window_8cpp.html" target="_top" xlink:title=" ">
<polygon fill="none" stroke="black" points="309,-6 309,-36 440,-36 440,-6 309,-6"/>
<text text-anchor="start" x="317" y="-24" font-family="Helvetica,sans-Serif" font-size="10.00">src/gui/windows/control</text>
<text text-anchor="middle" x="374.5" y="-13" font-family="Helvetica,sans-Serif" font-size="10.00">_window.cpp</text>
</a>
</g>
</g>
<!-- Node5&#45;&gt;Node7 -->
<g id="edge6" class="edge">
<title>Node5&#45;&gt;Node7</title>
<path fill="none" stroke="midnightblue" d="M361.51,-73.96C364.61,-61.55 368.29,-46.83 370.94,-36.23"/>
<polygon fill="midnightblue" stroke="midnightblue" points="358.1,-73.15 359.07,-83.7 364.89,-74.85 358.1,-73.15"/>
</g>
<!-- Node8&#45;&gt;Node6 -->
<g id="edge8" class="edge">
<title>Node8&#45;&gt;Node6</title>
<path fill="none" stroke="midnightblue" d="M775.4,-81.06C779.15,-80 782.87,-78.97 786.5,-78 856.99,-59.22 939.96,-40.9 988.45,-30.57"/>
<polygon fill="midnightblue" stroke="midnightblue" points="774.11,-77.79 765.47,-83.93 776.05,-84.51 774.11,-77.79"/>
</g>
<!-- Node9 -->
<g id="node9" class="node">
<title>Node9</title>
<g id="a_node9"><a xlink:href="file__window_8cpp.html" target="_top" xlink:title=" ">
<polygon fill="none" stroke="black" points="664,-6 664,-36 777,-36 777,-6 664,-6"/>
<text text-anchor="start" x="672" y="-24" font-family="Helvetica,sans-Serif" font-size="10.00">src/gui/windows/file</text>
<text text-anchor="middle" x="720.5" y="-13" font-family="Helvetica,sans-Serif" font-size="10.00">_window.cpp</text>
</a>
</g>
</g>
<!-- Node8&#45;&gt;Node9 -->
<g id="edge9" class="edge">
<title>Node8&#45;&gt;Node9</title>
<path fill="none" stroke="midnightblue" d="M720.5,-73.59C720.5,-61.26 720.5,-46.72 720.5,-36.23"/>
<polygon fill="midnightblue" stroke="midnightblue" points="717,-73.7 720.5,-83.7 724,-73.71 717,-73.7"/>
</g>
<!-- Node10&#45;&gt;Node6 -->
<g id="edge11" class="edge">
<title>Node10&#45;&gt;Node6</title>
<path fill="none" stroke="midnightblue" d="M261.39,-81.66C267.81,-80.26 274.27,-79 280.5,-78 503.1,-42.19 561.7,-59.25 786.5,-42 856.14,-36.66 936.96,-29.89 985.61,-25.76"/>
<polygon fill="midnightblue" stroke="midnightblue" points="260.34,-78.31 251.37,-83.96 261.9,-85.13 260.34,-78.31"/>
</g>
<!-- Node11 -->
<g id="node11" class="node">
<title>Node11</title>
<g id="a_node11"><a xlink:href="registers__window_8cpp.html" target="_top" xlink:title=" ">
<polygon fill="none" stroke="black" points="131.5,-6 131.5,-36 271.5,-36 271.5,-6 131.5,-6"/>
<text text-anchor="start" x="139.5" y="-24" font-family="Helvetica,sans-Serif" font-size="10.00">src/gui/windows/registers</text>
<text text-anchor="middle" x="201.5" y="-13" font-family="Helvetica,sans-Serif" font-size="10.00">_window.cpp</text>
</a>
</g>
</g>
<!-- Node10&#45;&gt;Node11 -->
<g id="edge12" class="edge">
<title>Node10&#45;&gt;Node11</title>
<path fill="none" stroke="midnightblue" d="M201.5,-73.59C201.5,-61.26 201.5,-46.72 201.5,-36.23"/>
<polygon fill="midnightblue" stroke="midnightblue" points="198,-73.7 201.5,-83.7 205,-73.71 198,-73.7"/>
</g>
<!-- Node12&#45;&gt;Node6 -->
<g id="edge14" class="edge">
<title>Node12&#45;&gt;Node6</title>
<path fill="none" stroke="midnightblue" d="M639.97,-81.49C645.2,-80.24 650.43,-79.05 655.5,-78 773.94,-53.42 915.63,-35.21 985.74,-26.94"/>
<polygon fill="midnightblue" stroke="midnightblue" points="638.8,-78.18 629.93,-83.98 640.48,-84.97 638.8,-78.18"/>
</g>
<!-- Node13 -->
<g id="node13" class="node">
<title>Node13</title>
<g id="a_node13"><a xlink:href="source__code__window_8cpp.html" target="_top" xlink:title=" ">
<polygon fill="none" stroke="black" points="496.5,-6 496.5,-36 626.5,-36 626.5,-6 496.5,-6"/>
<text text-anchor="start" x="504.5" y="-24" font-family="Helvetica,sans-Serif" font-size="10.00">src/gui/windows/source</text>
<text text-anchor="middle" x="561.5" y="-13" font-family="Helvetica,sans-Serif" font-size="10.00">_code_window.cpp</text>
</a>
</g>
</g>
<!-- Node12&#45;&gt;Node13 -->
<g id="edge15" class="edge">
<title>Node12&#45;&gt;Node13</title>
<path fill="none" stroke="midnightblue" d="M574.49,-73.96C571.39,-61.55 567.71,-46.83 565.06,-36.23"/>
<polygon fill="midnightblue" stroke="midnightblue" points="571.11,-74.85 576.93,-83.7 577.9,-73.15 571.11,-74.85"/>
</g>
<!-- Node14&#45;&gt;Node2 -->
<g id="edge17" class="edge">
<title>Node14&#45;&gt;Node2</title>
<path fill="none" stroke="midnightblue" d="M411.82,-352.3C393.98,-342.12 372.46,-329.85 356.19,-320.58"/>
<polygon fill="midnightblue" stroke="midnightblue" points="410.34,-355.48 420.76,-357.4 413.81,-349.4 410.34,-355.48"/>
</g>
<!-- Node14&#45;&gt;Node3 -->
<g id="edge18" class="edge">
<title>Node14&#45;&gt;Node3</title>
<path fill="none" stroke="midnightblue" d="M441.85,-347.27C435.52,-305.29 422.71,-220.33 417.64,-186.68"/>
<polygon fill="midnightblue" stroke="midnightblue" points="438.39,-347.82 443.34,-357.19 445.31,-346.78 438.39,-347.82"/>
</g>
<!-- Node15 -->
<g id="node15" class="node">
<title>Node15</title>
<g id="a_node15"><a xlink:href="exceptions_8cpp.html" target="_top" xlink:title="This file implements all exceptions that can be thrown by the CPU during execution.">
<polygon fill="none" stroke="black" points="483,-290.5 483,-320.5 596,-320.5 596,-290.5 483,-290.5"/>
<text text-anchor="start" x="491" y="-308.5" font-family="Helvetica,sans-Serif" font-size="10.00">src/core/arm1176jzf</text>
<text text-anchor="middle" x="539.5" y="-297.5" font-family="Helvetica,sans-Serif" font-size="10.00">_s/exceptions.cpp</text>
</a>
</g>
</g>
<!-- Node14&#45;&gt;Node15 -->
<g id="edge19" class="edge">
<title>Node14&#45;&gt;Node15</title>
<path fill="none" stroke="midnightblue" d="M474.49,-351.45C488.95,-341.45 506.09,-329.6 519.14,-320.58"/>
<polygon fill="midnightblue" stroke="midnightblue" points="472.13,-348.83 465.9,-357.4 476.11,-354.59 472.13,-348.83"/>
</g>
<!-- Node16 -->
<g id="node16" class="node">
<title>Node16</title>
<g id="a_node16"><a xlink:href="bus_8hpp.html" target="_top" xlink:title="This file defines an interface the CPU uses to access different memory&#45;mapped peripherals.">
<polygon fill="none" stroke="black" points="622.5,-229 622.5,-248 718.5,-248 718.5,-229 622.5,-229"/>
<text text-anchor="middle" x="670.5" y="-236" font-family="Helvetica,sans-Serif" font-size="10.00">src/core/bus.hpp</text>
</a>
</g>
</g>
<!-- Node14&#45;&gt;Node16 -->
<g id="edge20" class="edge">
<title>Node14&#45;&gt;Node16</title>
<path fill="none" stroke="midnightblue" d="M447.71,-347.29C450.65,-329.06 457.51,-304.76 473.5,-290 494.97,-270.18 571.01,-254.88 622.1,-246.54"/>
<polygon fill="midnightblue" stroke="midnightblue" points="444.24,-346.83 446.39,-357.21 451.18,-347.75 444.24,-346.83"/>
</g>
<!-- Node16&#45;&gt;Node3 -->
<g id="edge21" class="edge">
<title>Node16&#45;&gt;Node3</title>
<path fill="none" stroke="midnightblue" d="M626.99,-226.41C583.81,-215.4 517.5,-198.5 470.66,-186.56"/>
<polygon fill="midnightblue" stroke="midnightblue" points="626.35,-229.86 636.9,-228.94 628.08,-223.07 626.35,-229.86"/>
</g>
<!-- Node16&#45;&gt;Node8 -->
<g id="edge29" class="edge">
<title>Node16&#45;&gt;Node8</title>
<path fill="none" stroke="midnightblue" d="M654.2,-221.41C639.37,-204.72 621.48,-178.04 633.5,-156 644,-136.76 664.25,-123.14 682.57,-114.15"/>
<polygon fill="midnightblue" stroke="midnightblue" points="651.69,-223.85 661.09,-228.73 656.79,-219.05 651.69,-223.85"/>
</g>
<!-- Node17 -->
<g id="node17" class="node">
<title>Node17</title>
<g id="a_node17"><a xlink:href="bus_8cpp.html" target="_top" xlink:title="This file implements the interface defined in bus.hpp.">
<polygon fill="none" stroke="black" points="642,-162 642,-181 737,-181 737,-162 642,-162"/>
<text text-anchor="middle" x="689.5" y="-169" font-family="Helvetica,sans-Serif" font-size="10.00">src/core/bus.cpp</text>
</a>
</g>
</g>
<!-- Node16&#45;&gt;Node17 -->
<g id="edge22" class="edge">
<title>Node16&#45;&gt;Node17</title>
<path fill="none" stroke="midnightblue" d="M675.93,-218.91C679.56,-206.49 684.18,-190.72 686.98,-181.13"/>
<polygon fill="midnightblue" stroke="midnightblue" points="672.51,-218.15 673.06,-228.73 679.23,-220.12 672.51,-218.15"/>
</g>
<!-- Node18 -->
<g id="node18" class="node">
<title>Node18</title>
<g id="a_node18"><a xlink:href="elf__loader_8hpp.html" target="_top" xlink:title="This file defines the functionality of an ELF loader.">
<polygon fill="none" stroke="black" points="490,-156.5 490,-186.5 585,-186.5 585,-156.5 490,-156.5"/>
<text text-anchor="start" x="498" y="-174.5" font-family="Helvetica,sans-Serif" font-size="10.00">src/core/utils/elf</text>
<text text-anchor="middle" x="537.5" y="-163.5" font-family="Helvetica,sans-Serif" font-size="10.00">_loader.hpp</text>
</a>
</g>
</g>
<!-- Node16&#45;&gt;Node18 -->
<g id="edge23" class="edge">
<title>Node16&#45;&gt;Node18</title>
<path fill="none" stroke="midnightblue" d="M643.85,-224.47C621.36,-213.49 589.25,-197.79 566.2,-186.53"/>
<polygon fill="midnightblue" stroke="midnightblue" points="642.32,-227.62 652.84,-228.87 645.39,-221.33 642.32,-227.62"/>
</g>
<!-- Node18&#45;&gt;Node7 -->
<g id="edge25" class="edge">
<title>Node18&#45;&gt;Node7</title>
<path fill="none" stroke="midnightblue" d="M514.35,-149.41C480.73,-118.78 419.24,-62.76 390.32,-36.41"/>
<polygon fill="midnightblue" stroke="midnightblue" points="512.12,-152.11 521.87,-156.26 516.84,-146.94 512.12,-152.11"/>
</g>
<!-- Node18&#45;&gt;Node8 -->
<g id="edge26" class="edge">
<title>Node18&#45;&gt;Node8</title>
<path fill="none" stroke="midnightblue" d="M583.82,-152.65C614.87,-140.69 655.19,-125.16 683.97,-114.07"/>
<polygon fill="midnightblue" stroke="midnightblue" points="582.17,-149.54 574.09,-156.4 584.68,-156.07 582.17,-149.54"/>
</g>
<!-- Node18&#45;&gt;Node12 -->
<g id="edge28" class="edge">
<title>Node18&#45;&gt;Node12</title>
<path fill="none" stroke="midnightblue" d="M551.49,-147.56C558.19,-136.59 565.99,-123.8 571.81,-114.25"/>
<polygon fill="midnightblue" stroke="midnightblue" points="548.42,-145.87 546.2,-156.23 554.4,-149.52 548.42,-145.87"/>
</g>
<!-- Node18&#45;&gt;Node13 -->
<g id="edge27" class="edge">
<title>Node18&#45;&gt;Node13</title>
<path fill="none" stroke="midnightblue" d="M520.09,-148.09C514.62,-139.75 509.29,-129.89 506.5,-120 501.43,-102.04 499.43,-95.28 506.5,-78 513.52,-60.85 528.6,-46.11 541.2,-36.07"/>
<polygon fill="midnightblue" stroke="midnightblue" points="517.36,-150.3 525.96,-156.49 523.1,-146.29 517.36,-150.3"/>
</g>
<!-- Node19 -->
<g id="node19" class="node">
<title>Node19</title>
<g id="a_node19"><a xlink:href="elf__loader_8cpp.html" target="_top" xlink:title="This file implements the functionality of an ELF loader defined in elf_loader.hpp.">
<polygon fill="none" stroke="black" points="795,-84 795,-114 890,-114 890,-84 795,-84"/>
<text text-anchor="start" x="803" y="-102" font-family="Helvetica,sans-Serif" font-size="10.00">src/core/utils/elf</text>
<text text-anchor="middle" x="842.5" y="-91" font-family="Helvetica,sans-Serif" font-size="10.00">_loader.cpp</text>
</a>
</g>
</g>
<!-- Node18&#45;&gt;Node19 -->
<g id="edge24" class="edge">
<title>Node18&#45;&gt;Node19</title>
<path fill="none" stroke="midnightblue" d="M595.39,-161.18C646.21,-152.42 721.9,-137.99 786.5,-120 792.67,-118.28 799.13,-116.22 805.39,-114.09"/>
<polygon fill="midnightblue" stroke="midnightblue" points="594.52,-157.77 585.25,-162.91 595.7,-164.68 594.52,-157.77"/>
</g>
<!-- Node21 -->
<g id="node21" class="node">
<title>Node21</title>
<g id="a_node21"><a xlink:href="coprocessor_8cpp.html" target="_top" xlink:title="This file implements the common functionality of a general interface of a coprocessor.">
<polygon fill="none" stroke="black" points="614.5,-290.5 614.5,-320.5 736.5,-320.5 736.5,-290.5 614.5,-290.5"/>
<text text-anchor="start" x="622.5" y="-308.5" font-family="Helvetica,sans-Serif" font-size="10.00">src/core/coprocessors</text>
<text text-anchor="middle" x="675.5" y="-297.5" font-family="Helvetica,sans-Serif" font-size="10.00">/coprocessor.cpp</text>
</a>
</g>
</g>
<!-- Node20&#45;&gt;Node21 -->
<g id="edge31" class="edge">
<title>Node20&#45;&gt;Node21</title>
<path fill="none" stroke="midnightblue" d="M675.5,-347.11C675.5,-338.15 675.5,-328.32 675.5,-320.58"/>
<polygon fill="midnightblue" stroke="midnightblue" points="672,-347.4 675.5,-357.4 679,-347.4 672,-347.4"/>
</g>
<!-- Node22 -->
<g id="node22" class="node">
<title>Node22</title>
<g id="a_node22"><a xlink:href="cp15_8hpp.html" target="_top" xlink:title="This file defines CP15 (system control coprocessor).">
<polygon fill="none" stroke="black" points="754.5,-290.5 754.5,-320.5 876.5,-320.5 876.5,-290.5 754.5,-290.5"/>
<text text-anchor="start" x="762.5" y="-308.5" font-family="Helvetica,sans-Serif" font-size="10.00">src/core/coprocessors</text>
<text text-anchor="middle" x="815.5" y="-297.5" font-family="Helvetica,sans-Serif" font-size="10.00">/cp15.hpp</text>
</a>
</g>
</g>
<!-- Node20&#45;&gt;Node22 -->
<g id="edge32" class="edge">
<title>Node20&#45;&gt;Node22</title>
<path fill="none" stroke="midnightblue" d="M715.07,-353.13C737.31,-342.8 764.65,-330.11 785.18,-320.58"/>
<polygon fill="midnightblue" stroke="midnightblue" points="713.47,-350.01 705.88,-357.4 716.42,-356.36 713.47,-350.01"/>
</g>
<!-- Node22&#45;&gt;Node16 -->
<g id="edge33" class="edge">
<title>Node22&#45;&gt;Node16</title>
<path fill="none" stroke="midnightblue" d="M774.89,-286.3C746.93,-273.76 711.06,-257.68 689.48,-248.01"/>
<polygon fill="midnightblue" stroke="midnightblue" points="773.48,-289.5 784.04,-290.4 776.34,-283.11 773.48,-289.5"/>
</g>
<!-- Node23 -->
<g id="node23" class="node">
<title>Node23</title>
<g id="a_node23"><a xlink:href="cp15_8cpp.html" target="_top" xlink:title="This file implements CP15 (system control coprocessor) as defined in cp15.hpp.">
<polygon fill="none" stroke="black" points="444.5,-223.5 444.5,-253.5 566.5,-253.5 566.5,-223.5 444.5,-223.5"/>
<text text-anchor="start" x="452.5" y="-241.5" font-family="Helvetica,sans-Serif" font-size="10.00">src/core/coprocessors</text>
<text text-anchor="middle" x="505.5" y="-230.5" font-family="Helvetica,sans-Serif" font-size="10.00">/cp15.cpp</text>
</a>
</g>
</g>
<!-- Node22&#45;&gt;Node23 -->
<g id="edge34" class="edge">
<title>Node22&#45;&gt;Node23</title>
<path fill="none" stroke="midnightblue" d="M744.46,-289.6C690.74,-278.34 617.75,-263.04 566.62,-252.32"/>
<polygon fill="midnightblue" stroke="midnightblue" points="743.75,-293.03 754.25,-291.66 745.19,-286.18 743.75,-293.03"/>
</g>
<!-- Node24 -->
<g id="node24" class="node">
<title>Node24</title>
<g id="a_node24"><a xlink:href="cp15__window_8hpp.html" target="_top" xlink:title=" ">
<polygon fill="none" stroke="black" points="755,-223.5 755,-253.5 876,-253.5 876,-223.5 755,-223.5"/>
<text text-anchor="start" x="763" y="-241.5" font-family="Helvetica,sans-Serif" font-size="10.00">src/gui/windows/cp15</text>
<text text-anchor="middle" x="815.5" y="-230.5" font-family="Helvetica,sans-Serif" font-size="10.00">_window.hpp</text>
</a>
</g>
</g>
<!-- Node22&#45;&gt;Node24 -->
<g id="edge35" class="edge">
<title>Node22&#45;&gt;Node24</title>
<path fill="none" stroke="midnightblue" d="M815.5,-280.11C815.5,-271.15 815.5,-261.32 815.5,-253.58"/>
<polygon fill="midnightblue" stroke="midnightblue" points="812,-280.4 815.5,-290.4 819,-280.4 812,-280.4"/>
</g>
<!-- Node24&#45;&gt;Node6 -->
<g id="edge36" class="edge">
<title>Node24&#45;&gt;Node6</title>
<path fill="none" stroke="midnightblue" d="M848.19,-217.93C860.76,-209.43 874.68,-198.72 885.5,-187 923.9,-145.38 913.05,-119.58 951.5,-78 970.17,-57.8 997.18,-40.38 1014.02,-30.54"/>
<polygon fill="midnightblue" stroke="midnightblue" points="846.2,-215.05 839.75,-223.46 850.03,-220.91 846.2,-215.05"/>
</g>
<!-- Node25 -->
<g id="node25" class="node">
<title>Node25</title>
<g id="a_node25"><a xlink:href="cp15__window_8cpp.html" target="_top" xlink:title=" ">
<polygon fill="none" stroke="black" points="755,-156.5 755,-186.5 876,-186.5 876,-156.5 755,-156.5"/>
<text text-anchor="start" x="763" y="-174.5" font-family="Helvetica,sans-Serif" font-size="10.00">src/gui/windows/cp15</text>
<text text-anchor="middle" x="815.5" y="-163.5" font-family="Helvetica,sans-Serif" font-size="10.00">_window.cpp</text>
</a>
</g>
</g>
<!-- Node24&#45;&gt;Node25 -->
<g id="edge37" class="edge">
<title>Node24&#45;&gt;Node25</title>
<path fill="none" stroke="midnightblue" d="M815.5,-213.11C815.5,-204.15 815.5,-194.32 815.5,-186.58"/>
<polygon fill="midnightblue" stroke="midnightblue" points="812,-213.4 815.5,-223.4 819,-213.4 812,-213.4"/>
</g>
<!-- Node26&#45;&gt;Node3 -->
<g id="edge39" class="edge">
<title>Node26&#45;&gt;Node3</title>
<path fill="none" stroke="midnightblue" d="M1085.11,-299.89C944.15,-291.14 656.07,-271.4 613.5,-254 593.32,-245.75 594.68,-233.35 575.5,-223 543.08,-205.5 503.63,-192.96 472.01,-184.76"/>
<polygon fill="midnightblue" stroke="midnightblue" points="1085.22,-303.41 1095.41,-300.53 1085.65,-296.42 1085.22,-303.41"/>
</g>
<!-- Node27 -->
<g id="node27" class="node">
<title>Node27</title>
<g id="a_node27"><a xlink:href="arm__timer_8hpp.html" target="_top" xlink:title="This file defines the ARM timer used in BCM2835.">
<polygon fill="none" stroke="black" points="1025,-223.5 1025,-253.5 1138,-253.5 1138,-223.5 1025,-223.5"/>
<text text-anchor="start" x="1033" y="-241.5" font-family="Helvetica,sans-Serif" font-size="10.00">src/core/peripherals</text>
<text text-anchor="middle" x="1081.5" y="-230.5" font-family="Helvetica,sans-Serif" font-size="10.00">/arm_timer.hpp</text>
</a>
</g>
</g>
<!-- Node26&#45;&gt;Node27 -->
<g id="edge40" class="edge">
<title>Node26&#45;&gt;Node27</title>
<path fill="none" stroke="midnightblue" d="M1136.81,-283.88C1124.5,-274.01 1110.07,-262.43 1099.04,-253.58"/>
<polygon fill="midnightblue" stroke="midnightblue" points="1134.93,-286.87 1144.92,-290.4 1139.32,-281.41 1134.93,-286.87"/>
</g>
<!-- Node31 -->
<g id="node31" class="node">
<title>Node31</title>
<g id="a_node31"><a xlink:href="gpio_8hpp.html" target="_top" xlink:title="This file defines the GPIO controller used in BCM2835.">
<polygon fill="none" stroke="black" points="1637,-223.5 1637,-253.5 1750,-253.5 1750,-223.5 1637,-223.5"/>
<text text-anchor="start" x="1645" y="-241.5" font-family="Helvetica,sans-Serif" font-size="10.00">src/core/peripherals</text>
<text text-anchor="middle" x="1693.5" y="-230.5" font-family="Helvetica,sans-Serif" font-size="10.00">/gpio.hpp</text>
</a>
</g>
</g>
<!-- Node26&#45;&gt;Node31 -->
<g id="edge45" class="edge">
<title>Node26&#45;&gt;Node31</title>
<path fill="none" stroke="midnightblue" d="M1239.93,-295.02C1347.96,-281.8 1541.36,-258.12 1636.9,-246.43"/>
<polygon fill="midnightblue" stroke="midnightblue" points="1239.25,-291.58 1229.75,-296.27 1240.1,-298.53 1239.25,-291.58"/>
</g>
<!-- Node42 -->
<g id="node42" class="node">
<title>Node42</title>
<g id="a_node42"><a xlink:href="interrupt__controller_8cpp.html" target="_top" xlink:title="This file implements the interrupt controller used in BCM2835 (defined in interrupt_controller....">
<polygon fill="none" stroke="black" points="1351,-223.5 1351,-253.5 1484,-253.5 1484,-223.5 1351,-223.5"/>
<text text-anchor="start" x="1359" y="-241.5" font-family="Helvetica,sans-Serif" font-size="10.00">src/core/peripherals</text>
<text text-anchor="middle" x="1417.5" y="-230.5" font-family="Helvetica,sans-Serif" font-size="10.00">/interrupt_controller.cpp</text>
</a>
</g>
</g>
<!-- Node26&#45;&gt;Node42 -->
<g id="edge59" class="edge">
<title>Node26&#45;&gt;Node42</title>
<path fill="none" stroke="midnightblue" d="M1227.29,-287.98C1268.94,-277.37 1322.48,-263.72 1362.14,-253.61"/>
<polygon fill="midnightblue" stroke="midnightblue" points="1226.34,-284.61 1217.52,-290.48 1228.07,-291.4 1226.34,-284.61"/>
</g>
<!-- Node43 -->
<g id="node43" class="node">
<title>Node43</title>
<g id="a_node43"><a xlink:href="interrupt__controller__window_8hpp.html" target="_top" xlink:title=" ">
<polygon fill="none" stroke="black" points="1156.5,-223.5 1156.5,-253.5 1332.5,-253.5 1332.5,-223.5 1156.5,-223.5"/>
<text text-anchor="start" x="1164.5" y="-241.5" font-family="Helvetica,sans-Serif" font-size="10.00">src/gui/windows/peripherals</text>
<text text-anchor="middle" x="1244.5" y="-230.5" font-family="Helvetica,sans-Serif" font-size="10.00">/interrupt_controller_window.hpp</text>
</a>
</g>
</g>
<!-- Node26&#45;&gt;Node43 -->
<g id="edge60" class="edge">
<title>Node26&#45;&gt;Node43</title>
<path fill="none" stroke="midnightblue" d="M1188.15,-284.17C1200.69,-274.23 1215.47,-262.51 1226.74,-253.58"/>
<polygon fill="midnightblue" stroke="midnightblue" points="1185.96,-281.44 1180.29,-290.4 1190.3,-286.93 1185.96,-281.44"/>
</g>
<!-- Node28 -->
<g id="node28" class="node">
<title>Node28</title>
<g id="a_node28"><a xlink:href="arm__timer_8cpp.html" target="_top" xlink:title="This file implements the ARM timer used in BCM2835 as defined in arm_timer.hpp.">
<polygon fill="none" stroke="black" points="933,-156.5 933,-186.5 1046,-186.5 1046,-156.5 933,-156.5"/>
<text text-anchor="start" x="941" y="-174.5" font-family="Helvetica,sans-Serif" font-size="10.00">src/core/peripherals</text>
<text text-anchor="middle" x="989.5" y="-163.5" font-family="Helvetica,sans-Serif" font-size="10.00">/arm_timer.cpp</text>
</a>
</g>
</g>
<!-- Node27&#45;&gt;Node28 -->
<g id="edge41" class="edge">
<title>Node27&#45;&gt;Node28</title>
<path fill="none" stroke="midnightblue" d="M1053.12,-217.45C1038.97,-207.45 1022.19,-195.6 1009.42,-186.58"/>
<polygon fill="midnightblue" stroke="midnightblue" points="1051.35,-220.48 1061.54,-223.4 1055.39,-214.77 1051.35,-220.48"/>
</g>
<!-- Node29 -->
<g id="node29" class="node">
<title>Node29</title>
<g id="a_node29"><a xlink:href="arm__timer__window_8hpp.html" target="_top" xlink:title=" ">
<polygon fill="none" stroke="black" points="1064.5,-156.5 1064.5,-186.5 1216.5,-186.5 1216.5,-156.5 1064.5,-156.5"/>
<text text-anchor="start" x="1072.5" y="-174.5" font-family="Helvetica,sans-Serif" font-size="10.00">src/gui/windows/peripherals</text>
<text text-anchor="middle" x="1140.5" y="-163.5" font-family="Helvetica,sans-Serif" font-size="10.00">/arm_timer_window.hpp</text>
</a>
</g>
</g>
<!-- Node27&#45;&gt;Node29 -->
<g id="edge42" class="edge">
<title>Node27&#45;&gt;Node29</title>
<path fill="none" stroke="midnightblue" d="M1101.25,-215.74C1109.98,-206.12 1120,-195.09 1127.72,-186.58"/>
<polygon fill="midnightblue" stroke="midnightblue" points="1098.43,-213.64 1094.3,-223.4 1103.61,-218.34 1098.43,-213.64"/>
</g>
<!-- Node29&#45;&gt;Node6 -->
<g id="edge43" class="edge">
<title>Node29&#45;&gt;Node6</title>
<path fill="none" stroke="midnightblue" d="M1140.69,-146.14C1139.71,-126.16 1135.59,-98.02 1121.5,-78 1105.03,-54.61 1075.39,-39.17 1054.2,-30.54"/>
<polygon fill="midnightblue" stroke="midnightblue" points="1137.2,-146.39 1140.96,-156.29 1144.2,-146.2 1137.2,-146.39"/>
</g>
<!-- Node30 -->
<g id="node30" class="node">
<title>Node30</title>
<g id="a_node30"><a xlink:href="arm__timer__window_8cpp.html" target="_top" xlink:title=" ">
<polygon fill="none" stroke="black" points="960.5,-84 960.5,-114 1112.5,-114 1112.5,-84 960.5,-84"/>
<text text-anchor="start" x="968.5" y="-102" font-family="Helvetica,sans-Serif" font-size="10.00">src/gui/windows/peripherals</text>
<text text-anchor="middle" x="1036.5" y="-91" font-family="Helvetica,sans-Serif" font-size="10.00">/arm_timer_window.cpp</text>
</a>
</g>
</g>
<!-- Node29&#45;&gt;Node30 -->
<g id="edge44" class="edge">
<title>Node29&#45;&gt;Node30</title>
<path fill="none" stroke="midnightblue" d="M1110.89,-150.43C1093.73,-138.79 1072.53,-124.42 1057.16,-114"/>
<polygon fill="midnightblue" stroke="midnightblue" points="1109.21,-153.52 1119.45,-156.23 1113.14,-147.73 1109.21,-153.52"/>
</g>
<!-- Node32 -->
<g id="node32" class="node">
<title>Node32</title>
<g id="a_node32"><a xlink:href="button_8hpp.html" target="_top" xlink:title="This file defines an external button that can be hooked up to the system.">
<polygon fill="none" stroke="black" points="1768.5,-156.5 1768.5,-186.5 1884.5,-186.5 1884.5,-156.5 1768.5,-156.5"/>
<text text-anchor="start" x="1776.5" y="-174.5" font-family="Helvetica,sans-Serif" font-size="10.00">src/core/peripherals</text>
<text text-anchor="middle" x="1826.5" y="-163.5" font-family="Helvetica,sans-Serif" font-size="10.00">/external/button.hpp</text>
</a>
</g>
</g>
<!-- Node31&#45;&gt;Node32 -->
<g id="edge46" class="edge">
<title>Node31&#45;&gt;Node32</title>
<path fill="none" stroke="midnightblue" d="M1731.37,-218.99C1752.45,-208.69 1778.28,-196.07 1797.7,-186.58"/>
<polygon fill="midnightblue" stroke="midnightblue" points="1729.81,-215.86 1722.36,-223.4 1732.88,-222.15 1729.81,-215.86"/>
</g>
<!-- Node36 -->
<g id="node36" class="node">
<title>Node36</title>
<g id="a_node36"><a xlink:href="shift__register_8hpp.html" target="_top" xlink:title="This file defines a shift register that is located on the KIV&#45;DPP&#45;01 external board.">
<polygon fill="none" stroke="black" points="1914,-156.5 1914,-186.5 2061,-186.5 2061,-156.5 1914,-156.5"/>
<text text-anchor="start" x="1922" y="-174.5" font-family="Helvetica,sans-Serif" font-size="10.00">src/core/peripherals</text>
<text text-anchor="middle" x="1987.5" y="-163.5" font-family="Helvetica,sans-Serif" font-size="10.00">/external/shift_register.hpp</text>
</a>
</g>
</g>
<!-- Node31&#45;&gt;Node36 -->
<g id="edge51" class="edge">
<title>Node31&#45;&gt;Node36</title>
<path fill="none" stroke="midnightblue" d="M1760.09,-222.78C1809.24,-211.91 1875.72,-197.21 1924.1,-186.52"/>
<polygon fill="midnightblue" stroke="midnightblue" points="1759.19,-219.39 1750.19,-224.97 1760.71,-226.23 1759.19,-219.39"/>
</g>
<!-- Node39 -->
<g id="node39" class="node">
<title>Node39</title>
<g id="a_node39"><a xlink:href="gpio_8cpp.html" target="_top" xlink:title="This file implements the GPIO controller used in BCM2835 (defined in gpio.hpp).">
<polygon fill="none" stroke="black" points="1637,-156.5 1637,-186.5 1750,-186.5 1750,-156.5 1637,-156.5"/>
<text text-anchor="start" x="1645" y="-174.5" font-family="Helvetica,sans-Serif" font-size="10.00">src/core/peripherals</text>
<text text-anchor="middle" x="1693.5" y="-163.5" font-family="Helvetica,sans-Serif" font-size="10.00">/gpio.cpp</text>
</a>
</g>
</g>
<!-- Node31&#45;&gt;Node39 -->
<g id="edge55" class="edge">
<title>Node31&#45;&gt;Node39</title>
<path fill="none" stroke="midnightblue" d="M1693.5,-213.11C1693.5,-204.15 1693.5,-194.32 1693.5,-186.58"/>
<polygon fill="midnightblue" stroke="midnightblue" points="1690,-213.4 1693.5,-223.4 1697,-213.4 1690,-213.4"/>
</g>
<!-- Node40 -->
<g id="node40" class="node">
<title>Node40</title>
<g id="a_node40"><a xlink:href="gpio__window_8hpp.html" target="_top" xlink:title=" ">
<polygon fill="none" stroke="black" points="1466.5,-156.5 1466.5,-186.5 1618.5,-186.5 1618.5,-156.5 1466.5,-156.5"/>
<text text-anchor="start" x="1474.5" y="-174.5" font-family="Helvetica,sans-Serif" font-size="10.00">src/gui/windows/peripherals</text>
<text text-anchor="middle" x="1542.5" y="-163.5" font-family="Helvetica,sans-Serif" font-size="10.00">/gpio_window.hpp</text>
</a>
</g>
</g>
<!-- Node31&#45;&gt;Node40 -->
<g id="edge56" class="edge">
<title>Node31&#45;&gt;Node40</title>
<path fill="none" stroke="midnightblue" d="M1651.47,-219.41C1627.36,-209.03 1597.55,-196.2 1575.2,-186.58"/>
<polygon fill="midnightblue" stroke="midnightblue" points="1650.17,-222.66 1660.74,-223.4 1652.93,-216.23 1650.17,-222.66"/>
</g>
<!-- Node33 -->
<g id="node33" class="node">
<title>Node33</title>
<g id="a_node33"><a xlink:href="button_8cpp.html" target="_top" xlink:title="This file implements an external button that can be hooked up to the system as define in button....">
<polygon fill="none" stroke="black" points="1608,-84 1608,-114 1723,-114 1723,-84 1608,-84"/>
<text text-anchor="start" x="1616" y="-102" font-family="Helvetica,sans-Serif" font-size="10.00">src/core/peripherals</text>
<text text-anchor="middle" x="1665.5" y="-91" font-family="Helvetica,sans-Serif" font-size="10.00">/external/button.cpp</text>
</a>
</g>
</g>
<!-- Node32&#45;&gt;Node33 -->
<g id="edge47" class="edge">
<title>Node32&#45;&gt;Node33</title>
<path fill="none" stroke="midnightblue" d="M1785.04,-152.34C1757.82,-140.42 1722.74,-125.07 1697.64,-114.07"/>
<polygon fill="midnightblue" stroke="midnightblue" points="1783.74,-155.6 1794.31,-156.4 1786.55,-149.19 1783.74,-155.6"/>
</g>
<!-- Node34 -->
<g id="node34" class="node">
<title>Node34</title>
<g id="a_node34"><a xlink:href="button__window_8hpp.html" target="_top" xlink:title=" ">
<polygon fill="none" stroke="black" points="1741.5,-84 1741.5,-114 1899.5,-114 1899.5,-84 1741.5,-84"/>
<text text-anchor="start" x="1749.5" y="-102" font-family="Helvetica,sans-Serif" font-size="10.00">src/gui/windows/peripherals</text>
<text text-anchor="middle" x="1820.5" y="-91" font-family="Helvetica,sans-Serif" font-size="10.00">/external/button_window.hpp</text>
</a>
</g>
</g>
<!-- Node32&#45;&gt;Node34 -->
<g id="edge48" class="edge">
<title>Node32&#45;&gt;Node34</title>
<path fill="none" stroke="midnightblue" d="M1824.43,-146.23C1823.53,-135.57 1822.49,-123.41 1821.71,-114.25"/>
<polygon fill="midnightblue" stroke="midnightblue" points="1820.95,-146.57 1825.29,-156.23 1827.93,-145.97 1820.95,-146.57"/>
</g>
<!-- Node34&#45;&gt;Node6 -->
<g id="edge49" class="edge">
<title>Node34&#45;&gt;Node6</title>
<path fill="none" stroke="midnightblue" d="M1754.42,-81.91C1747.05,-80.43 1739.63,-79.09 1732.5,-78 1484.99,-40.22 1184.31,-27.06 1073.35,-23.3"/>
<polygon fill="midnightblue" stroke="midnightblue" points="1753.89,-85.37 1764.4,-83.98 1755.32,-78.52 1753.89,-85.37"/>
</g>
<!-- Node35 -->
<g id="node35" class="node">
<title>Node35</title>
<g id="a_node35"><a xlink:href="button__window_8cpp.html" target="_top" xlink:title=" ">
<polygon fill="none" stroke="black" points="1742,-6 1742,-36 1899,-36 1899,-6 1742,-6"/>
<text text-anchor="start" x="1750" y="-24" font-family="Helvetica,sans-Serif" font-size="10.00">src/gui/windows/peripherals</text>
<text text-anchor="middle" x="1820.5" y="-13" font-family="Helvetica,sans-Serif" font-size="10.00">/external/button_window.cpp</text>
</a>
</g>
</g>
<!-- Node34&#45;&gt;Node35 -->
<g id="edge50" class="edge">
<title>Node34&#45;&gt;Node35</title>
<path fill="none" stroke="midnightblue" d="M1820.5,-73.59C1820.5,-61.26 1820.5,-46.72 1820.5,-36.23"/>
<polygon fill="midnightblue" stroke="midnightblue" points="1817,-73.7 1820.5,-83.7 1824,-73.71 1817,-73.7"/>
</g>
<!-- Node37 -->
<g id="node37" class="node">
<title>Node37</title>
<g id="a_node37"><a xlink:href="seven__segment__display__window_8hpp.html" target="_top" xlink:title=" ">
<polygon fill="none" stroke="black" points="1917.5,-78.5 1917.5,-119.5 2069.5,-119.5 2069.5,-78.5 1917.5,-78.5"/>
<text text-anchor="start" x="1925.5" y="-107.5" font-family="Helvetica,sans-Serif" font-size="10.00">src/gui/windows/peripherals</text>
<text text-anchor="start" x="1925.5" y="-96.5" font-family="Helvetica,sans-Serif" font-size="10.00">/external/seven_segment</text>
<text text-anchor="middle" x="1993.5" y="-85.5" font-family="Helvetica,sans-Serif" font-size="10.00">_display_window.hpp</text>
</a>
</g>
</g>
<!-- Node36&#45;&gt;Node37 -->
<g id="edge52" class="edge">
<title>Node36&#45;&gt;Node37</title>
<path fill="none" stroke="midnightblue" d="M1989.56,-146.27C1990.3,-137.56 1991.13,-127.85 1991.83,-119.59"/>
<polygon fill="midnightblue" stroke="midnightblue" points="1986.07,-145.97 1988.71,-156.23 1993.05,-146.57 1986.07,-145.97"/>
</g>
<!-- Node37&#45;&gt;Node6 -->
<g id="edge53" class="edge">
<title>Node37&#45;&gt;Node6</title>
<path fill="none" stroke="midnightblue" d="M1907.09,-77.92C1582.54,-30.64 1200.61,-23.34 1073.22,-22.2"/>
<polygon fill="midnightblue" stroke="midnightblue" points="1906.76,-81.41 1917.16,-79.4 1907.78,-74.48 1906.76,-81.41"/>
</g>
<!-- Node38 -->
<g id="node38" class="node">
<title>Node38</title>
<g id="a_node38"><a xlink:href="seven__segment__display__window_8cpp.html" target="_top" xlink:title=" ">
<polygon fill="none" stroke="black" points="1917.5,-0.5 1917.5,-41.5 2069.5,-41.5 2069.5,-0.5 1917.5,-0.5"/>
<text text-anchor="start" x="1925.5" y="-29.5" font-family="Helvetica,sans-Serif" font-size="10.00">src/gui/windows/peripherals</text>
<text text-anchor="start" x="1925.5" y="-18.5" font-family="Helvetica,sans-Serif" font-size="10.00">/external/seven_segment</text>
<text text-anchor="middle" x="1993.5" y="-7.5" font-family="Helvetica,sans-Serif" font-size="10.00">_display_window.cpp</text>
</a>
</g>
</g>
<!-- Node37&#45;&gt;Node38 -->
<g id="edge54" class="edge">
<title>Node37&#45;&gt;Node38</title>
<path fill="none" stroke="midnightblue" d="M1993.5,-68.3C1993.5,-59.3 1993.5,-49.65 1993.5,-41.51"/>
<polygon fill="midnightblue" stroke="midnightblue" points="1990,-68.43 1993.5,-78.43 1997,-68.43 1990,-68.43"/>
</g>
<!-- Node40&#45;&gt;Node6 -->
<g id="edge57" class="edge">
<title>Node40&#45;&gt;Node6</title>
<path fill="none" stroke="midnightblue" d="M1492.61,-152.99C1436.16,-133.48 1341.31,-101.57 1258.5,-78 1192.17,-59.12 1113.95,-40.83 1068.22,-30.54"/>
<polygon fill="midnightblue" stroke="midnightblue" points="1491.75,-156.4 1502.35,-156.37 1494.04,-149.79 1491.75,-156.4"/>
</g>
<!-- Node41 -->
<g id="node41" class="node">
<title>Node41</title>
<g id="a_node41"><a xlink:href="gpio__window_8cpp.html" target="_top" xlink:title=" ">
<polygon fill="none" stroke="black" points="1437.5,-84 1437.5,-114 1589.5,-114 1589.5,-84 1437.5,-84"/>
<text text-anchor="start" x="1445.5" y="-102" font-family="Helvetica,sans-Serif" font-size="10.00">src/gui/windows/peripherals</text>
<text text-anchor="middle" x="1513.5" y="-91" font-family="Helvetica,sans-Serif" font-size="10.00">/gpio_window.cpp</text>
</a>
</g>
</g>
<!-- Node40&#45;&gt;Node41 -->
<g id="edge58" class="edge">
<title>Node40&#45;&gt;Node41</title>
<path fill="none" stroke="midnightblue" d="M1532.79,-146.9C1528.34,-136.08 1523.21,-123.61 1519.36,-114.25"/>
<polygon fill="midnightblue" stroke="midnightblue" points="1529.59,-148.32 1536.63,-156.23 1536.06,-145.65 1529.59,-148.32"/>
</g>
<!-- Node43&#45;&gt;Node6 -->
<g id="edge61" class="edge">
<title>Node43&#45;&gt;Node6</title>
<path fill="none" stroke="midnightblue" d="M1242.56,-213.12C1240.35,-196.17 1235.62,-173.56 1225.5,-156 1186.4,-88.14 1097.37,-47.2 1054.07,-30.6"/>
<polygon fill="midnightblue" stroke="midnightblue" points="1239.11,-213.77 1243.68,-223.33 1246.07,-213.01 1239.11,-213.77"/>
</g>
<!-- Node44 -->
<g id="node44" class="node">
<title>Node44</title>
<g id="a_node44"><a xlink:href="interrupt__controller__window_8cpp.html" target="_top" xlink:title=" ">
<polygon fill="none" stroke="black" points="1272.5,-156.5 1272.5,-186.5 1448.5,-186.5 1448.5,-156.5 1272.5,-156.5"/>
<text text-anchor="start" x="1280.5" y="-174.5" font-family="Helvetica,sans-Serif" font-size="10.00">src/gui/windows/peripherals</text>
<text text-anchor="middle" x="1360.5" y="-163.5" font-family="Helvetica,sans-Serif" font-size="10.00">/interrupt_controller_window.cpp</text>
</a>
</g>
</g>
<!-- Node43&#45;&gt;Node44 -->
<g id="edge62" class="edge">
<title>Node43&#45;&gt;Node44</title>
<path fill="none" stroke="midnightblue" d="M1278.77,-218.3C1296.92,-208.12 1318.82,-195.85 1335.38,-186.58"/>
<polygon fill="midnightblue" stroke="midnightblue" points="1276.68,-215.45 1269.67,-223.4 1280.1,-221.56 1276.68,-215.45"/>
</g>
</g>
</svg>
