<?xml version="1.0" encoding="UTF-8" standalone="no"?>
<!DOCTYPE svg PUBLIC "-//W3C//DTD SVG 1.1//EN"
 "http://www.w3.org/Graphics/SVG/1.1/DTD/svg11.dtd">
<!-- Generated by graphviz version 2.43.0 (0)
 -->
<!-- Title: src/gui/windows/control_window.hpp Pages: 1 -->
<svg width="2858pt" height="419pt"
 viewBox="0.00 0.00 2857.98 419.00" xmlns="http://www.w3.org/2000/svg" xmlns:xlink="http://www.w3.org/1999/xlink">
<g id="graph0" class="graph" transform="scale(1 1) rotate(0) translate(4 415)">
<title>src/gui/windows/control_window.hpp</title>
<!-- Node1 -->
<g id="node1" class="node">
<title>Node1</title>
<g id="a_node1"><a xlink:title=" ">
<polygon fill="#bfbfbf" stroke="black" points="179.5,-380.5 179.5,-410.5 310.5,-410.5 310.5,-380.5 179.5,-380.5"/>
<text text-anchor="start" x="187.5" y="-398.5" font-family="Helvetica,sans-Serif" font-size="10.00">src/gui/windows/control</text>
<text text-anchor="middle" x="245" y="-387.5" font-family="Helvetica,sans-Serif" font-size="10.00">_window.hpp</text>
</a>
</g>
</g>
<!-- Node2 -->
<g id="node2" class="node">
<title>Node2</title>
<g id="a_node2"><a xlink:title=" ">
<polygon fill="none" stroke="#bfbfbf" points="0,-319 0,-338 50,-338 50,-319 0,-319"/>
<text text-anchor="middle" x="25" y="-326" font-family="Helvetica,sans-Serif" font-size="10.00">atomic</text>
</a>
</g>
</g>
<!-- Node1&#45;&gt;Node2 -->
<g id="edge1" class="edge">
<title>Node1&#45;&gt;Node2</title>
<path fill="none" stroke="midnightblue" d="M184.89,-380.42C148.14,-371.26 100.41,-358.37 59,-344 57.14,-343.35 55.23,-342.65 53.32,-341.92"/>
<polygon fill="midnightblue" stroke="midnightblue" points="54.46,-338.61 43.88,-338.1 51.84,-345.1 54.46,-338.61"/>
</g>
<!-- Node3 -->
<g id="node3" class="node">
<title>Node3</title>
<g id="a_node3"><a xlink:title=" ">
<polygon fill="none" stroke="#bfbfbf" points="68.5,-319 68.5,-338 115.5,-338 115.5,-319 68.5,-319"/>
<text text-anchor="middle" x="92" y="-326" font-family="Helvetica,sans-Serif" font-size="10.00">vector</text>
</a>
</g>
</g>
<!-- Node1&#45;&gt;Node3 -->
<g id="edge2" class="edge">
<title>Node1&#45;&gt;Node3</title>
<path fill="none" stroke="midnightblue" d="M210.46,-380.41C186.19,-370.43 153.01,-356.62 124,-344 122.64,-343.41 121.24,-342.8 119.84,-342.17"/>
<polygon fill="midnightblue" stroke="midnightblue" points="121.13,-338.92 110.57,-338.03 118.27,-345.31 121.13,-338.92"/>
</g>
<!-- Node4 -->
<g id="node4" class="node">
<title>Node4</title>
<g id="a_node4"><a xlink:title=" ">
<polygon fill="none" stroke="#bfbfbf" points="172,-252 172,-271 230,-271 230,-252 172,-252"/>
<text text-anchor="middle" x="201" y="-259" font-family="Helvetica,sans-Serif" font-size="10.00">memory</text>
</a>
</g>
</g>
<!-- Node1&#45;&gt;Node4 -->
<g id="edge3" class="edge">
<title>Node1&#45;&gt;Node4</title>
<path fill="none" stroke="midnightblue" d="M242.45,-380.4C239.26,-363.95 233.21,-336.06 225,-313 220.99,-301.73 215.28,-289.62 210.44,-280.07"/>
<polygon fill="midnightblue" stroke="midnightblue" points="213.54,-278.45 205.81,-271.21 207.33,-281.69 213.54,-278.45"/>
</g>
<!-- Node5 -->
<g id="node5" class="node">
<title>Node5</title>
<g id="a_node5"><a xlink:href="window_8hpp.html" target="_top" xlink:title=" ">
<polygon fill="none" stroke="black" points="133.5,-319 133.5,-338 216.5,-338 216.5,-319 133.5,-319"/>
<text text-anchor="middle" x="175" y="-326" font-family="Helvetica,sans-Serif" font-size="10.00">../window.hpp</text>
</a>
</g>
</g>
<!-- Node1&#45;&gt;Node5 -->
<g id="edge4" class="edge">
<title>Node1&#45;&gt;Node5</title>
<path fill="none" stroke="midnightblue" d="M229.81,-380.4C218.68,-370.06 203.56,-356.02 192.03,-345.31"/>
<polygon fill="midnightblue" stroke="midnightblue" points="194.07,-342.43 184.36,-338.19 189.31,-347.56 194.07,-342.43"/>
</g>
<!-- Node6 -->
<g id="node6" class="node">
<title>Node6</title>
<g id="a_node6"><a xlink:href="logger_8hpp.html" target="_top" xlink:title="This file defines a general logger interface as well as a logging system that is used in the project.">
<polygon fill="none" stroke="black" points="375.5,-0.5 375.5,-30.5 488.5,-30.5 488.5,-0.5 375.5,-0.5"/>
<text text-anchor="start" x="383.5" y="-18.5" font-family="Helvetica,sans-Serif" font-size="10.00">../../core/utils/logger</text>
<text text-anchor="middle" x="432" y="-7.5" font-family="Helvetica,sans-Serif" font-size="10.00">/logger.hpp</text>
</a>
</g>
</g>
<!-- Node1&#45;&gt;Node6 -->
<g id="edge6" class="edge">
<title>Node1&#45;&gt;Node6</title>
<path fill="none" stroke="midnightblue" d="M251.97,-380.24C262.94,-356.44 283,-306.86 283,-262.5 283,-262.5 283,-262.5 283,-143 283,-89.57 339.36,-54.01 382.76,-34.55"/>
<polygon fill="midnightblue" stroke="midnightblue" points="384.28,-37.71 392.07,-30.53 381.5,-31.28 384.28,-37.71"/>
</g>
<!-- Node7 -->
<g id="node7" class="node">
<title>Node7</title>
<g id="a_node7"><a xlink:href="core_8hpp.html" target="_top" xlink:title="This file defines a class that represents a CPU core (arm1176jzf_s).">
<polygon fill="none" stroke="black" points="713,-313.5 713,-343.5 827,-343.5 827,-313.5 713,-313.5"/>
<text text-anchor="start" x="721" y="-331.5" font-family="Helvetica,sans-Serif" font-size="10.00">../../core/arm1176jzf</text>
<text text-anchor="middle" x="770" y="-320.5" font-family="Helvetica,sans-Serif" font-size="10.00">_s/core.hpp</text>
</a>
</g>
</g>
<!-- Node1&#45;&gt;Node7 -->
<g id="edge7" class="edge">
<title>Node1&#45;&gt;Node7</title>
<path fill="none" stroke="midnightblue" d="M310.69,-386.37C410.98,-373.95 601.25,-350.39 702.56,-337.85"/>
<polygon fill="midnightblue" stroke="midnightblue" points="703.18,-341.3 712.68,-336.6 702.32,-334.35 703.18,-341.3"/>
</g>
<!-- Node34 -->
<g id="node34" class="node">
<title>Node34</title>
<g id="a_node34"><a xlink:href="peripheral_8hpp.html" target="_top" xlink:title="This file defines an interface for a memory&#45;mapped peripheral.">
<polygon fill="none" stroke="black" points="425.5,-190.5 425.5,-209.5 570.5,-209.5 570.5,-190.5 425.5,-190.5"/>
<text text-anchor="middle" x="498" y="-197.5" font-family="Helvetica,sans-Serif" font-size="10.00">peripherals/peripheral.hpp</text>
</a>
</g>
</g>
<!-- Node1&#45;&gt;Node34 -->
<g id="edge68" class="edge">
<title>Node1&#45;&gt;Node34</title>
<path fill="none" stroke="midnightblue" d="M310.72,-387.15C376.77,-375.87 475.28,-347.56 522,-277 534,-258.87 522.23,-234.36 511.34,-218.13"/>
<polygon fill="midnightblue" stroke="midnightblue" points="513.91,-215.71 505.22,-209.65 508.23,-219.81 513.91,-215.71"/>
</g>
<!-- Node5&#45;&gt;Node4 -->
<g id="edge5" class="edge">
<title>Node5&#45;&gt;Node4</title>
<path fill="none" stroke="midnightblue" d="M178.51,-318.73C182.4,-308.99 188.81,-292.98 193.79,-280.53"/>
<polygon fill="midnightblue" stroke="midnightblue" points="197.08,-281.71 197.55,-271.13 190.59,-279.11 197.08,-281.71"/>
</g>
<!-- Node7&#45;&gt;Node6 -->
<g id="edge62" class="edge">
<title>Node7&#45;&gt;Node6</title>
<path fill="none" stroke="midnightblue" d="M786.01,-313.42C813.44,-287.57 863.8,-231.4 835,-190 808.74,-152.25 780.1,-172.51 738,-154 660.3,-119.84 645.7,-101.16 568,-67 540.4,-54.86 508.88,-43.04 483.13,-33.88"/>
<polygon fill="midnightblue" stroke="midnightblue" points="484.16,-30.53 473.57,-30.51 481.83,-37.13 484.16,-30.53"/>
</g>
<!-- Node8 -->
<g id="node8" class="node">
<title>Node8</title>
<g id="a_node8"><a xlink:href="context_8hpp.html" target="_top" xlink:title="This file defines the context (registers) of the CPU.">
<polygon fill="none" stroke="black" points="395,-73 395,-92 469,-92 469,-73 395,-73"/>
<text text-anchor="middle" x="432" y="-80" font-family="Helvetica,sans-Serif" font-size="10.00">context.hpp</text>
</a>
</g>
</g>
<!-- Node7&#45;&gt;Node8 -->
<g id="edge8" class="edge">
<title>Node7&#45;&gt;Node8</title>
<path fill="none" stroke="midnightblue" d="M712.97,-324.24C609.78,-317.74 400.69,-301.67 379,-277 333.21,-224.91 390.72,-136.78 418.53,-100.2"/>
<polygon fill="midnightblue" stroke="midnightblue" points="421.49,-102.09 424.88,-92.06 415.97,-97.79 421.49,-102.09"/>
</g>
<!-- Node9 -->
<g id="node9" class="node">
<title>Node9</title>
<g id="a_node9"><a xlink:href="exceptions_8hpp.html" target="_top" xlink:title="This file defines all exceptions that can be thrown by the CPU during execution.">
<polygon fill="none" stroke="black" points="588.5,-190.5 588.5,-209.5 679.5,-209.5 679.5,-190.5 588.5,-190.5"/>
<text text-anchor="middle" x="634" y="-197.5" font-family="Helvetica,sans-Serif" font-size="10.00">exceptions.hpp</text>
</a>
</g>
</g>
<!-- Node7&#45;&gt;Node9 -->
<g id="edge10" class="edge">
<title>Node7&#45;&gt;Node9</title>
<path fill="none" stroke="midnightblue" d="M779.64,-313.39C790.27,-295.9 804.01,-265.98 789,-246 782.35,-237.14 724.74,-222.05 681.68,-211.81"/>
<polygon fill="midnightblue" stroke="midnightblue" points="682.46,-208.39 671.92,-209.51 680.85,-215.21 682.46,-208.39"/>
</g>
<!-- Node11 -->
<g id="node11" class="node">
<title>Node11</title>
<g id="a_node11"><a xlink:href="isa_8hpp.html" target="_top" xlink:title="This file is just a helper file for including all ARM instructions supported by the emulator.">
<polygon fill="none" stroke="black" points="1942.5,-134.5 1942.5,-153.5 2011.5,-153.5 2011.5,-134.5 1942.5,-134.5"/>
<text text-anchor="middle" x="1977" y="-141.5" font-family="Helvetica,sans-Serif" font-size="10.00">isa/isa.hpp</text>
</a>
</g>
</g>
<!-- Node7&#45;&gt;Node11 -->
<g id="edge13" class="edge">
<title>Node7&#45;&gt;Node11</title>
<path fill="none" stroke="midnightblue" d="M800.17,-313.29C819.86,-303.7 845.9,-290.39 868,-277 888.46,-264.6 889.56,-254.3 912,-246 1104.04,-174.99 1755.27,-151.38 1932.28,-146.19"/>
<polygon fill="midnightblue" stroke="midnightblue" points="1932.39,-149.69 1942.28,-145.9 1932.19,-142.69 1932.39,-149.69"/>
</g>
<!-- Node30 -->
<g id="node30" class="node">
<title>Node30</title>
<g id="a_node30"><a xlink:href="isa__decoder_8hpp.html" target="_top" xlink:title="This file defines an instruction decoder.">
<polygon fill="none" stroke="black" points="1908.5,-190.5 1908.5,-209.5 2021.5,-209.5 2021.5,-190.5 1908.5,-190.5"/>
<text text-anchor="middle" x="1965" y="-197.5" font-family="Helvetica,sans-Serif" font-size="10.00">isa/isa_decoder.hpp</text>
</a>
</g>
</g>
<!-- Node7&#45;&gt;Node30 -->
<g id="edge49" class="edge">
<title>Node7&#45;&gt;Node30</title>
<path fill="none" stroke="midnightblue" d="M827.23,-321.44C1025.92,-300.41 1685.3,-230.61 1898.13,-208.08"/>
<polygon fill="midnightblue" stroke="midnightblue" points="1898.65,-211.54 1908.23,-207.01 1897.91,-204.58 1898.65,-211.54"/>
</g>
<!-- Node31 -->
<g id="node31" class="node">
<title>Node31</title>
<g id="a_node31"><a xlink:href="bus_8hpp.html" target="_top" xlink:title="This file defines an interface the CPU uses to access different memory&#45;mapped peripherals.">
<polygon fill="none" stroke="black" points="602,-252 602,-271 666,-271 666,-252 602,-252"/>
<text text-anchor="middle" x="634" y="-259" font-family="Helvetica,sans-Serif" font-size="10.00">../bus.hpp</text>
</a>
</g>
</g>
<!-- Node7&#45;&gt;Node31 -->
<g id="edge51" class="edge">
<title>Node7&#45;&gt;Node31</title>
<path fill="none" stroke="midnightblue" d="M740.49,-313.4C716.84,-302.09 683.92,-286.36 660.97,-275.39"/>
<polygon fill="midnightblue" stroke="midnightblue" points="662.33,-272.16 651.8,-271.01 659.31,-278.48 662.33,-272.16"/>
</g>
<!-- Node35 -->
<g id="node35" class="node">
<title>Node35</title>
<g id="a_node35"><a xlink:href="math_8hpp.html" target="_top" xlink:title="This file defines and implements a variety of handy helper functions that are used throughout the pro...">
<polygon fill="none" stroke="black" points="684,-252 684,-271 780,-271 780,-252 684,-252"/>
<text text-anchor="middle" x="732" y="-259" font-family="Helvetica,sans-Serif" font-size="10.00">../utils/math.hpp</text>
</a>
</g>
</g>
<!-- Node7&#45;&gt;Node35 -->
<g id="edge61" class="edge">
<title>Node7&#45;&gt;Node35</title>
<path fill="none" stroke="midnightblue" d="M761.75,-313.4C756.01,-303.56 748.3,-290.38 742.17,-279.89"/>
<polygon fill="midnightblue" stroke="midnightblue" points="745.15,-278.06 737.08,-271.19 739.11,-281.59 745.15,-278.06"/>
</g>
<!-- Node36 -->
<g id="node36" class="node">
<title>Node36</title>
<g id="a_node36"><a xlink:href="interrupt__controller_8hpp.html" target="_top" xlink:title="This file defines the interrupt controller used in BCM2835.">
<polygon fill="none" stroke="black" points="387.5,-246.5 387.5,-276.5 512.5,-276.5 512.5,-246.5 387.5,-246.5"/>
<text text-anchor="start" x="395.5" y="-264.5" font-family="Helvetica,sans-Serif" font-size="10.00">../peripherals/interrupt</text>
<text text-anchor="middle" x="450" y="-253.5" font-family="Helvetica,sans-Serif" font-size="10.00">_controller.hpp</text>
</a>
</g>
</g>
<!-- Node7&#45;&gt;Node36 -->
<g id="edge63" class="edge">
<title>Node7&#45;&gt;Node36</title>
<path fill="none" stroke="midnightblue" d="M712.79,-315.88C659.71,-305.1 580.45,-289 522.86,-277.3"/>
<polygon fill="midnightblue" stroke="midnightblue" points="523.23,-273.8 512.74,-275.24 521.84,-280.66 523.23,-273.8"/>
</g>
<!-- Node37 -->
<g id="node37" class="node">
<title>Node37</title>
<g id="a_node37"><a xlink:href="system__clock__listener_8hpp.html" target="_top" xlink:title="This file defines an interface for a CPU clock listener.">
<polygon fill="none" stroke="black" points="920.5,-246.5 920.5,-276.5 1039.5,-276.5 1039.5,-246.5 920.5,-246.5"/>
<text text-anchor="start" x="928.5" y="-264.5" font-family="Helvetica,sans-Serif" font-size="10.00">../peripherals/system</text>
<text text-anchor="middle" x="980" y="-253.5" font-family="Helvetica,sans-Serif" font-size="10.00">_clock_listener.hpp</text>
</a>
</g>
</g>
<!-- Node7&#45;&gt;Node37 -->
<g id="edge67" class="edge">
<title>Node7&#45;&gt;Node37</title>
<path fill="none" stroke="midnightblue" d="M815.31,-313.48C847.35,-303.56 890.5,-290.2 924.6,-279.65"/>
<polygon fill="midnightblue" stroke="midnightblue" points="925.89,-282.91 934.41,-276.61 923.82,-276.22 925.89,-282.91"/>
</g>
<!-- Node8&#45;&gt;Node6 -->
<g id="edge9" class="edge">
<title>Node8&#45;&gt;Node6</title>
<path fill="none" stroke="midnightblue" d="M432,-72.73C432,-64.54 432,-51.92 432,-40.71"/>
<polygon fill="midnightblue" stroke="midnightblue" points="435.5,-40.59 432,-30.59 428.5,-40.59 435.5,-40.59"/>
</g>
<!-- Node9&#45;&gt;Node8 -->
<g id="edge12" class="edge">
<title>Node9&#45;&gt;Node8</title>
<path fill="none" stroke="midnightblue" d="M618.42,-190.47C602.07,-181.49 575.65,-166.89 553,-154 518.86,-134.57 479.62,-111.59 455.32,-97.27"/>
<polygon fill="midnightblue" stroke="midnightblue" points="456.86,-94.12 446.47,-92.06 453.31,-100.15 456.86,-94.12"/>
</g>
<!-- Node10 -->
<g id="node10" class="node">
<title>Node10</title>
<g id="a_node10"><a xlink:title=" ">
<polygon fill="none" stroke="#bfbfbf" points="561.5,-134.5 561.5,-153.5 640.5,-153.5 640.5,-134.5 561.5,-134.5"/>
<text text-anchor="middle" x="601" y="-141.5" font-family="Helvetica,sans-Serif" font-size="10.00">fmt/format.h</text>
</a>
</g>
</g>
<!-- Node9&#45;&gt;Node10 -->
<g id="edge11" class="edge">
<title>Node9&#45;&gt;Node10</title>
<path fill="none" stroke="midnightblue" d="M628.55,-190.08C623.99,-182.61 617.33,-171.72 611.71,-162.52"/>
<polygon fill="midnightblue" stroke="midnightblue" points="614.55,-160.46 606.35,-153.75 608.58,-164.11 614.55,-160.46"/>
</g>
<!-- Node12 -->
<g id="node12" class="node">
<title>Node12</title>
<g id="a_node12"><a xlink:href="instruction_8hpp.html" target="_top" xlink:title="This file defines the interface of a general ARM instruction.">
<polygon fill="none" stroke="black" points="2033.5,-6 2033.5,-25 2122.5,-25 2122.5,-6 2033.5,-6"/>
<text text-anchor="middle" x="2078" y="-13" font-family="Helvetica,sans-Serif" font-size="10.00">instruction.hpp</text>
</a>
</g>
</g>
<!-- Node11&#45;&gt;Node12 -->
<g id="edge14" class="edge">
<title>Node11&#45;&gt;Node12</title>
<path fill="none" stroke="midnightblue" d="M2011.82,-142.06C2110.91,-139.01 2389.05,-127.86 2416,-98 2425.23,-87.77 2424.99,-77.44 2416,-67 2380.09,-25.32 2218.81,-17.53 2132.66,-16.4"/>
<polygon fill="midnightblue" stroke="midnightblue" points="2132.58,-12.9 2122.54,-16.29 2132.51,-19.89 2132.58,-12.9"/>
</g>
<!-- Node13 -->
<g id="node13" class="node">
<title>Node13</title>
<g id="a_node13"><a xlink:href="branch__and__exchange_8hpp.html" target="_top" xlink:title="This file defines a branch and exchange instruction (BX).">
<polygon fill="none" stroke="black" points="2463,-73 2463,-92 2609,-92 2609,-73 2463,-73"/>
<text text-anchor="middle" x="2536" y="-80" font-family="Helvetica,sans-Serif" font-size="10.00">branch_and_exchange.hpp</text>
</a>
</g>
</g>
<!-- Node11&#45;&gt;Node13 -->
<g id="edge15" class="edge">
<title>Node11&#45;&gt;Node13</title>
<path fill="none" stroke="midnightblue" d="M2011.74,-140.53C2089.99,-134.77 2285.96,-119.33 2449,-98 2458.58,-96.75 2468.72,-95.23 2478.56,-93.66"/>
<polygon fill="midnightblue" stroke="midnightblue" points="2479.37,-97.07 2488.68,-92.01 2478.25,-90.16 2479.37,-97.07"/>
</g>
<!-- Node14 -->
<g id="node14" class="node">
<title>Node14</title>
<g id="a_node14"><a xlink:href="branch_8hpp.html" target="_top" xlink:title="This file defines a branch instruction (B, BL).">
<polygon fill="none" stroke="black" points="2627.5,-73 2627.5,-92 2698.5,-92 2698.5,-73 2627.5,-73"/>
<text text-anchor="middle" x="2663" y="-80" font-family="Helvetica,sans-Serif" font-size="10.00">branch.hpp</text>
</a>
</g>
</g>
<!-- Node11&#45;&gt;Node14 -->
<g id="edge17" class="edge">
<title>Node11&#45;&gt;Node14</title>
<path fill="none" stroke="midnightblue" d="M2011.78,-143.49C2108.73,-144.22 2389.9,-142.08 2618,-98 2621.97,-97.23 2626.07,-96.23 2630.11,-95.1"/>
<polygon fill="midnightblue" stroke="midnightblue" points="2631.37,-98.37 2639.92,-92.12 2629.34,-91.68 2631.37,-98.37"/>
</g>
<!-- Node15 -->
<g id="node15" class="node">
<title>Node15</title>
<g id="a_node15"><a xlink:href="data__processing_8hpp.html" target="_top" xlink:title="This file defines a data processing instruction.">
<polygon fill="none" stroke="black" points="2716.5,-73 2716.5,-92 2833.5,-92 2833.5,-73 2716.5,-73"/>
<text text-anchor="middle" x="2775" y="-80" font-family="Helvetica,sans-Serif" font-size="10.00">data_processing.hpp</text>
</a>
</g>
</g>
<!-- Node11&#45;&gt;Node15 -->
<g id="edge19" class="edge">
<title>Node11&#45;&gt;Node15</title>
<path fill="none" stroke="midnightblue" d="M2011.81,-142.73C2117.2,-141.5 2441.92,-134.77 2708,-98 2715.29,-96.99 2722.98,-95.62 2730.43,-94.13"/>
<polygon fill="midnightblue" stroke="midnightblue" points="2731.34,-97.52 2740.4,-92.03 2729.9,-90.67 2731.34,-97.52"/>
</g>
<!-- Node16 -->
<g id="node16" class="node">
<title>Node16</title>
<g id="a_node16"><a xlink:href="multiply_8hpp.html" target="_top" xlink:title="This file defines a multiplication instruction (MUL, MLA).">
<polygon fill="none" stroke="black" points="1248.5,-73 1248.5,-92 1325.5,-92 1325.5,-73 1248.5,-73"/>
<text text-anchor="middle" x="1287" y="-80" font-family="Helvetica,sans-Serif" font-size="10.00">multiply.hpp</text>
</a>
</g>
</g>
<!-- Node11&#45;&gt;Node16 -->
<g id="edge21" class="edge">
<title>Node11&#45;&gt;Node16</title>
<path fill="none" stroke="midnightblue" d="M1942.21,-143.28C1845.21,-143.46 1563.85,-140.04 1335,-98 1330.55,-97.18 1325.92,-96.1 1321.37,-94.89"/>
<polygon fill="midnightblue" stroke="midnightblue" points="1322.23,-91.49 1311.65,-92.1 1320.3,-98.22 1322.23,-91.49"/>
</g>
<!-- Node17 -->
<g id="node17" class="node">
<title>Node17</title>
<g id="a_node17"><a xlink:href="multiply__long_8hpp.html" target="_top" xlink:title="This file defines a multiplication (long) instruction.">
<polygon fill="none" stroke="black" points="1344,-73 1344,-92 1448,-92 1448,-73 1344,-73"/>
<text text-anchor="middle" x="1396" y="-80" font-family="Helvetica,sans-Serif" font-size="10.00">multiply_long.hpp</text>
</a>
</g>
</g>
<!-- Node11&#45;&gt;Node17 -->
<g id="edge23" class="edge">
<title>Node11&#45;&gt;Node17</title>
<path fill="none" stroke="midnightblue" d="M1942.48,-141.72C1858.88,-138.24 1639.08,-126.87 1458,-98 1451.7,-96.99 1445.08,-95.71 1438.62,-94.31"/>
<polygon fill="midnightblue" stroke="midnightblue" points="1439.17,-90.85 1428.65,-92.06 1437.63,-97.68 1439.17,-90.85"/>
</g>
<!-- Node18 -->
<g id="node18" class="node">
<title>Node18</title>
<g id="a_node18"><a xlink:href="single__data__transfer_8hpp.html" target="_top" xlink:title="This file defines single data transfer instruction (LDR, STR).">
<polygon fill="none" stroke="black" points="1466.5,-73 1466.5,-92 1603.5,-92 1603.5,-73 1466.5,-73"/>
<text text-anchor="middle" x="1535" y="-80" font-family="Helvetica,sans-Serif" font-size="10.00">single_data_transfer.hpp</text>
</a>
</g>
</g>
<!-- Node11&#45;&gt;Node18 -->
<g id="edge25" class="edge">
<title>Node11&#45;&gt;Node18</title>
<path fill="none" stroke="midnightblue" d="M1942.27,-139.42C1877.41,-132.57 1733.51,-116.63 1613,-98 1604.97,-96.76 1596.49,-95.32 1588.21,-93.84"/>
<polygon fill="midnightblue" stroke="midnightblue" points="1588.71,-90.37 1578.24,-92.02 1587.45,-97.26 1588.71,-90.37"/>
</g>
<!-- Node19 -->
<g id="node19" class="node">
<title>Node19</title>
<g id="a_node19"><a xlink:href="block__data__transfer_8hpp.html" target="_top" xlink:title="This file defines a block data transfer instruction (LDM, STM).">
<polygon fill="none" stroke="black" points="1622,-73 1622,-92 1756,-92 1756,-73 1622,-73"/>
<text text-anchor="middle" x="1689" y="-80" font-family="Helvetica,sans-Serif" font-size="10.00">block_data_transfer.hpp</text>
</a>
</g>
</g>
<!-- Node11&#45;&gt;Node19 -->
<g id="edge27" class="edge">
<title>Node11&#45;&gt;Node19</title>
<path fill="none" stroke="midnightblue" d="M1942.26,-135.82C1892.02,-125.44 1798.72,-106.17 1740.47,-94.13"/>
<polygon fill="midnightblue" stroke="midnightblue" points="1740.87,-90.64 1730.37,-92.05 1739.46,-97.5 1740.87,-90.64"/>
</g>
<!-- Node20 -->
<g id="node20" class="node">
<title>Node20</title>
<g id="a_node20"><a xlink:href="halfword__data__transfer_8hpp.html" target="_top" xlink:title="This file defines a Halfword data transfer instruction.">
<polygon fill="none" stroke="black" points="1774.5,-73 1774.5,-92 1923.5,-92 1923.5,-73 1774.5,-73"/>
<text text-anchor="middle" x="1849" y="-80" font-family="Helvetica,sans-Serif" font-size="10.00">halfword_data_transfer.hpp</text>
</a>
</g>
</g>
<!-- Node11&#45;&gt;Node20 -->
<g id="edge29" class="edge">
<title>Node11&#45;&gt;Node20</title>
<path fill="none" stroke="midnightblue" d="M1958.66,-134.48C1937.18,-124.49 1901.38,-107.85 1876.55,-96.31"/>
<polygon fill="midnightblue" stroke="midnightblue" points="1877.85,-93.05 1867.31,-92.01 1874.9,-99.4 1877.85,-93.05"/>
</g>
<!-- Node21 -->
<g id="node21" class="node">
<title>Node21</title>
<g id="a_node21"><a xlink:href="extend_8hpp.html" target="_top" xlink:title="This file defines an extend instruction.">
<polygon fill="none" stroke="black" points="1941.5,-73 1941.5,-92 2012.5,-92 2012.5,-73 1941.5,-73"/>
<text text-anchor="middle" x="1977" y="-80" font-family="Helvetica,sans-Serif" font-size="10.00">extend.hpp</text>
</a>
</g>
</g>
<!-- Node11&#45;&gt;Node21 -->
<g id="edge31" class="edge">
<title>Node11&#45;&gt;Node21</title>
<path fill="none" stroke="midnightblue" d="M1977,-134.48C1977,-126.08 1977,-112.98 1977,-102.16"/>
<polygon fill="midnightblue" stroke="midnightblue" points="1980.5,-102.01 1977,-92.01 1973.5,-102.01 1980.5,-102.01"/>
</g>
<!-- Node22 -->
<g id="node22" class="node">
<title>Node22</title>
<g id="a_node22"><a xlink:href="psr__transfer_8hpp.html" target="_top" xlink:title="This file defines a PSR instruction (MRS, MSR).">
<polygon fill="none" stroke="black" points="2030.5,-73 2030.5,-92 2125.5,-92 2125.5,-73 2030.5,-73"/>
<text text-anchor="middle" x="2078" y="-80" font-family="Helvetica,sans-Serif" font-size="10.00">psr_transfer.hpp</text>
</a>
</g>
</g>
<!-- Node11&#45;&gt;Node22 -->
<g id="edge33" class="edge">
<title>Node11&#45;&gt;Node22</title>
<path fill="none" stroke="midnightblue" d="M1991.47,-134.48C2007.97,-124.75 2035.18,-108.73 2054.68,-97.24"/>
<polygon fill="midnightblue" stroke="midnightblue" points="2056.72,-100.1 2063.56,-92.01 2053.16,-94.07 2056.72,-100.1"/>
</g>
<!-- Node23 -->
<g id="node23" class="node">
<title>Node23</title>
<g id="a_node23"><a xlink:href="cps_8hpp.html" target="_top" xlink:title="This file defines a change processor state instruction (CPS).">
<polygon fill="none" stroke="black" points="2144,-73 2144,-92 2198,-92 2198,-73 2144,-73"/>
<text text-anchor="middle" x="2171" y="-80" font-family="Helvetica,sans-Serif" font-size="10.00">cps.hpp</text>
</a>
</g>
</g>
<!-- Node11&#45;&gt;Node23 -->
<g id="edge35" class="edge">
<title>Node11&#45;&gt;Node23</title>
<path fill="none" stroke="midnightblue" d="M2010.92,-134.45C2043.13,-126.07 2092.78,-112.47 2135,-98 2137.12,-97.27 2139.3,-96.49 2141.49,-95.68"/>
<polygon fill="midnightblue" stroke="midnightblue" points="2142.9,-98.88 2150.96,-92.01 2140.37,-92.36 2142.9,-98.88"/>
</g>
<!-- Node24 -->
<g id="node24" class="node">
<title>Node24</title>
<g id="a_node24"><a xlink:href="coprocessor__register__transfer_8hpp.html" target="_top" xlink:title="This file defines a coprocessor register transfer (MRC, MCR).">
<polygon fill="none" stroke="black" points="735,-67.5 735,-97.5 853,-97.5 853,-67.5 735,-67.5"/>
<text text-anchor="start" x="743" y="-85.5" font-family="Helvetica,sans-Serif" font-size="10.00">coprocessor_register</text>
<text text-anchor="middle" x="794" y="-74.5" font-family="Helvetica,sans-Serif" font-size="10.00">_transfer.hpp</text>
</a>
</g>
</g>
<!-- Node11&#45;&gt;Node24 -->
<g id="edge37" class="edge">
<title>Node11&#45;&gt;Node24</title>
<path fill="none" stroke="midnightblue" d="M1942.25,-142.39C1780.41,-139.44 1098.98,-125.68 863.44,-97.99"/>
<polygon fill="midnightblue" stroke="midnightblue" points="863.59,-94.49 853.24,-96.75 862.74,-101.43 863.59,-94.49"/>
</g>
<!-- Node25 -->
<g id="node25" class="node">
<title>Node25</title>
<g id="a_node25"><a xlink:href="coprocessor__data__transfer_8hpp.html" target="_top" xlink:title="This file defines a coprocessor data transfer (LDC, STC).">
<polygon fill="none" stroke="black" points="871,-73 871,-92 1037,-92 1037,-73 871,-73"/>
<text text-anchor="middle" x="954" y="-80" font-family="Helvetica,sans-Serif" font-size="10.00">coprocessor_data_transfer.hpp</text>
</a>
</g>
</g>
<!-- Node11&#45;&gt;Node25 -->
<g id="edge39" class="edge">
<title>Node11&#45;&gt;Node25</title>
<path fill="none" stroke="midnightblue" d="M1942.28,-142.65C1819.59,-141.13 1395.16,-133.46 1047,-98 1035.68,-96.85 1023.65,-95.25 1012.11,-93.53"/>
<polygon fill="midnightblue" stroke="midnightblue" points="1012.56,-90.06 1002.14,-92 1011.5,-96.98 1012.56,-90.06"/>
</g>
<!-- Node26 -->
<g id="node26" class="node">
<title>Node26</title>
<g id="a_node26"><a xlink:href="coprocessor__data__operation_8hpp.html" target="_top" xlink:title="This file defines a coprocessor data operation (CDP).">
<polygon fill="none" stroke="black" points="1055.5,-73 1055.5,-92 1230.5,-92 1230.5,-73 1055.5,-73"/>
<text text-anchor="middle" x="1143" y="-80" font-family="Helvetica,sans-Serif" font-size="10.00">coprocessor_data_operation.hpp</text>
</a>
</g>
</g>
<!-- Node11&#45;&gt;Node26 -->
<g id="edge41" class="edge">
<title>Node11&#45;&gt;Node26</title>
<path fill="none" stroke="midnightblue" d="M1942.38,-141.96C1836.79,-138.56 1509.64,-126.33 1240,-98 1228.47,-96.79 1216.22,-95.2 1204.44,-93.51"/>
<polygon fill="midnightblue" stroke="midnightblue" points="1204.64,-90 1194.24,-92.01 1203.63,-96.93 1204.64,-90"/>
</g>
<!-- Node27 -->
<g id="node27" class="node">
<title>Node27</title>
<g id="a_node27"><a xlink:href="srs_8hpp.html" target="_top" xlink:title="This file defines an SRS instruction (store return state onto a stack).">
<polygon fill="none" stroke="black" points="2216,-73 2216,-92 2268,-92 2268,-73 2216,-73"/>
<text text-anchor="middle" x="2242" y="-80" font-family="Helvetica,sans-Serif" font-size="10.00">srs.hpp</text>
</a>
</g>
</g>
<!-- Node11&#45;&gt;Node27 -->
<g id="edge43" class="edge">
<title>Node11&#45;&gt;Node27</title>
<path fill="none" stroke="midnightblue" d="M2011.81,-138.4C2057.32,-131.89 2139.22,-118.45 2207,-98 2209.28,-97.31 2211.62,-96.53 2213.96,-95.69"/>
<polygon fill="midnightblue" stroke="midnightblue" points="2215.31,-98.92 2223.36,-92.03 2212.77,-92.39 2215.31,-98.92"/>
</g>
<!-- Node28 -->
<g id="node28" class="node">
<title>Node28</title>
<g id="a_node28"><a xlink:href="rfe_8hpp.html" target="_top" xlink:title="This file defines an RFE instruction (return from exception).">
<polygon fill="none" stroke="black" points="2286.5,-73 2286.5,-92 2337.5,-92 2337.5,-73 2286.5,-73"/>
<text text-anchor="middle" x="2312" y="-80" font-family="Helvetica,sans-Serif" font-size="10.00">rfe.hpp</text>
</a>
</g>
</g>
<!-- Node11&#45;&gt;Node28 -->
<g id="edge45" class="edge">
<title>Node11&#45;&gt;Node28</title>
<path fill="none" stroke="midnightblue" d="M2011.76,-140.55C2068.26,-135.96 2183.12,-124.07 2277,-98 2279.44,-97.32 2281.94,-96.52 2284.42,-95.65"/>
<polygon fill="midnightblue" stroke="midnightblue" points="2285.7,-98.9 2293.77,-92.04 2283.18,-92.37 2285.7,-98.9"/>
</g>
<!-- Node29 -->
<g id="node29" class="node">
<title>Node29</title>
<g id="a_node29"><a xlink:href="clz_8hpp.html" target="_top" xlink:title="This file defines a count leading zeros instruction (CLZ).">
<polygon fill="none" stroke="black" points="2355.5,-73 2355.5,-92 2406.5,-92 2406.5,-73 2355.5,-73"/>
<text text-anchor="middle" x="2381" y="-80" font-family="Helvetica,sans-Serif" font-size="10.00">clz.hpp</text>
</a>
</g>
</g>
<!-- Node11&#45;&gt;Node29 -->
<g id="edge47" class="edge">
<title>Node11&#45;&gt;Node29</title>
<path fill="none" stroke="midnightblue" d="M2011.54,-142.03C2077.72,-139.48 2226.53,-130.31 2347,-98 2349.3,-97.38 2351.65,-96.64 2353.98,-95.82"/>
<polygon fill="midnightblue" stroke="midnightblue" points="2355.31,-99.06 2363.34,-92.15 2352.75,-92.54 2355.31,-99.06"/>
</g>
<!-- Node13&#45;&gt;Node12 -->
<g id="edge16" class="edge">
<title>Node13&#45;&gt;Node12</title>
<path fill="none" stroke="midnightblue" d="M2486.35,-72.96C2474.15,-70.94 2461.11,-68.83 2449,-67 2336.9,-50.03 2205.33,-32.74 2132.86,-23.45"/>
<polygon fill="midnightblue" stroke="midnightblue" points="2132.97,-19.93 2122.61,-22.13 2132.08,-26.88 2132.97,-19.93"/>
</g>
<!-- Node14&#45;&gt;Node12 -->
<g id="edge18" class="edge">
<title>Node14&#45;&gt;Node12</title>
<path fill="none" stroke="midnightblue" d="M2639.9,-72.99C2632.95,-70.72 2625.24,-68.49 2618,-67 2443.13,-31.1 2231.1,-20.68 2132.86,-17.68"/>
<polygon fill="midnightblue" stroke="midnightblue" points="2132.68,-14.18 2122.58,-17.39 2132.47,-21.17 2132.68,-14.18"/>
</g>
<!-- Node15&#45;&gt;Node12 -->
<g id="edge20" class="edge">
<title>Node15&#45;&gt;Node12</title>
<path fill="none" stroke="midnightblue" d="M2739.69,-72.94C2729.52,-70.72 2718.36,-68.53 2708,-67 2496.63,-35.8 2242.32,-22.85 2132.68,-18.43"/>
<polygon fill="midnightblue" stroke="midnightblue" points="2132.66,-14.93 2122.53,-18.03 2132.38,-21.92 2132.66,-14.93"/>
</g>
<!-- Node16&#45;&gt;Node12 -->
<g id="edge22" class="edge">
<title>Node16&#45;&gt;Node12</title>
<path fill="none" stroke="midnightblue" d="M1311.65,-72.89C1319.07,-70.62 1327.29,-68.41 1335,-67 1588.97,-20.62 1898.79,-15.87 2022.82,-16.02"/>
<polygon fill="midnightblue" stroke="midnightblue" points="2023.17,-19.52 2033.18,-16.05 2023.19,-12.52 2023.17,-19.52"/>
</g>
<!-- Node17&#45;&gt;Node12 -->
<g id="edge24" class="edge">
<title>Node17&#45;&gt;Node12</title>
<path fill="none" stroke="midnightblue" d="M1428.32,-72.98C1437.83,-70.74 1448.28,-68.52 1458,-67 1665.23,-34.51 1914.91,-22.25 2023.33,-18.23"/>
<polygon fill="midnightblue" stroke="midnightblue" points="2023.51,-21.72 2033.38,-17.86 2023.26,-14.73 2023.51,-21.72"/>
</g>
<!-- Node18&#45;&gt;Node12 -->
<g id="edge26" class="edge">
<title>Node18&#45;&gt;Node12</title>
<path fill="none" stroke="midnightblue" d="M1577.82,-72.94C1589.22,-70.82 1601.55,-68.68 1613,-67 1760.65,-45.29 1935.95,-28.73 2023.11,-21.11"/>
<polygon fill="midnightblue" stroke="midnightblue" points="2023.63,-24.57 2033.29,-20.22 2023.03,-17.6 2023.63,-24.57"/>
</g>
<!-- Node19&#45;&gt;Node12 -->
<g id="edge28" class="edge">
<title>Node19&#45;&gt;Node12</title>
<path fill="none" stroke="midnightblue" d="M1733.35,-72.95C1744.03,-70.94 1755.41,-68.85 1766,-67 1855.98,-51.25 1960.88,-34.63 2023.24,-24.93"/>
<polygon fill="midnightblue" stroke="midnightblue" points="2023.9,-28.37 2033.25,-23.37 2022.83,-21.45 2023.9,-28.37"/>
</g>
<!-- Node20&#45;&gt;Node12 -->
<g id="edge30" class="edge">
<title>Node20&#45;&gt;Node12</title>
<path fill="none" stroke="midnightblue" d="M1879.41,-72.87C1920.24,-61.28 1992.87,-40.66 2038.07,-27.83"/>
<polygon fill="midnightblue" stroke="midnightblue" points="2039.17,-31.16 2047.83,-25.06 2037.25,-24.43 2039.17,-31.16"/>
</g>
<!-- Node21&#45;&gt;Node12 -->
<g id="edge32" class="edge">
<title>Node21&#45;&gt;Node12</title>
<path fill="none" stroke="midnightblue" d="M1990.62,-72.73C2007.43,-61.92 2036.23,-43.38 2056.14,-30.57"/>
<polygon fill="midnightblue" stroke="midnightblue" points="2058.08,-33.48 2064.59,-25.13 2054.29,-27.6 2058.08,-33.48"/>
</g>
<!-- Node22&#45;&gt;Node12 -->
<g id="edge34" class="edge">
<title>Node22&#45;&gt;Node12</title>
<path fill="none" stroke="midnightblue" d="M2078,-72.73C2078,-63.18 2078,-47.62 2078,-35.28"/>
<polygon fill="midnightblue" stroke="midnightblue" points="2081.5,-35.13 2078,-25.13 2074.5,-35.13 2081.5,-35.13"/>
</g>
<!-- Node23&#45;&gt;Node12 -->
<g id="edge36" class="edge">
<title>Node23&#45;&gt;Node12</title>
<path fill="none" stroke="midnightblue" d="M2158.46,-72.73C2143.12,-62.01 2116.94,-43.72 2098.62,-30.91"/>
<polygon fill="midnightblue" stroke="midnightblue" points="2100.55,-27.99 2090.34,-25.13 2096.54,-33.72 2100.55,-27.99"/>
</g>
<!-- Node24&#45;&gt;Node12 -->
<g id="edge38" class="edge">
<title>Node24&#45;&gt;Node12</title>
<path fill="none" stroke="midnightblue" d="M853.24,-68.25C856.19,-67.79 859.13,-67.36 862,-67 1091.35,-38 1817.06,-21.68 2023.02,-17.55"/>
<polygon fill="midnightblue" stroke="midnightblue" points="2023.35,-21.04 2033.28,-17.35 2023.22,-14.05 2023.35,-21.04"/>
</g>
<!-- Node25&#45;&gt;Node12 -->
<g id="edge40" class="edge">
<title>Node25&#45;&gt;Node12</title>
<path fill="none" stroke="midnightblue" d="M1002.62,-72.93C1016.88,-70.68 1032.53,-68.48 1047,-67 1418.86,-29.01 1869.19,-19.4 2023.26,-17.15"/>
<polygon fill="midnightblue" stroke="midnightblue" points="2023.46,-20.64 2033.41,-17 2023.36,-13.64 2023.46,-20.64"/>
</g>
<!-- Node26&#45;&gt;Node12 -->
<g id="edge42" class="edge">
<title>Node26&#45;&gt;Node12</title>
<path fill="none" stroke="midnightblue" d="M1194.24,-72.98C1208.98,-70.76 1225.1,-68.56 1240,-67 1534.56,-36.17 1889.5,-22.46 2023.36,-18.12"/>
<polygon fill="midnightblue" stroke="midnightblue" points="2023.49,-21.62 2033.37,-17.8 2023.26,-14.63 2023.49,-21.62"/>
</g>
<!-- Node27&#45;&gt;Node12 -->
<g id="edge44" class="edge">
<title>Node27&#45;&gt;Node12</title>
<path fill="none" stroke="midnightblue" d="M2221.67,-73C2216.87,-71.01 2211.76,-68.92 2207,-67 2173.96,-53.69 2135.98,-38.88 2109.83,-28.76"/>
<polygon fill="midnightblue" stroke="midnightblue" points="2111.01,-25.47 2100.43,-25.13 2108.49,-32 2111.01,-25.47"/>
</g>
<!-- Node28&#45;&gt;Node12 -->
<g id="edge46" class="edge">
<title>Node28&#45;&gt;Node12</title>
<path fill="none" stroke="midnightblue" d="M2292.57,-72.87C2287.55,-70.8 2282.12,-68.7 2277,-67 2227.42,-50.53 2169.37,-36.37 2128.81,-27.27"/>
<polygon fill="midnightblue" stroke="midnightblue" points="2129.42,-23.81 2118.89,-25.06 2127.9,-30.65 2129.42,-23.81"/>
</g>
<!-- Node29&#45;&gt;Node12 -->
<g id="edge48" class="edge">
<title>Node29&#45;&gt;Node12</title>
<path fill="none" stroke="midnightblue" d="M2362.92,-72.93C2357.85,-70.76 2352.28,-68.6 2347,-67 2274.38,-44.98 2187.67,-30.78 2132.72,-23.22"/>
<polygon fill="midnightblue" stroke="midnightblue" points="2132.88,-19.71 2122.5,-21.83 2131.95,-26.64 2132.88,-19.71"/>
</g>
<!-- Node30&#45;&gt;Node12 -->
<g id="edge50" class="edge">
<title>Node30&#45;&gt;Node12</title>
<path fill="none" stroke="midnightblue" d="M2021.77,-196.77C2207.49,-188.89 2788.18,-159.49 2843,-98 2852.17,-87.72 2852.42,-77.06 2843,-67 2794.69,-15.4 2299.81,-14.66 2132.74,-15.91"/>
<polygon fill="midnightblue" stroke="midnightblue" points="2132.66,-12.41 2122.69,-15.99 2132.72,-19.41 2132.66,-12.41"/>
</g>
<!-- Node31&#45;&gt;Node9 -->
<g id="edge60" class="edge">
<title>Node31&#45;&gt;Node9</title>
<path fill="none" stroke="midnightblue" d="M634,-251.98C634,-243.58 634,-230.48 634,-219.66"/>
<polygon fill="midnightblue" stroke="midnightblue" points="637.5,-219.51 634,-209.51 630.5,-219.51 637.5,-219.51"/>
</g>
<!-- Node32 -->
<g id="node32" class="node">
<title>Node32</title>
<g id="a_node32"><a xlink:href="cp15_8hpp.html" target="_top" xlink:title="This file defines CP15 (system control coprocessor).">
<polygon fill="none" stroke="black" points="698,-190.5 698,-209.5 826,-209.5 826,-190.5 698,-190.5"/>
<text text-anchor="middle" x="762" y="-197.5" font-family="Helvetica,sans-Serif" font-size="10.00">coprocessors/cp15.hpp</text>
</a>
</g>
</g>
<!-- Node31&#45;&gt;Node32 -->
<g id="edge52" class="edge">
<title>Node31&#45;&gt;Node32</title>
<path fill="none" stroke="midnightblue" d="M652.34,-251.98C673.82,-241.99 709.62,-225.35 734.45,-213.81"/>
<polygon fill="midnightblue" stroke="midnightblue" points="736.1,-216.9 743.69,-209.51 733.15,-210.55 736.1,-216.9"/>
</g>
<!-- Node31&#45;&gt;Node34 -->
<g id="edge59" class="edge">
<title>Node31&#45;&gt;Node34</title>
<path fill="none" stroke="midnightblue" d="M614.51,-251.98C591.59,-241.95 553.31,-225.2 526.92,-213.65"/>
<polygon fill="midnightblue" stroke="midnightblue" points="528.01,-210.31 517.45,-209.51 525.21,-216.72 528.01,-210.31"/>
</g>
<!-- Node32&#45;&gt;Node6 -->
<g id="edge58" class="edge">
<title>Node32&#45;&gt;Node6</title>
<path fill="none" stroke="midnightblue" d="M747.59,-190.44C726.34,-177.87 685.32,-153.76 650,-134 586.2,-98.31 510.99,-58.2 467.66,-35.28"/>
<polygon fill="midnightblue" stroke="midnightblue" points="469.13,-32.1 458.66,-30.52 465.86,-38.29 469.13,-32.1"/>
</g>
<!-- Node33 -->
<g id="node33" class="node">
<title>Node33</title>
<g id="a_node33"><a xlink:href="coprocessor_8hpp.html" target="_top" xlink:title="This file defines a general interface of a coprocessor.">
<polygon fill="none" stroke="black" points="746.5,-134.5 746.5,-153.5 841.5,-153.5 841.5,-134.5 746.5,-134.5"/>
<text text-anchor="middle" x="794" y="-141.5" font-family="Helvetica,sans-Serif" font-size="10.00">coprocessor.hpp</text>
</a>
</g>
</g>
<!-- Node32&#45;&gt;Node33 -->
<g id="edge53" class="edge">
<title>Node32&#45;&gt;Node33</title>
<path fill="none" stroke="midnightblue" d="M767.28,-190.08C771.71,-182.61 778.16,-171.72 783.62,-162.52"/>
<polygon fill="midnightblue" stroke="midnightblue" points="786.73,-164.14 788.81,-153.75 780.71,-160.57 786.73,-164.14"/>
</g>
<!-- Node33&#45;&gt;Node8 -->
<g id="edge54" class="edge">
<title>Node33&#45;&gt;Node8</title>
<path fill="none" stroke="midnightblue" d="M746.3,-135.16C676.82,-123.74 548.52,-102.65 479.27,-91.27"/>
<polygon fill="midnightblue" stroke="midnightblue" points="479.53,-87.76 469.09,-89.6 478.39,-94.67 479.53,-87.76"/>
</g>
<!-- Node33&#45;&gt;Node24 -->
<g id="edge55" class="edge">
<title>Node33&#45;&gt;Node24</title>
<path fill="none" stroke="midnightblue" d="M794,-134.48C794,-127.47 794,-117.19 794,-107.7"/>
<polygon fill="midnightblue" stroke="midnightblue" points="797.5,-107.52 794,-97.52 790.5,-107.52 797.5,-107.52"/>
</g>
<!-- Node33&#45;&gt;Node25 -->
<g id="edge56" class="edge">
<title>Node33&#45;&gt;Node25</title>
<path fill="none" stroke="midnightblue" d="M816.92,-134.48C844.37,-124.27 890.52,-107.11 921.6,-95.55"/>
<polygon fill="midnightblue" stroke="midnightblue" points="922.97,-98.78 931.12,-92.01 920.53,-92.21 922.97,-98.78"/>
</g>
<!-- Node33&#45;&gt;Node26 -->
<g id="edge57" class="edge">
<title>Node33&#45;&gt;Node26</title>
<path fill="none" stroke="midnightblue" d="M841.8,-134.85C904.48,-124.17 1014.48,-105.41 1082.79,-93.77"/>
<polygon fill="midnightblue" stroke="midnightblue" points="1083.69,-97.16 1092.96,-92.03 1082.52,-90.26 1083.69,-97.16"/>
</g>
<!-- Node36&#45;&gt;Node6 -->
<g id="edge66" class="edge">
<title>Node36&#45;&gt;Node6</title>
<path fill="none" stroke="midnightblue" d="M435.35,-246.34C426.41,-236.87 415.48,-223.68 409,-210 387.25,-164.07 391.14,-148.56 386,-98 384.61,-84.29 381.03,-79.85 386,-67 390.26,-55.99 398.16,-45.91 406.23,-37.7"/>
<polygon fill="midnightblue" stroke="midnightblue" points="408.75,-40.14 413.58,-30.71 403.92,-35.06 408.75,-40.14"/>
</g>
<!-- Node36&#45;&gt;Node8 -->
<g id="edge65" class="edge">
<title>Node36&#45;&gt;Node8</title>
<path fill="none" stroke="midnightblue" d="M437.39,-246.19C429.86,-236.66 421.01,-223.45 417,-210 405.89,-172.7 417.14,-126.91 425.26,-101.93"/>
<polygon fill="midnightblue" stroke="midnightblue" points="428.63,-102.89 428.58,-92.3 422.01,-100.61 428.63,-102.89"/>
</g>
<!-- Node36&#45;&gt;Node34 -->
<g id="edge64" class="edge">
<title>Node36&#45;&gt;Node34</title>
<path fill="none" stroke="midnightblue" d="M461.38,-246.4C468.35,-237.75 477.31,-226.64 484.63,-217.58"/>
<polygon fill="midnightblue" stroke="midnightblue" points="487.46,-219.64 491.02,-209.66 482.01,-215.24 487.46,-219.64"/>
</g>
</g>
</svg>
