<?xml version="1.0" encoding="UTF-8" standalone="no"?>
<!DOCTYPE svg PUBLIC "-//W3C//DTD SVG 1.1//EN"
 "http://www.w3.org/Graphics/SVG/1.1/DTD/svg11.dtd">
<!-- Generated by graphviz version 2.43.0 (0)
 -->
<!-- Title: src/core/arm1176jzf_s/context.hpp Pages: 1 -->
<svg width="1887pt" height="441pt"
 viewBox="0.00 0.00 1887.24 441.00" xmlns="http://www.w3.org/2000/svg" xmlns:xlink="http://www.w3.org/1999/xlink">
<g id="graph0" class="graph" transform="scale(1 1) rotate(0) translate(4 437)">
<title>src/core/arm1176jzf_s/context.hpp</title>
<!-- Node1 -->
<g id="node1" class="node">
<title>Node1</title>
<g id="a_node1"><a xlink:title="This file defines the context (registers) of the CPU.">
<polygon fill="#bfbfbf" stroke="black" points="761.74,-402.5 761.74,-432.5 874.74,-432.5 874.74,-402.5 761.74,-402.5"/>
<text text-anchor="start" x="769.74" y="-420.5" font-family="Helvetica,sans-Serif" font-size="10.00">src/core/arm1176jzf</text>
<text text-anchor="middle" x="818.24" y="-409.5" font-family="Helvetica,sans-Serif" font-size="10.00">_s/context.hpp</text>
</a>
</g>
</g>
<!-- Node2 -->
<g id="node2" class="node">
<title>Node2</title>
<g id="a_node2"><a xlink:href="context_8cpp.html" target="_top" xlink:title="This file implements the context (registers) of the CPU.">
<polygon fill="none" stroke="black" points="468.74,-268.5 468.74,-298.5 581.74,-298.5 581.74,-268.5 468.74,-268.5"/>
<text text-anchor="start" x="476.74" y="-286.5" font-family="Helvetica,sans-Serif" font-size="10.00">src/core/arm1176jzf</text>
<text text-anchor="middle" x="525.24" y="-275.5" font-family="Helvetica,sans-Serif" font-size="10.00">_s/context.cpp</text>
</a>
</g>
</g>
<!-- Node1&#45;&gt;Node2 -->
<g id="edge1" class="edge">
<title>Node1&#45;&gt;Node2</title>
<path fill="none" stroke="midnightblue" d="M751.2,-415.12C700.98,-411.17 632.55,-399.37 582.24,-366 557.06,-349.3 539.67,-317.35 531.19,-298.8"/>
<polygon fill="midnightblue" stroke="midnightblue" points="751.09,-418.62 761.31,-415.82 751.58,-411.63 751.09,-418.62"/>
</g>
<!-- Node3 -->
<g id="node3" class="node">
<title>Node3</title>
<g id="a_node3"><a xlink:href="core_8hpp.html" target="_top" xlink:title="This file defines a class that represents a CPU core (arm1176jzf_s).">
<polygon fill="none" stroke="black" points="620.74,-134.5 620.74,-164.5 733.74,-164.5 733.74,-134.5 620.74,-134.5"/>
<text text-anchor="start" x="628.74" y="-152.5" font-family="Helvetica,sans-Serif" font-size="10.00">src/core/arm1176jzf</text>
<text text-anchor="middle" x="677.24" y="-141.5" font-family="Helvetica,sans-Serif" font-size="10.00">_s/core.hpp</text>
</a>
</g>
</g>
<!-- Node1&#45;&gt;Node3 -->
<g id="edge2" class="edge">
<title>Node1&#45;&gt;Node3</title>
<path fill="none" stroke="midnightblue" d="M819.7,-391.87C820.49,-361.19 818.37,-307.93 798.24,-268 775.17,-222.24 727.1,-184.14 698.99,-164.6"/>
<polygon fill="midnightblue" stroke="midnightblue" points="816.2,-391.96 819.31,-402.09 823.19,-392.23 816.2,-391.96"/>
</g>
<!-- Node17 -->
<g id="node17" class="node">
<title>Node17</title>
<g id="a_node17"><a xlink:href="exceptions_8hpp.html" target="_top" xlink:title="This file defines all exceptions that can be thrown by the CPU during execution.">
<polygon fill="none" stroke="black" points="591.74,-335.5 591.74,-365.5 704.74,-365.5 704.74,-335.5 591.74,-335.5"/>
<text text-anchor="start" x="599.74" y="-353.5" font-family="Helvetica,sans-Serif" font-size="10.00">src/core/arm1176jzf</text>
<text text-anchor="middle" x="648.24" y="-342.5" font-family="Helvetica,sans-Serif" font-size="10.00">_s/exceptions.hpp</text>
</a>
</g>
</g>
<!-- Node1&#45;&gt;Node17 -->
<g id="edge20" class="edge">
<title>Node1&#45;&gt;Node17</title>
<path fill="none" stroke="midnightblue" d="M772,-398.82C744.67,-388.37 710.55,-375.32 685.06,-365.58"/>
<polygon fill="midnightblue" stroke="midnightblue" points="770.77,-402.09 781.36,-402.4 773.27,-395.56 770.77,-402.09"/>
</g>
<!-- Node23 -->
<g id="node23" class="node">
<title>Node23</title>
<g id="a_node23"><a xlink:href="coprocessor_8hpp.html" target="_top" xlink:title="This file defines a general interface of a coprocessor.">
<polygon fill="none" stroke="black" points="846.24,-335.5 846.24,-365.5 968.24,-365.5 968.24,-335.5 846.24,-335.5"/>
<text text-anchor="start" x="854.24" y="-353.5" font-family="Helvetica,sans-Serif" font-size="10.00">src/core/coprocessors</text>
<text text-anchor="middle" x="907.24" y="-342.5" font-family="Helvetica,sans-Serif" font-size="10.00">/coprocessor.hpp</text>
</a>
</g>
</g>
<!-- Node1&#45;&gt;Node23 -->
<g id="edge35" class="edge">
<title>Node1&#45;&gt;Node23</title>
<path fill="none" stroke="midnightblue" d="M845.69,-396.45C859.39,-386.45 875.61,-374.6 887.97,-365.58"/>
<polygon fill="midnightblue" stroke="midnightblue" points="843.57,-393.67 837.55,-402.4 847.69,-399.32 843.57,-393.67"/>
</g>
<!-- Node29 -->
<g id="node29" class="node">
<title>Node29</title>
<g id="a_node29"><a xlink:href="interrupt__controller_8hpp.html" target="_top" xlink:title="This file defines the interrupt controller used in BCM2835.">
<polygon fill="none" stroke="black" points="1256.24,-201.5 1256.24,-231.5 1390.24,-231.5 1390.24,-201.5 1256.24,-201.5"/>
<text text-anchor="start" x="1264.24" y="-219.5" font-family="Helvetica,sans-Serif" font-size="10.00">src/core/peripherals</text>
<text text-anchor="middle" x="1323.24" y="-208.5" font-family="Helvetica,sans-Serif" font-size="10.00">/interrupt_controller.hpp</text>
</a>
</g>
</g>
<!-- Node1&#45;&gt;Node29 -->
<g id="edge44" class="edge">
<title>Node1&#45;&gt;Node29</title>
<path fill="none" stroke="midnightblue" d="M876.25,-399.57C906.58,-390.34 944.18,-378.31 977.24,-366 1096.09,-321.75 1233.51,-259.28 1293.1,-231.62"/>
<polygon fill="midnightblue" stroke="midnightblue" points="875.23,-396.22 866.67,-402.46 877.26,-402.92 875.23,-396.22"/>
</g>
<!-- Node4 -->
<g id="node4" class="node">
<title>Node4</title>
<g id="a_node4"><a xlink:href="core_8cpp.html" target="_top" xlink:title="This file implements the CCPU_Core class defined in core.hpp.">
<polygon fill="none" stroke="black" points="620.74,-67.5 620.74,-97.5 733.74,-97.5 733.74,-67.5 620.74,-67.5"/>
<text text-anchor="start" x="628.74" y="-85.5" font-family="Helvetica,sans-Serif" font-size="10.00">src/core/arm1176jzf</text>
<text text-anchor="middle" x="677.24" y="-74.5" font-family="Helvetica,sans-Serif" font-size="10.00">_s/core.cpp</text>
</a>
</g>
</g>
<!-- Node3&#45;&gt;Node4 -->
<g id="edge3" class="edge">
<title>Node3&#45;&gt;Node4</title>
<path fill="none" stroke="midnightblue" d="M677.24,-124.11C677.24,-115.15 677.24,-105.32 677.24,-97.58"/>
<polygon fill="midnightblue" stroke="midnightblue" points="673.74,-124.4 677.24,-134.4 680.74,-124.4 673.74,-124.4"/>
</g>
<!-- Node5 -->
<g id="node5" class="node">
<title>Node5</title>
<g id="a_node5"><a xlink:href="soc_8hpp.html" target="_top" xlink:title=" ">
<polygon fill="none" stroke="black" points="1180.74,-73 1180.74,-92 1275.74,-92 1275.74,-73 1180.74,-73"/>
<text text-anchor="middle" x="1228.24" y="-80" font-family="Helvetica,sans-Serif" font-size="10.00">src/core/soc.hpp</text>
</a>
</g>
</g>
<!-- Node3&#45;&gt;Node5 -->
<g id="edge4" class="edge">
<title>Node3&#45;&gt;Node5</title>
<path fill="none" stroke="midnightblue" d="M744.22,-142.21C869.46,-130.36 1130.22,-105.27 1171.24,-98 1180.09,-96.43 1189.59,-94.23 1198.25,-92.01"/>
<polygon fill="midnightblue" stroke="midnightblue" points="743.61,-138.75 733.98,-143.17 744.27,-145.72 743.61,-138.75"/>
</g>
<!-- Node9 -->
<g id="node9" class="node">
<title>Node9</title>
<g id="a_node9"><a xlink:href="control__window_8hpp.html" target="_top" xlink:title=" ">
<polygon fill="none" stroke="black" points="471.74,-67.5 471.74,-97.5 602.74,-97.5 602.74,-67.5 471.74,-67.5"/>
<text text-anchor="start" x="479.74" y="-85.5" font-family="Helvetica,sans-Serif" font-size="10.00">src/gui/windows/control</text>
<text text-anchor="middle" x="537.24" y="-74.5" font-family="Helvetica,sans-Serif" font-size="10.00">_window.hpp</text>
</a>
</g>
</g>
<!-- Node3&#45;&gt;Node9 -->
<g id="edge8" class="edge">
<title>Node3&#45;&gt;Node9</title>
<path fill="none" stroke="midnightblue" d="M637.68,-130.13C615.43,-119.8 588.1,-107.11 567.56,-97.58"/>
<polygon fill="midnightblue" stroke="midnightblue" points="636.32,-133.36 646.87,-134.4 639.27,-127.01 636.32,-133.36"/>
</g>
<!-- Node11 -->
<g id="node11" class="node">
<title>Node11</title>
<g id="a_node11"><a xlink:href="file__window_8hpp.html" target="_top" xlink:title=" ">
<polygon fill="none" stroke="black" points="340.74,-67.5 340.74,-97.5 453.74,-97.5 453.74,-67.5 340.74,-67.5"/>
<text text-anchor="start" x="348.74" y="-85.5" font-family="Helvetica,sans-Serif" font-size="10.00">src/gui/windows/file</text>
<text text-anchor="middle" x="397.24" y="-74.5" font-family="Helvetica,sans-Serif" font-size="10.00">_window.hpp</text>
</a>
</g>
</g>
<!-- Node3&#45;&gt;Node11 -->
<g id="edge11" class="edge">
<title>Node3&#45;&gt;Node11</title>
<path fill="none" stroke="midnightblue" d="M610.64,-133.04C562.85,-121.94 499.15,-107.16 453.82,-96.63"/>
<polygon fill="midnightblue" stroke="midnightblue" points="610.05,-136.49 620.58,-135.35 611.63,-129.68 610.05,-136.49"/>
</g>
<!-- Node13 -->
<g id="node13" class="node">
<title>Node13</title>
<g id="a_node13"><a xlink:href="registers__window_8hpp.html" target="_top" xlink:title=" ">
<polygon fill="none" stroke="black" points="752.24,-67.5 752.24,-97.5 892.24,-97.5 892.24,-67.5 752.24,-67.5"/>
<text text-anchor="start" x="760.24" y="-85.5" font-family="Helvetica,sans-Serif" font-size="10.00">src/gui/windows/registers</text>
<text text-anchor="middle" x="822.24" y="-74.5" font-family="Helvetica,sans-Serif" font-size="10.00">_window.hpp</text>
</a>
</g>
</g>
<!-- Node3&#45;&gt;Node13 -->
<g id="edge14" class="edge">
<title>Node3&#45;&gt;Node13</title>
<path fill="none" stroke="midnightblue" d="M717.91,-130.27C741.01,-119.92 769.48,-107.15 790.84,-97.58"/>
<polygon fill="midnightblue" stroke="midnightblue" points="716.4,-127.11 708.71,-134.4 719.26,-133.5 716.4,-127.11"/>
</g>
<!-- Node15 -->
<g id="node15" class="node">
<title>Node15</title>
<g id="a_node15"><a xlink:href="source__code__window_8hpp.html" target="_top" xlink:title=" ">
<polygon fill="none" stroke="black" points="192.24,-67.5 192.24,-97.5 322.24,-97.5 322.24,-67.5 192.24,-67.5"/>
<text text-anchor="start" x="200.24" y="-85.5" font-family="Helvetica,sans-Serif" font-size="10.00">src/gui/windows/source</text>
<text text-anchor="middle" x="257.24" y="-74.5" font-family="Helvetica,sans-Serif" font-size="10.00">_code_window.hpp</text>
</a>
</g>
</g>
<!-- Node3&#45;&gt;Node15 -->
<g id="edge17" class="edge">
<title>Node3&#45;&gt;Node15</title>
<path fill="none" stroke="midnightblue" d="M610.5,-133.97C485.92,-112.78 451.95,-117.56 331.24,-98 328.4,-97.54 325.5,-97.05 322.57,-96.54"/>
<polygon fill="midnightblue" stroke="midnightblue" points="609.98,-137.43 620.42,-135.68 611.16,-130.54 609.98,-137.43"/>
</g>
<!-- Node6 -->
<g id="node6" class="node">
<title>Node6</title>
<g id="a_node6"><a xlink:href="soc_8cpp.html" target="_top" xlink:title=" ">
<polygon fill="none" stroke="black" points="1233.74,-6 1233.74,-25 1328.74,-25 1328.74,-6 1233.74,-6"/>
<text text-anchor="middle" x="1281.24" y="-13" font-family="Helvetica,sans-Serif" font-size="10.00">src/core/soc.cpp</text>
</a>
</g>
</g>
<!-- Node5&#45;&gt;Node6 -->
<g id="edge5" class="edge">
<title>Node5&#45;&gt;Node6</title>
<path fill="none" stroke="midnightblue" d="M1241.88,-64.77C1252.22,-52.1 1265.99,-35.2 1274.21,-25.13"/>
<polygon fill="midnightblue" stroke="midnightblue" points="1239,-62.77 1235.39,-72.73 1244.42,-67.2 1239,-62.77"/>
</g>
<!-- Node7 -->
<g id="node7" class="node">
<title>Node7</title>
<g id="a_node7"><a xlink:href="gui_8cpp.html" target="_top" xlink:title=" ">
<polygon fill="none" stroke="black" points="893.74,-6 893.74,-25 980.74,-25 980.74,-6 893.74,-6"/>
<text text-anchor="middle" x="937.24" y="-13" font-family="Helvetica,sans-Serif" font-size="10.00">src/gui/gui.cpp</text>
</a>
</g>
</g>
<!-- Node5&#45;&gt;Node7 -->
<g id="edge6" class="edge">
<title>Node5&#45;&gt;Node7</title>
<path fill="none" stroke="midnightblue" d="M1185.61,-70.48C1180.77,-69.28 1175.91,-68.1 1171.24,-67 1104.29,-51.26 1026.1,-34.77 979.19,-25.07"/>
<polygon fill="midnightblue" stroke="midnightblue" points="1184.89,-73.9 1195.44,-72.94 1186.59,-67.11 1184.89,-73.9"/>
</g>
<!-- Node8 -->
<g id="node8" class="node">
<title>Node8</title>
<g id="a_node8"><a xlink:href="main_8cpp.html" target="_top" xlink:title="This file defines and implements the main function of the application.">
<polygon fill="none" stroke="black" points="1136.74,-6 1136.74,-25 1215.74,-25 1215.74,-6 1136.74,-6"/>
<text text-anchor="middle" x="1176.24" y="-13" font-family="Helvetica,sans-Serif" font-size="10.00">src/main.cpp</text>
</a>
</g>
</g>
<!-- Node5&#45;&gt;Node8 -->
<g id="edge7" class="edge">
<title>Node5&#45;&gt;Node8</title>
<path fill="none" stroke="midnightblue" d="M1214.86,-64.77C1204.72,-52.1 1191.2,-35.2 1183.15,-25.13"/>
<polygon fill="midnightblue" stroke="midnightblue" points="1212.25,-67.11 1221.23,-72.73 1217.72,-62.74 1212.25,-67.11"/>
</g>
<!-- Node9&#45;&gt;Node7 -->
<g id="edge9" class="edge">
<title>Node9&#45;&gt;Node7</title>
<path fill="none" stroke="midnightblue" d="M612.98,-66.78C733.78,-47.62 767.44,-54.57 884.24,-31 892.29,-29.38 900.91,-27.21 908.81,-25.04"/>
<polygon fill="midnightblue" stroke="midnightblue" points="612.29,-63.35 602.97,-68.4 613.4,-70.26 612.29,-63.35"/>
</g>
<!-- Node10 -->
<g id="node10" class="node">
<title>Node10</title>
<g id="a_node10"><a xlink:href="control__window_8cpp.html" target="_top" xlink:title=" ">
<polygon fill="none" stroke="black" points="471.74,-0.5 471.74,-30.5 602.74,-30.5 602.74,-0.5 471.74,-0.5"/>
<text text-anchor="start" x="479.74" y="-18.5" font-family="Helvetica,sans-Serif" font-size="10.00">src/gui/windows/control</text>
<text text-anchor="middle" x="537.24" y="-7.5" font-family="Helvetica,sans-Serif" font-size="10.00">_window.cpp</text>
</a>
</g>
</g>
<!-- Node9&#45;&gt;Node10 -->
<g id="edge10" class="edge">
<title>Node9&#45;&gt;Node10</title>
<path fill="none" stroke="midnightblue" d="M537.24,-57.11C537.24,-48.15 537.24,-38.32 537.24,-30.58"/>
<polygon fill="midnightblue" stroke="midnightblue" points="533.74,-57.4 537.24,-67.4 540.74,-57.4 533.74,-57.4"/>
</g>
<!-- Node11&#45;&gt;Node7 -->
<g id="edge12" class="edge">
<title>Node11&#45;&gt;Node7</title>
<path fill="none" stroke="midnightblue" d="M464,-66.87C650.12,-39.32 702.17,-63.39 884.24,-31 892.6,-29.51 901.55,-27.31 909.68,-25.06"/>
<polygon fill="midnightblue" stroke="midnightblue" points="463.24,-63.44 453.88,-68.4 464.29,-70.36 463.24,-63.44"/>
</g>
<!-- Node12 -->
<g id="node12" class="node">
<title>Node12</title>
<g id="a_node12"><a xlink:href="file__window_8cpp.html" target="_top" xlink:title=" ">
<polygon fill="none" stroke="black" points="340.74,-0.5 340.74,-30.5 453.74,-30.5 453.74,-0.5 340.74,-0.5"/>
<text text-anchor="start" x="348.74" y="-18.5" font-family="Helvetica,sans-Serif" font-size="10.00">src/gui/windows/file</text>
<text text-anchor="middle" x="397.24" y="-7.5" font-family="Helvetica,sans-Serif" font-size="10.00">_window.cpp</text>
</a>
</g>
</g>
<!-- Node11&#45;&gt;Node12 -->
<g id="edge13" class="edge">
<title>Node11&#45;&gt;Node12</title>
<path fill="none" stroke="midnightblue" d="M397.24,-57.11C397.24,-48.15 397.24,-38.32 397.24,-30.58"/>
<polygon fill="midnightblue" stroke="midnightblue" points="393.74,-57.4 397.24,-67.4 400.74,-57.4 393.74,-57.4"/>
</g>
<!-- Node13&#45;&gt;Node7 -->
<g id="edge15" class="edge">
<title>Node13&#45;&gt;Node7</title>
<path fill="none" stroke="midnightblue" d="M855.91,-62.47C877.86,-50.06 905.45,-34.47 922.19,-25.01"/>
<polygon fill="midnightblue" stroke="midnightblue" points="854.18,-59.43 847.2,-67.4 857.62,-65.52 854.18,-59.43"/>
</g>
<!-- Node14 -->
<g id="node14" class="node">
<title>Node14</title>
<g id="a_node14"><a xlink:href="registers__window_8cpp.html" target="_top" xlink:title=" ">
<polygon fill="none" stroke="black" points="735.24,-0.5 735.24,-30.5 875.24,-30.5 875.24,-0.5 735.24,-0.5"/>
<text text-anchor="start" x="743.24" y="-18.5" font-family="Helvetica,sans-Serif" font-size="10.00">src/gui/windows/registers</text>
<text text-anchor="middle" x="805.24" y="-7.5" font-family="Helvetica,sans-Serif" font-size="10.00">_window.cpp</text>
</a>
</g>
</g>
<!-- Node13&#45;&gt;Node14 -->
<g id="edge16" class="edge">
<title>Node13&#45;&gt;Node14</title>
<path fill="none" stroke="midnightblue" d="M816.02,-57.7C813.64,-48.59 811,-38.49 808.92,-30.58"/>
<polygon fill="midnightblue" stroke="midnightblue" points="812.64,-58.61 818.55,-67.4 819.41,-56.84 812.64,-58.61"/>
</g>
<!-- Node15&#45;&gt;Node7 -->
<g id="edge18" class="edge">
<title>Node15&#45;&gt;Node7</title>
<path fill="none" stroke="midnightblue" d="M332.81,-66.92C577.32,-36.24 644.65,-71.15 884.24,-31 892.8,-29.57 901.98,-27.32 910.24,-25.02"/>
<polygon fill="midnightblue" stroke="midnightblue" points="332.01,-63.49 322.54,-68.23 332.9,-70.44 332.01,-63.49"/>
</g>
<!-- Node16 -->
<g id="node16" class="node">
<title>Node16</title>
<g id="a_node16"><a xlink:href="source__code__window_8cpp.html" target="_top" xlink:title=" ">
<polygon fill="none" stroke="black" points="55.24,-0.5 55.24,-30.5 185.24,-30.5 185.24,-0.5 55.24,-0.5"/>
<text text-anchor="start" x="63.24" y="-18.5" font-family="Helvetica,sans-Serif" font-size="10.00">src/gui/windows/source</text>
<text text-anchor="middle" x="120.24" y="-7.5" font-family="Helvetica,sans-Serif" font-size="10.00">_code_window.cpp</text>
</a>
</g>
</g>
<!-- Node15&#45;&gt;Node16 -->
<g id="edge19" class="edge">
<title>Node15&#45;&gt;Node16</title>
<path fill="none" stroke="midnightblue" d="M218.23,-62.99C196.52,-52.69 169.92,-40.07 149.91,-30.58"/>
<polygon fill="midnightblue" stroke="midnightblue" points="216.98,-66.27 227.52,-67.4 219.98,-59.95 216.98,-66.27"/>
</g>
<!-- Node17&#45;&gt;Node2 -->
<g id="edge21" class="edge">
<title>Node17&#45;&gt;Node2</title>
<path fill="none" stroke="midnightblue" d="M612.69,-330.71C593.3,-320.46 569.68,-307.98 551.88,-298.58"/>
<polygon fill="midnightblue" stroke="midnightblue" points="611.08,-333.82 621.55,-335.4 614.35,-327.63 611.08,-333.82"/>
</g>
<!-- Node17&#45;&gt;Node3 -->
<g id="edge22" class="edge">
<title>Node17&#45;&gt;Node3</title>
<path fill="none" stroke="midnightblue" d="M651.77,-325.27C657.89,-283.29 670.27,-198.33 675.18,-164.68"/>
<polygon fill="midnightblue" stroke="midnightblue" points="648.31,-324.79 650.33,-335.19 655.23,-325.8 648.31,-324.79"/>
</g>
<!-- Node18 -->
<g id="node18" class="node">
<title>Node18</title>
<g id="a_node18"><a xlink:href="exceptions_8cpp.html" target="_top" xlink:title="This file implements all exceptions that can be thrown by the CPU during execution.">
<polygon fill="none" stroke="black" points="676.74,-268.5 676.74,-298.5 789.74,-298.5 789.74,-268.5 676.74,-268.5"/>
<text text-anchor="start" x="684.74" y="-286.5" font-family="Helvetica,sans-Serif" font-size="10.00">src/core/arm1176jzf</text>
<text text-anchor="middle" x="733.24" y="-275.5" font-family="Helvetica,sans-Serif" font-size="10.00">_s/exceptions.cpp</text>
</a>
</g>
</g>
<!-- Node17&#45;&gt;Node18 -->
<g id="edge23" class="edge">
<title>Node17&#45;&gt;Node18</title>
<path fill="none" stroke="midnightblue" d="M674.83,-329.17C687.83,-319.23 703.15,-307.51 714.84,-298.58"/>
<polygon fill="midnightblue" stroke="midnightblue" points="672.5,-326.54 666.69,-335.4 676.76,-332.1 672.5,-326.54"/>
</g>
<!-- Node19 -->
<g id="node19" class="node">
<title>Node19</title>
<g id="a_node19"><a xlink:href="bus_8hpp.html" target="_top" xlink:title="This file defines an interface the CPU uses to access different memory&#45;mapped peripherals.">
<polygon fill="none" stroke="black" points="524.24,-207 524.24,-226 620.24,-226 620.24,-207 524.24,-207"/>
<text text-anchor="middle" x="572.24" y="-214" font-family="Helvetica,sans-Serif" font-size="10.00">src/core/bus.hpp</text>
</a>
</g>
</g>
<!-- Node17&#45;&gt;Node19 -->
<g id="edge24" class="edge">
<title>Node17&#45;&gt;Node19</title>
<path fill="none" stroke="midnightblue" d="M634.99,-326.49C617.83,-296.68 588.75,-246.17 577.19,-226.1"/>
<polygon fill="midnightblue" stroke="midnightblue" points="632.09,-328.45 640.11,-335.37 638.15,-324.96 632.09,-328.45"/>
</g>
<!-- Node19&#45;&gt;Node3 -->
<g id="edge25" class="edge">
<title>Node19&#45;&gt;Node3</title>
<path fill="none" stroke="midnightblue" d="M594.93,-201.45C612.55,-190.55 636.85,-175.5 654.48,-164.59"/>
<polygon fill="midnightblue" stroke="midnightblue" points="593.06,-198.49 586.4,-206.73 596.75,-204.45 593.06,-198.49"/>
</g>
<!-- Node19&#45;&gt;Node5 -->
<g id="edge27" class="edge">
<title>Node19&#45;&gt;Node5</title>
<path fill="none" stroke="midnightblue" d="M630.64,-211.92C776.73,-202.78 1148.03,-178.36 1171.24,-165 1200.57,-148.12 1218.4,-109.31 1225.15,-92.05"/>
<polygon fill="midnightblue" stroke="midnightblue" points="630.28,-208.43 620.52,-212.55 630.72,-215.42 630.28,-208.43"/>
</g>
<!-- Node19&#45;&gt;Node11 -->
<g id="edge28" class="edge">
<title>Node19&#45;&gt;Node11</title>
<path fill="none" stroke="midnightblue" d="M550.38,-201.25C535.48,-191.37 515.41,-177.75 498.24,-165 467.86,-142.43 433.86,-114.38 414.07,-97.77"/>
<polygon fill="midnightblue" stroke="midnightblue" points="548.64,-204.29 558.92,-206.87 552.5,-198.45 548.64,-204.29"/>
</g>
<!-- Node20 -->
<g id="node20" class="node">
<title>Node20</title>
<g id="a_node20"><a xlink:href="bus_8cpp.html" target="_top" xlink:title="This file implements the interface defined in bus.hpp.">
<polygon fill="none" stroke="black" points="507.74,-140 507.74,-159 602.74,-159 602.74,-140 507.74,-140"/>
<text text-anchor="middle" x="555.24" y="-147" font-family="Helvetica,sans-Serif" font-size="10.00">src/core/bus.cpp</text>
</a>
</g>
</g>
<!-- Node19&#45;&gt;Node20 -->
<g id="edge26" class="edge">
<title>Node19&#45;&gt;Node20</title>
<path fill="none" stroke="midnightblue" d="M567.38,-196.91C564.13,-184.49 560.01,-168.72 557.5,-159.13"/>
<polygon fill="midnightblue" stroke="midnightblue" points="564.03,-197.94 569.95,-206.73 570.81,-196.17 564.03,-197.94"/>
</g>
<!-- Node21 -->
<g id="node21" class="node">
<title>Node21</title>
<g id="a_node21"><a xlink:href="elf__loader_8hpp.html" target="_top" xlink:title="This file defines the functionality of an ELF loader.">
<polygon fill="none" stroke="black" points="120.74,-140 120.74,-159 247.74,-159 247.74,-140 120.74,-140"/>
<text text-anchor="middle" x="184.24" y="-147" font-family="Helvetica,sans-Serif" font-size="10.00">src/utils/elf_loader.hpp</text>
</a>
</g>
</g>
<!-- Node19&#45;&gt;Node21 -->
<g id="edge29" class="edge">
<title>Node19&#45;&gt;Node21</title>
<path fill="none" stroke="midnightblue" d="M513.56,-205.67C437.71,-192.96 306.86,-171.04 235.06,-159.01"/>
<polygon fill="midnightblue" stroke="midnightblue" points="513.45,-209.2 523.89,-207.4 514.6,-202.29 513.45,-209.2"/>
</g>
<!-- Node21&#45;&gt;Node10 -->
<g id="edge30" class="edge">
<title>Node21&#45;&gt;Node10</title>
<path fill="none" stroke="midnightblue" d="M127.67,-137.66C74.5,-125.09 7.49,-101.57 39.24,-67 71.15,-32.26 415.52,-37.49 462.24,-31 465.26,-30.58 468.35,-30.12 471.46,-29.63"/>
<polygon fill="midnightblue" stroke="midnightblue" points="127.22,-141.15 137.74,-139.96 128.77,-134.32 127.22,-141.15"/>
</g>
<!-- Node21&#45;&gt;Node11 -->
<g id="edge31" class="edge">
<title>Node21&#45;&gt;Node11</title>
<path fill="none" stroke="midnightblue" d="M222.2,-136.92C258.32,-125.9 312.72,-109.29 351.27,-97.53"/>
<polygon fill="midnightblue" stroke="midnightblue" points="221.07,-133.6 212.53,-139.87 223.11,-140.3 221.07,-133.6"/>
</g>
<!-- Node21&#45;&gt;Node15 -->
<g id="edge33" class="edge">
<title>Node21&#45;&gt;Node15</title>
<path fill="none" stroke="midnightblue" d="M201.73,-132.93C213.8,-122.18 229.73,-108 241.42,-97.59"/>
<polygon fill="midnightblue" stroke="midnightblue" points="199.23,-130.47 194.09,-139.73 203.88,-135.7 199.23,-130.47"/>
</g>
<!-- Node21&#45;&gt;Node16 -->
<g id="edge32" class="edge">
<title>Node21&#45;&gt;Node16</title>
<path fill="none" stroke="midnightblue" d="M117.76,-138.16C73.09,-129.7 19.97,-116.17 6.24,-98 -16.42,-68.01 29.79,-44.54 70,-30.63"/>
<polygon fill="midnightblue" stroke="midnightblue" points="117.26,-141.63 127.73,-139.99 118.52,-134.74 117.26,-141.63"/>
</g>
<!-- Node22 -->
<g id="node22" class="node">
<title>Node22</title>
<g id="a_node22"><a xlink:href="elf__loader_8cpp.html" target="_top" xlink:title="This file implements the functionality of an ELF loader defined in elf_loader.hpp.">
<polygon fill="none" stroke="black" points="48.24,-73 48.24,-92 174.24,-92 174.24,-73 48.24,-73"/>
<text text-anchor="middle" x="111.24" y="-80" font-family="Helvetica,sans-Serif" font-size="10.00">src/utils/elf_loader.cpp</text>
</a>
</g>
</g>
<!-- Node21&#45;&gt;Node22 -->
<g id="edge34" class="edge">
<title>Node21&#45;&gt;Node22</title>
<path fill="none" stroke="midnightblue" d="M166.67,-132.86C152.32,-120.08 132.57,-102.49 120.93,-92.13"/>
<polygon fill="midnightblue" stroke="midnightblue" points="164.6,-135.7 174.4,-139.73 169.26,-130.47 164.6,-135.7"/>
</g>
<!-- Node24 -->
<g id="node24" class="node">
<title>Node24</title>
<g id="a_node24"><a xlink:href="coprocessor_8cpp.html" target="_top" xlink:title="This file implements the common functionality of a general interface of a coprocessor.">
<polygon fill="none" stroke="black" points="986.24,-268.5 986.24,-298.5 1108.24,-298.5 1108.24,-268.5 986.24,-268.5"/>
<text text-anchor="start" x="994.24" y="-286.5" font-family="Helvetica,sans-Serif" font-size="10.00">src/core/coprocessors</text>
<text text-anchor="middle" x="1047.24" y="-275.5" font-family="Helvetica,sans-Serif" font-size="10.00">/coprocessor.cpp</text>
</a>
</g>
</g>
<!-- Node23&#45;&gt;Node24 -->
<g id="edge36" class="edge">
<title>Node23&#45;&gt;Node24</title>
<path fill="none" stroke="midnightblue" d="M946.81,-331.13C969.05,-320.8 996.39,-308.11 1016.92,-298.58"/>
<polygon fill="midnightblue" stroke="midnightblue" points="945.22,-328.01 937.62,-335.4 948.17,-334.36 945.22,-328.01"/>
</g>
<!-- Node25 -->
<g id="node25" class="node">
<title>Node25</title>
<g id="a_node25"><a xlink:href="cp15_8hpp.html" target="_top" xlink:title="This file defines CP15 (system control coprocessor).">
<polygon fill="none" stroke="black" points="846.24,-268.5 846.24,-298.5 968.24,-298.5 968.24,-268.5 846.24,-268.5"/>
<text text-anchor="start" x="854.24" y="-286.5" font-family="Helvetica,sans-Serif" font-size="10.00">src/core/coprocessors</text>
<text text-anchor="middle" x="907.24" y="-275.5" font-family="Helvetica,sans-Serif" font-size="10.00">/cp15.hpp</text>
</a>
</g>
</g>
<!-- Node23&#45;&gt;Node25 -->
<g id="edge37" class="edge">
<title>Node23&#45;&gt;Node25</title>
<path fill="none" stroke="midnightblue" d="M907.24,-325.11C907.24,-316.15 907.24,-306.32 907.24,-298.58"/>
<polygon fill="midnightblue" stroke="midnightblue" points="903.74,-325.4 907.24,-335.4 910.74,-325.4 903.74,-325.4"/>
</g>
<!-- Node25&#45;&gt;Node5 -->
<g id="edge40" class="edge">
<title>Node25&#45;&gt;Node5</title>
<path fill="none" stroke="midnightblue" d="M978.17,-267.06C1034.04,-254.63 1104.57,-238.24 1117.24,-232 1159.77,-211.06 1173.03,-203.82 1200.24,-165 1216.64,-141.6 1224.16,-107.75 1226.92,-92.07"/>
<polygon fill="midnightblue" stroke="midnightblue" points="977.28,-263.68 968.28,-269.26 978.8,-270.51 977.28,-263.68"/>
</g>
<!-- Node25&#45;&gt;Node19 -->
<g id="edge38" class="edge">
<title>Node25&#45;&gt;Node19</title>
<path fill="none" stroke="midnightblue" d="M836.19,-268.71C769.66,-255.8 672.31,-236.92 616.32,-226.05"/>
<polygon fill="midnightblue" stroke="midnightblue" points="835.7,-272.18 846.19,-270.65 837.04,-265.31 835.7,-272.18"/>
</g>
<!-- Node26 -->
<g id="node26" class="node">
<title>Node26</title>
<g id="a_node26"><a xlink:href="cp15_8cpp.html" target="_top" xlink:title="This file implements CP15 (system control coprocessor) as defined in cp15.hpp.">
<polygon fill="none" stroke="black" points="986.24,-201.5 986.24,-231.5 1108.24,-231.5 1108.24,-201.5 986.24,-201.5"/>
<text text-anchor="start" x="994.24" y="-219.5" font-family="Helvetica,sans-Serif" font-size="10.00">src/core/coprocessors</text>
<text text-anchor="middle" x="1047.24" y="-208.5" font-family="Helvetica,sans-Serif" font-size="10.00">/cp15.cpp</text>
</a>
</g>
</g>
<!-- Node25&#45;&gt;Node26 -->
<g id="edge39" class="edge">
<title>Node25&#45;&gt;Node26</title>
<path fill="none" stroke="midnightblue" d="M946.81,-264.13C969.05,-253.8 996.39,-241.11 1016.92,-231.58"/>
<polygon fill="midnightblue" stroke="midnightblue" points="945.22,-261.01 937.62,-268.4 948.17,-267.36 945.22,-261.01"/>
</g>
<!-- Node27 -->
<g id="node27" class="node">
<title>Node27</title>
<g id="a_node27"><a xlink:href="cp15__window_8hpp.html" target="_top" xlink:title=" ">
<polygon fill="none" stroke="black" points="846.74,-201.5 846.74,-231.5 967.74,-231.5 967.74,-201.5 846.74,-201.5"/>
<text text-anchor="start" x="854.74" y="-219.5" font-family="Helvetica,sans-Serif" font-size="10.00">src/gui/windows/cp15</text>
<text text-anchor="middle" x="907.24" y="-208.5" font-family="Helvetica,sans-Serif" font-size="10.00">_window.hpp</text>
</a>
</g>
</g>
<!-- Node25&#45;&gt;Node27 -->
<g id="edge41" class="edge">
<title>Node25&#45;&gt;Node27</title>
<path fill="none" stroke="midnightblue" d="M907.24,-258.11C907.24,-249.15 907.24,-239.32 907.24,-231.58"/>
<polygon fill="midnightblue" stroke="midnightblue" points="903.74,-258.4 907.24,-268.4 910.74,-258.4 903.74,-258.4"/>
</g>
<!-- Node27&#45;&gt;Node7 -->
<g id="edge42" class="edge">
<title>Node27&#45;&gt;Node7</title>
<path fill="none" stroke="midnightblue" d="M867.84,-196.01C856.14,-188.11 844.73,-177.78 838.24,-165 832.01,-152.71 831.33,-145.92 838.24,-134 854.43,-106.11 879.65,-121.95 901.24,-98 921.13,-75.94 931.44,-41.13 935.35,-25.1"/>
<polygon fill="midnightblue" stroke="midnightblue" points="866,-198.99 876.34,-201.34 869.72,-193.06 866,-198.99"/>
</g>
<!-- Node28 -->
<g id="node28" class="node">
<title>Node28</title>
<g id="a_node28"><a xlink:href="cp15__window_8cpp.html" target="_top" xlink:title=" ">
<polygon fill="none" stroke="black" points="846.74,-134.5 846.74,-164.5 967.74,-164.5 967.74,-134.5 846.74,-134.5"/>
<text text-anchor="start" x="854.74" y="-152.5" font-family="Helvetica,sans-Serif" font-size="10.00">src/gui/windows/cp15</text>
<text text-anchor="middle" x="907.24" y="-141.5" font-family="Helvetica,sans-Serif" font-size="10.00">_window.cpp</text>
</a>
</g>
</g>
<!-- Node27&#45;&gt;Node28 -->
<g id="edge43" class="edge">
<title>Node27&#45;&gt;Node28</title>
<path fill="none" stroke="midnightblue" d="M907.24,-191.11C907.24,-182.15 907.24,-172.32 907.24,-164.58"/>
<polygon fill="midnightblue" stroke="midnightblue" points="903.74,-191.4 907.24,-201.4 910.74,-191.4 903.74,-191.4"/>
</g>
<!-- Node29&#45;&gt;Node3 -->
<g id="edge45" class="edge">
<title>Node29&#45;&gt;Node3</title>
<path fill="none" stroke="midnightblue" d="M1246.25,-207.75C1114.87,-194.53 850.33,-167.92 734.16,-156.23"/>
<polygon fill="midnightblue" stroke="midnightblue" points="1245.94,-211.24 1256.24,-208.76 1246.64,-204.27 1245.94,-211.24"/>
</g>
<!-- Node29&#45;&gt;Node5 -->
<g id="edge59" class="edge">
<title>Node29&#45;&gt;Node5</title>
<path fill="none" stroke="midnightblue" d="M1306.78,-193.17C1300.35,-184.41 1292.92,-174.25 1286.24,-165 1267.13,-138.53 1244.81,-106.98 1234.3,-92.09"/>
<polygon fill="midnightblue" stroke="midnightblue" points="1304.08,-195.41 1312.82,-201.39 1309.72,-191.26 1304.08,-195.41"/>
</g>
<!-- Node30 -->
<g id="node30" class="node">
<title>Node30</title>
<g id="a_node30"><a xlink:href="arm__timer_8hpp.html" target="_top" xlink:title="This file defines the ARM timer used in BCM2835.">
<polygon fill="none" stroke="black" points="1585.74,-134.5 1585.74,-164.5 1698.74,-164.5 1698.74,-134.5 1585.74,-134.5"/>
<text text-anchor="start" x="1593.74" y="-152.5" font-family="Helvetica,sans-Serif" font-size="10.00">src/core/peripherals</text>
<text text-anchor="middle" x="1642.24" y="-141.5" font-family="Helvetica,sans-Serif" font-size="10.00">/arm_timer.hpp</text>
</a>
</g>
</g>
<!-- Node29&#45;&gt;Node30 -->
<g id="edge46" class="edge">
<title>Node29&#45;&gt;Node30</title>
<path fill="none" stroke="midnightblue" d="M1400.58,-199.74C1457.73,-188.1 1534.24,-172.51 1585.73,-162.02"/>
<polygon fill="midnightblue" stroke="midnightblue" points="1399.6,-196.37 1390.51,-201.79 1401,-203.23 1399.6,-196.37"/>
</g>
<!-- Node34 -->
<g id="node34" class="node">
<title>Node34</title>
<g id="a_node34"><a xlink:href="gpio_8hpp.html" target="_top" xlink:title="This file defines the GPIO controller used in BCM2835.">
<polygon fill="none" stroke="black" points="1294.74,-134.5 1294.74,-164.5 1407.74,-164.5 1407.74,-134.5 1294.74,-134.5"/>
<text text-anchor="start" x="1302.74" y="-152.5" font-family="Helvetica,sans-Serif" font-size="10.00">src/core/peripherals</text>
<text text-anchor="middle" x="1351.24" y="-141.5" font-family="Helvetica,sans-Serif" font-size="10.00">/gpio.hpp</text>
</a>
</g>
</g>
<!-- Node29&#45;&gt;Node34 -->
<g id="edge52" class="edge">
<title>Node29&#45;&gt;Node34</title>
<path fill="none" stroke="midnightblue" d="M1333.37,-191.99C1337.33,-182.8 1341.73,-172.58 1345.18,-164.58"/>
<polygon fill="midnightblue" stroke="midnightblue" points="1330.06,-190.83 1329.32,-201.4 1336.49,-193.6 1330.06,-190.83"/>
</g>
<!-- Node38 -->
<g id="node38" class="node">
<title>Node38</title>
<g id="a_node38"><a xlink:href="interrupt__controller_8cpp.html" target="_top" xlink:title="This file implements the interrupt controller used in BCM2835 (defined in interrupt_controller....">
<polygon fill="none" stroke="black" points="1425.74,-134.5 1425.74,-164.5 1558.74,-164.5 1558.74,-134.5 1425.74,-134.5"/>
<text text-anchor="start" x="1433.74" y="-152.5" font-family="Helvetica,sans-Serif" font-size="10.00">src/core/peripherals</text>
<text text-anchor="middle" x="1492.24" y="-141.5" font-family="Helvetica,sans-Serif" font-size="10.00">/interrupt_controller.cpp</text>
</a>
</g>
</g>
<!-- Node29&#45;&gt;Node38 -->
<g id="edge58" class="edge">
<title>Node29&#45;&gt;Node38</title>
<path fill="none" stroke="midnightblue" d="M1369.57,-197.68C1396.68,-187.26 1430.41,-174.28 1455.64,-164.58"/>
<polygon fill="midnightblue" stroke="midnightblue" points="1367.99,-194.54 1359.91,-201.4 1370.5,-201.07 1367.99,-194.54"/>
</g>
<!-- Node39 -->
<g id="node39" class="node">
<title>Node39</title>
<g id="a_node39"><a xlink:href="interrupt__controller__window_8hpp.html" target="_top" xlink:title=" ">
<polygon fill="none" stroke="black" points="986.24,-134.5 986.24,-164.5 1162.24,-164.5 1162.24,-134.5 986.24,-134.5"/>
<text text-anchor="start" x="994.24" y="-152.5" font-family="Helvetica,sans-Serif" font-size="10.00">src/gui/windows/peripherals</text>
<text text-anchor="middle" x="1074.24" y="-141.5" font-family="Helvetica,sans-Serif" font-size="10.00">/interrupt_controller_window.hpp</text>
</a>
</g>
</g>
<!-- Node29&#45;&gt;Node39 -->
<g id="edge60" class="edge">
<title>Node29&#45;&gt;Node39</title>
<path fill="none" stroke="midnightblue" d="M1259.72,-198.92C1219.08,-188.31 1166.94,-174.7 1128.3,-164.61"/>
<polygon fill="midnightblue" stroke="midnightblue" points="1258.96,-202.34 1269.52,-201.48 1260.73,-195.56 1258.96,-202.34"/>
</g>
<!-- Node30&#45;&gt;Node5 -->
<g id="edge48" class="edge">
<title>Node30&#45;&gt;Node5</title>
<path fill="none" stroke="midnightblue" d="M1575.38,-135.19C1572.97,-134.78 1570.59,-134.38 1568.24,-134 1443.07,-113.8 1409.8,-121.67 1285.24,-98 1276.62,-96.36 1267.35,-94.19 1258.85,-92.02"/>
<polygon fill="midnightblue" stroke="midnightblue" points="1574.89,-138.66 1585.35,-136.95 1576.11,-131.76 1574.89,-138.66"/>
</g>
<!-- Node31 -->
<g id="node31" class="node">
<title>Node31</title>
<g id="a_node31"><a xlink:href="arm__timer_8cpp.html" target="_top" xlink:title="This file implements the ARM timer used in BCM2835 as defined in arm_timer.hpp.">
<polygon fill="none" stroke="black" points="1595.74,-67.5 1595.74,-97.5 1708.74,-97.5 1708.74,-67.5 1595.74,-67.5"/>
<text text-anchor="start" x="1603.74" y="-85.5" font-family="Helvetica,sans-Serif" font-size="10.00">src/core/peripherals</text>
<text text-anchor="middle" x="1652.24" y="-74.5" font-family="Helvetica,sans-Serif" font-size="10.00">/arm_timer.cpp</text>
</a>
</g>
</g>
<!-- Node30&#45;&gt;Node31 -->
<g id="edge47" class="edge">
<title>Node30&#45;&gt;Node31</title>
<path fill="none" stroke="midnightblue" d="M1645.95,-124.4C1647.34,-115.37 1648.87,-105.41 1650.08,-97.58"/>
<polygon fill="midnightblue" stroke="midnightblue" points="1642.47,-123.98 1644.41,-134.4 1649.39,-125.04 1642.47,-123.98"/>
</g>
<!-- Node32 -->
<g id="node32" class="node">
<title>Node32</title>
<g id="a_node32"><a xlink:href="arm__timer__window_8hpp.html" target="_top" xlink:title=" ">
<polygon fill="none" stroke="black" points="1727.24,-67.5 1727.24,-97.5 1879.24,-97.5 1879.24,-67.5 1727.24,-67.5"/>
<text text-anchor="start" x="1735.24" y="-85.5" font-family="Helvetica,sans-Serif" font-size="10.00">src/gui/windows/peripherals</text>
<text text-anchor="middle" x="1803.24" y="-74.5" font-family="Helvetica,sans-Serif" font-size="10.00">/arm_timer_window.hpp</text>
</a>
</g>
</g>
<!-- Node30&#45;&gt;Node32 -->
<g id="edge49" class="edge">
<title>Node30&#45;&gt;Node32</title>
<path fill="none" stroke="midnightblue" d="M1686.72,-130.54C1712.48,-120.14 1744.45,-107.24 1768.38,-97.58"/>
<polygon fill="midnightblue" stroke="midnightblue" points="1685.14,-127.41 1677.18,-134.4 1687.76,-133.9 1685.14,-127.41"/>
</g>
<!-- Node32&#45;&gt;Node7 -->
<g id="edge50" class="edge">
<title>Node32&#45;&gt;Node7</title>
<path fill="none" stroke="midnightblue" d="M1716.67,-66.9C1455.54,-37.17 1387.01,-48.72 1128.24,-31 1077.65,-27.54 1019.55,-23.05 980.85,-20"/>
<polygon fill="midnightblue" stroke="midnightblue" points="1716.51,-70.4 1726.84,-68.07 1717.31,-63.45 1716.51,-70.4"/>
</g>
<!-- Node33 -->
<g id="node33" class="node">
<title>Node33</title>
<g id="a_node33"><a xlink:href="arm__timer__window_8cpp.html" target="_top" xlink:title=" ">
<polygon fill="none" stroke="black" points="1727.24,-0.5 1727.24,-30.5 1879.24,-30.5 1879.24,-0.5 1727.24,-0.5"/>
<text text-anchor="start" x="1735.24" y="-18.5" font-family="Helvetica,sans-Serif" font-size="10.00">src/gui/windows/peripherals</text>
<text text-anchor="middle" x="1803.24" y="-7.5" font-family="Helvetica,sans-Serif" font-size="10.00">/arm_timer_window.cpp</text>
</a>
</g>
</g>
<!-- Node32&#45;&gt;Node33 -->
<g id="edge51" class="edge">
<title>Node32&#45;&gt;Node33</title>
<path fill="none" stroke="midnightblue" d="M1803.24,-57.11C1803.24,-48.15 1803.24,-38.32 1803.24,-30.58"/>
<polygon fill="midnightblue" stroke="midnightblue" points="1799.74,-57.4 1803.24,-67.4 1806.74,-57.4 1799.74,-57.4"/>
</g>
<!-- Node34&#45;&gt;Node5 -->
<g id="edge54" class="edge">
<title>Node34&#45;&gt;Node5</title>
<path fill="none" stroke="midnightblue" d="M1315.55,-129.64C1292.02,-117.2 1262.33,-101.51 1244.34,-92.01"/>
<polygon fill="midnightblue" stroke="midnightblue" points="1314.08,-132.82 1324.55,-134.4 1317.35,-126.63 1314.08,-132.82"/>
</g>
<!-- Node35 -->
<g id="node35" class="node">
<title>Node35</title>
<g id="a_node35"><a xlink:href="gpio_8cpp.html" target="_top" xlink:title="This file implements the GPIO controller used in BCM2835 (defined in gpio.hpp).">
<polygon fill="none" stroke="black" points="1293.74,-67.5 1293.74,-97.5 1406.74,-97.5 1406.74,-67.5 1293.74,-67.5"/>
<text text-anchor="start" x="1301.74" y="-85.5" font-family="Helvetica,sans-Serif" font-size="10.00">src/core/peripherals</text>
<text text-anchor="middle" x="1350.24" y="-74.5" font-family="Helvetica,sans-Serif" font-size="10.00">/gpio.cpp</text>
</a>
</g>
</g>
<!-- Node34&#45;&gt;Node35 -->
<g id="edge53" class="edge">
<title>Node34&#45;&gt;Node35</title>
<path fill="none" stroke="midnightblue" d="M1350.87,-124.11C1350.73,-115.15 1350.58,-105.32 1350.46,-97.58"/>
<polygon fill="midnightblue" stroke="midnightblue" points="1347.37,-124.45 1351.03,-134.4 1354.37,-124.34 1347.37,-124.45"/>
</g>
<!-- Node36 -->
<g id="node36" class="node">
<title>Node36</title>
<g id="a_node36"><a xlink:href="gpio__window_8hpp.html" target="_top" xlink:title=" ">
<polygon fill="none" stroke="black" points="1425.24,-67.5 1425.24,-97.5 1577.24,-97.5 1577.24,-67.5 1425.24,-67.5"/>
<text text-anchor="start" x="1433.24" y="-85.5" font-family="Helvetica,sans-Serif" font-size="10.00">src/gui/windows/peripherals</text>
<text text-anchor="middle" x="1501.24" y="-74.5" font-family="Helvetica,sans-Serif" font-size="10.00">/gpio_window.hpp</text>
</a>
</g>
</g>
<!-- Node34&#45;&gt;Node36 -->
<g id="edge55" class="edge">
<title>Node34&#45;&gt;Node36</title>
<path fill="none" stroke="midnightblue" d="M1393,-130.41C1416.94,-120.03 1446.56,-107.2 1468.76,-97.58"/>
<polygon fill="midnightblue" stroke="midnightblue" points="1391.57,-127.21 1383.79,-134.4 1394.36,-133.63 1391.57,-127.21"/>
</g>
<!-- Node36&#45;&gt;Node7 -->
<g id="edge56" class="edge">
<title>Node36&#45;&gt;Node7</title>
<path fill="none" stroke="midnightblue" d="M1414.43,-66.8C1248.58,-44.24 1063.57,-27.3 980.95,-20.17"/>
<polygon fill="midnightblue" stroke="midnightblue" points="1414.44,-70.34 1424.82,-68.23 1415.39,-63.4 1414.44,-70.34"/>
</g>
<!-- Node37 -->
<g id="node37" class="node">
<title>Node37</title>
<g id="a_node37"><a xlink:href="gpio__window_8cpp.html" target="_top" xlink:title=" ">
<polygon fill="none" stroke="black" points="1425.24,-0.5 1425.24,-30.5 1577.24,-30.5 1577.24,-0.5 1425.24,-0.5"/>
<text text-anchor="start" x="1433.24" y="-18.5" font-family="Helvetica,sans-Serif" font-size="10.00">src/gui/windows/peripherals</text>
<text text-anchor="middle" x="1501.24" y="-7.5" font-family="Helvetica,sans-Serif" font-size="10.00">/gpio_window.cpp</text>
</a>
</g>
</g>
<!-- Node36&#45;&gt;Node37 -->
<g id="edge57" class="edge">
<title>Node36&#45;&gt;Node37</title>
<path fill="none" stroke="midnightblue" d="M1501.24,-57.11C1501.24,-48.15 1501.24,-38.32 1501.24,-30.58"/>
<polygon fill="midnightblue" stroke="midnightblue" points="1497.74,-57.4 1501.24,-67.4 1504.74,-57.4 1497.74,-57.4"/>
</g>
<!-- Node39&#45;&gt;Node7 -->
<g id="edge61" class="edge">
<title>Node39&#45;&gt;Node7</title>
<path fill="none" stroke="midnightblue" d="M1025.06,-130.33C1008.35,-122.35 990.56,-111.64 977.24,-98 956.1,-76.35 944.17,-41.33 939.53,-25.17"/>
<polygon fill="midnightblue" stroke="midnightblue" points="1023.65,-133.53 1034.2,-134.48 1026.54,-127.15 1023.65,-133.53"/>
</g>
<!-- Node40 -->
<g id="node40" class="node">
<title>Node40</title>
<g id="a_node40"><a xlink:href="interrupt__controller__window_8cpp.html" target="_top" xlink:title=" ">
<polygon fill="none" stroke="black" points="986.24,-67.5 986.24,-97.5 1162.24,-97.5 1162.24,-67.5 986.24,-67.5"/>
<text text-anchor="start" x="994.24" y="-85.5" font-family="Helvetica,sans-Serif" font-size="10.00">src/gui/windows/peripherals</text>
<text text-anchor="middle" x="1074.24" y="-74.5" font-family="Helvetica,sans-Serif" font-size="10.00">/interrupt_controller_window.cpp</text>
</a>
</g>
</g>
<!-- Node39&#45;&gt;Node40 -->
<g id="edge62" class="edge">
<title>Node39&#45;&gt;Node40</title>
<path fill="none" stroke="midnightblue" d="M1074.24,-124.11C1074.24,-115.15 1074.24,-105.32 1074.24,-97.58"/>
<polygon fill="midnightblue" stroke="midnightblue" points="1070.74,-124.4 1074.24,-134.4 1077.74,-124.4 1070.74,-124.4"/>
</g>
</g>
</svg>
