<?xml version="1.0" encoding="UTF-8" standalone="no"?>
<!DOCTYPE svg PUBLIC "-//W3C//DTD SVG 1.1//EN"
 "http://www.w3.org/Graphics/SVG/1.1/DTD/svg11.dtd">
<!-- Generated by graphviz version 2.43.0 (0)
 -->
<!-- Title: src/core/arm1176jzf_s/context.hpp Pages: 1 -->
<svg width="1878pt" height="508pt"
 viewBox="0.00 0.00 1878.00 508.00" xmlns="http://www.w3.org/2000/svg" xmlns:xlink="http://www.w3.org/1999/xlink">
<g id="graph0" class="graph" transform="scale(1 1) rotate(0) translate(4 504)">
<title>src/core/arm1176jzf_s/context.hpp</title>
<!-- Node1 -->
<g id="node1" class="node">
<title>Node1</title>
<g id="a_node1"><a xlink:title="This file defines the context (registers) of the CPU.">
<polygon fill="#bfbfbf" stroke="black" points="534.5,-469.5 534.5,-499.5 647.5,-499.5 647.5,-469.5 534.5,-469.5"/>
<text text-anchor="start" x="542.5" y="-487.5" font-family="Helvetica,sans-Serif" font-size="10.00">src/core/arm1176jzf</text>
<text text-anchor="middle" x="591" y="-476.5" font-family="Helvetica,sans-Serif" font-size="10.00">_s/context.hpp</text>
</a>
</g>
</g>
<!-- Node2 -->
<g id="node2" class="node">
<title>Node2</title>
<g id="a_node2"><a xlink:href="context_8cpp.html" target="_top" xlink:title="This file implements the context (registers) of the CPU.">
<polygon fill="none" stroke="black" points="222.5,-335.5 222.5,-365.5 335.5,-365.5 335.5,-335.5 222.5,-335.5"/>
<text text-anchor="start" x="230.5" y="-353.5" font-family="Helvetica,sans-Serif" font-size="10.00">src/core/arm1176jzf</text>
<text text-anchor="middle" x="279" y="-342.5" font-family="Helvetica,sans-Serif" font-size="10.00">_s/context.cpp</text>
</a>
</g>
</g>
<!-- Node1&#45;&gt;Node2 -->
<g id="edge1" class="edge">
<title>Node1&#45;&gt;Node2</title>
<path fill="none" stroke="midnightblue" d="M524.62,-474.79C482.51,-467.5 427.73,-454.69 383,-433 346.88,-415.49 311.54,-383.83 292.8,-365.55"/>
<polygon fill="midnightblue" stroke="midnightblue" points="524.06,-478.24 534.5,-476.44 525.21,-471.34 524.06,-478.24"/>
</g>
<!-- Node3 -->
<g id="node3" class="node">
<title>Node3</title>
<g id="a_node3"><a xlink:href="core_8hpp.html" target="_top" xlink:title="This file defines a class that represents a CPU core (arm1176jzf_s).">
<polygon fill="none" stroke="black" points="544.5,-134.5 544.5,-164.5 657.5,-164.5 657.5,-134.5 544.5,-134.5"/>
<text text-anchor="start" x="552.5" y="-152.5" font-family="Helvetica,sans-Serif" font-size="10.00">src/core/arm1176jzf</text>
<text text-anchor="middle" x="601" y="-141.5" font-family="Helvetica,sans-Serif" font-size="10.00">_s/core.hpp</text>
</a>
</g>
</g>
<!-- Node1&#45;&gt;Node3 -->
<g id="edge2" class="edge">
<title>Node1&#45;&gt;Node3</title>
<path fill="none" stroke="midnightblue" d="M577.87,-460.15C559.51,-426.02 527.06,-359.93 515,-299 512.33,-285.48 514.9,-281.78 515,-268 515.22,-238.22 501.08,-226.77 516,-201 525.63,-184.36 543.11,-172.62 559.72,-164.67"/>
<polygon fill="midnightblue" stroke="midnightblue" points="575,-462.19 582.86,-469.29 581.14,-458.83 575,-462.19"/>
</g>
<!-- Node17 -->
<g id="node17" class="node">
<title>Node17</title>
<g id="a_node17"><a xlink:href="exceptions_8hpp.html" target="_top" xlink:title="This file defines all exceptions that can be thrown by the CPU during execution.">
<polygon fill="none" stroke="black" points="392.5,-402.5 392.5,-432.5 505.5,-432.5 505.5,-402.5 392.5,-402.5"/>
<text text-anchor="start" x="400.5" y="-420.5" font-family="Helvetica,sans-Serif" font-size="10.00">src/core/arm1176jzf</text>
<text text-anchor="middle" x="449" y="-409.5" font-family="Helvetica,sans-Serif" font-size="10.00">_s/exceptions.hpp</text>
</a>
</g>
</g>
<!-- Node1&#45;&gt;Node17 -->
<g id="edge20" class="edge">
<title>Node1&#45;&gt;Node17</title>
<path fill="none" stroke="midnightblue" d="M550.87,-465.13C528.31,-454.8 500.58,-442.11 479.75,-432.58"/>
<polygon fill="midnightblue" stroke="midnightblue" points="549.64,-468.42 560.19,-469.4 552.55,-462.05 549.64,-468.42"/>
</g>
<!-- Node20 -->
<g id="node20" class="node">
<title>Node20</title>
<g id="a_node20"><a xlink:href="mmu_8hpp.html" target="_top" xlink:title="This file defines the MMU (memory management unit) of the CPU.">
<polygon fill="none" stroke="black" points="714.5,-201.5 714.5,-231.5 827.5,-231.5 827.5,-201.5 714.5,-201.5"/>
<text text-anchor="start" x="722.5" y="-219.5" font-family="Helvetica,sans-Serif" font-size="10.00">src/core/arm1176jzf</text>
<text text-anchor="middle" x="771" y="-208.5" font-family="Helvetica,sans-Serif" font-size="10.00">_s/mmu/mmu.hpp</text>
</a>
</g>
</g>
<!-- Node1&#45;&gt;Node20 -->
<g id="edge38" class="edge">
<title>Node1&#45;&gt;Node20</title>
<path fill="none" stroke="midnightblue" d="M600.79,-460.05C613.87,-429.9 638.7,-376.48 667,-335 694.64,-294.5 734.83,-252.86 756.25,-231.71"/>
<polygon fill="midnightblue" stroke="midnightblue" points="597.53,-458.76 596.82,-469.33 603.97,-461.52 597.53,-458.76"/>
</g>
<!-- Node25 -->
<g id="node25" class="node">
<title>Node25</title>
<g id="a_node25"><a xlink:href="coprocessor_8hpp.html" target="_top" xlink:title="This file defines a general interface of a coprocessor.">
<polygon fill="none" stroke="black" points="676,-402.5 676,-432.5 798,-432.5 798,-402.5 676,-402.5"/>
<text text-anchor="start" x="684" y="-420.5" font-family="Helvetica,sans-Serif" font-size="10.00">src/core/coprocessors</text>
<text text-anchor="middle" x="737" y="-409.5" font-family="Helvetica,sans-Serif" font-size="10.00">/coprocessor.hpp</text>
</a>
</g>
</g>
<!-- Node1&#45;&gt;Node25 -->
<g id="edge39" class="edge">
<title>Node1&#45;&gt;Node25</title>
<path fill="none" stroke="midnightblue" d="M631.95,-465.27C655.2,-454.92 683.87,-442.15 705.38,-432.58"/>
<polygon fill="midnightblue" stroke="midnightblue" points="630.39,-462.13 622.68,-469.4 633.24,-468.53 630.39,-462.13"/>
</g>
<!-- Node31 -->
<g id="node31" class="node">
<title>Node31</title>
<g id="a_node31"><a xlink:href="interrupt__controller_8hpp.html" target="_top" xlink:title="This file defines the interrupt controller used in BCM2835.">
<polygon fill="none" stroke="black" points="1108,-201.5 1108,-231.5 1242,-231.5 1242,-201.5 1108,-201.5"/>
<text text-anchor="start" x="1116" y="-219.5" font-family="Helvetica,sans-Serif" font-size="10.00">src/core/peripherals</text>
<text text-anchor="middle" x="1175" y="-208.5" font-family="Helvetica,sans-Serif" font-size="10.00">/interrupt_controller.hpp</text>
</a>
</g>
</g>
<!-- Node1&#45;&gt;Node31 -->
<g id="edge49" class="edge">
<title>Node1&#45;&gt;Node31</title>
<path fill="none" stroke="midnightblue" d="M657.74,-471.78C700.97,-463.25 758.13,-450.18 807,-433 934.89,-388.05 968.28,-374.3 1081,-299 1111.71,-278.48 1143.34,-249.01 1160.95,-231.7"/>
<polygon fill="midnightblue" stroke="midnightblue" points="657.05,-468.35 647.9,-473.69 658.38,-475.22 657.05,-468.35"/>
</g>
<!-- Node4 -->
<g id="node4" class="node">
<title>Node4</title>
<g id="a_node4"><a xlink:href="core_8cpp.html" target="_top" xlink:title="This file implements the CCPU_Core class defined in core.hpp.">
<polygon fill="none" stroke="black" points="461.5,-67.5 461.5,-97.5 574.5,-97.5 574.5,-67.5 461.5,-67.5"/>
<text text-anchor="start" x="469.5" y="-85.5" font-family="Helvetica,sans-Serif" font-size="10.00">src/core/arm1176jzf</text>
<text text-anchor="middle" x="518" y="-74.5" font-family="Helvetica,sans-Serif" font-size="10.00">_s/core.cpp</text>
</a>
</g>
</g>
<!-- Node3&#45;&gt;Node4 -->
<g id="edge3" class="edge">
<title>Node3&#45;&gt;Node4</title>
<path fill="none" stroke="midnightblue" d="M575.04,-128.17C562.35,-118.23 547.39,-106.51 535.97,-97.58"/>
<polygon fill="midnightblue" stroke="midnightblue" points="572.96,-130.99 582.99,-134.4 577.28,-125.47 572.96,-130.99"/>
</g>
<!-- Node5 -->
<g id="node5" class="node">
<title>Node5</title>
<g id="a_node5"><a xlink:href="soc_8hpp.html" target="_top" xlink:title=" ">
<polygon fill="none" stroke="black" points="939.5,-73 939.5,-92 1034.5,-92 1034.5,-73 939.5,-73"/>
<text text-anchor="middle" x="987" y="-80" font-family="Helvetica,sans-Serif" font-size="10.00">src/core/soc.hpp</text>
</a>
</g>
</g>
<!-- Node3&#45;&gt;Node5 -->
<g id="edge4" class="edge">
<title>Node3&#45;&gt;Node5</title>
<path fill="none" stroke="midnightblue" d="M667.55,-134.82C669.04,-134.54 670.53,-134.27 672,-134 722.4,-124.82 864.46,-102.53 939.38,-90.88"/>
<polygon fill="midnightblue" stroke="midnightblue" points="666.71,-131.42 657.54,-136.73 668.02,-138.29 666.71,-131.42"/>
</g>
<!-- Node9 -->
<g id="node9" class="node">
<title>Node9</title>
<g id="a_node9"><a xlink:href="control__window_8hpp.html" target="_top" xlink:title="This file defines a window that allows the user to control CPU execution.">
<polygon fill="none" stroke="black" points="751.5,-67.5 751.5,-97.5 882.5,-97.5 882.5,-67.5 751.5,-67.5"/>
<text text-anchor="start" x="759.5" y="-85.5" font-family="Helvetica,sans-Serif" font-size="10.00">src/gui/windows/control</text>
<text text-anchor="middle" x="817" y="-74.5" font-family="Helvetica,sans-Serif" font-size="10.00">_window.hpp</text>
</a>
</g>
</g>
<!-- Node3&#45;&gt;Node9 -->
<g id="edge8" class="edge">
<title>Node3&#45;&gt;Node9</title>
<path fill="none" stroke="midnightblue" d="M657.23,-131.58C692.31,-121.02 736.94,-107.59 770.11,-97.61"/>
<polygon fill="midnightblue" stroke="midnightblue" points="656.17,-128.24 647.6,-134.48 658.19,-134.95 656.17,-128.24"/>
</g>
<!-- Node11 -->
<g id="node11" class="node">
<title>Node11</title>
<g id="a_node11"><a xlink:href="registers__window_8hpp.html" target="_top" xlink:title="This file defines a window that displays the contents of all CPU registers.">
<polygon fill="none" stroke="black" points="593,-67.5 593,-97.5 733,-97.5 733,-67.5 593,-67.5"/>
<text text-anchor="start" x="601" y="-85.5" font-family="Helvetica,sans-Serif" font-size="10.00">src/gui/windows/registers</text>
<text text-anchor="middle" x="663" y="-74.5" font-family="Helvetica,sans-Serif" font-size="10.00">_window.hpp</text>
</a>
</g>
</g>
<!-- Node3&#45;&gt;Node11 -->
<g id="edge11" class="edge">
<title>Node3&#45;&gt;Node11</title>
<path fill="none" stroke="midnightblue" d="M621.48,-127.02C630.72,-117.34 641.37,-106.17 649.57,-97.58"/>
<polygon fill="midnightblue" stroke="midnightblue" points="618.82,-124.74 614.45,-134.4 623.89,-129.58 618.82,-124.74"/>
</g>
<!-- Node13 -->
<g id="node13" class="node">
<title>Node13</title>
<g id="a_node13"><a xlink:href="source__code__window_8hpp.html" target="_top" xlink:title="This file defines a window that displays loaded ELF files (disassembled instructions of the source co...">
<polygon fill="none" stroke="black" points="182,-67.5 182,-97.5 312,-97.5 312,-67.5 182,-67.5"/>
<text text-anchor="start" x="190" y="-85.5" font-family="Helvetica,sans-Serif" font-size="10.00">src/gui/windows/source</text>
<text text-anchor="middle" x="247" y="-74.5" font-family="Helvetica,sans-Serif" font-size="10.00">_code_window.hpp</text>
</a>
</g>
</g>
<!-- Node3&#45;&gt;Node13 -->
<g id="edge14" class="edge">
<title>Node3&#45;&gt;Node13</title>
<path fill="none" stroke="midnightblue" d="M534.45,-136.79C477.69,-126.73 393.93,-111.72 321,-98 318.17,-97.47 315.28,-96.92 312.36,-96.36"/>
<polygon fill="midnightblue" stroke="midnightblue" points="533.92,-140.25 544.38,-138.55 535.14,-133.36 533.92,-140.25"/>
</g>
<!-- Node15 -->
<g id="node15" class="node">
<title>Node15</title>
<g id="a_node15"><a xlink:href="top__bar__menu_8hpp.html" target="_top" xlink:title=" ">
<polygon fill="none" stroke="black" points="330.5,-67.5 330.5,-97.5 443.5,-97.5 443.5,-67.5 330.5,-67.5"/>
<text text-anchor="start" x="338.5" y="-85.5" font-family="Helvetica,sans-Serif" font-size="10.00">src/gui/windows/top</text>
<text text-anchor="middle" x="387" y="-74.5" font-family="Helvetica,sans-Serif" font-size="10.00">_bar_menu.hpp</text>
</a>
</g>
</g>
<!-- Node3&#45;&gt;Node15 -->
<g id="edge17" class="edge">
<title>Node3&#45;&gt;Node15</title>
<path fill="none" stroke="midnightblue" d="M544.85,-131.44C510.16,-120.91 466.18,-107.55 433.46,-97.61"/>
<polygon fill="midnightblue" stroke="midnightblue" points="544.24,-134.92 554.83,-134.48 546.28,-128.22 544.24,-134.92"/>
</g>
<!-- Node6 -->
<g id="node6" class="node">
<title>Node6</title>
<g id="a_node6"><a xlink:href="soc_8cpp.html" target="_top" xlink:title=" ">
<polygon fill="none" stroke="black" points="972.5,-6 972.5,-25 1067.5,-25 1067.5,-6 972.5,-6"/>
<text text-anchor="middle" x="1020" y="-13" font-family="Helvetica,sans-Serif" font-size="10.00">src/core/soc.cpp</text>
</a>
</g>
</g>
<!-- Node5&#45;&gt;Node6 -->
<g id="edge5" class="edge">
<title>Node5&#45;&gt;Node6</title>
<path fill="none" stroke="midnightblue" d="M996.06,-63.66C1002.42,-51.13 1010.65,-34.91 1015.62,-25.13"/>
<polygon fill="midnightblue" stroke="midnightblue" points="992.86,-62.23 991.45,-72.73 999.1,-65.4 992.86,-62.23"/>
</g>
<!-- Node7 -->
<g id="node7" class="node">
<title>Node7</title>
<g id="a_node7"><a xlink:href="gui_8cpp.html" target="_top" xlink:title="This file implements the main GUI entry function that takes care of creating and rendering all window...">
<polygon fill="none" stroke="black" points="867.5,-6 867.5,-25 954.5,-25 954.5,-6 867.5,-6"/>
<text text-anchor="middle" x="911" y="-13" font-family="Helvetica,sans-Serif" font-size="10.00">src/gui/gui.cpp</text>
</a>
</g>
</g>
<!-- Node5&#45;&gt;Node7 -->
<g id="edge6" class="edge">
<title>Node5&#45;&gt;Node7</title>
<path fill="none" stroke="midnightblue" d="M969.13,-66.21C954.15,-53.41 933.32,-35.59 921.09,-25.13"/>
<polygon fill="midnightblue" stroke="midnightblue" points="966.88,-68.89 976.75,-72.73 971.43,-63.57 966.88,-68.89"/>
</g>
<!-- Node8 -->
<g id="node8" class="node">
<title>Node8</title>
<g id="a_node8"><a xlink:href="main_8cpp.html" target="_top" xlink:title="This file defines and implements the main function of the application.">
<polygon fill="none" stroke="black" points="1085.5,-6 1085.5,-25 1164.5,-25 1164.5,-6 1085.5,-6"/>
<text text-anchor="middle" x="1125" y="-13" font-family="Helvetica,sans-Serif" font-size="10.00">src/main.cpp</text>
</a>
</g>
</g>
<!-- Node5&#45;&gt;Node8 -->
<g id="edge7" class="edge">
<title>Node5&#45;&gt;Node8</title>
<path fill="none" stroke="midnightblue" d="M1014.72,-68.44C1042.05,-55.57 1083.05,-36.26 1106.6,-25.17"/>
<polygon fill="midnightblue" stroke="midnightblue" points="1012.88,-65.44 1005.33,-72.87 1015.86,-71.77 1012.88,-65.44"/>
</g>
<!-- Node9&#45;&gt;Node7 -->
<g id="edge9" class="edge">
<title>Node9&#45;&gt;Node7</title>
<path fill="none" stroke="midnightblue" d="M845.72,-61.64C863.46,-49.37 885.31,-34.26 898.7,-25.01"/>
<polygon fill="midnightblue" stroke="midnightblue" points="843.63,-58.83 837.4,-67.4 847.61,-64.59 843.63,-58.83"/>
</g>
<!-- Node10 -->
<g id="node10" class="node">
<title>Node10</title>
<g id="a_node10"><a xlink:href="control__window_8cpp.html" target="_top" xlink:title="This file implements a window that allows the user to control CPU execution.">
<polygon fill="none" stroke="black" points="718.5,-0.5 718.5,-30.5 849.5,-30.5 849.5,-0.5 718.5,-0.5"/>
<text text-anchor="start" x="726.5" y="-18.5" font-family="Helvetica,sans-Serif" font-size="10.00">src/gui/windows/control</text>
<text text-anchor="middle" x="784" y="-7.5" font-family="Helvetica,sans-Serif" font-size="10.00">_window.cpp</text>
</a>
</g>
</g>
<!-- Node9&#45;&gt;Node10 -->
<g id="edge10" class="edge">
<title>Node9&#45;&gt;Node10</title>
<path fill="none" stroke="midnightblue" d="M805.21,-58.28C800.51,-49.02 795.25,-38.66 791.15,-30.58"/>
<polygon fill="midnightblue" stroke="midnightblue" points="802.19,-60.06 809.84,-67.4 808.43,-56.89 802.19,-60.06"/>
</g>
<!-- Node11&#45;&gt;Node7 -->
<g id="edge12" class="edge">
<title>Node11&#45;&gt;Node7</title>
<path fill="none" stroke="midnightblue" d="M728.78,-64.9C766.87,-55.2 815.69,-42.62 859,-31 866.06,-29.11 873.65,-27.02 880.78,-25.04"/>
<polygon fill="midnightblue" stroke="midnightblue" points="727.67,-61.57 718.84,-67.43 729.39,-68.35 727.67,-61.57"/>
</g>
<!-- Node12 -->
<g id="node12" class="node">
<title>Node12</title>
<g id="a_node12"><a xlink:href="registers__window_8cpp.html" target="_top" xlink:title="This file implements a window that displays the contents of all CPU registers.">
<polygon fill="none" stroke="black" points="560,-0.5 560,-30.5 700,-30.5 700,-0.5 560,-0.5"/>
<text text-anchor="start" x="568" y="-18.5" font-family="Helvetica,sans-Serif" font-size="10.00">src/gui/windows/registers</text>
<text text-anchor="middle" x="630" y="-7.5" font-family="Helvetica,sans-Serif" font-size="10.00">_window.cpp</text>
</a>
</g>
</g>
<!-- Node11&#45;&gt;Node12 -->
<g id="edge13" class="edge">
<title>Node11&#45;&gt;Node12</title>
<path fill="none" stroke="midnightblue" d="M651.21,-58.28C646.51,-49.02 641.25,-38.66 637.15,-30.58"/>
<polygon fill="midnightblue" stroke="midnightblue" points="648.19,-60.06 655.84,-67.4 654.43,-56.89 648.19,-60.06"/>
</g>
<!-- Node13&#45;&gt;Node7 -->
<g id="edge15" class="edge">
<title>Node13&#45;&gt;Node7</title>
<path fill="none" stroke="midnightblue" d="M322.3,-66.95C560.41,-36.85 626.01,-70.84 859,-31 867.41,-29.56 876.41,-27.31 884.52,-25.01"/>
<polygon fill="midnightblue" stroke="midnightblue" points="321.77,-63.49 312.3,-68.24 322.66,-70.43 321.77,-63.49"/>
</g>
<!-- Node14 -->
<g id="node14" class="node">
<title>Node14</title>
<g id="a_node14"><a xlink:href="source__code__window_8cpp.html" target="_top" xlink:title="This file implements a window that displays loaded ELF files (disassembled instructions of the source...">
<polygon fill="none" stroke="black" points="136,-0.5 136,-30.5 266,-30.5 266,-0.5 136,-0.5"/>
<text text-anchor="start" x="144" y="-18.5" font-family="Helvetica,sans-Serif" font-size="10.00">src/gui/windows/source</text>
<text text-anchor="middle" x="201" y="-7.5" font-family="Helvetica,sans-Serif" font-size="10.00">_code_window.cpp</text>
</a>
</g>
</g>
<!-- Node13&#45;&gt;Node14 -->
<g id="edge16" class="edge">
<title>Node13&#45;&gt;Node14</title>
<path fill="none" stroke="midnightblue" d="M231.19,-59.16C224.48,-49.68 216.87,-38.92 210.96,-30.58"/>
<polygon fill="midnightblue" stroke="midnightblue" points="228.38,-61.26 237.02,-67.4 234.1,-57.21 228.38,-61.26"/>
</g>
<!-- Node15&#45;&gt;Node7 -->
<g id="edge18" class="edge">
<title>Node15&#45;&gt;Node7</title>
<path fill="none" stroke="midnightblue" d="M453.68,-66.87C633.26,-40.03 683.57,-62.94 859,-31 867.21,-29.51 875.99,-27.3 883.96,-25.05"/>
<polygon fill="midnightblue" stroke="midnightblue" points="452.99,-63.44 443.64,-68.41 454.05,-70.36 452.99,-63.44"/>
</g>
<!-- Node16 -->
<g id="node16" class="node">
<title>Node16</title>
<g id="a_node16"><a xlink:href="top__bar__menu_8cpp.html" target="_top" xlink:title=" ">
<polygon fill="none" stroke="black" points="330.5,-0.5 330.5,-30.5 443.5,-30.5 443.5,-0.5 330.5,-0.5"/>
<text text-anchor="start" x="338.5" y="-18.5" font-family="Helvetica,sans-Serif" font-size="10.00">src/gui/windows/top</text>
<text text-anchor="middle" x="387" y="-7.5" font-family="Helvetica,sans-Serif" font-size="10.00">_bar_menu.cpp</text>
</a>
</g>
</g>
<!-- Node15&#45;&gt;Node16 -->
<g id="edge19" class="edge">
<title>Node15&#45;&gt;Node16</title>
<path fill="none" stroke="midnightblue" d="M387,-57.11C387,-48.15 387,-38.32 387,-30.58"/>
<polygon fill="midnightblue" stroke="midnightblue" points="383.5,-57.4 387,-67.4 390.5,-57.4 383.5,-57.4"/>
</g>
<!-- Node17&#45;&gt;Node2 -->
<g id="edge21" class="edge">
<title>Node17&#45;&gt;Node2</title>
<path fill="none" stroke="midnightblue" d="M402.76,-398.82C375.43,-388.37 341.31,-375.32 315.82,-365.58"/>
<polygon fill="midnightblue" stroke="midnightblue" points="401.52,-402.09 412.11,-402.4 404.02,-395.56 401.52,-402.09"/>
</g>
<!-- Node17&#45;&gt;Node3 -->
<g id="edge22" class="edge">
<title>Node17&#45;&gt;Node3</title>
<path fill="none" stroke="midnightblue" d="M411.5,-396.83C400.22,-388.88 389.21,-378.58 383,-366 376.9,-353.65 378.69,-348.09 383,-335 406.16,-264.67 423.87,-246.86 482,-201 502.7,-184.67 529.47,-172.69 552.38,-164.51"/>
<polygon fill="midnightblue" stroke="midnightblue" points="409.8,-399.91 420.09,-402.45 413.63,-394.05 409.8,-399.91"/>
</g>
<!-- Node18 -->
<g id="node18" class="node">
<title>Node18</title>
<g id="a_node18"><a xlink:href="exceptions_8cpp.html" target="_top" xlink:title="This file implements all exceptions that can be thrown by the CPU during execution.">
<polygon fill="none" stroke="black" points="392.5,-335.5 392.5,-365.5 505.5,-365.5 505.5,-335.5 392.5,-335.5"/>
<text text-anchor="start" x="400.5" y="-353.5" font-family="Helvetica,sans-Serif" font-size="10.00">src/core/arm1176jzf</text>
<text text-anchor="middle" x="449" y="-342.5" font-family="Helvetica,sans-Serif" font-size="10.00">_s/exceptions.cpp</text>
</a>
</g>
</g>
<!-- Node17&#45;&gt;Node18 -->
<g id="edge23" class="edge">
<title>Node17&#45;&gt;Node18</title>
<path fill="none" stroke="midnightblue" d="M449,-392.11C449,-383.15 449,-373.32 449,-365.58"/>
<polygon fill="midnightblue" stroke="midnightblue" points="445.5,-392.4 449,-402.4 452.5,-392.4 445.5,-392.4"/>
</g>
<!-- Node19 -->
<g id="node19" class="node">
<title>Node19</title>
<g id="a_node19"><a xlink:href="bus_8hpp.html" target="_top" xlink:title="This file defines an interface the CPU uses to access different memory&#45;mapped peripherals.">
<polygon fill="none" stroke="black" points="524,-274 524,-293 620,-293 620,-274 524,-274"/>
<text text-anchor="middle" x="572" y="-281" font-family="Helvetica,sans-Serif" font-size="10.00">src/core/bus.hpp</text>
</a>
</g>
</g>
<!-- Node17&#45;&gt;Node19 -->
<g id="edge24" class="edge">
<title>Node17&#45;&gt;Node19</title>
<path fill="none" stroke="midnightblue" d="M479.19,-396.43C491.03,-387.8 504.32,-377.15 515,-366 537.7,-342.31 558.1,-308.89 567.11,-293.23"/>
<polygon fill="midnightblue" stroke="midnightblue" points="477,-393.68 470.87,-402.32 481.05,-399.39 477,-393.68"/>
</g>
<!-- Node19&#45;&gt;Node3 -->
<g id="edge25" class="edge">
<title>Node19&#45;&gt;Node3</title>
<path fill="none" stroke="midnightblue" d="M596.25,-268.14C608.53,-259.41 622.23,-247.04 629,-232 639.32,-209.08 624.03,-181.14 612.31,-164.65"/>
<polygon fill="midnightblue" stroke="midnightblue" points="594.07,-265.39 587.69,-273.85 597.95,-271.22 594.07,-265.39"/>
</g>
<!-- Node19&#45;&gt;Node5 -->
<g id="edge31" class="edge">
<title>Node19&#45;&gt;Node5</title>
<path fill="none" stroke="midnightblue" d="M593.81,-268.4C608.41,-258.68 627.83,-245.18 644,-232 693.24,-191.88 691.72,-163.44 748,-134 780.74,-116.87 879.64,-99.66 939.47,-90.42"/>
<polygon fill="midnightblue" stroke="midnightblue" points="591.85,-265.5 585.42,-273.93 595.7,-271.35 591.85,-265.5"/>
</g>
<!-- Node19&#45;&gt;Node15 -->
<g id="edge32" class="edge">
<title>Node19&#45;&gt;Node15</title>
<path fill="none" stroke="midnightblue" d="M553.9,-267.18C542.68,-257.43 528.13,-244.36 516,-232 469.83,-184.96 419.95,-124.45 398.2,-97.51"/>
<polygon fill="midnightblue" stroke="midnightblue" points="551.88,-270.05 561.75,-273.91 556.44,-264.74 551.88,-270.05"/>
</g>
<!-- Node19&#45;&gt;Node20 -->
<g id="edge26" class="edge">
<title>Node19&#45;&gt;Node20</title>
<path fill="none" stroke="midnightblue" d="M608.33,-270.63C642.07,-259.61 692.34,-243.19 728.05,-231.53"/>
<polygon fill="midnightblue" stroke="midnightblue" points="606.84,-267.44 598.43,-273.87 609.02,-274.09 606.84,-267.44"/>
</g>
<!-- Node22 -->
<g id="node22" class="node">
<title>Node22</title>
<g id="a_node22"><a xlink:href="bus_8cpp.html" target="_top" xlink:title="This file implements the interface defined in bus.hpp.">
<polygon fill="none" stroke="black" points="524.5,-207 524.5,-226 619.5,-226 619.5,-207 524.5,-207"/>
<text text-anchor="middle" x="572" y="-214" font-family="Helvetica,sans-Serif" font-size="10.00">src/core/bus.cpp</text>
</a>
</g>
</g>
<!-- Node19&#45;&gt;Node22 -->
<g id="edge30" class="edge">
<title>Node19&#45;&gt;Node22</title>
<path fill="none" stroke="midnightblue" d="M572,-263.54C572,-251.17 572,-235.62 572,-226.13"/>
<polygon fill="midnightblue" stroke="midnightblue" points="568.5,-263.73 572,-273.73 575.5,-263.73 568.5,-263.73"/>
</g>
<!-- Node23 -->
<g id="node23" class="node">
<title>Node23</title>
<g id="a_node23"><a xlink:href="elf__loader_8hpp.html" target="_top" xlink:title="This file defines the functionality of an ELF loader.">
<polygon fill="none" stroke="black" points="183.5,-140 183.5,-159 310.5,-159 310.5,-140 183.5,-140"/>
<text text-anchor="middle" x="247" y="-147" font-family="Helvetica,sans-Serif" font-size="10.00">src/utils/elf_loader.hpp</text>
</a>
</g>
</g>
<!-- Node19&#45;&gt;Node23 -->
<g id="edge33" class="edge">
<title>Node19&#45;&gt;Node23</title>
<path fill="none" stroke="midnightblue" d="M539.38,-270.37C512.59,-260.33 473.71,-245.56 440,-232 376.22,-206.34 301.42,-174.15 266.63,-159.05"/>
<polygon fill="midnightblue" stroke="midnightblue" points="538.42,-273.75 549.01,-273.98 540.87,-267.2 538.42,-273.75"/>
</g>
<!-- Node20&#45;&gt;Node3 -->
<g id="edge27" class="edge">
<title>Node20&#45;&gt;Node3</title>
<path fill="none" stroke="midnightblue" d="M724.76,-197.82C697.43,-187.37 663.31,-174.32 637.82,-164.58"/>
<polygon fill="midnightblue" stroke="midnightblue" points="723.52,-201.09 734.11,-201.4 726.02,-194.56 723.52,-201.09"/>
</g>
<!-- Node20&#45;&gt;Node5 -->
<g id="edge29" class="edge">
<title>Node20&#45;&gt;Node5</title>
<path fill="none" stroke="midnightblue" d="M759.65,-191.78C752.97,-174.01 748.11,-150.09 761,-134 772.16,-120.08 876.49,-101.18 939.43,-90.91"/>
<polygon fill="midnightblue" stroke="midnightblue" points="756.59,-193.54 763.67,-201.42 763.05,-190.85 756.59,-193.54"/>
</g>
<!-- Node21 -->
<g id="node21" class="node">
<title>Node21</title>
<g id="a_node21"><a xlink:href="mmu_8cpp.html" target="_top" xlink:title="This file implements the MMU (memory management unit) of the CPU.">
<polygon fill="none" stroke="black" points="769.5,-134.5 769.5,-164.5 882.5,-164.5 882.5,-134.5 769.5,-134.5"/>
<text text-anchor="start" x="777.5" y="-152.5" font-family="Helvetica,sans-Serif" font-size="10.00">src/core/arm1176jzf</text>
<text text-anchor="middle" x="826" y="-141.5" font-family="Helvetica,sans-Serif" font-size="10.00">_s/mmu/mmu.cpp</text>
</a>
</g>
</g>
<!-- Node20&#45;&gt;Node21 -->
<g id="edge28" class="edge">
<title>Node20&#45;&gt;Node21</title>
<path fill="none" stroke="midnightblue" d="M789.42,-193.74C797.55,-184.12 806.89,-173.09 814.09,-164.58"/>
<polygon fill="midnightblue" stroke="midnightblue" points="786.72,-191.5 782.93,-201.4 792.07,-196.02 786.72,-191.5"/>
</g>
<!-- Node23&#45;&gt;Node13 -->
<g id="edge35" class="edge">
<title>Node23&#45;&gt;Node13</title>
<path fill="none" stroke="midnightblue" d="M247,-129.41C247,-119.22 247,-106.9 247,-97.59"/>
<polygon fill="midnightblue" stroke="midnightblue" points="243.5,-129.73 247,-139.73 250.5,-129.73 243.5,-129.73"/>
</g>
<!-- Node23&#45;&gt;Node14 -->
<g id="edge34" class="edge">
<title>Node23&#45;&gt;Node14</title>
<path fill="none" stroke="midnightblue" d="M215.34,-135.61C199.57,-127.38 181.99,-115.01 173,-98 161.19,-75.64 177.18,-47.29 189.4,-30.59"/>
<polygon fill="midnightblue" stroke="midnightblue" points="213.82,-138.76 224.34,-139.99 216.88,-132.47 213.82,-138.76"/>
</g>
<!-- Node23&#45;&gt;Node15 -->
<g id="edge36" class="edge">
<title>Node23&#45;&gt;Node15</title>
<path fill="none" stroke="midnightblue" d="M274.74,-135.62C298.42,-124.63 332.42,-108.84 356.79,-97.53"/>
<polygon fill="midnightblue" stroke="midnightblue" points="273.19,-132.48 265.59,-139.87 276.13,-138.83 273.19,-132.48"/>
</g>
<!-- Node24 -->
<g id="node24" class="node">
<title>Node24</title>
<g id="a_node24"><a xlink:href="elf__loader_8cpp.html" target="_top" xlink:title="This file implements the functionality of an ELF loader defined in elf_loader.hpp.">
<polygon fill="none" stroke="black" points="0,-73 0,-92 126,-92 126,-73 0,-73"/>
<text text-anchor="middle" x="63" y="-80" font-family="Helvetica,sans-Serif" font-size="10.00">src/utils/elf_loader.cpp</text>
</a>
</g>
</g>
<!-- Node23&#45;&gt;Node24 -->
<g id="edge37" class="edge">
<title>Node23&#45;&gt;Node24</title>
<path fill="none" stroke="midnightblue" d="M212.85,-136.44C176.35,-123.54 119.4,-103.42 87.24,-92.06"/>
<polygon fill="midnightblue" stroke="midnightblue" points="211.97,-139.84 222.57,-139.87 214.3,-133.24 211.97,-139.84"/>
</g>
<!-- Node26 -->
<g id="node26" class="node">
<title>Node26</title>
<g id="a_node26"><a xlink:href="coprocessor_8cpp.html" target="_top" xlink:title="This file implements the common functionality of a general interface of a coprocessor.">
<polygon fill="none" stroke="black" points="676,-335.5 676,-365.5 798,-365.5 798,-335.5 676,-335.5"/>
<text text-anchor="start" x="684" y="-353.5" font-family="Helvetica,sans-Serif" font-size="10.00">src/core/coprocessors</text>
<text text-anchor="middle" x="737" y="-342.5" font-family="Helvetica,sans-Serif" font-size="10.00">/coprocessor.cpp</text>
</a>
</g>
</g>
<!-- Node25&#45;&gt;Node26 -->
<g id="edge40" class="edge">
<title>Node25&#45;&gt;Node26</title>
<path fill="none" stroke="midnightblue" d="M737,-392.11C737,-383.15 737,-373.32 737,-365.58"/>
<polygon fill="midnightblue" stroke="midnightblue" points="733.5,-392.4 737,-402.4 740.5,-392.4 733.5,-392.4"/>
</g>
<!-- Node27 -->
<g id="node27" class="node">
<title>Node27</title>
<g id="a_node27"><a xlink:href="cp15_8hpp.html" target="_top" xlink:title="This file defines coprocessor CP15.">
<polygon fill="none" stroke="black" points="816,-335.5 816,-365.5 938,-365.5 938,-335.5 816,-335.5"/>
<text text-anchor="start" x="824" y="-353.5" font-family="Helvetica,sans-Serif" font-size="10.00">src/core/coprocessors</text>
<text text-anchor="middle" x="877" y="-342.5" font-family="Helvetica,sans-Serif" font-size="10.00">/cp15/cp15.hpp</text>
</a>
</g>
</g>
<!-- Node25&#45;&gt;Node27 -->
<g id="edge41" class="edge">
<title>Node25&#45;&gt;Node27</title>
<path fill="none" stroke="midnightblue" d="M776.57,-398.13C798.81,-387.8 826.15,-375.11 846.68,-365.58"/>
<polygon fill="midnightblue" stroke="midnightblue" points="774.97,-395.01 767.38,-402.4 777.92,-401.36 774.97,-395.01"/>
</g>
<!-- Node27&#45;&gt;Node5 -->
<g id="edge45" class="edge">
<title>Node27&#45;&gt;Node5</title>
<path fill="none" stroke="midnightblue" d="M948.15,-339.02C993.78,-330.68 1047.01,-317.34 1061,-299 1113.05,-230.74 1023.69,-123.36 995.25,-92.23"/>
<polygon fill="midnightblue" stroke="midnightblue" points="947.48,-335.58 938.24,-340.78 948.7,-342.48 947.48,-335.58"/>
</g>
<!-- Node27&#45;&gt;Node19 -->
<g id="edge43" class="edge">
<title>Node27&#45;&gt;Node19</title>
<path fill="none" stroke="midnightblue" d="M805.8,-334.33C745.43,-321.46 661.05,-303.48 611.9,-293"/>
<polygon fill="midnightblue" stroke="midnightblue" points="805.14,-337.76 815.65,-336.42 806.59,-330.92 805.14,-337.76"/>
</g>
<!-- Node27&#45;&gt;Node20 -->
<g id="edge42" class="edge">
<title>Node27&#45;&gt;Node20</title>
<path fill="none" stroke="midnightblue" d="M821.63,-331.02C806.55,-323.38 791.72,-312.96 782,-299 767.97,-278.85 767.83,-248.98 769.24,-231.56"/>
<polygon fill="midnightblue" stroke="midnightblue" points="820.46,-334.33 831,-335.41 823.43,-328 820.46,-334.33"/>
</g>
<!-- Node28 -->
<g id="node28" class="node">
<title>Node28</title>
<g id="a_node28"><a xlink:href="cp15_8cpp.html" target="_top" xlink:title="This file implements coprocessor CP15.">
<polygon fill="none" stroke="black" points="930,-268.5 930,-298.5 1052,-298.5 1052,-268.5 930,-268.5"/>
<text text-anchor="start" x="938" y="-286.5" font-family="Helvetica,sans-Serif" font-size="10.00">src/core/coprocessors</text>
<text text-anchor="middle" x="991" y="-275.5" font-family="Helvetica,sans-Serif" font-size="10.00">/cp15/cp15.cpp</text>
</a>
</g>
</g>
<!-- Node27&#45;&gt;Node28 -->
<g id="edge44" class="edge">
<title>Node27&#45;&gt;Node28</title>
<path fill="none" stroke="midnightblue" d="M910.68,-330.3C928.52,-320.12 950.04,-307.85 966.31,-298.58"/>
<polygon fill="midnightblue" stroke="midnightblue" points="908.69,-327.4 901.74,-335.4 912.16,-333.48 908.69,-327.4"/>
</g>
<!-- Node29 -->
<g id="node29" class="node">
<title>Node29</title>
<g id="a_node29"><a xlink:href="cp15__window_8hpp.html" target="_top" xlink:title="This file defines a window that displays data (information) related to coprocessor 15.">
<polygon fill="none" stroke="black" points="790.5,-268.5 790.5,-298.5 911.5,-298.5 911.5,-268.5 790.5,-268.5"/>
<text text-anchor="start" x="798.5" y="-286.5" font-family="Helvetica,sans-Serif" font-size="10.00">src/gui/windows/cp15</text>
<text text-anchor="middle" x="851" y="-275.5" font-family="Helvetica,sans-Serif" font-size="10.00">_window.hpp</text>
</a>
</g>
</g>
<!-- Node27&#45;&gt;Node29 -->
<g id="edge46" class="edge">
<title>Node27&#45;&gt;Node29</title>
<path fill="none" stroke="midnightblue" d="M867.6,-325.99C863.92,-316.8 859.83,-306.58 856.63,-298.58"/>
<polygon fill="midnightblue" stroke="midnightblue" points="864.39,-327.41 871.36,-335.4 870.89,-324.81 864.39,-327.41"/>
</g>
<!-- Node29&#45;&gt;Node7 -->
<g id="edge47" class="edge">
<title>Node29&#45;&gt;Node7</title>
<path fill="none" stroke="midnightblue" d="M860.89,-258.87C870.29,-235.45 884.14,-198.34 892,-165 904.28,-112.89 909.1,-48.49 910.51,-25.32"/>
<polygon fill="midnightblue" stroke="midnightblue" points="857.57,-257.73 857.04,-268.32 864.05,-260.38 857.57,-257.73"/>
</g>
<!-- Node30 -->
<g id="node30" class="node">
<title>Node30</title>
<g id="a_node30"><a xlink:href="cp15__window_8cpp.html" target="_top" xlink:title="This file implements a window that displays data (information) related to coprocessor 15.">
<polygon fill="none" stroke="black" points="930.5,-201.5 930.5,-231.5 1051.5,-231.5 1051.5,-201.5 930.5,-201.5"/>
<text text-anchor="start" x="938.5" y="-219.5" font-family="Helvetica,sans-Serif" font-size="10.00">src/gui/windows/cp15</text>
<text text-anchor="middle" x="991" y="-208.5" font-family="Helvetica,sans-Serif" font-size="10.00">_window.cpp</text>
</a>
</g>
</g>
<!-- Node29&#45;&gt;Node30 -->
<g id="edge48" class="edge">
<title>Node29&#45;&gt;Node30</title>
<path fill="none" stroke="midnightblue" d="M890.57,-264.13C912.81,-253.8 940.15,-241.11 960.68,-231.58"/>
<polygon fill="midnightblue" stroke="midnightblue" points="888.97,-261.01 881.38,-268.4 891.92,-267.36 888.97,-261.01"/>
</g>
<!-- Node31&#45;&gt;Node3 -->
<g id="edge50" class="edge">
<title>Node31&#45;&gt;Node3</title>
<path fill="none" stroke="midnightblue" d="M1097.61,-205.47C1085.37,-203.94 1072.84,-202.4 1061,-201 915.8,-183.8 744.55,-165.53 657.69,-156.41"/>
<polygon fill="midnightblue" stroke="midnightblue" points="1097.45,-208.98 1107.81,-206.76 1098.33,-202.04 1097.45,-208.98"/>
</g>
<!-- Node31&#45;&gt;Node5 -->
<g id="edge64" class="edge">
<title>Node31&#45;&gt;Node5</title>
<path fill="none" stroke="midnightblue" d="M1145.67,-195.7C1132.04,-186.44 1115.64,-175.23 1101,-165 1063.5,-138.81 1019.6,-107.13 998.92,-92.15"/>
<polygon fill="midnightblue" stroke="midnightblue" points="1143.94,-198.76 1154.18,-201.47 1147.87,-192.96 1143.94,-198.76"/>
</g>
<!-- Node32 -->
<g id="node32" class="node">
<title>Node32</title>
<g id="a_node32"><a xlink:href="arm__timer_8hpp.html" target="_top" xlink:title="This file defines the ARM timer used in BCM2835.">
<polygon fill="none" stroke="black" points="1109.5,-134.5 1109.5,-164.5 1222.5,-164.5 1222.5,-134.5 1109.5,-134.5"/>
<text text-anchor="start" x="1117.5" y="-152.5" font-family="Helvetica,sans-Serif" font-size="10.00">src/core/peripherals</text>
<text text-anchor="middle" x="1166" y="-141.5" font-family="Helvetica,sans-Serif" font-size="10.00">/arm_timer.hpp</text>
</a>
</g>
</g>
<!-- Node31&#45;&gt;Node32 -->
<g id="edge51" class="edge">
<title>Node31&#45;&gt;Node32</title>
<path fill="none" stroke="midnightblue" d="M1171.66,-191.4C1170.41,-182.37 1169.03,-172.41 1167.95,-164.58"/>
<polygon fill="midnightblue" stroke="midnightblue" points="1168.21,-191.97 1173.05,-201.4 1175.14,-191.01 1168.21,-191.97"/>
</g>
<!-- Node36 -->
<g id="node36" class="node">
<title>Node36</title>
<g id="a_node36"><a xlink:href="gpio_8hpp.html" target="_top" xlink:title="This file defines the GPIO controller used in BCM2835.">
<polygon fill="none" stroke="black" points="1586.5,-134.5 1586.5,-164.5 1699.5,-164.5 1699.5,-134.5 1586.5,-134.5"/>
<text text-anchor="start" x="1594.5" y="-152.5" font-family="Helvetica,sans-Serif" font-size="10.00">src/core/peripherals</text>
<text text-anchor="middle" x="1643" y="-141.5" font-family="Helvetica,sans-Serif" font-size="10.00">/gpio.hpp</text>
</a>
</g>
</g>
<!-- Node31&#45;&gt;Node36 -->
<g id="edge57" class="edge">
<title>Node31&#45;&gt;Node36</title>
<path fill="none" stroke="midnightblue" d="M1252.48,-208C1333.86,-199.6 1465.41,-184.57 1578,-165 1580.73,-164.52 1583.53,-164.01 1586.34,-163.47"/>
<polygon fill="midnightblue" stroke="midnightblue" points="1251.91,-204.54 1242.32,-209.04 1252.62,-211.5 1251.91,-204.54"/>
</g>
<!-- Node40 -->
<g id="node40" class="node">
<title>Node40</title>
<g id="a_node40"><a xlink:href="interrupt__controller_8cpp.html" target="_top" xlink:title="This file implements the interrupt controller used in BCM2835 (defined in interrupt_controller....">
<polygon fill="none" stroke="black" points="1435.5,-134.5 1435.5,-164.5 1568.5,-164.5 1568.5,-134.5 1435.5,-134.5"/>
<text text-anchor="start" x="1443.5" y="-152.5" font-family="Helvetica,sans-Serif" font-size="10.00">src/core/peripherals</text>
<text text-anchor="middle" x="1502" y="-141.5" font-family="Helvetica,sans-Serif" font-size="10.00">/interrupt_controller.cpp</text>
</a>
</g>
</g>
<!-- Node31&#45;&gt;Node40 -->
<g id="edge63" class="edge">
<title>Node31&#45;&gt;Node40</title>
<path fill="none" stroke="midnightblue" d="M1252.17,-200.16C1307.83,-189.1 1382.2,-174.31 1435.29,-163.76"/>
<polygon fill="midnightblue" stroke="midnightblue" points="1251.48,-196.73 1242.36,-202.11 1252.85,-203.59 1251.48,-196.73"/>
</g>
<!-- Node41 -->
<g id="node41" class="node">
<title>Node41</title>
<g id="a_node41"><a xlink:href="interrupt__controller__window_8hpp.html" target="_top" xlink:title="This file defines a window that visualizes the interrupt controller IC.">
<polygon fill="none" stroke="black" points="1241,-134.5 1241,-164.5 1417,-164.5 1417,-134.5 1241,-134.5"/>
<text text-anchor="start" x="1249" y="-152.5" font-family="Helvetica,sans-Serif" font-size="10.00">src/gui/windows/peripherals</text>
<text text-anchor="middle" x="1329" y="-141.5" font-family="Helvetica,sans-Serif" font-size="10.00">/interrupt_controller_window.hpp</text>
</a>
</g>
</g>
<!-- Node31&#45;&gt;Node41 -->
<g id="edge65" class="edge">
<title>Node31&#45;&gt;Node41</title>
<path fill="none" stroke="midnightblue" d="M1217.87,-197.41C1242.45,-187.03 1272.86,-174.2 1295.65,-164.58"/>
<polygon fill="midnightblue" stroke="midnightblue" points="1216.27,-194.28 1208.42,-201.4 1218.99,-200.73 1216.27,-194.28"/>
</g>
<!-- Node32&#45;&gt;Node5 -->
<g id="edge53" class="edge">
<title>Node32&#45;&gt;Node5</title>
<path fill="none" stroke="midnightblue" d="M1117.66,-130.95C1082.89,-118.32 1037.53,-101.85 1010.43,-92.01"/>
<polygon fill="midnightblue" stroke="midnightblue" points="1116.57,-134.27 1127.16,-134.4 1118.95,-127.69 1116.57,-134.27"/>
</g>
<!-- Node33 -->
<g id="node33" class="node">
<title>Node33</title>
<g id="a_node33"><a xlink:href="arm__timer_8cpp.html" target="_top" xlink:title="This file implements the ARM timer used in BCM2835 as defined in arm_timer.hpp.">
<polygon fill="none" stroke="black" points="1052.5,-67.5 1052.5,-97.5 1165.5,-97.5 1165.5,-67.5 1052.5,-67.5"/>
<text text-anchor="start" x="1060.5" y="-85.5" font-family="Helvetica,sans-Serif" font-size="10.00">src/core/peripherals</text>
<text text-anchor="middle" x="1109" y="-74.5" font-family="Helvetica,sans-Serif" font-size="10.00">/arm_timer.cpp</text>
</a>
</g>
</g>
<!-- Node32&#45;&gt;Node33 -->
<g id="edge52" class="edge">
<title>Node32&#45;&gt;Node33</title>
<path fill="none" stroke="midnightblue" d="M1146.91,-126.74C1138.48,-117.12 1128.81,-106.09 1121.34,-97.58"/>
<polygon fill="midnightblue" stroke="midnightblue" points="1144.41,-129.18 1153.63,-134.4 1149.67,-124.57 1144.41,-129.18"/>
</g>
<!-- Node34 -->
<g id="node34" class="node">
<title>Node34</title>
<g id="a_node34"><a xlink:href="arm__timer__window_8hpp.html" target="_top" xlink:title="This file defines a window that visualizes the contents of the ARM timer registers.">
<polygon fill="none" stroke="black" points="1222,-67.5 1222,-97.5 1374,-97.5 1374,-67.5 1222,-67.5"/>
<text text-anchor="start" x="1230" y="-85.5" font-family="Helvetica,sans-Serif" font-size="10.00">src/gui/windows/peripherals</text>
<text text-anchor="middle" x="1298" y="-74.5" font-family="Helvetica,sans-Serif" font-size="10.00">/arm_timer_window.hpp</text>
</a>
</g>
</g>
<!-- Node32&#45;&gt;Node34 -->
<g id="edge54" class="edge">
<title>Node32&#45;&gt;Node34</title>
<path fill="none" stroke="midnightblue" d="M1203.87,-129.85C1224.74,-119.58 1250.23,-107.03 1269.41,-97.58"/>
<polygon fill="midnightblue" stroke="midnightblue" points="1202.07,-126.84 1194.64,-134.4 1205.16,-133.12 1202.07,-126.84"/>
</g>
<!-- Node34&#45;&gt;Node7 -->
<g id="edge55" class="edge">
<title>Node34&#45;&gt;Node7</title>
<path fill="none" stroke="midnightblue" d="M1211.86,-67.6C1210.56,-67.4 1209.28,-67.2 1208,-67 1099.66,-50.28 1071.28,-53.5 964,-31 956.06,-29.34 947.56,-27.18 939.73,-25.04"/>
<polygon fill="midnightblue" stroke="midnightblue" points="1211.48,-71.08 1221.9,-69.17 1212.56,-64.16 1211.48,-71.08"/>
</g>
<!-- Node35 -->
<g id="node35" class="node">
<title>Node35</title>
<g id="a_node35"><a xlink:href="arm__timer__window_8cpp.html" target="_top" xlink:title="This file implements a window that visualizes the contents of the ARM timer registers.">
<polygon fill="none" stroke="black" points="1222,-0.5 1222,-30.5 1374,-30.5 1374,-0.5 1222,-0.5"/>
<text text-anchor="start" x="1230" y="-18.5" font-family="Helvetica,sans-Serif" font-size="10.00">src/gui/windows/peripherals</text>
<text text-anchor="middle" x="1298" y="-7.5" font-family="Helvetica,sans-Serif" font-size="10.00">/arm_timer_window.cpp</text>
</a>
</g>
</g>
<!-- Node34&#45;&gt;Node35 -->
<g id="edge56" class="edge">
<title>Node34&#45;&gt;Node35</title>
<path fill="none" stroke="midnightblue" d="M1298,-57.11C1298,-48.15 1298,-38.32 1298,-30.58"/>
<polygon fill="midnightblue" stroke="midnightblue" points="1294.5,-57.4 1298,-67.4 1301.5,-57.4 1294.5,-57.4"/>
</g>
<!-- Node36&#45;&gt;Node5 -->
<g id="edge59" class="edge">
<title>Node36&#45;&gt;Node5</title>
<path fill="none" stroke="midnightblue" d="M1576.12,-133.88C1340.73,-101 1275.58,-134.95 1044,-98 1034.92,-96.55 1025.19,-94.33 1016.37,-92.06"/>
<polygon fill="midnightblue" stroke="midnightblue" points="1575.98,-137.39 1586.37,-135.34 1576.97,-130.46 1575.98,-137.39"/>
</g>
<!-- Node37 -->
<g id="node37" class="node">
<title>Node37</title>
<g id="a_node37"><a xlink:href="gpio_8cpp.html" target="_top" xlink:title="This file implements the GPIO controller used in BCM2835 (defined in gpio.hpp).">
<polygon fill="none" stroke="black" points="1586.5,-67.5 1586.5,-97.5 1699.5,-97.5 1699.5,-67.5 1586.5,-67.5"/>
<text text-anchor="start" x="1594.5" y="-85.5" font-family="Helvetica,sans-Serif" font-size="10.00">src/core/peripherals</text>
<text text-anchor="middle" x="1643" y="-74.5" font-family="Helvetica,sans-Serif" font-size="10.00">/gpio.cpp</text>
</a>
</g>
</g>
<!-- Node36&#45;&gt;Node37 -->
<g id="edge58" class="edge">
<title>Node36&#45;&gt;Node37</title>
<path fill="none" stroke="midnightblue" d="M1643,-124.11C1643,-115.15 1643,-105.32 1643,-97.58"/>
<polygon fill="midnightblue" stroke="midnightblue" points="1639.5,-124.4 1643,-134.4 1646.5,-124.4 1639.5,-124.4"/>
</g>
<!-- Node38 -->
<g id="node38" class="node">
<title>Node38</title>
<g id="a_node38"><a xlink:href="gpio__window_8hpp.html" target="_top" xlink:title="This file defines a window that visualizes the states and information about GPIO pins.">
<polygon fill="none" stroke="black" points="1718,-67.5 1718,-97.5 1870,-97.5 1870,-67.5 1718,-67.5"/>
<text text-anchor="start" x="1726" y="-85.5" font-family="Helvetica,sans-Serif" font-size="10.00">src/gui/windows/peripherals</text>
<text text-anchor="middle" x="1794" y="-74.5" font-family="Helvetica,sans-Serif" font-size="10.00">/gpio_window.hpp</text>
</a>
</g>
</g>
<!-- Node36&#45;&gt;Node38 -->
<g id="edge60" class="edge">
<title>Node36&#45;&gt;Node38</title>
<path fill="none" stroke="midnightblue" d="M1685.03,-130.41C1709.14,-120.03 1738.95,-107.2 1761.3,-97.58"/>
<polygon fill="midnightblue" stroke="midnightblue" points="1683.57,-127.23 1675.76,-134.4 1686.33,-133.66 1683.57,-127.23"/>
</g>
<!-- Node38&#45;&gt;Node7 -->
<g id="edge61" class="edge">
<title>Node38&#45;&gt;Node7</title>
<path fill="none" stroke="midnightblue" d="M1707.28,-66.91C1377.62,-32.12 1288.03,-82.52 964,-31 955.33,-29.62 946.05,-27.36 937.71,-25.03"/>
<polygon fill="midnightblue" stroke="midnightblue" points="1707.29,-70.43 1717.61,-68.02 1708.04,-63.47 1707.29,-70.43"/>
</g>
<!-- Node39 -->
<g id="node39" class="node">
<title>Node39</title>
<g id="a_node39"><a xlink:href="gpio__window_8cpp.html" target="_top" xlink:title="This file implements a window that visualizes the states and information about GPIO pins.">
<polygon fill="none" stroke="black" points="1718,-0.5 1718,-30.5 1870,-30.5 1870,-0.5 1718,-0.5"/>
<text text-anchor="start" x="1726" y="-18.5" font-family="Helvetica,sans-Serif" font-size="10.00">src/gui/windows/peripherals</text>
<text text-anchor="middle" x="1794" y="-7.5" font-family="Helvetica,sans-Serif" font-size="10.00">/gpio_window.cpp</text>
</a>
</g>
</g>
<!-- Node38&#45;&gt;Node39 -->
<g id="edge62" class="edge">
<title>Node38&#45;&gt;Node39</title>
<path fill="none" stroke="midnightblue" d="M1794,-57.11C1794,-48.15 1794,-38.32 1794,-30.58"/>
<polygon fill="midnightblue" stroke="midnightblue" points="1790.5,-57.4 1794,-67.4 1797.5,-57.4 1790.5,-57.4"/>
</g>
<!-- Node41&#45;&gt;Node7 -->
<g id="edge66" class="edge">
<title>Node41&#45;&gt;Node7</title>
<path fill="none" stroke="midnightblue" d="M1280.04,-130.66C1258.77,-122.04 1233.98,-110.79 1213,-98 1194.39,-86.66 1194.84,-76.02 1175,-67 1088.39,-27.63 1056.88,-51.58 964,-31 956.27,-29.29 947.98,-27.16 940.31,-25.07"/>
<polygon fill="midnightblue" stroke="midnightblue" points="1278.96,-134 1289.54,-134.43 1281.54,-127.49 1278.96,-134"/>
</g>
<!-- Node42 -->
<g id="node42" class="node">
<title>Node42</title>
<g id="a_node42"><a xlink:href="interrupt__controller__window_8cpp.html" target="_top" xlink:title="This file implements a window that visualizes the interrupt controller IC.">
<polygon fill="none" stroke="black" points="1392,-67.5 1392,-97.5 1568,-97.5 1568,-67.5 1392,-67.5"/>
<text text-anchor="start" x="1400" y="-85.5" font-family="Helvetica,sans-Serif" font-size="10.00">src/gui/windows/peripherals</text>
<text text-anchor="middle" x="1480" y="-74.5" font-family="Helvetica,sans-Serif" font-size="10.00">/interrupt_controller_window.cpp</text>
</a>
</g>
</g>
<!-- Node41&#45;&gt;Node42 -->
<g id="edge67" class="edge">
<title>Node41&#45;&gt;Node42</title>
<path fill="none" stroke="midnightblue" d="M1371.03,-130.41C1395.14,-120.03 1424.95,-107.2 1447.3,-97.58"/>
<polygon fill="midnightblue" stroke="midnightblue" points="1369.57,-127.23 1361.76,-134.4 1372.33,-133.66 1369.57,-127.23"/>
</g>
</g>
</svg>
