<?xml version="1.0" encoding="UTF-8" standalone="no"?>
<!DOCTYPE svg PUBLIC "-//W3C//DTD SVG 1.1//EN"
 "http://www.w3.org/Graphics/SVG/1.1/DTD/svg11.dtd">
<!-- Generated by graphviz version 2.43.0 (0)
 -->
<!-- Title: src/gui/windows/control_window.hpp Pages: 1 -->
<svg width="2772pt" height="475pt"
 viewBox="0.00 0.00 2771.53 475.00" xmlns="http://www.w3.org/2000/svg" xmlns:xlink="http://www.w3.org/1999/xlink">
<g id="graph0" class="graph" transform="scale(1 1) rotate(0) translate(4 471)">
<title>src/gui/windows/control_window.hpp</title>
<!-- Node1 -->
<g id="node1" class="node">
<title>Node1</title>
<g id="a_node1"><a xlink:title=" ">
<polygon fill="#bfbfbf" stroke="black" points="31.5,-436.5 31.5,-466.5 162.5,-466.5 162.5,-436.5 31.5,-436.5"/>
<text text-anchor="start" x="39.5" y="-454.5" font-family="Helvetica,sans-Serif" font-size="10.00">src/gui/windows/control</text>
<text text-anchor="middle" x="97" y="-443.5" font-family="Helvetica,sans-Serif" font-size="10.00">_window.hpp</text>
</a>
</g>
</g>
<!-- Node2 -->
<g id="node2" class="node">
<title>Node2</title>
<g id="a_node2"><a xlink:title=" ">
<polygon fill="none" stroke="#bfbfbf" points="0,-375 0,-394 50,-394 50,-375 0,-375"/>
<text text-anchor="middle" x="25" y="-382" font-family="Helvetica,sans-Serif" font-size="10.00">atomic</text>
</a>
</g>
</g>
<!-- Node1&#45;&gt;Node2 -->
<g id="edge1" class="edge">
<title>Node1&#45;&gt;Node2</title>
<path fill="none" stroke="midnightblue" d="M81.38,-436.4C69.82,-425.96 54.08,-411.75 42.17,-401"/>
<polygon fill="midnightblue" stroke="midnightblue" points="44.4,-398.3 34.63,-394.19 39.71,-403.49 44.4,-398.3"/>
</g>
<!-- Node3 -->
<g id="node3" class="node">
<title>Node3</title>
<g id="a_node3"><a xlink:href="window_8hpp.html" target="_top" xlink:title=" ">
<polygon fill="none" stroke="black" points="69.5,-62 69.5,-81 152.5,-81 152.5,-62 69.5,-62"/>
<text text-anchor="middle" x="111" y="-69" font-family="Helvetica,sans-Serif" font-size="10.00">../window.hpp</text>
</a>
</g>
</g>
<!-- Node1&#45;&gt;Node3 -->
<g id="edge2" class="edge">
<title>Node1&#45;&gt;Node3</title>
<path fill="none" stroke="midnightblue" d="M93.6,-436.34C88.14,-412.27 78,-361.8 78,-318.5 78,-318.5 78,-318.5 78,-199 78,-159.26 93.44,-114.71 103.19,-90.51"/>
<polygon fill="midnightblue" stroke="midnightblue" points="106.46,-91.77 107.08,-81.19 100,-89.07 106.46,-91.77"/>
</g>
<!-- Node5 -->
<g id="node5" class="node">
<title>Node5</title>
<g id="a_node5"><a xlink:href="logger_8hpp.html" target="_top" xlink:title=" ">
<polygon fill="none" stroke="black" points="293.5,-56.5 293.5,-86.5 406.5,-86.5 406.5,-56.5 293.5,-56.5"/>
<text text-anchor="start" x="301.5" y="-74.5" font-family="Helvetica,sans-Serif" font-size="10.00">../../core/utils/logger</text>
<text text-anchor="middle" x="350" y="-63.5" font-family="Helvetica,sans-Serif" font-size="10.00">/logger.hpp</text>
</a>
</g>
</g>
<!-- Node1&#45;&gt;Node5 -->
<g id="edge4" class="edge">
<title>Node1&#45;&gt;Node5</title>
<path fill="none" stroke="midnightblue" d="M100.4,-436.34C105.86,-412.27 116,-361.8 116,-318.5 116,-318.5 116,-318.5 116,-199 116,-122.41 214.21,-91.97 283.38,-80.02"/>
<polygon fill="midnightblue" stroke="midnightblue" points="284.05,-83.46 293.36,-78.39 282.92,-76.55 284.05,-83.46"/>
</g>
<!-- Node11 -->
<g id="node11" class="node">
<title>Node11</title>
<g id="a_node11"><a xlink:href="core_8hpp.html" target="_top" xlink:title="This file defines a class that represents a CPU core (arm1176jzf_s).">
<polygon fill="none" stroke="black" points="585,-369.5 585,-399.5 699,-399.5 699,-369.5 585,-369.5"/>
<text text-anchor="start" x="593" y="-387.5" font-family="Helvetica,sans-Serif" font-size="10.00">../../core/arm1176jzf</text>
<text text-anchor="middle" x="642" y="-376.5" font-family="Helvetica,sans-Serif" font-size="10.00">_s/core.hpp</text>
</a>
</g>
</g>
<!-- Node1&#45;&gt;Node11 -->
<g id="edge11" class="edge">
<title>Node1&#45;&gt;Node11</title>
<path fill="none" stroke="midnightblue" d="M162.74,-442.66C266.99,-430.23 469.19,-406.11 574.52,-393.55"/>
<polygon fill="midnightblue" stroke="midnightblue" points="575.2,-396.99 584.71,-392.33 574.37,-390.04 575.2,-396.99"/>
</g>
<!-- Node4 -->
<g id="node4" class="node">
<title>Node4</title>
<g id="a_node4"><a xlink:title=" ">
<polygon fill="none" stroke="#bfbfbf" points="112,-0.5 112,-19.5 170,-19.5 170,-0.5 112,-0.5"/>
<text text-anchor="middle" x="141" y="-7.5" font-family="Helvetica,sans-Serif" font-size="10.00">memory</text>
</a>
</g>
</g>
<!-- Node3&#45;&gt;Node4 -->
<g id="edge3" class="edge">
<title>Node3&#45;&gt;Node4</title>
<path fill="none" stroke="midnightblue" d="M115.3,-61.98C119.66,-53.32 126.56,-39.65 132.1,-28.65"/>
<polygon fill="midnightblue" stroke="midnightblue" points="135.33,-30.01 136.71,-19.51 129.08,-26.86 135.33,-30.01"/>
</g>
<!-- Node5&#45;&gt;Node4 -->
<g id="edge7" class="edge">
<title>Node5&#45;&gt;Node4</title>
<path fill="none" stroke="midnightblue" d="M300.73,-56.47C263.83,-45.97 214.02,-31.79 179.89,-22.07"/>
<polygon fill="midnightblue" stroke="midnightblue" points="180.85,-18.71 170.27,-19.33 178.93,-25.44 180.85,-18.71"/>
</g>
<!-- Node6 -->
<g id="node6" class="node">
<title>Node6</title>
<g id="a_node6"><a xlink:title=" ">
<polygon fill="none" stroke="#bfbfbf" points="217,-0.5 217,-19.5 265,-19.5 265,-0.5 217,-0.5"/>
<text text-anchor="middle" x="241" y="-7.5" font-family="Helvetica,sans-Serif" font-size="10.00">mutex</text>
</a>
</g>
</g>
<!-- Node5&#45;&gt;Node6 -->
<g id="edge5" class="edge">
<title>Node5&#45;&gt;Node6</title>
<path fill="none" stroke="midnightblue" d="M324.17,-56.4C306.53,-46.77 283.3,-34.09 265.87,-24.58"/>
<polygon fill="midnightblue" stroke="midnightblue" points="267.31,-21.38 256.86,-19.66 263.96,-27.52 267.31,-21.38"/>
</g>
<!-- Node7 -->
<g id="node7" class="node">
<title>Node7</title>
<g id="a_node7"><a xlink:title=" ">
<polygon fill="none" stroke="#bfbfbf" points="485.5,-0.5 485.5,-19.5 532.5,-19.5 532.5,-0.5 485.5,-0.5"/>
<text text-anchor="middle" x="509" y="-7.5" font-family="Helvetica,sans-Serif" font-size="10.00">vector</text>
</a>
</g>
</g>
<!-- Node5&#45;&gt;Node7 -->
<g id="edge6" class="edge">
<title>Node5&#45;&gt;Node7</title>
<path fill="none" stroke="midnightblue" d="M387.68,-56.4C414.6,-46.33 450.45,-32.91 476.19,-23.28"/>
<polygon fill="midnightblue" stroke="midnightblue" points="477.73,-26.44 485.86,-19.66 475.27,-19.88 477.73,-26.44"/>
</g>
<!-- Node8 -->
<g id="node8" class="node">
<title>Node8</title>
<g id="a_node8"><a xlink:title=" ">
<polygon fill="none" stroke="#bfbfbf" points="583,-0.5 583,-19.5 633,-19.5 633,-0.5 583,-0.5"/>
<text text-anchor="middle" x="608" y="-7.5" font-family="Helvetica,sans-Serif" font-size="10.00">cstdint</text>
</a>
</g>
</g>
<!-- Node5&#45;&gt;Node8 -->
<g id="edge8" class="edge">
<title>Node5&#45;&gt;Node8</title>
<path fill="none" stroke="midnightblue" d="M406.62,-57.44C457.32,-45.75 530.08,-28.97 572.85,-19.11"/>
<polygon fill="midnightblue" stroke="midnightblue" points="573.83,-22.47 582.79,-16.81 572.26,-15.65 573.83,-22.47"/>
</g>
<!-- Node9 -->
<g id="node9" class="node">
<title>Node9</title>
<g id="a_node9"><a xlink:title=" ">
<polygon fill="none" stroke="#bfbfbf" points="283.5,-0.5 283.5,-19.5 356.5,-19.5 356.5,-0.5 283.5,-0.5"/>
<text text-anchor="middle" x="320" y="-7.5" font-family="Helvetica,sans-Serif" font-size="10.00">string_view</text>
</a>
</g>
</g>
<!-- Node5&#45;&gt;Node9 -->
<g id="edge9" class="edge">
<title>Node5&#45;&gt;Node9</title>
<path fill="none" stroke="midnightblue" d="M342.89,-56.4C338.71,-48.11 333.39,-37.55 328.93,-28.71"/>
<polygon fill="midnightblue" stroke="midnightblue" points="331.99,-27.01 324.37,-19.66 325.74,-30.16 331.99,-27.01"/>
</g>
<!-- Node10 -->
<g id="node10" class="node">
<title>Node10</title>
<g id="a_node10"><a xlink:title=" ">
<polygon fill="none" stroke="#bfbfbf" points="374.5,-0.5 374.5,-19.5 467.5,-19.5 467.5,-0.5 374.5,-0.5"/>
<text text-anchor="middle" x="421" y="-7.5" font-family="Helvetica,sans-Serif" font-size="10.00">source_location</text>
</a>
</g>
</g>
<!-- Node5&#45;&gt;Node10 -->
<g id="edge10" class="edge">
<title>Node5&#45;&gt;Node10</title>
<path fill="none" stroke="midnightblue" d="M366.83,-56.4C377.67,-47.31 391.78,-35.49 402.87,-26.19"/>
<polygon fill="midnightblue" stroke="midnightblue" points="405.25,-28.76 410.67,-19.66 400.76,-23.4 405.25,-28.76"/>
</g>
<!-- Node11&#45;&gt;Node5 -->
<g id="edge69" class="edge">
<title>Node11&#45;&gt;Node5</title>
<path fill="none" stroke="midnightblue" d="M584.59,-380.7C455.59,-372.85 154,-345.07 154,-257 154,-257 154,-257 154,-199 154,-135.83 226.76,-102.68 283.62,-86.41"/>
<polygon fill="midnightblue" stroke="midnightblue" points="284.59,-89.78 293.31,-83.76 282.74,-83.03 284.59,-89.78"/>
</g>
<!-- Node12 -->
<g id="node12" class="node">
<title>Node12</title>
<g id="a_node12"><a xlink:href="context_8hpp.html" target="_top" xlink:title="This file defines the context (registers) of the CPU.">
<polygon fill="none" stroke="black" points="537,-129 537,-148 611,-148 611,-129 537,-129"/>
<text text-anchor="middle" x="574" y="-136" font-family="Helvetica,sans-Serif" font-size="10.00">context.hpp</text>
</a>
</g>
</g>
<!-- Node11&#45;&gt;Node12 -->
<g id="edge12" class="edge">
<title>Node11&#45;&gt;Node12</title>
<path fill="none" stroke="midnightblue" d="M652.07,-369.26C658.3,-359.55 665.71,-346.12 669,-333 672.35,-319.64 671.72,-315.51 669,-302 658.35,-249.08 651.52,-235.19 622,-190 613.54,-177.06 601.56,-164.45 591.69,-155.07"/>
<polygon fill="midnightblue" stroke="midnightblue" points="594.06,-152.49 584.33,-148.29 589.31,-157.64 594.06,-152.49"/>
</g>
<!-- Node13 -->
<g id="node13" class="node">
<title>Node13</title>
<g id="a_node13"><a xlink:href="exceptions_8hpp.html" target="_top" xlink:title="This file defines all exceptions that can be thrown by the CPU during execution.">
<polygon fill="none" stroke="black" points="182.5,-246.5 182.5,-265.5 273.5,-265.5 273.5,-246.5 182.5,-246.5"/>
<text text-anchor="middle" x="228" y="-253.5" font-family="Helvetica,sans-Serif" font-size="10.00">exceptions.hpp</text>
</a>
</g>
</g>
<!-- Node11&#45;&gt;Node13 -->
<g id="edge14" class="edge">
<title>Node11&#45;&gt;Node13</title>
<path fill="none" stroke="midnightblue" d="M584.91,-375.67C534.02,-367.8 457.92,-353.84 394,-333 341.84,-316 284.32,-287.24 252.54,-270.4"/>
<polygon fill="midnightblue" stroke="midnightblue" points="254.01,-267.21 243.54,-265.58 250.7,-273.39 254.01,-267.21"/>
</g>
<!-- Node15 -->
<g id="node15" class="node">
<title>Node15</title>
<g id="a_node15"><a xlink:href="isa_8hpp.html" target="_top" xlink:title="This file is just a helper file for including all ARM instructions supported by the emulator.">
<polygon fill="none" stroke="black" points="1821.5,-190.5 1821.5,-209.5 1890.5,-209.5 1890.5,-190.5 1821.5,-190.5"/>
<text text-anchor="middle" x="1856" y="-197.5" font-family="Helvetica,sans-Serif" font-size="10.00">isa/isa.hpp</text>
</a>
</g>
</g>
<!-- Node11&#45;&gt;Node15 -->
<g id="edge17" class="edge">
<title>Node11&#45;&gt;Node15</title>
<path fill="none" stroke="midnightblue" d="M699.33,-374.88C908.06,-343.5 1624.93,-235.74 1811.39,-207.71"/>
<polygon fill="midnightblue" stroke="midnightblue" points="1812.02,-211.15 1821.38,-206.2 1810.98,-204.23 1812.02,-211.15"/>
</g>
<!-- Node34 -->
<g id="node34" class="node">
<title>Node34</title>
<g id="a_node34"><a xlink:href="isa__decoder_8hpp.html" target="_top" xlink:title="This file defines an instruction decoder.">
<polygon fill="none" stroke="black" points="2072.5,-246.5 2072.5,-265.5 2185.5,-265.5 2185.5,-246.5 2072.5,-246.5"/>
<text text-anchor="middle" x="2129" y="-253.5" font-family="Helvetica,sans-Serif" font-size="10.00">isa/isa_decoder.hpp</text>
</a>
</g>
</g>
<!-- Node11&#45;&gt;Node34 -->
<g id="edge53" class="edge">
<title>Node11&#45;&gt;Node34</title>
<path fill="none" stroke="midnightblue" d="M699.01,-380.6C827.48,-373.89 1149.31,-356.09 1418,-333 1655.3,-312.6 1936.25,-280.09 2062.15,-265.08"/>
<polygon fill="midnightblue" stroke="midnightblue" points="2062.88,-268.52 2072.4,-263.86 2062.05,-261.57 2062.88,-268.52"/>
</g>
<!-- Node35 -->
<g id="node35" class="node">
<title>Node35</title>
<g id="a_node35"><a xlink:href="bus_8hpp.html" target="_top" xlink:title="This file defines an interface the CPU uses to access different memory&#45;mapped peripherals.">
<polygon fill="none" stroke="black" points="403,-308 403,-327 467,-327 467,-308 403,-308"/>
<text text-anchor="middle" x="435" y="-315" font-family="Helvetica,sans-Serif" font-size="10.00">../bus.hpp</text>
</a>
</g>
</g>
<!-- Node11&#45;&gt;Node35 -->
<g id="edge55" class="edge">
<title>Node11&#45;&gt;Node35</title>
<path fill="none" stroke="midnightblue" d="M597.34,-369.48C559.91,-357.72 507.11,-341.14 472.01,-330.12"/>
<polygon fill="midnightblue" stroke="midnightblue" points="472.75,-326.69 462.16,-327.03 470.65,-333.36 472.75,-326.69"/>
</g>
<!-- Node40 -->
<g id="node40" class="node">
<title>Node40</title>
<g id="a_node40"><a xlink:href="math_8hpp.html" target="_top" xlink:title="This file defines and implements a variety of handy helper functions that are used throughout the pro...">
<polygon fill="none" stroke="black" points="716,-308 716,-327 812,-327 812,-308 716,-308"/>
<text text-anchor="middle" x="764" y="-315" font-family="Helvetica,sans-Serif" font-size="10.00">../utils/math.hpp</text>
</a>
</g>
</g>
<!-- Node11&#45;&gt;Node40 -->
<g id="edge68" class="edge">
<title>Node11&#45;&gt;Node40</title>
<path fill="none" stroke="midnightblue" d="M668.47,-369.4C689.4,-358.24 718.43,-342.78 738.97,-331.83"/>
<polygon fill="midnightblue" stroke="midnightblue" points="740.85,-334.8 748.03,-327.01 737.56,-328.62 740.85,-334.8"/>
</g>
<!-- Node41 -->
<g id="node41" class="node">
<title>Node41</title>
<g id="a_node41"><a xlink:href="interrupt__controller_8hpp.html" target="_top" xlink:title="This file defines the interrupt controller used BCM2835.">
<polygon fill="none" stroke="black" points="534.5,-302.5 534.5,-332.5 659.5,-332.5 659.5,-302.5 534.5,-302.5"/>
<text text-anchor="start" x="542.5" y="-320.5" font-family="Helvetica,sans-Serif" font-size="10.00">../peripherals/interrupt</text>
<text text-anchor="middle" x="597" y="-309.5" font-family="Helvetica,sans-Serif" font-size="10.00">_controller.hpp</text>
</a>
</g>
</g>
<!-- Node11&#45;&gt;Node41 -->
<g id="edge70" class="edge">
<title>Node11&#45;&gt;Node41</title>
<path fill="none" stroke="midnightblue" d="M632.24,-369.4C626.46,-361.05 619.01,-350.29 612.45,-340.81"/>
<polygon fill="midnightblue" stroke="midnightblue" points="615.32,-338.81 606.75,-332.58 609.56,-342.79 615.32,-338.81"/>
</g>
<!-- Node42 -->
<g id="node42" class="node">
<title>Node42</title>
<g id="a_node42"><a xlink:href="system__clock__listener_8hpp.html" target="_top" xlink:title="This file defines an interface for a CPU clock listener.">
<polygon fill="none" stroke="black" points="830.5,-302.5 830.5,-332.5 949.5,-332.5 949.5,-302.5 830.5,-302.5"/>
<text text-anchor="start" x="838.5" y="-320.5" font-family="Helvetica,sans-Serif" font-size="10.00">../peripherals/system</text>
<text text-anchor="middle" x="890" y="-309.5" font-family="Helvetica,sans-Serif" font-size="10.00">_clock_listener.hpp</text>
</a>
</g>
</g>
<!-- Node11&#45;&gt;Node42 -->
<g id="edge74" class="edge">
<title>Node11&#45;&gt;Node42</title>
<path fill="none" stroke="midnightblue" d="M695.51,-369.48C733.92,-359.41 785.84,-345.8 826.38,-335.17"/>
<polygon fill="midnightblue" stroke="midnightblue" points="827.38,-338.53 836.16,-332.61 825.6,-331.76 827.38,-338.53"/>
</g>
<!-- Node12&#45;&gt;Node5 -->
<g id="edge13" class="edge">
<title>Node12&#45;&gt;Node5</title>
<path fill="none" stroke="midnightblue" d="M544.25,-128.87C509.62,-118.82 451.61,-101.99 407.98,-89.32"/>
<polygon fill="midnightblue" stroke="midnightblue" points="408.92,-85.95 398.34,-86.53 406.97,-92.68 408.92,-85.95"/>
</g>
<!-- Node13&#45;&gt;Node12 -->
<g id="edge16" class="edge">
<title>Node13&#45;&gt;Node12</title>
<path fill="none" stroke="midnightblue" d="M244.2,-246.37C270.15,-232.83 322.9,-206.45 370,-190 422.67,-171.61 485.19,-157.17 527.01,-148.53"/>
<polygon fill="midnightblue" stroke="midnightblue" points="527.82,-151.93 536.92,-146.51 526.42,-145.08 527.82,-151.93"/>
</g>
<!-- Node14 -->
<g id="node14" class="node">
<title>Node14</title>
<g id="a_node14"><a xlink:title=" ">
<polygon fill="none" stroke="#bfbfbf" points="188.5,-190.5 188.5,-209.5 267.5,-209.5 267.5,-190.5 188.5,-190.5"/>
<text text-anchor="middle" x="228" y="-197.5" font-family="Helvetica,sans-Serif" font-size="10.00">fmt/format.h</text>
</a>
</g>
</g>
<!-- Node13&#45;&gt;Node14 -->
<g id="edge15" class="edge">
<title>Node13&#45;&gt;Node14</title>
<path fill="none" stroke="midnightblue" d="M228,-246.08C228,-239.01 228,-228.86 228,-219.99"/>
<polygon fill="midnightblue" stroke="midnightblue" points="231.5,-219.75 228,-209.75 224.5,-219.75 231.5,-219.75"/>
</g>
<!-- Node16 -->
<g id="node16" class="node">
<title>Node16</title>
<g id="a_node16"><a xlink:href="instruction_8hpp.html" target="_top" xlink:title="This file defines the interface of a general ARM instruction.">
<polygon fill="none" stroke="black" points="1965.5,-62 1965.5,-81 2054.5,-81 2054.5,-62 1965.5,-62"/>
<text text-anchor="middle" x="2010" y="-69" font-family="Helvetica,sans-Serif" font-size="10.00">instruction.hpp</text>
</a>
</g>
</g>
<!-- Node15&#45;&gt;Node16 -->
<g id="edge18" class="edge">
<title>Node15&#45;&gt;Node16</title>
<path fill="none" stroke="midnightblue" d="M1890.59,-198.55C2049.99,-196.31 2707.35,-185.21 2737,-154 2746.49,-144.01 2746.4,-133.07 2737,-123 2691.42,-74.15 2226.07,-71.53 2064.73,-72.11"/>
<polygon fill="midnightblue" stroke="midnightblue" points="2064.53,-68.61 2054.55,-72.15 2064.56,-75.61 2064.53,-68.61"/>
</g>
<!-- Node17 -->
<g id="node17" class="node">
<title>Node17</title>
<g id="a_node17"><a xlink:href="branch__and__exchange_8hpp.html" target="_top" xlink:title="This file defines a branch and exchange instruction (BX).">
<polygon fill="none" stroke="black" points="1181,-129 1181,-148 1327,-148 1327,-129 1181,-129"/>
<text text-anchor="middle" x="1254" y="-136" font-family="Helvetica,sans-Serif" font-size="10.00">branch_and_exchange.hpp</text>
</a>
</g>
</g>
<!-- Node15&#45;&gt;Node17 -->
<g id="edge19" class="edge">
<title>Node15&#45;&gt;Node17</title>
<path fill="none" stroke="midnightblue" d="M1821.27,-197.03C1737.65,-192.06 1518.61,-177.69 1337,-154 1327.84,-152.8 1318.15,-151.32 1308.74,-149.75"/>
<polygon fill="midnightblue" stroke="midnightblue" points="1309.14,-146.27 1298.69,-148.04 1307.96,-153.17 1309.14,-146.27"/>
</g>
<!-- Node18 -->
<g id="node18" class="node">
<title>Node18</title>
<g id="a_node18"><a xlink:href="branch_8hpp.html" target="_top" xlink:title="This file defines a branch instruction (B, BL).">
<polygon fill="none" stroke="black" points="1345.5,-129 1345.5,-148 1416.5,-148 1416.5,-129 1345.5,-129"/>
<text text-anchor="middle" x="1381" y="-136" font-family="Helvetica,sans-Serif" font-size="10.00">branch.hpp</text>
</a>
</g>
</g>
<!-- Node15&#45;&gt;Node18 -->
<g id="edge21" class="edge">
<title>Node15&#45;&gt;Node18</title>
<path fill="none" stroke="midnightblue" d="M1821.34,-197.81C1747.77,-194.75 1570.87,-184.57 1426,-154 1422.14,-153.18 1418.13,-152.16 1414.18,-151.04"/>
<polygon fill="midnightblue" stroke="midnightblue" points="1415.16,-147.68 1404.57,-148.11 1413.12,-154.38 1415.16,-147.68"/>
</g>
<!-- Node19 -->
<g id="node19" class="node">
<title>Node19</title>
<g id="a_node19"><a xlink:href="data__processing_8hpp.html" target="_top" xlink:title="This file defines a data processing instruction.">
<polygon fill="none" stroke="black" points="1434.5,-129 1434.5,-148 1551.5,-148 1551.5,-129 1434.5,-129"/>
<text text-anchor="middle" x="1493" y="-136" font-family="Helvetica,sans-Serif" font-size="10.00">data_processing.hpp</text>
</a>
</g>
</g>
<!-- Node15&#45;&gt;Node19 -->
<g id="edge23" class="edge">
<title>Node15&#45;&gt;Node19</title>
<path fill="none" stroke="midnightblue" d="M1821.37,-194.39C1766.15,-186.89 1654.77,-171.13 1561,-154 1554.61,-152.83 1547.9,-151.51 1541.29,-150.16"/>
<polygon fill="midnightblue" stroke="midnightblue" points="1541.55,-146.64 1531.04,-148.02 1540.12,-153.49 1541.55,-146.64"/>
</g>
<!-- Node20 -->
<g id="node20" class="node">
<title>Node20</title>
<g id="a_node20"><a xlink:href="multiply_8hpp.html" target="_top" xlink:title="This file defines a multiplication instruction (MUL, MLA).">
<polygon fill="none" stroke="black" points="1569.5,-129 1569.5,-148 1646.5,-148 1646.5,-129 1569.5,-129"/>
<text text-anchor="middle" x="1608" y="-136" font-family="Helvetica,sans-Serif" font-size="10.00">multiply.hpp</text>
</a>
</g>
</g>
<!-- Node15&#45;&gt;Node20 -->
<g id="edge25" class="edge">
<title>Node15&#45;&gt;Node20</title>
<path fill="none" stroke="midnightblue" d="M1821.49,-192.02C1781.48,-183.75 1713.65,-169.17 1656,-154 1652.38,-153.05 1648.62,-152 1644.87,-150.93"/>
<polygon fill="midnightblue" stroke="midnightblue" points="1645.65,-147.51 1635.07,-148.05 1643.67,-154.23 1645.65,-147.51"/>
</g>
<!-- Node21 -->
<g id="node21" class="node">
<title>Node21</title>
<g id="a_node21"><a xlink:href="multiply__long_8hpp.html" target="_top" xlink:title="This file defines a multiplication (long) instruction.">
<polygon fill="none" stroke="black" points="1665,-129 1665,-148 1769,-148 1769,-129 1665,-129"/>
<text text-anchor="middle" x="1717" y="-136" font-family="Helvetica,sans-Serif" font-size="10.00">multiply_long.hpp</text>
</a>
</g>
</g>
<!-- Node15&#45;&gt;Node21 -->
<g id="edge27" class="edge">
<title>Node15&#45;&gt;Node21</title>
<path fill="none" stroke="midnightblue" d="M1836.08,-190.48C1812.55,-180.4 1773.19,-163.55 1746.21,-152"/>
<polygon fill="midnightblue" stroke="midnightblue" points="1747.45,-148.73 1736.88,-148.01 1744.69,-155.16 1747.45,-148.73"/>
</g>
<!-- Node22 -->
<g id="node22" class="node">
<title>Node22</title>
<g id="a_node22"><a xlink:href="single__data__transfer_8hpp.html" target="_top" xlink:title="This file defines single data transfer instruction (LDR, STR).">
<polygon fill="none" stroke="black" points="1787.5,-129 1787.5,-148 1924.5,-148 1924.5,-129 1787.5,-129"/>
<text text-anchor="middle" x="1856" y="-136" font-family="Helvetica,sans-Serif" font-size="10.00">single_data_transfer.hpp</text>
</a>
</g>
</g>
<!-- Node15&#45;&gt;Node22 -->
<g id="edge29" class="edge">
<title>Node15&#45;&gt;Node22</title>
<path fill="none" stroke="midnightblue" d="M1856,-190.48C1856,-182.08 1856,-168.98 1856,-158.16"/>
<polygon fill="midnightblue" stroke="midnightblue" points="1859.5,-158.01 1856,-148.01 1852.5,-158.01 1859.5,-158.01"/>
</g>
<!-- Node23 -->
<g id="node23" class="node">
<title>Node23</title>
<g id="a_node23"><a xlink:href="block__data__transfer_8hpp.html" target="_top" xlink:title="This file defines a block data transfer instruction (LDM, STM).">
<polygon fill="none" stroke="black" points="1943,-129 1943,-148 2077,-148 2077,-129 1943,-129"/>
<text text-anchor="middle" x="2010" y="-136" font-family="Helvetica,sans-Serif" font-size="10.00">block_data_transfer.hpp</text>
</a>
</g>
</g>
<!-- Node15&#45;&gt;Node23 -->
<g id="edge31" class="edge">
<title>Node15&#45;&gt;Node23</title>
<path fill="none" stroke="midnightblue" d="M1878.06,-190.48C1904.37,-180.31 1948.51,-163.26 1978.42,-151.7"/>
<polygon fill="midnightblue" stroke="midnightblue" points="1979.91,-154.88 1987.98,-148.01 1977.39,-148.35 1979.91,-154.88"/>
</g>
<!-- Node24 -->
<g id="node24" class="node">
<title>Node24</title>
<g id="a_node24"><a xlink:href="halfword__data__transfer_8hpp.html" target="_top" xlink:title="This file defines a Halfword data transfer instruction.">
<polygon fill="none" stroke="black" points="2095.5,-129 2095.5,-148 2244.5,-148 2244.5,-129 2095.5,-129"/>
<text text-anchor="middle" x="2170" y="-136" font-family="Helvetica,sans-Serif" font-size="10.00">halfword_data_transfer.hpp</text>
</a>
</g>
</g>
<!-- Node15&#45;&gt;Node24 -->
<g id="edge33" class="edge">
<title>Node15&#45;&gt;Node24</title>
<path fill="none" stroke="midnightblue" d="M1890.5,-192.46C1944.72,-182.19 2050.33,-162.18 2115.07,-149.91"/>
<polygon fill="midnightblue" stroke="midnightblue" points="2115.92,-153.31 2125.1,-148.01 2114.62,-146.43 2115.92,-153.31"/>
</g>
<!-- Node25 -->
<g id="node25" class="node">
<title>Node25</title>
<g id="a_node25"><a xlink:href="extend_8hpp.html" target="_top" xlink:title="This file defines an extend instruction.">
<polygon fill="none" stroke="black" points="2262.5,-129 2262.5,-148 2333.5,-148 2333.5,-129 2262.5,-129"/>
<text text-anchor="middle" x="2298" y="-136" font-family="Helvetica,sans-Serif" font-size="10.00">extend.hpp</text>
</a>
</g>
</g>
<!-- Node15&#45;&gt;Node25 -->
<g id="edge35" class="edge">
<title>Node15&#45;&gt;Node25</title>
<path fill="none" stroke="midnightblue" d="M1890.73,-197.48C1960.36,-193.9 2121.71,-182.95 2254,-154 2257.67,-153.2 2261.47,-152.2 2265.23,-151.11"/>
<polygon fill="midnightblue" stroke="midnightblue" points="2266.45,-154.4 2274.96,-148.08 2264.37,-147.72 2266.45,-154.4"/>
</g>
<!-- Node26 -->
<g id="node26" class="node">
<title>Node26</title>
<g id="a_node26"><a xlink:href="psr__transfer_8hpp.html" target="_top" xlink:title="This file defines a PSR instruction (MRS, MSR).">
<polygon fill="none" stroke="black" points="2351.5,-129 2351.5,-148 2446.5,-148 2446.5,-129 2351.5,-129"/>
<text text-anchor="middle" x="2399" y="-136" font-family="Helvetica,sans-Serif" font-size="10.00">psr_transfer.hpp</text>
</a>
</g>
</g>
<!-- Node15&#45;&gt;Node26 -->
<g id="edge37" class="edge">
<title>Node15&#45;&gt;Node26</title>
<path fill="none" stroke="midnightblue" d="M1890.8,-197.71C1971.05,-194.32 2175.08,-183.3 2343,-154 2348.44,-153.05 2354.13,-151.84 2359.71,-150.52"/>
<polygon fill="midnightblue" stroke="midnightblue" points="2360.69,-153.89 2369.55,-148.08 2359,-147.09 2360.69,-153.89"/>
</g>
<!-- Node27 -->
<g id="node27" class="node">
<title>Node27</title>
<g id="a_node27"><a xlink:href="cps_8hpp.html" target="_top" xlink:title="This file defines a change processor state instruction (CPS).">
<polygon fill="none" stroke="black" points="2465,-129 2465,-148 2519,-148 2519,-129 2465,-129"/>
<text text-anchor="middle" x="2492" y="-136" font-family="Helvetica,sans-Serif" font-size="10.00">cps.hpp</text>
</a>
</g>
</g>
<!-- Node15&#45;&gt;Node27 -->
<g id="edge39" class="edge">
<title>Node15&#45;&gt;Node27</title>
<path fill="none" stroke="midnightblue" d="M1890.75,-197.8C2001.81,-193.73 2347.27,-179.33 2456,-154 2458.68,-153.38 2461.41,-152.58 2464.12,-151.69"/>
<polygon fill="midnightblue" stroke="midnightblue" points="2465.51,-154.91 2473.67,-148.15 2463.08,-148.35 2465.51,-154.91"/>
</g>
<!-- Node28 -->
<g id="node28" class="node">
<title>Node28</title>
<g id="a_node28"><a xlink:href="coprocessor__register__transfer_8hpp.html" target="_top" xlink:title="This file defines a coprocessor register transfer (MRC, MCR).">
<polygon fill="none" stroke="black" points="861,-123.5 861,-153.5 979,-153.5 979,-123.5 861,-123.5"/>
<text text-anchor="start" x="869" y="-141.5" font-family="Helvetica,sans-Serif" font-size="10.00">coprocessor_register</text>
<text text-anchor="middle" x="920" y="-130.5" font-family="Helvetica,sans-Serif" font-size="10.00">_transfer.hpp</text>
</a>
</g>
</g>
<!-- Node15&#45;&gt;Node28 -->
<g id="edge41" class="edge">
<title>Node15&#45;&gt;Node28</title>
<path fill="none" stroke="midnightblue" d="M1821.5,-199.17C1705.38,-199.31 1318.08,-196.47 989.44,-154.04"/>
<polygon fill="midnightblue" stroke="midnightblue" points="989.61,-150.53 979.24,-152.71 988.7,-157.48 989.61,-150.53"/>
</g>
<!-- Node29 -->
<g id="node29" class="node">
<title>Node29</title>
<g id="a_node29"><a xlink:href="coprocessor__data__transfer_8hpp.html" target="_top" xlink:title="This file defines a coprocessor data transfer (LDC, STC).">
<polygon fill="none" stroke="black" points="997,-129 997,-148 1163,-148 1163,-129 997,-129"/>
<text text-anchor="middle" x="1080" y="-136" font-family="Helvetica,sans-Serif" font-size="10.00">coprocessor_data_transfer.hpp</text>
</a>
</g>
</g>
<!-- Node15&#45;&gt;Node29 -->
<g id="edge43" class="edge">
<title>Node15&#45;&gt;Node29</title>
<path fill="none" stroke="midnightblue" d="M1821.38,-197.83C1720.82,-194.2 1420.08,-181.65 1172,-154 1161.17,-152.79 1149.67,-151.22 1138.6,-149.55"/>
<polygon fill="midnightblue" stroke="midnightblue" points="1139.01,-146.07 1128.59,-148 1137.94,-152.99 1139.01,-146.07"/>
</g>
<!-- Node30 -->
<g id="node30" class="node">
<title>Node30</title>
<g id="a_node30"><a xlink:href="coprocessor__data__operation_8hpp.html" target="_top" xlink:title="This file defines a coprocessor data operation (CDP).">
<polygon fill="none" stroke="black" points="667.5,-129 667.5,-148 842.5,-148 842.5,-129 667.5,-129"/>
<text text-anchor="middle" x="755" y="-136" font-family="Helvetica,sans-Serif" font-size="10.00">coprocessor_data_operation.hpp</text>
</a>
</g>
</g>
<!-- Node15&#45;&gt;Node30 -->
<g id="edge45" class="edge">
<title>Node15&#45;&gt;Node30</title>
<path fill="none" stroke="midnightblue" d="M1821.23,-198.74C1692.45,-197.52 1230.59,-190.68 852,-154 840.08,-152.85 827.4,-151.23 815.26,-149.5"/>
<polygon fill="midnightblue" stroke="midnightblue" points="815.63,-146.01 805.22,-148.02 814.61,-152.94 815.63,-146.01"/>
</g>
<!-- Node31 -->
<g id="node31" class="node">
<title>Node31</title>
<g id="a_node31"><a xlink:href="srs_8hpp.html" target="_top" xlink:title="This file defines an SRS instruction (store return state onto a stack).">
<polygon fill="none" stroke="black" points="2537,-129 2537,-148 2589,-148 2589,-129 2537,-129"/>
<text text-anchor="middle" x="2563" y="-136" font-family="Helvetica,sans-Serif" font-size="10.00">srs.hpp</text>
</a>
</g>
</g>
<!-- Node15&#45;&gt;Node31 -->
<g id="edge47" class="edge">
<title>Node15&#45;&gt;Node31</title>
<path fill="none" stroke="midnightblue" d="M1890.67,-198.17C2010.26,-195.05 2404.9,-182.8 2528,-154 2530.67,-153.38 2533.4,-152.57 2536.1,-151.66"/>
<polygon fill="midnightblue" stroke="midnightblue" points="2537.48,-154.88 2545.57,-148.03 2534.98,-148.34 2537.48,-154.88"/>
</g>
<!-- Node32 -->
<g id="node32" class="node">
<title>Node32</title>
<g id="a_node32"><a xlink:href="rfe_8hpp.html" target="_top" xlink:title="This file defines an RFE instruction (return from exception).">
<polygon fill="none" stroke="black" points="2607.5,-129 2607.5,-148 2658.5,-148 2658.5,-129 2607.5,-129"/>
<text text-anchor="middle" x="2633" y="-136" font-family="Helvetica,sans-Serif" font-size="10.00">rfe.hpp</text>
</a>
</g>
</g>
<!-- Node15&#45;&gt;Node32 -->
<g id="edge49" class="edge">
<title>Node15&#45;&gt;Node32</title>
<path fill="none" stroke="midnightblue" d="M1890.69,-198.42C2018.23,-196.04 2460.77,-185.65 2598,-154 2600.67,-153.38 2603.4,-152.58 2606.1,-151.68"/>
<polygon fill="midnightblue" stroke="midnightblue" points="2607.48,-154.89 2615.57,-148.05 2604.98,-148.36 2607.48,-154.89"/>
</g>
<!-- Node33 -->
<g id="node33" class="node">
<title>Node33</title>
<g id="a_node33"><a xlink:href="clz_8hpp.html" target="_top" xlink:title="This file defines a count leading zeros instruction (CLZ).">
<polygon fill="none" stroke="black" points="2676.5,-129 2676.5,-148 2727.5,-148 2727.5,-129 2676.5,-129"/>
<text text-anchor="middle" x="2702" y="-136" font-family="Helvetica,sans-Serif" font-size="10.00">clz.hpp</text>
</a>
</g>
</g>
<!-- Node15&#45;&gt;Node33 -->
<g id="edge51" class="edge">
<title>Node15&#45;&gt;Node33</title>
<path fill="none" stroke="midnightblue" d="M1890.68,-198.67C2025.78,-197.16 2516.76,-189.29 2668,-154 2670.52,-153.41 2673.08,-152.65 2675.62,-151.79"/>
<polygon fill="midnightblue" stroke="midnightblue" points="2677.06,-154.98 2685.1,-148.08 2674.51,-148.46 2677.06,-154.98"/>
</g>
<!-- Node17&#45;&gt;Node16 -->
<g id="edge20" class="edge">
<title>Node17&#45;&gt;Node16</title>
<path fill="none" stroke="midnightblue" d="M1298.25,-128.94C1310.74,-126.75 1324.37,-124.57 1337,-123 1565.6,-94.52 1840.03,-80 1955.06,-74.79"/>
<polygon fill="midnightblue" stroke="midnightblue" points="1955.52,-78.28 1965.36,-74.33 1955.21,-71.28 1955.52,-78.28"/>
</g>
<!-- Node18&#45;&gt;Node16 -->
<g id="edge22" class="edge">
<title>Node18&#45;&gt;Node16</title>
<path fill="none" stroke="midnightblue" d="M1404.09,-128.96C1411.05,-126.69 1418.76,-124.46 1426,-123 1617.69,-84.34 1850.63,-75.27 1954.91,-73.14"/>
<polygon fill="midnightblue" stroke="midnightblue" points="1955.26,-76.64 1965.19,-72.95 1955.13,-69.64 1955.26,-76.64"/>
</g>
<!-- Node19&#45;&gt;Node16 -->
<g id="edge24" class="edge">
<title>Node19&#45;&gt;Node16</title>
<path fill="none" stroke="midnightblue" d="M1529.93,-128.94C1539.97,-126.8 1550.87,-124.65 1561,-123 1702.22,-100.06 1870.13,-84.17 1955.01,-76.93"/>
<polygon fill="midnightblue" stroke="midnightblue" points="1955.52,-80.4 1965.19,-76.07 1954.93,-73.43 1955.52,-80.4"/>
</g>
<!-- Node20&#45;&gt;Node16 -->
<g id="edge26" class="edge">
<title>Node20&#45;&gt;Node16</title>
<path fill="none" stroke="midnightblue" d="M1633.72,-128.95C1640.87,-126.78 1648.69,-124.62 1656,-123 1760.65,-99.87 1885.14,-84.97 1955.13,-77.72"/>
<polygon fill="midnightblue" stroke="midnightblue" points="1955.87,-81.16 1965.46,-76.66 1955.16,-74.2 1955.87,-81.16"/>
</g>
<!-- Node21&#45;&gt;Node16 -->
<g id="edge28" class="edge">
<title>Node21&#45;&gt;Node16</title>
<path fill="none" stroke="midnightblue" d="M1753.04,-128.98C1761.55,-126.99 1770.59,-124.9 1779,-123 1841.3,-108.91 1913.19,-93.29 1960.01,-83.21"/>
<polygon fill="midnightblue" stroke="midnightblue" points="1960.86,-86.61 1969.9,-81.08 1959.39,-79.76 1960.86,-86.61"/>
</g>
<!-- Node22&#45;&gt;Node16 -->
<g id="edge30" class="edge">
<title>Node22&#45;&gt;Node16</title>
<path fill="none" stroke="midnightblue" d="M1876.45,-128.87C1903.03,-117.65 1949.64,-97.98 1980.17,-85.09"/>
<polygon fill="midnightblue" stroke="midnightblue" points="1981.61,-88.28 1989.47,-81.17 1978.89,-81.83 1981.61,-88.28"/>
</g>
<!-- Node23&#45;&gt;Node16 -->
<g id="edge32" class="edge">
<title>Node23&#45;&gt;Node16</title>
<path fill="none" stroke="midnightblue" d="M2010,-128.73C2010,-119.18 2010,-103.62 2010,-91.28"/>
<polygon fill="midnightblue" stroke="midnightblue" points="2013.5,-91.13 2010,-81.13 2006.5,-91.13 2013.5,-91.13"/>
</g>
<!-- Node24&#45;&gt;Node16 -->
<g id="edge34" class="edge">
<title>Node24&#45;&gt;Node16</title>
<path fill="none" stroke="midnightblue" d="M2148.75,-128.87C2121.06,-117.62 2072.44,-97.87 2040.73,-84.99"/>
<polygon fill="midnightblue" stroke="midnightblue" points="2041.66,-81.58 2031.08,-81.06 2039.03,-88.07 2041.66,-81.58"/>
</g>
<!-- Node25&#45;&gt;Node16 -->
<g id="edge36" class="edge">
<title>Node25&#45;&gt;Node16</title>
<path fill="none" stroke="midnightblue" d="M2273.48,-128.87C2267.18,-126.8 2260.37,-124.7 2254,-123 2189.68,-105.81 2114.52,-91.04 2064.79,-81.99"/>
<polygon fill="midnightblue" stroke="midnightblue" points="2065.35,-78.53 2054.88,-80.2 2064.1,-85.42 2065.35,-78.53"/>
</g>
<!-- Node26&#45;&gt;Node16 -->
<g id="edge38" class="edge">
<title>Node26&#45;&gt;Node16</title>
<path fill="none" stroke="midnightblue" d="M2368.32,-128.95C2360.13,-126.83 2351.26,-124.69 2343,-123 2245.8,-103.1 2131.17,-87.4 2064.9,-79.07"/>
<polygon fill="midnightblue" stroke="midnightblue" points="2065.05,-75.56 2054.69,-77.79 2064.18,-82.5 2065.05,-75.56"/>
</g>
<!-- Node27&#45;&gt;Node16 -->
<g id="edge40" class="edge">
<title>Node27&#45;&gt;Node16</title>
<path fill="none" stroke="midnightblue" d="M2473.64,-128.99C2468.07,-126.72 2461.88,-124.49 2456,-123 2318.03,-88.09 2149.93,-77.29 2064.9,-73.96"/>
<polygon fill="midnightblue" stroke="midnightblue" points="2064.83,-70.46 2054.71,-73.59 2064.57,-77.45 2064.83,-70.46"/>
</g>
<!-- Node28&#45;&gt;Node16 -->
<g id="edge42" class="edge">
<title>Node28&#45;&gt;Node16</title>
<path fill="none" stroke="midnightblue" d="M979.24,-124.28C982.2,-123.81 985.13,-123.37 988,-123 1355.21,-75.09 1802.05,-71.72 1955.35,-72.12"/>
<polygon fill="midnightblue" stroke="midnightblue" points="1955.43,-75.62 1965.45,-72.15 1955.46,-68.62 1955.43,-75.62"/>
</g>
<!-- Node29&#45;&gt;Node16 -->
<g id="edge44" class="edge">
<title>Node29&#45;&gt;Node16</title>
<path fill="none" stroke="midnightblue" d="M1128.58,-128.95C1142.56,-126.73 1157.85,-124.54 1172,-123 1466.44,-91 1821.45,-77.98 1955.35,-73.97"/>
<polygon fill="midnightblue" stroke="midnightblue" points="1955.47,-77.47 1965.36,-73.68 1955.26,-70.48 1955.47,-77.47"/>
</g>
<!-- Node30&#45;&gt;Node16 -->
<g id="edge46" class="edge">
<title>Node30&#45;&gt;Node16</title>
<path fill="none" stroke="midnightblue" d="M805.22,-128.97C820.23,-126.7 836.75,-124.47 852,-123 1275.12,-82.26 1788.41,-74.37 1954.98,-72.86"/>
<polygon fill="midnightblue" stroke="midnightblue" points="1955.47,-76.35 1965.44,-72.76 1955.41,-69.35 1955.47,-76.35"/>
</g>
<!-- Node31&#45;&gt;Node16 -->
<g id="edge48" class="edge">
<title>Node31&#45;&gt;Node16</title>
<path fill="none" stroke="midnightblue" d="M2545.18,-128.93C2539.77,-126.65 2533.74,-124.44 2528,-123 2362.86,-81.72 2160.26,-73.85 2064.76,-72.57"/>
<polygon fill="midnightblue" stroke="midnightblue" points="2064.79,-69.07 2054.75,-72.45 2064.71,-76.07 2064.79,-69.07"/>
</g>
<!-- Node32&#45;&gt;Node16 -->
<g id="edge50" class="edge">
<title>Node32&#45;&gt;Node16</title>
<path fill="none" stroke="midnightblue" d="M2615.19,-128.89C2609.78,-126.61 2603.75,-124.4 2598,-123 2406.06,-76.19 2169.66,-71.24 2064.68,-71.66"/>
<polygon fill="midnightblue" stroke="midnightblue" points="2064.62,-68.16 2054.64,-71.71 2064.66,-75.16 2064.62,-68.16"/>
</g>
<!-- Node33&#45;&gt;Node16 -->
<g id="edge52" class="edge">
<title>Node33&#45;&gt;Node16</title>
<path fill="none" stroke="midnightblue" d="M2685.08,-129C2679.74,-126.67 2673.73,-124.4 2668,-123 2554.11,-95.15 2201.75,-79.55 2065.02,-74.42"/>
<polygon fill="midnightblue" stroke="midnightblue" points="2064.9,-70.91 2054.78,-74.04 2064.64,-77.91 2064.9,-70.91"/>
</g>
<!-- Node34&#45;&gt;Node16 -->
<g id="edge54" class="edge">
<title>Node34&#45;&gt;Node16</title>
<path fill="none" stroke="midnightblue" d="M2185.75,-252.22C2354.1,-242.97 2834.17,-208.79 2754,-123 2707.21,-72.93 2228.91,-71.14 2064.86,-72.02"/>
<polygon fill="midnightblue" stroke="midnightblue" points="2064.5,-68.52 2054.52,-72.08 2064.54,-75.52 2064.5,-68.52"/>
</g>
<!-- Node35&#45;&gt;Node13 -->
<g id="edge67" class="edge">
<title>Node35&#45;&gt;Node13</title>
<path fill="none" stroke="midnightblue" d="M405.34,-307.98C369.07,-297.55 307.54,-279.86 267.34,-268.31"/>
<polygon fill="midnightblue" stroke="midnightblue" points="268.18,-264.91 257.6,-265.51 266.25,-271.64 268.18,-264.91"/>
</g>
<!-- Node36 -->
<g id="node36" class="node">
<title>Node36</title>
<g id="a_node36"><a xlink:href="cp15_8hpp.html" target="_top" xlink:title=" ">
<polygon fill="none" stroke="black" points="292,-246.5 292,-265.5 420,-265.5 420,-246.5 292,-246.5"/>
<text text-anchor="middle" x="356" y="-253.5" font-family="Helvetica,sans-Serif" font-size="10.00">coprocessors/cp15.hpp</text>
</a>
</g>
</g>
<!-- Node35&#45;&gt;Node36 -->
<g id="edge56" class="edge">
<title>Node35&#45;&gt;Node36</title>
<path fill="none" stroke="midnightblue" d="M423.68,-307.98C411.13,-298.52 390.65,-283.1 375.5,-271.69"/>
<polygon fill="midnightblue" stroke="midnightblue" points="377.39,-268.73 367.3,-265.51 373.18,-274.32 377.39,-268.73"/>
</g>
<!-- Node39 -->
<g id="node39" class="node">
<title>Node39</title>
<g id="a_node39"><a xlink:href="peripheral_8hpp.html" target="_top" xlink:title="This file defines an interface for a memory&#45;mapped peripheral.">
<polygon fill="none" stroke="black" points="438.5,-246.5 438.5,-265.5 583.5,-265.5 583.5,-246.5 438.5,-246.5"/>
<text text-anchor="middle" x="511" y="-253.5" font-family="Helvetica,sans-Serif" font-size="10.00">peripherals/peripheral.hpp</text>
</a>
</g>
</g>
<!-- Node35&#45;&gt;Node39 -->
<g id="edge66" class="edge">
<title>Node35&#45;&gt;Node39</title>
<path fill="none" stroke="midnightblue" d="M445.89,-307.98C457.97,-298.52 477.67,-283.1 492.24,-271.69"/>
<polygon fill="midnightblue" stroke="midnightblue" points="494.41,-274.43 500.13,-265.51 490.1,-268.92 494.41,-274.43"/>
</g>
<!-- Node36&#45;&gt;Node5 -->
<g id="edge65" class="edge">
<title>Node36&#45;&gt;Node5</title>
<path fill="none" stroke="midnightblue" d="M355.71,-246.2C354.83,-219.39 352.16,-138.09 350.8,-96.93"/>
<polygon fill="midnightblue" stroke="midnightblue" points="354.29,-96.57 350.47,-86.69 347.3,-96.8 354.29,-96.57"/>
</g>
<!-- Node36&#45;&gt;Node7 -->
<g id="edge57" class="edge">
<title>Node36&#45;&gt;Node7</title>
<path fill="none" stroke="midnightblue" d="M417.92,-246.48C441.04,-240.15 465.43,-229.15 481,-210 524.08,-157 517.65,-68.7 512.24,-30.07"/>
<polygon fill="midnightblue" stroke="midnightblue" points="515.63,-29.12 510.64,-19.77 508.71,-30.19 515.63,-29.12"/>
</g>
<!-- Node37 -->
<g id="node37" class="node">
<title>Node37</title>
<g id="a_node37"><a xlink:title=" ">
<polygon fill="none" stroke="#bfbfbf" points="378.5,-190.5 378.5,-209.5 471.5,-209.5 471.5,-190.5 378.5,-190.5"/>
<text text-anchor="middle" x="425" y="-197.5" font-family="Helvetica,sans-Serif" font-size="10.00">unordered_map</text>
</a>
</g>
</g>
<!-- Node36&#45;&gt;Node37 -->
<g id="edge58" class="edge">
<title>Node36&#45;&gt;Node37</title>
<path fill="none" stroke="midnightblue" d="M367.09,-246.32C377.49,-238.18 393.26,-225.84 405.72,-216.09"/>
<polygon fill="midnightblue" stroke="midnightblue" points="407.99,-218.75 413.71,-209.83 403.68,-213.24 407.99,-218.75"/>
</g>
<!-- Node38 -->
<g id="node38" class="node">
<title>Node38</title>
<g id="a_node38"><a xlink:href="coprocessor_8hpp.html" target="_top" xlink:title=" ">
<polygon fill="none" stroke="black" points="716.5,-190.5 716.5,-209.5 811.5,-209.5 811.5,-190.5 716.5,-190.5"/>
<text text-anchor="middle" x="764" y="-197.5" font-family="Helvetica,sans-Serif" font-size="10.00">coprocessor.hpp</text>
</a>
</g>
</g>
<!-- Node36&#45;&gt;Node38 -->
<g id="edge59" class="edge">
<title>Node36&#45;&gt;Node38</title>
<path fill="none" stroke="midnightblue" d="M420.2,-246.5C498.75,-236.11 630.59,-218.66 706.14,-208.66"/>
<polygon fill="midnightblue" stroke="midnightblue" points="706.96,-212.08 716.41,-207.3 706.04,-205.14 706.96,-212.08"/>
</g>
<!-- Node38&#45;&gt;Node8 -->
<g id="edge60" class="edge">
<title>Node38&#45;&gt;Node8</title>
<path fill="none" stroke="midnightblue" d="M724.79,-190.45C702.84,-183.84 676.45,-172.57 659,-154 625.7,-118.56 613.91,-59.92 609.92,-29.94"/>
<polygon fill="midnightblue" stroke="midnightblue" points="613.35,-29.16 608.71,-19.63 606.4,-29.97 613.35,-29.16"/>
</g>
<!-- Node38&#45;&gt;Node12 -->
<g id="edge61" class="edge">
<title>Node38&#45;&gt;Node12</title>
<path fill="none" stroke="midnightblue" d="M736.78,-190.48C703.76,-180.14 647.96,-162.66 611.05,-151.1"/>
<polygon fill="midnightblue" stroke="midnightblue" points="611.76,-147.66 601.17,-148.01 609.67,-154.34 611.76,-147.66"/>
</g>
<!-- Node38&#45;&gt;Node28 -->
<g id="edge62" class="edge">
<title>Node38&#45;&gt;Node28</title>
<path fill="none" stroke="midnightblue" d="M786.35,-190.48C809.06,-181.81 844.9,-168.15 873.75,-157.14"/>
<polygon fill="midnightblue" stroke="midnightblue" points="875.14,-160.36 883.23,-153.52 872.64,-153.82 875.14,-160.36"/>
</g>
<!-- Node38&#45;&gt;Node29 -->
<g id="edge63" class="edge">
<title>Node38&#45;&gt;Node29</title>
<path fill="none" stroke="midnightblue" d="M809.28,-190.48C866.18,-179.76 963.79,-161.38 1024.95,-149.87"/>
<polygon fill="midnightblue" stroke="midnightblue" points="1025.63,-153.3 1034.81,-148.01 1024.33,-146.42 1025.63,-153.3"/>
</g>
<!-- Node38&#45;&gt;Node30 -->
<g id="edge64" class="edge">
<title>Node38&#45;&gt;Node30</title>
<path fill="none" stroke="midnightblue" d="M762.71,-190.48C761.44,-182.08 759.46,-168.98 757.82,-158.16"/>
<polygon fill="midnightblue" stroke="midnightblue" points="761.24,-157.37 756.29,-148.01 754.32,-158.42 761.24,-157.37"/>
</g>
<!-- Node41&#45;&gt;Node5 -->
<g id="edge73" class="edge">
<title>Node41&#45;&gt;Node5</title>
<path fill="none" stroke="midnightblue" d="M599.62,-302.28C601.63,-287.3 602.65,-263.5 593,-246 549.63,-167.3 453.57,-115.63 396.07,-90.47"/>
<polygon fill="midnightblue" stroke="midnightblue" points="397.41,-87.23 386.84,-86.51 394.65,-93.67 397.41,-87.23"/>
</g>
<!-- Node41&#45;&gt;Node12 -->
<g id="edge72" class="edge">
<title>Node41&#45;&gt;Node12</title>
<path fill="none" stroke="midnightblue" d="M607.81,-302.37C614.49,-292.71 622.46,-279.29 626,-266 628.29,-257.41 628,-254.66 626,-246 618.2,-212.25 598.17,-176.84 585.37,-156.54"/>
<polygon fill="midnightblue" stroke="midnightblue" points="588.28,-154.59 579.91,-148.1 582.41,-158.4 588.28,-154.59"/>
</g>
<!-- Node41&#45;&gt;Node39 -->
<g id="edge71" class="edge">
<title>Node41&#45;&gt;Node39</title>
<path fill="none" stroke="midnightblue" d="M576.62,-302.4C563.09,-293.04 545.39,-280.79 531.78,-271.38"/>
<polygon fill="midnightblue" stroke="midnightblue" points="533.73,-268.47 523.51,-265.66 529.75,-274.23 533.73,-268.47"/>
</g>
</g>
</svg>
