<?xml version="1.0" encoding="UTF-8" standalone="no"?>
<!DOCTYPE svg PUBLIC "-//W3C//DTD SVG 1.1//EN"
 "http://www.w3.org/Graphics/SVG/1.1/DTD/svg11.dtd">
<!-- Generated by graphviz version 2.43.0 (0)
 -->
<!-- Title: src/core/coprocessors/cp10/isa/data_processing.hpp Pages: 1 -->
<svg width="534pt" height="307pt"
 viewBox="0.00 0.00 534.00 307.00" xmlns="http://www.w3.org/2000/svg" xmlns:xlink="http://www.w3.org/1999/xlink">
<g id="graph0" class="graph" transform="scale(1 1) rotate(0) translate(4 303)">
<title>src/core/coprocessors/cp10/isa/data_processing.hpp</title>
<!-- Node1 -->
<g id="node1" class="node">
<title>Node1</title>
<g id="a_node1"><a xlink:title="This file defines a data processing instruction.">
<polygon fill="#bfbfbf" stroke="black" points="79.5,-268.5 79.5,-298.5 243.5,-298.5 243.5,-268.5 79.5,-268.5"/>
<text text-anchor="start" x="87.5" y="-286.5" font-family="Helvetica,sans-Serif" font-size="10.00">src/core/coprocessors</text>
<text text-anchor="middle" x="161.5" y="-275.5" font-family="Helvetica,sans-Serif" font-size="10.00">/cp10/isa/data_processing.hpp</text>
</a>
</g>
</g>
<!-- Node2 -->
<g id="node2" class="node">
<title>Node2</title>
<g id="a_node2"><a xlink:href="coprocessors_2cp10_2isa_2data__processing_8cpp.html" target="_top" xlink:title="This file implements a data processing instruction.">
<polygon fill="none" stroke="black" points="0,-201.5 0,-231.5 163,-231.5 163,-201.5 0,-201.5"/>
<text text-anchor="start" x="8" y="-219.5" font-family="Helvetica,sans-Serif" font-size="10.00">src/core/coprocessors</text>
<text text-anchor="middle" x="81.5" y="-208.5" font-family="Helvetica,sans-Serif" font-size="10.00">/cp10/isa/data_processing.cpp</text>
</a>
</g>
</g>
<!-- Node1&#45;&gt;Node2 -->
<g id="edge1" class="edge">
<title>Node1&#45;&gt;Node2</title>
<path fill="none" stroke="midnightblue" d="M136.13,-261.88C123.97,-252.01 109.72,-240.43 98.82,-231.58"/>
<polygon fill="midnightblue" stroke="midnightblue" points="134.17,-264.81 144.14,-268.4 138.59,-259.37 134.17,-264.81"/>
</g>
<!-- Node3 -->
<g id="node3" class="node">
<title>Node3</title>
<g id="a_node3"><a xlink:href="coprocessors_2cp10_2isa_2isa_8hpp.html" target="_top" xlink:title="This file combines different instruction type includes together.">
<polygon fill="none" stroke="black" points="181.5,-201.5 181.5,-231.5 303.5,-231.5 303.5,-201.5 181.5,-201.5"/>
<text text-anchor="start" x="189.5" y="-219.5" font-family="Helvetica,sans-Serif" font-size="10.00">src/core/coprocessors</text>
<text text-anchor="middle" x="242.5" y="-208.5" font-family="Helvetica,sans-Serif" font-size="10.00">/cp10/isa/isa.hpp</text>
</a>
</g>
</g>
<!-- Node1&#45;&gt;Node3 -->
<g id="edge2" class="edge">
<title>Node1&#45;&gt;Node3</title>
<path fill="none" stroke="midnightblue" d="M187.19,-261.88C199.5,-252.01 213.93,-240.43 224.96,-231.58"/>
<polygon fill="midnightblue" stroke="midnightblue" points="184.68,-259.41 179.08,-268.4 189.07,-264.87 184.68,-259.41"/>
</g>
<!-- Node4 -->
<g id="node4" class="node">
<title>Node4</title>
<g id="a_node4"><a xlink:href="cp10_8hpp.html" target="_top" xlink:title="This file defines coprocessor CP10 (single&#45;precision FPU).">
<polygon fill="none" stroke="black" points="181.5,-134.5 181.5,-164.5 303.5,-164.5 303.5,-134.5 181.5,-134.5"/>
<text text-anchor="start" x="189.5" y="-152.5" font-family="Helvetica,sans-Serif" font-size="10.00">src/core/coprocessors</text>
<text text-anchor="middle" x="242.5" y="-141.5" font-family="Helvetica,sans-Serif" font-size="10.00">/cp10/cp10.hpp</text>
</a>
</g>
</g>
<!-- Node3&#45;&gt;Node4 -->
<g id="edge3" class="edge">
<title>Node3&#45;&gt;Node4</title>
<path fill="none" stroke="midnightblue" d="M242.5,-191.11C242.5,-182.15 242.5,-172.32 242.5,-164.58"/>
<polygon fill="midnightblue" stroke="midnightblue" points="239,-191.4 242.5,-201.4 246,-191.4 239,-191.4"/>
</g>
<!-- Node5 -->
<g id="node5" class="node">
<title>Node5</title>
<g id="a_node5"><a xlink:href="cp10_8cpp.html" target="_top" xlink:title="This file implements coprocessor CP10 (single&#45;precision FPU).">
<polygon fill="none" stroke="black" points="54.5,-67.5 54.5,-97.5 176.5,-97.5 176.5,-67.5 54.5,-67.5"/>
<text text-anchor="start" x="62.5" y="-85.5" font-family="Helvetica,sans-Serif" font-size="10.00">src/core/coprocessors</text>
<text text-anchor="middle" x="115.5" y="-74.5" font-family="Helvetica,sans-Serif" font-size="10.00">/cp10/cp10.cpp</text>
</a>
</g>
</g>
<!-- Node4&#45;&gt;Node5 -->
<g id="edge4" class="edge">
<title>Node4&#45;&gt;Node5</title>
<path fill="none" stroke="midnightblue" d="M205.8,-129.71C185.77,-119.46 161.38,-106.98 143,-97.58"/>
<polygon fill="midnightblue" stroke="midnightblue" points="204.45,-132.96 214.94,-134.4 207.64,-126.72 204.45,-132.96"/>
</g>
<!-- Node6 -->
<g id="node6" class="node">
<title>Node6</title>
<g id="a_node6"><a xlink:href="soc_8hpp.html" target="_top" xlink:title=" ">
<polygon fill="none" stroke="black" points="195,-73 195,-92 290,-92 290,-73 195,-73"/>
<text text-anchor="middle" x="242.5" y="-80" font-family="Helvetica,sans-Serif" font-size="10.00">src/core/soc.hpp</text>
</a>
</g>
</g>
<!-- Node4&#45;&gt;Node6 -->
<g id="edge5" class="edge">
<title>Node4&#45;&gt;Node6</title>
<path fill="none" stroke="midnightblue" d="M242.5,-124.25C242.5,-113.02 242.5,-100.38 242.5,-92.19"/>
<polygon fill="midnightblue" stroke="midnightblue" points="239,-124.4 242.5,-134.4 246,-124.4 239,-124.4"/>
</g>
<!-- Node10 -->
<g id="node10" class="node">
<title>Node10</title>
<g id="a_node10"><a xlink:href="cp10__window_8hpp.html" target="_top" xlink:title="This file defines a window that displays data (information) related to coprocessor 10 (FPU).">
<polygon fill="none" stroke="black" points="308,-67.5 308,-97.5 429,-97.5 429,-67.5 308,-67.5"/>
<text text-anchor="start" x="316" y="-85.5" font-family="Helvetica,sans-Serif" font-size="10.00">src/gui/windows/cp10</text>
<text text-anchor="middle" x="368.5" y="-74.5" font-family="Helvetica,sans-Serif" font-size="10.00">_window.hpp</text>
</a>
</g>
</g>
<!-- Node4&#45;&gt;Node10 -->
<g id="edge9" class="edge">
<title>Node4&#45;&gt;Node10</title>
<path fill="none" stroke="midnightblue" d="M278.92,-129.71C298.79,-119.46 322.98,-106.98 341.21,-97.58"/>
<polygon fill="midnightblue" stroke="midnightblue" points="277.12,-126.7 269.84,-134.4 280.33,-132.92 277.12,-126.7"/>
</g>
<!-- Node7 -->
<g id="node7" class="node">
<title>Node7</title>
<g id="a_node7"><a xlink:href="soc_8cpp.html" target="_top" xlink:title=" ">
<polygon fill="none" stroke="black" points="90,-6 90,-25 185,-25 185,-6 90,-6"/>
<text text-anchor="middle" x="137.5" y="-13" font-family="Helvetica,sans-Serif" font-size="10.00">src/core/soc.cpp</text>
</a>
</g>
</g>
<!-- Node6&#45;&gt;Node7 -->
<g id="edge6" class="edge">
<title>Node6&#45;&gt;Node7</title>
<path fill="none" stroke="midnightblue" d="M219.79,-67.44C199,-54.57 168.88,-35.93 151.44,-25.13"/>
<polygon fill="midnightblue" stroke="midnightblue" points="217.99,-70.45 228.34,-72.73 221.68,-64.49 217.99,-70.45"/>
</g>
<!-- Node8 -->
<g id="node8" class="node">
<title>Node8</title>
<g id="a_node8"><a xlink:href="gui_8cpp.html" target="_top" xlink:title="This file implements the main GUI entry function that takes care of creating and rendering all window...">
<polygon fill="none" stroke="black" points="300,-6 300,-25 387,-25 387,-6 300,-6"/>
<text text-anchor="middle" x="343.5" y="-13" font-family="Helvetica,sans-Serif" font-size="10.00">src/gui/gui.cpp</text>
</a>
</g>
</g>
<!-- Node6&#45;&gt;Node8 -->
<g id="edge7" class="edge">
<title>Node6&#45;&gt;Node8</title>
<path fill="none" stroke="midnightblue" d="M264.61,-67.27C284.61,-54.4 313.39,-35.88 330.09,-25.13"/>
<polygon fill="midnightblue" stroke="midnightblue" points="262.64,-64.38 256.12,-72.73 266.42,-70.27 262.64,-64.38"/>
</g>
<!-- Node9 -->
<g id="node9" class="node">
<title>Node9</title>
<g id="a_node9"><a xlink:href="main_8cpp.html" target="_top" xlink:title="This file defines and implements the main function of the application.">
<polygon fill="none" stroke="black" points="203,-6 203,-25 282,-25 282,-6 203,-6"/>
<text text-anchor="middle" x="242.5" y="-13" font-family="Helvetica,sans-Serif" font-size="10.00">src/main.cpp</text>
</a>
</g>
</g>
<!-- Node6&#45;&gt;Node9 -->
<g id="edge8" class="edge">
<title>Node6&#45;&gt;Node9</title>
<path fill="none" stroke="midnightblue" d="M242.5,-62.54C242.5,-50.17 242.5,-34.62 242.5,-25.13"/>
<polygon fill="midnightblue" stroke="midnightblue" points="239,-62.73 242.5,-72.73 246,-62.73 239,-62.73"/>
</g>
<!-- Node10&#45;&gt;Node8 -->
<g id="edge10" class="edge">
<title>Node10&#45;&gt;Node8</title>
<path fill="none" stroke="midnightblue" d="M359.44,-57.94C355.05,-46.54 350.06,-33.55 346.84,-25.19"/>
<polygon fill="midnightblue" stroke="midnightblue" points="356.22,-59.32 363.08,-67.4 362.75,-56.81 356.22,-59.32"/>
</g>
<!-- Node11 -->
<g id="node11" class="node">
<title>Node11</title>
<g id="a_node11"><a xlink:href="cp10__window_8cpp.html" target="_top" xlink:title="This file implements a window that displays data (information) related to coprocessor 10 (FPU).">
<polygon fill="none" stroke="black" points="405,-0.5 405,-30.5 526,-30.5 526,-0.5 405,-0.5"/>
<text text-anchor="start" x="413" y="-18.5" font-family="Helvetica,sans-Serif" font-size="10.00">src/gui/windows/cp10</text>
<text text-anchor="middle" x="465.5" y="-7.5" font-family="Helvetica,sans-Serif" font-size="10.00">_window.cpp</text>
</a>
</g>
</g>
<!-- Node10&#45;&gt;Node11 -->
<g id="edge11" class="edge">
<title>Node10&#45;&gt;Node11</title>
<path fill="none" stroke="midnightblue" d="M398,-61.73C413.01,-51.68 430.9,-39.68 444.49,-30.58"/>
<polygon fill="midnightblue" stroke="midnightblue" points="395.91,-58.92 389.55,-67.4 399.8,-64.74 395.91,-58.92"/>
</g>
</g>
</svg>
