<?xml version="1.0" encoding="UTF-8" standalone="no"?>
<!DOCTYPE svg PUBLIC "-//W3C//DTD SVG 1.1//EN"
 "http://www.w3.org/Graphics/SVG/1.1/DTD/svg11.dtd">
<!-- Generated by graphviz version 2.43.0 (0)
 -->
<!-- Title: src/core/coprocessors/cp10/isa/isa.hpp Pages: 1 -->
<svg width="570pt" height="106pt"
 viewBox="0.00 0.00 570.00 106.00" xmlns="http://www.w3.org/2000/svg" xmlns:xlink="http://www.w3.org/1999/xlink">
<g id="graph0" class="graph" transform="scale(1 1) rotate(0) translate(4 102)">
<title>src/core/coprocessors/cp10/isa/isa.hpp</title>
<!-- Node1 -->
<g id="node1" class="node">
<title>Node1</title>
<g id="a_node1"><a xlink:title="This file combines different instruction type includes together.">
<polygon fill="#bfbfbf" stroke="black" points="158,-67.5 158,-97.5 280,-97.5 280,-67.5 158,-67.5"/>
<text text-anchor="start" x="166" y="-85.5" font-family="Helvetica,sans-Serif" font-size="10.00">src/core/coprocessors</text>
<text text-anchor="middle" x="219" y="-74.5" font-family="Helvetica,sans-Serif" font-size="10.00">/cp10/isa/isa.hpp</text>
</a>
</g>
</g>
<!-- Node2 -->
<g id="node2" class="node">
<title>Node2</title>
<g id="a_node2"><a xlink:href="vmsr_8hpp.html" target="_top" xlink:title="This file defines a VMSR instruction (ARM register to a special FPU register).">
<polygon fill="none" stroke="black" points="0,-6 0,-25 62,-25 62,-6 0,-6"/>
<text text-anchor="middle" x="31" y="-13" font-family="Helvetica,sans-Serif" font-size="10.00">vmsr.hpp</text>
</a>
</g>
</g>
<!-- Node1&#45;&gt;Node2 -->
<g id="edge1" class="edge">
<title>Node1&#45;&gt;Node2</title>
<path fill="none" stroke="midnightblue" d="M177.14,-67.45C147.46,-57.44 106.73,-43.57 71,-31 68.62,-30.16 66.17,-29.29 63.7,-28.41"/>
<polygon fill="midnightblue" stroke="midnightblue" points="64.83,-25.1 54.24,-25.01 62.47,-31.69 64.83,-25.1"/>
</g>
<!-- Node3 -->
<g id="node3" class="node">
<title>Node3</title>
<g id="a_node3"><a xlink:href="vmrs_8hpp.html" target="_top" xlink:title="This file defines a VMRS instruction (FPU special register to an ARM register).">
<polygon fill="none" stroke="black" points="80,-6 80,-25 142,-25 142,-6 80,-6"/>
<text text-anchor="middle" x="111" y="-13" font-family="Helvetica,sans-Serif" font-size="10.00">vmrs.hpp</text>
</a>
</g>
</g>
<!-- Node1&#45;&gt;Node3 -->
<g id="edge2" class="edge">
<title>Node1&#45;&gt;Node3</title>
<path fill="none" stroke="midnightblue" d="M195.57,-67.4C177.29,-56.39 152.04,-41.2 133.9,-30.28"/>
<polygon fill="midnightblue" stroke="midnightblue" points="135.51,-27.16 125.13,-25.01 131.9,-33.16 135.51,-27.16"/>
</g>
<!-- Node4 -->
<g id="node4" class="node">
<title>Node4</title>
<g id="a_node4"><a xlink:href="coprocessors_2cp10_2isa_2data__processing_8hpp.html" target="_top" xlink:title="This file defines a data processing instruction.">
<polygon fill="none" stroke="black" points="160.5,-6 160.5,-25 277.5,-25 277.5,-6 160.5,-6"/>
<text text-anchor="middle" x="219" y="-13" font-family="Helvetica,sans-Serif" font-size="10.00">data_processing.hpp</text>
</a>
</g>
</g>
<!-- Node1&#45;&gt;Node4 -->
<g id="edge3" class="edge">
<title>Node1&#45;&gt;Node4</title>
<path fill="none" stroke="midnightblue" d="M219,-67.4C219,-58.06 219,-45.71 219,-35.52"/>
<polygon fill="midnightblue" stroke="midnightblue" points="222.5,-35.19 219,-25.19 215.5,-35.19 222.5,-35.19"/>
</g>
<!-- Node5 -->
<g id="node5" class="node">
<title>Node5</title>
<g id="a_node5"><a xlink:href="data__transfer_8hpp.html" target="_top" xlink:title="This file defines a data transfer instruction.">
<polygon fill="none" stroke="black" points="296,-6 296,-25 398,-25 398,-6 296,-6"/>
<text text-anchor="middle" x="347" y="-13" font-family="Helvetica,sans-Serif" font-size="10.00">data_transfer.hpp</text>
</a>
</g>
</g>
<!-- Node1&#45;&gt;Node5 -->
<g id="edge4" class="edge">
<title>Node1&#45;&gt;Node5</title>
<path fill="none" stroke="midnightblue" d="M246.77,-67.4C268.94,-56.14 299.74,-40.5 321.33,-29.54"/>
<polygon fill="midnightblue" stroke="midnightblue" points="322.92,-32.66 330.25,-25.01 319.75,-26.41 322.92,-32.66"/>
</g>
<!-- Node6 -->
<g id="node6" class="node">
<title>Node6</title>
<g id="a_node6"><a xlink:href="vmov__arm__register__single__precision__register_8hpp.html" target="_top" xlink:title="This file defines a VMOV instruction between an ARM register and an FPU register.">
<polygon fill="none" stroke="black" points="416,-0.5 416,-30.5 562,-30.5 562,-0.5 416,-0.5"/>
<text text-anchor="start" x="424" y="-18.5" font-family="Helvetica,sans-Serif" font-size="10.00">vmov_arm_register_single</text>
<text text-anchor="middle" x="489" y="-7.5" font-family="Helvetica,sans-Serif" font-size="10.00">_precision_register.hpp</text>
</a>
</g>
</g>
<!-- Node1&#45;&gt;Node6 -->
<g id="edge5" class="edge">
<title>Node1&#45;&gt;Node6</title>
<path fill="none" stroke="midnightblue" d="M277.25,-67.48C319.34,-57.34 376.32,-43.63 420.58,-32.97"/>
<polygon fill="midnightblue" stroke="midnightblue" points="421.48,-36.35 430.39,-30.61 419.84,-29.55 421.48,-36.35"/>
</g>
</g>
</svg>
