<?xml version="1.0" encoding="UTF-8" standalone="no"?>
<!DOCTYPE svg PUBLIC "-//W3C//DTD SVG 1.1//EN"
 "http://www.w3.org/Graphics/SVG/1.1/DTD/svg11.dtd">
<!-- Generated by graphviz version 2.43.0 (0)
 -->
<!-- Title: src/core/coprocessors/coprocessor.hpp Pages: 1 -->
<svg width="1246pt" height="441pt"
 viewBox="0.00 0.00 1245.50 441.00" xmlns="http://www.w3.org/2000/svg" xmlns:xlink="http://www.w3.org/1999/xlink">
<g id="graph0" class="graph" transform="scale(1 1) rotate(0) translate(4 437)">
<title>src/core/coprocessors/coprocessor.hpp</title>
<!-- Node1 -->
<g id="node1" class="node">
<title>Node1</title>
<g id="a_node1"><a xlink:title="This file defines a general interface of a coprocessor.">
<polygon fill="#bfbfbf" stroke="black" points="820.5,-402.5 820.5,-432.5 942.5,-432.5 942.5,-402.5 820.5,-402.5"/>
<text text-anchor="start" x="828.5" y="-420.5" font-family="Helvetica,sans-Serif" font-size="10.00">src/core/coprocessors</text>
<text text-anchor="middle" x="881.5" y="-409.5" font-family="Helvetica,sans-Serif" font-size="10.00">/coprocessor.hpp</text>
</a>
</g>
</g>
<!-- Node2 -->
<g id="node2" class="node">
<title>Node2</title>
<g id="a_node2"><a xlink:href="coprocessor_8cpp.html" target="_top" xlink:title="This file implements the common functionality of a general interface of a coprocessor.">
<polygon fill="none" stroke="black" points="680.5,-335.5 680.5,-365.5 802.5,-365.5 802.5,-335.5 680.5,-335.5"/>
<text text-anchor="start" x="688.5" y="-353.5" font-family="Helvetica,sans-Serif" font-size="10.00">src/core/coprocessors</text>
<text text-anchor="middle" x="741.5" y="-342.5" font-family="Helvetica,sans-Serif" font-size="10.00">/coprocessor.cpp</text>
</a>
</g>
</g>
<!-- Node1&#45;&gt;Node2 -->
<g id="edge1" class="edge">
<title>Node1&#45;&gt;Node2</title>
<path fill="none" stroke="midnightblue" d="M841.93,-398.13C819.69,-387.8 792.35,-375.11 771.82,-365.58"/>
<polygon fill="midnightblue" stroke="midnightblue" points="840.58,-401.36 851.12,-402.4 843.53,-395.01 840.58,-401.36"/>
</g>
<!-- Node3 -->
<g id="node3" class="node">
<title>Node3</title>
<g id="a_node3"><a xlink:href="cp15_8hpp.html" target="_top" xlink:title="This file defines coprocessor CP15.">
<polygon fill="none" stroke="black" points="820.5,-335.5 820.5,-365.5 942.5,-365.5 942.5,-335.5 820.5,-335.5"/>
<text text-anchor="start" x="828.5" y="-353.5" font-family="Helvetica,sans-Serif" font-size="10.00">src/core/coprocessors</text>
<text text-anchor="middle" x="881.5" y="-342.5" font-family="Helvetica,sans-Serif" font-size="10.00">/cp15/cp15.hpp</text>
</a>
</g>
</g>
<!-- Node1&#45;&gt;Node3 -->
<g id="edge2" class="edge">
<title>Node1&#45;&gt;Node3</title>
<path fill="none" stroke="midnightblue" d="M881.5,-392.11C881.5,-383.15 881.5,-373.32 881.5,-365.58"/>
<polygon fill="midnightblue" stroke="midnightblue" points="878,-392.4 881.5,-402.4 885,-392.4 878,-392.4"/>
</g>
<!-- Node27 -->
<g id="node27" class="node">
<title>Node27</title>
<g id="a_node27"><a xlink:href="fpu_8hpp.html" target="_top" xlink:title=" ">
<polygon fill="none" stroke="black" points="1026.5,-335.5 1026.5,-365.5 1148.5,-365.5 1148.5,-335.5 1026.5,-335.5"/>
<text text-anchor="start" x="1034.5" y="-353.5" font-family="Helvetica,sans-Serif" font-size="10.00">src/core/coprocessors</text>
<text text-anchor="middle" x="1087.5" y="-342.5" font-family="Helvetica,sans-Serif" font-size="10.00">/fpu/fpu.hpp</text>
</a>
</g>
</g>
<!-- Node1&#45;&gt;Node27 -->
<g id="edge40" class="edge">
<title>Node1&#45;&gt;Node27</title>
<path fill="none" stroke="midnightblue" d="M935.55,-399.44C968.95,-388.91 1011.28,-375.55 1042.78,-365.61"/>
<polygon fill="midnightblue" stroke="midnightblue" points="934.43,-396.13 925.95,-402.48 936.54,-402.8 934.43,-396.13"/>
</g>
<!-- Node4 -->
<g id="node4" class="node">
<title>Node4</title>
<g id="a_node4"><a xlink:href="mmu_8hpp.html" target="_top" xlink:title="This file defines the MMU (memory management unit) of the CPU.">
<polygon fill="none" stroke="black" points="847,-201.5 847,-231.5 960,-231.5 960,-201.5 847,-201.5"/>
<text text-anchor="start" x="855" y="-219.5" font-family="Helvetica,sans-Serif" font-size="10.00">src/core/arm1176jzf</text>
<text text-anchor="middle" x="903.5" y="-208.5" font-family="Helvetica,sans-Serif" font-size="10.00">_s/mmu/mmu.hpp</text>
</a>
</g>
</g>
<!-- Node3&#45;&gt;Node4 -->
<g id="edge3" class="edge">
<title>Node3&#45;&gt;Node4</title>
<path fill="none" stroke="midnightblue" d="M896.27,-326.47C900.81,-318.15 905.21,-308.47 907.5,-299 913.1,-275.87 909.63,-248 906.58,-231.57"/>
<polygon fill="midnightblue" stroke="midnightblue" points="893.2,-324.8 891.2,-335.21 899.25,-328.32 893.2,-324.8"/>
</g>
<!-- Node7 -->
<g id="node7" class="node">
<title>Node7</title>
<g id="a_node7"><a xlink:href="soc_8hpp.html" target="_top" xlink:title=" ">
<polygon fill="none" stroke="black" points="1040,-73 1040,-92 1135,-92 1135,-73 1040,-73"/>
<text text-anchor="middle" x="1087.5" y="-80" font-family="Helvetica,sans-Serif" font-size="10.00">src/core/soc.hpp</text>
</a>
</g>
</g>
<!-- Node3&#45;&gt;Node7 -->
<g id="edge36" class="edge">
<title>Node3&#45;&gt;Node7</title>
<path fill="none" stroke="midnightblue" d="M900,-327.5C907.36,-318.68 915.88,-308.4 923.5,-299 971.34,-240.03 983.92,-225.73 1029.5,-165 1049.1,-138.89 1071.19,-107.17 1081.55,-92.17"/>
<polygon fill="midnightblue" stroke="midnightblue" points="897.09,-325.51 893.36,-335.43 902.46,-330.01 897.09,-325.51"/>
</g>
<!-- Node20 -->
<g id="node20" class="node">
<title>Node20</title>
<g id="a_node20"><a xlink:href="bus_8hpp.html" target="_top" xlink:title="This file defines an interface the CPU uses to access different memory&#45;mapped peripherals.">
<polygon fill="none" stroke="black" points="662.5,-274 662.5,-293 758.5,-293 758.5,-274 662.5,-274"/>
<text text-anchor="middle" x="710.5" y="-281" font-family="Helvetica,sans-Serif" font-size="10.00">src/core/bus.hpp</text>
</a>
</g>
</g>
<!-- Node3&#45;&gt;Node20 -->
<g id="edge24" class="edge">
<title>Node3&#45;&gt;Node20</title>
<path fill="none" stroke="midnightblue" d="M834.89,-331.78C801.74,-319.18 758.66,-302.81 732.88,-293.01"/>
<polygon fill="midnightblue" stroke="midnightblue" points="833.8,-335.11 844.4,-335.4 836.29,-328.57 833.8,-335.11"/>
</g>
<!-- Node24 -->
<g id="node24" class="node">
<title>Node24</title>
<g id="a_node24"><a xlink:href="cp15_8cpp.html" target="_top" xlink:title="This file implements coprocessor CP15.">
<polygon fill="none" stroke="black" points="776.5,-268.5 776.5,-298.5 898.5,-298.5 898.5,-268.5 776.5,-268.5"/>
<text text-anchor="start" x="784.5" y="-286.5" font-family="Helvetica,sans-Serif" font-size="10.00">src/core/coprocessors</text>
<text text-anchor="middle" x="837.5" y="-275.5" font-family="Helvetica,sans-Serif" font-size="10.00">/cp15/cp15.cpp</text>
</a>
</g>
</g>
<!-- Node3&#45;&gt;Node24 -->
<g id="edge35" class="edge">
<title>Node3&#45;&gt;Node24</title>
<path fill="none" stroke="midnightblue" d="M866.18,-326.87C859.81,-317.46 852.62,-306.83 847.03,-298.58"/>
<polygon fill="midnightblue" stroke="midnightblue" points="863.45,-329.08 871.95,-335.4 869.25,-325.15 863.45,-329.08"/>
</g>
<!-- Node25 -->
<g id="node25" class="node">
<title>Node25</title>
<g id="a_node25"><a xlink:href="cp15__window_8hpp.html" target="_top" xlink:title="This file defines a window that displays data (information) related to coprocessor 15.">
<polygon fill="none" stroke="black" points="89,-268.5 89,-298.5 210,-298.5 210,-268.5 89,-268.5"/>
<text text-anchor="start" x="97" y="-286.5" font-family="Helvetica,sans-Serif" font-size="10.00">src/gui/windows/cp15</text>
<text text-anchor="middle" x="149.5" y="-275.5" font-family="Helvetica,sans-Serif" font-size="10.00">_window.hpp</text>
</a>
</g>
</g>
<!-- Node3&#45;&gt;Node25 -->
<g id="edge37" class="edge">
<title>Node3&#45;&gt;Node25</title>
<path fill="none" stroke="midnightblue" d="M810.4,-334.97C583.51,-303.54 325.11,-290.93 210.02,-286.52"/>
<polygon fill="midnightblue" stroke="midnightblue" points="810.11,-338.46 820.5,-336.38 811.08,-331.53 810.11,-338.46"/>
</g>
<!-- Node5 -->
<g id="node5" class="node">
<title>Node5</title>
<g id="a_node5"><a xlink:href="core_8hpp.html" target="_top" xlink:title="This file defines a class that represents a CPU core (arm1176jzf_s).">
<polygon fill="none" stroke="black" points="677,-134.5 677,-164.5 790,-164.5 790,-134.5 677,-134.5"/>
<text text-anchor="start" x="685" y="-152.5" font-family="Helvetica,sans-Serif" font-size="10.00">src/core/arm1176jzf</text>
<text text-anchor="middle" x="733.5" y="-141.5" font-family="Helvetica,sans-Serif" font-size="10.00">_s/core.hpp</text>
</a>
</g>
</g>
<!-- Node4&#45;&gt;Node5 -->
<g id="edge4" class="edge">
<title>Node4&#45;&gt;Node5</title>
<path fill="none" stroke="midnightblue" d="M857.26,-197.82C829.93,-187.37 795.81,-174.32 770.32,-164.58"/>
<polygon fill="midnightblue" stroke="midnightblue" points="856.02,-201.09 866.61,-201.4 858.52,-194.56 856.02,-201.09"/>
</g>
<!-- Node4&#45;&gt;Node7 -->
<g id="edge23" class="edge">
<title>Node4&#45;&gt;Node7</title>
<path fill="none" stroke="midnightblue" d="M894.39,-191.87C889.23,-174.16 886.01,-150.26 898.5,-134 899.71,-132.42 1000.54,-106.07 1054.41,-92.07"/>
<polygon fill="midnightblue" stroke="midnightblue" points="891.11,-193.08 897.55,-201.49 897.76,-190.9 891.11,-193.08"/>
</g>
<!-- Node19 -->
<g id="node19" class="node">
<title>Node19</title>
<g id="a_node19"><a xlink:href="mmu_8cpp.html" target="_top" xlink:title="This file implements the MMU (memory management unit) of the CPU.">
<polygon fill="none" stroke="black" points="908,-134.5 908,-164.5 1021,-164.5 1021,-134.5 908,-134.5"/>
<text text-anchor="start" x="916" y="-152.5" font-family="Helvetica,sans-Serif" font-size="10.00">src/core/arm1176jzf</text>
<text text-anchor="middle" x="964.5" y="-141.5" font-family="Helvetica,sans-Serif" font-size="10.00">_s/mmu/mmu.cpp</text>
</a>
</g>
</g>
<!-- Node4&#45;&gt;Node19 -->
<g id="edge22" class="edge">
<title>Node4&#45;&gt;Node19</title>
<path fill="none" stroke="midnightblue" d="M923.65,-194.02C932.74,-184.34 943.22,-173.17 951.29,-164.58"/>
<polygon fill="midnightblue" stroke="midnightblue" points="921.03,-191.71 916.74,-201.4 926.13,-196.5 921.03,-191.71"/>
</g>
<!-- Node6 -->
<g id="node6" class="node">
<title>Node6</title>
<g id="a_node6"><a xlink:href="core_8cpp.html" target="_top" xlink:title="This file implements the CCPU_Core class defined in core.hpp.">
<polygon fill="none" stroke="black" points="601,-67.5 601,-97.5 714,-97.5 714,-67.5 601,-67.5"/>
<text text-anchor="start" x="609" y="-85.5" font-family="Helvetica,sans-Serif" font-size="10.00">src/core/arm1176jzf</text>
<text text-anchor="middle" x="657.5" y="-74.5" font-family="Helvetica,sans-Serif" font-size="10.00">_s/core.cpp</text>
</a>
</g>
</g>
<!-- Node5&#45;&gt;Node6 -->
<g id="edge5" class="edge">
<title>Node5&#45;&gt;Node6</title>
<path fill="none" stroke="midnightblue" d="M709.39,-127.88C697.84,-118.01 684.31,-106.43 673.96,-97.58"/>
<polygon fill="midnightblue" stroke="midnightblue" points="707.13,-130.56 717.01,-134.4 711.68,-125.24 707.13,-130.56"/>
</g>
<!-- Node5&#45;&gt;Node7 -->
<g id="edge6" class="edge">
<title>Node5&#45;&gt;Node7</title>
<path fill="none" stroke="midnightblue" d="M800.05,-134.82C801.54,-134.54 803.03,-134.27 804.5,-134 904.57,-115.82 930.89,-118.56 1030.5,-98 1038.8,-96.29 1047.71,-94.16 1055.96,-92.07"/>
<polygon fill="midnightblue" stroke="midnightblue" points="799.21,-131.42 790.04,-136.72 800.52,-138.29 799.21,-131.42"/>
</g>
<!-- Node11 -->
<g id="node11" class="node">
<title>Node11</title>
<g id="a_node11"><a xlink:href="control__window_8hpp.html" target="_top" xlink:title="This file defines a window that allows the user to control CPU execution.">
<polygon fill="none" stroke="black" points="732,-67.5 732,-97.5 863,-97.5 863,-67.5 732,-67.5"/>
<text text-anchor="start" x="740" y="-85.5" font-family="Helvetica,sans-Serif" font-size="10.00">src/gui/windows/control</text>
<text text-anchor="middle" x="797.5" y="-74.5" font-family="Helvetica,sans-Serif" font-size="10.00">_window.hpp</text>
</a>
</g>
</g>
<!-- Node5&#45;&gt;Node11 -->
<g id="edge10" class="edge">
<title>Node5&#45;&gt;Node11</title>
<path fill="none" stroke="midnightblue" d="M754.65,-127.02C764.18,-117.34 775.17,-106.17 783.64,-97.58"/>
<polygon fill="midnightblue" stroke="midnightblue" points="751.91,-124.81 747.39,-134.4 756.9,-129.73 751.91,-124.81"/>
</g>
<!-- Node13 -->
<g id="node13" class="node">
<title>Node13</title>
<g id="a_node13"><a xlink:href="registers__window_8hpp.html" target="_top" xlink:title="This file defines a window that displays the contents of all CPU registers.">
<polygon fill="none" stroke="black" points="881.5,-67.5 881.5,-97.5 1021.5,-97.5 1021.5,-67.5 881.5,-67.5"/>
<text text-anchor="start" x="889.5" y="-85.5" font-family="Helvetica,sans-Serif" font-size="10.00">src/gui/windows/registers</text>
<text text-anchor="middle" x="951.5" y="-74.5" font-family="Helvetica,sans-Serif" font-size="10.00">_window.hpp</text>
</a>
</g>
</g>
<!-- Node5&#45;&gt;Node13 -->
<g id="edge13" class="edge">
<title>Node5&#45;&gt;Node13</title>
<path fill="none" stroke="midnightblue" d="M790.25,-131.58C825.66,-121.02 870.7,-107.59 904.17,-97.61"/>
<polygon fill="midnightblue" stroke="midnightblue" points="789.12,-128.26 780.53,-134.48 791.12,-134.97 789.12,-128.26"/>
</g>
<!-- Node15 -->
<g id="node15" class="node">
<title>Node15</title>
<g id="a_node15"><a xlink:href="source__code__window_8hpp.html" target="_top" xlink:title="This file defines a window that displays loaded ELF files (disassembled instructions of the source co...">
<polygon fill="none" stroke="black" points="321.5,-67.5 321.5,-97.5 451.5,-97.5 451.5,-67.5 321.5,-67.5"/>
<text text-anchor="start" x="329.5" y="-85.5" font-family="Helvetica,sans-Serif" font-size="10.00">src/gui/windows/source</text>
<text text-anchor="middle" x="386.5" y="-74.5" font-family="Helvetica,sans-Serif" font-size="10.00">_code_window.hpp</text>
</a>
</g>
</g>
<!-- Node5&#45;&gt;Node15 -->
<g id="edge16" class="edge">
<title>Node5&#45;&gt;Node15</title>
<path fill="none" stroke="midnightblue" d="M666.98,-136.4C611.68,-126.29 530.93,-111.41 460.5,-98 457.67,-97.46 454.78,-96.91 451.86,-96.35"/>
<polygon fill="midnightblue" stroke="midnightblue" points="666.53,-139.87 677,-138.23 667.79,-132.99 666.53,-139.87"/>
</g>
<!-- Node17 -->
<g id="node17" class="node">
<title>Node17</title>
<g id="a_node17"><a xlink:href="top__bar__menu_8hpp.html" target="_top" xlink:title=" ">
<polygon fill="none" stroke="black" points="470,-67.5 470,-97.5 583,-97.5 583,-67.5 470,-67.5"/>
<text text-anchor="start" x="478" y="-85.5" font-family="Helvetica,sans-Serif" font-size="10.00">src/gui/windows/top</text>
<text text-anchor="middle" x="526.5" y="-74.5" font-family="Helvetica,sans-Serif" font-size="10.00">_bar_menu.hpp</text>
</a>
</g>
</g>
<!-- Node5&#45;&gt;Node17 -->
<g id="edge19" class="edge">
<title>Node5&#45;&gt;Node17</title>
<path fill="none" stroke="midnightblue" d="M679.18,-131.44C645.63,-120.91 603.09,-107.55 571.44,-97.61"/>
<polygon fill="midnightblue" stroke="midnightblue" points="678.25,-134.82 688.84,-134.48 680.35,-128.14 678.25,-134.82"/>
</g>
<!-- Node8 -->
<g id="node8" class="node">
<title>Node8</title>
<g id="a_node8"><a xlink:href="soc_8cpp.html" target="_top" xlink:title=" ">
<polygon fill="none" stroke="black" points="1040,-6 1040,-25 1135,-25 1135,-6 1040,-6"/>
<text text-anchor="middle" x="1087.5" y="-13" font-family="Helvetica,sans-Serif" font-size="10.00">src/core/soc.cpp</text>
</a>
</g>
</g>
<!-- Node7&#45;&gt;Node8 -->
<g id="edge7" class="edge">
<title>Node7&#45;&gt;Node8</title>
<path fill="none" stroke="midnightblue" d="M1087.5,-62.54C1087.5,-50.17 1087.5,-34.62 1087.5,-25.13"/>
<polygon fill="midnightblue" stroke="midnightblue" points="1084,-62.73 1087.5,-72.73 1091,-62.73 1084,-62.73"/>
</g>
<!-- Node9 -->
<g id="node9" class="node">
<title>Node9</title>
<g id="a_node9"><a xlink:href="gui_8cpp.html" target="_top" xlink:title="This file implements the main GUI entry function that takes care of creating and rendering all window...">
<polygon fill="none" stroke="black" points="614,-6 614,-25 701,-25 701,-6 614,-6"/>
<text text-anchor="middle" x="657.5" y="-13" font-family="Helvetica,sans-Serif" font-size="10.00">src/gui/gui.cpp</text>
</a>
</g>
</g>
<!-- Node7&#45;&gt;Node9 -->
<g id="edge8" class="edge">
<title>Node7&#45;&gt;Node9</title>
<path fill="none" stroke="midnightblue" d="M1047.28,-70.56C1041.67,-69.24 1035.96,-68.01 1030.5,-67 894.97,-41.96 858.38,-54.03 722.5,-31 712.81,-29.36 702.39,-27.21 692.79,-25.07"/>
<polygon fill="midnightblue" stroke="midnightblue" points="1046.65,-74.01 1057.2,-73 1048.32,-67.21 1046.65,-74.01"/>
</g>
<!-- Node10 -->
<g id="node10" class="node">
<title>Node10</title>
<g id="a_node10"><a xlink:href="main_8cpp.html" target="_top" xlink:title="This file defines and implements the main function of the application.">
<polygon fill="none" stroke="black" points="1153,-6 1153,-25 1232,-25 1232,-6 1153,-6"/>
<text text-anchor="middle" x="1192.5" y="-13" font-family="Helvetica,sans-Serif" font-size="10.00">src/main.cpp</text>
</a>
</g>
</g>
<!-- Node7&#45;&gt;Node10 -->
<g id="edge9" class="edge">
<title>Node7&#45;&gt;Node10</title>
<path fill="none" stroke="midnightblue" d="M1110.21,-67.44C1131,-54.57 1161.12,-35.93 1178.56,-25.13"/>
<polygon fill="midnightblue" stroke="midnightblue" points="1108.32,-64.49 1101.66,-72.73 1112.01,-70.45 1108.32,-64.49"/>
</g>
<!-- Node11&#45;&gt;Node9 -->
<g id="edge11" class="edge">
<title>Node11&#45;&gt;Node9</title>
<path fill="none" stroke="midnightblue" d="M757.94,-63.13C730.99,-50.62 696.57,-34.64 675.82,-25.01"/>
<polygon fill="midnightblue" stroke="midnightblue" points="756.58,-66.36 767.12,-67.4 759.53,-60.01 756.58,-66.36"/>
</g>
<!-- Node12 -->
<g id="node12" class="node">
<title>Node12</title>
<g id="a_node12"><a xlink:href="control__window_8cpp.html" target="_top" xlink:title="This file implements a window that allows the user to control CPU execution.">
<polygon fill="none" stroke="black" points="732,-0.5 732,-30.5 863,-30.5 863,-0.5 732,-0.5"/>
<text text-anchor="start" x="740" y="-18.5" font-family="Helvetica,sans-Serif" font-size="10.00">src/gui/windows/control</text>
<text text-anchor="middle" x="797.5" y="-7.5" font-family="Helvetica,sans-Serif" font-size="10.00">_window.cpp</text>
</a>
</g>
</g>
<!-- Node11&#45;&gt;Node12 -->
<g id="edge12" class="edge">
<title>Node11&#45;&gt;Node12</title>
<path fill="none" stroke="midnightblue" d="M797.5,-57.11C797.5,-48.15 797.5,-38.32 797.5,-30.58"/>
<polygon fill="midnightblue" stroke="midnightblue" points="794,-57.4 797.5,-67.4 801,-57.4 794,-57.4"/>
</g>
<!-- Node13&#45;&gt;Node9 -->
<g id="edge14" class="edge">
<title>Node13&#45;&gt;Node9</title>
<path fill="none" stroke="midnightblue" d="M877.4,-65.21C832.56,-55.33 774.23,-42.47 722.5,-31 713.81,-29.07 704.46,-26.99 695.65,-25.03"/>
<polygon fill="midnightblue" stroke="midnightblue" points="876.81,-68.66 887.33,-67.39 878.32,-61.82 876.81,-68.66"/>
</g>
<!-- Node14 -->
<g id="node14" class="node">
<title>Node14</title>
<g id="a_node14"><a xlink:href="registers__window_8cpp.html" target="_top" xlink:title="This file implements a window that displays the contents of all CPU registers.">
<polygon fill="none" stroke="black" points="881.5,-0.5 881.5,-30.5 1021.5,-30.5 1021.5,-0.5 881.5,-0.5"/>
<text text-anchor="start" x="889.5" y="-18.5" font-family="Helvetica,sans-Serif" font-size="10.00">src/gui/windows/registers</text>
<text text-anchor="middle" x="951.5" y="-7.5" font-family="Helvetica,sans-Serif" font-size="10.00">_window.cpp</text>
</a>
</g>
</g>
<!-- Node13&#45;&gt;Node14 -->
<g id="edge15" class="edge">
<title>Node13&#45;&gt;Node14</title>
<path fill="none" stroke="midnightblue" d="M951.5,-57.11C951.5,-48.15 951.5,-38.32 951.5,-30.58"/>
<polygon fill="midnightblue" stroke="midnightblue" points="948,-57.4 951.5,-67.4 955,-57.4 948,-57.4"/>
</g>
<!-- Node15&#45;&gt;Node9 -->
<g id="edge17" class="edge">
<title>Node15&#45;&gt;Node9</title>
<path fill="none" stroke="midnightblue" d="M455,-65.07C508.15,-52.32 579.66,-35.17 621.94,-25.03"/>
<polygon fill="midnightblue" stroke="midnightblue" points="453.88,-61.74 444.97,-67.48 455.51,-68.55 453.88,-61.74"/>
</g>
<!-- Node16 -->
<g id="node16" class="node">
<title>Node16</title>
<g id="a_node16"><a xlink:href="source__code__window_8cpp.html" target="_top" xlink:title="This file implements a window that displays loaded ELF files (disassembled instructions of the source...">
<polygon fill="none" stroke="black" points="184.5,-0.5 184.5,-30.5 314.5,-30.5 314.5,-0.5 184.5,-0.5"/>
<text text-anchor="start" x="192.5" y="-18.5" font-family="Helvetica,sans-Serif" font-size="10.00">src/gui/windows/source</text>
<text text-anchor="middle" x="249.5" y="-7.5" font-family="Helvetica,sans-Serif" font-size="10.00">_code_window.cpp</text>
</a>
</g>
</g>
<!-- Node15&#45;&gt;Node16 -->
<g id="edge18" class="edge">
<title>Node15&#45;&gt;Node16</title>
<path fill="none" stroke="midnightblue" d="M347.49,-62.99C325.78,-52.69 299.17,-40.07 279.17,-30.58"/>
<polygon fill="midnightblue" stroke="midnightblue" points="346.24,-66.27 356.77,-67.4 349.24,-59.95 346.24,-66.27"/>
</g>
<!-- Node17&#45;&gt;Node9 -->
<g id="edge20" class="edge">
<title>Node17&#45;&gt;Node9</title>
<path fill="none" stroke="midnightblue" d="M564.18,-62.8C589.3,-50.34 621.11,-34.56 640.36,-25.01"/>
<polygon fill="midnightblue" stroke="midnightblue" points="562.33,-59.82 554.93,-67.4 565.44,-66.09 562.33,-59.82"/>
</g>
<!-- Node18 -->
<g id="node18" class="node">
<title>Node18</title>
<g id="a_node18"><a xlink:href="top__bar__menu_8cpp.html" target="_top" xlink:title=" ">
<polygon fill="none" stroke="black" points="470,-0.5 470,-30.5 583,-30.5 583,-0.5 470,-0.5"/>
<text text-anchor="start" x="478" y="-18.5" font-family="Helvetica,sans-Serif" font-size="10.00">src/gui/windows/top</text>
<text text-anchor="middle" x="526.5" y="-7.5" font-family="Helvetica,sans-Serif" font-size="10.00">_bar_menu.cpp</text>
</a>
</g>
</g>
<!-- Node17&#45;&gt;Node18 -->
<g id="edge21" class="edge">
<title>Node17&#45;&gt;Node18</title>
<path fill="none" stroke="midnightblue" d="M526.5,-57.11C526.5,-48.15 526.5,-38.32 526.5,-30.58"/>
<polygon fill="midnightblue" stroke="midnightblue" points="523,-57.4 526.5,-67.4 530,-57.4 523,-57.4"/>
</g>
<!-- Node20&#45;&gt;Node4 -->
<g id="edge26" class="edge">
<title>Node20&#45;&gt;Node4</title>
<path fill="none" stroke="midnightblue" d="M745.74,-270.63C778.46,-259.61 827.21,-243.19 861.85,-231.53"/>
<polygon fill="midnightblue" stroke="midnightblue" points="744.49,-267.36 736.13,-273.87 746.72,-273.99 744.49,-267.36"/>
</g>
<!-- Node20&#45;&gt;Node5 -->
<g id="edge25" class="edge">
<title>Node20&#45;&gt;Node5</title>
<path fill="none" stroke="midnightblue" d="M713.74,-263.89C718.39,-237.24 726.83,-188.8 731.01,-164.78"/>
<polygon fill="midnightblue" stroke="midnightblue" points="710.28,-263.39 712.01,-273.84 717.17,-264.59 710.28,-263.39"/>
</g>
<!-- Node20&#45;&gt;Node7 -->
<g id="edge28" class="edge">
<title>Node20&#45;&gt;Node7</title>
<path fill="none" stroke="midnightblue" d="M724.81,-266.27C752.75,-235.61 817.86,-169.12 886.5,-134 945.23,-103.95 966.53,-114.13 1030.5,-98 1038.12,-96.08 1046.32,-94 1054.05,-92.03"/>
<polygon fill="midnightblue" stroke="midnightblue" points="722.02,-264.13 717.94,-273.91 727.23,-268.81 722.02,-264.13"/>
</g>
<!-- Node20&#45;&gt;Node17 -->
<g id="edge29" class="edge">
<title>Node20&#45;&gt;Node17</title>
<path fill="none" stroke="midnightblue" d="M668.39,-270.72C646.04,-262.74 619.37,-250.28 600.5,-232 559.95,-192.72 538.11,-126.54 530.11,-97.68"/>
<polygon fill="midnightblue" stroke="midnightblue" points="667.4,-274.08 677.99,-273.97 669.64,-267.45 667.4,-274.08"/>
</g>
<!-- Node21 -->
<g id="node21" class="node">
<title>Node21</title>
<g id="a_node21"><a xlink:href="bus_8cpp.html" target="_top" xlink:title="This file implements the interface defined in bus.hpp.">
<polygon fill="none" stroke="black" points="610,-207 610,-226 705,-226 705,-207 610,-207"/>
<text text-anchor="middle" x="657.5" y="-214" font-family="Helvetica,sans-Serif" font-size="10.00">src/core/bus.cpp</text>
</a>
</g>
</g>
<!-- Node20&#45;&gt;Node21 -->
<g id="edge27" class="edge">
<title>Node20&#45;&gt;Node21</title>
<path fill="none" stroke="midnightblue" d="M696.86,-265.77C686.53,-253.1 672.75,-236.2 664.53,-226.13"/>
<polygon fill="midnightblue" stroke="midnightblue" points="694.32,-268.2 703.35,-273.73 699.75,-263.77 694.32,-268.2"/>
</g>
<!-- Node22 -->
<g id="node22" class="node">
<title>Node22</title>
<g id="a_node22"><a xlink:href="elf__loader_8hpp.html" target="_top" xlink:title="This file defines the functionality of an ELF loader.">
<polygon fill="none" stroke="black" points="323,-140 323,-159 450,-159 450,-140 323,-140"/>
<text text-anchor="middle" x="386.5" y="-147" font-family="Helvetica,sans-Serif" font-size="10.00">src/utils/elf_loader.hpp</text>
</a>
</g>
</g>
<!-- Node20&#45;&gt;Node22 -->
<g id="edge30" class="edge">
<title>Node20&#45;&gt;Node22</title>
<path fill="none" stroke="midnightblue" d="M663.83,-271.44C628.95,-262.53 580.44,-248.75 539.5,-232 486.02,-210.12 426.7,-175.22 400.38,-159.13"/>
<polygon fill="midnightblue" stroke="midnightblue" points="663.19,-274.89 673.74,-273.94 664.9,-268.1 663.19,-274.89"/>
</g>
<!-- Node22&#45;&gt;Node15 -->
<g id="edge32" class="edge">
<title>Node22&#45;&gt;Node15</title>
<path fill="none" stroke="midnightblue" d="M386.5,-129.41C386.5,-119.22 386.5,-106.9 386.5,-97.59"/>
<polygon fill="midnightblue" stroke="midnightblue" points="383,-129.73 386.5,-139.73 390,-129.73 383,-129.73"/>
</g>
<!-- Node22&#45;&gt;Node16 -->
<g id="edge31" class="edge">
<title>Node22&#45;&gt;Node16</title>
<path fill="none" stroke="midnightblue" d="M313.05,-141.22C257,-133.97 186.46,-120.59 168.5,-98 159.93,-87.21 161.81,-79.05 168.5,-67 177.67,-50.48 194.73,-38.66 210.84,-30.63"/>
<polygon fill="midnightblue" stroke="midnightblue" points="312.61,-144.69 322.97,-142.46 313.48,-137.75 312.61,-144.69"/>
</g>
<!-- Node22&#45;&gt;Node17 -->
<g id="edge33" class="edge">
<title>Node22&#45;&gt;Node17</title>
<path fill="none" stroke="midnightblue" d="M414.24,-135.62C437.92,-124.63 471.92,-108.84 496.29,-97.53"/>
<polygon fill="midnightblue" stroke="midnightblue" points="412.69,-132.48 405.09,-139.87 415.63,-138.83 412.69,-132.48"/>
</g>
<!-- Node23 -->
<g id="node23" class="node">
<title>Node23</title>
<g id="a_node23"><a xlink:href="elf__loader_8cpp.html" target="_top" xlink:title="This file implements the functionality of an ELF loader defined in elf_loader.hpp.">
<polygon fill="none" stroke="black" points="177.5,-73 177.5,-92 303.5,-92 303.5,-73 177.5,-73"/>
<text text-anchor="middle" x="240.5" y="-80" font-family="Helvetica,sans-Serif" font-size="10.00">src/utils/elf_loader.cpp</text>
</a>
</g>
</g>
<!-- Node22&#45;&gt;Node23 -->
<g id="edge34" class="edge">
<title>Node22&#45;&gt;Node23</title>
<path fill="none" stroke="midnightblue" d="M357.93,-135.78C329.02,-122.91 285.1,-103.35 259.97,-92.17"/>
<polygon fill="midnightblue" stroke="midnightblue" points="356.55,-139 367.11,-139.87 359.4,-132.6 356.55,-139"/>
</g>
<!-- Node25&#45;&gt;Node9 -->
<g id="edge38" class="edge">
<title>Node25&#45;&gt;Node9</title>
<path fill="none" stroke="midnightblue" d="M142.92,-258.48C132.3,-213.83 117.39,-117.95 168.5,-67 201.9,-33.7 544.86,-38.08 591.5,-31 601.71,-29.45 612.7,-27.25 622.72,-25.04"/>
<polygon fill="midnightblue" stroke="midnightblue" points="139.59,-259.58 145.42,-268.43 146.38,-257.88 139.59,-259.58"/>
</g>
<!-- Node26 -->
<g id="node26" class="node">
<title>Node26</title>
<g id="a_node26"><a xlink:href="cp15__window_8cpp.html" target="_top" xlink:title="This file implements a window that displays data (information) related to coprocessor 15.">
<polygon fill="none" stroke="black" points="0,-201.5 0,-231.5 121,-231.5 121,-201.5 0,-201.5"/>
<text text-anchor="start" x="8" y="-219.5" font-family="Helvetica,sans-Serif" font-size="10.00">src/gui/windows/cp15</text>
<text text-anchor="middle" x="60.5" y="-208.5" font-family="Helvetica,sans-Serif" font-size="10.00">_window.cpp</text>
</a>
</g>
</g>
<!-- Node25&#45;&gt;Node26 -->
<g id="edge39" class="edge">
<title>Node25&#45;&gt;Node26</title>
<path fill="none" stroke="midnightblue" d="M122.05,-262.45C108.36,-252.45 92.13,-240.6 79.77,-231.58"/>
<polygon fill="midnightblue" stroke="midnightblue" points="120.05,-265.32 130.19,-268.4 124.18,-259.67 120.05,-265.32"/>
</g>
<!-- Node27&#45;&gt;Node7 -->
<g id="edge42" class="edge">
<title>Node27&#45;&gt;Node7</title>
<path fill="none" stroke="midnightblue" d="M1087.5,-324.92C1087.5,-267.76 1087.5,-128.01 1087.5,-92.05"/>
<polygon fill="midnightblue" stroke="midnightblue" points="1084,-325.2 1087.5,-335.2 1091,-325.2 1084,-325.2"/>
</g>
<!-- Node28 -->
<g id="node28" class="node">
<title>Node28</title>
<g id="a_node28"><a xlink:href="fpu_8cpp.html" target="_top" xlink:title=" ">
<polygon fill="none" stroke="black" points="1115.5,-268.5 1115.5,-298.5 1237.5,-298.5 1237.5,-268.5 1115.5,-268.5"/>
<text text-anchor="start" x="1123.5" y="-286.5" font-family="Helvetica,sans-Serif" font-size="10.00">src/core/coprocessors</text>
<text text-anchor="middle" x="1176.5" y="-275.5" font-family="Helvetica,sans-Serif" font-size="10.00">/fpu/fpu.cpp</text>
</a>
</g>
</g>
<!-- Node27&#45;&gt;Node28 -->
<g id="edge41" class="edge">
<title>Node27&#45;&gt;Node28</title>
<path fill="none" stroke="midnightblue" d="M1114.95,-329.45C1128.64,-319.45 1144.87,-307.6 1157.23,-298.58"/>
<polygon fill="midnightblue" stroke="midnightblue" points="1112.82,-326.67 1106.81,-335.4 1116.95,-332.32 1112.82,-326.67"/>
</g>
</g>
</svg>
