<?xml version="1.0" encoding="UTF-8" standalone="no"?>
<!DOCTYPE svg PUBLIC "-//W3C//DTD SVG 1.1//EN"
 "http://www.w3.org/Graphics/SVG/1.1/DTD/svg11.dtd">
<!-- Generated by graphviz version 2.43.0 (0)
 -->
<!-- Title: src/core/arm1176jzf_s/core.hpp Pages: 1 -->
<svg width="2876pt" height="408pt"
 viewBox="0.00 0.00 2876.00 408.00" xmlns="http://www.w3.org/2000/svg" xmlns:xlink="http://www.w3.org/1999/xlink">
<g id="graph0" class="graph" transform="scale(1 1) rotate(0) translate(4 404)">
<title>src/core/arm1176jzf_s/core.hpp</title>
<!-- Node1 -->
<g id="node1" class="node">
<title>Node1</title>
<g id="a_node1"><a xlink:title="This file defines a class that represents a CPU core (arm1176jzf_s).">
<polygon fill="#bfbfbf" stroke="black" points="415.5,-369.5 415.5,-399.5 528.5,-399.5 528.5,-369.5 415.5,-369.5"/>
<text text-anchor="start" x="423.5" y="-387.5" font-family="Helvetica,sans-Serif" font-size="10.00">src/core/arm1176jzf</text>
<text text-anchor="middle" x="472" y="-376.5" font-family="Helvetica,sans-Serif" font-size="10.00">_s/core.hpp</text>
</a>
</g>
</g>
<!-- Node2 -->
<g id="node2" class="node">
<title>Node2</title>
<g id="a_node2"><a xlink:href="context_8hpp.html" target="_top" xlink:title="This file defines the context (registers) of the CPU.">
<polygon fill="none" stroke="black" points="148,-129 148,-148 222,-148 222,-129 148,-129"/>
<text text-anchor="middle" x="185" y="-136" font-family="Helvetica,sans-Serif" font-size="10.00">context.hpp</text>
</a>
</g>
</g>
<!-- Node1&#45;&gt;Node2 -->
<g id="edge1" class="edge">
<title>Node1&#45;&gt;Node2</title>
<path fill="none" stroke="midnightblue" d="M415.42,-381.92C316.53,-375.57 117.11,-345.76 58,-210 41.92,-173.08 95.33,-154.78 137.78,-146.25"/>
<polygon fill="midnightblue" stroke="midnightblue" points="138.55,-149.66 147.74,-144.38 137.26,-142.78 138.55,-149.66"/>
</g>
<!-- Node3 -->
<g id="node3" class="node">
<title>Node3</title>
<g id="a_node3"><a xlink:href="logger_8hpp.html" target="_top" xlink:title=" ">
<polygon fill="none" stroke="black" points="213,-62 213,-81 347,-81 347,-62 213,-62"/>
<text text-anchor="middle" x="280" y="-69" font-family="Helvetica,sans-Serif" font-size="10.00">../utils/logger/logger.hpp</text>
</a>
</g>
</g>
<!-- Node1&#45;&gt;Node3 -->
<g id="edge65" class="edge">
<title>Node1&#45;&gt;Node3</title>
<path fill="none" stroke="midnightblue" d="M415.07,-380.86C289.53,-373.49 0,-347.31 0,-262.5 0,-262.5 0,-262.5 0,-199 0,-109.65 119.89,-83.07 202.77,-75.37"/>
<polygon fill="midnightblue" stroke="midnightblue" points="203.27,-78.84 212.93,-74.5 202.67,-71.86 203.27,-78.84"/>
</g>
<!-- Node10 -->
<g id="node10" class="node">
<title>Node10</title>
<g id="a_node10"><a xlink:href="exceptions_8hpp.html" target="_top" xlink:title="This file defines all exceptions that can be thrown by the CPU during execution.">
<polygon fill="none" stroke="black" points="138.5,-252 138.5,-271 229.5,-271 229.5,-252 138.5,-252"/>
<text text-anchor="middle" x="184" y="-259" font-family="Helvetica,sans-Serif" font-size="10.00">exceptions.hpp</text>
</a>
</g>
</g>
<!-- Node1&#45;&gt;Node10 -->
<g id="edge9" class="edge">
<title>Node1&#45;&gt;Node10</title>
<path fill="none" stroke="midnightblue" d="M438.4,-369.38C381.69,-345.56 267.88,-297.74 213.82,-275.03"/>
<polygon fill="midnightblue" stroke="midnightblue" points="215.03,-271.74 204.45,-271.09 212.31,-278.19 215.03,-271.74"/>
</g>
<!-- Node12 -->
<g id="node12" class="node">
<title>Node12</title>
<g id="a_node12"><a xlink:href="isa_8hpp.html" target="_top" xlink:title="This file is just a helper file for including all ARM instructions supported by the emulator.">
<polygon fill="none" stroke="black" points="1897.5,-190.5 1897.5,-209.5 1966.5,-209.5 1966.5,-190.5 1897.5,-190.5"/>
<text text-anchor="middle" x="1932" y="-197.5" font-family="Helvetica,sans-Serif" font-size="10.00">isa/isa.hpp</text>
</a>
</g>
</g>
<!-- Node1&#45;&gt;Node12 -->
<g id="edge12" class="edge">
<title>Node1&#45;&gt;Node12</title>
<path fill="none" stroke="midnightblue" d="M528.97,-376.2C578.81,-368.73 652.61,-355.07 714,-333 731.96,-326.54 733.71,-318.45 752,-313 971.08,-247.73 1698.67,-211.39 1887.12,-202.93"/>
<polygon fill="midnightblue" stroke="midnightblue" points="1887.38,-206.42 1897.22,-202.48 1887.07,-199.43 1887.38,-206.42"/>
</g>
<!-- Node31 -->
<g id="node31" class="node">
<title>Node31</title>
<g id="a_node31"><a xlink:href="isa__decoder_8hpp.html" target="_top" xlink:title="This file defines an instruction decoder.">
<polygon fill="none" stroke="black" points="1794.5,-252 1794.5,-271 1907.5,-271 1907.5,-252 1794.5,-252"/>
<text text-anchor="middle" x="1851" y="-259" font-family="Helvetica,sans-Serif" font-size="10.00">isa/isa_decoder.hpp</text>
</a>
</g>
</g>
<!-- Node1&#45;&gt;Node31 -->
<g id="edge48" class="edge">
<title>Node1&#45;&gt;Node31</title>
<path fill="none" stroke="midnightblue" d="M528.54,-377.63C585.84,-370.68 676.54,-356.91 752,-333 772.09,-326.63 774.53,-318.04 795,-313 983.74,-266.5 1583.1,-262.38 1784.36,-262.34"/>
<polygon fill="midnightblue" stroke="midnightblue" points="1784.49,-265.84 1794.49,-262.34 1784.49,-258.84 1784.49,-265.84"/>
</g>
<!-- Node32 -->
<g id="node32" class="node">
<title>Node32</title>
<g id="a_node32"><a xlink:href="bus_8hpp.html" target="_top" xlink:title="This file defines an interface the CPU uses to access different memory&#45;mapped peripherals.">
<polygon fill="none" stroke="black" points="440,-313.5 440,-332.5 504,-332.5 504,-313.5 440,-313.5"/>
<text text-anchor="middle" x="472" y="-320.5" font-family="Helvetica,sans-Serif" font-size="10.00">../bus.hpp</text>
</a>
</g>
</g>
<!-- Node1&#45;&gt;Node32 -->
<g id="edge50" class="edge">
<title>Node1&#45;&gt;Node32</title>
<path fill="none" stroke="midnightblue" d="M472,-369.4C472,-361.47 472,-351.46 472,-342.86"/>
<polygon fill="midnightblue" stroke="midnightblue" points="475.5,-342.66 472,-332.66 468.5,-342.66 475.5,-342.66"/>
</g>
<!-- Node37 -->
<g id="node37" class="node">
<title>Node37</title>
<g id="a_node37"><a xlink:href="math_8hpp.html" target="_top" xlink:title="This file defines and implements a variety of handy helper functions that are used throughout the pro...">
<polygon fill="none" stroke="black" points="804,-313.5 804,-332.5 900,-332.5 900,-313.5 804,-313.5"/>
<text text-anchor="middle" x="852" y="-320.5" font-family="Helvetica,sans-Serif" font-size="10.00">../utils/math.hpp</text>
</a>
</g>
</g>
<!-- Node1&#45;&gt;Node37 -->
<g id="edge64" class="edge">
<title>Node1&#45;&gt;Node37</title>
<path fill="none" stroke="midnightblue" d="M528.89,-374.59C600.13,-363.44 721.54,-344.43 793.52,-333.16"/>
<polygon fill="midnightblue" stroke="midnightblue" points="794.43,-336.56 803.77,-331.55 793.35,-329.64 794.43,-336.56"/>
</g>
<!-- Node38 -->
<g id="node38" class="node">
<title>Node38</title>
<g id="a_node38"><a xlink:href="interrupt__controller_8hpp.html" target="_top" xlink:title=" ">
<polygon fill="none" stroke="black" points="257.5,-246.5 257.5,-276.5 382.5,-276.5 382.5,-246.5 257.5,-246.5"/>
<text text-anchor="start" x="265.5" y="-264.5" font-family="Helvetica,sans-Serif" font-size="10.00">../peripherals/interrupt</text>
<text text-anchor="middle" x="320" y="-253.5" font-family="Helvetica,sans-Serif" font-size="10.00">_controller.hpp</text>
</a>
</g>
</g>
<!-- Node1&#45;&gt;Node38 -->
<g id="edge66" class="edge">
<title>Node1&#45;&gt;Node38</title>
<path fill="none" stroke="midnightblue" d="M454.27,-369.38C427.49,-348.07 376.62,-307.57 345.76,-283"/>
<polygon fill="midnightblue" stroke="midnightblue" points="347.62,-280.02 337.62,-276.53 343.26,-285.49 347.62,-280.02"/>
</g>
<!-- Node40 -->
<g id="node40" class="node">
<title>Node40</title>
<g id="a_node40"><a xlink:href="system__clock__listener_8hpp.html" target="_top" xlink:title=" ">
<polygon fill="none" stroke="black" points="577.5,-56.5 577.5,-86.5 696.5,-86.5 696.5,-56.5 577.5,-56.5"/>
<text text-anchor="start" x="585.5" y="-74.5" font-family="Helvetica,sans-Serif" font-size="10.00">../peripherals/system</text>
<text text-anchor="middle" x="637" y="-63.5" font-family="Helvetica,sans-Serif" font-size="10.00">_clock_listener.hpp</text>
</a>
</g>
</g>
<!-- Node1&#45;&gt;Node40 -->
<g id="edge72" class="edge">
<title>Node1&#45;&gt;Node40</title>
<path fill="none" stroke="midnightblue" d="M501.97,-369.49C550.28,-345.01 643.72,-289.4 681,-210 699.26,-171.1 673.33,-122.64 654.21,-94.86"/>
<polygon fill="midnightblue" stroke="midnightblue" points="656.97,-92.71 648.3,-86.61 651.27,-96.78 656.97,-92.71"/>
</g>
<!-- Node2&#45;&gt;Node3 -->
<g id="edge2" class="edge">
<title>Node2&#45;&gt;Node3</title>
<path fill="none" stroke="midnightblue" d="M197.81,-128.73C213.48,-118.01 240.22,-99.72 258.93,-86.91"/>
<polygon fill="midnightblue" stroke="midnightblue" points="261.11,-89.66 267.39,-81.13 257.16,-83.89 261.11,-89.66"/>
</g>
<!-- Node4 -->
<g id="node4" class="node">
<title>Node4</title>
<g id="a_node4"><a xlink:title=" ">
<polygon fill="none" stroke="#bfbfbf" points="301,-0.5 301,-19.5 349,-19.5 349,-0.5 301,-0.5"/>
<text text-anchor="middle" x="325" y="-7.5" font-family="Helvetica,sans-Serif" font-size="10.00">mutex</text>
</a>
</g>
</g>
<!-- Node3&#45;&gt;Node4 -->
<g id="edge3" class="edge">
<title>Node3&#45;&gt;Node4</title>
<path fill="none" stroke="midnightblue" d="M286.45,-61.98C293.2,-53.05 303.97,-38.81 312.41,-27.64"/>
<polygon fill="midnightblue" stroke="midnightblue" points="315.32,-29.6 318.56,-19.51 309.74,-25.37 315.32,-29.6"/>
</g>
<!-- Node5 -->
<g id="node5" class="node">
<title>Node5</title>
<g id="a_node5"><a xlink:title=" ">
<polygon fill="none" stroke="#bfbfbf" points="459.5,-0.5 459.5,-19.5 506.5,-19.5 506.5,-0.5 459.5,-0.5"/>
<text text-anchor="middle" x="483" y="-7.5" font-family="Helvetica,sans-Serif" font-size="10.00">vector</text>
</a>
</g>
</g>
<!-- Node3&#45;&gt;Node5 -->
<g id="edge4" class="edge">
<title>Node3&#45;&gt;Node5</title>
<path fill="none" stroke="midnightblue" d="M309.08,-61.98C346.3,-51.07 410.61,-32.22 449.74,-20.75"/>
<polygon fill="midnightblue" stroke="midnightblue" points="450.73,-24.1 459.35,-17.93 448.76,-17.39 450.73,-24.1"/>
</g>
<!-- Node6 -->
<g id="node6" class="node">
<title>Node6</title>
<g id="a_node6"><a xlink:title=" ">
<polygon fill="none" stroke="#bfbfbf" points="367,-0.5 367,-19.5 425,-19.5 425,-0.5 367,-0.5"/>
<text text-anchor="middle" x="396" y="-7.5" font-family="Helvetica,sans-Serif" font-size="10.00">memory</text>
</a>
</g>
</g>
<!-- Node3&#45;&gt;Node6 -->
<g id="edge5" class="edge">
<title>Node3&#45;&gt;Node6</title>
<path fill="none" stroke="midnightblue" d="M296.62,-61.98C315.92,-52.08 347.96,-35.64 370.43,-24.12"/>
<polygon fill="midnightblue" stroke="midnightblue" points="372.11,-27.19 379.41,-19.51 368.92,-20.96 372.11,-27.19"/>
</g>
<!-- Node7 -->
<g id="node7" class="node">
<title>Node7</title>
<g id="a_node7"><a xlink:title=" ">
<polygon fill="none" stroke="#bfbfbf" points="569,-0.5 569,-19.5 619,-19.5 619,-0.5 569,-0.5"/>
<text text-anchor="middle" x="594" y="-7.5" font-family="Helvetica,sans-Serif" font-size="10.00">cstdint</text>
</a>
</g>
</g>
<!-- Node3&#45;&gt;Node7 -->
<g id="edge6" class="edge">
<title>Node3&#45;&gt;Node7</title>
<path fill="none" stroke="midnightblue" d="M324.99,-61.98C388.05,-50.03 501.41,-28.55 558.74,-17.68"/>
<polygon fill="midnightblue" stroke="midnightblue" points="559.6,-21.08 568.77,-15.78 558.29,-14.2 559.6,-21.08"/>
</g>
<!-- Node8 -->
<g id="node8" class="node">
<title>Node8</title>
<g id="a_node8"><a xlink:title=" ">
<polygon fill="none" stroke="#bfbfbf" points="98.5,-0.5 98.5,-19.5 171.5,-19.5 171.5,-0.5 98.5,-0.5"/>
<text text-anchor="middle" x="135" y="-7.5" font-family="Helvetica,sans-Serif" font-size="10.00">string_view</text>
</a>
</g>
</g>
<!-- Node3&#45;&gt;Node8 -->
<g id="edge7" class="edge">
<title>Node3&#45;&gt;Node8</title>
<path fill="none" stroke="midnightblue" d="M259.23,-61.98C234.57,-51.86 193.25,-34.9 165.1,-23.35"/>
<polygon fill="midnightblue" stroke="midnightblue" points="166.32,-20.07 155.74,-19.51 163.66,-26.54 166.32,-20.07"/>
</g>
<!-- Node9 -->
<g id="node9" class="node">
<title>Node9</title>
<g id="a_node9"><a xlink:title=" ">
<polygon fill="none" stroke="#bfbfbf" points="189.5,-0.5 189.5,-19.5 282.5,-19.5 282.5,-0.5 189.5,-0.5"/>
<text text-anchor="middle" x="236" y="-7.5" font-family="Helvetica,sans-Serif" font-size="10.00">source_location</text>
</a>
</g>
</g>
<!-- Node3&#45;&gt;Node9 -->
<g id="edge8" class="edge">
<title>Node3&#45;&gt;Node9</title>
<path fill="none" stroke="midnightblue" d="M273.7,-61.98C267.1,-53.05 256.56,-38.81 248.31,-27.64"/>
<polygon fill="midnightblue" stroke="midnightblue" points="251.05,-25.47 242.29,-19.51 245.42,-29.63 251.05,-25.47"/>
</g>
<!-- Node10&#45;&gt;Node2 -->
<g id="edge11" class="edge">
<title>Node10&#45;&gt;Node2</title>
<path fill="none" stroke="midnightblue" d="M184.07,-251.8C184.23,-232.35 184.62,-184.99 184.84,-158.4"/>
<polygon fill="midnightblue" stroke="midnightblue" points="188.35,-158.15 184.93,-148.12 181.35,-158.09 188.35,-158.15"/>
</g>
<!-- Node11 -->
<g id="node11" class="node">
<title>Node11</title>
<g id="a_node11"><a xlink:title=" ">
<polygon fill="none" stroke="#bfbfbf" points="66.5,-190.5 66.5,-209.5 145.5,-209.5 145.5,-190.5 66.5,-190.5"/>
<text text-anchor="middle" x="106" y="-197.5" font-family="Helvetica,sans-Serif" font-size="10.00">fmt/format.h</text>
</a>
</g>
</g>
<!-- Node10&#45;&gt;Node11 -->
<g id="edge10" class="edge">
<title>Node10&#45;&gt;Node11</title>
<path fill="none" stroke="midnightblue" d="M172.82,-251.98C160.43,-242.52 140.21,-227.1 125.25,-215.69"/>
<polygon fill="midnightblue" stroke="midnightblue" points="127.23,-212.79 117.15,-209.51 122.98,-218.36 127.23,-212.79"/>
</g>
<!-- Node13 -->
<g id="node13" class="node">
<title>Node13</title>
<g id="a_node13"><a xlink:href="instruction_8hpp.html" target="_top" xlink:title="This file defines the interface of a general ARM instruction.">
<polygon fill="none" stroke="black" points="2047.5,-62 2047.5,-81 2136.5,-81 2136.5,-62 2047.5,-62"/>
<text text-anchor="middle" x="2092" y="-69" font-family="Helvetica,sans-Serif" font-size="10.00">instruction.hpp</text>
</a>
</g>
</g>
<!-- Node12&#45;&gt;Node13 -->
<g id="edge13" class="edge">
<title>Node12&#45;&gt;Node13</title>
<path fill="none" stroke="midnightblue" d="M1966.75,-198.16C2108.28,-194.56 2635.02,-179.51 2659,-154 2668.44,-143.96 2668.3,-133.17 2659,-123 2624.87,-85.69 2282.9,-75.76 2147.13,-73.28"/>
<polygon fill="midnightblue" stroke="midnightblue" points="2147.01,-69.77 2136.95,-73.1 2146.89,-76.77 2147.01,-69.77"/>
</g>
<!-- Node14 -->
<g id="node14" class="node">
<title>Node14</title>
<g id="a_node14"><a xlink:href="branch__and__exchange_8hpp.html" target="_top" xlink:title="This file defines a branch and exchange instruction (BX).">
<polygon fill="none" stroke="black" points="2706,-129 2706,-148 2852,-148 2852,-129 2706,-129"/>
<text text-anchor="middle" x="2779" y="-136" font-family="Helvetica,sans-Serif" font-size="10.00">branch_and_exchange.hpp</text>
</a>
</g>
</g>
<!-- Node12&#45;&gt;Node14 -->
<g id="edge14" class="edge">
<title>Node12&#45;&gt;Node14</title>
<path fill="none" stroke="midnightblue" d="M1966.58,-198.26C2074.28,-195.66 2413.22,-185.4 2692,-154 2702.26,-152.84 2713.16,-151.29 2723.64,-149.63"/>
<polygon fill="midnightblue" stroke="midnightblue" points="2724.22,-153.08 2733.52,-148.01 2723.09,-146.17 2724.22,-153.08"/>
</g>
<!-- Node15 -->
<g id="node15" class="node">
<title>Node15</title>
<g id="a_node15"><a xlink:href="branch_8hpp.html" target="_top" xlink:title="This file defines a branch instruction (B, BL).">
<polygon fill="none" stroke="black" points="1267.5,-129 1267.5,-148 1338.5,-148 1338.5,-129 1267.5,-129"/>
<text text-anchor="middle" x="1303" y="-136" font-family="Helvetica,sans-Serif" font-size="10.00">branch.hpp</text>
</a>
</g>
</g>
<!-- Node12&#45;&gt;Node15 -->
<g id="edge16" class="edge">
<title>Node12&#45;&gt;Node15</title>
<path fill="none" stroke="midnightblue" d="M1897.39,-199.15C1806.44,-198.94 1553.54,-194.45 1348,-154 1344.04,-153.22 1339.93,-152.2 1335.89,-151.07"/>
<polygon fill="midnightblue" stroke="midnightblue" points="1336.67,-147.65 1326.08,-148.08 1334.63,-154.35 1336.67,-147.65"/>
</g>
<!-- Node16 -->
<g id="node16" class="node">
<title>Node16</title>
<g id="a_node16"><a xlink:href="data__processing_8hpp.html" target="_top" xlink:title="This file defines a data processing instruction.">
<polygon fill="none" stroke="black" points="1356.5,-129 1356.5,-148 1473.5,-148 1473.5,-129 1356.5,-129"/>
<text text-anchor="middle" x="1415" y="-136" font-family="Helvetica,sans-Serif" font-size="10.00">data_processing.hpp</text>
</a>
</g>
</g>
<!-- Node12&#45;&gt;Node16 -->
<g id="edge18" class="edge">
<title>Node12&#45;&gt;Node16</title>
<path fill="none" stroke="midnightblue" d="M1897.47,-196.84C1821.97,-191.84 1636.64,-178.01 1483,-154 1476.11,-152.92 1468.86,-151.59 1461.78,-150.18"/>
<polygon fill="midnightblue" stroke="midnightblue" points="1462.07,-146.67 1451.56,-148.07 1460.65,-153.52 1462.07,-146.67"/>
</g>
<!-- Node17 -->
<g id="node17" class="node">
<title>Node17</title>
<g id="a_node17"><a xlink:href="multiply_8hpp.html" target="_top" xlink:title="This file defines a multiplication instruction (MUL, MLA).">
<polygon fill="none" stroke="black" points="1491.5,-129 1491.5,-148 1568.5,-148 1568.5,-129 1491.5,-129"/>
<text text-anchor="middle" x="1530" y="-136" font-family="Helvetica,sans-Serif" font-size="10.00">multiply.hpp</text>
</a>
</g>
</g>
<!-- Node12&#45;&gt;Node17 -->
<g id="edge20" class="edge">
<title>Node12&#45;&gt;Node17</title>
<path fill="none" stroke="midnightblue" d="M1897.26,-196.52C1833.46,-191.54 1693.58,-178.62 1578,-154 1573.83,-153.11 1569.51,-152.03 1565.23,-150.87"/>
<polygon fill="midnightblue" stroke="midnightblue" points="1566.03,-147.46 1555.45,-148.05 1564.09,-154.18 1566.03,-147.46"/>
</g>
<!-- Node18 -->
<g id="node18" class="node">
<title>Node18</title>
<g id="a_node18"><a xlink:href="multiply__long_8hpp.html" target="_top" xlink:title="This file defines a multiplication (long) instruction.">
<polygon fill="none" stroke="black" points="1587,-129 1587,-148 1691,-148 1691,-129 1587,-129"/>
<text text-anchor="middle" x="1639" y="-136" font-family="Helvetica,sans-Serif" font-size="10.00">multiply_long.hpp</text>
</a>
</g>
</g>
<!-- Node12&#45;&gt;Node18 -->
<g id="edge22" class="edge">
<title>Node12&#45;&gt;Node18</title>
<path fill="none" stroke="midnightblue" d="M1897.48,-192.69C1852.25,-184.33 1770.52,-168.89 1701,-154 1695.6,-152.84 1689.94,-151.58 1684.33,-150.31"/>
<polygon fill="midnightblue" stroke="midnightblue" points="1684.89,-146.84 1674.36,-148.01 1683.32,-153.67 1684.89,-146.84"/>
</g>
<!-- Node19 -->
<g id="node19" class="node">
<title>Node19</title>
<g id="a_node19"><a xlink:href="single__data__transfer_8hpp.html" target="_top" xlink:title=" ">
<polygon fill="none" stroke="black" points="1709.5,-129 1709.5,-148 1846.5,-148 1846.5,-129 1709.5,-129"/>
<text text-anchor="middle" x="1778" y="-136" font-family="Helvetica,sans-Serif" font-size="10.00">single_data_transfer.hpp</text>
</a>
</g>
</g>
<!-- Node12&#45;&gt;Node19 -->
<g id="edge24" class="edge">
<title>Node12&#45;&gt;Node19</title>
<path fill="none" stroke="midnightblue" d="M1909.94,-190.48C1883.63,-180.31 1839.49,-163.26 1809.58,-151.7"/>
<polygon fill="midnightblue" stroke="midnightblue" points="1810.61,-148.35 1800.02,-148.01 1808.09,-154.88 1810.61,-148.35"/>
</g>
<!-- Node20 -->
<g id="node20" class="node">
<title>Node20</title>
<g id="a_node20"><a xlink:href="block__data__transfer_8hpp.html" target="_top" xlink:title="This file defines a block data transfer instruction (LDM, STM).">
<polygon fill="none" stroke="black" points="1865,-129 1865,-148 1999,-148 1999,-129 1865,-129"/>
<text text-anchor="middle" x="1932" y="-136" font-family="Helvetica,sans-Serif" font-size="10.00">block_data_transfer.hpp</text>
</a>
</g>
</g>
<!-- Node12&#45;&gt;Node20 -->
<g id="edge26" class="edge">
<title>Node12&#45;&gt;Node20</title>
<path fill="none" stroke="midnightblue" d="M1932,-190.48C1932,-182.08 1932,-168.98 1932,-158.16"/>
<polygon fill="midnightblue" stroke="midnightblue" points="1935.5,-158.01 1932,-148.01 1928.5,-158.01 1935.5,-158.01"/>
</g>
<!-- Node21 -->
<g id="node21" class="node">
<title>Node21</title>
<g id="a_node21"><a xlink:href="halfword__data__transfer_8hpp.html" target="_top" xlink:title="This file defines a Halfword data transfer instruction.">
<polygon fill="none" stroke="black" points="2017.5,-129 2017.5,-148 2166.5,-148 2166.5,-129 2017.5,-129"/>
<text text-anchor="middle" x="2092" y="-136" font-family="Helvetica,sans-Serif" font-size="10.00">halfword_data_transfer.hpp</text>
</a>
</g>
</g>
<!-- Node12&#45;&gt;Node21 -->
<g id="edge28" class="edge">
<title>Node12&#45;&gt;Node21</title>
<path fill="none" stroke="midnightblue" d="M1954.92,-190.48C1982.37,-180.27 2028.52,-163.11 2059.6,-151.55"/>
<polygon fill="midnightblue" stroke="midnightblue" points="2060.97,-154.78 2069.12,-148.01 2058.53,-148.21 2060.97,-154.78"/>
</g>
<!-- Node22 -->
<g id="node22" class="node">
<title>Node22</title>
<g id="a_node22"><a xlink:href="extend_8hpp.html" target="_top" xlink:title="This file defines an extend instruction.">
<polygon fill="none" stroke="black" points="2184.5,-129 2184.5,-148 2255.5,-148 2255.5,-129 2184.5,-129"/>
<text text-anchor="middle" x="2220" y="-136" font-family="Helvetica,sans-Serif" font-size="10.00">extend.hpp</text>
</a>
</g>
</g>
<!-- Node12&#45;&gt;Node22 -->
<g id="edge30" class="edge">
<title>Node12&#45;&gt;Node22</title>
<path fill="none" stroke="midnightblue" d="M1966.67,-194.13C2014.27,-187.09 2102.34,-172.84 2176,-154 2179.38,-153.14 2182.87,-152.15 2186.34,-151.11"/>
<polygon fill="midnightblue" stroke="midnightblue" points="2187.48,-154.42 2195.97,-148.07 2185.38,-147.74 2187.48,-154.42"/>
</g>
<!-- Node23 -->
<g id="node23" class="node">
<title>Node23</title>
<g id="a_node23"><a xlink:href="psr__transfer_8hpp.html" target="_top" xlink:title="This file defines a PSR instruction (MRS, MSR).">
<polygon fill="none" stroke="black" points="2273.5,-129 2273.5,-148 2368.5,-148 2368.5,-129 2273.5,-129"/>
<text text-anchor="middle" x="2321" y="-136" font-family="Helvetica,sans-Serif" font-size="10.00">psr_transfer.hpp</text>
</a>
</g>
</g>
<!-- Node12&#45;&gt;Node23 -->
<g id="edge32" class="edge">
<title>Node12&#45;&gt;Node23</title>
<path fill="none" stroke="midnightblue" d="M1966.74,-195.68C2027.55,-189.57 2157.09,-175.18 2265,-154 2270.1,-153 2275.44,-151.81 2280.69,-150.55"/>
<polygon fill="midnightblue" stroke="midnightblue" points="2281.78,-153.88 2290.63,-148.06 2280.08,-147.09 2281.78,-153.88"/>
</g>
<!-- Node24 -->
<g id="node24" class="node">
<title>Node24</title>
<g id="a_node24"><a xlink:href="cps_8hpp.html" target="_top" xlink:title="This file defines a change processor state instruction (CPS).">
<polygon fill="none" stroke="black" points="2387,-129 2387,-148 2441,-148 2441,-129 2387,-129"/>
<text text-anchor="middle" x="2414" y="-136" font-family="Helvetica,sans-Serif" font-size="10.00">cps.hpp</text>
</a>
</g>
</g>
<!-- Node12&#45;&gt;Node24 -->
<g id="edge34" class="edge">
<title>Node12&#45;&gt;Node24</title>
<path fill="none" stroke="midnightblue" d="M1966.69,-198.81C2042.47,-197.67 2228.01,-190.98 2378,-154 2380.67,-153.34 2383.4,-152.53 2386.11,-151.62"/>
<polygon fill="midnightblue" stroke="midnightblue" points="2387.51,-154.83 2395.65,-148.05 2385.05,-148.28 2387.51,-154.83"/>
</g>
<!-- Node25 -->
<g id="node25" class="node">
<title>Node25</title>
<g id="a_node25"><a xlink:href="coprocessor__register__transfer_8hpp.html" target="_top" xlink:title="This file defines a coprocessor register transfer (MRC, MCR).">
<polygon fill="none" stroke="black" points="947,-123.5 947,-153.5 1065,-153.5 1065,-123.5 947,-123.5"/>
<text text-anchor="start" x="955" y="-141.5" font-family="Helvetica,sans-Serif" font-size="10.00">coprocessor_register</text>
<text text-anchor="middle" x="1006" y="-130.5" font-family="Helvetica,sans-Serif" font-size="10.00">_transfer.hpp</text>
</a>
</g>
</g>
<!-- Node12&#45;&gt;Node25 -->
<g id="edge36" class="edge">
<title>Node12&#45;&gt;Node25</title>
<path fill="none" stroke="midnightblue" d="M1897.49,-199.14C1782.21,-199.18 1399.89,-196.03 1075.31,-154.03"/>
<polygon fill="midnightblue" stroke="midnightblue" points="1075.61,-150.54 1065.24,-152.71 1074.7,-157.48 1075.61,-150.54"/>
</g>
<!-- Node26 -->
<g id="node26" class="node">
<title>Node26</title>
<g id="a_node26"><a xlink:href="coprocessor__data__transfer_8hpp.html" target="_top" xlink:title="This file defines a coprocessor data transfer (LDC, STC).">
<polygon fill="none" stroke="black" points="1083,-129 1083,-148 1249,-148 1249,-129 1083,-129"/>
<text text-anchor="middle" x="1166" y="-136" font-family="Helvetica,sans-Serif" font-size="10.00">coprocessor_data_transfer.hpp</text>
</a>
</g>
</g>
<!-- Node12&#45;&gt;Node26 -->
<g id="edge38" class="edge">
<title>Node12&#45;&gt;Node26</title>
<path fill="none" stroke="midnightblue" d="M1897.23,-197.75C1797.59,-193.95 1502.53,-181.07 1259,-154 1248.18,-152.8 1236.7,-151.24 1225.63,-149.59"/>
<polygon fill="midnightblue" stroke="midnightblue" points="1226.02,-146.11 1215.6,-148.06 1224.96,-153.03 1226.02,-146.11"/>
</g>
<!-- Node27 -->
<g id="node27" class="node">
<title>Node27</title>
<g id="a_node27"><a xlink:href="coprocessor__data__operation_8hpp.html" target="_top" xlink:title="This file defines a coprocessor data operation (CDP).">
<polygon fill="none" stroke="black" points="753.5,-129 753.5,-148 928.5,-148 928.5,-129 753.5,-129"/>
<text text-anchor="middle" x="841" y="-136" font-family="Helvetica,sans-Serif" font-size="10.00">coprocessor_data_operation.hpp</text>
</a>
</g>
</g>
<!-- Node12&#45;&gt;Node27 -->
<g id="edge40" class="edge">
<title>Node12&#45;&gt;Node27</title>
<path fill="none" stroke="midnightblue" d="M1897.13,-198.72C1769.03,-197.42 1312.39,-190.36 938,-154 926.08,-152.84 913.4,-151.23 901.26,-149.49"/>
<polygon fill="midnightblue" stroke="midnightblue" points="901.63,-146.01 891.22,-148.02 900.61,-152.93 901.63,-146.01"/>
</g>
<!-- Node28 -->
<g id="node28" class="node">
<title>Node28</title>
<g id="a_node28"><a xlink:href="srs_8hpp.html" target="_top" xlink:title=" ">
<polygon fill="none" stroke="black" points="2459,-129 2459,-148 2511,-148 2511,-129 2459,-129"/>
<text text-anchor="middle" x="2485" y="-136" font-family="Helvetica,sans-Serif" font-size="10.00">srs.hpp</text>
</a>
</g>
</g>
<!-- Node12&#45;&gt;Node28 -->
<g id="edge42" class="edge">
<title>Node12&#45;&gt;Node28</title>
<path fill="none" stroke="midnightblue" d="M1966.53,-199.61C2050.58,-200.31 2271.99,-197.51 2450,-154 2452.52,-153.39 2455.09,-152.62 2457.63,-151.76"/>
<polygon fill="midnightblue" stroke="midnightblue" points="2459.09,-154.94 2467.19,-148.11 2456.6,-148.4 2459.09,-154.94"/>
</g>
<!-- Node29 -->
<g id="node29" class="node">
<title>Node29</title>
<g id="a_node29"><a xlink:href="rfe_8hpp.html" target="_top" xlink:title="This file defines an RFE instruction (return from exception).">
<polygon fill="none" stroke="black" points="2529.5,-129 2529.5,-148 2580.5,-148 2580.5,-129 2529.5,-129"/>
<text text-anchor="middle" x="2555" y="-136" font-family="Helvetica,sans-Serif" font-size="10.00">rfe.hpp</text>
</a>
</g>
</g>
<!-- Node12&#45;&gt;Node29 -->
<g id="edge44" class="edge">
<title>Node12&#45;&gt;Node29</title>
<path fill="none" stroke="midnightblue" d="M1966.83,-197.78C2076.52,-193.7 2413.82,-179.37 2520,-154 2522.52,-153.4 2525.09,-152.64 2527.64,-151.78"/>
<polygon fill="midnightblue" stroke="midnightblue" points="2529.1,-154.97 2537.2,-148.15 2526.61,-148.43 2529.1,-154.97"/>
</g>
<!-- Node30 -->
<g id="node30" class="node">
<title>Node30</title>
<g id="a_node30"><a xlink:href="clz_8hpp.html" target="_top" xlink:title="This file defines a count leading zeros instruction (CLZ).">
<polygon fill="none" stroke="black" points="2598.5,-129 2598.5,-148 2649.5,-148 2649.5,-129 2598.5,-129"/>
<text text-anchor="middle" x="2624" y="-136" font-family="Helvetica,sans-Serif" font-size="10.00">clz.hpp</text>
</a>
</g>
</g>
<!-- Node12&#45;&gt;Node30 -->
<g id="edge46" class="edge">
<title>Node12&#45;&gt;Node30</title>
<path fill="none" stroke="midnightblue" d="M1966.78,-198.15C2084.88,-195.03 2469.9,-182.84 2590,-154 2592.51,-153.4 2595.07,-152.62 2597.61,-151.75"/>
<polygon fill="midnightblue" stroke="midnightblue" points="2599.06,-154.94 2607.09,-148.03 2596.5,-148.43 2599.06,-154.94"/>
</g>
<!-- Node14&#45;&gt;Node13 -->
<g id="edge15" class="edge">
<title>Node14&#45;&gt;Node13</title>
<path fill="none" stroke="midnightblue" d="M2732.14,-128.97C2719.17,-126.81 2705.07,-124.64 2692,-123 2491.74,-97.93 2252.27,-81.95 2146.64,-75.61"/>
<polygon fill="midnightblue" stroke="midnightblue" points="2146.73,-72.11 2136.54,-75.01 2146.31,-79.1 2146.73,-72.11"/>
</g>
<!-- Node15&#45;&gt;Node13 -->
<g id="edge17" class="edge">
<title>Node15&#45;&gt;Node13</title>
<path fill="none" stroke="midnightblue" d="M1326.07,-128.87C1333.03,-126.6 1340.75,-124.39 1348,-123 1602.18,-74.18 1913.11,-70.81 2037.13,-71.68"/>
<polygon fill="midnightblue" stroke="midnightblue" points="2037.46,-75.18 2047.49,-71.77 2037.52,-68.18 2037.46,-75.18"/>
</g>
<!-- Node16&#45;&gt;Node13 -->
<g id="edge19" class="edge">
<title>Node16&#45;&gt;Node13</title>
<path fill="none" stroke="midnightblue" d="M1450.84,-128.96C1461.17,-126.75 1472.49,-124.55 1483,-123 1686.15,-93.04 1930.24,-79.52 2037.23,-74.7"/>
<polygon fill="midnightblue" stroke="midnightblue" points="2037.62,-78.19 2047.46,-74.25 2037.31,-71.19 2037.62,-78.19"/>
</g>
<!-- Node17&#45;&gt;Node13 -->
<g id="edge21" class="edge">
<title>Node17&#45;&gt;Node13</title>
<path fill="none" stroke="midnightblue" d="M1555.18,-128.89C1562.47,-126.67 1570.49,-124.49 1578,-123 1743.1,-90.28 1942.44,-78.39 2037.04,-74.38"/>
<polygon fill="midnightblue" stroke="midnightblue" points="2037.38,-77.87 2047.23,-73.96 2037.09,-70.87 2037.38,-77.87"/>
</g>
<!-- Node18&#45;&gt;Node13 -->
<g id="edge23" class="edge">
<title>Node18&#45;&gt;Node13</title>
<path fill="none" stroke="midnightblue" d="M1672.66,-128.97C1681.81,-126.83 1691.75,-124.67 1701,-123 1820,-101.46 1960.99,-85.59 2036.93,-77.83"/>
<polygon fill="midnightblue" stroke="midnightblue" points="2037.61,-81.28 2047.21,-76.79 2036.91,-74.32 2037.61,-81.28"/>
</g>
<!-- Node19&#45;&gt;Node13 -->
<g id="edge25" class="edge">
<title>Node19&#45;&gt;Node13</title>
<path fill="none" stroke="midnightblue" d="M1819.37,-128.94C1876.32,-117.15 1978.81,-95.93 2040.61,-83.14"/>
<polygon fill="midnightblue" stroke="midnightblue" points="2041.45,-86.54 2050.54,-81.08 2040.03,-79.68 2041.45,-86.54"/>
</g>
<!-- Node20&#45;&gt;Node13 -->
<g id="edge27" class="edge">
<title>Node20&#45;&gt;Node13</title>
<path fill="none" stroke="midnightblue" d="M1953.25,-128.87C1980.94,-117.62 2029.56,-97.87 2061.27,-84.99"/>
<polygon fill="midnightblue" stroke="midnightblue" points="2062.97,-88.07 2070.92,-81.06 2060.34,-81.58 2062.97,-88.07"/>
</g>
<!-- Node21&#45;&gt;Node13 -->
<g id="edge29" class="edge">
<title>Node21&#45;&gt;Node13</title>
<path fill="none" stroke="midnightblue" d="M2092,-128.73C2092,-119.18 2092,-103.62 2092,-91.28"/>
<polygon fill="midnightblue" stroke="midnightblue" points="2095.5,-91.13 2092,-81.13 2088.5,-91.13 2095.5,-91.13"/>
</g>
<!-- Node22&#45;&gt;Node13 -->
<g id="edge31" class="edge">
<title>Node22&#45;&gt;Node13</title>
<path fill="none" stroke="midnightblue" d="M2203,-128.87C2181.29,-117.84 2143.51,-98.66 2118.13,-85.77"/>
<polygon fill="midnightblue" stroke="midnightblue" points="2119.57,-82.57 2109.07,-81.17 2116.4,-88.82 2119.57,-82.57"/>
</g>
<!-- Node23&#45;&gt;Node13 -->
<g id="edge33" class="edge">
<title>Node23&#45;&gt;Node13</title>
<path fill="none" stroke="midnightblue" d="M2290.59,-128.87C2249.76,-117.28 2177.13,-96.66 2131.93,-83.83"/>
<polygon fill="midnightblue" stroke="midnightblue" points="2132.75,-80.43 2122.17,-81.06 2130.83,-87.16 2132.75,-80.43"/>
</g>
<!-- Node24&#45;&gt;Node13 -->
<g id="edge35" class="edge">
<title>Node24&#45;&gt;Node13</title>
<path fill="none" stroke="midnightblue" d="M2394.83,-128.92C2389.46,-126.75 2383.57,-124.59 2378,-123 2299.12,-100.42 2204.96,-86.14 2146.82,-78.73"/>
<polygon fill="midnightblue" stroke="midnightblue" points="2147.1,-75.24 2136.74,-77.47 2146.23,-82.19 2147.1,-75.24"/>
</g>
<!-- Node25&#45;&gt;Node13 -->
<g id="edge37" class="edge">
<title>Node25&#45;&gt;Node13</title>
<path fill="none" stroke="midnightblue" d="M1065.24,-124.28C1068.2,-123.81 1071.13,-123.38 1074,-123 1439.34,-75.3 1883.82,-71.79 2037.02,-72.14"/>
<polygon fill="midnightblue" stroke="midnightblue" points="2037.11,-75.64 2047.12,-72.17 2037.13,-68.64 2037.11,-75.64"/>
</g>
<!-- Node26&#45;&gt;Node13 -->
<g id="edge39" class="edge">
<title>Node26&#45;&gt;Node13</title>
<path fill="none" stroke="midnightblue" d="M1215.12,-128.96C1229.25,-126.74 1244.7,-124.54 1259,-123 1551.07,-91.45 1903.03,-78.2 2036.8,-74.05"/>
<polygon fill="midnightblue" stroke="midnightblue" points="2037.29,-77.54 2047.18,-73.73 2037.08,-70.54 2037.29,-77.54"/>
</g>
<!-- Node27&#45;&gt;Node13 -->
<g id="edge41" class="edge">
<title>Node27&#45;&gt;Node13</title>
<path fill="none" stroke="midnightblue" d="M891.22,-128.97C906.23,-126.7 922.75,-124.47 938,-123 1359.42,-82.39 1870.58,-74.42 2036.88,-72.87"/>
<polygon fill="midnightblue" stroke="midnightblue" points="2037.36,-76.36 2047.33,-72.78 2037.3,-69.36 2037.36,-76.36"/>
</g>
<!-- Node28&#45;&gt;Node13 -->
<g id="edge43" class="edge">
<title>Node28&#45;&gt;Node13</title>
<path fill="none" stroke="midnightblue" d="M2466.78,-128.93C2461.46,-126.71 2455.58,-124.52 2450,-123 2344.81,-94.29 2217.54,-81.29 2146.59,-75.9"/>
<polygon fill="midnightblue" stroke="midnightblue" points="2146.77,-72.4 2136.54,-75.16 2146.25,-79.39 2146.77,-72.4"/>
</g>
<!-- Node29&#45;&gt;Node13 -->
<g id="edge45" class="edge">
<title>Node29&#45;&gt;Node13</title>
<path fill="none" stroke="midnightblue" d="M2536.8,-128.85C2531.49,-126.63 2525.6,-124.46 2520,-123 2388.95,-88.82 2229.25,-77.73 2146.93,-74.16"/>
<polygon fill="midnightblue" stroke="midnightblue" points="2146.93,-70.66 2136.8,-73.75 2146.65,-77.65 2146.93,-70.66"/>
</g>
<!-- Node30&#45;&gt;Node13 -->
<g id="edge47" class="edge">
<title>Node30&#45;&gt;Node13</title>
<path fill="none" stroke="midnightblue" d="M2606.71,-128.93C2601.46,-126.66 2595.59,-124.44 2590,-123 2432.8,-82.51 2239.85,-74.22 2147.03,-72.7"/>
<polygon fill="midnightblue" stroke="midnightblue" points="2146.8,-69.2 2136.75,-72.55 2146.7,-76.2 2146.8,-69.2"/>
</g>
<!-- Node31&#45;&gt;Node13 -->
<g id="edge49" class="edge">
<title>Node31&#45;&gt;Node13</title>
<path fill="none" stroke="midnightblue" d="M1907.6,-258.86C2111.08,-252.37 2796.79,-225.34 2861,-154 2870.22,-143.76 2870.42,-133.06 2861,-123 2812.4,-71.11 2314.39,-70.57 2146.74,-71.89"/>
<polygon fill="midnightblue" stroke="midnightblue" points="2146.62,-68.39 2136.65,-71.97 2146.68,-75.39 2146.62,-68.39"/>
</g>
<!-- Node32&#45;&gt;Node10 -->
<g id="edge63" class="edge">
<title>Node32&#45;&gt;Node10</title>
<path fill="none" stroke="midnightblue" d="M439.83,-315.72C396.45,-307.21 316.8,-291.4 249,-277 243.35,-275.8 237.43,-274.52 231.56,-273.23"/>
<polygon fill="midnightblue" stroke="midnightblue" points="232.3,-269.81 221.78,-271.06 230.79,-276.64 232.3,-269.81"/>
</g>
<!-- Node33 -->
<g id="node33" class="node">
<title>Node33</title>
<g id="a_node33"><a xlink:href="cp15_8hpp.html" target="_top" xlink:title=" ">
<polygon fill="none" stroke="black" points="408,-252 408,-271 536,-271 536,-252 408,-252"/>
<text text-anchor="middle" x="472" y="-259" font-family="Helvetica,sans-Serif" font-size="10.00">coprocessors/cp15.hpp</text>
</a>
</g>
</g>
<!-- Node32&#45;&gt;Node33 -->
<g id="edge51" class="edge">
<title>Node32&#45;&gt;Node33</title>
<path fill="none" stroke="midnightblue" d="M472,-313.48C472,-305.08 472,-291.98 472,-281.16"/>
<polygon fill="midnightblue" stroke="midnightblue" points="475.5,-281.01 472,-271.01 468.5,-281.01 475.5,-281.01"/>
</g>
<!-- Node36 -->
<g id="node36" class="node">
<title>Node36</title>
<g id="a_node36"><a xlink:href="peripheral_8hpp.html" target="_top" xlink:title=" ">
<polygon fill="none" stroke="black" points="526.5,-190.5 526.5,-209.5 671.5,-209.5 671.5,-190.5 526.5,-190.5"/>
<text text-anchor="middle" x="599" y="-197.5" font-family="Helvetica,sans-Serif" font-size="10.00">peripherals/peripheral.hpp</text>
</a>
</g>
</g>
<!-- Node32&#45;&gt;Node36 -->
<g id="edge61" class="edge">
<title>Node32&#45;&gt;Node36</title>
<path fill="none" stroke="midnightblue" d="M490.18,-313.41C505.85,-305.43 528.48,-292.47 545,-277 563.39,-259.77 579.39,-235.39 589.1,-218.93"/>
<polygon fill="midnightblue" stroke="midnightblue" points="592.37,-220.25 594.29,-209.83 586.29,-216.78 592.37,-220.25"/>
</g>
<!-- Node33&#45;&gt;Node3 -->
<g id="edge60" class="edge">
<title>Node33&#45;&gt;Node3</title>
<path fill="none" stroke="midnightblue" d="M469.81,-251.92C465.89,-237.81 456.59,-209.38 441,-190 402.94,-142.68 341.4,-105.02 306.46,-86.01"/>
<polygon fill="midnightblue" stroke="midnightblue" points="307.82,-82.77 297.35,-81.15 304.53,-88.95 307.82,-82.77"/>
</g>
<!-- Node33&#45;&gt;Node5 -->
<g id="edge52" class="edge">
<title>Node33&#45;&gt;Node5</title>
<path fill="none" stroke="midnightblue" d="M472.38,-251.91C473.95,-216.3 479.97,-79.75 482.18,-29.61"/>
<polygon fill="midnightblue" stroke="midnightblue" points="485.68,-29.7 482.62,-19.55 478.69,-29.39 485.68,-29.7"/>
</g>
<!-- Node34 -->
<g id="node34" class="node">
<title>Node34</title>
<g id="a_node34"><a xlink:title=" ">
<polygon fill="none" stroke="#bfbfbf" points="338.5,-190.5 338.5,-209.5 431.5,-209.5 431.5,-190.5 338.5,-190.5"/>
<text text-anchor="middle" x="385" y="-197.5" font-family="Helvetica,sans-Serif" font-size="10.00">unordered_map</text>
</a>
</g>
</g>
<!-- Node33&#45;&gt;Node34 -->
<g id="edge53" class="edge">
<title>Node33&#45;&gt;Node34</title>
<path fill="none" stroke="midnightblue" d="M459.54,-251.98C445.58,-242.43 422.74,-226.81 406.01,-215.37"/>
<polygon fill="midnightblue" stroke="midnightblue" points="407.67,-212.27 397.44,-209.51 403.72,-218.04 407.67,-212.27"/>
</g>
<!-- Node35 -->
<g id="node35" class="node">
<title>Node35</title>
<g id="a_node35"><a xlink:href="coprocessor_8hpp.html" target="_top" xlink:title=" ">
<polygon fill="none" stroke="black" points="761.5,-190.5 761.5,-209.5 856.5,-209.5 856.5,-190.5 761.5,-190.5"/>
<text text-anchor="middle" x="809" y="-197.5" font-family="Helvetica,sans-Serif" font-size="10.00">coprocessor.hpp</text>
</a>
</g>
</g>
<!-- Node33&#45;&gt;Node35 -->
<g id="edge54" class="edge">
<title>Node33&#45;&gt;Node35</title>
<path fill="none" stroke="midnightblue" d="M520.28,-251.98C581.27,-241.21 686.09,-222.7 751.25,-211.2"/>
<polygon fill="midnightblue" stroke="midnightblue" points="752.11,-214.6 761.35,-209.41 750.89,-207.71 752.11,-214.6"/>
</g>
<!-- Node35&#45;&gt;Node2 -->
<g id="edge56" class="edge">
<title>Node35&#45;&gt;Node2</title>
<path fill="none" stroke="midnightblue" d="M761.33,-194.45C645.04,-183.37 347.87,-155.03 232.14,-143.99"/>
<polygon fill="midnightblue" stroke="midnightblue" points="232.45,-140.51 222.16,-143.04 231.78,-147.48 232.45,-140.51"/>
</g>
<!-- Node35&#45;&gt;Node7 -->
<g id="edge55" class="edge">
<title>Node35&#45;&gt;Node7</title>
<path fill="none" stroke="midnightblue" d="M791.66,-190.47C777.43,-182.69 757.63,-169.99 745,-154 715.95,-117.21 739.09,-89.2 706,-56 685.29,-35.22 653.74,-23.71 629.39,-17.55"/>
<polygon fill="midnightblue" stroke="midnightblue" points="629.99,-14.09 619.45,-15.22 628.39,-20.91 629.99,-14.09"/>
</g>
<!-- Node35&#45;&gt;Node25 -->
<g id="edge57" class="edge">
<title>Node35&#45;&gt;Node25</title>
<path fill="none" stroke="midnightblue" d="M837.23,-190.48C866.52,-181.63 913.13,-167.55 949.95,-156.43"/>
<polygon fill="midnightblue" stroke="midnightblue" points="951.01,-159.76 959.57,-153.52 948.99,-153.06 951.01,-159.76"/>
</g>
<!-- Node35&#45;&gt;Node26 -->
<g id="edge58" class="edge">
<title>Node35&#45;&gt;Node26</title>
<path fill="none" stroke="midnightblue" d="M856.78,-191.04C920.79,-180.37 1034.46,-161.42 1104.72,-149.71"/>
<polygon fill="midnightblue" stroke="midnightblue" points="1105.47,-153.14 1114.76,-148.04 1104.32,-146.23 1105.47,-153.14"/>
</g>
<!-- Node35&#45;&gt;Node27 -->
<g id="edge59" class="edge">
<title>Node35&#45;&gt;Node27</title>
<path fill="none" stroke="midnightblue" d="M813.58,-190.48C818.24,-181.82 825.59,-168.15 831.51,-157.15"/>
<polygon fill="midnightblue" stroke="midnightblue" points="834.77,-158.47 836.42,-148.01 828.6,-155.16 834.77,-158.47"/>
</g>
<!-- Node36&#45;&gt;Node7 -->
<g id="edge62" class="edge">
<title>Node36&#45;&gt;Node7</title>
<path fill="none" stroke="midnightblue" d="M594.35,-190.23C583.04,-167.76 555.96,-106.34 569,-56 571.55,-46.18 576.75,-36.21 581.76,-28.17"/>
<polygon fill="midnightblue" stroke="midnightblue" points="584.75,-29.99 587.37,-19.73 578.92,-26.11 584.75,-29.99"/>
</g>
<!-- Node38&#45;&gt;Node2 -->
<g id="edge70" class="edge">
<title>Node38&#45;&gt;Node2</title>
<path fill="none" stroke="midnightblue" d="M290.03,-246.3C273.04,-237.36 252.04,-224.73 236,-210 219.02,-194.41 204.17,-172.36 194.93,-157.09"/>
<polygon fill="midnightblue" stroke="midnightblue" points="197.78,-155.03 189.71,-148.17 191.74,-158.57 197.78,-155.03"/>
</g>
<!-- Node38&#45;&gt;Node3 -->
<g id="edge71" class="edge">
<title>Node38&#45;&gt;Node3</title>
<path fill="none" stroke="midnightblue" d="M299.37,-246.5C288.09,-237.54 275.19,-224.84 269,-210 252.39,-170.18 264.61,-118.3 273.31,-91.06"/>
<polygon fill="midnightblue" stroke="midnightblue" points="276.72,-91.9 276.61,-81.3 270.09,-89.65 276.72,-91.9"/>
</g>
<!-- Node38&#45;&gt;Node34 -->
<g id="edge68" class="edge">
<title>Node38&#45;&gt;Node34</title>
<path fill="none" stroke="midnightblue" d="M335.4,-246.4C345.24,-237.4 357.99,-225.72 368.11,-216.47"/>
<polygon fill="midnightblue" stroke="midnightblue" points="370.53,-218.99 375.54,-209.66 365.8,-213.83 370.53,-218.99"/>
</g>
<!-- Node38&#45;&gt;Node36 -->
<g id="edge69" class="edge">
<title>Node38&#45;&gt;Node36</title>
<path fill="none" stroke="midnightblue" d="M382.61,-247.15C432.9,-236.42 502.59,-221.56 549.15,-211.63"/>
<polygon fill="midnightblue" stroke="midnightblue" points="549.96,-215.04 559.01,-209.53 548.5,-208.19 549.96,-215.04"/>
</g>
<!-- Node39 -->
<g id="node39" class="node">
<title>Node39</title>
<g id="a_node39"><a xlink:title=" ">
<polygon fill="none" stroke="#bfbfbf" points="278,-190.5 278,-209.5 320,-209.5 320,-190.5 278,-190.5"/>
<text text-anchor="middle" x="299" y="-197.5" font-family="Helvetica,sans-Serif" font-size="10.00">array</text>
</a>
</g>
</g>
<!-- Node38&#45;&gt;Node39 -->
<g id="edge67" class="edge">
<title>Node38&#45;&gt;Node39</title>
<path fill="none" stroke="midnightblue" d="M315.02,-246.4C312.16,-238.29 308.53,-228.01 305.45,-219.28"/>
<polygon fill="midnightblue" stroke="midnightblue" points="308.68,-217.92 302.06,-209.66 302.08,-220.25 308.68,-217.92"/>
</g>
<!-- Node40&#45;&gt;Node7 -->
<g id="edge73" class="edge">
<title>Node40&#45;&gt;Node7</title>
<path fill="none" stroke="midnightblue" d="M626.81,-56.4C620.63,-47.84 612.7,-36.87 606.18,-27.86"/>
<polygon fill="midnightblue" stroke="midnightblue" points="608.95,-25.71 600.26,-19.66 603.28,-29.81 608.95,-25.71"/>
</g>
</g>
</svg>
