<?xml version="1.0" encoding="UTF-8" standalone="no"?>
<!DOCTYPE svg PUBLIC "-//W3C//DTD SVG 1.1//EN"
 "http://www.w3.org/Graphics/SVG/1.1/DTD/svg11.dtd">
<!-- Generated by graphviz version 2.43.0 (0)
 -->
<!-- Title: src/core/arm1176jzf_s/core.hpp Pages: 1 -->
<svg width="2956pt" height="408pt"
 viewBox="0.00 0.00 2955.94 408.00" xmlns="http://www.w3.org/2000/svg" xmlns:xlink="http://www.w3.org/1999/xlink">
<g id="graph0" class="graph" transform="scale(1 1) rotate(0) translate(4 404)">
<title>src/core/arm1176jzf_s/core.hpp</title>
<!-- Node1 -->
<g id="node1" class="node">
<title>Node1</title>
<g id="a_node1"><a xlink:title="This file defines a class that represents a CPU core (arm1176jzf_s).">
<polygon fill="#bfbfbf" stroke="black" points="2483.94,-369.5 2483.94,-399.5 2596.94,-399.5 2596.94,-369.5 2483.94,-369.5"/>
<text text-anchor="start" x="2491.94" y="-387.5" font-family="Helvetica,sans-Serif" font-size="10.00">src/core/arm1176jzf</text>
<text text-anchor="middle" x="2540.44" y="-376.5" font-family="Helvetica,sans-Serif" font-size="10.00">_s/core.hpp</text>
</a>
</g>
</g>
<!-- Node2 -->
<g id="node2" class="node">
<title>Node2</title>
<g id="a_node2"><a xlink:href="context_8hpp.html" target="_top" xlink:title="This file defines the context (registers) of the CPU.">
<polygon fill="none" stroke="black" points="2543.44,-62 2543.44,-81 2617.44,-81 2617.44,-62 2543.44,-62"/>
<text text-anchor="middle" x="2580.44" y="-69" font-family="Helvetica,sans-Serif" font-size="10.00">context.hpp</text>
</a>
</g>
</g>
<!-- Node1&#45;&gt;Node2 -->
<g id="edge1" class="edge">
<title>Node1&#45;&gt;Node2</title>
<path fill="none" stroke="midnightblue" d="M2553.95,-369.42C2575,-347.57 2613.98,-307.43 2621.44,-302 2650.05,-281.19 2673.92,-296.15 2692.44,-266 2726.29,-210.89 2704.91,-174.23 2665.44,-123 2652.35,-106.02 2631.81,-93.59 2614.2,-85.31"/>
<polygon fill="midnightblue" stroke="midnightblue" points="2615.34,-81.99 2604.78,-81.14 2612.5,-88.39 2615.34,-81.99"/>
</g>
<!-- Node3 -->
<g id="node3" class="node">
<title>Node3</title>
<g id="a_node3"><a xlink:href="logger_8hpp.html" target="_top" xlink:title="This file defines a general logger interface as well as a logging system that is used in the project.">
<polygon fill="none" stroke="black" points="2413.44,-0.5 2413.44,-19.5 2559.44,-19.5 2559.44,-0.5 2413.44,-0.5"/>
<text text-anchor="middle" x="2486.44" y="-7.5" font-family="Helvetica,sans-Serif" font-size="10.00">zero_mate/utils/logger.hpp</text>
</a>
</g>
</g>
<!-- Node1&#45;&gt;Node3 -->
<g id="edge74" class="edge">
<title>Node1&#45;&gt;Node3</title>
<path fill="none" stroke="midnightblue" d="M2597.19,-378.6C2659.99,-372.01 2755.76,-358.1 2781.44,-333 2808.03,-307 2800.44,-288.69 2800.44,-251.5 2800.44,-251.5 2800.44,-251.5 2800.44,-132 2800.44,-78.08 2637.2,-39.01 2546.12,-21.41"/>
<polygon fill="midnightblue" stroke="midnightblue" points="2546.67,-17.95 2536.19,-19.52 2545.36,-24.83 2546.67,-17.95"/>
</g>
<!-- Node4 -->
<g id="node4" class="node">
<title>Node4</title>
<g id="a_node4"><a xlink:href="exceptions_8hpp.html" target="_top" xlink:title="This file defines all exceptions that can be thrown by the CPU during execution.">
<polygon fill="none" stroke="black" points="2403.94,-179.5 2403.94,-198.5 2494.94,-198.5 2494.94,-179.5 2403.94,-179.5"/>
<text text-anchor="middle" x="2449.44" y="-186.5" font-family="Helvetica,sans-Serif" font-size="10.00">exceptions.hpp</text>
</a>
</g>
</g>
<!-- Node1&#45;&gt;Node4 -->
<g id="edge3" class="edge">
<title>Node1&#45;&gt;Node4</title>
<path fill="none" stroke="midnightblue" d="M2537.68,-369.17C2531.96,-341.68 2517.06,-280.25 2490.44,-235 2484.17,-224.34 2475.06,-214.03 2467.03,-205.97"/>
<polygon fill="midnightblue" stroke="midnightblue" points="2469.13,-203.13 2459.49,-198.73 2464.28,-208.18 2469.13,-203.13"/>
</g>
<!-- Node6 -->
<g id="node6" class="node">
<title>Node6</title>
<g id="a_node6"><a xlink:href="isa_8hpp.html" target="_top" xlink:title="This file is just a helper file for including all ARM instructions supported by the emulator.">
<polygon fill="none" stroke="black" points="1135.94,-123.5 1135.94,-142.5 1204.94,-142.5 1204.94,-123.5 1135.94,-123.5"/>
<text text-anchor="middle" x="1170.44" y="-130.5" font-family="Helvetica,sans-Serif" font-size="10.00">isa/isa.hpp</text>
</a>
</g>
</g>
<!-- Node1&#45;&gt;Node6 -->
<g id="edge6" class="edge">
<title>Node1&#45;&gt;Node6</title>
<path fill="none" stroke="midnightblue" d="M2483.75,-373.18C2257.04,-331.89 1418.16,-179.11 1214.97,-142.11"/>
<polygon fill="midnightblue" stroke="midnightblue" points="1215.42,-138.64 1204.96,-140.29 1214.17,-145.52 1215.42,-138.64"/>
</g>
<!-- Node25 -->
<g id="node25" class="node">
<title>Node25</title>
<g id="a_node25"><a xlink:href="isa__decoder_8hpp.html" target="_top" xlink:title="This file defines an instruction decoder.">
<polygon fill="none" stroke="black" points="926.94,-241 926.94,-260 1039.94,-260 1039.94,-241 926.94,-241"/>
<text text-anchor="middle" x="983.44" y="-248" font-family="Helvetica,sans-Serif" font-size="10.00">isa/isa_decoder.hpp</text>
</a>
</g>
</g>
<!-- Node1&#45;&gt;Node25 -->
<g id="edge42" class="edge">
<title>Node1&#45;&gt;Node25</title>
<path fill="none" stroke="midnightblue" d="M2483.64,-378.68C2243.06,-358.29 1308.56,-279.06 1050.04,-257.15"/>
<polygon fill="midnightblue" stroke="midnightblue" points="1050.3,-253.66 1040.04,-256.3 1049.71,-260.63 1050.3,-253.66"/>
</g>
<!-- Node26 -->
<g id="node26" class="node">
<title>Node26</title>
<g id="a_node26"><a xlink:href="bus_8hpp.html" target="_top" xlink:title="This file defines an interface the CPU uses to access different memory&#45;mapped peripherals.">
<polygon fill="none" stroke="black" points="2417.44,-241 2417.44,-260 2481.44,-260 2481.44,-241 2417.44,-241"/>
<text text-anchor="middle" x="2449.44" y="-248" font-family="Helvetica,sans-Serif" font-size="10.00">../bus.hpp</text>
</a>
</g>
</g>
<!-- Node1&#45;&gt;Node26 -->
<g id="edge44" class="edge">
<title>Node1&#45;&gt;Node26</title>
<path fill="none" stroke="midnightblue" d="M2528.07,-369.31C2519.65,-359.4 2508.44,-345.72 2499.44,-333 2484.36,-311.71 2468.95,-285.84 2459.3,-269.05"/>
<polygon fill="midnightblue" stroke="midnightblue" points="2462.31,-267.27 2454.33,-260.31 2456.23,-270.73 2462.31,-267.27"/>
</g>
<!-- Node36 -->
<g id="node36" class="node">
<title>Node36</title>
<g id="a_node36"><a xlink:href="mmu_8hpp.html" target="_top" xlink:title="This file defines the MMU (memory management unit) of the CPU.">
<polygon fill="none" stroke="black" points="2329.44,-308 2329.44,-327 2421.44,-327 2421.44,-308 2329.44,-308"/>
<text text-anchor="middle" x="2375.44" y="-315" font-family="Helvetica,sans-Serif" font-size="10.00">mmu/mmu.hpp</text>
</a>
</g>
</g>
<!-- Node1&#45;&gt;Node36 -->
<g id="edge67" class="edge">
<title>Node1&#45;&gt;Node36</title>
<path fill="none" stroke="midnightblue" d="M2504.63,-369.4C2475.43,-357.89 2434.58,-341.8 2406.68,-330.81"/>
<polygon fill="midnightblue" stroke="midnightblue" points="2407.62,-327.42 2397.03,-327.01 2405.05,-333.93 2407.62,-327.42"/>
</g>
<!-- Node39 -->
<g id="node39" class="node">
<title>Node39</title>
<g id="a_node39"><a xlink:href="math_8hpp.html" target="_top" xlink:title="This file defines and implements a variety of handy helper functions that are used throughout the pro...">
<polygon fill="none" stroke="black" points="2630.44,-308 2630.44,-327 2772.44,-327 2772.44,-308 2630.44,-308"/>
<text text-anchor="middle" x="2701.44" y="-315" font-family="Helvetica,sans-Serif" font-size="10.00">zero_mate/utils/math.hpp</text>
</a>
</g>
</g>
<!-- Node1&#45;&gt;Node39 -->
<g id="edge73" class="edge">
<title>Node1&#45;&gt;Node39</title>
<path fill="none" stroke="midnightblue" d="M2575.37,-369.4C2603.87,-357.89 2643.73,-341.8 2670.95,-330.81"/>
<polygon fill="midnightblue" stroke="midnightblue" points="2672.4,-334 2680.37,-327.01 2669.78,-327.51 2672.4,-334"/>
</g>
<!-- Node40 -->
<g id="node40" class="node">
<title>Node40</title>
<g id="a_node40"><a xlink:href="interrupt__controller_8hpp.html" target="_top" xlink:title="This file defines the interrupt controller used in BCM2835.">
<polygon fill="none" stroke="black" points="2557.94,-235.5 2557.94,-265.5 2682.94,-265.5 2682.94,-235.5 2557.94,-235.5"/>
<text text-anchor="start" x="2565.94" y="-253.5" font-family="Helvetica,sans-Serif" font-size="10.00">../peripherals/interrupt</text>
<text text-anchor="middle" x="2620.44" y="-242.5" font-family="Helvetica,sans-Serif" font-size="10.00">_controller.hpp</text>
</a>
</g>
</g>
<!-- Node1&#45;&gt;Node40 -->
<g id="edge75" class="edge">
<title>Node1&#45;&gt;Node40</title>
<path fill="none" stroke="midnightblue" d="M2548.62,-369.28C2558.07,-352.95 2574.14,-325.4 2588.44,-302 2594.06,-292.8 2600.39,-282.75 2605.93,-274.05"/>
<polygon fill="midnightblue" stroke="midnightblue" points="2608.91,-275.88 2611.35,-265.57 2603.01,-272.11 2608.91,-275.88"/>
</g>
<!-- Node41 -->
<g id="node41" class="node">
<title>Node41</title>
<g id="a_node41"><a xlink:href="system__clock__listener_8hpp.html" target="_top" xlink:title="This file defines an interface for a CPU clock listener.">
<polygon fill="none" stroke="black" points="2828.94,-302.5 2828.94,-332.5 2947.94,-332.5 2947.94,-302.5 2828.94,-302.5"/>
<text text-anchor="start" x="2836.94" y="-320.5" font-family="Helvetica,sans-Serif" font-size="10.00">../peripherals/system</text>
<text text-anchor="middle" x="2888.44" y="-309.5" font-family="Helvetica,sans-Serif" font-size="10.00">_clock_listener.hpp</text>
</a>
</g>
</g>
<!-- Node1&#45;&gt;Node41 -->
<g id="edge79" class="edge">
<title>Node1&#45;&gt;Node41</title>
<path fill="none" stroke="midnightblue" d="M2597.15,-373.24C2652.58,-363.17 2739.36,-347.27 2814.44,-333 2815.88,-332.72 2817.35,-332.45 2818.82,-332.16"/>
<polygon fill="midnightblue" stroke="midnightblue" points="2819.51,-335.59 2828.67,-330.27 2818.19,-328.72 2819.51,-335.59"/>
</g>
<!-- Node2&#45;&gt;Node3 -->
<g id="edge2" class="edge">
<title>Node2&#45;&gt;Node3</title>
<path fill="none" stroke="midnightblue" d="M2566.97,-61.98C2551.75,-52.34 2526.75,-36.52 2508.64,-25.05"/>
<polygon fill="midnightblue" stroke="midnightblue" points="2510.2,-21.9 2499.88,-19.51 2506.46,-27.81 2510.2,-21.9"/>
</g>
<!-- Node4&#45;&gt;Node2 -->
<g id="edge5" class="edge">
<title>Node4&#45;&gt;Node2</title>
<path fill="none" stroke="midnightblue" d="M2495.22,-179.57C2545.75,-169.81 2621.09,-153.7 2629.44,-143 2644.06,-124.27 2621.47,-101.53 2602.34,-87.04"/>
<polygon fill="midnightblue" stroke="midnightblue" points="2604.37,-84.18 2594.21,-81.18 2600.28,-89.87 2604.37,-84.18"/>
</g>
<!-- Node5 -->
<g id="node5" class="node">
<title>Node5</title>
<g id="a_node5"><a xlink:title=" ">
<polygon fill="none" stroke="#bfbfbf" points="2540.94,-123.5 2540.94,-142.5 2619.94,-142.5 2619.94,-123.5 2540.94,-123.5"/>
<text text-anchor="middle" x="2580.44" y="-130.5" font-family="Helvetica,sans-Serif" font-size="10.00">fmt/format.h</text>
</a>
</g>
</g>
<!-- Node4&#45;&gt;Node5 -->
<g id="edge4" class="edge">
<title>Node4&#45;&gt;Node5</title>
<path fill="none" stroke="midnightblue" d="M2470.19,-179.44C2491.75,-170.56 2525.7,-156.56 2550.23,-146.45"/>
<polygon fill="midnightblue" stroke="midnightblue" points="2551.86,-149.56 2559.78,-142.52 2549.2,-143.09 2551.86,-149.56"/>
</g>
<!-- Node7 -->
<g id="node7" class="node">
<title>Node7</title>
<g id="a_node7"><a xlink:href="instruction_8hpp.html" target="_top" xlink:title="This file defines the interface of a general ARM instruction.">
<polygon fill="none" stroke="black" points="1032.94,-0.5 1032.94,-19.5 1121.94,-19.5 1121.94,-0.5 1032.94,-0.5"/>
<text text-anchor="middle" x="1077.44" y="-7.5" font-family="Helvetica,sans-Serif" font-size="10.00">instruction.hpp</text>
</a>
</g>
</g>
<!-- Node6&#45;&gt;Node7 -->
<g id="edge7" class="edge">
<title>Node6&#45;&gt;Node7</title>
<path fill="none" stroke="midnightblue" d="M1205.11,-132.29C1285.57,-131.85 1473.76,-123.77 1414.44,-56 1396.16,-35.12 1222.97,-20.64 1132.26,-14.42"/>
<polygon fill="midnightblue" stroke="midnightblue" points="1132.37,-10.92 1122.16,-13.74 1131.9,-17.9 1132.37,-10.92"/>
</g>
<!-- Node8 -->
<g id="node8" class="node">
<title>Node8</title>
<g id="a_node8"><a xlink:href="branch__and__exchange_8hpp.html" target="_top" xlink:title="This file defines a branch and exchange instruction (BX).">
<polygon fill="none" stroke="black" points="1462.44,-62 1462.44,-81 1608.44,-81 1608.44,-62 1462.44,-62"/>
<text text-anchor="middle" x="1535.44" y="-69" font-family="Helvetica,sans-Serif" font-size="10.00">branch_and_exchange.hpp</text>
</a>
</g>
</g>
<!-- Node6&#45;&gt;Node8 -->
<g id="edge8" class="edge">
<title>Node6&#45;&gt;Node8</title>
<path fill="none" stroke="midnightblue" d="M1205.12,-126.44C1257.73,-117.99 1360.87,-101.38 1448.44,-87 1456.8,-85.63 1465.61,-84.17 1474.29,-82.73"/>
<polygon fill="midnightblue" stroke="midnightblue" points="1475.09,-86.14 1484.38,-81.05 1473.94,-79.24 1475.09,-86.14"/>
</g>
<!-- Node9 -->
<g id="node9" class="node">
<title>Node9</title>
<g id="a_node9"><a xlink:href="branch_8hpp.html" target="_top" xlink:title="This file defines a branch instruction (B, BL).">
<polygon fill="none" stroke="black" points="23.94,-62 23.94,-81 94.94,-81 94.94,-62 23.94,-62"/>
<text text-anchor="middle" x="59.44" y="-69" font-family="Helvetica,sans-Serif" font-size="10.00">branch.hpp</text>
</a>
</g>
</g>
<!-- Node6&#45;&gt;Node9 -->
<g id="edge10" class="edge">
<title>Node6&#45;&gt;Node9</title>
<path fill="none" stroke="midnightblue" d="M1135.78,-131.82C975.88,-130.8 308.41,-124.35 103.44,-87 99.46,-86.27 95.34,-85.27 91.3,-84.14"/>
<polygon fill="midnightblue" stroke="midnightblue" points="92.1,-80.72 81.51,-81.09 90.02,-87.4 92.1,-80.72"/>
</g>
<!-- Node10 -->
<g id="node10" class="node">
<title>Node10</title>
<g id="a_node10"><a xlink:href="data__processing_8hpp.html" target="_top" xlink:title="This file defines a data processing instruction.">
<polygon fill="none" stroke="black" points="112.94,-62 112.94,-81 229.94,-81 229.94,-62 112.94,-62"/>
<text text-anchor="middle" x="171.44" y="-69" font-family="Helvetica,sans-Serif" font-size="10.00">data_processing.hpp</text>
</a>
</g>
</g>
<!-- Node6&#45;&gt;Node10 -->
<g id="edge12" class="edge">
<title>Node6&#45;&gt;Node10</title>
<path fill="none" stroke="midnightblue" d="M1135.55,-132.38C1012.32,-133.29 586.16,-132.7 238.44,-87 230.97,-86.02 223.1,-84.64 215.49,-83.11"/>
<polygon fill="midnightblue" stroke="midnightblue" points="216.18,-79.68 205.68,-81.05 214.74,-86.53 216.18,-79.68"/>
</g>
<!-- Node11 -->
<g id="node11" class="node">
<title>Node11</title>
<g id="a_node11"><a xlink:href="multiply_8hpp.html" target="_top" xlink:title="This file defines a multiplication instruction (MUL, MLA).">
<polygon fill="none" stroke="black" points="247.94,-62 247.94,-81 324.94,-81 324.94,-62 247.94,-62"/>
<text text-anchor="middle" x="286.44" y="-69" font-family="Helvetica,sans-Serif" font-size="10.00">multiply.hpp</text>
</a>
</g>
</g>
<!-- Node6&#45;&gt;Node11 -->
<g id="edge14" class="edge">
<title>Node6&#45;&gt;Node11</title>
<path fill="none" stroke="midnightblue" d="M1135.77,-131.24C998.43,-128.06 492.28,-114.67 334.44,-87 329.88,-86.2 325.14,-85.11 320.49,-83.88"/>
<polygon fill="midnightblue" stroke="midnightblue" points="321.16,-80.43 310.58,-81.03 319.22,-87.15 321.16,-80.43"/>
</g>
<!-- Node12 -->
<g id="node12" class="node">
<title>Node12</title>
<g id="a_node12"><a xlink:href="multiply__long_8hpp.html" target="_top" xlink:title="This file defines a multiplication (long) instruction.">
<polygon fill="none" stroke="black" points="343.44,-62 343.44,-81 447.44,-81 447.44,-62 343.44,-62"/>
<text text-anchor="middle" x="395.44" y="-69" font-family="Helvetica,sans-Serif" font-size="10.00">multiply_long.hpp</text>
</a>
</g>
</g>
<!-- Node6&#45;&gt;Node12 -->
<g id="edge16" class="edge">
<title>Node6&#45;&gt;Node12</title>
<path fill="none" stroke="midnightblue" d="M1135.67,-131.9C1031.86,-131.16 715.33,-125.64 456.44,-87 450.08,-86.05 443.41,-84.77 436.9,-83.36"/>
<polygon fill="midnightblue" stroke="midnightblue" points="437.43,-79.88 426.9,-81.06 435.86,-86.71 437.43,-79.88"/>
</g>
<!-- Node13 -->
<g id="node13" class="node">
<title>Node13</title>
<g id="a_node13"><a xlink:href="single__data__transfer_8hpp.html" target="_top" xlink:title="This file defines single data transfer instruction (LDR, STR).">
<polygon fill="none" stroke="black" points="465.94,-62 465.94,-81 602.94,-81 602.94,-62 465.94,-62"/>
<text text-anchor="middle" x="534.44" y="-69" font-family="Helvetica,sans-Serif" font-size="10.00">single_data_transfer.hpp</text>
</a>
</g>
</g>
<!-- Node6&#45;&gt;Node13 -->
<g id="edge18" class="edge">
<title>Node6&#45;&gt;Node13</title>
<path fill="none" stroke="midnightblue" d="M1135.7,-130.45C1047.78,-126.25 809.46,-113.19 612.44,-87 603.9,-85.87 594.88,-84.42 586.12,-82.88"/>
<polygon fill="midnightblue" stroke="midnightblue" points="586.47,-79.39 576,-81.05 585.22,-86.28 586.47,-79.39"/>
</g>
<!-- Node14 -->
<g id="node14" class="node">
<title>Node14</title>
<g id="a_node14"><a xlink:href="block__data__transfer_8hpp.html" target="_top" xlink:title="This file defines a block data transfer instruction (LDM, STM).">
<polygon fill="none" stroke="black" points="621.44,-62 621.44,-81 755.44,-81 755.44,-62 621.44,-62"/>
<text text-anchor="middle" x="688.44" y="-69" font-family="Helvetica,sans-Serif" font-size="10.00">block_data_transfer.hpp</text>
</a>
</g>
</g>
<!-- Node6&#45;&gt;Node14 -->
<g id="edge20" class="edge">
<title>Node6&#45;&gt;Node14</title>
<path fill="none" stroke="midnightblue" d="M1135.83,-129.08C1065.59,-122.96 901.36,-107.62 764.44,-87 756.59,-85.82 748.32,-84.41 740.24,-82.94"/>
<polygon fill="midnightblue" stroke="midnightblue" points="740.62,-79.45 730.15,-81.07 739.34,-86.34 740.62,-79.45"/>
</g>
<!-- Node15 -->
<g id="node15" class="node">
<title>Node15</title>
<g id="a_node15"><a xlink:href="halfword__data__transfer_8hpp.html" target="_top" xlink:title="This file defines a Halfword data transfer instruction.">
<polygon fill="none" stroke="black" points="773.94,-62 773.94,-81 922.94,-81 922.94,-62 773.94,-62"/>
<text text-anchor="middle" x="848.44" y="-69" font-family="Helvetica,sans-Serif" font-size="10.00">halfword_data_transfer.hpp</text>
</a>
</g>
</g>
<!-- Node6&#45;&gt;Node15 -->
<g id="edge22" class="edge">
<title>Node6&#45;&gt;Node15</title>
<path fill="none" stroke="midnightblue" d="M1135.67,-125.58C1080.22,-115.33 971.22,-95.19 904.6,-82.88"/>
<polygon fill="midnightblue" stroke="midnightblue" points="905.16,-79.42 894.69,-81.05 903.89,-86.31 905.16,-79.42"/>
</g>
<!-- Node16 -->
<g id="node16" class="node">
<title>Node16</title>
<g id="a_node16"><a xlink:href="extend_8hpp.html" target="_top" xlink:title="This file defines an extend instruction.">
<polygon fill="none" stroke="black" points="940.94,-62 940.94,-81 1011.94,-81 1011.94,-62 940.94,-62"/>
<text text-anchor="middle" x="976.44" y="-69" font-family="Helvetica,sans-Serif" font-size="10.00">extend.hpp</text>
</a>
</g>
</g>
<!-- Node6&#45;&gt;Node16 -->
<g id="edge24" class="edge">
<title>Node6&#45;&gt;Node16</title>
<path fill="none" stroke="midnightblue" d="M1141.05,-123.44C1110.75,-114.55 1062.19,-100.14 1020.44,-87 1017.54,-86.09 1014.54,-85.13 1011.53,-84.16"/>
<polygon fill="midnightblue" stroke="midnightblue" points="1012.58,-80.82 1001.99,-81.05 1010.42,-87.48 1012.58,-80.82"/>
</g>
<!-- Node17 -->
<g id="node17" class="node">
<title>Node17</title>
<g id="a_node17"><a xlink:href="psr__transfer_8hpp.html" target="_top" xlink:title="This file defines a PSR instruction (MRS, MSR).">
<polygon fill="none" stroke="black" points="1029.94,-62 1029.94,-81 1124.94,-81 1124.94,-62 1029.94,-62"/>
<text text-anchor="middle" x="1077.44" y="-69" font-family="Helvetica,sans-Serif" font-size="10.00">psr_transfer.hpp</text>
</a>
</g>
</g>
<!-- Node6&#45;&gt;Node17 -->
<g id="edge26" class="edge">
<title>Node6&#45;&gt;Node17</title>
<path fill="none" stroke="midnightblue" d="M1157.11,-123.48C1142.06,-113.84 1117.32,-98.02 1099.4,-86.55"/>
<polygon fill="midnightblue" stroke="midnightblue" points="1101.05,-83.45 1090.74,-81.01 1097.27,-89.35 1101.05,-83.45"/>
</g>
<!-- Node18 -->
<g id="node18" class="node">
<title>Node18</title>
<g id="a_node18"><a xlink:href="cps_8hpp.html" target="_top" xlink:title="This file defines a change processor state instruction (CPS).">
<polygon fill="none" stroke="black" points="1143.44,-62 1143.44,-81 1197.44,-81 1197.44,-62 1143.44,-62"/>
<text text-anchor="middle" x="1170.44" y="-69" font-family="Helvetica,sans-Serif" font-size="10.00">cps.hpp</text>
</a>
</g>
</g>
<!-- Node6&#45;&gt;Node18 -->
<g id="edge28" class="edge">
<title>Node6&#45;&gt;Node18</title>
<path fill="none" stroke="midnightblue" d="M1170.44,-123.48C1170.44,-115.08 1170.44,-101.98 1170.44,-91.16"/>
<polygon fill="midnightblue" stroke="midnightblue" points="1173.94,-91.01 1170.44,-81.01 1166.94,-91.01 1173.94,-91.01"/>
</g>
<!-- Node19 -->
<g id="node19" class="node">
<title>Node19</title>
<g id="a_node19"><a xlink:href="coprocessor__register__transfer_8hpp.html" target="_top" xlink:title="This file defines a coprocessor register transfer (MRC, MCR).">
<polygon fill="none" stroke="black" points="1820.44,-56.5 1820.44,-86.5 1938.44,-86.5 1938.44,-56.5 1820.44,-56.5"/>
<text text-anchor="start" x="1828.44" y="-74.5" font-family="Helvetica,sans-Serif" font-size="10.00">coprocessor_register</text>
<text text-anchor="middle" x="1879.44" y="-63.5" font-family="Helvetica,sans-Serif" font-size="10.00">_transfer.hpp</text>
</a>
</g>
</g>
<!-- Node6&#45;&gt;Node19 -->
<g id="edge30" class="edge">
<title>Node6&#45;&gt;Node19</title>
<path fill="none" stroke="midnightblue" d="M1204.95,-131.23C1301.22,-128.74 1580.7,-119.06 1810.44,-87 1810.54,-86.99 1810.64,-86.97 1810.74,-86.96"/>
<polygon fill="midnightblue" stroke="midnightblue" points="1811.09,-90.45 1820.43,-85.45 1810.02,-83.53 1811.09,-90.45"/>
</g>
<!-- Node20 -->
<g id="node20" class="node">
<title>Node20</title>
<g id="a_node20"><a xlink:href="coprocessor__data__transfer_8hpp.html" target="_top" xlink:title="This file defines a coprocessor data transfer (LDC, STC).">
<polygon fill="none" stroke="black" points="1956.44,-62 1956.44,-81 2122.44,-81 2122.44,-62 1956.44,-62"/>
<text text-anchor="middle" x="2039.44" y="-69" font-family="Helvetica,sans-Serif" font-size="10.00">coprocessor_data_transfer.hpp</text>
</a>
</g>
</g>
<!-- Node6&#45;&gt;Node20 -->
<g id="edge32" class="edge">
<title>Node6&#45;&gt;Node20</title>
<path fill="none" stroke="midnightblue" d="M1205,-131.21C1314.22,-128.46 1661.61,-117.73 1947.44,-87 1958.27,-85.84 1969.77,-84.28 1980.84,-82.62"/>
<polygon fill="midnightblue" stroke="midnightblue" points="1981.51,-86.06 1990.85,-81.07 1980.44,-79.14 1981.51,-86.06"/>
</g>
<!-- Node21 -->
<g id="node21" class="node">
<title>Node21</title>
<g id="a_node21"><a xlink:href="coprocessor__data__operation_8hpp.html" target="_top" xlink:title="This file defines a coprocessor data operation (CDP).">
<polygon fill="none" stroke="black" points="1626.94,-62 1626.94,-81 1801.94,-81 1801.94,-62 1626.94,-62"/>
<text text-anchor="middle" x="1714.44" y="-69" font-family="Helvetica,sans-Serif" font-size="10.00">coprocessor_data_operation.hpp</text>
</a>
</g>
</g>
<!-- Node6&#45;&gt;Node21 -->
<g id="edge34" class="edge">
<title>Node6&#45;&gt;Node21</title>
<path fill="none" stroke="midnightblue" d="M1204.99,-129.09C1280.14,-122.64 1464,-106.18 1617.44,-87 1628.17,-85.66 1639.56,-84.09 1650.6,-82.49"/>
<polygon fill="midnightblue" stroke="midnightblue" points="1651.24,-85.93 1660.63,-81.01 1650.22,-79.01 1651.24,-85.93"/>
</g>
<!-- Node22 -->
<g id="node22" class="node">
<title>Node22</title>
<g id="a_node22"><a xlink:href="srs_8hpp.html" target="_top" xlink:title="This file defines an SRS instruction (store return state onto a stack).">
<polygon fill="none" stroke="black" points="1215.44,-62 1215.44,-81 1267.44,-81 1267.44,-62 1215.44,-62"/>
<text text-anchor="middle" x="1241.44" y="-69" font-family="Helvetica,sans-Serif" font-size="10.00">srs.hpp</text>
</a>
</g>
</g>
<!-- Node6&#45;&gt;Node22 -->
<g id="edge36" class="edge">
<title>Node6&#45;&gt;Node22</title>
<path fill="none" stroke="midnightblue" d="M1180.61,-123.48C1191.79,-114.11 1209.95,-98.88 1223.53,-87.51"/>
<polygon fill="midnightblue" stroke="midnightblue" points="1225.87,-90.11 1231.28,-81.01 1221.37,-84.75 1225.87,-90.11"/>
</g>
<!-- Node23 -->
<g id="node23" class="node">
<title>Node23</title>
<g id="a_node23"><a xlink:href="rfe_8hpp.html" target="_top" xlink:title="This file defines an RFE instruction (return from exception).">
<polygon fill="none" stroke="black" points="1285.94,-62 1285.94,-81 1336.94,-81 1336.94,-62 1285.94,-62"/>
<text text-anchor="middle" x="1311.44" y="-69" font-family="Helvetica,sans-Serif" font-size="10.00">rfe.hpp</text>
</a>
</g>
</g>
<!-- Node6&#45;&gt;Node23 -->
<g id="edge38" class="edge">
<title>Node6&#45;&gt;Node23</title>
<path fill="none" stroke="midnightblue" d="M1190.64,-123.48C1214.51,-113.4 1254.44,-96.55 1281.81,-85"/>
<polygon fill="midnightblue" stroke="midnightblue" points="1283.42,-88.12 1291.27,-81.01 1280.7,-81.67 1283.42,-88.12"/>
</g>
<!-- Node24 -->
<g id="node24" class="node">
<title>Node24</title>
<g id="a_node24"><a xlink:href="clz_8hpp.html" target="_top" xlink:title="This file defines a count leading zeros instruction (CLZ).">
<polygon fill="none" stroke="black" points="1354.94,-62 1354.94,-81 1405.94,-81 1405.94,-62 1354.94,-62"/>
<text text-anchor="middle" x="1380.44" y="-69" font-family="Helvetica,sans-Serif" font-size="10.00">clz.hpp</text>
</a>
</g>
</g>
<!-- Node6&#45;&gt;Node24 -->
<g id="edge40" class="edge">
<title>Node6&#45;&gt;Node24</title>
<path fill="none" stroke="midnightblue" d="M1205.06,-124.62C1240.66,-116.67 1297.53,-102.99 1345.44,-87 1347.35,-86.36 1349.32,-85.66 1351.29,-84.94"/>
<polygon fill="midnightblue" stroke="midnightblue" points="1352.97,-88.03 1361,-81.12 1350.41,-81.52 1352.97,-88.03"/>
</g>
<!-- Node8&#45;&gt;Node7 -->
<g id="edge9" class="edge">
<title>Node8&#45;&gt;Node7</title>
<path fill="none" stroke="midnightblue" d="M1486.72,-61.99C1474.26,-59.92 1460.86,-57.79 1448.44,-56 1336.42,-39.88 1204.82,-24.84 1132.32,-16.89"/>
<polygon fill="midnightblue" stroke="midnightblue" points="1132.39,-13.37 1122.07,-15.76 1131.63,-20.33 1132.39,-13.37"/>
</g>
<!-- Node9&#45;&gt;Node7 -->
<g id="edge11" class="edge">
<title>Node9&#45;&gt;Node7</title>
<path fill="none" stroke="midnightblue" d="M81.51,-61.92C88.43,-59.59 96.16,-57.34 103.44,-56 281.86,-23.12 844.37,-13.75 1022.66,-11.57"/>
<polygon fill="midnightblue" stroke="midnightblue" points="1022.9,-15.07 1032.85,-11.45 1022.81,-8.07 1022.9,-15.07"/>
</g>
<!-- Node10&#45;&gt;Node7 -->
<g id="edge13" class="edge">
<title>Node10&#45;&gt;Node7</title>
<path fill="none" stroke="midnightblue" d="M205.68,-61.99C216.13,-59.69 227.7,-57.44 238.44,-56 532.22,-16.59 888.24,-11.39 1022.59,-10.92"/>
<polygon fill="midnightblue" stroke="midnightblue" points="1022.64,-14.42 1032.63,-10.9 1022.62,-7.42 1022.64,-14.42"/>
</g>
<!-- Node11&#45;&gt;Node7 -->
<g id="edge15" class="edge">
<title>Node11&#45;&gt;Node7</title>
<path fill="none" stroke="midnightblue" d="M311.08,-61.86C318.5,-59.58 326.72,-57.38 334.44,-56 466.59,-32.37 873.62,-17.46 1022.32,-12.67"/>
<polygon fill="midnightblue" stroke="midnightblue" points="1022.68,-16.16 1032.57,-12.35 1022.46,-9.17 1022.68,-16.16"/>
</g>
<!-- Node12&#45;&gt;Node7 -->
<g id="edge17" class="edge">
<title>Node12&#45;&gt;Node7</title>
<path fill="none" stroke="midnightblue" d="M426.91,-62C436.34,-59.73 446.75,-57.49 456.44,-56 663.95,-24.03 914.06,-14.67 1022.67,-12.01"/>
<polygon fill="midnightblue" stroke="midnightblue" points="1022.82,-15.51 1032.73,-11.78 1022.65,-8.51 1022.82,-15.51"/>
</g>
<!-- Node13&#45;&gt;Node7 -->
<g id="edge19" class="edge">
<title>Node13&#45;&gt;Node7</title>
<path fill="none" stroke="midnightblue" d="M576.43,-62C588.06,-59.83 600.71,-57.65 612.44,-56 760.03,-35.18 935.36,-21.06 1022.53,-14.75"/>
<polygon fill="midnightblue" stroke="midnightblue" points="1023,-18.23 1032.72,-14.02 1022.49,-11.25 1023,-18.23"/>
</g>
<!-- Node14&#45;&gt;Node7 -->
<g id="edge21" class="edge">
<title>Node14&#45;&gt;Node7</title>
<path fill="none" stroke="midnightblue" d="M731.38,-61.95C742.16,-59.9 753.71,-57.79 764.44,-56 854.71,-40.91 960.15,-26.39 1022.72,-18.1"/>
<polygon fill="midnightblue" stroke="midnightblue" points="1023.31,-21.55 1032.76,-16.77 1022.39,-14.61 1023.31,-21.55"/>
</g>
<!-- Node15&#45;&gt;Node7 -->
<g id="edge23" class="edge">
<title>Node15&#45;&gt;Node7</title>
<path fill="none" stroke="midnightblue" d="M881.25,-61.98C921.63,-51.48 990.31,-33.64 1034.77,-22.09"/>
<polygon fill="midnightblue" stroke="midnightblue" points="1035.89,-25.41 1044.69,-19.51 1034.13,-18.64 1035.89,-25.41"/>
</g>
<!-- Node16&#45;&gt;Node7 -->
<g id="edge25" class="edge">
<title>Node16&#45;&gt;Node7</title>
<path fill="none" stroke="midnightblue" d="M990.91,-61.98C1007.41,-52.25 1034.61,-36.23 1054.12,-24.74"/>
<polygon fill="midnightblue" stroke="midnightblue" points="1056.15,-27.6 1062.99,-19.51 1052.6,-21.57 1056.15,-27.6"/>
</g>
<!-- Node17&#45;&gt;Node7 -->
<g id="edge27" class="edge">
<title>Node17&#45;&gt;Node7</title>
<path fill="none" stroke="midnightblue" d="M1077.44,-61.98C1077.44,-53.58 1077.44,-40.48 1077.44,-29.66"/>
<polygon fill="midnightblue" stroke="midnightblue" points="1080.94,-29.51 1077.44,-19.51 1073.94,-29.51 1080.94,-29.51"/>
</g>
<!-- Node18&#45;&gt;Node7 -->
<g id="edge29" class="edge">
<title>Node18&#45;&gt;Node7</title>
<path fill="none" stroke="midnightblue" d="M1157.11,-61.98C1142.06,-52.34 1117.32,-36.52 1099.4,-25.05"/>
<polygon fill="midnightblue" stroke="midnightblue" points="1101.05,-21.95 1090.74,-19.51 1097.27,-27.85 1101.05,-21.95"/>
</g>
<!-- Node19&#45;&gt;Node7 -->
<g id="edge31" class="edge">
<title>Node19&#45;&gt;Node7</title>
<path fill="none" stroke="midnightblue" d="M1820.06,-57.45C1816.82,-56.91 1813.59,-56.43 1810.44,-56 1558.75,-22.01 1254.95,-13.67 1132.52,-11.64"/>
<polygon fill="midnightblue" stroke="midnightblue" points="1132.33,-8.14 1122.28,-11.48 1132.22,-15.14 1132.33,-8.14"/>
</g>
<!-- Node20&#45;&gt;Node7 -->
<g id="edge33" class="edge">
<title>Node20&#45;&gt;Node7</title>
<path fill="none" stroke="midnightblue" d="M1991.34,-61.95C1977.23,-59.7 1961.75,-57.49 1947.44,-56 1640.66,-23.98 1270.54,-14.42 1132.69,-11.85"/>
<polygon fill="midnightblue" stroke="midnightblue" points="1132.45,-8.35 1122.39,-11.67 1132.32,-15.35 1132.45,-8.35"/>
</g>
<!-- Node21&#45;&gt;Node7 -->
<g id="edge35" class="edge">
<title>Node21&#45;&gt;Node7</title>
<path fill="none" stroke="midnightblue" d="M1661.66,-61.97C1647.34,-59.83 1631.81,-57.67 1617.44,-56 1440.5,-35.42 1229.88,-20.67 1132.2,-14.38"/>
<polygon fill="midnightblue" stroke="midnightblue" points="1132.19,-10.87 1121.98,-13.72 1131.74,-17.86 1132.19,-10.87"/>
</g>
<!-- Node22&#45;&gt;Node7 -->
<g id="edge37" class="edge">
<title>Node22&#45;&gt;Node7</title>
<path fill="none" stroke="midnightblue" d="M1221.16,-61.87C1216.35,-59.89 1211.23,-57.83 1206.44,-56 1175.13,-44.07 1139.1,-31.6 1113.09,-22.83"/>
<polygon fill="midnightblue" stroke="midnightblue" points="1113.89,-19.4 1103.29,-19.54 1111.66,-26.04 1113.89,-19.4"/>
</g>
<!-- Node23&#45;&gt;Node7 -->
<g id="edge39" class="edge">
<title>Node23&#45;&gt;Node7</title>
<path fill="none" stroke="midnightblue" d="M1292.4,-61.92C1287.28,-59.81 1281.7,-57.67 1276.44,-56 1228.51,-40.78 1172.54,-28.6 1132.19,-20.77"/>
<polygon fill="midnightblue" stroke="midnightblue" points="1132.76,-17.32 1122.28,-18.87 1131.44,-24.19 1132.76,-17.32"/>
</g>
<!-- Node24&#45;&gt;Node7 -->
<g id="edge41" class="edge">
<title>Node24&#45;&gt;Node7</title>
<path fill="none" stroke="midnightblue" d="M1361.82,-61.87C1356.61,-59.71 1350.87,-57.56 1345.44,-56 1273.23,-35.27 1187.16,-22.92 1132.41,-16.54"/>
<polygon fill="midnightblue" stroke="midnightblue" points="1132.56,-13.04 1122.23,-15.38 1131.77,-19.99 1132.56,-13.04"/>
</g>
<!-- Node25&#45;&gt;Node7 -->
<g id="edge43" class="edge">
<title>Node25&#45;&gt;Node7</title>
<path fill="none" stroke="midnightblue" d="M926.7,-247.31C700.72,-237.63 -116.74,-192.85 14.44,-56 49.59,-19.32 809.62,-12.45 1022.47,-11.24"/>
<polygon fill="midnightblue" stroke="midnightblue" points="1022.8,-14.74 1032.78,-11.19 1022.76,-7.74 1022.8,-14.74"/>
</g>
<!-- Node26&#45;&gt;Node4 -->
<g id="edge66" class="edge">
<title>Node26&#45;&gt;Node4</title>
<path fill="none" stroke="midnightblue" d="M2449.44,-240.98C2449.44,-232.58 2449.44,-219.48 2449.44,-208.66"/>
<polygon fill="midnightblue" stroke="midnightblue" points="2452.94,-208.51 2449.44,-198.51 2445.94,-208.51 2452.94,-208.51"/>
</g>
<!-- Node27 -->
<g id="node27" class="node">
<title>Node27</title>
<g id="a_node27"><a xlink:href="cp15_8hpp.html" target="_top" xlink:title="This file defines coprocessor CP15.">
<polygon fill="none" stroke="black" points="2193.44,-179.5 2193.44,-198.5 2347.44,-198.5 2347.44,-179.5 2193.44,-179.5"/>
<text text-anchor="middle" x="2270.44" y="-186.5" font-family="Helvetica,sans-Serif" font-size="10.00">coprocessors/cp15/cp15.hpp</text>
</a>
</g>
</g>
<!-- Node26&#45;&gt;Node27 -->
<g id="edge45" class="edge">
<title>Node26&#45;&gt;Node27</title>
<path fill="none" stroke="midnightblue" d="M2423.79,-240.98C2392.82,-230.68 2340.56,-213.31 2305.79,-201.75"/>
<polygon fill="midnightblue" stroke="midnightblue" points="2306.63,-198.34 2296.04,-198.51 2304.42,-204.98 2306.63,-198.34"/>
</g>
<!-- Node35 -->
<g id="node35" class="node">
<title>Node35</title>
<g id="a_node35"><a xlink:href="peripheral_8hpp.html" target="_top" xlink:title="This file defines an interface for a memory&#45;mapped peripheral.">
<polygon fill="none" stroke="black" points="2512.94,-179.5 2512.94,-198.5 2657.94,-198.5 2657.94,-179.5 2512.94,-179.5"/>
<text text-anchor="middle" x="2585.44" y="-186.5" font-family="Helvetica,sans-Serif" font-size="10.00">peripherals/peripheral.hpp</text>
</a>
</g>
</g>
<!-- Node26&#45;&gt;Node35 -->
<g id="edge65" class="edge">
<title>Node26&#45;&gt;Node35</title>
<path fill="none" stroke="midnightblue" d="M2468.92,-240.98C2491.85,-230.95 2530.12,-214.2 2556.51,-202.65"/>
<polygon fill="midnightblue" stroke="midnightblue" points="2558.23,-205.72 2565.99,-198.51 2555.42,-199.31 2558.23,-205.72"/>
</g>
<!-- Node27&#45;&gt;Node3 -->
<g id="edge64" class="edge">
<title>Node27&#45;&gt;Node3</title>
<path fill="none" stroke="midnightblue" d="M2218.61,-179.44C2179.52,-171.81 2130.62,-159.32 2118.44,-143 2113.12,-135.88 2114.45,-130.94 2118.44,-123 2140.82,-78.44 2162.51,-75.43 2208.44,-56 2270.56,-29.72 2346.47,-18.7 2403.26,-14.12"/>
<polygon fill="midnightblue" stroke="midnightblue" points="2403.57,-17.6 2413.27,-13.36 2403.04,-10.62 2403.57,-17.6"/>
</g>
<!-- Node28 -->
<g id="node28" class="node">
<title>Node28</title>
<g id="a_node28"><a xlink:href="c1_8hpp.html" target="_top" xlink:title="This file defines the primary register C1 of coprocessor CP15.">
<polygon fill="none" stroke="black" points="2127.94,-123.5 2127.94,-142.5 2176.94,-142.5 2176.94,-123.5 2127.94,-123.5"/>
<text text-anchor="middle" x="2152.44" y="-130.5" font-family="Helvetica,sans-Serif" font-size="10.00">c1.hpp</text>
</a>
</g>
</g>
<!-- Node27&#45;&gt;Node28 -->
<g id="edge46" class="edge">
<title>Node27&#45;&gt;Node28</title>
<path fill="none" stroke="midnightblue" d="M2251.74,-179.44C2232.49,-170.64 2202.28,-156.81 2180.24,-146.72"/>
<polygon fill="midnightblue" stroke="midnightblue" points="2181.6,-143.5 2171.05,-142.52 2178.68,-149.86 2181.6,-143.5"/>
</g>
<!-- Node29 -->
<g id="node29" class="node">
<title>Node29</title>
<g id="a_node29"><a xlink:href="primary__reg_8hpp.html" target="_top" xlink:title="This file defines a primary register interface of coprocessor CP15.">
<polygon fill="none" stroke="black" points="2276.94,-62 2276.94,-81 2373.94,-81 2373.94,-62 2276.94,-62"/>
<text text-anchor="middle" x="2325.44" y="-69" font-family="Helvetica,sans-Serif" font-size="10.00">primary_reg.hpp</text>
</a>
</g>
</g>
<!-- Node27&#45;&gt;Node29 -->
<g id="edge58" class="edge">
<title>Node27&#45;&gt;Node29</title>
<path fill="none" stroke="midnightblue" d="M2256.88,-179.37C2239.39,-167.1 2212.63,-143.81 2225.44,-123 2237.09,-104.07 2258.27,-91.97 2278.15,-84.39"/>
<polygon fill="midnightblue" stroke="midnightblue" points="2279.48,-87.63 2287.75,-81.01 2277.16,-81.02 2279.48,-87.63"/>
</g>
<!-- Node30 -->
<g id="node30" class="node">
<title>Node30</title>
<g id="a_node30"><a xlink:href="c2_8hpp.html" target="_top" xlink:title="This file defines the primary register C2 of coprocessor CP15.">
<polygon fill="none" stroke="black" points="2233.94,-123.5 2233.94,-142.5 2282.94,-142.5 2282.94,-123.5 2233.94,-123.5"/>
<text text-anchor="middle" x="2258.44" y="-130.5" font-family="Helvetica,sans-Serif" font-size="10.00">c2.hpp</text>
</a>
</g>
</g>
<!-- Node27&#45;&gt;Node30 -->
<g id="edge50" class="edge">
<title>Node27&#45;&gt;Node30</title>
<path fill="none" stroke="midnightblue" d="M2268.45,-179.08C2266.86,-171.93 2264.58,-161.64 2262.59,-152.69"/>
<polygon fill="midnightblue" stroke="midnightblue" points="2265.97,-151.75 2260.38,-142.75 2259.13,-153.27 2265.97,-151.75"/>
</g>
<!-- Node31 -->
<g id="node31" class="node">
<title>Node31</title>
<g id="a_node31"><a xlink:href="c3_8hpp.html" target="_top" xlink:title="This file defines the primary register C3 of coprocessor CP15.">
<polygon fill="none" stroke="black" points="2300.94,-123.5 2300.94,-142.5 2349.94,-142.5 2349.94,-123.5 2300.94,-123.5"/>
<text text-anchor="middle" x="2325.44" y="-130.5" font-family="Helvetica,sans-Serif" font-size="10.00">c3.hpp</text>
</a>
</g>
</g>
<!-- Node27&#45;&gt;Node31 -->
<g id="edge52" class="edge">
<title>Node27&#45;&gt;Node31</title>
<path fill="none" stroke="midnightblue" d="M2279.52,-179.08C2287.61,-171.14 2299.63,-159.34 2309.35,-149.8"/>
<polygon fill="midnightblue" stroke="midnightblue" points="2311.84,-152.25 2316.52,-142.75 2306.94,-147.26 2311.84,-152.25"/>
</g>
<!-- Node32 -->
<g id="node32" class="node">
<title>Node32</title>
<g id="a_node32"><a xlink:href="c7_8hpp.html" target="_top" xlink:title="This file defines the primary register C7 of coprocessor CP15.">
<polygon fill="none" stroke="black" points="2367.94,-123.5 2367.94,-142.5 2416.94,-142.5 2416.94,-123.5 2367.94,-123.5"/>
<text text-anchor="middle" x="2392.44" y="-130.5" font-family="Helvetica,sans-Serif" font-size="10.00">c7.hpp</text>
</a>
</g>
</g>
<!-- Node27&#45;&gt;Node32 -->
<g id="edge54" class="edge">
<title>Node27&#45;&gt;Node32</title>
<path fill="none" stroke="midnightblue" d="M2289.77,-179.44C2309.76,-170.6 2341.18,-156.69 2364,-146.59"/>
<polygon fill="midnightblue" stroke="midnightblue" points="2365.47,-149.76 2373.2,-142.52 2362.63,-143.36 2365.47,-149.76"/>
</g>
<!-- Node33 -->
<g id="node33" class="node">
<title>Node33</title>
<g id="a_node33"><a xlink:href="c8_8hpp.html" target="_top" xlink:title="This file defines the primary register C8 of coprocessor CP15.">
<polygon fill="none" stroke="black" points="2434.94,-123.5 2434.94,-142.5 2483.94,-142.5 2483.94,-123.5 2434.94,-123.5"/>
<text text-anchor="middle" x="2459.44" y="-130.5" font-family="Helvetica,sans-Serif" font-size="10.00">c8.hpp</text>
</a>
</g>
</g>
<!-- Node27&#45;&gt;Node33 -->
<g id="edge56" class="edge">
<title>Node27&#45;&gt;Node33</title>
<path fill="none" stroke="midnightblue" d="M2300.38,-179.44C2334.2,-169.78 2389.16,-154.08 2424.8,-143.9"/>
<polygon fill="midnightblue" stroke="midnightblue" points="2426.09,-147.17 2434.75,-141.05 2424.17,-140.44 2426.09,-147.17"/>
</g>
<!-- Node34 -->
<g id="node34" class="node">
<title>Node34</title>
<g id="a_node34"><a xlink:href="coprocessor_8hpp.html" target="_top" xlink:title="This file defines a general interface of a coprocessor.">
<polygon fill="none" stroke="black" points="1967.44,-123.5 1967.44,-142.5 2071.44,-142.5 2071.44,-123.5 1967.44,-123.5"/>
<text text-anchor="middle" x="2019.44" y="-130.5" font-family="Helvetica,sans-Serif" font-size="10.00">../coprocessor.hpp</text>
</a>
</g>
</g>
<!-- Node27&#45;&gt;Node34 -->
<g id="edge59" class="edge">
<title>Node27&#45;&gt;Node34</title>
<path fill="none" stroke="midnightblue" d="M2230.66,-179.44C2186.88,-170.02 2116.42,-154.87 2069.06,-144.68"/>
<polygon fill="midnightblue" stroke="midnightblue" points="2069.53,-141.2 2059.02,-142.52 2068.06,-148.04 2069.53,-141.2"/>
</g>
<!-- Node28&#45;&gt;Node3 -->
<g id="edge49" class="edge">
<title>Node28&#45;&gt;Node3</title>
<path fill="none" stroke="midnightblue" d="M2162.55,-123.43C2181.82,-107.58 2225.71,-73.65 2268.44,-56 2311.17,-38.35 2361.57,-27.37 2403.14,-20.68"/>
<polygon fill="midnightblue" stroke="midnightblue" points="2403.89,-24.1 2413.23,-19.11 2402.82,-17.18 2403.89,-24.1"/>
</g>
<!-- Node28&#45;&gt;Node29 -->
<g id="edge47" class="edge">
<title>Node28&#45;&gt;Node29</title>
<path fill="none" stroke="midnightblue" d="M2177.22,-123.48C2207.03,-113.22 2257.23,-95.96 2290.84,-84.4"/>
<polygon fill="midnightblue" stroke="midnightblue" points="2292.38,-87.57 2300.7,-81.01 2290.1,-80.95 2292.38,-87.57"/>
</g>
<!-- Node29&#45;&gt;Node3 -->
<g id="edge48" class="edge">
<title>Node29&#45;&gt;Node3</title>
<path fill="none" stroke="midnightblue" d="M2348.5,-61.98C2376.12,-51.77 2422.56,-34.61 2453.83,-23.05"/>
<polygon fill="midnightblue" stroke="midnightblue" points="2455.25,-26.26 2463.41,-19.51 2452.82,-19.69 2455.25,-26.26"/>
</g>
<!-- Node30&#45;&gt;Node29 -->
<g id="edge51" class="edge">
<title>Node30&#45;&gt;Node29</title>
<path fill="none" stroke="midnightblue" d="M2268.04,-123.48C2278.48,-114.2 2295.4,-99.17 2308.17,-87.83"/>
<polygon fill="midnightblue" stroke="midnightblue" points="2310.7,-90.27 2315.85,-81.01 2306.05,-85.03 2310.7,-90.27"/>
</g>
<!-- Node31&#45;&gt;Node29 -->
<g id="edge53" class="edge">
<title>Node31&#45;&gt;Node29</title>
<path fill="none" stroke="midnightblue" d="M2325.44,-123.48C2325.44,-115.08 2325.44,-101.98 2325.44,-91.16"/>
<polygon fill="midnightblue" stroke="midnightblue" points="2328.94,-91.01 2325.44,-81.01 2321.94,-91.01 2328.94,-91.01"/>
</g>
<!-- Node32&#45;&gt;Node29 -->
<g id="edge55" class="edge">
<title>Node32&#45;&gt;Node29</title>
<path fill="none" stroke="midnightblue" d="M2382.84,-123.48C2372.39,-114.2 2355.47,-99.17 2342.7,-87.83"/>
<polygon fill="midnightblue" stroke="midnightblue" points="2344.82,-85.03 2335.02,-81.01 2340.17,-90.27 2344.82,-85.03"/>
</g>
<!-- Node33&#45;&gt;Node29 -->
<g id="edge57" class="edge">
<title>Node33&#45;&gt;Node29</title>
<path fill="none" stroke="midnightblue" d="M2440.24,-123.48C2417.65,-113.45 2379.94,-96.7 2353.94,-85.15"/>
<polygon fill="midnightblue" stroke="midnightblue" points="2355.16,-81.87 2344.6,-81.01 2352.32,-88.27 2355.16,-81.87"/>
</g>
<!-- Node34&#45;&gt;Node2 -->
<g id="edge60" class="edge">
<title>Node34&#45;&gt;Node2</title>
<path fill="none" stroke="midnightblue" d="M2071.46,-126.48C2179.92,-114.98 2428.76,-88.59 2533.07,-77.52"/>
<polygon fill="midnightblue" stroke="midnightblue" points="2533.71,-80.98 2543.29,-76.44 2532.98,-74.01 2533.71,-80.98"/>
</g>
<!-- Node34&#45;&gt;Node19 -->
<g id="edge61" class="edge">
<title>Node34&#45;&gt;Node19</title>
<path fill="none" stroke="midnightblue" d="M1999.38,-123.48C1979.26,-114.93 1947.67,-101.5 1921.96,-90.57"/>
<polygon fill="midnightblue" stroke="midnightblue" points="1923,-87.21 1912.43,-86.52 1920.27,-93.66 1923,-87.21"/>
</g>
<!-- Node34&#45;&gt;Node20 -->
<g id="edge62" class="edge">
<title>Node34&#45;&gt;Node20</title>
<path fill="none" stroke="midnightblue" d="M2022.3,-123.48C2025.15,-114.99 2029.62,-101.7 2033.28,-90.82"/>
<polygon fill="midnightblue" stroke="midnightblue" points="2036.71,-91.6 2036.58,-81.01 2030.07,-89.37 2036.71,-91.6"/>
</g>
<!-- Node34&#45;&gt;Node21 -->
<g id="edge63" class="edge">
<title>Node34&#45;&gt;Node21</title>
<path fill="none" stroke="midnightblue" d="M1975.74,-123.48C1920.93,-112.78 1826.99,-94.46 1767.94,-82.94"/>
<polygon fill="midnightblue" stroke="midnightblue" points="1768.54,-79.49 1758.05,-81.01 1767.2,-86.36 1768.54,-79.49"/>
</g>
<!-- Node36&#45;&gt;Node2 -->
<g id="edge71" class="edge">
<title>Node36&#45;&gt;Node2</title>
<path fill="none" stroke="midnightblue" d="M2373.95,-307.92C2370.38,-284.38 2363.82,-217.96 2395.44,-179 2424.67,-142.97 2453.09,-165.92 2493.44,-143 2520.46,-127.65 2547.65,-103.99 2564.27,-88.37"/>
<polygon fill="midnightblue" stroke="midnightblue" points="2566.73,-90.87 2571.53,-81.43 2561.89,-85.81 2566.73,-90.87"/>
</g>
<!-- Node36&#45;&gt;Node26 -->
<g id="edge68" class="edge">
<title>Node36&#45;&gt;Node26</title>
<path fill="none" stroke="midnightblue" d="M2385.42,-307.73C2397.29,-297.31 2417.32,-279.71 2431.82,-266.97"/>
<polygon fill="midnightblue" stroke="midnightblue" points="2434.41,-269.36 2439.61,-260.13 2429.79,-264.1 2434.41,-269.36"/>
</g>
<!-- Node36&#45;&gt;Node27 -->
<g id="edge72" class="edge">
<title>Node36&#45;&gt;Node27</title>
<path fill="none" stroke="midnightblue" d="M2368.22,-307.81C2350.91,-286.95 2306.8,-233.81 2284.22,-206.61"/>
<polygon fill="midnightblue" stroke="midnightblue" points="2286.78,-204.21 2277.7,-198.76 2281.4,-208.69 2286.78,-204.21"/>
</g>
<!-- Node37 -->
<g id="node37" class="node">
<title>Node37</title>
<g id="a_node37"><a xlink:href="page__table_8hpp.html" target="_top" xlink:title="This file defines a page table.">
<polygon fill="none" stroke="black" points="2116.44,-241 2116.44,-260 2208.44,-260 2208.44,-241 2116.44,-241"/>
<text text-anchor="middle" x="2162.44" y="-248" font-family="Helvetica,sans-Serif" font-size="10.00">page_table.hpp</text>
</a>
</g>
</g>
<!-- Node36&#45;&gt;Node37 -->
<g id="edge69" class="edge">
<title>Node36&#45;&gt;Node37</title>
<path fill="none" stroke="midnightblue" d="M2347.15,-307.87C2309.33,-296.33 2242.18,-275.84 2200.11,-263"/>
<polygon fill="midnightblue" stroke="midnightblue" points="2201.09,-259.63 2190.5,-260.06 2199.04,-266.33 2201.09,-259.63"/>
</g>
<!-- Node38 -->
<g id="node38" class="node">
<title>Node38</title>
<g id="a_node38"><a xlink:href="page__entry_8hpp.html" target="_top" xlink:title="This file defines a page table entry.">
<polygon fill="none" stroke="black" points="2083.94,-179.5 2083.94,-198.5 2174.94,-198.5 2174.94,-179.5 2083.94,-179.5"/>
<text text-anchor="middle" x="2129.44" y="-186.5" font-family="Helvetica,sans-Serif" font-size="10.00">page_entry.hpp</text>
</a>
</g>
</g>
<!-- Node37&#45;&gt;Node38 -->
<g id="edge70" class="edge">
<title>Node37&#45;&gt;Node38</title>
<path fill="none" stroke="midnightblue" d="M2157.71,-240.98C2152.86,-232.23 2145.17,-218.37 2139.04,-207.31"/>
<polygon fill="midnightblue" stroke="midnightblue" points="2142.07,-205.56 2134.16,-198.51 2135.95,-208.95 2142.07,-205.56"/>
</g>
<!-- Node40&#45;&gt;Node2 -->
<g id="edge77" class="edge">
<title>Node40&#45;&gt;Node2</title>
<path fill="none" stroke="midnightblue" d="M2639.24,-235.37C2649.71,-226.29 2661.74,-213.49 2667.44,-199 2670.69,-190.73 2669.09,-187.73 2667.44,-179 2662.46,-152.73 2661.46,-144.41 2645.44,-123 2634.45,-108.31 2618.13,-95.65 2604.6,-86.69"/>
<polygon fill="midnightblue" stroke="midnightblue" points="2606.09,-83.49 2595.77,-81.09 2602.34,-89.4 2606.09,-83.49"/>
</g>
<!-- Node40&#45;&gt;Node3 -->
<g id="edge78" class="edge">
<title>Node40&#45;&gt;Node3</title>
<path fill="none" stroke="midnightblue" d="M2646.58,-235.37C2659.64,-226.76 2674.18,-214.43 2681.44,-199 2691.08,-178.5 2669.74,-133.11 2665.44,-123 2651.93,-91.3 2653.29,-77.59 2626.44,-56 2605.54,-39.19 2578.21,-28.6 2553.26,-21.95"/>
<polygon fill="midnightblue" stroke="midnightblue" points="2554.02,-18.54 2543.47,-19.51 2552.32,-25.33 2554.02,-18.54"/>
</g>
<!-- Node40&#45;&gt;Node35 -->
<g id="edge76" class="edge">
<title>Node40&#45;&gt;Node35</title>
<path fill="none" stroke="midnightblue" d="M2612.14,-235.4C2607.21,-227.02 2600.92,-216.33 2595.69,-207.42"/>
<polygon fill="midnightblue" stroke="midnightblue" points="2598.62,-205.5 2590.53,-198.66 2592.58,-209.05 2598.62,-205.5"/>
</g>
</g>
</svg>
