<?xml version="1.0" encoding="UTF-8" standalone="no"?>
<!DOCTYPE svg PUBLIC "-//W3C//DTD SVG 1.1//EN"
 "http://www.w3.org/Graphics/SVG/1.1/DTD/svg11.dtd">
<!-- Generated by graphviz version 2.43.0 (0)
 -->
<!-- Title: src/core/arm1176jzf_s/core.hpp Pages: 1 -->
<svg width="2985pt" height="408pt"
 viewBox="0.00 0.00 2985.50 408.00" xmlns="http://www.w3.org/2000/svg" xmlns:xlink="http://www.w3.org/1999/xlink">
<g id="graph0" class="graph" transform="scale(1 1) rotate(0) translate(4 404)">
<title>src/core/arm1176jzf_s/core.hpp</title>
<!-- Node1 -->
<g id="node1" class="node">
<title>Node1</title>
<g id="a_node1"><a xlink:title="This file defines a class that represents a CPU core (arm1176jzf_s).">
<polygon fill="#bfbfbf" stroke="black" points="445,-369.5 445,-399.5 558,-399.5 558,-369.5 445,-369.5"/>
<text text-anchor="start" x="453" y="-387.5" font-family="Helvetica,sans-Serif" font-size="10.00">src/core/arm1176jzf</text>
<text text-anchor="middle" x="501.5" y="-376.5" font-family="Helvetica,sans-Serif" font-size="10.00">_s/core.hpp</text>
</a>
</g>
</g>
<!-- Node2 -->
<g id="node2" class="node">
<title>Node2</title>
<g id="a_node2"><a xlink:href="context_8hpp.html" target="_top" xlink:title="This file defines the context (registers) of the CPU.">
<polygon fill="none" stroke="black" points="206.5,-118 206.5,-137 280.5,-137 280.5,-118 206.5,-118"/>
<text text-anchor="middle" x="243.5" y="-125" font-family="Helvetica,sans-Serif" font-size="10.00">context.hpp</text>
</a>
</g>
</g>
<!-- Node1&#45;&gt;Node2 -->
<g id="edge1" class="edge">
<title>Node1&#45;&gt;Node2</title>
<path fill="none" stroke="midnightblue" d="M444.89,-379.55C379.07,-371.66 272.69,-347.99 219.5,-277 193.27,-242 198.02,-220.92 210.5,-179 214.21,-166.52 222.1,-154.26 229.23,-144.94"/>
<polygon fill="midnightblue" stroke="midnightblue" points="232.09,-146.97 235.68,-137 226.66,-142.56 232.09,-146.97"/>
</g>
<!-- Node3 -->
<g id="node3" class="node">
<title>Node3</title>
<g id="a_node3"><a xlink:href="logger_8hpp.html" target="_top" xlink:title=" ">
<polygon fill="none" stroke="black" points="180.5,-56.5 180.5,-75.5 314.5,-75.5 314.5,-56.5 180.5,-56.5"/>
<text text-anchor="middle" x="247.5" y="-63.5" font-family="Helvetica,sans-Serif" font-size="10.00">../utils/logger/logger.hpp</text>
</a>
</g>
</g>
<!-- Node1&#45;&gt;Node3 -->
<g id="edge68" class="edge">
<title>Node1&#45;&gt;Node3</title>
<path fill="none" stroke="midnightblue" d="M444.76,-377.33C339.03,-364.26 122.5,-329.33 122.5,-262.5 122.5,-262.5 122.5,-262.5 122.5,-193.5 122.5,-138.94 182.06,-99.43 218.95,-80.19"/>
<polygon fill="midnightblue" stroke="midnightblue" points="220.88,-83.14 228.24,-75.52 217.74,-76.88 220.88,-83.14"/>
</g>
<!-- Node10 -->
<g id="node10" class="node">
<title>Node10</title>
<g id="a_node10"><a xlink:href="exceptions_8hpp.html" target="_top" xlink:title="This file defines all exceptions that can be thrown by the CPU during execution.">
<polygon fill="none" stroke="black" points="229,-252 229,-271 320,-271 320,-252 229,-252"/>
<text text-anchor="middle" x="274.5" y="-259" font-family="Helvetica,sans-Serif" font-size="10.00">exceptions.hpp</text>
</a>
</g>
</g>
<!-- Node1&#45;&gt;Node10 -->
<g id="edge9" class="edge">
<title>Node1&#45;&gt;Node10</title>
<path fill="none" stroke="midnightblue" d="M464.68,-369.4C441.28,-360 410.58,-346.87 384.5,-333 352.08,-315.76 316.68,-292.14 295.03,-277.09"/>
<polygon fill="midnightblue" stroke="midnightblue" points="296.84,-274.09 286.64,-271.21 292.82,-279.82 296.84,-274.09"/>
</g>
<!-- Node12 -->
<g id="node12" class="node">
<title>Node12</title>
<g id="a_node12"><a xlink:href="isa_8hpp.html" target="_top" xlink:title=" ">
<polygon fill="none" stroke="black" points="2076,-185 2076,-204 2145,-204 2145,-185 2076,-185"/>
<text text-anchor="middle" x="2110.5" y="-192" font-family="Helvetica,sans-Serif" font-size="10.00">isa/isa.hpp</text>
</a>
</g>
</g>
<!-- Node1&#45;&gt;Node12 -->
<g id="edge12" class="edge">
<title>Node1&#45;&gt;Node12</title>
<path fill="none" stroke="midnightblue" d="M529.83,-369.49C564.79,-352.91 626.47,-325.93 682.5,-313 955.57,-249.99 1854.2,-206.87 2065.66,-197.44"/>
<polygon fill="midnightblue" stroke="midnightblue" points="2065.94,-200.93 2075.77,-196.99 2065.63,-193.94 2065.94,-200.93"/>
</g>
<!-- Node31 -->
<g id="node31" class="node">
<title>Node31</title>
<g id="a_node31"><a xlink:href="isa__decoder_8hpp.html" target="_top" xlink:title=" ">
<polygon fill="none" stroke="black" points="678,-185 678,-204 791,-204 791,-185 678,-185"/>
<text text-anchor="middle" x="734.5" y="-192" font-family="Helvetica,sans-Serif" font-size="10.00">isa/isa_decoder.hpp</text>
</a>
</g>
</g>
<!-- Node1&#45;&gt;Node31 -->
<g id="edge49" class="edge">
<title>Node1&#45;&gt;Node31</title>
<path fill="none" stroke="midnightblue" d="M515.56,-369.37C541.71,-343.44 600.1,-287.15 654.5,-246 672.46,-232.42 694.13,-218.9 710.38,-209.27"/>
<polygon fill="midnightblue" stroke="midnightblue" points="712.39,-212.15 719.25,-204.08 708.85,-206.11 712.39,-212.15"/>
</g>
<!-- Node33 -->
<g id="node33" class="node">
<title>Node33</title>
<g id="a_node33"><a xlink:href="bus_8hpp.html" target="_top" xlink:title="This file defines an interface the CPU uses to access different memory&#45;mapped peripherals.">
<polygon fill="none" stroke="black" points="393.5,-313.5 393.5,-332.5 457.5,-332.5 457.5,-313.5 393.5,-313.5"/>
<text text-anchor="middle" x="425.5" y="-320.5" font-family="Helvetica,sans-Serif" font-size="10.00">../bus.hpp</text>
</a>
</g>
</g>
<!-- Node1&#45;&gt;Node33 -->
<g id="edge53" class="edge">
<title>Node1&#45;&gt;Node33</title>
<path fill="none" stroke="midnightblue" d="M483.49,-369.4C471.76,-360.22 456.48,-348.26 444.56,-338.92"/>
<polygon fill="midnightblue" stroke="midnightblue" points="446.59,-336.07 436.56,-332.66 442.28,-341.58 446.59,-336.07"/>
</g>
<!-- Node38 -->
<g id="node38" class="node">
<title>Node38</title>
<g id="a_node38"><a xlink:href="math_8hpp.html" target="_top" xlink:title="This file defines and implements a variety of handy helper functions that are used throughout the pro...">
<polygon fill="none" stroke="black" points="734.5,-313.5 734.5,-332.5 830.5,-332.5 830.5,-313.5 734.5,-313.5"/>
<text text-anchor="middle" x="782.5" y="-320.5" font-family="Helvetica,sans-Serif" font-size="10.00">../utils/math.hpp</text>
</a>
</g>
</g>
<!-- Node1&#45;&gt;Node38 -->
<g id="edge67" class="edge">
<title>Node1&#45;&gt;Node38</title>
<path fill="none" stroke="midnightblue" d="M558.03,-371.53C608.9,-360.76 682.97,-345.07 731.92,-334.71"/>
<polygon fill="midnightblue" stroke="midnightblue" points="732.91,-338.08 741.97,-332.58 731.46,-331.23 732.91,-338.08"/>
</g>
<!-- Node39 -->
<g id="node39" class="node">
<title>Node39</title>
<g id="a_node39"><a xlink:href="interrupt__controller_8hpp.html" target="_top" xlink:title=" ">
<polygon fill="none" stroke="black" points="439,-179.5 439,-209.5 564,-209.5 564,-179.5 439,-179.5"/>
<text text-anchor="start" x="447" y="-197.5" font-family="Helvetica,sans-Serif" font-size="10.00">../peripherals/interrupt</text>
<text text-anchor="middle" x="501.5" y="-186.5" font-family="Helvetica,sans-Serif" font-size="10.00">_controller.hpp</text>
</a>
</g>
</g>
<!-- Node1&#45;&gt;Node39 -->
<g id="edge69" class="edge">
<title>Node1&#45;&gt;Node39</title>
<path fill="none" stroke="midnightblue" d="M501.5,-369.37C501.5,-337.44 501.5,-259.44 501.5,-219.67"/>
<polygon fill="midnightblue" stroke="midnightblue" points="505,-219.54 501.5,-209.54 498,-219.54 505,-219.54"/>
</g>
<!-- Node40 -->
<g id="node40" class="node">
<title>Node40</title>
<g id="a_node40"><a xlink:href="system__clock__listener_8hpp.html" target="_top" xlink:title=" ">
<polygon fill="none" stroke="black" points="1811,-246.5 1811,-276.5 1930,-276.5 1930,-246.5 1811,-246.5"/>
<text text-anchor="start" x="1819" y="-264.5" font-family="Helvetica,sans-Serif" font-size="10.00">../peripherals/system</text>
<text text-anchor="middle" x="1870.5" y="-253.5" font-family="Helvetica,sans-Serif" font-size="10.00">_clock_listener.hpp</text>
</a>
</g>
</g>
<!-- Node1&#45;&gt;Node40 -->
<g id="edge75" class="edge">
<title>Node1&#45;&gt;Node40</title>
<path fill="none" stroke="midnightblue" d="M558.11,-370.24C594.18,-361.17 641.64,-348.09 682.5,-333 702.27,-325.7 705.03,-318 725.5,-313 930.89,-262.8 1584.35,-261.15 1800.4,-262.03"/>
<polygon fill="midnightblue" stroke="midnightblue" points="1800.65,-265.53 1810.66,-262.08 1800.68,-258.53 1800.65,-265.53"/>
</g>
<!-- Node2&#45;&gt;Node3 -->
<g id="edge2" class="edge">
<title>Node2&#45;&gt;Node3</title>
<path fill="none" stroke="midnightblue" d="M244.07,-117.98C244.64,-109.58 245.52,-96.48 246.25,-85.66"/>
<polygon fill="midnightblue" stroke="midnightblue" points="249.75,-85.72 246.93,-75.51 242.76,-85.25 249.75,-85.72"/>
</g>
<!-- Node4 -->
<g id="node4" class="node">
<title>Node4</title>
<g id="a_node4"><a xlink:title=" ">
<polygon fill="none" stroke="#bfbfbf" points="202.5,-0.5 202.5,-19.5 250.5,-19.5 250.5,-0.5 202.5,-0.5"/>
<text text-anchor="middle" x="226.5" y="-7.5" font-family="Helvetica,sans-Serif" font-size="10.00">mutex</text>
</a>
</g>
</g>
<!-- Node3&#45;&gt;Node4 -->
<g id="edge3" class="edge">
<title>Node3&#45;&gt;Node4</title>
<path fill="none" stroke="midnightblue" d="M244.03,-56.08C241.19,-48.77 237.07,-38.18 233.54,-29.1"/>
<polygon fill="midnightblue" stroke="midnightblue" points="236.79,-27.8 229.9,-19.75 230.27,-30.34 236.79,-27.8"/>
</g>
<!-- Node5 -->
<g id="node5" class="node">
<title>Node5</title>
<g id="a_node5"><a xlink:title=" ">
<polygon fill="none" stroke="#bfbfbf" points="345,-0.5 345,-19.5 392,-19.5 392,-0.5 345,-0.5"/>
<text text-anchor="middle" x="368.5" y="-7.5" font-family="Helvetica,sans-Serif" font-size="10.00">vector</text>
</a>
</g>
</g>
<!-- Node3&#45;&gt;Node5 -->
<g id="edge4" class="edge">
<title>Node3&#45;&gt;Node5</title>
<path fill="none" stroke="midnightblue" d="M266.67,-56.44C286.41,-47.64 317.39,-33.81 339.99,-23.72"/>
<polygon fill="midnightblue" stroke="midnightblue" points="341.71,-26.79 349.42,-19.52 338.86,-20.4 341.71,-26.79"/>
</g>
<!-- Node6 -->
<g id="node6" class="node">
<title>Node6</title>
<g id="a_node6"><a xlink:title=" ">
<polygon fill="none" stroke="#bfbfbf" points="268.5,-0.5 268.5,-19.5 326.5,-19.5 326.5,-0.5 268.5,-0.5"/>
<text text-anchor="middle" x="297.5" y="-7.5" font-family="Helvetica,sans-Serif" font-size="10.00">memory</text>
</a>
</g>
</g>
<!-- Node3&#45;&gt;Node6 -->
<g id="edge5" class="edge">
<title>Node3&#45;&gt;Node6</title>
<path fill="none" stroke="midnightblue" d="M255.76,-56.08C262.96,-48.3 273.61,-36.8 282.35,-27.37"/>
<polygon fill="midnightblue" stroke="midnightblue" points="285.17,-29.47 289.4,-19.75 280.03,-24.71 285.17,-29.47"/>
</g>
<!-- Node7 -->
<g id="node7" class="node">
<title>Node7</title>
<g id="a_node7"><a xlink:title=" ">
<polygon fill="none" stroke="#bfbfbf" points="752.5,-0.5 752.5,-19.5 802.5,-19.5 802.5,-0.5 752.5,-0.5"/>
<text text-anchor="middle" x="777.5" y="-7.5" font-family="Helvetica,sans-Serif" font-size="10.00">cstdint</text>
</a>
</g>
</g>
<!-- Node3&#45;&gt;Node7 -->
<g id="edge6" class="edge">
<title>Node3&#45;&gt;Node7</title>
<path fill="none" stroke="midnightblue" d="M314.62,-58.16C428.4,-46.57 655.24,-23.46 742.33,-14.58"/>
<polygon fill="midnightblue" stroke="midnightblue" points="742.88,-18.05 752.48,-13.55 742.17,-11.08 742.88,-18.05"/>
</g>
<!-- Node8 -->
<g id="node8" class="node">
<title>Node8</title>
<g id="a_node8"><a xlink:title=" ">
<polygon fill="none" stroke="#bfbfbf" points="0,-0.5 0,-19.5 73,-19.5 73,-0.5 0,-0.5"/>
<text text-anchor="middle" x="36.5" y="-7.5" font-family="Helvetica,sans-Serif" font-size="10.00">string_view</text>
</a>
</g>
</g>
<!-- Node3&#45;&gt;Node8 -->
<g id="edge7" class="edge">
<title>Node3&#45;&gt;Node8</title>
<path fill="none" stroke="midnightblue" d="M214.07,-56.44C177.64,-47.12 119.27,-32.18 79.47,-22"/>
<polygon fill="midnightblue" stroke="midnightblue" points="80.33,-18.61 69.78,-19.52 78.6,-25.39 80.33,-18.61"/>
</g>
<!-- Node9 -->
<g id="node9" class="node">
<title>Node9</title>
<g id="a_node9"><a xlink:title=" ">
<polygon fill="none" stroke="#bfbfbf" points="91,-0.5 91,-19.5 184,-19.5 184,-0.5 91,-0.5"/>
<text text-anchor="middle" x="137.5" y="-7.5" font-family="Helvetica,sans-Serif" font-size="10.00">source_location</text>
</a>
</g>
</g>
<!-- Node3&#45;&gt;Node9 -->
<g id="edge8" class="edge">
<title>Node3&#45;&gt;Node9</title>
<path fill="none" stroke="midnightblue" d="M229.83,-56.32C212.11,-47.62 184.6,-34.12 164.21,-24.11"/>
<polygon fill="midnightblue" stroke="midnightblue" points="165.65,-20.92 155.13,-19.65 162.56,-27.2 165.65,-20.92"/>
</g>
<!-- Node10&#45;&gt;Node2 -->
<g id="edge11" class="edge">
<title>Node10&#45;&gt;Node2</title>
<path fill="none" stroke="midnightblue" d="M258.81,-251.85C245.03,-243.26 225.91,-228.69 217.5,-210 207.83,-188.52 220.13,-162.37 230.88,-145.58"/>
<polygon fill="midnightblue" stroke="midnightblue" points="233.78,-147.54 236.55,-137.31 228.01,-143.58 233.78,-147.54"/>
</g>
<!-- Node11 -->
<g id="node11" class="node">
<title>Node11</title>
<g id="a_node11"><a xlink:title=" ">
<polygon fill="none" stroke="#bfbfbf" points="227,-185 227,-204 306,-204 306,-185 227,-185"/>
<text text-anchor="middle" x="266.5" y="-192" font-family="Helvetica,sans-Serif" font-size="10.00">fmt/format.h</text>
</a>
</g>
</g>
<!-- Node10&#45;&gt;Node11 -->
<g id="edge10" class="edge">
<title>Node10&#45;&gt;Node11</title>
<path fill="none" stroke="midnightblue" d="M273.42,-251.73C272.25,-242.18 270.33,-226.62 268.81,-214.28"/>
<polygon fill="midnightblue" stroke="midnightblue" points="272.26,-213.62 267.56,-204.13 265.31,-214.48 272.26,-213.62"/>
</g>
<!-- Node13 -->
<g id="node13" class="node">
<title>Node13</title>
<g id="a_node13"><a xlink:href="instruction_8hpp.html" target="_top" xlink:title=" ">
<polygon fill="none" stroke="black" points="2015,-56.5 2015,-75.5 2104,-75.5 2104,-56.5 2015,-56.5"/>
<text text-anchor="middle" x="2059.5" y="-63.5" font-family="Helvetica,sans-Serif" font-size="10.00">instruction.hpp</text>
</a>
</g>
</g>
<!-- Node12&#45;&gt;Node13 -->
<g id="edge13" class="edge">
<title>Node12&#45;&gt;Node13</title>
<path fill="none" stroke="midnightblue" d="M2145.21,-193.76C2223.41,-193.54 2409.58,-188.17 2448.5,-143 2457.49,-132.56 2457.67,-122.29 2448.5,-112 2426.66,-87.49 2216.41,-74.35 2114.43,-69.38"/>
<polygon fill="midnightblue" stroke="midnightblue" points="2114.47,-65.87 2104.32,-68.89 2114.14,-72.87 2114.47,-65.87"/>
</g>
<!-- Node14 -->
<g id="node14" class="node">
<title>Node14</title>
<g id="a_node14"><a xlink:href="branch__and__exchange_8hpp.html" target="_top" xlink:title=" ">
<polygon fill="none" stroke="black" points="2495.5,-118 2495.5,-137 2641.5,-137 2641.5,-118 2495.5,-118"/>
<text text-anchor="middle" x="2568.5" y="-125" font-family="Helvetica,sans-Serif" font-size="10.00">branch_and_exchange.hpp</text>
</a>
</g>
</g>
<!-- Node12&#45;&gt;Node14 -->
<g id="edge15" class="edge">
<title>Node12&#45;&gt;Node14</title>
<path fill="none" stroke="midnightblue" d="M2145.07,-189.14C2210.73,-180.79 2357.94,-161.7 2481.5,-143 2490.39,-141.65 2499.79,-140.16 2508.98,-138.66"/>
<polygon fill="midnightblue" stroke="midnightblue" points="2509.55,-142.12 2518.85,-137.04 2508.42,-135.21 2509.55,-142.12"/>
</g>
<!-- Node15 -->
<g id="node15" class="node">
<title>Node15</title>
<g id="a_node15"><a xlink:href="branch_8hpp.html" target="_top" xlink:title=" ">
<polygon fill="none" stroke="black" points="2660,-118 2660,-137 2731,-137 2731,-118 2660,-118"/>
<text text-anchor="middle" x="2695.5" y="-125" font-family="Helvetica,sans-Serif" font-size="10.00">branch.hpp</text>
</a>
</g>
</g>
<!-- Node12&#45;&gt;Node15 -->
<g id="edge17" class="edge">
<title>Node12&#45;&gt;Node15</title>
<path fill="none" stroke="midnightblue" d="M2145.32,-192.87C2231.72,-190.74 2462.57,-181.58 2650.5,-143 2654.46,-142.19 2658.56,-141.15 2662.6,-140.01"/>
<polygon fill="midnightblue" stroke="midnightblue" points="2663.86,-143.28 2672.4,-137.01 2661.82,-136.59 2663.86,-143.28"/>
</g>
<!-- Node16 -->
<g id="node16" class="node">
<title>Node16</title>
<g id="a_node16"><a xlink:href="data__processing_8hpp.html" target="_top" xlink:title=" ">
<polygon fill="none" stroke="black" points="2749,-118 2749,-137 2866,-137 2866,-118 2749,-118"/>
<text text-anchor="middle" x="2807.5" y="-125" font-family="Helvetica,sans-Serif" font-size="10.00">data_processing.hpp</text>
</a>
</g>
</g>
<!-- Node12&#45;&gt;Node16 -->
<g id="edge19" class="edge">
<title>Node12&#45;&gt;Node16</title>
<path fill="none" stroke="midnightblue" d="M2145.17,-192.34C2240.59,-188.81 2514.99,-176.29 2740.5,-143 2747.46,-141.97 2754.78,-140.65 2761.92,-139.21"/>
<polygon fill="midnightblue" stroke="midnightblue" points="2763.12,-142.54 2772.19,-137.06 2761.69,-135.69 2763.12,-142.54"/>
</g>
<!-- Node17 -->
<g id="node17" class="node">
<title>Node17</title>
<g id="a_node17"><a xlink:href="multiply_8hpp.html" target="_top" xlink:title=" ">
<polygon fill="none" stroke="black" points="2884,-118 2884,-137 2961,-137 2961,-118 2884,-118"/>
<text text-anchor="middle" x="2922.5" y="-125" font-family="Helvetica,sans-Serif" font-size="10.00">multiply.hpp</text>
</a>
</g>
</g>
<!-- Node12&#45;&gt;Node17 -->
<g id="edge21" class="edge">
<title>Node12&#45;&gt;Node17</title>
<path fill="none" stroke="midnightblue" d="M2145.17,-194.07C2253.87,-195.25 2597.36,-194.36 2875.5,-143 2879.75,-142.22 2884.16,-141.17 2888.5,-140.01"/>
<polygon fill="midnightblue" stroke="midnightblue" points="2889.76,-143.29 2898.38,-137.12 2887.8,-136.57 2889.76,-143.29"/>
</g>
<!-- Node18 -->
<g id="node18" class="node">
<title>Node18</title>
<g id="a_node18"><a xlink:href="multiply__long_8hpp.html" target="_top" xlink:title=" ">
<polygon fill="none" stroke="black" points="1376.5,-118 1376.5,-137 1480.5,-137 1480.5,-118 1376.5,-118"/>
<text text-anchor="middle" x="1428.5" y="-125" font-family="Helvetica,sans-Serif" font-size="10.00">multiply_long.hpp</text>
</a>
</g>
</g>
<!-- Node12&#45;&gt;Node18 -->
<g id="edge23" class="edge">
<title>Node12&#45;&gt;Node18</title>
<path fill="none" stroke="midnightblue" d="M2075.67,-192.47C1981.07,-189.3 1711.62,-177.67 1490.5,-143 1484.12,-142 1477.43,-140.7 1470.89,-139.29"/>
<polygon fill="midnightblue" stroke="midnightblue" points="1471.35,-135.81 1460.82,-137.02 1469.8,-142.64 1471.35,-135.81"/>
</g>
<!-- Node19 -->
<g id="node19" class="node">
<title>Node19</title>
<g id="a_node19"><a xlink:href="single__data__transfer_8hpp.html" target="_top" xlink:title=" ">
<polygon fill="none" stroke="black" points="1499,-118 1499,-137 1636,-137 1636,-118 1499,-118"/>
<text text-anchor="middle" x="1567.5" y="-125" font-family="Helvetica,sans-Serif" font-size="10.00">single_data_transfer.hpp</text>
</a>
</g>
</g>
<!-- Node12&#45;&gt;Node19 -->
<g id="edge25" class="edge">
<title>Node12&#45;&gt;Node19</title>
<path fill="none" stroke="midnightblue" d="M2075.97,-190.65C1998.64,-184.07 1805.78,-166.57 1645.5,-143 1637.36,-141.8 1628.78,-140.38 1620.39,-138.89"/>
<polygon fill="midnightblue" stroke="midnightblue" points="1620.78,-135.4 1610.32,-137.06 1619.53,-142.29 1620.78,-135.4"/>
</g>
<!-- Node20 -->
<g id="node20" class="node">
<title>Node20</title>
<g id="a_node20"><a xlink:href="block__data__transfer_8hpp.html" target="_top" xlink:title=" ">
<polygon fill="none" stroke="black" points="1654.5,-118 1654.5,-137 1788.5,-137 1788.5,-118 1654.5,-118"/>
<text text-anchor="middle" x="1721.5" y="-125" font-family="Helvetica,sans-Serif" font-size="10.00">block_data_transfer.hpp</text>
</a>
</g>
</g>
<!-- Node12&#45;&gt;Node20 -->
<g id="edge27" class="edge">
<title>Node12&#45;&gt;Node20</title>
<path fill="none" stroke="midnightblue" d="M2075.82,-188.18C2018.18,-179.28 1899.03,-160.6 1798.5,-143 1791.14,-141.71 1783.39,-140.31 1775.76,-138.9"/>
<polygon fill="midnightblue" stroke="midnightblue" points="1776.32,-135.44 1765.85,-137.05 1775.04,-142.32 1776.32,-135.44"/>
</g>
<!-- Node21 -->
<g id="node21" class="node">
<title>Node21</title>
<g id="a_node21"><a xlink:href="halfword__data__transfer_8hpp.html" target="_top" xlink:title=" ">
<polygon fill="none" stroke="black" points="1807,-118 1807,-137 1956,-137 1956,-118 1807,-118"/>
<text text-anchor="middle" x="1881.5" y="-125" font-family="Helvetica,sans-Serif" font-size="10.00">halfword_data_transfer.hpp</text>
</a>
</g>
</g>
<!-- Node12&#45;&gt;Node21 -->
<g id="edge29" class="edge">
<title>Node12&#45;&gt;Node21</title>
<path fill="none" stroke="midnightblue" d="M2080.09,-184.87C2039.26,-173.28 1966.63,-152.66 1921.43,-139.83"/>
<polygon fill="midnightblue" stroke="midnightblue" points="1922.25,-136.43 1911.67,-137.06 1920.33,-143.16 1922.25,-136.43"/>
</g>
<!-- Node22 -->
<g id="node22" class="node">
<title>Node22</title>
<g id="a_node22"><a xlink:href="extend_8hpp.html" target="_top" xlink:title=" ">
<polygon fill="none" stroke="black" points="1974,-118 1974,-137 2045,-137 2045,-118 1974,-118"/>
<text text-anchor="middle" x="2009.5" y="-125" font-family="Helvetica,sans-Serif" font-size="10.00">extend.hpp</text>
</a>
</g>
</g>
<!-- Node12&#45;&gt;Node22 -->
<g id="edge31" class="edge">
<title>Node12&#45;&gt;Node22</title>
<path fill="none" stroke="midnightblue" d="M2096.88,-184.73C2080.07,-173.92 2051.27,-155.38 2031.36,-142.57"/>
<polygon fill="midnightblue" stroke="midnightblue" points="2033.21,-139.6 2022.91,-137.13 2029.42,-145.48 2033.21,-139.6"/>
</g>
<!-- Node23 -->
<g id="node23" class="node">
<title>Node23</title>
<g id="a_node23"><a xlink:href="psr__transfer_8hpp.html" target="_top" xlink:title=" ">
<polygon fill="none" stroke="black" points="2063,-118 2063,-137 2158,-137 2158,-118 2063,-118"/>
<text text-anchor="middle" x="2110.5" y="-125" font-family="Helvetica,sans-Serif" font-size="10.00">psr_transfer.hpp</text>
</a>
</g>
</g>
<!-- Node12&#45;&gt;Node23 -->
<g id="edge33" class="edge">
<title>Node12&#45;&gt;Node23</title>
<path fill="none" stroke="midnightblue" d="M2110.5,-184.73C2110.5,-175.18 2110.5,-159.62 2110.5,-147.28"/>
<polygon fill="midnightblue" stroke="midnightblue" points="2114,-147.13 2110.5,-137.13 2107,-147.13 2114,-147.13"/>
</g>
<!-- Node24 -->
<g id="node24" class="node">
<title>Node24</title>
<g id="a_node24"><a xlink:href="cps_8hpp.html" target="_top" xlink:title=" ">
<polygon fill="none" stroke="black" points="2176.5,-118 2176.5,-137 2230.5,-137 2230.5,-118 2176.5,-118"/>
<text text-anchor="middle" x="2203.5" y="-125" font-family="Helvetica,sans-Serif" font-size="10.00">cps.hpp</text>
</a>
</g>
</g>
<!-- Node12&#45;&gt;Node24 -->
<g id="edge35" class="edge">
<title>Node12&#45;&gt;Node24</title>
<path fill="none" stroke="midnightblue" d="M2123.04,-184.73C2138.38,-174.01 2164.56,-155.72 2182.88,-142.91"/>
<polygon fill="midnightblue" stroke="midnightblue" points="2184.96,-145.72 2191.16,-137.13 2180.95,-139.99 2184.96,-145.72"/>
</g>
<!-- Node25 -->
<g id="node25" class="node">
<title>Node25</title>
<g id="a_node25"><a xlink:href="coprocessor__register__transfer_8hpp.html" target="_top" xlink:title=" ">
<polygon fill="none" stroke="black" points="1240.5,-112.5 1240.5,-142.5 1358.5,-142.5 1358.5,-112.5 1240.5,-112.5"/>
<text text-anchor="start" x="1248.5" y="-130.5" font-family="Helvetica,sans-Serif" font-size="10.00">coprocessor_register</text>
<text text-anchor="middle" x="1299.5" y="-119.5" font-family="Helvetica,sans-Serif" font-size="10.00">_transfer.hpp</text>
</a>
</g>
</g>
<!-- Node12&#45;&gt;Node25 -->
<g id="edge37" class="edge">
<title>Node12&#45;&gt;Node25</title>
<path fill="none" stroke="midnightblue" d="M2075.88,-192.89C1970.87,-190.69 1646.68,-181.16 1369.02,-143.08"/>
<polygon fill="midnightblue" stroke="midnightblue" points="1369.14,-139.56 1358.75,-141.65 1368.17,-146.49 1369.14,-139.56"/>
</g>
<!-- Node26 -->
<g id="node26" class="node">
<title>Node26</title>
<g id="a_node26"><a xlink:href="coprocessor__data__transfer_8hpp.html" target="_top" xlink:title=" ">
<polygon fill="none" stroke="black" points="862.5,-118 862.5,-137 1028.5,-137 1028.5,-118 862.5,-118"/>
<text text-anchor="middle" x="945.5" y="-125" font-family="Helvetica,sans-Serif" font-size="10.00">coprocessor_data_transfer.hpp</text>
</a>
</g>
</g>
<!-- Node12&#45;&gt;Node26 -->
<g id="edge39" class="edge">
<title>Node12&#45;&gt;Node26</title>
<path fill="none" stroke="midnightblue" d="M2075.69,-193.22C1941.5,-191.85 1444.92,-184.14 1038.5,-143 1027.18,-141.85 1015.14,-140.26 1003.61,-138.55"/>
<polygon fill="midnightblue" stroke="midnightblue" points="1004.06,-135.07 993.64,-137.02 1003,-141.99 1004.06,-135.07"/>
</g>
<!-- Node27 -->
<g id="node27" class="node">
<title>Node27</title>
<g id="a_node27"><a xlink:href="coprocessor__data__operation_8hpp.html" target="_top" xlink:title=" ">
<polygon fill="none" stroke="black" points="1047,-118 1047,-137 1222,-137 1222,-118 1047,-118"/>
<text text-anchor="middle" x="1134.5" y="-125" font-family="Helvetica,sans-Serif" font-size="10.00">coprocessor_data_operation.hpp</text>
</a>
</g>
</g>
<!-- Node12&#45;&gt;Node27 -->
<g id="edge41" class="edge">
<title>Node12&#45;&gt;Node27</title>
<path fill="none" stroke="midnightblue" d="M2075.65,-192.64C1957.13,-189.46 1558.78,-176.79 1231.5,-143 1219.91,-141.8 1207.58,-140.21 1195.74,-138.52"/>
<polygon fill="midnightblue" stroke="midnightblue" points="1195.89,-135 1185.49,-137.01 1194.87,-141.93 1195.89,-135"/>
</g>
<!-- Node28 -->
<g id="node28" class="node">
<title>Node28</title>
<g id="a_node28"><a xlink:href="srs_8hpp.html" target="_top" xlink:title=" ">
<polygon fill="none" stroke="black" points="2248.5,-118 2248.5,-137 2300.5,-137 2300.5,-118 2248.5,-118"/>
<text text-anchor="middle" x="2274.5" y="-125" font-family="Helvetica,sans-Serif" font-size="10.00">srs.hpp</text>
</a>
</g>
</g>
<!-- Node12&#45;&gt;Node28 -->
<g id="edge43" class="edge">
<title>Node12&#45;&gt;Node28</title>
<path fill="none" stroke="midnightblue" d="M2132.93,-184.87C2158.7,-174.93 2202.24,-158.01 2239.5,-143 2241.14,-142.34 2242.81,-141.66 2244.5,-140.97"/>
<polygon fill="midnightblue" stroke="midnightblue" points="2246.25,-144.04 2254.17,-137 2243.59,-137.56 2246.25,-144.04"/>
</g>
<!-- Node29 -->
<g id="node29" class="node">
<title>Node29</title>
<g id="a_node29"><a xlink:href="rfe_8hpp.html" target="_top" xlink:title=" ">
<polygon fill="none" stroke="black" points="2319,-118 2319,-137 2370,-137 2370,-118 2319,-118"/>
<text text-anchor="middle" x="2344.5" y="-125" font-family="Helvetica,sans-Serif" font-size="10.00">rfe.hpp</text>
</a>
</g>
</g>
<!-- Node12&#45;&gt;Node29 -->
<g id="edge45" class="edge">
<title>Node12&#45;&gt;Node29</title>
<path fill="none" stroke="midnightblue" d="M2145.09,-186.31C2185.13,-177.63 2252.84,-161.82 2309.5,-143 2311.42,-142.36 2313.38,-141.67 2315.35,-140.94"/>
<polygon fill="midnightblue" stroke="midnightblue" points="2317.03,-144.04 2325.07,-137.13 2314.48,-137.53 2317.03,-144.04"/>
</g>
<!-- Node30 -->
<g id="node30" class="node">
<title>Node30</title>
<g id="a_node30"><a xlink:href="clz_8hpp.html" target="_top" xlink:title=" ">
<polygon fill="none" stroke="black" points="2388,-118 2388,-137 2439,-137 2439,-118 2388,-118"/>
<text text-anchor="middle" x="2413.5" y="-125" font-family="Helvetica,sans-Serif" font-size="10.00">clz.hpp</text>
</a>
</g>
</g>
<!-- Node12&#45;&gt;Node30 -->
<g id="edge47" class="edge">
<title>Node12&#45;&gt;Node30</title>
<path fill="none" stroke="midnightblue" d="M2145.04,-189.46C2196.8,-182.86 2297.19,-167.95 2379.5,-143 2381.65,-142.35 2383.84,-141.61 2386.03,-140.81"/>
<polygon fill="midnightblue" stroke="midnightblue" points="2387.42,-144.02 2395.42,-137.07 2384.83,-137.52 2387.42,-144.02"/>
</g>
<!-- Node13&#45;&gt;Node7 -->
<g id="edge14" class="edge">
<title>Node13&#45;&gt;Node7</title>
<path fill="none" stroke="midnightblue" d="M2015,-63.13C1814.04,-54.66 993.17,-20.08 812.7,-12.48"/>
<polygon fill="midnightblue" stroke="midnightblue" points="812.82,-8.98 802.69,-12.06 812.53,-15.98 812.82,-8.98"/>
</g>
<!-- Node14&#45;&gt;Node13 -->
<g id="edge16" class="edge">
<title>Node14&#45;&gt;Node13</title>
<path fill="none" stroke="midnightblue" d="M2520.26,-117.94C2507.66,-115.85 2494.09,-113.72 2481.5,-112 2350.33,-94.09 2195.4,-79.15 2114.68,-71.84"/>
<polygon fill="midnightblue" stroke="midnightblue" points="2114.54,-68.31 2104.26,-70.9 2113.91,-75.28 2114.54,-68.31"/>
</g>
<!-- Node15&#45;&gt;Node13 -->
<g id="edge18" class="edge">
<title>Node15&#45;&gt;Node13</title>
<path fill="none" stroke="midnightblue" d="M2672.42,-117.91C2665.46,-115.64 2657.75,-113.42 2650.5,-112 2455.79,-73.77 2219.09,-67.6 2114.13,-66.89"/>
<polygon fill="midnightblue" stroke="midnightblue" points="2114.11,-63.39 2104.09,-66.83 2114.07,-70.39 2114.11,-63.39"/>
</g>
<!-- Node16&#45;&gt;Node13 -->
<g id="edge20" class="edge">
<title>Node16&#45;&gt;Node13</title>
<path fill="none" stroke="midnightblue" d="M2772.9,-118C2762.54,-115.72 2751.11,-113.49 2740.5,-112 2509.29,-79.52 2230.53,-70.38 2114.42,-67.89"/>
<polygon fill="midnightblue" stroke="midnightblue" points="2114.42,-64.39 2104.35,-67.69 2114.28,-71.39 2114.42,-64.39"/>
</g>
<!-- Node17&#45;&gt;Node13 -->
<g id="edge22" class="edge">
<title>Node17&#45;&gt;Node13</title>
<path fill="none" stroke="midnightblue" d="M2898.87,-117.98C2891.48,-115.65 2883.23,-113.38 2875.5,-112 2728.74,-85.72 2272.96,-72.26 2114.48,-68.28"/>
<polygon fill="midnightblue" stroke="midnightblue" points="2114.12,-64.77 2104.03,-68.02 2113.94,-71.77 2114.12,-64.77"/>
</g>
<!-- Node18&#45;&gt;Node13 -->
<g id="edge24" class="edge">
<title>Node18&#45;&gt;Node13</title>
<path fill="none" stroke="midnightblue" d="M1460.82,-117.97C1470.32,-115.73 1480.78,-113.51 1490.5,-112 1677.94,-82.84 1903.21,-72.13 2004.93,-68.58"/>
<polygon fill="midnightblue" stroke="midnightblue" points="2005.09,-72.08 2014.97,-68.24 2004.85,-65.08 2005.09,-72.08"/>
</g>
<!-- Node19&#45;&gt;Node13 -->
<g id="edge26" class="edge">
<title>Node19&#45;&gt;Node13</title>
<path fill="none" stroke="midnightblue" d="M1610.32,-117.94C1621.72,-115.82 1634.05,-113.68 1645.5,-112 1773.68,-93.15 1925.27,-78.64 2004.69,-71.63"/>
<polygon fill="midnightblue" stroke="midnightblue" points="2005.29,-75.09 2014.94,-70.73 2004.67,-68.12 2005.29,-75.09"/>
</g>
<!-- Node20&#45;&gt;Node13 -->
<g id="edge28" class="edge">
<title>Node20&#45;&gt;Node13</title>
<path fill="none" stroke="midnightblue" d="M1766.27,-117.95C1776.83,-115.96 1788.06,-113.88 1798.5,-112 1869.56,-99.18 1951.65,-85.16 2004.5,-76.23"/>
<polygon fill="midnightblue" stroke="midnightblue" points="2005.39,-79.63 2014.66,-74.51 2004.22,-72.73 2005.39,-79.63"/>
</g>
<!-- Node21&#45;&gt;Node13 -->
<g id="edge30" class="edge">
<title>Node21&#45;&gt;Node13</title>
<path fill="none" stroke="midnightblue" d="M1907,-117.98C1937.8,-107.68 1989.77,-90.31 2024.35,-78.75"/>
<polygon fill="midnightblue" stroke="midnightblue" points="2025.67,-82 2034.04,-75.51 2023.45,-75.36 2025.67,-82"/>
</g>
<!-- Node22&#45;&gt;Node13 -->
<g id="edge32" class="edge">
<title>Node22&#45;&gt;Node13</title>
<path fill="none" stroke="midnightblue" d="M2016.66,-117.98C2024.24,-108.96 2036.37,-94.52 2045.79,-83.31"/>
<polygon fill="midnightblue" stroke="midnightblue" points="2048.6,-85.42 2052.35,-75.51 2043.24,-80.91 2048.6,-85.42"/>
</g>
<!-- Node23&#45;&gt;Node13 -->
<g id="edge34" class="edge">
<title>Node23&#45;&gt;Node13</title>
<path fill="none" stroke="midnightblue" d="M2103.19,-117.98C2095.47,-108.96 2083.09,-94.52 2073.48,-83.31"/>
<polygon fill="midnightblue" stroke="midnightblue" points="2075.96,-80.82 2066.79,-75.51 2070.64,-85.38 2075.96,-80.82"/>
</g>
<!-- Node24&#45;&gt;Node13 -->
<g id="edge36" class="edge">
<title>Node24&#45;&gt;Node13</title>
<path fill="none" stroke="midnightblue" d="M2182.87,-117.98C2158.38,-107.86 2117.35,-90.9 2089.39,-79.35"/>
<polygon fill="midnightblue" stroke="midnightblue" points="2090.67,-76.09 2080.09,-75.51 2088,-82.56 2090.67,-76.09"/>
</g>
<!-- Node25&#45;&gt;Node13 -->
<g id="edge38" class="edge">
<title>Node25&#45;&gt;Node13</title>
<path fill="none" stroke="midnightblue" d="M1358.75,-113.34C1361.7,-112.85 1364.63,-112.4 1367.5,-112 1603.08,-79.4 1887.12,-70.32 2004.57,-67.87"/>
<polygon fill="midnightblue" stroke="midnightblue" points="2004.82,-71.36 2014.75,-67.66 2004.68,-64.37 2004.82,-71.36"/>
</g>
<!-- Node26&#45;&gt;Node13 -->
<g id="edge40" class="edge">
<title>Node26&#45;&gt;Node13</title>
<path fill="none" stroke="midnightblue" d="M993.64,-117.96C1008.03,-115.68 1023.87,-113.46 1038.5,-112 1406.11,-75.35 1851.15,-68.55 2004.49,-67.29"/>
<polygon fill="midnightblue" stroke="midnightblue" points="2004.62,-70.79 2014.59,-67.21 2004.56,-63.79 2004.62,-70.79"/>
</g>
<!-- Node27&#45;&gt;Node13 -->
<g id="edge42" class="edge">
<title>Node27&#45;&gt;Node13</title>
<path fill="none" stroke="midnightblue" d="M1185.23,-118C1200.11,-115.75 1216.42,-113.53 1231.5,-112 1521.9,-82.47 1871.7,-71.49 2004.64,-68.2"/>
<polygon fill="midnightblue" stroke="midnightblue" points="2005.04,-71.69 2014.96,-67.95 2004.87,-64.69 2005.04,-71.69"/>
</g>
<!-- Node28&#45;&gt;Node13 -->
<g id="edge44" class="edge">
<title>Node28&#45;&gt;Node13</title>
<path fill="none" stroke="midnightblue" d="M2255.07,-117.85C2250.05,-115.79 2244.62,-113.69 2239.5,-112 2196.86,-97.92 2147.29,-85.83 2110.98,-77.74"/>
<polygon fill="midnightblue" stroke="midnightblue" points="2111.62,-74.3 2101.1,-75.57 2110.11,-81.14 2111.62,-74.3"/>
</g>
<!-- Node29&#45;&gt;Node13 -->
<g id="edge46" class="edge">
<title>Node29&#45;&gt;Node13</title>
<path fill="none" stroke="midnightblue" d="M2325.88,-117.92C2320.66,-115.75 2314.93,-113.59 2309.5,-112 2243.78,-92.72 2165.8,-80.27 2114.61,-73.46"/>
<polygon fill="midnightblue" stroke="midnightblue" points="2114.79,-69.95 2104.43,-72.13 2113.89,-76.9 2114.79,-69.95"/>
</g>
<!-- Node30&#45;&gt;Node13 -->
<g id="edge48" class="edge">
<title>Node30&#45;&gt;Node13</title>
<path fill="none" stroke="midnightblue" d="M2395.82,-117.92C2390.66,-115.7 2384.94,-113.51 2379.5,-112 2288.62,-86.71 2179.08,-75.23 2114.59,-70.33"/>
<polygon fill="midnightblue" stroke="midnightblue" points="2114.48,-66.81 2104.25,-69.57 2113.97,-73.79 2114.48,-66.81"/>
</g>
<!-- Node31&#45;&gt;Node7 -->
<g id="edge51" class="edge">
<title>Node31&#45;&gt;Node7</title>
<path fill="none" stroke="midnightblue" d="M736.57,-184.7C743.2,-156.57 763.96,-68.46 773.1,-29.66"/>
<polygon fill="midnightblue" stroke="midnightblue" points="776.56,-30.25 775.45,-19.71 769.75,-28.64 776.56,-30.25"/>
</g>
<!-- Node31&#45;&gt;Node13 -->
<g id="edge52" class="edge">
<title>Node31&#45;&gt;Node13</title>
<path fill="none" stroke="midnightblue" d="M743.08,-184.97C761.44,-167.39 806.66,-127.47 853.5,-112 963.54,-75.67 1784.1,-68.52 2004.92,-67.25"/>
<polygon fill="midnightblue" stroke="midnightblue" points="2004.99,-70.75 2014.97,-67.2 2004.95,-63.75 2004.99,-70.75"/>
</g>
<!-- Node32 -->
<g id="node32" class="node">
<title>Node32</title>
<g id="a_node32"><a xlink:title=" ">
<polygon fill="none" stroke="#bfbfbf" points="688.5,-118 688.5,-137 730.5,-137 730.5,-118 688.5,-118"/>
<text text-anchor="middle" x="709.5" y="-125" font-family="Helvetica,sans-Serif" font-size="10.00">array</text>
</a>
</g>
</g>
<!-- Node31&#45;&gt;Node32 -->
<g id="edge50" class="edge">
<title>Node31&#45;&gt;Node32</title>
<path fill="none" stroke="midnightblue" d="M731.13,-184.73C727.38,-174.99 721.22,-158.98 716.44,-146.53"/>
<polygon fill="midnightblue" stroke="midnightblue" points="719.67,-145.2 712.82,-137.13 713.14,-147.72 719.67,-145.2"/>
</g>
<!-- Node33&#45;&gt;Node10 -->
<g id="edge66" class="edge">
<title>Node33&#45;&gt;Node10</title>
<path fill="none" stroke="midnightblue" d="M403.87,-313.48C378.08,-303.31 334.79,-286.26 305.46,-274.7"/>
<polygon fill="midnightblue" stroke="midnightblue" points="306.68,-271.42 296.09,-271.01 304.12,-277.93 306.68,-271.42"/>
</g>
<!-- Node34 -->
<g id="node34" class="node">
<title>Node34</title>
<g id="a_node34"><a xlink:href="cp15_8hpp.html" target="_top" xlink:title=" ">
<polygon fill="none" stroke="black" points="345.5,-252 345.5,-271 473.5,-271 473.5,-252 345.5,-252"/>
<text text-anchor="middle" x="409.5" y="-259" font-family="Helvetica,sans-Serif" font-size="10.00">coprocessors/cp15.hpp</text>
</a>
</g>
</g>
<!-- Node33&#45;&gt;Node34 -->
<g id="edge54" class="edge">
<title>Node33&#45;&gt;Node34</title>
<path fill="none" stroke="midnightblue" d="M423.21,-313.48C420.93,-304.99 417.35,-291.7 414.43,-280.82"/>
<polygon fill="midnightblue" stroke="midnightblue" points="417.76,-279.76 411.79,-271.01 411.01,-281.57 417.76,-279.76"/>
</g>
<!-- Node37 -->
<g id="node37" class="node">
<title>Node37</title>
<g id="a_node37"><a xlink:href="peripheral_8hpp.html" target="_top" xlink:title=" ">
<polygon fill="none" stroke="black" points="525,-118 525,-137 670,-137 670,-118 525,-118"/>
<text text-anchor="middle" x="597.5" y="-125" font-family="Helvetica,sans-Serif" font-size="10.00">peripherals/peripheral.hpp</text>
</a>
</g>
</g>
<!-- Node33&#45;&gt;Node37 -->
<g id="edge64" class="edge">
<title>Node33&#45;&gt;Node37</title>
<path fill="none" stroke="midnightblue" d="M443.49,-313.3C474.71,-297.27 538.88,-260.1 573.5,-210 586.64,-190.99 592.68,-164.72 595.4,-147.2"/>
<polygon fill="midnightblue" stroke="midnightblue" points="598.89,-147.49 596.74,-137.11 591.95,-146.56 598.89,-147.49"/>
</g>
<!-- Node34&#45;&gt;Node3 -->
<g id="edge63" class="edge">
<title>Node34&#45;&gt;Node3</title>
<path fill="none" stroke="midnightblue" d="M399.59,-251.67C388.91,-241.94 371.69,-225.6 358.5,-210 324.11,-169.32 323.09,-153.35 289.5,-112 281.33,-101.94 271.48,-91.32 263.37,-82.92"/>
<polygon fill="midnightblue" stroke="midnightblue" points="265.74,-80.34 256.24,-75.64 260.74,-85.23 265.74,-80.34"/>
</g>
<!-- Node34&#45;&gt;Node5 -->
<g id="edge55" class="edge">
<title>Node34&#45;&gt;Node5</title>
<path fill="none" stroke="midnightblue" d="M405.18,-251.95C395.84,-232.96 374.04,-185.56 366.5,-143 359.46,-103.27 363.05,-55.76 365.98,-29.96"/>
<polygon fill="midnightblue" stroke="midnightblue" points="369.49,-30.09 367.23,-19.74 362.54,-29.24 369.49,-30.09"/>
</g>
<!-- Node35 -->
<g id="node35" class="node">
<title>Node35</title>
<g id="a_node35"><a xlink:title=" ">
<polygon fill="none" stroke="#bfbfbf" points="375,-118 375,-137 468,-137 468,-118 375,-118"/>
<text text-anchor="middle" x="421.5" y="-125" font-family="Helvetica,sans-Serif" font-size="10.00">unordered_map</text>
</a>
</g>
</g>
<!-- Node34&#45;&gt;Node35 -->
<g id="edge56" class="edge">
<title>Node34&#45;&gt;Node35</title>
<path fill="none" stroke="midnightblue" d="M410.29,-251.84C412.21,-230.67 417.19,-175.95 419.82,-147.03"/>
<polygon fill="midnightblue" stroke="midnightblue" points="423.31,-147.3 420.73,-137.02 416.33,-146.66 423.31,-147.3"/>
</g>
<!-- Node36 -->
<g id="node36" class="node">
<title>Node36</title>
<g id="a_node36"><a xlink:href="coprocessor_8hpp.html" target="_top" xlink:title=" ">
<polygon fill="none" stroke="black" points="854,-185 854,-204 949,-204 949,-185 854,-185"/>
<text text-anchor="middle" x="901.5" y="-192" font-family="Helvetica,sans-Serif" font-size="10.00">coprocessor.hpp</text>
</a>
</g>
</g>
<!-- Node34&#45;&gt;Node36 -->
<g id="edge57" class="edge">
<title>Node34&#45;&gt;Node36</title>
<path fill="none" stroke="midnightblue" d="M473.54,-252.51C551.01,-242.78 685.38,-225.7 800.5,-210 814.55,-208.08 829.7,-205.95 843.87,-203.92"/>
<polygon fill="midnightblue" stroke="midnightblue" points="844.59,-207.35 853.99,-202.46 843.6,-200.42 844.59,-207.35"/>
</g>
<!-- Node36&#45;&gt;Node2 -->
<g id="edge59" class="edge">
<title>Node36&#45;&gt;Node2</title>
<path fill="none" stroke="midnightblue" d="M853.79,-186.05C836.98,-183.59 817.93,-180.97 800.5,-179 608.18,-157.24 559.08,-162.33 366.5,-143 341.45,-140.49 313.59,-137.24 290.73,-134.45"/>
<polygon fill="midnightblue" stroke="midnightblue" points="290.95,-130.96 280.6,-133.21 290.1,-137.9 290.95,-130.96"/>
</g>
<!-- Node36&#45;&gt;Node7 -->
<g id="edge58" class="edge">
<title>Node36&#45;&gt;Node7</title>
<path fill="none" stroke="midnightblue" d="M891.96,-184.78C881.73,-175.15 865.37,-158.9 853.5,-143 825.01,-104.84 798.99,-55.04 786.07,-28.87"/>
<polygon fill="midnightblue" stroke="midnightblue" points="789.17,-27.23 781.64,-19.78 782.87,-30.3 789.17,-27.23"/>
</g>
<!-- Node36&#45;&gt;Node25 -->
<g id="edge60" class="edge">
<title>Node36&#45;&gt;Node25</title>
<path fill="none" stroke="midnightblue" d="M949.19,-187.09C1011.54,-178.52 1124.35,-162.33 1230.3,-143.16"/>
<polygon fill="midnightblue" stroke="midnightblue" points="1230.99,-146.59 1240.2,-141.36 1229.74,-139.71 1230.99,-146.59"/>
</g>
<!-- Node36&#45;&gt;Node26 -->
<g id="edge61" class="edge">
<title>Node36&#45;&gt;Node26</title>
<path fill="none" stroke="midnightblue" d="M907.43,-184.73C914.23,-174.7 925.52,-158.01 934.05,-145.42"/>
<polygon fill="midnightblue" stroke="midnightblue" points="936.95,-147.37 939.66,-137.13 931.16,-143.45 936.95,-147.37"/>
</g>
<!-- Node36&#45;&gt;Node27 -->
<g id="edge62" class="edge">
<title>Node36&#45;&gt;Node27</title>
<path fill="none" stroke="midnightblue" d="M932.44,-184.87C974.07,-173.25 1048.2,-152.58 1094.16,-139.75"/>
<polygon fill="midnightblue" stroke="midnightblue" points="1095.11,-143.12 1103.8,-137.06 1093.23,-136.38 1095.11,-143.12"/>
</g>
<!-- Node37&#45;&gt;Node7 -->
<g id="edge65" class="edge">
<title>Node37&#45;&gt;Node7</title>
<path fill="none" stroke="midnightblue" d="M611.03,-117.82C641.78,-98.09 717.19,-49.7 755.05,-25.41"/>
<polygon fill="midnightblue" stroke="midnightblue" points="757.29,-28.13 763.81,-19.78 753.51,-22.24 757.29,-28.13"/>
</g>
<!-- Node39&#45;&gt;Node2 -->
<g id="edge73" class="edge">
<title>Node39&#45;&gt;Node2</title>
<path fill="none" stroke="midnightblue" d="M445.84,-179.48C398.28,-167.5 330.83,-150.5 287.11,-139.49"/>
<polygon fill="midnightblue" stroke="midnightblue" points="287.9,-136.08 277.35,-137.03 286.19,-142.87 287.9,-136.08"/>
</g>
<!-- Node39&#45;&gt;Node3 -->
<g id="edge74" class="edge">
<title>Node39&#45;&gt;Node3</title>
<path fill="none" stroke="midnightblue" d="M501.54,-179.41C500.79,-161.08 496.58,-129.38 477.5,-112 455.37,-91.84 382.67,-79.99 324.87,-73.55"/>
<polygon fill="midnightblue" stroke="midnightblue" points="324.94,-70.04 314.63,-72.45 324.2,-77 324.94,-70.04"/>
</g>
<!-- Node39&#45;&gt;Node32 -->
<g id="edge70" class="edge">
<title>Node39&#45;&gt;Node32</title>
<path fill="none" stroke="midnightblue" d="M560.86,-179.42C595.87,-170.43 640.77,-157.73 679.5,-143 680.92,-142.46 682.36,-141.88 683.81,-141.27"/>
<polygon fill="midnightblue" stroke="midnightblue" points="685.56,-144.32 693.22,-137 682.67,-137.95 685.56,-144.32"/>
</g>
<!-- Node39&#45;&gt;Node35 -->
<g id="edge71" class="edge">
<title>Node39&#45;&gt;Node35</title>
<path fill="none" stroke="midnightblue" d="M484.14,-179.4C471.17,-168.86 453.47,-154.48 440.19,-143.69"/>
<polygon fill="midnightblue" stroke="midnightblue" points="442.17,-140.78 432.2,-137.19 437.76,-146.22 442.17,-140.78"/>
</g>
<!-- Node39&#45;&gt;Node37 -->
<g id="edge72" class="edge">
<title>Node39&#45;&gt;Node37</title>
<path fill="none" stroke="midnightblue" d="M522.33,-179.4C538.28,-168.6 560.2,-153.76 576.25,-142.89"/>
<polygon fill="midnightblue" stroke="midnightblue" points="578.62,-145.51 584.94,-137.01 574.69,-139.72 578.62,-145.51"/>
</g>
<!-- Node40&#45;&gt;Node7 -->
<g id="edge76" class="edge">
<title>Node40&#45;&gt;Node7</title>
<path fill="none" stroke="midnightblue" d="M1930.26,-258.69C2149.48,-251.42 2900.41,-220.98 2970.5,-143 2979.71,-132.75 2979.92,-122.05 2970.5,-112 2893.52,-29.83 1089.54,-13.3 812.94,-11.24"/>
<polygon fill="midnightblue" stroke="midnightblue" points="812.71,-7.74 802.68,-11.17 812.66,-14.74 812.71,-7.74"/>
</g>
</g>
</svg>
