<?xml version="1.0" encoding="UTF-8" standalone="no"?>
<!DOCTYPE svg PUBLIC "-//W3C//DTD SVG 1.1//EN"
 "http://www.w3.org/Graphics/SVG/1.1/DTD/svg11.dtd">
<!-- Generated by graphviz version 2.43.0 (0)
 -->
<!-- Title: src/core/arm1176jzf_s/core.hpp Pages: 1 -->
<svg width="2883pt" height="408pt"
 viewBox="0.00 0.00 2883.00 408.00" xmlns="http://www.w3.org/2000/svg" xmlns:xlink="http://www.w3.org/1999/xlink">
<g id="graph0" class="graph" transform="scale(1 1) rotate(0) translate(4 404)">
<title>src/core/arm1176jzf_s/core.hpp</title>
<!-- Node1 -->
<g id="node1" class="node">
<title>Node1</title>
<g id="a_node1"><a xlink:title="This file defines a class that represents a CPU core (arm1176jzf_s).">
<polygon fill="#bfbfbf" stroke="black" points="2396,-369.5 2396,-399.5 2509,-399.5 2509,-369.5 2396,-369.5"/>
<text text-anchor="start" x="2404" y="-387.5" font-family="Helvetica,sans-Serif" font-size="10.00">src/core/arm1176jzf</text>
<text text-anchor="middle" x="2452.5" y="-376.5" font-family="Helvetica,sans-Serif" font-size="10.00">_s/core.hpp</text>
</a>
</g>
</g>
<!-- Node2 -->
<g id="node2" class="node">
<title>Node2</title>
<g id="a_node2"><a xlink:href="context_8hpp.html" target="_top" xlink:title="This file defines the context (registers) of the CPU.">
<polygon fill="none" stroke="black" points="2268.5,-118 2268.5,-137 2342.5,-137 2342.5,-118 2268.5,-118"/>
<text text-anchor="middle" x="2305.5" y="-125" font-family="Helvetica,sans-Serif" font-size="10.00">context.hpp</text>
</a>
</g>
</g>
<!-- Node1&#45;&gt;Node2 -->
<g id="edge1" class="edge">
<title>Node1&#45;&gt;Node2</title>
<path fill="none" stroke="midnightblue" d="M2455.76,-369.35C2463.17,-333.43 2477.38,-237.46 2433.5,-179 2427.62,-171.16 2376.7,-152.63 2340.89,-140.33"/>
<polygon fill="midnightblue" stroke="midnightblue" points="2341.83,-136.95 2331.24,-137.04 2339.57,-143.58 2341.83,-136.95"/>
</g>
<!-- Node3 -->
<g id="node3" class="node">
<title>Node3</title>
<g id="a_node3"><a xlink:href="logger_8hpp.html" target="_top" xlink:title=" ">
<polygon fill="none" stroke="black" points="2173.5,-56.5 2173.5,-75.5 2307.5,-75.5 2307.5,-56.5 2173.5,-56.5"/>
<text text-anchor="middle" x="2240.5" y="-63.5" font-family="Helvetica,sans-Serif" font-size="10.00">../utils/logger/logger.hpp</text>
</a>
</g>
</g>
<!-- Node1&#45;&gt;Node3 -->
<g id="edge67" class="edge">
<title>Node1&#45;&gt;Node3</title>
<path fill="none" stroke="midnightblue" d="M2395.75,-379.69C2330.59,-371.93 2226.4,-348.38 2177.5,-277 2134.48,-214.21 2197.11,-121.38 2226.58,-83.75"/>
<polygon fill="midnightblue" stroke="midnightblue" points="2229.43,-85.8 2232.96,-75.81 2223.97,-81.42 2229.43,-85.8"/>
</g>
<!-- Node10 -->
<g id="node10" class="node">
<title>Node10</title>
<g id="a_node10"><a xlink:href="exceptions_8hpp.html" target="_top" xlink:title="This file defines all exceptions that can be thrown by the CPU during execution.">
<polygon fill="none" stroke="black" points="2333,-252 2333,-271 2424,-271 2424,-252 2333,-252"/>
<text text-anchor="middle" x="2378.5" y="-259" font-family="Helvetica,sans-Serif" font-size="10.00">exceptions.hpp</text>
</a>
</g>
</g>
<!-- Node1&#45;&gt;Node10 -->
<g id="edge9" class="edge">
<title>Node1&#45;&gt;Node10</title>
<path fill="none" stroke="midnightblue" d="M2399.03,-369.46C2380.72,-361.82 2362.17,-350.26 2351.5,-333 2340.9,-315.85 2352.79,-293.86 2363.96,-279.03"/>
<polygon fill="midnightblue" stroke="midnightblue" points="2366.71,-281.2 2370.29,-271.22 2361.27,-276.79 2366.71,-281.2"/>
</g>
<!-- Node12 -->
<g id="node12" class="node">
<title>Node12</title>
<g id="a_node12"><a xlink:href="isa_8hpp.html" target="_top" xlink:title="This file is just a helper file for including all ARM instructions supported by the emulator.">
<polygon fill="none" stroke="black" points="799,-185 799,-204 868,-204 868,-185 799,-185"/>
<text text-anchor="middle" x="833.5" y="-192" font-family="Helvetica,sans-Serif" font-size="10.00">isa/isa.hpp</text>
</a>
</g>
</g>
<!-- Node1&#45;&gt;Node12 -->
<g id="edge12" class="edge">
<title>Node1&#45;&gt;Node12</title>
<path fill="none" stroke="midnightblue" d="M2395.83,-376.92C2141.31,-347.36 1106.39,-227.19 878.17,-200.69"/>
<polygon fill="midnightblue" stroke="midnightblue" points="878.56,-197.21 868.22,-199.53 877.75,-204.16 878.56,-197.21"/>
</g>
<!-- Node31 -->
<g id="node31" class="node">
<title>Node31</title>
<g id="a_node31"><a xlink:href="isa__decoder_8hpp.html" target="_top" xlink:title=" ">
<polygon fill="none" stroke="black" points="2671,-185 2671,-204 2784,-204 2784,-185 2671,-185"/>
<text text-anchor="middle" x="2727.5" y="-192" font-family="Helvetica,sans-Serif" font-size="10.00">isa/isa_decoder.hpp</text>
</a>
</g>
</g>
<!-- Node1&#45;&gt;Node31 -->
<g id="edge48" class="edge">
<title>Node1&#45;&gt;Node31</title>
<path fill="none" stroke="midnightblue" d="M2509,-377.44C2568.35,-369.99 2656.49,-355.5 2681.5,-333 2716.03,-301.94 2724.68,-244.23 2726.82,-214.41"/>
<polygon fill="midnightblue" stroke="midnightblue" points="2730.33,-214.32 2727.37,-204.14 2723.34,-213.94 2730.33,-214.32"/>
</g>
<!-- Node33 -->
<g id="node33" class="node">
<title>Node33</title>
<g id="a_node33"><a xlink:href="bus_8hpp.html" target="_top" xlink:title="This file defines an interface the CPU uses to access different memory&#45;mapped peripherals.">
<polygon fill="none" stroke="black" points="2360.5,-313.5 2360.5,-332.5 2424.5,-332.5 2424.5,-313.5 2360.5,-313.5"/>
<text text-anchor="middle" x="2392.5" y="-320.5" font-family="Helvetica,sans-Serif" font-size="10.00">../bus.hpp</text>
</a>
</g>
</g>
<!-- Node1&#45;&gt;Node33 -->
<g id="edge52" class="edge">
<title>Node1&#45;&gt;Node33</title>
<path fill="none" stroke="midnightblue" d="M2438.28,-369.4C2429.29,-360.49 2417.66,-348.95 2408.37,-339.74"/>
<polygon fill="midnightblue" stroke="midnightblue" points="2410.8,-337.21 2401.23,-332.66 2405.87,-342.18 2410.8,-337.21"/>
</g>
<!-- Node38 -->
<g id="node38" class="node">
<title>Node38</title>
<g id="a_node38"><a xlink:href="math_8hpp.html" target="_top" xlink:title="This file defines and implements a variety of handy helper functions that are used throughout the pro...">
<polygon fill="none" stroke="black" points="2576.5,-313.5 2576.5,-332.5 2672.5,-332.5 2672.5,-313.5 2576.5,-313.5"/>
<text text-anchor="middle" x="2624.5" y="-320.5" font-family="Helvetica,sans-Serif" font-size="10.00">../utils/math.hpp</text>
</a>
</g>
</g>
<!-- Node1&#45;&gt;Node38 -->
<g id="edge66" class="edge">
<title>Node1&#45;&gt;Node38</title>
<path fill="none" stroke="midnightblue" d="M2493.26,-369.4C2522.72,-359.21 2562.09,-345.59 2590,-335.93"/>
<polygon fill="midnightblue" stroke="midnightblue" points="2591.42,-339.15 2599.72,-332.57 2589.13,-332.53 2591.42,-339.15"/>
</g>
<!-- Node39 -->
<g id="node39" class="node">
<title>Node39</title>
<g id="a_node39"><a xlink:href="interrupt__controller_8hpp.html" target="_top" xlink:title=" ">
<polygon fill="none" stroke="black" points="2481,-179.5 2481,-209.5 2606,-209.5 2606,-179.5 2481,-179.5"/>
<text text-anchor="start" x="2489" y="-197.5" font-family="Helvetica,sans-Serif" font-size="10.00">../peripherals/interrupt</text>
<text text-anchor="middle" x="2543.5" y="-186.5" font-family="Helvetica,sans-Serif" font-size="10.00">_controller.hpp</text>
</a>
</g>
</g>
<!-- Node1&#45;&gt;Node39 -->
<g id="edge68" class="edge">
<title>Node1&#45;&gt;Node39</title>
<path fill="none" stroke="midnightblue" d="M2459.34,-369.37C2474.92,-337.17 2513.2,-258.1 2532.29,-218.66"/>
<polygon fill="midnightblue" stroke="midnightblue" points="2535.5,-220.06 2536.7,-209.54 2529.2,-217.01 2535.5,-220.06"/>
</g>
<!-- Node40 -->
<g id="node40" class="node">
<title>Node40</title>
<g id="a_node40"><a xlink:href="system__clock__listener_8hpp.html" target="_top" xlink:title=" ">
<polygon fill="none" stroke="black" points="2756,-246.5 2756,-276.5 2875,-276.5 2875,-246.5 2756,-246.5"/>
<text text-anchor="start" x="2764" y="-264.5" font-family="Helvetica,sans-Serif" font-size="10.00">../peripherals/system</text>
<text text-anchor="middle" x="2815.5" y="-253.5" font-family="Helvetica,sans-Serif" font-size="10.00">_clock_listener.hpp</text>
</a>
</g>
</g>
<!-- Node1&#45;&gt;Node40 -->
<g id="edge74" class="edge">
<title>Node1&#45;&gt;Node40</title>
<path fill="none" stroke="midnightblue" d="M2509.04,-381.88C2567.52,-378.29 2660.26,-367.12 2732.5,-333 2757.33,-321.27 2780.7,-300.16 2796.28,-284.09"/>
<polygon fill="midnightblue" stroke="midnightblue" points="2798.96,-286.34 2803.27,-276.66 2793.86,-281.54 2798.96,-286.34"/>
</g>
<!-- Node2&#45;&gt;Node3 -->
<g id="edge2" class="edge">
<title>Node2&#45;&gt;Node3</title>
<path fill="none" stroke="midnightblue" d="M2296.19,-117.98C2286.05,-108.7 2269.64,-93.67 2257.25,-82.33"/>
<polygon fill="midnightblue" stroke="midnightblue" points="2259.54,-79.68 2249.8,-75.51 2254.81,-84.84 2259.54,-79.68"/>
</g>
<!-- Node4 -->
<g id="node4" class="node">
<title>Node4</title>
<g id="a_node4"><a xlink:title=" ">
<polygon fill="none" stroke="#bfbfbf" points="2426.5,-0.5 2426.5,-19.5 2474.5,-19.5 2474.5,-0.5 2426.5,-0.5"/>
<text text-anchor="middle" x="2450.5" y="-7.5" font-family="Helvetica,sans-Serif" font-size="10.00">mutex</text>
</a>
</g>
</g>
<!-- Node3&#45;&gt;Node4 -->
<g id="edge3" class="edge">
<title>Node3&#45;&gt;Node4</title>
<path fill="none" stroke="midnightblue" d="M2274.81,-56.46C2308.48,-48.05 2361.54,-34.67 2416.45,-20.24"/>
<polygon fill="midnightblue" stroke="midnightblue" points="2417.58,-23.57 2426.36,-17.63 2415.8,-16.8 2417.58,-23.57"/>
</g>
<!-- Node5 -->
<g id="node5" class="node">
<title>Node5</title>
<g id="a_node5"><a xlink:title=" ">
<polygon fill="none" stroke="#bfbfbf" points="2082,-0.5 2082,-19.5 2129,-19.5 2129,-0.5 2082,-0.5"/>
<text text-anchor="middle" x="2105.5" y="-7.5" font-family="Helvetica,sans-Serif" font-size="10.00">vector</text>
</a>
</g>
</g>
<!-- Node3&#45;&gt;Node5 -->
<g id="edge4" class="edge">
<title>Node3&#45;&gt;Node5</title>
<path fill="none" stroke="midnightblue" d="M2219.11,-56.44C2196.79,-47.52 2161.6,-33.44 2136.29,-23.32"/>
<polygon fill="midnightblue" stroke="midnightblue" points="2137.38,-19.98 2126.79,-19.52 2134.78,-26.48 2137.38,-19.98"/>
</g>
<!-- Node6 -->
<g id="node6" class="node">
<title>Node6</title>
<g id="a_node6"><a xlink:title=" ">
<polygon fill="none" stroke="#bfbfbf" points="2147.5,-0.5 2147.5,-19.5 2205.5,-19.5 2205.5,-0.5 2147.5,-0.5"/>
<text text-anchor="middle" x="2176.5" y="-7.5" font-family="Helvetica,sans-Serif" font-size="10.00">memory</text>
</a>
</g>
</g>
<!-- Node3&#45;&gt;Node6 -->
<g id="edge5" class="edge">
<title>Node3&#45;&gt;Node6</title>
<path fill="none" stroke="midnightblue" d="M2230.22,-56.32C2220.66,-48.26 2206.22,-36.08 2194.72,-26.37"/>
<polygon fill="midnightblue" stroke="midnightblue" points="2196.87,-23.61 2186.97,-19.83 2192.36,-28.96 2196.87,-23.61"/>
</g>
<!-- Node7 -->
<g id="node7" class="node">
<title>Node7</title>
<g id="a_node7"><a xlink:title=" ">
<polygon fill="none" stroke="#bfbfbf" points="2558.5,-0.5 2558.5,-19.5 2608.5,-19.5 2608.5,-0.5 2558.5,-0.5"/>
<text text-anchor="middle" x="2583.5" y="-7.5" font-family="Helvetica,sans-Serif" font-size="10.00">cstdint</text>
</a>
</g>
</g>
<!-- Node3&#45;&gt;Node7 -->
<g id="edge6" class="edge">
<title>Node3&#45;&gt;Node7</title>
<path fill="none" stroke="midnightblue" d="M2294.85,-56.44C2365.77,-45.28 2487.9,-26.05 2547.99,-16.59"/>
<polygon fill="midnightblue" stroke="midnightblue" points="2548.79,-20.01 2558.12,-15 2547.7,-13.09 2548.79,-20.01"/>
</g>
<!-- Node8 -->
<g id="node8" class="node">
<title>Node8</title>
<g id="a_node8"><a xlink:title=" ">
<polygon fill="none" stroke="#bfbfbf" points="2224,-0.5 2224,-19.5 2297,-19.5 2297,-0.5 2224,-0.5"/>
<text text-anchor="middle" x="2260.5" y="-7.5" font-family="Helvetica,sans-Serif" font-size="10.00">string_view</text>
</a>
</g>
</g>
<!-- Node3&#45;&gt;Node8 -->
<g id="edge7" class="edge">
<title>Node3&#45;&gt;Node8</title>
<path fill="none" stroke="midnightblue" d="M2243.8,-56.08C2246.48,-48.85 2250.35,-38.41 2253.69,-29.4"/>
<polygon fill="midnightblue" stroke="midnightblue" points="2257.07,-30.34 2257.26,-19.75 2250.5,-27.91 2257.07,-30.34"/>
</g>
<!-- Node9 -->
<g id="node9" class="node">
<title>Node9</title>
<g id="a_node9"><a xlink:title=" ">
<polygon fill="none" stroke="#bfbfbf" points="2315,-0.5 2315,-19.5 2408,-19.5 2408,-0.5 2315,-0.5"/>
<text text-anchor="middle" x="2361.5" y="-7.5" font-family="Helvetica,sans-Serif" font-size="10.00">source_location</text>
</a>
</g>
</g>
<!-- Node3&#45;&gt;Node9 -->
<g id="edge8" class="edge">
<title>Node3&#45;&gt;Node9</title>
<path fill="none" stroke="midnightblue" d="M2259.67,-56.44C2279.41,-47.64 2310.39,-33.81 2332.99,-23.72"/>
<polygon fill="midnightblue" stroke="midnightblue" points="2334.71,-26.79 2342.42,-19.52 2331.86,-20.4 2334.71,-26.79"/>
</g>
<!-- Node10&#45;&gt;Node2 -->
<g id="edge11" class="edge">
<title>Node10&#45;&gt;Node2</title>
<path fill="none" stroke="midnightblue" d="M2369.78,-251.88C2360.52,-242.33 2345.93,-226.15 2336.5,-210 2324.6,-189.63 2315.7,-163.85 2310.56,-146.8"/>
<polygon fill="midnightblue" stroke="midnightblue" points="2313.86,-145.64 2307.73,-137.01 2307.14,-147.58 2313.86,-145.64"/>
</g>
<!-- Node11 -->
<g id="node11" class="node">
<title>Node11</title>
<g id="a_node11"><a xlink:title=" ">
<polygon fill="none" stroke="#bfbfbf" points="2345,-185 2345,-204 2424,-204 2424,-185 2345,-185"/>
<text text-anchor="middle" x="2384.5" y="-192" font-family="Helvetica,sans-Serif" font-size="10.00">fmt/format.h</text>
</a>
</g>
</g>
<!-- Node10&#45;&gt;Node11 -->
<g id="edge10" class="edge">
<title>Node10&#45;&gt;Node11</title>
<path fill="none" stroke="midnightblue" d="M2379.31,-251.73C2380.19,-242.18 2381.63,-226.62 2382.77,-214.28"/>
<polygon fill="midnightblue" stroke="midnightblue" points="2386.27,-214.41 2383.7,-204.13 2379.3,-213.76 2386.27,-214.41"/>
</g>
<!-- Node13 -->
<g id="node13" class="node">
<title>Node13</title>
<g id="a_node13"><a xlink:href="instruction_8hpp.html" target="_top" xlink:title="This file defines the interface of a general ARM instruction.">
<polygon fill="none" stroke="black" points="789,-56.5 789,-75.5 878,-75.5 878,-56.5 789,-56.5"/>
<text text-anchor="middle" x="833.5" y="-63.5" font-family="Helvetica,sans-Serif" font-size="10.00">instruction.hpp</text>
</a>
</g>
</g>
<!-- Node12&#45;&gt;Node13 -->
<g id="edge13" class="edge">
<title>Node12&#45;&gt;Node13</title>
<path fill="none" stroke="midnightblue" d="M798.84,-193.46C723.59,-192.55 549.07,-185.77 512.5,-143 503.55,-132.53 503.46,-122.4 512.5,-112 546.32,-73.11 696.07,-66.83 778.55,-66.41"/>
<polygon fill="midnightblue" stroke="midnightblue" points="778.75,-69.91 788.75,-66.39 778.74,-62.91 778.75,-69.91"/>
</g>
<!-- Node14 -->
<g id="node14" class="node">
<title>Node14</title>
<g id="a_node14"><a xlink:href="branch__and__exchange_8hpp.html" target="_top" xlink:title="This file defines a branch and exchange instruction (BX).">
<polygon fill="none" stroke="black" points="521.5,-118 521.5,-137 667.5,-137 667.5,-118 521.5,-118"/>
<text text-anchor="middle" x="594.5" y="-125" font-family="Helvetica,sans-Serif" font-size="10.00">branch_and_exchange.hpp</text>
</a>
</g>
</g>
<!-- Node12&#45;&gt;Node14 -->
<g id="edge14" class="edge">
<title>Node12&#45;&gt;Node14</title>
<path fill="none" stroke="midnightblue" d="M801.76,-184.87C759.06,-173.25 683.02,-152.58 635.88,-139.75"/>
<polygon fill="midnightblue" stroke="midnightblue" points="636.56,-136.31 625.99,-137.06 634.72,-143.07 636.56,-136.31"/>
</g>
<!-- Node15 -->
<g id="node15" class="node">
<title>Node15</title>
<g id="a_node15"><a xlink:href="branch_8hpp.html" target="_top" xlink:title="This file defines a branch instruction (B, BL).">
<polygon fill="none" stroke="black" points="686,-118 686,-137 757,-137 757,-118 686,-118"/>
<text text-anchor="middle" x="721.5" y="-125" font-family="Helvetica,sans-Serif" font-size="10.00">branch.hpp</text>
</a>
</g>
</g>
<!-- Node12&#45;&gt;Node15 -->
<g id="edge16" class="edge">
<title>Node12&#45;&gt;Node15</title>
<path fill="none" stroke="midnightblue" d="M818.4,-184.73C799.59,-173.82 767.25,-155.05 745.14,-142.22"/>
<polygon fill="midnightblue" stroke="midnightblue" points="746.77,-139.12 736.37,-137.13 743.26,-145.17 746.77,-139.12"/>
</g>
<!-- Node16 -->
<g id="node16" class="node">
<title>Node16</title>
<g id="a_node16"><a xlink:href="data__processing_8hpp.html" target="_top" xlink:title="This file defines a data processing instruction.">
<polygon fill="none" stroke="black" points="775,-118 775,-137 892,-137 892,-118 775,-118"/>
<text text-anchor="middle" x="833.5" y="-125" font-family="Helvetica,sans-Serif" font-size="10.00">data_processing.hpp</text>
</a>
</g>
</g>
<!-- Node12&#45;&gt;Node16 -->
<g id="edge18" class="edge">
<title>Node12&#45;&gt;Node16</title>
<path fill="none" stroke="midnightblue" d="M833.5,-184.73C833.5,-175.18 833.5,-159.62 833.5,-147.28"/>
<polygon fill="midnightblue" stroke="midnightblue" points="837,-147.13 833.5,-137.13 830,-147.13 837,-147.13"/>
</g>
<!-- Node17 -->
<g id="node17" class="node">
<title>Node17</title>
<g id="a_node17"><a xlink:href="multiply_8hpp.html" target="_top" xlink:title=" ">
<polygon fill="none" stroke="black" points="910,-118 910,-137 987,-137 987,-118 910,-118"/>
<text text-anchor="middle" x="948.5" y="-125" font-family="Helvetica,sans-Serif" font-size="10.00">multiply.hpp</text>
</a>
</g>
</g>
<!-- Node12&#45;&gt;Node17 -->
<g id="edge20" class="edge">
<title>Node12&#45;&gt;Node17</title>
<path fill="none" stroke="midnightblue" d="M849.01,-184.73C868.41,-173.77 901.83,-154.88 924.53,-142.05"/>
<polygon fill="midnightblue" stroke="midnightblue" points="926.25,-145.09 933.24,-137.13 922.81,-139 926.25,-145.09"/>
</g>
<!-- Node18 -->
<g id="node18" class="node">
<title>Node18</title>
<g id="a_node18"><a xlink:href="multiply__long_8hpp.html" target="_top" xlink:title=" ">
<polygon fill="none" stroke="black" points="1005.5,-118 1005.5,-137 1109.5,-137 1109.5,-118 1005.5,-118"/>
<text text-anchor="middle" x="1057.5" y="-125" font-family="Helvetica,sans-Serif" font-size="10.00">multiply_long.hpp</text>
</a>
</g>
</g>
<!-- Node12&#45;&gt;Node18 -->
<g id="edge22" class="edge">
<title>Node12&#45;&gt;Node18</title>
<path fill="none" stroke="midnightblue" d="M863.25,-184.87C903.1,-173.3 973.93,-152.75 1018.16,-139.91"/>
<polygon fill="midnightblue" stroke="midnightblue" points="1019.36,-143.21 1027.99,-137.06 1017.41,-136.49 1019.36,-143.21"/>
</g>
<!-- Node19 -->
<g id="node19" class="node">
<title>Node19</title>
<g id="a_node19"><a xlink:href="single__data__transfer_8hpp.html" target="_top" xlink:title=" ">
<polygon fill="none" stroke="black" points="1128,-118 1128,-137 1265,-137 1265,-118 1128,-118"/>
<text text-anchor="middle" x="1196.5" y="-125" font-family="Helvetica,sans-Serif" font-size="10.00">single_data_transfer.hpp</text>
</a>
</g>
</g>
<!-- Node12&#45;&gt;Node19 -->
<g id="edge24" class="edge">
<title>Node12&#45;&gt;Node19</title>
<path fill="none" stroke="midnightblue" d="M868.18,-187.45C921.85,-178.07 1028.27,-159.38 1118.5,-143 1125.67,-141.7 1133.22,-140.31 1140.67,-138.94"/>
<polygon fill="midnightblue" stroke="midnightblue" points="1141.53,-142.34 1150.73,-137.08 1140.26,-135.45 1141.53,-142.34"/>
</g>
<!-- Node20 -->
<g id="node20" class="node">
<title>Node20</title>
<g id="a_node20"><a xlink:href="block__data__transfer_8hpp.html" target="_top" xlink:title="This file defines a block data transfer instruction (LDM, STM).">
<polygon fill="none" stroke="black" points="1283.5,-118 1283.5,-137 1417.5,-137 1417.5,-118 1283.5,-118"/>
<text text-anchor="middle" x="1350.5" y="-125" font-family="Helvetica,sans-Serif" font-size="10.00">block_data_transfer.hpp</text>
</a>
</g>
</g>
<!-- Node12&#45;&gt;Node20 -->
<g id="edge26" class="edge">
<title>Node12&#45;&gt;Node20</title>
<path fill="none" stroke="midnightblue" d="M868.12,-190.38C942.54,-183.49 1123.16,-165.75 1273.5,-143 1281.53,-141.78 1290.01,-140.35 1298.28,-138.86"/>
<polygon fill="midnightblue" stroke="midnightblue" points="1299.03,-142.28 1308.23,-137.03 1297.76,-135.39 1299.03,-142.28"/>
</g>
<!-- Node21 -->
<g id="node21" class="node">
<title>Node21</title>
<g id="a_node21"><a xlink:href="halfword__data__transfer_8hpp.html" target="_top" xlink:title=" ">
<polygon fill="none" stroke="black" points="1436,-118 1436,-137 1585,-137 1585,-118 1436,-118"/>
<text text-anchor="middle" x="1510.5" y="-125" font-family="Helvetica,sans-Serif" font-size="10.00">halfword_data_transfer.hpp</text>
</a>
</g>
</g>
<!-- Node12&#45;&gt;Node21 -->
<g id="edge28" class="edge">
<title>Node12&#45;&gt;Node21</title>
<path fill="none" stroke="midnightblue" d="M868.03,-191.6C959.44,-186.35 1215.14,-170.19 1426.5,-143 1435.87,-141.79 1445.79,-140.29 1455.4,-138.71"/>
<polygon fill="midnightblue" stroke="midnightblue" points="1455.99,-142.16 1465.27,-137.04 1454.83,-135.26 1455.99,-142.16"/>
</g>
<!-- Node22 -->
<g id="node22" class="node">
<title>Node22</title>
<g id="a_node22"><a xlink:href="extend_8hpp.html" target="_top" xlink:title=" ">
<polygon fill="none" stroke="black" points="0,-118 0,-137 71,-137 71,-118 0,-118"/>
<text text-anchor="middle" x="35.5" y="-125" font-family="Helvetica,sans-Serif" font-size="10.00">extend.hpp</text>
</a>
</g>
</g>
<!-- Node12&#45;&gt;Node22 -->
<g id="edge30" class="edge">
<title>Node12&#45;&gt;Node22</title>
<path fill="none" stroke="midnightblue" d="M798.76,-192.33C670,-187.83 220.18,-170.44 79.5,-143 75.61,-142.24 71.6,-141.24 67.64,-140.11"/>
<polygon fill="midnightblue" stroke="midnightblue" points="68.64,-136.76 58.05,-137.14 66.56,-143.44 68.64,-136.76"/>
</g>
<!-- Node23 -->
<g id="node23" class="node">
<title>Node23</title>
<g id="a_node23"><a xlink:href="psr__transfer_8hpp.html" target="_top" xlink:title=" ">
<polygon fill="none" stroke="black" points="89,-118 89,-137 184,-137 184,-118 89,-118"/>
<text text-anchor="middle" x="136.5" y="-125" font-family="Helvetica,sans-Serif" font-size="10.00">psr_transfer.hpp</text>
</a>
</g>
</g>
<!-- Node12&#45;&gt;Node23 -->
<g id="edge32" class="edge">
<title>Node12&#45;&gt;Node23</title>
<path fill="none" stroke="midnightblue" d="M798.91,-192.84C702.44,-190.55 422.5,-180.88 193.5,-143 187.9,-142.07 182.04,-140.86 176.3,-139.54"/>
<polygon fill="midnightblue" stroke="midnightblue" points="176.72,-136.04 166.18,-137.07 175.06,-142.84 176.72,-136.04"/>
</g>
<!-- Node24 -->
<g id="node24" class="node">
<title>Node24</title>
<g id="a_node24"><a xlink:href="cps_8hpp.html" target="_top" xlink:title="This file defines a change processor state instruction (CPS).">
<polygon fill="none" stroke="black" points="202.5,-118 202.5,-137 256.5,-137 256.5,-118 202.5,-118"/>
<text text-anchor="middle" x="229.5" y="-125" font-family="Helvetica,sans-Serif" font-size="10.00">cps.hpp</text>
</a>
</g>
</g>
<!-- Node12&#45;&gt;Node24 -->
<g id="edge34" class="edge">
<title>Node12&#45;&gt;Node24</title>
<path fill="none" stroke="midnightblue" d="M798.68,-193.93C708.95,-194.28 463.08,-190.47 265.5,-143 262.83,-142.36 260.09,-141.55 257.39,-140.65"/>
<polygon fill="midnightblue" stroke="midnightblue" points="258.44,-137.31 247.84,-137.1 255.99,-143.87 258.44,-137.31"/>
</g>
<!-- Node25 -->
<g id="node25" class="node">
<title>Node25</title>
<g id="a_node25"><a xlink:href="coprocessor__register__transfer_8hpp.html" target="_top" xlink:title="This file defines a coprocessor register transfer (MRC, MCR).">
<polygon fill="none" stroke="black" points="1796.5,-112.5 1796.5,-142.5 1914.5,-142.5 1914.5,-112.5 1796.5,-112.5"/>
<text text-anchor="start" x="1804.5" y="-130.5" font-family="Helvetica,sans-Serif" font-size="10.00">coprocessor_register</text>
<text text-anchor="middle" x="1855.5" y="-119.5" font-family="Helvetica,sans-Serif" font-size="10.00">_transfer.hpp</text>
</a>
</g>
</g>
<!-- Node12&#45;&gt;Node25 -->
<g id="edge36" class="edge">
<title>Node12&#45;&gt;Node25</title>
<path fill="none" stroke="midnightblue" d="M868.29,-193.59C992,-193.49 1422.13,-189.69 1786.19,-142.87"/>
<polygon fill="midnightblue" stroke="midnightblue" points="1786.67,-146.34 1796.13,-141.58 1785.76,-139.4 1786.67,-146.34"/>
</g>
<!-- Node26 -->
<g id="node26" class="node">
<title>Node26</title>
<g id="a_node26"><a xlink:href="coprocessor__data__transfer_8hpp.html" target="_top" xlink:title="This file defines a coprocessor data transfer (LDC, STC).">
<polygon fill="none" stroke="black" points="1932.5,-118 1932.5,-137 2098.5,-137 2098.5,-118 1932.5,-118"/>
<text text-anchor="middle" x="2015.5" y="-125" font-family="Helvetica,sans-Serif" font-size="10.00">coprocessor_data_transfer.hpp</text>
</a>
</g>
</g>
<!-- Node12&#45;&gt;Node26 -->
<g id="edge38" class="edge">
<title>Node12&#45;&gt;Node26</title>
<path fill="none" stroke="midnightblue" d="M868.43,-193.28C1004.2,-192.12 1509.81,-185.05 1923.5,-143 1934.58,-141.87 1946.37,-140.3 1957.67,-138.61"/>
<polygon fill="midnightblue" stroke="midnightblue" points="1958.53,-142.02 1967.88,-137.03 1957.46,-135.1 1958.53,-142.02"/>
</g>
<!-- Node27 -->
<g id="node27" class="node">
<title>Node27</title>
<g id="a_node27"><a xlink:href="coprocessor__data__operation_8hpp.html" target="_top" xlink:title="This file defines a coprocessor data operation (CDP).">
<polygon fill="none" stroke="black" points="1603,-118 1603,-137 1778,-137 1778,-118 1603,-118"/>
<text text-anchor="middle" x="1690.5" y="-125" font-family="Helvetica,sans-Serif" font-size="10.00">coprocessor_data_operation.hpp</text>
</a>
</g>
</g>
<!-- Node12&#45;&gt;Node27 -->
<g id="edge40" class="edge">
<title>Node12&#45;&gt;Node27</title>
<path fill="none" stroke="midnightblue" d="M868.05,-192.21C975.69,-187.99 1314.45,-173.08 1593.5,-143 1604.96,-141.77 1617.14,-140.17 1628.85,-138.49"/>
<polygon fill="midnightblue" stroke="midnightblue" points="1629.62,-141.92 1639,-137 1628.6,-134.99 1629.62,-141.92"/>
</g>
<!-- Node28 -->
<g id="node28" class="node">
<title>Node28</title>
<g id="a_node28"><a xlink:href="srs_8hpp.html" target="_top" xlink:title=" ">
<polygon fill="none" stroke="black" points="274.5,-118 274.5,-137 326.5,-137 326.5,-118 274.5,-118"/>
<text text-anchor="middle" x="300.5" y="-125" font-family="Helvetica,sans-Serif" font-size="10.00">srs.hpp</text>
</a>
</g>
</g>
<!-- Node12&#45;&gt;Node28 -->
<g id="edge42" class="edge">
<title>Node12&#45;&gt;Node28</title>
<path fill="none" stroke="midnightblue" d="M798.79,-193.43C716.85,-192.53 505.51,-185.85 335.5,-143 332.99,-142.37 330.42,-141.59 327.88,-140.72"/>
<polygon fill="midnightblue" stroke="midnightblue" points="328.91,-137.37 318.32,-137.06 326.41,-143.9 328.91,-137.37"/>
</g>
<!-- Node29 -->
<g id="node29" class="node">
<title>Node29</title>
<g id="a_node29"><a xlink:href="rfe_8hpp.html" target="_top" xlink:title=" ">
<polygon fill="none" stroke="black" points="345,-118 345,-137 396,-137 396,-118 345,-118"/>
<text text-anchor="middle" x="370.5" y="-125" font-family="Helvetica,sans-Serif" font-size="10.00">rfe.hpp</text>
</a>
</g>
</g>
<!-- Node12&#45;&gt;Node29 -->
<g id="edge44" class="edge">
<title>Node12&#45;&gt;Node29</title>
<path fill="none" stroke="midnightblue" d="M798.95,-192.76C725.25,-190.47 547.63,-181.1 404.5,-143 402.15,-142.37 399.74,-141.61 397.35,-140.77"/>
<polygon fill="midnightblue" stroke="midnightblue" points="398.39,-137.42 387.81,-137.01 395.83,-143.93 398.39,-137.42"/>
</g>
<!-- Node30 -->
<g id="node30" class="node">
<title>Node30</title>
<g id="a_node30"><a xlink:href="clz_8hpp.html" target="_top" xlink:title="This file defines a count leading zeros instruction (CLZ).">
<polygon fill="none" stroke="black" points="414,-118 414,-137 465,-137 465,-118 414,-118"/>
<text text-anchor="middle" x="439.5" y="-125" font-family="Helvetica,sans-Serif" font-size="10.00">clz.hpp</text>
</a>
</g>
</g>
<!-- Node12&#45;&gt;Node30 -->
<g id="edge46" class="edge">
<title>Node12&#45;&gt;Node30</title>
<path fill="none" stroke="midnightblue" d="M798.87,-190.94C734.98,-185.7 594.54,-171.73 479.5,-143 476.45,-142.24 473.3,-141.33 470.18,-140.34"/>
<polygon fill="midnightblue" stroke="midnightblue" points="471.02,-136.93 460.42,-137 468.75,-143.55 471.02,-136.93"/>
</g>
<!-- Node14&#45;&gt;Node13 -->
<g id="edge15" class="edge">
<title>Node14&#45;&gt;Node13</title>
<path fill="none" stroke="midnightblue" d="M628.74,-117.98C671.07,-107.44 743.18,-89.49 789.55,-77.94"/>
<polygon fill="midnightblue" stroke="midnightblue" points="790.46,-81.32 799.32,-75.51 788.77,-74.53 790.46,-81.32"/>
</g>
<!-- Node15&#45;&gt;Node13 -->
<g id="edge17" class="edge">
<title>Node15&#45;&gt;Node13</title>
<path fill="none" stroke="midnightblue" d="M737.55,-117.98C756.09,-108.12 786.84,-91.79 808.52,-80.27"/>
<polygon fill="midnightblue" stroke="midnightblue" points="810.29,-83.29 817.48,-75.51 807.01,-77.11 810.29,-83.29"/>
</g>
<!-- Node16&#45;&gt;Node13 -->
<g id="edge19" class="edge">
<title>Node16&#45;&gt;Node13</title>
<path fill="none" stroke="midnightblue" d="M833.5,-117.98C833.5,-109.58 833.5,-96.48 833.5,-85.66"/>
<polygon fill="midnightblue" stroke="midnightblue" points="837,-85.51 833.5,-75.51 830,-85.51 837,-85.51"/>
</g>
<!-- Node17&#45;&gt;Node13 -->
<g id="edge21" class="edge">
<title>Node17&#45;&gt;Node13</title>
<path fill="none" stroke="midnightblue" d="M932.02,-117.98C912.89,-108.08 881.13,-91.64 858.85,-80.12"/>
<polygon fill="midnightblue" stroke="midnightblue" points="860.44,-77 849.95,-75.51 857.22,-83.21 860.44,-77"/>
</g>
<!-- Node18&#45;&gt;Node13 -->
<g id="edge23" class="edge">
<title>Node18&#45;&gt;Node13</title>
<path fill="none" stroke="midnightblue" d="M1025.41,-117.98C985.9,-107.48 918.72,-89.64 875.24,-78.09"/>
<polygon fill="midnightblue" stroke="midnightblue" points="876.1,-74.69 865.53,-75.51 874.3,-81.46 876.1,-74.69"/>
</g>
<!-- Node19&#45;&gt;Node13 -->
<g id="edge25" class="edge">
<title>Node19&#45;&gt;Node13</title>
<path fill="none" stroke="midnightblue" d="M1151.58,-117.93C1140.76,-115.93 1129.22,-113.84 1118.5,-112 1038.63,-98.27 945.88,-83.92 888.44,-75.22"/>
<polygon fill="midnightblue" stroke="midnightblue" points="888.89,-71.75 878.48,-73.72 887.85,-78.67 888.89,-71.75"/>
</g>
<!-- Node20&#45;&gt;Node13 -->
<g id="edge27" class="edge">
<title>Node20&#45;&gt;Node13</title>
<path fill="none" stroke="midnightblue" d="M1308.65,-117.96C1297.28,-115.82 1284.94,-113.66 1273.5,-112 1135.44,-91.98 971.74,-77.71 888.32,-71.11"/>
<polygon fill="midnightblue" stroke="midnightblue" points="888.55,-67.62 878.31,-70.33 888.01,-74.6 888.55,-67.62"/>
</g>
<!-- Node21&#45;&gt;Node13 -->
<g id="edge29" class="edge">
<title>Node21&#45;&gt;Node13</title>
<path fill="none" stroke="midnightblue" d="M1465.72,-117.96C1453.07,-115.77 1439.28,-113.58 1426.5,-112 1229.17,-87.54 993.13,-74.41 888.31,-69.41"/>
<polygon fill="midnightblue" stroke="midnightblue" points="888.43,-65.91 878.28,-68.94 888.1,-72.91 888.43,-65.91"/>
</g>
<!-- Node22&#45;&gt;Node13 -->
<g id="edge31" class="edge">
<title>Node22&#45;&gt;Node13</title>
<path fill="none" stroke="midnightblue" d="M57.59,-117.98C64.51,-115.65 72.23,-113.39 79.5,-112 213.62,-86.35 628.49,-72.65 778.59,-68.44"/>
<polygon fill="midnightblue" stroke="midnightblue" points="779.03,-71.92 788.93,-68.15 778.84,-64.93 779.03,-71.92"/>
</g>
<!-- Node23&#45;&gt;Node13 -->
<g id="edge33" class="edge">
<title>Node23&#45;&gt;Node13</title>
<path fill="none" stroke="midnightblue" d="M165.87,-117.96C174.69,-115.69 184.43,-113.46 193.5,-112 408.16,-77.43 667.57,-69.42 778.68,-67.56"/>
<polygon fill="midnightblue" stroke="midnightblue" points="779.02,-71.06 788.96,-67.4 778.91,-64.06 779.02,-71.06"/>
</g>
<!-- Node24&#45;&gt;Node13 -->
<g id="edge35" class="edge">
<title>Node24&#45;&gt;Node13</title>
<path fill="none" stroke="midnightblue" d="M247.83,-117.87C253.39,-115.59 259.6,-113.39 265.5,-112 361.99,-89.31 655.5,-74.57 778.43,-69.23"/>
<polygon fill="midnightblue" stroke="midnightblue" points="778.89,-72.72 788.73,-68.79 778.59,-65.72 778.89,-72.72"/>
</g>
<!-- Node25&#45;&gt;Node13 -->
<g id="edge37" class="edge">
<title>Node25&#45;&gt;Node13</title>
<path fill="none" stroke="midnightblue" d="M1796.14,-113.4C1792.88,-112.87 1789.66,-112.4 1786.5,-112 1447.15,-68.62 1035.04,-65.94 888.47,-66.53"/>
<polygon fill="midnightblue" stroke="midnightblue" points="888.36,-63.03 878.38,-66.58 888.39,-70.03 888.36,-63.03"/>
</g>
<!-- Node26&#45;&gt;Node13 -->
<g id="edge39" class="edge">
<title>Node26&#45;&gt;Node13</title>
<path fill="none" stroke="midnightblue" d="M1967.88,-117.93C1953.65,-115.65 1937.98,-113.44 1923.5,-112 1527.68,-72.77 1047.72,-67.62 888.06,-67.04"/>
<polygon fill="midnightblue" stroke="midnightblue" points="888.03,-63.54 878.01,-67 888,-70.54 888.03,-63.54"/>
</g>
<!-- Node27&#45;&gt;Node13 -->
<g id="edge41" class="edge">
<title>Node27&#45;&gt;Node13</title>
<path fill="none" stroke="midnightblue" d="M1639.26,-117.97C1624.52,-115.75 1608.4,-113.55 1593.5,-112 1330.09,-84.57 1013.44,-72.51 888.26,-68.57"/>
<polygon fill="midnightblue" stroke="midnightblue" points="888.26,-65.06 878.16,-68.25 888.04,-72.06 888.26,-65.06"/>
</g>
<!-- Node28&#45;&gt;Node13 -->
<g id="edge43" class="edge">
<title>Node28&#45;&gt;Node13</title>
<path fill="none" stroke="midnightblue" d="M318.31,-117.9C323.72,-115.63 329.75,-113.42 335.5,-112 492.96,-73.23 685.78,-67.08 778.52,-66.59"/>
<polygon fill="midnightblue" stroke="midnightblue" points="778.8,-70.09 788.79,-66.55 778.78,-63.09 778.8,-70.09"/>
</g>
<!-- Node29&#45;&gt;Node13 -->
<g id="edge45" class="edge">
<title>Node29&#45;&gt;Node13</title>
<path fill="none" stroke="midnightblue" d="M387.8,-117.95C393.05,-115.67 398.91,-113.45 404.5,-112 535.88,-77.92 696.27,-69.54 778.73,-67.55"/>
<polygon fill="midnightblue" stroke="midnightblue" points="778.96,-71.05 788.88,-67.33 778.8,-64.05 778.96,-71.05"/>
</g>
<!-- Node30&#45;&gt;Node13 -->
<g id="edge47" class="edge">
<title>Node30&#45;&gt;Node13</title>
<path fill="none" stroke="midnightblue" d="M460.41,-117.93C466.48,-115.72 473.18,-113.53 479.5,-112 583.46,-86.88 708.2,-75.17 778.41,-70.22"/>
<polygon fill="midnightblue" stroke="midnightblue" points="779.04,-73.68 788.78,-69.5 778.56,-66.7 779.04,-73.68"/>
</g>
<!-- Node31&#45;&gt;Node7 -->
<g id="edge50" class="edge">
<title>Node31&#45;&gt;Node7</title>
<path fill="none" stroke="midnightblue" d="M2732.96,-184.83C2741.99,-169.28 2757.79,-136.03 2744.5,-112 2717.82,-63.76 2657.39,-35.47 2618.63,-21.63"/>
<polygon fill="midnightblue" stroke="midnightblue" points="2619.39,-18.19 2608.79,-18.27 2617.12,-24.82 2619.39,-18.19"/>
</g>
<!-- Node31&#45;&gt;Node13 -->
<g id="edge51" class="edge">
<title>Node31&#45;&gt;Node13</title>
<path fill="none" stroke="midnightblue" d="M2730.62,-184.89C2736.06,-168.2 2744.92,-131.41 2725.5,-112 2692.14,-78.67 1196.05,-68.92 888.44,-67.27"/>
<polygon fill="midnightblue" stroke="midnightblue" points="888.02,-63.77 878,-67.22 887.98,-70.77 888.02,-63.77"/>
</g>
<!-- Node32 -->
<g id="node32" class="node">
<title>Node32</title>
<g id="a_node32"><a xlink:title=" ">
<polygon fill="none" stroke="#bfbfbf" points="2674.5,-118 2674.5,-137 2716.5,-137 2716.5,-118 2674.5,-118"/>
<text text-anchor="middle" x="2695.5" y="-125" font-family="Helvetica,sans-Serif" font-size="10.00">array</text>
</a>
</g>
</g>
<!-- Node31&#45;&gt;Node32 -->
<g id="edge49" class="edge">
<title>Node31&#45;&gt;Node32</title>
<path fill="none" stroke="midnightblue" d="M2723.18,-184.73C2718.34,-174.89 2710.35,-158.66 2704.19,-146.16"/>
<polygon fill="midnightblue" stroke="midnightblue" points="2707.3,-144.55 2699.75,-137.13 2701.02,-147.64 2707.3,-144.55"/>
</g>
<!-- Node33&#45;&gt;Node10 -->
<g id="edge65" class="edge">
<title>Node33&#45;&gt;Node10</title>
<path fill="none" stroke="midnightblue" d="M2390.49,-313.48C2388.5,-304.99 2385.37,-291.7 2382.81,-280.82"/>
<polygon fill="midnightblue" stroke="midnightblue" points="2386.2,-279.94 2380.5,-271.01 2379.39,-281.54 2386.2,-279.94"/>
</g>
<!-- Node34 -->
<g id="node34" class="node">
<title>Node34</title>
<g id="a_node34"><a xlink:href="cp15_8hpp.html" target="_top" xlink:title=" ">
<polygon fill="none" stroke="black" points="2186.5,-252 2186.5,-271 2314.5,-271 2314.5,-252 2186.5,-252"/>
<text text-anchor="middle" x="2250.5" y="-259" font-family="Helvetica,sans-Serif" font-size="10.00">coprocessors/cp15.hpp</text>
</a>
</g>
</g>
<!-- Node33&#45;&gt;Node34 -->
<g id="edge53" class="edge">
<title>Node33&#45;&gt;Node34</title>
<path fill="none" stroke="midnightblue" d="M2372.15,-313.48C2348.11,-303.4 2307.9,-286.55 2280.34,-275"/>
<polygon fill="midnightblue" stroke="midnightblue" points="2281.38,-271.65 2270.81,-271.01 2278.68,-278.1 2281.38,-271.65"/>
</g>
<!-- Node37 -->
<g id="node37" class="node">
<title>Node37</title>
<g id="a_node37"><a xlink:href="peripheral_8hpp.html" target="_top" xlink:title=" ">
<polygon fill="none" stroke="black" points="2511,-118 2511,-137 2656,-137 2656,-118 2511,-118"/>
<text text-anchor="middle" x="2583.5" y="-125" font-family="Helvetica,sans-Serif" font-size="10.00">peripherals/peripheral.hpp</text>
</a>
</g>
</g>
<!-- Node33&#45;&gt;Node37 -->
<g id="edge63" class="edge">
<title>Node33&#45;&gt;Node37</title>
<path fill="none" stroke="midnightblue" d="M2424.74,-316.68C2475.7,-306.33 2573.42,-278.22 2615.5,-210 2628.41,-189.07 2612.22,-162.04 2598.56,-144.98"/>
<polygon fill="midnightblue" stroke="midnightblue" points="2600.96,-142.4 2591.81,-137.06 2595.63,-146.94 2600.96,-142.4"/>
</g>
<!-- Node34&#45;&gt;Node3 -->
<g id="edge62" class="edge">
<title>Node34&#45;&gt;Node3</title>
<path fill="none" stroke="midnightblue" d="M2250.06,-251.94C2248.55,-222.79 2243.6,-126.97 2241.48,-85.93"/>
<polygon fill="midnightblue" stroke="midnightblue" points="2244.97,-85.71 2240.96,-75.91 2237.98,-86.07 2244.97,-85.71"/>
</g>
<!-- Node34&#45;&gt;Node5 -->
<g id="edge54" class="edge">
<title>Node34&#45;&gt;Node5</title>
<path fill="none" stroke="midnightblue" d="M2245.51,-251.91C2224.64,-216 2144.12,-77.44 2115.59,-28.36"/>
<polygon fill="midnightblue" stroke="midnightblue" points="2118.52,-26.44 2110.47,-19.55 2112.47,-29.96 2118.52,-26.44"/>
</g>
<!-- Node35 -->
<g id="node35" class="node">
<title>Node35</title>
<g id="a_node35"><a xlink:title=" ">
<polygon fill="none" stroke="#bfbfbf" points="2361,-118 2361,-137 2454,-137 2454,-118 2361,-118"/>
<text text-anchor="middle" x="2407.5" y="-125" font-family="Helvetica,sans-Serif" font-size="10.00">unordered_map</text>
</a>
</g>
</g>
<!-- Node34&#45;&gt;Node35 -->
<g id="edge55" class="edge">
<title>Node34&#45;&gt;Node35</title>
<path fill="none" stroke="midnightblue" d="M2258.68,-251.99C2273.56,-236.7 2306.32,-203.83 2336.5,-179 2352.31,-165.99 2371.25,-152.62 2385.59,-142.91"/>
<polygon fill="midnightblue" stroke="midnightblue" points="2387.91,-145.57 2394.27,-137.1 2384.01,-139.75 2387.91,-145.57"/>
</g>
<!-- Node36 -->
<g id="node36" class="node">
<title>Node36</title>
<g id="a_node36"><a xlink:href="coprocessor_8hpp.html" target="_top" xlink:title=" ">
<polygon fill="none" stroke="black" points="2001,-185 2001,-204 2096,-204 2096,-185 2001,-185"/>
<text text-anchor="middle" x="2048.5" y="-192" font-family="Helvetica,sans-Serif" font-size="10.00">coprocessor.hpp</text>
</a>
</g>
</g>
<!-- Node34&#45;&gt;Node36 -->
<g id="edge56" class="edge">
<title>Node34&#45;&gt;Node36</title>
<path fill="none" stroke="midnightblue" d="M2223.68,-251.87C2187.96,-240.38 2124.66,-220.01 2084.73,-207.16"/>
<polygon fill="midnightblue" stroke="midnightblue" points="2085.7,-203.8 2075.11,-204.06 2083.56,-210.46 2085.7,-203.8"/>
</g>
<!-- Node36&#45;&gt;Node2 -->
<g id="edge58" class="edge">
<title>Node36&#45;&gt;Node2</title>
<path fill="none" stroke="midnightblue" d="M2082.36,-184.94C2128.49,-173.27 2211.13,-152.37 2261.86,-139.54"/>
<polygon fill="midnightblue" stroke="midnightblue" points="2262.73,-142.93 2271.56,-137.08 2261.01,-136.14 2262.73,-142.93"/>
</g>
<!-- Node36&#45;&gt;Node7 -->
<g id="edge57" class="edge">
<title>Node36&#45;&gt;Node7</title>
<path fill="none" stroke="midnightblue" d="M2069.29,-184.94C2106.94,-169.56 2189.05,-136.56 2259.5,-112 2363.64,-75.7 2488.7,-38.49 2548.41,-21.11"/>
<polygon fill="midnightblue" stroke="midnightblue" points="2549.48,-24.44 2558.11,-18.29 2547.53,-17.72 2549.48,-24.44"/>
</g>
<!-- Node36&#45;&gt;Node25 -->
<g id="edge59" class="edge">
<title>Node36&#45;&gt;Node25</title>
<path fill="none" stroke="midnightblue" d="M2022.87,-184.87C1993.41,-174.95 1944.31,-158.41 1906.88,-145.81"/>
<polygon fill="midnightblue" stroke="midnightblue" points="1907.75,-142.4 1897.15,-142.53 1905.51,-149.04 1907.75,-142.4"/>
</g>
<!-- Node36&#45;&gt;Node26 -->
<g id="edge60" class="edge">
<title>Node36&#45;&gt;Node26</title>
<path fill="none" stroke="midnightblue" d="M2044.05,-184.73C2039.05,-174.89 2030.81,-158.66 2024.47,-146.16"/>
<polygon fill="midnightblue" stroke="midnightblue" points="2027.53,-144.46 2019.88,-137.13 2021.29,-147.63 2027.53,-144.46"/>
</g>
<!-- Node36&#45;&gt;Node27 -->
<g id="edge61" class="edge">
<title>Node36&#45;&gt;Node27</title>
<path fill="none" stroke="midnightblue" d="M2001.33,-184.94C1935.91,-173.06 1817.77,-151.61 1747.5,-138.85"/>
<polygon fill="midnightblue" stroke="midnightblue" points="1747.95,-135.37 1737.49,-137.03 1746.7,-142.26 1747.95,-135.37"/>
</g>
<!-- Node37&#45;&gt;Node7 -->
<g id="edge64" class="edge">
<title>Node37&#45;&gt;Node7</title>
<path fill="none" stroke="midnightblue" d="M2583.5,-117.82C2583.5,-99.26 2583.5,-55.34 2583.5,-29.97"/>
<polygon fill="midnightblue" stroke="midnightblue" points="2587,-29.78 2583.5,-19.78 2580,-29.78 2587,-29.78"/>
</g>
<!-- Node39&#45;&gt;Node2 -->
<g id="edge72" class="edge">
<title>Node39&#45;&gt;Node2</title>
<path fill="none" stroke="midnightblue" d="M2487.76,-179.4C2449.58,-169.59 2397.84,-155.98 2352.5,-143 2349.3,-142.08 2345.98,-141.11 2342.66,-140.12"/>
<polygon fill="midnightblue" stroke="midnightblue" points="2343.37,-136.67 2332.78,-137.12 2341.34,-143.37 2343.37,-136.67"/>
</g>
<!-- Node39&#45;&gt;Node3 -->
<g id="edge73" class="edge">
<title>Node39&#45;&gt;Node3</title>
<path fill="none" stroke="midnightblue" d="M2531.29,-179.16C2513.1,-158.17 2479.36,-120.6 2463.5,-112 2418.79,-87.76 2362.65,-76.52 2317.87,-71.33"/>
<polygon fill="midnightblue" stroke="midnightblue" points="2318.24,-67.85 2307.92,-70.26 2317.49,-74.81 2318.24,-67.85"/>
</g>
<!-- Node39&#45;&gt;Node32 -->
<g id="edge69" class="edge">
<title>Node39&#45;&gt;Node32</title>
<path fill="none" stroke="midnightblue" d="M2578.97,-179.45C2603.44,-169.6 2636.63,-155.94 2665.5,-143 2666.66,-142.48 2667.84,-141.94 2669.03,-141.4"/>
<polygon fill="midnightblue" stroke="midnightblue" points="2670.58,-144.54 2678.13,-137.11 2667.59,-138.2 2670.58,-144.54"/>
</g>
<!-- Node39&#45;&gt;Node35 -->
<g id="edge70" class="edge">
<title>Node39&#45;&gt;Node35</title>
<path fill="none" stroke="midnightblue" d="M2513.99,-179.4C2490.34,-168.09 2457.42,-152.36 2434.47,-141.39"/>
<polygon fill="midnightblue" stroke="midnightblue" points="2435.83,-138.16 2425.3,-137.01 2432.81,-144.48 2435.83,-138.16"/>
</g>
<!-- Node39&#45;&gt;Node37 -->
<g id="edge71" class="edge">
<title>Node39&#45;&gt;Node37</title>
<path fill="none" stroke="midnightblue" d="M2552.18,-179.4C2558.23,-169.56 2566.34,-156.38 2572.8,-145.89"/>
<polygon fill="midnightblue" stroke="midnightblue" points="2575.89,-147.55 2578.15,-137.19 2569.93,-143.88 2575.89,-147.55"/>
</g>
<!-- Node40&#45;&gt;Node7 -->
<g id="edge75" class="edge">
<title>Node40&#45;&gt;Node7</title>
<path fill="none" stroke="midnightblue" d="M2813.38,-246.35C2806.86,-208.26 2783.33,-103.26 2716.5,-56 2686.99,-35.13 2647.04,-23.34 2618.65,-17.11"/>
<polygon fill="midnightblue" stroke="midnightblue" points="2619.25,-13.66 2608.75,-15.06 2617.83,-20.52 2619.25,-13.66"/>
</g>
</g>
</svg>
