<?xml version="1.0" encoding="UTF-8" standalone="no"?>
<!DOCTYPE svg PUBLIC "-//W3C//DTD SVG 1.1//EN"
 "http://www.w3.org/Graphics/SVG/1.1/DTD/svg11.dtd">
<!-- Generated by graphviz version 2.43.0 (0)
 -->
<!-- Title: src/core/arm1176jzf_s/core.hpp Pages: 1 -->
<svg width="2439pt" height="341pt"
 viewBox="0.00 0.00 2438.59 341.00" xmlns="http://www.w3.org/2000/svg" xmlns:xlink="http://www.w3.org/1999/xlink">
<g id="graph0" class="graph" transform="scale(1 1) rotate(0) translate(4 337)">
<title>src/core/arm1176jzf_s/core.hpp</title>
<!-- Node1 -->
<g id="node1" class="node">
<title>Node1</title>
<g id="a_node1"><a xlink:title="This file defines a class that represents a CPU core (arm1176jzf_s).">
<polygon fill="#bfbfbf" stroke="black" points="323.5,-302.5 323.5,-332.5 436.5,-332.5 436.5,-302.5 323.5,-302.5"/>
<text text-anchor="start" x="331.5" y="-320.5" font-family="Helvetica,sans-Serif" font-size="10.00">src/core/arm1176jzf</text>
<text text-anchor="middle" x="380" y="-309.5" font-family="Helvetica,sans-Serif" font-size="10.00">_s/core.hpp</text>
</a>
</g>
</g>
<!-- Node2 -->
<g id="node2" class="node">
<title>Node2</title>
<g id="a_node2"><a xlink:href="context_8hpp.html" target="_top" xlink:title="This file defines the context (registers) of the CPU.">
<polygon fill="none" stroke="black" points="175,-62 175,-81 249,-81 249,-62 175,-62"/>
<text text-anchor="middle" x="212" y="-69" font-family="Helvetica,sans-Serif" font-size="10.00">context.hpp</text>
</a>
</g>
</g>
<!-- Node1&#45;&gt;Node2 -->
<g id="edge1" class="edge">
<title>Node1&#45;&gt;Node2</title>
<path fill="none" stroke="midnightblue" d="M323.36,-312.29C280.13,-306.86 220.61,-294.44 176,-266 143.75,-245.44 142.2,-231.47 122,-199 103.14,-168.69 76.43,-152.86 96,-123 111.3,-99.65 140.01,-87.03 165.04,-80.25"/>
<polygon fill="midnightblue" stroke="midnightblue" points="165.9,-83.64 174.77,-77.85 164.23,-76.85 165.9,-83.64"/>
</g>
<!-- Node3 -->
<g id="node3" class="node">
<title>Node3</title>
<g id="a_node3"><a xlink:href="logger_8hpp.html" target="_top" xlink:title=" ">
<polygon fill="none" stroke="black" points="77,-0.5 77,-19.5 211,-19.5 211,-0.5 77,-0.5"/>
<text text-anchor="middle" x="144" y="-7.5" font-family="Helvetica,sans-Serif" font-size="10.00">../utils/logger/logger.hpp</text>
</a>
</g>
</g>
<!-- Node1&#45;&gt;Node3 -->
<g id="edge55" class="edge">
<title>Node1&#45;&gt;Node3</title>
<path fill="none" stroke="midnightblue" d="M323.11,-309.59C217.1,-295.12 0,-257.27 0,-190 0,-190 0,-190 0,-132 0,-75.65 65.43,-40.29 108.08,-23.23"/>
<polygon fill="midnightblue" stroke="midnightblue" points="109.51,-26.43 117.59,-19.57 107,-19.89 109.51,-26.43"/>
</g>
<!-- Node4 -->
<g id="node4" class="node">
<title>Node4</title>
<g id="a_node4"><a xlink:href="exceptions_8hpp.html" target="_top" xlink:title="This file defines all exceptions that can be thrown by the CPU during execution.">
<polygon fill="none" stroke="black" points="130.5,-179.5 130.5,-198.5 221.5,-198.5 221.5,-179.5 130.5,-179.5"/>
<text text-anchor="middle" x="176" y="-186.5" font-family="Helvetica,sans-Serif" font-size="10.00">exceptions.hpp</text>
</a>
</g>
</g>
<!-- Node1&#45;&gt;Node4 -->
<g id="edge3" class="edge">
<title>Node1&#45;&gt;Node4</title>
<path fill="none" stroke="midnightblue" d="M323.15,-315.31C282.45,-311.4 229.2,-299.55 196,-266 181.11,-250.95 176.92,-226.22 175.93,-209.07"/>
<polygon fill="midnightblue" stroke="midnightblue" points="179.42,-208.54 175.67,-198.63 172.42,-208.71 179.42,-208.54"/>
</g>
<!-- Node6 -->
<g id="node6" class="node">
<title>Node6</title>
<g id="a_node6"><a xlink:href="isa_8hpp.html" target="_top" xlink:title="This file is just a helper file for including all ARM instructions supported by the emulator.">
<polygon fill="none" stroke="black" points="1236.5,-123.5 1236.5,-142.5 1305.5,-142.5 1305.5,-123.5 1236.5,-123.5"/>
<text text-anchor="middle" x="1271" y="-130.5" font-family="Helvetica,sans-Serif" font-size="10.00">isa/isa.hpp</text>
</a>
</g>
</g>
<!-- Node1&#45;&gt;Node6 -->
<g id="edge6" class="edge">
<title>Node1&#45;&gt;Node6</title>
<path fill="none" stroke="midnightblue" d="M413.6,-302.47C458.19,-284.37 539.73,-253.07 612,-235 839.12,-178.23 1118.73,-148.12 1226.1,-137.98"/>
<polygon fill="midnightblue" stroke="midnightblue" points="1226.62,-141.44 1236.25,-137.03 1225.97,-134.48 1226.62,-141.44"/>
</g>
<!-- Node25 -->
<g id="node25" class="node">
<title>Node25</title>
<g id="a_node25"><a xlink:href="isa__decoder_8hpp.html" target="_top" xlink:title="This file defines an instruction decoder.">
<polygon fill="none" stroke="black" points="1503.5,-179.5 1503.5,-198.5 1616.5,-198.5 1616.5,-179.5 1503.5,-179.5"/>
<text text-anchor="middle" x="1560" y="-186.5" font-family="Helvetica,sans-Serif" font-size="10.00">isa/isa_decoder.hpp</text>
</a>
</g>
</g>
<!-- Node1&#45;&gt;Node25 -->
<g id="edge42" class="edge">
<title>Node1&#45;&gt;Node25</title>
<path fill="none" stroke="midnightblue" d="M436.86,-310.71C485.12,-304.28 555.34,-291.27 612,-266 633.52,-256.4 632.77,-242.79 655,-235 733.3,-207.55 1297.2,-194.78 1493.13,-191.14"/>
<polygon fill="midnightblue" stroke="midnightblue" points="1493.35,-194.64 1503.29,-190.95 1493.23,-187.64 1493.35,-194.64"/>
</g>
<!-- Node26 -->
<g id="node26" class="node">
<title>Node26</title>
<g id="a_node26"><a xlink:href="bus_8hpp.html" target="_top" xlink:title="This file defines an interface the CPU uses to access different memory&#45;mapped peripherals.">
<polygon fill="none" stroke="black" points="348,-241 348,-260 412,-260 412,-241 348,-241"/>
<text text-anchor="middle" x="380" y="-248" font-family="Helvetica,sans-Serif" font-size="10.00">../bus.hpp</text>
</a>
</g>
</g>
<!-- Node1&#45;&gt;Node26 -->
<g id="edge44" class="edge">
<title>Node1&#45;&gt;Node26</title>
<path fill="none" stroke="midnightblue" d="M380,-302.4C380,-293.06 380,-280.71 380,-270.52"/>
<polygon fill="midnightblue" stroke="midnightblue" points="383.5,-270.19 380,-260.19 376.5,-270.19 383.5,-270.19"/>
</g>
<!-- Node30 -->
<g id="node30" class="node">
<title>Node30</title>
<g id="a_node30"><a xlink:href="math_8hpp.html" target="_top" xlink:title="This file defines and implements a variety of handy helper functions that are used throughout the pro...">
<polygon fill="none" stroke="black" points="664,-241 664,-260 760,-260 760,-241 664,-241"/>
<text text-anchor="middle" x="712" y="-248" font-family="Helvetica,sans-Serif" font-size="10.00">../utils/math.hpp</text>
</a>
</g>
</g>
<!-- Node1&#45;&gt;Node30 -->
<g id="edge54" class="edge">
<title>Node1&#45;&gt;Node30</title>
<path fill="none" stroke="midnightblue" d="M436.51,-306.69C491.24,-297.01 576.5,-281.46 650,-266 655.41,-264.86 661.07,-263.62 666.68,-262.35"/>
<polygon fill="midnightblue" stroke="midnightblue" points="667.69,-265.71 676.65,-260.06 666.12,-258.88 667.69,-265.71"/>
</g>
<!-- Node31 -->
<g id="node31" class="node">
<title>Node31</title>
<g id="a_node31"><a xlink:href="interrupt__controller_8hpp.html" target="_top" xlink:title="This file defines the interrupt controller used in BCM2835.">
<polygon fill="none" stroke="black" points="204.5,-235.5 204.5,-265.5 329.5,-265.5 329.5,-235.5 204.5,-235.5"/>
<text text-anchor="start" x="212.5" y="-253.5" font-family="Helvetica,sans-Serif" font-size="10.00">../peripherals/interrupt</text>
<text text-anchor="middle" x="267" y="-242.5" font-family="Helvetica,sans-Serif" font-size="10.00">_controller.hpp</text>
</a>
</g>
</g>
<!-- Node1&#45;&gt;Node31 -->
<g id="edge56" class="edge">
<title>Node1&#45;&gt;Node31</title>
<path fill="none" stroke="midnightblue" d="M355.48,-302.4C339.34,-293.11 318.01,-280.84 300.33,-270.67"/>
<polygon fill="midnightblue" stroke="midnightblue" points="301.88,-267.53 291.47,-265.58 298.39,-273.6 301.88,-267.53"/>
</g>
<!-- Node32 -->
<g id="node32" class="node">
<title>Node32</title>
<g id="a_node32"><a xlink:href="system__clock__listener_8hpp.html" target="_top" xlink:title="This file defines an interface for a CPU clock listener.">
<polygon fill="none" stroke="black" points="778.5,-235.5 778.5,-265.5 897.5,-265.5 897.5,-235.5 778.5,-235.5"/>
<text text-anchor="start" x="786.5" y="-253.5" font-family="Helvetica,sans-Serif" font-size="10.00">../peripherals/system</text>
<text text-anchor="middle" x="838" y="-242.5" font-family="Helvetica,sans-Serif" font-size="10.00">_clock_listener.hpp</text>
</a>
</g>
</g>
<!-- Node1&#45;&gt;Node32 -->
<g id="edge60" class="edge">
<title>Node1&#45;&gt;Node32</title>
<path fill="none" stroke="midnightblue" d="M436.57,-310.56C510.47,-302.48 644.06,-286.82 768.16,-266.06"/>
<polygon fill="midnightblue" stroke="midnightblue" points="768.94,-269.48 778.22,-264.36 767.77,-262.57 768.94,-269.48"/>
</g>
<!-- Node2&#45;&gt;Node3 -->
<g id="edge2" class="edge">
<title>Node2&#45;&gt;Node3</title>
<path fill="none" stroke="midnightblue" d="M202.26,-61.98C191.65,-52.7 174.48,-37.67 161.52,-26.33"/>
<polygon fill="midnightblue" stroke="midnightblue" points="163.56,-23.46 153.72,-19.51 158.95,-28.73 163.56,-23.46"/>
</g>
<!-- Node4&#45;&gt;Node2 -->
<g id="edge5" class="edge">
<title>Node4&#45;&gt;Node2</title>
<path fill="none" stroke="midnightblue" d="M179.51,-179.46C183.14,-170.48 188.84,-155.88 193,-143 198.59,-125.68 203.89,-105.6 207.46,-91.32"/>
<polygon fill="midnightblue" stroke="midnightblue" points="210.95,-91.81 209.93,-81.26 204.15,-90.14 210.95,-91.81"/>
</g>
<!-- Node5 -->
<g id="node5" class="node">
<title>Node5</title>
<g id="a_node5"><a xlink:title=" ">
<polygon fill="none" stroke="#bfbfbf" points="104.5,-123.5 104.5,-142.5 183.5,-142.5 183.5,-123.5 104.5,-123.5"/>
<text text-anchor="middle" x="144" y="-130.5" font-family="Helvetica,sans-Serif" font-size="10.00">fmt/format.h</text>
</a>
</g>
</g>
<!-- Node4&#45;&gt;Node5 -->
<g id="edge4" class="edge">
<title>Node4&#45;&gt;Node5</title>
<path fill="none" stroke="midnightblue" d="M170.72,-179.08C166.29,-171.61 159.84,-160.72 154.38,-151.52"/>
<polygon fill="midnightblue" stroke="midnightblue" points="157.29,-149.57 149.19,-142.75 151.27,-153.14 157.29,-149.57"/>
</g>
<!-- Node7 -->
<g id="node7" class="node">
<title>Node7</title>
<g id="a_node7"><a xlink:href="instruction_8hpp.html" target="_top" xlink:title="This file defines the interface of a general ARM instruction.">
<polygon fill="none" stroke="black" points="1338.5,-0.5 1338.5,-19.5 1427.5,-19.5 1427.5,-0.5 1338.5,-0.5"/>
<text text-anchor="middle" x="1383" y="-7.5" font-family="Helvetica,sans-Serif" font-size="10.00">instruction.hpp</text>
</a>
</g>
</g>
<!-- Node6&#45;&gt;Node7 -->
<g id="edge7" class="edge">
<title>Node6&#45;&gt;Node7</title>
<path fill="none" stroke="midnightblue" d="M1236.49,-130.97C1165.07,-127.67 1011.71,-113.83 1062,-56 1095.82,-17.11 1245.57,-10.83 1328.05,-10.41"/>
<polygon fill="midnightblue" stroke="midnightblue" points="1328.25,-13.91 1338.25,-10.39 1328.24,-6.91 1328.25,-13.91"/>
</g>
<!-- Node8 -->
<g id="node8" class="node">
<title>Node8</title>
<g id="a_node8"><a xlink:href="branch__and__exchange_8hpp.html" target="_top" xlink:title="This file defines a branch and exchange instruction (BX).">
<polygon fill="none" stroke="black" points="1071,-62 1071,-81 1217,-81 1217,-62 1071,-62"/>
<text text-anchor="middle" x="1144" y="-69" font-family="Helvetica,sans-Serif" font-size="10.00">branch_and_exchange.hpp</text>
</a>
</g>
</g>
<!-- Node6&#45;&gt;Node8 -->
<g id="edge8" class="edge">
<title>Node6&#45;&gt;Node8</title>
<path fill="none" stroke="midnightblue" d="M1252.8,-123.48C1231.49,-113.49 1195.97,-96.85 1171.34,-85.31"/>
<polygon fill="midnightblue" stroke="midnightblue" points="1172.7,-82.08 1162.16,-81.01 1169.73,-88.42 1172.7,-82.08"/>
</g>
<!-- Node9 -->
<g id="node9" class="node">
<title>Node9</title>
<g id="a_node9"><a xlink:href="branch_8hpp.html" target="_top" xlink:title="This file defines a branch instruction (B, BL).">
<polygon fill="none" stroke="black" points="1235.5,-62 1235.5,-81 1306.5,-81 1306.5,-62 1235.5,-62"/>
<text text-anchor="middle" x="1271" y="-69" font-family="Helvetica,sans-Serif" font-size="10.00">branch.hpp</text>
</a>
</g>
</g>
<!-- Node6&#45;&gt;Node9 -->
<g id="edge10" class="edge">
<title>Node6&#45;&gt;Node9</title>
<path fill="none" stroke="midnightblue" d="M1271,-123.48C1271,-115.08 1271,-101.98 1271,-91.16"/>
<polygon fill="midnightblue" stroke="midnightblue" points="1274.5,-91.01 1271,-81.01 1267.5,-91.01 1274.5,-91.01"/>
</g>
<!-- Node10 -->
<g id="node10" class="node">
<title>Node10</title>
<g id="a_node10"><a xlink:href="data__processing_8hpp.html" target="_top" xlink:title="This file defines a data processing instruction.">
<polygon fill="none" stroke="black" points="1324.5,-62 1324.5,-81 1441.5,-81 1441.5,-62 1324.5,-62"/>
<text text-anchor="middle" x="1383" y="-69" font-family="Helvetica,sans-Serif" font-size="10.00">data_processing.hpp</text>
</a>
</g>
</g>
<!-- Node6&#45;&gt;Node10 -->
<g id="edge12" class="edge">
<title>Node6&#45;&gt;Node10</title>
<path fill="none" stroke="midnightblue" d="M1287.05,-123.48C1305.59,-113.62 1336.34,-97.29 1358.02,-85.77"/>
<polygon fill="midnightblue" stroke="midnightblue" points="1359.79,-88.79 1366.98,-81.01 1356.51,-82.61 1359.79,-88.79"/>
</g>
<!-- Node11 -->
<g id="node11" class="node">
<title>Node11</title>
<g id="a_node11"><a xlink:href="multiply_8hpp.html" target="_top" xlink:title="This file defines a multiplication instruction (MUL, MLA).">
<polygon fill="none" stroke="black" points="1459.5,-62 1459.5,-81 1536.5,-81 1536.5,-62 1459.5,-62"/>
<text text-anchor="middle" x="1498" y="-69" font-family="Helvetica,sans-Serif" font-size="10.00">multiply.hpp</text>
</a>
</g>
</g>
<!-- Node6&#45;&gt;Node11 -->
<g id="edge14" class="edge">
<title>Node6&#45;&gt;Node11</title>
<path fill="none" stroke="midnightblue" d="M1305.65,-123.93C1342.01,-115.32 1400.74,-101.03 1451,-87 1454.39,-86.05 1457.91,-85.04 1461.43,-83.99"/>
<polygon fill="midnightblue" stroke="midnightblue" points="1462.67,-87.28 1471.23,-81.03 1460.65,-80.57 1462.67,-87.28"/>
</g>
<!-- Node12 -->
<g id="node12" class="node">
<title>Node12</title>
<g id="a_node12"><a xlink:href="multiply__long_8hpp.html" target="_top" xlink:title="This file defines a multiplication (long) instruction.">
<polygon fill="none" stroke="black" points="1555,-62 1555,-81 1659,-81 1659,-62 1555,-62"/>
<text text-anchor="middle" x="1607" y="-69" font-family="Helvetica,sans-Serif" font-size="10.00">multiply_long.hpp</text>
</a>
</g>
</g>
<!-- Node6&#45;&gt;Node12 -->
<g id="edge16" class="edge">
<title>Node6&#45;&gt;Node12</title>
<path fill="none" stroke="midnightblue" d="M1305.87,-127.11C1358.22,-119.58 1460.14,-104.21 1546,-87 1551.47,-85.9 1557.19,-84.67 1562.85,-83.39"/>
<polygon fill="midnightblue" stroke="midnightblue" points="1563.94,-86.73 1572.9,-81.06 1562.36,-79.91 1563.94,-86.73"/>
</g>
<!-- Node13 -->
<g id="node13" class="node">
<title>Node13</title>
<g id="a_node13"><a xlink:href="single__data__transfer_8hpp.html" target="_top" xlink:title="This file defines single data transfer instruction (LDR, STR).">
<polygon fill="none" stroke="black" points="1677.5,-62 1677.5,-81 1814.5,-81 1814.5,-62 1677.5,-62"/>
<text text-anchor="middle" x="1746" y="-69" font-family="Helvetica,sans-Serif" font-size="10.00">single_data_transfer.hpp</text>
</a>
</g>
</g>
<!-- Node6&#45;&gt;Node13 -->
<g id="edge18" class="edge">
<title>Node6&#45;&gt;Node13</title>
<path fill="none" stroke="midnightblue" d="M1305.62,-128.91C1374.72,-122.56 1534.57,-106.94 1668,-87 1676.14,-85.78 1684.72,-84.35 1693.1,-82.86"/>
<polygon fill="midnightblue" stroke="midnightblue" points="1693.97,-86.26 1703.18,-81.03 1692.71,-79.37 1693.97,-86.26"/>
</g>
<!-- Node14 -->
<g id="node14" class="node">
<title>Node14</title>
<g id="a_node14"><a xlink:href="block__data__transfer_8hpp.html" target="_top" xlink:title="This file defines a block data transfer instruction (LDM, STM).">
<polygon fill="none" stroke="black" points="1833,-62 1833,-81 1967,-81 1967,-62 1833,-62"/>
<text text-anchor="middle" x="1900" y="-69" font-family="Helvetica,sans-Serif" font-size="10.00">block_data_transfer.hpp</text>
</a>
</g>
</g>
<!-- Node6&#45;&gt;Node14 -->
<g id="edge20" class="edge">
<title>Node6&#45;&gt;Node14</title>
<path fill="none" stroke="midnightblue" d="M1305.76,-130.47C1393.16,-126.34 1629.04,-113.45 1824,-87 1832.32,-85.87 1841.11,-84.43 1849.65,-82.89"/>
<polygon fill="midnightblue" stroke="midnightblue" points="1850.31,-86.33 1859.51,-81.06 1849.04,-79.45 1850.31,-86.33"/>
</g>
<!-- Node15 -->
<g id="node15" class="node">
<title>Node15</title>
<g id="a_node15"><a xlink:href="halfword__data__transfer_8hpp.html" target="_top" xlink:title="This file defines a Halfword data transfer instruction.">
<polygon fill="none" stroke="black" points="1985.5,-62 1985.5,-81 2134.5,-81 2134.5,-62 1985.5,-62"/>
<text text-anchor="middle" x="2060" y="-69" font-family="Helvetica,sans-Serif" font-size="10.00">halfword_data_transfer.hpp</text>
</a>
</g>
</g>
<!-- Node6&#45;&gt;Node15 -->
<g id="edge22" class="edge">
<title>Node6&#45;&gt;Node15</title>
<path fill="none" stroke="midnightblue" d="M1305.6,-131.1C1408.2,-128.17 1719.61,-117.22 1976,-87 1985.6,-85.87 1995.77,-84.37 2005.59,-82.77"/>
<polygon fill="midnightblue" stroke="midnightblue" points="2006.38,-86.18 2015.66,-81.07 2005.22,-79.28 2006.38,-86.18"/>
</g>
<!-- Node16 -->
<g id="node16" class="node">
<title>Node16</title>
<g id="a_node16"><a xlink:href="extend_8hpp.html" target="_top" xlink:title="This file defines an extend instruction.">
<polygon fill="none" stroke="black" points="2152.5,-62 2152.5,-81 2223.5,-81 2223.5,-62 2152.5,-62"/>
<text text-anchor="middle" x="2188" y="-69" font-family="Helvetica,sans-Serif" font-size="10.00">extend.hpp</text>
</a>
</g>
</g>
<!-- Node6&#45;&gt;Node16 -->
<g id="edge24" class="edge">
<title>Node6&#45;&gt;Node16</title>
<path fill="none" stroke="midnightblue" d="M1305.77,-131.44C1447.12,-128.99 1978.97,-117.87 2144,-87 2147.98,-86.26 2152.09,-85.24 2156.13,-84.1"/>
<polygon fill="midnightblue" stroke="midnightblue" points="2157.41,-87.37 2165.92,-81.05 2155.33,-80.68 2157.41,-87.37"/>
</g>
<!-- Node17 -->
<g id="node17" class="node">
<title>Node17</title>
<g id="a_node17"><a xlink:href="psr__transfer_8hpp.html" target="_top" xlink:title="This file defines a PSR instruction (MRS, MSR).">
<polygon fill="none" stroke="black" points="2241.5,-62 2241.5,-81 2336.5,-81 2336.5,-62 2241.5,-62"/>
<text text-anchor="middle" x="2289" y="-69" font-family="Helvetica,sans-Serif" font-size="10.00">psr_transfer.hpp</text>
</a>
</g>
</g>
<!-- Node6&#45;&gt;Node17 -->
<g id="edge26" class="edge">
<title>Node6&#45;&gt;Node17</title>
<path fill="none" stroke="midnightblue" d="M1305.65,-131.34C1455.51,-128.33 2048.67,-114.87 2233,-87 2238.85,-86.12 2244.98,-84.87 2250.94,-83.48"/>
<polygon fill="midnightblue" stroke="midnightblue" points="2251.89,-86.85 2260.75,-81.03 2250.2,-80.05 2251.89,-86.85"/>
</g>
<!-- Node18 -->
<g id="node18" class="node">
<title>Node18</title>
<g id="a_node18"><a xlink:href="cps_8hpp.html" target="_top" xlink:title="This file defines a change processor state instruction (CPS).">
<polygon fill="none" stroke="black" points="2355,-62 2355,-81 2409,-81 2409,-62 2355,-62"/>
<text text-anchor="middle" x="2382" y="-69" font-family="Helvetica,sans-Serif" font-size="10.00">cps.hpp</text>
</a>
</g>
</g>
<!-- Node6&#45;&gt;Node18 -->
<g id="edge28" class="edge">
<title>Node6&#45;&gt;Node18</title>
<path fill="none" stroke="midnightblue" d="M1305.7,-132.13C1466.59,-132.49 2140.69,-131.27 2346,-87 2348.84,-86.39 2351.75,-85.57 2354.61,-84.63"/>
<polygon fill="midnightblue" stroke="midnightblue" points="2355.91,-87.88 2364.07,-81.12 2353.47,-81.32 2355.91,-87.88"/>
</g>
<!-- Node19 -->
<g id="node19" class="node">
<title>Node19</title>
<g id="a_node19"><a xlink:href="coprocessor__register__transfer_8hpp.html" target="_top" xlink:title="This file defines a coprocessor register transfer (MRC, MCR).">
<polygon fill="none" stroke="black" points="310,-56.5 310,-86.5 428,-86.5 428,-56.5 310,-56.5"/>
<text text-anchor="start" x="318" y="-74.5" font-family="Helvetica,sans-Serif" font-size="10.00">coprocessor_register</text>
<text text-anchor="middle" x="369" y="-63.5" font-family="Helvetica,sans-Serif" font-size="10.00">_transfer.hpp</text>
</a>
</g>
</g>
<!-- Node6&#45;&gt;Node19 -->
<g id="edge30" class="edge">
<title>Node6&#45;&gt;Node19</title>
<path fill="none" stroke="midnightblue" d="M1236.26,-132.06C1122.84,-131.86 753.03,-127.97 438.47,-87.05"/>
<polygon fill="midnightblue" stroke="midnightblue" points="438.61,-83.54 428.24,-85.7 437.7,-90.48 438.61,-83.54"/>
</g>
<!-- Node20 -->
<g id="node20" class="node">
<title>Node20</title>
<g id="a_node20"><a xlink:href="coprocessor__data__transfer_8hpp.html" target="_top" xlink:title="This file defines a coprocessor data transfer (LDC, STC).">
<polygon fill="none" stroke="black" points="446,-62 446,-81 612,-81 612,-62 446,-62"/>
<text text-anchor="middle" x="529" y="-69" font-family="Helvetica,sans-Serif" font-size="10.00">coprocessor_data_transfer.hpp</text>
</a>
</g>
</g>
<!-- Node6&#45;&gt;Node20 -->
<g id="edge32" class="edge">
<title>Node6&#45;&gt;Node20</title>
<path fill="none" stroke="midnightblue" d="M1236.43,-130.64C1139.34,-126.61 856.01,-113.31 622,-87 611.18,-85.78 599.7,-84.22 588.63,-82.57"/>
<polygon fill="midnightblue" stroke="midnightblue" points="589.02,-79.09 578.61,-81.04 587.96,-86.01 589.02,-79.09"/>
</g>
<!-- Node21 -->
<g id="node21" class="node">
<title>Node21</title>
<g id="a_node21"><a xlink:href="coprocessor__data__operation_8hpp.html" target="_top" xlink:title="This file defines a coprocessor data operation (CDP).">
<polygon fill="none" stroke="black" points="630.5,-62 630.5,-81 805.5,-81 805.5,-62 630.5,-62"/>
<text text-anchor="middle" x="718" y="-69" font-family="Helvetica,sans-Serif" font-size="10.00">coprocessor_data_operation.hpp</text>
</a>
</g>
</g>
<!-- Node6&#45;&gt;Node21 -->
<g id="edge34" class="edge">
<title>Node6&#45;&gt;Node21</title>
<path fill="none" stroke="midnightblue" d="M1236.33,-129.17C1160.03,-122.83 971.91,-106.46 815,-87 804.26,-85.67 792.88,-84.1 781.83,-82.51"/>
<polygon fill="midnightblue" stroke="midnightblue" points="782.21,-79.02 771.81,-81.03 781.19,-85.95 782.21,-79.02"/>
</g>
<!-- Node22 -->
<g id="node22" class="node">
<title>Node22</title>
<g id="a_node22"><a xlink:href="srs_8hpp.html" target="_top" xlink:title="This file defines an SRS instruction (store return state onto a stack).">
<polygon fill="none" stroke="black" points="824,-62 824,-81 876,-81 876,-62 824,-62"/>
<text text-anchor="middle" x="850" y="-69" font-family="Helvetica,sans-Serif" font-size="10.00">srs.hpp</text>
</a>
</g>
</g>
<!-- Node6&#45;&gt;Node22 -->
<g id="edge36" class="edge">
<title>Node6&#45;&gt;Node22</title>
<path fill="none" stroke="midnightblue" d="M1236.45,-131.04C1168.37,-128.46 1012.51,-119.25 886,-87 883.49,-86.36 880.91,-85.58 878.36,-84.73"/>
<polygon fill="midnightblue" stroke="midnightblue" points="879.33,-81.35 868.74,-81.15 876.89,-87.91 879.33,-81.35"/>
</g>
<!-- Node23 -->
<g id="node23" class="node">
<title>Node23</title>
<g id="a_node23"><a xlink:href="rfe_8hpp.html" target="_top" xlink:title="This file defines an RFE instruction (return from exception).">
<polygon fill="none" stroke="black" points="894.5,-62 894.5,-81 945.5,-81 945.5,-62 894.5,-62"/>
<text text-anchor="middle" x="920" y="-69" font-family="Helvetica,sans-Serif" font-size="10.00">rfe.hpp</text>
</a>
</g>
</g>
<!-- Node6&#45;&gt;Node23 -->
<g id="edge38" class="edge">
<title>Node6&#45;&gt;Node23</title>
<path fill="none" stroke="midnightblue" d="M1236.29,-129.92C1177.49,-125.76 1054.95,-114.35 955,-87 952.56,-86.33 950.06,-85.54 947.57,-84.67"/>
<polygon fill="midnightblue" stroke="midnightblue" points="948.81,-81.39 938.22,-81.06 946.3,-87.93 948.81,-81.39"/>
</g>
<!-- Node24 -->
<g id="node24" class="node">
<title>Node24</title>
<g id="a_node24"><a xlink:href="clz_8hpp.html" target="_top" xlink:title="This file defines a count leading zeros instruction (CLZ).">
<polygon fill="none" stroke="black" points="963.5,-62 963.5,-81 1014.5,-81 1014.5,-62 963.5,-62"/>
<text text-anchor="middle" x="989" y="-69" font-family="Helvetica,sans-Serif" font-size="10.00">clz.hpp</text>
</a>
</g>
</g>
<!-- Node6&#45;&gt;Node24 -->
<g id="edge40" class="edge">
<title>Node6&#45;&gt;Node24</title>
<path fill="none" stroke="midnightblue" d="M1236.13,-127.35C1188.74,-120.62 1101.57,-106.76 1029,-87 1026.19,-86.24 1023.3,-85.36 1020.42,-84.44"/>
<polygon fill="midnightblue" stroke="midnightblue" points="1021.39,-81.07 1010.8,-81.13 1019.12,-87.69 1021.39,-81.07"/>
</g>
<!-- Node8&#45;&gt;Node7 -->
<g id="edge9" class="edge">
<title>Node8&#45;&gt;Node7</title>
<path fill="none" stroke="midnightblue" d="M1178.24,-61.98C1220.57,-51.44 1292.68,-33.49 1339.05,-21.94"/>
<polygon fill="midnightblue" stroke="midnightblue" points="1339.96,-25.32 1348.82,-19.51 1338.27,-18.53 1339.96,-25.32"/>
</g>
<!-- Node9&#45;&gt;Node7 -->
<g id="edge11" class="edge">
<title>Node9&#45;&gt;Node7</title>
<path fill="none" stroke="midnightblue" d="M1287.05,-61.98C1305.59,-52.12 1336.34,-35.79 1358.02,-24.27"/>
<polygon fill="midnightblue" stroke="midnightblue" points="1359.79,-27.29 1366.98,-19.51 1356.51,-21.11 1359.79,-27.29"/>
</g>
<!-- Node10&#45;&gt;Node7 -->
<g id="edge13" class="edge">
<title>Node10&#45;&gt;Node7</title>
<path fill="none" stroke="midnightblue" d="M1383,-61.98C1383,-53.58 1383,-40.48 1383,-29.66"/>
<polygon fill="midnightblue" stroke="midnightblue" points="1386.5,-29.51 1383,-19.51 1379.5,-29.51 1386.5,-29.51"/>
</g>
<!-- Node11&#45;&gt;Node7 -->
<g id="edge15" class="edge">
<title>Node11&#45;&gt;Node7</title>
<path fill="none" stroke="midnightblue" d="M1481.52,-61.98C1462.39,-52.08 1430.63,-35.64 1408.35,-24.12"/>
<polygon fill="midnightblue" stroke="midnightblue" points="1409.94,-21 1399.45,-19.51 1406.72,-27.21 1409.94,-21"/>
</g>
<!-- Node12&#45;&gt;Node7 -->
<g id="edge17" class="edge">
<title>Node12&#45;&gt;Node7</title>
<path fill="none" stroke="midnightblue" d="M1574.91,-61.98C1535.4,-51.48 1468.22,-33.64 1424.74,-22.09"/>
<polygon fill="midnightblue" stroke="midnightblue" points="1425.6,-18.69 1415.03,-19.51 1423.8,-25.46 1425.6,-18.69"/>
</g>
<!-- Node13&#45;&gt;Node7 -->
<g id="edge19" class="edge">
<title>Node13&#45;&gt;Node7</title>
<path fill="none" stroke="midnightblue" d="M1701.08,-61.93C1690.26,-59.93 1678.72,-57.84 1668,-56 1588.13,-42.27 1495.38,-27.92 1437.94,-19.22"/>
<polygon fill="midnightblue" stroke="midnightblue" points="1438.39,-15.75 1427.98,-17.72 1437.35,-22.67 1438.39,-15.75"/>
</g>
<!-- Node14&#45;&gt;Node7 -->
<g id="edge21" class="edge">
<title>Node14&#45;&gt;Node7</title>
<path fill="none" stroke="midnightblue" d="M1858.69,-61.94C1847.47,-59.8 1835.3,-57.65 1824,-56 1685.47,-35.76 1521.14,-21.56 1437.62,-15.04"/>
<polygon fill="midnightblue" stroke="midnightblue" points="1437.84,-11.55 1427.6,-14.26 1437.3,-18.52 1437.84,-11.55"/>
</g>
<!-- Node15&#45;&gt;Node7 -->
<g id="edge23" class="edge">
<title>Node15&#45;&gt;Node7</title>
<path fill="none" stroke="midnightblue" d="M2015.22,-61.96C2002.57,-59.77 1988.78,-57.58 1976,-56 1778.67,-31.54 1542.63,-18.41 1437.81,-13.41"/>
<polygon fill="midnightblue" stroke="midnightblue" points="1437.93,-9.91 1427.78,-12.94 1437.6,-16.91 1437.93,-9.91"/>
</g>
<!-- Node16&#45;&gt;Node7 -->
<g id="edge25" class="edge">
<title>Node16&#45;&gt;Node7</title>
<path fill="none" stroke="midnightblue" d="M2165.91,-61.98C2159,-59.65 2151.27,-57.39 2144,-56 2008.64,-30.15 1589.91,-16.58 1438.42,-12.41"/>
<polygon fill="midnightblue" stroke="midnightblue" points="1438.07,-8.9 1427.98,-12.13 1437.88,-15.9 1438.07,-8.9"/>
</g>
<!-- Node17&#45;&gt;Node7 -->
<g id="edge27" class="edge">
<title>Node17&#45;&gt;Node7</title>
<path fill="none" stroke="midnightblue" d="M2260.45,-61.93C2251.72,-59.63 2242.03,-57.39 2233,-56 2078.84,-32.21 1600.88,-17.05 1438.01,-12.47"/>
<polygon fill="midnightblue" stroke="midnightblue" points="1437.84,-8.96 1427.75,-12.18 1437.64,-15.96 1437.84,-8.96"/>
</g>
<!-- Node18&#45;&gt;Node7 -->
<g id="edge29" class="edge">
<title>Node18&#45;&gt;Node7</title>
<path fill="none" stroke="midnightblue" d="M2364.06,-61.9C2358.41,-59.57 2352.06,-57.32 2346,-56 2170.94,-17.81 1615.08,-12.02 1437.85,-11.15"/>
<polygon fill="midnightblue" stroke="midnightblue" points="1437.74,-7.65 1427.72,-11.11 1437.7,-14.65 1437.74,-7.65"/>
</g>
<!-- Node19&#45;&gt;Node7 -->
<g id="edge31" class="edge">
<title>Node19&#45;&gt;Node7</title>
<path fill="none" stroke="midnightblue" d="M428.24,-57.28C431.19,-56.8 434.13,-56.37 437,-56 773.79,-12.38 1182.92,-9.85 1328.43,-10.51"/>
<polygon fill="midnightblue" stroke="midnightblue" points="1328.43,-14.01 1338.45,-10.56 1328.46,-7.01 1328.43,-14.01"/>
</g>
<!-- Node20&#45;&gt;Node7 -->
<g id="edge33" class="edge">
<title>Node20&#45;&gt;Node7</title>
<path fill="none" stroke="midnightblue" d="M578.11,-61.94C592.24,-59.73 607.7,-57.53 622,-56 885.67,-27.71 1202.78,-16.14 1328.16,-12.44"/>
<polygon fill="midnightblue" stroke="midnightblue" points="1328.38,-15.94 1338.27,-12.15 1328.18,-8.94 1328.38,-15.94"/>
</g>
<!-- Node21&#45;&gt;Node7 -->
<g id="edge35" class="edge">
<title>Node21&#45;&gt;Node7</title>
<path fill="none" stroke="midnightblue" d="M770.52,-61.97C784.91,-59.82 800.54,-57.65 815,-56 1002.9,-34.54 1226.94,-20.03 1328.34,-14.07"/>
<polygon fill="midnightblue" stroke="midnightblue" points="1328.57,-17.56 1338.35,-13.48 1328.16,-10.57 1328.57,-17.56"/>
</g>
<!-- Node22&#45;&gt;Node7 -->
<g id="edge37" class="edge">
<title>Node22&#45;&gt;Node7</title>
<path fill="none" stroke="midnightblue" d="M868.34,-61.91C873.91,-59.64 880.1,-57.42 886,-56 1043.33,-18.07 1235.68,-11.53 1328.18,-10.77"/>
<polygon fill="midnightblue" stroke="midnightblue" points="1328.44,-14.27 1338.42,-10.71 1328.4,-7.27 1328.44,-14.27"/>
</g>
<!-- Node23&#45;&gt;Node7 -->
<g id="edge39" class="edge">
<title>Node23&#45;&gt;Node7</title>
<path fill="none" stroke="midnightblue" d="M937.83,-61.95C943.23,-59.68 949.26,-57.46 955,-56 1086.08,-22.7 1245.77,-14 1328.08,-11.75"/>
<polygon fill="midnightblue" stroke="midnightblue" points="1328.3,-15.25 1338.21,-11.5 1328.12,-8.25 1328.3,-15.25"/>
</g>
<!-- Node24&#45;&gt;Node7 -->
<g id="edge41" class="edge">
<title>Node24&#45;&gt;Node7</title>
<path fill="none" stroke="midnightblue" d="M1009.91,-61.93C1015.98,-59.72 1022.68,-57.53 1029,-56 1132.96,-30.88 1257.7,-19.17 1327.91,-14.22"/>
<polygon fill="midnightblue" stroke="midnightblue" points="1328.54,-17.68 1338.28,-13.5 1328.06,-10.7 1328.54,-17.68"/>
</g>
<!-- Node25&#45;&gt;Node7 -->
<g id="edge43" class="edge">
<title>Node25&#45;&gt;Node7</title>
<path fill="none" stroke="midnightblue" d="M1616.81,-187.99C1825.51,-187.02 2531.93,-175 2418,-56 2383.86,-20.35 1647.07,-12.75 1437.91,-11.31"/>
<polygon fill="midnightblue" stroke="midnightblue" points="1437.8,-7.81 1427.78,-11.24 1437.75,-14.81 1437.8,-7.81"/>
</g>
<!-- Node26&#45;&gt;Node4 -->
<g id="edge53" class="edge">
<title>Node26&#45;&gt;Node4</title>
<path fill="none" stroke="midnightblue" d="M356.68,-240.93C350.93,-238.91 344.76,-236.81 339,-235 298.77,-222.35 252.37,-209.73 219.39,-201.09"/>
<polygon fill="midnightblue" stroke="midnightblue" points="220.16,-197.67 209.61,-198.54 218.4,-204.45 220.16,-197.67"/>
</g>
<!-- Node27 -->
<g id="node27" class="node">
<title>Node27</title>
<g id="a_node27"><a xlink:href="cp15_8hpp.html" target="_top" xlink:title="This file defines CP15 (system control coprocessor).">
<polygon fill="none" stroke="black" points="442,-179.5 442,-198.5 570,-198.5 570,-179.5 442,-179.5"/>
<text text-anchor="middle" x="506" y="-186.5" font-family="Helvetica,sans-Serif" font-size="10.00">coprocessors/cp15.hpp</text>
</a>
</g>
</g>
<!-- Node26&#45;&gt;Node27 -->
<g id="edge45" class="edge">
<title>Node26&#45;&gt;Node27</title>
<path fill="none" stroke="midnightblue" d="M398.05,-240.98C419.2,-230.99 454.44,-214.35 478.88,-202.81"/>
<polygon fill="midnightblue" stroke="midnightblue" points="480.43,-205.94 487.98,-198.51 477.44,-199.61 480.43,-205.94"/>
</g>
<!-- Node29 -->
<g id="node29" class="node">
<title>Node29</title>
<g id="a_node29"><a xlink:href="peripheral_8hpp.html" target="_top" xlink:title="This file defines an interface for a memory&#45;mapped peripheral.">
<polygon fill="none" stroke="black" points="278.5,-179.5 278.5,-198.5 423.5,-198.5 423.5,-179.5 278.5,-179.5"/>
<text text-anchor="middle" x="351" y="-186.5" font-family="Helvetica,sans-Serif" font-size="10.00">peripherals/peripheral.hpp</text>
</a>
</g>
</g>
<!-- Node26&#45;&gt;Node29 -->
<g id="edge52" class="edge">
<title>Node26&#45;&gt;Node29</title>
<path fill="none" stroke="midnightblue" d="M375.85,-240.98C371.62,-232.32 364.96,-218.65 359.6,-207.65"/>
<polygon fill="midnightblue" stroke="midnightblue" points="362.67,-205.96 355.15,-198.51 356.38,-209.03 362.67,-205.96"/>
</g>
<!-- Node27&#45;&gt;Node3 -->
<g id="edge51" class="edge">
<title>Node27&#45;&gt;Node3</title>
<path fill="none" stroke="midnightblue" d="M485.92,-179.45C448.53,-163.24 366.12,-126.14 301,-87 280.81,-74.86 278.67,-67.3 258,-56 233.28,-42.49 203.63,-30.91 180.77,-22.89"/>
<polygon fill="midnightblue" stroke="midnightblue" points="181.7,-19.51 171.11,-19.56 179.42,-26.13 181.7,-19.51"/>
</g>
<!-- Node28 -->
<g id="node28" class="node">
<title>Node28</title>
<g id="a_node28"><a xlink:href="coprocessor_8hpp.html" target="_top" xlink:title="This file defines a general interface of a coprocessor.">
<polygon fill="none" stroke="black" points="458.5,-123.5 458.5,-142.5 553.5,-142.5 553.5,-123.5 458.5,-123.5"/>
<text text-anchor="middle" x="506" y="-130.5" font-family="Helvetica,sans-Serif" font-size="10.00">coprocessor.hpp</text>
</a>
</g>
</g>
<!-- Node27&#45;&gt;Node28 -->
<g id="edge46" class="edge">
<title>Node27&#45;&gt;Node28</title>
<path fill="none" stroke="midnightblue" d="M506,-179.08C506,-172.01 506,-161.86 506,-152.99"/>
<polygon fill="midnightblue" stroke="midnightblue" points="509.5,-152.75 506,-142.75 502.5,-152.75 509.5,-152.75"/>
</g>
<!-- Node28&#45;&gt;Node2 -->
<g id="edge47" class="edge">
<title>Node28&#45;&gt;Node2</title>
<path fill="none" stroke="midnightblue" d="M463.88,-123.48C409.77,-112.52 316.1,-93.57 259.51,-82.11"/>
<polygon fill="midnightblue" stroke="midnightblue" points="259.88,-78.62 249.39,-80.07 258.5,-85.48 259.88,-78.62"/>
</g>
<!-- Node28&#45;&gt;Node19 -->
<g id="edge48" class="edge">
<title>Node28&#45;&gt;Node19</title>
<path fill="none" stroke="midnightblue" d="M486.37,-123.48C466.69,-114.93 435.78,-101.5 410.61,-90.57"/>
<polygon fill="midnightblue" stroke="midnightblue" points="411.85,-87.3 401.29,-86.52 409.07,-93.72 411.85,-87.3"/>
</g>
<!-- Node28&#45;&gt;Node20 -->
<g id="edge49" class="edge">
<title>Node28&#45;&gt;Node20</title>
<path fill="none" stroke="midnightblue" d="M509.3,-123.48C512.61,-114.9 517.82,-101.43 522.05,-90.48"/>
<polygon fill="midnightblue" stroke="midnightblue" points="525.37,-91.6 525.71,-81.01 518.84,-89.07 525.37,-91.6"/>
</g>
<!-- Node28&#45;&gt;Node21 -->
<g id="edge50" class="edge">
<title>Node28&#45;&gt;Node21</title>
<path fill="none" stroke="midnightblue" d="M536.37,-123.48C573.61,-113.03 636.81,-95.29 677.98,-83.73"/>
<polygon fill="midnightblue" stroke="midnightblue" points="679,-87.08 687.68,-81.01 677.11,-80.34 679,-87.08"/>
</g>
<!-- Node31&#45;&gt;Node2 -->
<g id="edge58" class="edge">
<title>Node31&#45;&gt;Node2</title>
<path fill="none" stroke="midnightblue" d="M262.59,-235.31C252.7,-203.5 228.76,-126.45 217.74,-90.96"/>
<polygon fill="midnightblue" stroke="midnightblue" points="221.07,-89.89 214.76,-81.37 214.38,-91.96 221.07,-89.89"/>
</g>
<!-- Node31&#45;&gt;Node3 -->
<g id="edge59" class="edge">
<title>Node31&#45;&gt;Node3</title>
<path fill="none" stroke="midnightblue" d="M204.18,-239.14C176.3,-231.85 144.73,-219.57 122,-199 95.53,-175.04 88.82,-157.97 96,-123 103.23,-87.76 122.04,-49.91 133.85,-28.47"/>
<polygon fill="midnightblue" stroke="midnightblue" points="136.99,-30.03 138.86,-19.6 130.9,-26.59 136.99,-30.03"/>
</g>
<!-- Node31&#45;&gt;Node29 -->
<g id="edge57" class="edge">
<title>Node31&#45;&gt;Node29</title>
<path fill="none" stroke="midnightblue" d="M286.91,-235.4C299.99,-226.13 317.08,-214.03 330.32,-204.65"/>
<polygon fill="midnightblue" stroke="midnightblue" points="332.64,-207.29 338.78,-198.66 328.59,-201.58 332.64,-207.29"/>
</g>
</g>
</svg>
