<?xml version="1.0" encoding="UTF-8" standalone="no"?>
<!DOCTYPE svg PUBLIC "-//W3C//DTD SVG 1.1//EN"
 "http://www.w3.org/Graphics/SVG/1.1/DTD/svg11.dtd">
<!-- Generated by graphviz version 2.43.0 (0)
 -->
<!-- Title: src/core/arm1176jzf_s/core.hpp Pages: 1 -->
<svg width="2851pt" height="408pt"
 viewBox="0.00 0.00 2851.06 408.00" xmlns="http://www.w3.org/2000/svg" xmlns:xlink="http://www.w3.org/1999/xlink">
<g id="graph0" class="graph" transform="scale(1 1) rotate(0) translate(4 404)">
<title>src/core/arm1176jzf_s/core.hpp</title>
<!-- Node1 -->
<g id="node1" class="node">
<title>Node1</title>
<g id="a_node1"><a xlink:title="This file defines a class that represents a CPU core (arm1176jzf_s).">
<polygon fill="#bfbfbf" stroke="black" points="354.5,-369.5 354.5,-399.5 467.5,-399.5 467.5,-369.5 354.5,-369.5"/>
<text text-anchor="start" x="362.5" y="-387.5" font-family="Helvetica,sans-Serif" font-size="10.00">src/core/arm1176jzf</text>
<text text-anchor="middle" x="411" y="-376.5" font-family="Helvetica,sans-Serif" font-size="10.00">_s/core.hpp</text>
</a>
</g>
</g>
<!-- Node2 -->
<g id="node2" class="node">
<title>Node2</title>
<g id="a_node2"><a xlink:href="context_8hpp.html" target="_top" xlink:title="This file defines the context (registers) of the CPU.">
<polygon fill="none" stroke="black" points="175,-118 175,-137 249,-137 249,-118 175,-118"/>
<text text-anchor="middle" x="212" y="-125" font-family="Helvetica,sans-Serif" font-size="10.00">context.hpp</text>
</a>
</g>
</g>
<!-- Node1&#45;&gt;Node2 -->
<g id="edge1" class="edge">
<title>Node1&#45;&gt;Node2</title>
<path fill="none" stroke="midnightblue" d="M354.33,-375.88C267.33,-360.58 105.8,-316.81 57,-199 37.8,-152.65 112.16,-136.77 164.48,-131.33"/>
<polygon fill="midnightblue" stroke="midnightblue" points="164.98,-134.8 174.61,-130.38 164.33,-127.83 164.98,-134.8"/>
</g>
<!-- Node3 -->
<g id="node3" class="node">
<title>Node3</title>
<g id="a_node3"><a xlink:href="logger_8hpp.html" target="_top" xlink:title=" ">
<polygon fill="none" stroke="black" points="288,-56.5 288,-75.5 422,-75.5 422,-56.5 288,-56.5"/>
<text text-anchor="middle" x="355" y="-63.5" font-family="Helvetica,sans-Serif" font-size="10.00">../utils/logger/logger.hpp</text>
</a>
</g>
</g>
<!-- Node1&#45;&gt;Node3 -->
<g id="edge64" class="edge">
<title>Node1&#45;&gt;Node3</title>
<path fill="none" stroke="midnightblue" d="M354.28,-377.3C241.54,-363.4 0,-325.04 0,-251.5 0,-251.5 0,-251.5 0,-188 0,-129.32 175.99,-93.29 280.14,-77.1"/>
<polygon fill="midnightblue" stroke="midnightblue" points="280.94,-80.52 290.3,-75.55 279.89,-73.6 280.94,-80.52"/>
</g>
<!-- Node10 -->
<g id="node10" class="node">
<title>Node10</title>
<g id="a_node10"><a xlink:href="exceptions_8hpp.html" target="_top" xlink:title="This file defines all exceptions that can be thrown by the CPU during execution.">
<polygon fill="none" stroke="black" points="133.5,-241 133.5,-260 224.5,-260 224.5,-241 133.5,-241"/>
<text text-anchor="middle" x="179" y="-248" font-family="Helvetica,sans-Serif" font-size="10.00">exceptions.hpp</text>
</a>
</g>
</g>
<!-- Node1&#45;&gt;Node10 -->
<g id="edge9" class="edge">
<title>Node1&#45;&gt;Node10</title>
<path fill="none" stroke="midnightblue" d="M386.17,-369.37C341.3,-343.85 247.27,-290.35 203.01,-265.16"/>
<polygon fill="midnightblue" stroke="midnightblue" points="204.53,-262 194.11,-260.1 201.07,-268.08 204.53,-262"/>
</g>
<!-- Node12 -->
<g id="node12" class="node">
<title>Node12</title>
<g id="a_node12"><a xlink:href="isa_8hpp.html" target="_top" xlink:title="This file is just a helper file for including all ARM instructions supported by the emulator.">
<polygon fill="none" stroke="black" points="1646.5,-179.5 1646.5,-198.5 1715.5,-198.5 1715.5,-179.5 1646.5,-179.5"/>
<text text-anchor="middle" x="1681" y="-186.5" font-family="Helvetica,sans-Serif" font-size="10.00">isa/isa.hpp</text>
</a>
</g>
</g>
<!-- Node1&#45;&gt;Node12 -->
<g id="edge12" class="edge">
<title>Node1&#45;&gt;Node12</title>
<path fill="none" stroke="midnightblue" d="M445.35,-369.36C491.83,-350.83 577.72,-318.75 654,-302 1027.86,-219.92 1492.1,-196.86 1636.22,-191.45"/>
<polygon fill="midnightblue" stroke="midnightblue" points="1636.57,-194.94 1646.44,-191.08 1636.32,-187.95 1636.57,-194.94"/>
</g>
<!-- Node31 -->
<g id="node31" class="node">
<title>Node31</title>
<g id="a_node31"><a xlink:href="isa__decoder_8hpp.html" target="_top" xlink:title="This file defines an instruction decoder.">
<polygon fill="none" stroke="black" points="1732.5,-241 1732.5,-260 1845.5,-260 1845.5,-241 1732.5,-241"/>
<text text-anchor="middle" x="1789" y="-248" font-family="Helvetica,sans-Serif" font-size="10.00">isa/isa_decoder.hpp</text>
</a>
</g>
</g>
<!-- Node1&#45;&gt;Node31 -->
<g id="edge48" class="edge">
<title>Node1&#45;&gt;Node31</title>
<path fill="none" stroke="midnightblue" d="M467.56,-378.51C518.16,-372.5 593.47,-359.65 654,-333 675.56,-323.51 674.75,-309.76 697,-302 793.42,-268.39 1499.45,-255.6 1722,-252.38"/>
<polygon fill="midnightblue" stroke="midnightblue" points="1722.28,-255.87 1732.23,-252.23 1722.18,-248.87 1722.28,-255.87"/>
</g>
<!-- Node32 -->
<g id="node32" class="node">
<title>Node32</title>
<g id="a_node32"><a xlink:href="bus_8hpp.html" target="_top" xlink:title="This file defines an interface the CPU uses to access different memory&#45;mapped peripherals.">
<polygon fill="none" stroke="black" points="379,-308 379,-327 443,-327 443,-308 379,-308"/>
<text text-anchor="middle" x="411" y="-315" font-family="Helvetica,sans-Serif" font-size="10.00">../bus.hpp</text>
</a>
</g>
</g>
<!-- Node1&#45;&gt;Node32 -->
<g id="edge50" class="edge">
<title>Node1&#45;&gt;Node32</title>
<path fill="none" stroke="midnightblue" d="M411,-369.4C411,-360.06 411,-347.71 411,-337.52"/>
<polygon fill="midnightblue" stroke="midnightblue" points="414.5,-337.19 411,-327.19 407.5,-337.19 414.5,-337.19"/>
</g>
<!-- Node37 -->
<g id="node37" class="node">
<title>Node37</title>
<g id="a_node37"><a xlink:href="math_8hpp.html" target="_top" xlink:title="This file defines and implements a variety of handy helper functions that are used throughout the pro...">
<polygon fill="none" stroke="black" points="706,-308 706,-327 802,-327 802,-308 706,-308"/>
<text text-anchor="middle" x="754" y="-315" font-family="Helvetica,sans-Serif" font-size="10.00">../utils/math.hpp</text>
</a>
</g>
</g>
<!-- Node1&#45;&gt;Node37 -->
<g id="edge63" class="edge">
<title>Node1&#45;&gt;Node37</title>
<path fill="none" stroke="midnightblue" d="M467.68,-374.2C524.55,-364.67 614.58,-349 692,-333 697.48,-331.87 703.22,-330.62 708.9,-329.34"/>
<polygon fill="midnightblue" stroke="midnightblue" points="710.02,-332.67 718.99,-327.02 708.46,-325.85 710.02,-332.67"/>
</g>
<!-- Node38 -->
<g id="node38" class="node">
<title>Node38</title>
<g id="a_node38"><a xlink:href="interrupt__controller_8hpp.html" target="_top" xlink:title=" ">
<polygon fill="none" stroke="black" points="252.5,-235.5 252.5,-265.5 377.5,-265.5 377.5,-235.5 252.5,-235.5"/>
<text text-anchor="start" x="260.5" y="-253.5" font-family="Helvetica,sans-Serif" font-size="10.00">../peripherals/interrupt</text>
<text text-anchor="middle" x="315" y="-242.5" font-family="Helvetica,sans-Serif" font-size="10.00">_controller.hpp</text>
</a>
</g>
</g>
<!-- Node1&#45;&gt;Node38 -->
<g id="edge65" class="edge">
<title>Node1&#45;&gt;Node38</title>
<path fill="none" stroke="midnightblue" d="M398.81,-369.18C390.47,-359.22 379.28,-345.52 370,-333 355.59,-313.56 340.28,-290.66 329.48,-274.09"/>
<polygon fill="midnightblue" stroke="midnightblue" points="332.35,-272.09 323.98,-265.6 326.48,-275.9 332.35,-272.09"/>
</g>
<!-- Node40 -->
<g id="node40" class="node">
<title>Node40</title>
<g id="a_node40"><a xlink:href="system__clock__listener_8hpp.html" target="_top" xlink:title="This file defines an interface for a CPU clock listener.">
<polygon fill="none" stroke="black" points="820.5,-302.5 820.5,-332.5 939.5,-332.5 939.5,-302.5 820.5,-302.5"/>
<text text-anchor="start" x="828.5" y="-320.5" font-family="Helvetica,sans-Serif" font-size="10.00">../peripherals/system</text>
<text text-anchor="middle" x="880" y="-309.5" font-family="Helvetica,sans-Serif" font-size="10.00">_clock_listener.hpp</text>
</a>
</g>
</g>
<!-- Node1&#45;&gt;Node40 -->
<g id="edge71" class="edge">
<title>Node1&#45;&gt;Node40</title>
<path fill="none" stroke="midnightblue" d="M467.52,-377.83C543.22,-369.92 681.89,-354.28 810.21,-333.05"/>
<polygon fill="midnightblue" stroke="midnightblue" points="810.93,-336.47 820.22,-331.37 809.78,-329.57 810.93,-336.47"/>
</g>
<!-- Node2&#45;&gt;Node3 -->
<g id="edge2" class="edge">
<title>Node2&#45;&gt;Node3</title>
<path fill="none" stroke="midnightblue" d="M232.49,-117.98C256.81,-107.86 297.55,-90.9 325.32,-79.35"/>
<polygon fill="midnightblue" stroke="midnightblue" points="326.66,-82.58 334.55,-75.51 323.97,-76.12 326.66,-82.58"/>
</g>
<!-- Node4 -->
<g id="node4" class="node">
<title>Node4</title>
<g id="a_node4"><a xlink:title=" ">
<polygon fill="none" stroke="#bfbfbf" points="376,-0.5 376,-19.5 424,-19.5 424,-0.5 376,-0.5"/>
<text text-anchor="middle" x="400" y="-7.5" font-family="Helvetica,sans-Serif" font-size="10.00">mutex</text>
</a>
</g>
</g>
<!-- Node3&#45;&gt;Node4 -->
<g id="edge3" class="edge">
<title>Node3&#45;&gt;Node4</title>
<path fill="none" stroke="midnightblue" d="M362.43,-56.08C368.85,-48.38 378.31,-37.03 386.12,-27.65"/>
<polygon fill="midnightblue" stroke="midnightblue" points="388.99,-29.67 392.71,-19.75 383.62,-25.19 388.99,-29.67"/>
</g>
<!-- Node5 -->
<g id="node5" class="node">
<title>Node5</title>
<g id="a_node5"><a xlink:title=" ">
<polygon fill="none" stroke="#bfbfbf" points="541.5,-0.5 541.5,-19.5 588.5,-19.5 588.5,-0.5 541.5,-0.5"/>
<text text-anchor="middle" x="565" y="-7.5" font-family="Helvetica,sans-Serif" font-size="10.00">vector</text>
</a>
</g>
</g>
<!-- Node3&#45;&gt;Node5 -->
<g id="edge4" class="edge">
<title>Node3&#45;&gt;Node5</title>
<path fill="none" stroke="midnightblue" d="M388.28,-56.44C427.45,-46.37 492.14,-29.74 531.44,-19.63"/>
<polygon fill="midnightblue" stroke="midnightblue" points="532.52,-22.97 541.33,-17.09 530.77,-16.19 532.52,-22.97"/>
</g>
<!-- Node6 -->
<g id="node6" class="node">
<title>Node6</title>
<g id="a_node6"><a xlink:title=" ">
<polygon fill="none" stroke="#bfbfbf" points="442,-0.5 442,-19.5 500,-19.5 500,-0.5 442,-0.5"/>
<text text-anchor="middle" x="471" y="-7.5" font-family="Helvetica,sans-Serif" font-size="10.00">memory</text>
</a>
</g>
</g>
<!-- Node3&#45;&gt;Node6 -->
<g id="edge5" class="edge">
<title>Node3&#45;&gt;Node6</title>
<path fill="none" stroke="midnightblue" d="M373.38,-56.44C392.22,-47.68 421.73,-33.94 443.38,-23.86"/>
<polygon fill="midnightblue" stroke="midnightblue" points="445.12,-26.91 452.71,-19.52 442.16,-20.56 445.12,-26.91"/>
</g>
<!-- Node7 -->
<g id="node7" class="node">
<title>Node7</title>
<g id="a_node7"><a xlink:title=" ">
<polygon fill="none" stroke="#bfbfbf" points="652,-0.5 652,-19.5 702,-19.5 702,-0.5 652,-0.5"/>
<text text-anchor="middle" x="677" y="-7.5" font-family="Helvetica,sans-Serif" font-size="10.00">cstdint</text>
</a>
</g>
</g>
<!-- Node3&#45;&gt;Node7 -->
<g id="edge6" class="edge">
<title>Node3&#45;&gt;Node7</title>
<path fill="none" stroke="midnightblue" d="M406.02,-56.44C471.96,-45.38 585.06,-26.42 642.03,-16.86"/>
<polygon fill="midnightblue" stroke="midnightblue" points="642.71,-20.3 651.99,-15.19 641.55,-13.4 642.71,-20.3"/>
</g>
<!-- Node8 -->
<g id="node8" class="node">
<title>Node8</title>
<g id="a_node8"><a xlink:title=" ">
<polygon fill="none" stroke="#bfbfbf" points="173.5,-0.5 173.5,-19.5 246.5,-19.5 246.5,-0.5 173.5,-0.5"/>
<text text-anchor="middle" x="210" y="-7.5" font-family="Helvetica,sans-Serif" font-size="10.00">string_view</text>
</a>
</g>
</g>
<!-- Node3&#45;&gt;Node8 -->
<g id="edge7" class="edge">
<title>Node3&#45;&gt;Node8</title>
<path fill="none" stroke="midnightblue" d="M332.02,-56.44C307.84,-47.44 269.58,-33.19 242.35,-23.05"/>
<polygon fill="midnightblue" stroke="midnightblue" points="243.46,-19.73 232.87,-19.52 241.02,-26.29 243.46,-19.73"/>
</g>
<!-- Node9 -->
<g id="node9" class="node">
<title>Node9</title>
<g id="a_node9"><a xlink:title=" ">
<polygon fill="none" stroke="#bfbfbf" points="264.5,-0.5 264.5,-19.5 357.5,-19.5 357.5,-0.5 264.5,-0.5"/>
<text text-anchor="middle" x="311" y="-7.5" font-family="Helvetica,sans-Serif" font-size="10.00">source_location</text>
</a>
</g>
</g>
<!-- Node3&#45;&gt;Node9 -->
<g id="edge8" class="edge">
<title>Node3&#45;&gt;Node9</title>
<path fill="none" stroke="midnightblue" d="M347.73,-56.08C341.46,-48.38 332.21,-37.03 324.57,-27.65"/>
<polygon fill="midnightblue" stroke="midnightblue" points="327.16,-25.29 318.13,-19.75 321.73,-29.71 327.16,-25.29"/>
</g>
<!-- Node10&#45;&gt;Node2 -->
<g id="edge11" class="edge">
<title>Node10&#45;&gt;Node2</title>
<path fill="none" stroke="midnightblue" d="M181.32,-240.81C184.88,-227.5 191.92,-201.25 198,-179 200.93,-168.29 204.25,-156.31 206.92,-146.71"/>
<polygon fill="midnightblue" stroke="midnightblue" points="210.29,-147.65 209.6,-137.07 203.55,-145.77 210.29,-147.65"/>
</g>
<!-- Node11 -->
<g id="node11" class="node">
<title>Node11</title>
<g id="a_node11"><a xlink:title=" ">
<polygon fill="none" stroke="#bfbfbf" points="66.5,-179.5 66.5,-198.5 145.5,-198.5 145.5,-179.5 66.5,-179.5"/>
<text text-anchor="middle" x="106" y="-186.5" font-family="Helvetica,sans-Serif" font-size="10.00">fmt/format.h</text>
</a>
</g>
</g>
<!-- Node10&#45;&gt;Node11 -->
<g id="edge10" class="edge">
<title>Node10&#45;&gt;Node11</title>
<path fill="none" stroke="midnightblue" d="M168.54,-240.98C157.05,-231.61 138.37,-216.38 124.41,-205.01"/>
<polygon fill="midnightblue" stroke="midnightblue" points="126.4,-202.11 116.44,-198.51 121.98,-207.54 126.4,-202.11"/>
</g>
<!-- Node13 -->
<g id="node13" class="node">
<title>Node13</title>
<g id="a_node13"><a xlink:href="instruction_8hpp.html" target="_top" xlink:title="This file defines the interface of a general ARM instruction.">
<polygon fill="none" stroke="black" points="1690.5,-56.5 1690.5,-75.5 1779.5,-75.5 1779.5,-56.5 1690.5,-56.5"/>
<text text-anchor="middle" x="1735" y="-63.5" font-family="Helvetica,sans-Serif" font-size="10.00">instruction.hpp</text>
</a>
</g>
</g>
<!-- Node12&#45;&gt;Node13 -->
<g id="edge13" class="edge">
<title>Node12&#45;&gt;Node13</title>
<path fill="none" stroke="midnightblue" d="M1689.45,-179.45C1697.43,-170.91 1709.16,-157.06 1716,-143 1724.91,-124.7 1729.9,-101.82 1732.5,-85.97"/>
<polygon fill="midnightblue" stroke="midnightblue" points="1736,-86.24 1734,-75.84 1729.07,-85.22 1736,-86.24"/>
</g>
<!-- Node14 -->
<g id="node14" class="node">
<title>Node14</title>
<g id="a_node14"><a xlink:href="branch__and__exchange_8hpp.html" target="_top" xlink:title="This file defines a branch and exchange instruction (BX).">
<polygon fill="none" stroke="black" points="1763,-118 1763,-137 1909,-137 1909,-118 1763,-118"/>
<text text-anchor="middle" x="1836" y="-125" font-family="Helvetica,sans-Serif" font-size="10.00">branch_and_exchange.hpp</text>
</a>
</g>
</g>
<!-- Node12&#45;&gt;Node14 -->
<g id="edge14" class="edge">
<title>Node12&#45;&gt;Node14</title>
<path fill="none" stroke="midnightblue" d="M1703.21,-179.48C1729.68,-169.31 1774.11,-152.26 1804.22,-140.7"/>
<polygon fill="midnightblue" stroke="midnightblue" points="1805.75,-143.86 1813.83,-137.01 1803.24,-137.33 1805.75,-143.86"/>
</g>
<!-- Node15 -->
<g id="node15" class="node">
<title>Node15</title>
<g id="a_node15"><a xlink:href="branch_8hpp.html" target="_top" xlink:title="This file defines a branch instruction (B, BL).">
<polygon fill="none" stroke="black" points="1927.5,-118 1927.5,-137 1998.5,-137 1998.5,-118 1927.5,-118"/>
<text text-anchor="middle" x="1963" y="-125" font-family="Helvetica,sans-Serif" font-size="10.00">branch.hpp</text>
</a>
</g>
</g>
<!-- Node12&#45;&gt;Node15 -->
<g id="edge16" class="edge">
<title>Node12&#45;&gt;Node15</title>
<path fill="none" stroke="midnightblue" d="M1715.84,-182.77C1762.31,-175.49 1846.98,-161.11 1918,-143 1921.44,-142.12 1925.01,-141.13 1928.56,-140.08"/>
<polygon fill="midnightblue" stroke="midnightblue" points="1929.88,-143.33 1938.4,-137.03 1927.82,-136.64 1929.88,-143.33"/>
</g>
<!-- Node16 -->
<g id="node16" class="node">
<title>Node16</title>
<g id="a_node16"><a xlink:href="data__processing_8hpp.html" target="_top" xlink:title="This file defines a data processing instruction.">
<polygon fill="none" stroke="black" points="2016.5,-118 2016.5,-137 2133.5,-137 2133.5,-118 2016.5,-118"/>
<text text-anchor="middle" x="2075" y="-125" font-family="Helvetica,sans-Serif" font-size="10.00">data_processing.hpp</text>
</a>
</g>
</g>
<!-- Node12&#45;&gt;Node16 -->
<g id="edge18" class="edge">
<title>Node12&#45;&gt;Node16</title>
<path fill="none" stroke="midnightblue" d="M1715.5,-184.13C1775.29,-177.23 1901.91,-161.75 2008,-143 2014.38,-141.87 2021.08,-140.57 2027.68,-139.21"/>
<polygon fill="midnightblue" stroke="midnightblue" points="2028.83,-142.55 2037.89,-137.06 2027.38,-135.7 2028.83,-142.55"/>
</g>
<!-- Node17 -->
<g id="node17" class="node">
<title>Node17</title>
<g id="a_node17"><a xlink:href="multiply_8hpp.html" target="_top" xlink:title="This file defines a multiplication instruction (MUL, MLA).">
<polygon fill="none" stroke="black" points="2151.5,-118 2151.5,-137 2228.5,-137 2228.5,-118 2151.5,-118"/>
<text text-anchor="middle" x="2190" y="-125" font-family="Helvetica,sans-Serif" font-size="10.00">multiply.hpp</text>
</a>
</g>
</g>
<!-- Node12&#45;&gt;Node17 -->
<g id="edge20" class="edge">
<title>Node12&#45;&gt;Node17</title>
<path fill="none" stroke="midnightblue" d="M1715.54,-187.02C1792.85,-184.3 1985.37,-174.65 2143,-143 2147.14,-142.17 2151.44,-141.12 2155.68,-139.96"/>
<polygon fill="midnightblue" stroke="midnightblue" points="2156.75,-143.29 2165.36,-137.13 2154.78,-136.58 2156.75,-143.29"/>
</g>
<!-- Node18 -->
<g id="node18" class="node">
<title>Node18</title>
<g id="a_node18"><a xlink:href="multiply__long_8hpp.html" target="_top" xlink:title="This file defines a multiplication (long) instruction.">
<polygon fill="none" stroke="black" points="2247,-118 2247,-137 2351,-137 2351,-118 2247,-118"/>
<text text-anchor="middle" x="2299" y="-125" font-family="Helvetica,sans-Serif" font-size="10.00">multiply_long.hpp</text>
</a>
</g>
</g>
<!-- Node12&#45;&gt;Node18 -->
<g id="edge22" class="edge">
<title>Node12&#45;&gt;Node18</title>
<path fill="none" stroke="midnightblue" d="M1715.76,-187.04C1803.72,-184.2 2042.04,-174.02 2238,-143 2244.28,-142.01 2250.87,-140.71 2257.3,-139.3"/>
<polygon fill="midnightblue" stroke="midnightblue" points="2258.25,-142.68 2267.21,-137.03 2256.68,-135.86 2258.25,-142.68"/>
</g>
<!-- Node19 -->
<g id="node19" class="node">
<title>Node19</title>
<g id="a_node19"><a xlink:href="single__data__transfer_8hpp.html" target="_top" xlink:title="This file defines single data transfer instruction (LDR, STR).">
<polygon fill="none" stroke="black" points="2369.5,-118 2369.5,-137 2506.5,-137 2506.5,-118 2369.5,-118"/>
<text text-anchor="middle" x="2438" y="-125" font-family="Helvetica,sans-Serif" font-size="10.00">single_data_transfer.hpp</text>
</a>
</g>
</g>
<!-- Node12&#45;&gt;Node19 -->
<g id="edge24" class="edge">
<title>Node12&#45;&gt;Node19</title>
<path fill="none" stroke="midnightblue" d="M1715.76,-187.14C1816.05,-184.35 2114.43,-173.85 2360,-143 2368.84,-141.89 2378.19,-140.42 2387.23,-138.83"/>
<polygon fill="midnightblue" stroke="midnightblue" points="2388.04,-142.24 2397.26,-137.01 2386.79,-135.35 2388.04,-142.24"/>
</g>
<!-- Node20 -->
<g id="node20" class="node">
<title>Node20</title>
<g id="a_node20"><a xlink:href="block__data__transfer_8hpp.html" target="_top" xlink:title="This file defines a block data transfer instruction (LDM, STM).">
<polygon fill="none" stroke="black" points="2525,-118 2525,-137 2659,-137 2659,-118 2525,-118"/>
<text text-anchor="middle" x="2592" y="-125" font-family="Helvetica,sans-Serif" font-size="10.00">block_data_transfer.hpp</text>
</a>
</g>
</g>
<!-- Node12&#45;&gt;Node20 -->
<g id="edge26" class="edge">
<title>Node12&#45;&gt;Node20</title>
<path fill="none" stroke="midnightblue" d="M1715.75,-187.8C1830.44,-186.78 2207.24,-180.6 2516,-143 2524.72,-141.94 2533.94,-140.47 2542.84,-138.88"/>
<polygon fill="midnightblue" stroke="midnightblue" points="2543.52,-142.31 2552.71,-137.04 2542.24,-135.43 2543.52,-142.31"/>
</g>
<!-- Node21 -->
<g id="node21" class="node">
<title>Node21</title>
<g id="a_node21"><a xlink:href="halfword__data__transfer_8hpp.html" target="_top" xlink:title="This file defines a Halfword data transfer instruction.">
<polygon fill="none" stroke="black" points="2677.5,-118 2677.5,-137 2826.5,-137 2826.5,-118 2677.5,-118"/>
<text text-anchor="middle" x="2752" y="-125" font-family="Helvetica,sans-Serif" font-size="10.00">halfword_data_transfer.hpp</text>
</a>
</g>
</g>
<!-- Node12&#45;&gt;Node21 -->
<g id="edge28" class="edge">
<title>Node12&#45;&gt;Node21</title>
<path fill="none" stroke="midnightblue" d="M1715.65,-187.99C1842.95,-187.62 2296.67,-183.35 2668,-143 2677.93,-141.92 2688.46,-140.4 2698.59,-138.75"/>
<polygon fill="midnightblue" stroke="midnightblue" points="2699.27,-142.19 2708.55,-137.07 2698.11,-135.28 2699.27,-142.19"/>
</g>
<!-- Node22 -->
<g id="node22" class="node">
<title>Node22</title>
<g id="a_node22"><a xlink:href="extend_8hpp.html" target="_top" xlink:title="This file defines an extend instruction.">
<polygon fill="none" stroke="black" points="1241.5,-118 1241.5,-137 1312.5,-137 1312.5,-118 1241.5,-118"/>
<text text-anchor="middle" x="1277" y="-125" font-family="Helvetica,sans-Serif" font-size="10.00">extend.hpp</text>
</a>
</g>
</g>
<!-- Node12&#45;&gt;Node22 -->
<g id="edge30" class="edge">
<title>Node12&#45;&gt;Node22</title>
<path fill="none" stroke="midnightblue" d="M1646.48,-185.83C1582.06,-181.3 1439.44,-169.04 1322,-143 1318.14,-142.14 1314.15,-141.1 1310.2,-139.96"/>
<polygon fill="midnightblue" stroke="midnightblue" points="1311.18,-136.6 1300.59,-137.02 1309.13,-143.3 1311.18,-136.6"/>
</g>
<!-- Node23 -->
<g id="node23" class="node">
<title>Node23</title>
<g id="a_node23"><a xlink:href="psr__transfer_8hpp.html" target="_top" xlink:title="This file defines a PSR instruction (MRS, MSR).">
<polygon fill="none" stroke="black" points="1330.5,-118 1330.5,-137 1425.5,-137 1425.5,-118 1330.5,-118"/>
<text text-anchor="middle" x="1378" y="-125" font-family="Helvetica,sans-Serif" font-size="10.00">psr_transfer.hpp</text>
</a>
</g>
</g>
<!-- Node12&#45;&gt;Node23 -->
<g id="edge32" class="edge">
<title>Node12&#45;&gt;Node23</title>
<path fill="none" stroke="midnightblue" d="M1646.22,-182.41C1598.43,-174.55 1509.87,-159.35 1435,-143 1430.02,-141.91 1424.8,-140.7 1419.65,-139.44"/>
<polygon fill="midnightblue" stroke="midnightblue" points="1420.41,-136.03 1409.86,-137.01 1418.73,-142.82 1420.41,-136.03"/>
</g>
<!-- Node24 -->
<g id="node24" class="node">
<title>Node24</title>
<g id="a_node24"><a xlink:href="cps_8hpp.html" target="_top" xlink:title="This file defines a change processor state instruction (CPS).">
<polygon fill="none" stroke="black" points="1444,-118 1444,-137 1498,-137 1498,-118 1444,-118"/>
<text text-anchor="middle" x="1471" y="-125" font-family="Helvetica,sans-Serif" font-size="10.00">cps.hpp</text>
</a>
</g>
</g>
<!-- Node12&#45;&gt;Node24 -->
<g id="edge34" class="edge">
<title>Node12&#45;&gt;Node24</title>
<path fill="none" stroke="midnightblue" d="M1646.28,-180.42C1610.89,-172.37 1554.57,-158.66 1507,-143 1504.87,-142.3 1502.68,-141.53 1500.49,-140.73"/>
<polygon fill="midnightblue" stroke="midnightblue" points="1501.6,-137.41 1491.01,-137.1 1499.09,-143.95 1501.6,-137.41"/>
</g>
<!-- Node25 -->
<g id="node25" class="node">
<title>Node25</title>
<g id="a_node25"><a xlink:href="coprocessor__register__transfer_8hpp.html" target="_top" xlink:title="This file defines a coprocessor register transfer (MRC, MCR).">
<polygon fill="none" stroke="black" points="921,-112.5 921,-142.5 1039,-142.5 1039,-112.5 921,-112.5"/>
<text text-anchor="start" x="929" y="-130.5" font-family="Helvetica,sans-Serif" font-size="10.00">coprocessor_register</text>
<text text-anchor="middle" x="980" y="-119.5" font-family="Helvetica,sans-Serif" font-size="10.00">_transfer.hpp</text>
</a>
</g>
</g>
<!-- Node12&#45;&gt;Node25 -->
<g id="edge36" class="edge">
<title>Node12&#45;&gt;Node25</title>
<path fill="none" stroke="midnightblue" d="M1646.17,-187.22C1551.66,-184.76 1282.4,-175.33 1049.27,-143.05"/>
<polygon fill="midnightblue" stroke="midnightblue" points="1049.64,-139.56 1039.25,-141.64 1048.67,-146.5 1049.64,-139.56"/>
</g>
<!-- Node26 -->
<g id="node26" class="node">
<title>Node26</title>
<g id="a_node26"><a xlink:href="coprocessor__data__transfer_8hpp.html" target="_top" xlink:title="This file defines a coprocessor data transfer (LDC, STC).">
<polygon fill="none" stroke="black" points="1057,-118 1057,-137 1223,-137 1223,-118 1057,-118"/>
<text text-anchor="middle" x="1140" y="-125" font-family="Helvetica,sans-Serif" font-size="10.00">coprocessor_data_transfer.hpp</text>
</a>
</g>
</g>
<!-- Node12&#45;&gt;Node26 -->
<g id="edge38" class="edge">
<title>Node12&#45;&gt;Node26</title>
<path fill="none" stroke="midnightblue" d="M1646.36,-185.17C1571.02,-178.87 1386.71,-162.69 1233,-143 1222.81,-141.69 1212.01,-140.15 1201.51,-138.58"/>
<polygon fill="midnightblue" stroke="midnightblue" points="1201.99,-135.11 1191.58,-137.05 1200.94,-142.03 1201.99,-135.11"/>
</g>
<!-- Node27 -->
<g id="node27" class="node">
<title>Node27</title>
<g id="a_node27"><a xlink:href="coprocessor__data__operation_8hpp.html" target="_top" xlink:title="This file defines a coprocessor data operation (CDP).">
<polygon fill="none" stroke="black" points="727.5,-118 727.5,-137 902.5,-137 902.5,-118 727.5,-118"/>
<text text-anchor="middle" x="815" y="-125" font-family="Helvetica,sans-Serif" font-size="10.00">coprocessor_data_operation.hpp</text>
</a>
</g>
</g>
<!-- Node12&#45;&gt;Node27 -->
<g id="edge40" class="edge">
<title>Node12&#45;&gt;Node27</title>
<path fill="none" stroke="midnightblue" d="M1646.42,-187.08C1537.93,-183.98 1194.67,-172.34 912,-143 900.41,-141.8 888.08,-140.2 876.24,-138.51"/>
<polygon fill="midnightblue" stroke="midnightblue" points="876.39,-134.99 865.99,-137 875.37,-141.92 876.39,-134.99"/>
</g>
<!-- Node28 -->
<g id="node28" class="node">
<title>Node28</title>
<g id="a_node28"><a xlink:href="srs_8hpp.html" target="_top" xlink:title="This file defines an SRS instruction (store return state onto a stack).">
<polygon fill="none" stroke="black" points="1516,-118 1516,-137 1568,-137 1568,-118 1516,-118"/>
<text text-anchor="middle" x="1542" y="-125" font-family="Helvetica,sans-Serif" font-size="10.00">srs.hpp</text>
</a>
</g>
</g>
<!-- Node12&#45;&gt;Node28 -->
<g id="edge42" class="edge">
<title>Node12&#45;&gt;Node28</title>
<path fill="none" stroke="midnightblue" d="M1661.08,-179.48C1637.55,-169.4 1598.19,-152.55 1571.21,-141"/>
<polygon fill="midnightblue" stroke="midnightblue" points="1572.45,-137.73 1561.88,-137.01 1569.69,-144.16 1572.45,-137.73"/>
</g>
<!-- Node29 -->
<g id="node29" class="node">
<title>Node29</title>
<g id="a_node29"><a xlink:href="rfe_8hpp.html" target="_top" xlink:title="This file defines an RFE instruction (return from exception).">
<polygon fill="none" stroke="black" points="1586.5,-118 1586.5,-137 1637.5,-137 1637.5,-118 1586.5,-118"/>
<text text-anchor="middle" x="1612" y="-125" font-family="Helvetica,sans-Serif" font-size="10.00">rfe.hpp</text>
</a>
</g>
</g>
<!-- Node12&#45;&gt;Node29 -->
<g id="edge44" class="edge">
<title>Node12&#45;&gt;Node29</title>
<path fill="none" stroke="midnightblue" d="M1671.11,-179.48C1660.35,-170.2 1642.93,-155.17 1629.78,-143.83"/>
<polygon fill="midnightblue" stroke="midnightblue" points="1631.73,-140.89 1621.87,-137.01 1627.16,-146.19 1631.73,-140.89"/>
</g>
<!-- Node30 -->
<g id="node30" class="node">
<title>Node30</title>
<g id="a_node30"><a xlink:href="clz_8hpp.html" target="_top" xlink:title="This file defines a count leading zeros instruction (CLZ).">
<polygon fill="none" stroke="black" points="1655.5,-118 1655.5,-137 1706.5,-137 1706.5,-118 1655.5,-118"/>
<text text-anchor="middle" x="1681" y="-125" font-family="Helvetica,sans-Serif" font-size="10.00">clz.hpp</text>
</a>
</g>
</g>
<!-- Node12&#45;&gt;Node30 -->
<g id="edge46" class="edge">
<title>Node12&#45;&gt;Node30</title>
<path fill="none" stroke="midnightblue" d="M1681,-179.48C1681,-171.08 1681,-157.98 1681,-147.16"/>
<polygon fill="midnightblue" stroke="midnightblue" points="1684.5,-147.01 1681,-137.01 1677.5,-147.01 1684.5,-147.01"/>
</g>
<!-- Node14&#45;&gt;Node13 -->
<g id="edge15" class="edge">
<title>Node14&#45;&gt;Node13</title>
<path fill="none" stroke="midnightblue" d="M1821.53,-117.98C1805.03,-108.25 1777.82,-92.23 1758.32,-80.74"/>
<polygon fill="midnightblue" stroke="midnightblue" points="1759.84,-77.57 1749.44,-75.51 1756.28,-83.6 1759.84,-77.57"/>
</g>
<!-- Node15&#45;&gt;Node13 -->
<g id="edge17" class="edge">
<title>Node15&#45;&gt;Node13</title>
<path fill="none" stroke="midnightblue" d="M1937.39,-117.9C1931.08,-115.88 1924.32,-113.79 1918,-112 1872.54,-99.1 1820.13,-86.44 1783.08,-77.84"/>
<polygon fill="midnightblue" stroke="midnightblue" points="1783.59,-74.37 1773.06,-75.53 1782.01,-81.19 1783.59,-74.37"/>
</g>
<!-- Node16&#45;&gt;Node13 -->
<g id="edge19" class="edge">
<title>Node16&#45;&gt;Node13</title>
<path fill="none" stroke="midnightblue" d="M2037.15,-117.97C2027.65,-115.92 2017.47,-113.8 2008,-112 1932.48,-97.61 1844.69,-83.63 1789.49,-75.16"/>
<polygon fill="midnightblue" stroke="midnightblue" points="1789.98,-71.7 1779.57,-73.65 1788.93,-78.62 1789.98,-71.7"/>
</g>
<!-- Node17&#45;&gt;Node13 -->
<g id="edge21" class="edge">
<title>Node17&#45;&gt;Node13</title>
<path fill="none" stroke="midnightblue" d="M2165.35,-117.93C2158.21,-115.72 2150.36,-113.53 2143,-112 2018.12,-86.09 1868.45,-74.42 1789.68,-69.73"/>
<polygon fill="midnightblue" stroke="midnightblue" points="1789.69,-66.23 1779.5,-69.15 1789.29,-73.22 1789.69,-66.23"/>
</g>
<!-- Node18&#45;&gt;Node13 -->
<g id="edge23" class="edge">
<title>Node18&#45;&gt;Node13</title>
<path fill="none" stroke="midnightblue" d="M2266.88,-117.95C2257.62,-115.73 2247.45,-113.54 2238,-112 2076.18,-85.67 1882.39,-73.8 1789.67,-69.31"/>
<polygon fill="midnightblue" stroke="midnightblue" points="1789.83,-65.81 1779.68,-68.83 1789.5,-72.8 1789.83,-65.81"/>
</g>
<!-- Node19&#45;&gt;Node13 -->
<g id="edge25" class="edge">
<title>Node19&#45;&gt;Node13</title>
<path fill="none" stroke="midnightblue" d="M2396.85,-117.96C2385,-115.74 2372.02,-113.55 2360,-112 2150.16,-85.03 1898.45,-73.07 1789.58,-68.87"/>
<polygon fill="midnightblue" stroke="midnightblue" points="1789.63,-65.37 1779.5,-68.49 1789.36,-72.37 1789.63,-65.37"/>
</g>
<!-- Node20&#45;&gt;Node13 -->
<g id="edge27" class="edge">
<title>Node20&#45;&gt;Node13</title>
<path fill="none" stroke="midnightblue" d="M2552.71,-117.99C2540.95,-115.72 2528,-113.48 2516,-112 2244.94,-78.48 1917.81,-69.85 1789.96,-67.7"/>
<polygon fill="midnightblue" stroke="midnightblue" points="1789.71,-64.19 1779.65,-67.53 1789.59,-71.19 1789.71,-64.19"/>
</g>
<!-- Node21&#45;&gt;Node13 -->
<g id="edge29" class="edge">
<title>Node21&#45;&gt;Node13</title>
<path fill="none" stroke="midnightblue" d="M2708.55,-117.95C2695.55,-115.68 2681.24,-113.46 2668,-112 2336.18,-75.5 1934.74,-68.6 1790.19,-67.3"/>
<polygon fill="midnightblue" stroke="midnightblue" points="1789.85,-63.8 1779.82,-67.21 1789.79,-70.8 1789.85,-63.8"/>
</g>
<!-- Node22&#45;&gt;Node13 -->
<g id="edge31" class="edge">
<title>Node22&#45;&gt;Node13</title>
<path fill="none" stroke="midnightblue" d="M1300.58,-117.91C1307.41,-115.69 1314.94,-113.51 1322,-112 1448.41,-85.04 1600.22,-73.77 1679.93,-69.44"/>
<polygon fill="midnightblue" stroke="midnightblue" points="1680.42,-72.92 1690.22,-68.9 1680.05,-65.93 1680.42,-72.92"/>
</g>
<!-- Node23&#45;&gt;Node13 -->
<g id="edge33" class="edge">
<title>Node23&#45;&gt;Node13</title>
<path fill="none" stroke="midnightblue" d="M1409.23,-117.96C1417.56,-115.84 1426.59,-113.7 1435,-112 1520.04,-94.85 1619.85,-81.14 1680.21,-73.54"/>
<polygon fill="midnightblue" stroke="midnightblue" points="1680.79,-77 1690.28,-72.29 1679.93,-70.05 1680.79,-77"/>
</g>
<!-- Node24&#45;&gt;Node13 -->
<g id="edge35" class="edge">
<title>Node24&#45;&gt;Node13</title>
<path fill="none" stroke="midnightblue" d="M1490.19,-117.99C1495.56,-115.83 1501.45,-113.65 1507,-112 1565.19,-94.71 1633.74,-82.2 1680.37,-74.82"/>
<polygon fill="midnightblue" stroke="midnightblue" points="1680.92,-78.28 1690.27,-73.28 1679.85,-71.36 1680.92,-78.28"/>
</g>
<!-- Node25&#45;&gt;Node13 -->
<g id="edge37" class="edge">
<title>Node25&#45;&gt;Node13</title>
<path fill="none" stroke="midnightblue" d="M1039.25,-113.34C1042.2,-112.85 1045.13,-112.4 1048,-112 1281.59,-79.62 1563.18,-70.42 1680.04,-67.91"/>
<polygon fill="midnightblue" stroke="midnightblue" points="1680.24,-71.4 1690.16,-67.7 1680.09,-64.4 1680.24,-71.4"/>
</g>
<!-- Node26&#45;&gt;Node13 -->
<g id="edge39" class="edge">
<title>Node26&#45;&gt;Node13</title>
<path fill="none" stroke="midnightblue" d="M1190.6,-118C1204.33,-115.86 1219.21,-113.69 1233,-112 1395.03,-92.13 1587.5,-77.32 1680,-70.75"/>
<polygon fill="midnightblue" stroke="midnightblue" points="1680.51,-74.22 1690.24,-70.03 1680.02,-67.24 1680.51,-74.22"/>
</g>
<!-- Node27&#45;&gt;Node13 -->
<g id="edge41" class="edge">
<title>Node27&#45;&gt;Node13</title>
<path fill="none" stroke="midnightblue" d="M865.73,-118C880.61,-115.76 896.92,-113.54 912,-112 1200.3,-82.64 1547.5,-71.57 1679.99,-68.23"/>
<polygon fill="midnightblue" stroke="midnightblue" points="1680.37,-71.72 1690.28,-67.97 1680.2,-64.72 1680.37,-71.72"/>
</g>
<!-- Node28&#45;&gt;Node13 -->
<g id="edge43" class="edge">
<title>Node28&#45;&gt;Node13</title>
<path fill="none" stroke="midnightblue" d="M1562.04,-118C1567.2,-115.93 1572.77,-113.8 1578,-112 1615.87,-98.99 1659.73,-86.64 1691.45,-78.18"/>
<polygon fill="midnightblue" stroke="midnightblue" points="1692.53,-81.51 1701.3,-75.57 1690.74,-74.75 1692.53,-81.51"/>
</g>
<!-- Node29&#45;&gt;Node13 -->
<g id="edge45" class="edge">
<title>Node29&#45;&gt;Node13</title>
<path fill="none" stroke="midnightblue" d="M1629.62,-117.98C1650.17,-108.03 1684.36,-91.49 1708.21,-79.96"/>
<polygon fill="midnightblue" stroke="midnightblue" points="1709.93,-83.01 1717.41,-75.51 1706.88,-76.71 1709.93,-83.01"/>
</g>
<!-- Node30&#45;&gt;Node13 -->
<g id="edge47" class="edge">
<title>Node30&#45;&gt;Node13</title>
<path fill="none" stroke="midnightblue" d="M1688.74,-117.98C1697,-108.87 1710.28,-94.24 1720.49,-82.98"/>
<polygon fill="midnightblue" stroke="midnightblue" points="1723.15,-85.27 1727.28,-75.51 1717.97,-80.56 1723.15,-85.27"/>
</g>
<!-- Node31&#45;&gt;Node13 -->
<g id="edge49" class="edge">
<title>Node31&#45;&gt;Node13</title>
<path fill="none" stroke="midnightblue" d="M1845.51,-248.08C2053.67,-242.28 2769.09,-217.06 2836,-143 2845.24,-132.78 2845.54,-121.94 2836,-112 2799.44,-73.92 2007.19,-68.05 1789.77,-67.16"/>
<polygon fill="midnightblue" stroke="midnightblue" points="1789.57,-63.66 1779.55,-67.12 1789.54,-70.66 1789.57,-63.66"/>
</g>
<!-- Node32&#45;&gt;Node10 -->
<g id="edge62" class="edge">
<title>Node32&#45;&gt;Node10</title>
<path fill="none" stroke="midnightblue" d="M380.19,-307.87C338.82,-296.28 265.24,-275.66 219.45,-262.83"/>
<polygon fill="midnightblue" stroke="midnightblue" points="220.14,-259.39 209.57,-260.06 218.25,-266.13 220.14,-259.39"/>
</g>
<!-- Node33 -->
<g id="node33" class="node">
<title>Node33</title>
<g id="a_node33"><a xlink:href="cp15_8hpp.html" target="_top" xlink:title=" ">
<polygon fill="none" stroke="black" points="484,-241 484,-260 612,-260 612,-241 484,-241"/>
<text text-anchor="middle" x="548" y="-248" font-family="Helvetica,sans-Serif" font-size="10.00">coprocessors/cp15.hpp</text>
</a>
</g>
</g>
<!-- Node32&#45;&gt;Node33 -->
<g id="edge51" class="edge">
<title>Node32&#45;&gt;Node33</title>
<path fill="none" stroke="midnightblue" d="M429.19,-307.87C452.53,-296.8 493.23,-277.49 520.39,-264.6"/>
<polygon fill="midnightblue" stroke="midnightblue" points="522.2,-267.62 529.73,-260.17 519.2,-261.29 522.2,-267.62"/>
</g>
<!-- Node36 -->
<g id="node36" class="node">
<title>Node36</title>
<g id="a_node36"><a xlink:href="peripheral_8hpp.html" target="_top" xlink:title="This file defines an interface for a memory&#45;mapped peripheral.">
<polygon fill="none" stroke="black" points="338.5,-179.5 338.5,-198.5 483.5,-198.5 483.5,-179.5 338.5,-179.5"/>
<text text-anchor="middle" x="411" y="-186.5" font-family="Helvetica,sans-Serif" font-size="10.00">peripherals/peripheral.hpp</text>
</a>
</g>
</g>
<!-- Node32&#45;&gt;Node36 -->
<g id="edge61" class="edge">
<title>Node32&#45;&gt;Node36</title>
<path fill="none" stroke="midnightblue" d="M411,-307.81C411,-287.49 411,-236.55 411,-208.78"/>
<polygon fill="midnightblue" stroke="midnightblue" points="414.5,-208.76 411,-198.76 407.5,-208.76 414.5,-208.76"/>
</g>
<!-- Node33&#45;&gt;Node3 -->
<g id="edge60" class="edge">
<title>Node33&#45;&gt;Node3</title>
<path fill="none" stroke="midnightblue" d="M563.92,-240.8C585.39,-227.88 619.28,-202.63 604,-179 565.01,-118.7 484.97,-90.55 426.12,-77.61"/>
<polygon fill="midnightblue" stroke="midnightblue" points="426.64,-74.14 416.13,-75.51 425.2,-80.99 426.64,-74.14"/>
</g>
<!-- Node33&#45;&gt;Node5 -->
<g id="edge52" class="edge">
<title>Node33&#45;&gt;Node5</title>
<path fill="none" stroke="midnightblue" d="M569.43,-240.91C586.31,-232.85 608.67,-219.03 619,-199 649.31,-140.24 602.28,-62.12 578.02,-28.07"/>
<polygon fill="midnightblue" stroke="midnightblue" points="580.61,-25.68 571.87,-19.69 574.96,-29.82 580.61,-25.68"/>
</g>
<!-- Node34 -->
<g id="node34" class="node">
<title>Node34</title>
<g id="a_node34"><a xlink:title=" ">
<polygon fill="none" stroke="#bfbfbf" points="501.5,-179.5 501.5,-198.5 594.5,-198.5 594.5,-179.5 501.5,-179.5"/>
<text text-anchor="middle" x="548" y="-186.5" font-family="Helvetica,sans-Serif" font-size="10.00">unordered_map</text>
</a>
</g>
</g>
<!-- Node33&#45;&gt;Node34 -->
<g id="edge53" class="edge">
<title>Node33&#45;&gt;Node34</title>
<path fill="none" stroke="midnightblue" d="M548,-240.98C548,-232.58 548,-219.48 548,-208.66"/>
<polygon fill="midnightblue" stroke="midnightblue" points="551.5,-208.51 548,-198.51 544.5,-208.51 551.5,-208.51"/>
</g>
<!-- Node35 -->
<g id="node35" class="node">
<title>Node35</title>
<g id="a_node35"><a xlink:href="coprocessor_8hpp.html" target="_top" xlink:title=" ">
<polygon fill="none" stroke="black" points="728.5,-179.5 728.5,-198.5 823.5,-198.5 823.5,-179.5 728.5,-179.5"/>
<text text-anchor="middle" x="776" y="-186.5" font-family="Helvetica,sans-Serif" font-size="10.00">coprocessor.hpp</text>
</a>
</g>
</g>
<!-- Node33&#45;&gt;Node35 -->
<g id="edge54" class="edge">
<title>Node33&#45;&gt;Node35</title>
<path fill="none" stroke="midnightblue" d="M580.67,-240.98C620.88,-230.48 689.26,-212.64 733.52,-201.09"/>
<polygon fill="midnightblue" stroke="midnightblue" points="734.6,-204.42 743.39,-198.51 732.83,-197.65 734.6,-204.42"/>
</g>
<!-- Node35&#45;&gt;Node2 -->
<g id="edge56" class="edge">
<title>Node35&#45;&gt;Node2</title>
<path fill="none" stroke="midnightblue" d="M728.4,-182.98C621.87,-171.74 365.28,-144.67 259.16,-133.48"/>
<polygon fill="midnightblue" stroke="midnightblue" points="259.38,-129.98 249.07,-132.41 258.65,-136.94 259.38,-129.98"/>
</g>
<!-- Node35&#45;&gt;Node7 -->
<g id="edge55" class="edge">
<title>Node35&#45;&gt;Node7</title>
<path fill="none" stroke="midnightblue" d="M760.57,-179.4C747.72,-171.5 729.83,-158.66 719,-143 694.46,-107.53 683.69,-56.96 679.44,-29.86"/>
<polygon fill="midnightblue" stroke="midnightblue" points="682.88,-29.2 678,-19.8 675.95,-30.2 682.88,-29.2"/>
</g>
<!-- Node35&#45;&gt;Node25 -->
<g id="edge57" class="edge">
<title>Node35&#45;&gt;Node25</title>
<path fill="none" stroke="midnightblue" d="M805.23,-179.48C835.57,-170.63 883.83,-156.55 921.96,-145.43"/>
<polygon fill="midnightblue" stroke="midnightblue" points="923.3,-148.68 931.92,-142.52 921.34,-141.96 923.3,-148.68"/>
</g>
<!-- Node35&#45;&gt;Node26 -->
<g id="edge58" class="edge">
<title>Node35&#45;&gt;Node26</title>
<path fill="none" stroke="midnightblue" d="M823.59,-180.22C888.7,-169.58 1005.67,-150.46 1077.7,-138.68"/>
<polygon fill="midnightblue" stroke="midnightblue" points="1078.69,-142.07 1087.99,-137 1077.56,-135.16 1078.69,-142.07"/>
</g>
<!-- Node35&#45;&gt;Node27 -->
<g id="edge59" class="edge">
<title>Node35&#45;&gt;Node27</title>
<path fill="none" stroke="midnightblue" d="M781.59,-179.48C787.38,-170.64 796.59,-156.59 803.87,-145.48"/>
<polygon fill="midnightblue" stroke="midnightblue" points="806.87,-147.29 809.42,-137.01 801.01,-143.45 806.87,-147.29"/>
</g>
<!-- Node38&#45;&gt;Node2 -->
<g id="edge69" class="edge">
<title>Node38&#45;&gt;Node2</title>
<path fill="none" stroke="midnightblue" d="M279.06,-235.48C262.2,-227.21 243.2,-215.16 231,-199 219.68,-184 215.1,-162.74 213.25,-147.49"/>
<polygon fill="midnightblue" stroke="midnightblue" points="216.71,-146.84 212.3,-137.21 209.73,-147.49 216.71,-146.84"/>
</g>
<!-- Node38&#45;&gt;Node3 -->
<g id="edge70" class="edge">
<title>Node38&#45;&gt;Node3</title>
<path fill="none" stroke="midnightblue" d="M317.95,-235.45C320.94,-221.21 325.74,-198.56 330,-179 337.19,-146.03 345.81,-107.66 350.82,-85.46"/>
<polygon fill="midnightblue" stroke="midnightblue" points="354.23,-86.23 353.03,-75.71 347.41,-84.69 354.23,-86.23"/>
</g>
<!-- Node38&#45;&gt;Node34 -->
<g id="edge67" class="edge">
<title>Node38&#45;&gt;Node34</title>
<path fill="none" stroke="midnightblue" d="M369.92,-235.47C411.17,-224.94 466.88,-210.72 504.93,-201"/>
<polygon fill="midnightblue" stroke="midnightblue" points="505.87,-204.37 514.69,-198.51 504.13,-197.59 505.87,-204.37"/>
</g>
<!-- Node38&#45;&gt;Node36 -->
<g id="edge68" class="edge">
<title>Node38&#45;&gt;Node36</title>
<path fill="none" stroke="midnightblue" d="M337.75,-235.4C352.99,-225.95 372.99,-213.56 388.24,-204.11"/>
<polygon fill="midnightblue" stroke="midnightblue" points="390.38,-206.9 397.03,-198.66 386.69,-200.95 390.38,-206.9"/>
</g>
<!-- Node39 -->
<g id="node39" class="node">
<title>Node39</title>
<g id="a_node39"><a xlink:title=" ">
<polygon fill="none" stroke="#bfbfbf" points="240,-179.5 240,-198.5 282,-198.5 282,-179.5 240,-179.5"/>
<text text-anchor="middle" x="261" y="-186.5" font-family="Helvetica,sans-Serif" font-size="10.00">array</text>
</a>
</g>
</g>
<!-- Node38&#45;&gt;Node39 -->
<g id="edge66" class="edge">
<title>Node38&#45;&gt;Node39</title>
<path fill="none" stroke="midnightblue" d="M302.2,-235.4C294.28,-226.66 284.06,-215.41 275.79,-206.3"/>
<polygon fill="midnightblue" stroke="midnightblue" points="278.17,-203.71 268.86,-198.66 272.99,-208.42 278.17,-203.71"/>
</g>
</g>
</svg>
