<?xml version="1.0" encoding="UTF-8" standalone="no"?>
<!DOCTYPE svg PUBLIC "-//W3C//DTD SVG 1.1//EN"
 "http://www.w3.org/Graphics/SVG/1.1/DTD/svg11.dtd">
<!-- Generated by graphviz version 2.43.0 (0)
 -->
<!-- Title: src/core/arm1176jzf_s/core.cpp Pages: 1 -->
<svg width="2660pt" height="453pt"
 viewBox="0.00 0.00 2659.51 453.00" xmlns="http://www.w3.org/2000/svg" xmlns:xlink="http://www.w3.org/1999/xlink">
<g id="graph0" class="graph" transform="scale(1 1) rotate(0) translate(4 449)">
<title>src/core/arm1176jzf_s/core.cpp</title>
<!-- Node1 -->
<g id="node1" class="node">
<title>Node1</title>
<g id="a_node1"><a xlink:title="This file implements the CCPU_Core class defined in core.hpp.">
<polygon fill="#bfbfbf" stroke="black" points="1622.37,-414.5 1622.37,-444.5 1735.37,-444.5 1735.37,-414.5 1622.37,-414.5"/>
<text text-anchor="start" x="1630.37" y="-432.5" font-family="Helvetica,sans-Serif" font-size="10.00">src/core/arm1176jzf</text>
<text text-anchor="middle" x="1678.87" y="-421.5" font-family="Helvetica,sans-Serif" font-size="10.00">_s/core.cpp</text>
</a>
</g>
</g>
<!-- Node2 -->
<g id="node2" class="node">
<title>Node2</title>
<g id="a_node2"><a xlink:title=" ">
<polygon fill="none" stroke="#bfbfbf" points="325.37,-358.5 325.37,-377.5 426.37,-377.5 426.37,-358.5 325.37,-358.5"/>
<text text-anchor="middle" x="375.87" y="-365.5" font-family="Helvetica,sans-Serif" font-size="10.00">magic_enum.hpp</text>
</a>
</g>
</g>
<!-- Node1&#45;&gt;Node2 -->
<g id="edge1" class="edge">
<title>Node1&#45;&gt;Node2</title>
<path fill="none" stroke="midnightblue" d="M1622.31,-428.43C1447.39,-427.75 899.64,-422.05 436.9,-378.09"/>
<polygon fill="midnightblue" stroke="midnightblue" points="436.96,-374.58 426.68,-377.12 436.3,-381.55 436.96,-374.58"/>
</g>
<!-- Node3 -->
<g id="node3" class="node">
<title>Node3</title>
<g id="a_node3"><a xlink:href="alu_8hpp.html" target="_top" xlink:title="This file defines the functionality of the arithmetic logic unit (ALU).">
<polygon fill="none" stroke="black" points="1652.37,-235.5 1652.37,-254.5 1705.37,-254.5 1705.37,-235.5 1652.37,-235.5"/>
<text text-anchor="middle" x="1678.87" y="-242.5" font-family="Helvetica,sans-Serif" font-size="10.00">alu.hpp</text>
</a>
</g>
</g>
<!-- Node1&#45;&gt;Node3 -->
<g id="edge2" class="edge">
<title>Node1&#45;&gt;Node3</title>
<path fill="none" stroke="midnightblue" d="M1678.87,-414.48C1678.87,-382.1 1678.87,-302.04 1678.87,-265.16"/>
<polygon fill="midnightblue" stroke="midnightblue" points="1682.37,-264.82 1678.87,-254.82 1675.37,-264.82 1682.37,-264.82"/>
</g>
<!-- Node6 -->
<g id="node6" class="node">
<title>Node6</title>
<g id="a_node6"><a xlink:href="mac_8hpp.html" target="_top" xlink:title="This file defines the functionality of the CPU multiplier (MAC unit).">
<polygon fill="none" stroke="black" points="2413.37,-179.5 2413.37,-198.5 2472.37,-198.5 2472.37,-179.5 2413.37,-179.5"/>
<text text-anchor="middle" x="2442.87" y="-186.5" font-family="Helvetica,sans-Serif" font-size="10.00">mac.hpp</text>
</a>
</g>
</g>
<!-- Node1&#45;&gt;Node6 -->
<g id="edge5" class="edge">
<title>Node1&#45;&gt;Node6</title>
<path fill="none" stroke="midnightblue" d="M1718.4,-414.39C1759.57,-399.82 1826.02,-376.63 1883.87,-358 2077.95,-295.49 2312.27,-227.46 2403.68,-201.2"/>
<polygon fill="midnightblue" stroke="midnightblue" points="2404.7,-204.55 2413.35,-198.43 2402.77,-197.82 2404.7,-204.55"/>
</g>
<!-- Node9 -->
<g id="node9" class="node">
<title>Node9</title>
<g id="a_node9"><a xlink:href="core_8hpp.html" target="_top" xlink:title="This file defines a class that represents a CPU core (arm1176jzf_s).">
<polygon fill="none" stroke="black" points="444.37,-358.5 444.37,-377.5 503.37,-377.5 503.37,-358.5 444.37,-358.5"/>
<text text-anchor="middle" x="473.87" y="-365.5" font-family="Helvetica,sans-Serif" font-size="10.00">core.hpp</text>
</a>
</g>
</g>
<!-- Node1&#45;&gt;Node9 -->
<g id="edge10" class="edge">
<title>Node1&#45;&gt;Node9</title>
<path fill="none" stroke="midnightblue" d="M1622.37,-425.71C1413.98,-415.42 691.42,-379.74 513.63,-370.96"/>
<polygon fill="midnightblue" stroke="midnightblue" points="513.58,-367.46 503.42,-370.46 513.24,-374.45 513.58,-367.46"/>
</g>
<!-- Node44 -->
<g id="node44" class="node">
<title>Node44</title>
<g id="a_node44"><a xlink:href="singleton_8hpp.html" target="_top" xlink:title="This file defines and implements a generic class that is used to treat other classes as singletons.">
<polygon fill="none" stroke="black" points="1892.87,-358.5 1892.87,-377.5 2008.87,-377.5 2008.87,-358.5 1892.87,-358.5"/>
<text text-anchor="middle" x="1950.87" y="-365.5" font-family="Helvetica,sans-Serif" font-size="10.00">../utils/singleton.hpp</text>
</a>
</g>
</g>
<!-- Node1&#45;&gt;Node44 -->
<g id="edge77" class="edge">
<title>Node1&#45;&gt;Node44</title>
<path fill="none" stroke="midnightblue" d="M1735.56,-416.1C1784.73,-405.34 1855.17,-389.94 1901.92,-379.71"/>
<polygon fill="midnightblue" stroke="midnightblue" points="1902.79,-383.1 1911.82,-377.54 1901.3,-376.26 1902.79,-383.1"/>
</g>
<!-- Node4 -->
<g id="node4" class="node">
<title>Node4</title>
<g id="a_node4"><a xlink:href="data__processing_8hpp.html" target="_top" xlink:title="This file defines a data processing instruction.">
<polygon fill="none" stroke="black" points="2243.87,-118 2243.87,-137 2377.87,-137 2377.87,-118 2243.87,-118"/>
<text text-anchor="middle" x="2310.87" y="-125" font-family="Helvetica,sans-Serif" font-size="10.00">isa/data_processing.hpp</text>
</a>
</g>
</g>
<!-- Node3&#45;&gt;Node4 -->
<g id="edge3" class="edge">
<title>Node3&#45;&gt;Node4</title>
<path fill="none" stroke="midnightblue" d="M1705.57,-236.91C1708.37,-236.23 1711.17,-235.58 1713.87,-235 1943.25,-185.29 2002.99,-185.16 2233.87,-143 2241.05,-141.69 2248.6,-140.29 2256.05,-138.9"/>
<polygon fill="midnightblue" stroke="midnightblue" points="2256.92,-142.3 2266.1,-137.02 2255.63,-135.42 2256.92,-142.3"/>
</g>
<!-- Node5 -->
<g id="node5" class="node">
<title>Node5</title>
<g id="a_node5"><a xlink:href="instruction_8hpp.html" target="_top" xlink:title="This file defines the interface of a general ARM instruction.">
<polygon fill="none" stroke="black" points="1468.37,-56.5 1468.37,-75.5 1557.37,-75.5 1557.37,-56.5 1468.37,-56.5"/>
<text text-anchor="middle" x="1512.87" y="-63.5" font-family="Helvetica,sans-Serif" font-size="10.00">instruction.hpp</text>
</a>
</g>
</g>
<!-- Node4&#45;&gt;Node5 -->
<g id="edge4" class="edge">
<title>Node4&#45;&gt;Node5</title>
<path fill="none" stroke="midnightblue" d="M2270.66,-117.95C2258.85,-115.71 2245.89,-113.5 2233.87,-112 1986.58,-81.12 1688.79,-71.07 1567.88,-68.11"/>
<polygon fill="midnightblue" stroke="midnightblue" points="1567.85,-64.61 1557.77,-67.87 1567.68,-71.61 1567.85,-64.61"/>
</g>
<!-- Node7 -->
<g id="node7" class="node">
<title>Node7</title>
<g id="a_node7"><a xlink:href="multiply_8hpp.html" target="_top" xlink:title="This file defines a multiplication instruction (MUL, MLA).">
<polygon fill="none" stroke="black" points="2395.87,-118 2395.87,-137 2489.87,-137 2489.87,-118 2395.87,-118"/>
<text text-anchor="middle" x="2442.87" y="-125" font-family="Helvetica,sans-Serif" font-size="10.00">isa/multiply.hpp</text>
</a>
</g>
</g>
<!-- Node6&#45;&gt;Node7 -->
<g id="edge6" class="edge">
<title>Node6&#45;&gt;Node7</title>
<path fill="none" stroke="midnightblue" d="M2442.87,-179.48C2442.87,-171.08 2442.87,-157.98 2442.87,-147.16"/>
<polygon fill="midnightblue" stroke="midnightblue" points="2446.37,-147.01 2442.87,-137.01 2439.37,-147.01 2446.37,-147.01"/>
</g>
<!-- Node8 -->
<g id="node8" class="node">
<title>Node8</title>
<g id="a_node8"><a xlink:href="multiply__long_8hpp.html" target="_top" xlink:title="This file defines a multiplication (long) instruction.">
<polygon fill="none" stroke="black" points="2507.87,-118 2507.87,-137 2629.87,-137 2629.87,-118 2507.87,-118"/>
<text text-anchor="middle" x="2568.87" y="-125" font-family="Helvetica,sans-Serif" font-size="10.00">isa/multiply_long.hpp</text>
</a>
</g>
</g>
<!-- Node6&#45;&gt;Node8 -->
<g id="edge8" class="edge">
<title>Node6&#45;&gt;Node8</title>
<path fill="none" stroke="midnightblue" d="M2460.92,-179.48C2482.07,-169.49 2517.31,-152.85 2541.75,-141.31"/>
<polygon fill="midnightblue" stroke="midnightblue" points="2543.3,-144.44 2550.85,-137.01 2540.32,-138.11 2543.3,-144.44"/>
</g>
<!-- Node7&#45;&gt;Node5 -->
<g id="edge7" class="edge">
<title>Node7&#45;&gt;Node5</title>
<path fill="none" stroke="midnightblue" d="M2414.61,-118C2405.81,-115.67 2396,-113.4 2386.87,-112 2227.89,-87.58 1734.05,-72.77 1567.99,-68.38"/>
<polygon fill="midnightblue" stroke="midnightblue" points="1567.62,-64.87 1557.53,-68.11 1567.44,-71.87 1567.62,-64.87"/>
</g>
<!-- Node8&#45;&gt;Node5 -->
<g id="edge9" class="edge">
<title>Node8&#45;&gt;Node5</title>
<path fill="none" stroke="midnightblue" d="M2533.08,-117.95C2522.16,-115.65 2510.08,-113.41 2498.87,-112 2146.46,-67.74 1718.33,-65.65 1568.13,-66.46"/>
<polygon fill="midnightblue" stroke="midnightblue" points="1567.78,-62.96 1557.8,-66.52 1567.82,-69.96 1567.78,-62.96"/>
</g>
<!-- Node10 -->
<g id="node10" class="node">
<title>Node10</title>
<g id="a_node10"><a xlink:href="context_8hpp.html" target="_top" xlink:title="This file defines the context (registers) of the CPU.">
<polygon fill="none" stroke="black" points="169.87,-118 169.87,-137 243.87,-137 243.87,-118 169.87,-118"/>
<text text-anchor="middle" x="206.87" y="-125" font-family="Helvetica,sans-Serif" font-size="10.00">context.hpp</text>
</a>
</g>
</g>
<!-- Node9&#45;&gt;Node10 -->
<g id="edge11" class="edge">
<title>Node9&#45;&gt;Node10</title>
<path fill="none" stroke="midnightblue" d="M444.27,-360.03C405.27,-350.59 339.05,-333.59 316.87,-322 297.56,-311.9 297.67,-302.03 278.87,-291 241.36,-268.99 212.32,-290.97 187.87,-255 165.28,-221.76 184.12,-172.3 197.11,-146.16"/>
<polygon fill="midnightblue" stroke="midnightblue" points="200.33,-147.56 201.86,-137.08 194.13,-144.32 200.33,-147.56"/>
</g>
<!-- Node11 -->
<g id="node11" class="node">
<title>Node11</title>
<g id="a_node11"><a xlink:href="logger_8hpp.html" target="_top" xlink:title=" ">
<polygon fill="none" stroke="black" points="157.87,-56.5 157.87,-75.5 291.87,-75.5 291.87,-56.5 157.87,-56.5"/>
<text text-anchor="middle" x="224.87" y="-63.5" font-family="Helvetica,sans-Serif" font-size="10.00">../utils/logger/logger.hpp</text>
</a>
</g>
</g>
<!-- Node9&#45;&gt;Node11 -->
<g id="edge71" class="edge">
<title>Node9&#45;&gt;Node11</title>
<path fill="none" stroke="midnightblue" d="M444.15,-359.69C441.03,-359.06 437.89,-358.48 434.87,-358 343.66,-343.58 91.13,-381.93 20.87,-322 -5.62,-299.4 1.87,-280.82 1.87,-246 1.87,-246 1.87,-246 1.87,-188 1.87,-119.95 83.08,-89.97 147.49,-76.89"/>
<polygon fill="midnightblue" stroke="midnightblue" points="148.5,-80.26 157.66,-74.93 147.18,-73.38 148.5,-80.26"/>
</g>
<!-- Node18 -->
<g id="node18" class="node">
<title>Node18</title>
<g id="a_node18"><a xlink:href="exceptions_8hpp.html" target="_top" xlink:title="This file defines all exceptions that can be thrown by the CPU during execution.">
<polygon fill="none" stroke="black" points="360.37,-235.5 360.37,-254.5 451.37,-254.5 451.37,-235.5 360.37,-235.5"/>
<text text-anchor="middle" x="405.87" y="-242.5" font-family="Helvetica,sans-Serif" font-size="10.00">exceptions.hpp</text>
</a>
</g>
</g>
<!-- Node9&#45;&gt;Node18 -->
<g id="edge19" class="edge">
<title>Node9&#45;&gt;Node18</title>
<path fill="none" stroke="midnightblue" d="M473.17,-358.43C471.63,-343.69 467,-313.03 453.87,-291 446.91,-279.31 436.03,-268.76 426.39,-260.82"/>
<polygon fill="midnightblue" stroke="midnightblue" points="428.4,-257.94 418.37,-254.54 424.09,-263.46 428.4,-257.94"/>
</g>
<!-- Node20 -->
<g id="node20" class="node">
<title>Node20</title>
<g id="a_node20"><a xlink:href="isa_8hpp.html" target="_top" xlink:title="This file is just a helper file for including all ARM instructions supported by the emulator.">
<polygon fill="none" stroke="black" points="1351.37,-179.5 1351.37,-198.5 1420.37,-198.5 1420.37,-179.5 1351.37,-179.5"/>
<text text-anchor="middle" x="1385.87" y="-186.5" font-family="Helvetica,sans-Serif" font-size="10.00">isa/isa.hpp</text>
</a>
</g>
</g>
<!-- Node9&#45;&gt;Node20 -->
<g id="edge22" class="edge">
<title>Node9&#45;&gt;Node20</title>
<path fill="none" stroke="midnightblue" d="M503.44,-361.26C636.51,-335.44 1180.32,-229.89 1340.98,-198.71"/>
<polygon fill="midnightblue" stroke="midnightblue" points="1341.85,-202.11 1351,-196.77 1340.51,-195.24 1341.85,-202.11"/>
</g>
<!-- Node35 -->
<g id="node35" class="node">
<title>Node35</title>
<g id="a_node35"><a xlink:href="isa__decoder_8hpp.html" target="_top" xlink:title="This file defines an instruction decoder.">
<polygon fill="none" stroke="black" points="1723.37,-235.5 1723.37,-254.5 1836.37,-254.5 1836.37,-235.5 1723.37,-235.5"/>
<text text-anchor="middle" x="1779.87" y="-242.5" font-family="Helvetica,sans-Serif" font-size="10.00">isa/isa_decoder.hpp</text>
</a>
</g>
</g>
<!-- Node9&#45;&gt;Node35 -->
<g id="edge55" class="edge">
<title>Node9&#45;&gt;Node35</title>
<path fill="none" stroke="midnightblue" d="M503.67,-364.81C640.65,-354.65 1223.64,-310.24 1713.27,-255.02"/>
<polygon fill="midnightblue" stroke="midnightblue" points="1713.82,-258.48 1723.37,-253.88 1713.04,-251.52 1713.82,-258.48"/>
</g>
<!-- Node36 -->
<g id="node36" class="node">
<title>Node36</title>
<g id="a_node36"><a xlink:href="bus_8hpp.html" target="_top" xlink:title="This file defines an interface the CPU uses to access different memory&#45;mapped peripherals.">
<polygon fill="none" stroke="black" points="501.87,-297 501.87,-316 565.87,-316 565.87,-297 501.87,-297"/>
<text text-anchor="middle" x="533.87" y="-304" font-family="Helvetica,sans-Serif" font-size="10.00">../bus.hpp</text>
</a>
</g>
</g>
<!-- Node9&#45;&gt;Node36 -->
<g id="edge57" class="edge">
<title>Node9&#45;&gt;Node36</title>
<path fill="none" stroke="midnightblue" d="M482.47,-358.48C491.74,-349.28 506.69,-334.46 518.08,-323.16"/>
<polygon fill="midnightblue" stroke="midnightblue" points="520.66,-325.54 525.29,-316.01 515.73,-320.57 520.66,-325.54"/>
</g>
<!-- Node41 -->
<g id="node41" class="node">
<title>Node41</title>
<g id="a_node41"><a xlink:href="math_8hpp.html" target="_top" xlink:title="This file defines and implements a variety of handy helper functions that are used throughout the pro...">
<polygon fill="none" stroke="black" points="173.87,-297 173.87,-316 269.87,-316 269.87,-297 173.87,-297"/>
<text text-anchor="middle" x="221.87" y="-304" font-family="Helvetica,sans-Serif" font-size="10.00">../utils/math.hpp</text>
</a>
</g>
</g>
<!-- Node9&#45;&gt;Node41 -->
<g id="edge70" class="edge">
<title>Node9&#45;&gt;Node41</title>
<path fill="none" stroke="midnightblue" d="M443.97,-359.94C400.46,-349.67 319.3,-330.5 268.07,-318.41"/>
<polygon fill="midnightblue" stroke="midnightblue" points="268.77,-314.98 258.24,-316.09 267.17,-321.79 268.77,-314.98"/>
</g>
<!-- Node42 -->
<g id="node42" class="node">
<title>Node42</title>
<g id="a_node42"><a xlink:href="interrupt__controller_8hpp.html" target="_top" xlink:title="This file defines the interrupt controller used BCM2835.">
<polygon fill="none" stroke="black" points="30.37,-291.5 30.37,-321.5 155.37,-321.5 155.37,-291.5 30.37,-291.5"/>
<text text-anchor="start" x="38.37" y="-309.5" font-family="Helvetica,sans-Serif" font-size="10.00">../peripherals/interrupt</text>
<text text-anchor="middle" x="92.87" y="-298.5" font-family="Helvetica,sans-Serif" font-size="10.00">_controller.hpp</text>
</a>
</g>
</g>
<!-- Node9&#45;&gt;Node42 -->
<g id="edge72" class="edge">
<title>Node9&#45;&gt;Node42</title>
<path fill="none" stroke="midnightblue" d="M444.12,-359.83C441.01,-359.17 437.88,-358.55 434.87,-358 318.9,-336.94 286,-341.69 165.63,-322.05"/>
<polygon fill="midnightblue" stroke="midnightblue" points="166.09,-318.58 155.66,-320.4 164.95,-325.48 166.09,-318.58"/>
</g>
<!-- Node43 -->
<g id="node43" class="node">
<title>Node43</title>
<g id="a_node43"><a xlink:href="system__clock__listener_8hpp.html" target="_top" xlink:title="This file defines an interface for a CPU clock listener.">
<polygon fill="none" stroke="black" points="326.37,-291.5 326.37,-321.5 445.37,-321.5 445.37,-291.5 326.37,-291.5"/>
<text text-anchor="start" x="334.37" y="-309.5" font-family="Helvetica,sans-Serif" font-size="10.00">../peripherals/system</text>
<text text-anchor="middle" x="385.87" y="-298.5" font-family="Helvetica,sans-Serif" font-size="10.00">_clock_listener.hpp</text>
</a>
</g>
</g>
<!-- Node9&#45;&gt;Node43 -->
<g id="edge76" class="edge">
<title>Node9&#45;&gt;Node43</title>
<path fill="none" stroke="midnightblue" d="M461.26,-358.48C449.23,-350.34 430.67,-337.79 414.98,-327.18"/>
<polygon fill="midnightblue" stroke="midnightblue" points="416.86,-324.22 406.61,-321.52 412.94,-330.02 416.86,-324.22"/>
</g>
<!-- Node10&#45;&gt;Node11 -->
<g id="edge12" class="edge">
<title>Node10&#45;&gt;Node11</title>
<path fill="none" stroke="midnightblue" d="M209.45,-117.98C212.02,-109.49 216.04,-96.2 219.33,-85.32"/>
<polygon fill="midnightblue" stroke="midnightblue" points="222.75,-86.09 222.3,-75.51 216.05,-84.07 222.75,-86.09"/>
</g>
<!-- Node12 -->
<g id="node12" class="node">
<title>Node12</title>
<g id="a_node12"><a xlink:title=" ">
<polygon fill="none" stroke="#bfbfbf" points="203.87,-0.5 203.87,-19.5 251.87,-19.5 251.87,-0.5 203.87,-0.5"/>
<text text-anchor="middle" x="227.87" y="-7.5" font-family="Helvetica,sans-Serif" font-size="10.00">mutex</text>
</a>
</g>
</g>
<!-- Node11&#45;&gt;Node12 -->
<g id="edge13" class="edge">
<title>Node11&#45;&gt;Node12</title>
<path fill="none" stroke="midnightblue" d="M225.37,-56.08C225.76,-49.01 226.32,-38.86 226.82,-29.99"/>
<polygon fill="midnightblue" stroke="midnightblue" points="230.33,-29.93 227.39,-19.75 223.34,-29.54 230.33,-29.93"/>
</g>
<!-- Node13 -->
<g id="node13" class="node">
<title>Node13</title>
<g id="a_node13"><a xlink:title=" ">
<polygon fill="none" stroke="#bfbfbf" points="355.37,-0.5 355.37,-19.5 402.37,-19.5 402.37,-0.5 355.37,-0.5"/>
<text text-anchor="middle" x="378.87" y="-7.5" font-family="Helvetica,sans-Serif" font-size="10.00">vector</text>
</a>
</g>
</g>
<!-- Node11&#45;&gt;Node13 -->
<g id="edge14" class="edge">
<title>Node11&#45;&gt;Node13</title>
<path fill="none" stroke="midnightblue" d="M249.27,-56.44C275.3,-47.32 316.67,-32.81 345.65,-22.65"/>
<polygon fill="midnightblue" stroke="midnightblue" points="347.06,-25.86 355.34,-19.25 344.75,-19.26 347.06,-25.86"/>
</g>
<!-- Node14 -->
<g id="node14" class="node">
<title>Node14</title>
<g id="a_node14"><a xlink:title=" ">
<polygon fill="none" stroke="#bfbfbf" points="269.87,-0.5 269.87,-19.5 327.87,-19.5 327.87,-0.5 269.87,-0.5"/>
<text text-anchor="middle" x="298.87" y="-7.5" font-family="Helvetica,sans-Serif" font-size="10.00">memory</text>
</a>
</g>
</g>
<!-- Node11&#45;&gt;Node14 -->
<g id="edge15" class="edge">
<title>Node11&#45;&gt;Node14</title>
<path fill="none" stroke="midnightblue" d="M236.76,-56.32C248.02,-48.11 265.16,-35.6 278.58,-25.81"/>
<polygon fill="midnightblue" stroke="midnightblue" points="280.75,-28.56 286.77,-19.83 276.63,-22.9 280.75,-28.56"/>
</g>
<!-- Node15 -->
<g id="node15" class="node">
<title>Node15</title>
<g id="a_node15"><a xlink:title=" ">
<polygon fill="none" stroke="#bfbfbf" points="424.87,-0.5 424.87,-19.5 474.87,-19.5 474.87,-0.5 424.87,-0.5"/>
<text text-anchor="middle" x="449.87" y="-7.5" font-family="Helvetica,sans-Serif" font-size="10.00">cstdint</text>
</a>
</g>
</g>
<!-- Node11&#45;&gt;Node15 -->
<g id="edge16" class="edge">
<title>Node11&#45;&gt;Node15</title>
<path fill="none" stroke="midnightblue" d="M260.52,-56.44C302.88,-46.28 373.07,-29.43 415.06,-19.36"/>
<polygon fill="midnightblue" stroke="midnightblue" points="415.93,-22.75 424.84,-17.01 414.3,-15.94 415.93,-22.75"/>
</g>
<!-- Node16 -->
<g id="node16" class="node">
<title>Node16</title>
<g id="a_node16"><a xlink:title=" ">
<polygon fill="none" stroke="#bfbfbf" points="1.37,-0.5 1.37,-19.5 74.37,-19.5 74.37,-0.5 1.37,-0.5"/>
<text text-anchor="middle" x="37.87" y="-7.5" font-family="Helvetica,sans-Serif" font-size="10.00">string_view</text>
</a>
</g>
</g>
<!-- Node11&#45;&gt;Node16 -->
<g id="edge17" class="edge">
<title>Node11&#45;&gt;Node16</title>
<path fill="none" stroke="midnightblue" d="M195.24,-56.44C163.37,-47.24 112.54,-32.56 77.31,-22.39"/>
<polygon fill="midnightblue" stroke="midnightblue" points="77.94,-18.93 67.36,-19.52 76,-25.65 77.94,-18.93"/>
</g>
<!-- Node17 -->
<g id="node17" class="node">
<title>Node17</title>
<g id="a_node17"><a xlink:title=" ">
<polygon fill="none" stroke="#bfbfbf" points="92.37,-0.5 92.37,-19.5 185.37,-19.5 185.37,-0.5 92.37,-0.5"/>
<text text-anchor="middle" x="138.87" y="-7.5" font-family="Helvetica,sans-Serif" font-size="10.00">source_location</text>
</a>
</g>
</g>
<!-- Node11&#45;&gt;Node17 -->
<g id="edge18" class="edge">
<title>Node11&#45;&gt;Node17</title>
<path fill="none" stroke="midnightblue" d="M211.05,-56.32C197.64,-47.9 177.05,-34.97 161.29,-25.07"/>
<polygon fill="midnightblue" stroke="midnightblue" points="162.99,-22.01 152.66,-19.65 159.26,-27.94 162.99,-22.01"/>
</g>
<!-- Node18&#45;&gt;Node10 -->
<g id="edge21" class="edge">
<title>Node18&#45;&gt;Node10</title>
<path fill="none" stroke="midnightblue" d="M361.89,-235.42C311.81,-225.29 235.64,-208.59 225.87,-199 212.19,-185.56 208.04,-163.39 206.94,-147.49"/>
<polygon fill="midnightblue" stroke="midnightblue" points="210.43,-147.12 206.58,-137.25 203.43,-147.36 210.43,-147.12"/>
</g>
<!-- Node19 -->
<g id="node19" class="node">
<title>Node19</title>
<g id="a_node19"><a xlink:title=" ">
<polygon fill="none" stroke="#bfbfbf" points="235.37,-179.5 235.37,-198.5 314.37,-198.5 314.37,-179.5 235.37,-179.5"/>
<text text-anchor="middle" x="274.87" y="-186.5" font-family="Helvetica,sans-Serif" font-size="10.00">fmt/format.h</text>
</a>
</g>
</g>
<!-- Node18&#45;&gt;Node19 -->
<g id="edge20" class="edge">
<title>Node18&#45;&gt;Node19</title>
<path fill="none" stroke="midnightblue" d="M385.11,-235.44C363.56,-226.56 329.61,-212.56 305.08,-202.45"/>
<polygon fill="midnightblue" stroke="midnightblue" points="306.11,-199.09 295.53,-198.52 303.44,-205.56 306.11,-199.09"/>
</g>
<!-- Node20&#45;&gt;Node4 -->
<g id="edge28" class="edge">
<title>Node20&#45;&gt;Node4</title>
<path fill="none" stroke="midnightblue" d="M1420.75,-187.81C1536.73,-186.82 1919.89,-180.72 2233.87,-143 2242.7,-141.94 2252.05,-140.47 2261.07,-138.88"/>
<polygon fill="midnightblue" stroke="midnightblue" points="2261.86,-142.29 2271.06,-137.04 2260.6,-135.41 2261.86,-142.29"/>
</g>
<!-- Node20&#45;&gt;Node5 -->
<g id="edge23" class="edge">
<title>Node20&#45;&gt;Node5</title>
<path fill="none" stroke="midnightblue" d="M1354.06,-179.38C1335.93,-172.66 1314.71,-161.31 1303.87,-143 1296.85,-131.14 1295.22,-122.72 1303.87,-112 1322.92,-88.42 1402.74,-76.61 1458.03,-71.15"/>
<polygon fill="midnightblue" stroke="midnightblue" points="1458.42,-74.63 1468.05,-70.2 1457.76,-67.66 1458.42,-74.63"/>
</g>
<!-- Node20&#45;&gt;Node7 -->
<g id="edge29" class="edge">
<title>Node20&#45;&gt;Node7</title>
<path fill="none" stroke="midnightblue" d="M1420.62,-187.41C1574.39,-184.65 2194.52,-171.9 2386.87,-143 2392.73,-142.12 2398.85,-140.88 2404.82,-139.48"/>
<polygon fill="midnightblue" stroke="midnightblue" points="2405.77,-142.86 2414.62,-137.04 2404.07,-136.06 2405.77,-142.86"/>
</g>
<!-- Node20&#45;&gt;Node8 -->
<g id="edge30" class="edge">
<title>Node20&#45;&gt;Node8</title>
<path fill="none" stroke="midnightblue" d="M1420.56,-187.36C1584.49,-184.24 2282.58,-169.59 2498.87,-143 2506.93,-142.01 2515.44,-140.58 2523.64,-139"/>
<polygon fill="midnightblue" stroke="midnightblue" points="2524.34,-142.43 2533.45,-137.01 2522.95,-135.57 2524.34,-142.43"/>
</g>
<!-- Node21 -->
<g id="node21" class="node">
<title>Node21</title>
<g id="a_node21"><a xlink:href="branch__and__exchange_8hpp.html" target="_top" xlink:title="This file defines a branch and exchange instruction (BX).">
<polygon fill="none" stroke="black" points="1312.87,-118 1312.87,-137 1458.87,-137 1458.87,-118 1312.87,-118"/>
<text text-anchor="middle" x="1385.87" y="-125" font-family="Helvetica,sans-Serif" font-size="10.00">branch_and_exchange.hpp</text>
</a>
</g>
</g>
<!-- Node20&#45;&gt;Node21 -->
<g id="edge24" class="edge">
<title>Node20&#45;&gt;Node21</title>
<path fill="none" stroke="midnightblue" d="M1385.87,-179.48C1385.87,-171.08 1385.87,-157.98 1385.87,-147.16"/>
<polygon fill="midnightblue" stroke="midnightblue" points="1389.37,-147.01 1385.87,-137.01 1382.37,-147.01 1389.37,-147.01"/>
</g>
<!-- Node22 -->
<g id="node22" class="node">
<title>Node22</title>
<g id="a_node22"><a xlink:href="branch_8hpp.html" target="_top" xlink:title="This file defines a branch instruction (B, BL).">
<polygon fill="none" stroke="black" points="1477.37,-118 1477.37,-137 1548.37,-137 1548.37,-118 1477.37,-118"/>
<text text-anchor="middle" x="1512.87" y="-125" font-family="Helvetica,sans-Serif" font-size="10.00">branch.hpp</text>
</a>
</g>
</g>
<!-- Node20&#45;&gt;Node22 -->
<g id="edge26" class="edge">
<title>Node20&#45;&gt;Node22</title>
<path fill="none" stroke="midnightblue" d="M1404.07,-179.48C1425.38,-169.49 1460.9,-152.85 1485.54,-141.31"/>
<polygon fill="midnightblue" stroke="midnightblue" points="1487.14,-144.42 1494.71,-137.01 1484.17,-138.08 1487.14,-144.42"/>
</g>
<!-- Node23 -->
<g id="node23" class="node">
<title>Node23</title>
<g id="a_node23"><a xlink:href="single__data__transfer_8hpp.html" target="_top" xlink:title="This file defines single data transfer instruction (LDR, STR).">
<polygon fill="none" stroke="black" points="1566.37,-118 1566.37,-137 1703.37,-137 1703.37,-118 1566.37,-118"/>
<text text-anchor="middle" x="1634.87" y="-125" font-family="Helvetica,sans-Serif" font-size="10.00">single_data_transfer.hpp</text>
</a>
</g>
</g>
<!-- Node20&#45;&gt;Node23 -->
<g id="edge31" class="edge">
<title>Node20&#45;&gt;Node23</title>
<path fill="none" stroke="midnightblue" d="M1420.49,-179.73C1464.41,-169.23 1540.27,-151.11 1588.97,-139.47"/>
<polygon fill="midnightblue" stroke="midnightblue" points="1590.02,-142.82 1598.93,-137.09 1588.39,-136.01 1590.02,-142.82"/>
</g>
<!-- Node24 -->
<g id="node24" class="node">
<title>Node24</title>
<g id="a_node24"><a xlink:href="block__data__transfer_8hpp.html" target="_top" xlink:title="This file defines a block data transfer instruction (LDM, STM).">
<polygon fill="none" stroke="black" points="1721.87,-118 1721.87,-137 1855.87,-137 1855.87,-118 1721.87,-118"/>
<text text-anchor="middle" x="1788.87" y="-125" font-family="Helvetica,sans-Serif" font-size="10.00">block_data_transfer.hpp</text>
</a>
</g>
</g>
<!-- Node20&#45;&gt;Node24 -->
<g id="edge33" class="edge">
<title>Node20&#45;&gt;Node24</title>
<path fill="none" stroke="midnightblue" d="M1420.69,-183.76C1480.41,-176.37 1606.14,-160.24 1711.87,-143 1719.61,-141.74 1727.77,-140.31 1735.77,-138.85"/>
<polygon fill="midnightblue" stroke="midnightblue" points="1736.57,-142.26 1745.77,-137 1735.3,-135.38 1736.57,-142.26"/>
</g>
<!-- Node25 -->
<g id="node25" class="node">
<title>Node25</title>
<g id="a_node25"><a xlink:href="halfword__data__transfer_8hpp.html" target="_top" xlink:title="This file defines a Halfword data transfer instruction.">
<polygon fill="none" stroke="black" points="1874.37,-118 1874.37,-137 2023.37,-137 2023.37,-118 1874.37,-118"/>
<text text-anchor="middle" x="1948.87" y="-125" font-family="Helvetica,sans-Serif" font-size="10.00">halfword_data_transfer.hpp</text>
</a>
</g>
</g>
<!-- Node20&#45;&gt;Node25 -->
<g id="edge35" class="edge">
<title>Node20&#45;&gt;Node25</title>
<path fill="none" stroke="midnightblue" d="M1420.54,-185.67C1499.57,-180.14 1699.07,-165.06 1864.87,-143 1874.03,-141.78 1883.71,-140.29 1893.13,-138.74"/>
<polygon fill="midnightblue" stroke="midnightblue" points="1893.92,-142.16 1903.19,-137.04 1892.75,-135.26 1893.92,-142.16"/>
</g>
<!-- Node26 -->
<g id="node26" class="node">
<title>Node26</title>
<g id="a_node26"><a xlink:href="extend_8hpp.html" target="_top" xlink:title="This file defines an extend instruction.">
<polygon fill="none" stroke="black" points="2041.37,-118 2041.37,-137 2112.37,-137 2112.37,-118 2041.37,-118"/>
<text text-anchor="middle" x="2076.87" y="-125" font-family="Helvetica,sans-Serif" font-size="10.00">extend.hpp</text>
</a>
</g>
</g>
<!-- Node20&#45;&gt;Node26 -->
<g id="edge37" class="edge">
<title>Node20&#45;&gt;Node26</title>
<path fill="none" stroke="midnightblue" d="M1420.57,-188.51C1517.95,-189.33 1801.71,-187.42 2031.87,-143 2035.84,-142.23 2039.94,-141.23 2043.99,-140.1"/>
<polygon fill="midnightblue" stroke="midnightblue" points="2045.25,-143.38 2053.8,-137.12 2043.21,-136.68 2045.25,-143.38"/>
</g>
<!-- Node27 -->
<g id="node27" class="node">
<title>Node27</title>
<g id="a_node27"><a xlink:href="psr__transfer_8hpp.html" target="_top" xlink:title="This file defines a PSR instruction (MRS, MSR).">
<polygon fill="none" stroke="black" points="2130.37,-118 2130.37,-137 2225.37,-137 2225.37,-118 2130.37,-118"/>
<text text-anchor="middle" x="2177.87" y="-125" font-family="Helvetica,sans-Serif" font-size="10.00">psr_transfer.hpp</text>
</a>
</g>
</g>
<!-- Node20&#45;&gt;Node27 -->
<g id="edge39" class="edge">
<title>Node20&#45;&gt;Node27</title>
<path fill="none" stroke="midnightblue" d="M1420.56,-188.18C1526.32,-188.24 1853.73,-184.78 2120.87,-143 2126.75,-142.08 2132.91,-140.83 2138.92,-139.44"/>
<polygon fill="midnightblue" stroke="midnightblue" points="2139.92,-142.8 2148.8,-137.02 2138.25,-136 2139.92,-142.8"/>
</g>
<!-- Node28 -->
<g id="node28" class="node">
<title>Node28</title>
<g id="a_node28"><a xlink:href="cps_8hpp.html" target="_top" xlink:title="This file defines a change processor state instruction (CPS).">
<polygon fill="none" stroke="black" points="993.87,-118 993.87,-137 1047.87,-137 1047.87,-118 993.87,-118"/>
<text text-anchor="middle" x="1020.87" y="-125" font-family="Helvetica,sans-Serif" font-size="10.00">cps.hpp</text>
</a>
</g>
</g>
<!-- Node20&#45;&gt;Node28 -->
<g id="edge41" class="edge">
<title>Node20&#45;&gt;Node28</title>
<path fill="none" stroke="midnightblue" d="M1351.22,-186.08C1290.64,-182.1 1161.91,-170.88 1056.87,-143 1054.36,-142.33 1051.8,-141.54 1049.24,-140.67"/>
<polygon fill="midnightblue" stroke="midnightblue" points="1050.22,-137.3 1039.63,-137.07 1047.77,-143.86 1050.22,-137.3"/>
</g>
<!-- Node29 -->
<g id="node29" class="node">
<title>Node29</title>
<g id="a_node29"><a xlink:href="coprocessor__register__transfer_8hpp.html" target="_top" xlink:title="This file defines a coprocessor register transfer (MRC, MCR).">
<polygon fill="none" stroke="black" points="673.87,-112.5 673.87,-142.5 791.87,-142.5 791.87,-112.5 673.87,-112.5"/>
<text text-anchor="start" x="681.87" y="-130.5" font-family="Helvetica,sans-Serif" font-size="10.00">coprocessor_register</text>
<text text-anchor="middle" x="732.87" y="-119.5" font-family="Helvetica,sans-Serif" font-size="10.00">_transfer.hpp</text>
</a>
</g>
</g>
<!-- Node20&#45;&gt;Node29 -->
<g id="edge43" class="edge">
<title>Node20&#45;&gt;Node29</title>
<path fill="none" stroke="midnightblue" d="M1351.08,-186.94C1261.61,-183.88 1016.13,-173.3 802.29,-143.08"/>
<polygon fill="midnightblue" stroke="midnightblue" points="802.52,-139.57 792.13,-141.62 801.53,-146.5 802.52,-139.57"/>
</g>
<!-- Node30 -->
<g id="node30" class="node">
<title>Node30</title>
<g id="a_node30"><a xlink:href="coprocessor__data__transfer_8hpp.html" target="_top" xlink:title="This file defines a coprocessor data transfer (LDC, STC).">
<polygon fill="none" stroke="black" points="809.87,-118 809.87,-137 975.87,-137 975.87,-118 809.87,-118"/>
<text text-anchor="middle" x="892.87" y="-125" font-family="Helvetica,sans-Serif" font-size="10.00">coprocessor_data_transfer.hpp</text>
</a>
</g>
</g>
<!-- Node20&#45;&gt;Node30 -->
<g id="edge45" class="edge">
<title>Node20&#45;&gt;Node30</title>
<path fill="none" stroke="midnightblue" d="M1351.21,-184.64C1281.64,-177.77 1120.08,-161.23 984.87,-143 975.02,-141.67 964.59,-140.14 954.43,-138.59"/>
<polygon fill="midnightblue" stroke="midnightblue" points="954.81,-135.11 944.39,-137.03 953.74,-142.02 954.81,-135.11"/>
</g>
<!-- Node31 -->
<g id="node31" class="node">
<title>Node31</title>
<g id="a_node31"><a xlink:href="coprocessor__data__operation_8hpp.html" target="_top" xlink:title="This file defines a coprocessor data operation (CDP).">
<polygon fill="none" stroke="black" points="480.37,-118 480.37,-137 655.37,-137 655.37,-118 480.37,-118"/>
<text text-anchor="middle" x="567.87" y="-125" font-family="Helvetica,sans-Serif" font-size="10.00">coprocessor_data_operation.hpp</text>
</a>
</g>
</g>
<!-- Node20&#45;&gt;Node31 -->
<g id="edge47" class="edge">
<title>Node20&#45;&gt;Node31</title>
<path fill="none" stroke="midnightblue" d="M1351.26,-186.9C1247.19,-183.35 928.03,-170.83 664.87,-143 653.35,-141.78 641.09,-140.19 629.31,-138.5"/>
<polygon fill="midnightblue" stroke="midnightblue" points="629.52,-134.99 619.11,-137 628.5,-141.92 629.52,-134.99"/>
</g>
<!-- Node32 -->
<g id="node32" class="node">
<title>Node32</title>
<g id="a_node32"><a xlink:href="srs_8hpp.html" target="_top" xlink:title="This file defines an SRS instruction (store return state onto a stack).">
<polygon fill="none" stroke="black" points="1065.87,-118 1065.87,-137 1117.87,-137 1117.87,-118 1065.87,-118"/>
<text text-anchor="middle" x="1091.87" y="-125" font-family="Helvetica,sans-Serif" font-size="10.00">srs.hpp</text>
</a>
</g>
</g>
<!-- Node20&#45;&gt;Node32 -->
<g id="edge49" class="edge">
<title>Node20&#45;&gt;Node32</title>
<path fill="none" stroke="midnightblue" d="M1350.97,-184.41C1300.7,-178.7 1205.33,-165.76 1126.87,-143 1124.58,-142.34 1122.24,-141.57 1119.9,-140.74"/>
<polygon fill="midnightblue" stroke="midnightblue" points="1121.08,-137.44 1110.49,-137.11 1118.56,-143.97 1121.08,-137.44"/>
</g>
<!-- Node33 -->
<g id="node33" class="node">
<title>Node33</title>
<g id="a_node33"><a xlink:href="rfe_8hpp.html" target="_top" xlink:title="This file defines an RFE instruction (return from exception).">
<polygon fill="none" stroke="black" points="1136.37,-118 1136.37,-137 1187.37,-137 1187.37,-118 1136.37,-118"/>
<text text-anchor="middle" x="1161.87" y="-125" font-family="Helvetica,sans-Serif" font-size="10.00">rfe.hpp</text>
</a>
</g>
</g>
<!-- Node20&#45;&gt;Node33 -->
<g id="edge51" class="edge">
<title>Node20&#45;&gt;Node33</title>
<path fill="none" stroke="midnightblue" d="M1351.06,-181.61C1312.58,-174.12 1249,-160.48 1195.87,-143 1193.95,-142.37 1191.99,-141.67 1190.02,-140.94"/>
<polygon fill="midnightblue" stroke="midnightblue" points="1190.94,-137.54 1180.36,-137.06 1188.34,-144.03 1190.94,-137.54"/>
</g>
<!-- Node34 -->
<g id="node34" class="node">
<title>Node34</title>
<g id="a_node34"><a xlink:href="clz_8hpp.html" target="_top" xlink:title="This file defines a count leading zeros instruction (CLZ).">
<polygon fill="none" stroke="black" points="1205.37,-118 1205.37,-137 1256.37,-137 1256.37,-118 1205.37,-118"/>
<text text-anchor="middle" x="1230.87" y="-125" font-family="Helvetica,sans-Serif" font-size="10.00">clz.hpp</text>
</a>
</g>
</g>
<!-- Node20&#45;&gt;Node34 -->
<g id="edge53" class="edge">
<title>Node20&#45;&gt;Node34</title>
<path fill="none" stroke="midnightblue" d="M1363.66,-179.48C1337.19,-169.31 1292.76,-152.26 1262.65,-140.7"/>
<polygon fill="midnightblue" stroke="midnightblue" points="1263.63,-137.33 1253.04,-137.01 1261.12,-143.86 1263.63,-137.33"/>
</g>
<!-- Node21&#45;&gt;Node5 -->
<g id="edge25" class="edge">
<title>Node21&#45;&gt;Node5</title>
<path fill="none" stroke="midnightblue" d="M1404.07,-117.98C1425.38,-107.99 1460.9,-91.35 1485.54,-79.81"/>
<polygon fill="midnightblue" stroke="midnightblue" points="1487.14,-82.92 1494.71,-75.51 1484.17,-76.58 1487.14,-82.92"/>
</g>
<!-- Node22&#45;&gt;Node5 -->
<g id="edge27" class="edge">
<title>Node22&#45;&gt;Node5</title>
<path fill="none" stroke="midnightblue" d="M1512.87,-117.98C1512.87,-109.58 1512.87,-96.48 1512.87,-85.66"/>
<polygon fill="midnightblue" stroke="midnightblue" points="1516.37,-85.51 1512.87,-75.51 1509.37,-85.51 1516.37,-85.51"/>
</g>
<!-- Node23&#45;&gt;Node5 -->
<g id="edge32" class="edge">
<title>Node23&#45;&gt;Node5</title>
<path fill="none" stroke="midnightblue" d="M1617.39,-117.98C1597.01,-108.03 1563.1,-91.49 1539.45,-79.96"/>
<polygon fill="midnightblue" stroke="midnightblue" points="1540.84,-76.75 1530.32,-75.51 1537.77,-83.04 1540.84,-76.75"/>
</g>
<!-- Node24&#45;&gt;Node5 -->
<g id="edge34" class="edge">
<title>Node24&#45;&gt;Node5</title>
<path fill="none" stroke="midnightblue" d="M1749.33,-117.98C1700.04,-107.35 1615.78,-89.18 1562.28,-77.65"/>
<polygon fill="midnightblue" stroke="midnightblue" points="1562.86,-74.2 1552.34,-75.51 1561.38,-81.04 1562.86,-74.2"/>
</g>
<!-- Node25&#45;&gt;Node5 -->
<g id="edge36" class="edge">
<title>Node25&#45;&gt;Node5</title>
<path fill="none" stroke="midnightblue" d="M1901.4,-117.93C1889.49,-115.89 1876.73,-113.78 1864.87,-112 1759.98,-96.25 1636.97,-81.33 1567.65,-73.25"/>
<polygon fill="midnightblue" stroke="midnightblue" points="1567.75,-69.74 1557.41,-72.06 1566.94,-76.69 1567.75,-69.74"/>
</g>
<!-- Node26&#45;&gt;Node5 -->
<g id="edge38" class="edge">
<title>Node26&#45;&gt;Node5</title>
<path fill="none" stroke="midnightblue" d="M2053.78,-117.96C2046.83,-115.69 2039.11,-113.46 2031.87,-112 1865.03,-78.33 1663.01,-69.85 1567.7,-67.71"/>
<polygon fill="midnightblue" stroke="midnightblue" points="1567.51,-64.21 1557.44,-67.5 1567.36,-71.21 1567.51,-64.21"/>
</g>
<!-- Node27&#45;&gt;Node5 -->
<g id="edge40" class="edge">
<title>Node27&#45;&gt;Node5</title>
<path fill="none" stroke="midnightblue" d="M2148.49,-117.98C2139.68,-115.71 2129.94,-113.48 2120.87,-112 1918.67,-79.06 1674.67,-70.21 1567.66,-67.85"/>
<polygon fill="midnightblue" stroke="midnightblue" points="1567.5,-64.34 1557.43,-67.63 1567.36,-71.34 1567.5,-64.34"/>
</g>
<!-- Node28&#45;&gt;Node5 -->
<g id="edge42" class="edge">
<title>Node28&#45;&gt;Node5</title>
<path fill="none" stroke="midnightblue" d="M1039.22,-117.94C1044.78,-115.67 1050.98,-113.45 1056.87,-112 1198.67,-77.2 1371.54,-69.17 1458.04,-67.41"/>
<polygon fill="midnightblue" stroke="midnightblue" points="1458.21,-70.91 1468.15,-67.23 1458.09,-63.91 1458.21,-70.91"/>
</g>
<!-- Node29&#45;&gt;Node5 -->
<g id="edge44" class="edge">
<title>Node29&#45;&gt;Node5</title>
<path fill="none" stroke="midnightblue" d="M792.12,-113.33C795.07,-112.84 798,-112.39 800.87,-112 1044.4,-78.53 1338.26,-69.91 1458.05,-67.72"/>
<polygon fill="midnightblue" stroke="midnightblue" points="1458.14,-71.22 1468.07,-67.55 1458.01,-64.22 1458.14,-71.22"/>
</g>
<!-- Node30&#45;&gt;Node5 -->
<g id="edge46" class="edge">
<title>Node30&#45;&gt;Node5</title>
<path fill="none" stroke="midnightblue" d="M942.92,-117.95C956.5,-115.81 971.23,-113.65 984.87,-112 1157.15,-91.11 1362.2,-76.57 1458.21,-70.37"/>
<polygon fill="midnightblue" stroke="midnightblue" points="1458.5,-73.86 1468.26,-69.72 1458.06,-66.87 1458.5,-73.86"/>
</g>
<!-- Node31&#45;&gt;Node5 -->
<g id="edge48" class="edge">
<title>Node31&#45;&gt;Node5</title>
<path fill="none" stroke="midnightblue" d="M618.6,-117.98C633.48,-115.74 649.79,-113.52 664.87,-112 963.3,-81.85 1322.98,-71.2 1458.07,-68.1"/>
<polygon fill="midnightblue" stroke="midnightblue" points="1458.25,-71.6 1468.16,-67.87 1458.09,-64.6 1458.25,-71.6"/>
</g>
<!-- Node32&#45;&gt;Node5 -->
<g id="edge50" class="edge">
<title>Node32&#45;&gt;Node5</title>
<path fill="none" stroke="midnightblue" d="M1109.71,-118C1115.12,-115.72 1121.14,-113.49 1126.87,-112 1242.24,-82 1382.24,-71.97 1457.9,-68.64"/>
<polygon fill="midnightblue" stroke="midnightblue" points="1458.3,-72.13 1468.14,-68.22 1458.01,-65.14 1458.3,-72.13"/>
</g>
<!-- Node33&#45;&gt;Node5 -->
<g id="edge52" class="edge">
<title>Node33&#45;&gt;Node5</title>
<path fill="none" stroke="midnightblue" d="M1179.55,-117.92C1184.72,-115.71 1190.43,-113.52 1195.87,-112 1285.77,-86.92 1394.11,-75.38 1458.03,-70.41"/>
<polygon fill="midnightblue" stroke="midnightblue" points="1458.57,-73.88 1468.28,-69.64 1458.04,-66.9 1458.57,-73.88"/>
</g>
<!-- Node34&#45;&gt;Node5 -->
<g id="edge54" class="edge">
<title>Node34&#45;&gt;Node5</title>
<path fill="none" stroke="midnightblue" d="M1252.67,-117.87C1258.52,-115.75 1264.89,-113.63 1270.87,-112 1334.2,-94.76 1408.64,-82.01 1458.07,-74.57"/>
<polygon fill="midnightblue" stroke="midnightblue" points="1458.84,-77.99 1468.22,-73.06 1457.82,-71.07 1458.84,-77.99"/>
</g>
<!-- Node35&#45;&gt;Node5 -->
<g id="edge56" class="edge">
<title>Node35&#45;&gt;Node5</title>
<path fill="none" stroke="midnightblue" d="M1836.4,-243.99C2044.94,-243.01 2753.21,-231 2638.87,-112 2601.39,-72.99 1787.72,-67.8 1567.45,-67.11"/>
<polygon fill="midnightblue" stroke="midnightblue" points="1567.42,-63.61 1557.41,-67.08 1567.4,-70.61 1567.42,-63.61"/>
</g>
<!-- Node36&#45;&gt;Node18 -->
<g id="edge69" class="edge">
<title>Node36&#45;&gt;Node18</title>
<path fill="none" stroke="midnightblue" d="M515.53,-296.98C494.05,-286.99 458.25,-270.35 433.42,-258.81"/>
<polygon fill="midnightblue" stroke="midnightblue" points="434.72,-255.55 424.18,-254.51 431.77,-261.9 434.72,-255.55"/>
</g>
<!-- Node37 -->
<g id="node37" class="node">
<title>Node37</title>
<g id="a_node37"><a xlink:href="cp15_8hpp.html" target="_top" xlink:title=" ">
<polygon fill="none" stroke="black" points="469.87,-235.5 469.87,-254.5 597.87,-254.5 597.87,-235.5 469.87,-235.5"/>
<text text-anchor="middle" x="533.87" y="-242.5" font-family="Helvetica,sans-Serif" font-size="10.00">coprocessors/cp15.hpp</text>
</a>
</g>
</g>
<!-- Node36&#45;&gt;Node37 -->
<g id="edge58" class="edge">
<title>Node36&#45;&gt;Node37</title>
<path fill="none" stroke="midnightblue" d="M533.87,-296.98C533.87,-288.58 533.87,-275.48 533.87,-264.66"/>
<polygon fill="midnightblue" stroke="midnightblue" points="537.37,-264.51 533.87,-254.51 530.37,-264.51 537.37,-264.51"/>
</g>
<!-- Node40 -->
<g id="node40" class="node">
<title>Node40</title>
<g id="a_node40"><a xlink:href="peripheral_8hpp.html" target="_top" xlink:title="This file defines an interface for a memory&#45;mapped peripheral.">
<polygon fill="none" stroke="black" points="197.37,-235.5 197.37,-254.5 342.37,-254.5 342.37,-235.5 197.37,-235.5"/>
<text text-anchor="middle" x="269.87" y="-242.5" font-family="Helvetica,sans-Serif" font-size="10.00">peripherals/peripheral.hpp</text>
</a>
</g>
</g>
<!-- Node36&#45;&gt;Node40 -->
<g id="edge68" class="edge">
<title>Node36&#45;&gt;Node40</title>
<path fill="none" stroke="midnightblue" d="M501.76,-298.26C455.81,-287.91 370.94,-268.78 317.61,-256.76"/>
<polygon fill="midnightblue" stroke="midnightblue" points="318.24,-253.31 307.71,-254.53 316.7,-260.14 318.24,-253.31"/>
</g>
<!-- Node37&#45;&gt;Node11 -->
<g id="edge67" class="edge">
<title>Node37&#45;&gt;Node11</title>
<path fill="none" stroke="midnightblue" d="M521.46,-235.45C502.76,-222.67 466.13,-198.08 433.87,-179 369.39,-140.86 290.96,-100.34 251.01,-80.11"/>
<polygon fill="midnightblue" stroke="midnightblue" points="252.44,-76.91 241.94,-75.53 249.29,-83.16 252.44,-76.91"/>
</g>
<!-- Node37&#45;&gt;Node13 -->
<g id="edge59" class="edge">
<title>Node37&#45;&gt;Node13</title>
<path fill="none" stroke="midnightblue" d="M526.09,-235.49C510.83,-218.6 476.38,-179.32 451.87,-143 425.61,-104.08 400.33,-54.93 387.53,-28.97"/>
<polygon fill="midnightblue" stroke="midnightblue" points="390.52,-27.1 382.99,-19.64 384.22,-30.17 390.52,-27.1"/>
</g>
<!-- Node38 -->
<g id="node38" class="node">
<title>Node38</title>
<g id="a_node38"><a xlink:title=" ">
<polygon fill="none" stroke="#bfbfbf" points="332.37,-179.5 332.37,-198.5 425.37,-198.5 425.37,-179.5 332.37,-179.5"/>
<text text-anchor="middle" x="378.87" y="-186.5" font-family="Helvetica,sans-Serif" font-size="10.00">unordered_map</text>
</a>
</g>
</g>
<!-- Node37&#45;&gt;Node38 -->
<g id="edge60" class="edge">
<title>Node37&#45;&gt;Node38</title>
<path fill="none" stroke="midnightblue" d="M509.31,-235.44C483.35,-226.4 442.2,-212.06 413.08,-201.92"/>
<polygon fill="midnightblue" stroke="midnightblue" points="413.91,-198.5 403.32,-198.52 411.61,-205.11 413.91,-198.5"/>
</g>
<!-- Node39 -->
<g id="node39" class="node">
<title>Node39</title>
<g id="a_node39"><a xlink:href="coprocessor_8hpp.html" target="_top" xlink:title=" ">
<polygon fill="none" stroke="black" points="520.37,-179.5 520.37,-198.5 615.37,-198.5 615.37,-179.5 520.37,-179.5"/>
<text text-anchor="middle" x="567.87" y="-186.5" font-family="Helvetica,sans-Serif" font-size="10.00">coprocessor.hpp</text>
</a>
</g>
</g>
<!-- Node37&#45;&gt;Node39 -->
<g id="edge61" class="edge">
<title>Node37&#45;&gt;Node39</title>
<path fill="none" stroke="midnightblue" d="M539.49,-235.08C544.24,-227.53 551.19,-216.49 557.02,-207.23"/>
<polygon fill="midnightblue" stroke="midnightblue" points="560,-209.08 562.36,-198.75 554.07,-205.35 560,-209.08"/>
</g>
<!-- Node39&#45;&gt;Node10 -->
<g id="edge63" class="edge">
<title>Node39&#45;&gt;Node10</title>
<path fill="none" stroke="midnightblue" d="M520.31,-180.16C451.1,-168.75 323.4,-147.71 254.29,-136.31"/>
<polygon fill="midnightblue" stroke="midnightblue" points="254.56,-132.81 244.12,-134.64 253.42,-139.72 254.56,-132.81"/>
</g>
<!-- Node39&#45;&gt;Node15 -->
<g id="edge62" class="edge">
<title>Node39&#45;&gt;Node15</title>
<path fill="none" stroke="midnightblue" d="M529.14,-179.41C508.69,-172.85 484.97,-161.66 470.87,-143 445.66,-109.63 445.54,-57.81 447.68,-30.07"/>
<polygon fill="midnightblue" stroke="midnightblue" points="451.19,-30.06 448.66,-19.77 444.22,-29.39 451.19,-30.06"/>
</g>
<!-- Node39&#45;&gt;Node29 -->
<g id="edge64" class="edge">
<title>Node39&#45;&gt;Node29</title>
<path fill="none" stroke="midnightblue" d="M591.51,-179.48C615.63,-170.78 653.77,-157.03 684.35,-146"/>
<polygon fill="midnightblue" stroke="midnightblue" points="685.77,-149.21 693.98,-142.52 683.39,-142.62 685.77,-149.21"/>
</g>
<!-- Node39&#45;&gt;Node30 -->
<g id="edge65" class="edge">
<title>Node39&#45;&gt;Node30</title>
<path fill="none" stroke="midnightblue" d="M614.44,-179.48C672.96,-168.76 773.35,-150.38 836.25,-138.87"/>
<polygon fill="midnightblue" stroke="midnightblue" points="837.19,-142.25 846.39,-137.01 835.93,-135.37 837.19,-142.25"/>
</g>
<!-- Node39&#45;&gt;Node31 -->
<g id="edge66" class="edge">
<title>Node39&#45;&gt;Node31</title>
<path fill="none" stroke="midnightblue" d="M567.87,-179.48C567.87,-171.08 567.87,-157.98 567.87,-147.16"/>
<polygon fill="midnightblue" stroke="midnightblue" points="571.37,-147.01 567.87,-137.01 564.37,-147.01 571.37,-147.01"/>
</g>
<!-- Node42&#45;&gt;Node10 -->
<g id="edge74" class="edge">
<title>Node42&#45;&gt;Node10</title>
<path fill="none" stroke="midnightblue" d="M97.95,-291.34C107.09,-266.99 127.86,-216.21 154.87,-179 164.32,-165.98 177.3,-153.37 187.93,-144.01"/>
<polygon fill="midnightblue" stroke="midnightblue" points="190.5,-146.41 195.83,-137.25 185.96,-141.09 190.5,-146.41"/>
</g>
<!-- Node42&#45;&gt;Node11 -->
<g id="edge75" class="edge">
<title>Node42&#45;&gt;Node11</title>
<path fill="none" stroke="midnightblue" d="M94.6,-291.31C99.4,-257.03 115.67,-168.41 160.87,-112 171.12,-99.21 185.94,-88.47 198.73,-80.7"/>
<polygon fill="midnightblue" stroke="midnightblue" points="200.69,-83.61 207.59,-75.58 197.18,-77.55 200.69,-83.61"/>
</g>
<!-- Node42&#45;&gt;Node40 -->
<g id="edge73" class="edge">
<title>Node42&#45;&gt;Node40</title>
<path fill="none" stroke="midnightblue" d="M134.82,-291.4C165.27,-281.16 206,-267.47 234.75,-257.81"/>
<polygon fill="midnightblue" stroke="midnightblue" points="236.01,-261.07 244.38,-254.57 233.78,-254.44 236.01,-261.07"/>
</g>
</g>
</svg>
