<?xml version="1.0" encoding="UTF-8" standalone="no"?>
<!DOCTYPE svg PUBLIC "-//W3C//DTD SVG 1.1//EN"
 "http://www.w3.org/Graphics/SVG/1.1/DTD/svg11.dtd">
<!-- Generated by graphviz version 2.43.0 (0)
 -->
<!-- Title: src/core/coprocessors/cp15.cpp Pages: 1 -->
<svg width="732pt" height="285pt"
 viewBox="0.00 0.00 731.50 285.00" xmlns="http://www.w3.org/2000/svg" xmlns:xlink="http://www.w3.org/1999/xlink">
<g id="graph0" class="graph" transform="scale(1 1) rotate(0) translate(4 281)">
<title>src/core/coprocessors/cp15.cpp</title>
<!-- Node1 -->
<g id="node1" class="node">
<title>Node1</title>
<g id="a_node1"><a xlink:title="This file implements CP15 (system control coprocessor) as defined in cp15.hpp.">
<polygon fill="#bfbfbf" stroke="black" points="447.5,-246.5 447.5,-276.5 569.5,-276.5 569.5,-246.5 447.5,-246.5"/>
<text text-anchor="start" x="455.5" y="-264.5" font-family="Helvetica,sans-Serif" font-size="10.00">src/core/coprocessors</text>
<text text-anchor="middle" x="508.5" y="-253.5" font-family="Helvetica,sans-Serif" font-size="10.00">/cp15.cpp</text>
</a>
</g>
</g>
<!-- Node2 -->
<g id="node2" class="node">
<title>Node2</title>
<g id="a_node2"><a xlink:title=" ">
<polygon fill="none" stroke="#bfbfbf" points="312,-190.5 312,-209.5 391,-209.5 391,-190.5 312,-190.5"/>
<text text-anchor="middle" x="351.5" y="-197.5" font-family="Helvetica,sans-Serif" font-size="10.00">fmt/format.h</text>
</a>
</g>
</g>
<!-- Node1&#45;&gt;Node2 -->
<g id="edge1" class="edge">
<title>Node1&#45;&gt;Node2</title>
<path fill="none" stroke="midnightblue" d="M471.29,-246.4C444.72,-236.33 409.31,-222.91 383.89,-213.28"/>
<polygon fill="midnightblue" stroke="midnightblue" points="384.94,-209.93 374.34,-209.66 382.46,-216.47 384.94,-209.93"/>
</g>
<!-- Node3 -->
<g id="node3" class="node">
<title>Node3</title>
<g id="a_node3"><a xlink:title=" ">
<polygon fill="none" stroke="#bfbfbf" points="409,-190.5 409,-209.5 510,-209.5 510,-190.5 409,-190.5"/>
<text text-anchor="middle" x="459.5" y="-197.5" font-family="Helvetica,sans-Serif" font-size="10.00">magic_enum.hpp</text>
</a>
</g>
</g>
<!-- Node1&#45;&gt;Node3 -->
<g id="edge2" class="edge">
<title>Node1&#45;&gt;Node3</title>
<path fill="none" stroke="midnightblue" d="M496.89,-246.4C489.77,-237.75 480.62,-226.64 473.15,-217.58"/>
<polygon fill="midnightblue" stroke="midnightblue" points="475.69,-215.15 466.63,-209.66 470.29,-219.6 475.69,-215.15"/>
</g>
<!-- Node4 -->
<g id="node4" class="node">
<title>Node4</title>
<g id="a_node4"><a xlink:href="cp15_8hpp.html" target="_top" xlink:title="This file defines CP15 (system control coprocessor).">
<polygon fill="none" stroke="black" points="528,-190.5 528,-209.5 589,-209.5 589,-190.5 528,-190.5"/>
<text text-anchor="middle" x="558.5" y="-197.5" font-family="Helvetica,sans-Serif" font-size="10.00">cp15.hpp</text>
</a>
</g>
</g>
<!-- Node1&#45;&gt;Node4 -->
<g id="edge3" class="edge">
<title>Node1&#45;&gt;Node4</title>
<path fill="none" stroke="midnightblue" d="M520.35,-246.4C527.61,-237.75 536.95,-226.64 544.57,-217.58"/>
<polygon fill="midnightblue" stroke="midnightblue" points="547.47,-219.57 551.22,-209.66 542.11,-215.06 547.47,-219.57"/>
</g>
<!-- Node12 -->
<g id="node12" class="node">
<title>Node12</title>
<g id="a_node12"><a xlink:href="singleton_8hpp.html" target="_top" xlink:title="This file defines and implements a generic class that is used to treat other classes as singletons.">
<polygon fill="none" stroke="black" points="607.5,-190.5 607.5,-209.5 723.5,-209.5 723.5,-190.5 607.5,-190.5"/>
<text text-anchor="middle" x="665.5" y="-197.5" font-family="Helvetica,sans-Serif" font-size="10.00">../utils/singleton.hpp</text>
</a>
</g>
</g>
<!-- Node1&#45;&gt;Node12 -->
<g id="edge14" class="edge">
<title>Node1&#45;&gt;Node12</title>
<path fill="none" stroke="midnightblue" d="M545.71,-246.4C572.28,-236.33 607.69,-222.91 633.11,-213.28"/>
<polygon fill="midnightblue" stroke="midnightblue" points="634.54,-216.47 642.66,-209.66 632.06,-209.93 634.54,-216.47"/>
</g>
<!-- Node5 -->
<g id="node5" class="node">
<title>Node5</title>
<g id="a_node5"><a xlink:href="coprocessor_8hpp.html" target="_top" xlink:title="This file defines a general interface of a coprocessor.">
<polygon fill="none" stroke="black" points="367,-134.5 367,-153.5 462,-153.5 462,-134.5 367,-134.5"/>
<text text-anchor="middle" x="414.5" y="-141.5" font-family="Helvetica,sans-Serif" font-size="10.00">coprocessor.hpp</text>
</a>
</g>
</g>
<!-- Node4&#45;&gt;Node5 -->
<g id="edge4" class="edge">
<title>Node4&#45;&gt;Node5</title>
<path fill="none" stroke="midnightblue" d="M535.68,-190.44C511.67,-181.44 473.67,-167.19 446.63,-157.05"/>
<polygon fill="midnightblue" stroke="midnightblue" points="447.8,-153.75 437.21,-153.52 445.34,-160.3 447.8,-153.75"/>
</g>
<!-- Node7 -->
<g id="node7" class="node">
<title>Node7</title>
<g id="a_node7"><a xlink:href="logger_8hpp.html" target="_top" xlink:title=" ">
<polygon fill="none" stroke="black" points="582.5,-0.5 582.5,-19.5 716.5,-19.5 716.5,-0.5 582.5,-0.5"/>
<text text-anchor="middle" x="649.5" y="-7.5" font-family="Helvetica,sans-Serif" font-size="10.00">../utils/logger/logger.hpp</text>
</a>
</g>
</g>
<!-- Node4&#45;&gt;Node7 -->
<g id="edge13" class="edge">
<title>Node4&#45;&gt;Node7</title>
<path fill="none" stroke="midnightblue" d="M577.2,-190.48C606.11,-176.13 660.57,-144.14 682.5,-98 690.51,-81.14 688.31,-73.74 682.5,-56 679.01,-45.34 671.93,-35.12 665.21,-27.12"/>
<polygon fill="midnightblue" stroke="midnightblue" points="667.8,-24.76 658.52,-19.66 662.6,-29.44 667.8,-24.76"/>
</g>
<!-- Node6 -->
<g id="node6" class="node">
<title>Node6</title>
<g id="a_node6"><a xlink:href="context_8hpp.html" target="_top" xlink:title="This file defines the context (registers) of the CPU.">
<polygon fill="none" stroke="black" points="521.5,-67.5 521.5,-86.5 673.5,-86.5 673.5,-67.5 521.5,-67.5"/>
<text text-anchor="middle" x="597.5" y="-74.5" font-family="Helvetica,sans-Serif" font-size="10.00">../arm1176jzf_s/context.hpp</text>
</a>
</g>
</g>
<!-- Node5&#45;&gt;Node6 -->
<g id="edge5" class="edge">
<title>Node5&#45;&gt;Node6</title>
<path fill="none" stroke="midnightblue" d="M438.8,-134.37C470.88,-122.97 527.53,-102.85 563.75,-89.99"/>
<polygon fill="midnightblue" stroke="midnightblue" points="565.14,-93.21 573.39,-86.56 562.8,-86.61 565.14,-93.21"/>
</g>
<!-- Node8 -->
<g id="node8" class="node">
<title>Node8</title>
<g id="a_node8"><a xlink:href="coprocessor__register__transfer_8hpp.html" target="_top" xlink:title="This file defines a coprocessor register transfer (MRC, MCR).">
<polygon fill="none" stroke="black" points="0,-56.5 0,-97.5 121,-97.5 121,-56.5 0,-56.5"/>
<text text-anchor="start" x="8" y="-85.5" font-family="Helvetica,sans-Serif" font-size="10.00">../arm1176jzf_s/isa</text>
<text text-anchor="start" x="8" y="-74.5" font-family="Helvetica,sans-Serif" font-size="10.00">/coprocessor_register</text>
<text text-anchor="middle" x="60.5" y="-63.5" font-family="Helvetica,sans-Serif" font-size="10.00">_transfer.hpp</text>
</a>
</g>
</g>
<!-- Node5&#45;&gt;Node8 -->
<g id="edge7" class="edge">
<title>Node5&#45;&gt;Node8</title>
<path fill="none" stroke="midnightblue" d="M366.75,-137.32C311.92,-130.39 219.14,-117.4 131.21,-98.26"/>
<polygon fill="midnightblue" stroke="midnightblue" points="131.87,-94.82 121.35,-96.09 130.36,-101.66 131.87,-94.82"/>
</g>
<!-- Node10 -->
<g id="node10" class="node">
<title>Node10</title>
<g id="a_node10"><a xlink:href="coprocessor__data__transfer_8hpp.html" target="_top" xlink:title="This file defines a coprocessor data transfer (LDC, STC).">
<polygon fill="none" stroke="black" points="139,-62 139,-92 308,-92 308,-62 139,-62"/>
<text text-anchor="start" x="147" y="-80" font-family="Helvetica,sans-Serif" font-size="10.00">../arm1176jzf_s/isa</text>
<text text-anchor="middle" x="223.5" y="-69" font-family="Helvetica,sans-Serif" font-size="10.00">/coprocessor_data_transfer.hpp</text>
</a>
</g>
</g>
<!-- Node5&#45;&gt;Node10 -->
<g id="edge9" class="edge">
<title>Node5&#45;&gt;Node10</title>
<path fill="none" stroke="midnightblue" d="M389.14,-134.37C359.98,-124.45 311.38,-107.91 274.35,-95.31"/>
<polygon fill="midnightblue" stroke="midnightblue" points="275.32,-91.94 264.72,-92.03 273.06,-98.56 275.32,-91.94"/>
</g>
<!-- Node11 -->
<g id="node11" class="node">
<title>Node11</title>
<g id="a_node11"><a xlink:href="coprocessor__data__operation_8hpp.html" target="_top" xlink:title="This file defines a coprocessor data operation (CDP).">
<polygon fill="none" stroke="black" points="325.5,-62 325.5,-92 503.5,-92 503.5,-62 325.5,-62"/>
<text text-anchor="start" x="333.5" y="-80" font-family="Helvetica,sans-Serif" font-size="10.00">../arm1176jzf_s/isa</text>
<text text-anchor="middle" x="414.5" y="-69" font-family="Helvetica,sans-Serif" font-size="10.00">/coprocessor_data_operation.hpp</text>
</a>
</g>
</g>
<!-- Node5&#45;&gt;Node11 -->
<g id="edge11" class="edge">
<title>Node5&#45;&gt;Node11</title>
<path fill="none" stroke="midnightblue" d="M414.5,-134.23C414.5,-126.04 414.5,-113.42 414.5,-102.21"/>
<polygon fill="midnightblue" stroke="midnightblue" points="418,-102.09 414.5,-92.09 411,-102.09 418,-102.09"/>
</g>
<!-- Node6&#45;&gt;Node7 -->
<g id="edge6" class="edge">
<title>Node6&#45;&gt;Node7</title>
<path fill="none" stroke="midnightblue" d="M604.51,-67.23C612.62,-57.1 626.15,-40.19 636.26,-27.56"/>
<polygon fill="midnightblue" stroke="midnightblue" points="639.08,-29.62 642.6,-19.63 633.62,-25.25 639.08,-29.62"/>
</g>
<!-- Node9 -->
<g id="node9" class="node">
<title>Node9</title>
<g id="a_node9"><a xlink:href="instruction_8hpp.html" target="_top" xlink:title="This file defines the interface of a general ARM instruction.">
<polygon fill="none" stroke="black" points="179,-0.5 179,-19.5 268,-19.5 268,-0.5 179,-0.5"/>
<text text-anchor="middle" x="223.5" y="-7.5" font-family="Helvetica,sans-Serif" font-size="10.00">instruction.hpp</text>
</a>
</g>
</g>
<!-- Node8&#45;&gt;Node9 -->
<g id="edge8" class="edge">
<title>Node8&#45;&gt;Node9</title>
<path fill="none" stroke="midnightblue" d="M109.41,-56.5C136.32,-45.77 168.91,-32.77 192.36,-23.42"/>
<polygon fill="midnightblue" stroke="midnightblue" points="193.81,-26.61 201.8,-19.65 191.22,-20.11 193.81,-26.61"/>
</g>
<!-- Node10&#45;&gt;Node9 -->
<g id="edge10" class="edge">
<title>Node10&#45;&gt;Node9</title>
<path fill="none" stroke="midnightblue" d="M223.5,-61.9C223.5,-52.56 223.5,-40.21 223.5,-30.02"/>
<polygon fill="midnightblue" stroke="midnightblue" points="227,-29.69 223.5,-19.69 220,-29.69 227,-29.69"/>
</g>
<!-- Node11&#45;&gt;Node9 -->
<g id="edge12" class="edge">
<title>Node11&#45;&gt;Node9</title>
<path fill="none" stroke="midnightblue" d="M373.06,-61.9C338.65,-50.19 290.3,-33.73 257.98,-22.73"/>
<polygon fill="midnightblue" stroke="midnightblue" points="259.09,-19.42 248.5,-19.51 256.84,-26.04 259.09,-19.42"/>
</g>
</g>
</svg>
