<?xml version="1.0" encoding="UTF-8" standalone="no"?>
<!DOCTYPE svg PUBLIC "-//W3C//DTD SVG 1.1//EN"
 "http://www.w3.org/Graphics/SVG/1.1/DTD/svg11.dtd">
<!-- Generated by graphviz version 2.43.0 (0)
 -->
<!-- Title: src/gui/windows/cp15_window.hpp Pages: 1 -->
<svg width="1196pt" height="352pt"
 viewBox="0.00 0.00 1196.00 352.00" xmlns="http://www.w3.org/2000/svg" xmlns:xlink="http://www.w3.org/1999/xlink">
<g id="graph0" class="graph" transform="scale(1 1) rotate(0) translate(4 348)">
<title>src/gui/windows/cp15_window.hpp</title>
<!-- Node1 -->
<g id="node1" class="node">
<title>Node1</title>
<g id="a_node1"><a xlink:title="This file defines a window that displays data (information) related to coprocessor 15.">
<polygon fill="#bfbfbf" stroke="black" points="109.5,-313.5 109.5,-343.5 230.5,-343.5 230.5,-313.5 109.5,-313.5"/>
<text text-anchor="start" x="117.5" y="-331.5" font-family="Helvetica,sans-Serif" font-size="10.00">src/gui/windows/cp15</text>
<text text-anchor="middle" x="170" y="-320.5" font-family="Helvetica,sans-Serif" font-size="10.00">_window.hpp</text>
</a>
</g>
</g>
<!-- Node2 -->
<g id="node2" class="node">
<title>Node2</title>
<g id="a_node2"><a xlink:href="window_8hpp.html" target="_top" xlink:title="This file defines an interface for all windows that will be rendered by the application.">
<polygon fill="none" stroke="black" points="68.5,-252 68.5,-271 151.5,-271 151.5,-252 68.5,-252"/>
<text text-anchor="middle" x="110" y="-259" font-family="Helvetica,sans-Serif" font-size="10.00">../window.hpp</text>
</a>
</g>
</g>
<!-- Node1&#45;&gt;Node2 -->
<g id="edge1" class="edge">
<title>Node1&#45;&gt;Node2</title>
<path fill="none" stroke="midnightblue" d="M156.98,-313.4C147.53,-303.16 134.73,-289.3 124.88,-278.62"/>
<polygon fill="midnightblue" stroke="midnightblue" points="127.38,-276.17 118.03,-271.19 122.24,-280.92 127.38,-276.17"/>
</g>
<!-- Node4 -->
<g id="node4" class="node">
<title>Node4</title>
<g id="a_node4"><a xlink:href="cp15_8hpp.html" target="_top" xlink:title="This file defines coprocessor CP15.">
<polygon fill="none" stroke="black" points="238,-246.5 238,-276.5 360,-276.5 360,-246.5 238,-246.5"/>
<text text-anchor="start" x="246" y="-264.5" font-family="Helvetica,sans-Serif" font-size="10.00">../../core/coprocessors</text>
<text text-anchor="middle" x="299" y="-253.5" font-family="Helvetica,sans-Serif" font-size="10.00">/cp15/cp15.hpp</text>
</a>
</g>
</g>
<!-- Node1&#45;&gt;Node4 -->
<g id="edge3" class="edge">
<title>Node1&#45;&gt;Node4</title>
<path fill="none" stroke="midnightblue" d="M197.99,-313.4C216.75,-303.94 241.67,-291.39 262.05,-281.12"/>
<polygon fill="midnightblue" stroke="midnightblue" points="263.71,-284.2 271.06,-276.58 260.56,-277.95 263.71,-284.2"/>
</g>
<!-- Node3 -->
<g id="node3" class="node">
<title>Node3</title>
<g id="a_node3"><a xlink:title=" ">
<polygon fill="none" stroke="#bfbfbf" points="0,-190.5 0,-209.5 84,-209.5 84,-190.5 0,-190.5"/>
<text text-anchor="middle" x="42" y="-197.5" font-family="Helvetica,sans-Serif" font-size="10.00">imgui/imgui.h</text>
</a>
</g>
</g>
<!-- Node2&#45;&gt;Node3 -->
<g id="edge2" class="edge">
<title>Node2&#45;&gt;Node3</title>
<path fill="none" stroke="midnightblue" d="M100.26,-251.98C89.65,-242.7 72.48,-227.67 59.52,-216.33"/>
<polygon fill="midnightblue" stroke="midnightblue" points="61.56,-213.46 51.72,-209.51 56.95,-218.73 61.56,-213.46"/>
</g>
<!-- Node5 -->
<g id="node5" class="node">
<title>Node5</title>
<g id="a_node5"><a xlink:href="c1_8hpp.html" target="_top" xlink:title="This file defines the primary register C1 of coprocessor CP15.">
<polygon fill="none" stroke="black" points="101.5,-190.5 101.5,-209.5 150.5,-209.5 150.5,-190.5 101.5,-190.5"/>
<text text-anchor="middle" x="126" y="-197.5" font-family="Helvetica,sans-Serif" font-size="10.00">c1.hpp</text>
</a>
</g>
</g>
<!-- Node4&#45;&gt;Node5 -->
<g id="edge4" class="edge">
<title>Node4&#45;&gt;Node5</title>
<path fill="none" stroke="midnightblue" d="M258,-246.4C228.28,-236.18 188.54,-222.51 160.45,-212.85"/>
<polygon fill="midnightblue" stroke="midnightblue" points="161.26,-209.43 150.67,-209.48 158.99,-216.05 161.26,-209.43"/>
</g>
<!-- Node6 -->
<g id="node6" class="node">
<title>Node6</title>
<g id="a_node6"><a xlink:href="primary__reg_8hpp.html" target="_top" xlink:title="This file defines a primary register interface of coprocessor CP15.">
<polygon fill="none" stroke="black" points="250.5,-123.5 250.5,-142.5 347.5,-142.5 347.5,-123.5 250.5,-123.5"/>
<text text-anchor="middle" x="299" y="-130.5" font-family="Helvetica,sans-Serif" font-size="10.00">primary_reg.hpp</text>
</a>
</g>
</g>
<!-- Node4&#45;&gt;Node6 -->
<g id="edge17" class="edge">
<title>Node4&#45;&gt;Node6</title>
<path fill="none" stroke="midnightblue" d="M245.53,-246.46C227.22,-238.82 208.67,-227.26 198,-210 179.7,-180.4 222.84,-158.3 258.31,-145.78"/>
<polygon fill="midnightblue" stroke="midnightblue" points="259.69,-149.01 268.06,-142.5 257.46,-142.37 259.69,-149.01"/>
</g>
<!-- Node7 -->
<g id="node7" class="node">
<title>Node7</title>
<g id="a_node7"><a xlink:href="logger_8hpp.html" target="_top" xlink:title="This file defines a general logger interface as well as a logging system that is used in the project.">
<polygon fill="none" stroke="black" points="320,-56.5 320,-75.5 466,-75.5 466,-56.5 320,-56.5"/>
<text text-anchor="middle" x="393" y="-63.5" font-family="Helvetica,sans-Serif" font-size="10.00">zero_mate/utils/logger.hpp</text>
</a>
</g>
</g>
<!-- Node4&#45;&gt;Node7 -->
<g id="edge27" class="edge">
<title>Node4&#45;&gt;Node7</title>
<path fill="none" stroke="midnightblue" d="M360.09,-259.38C397.42,-255.14 442.56,-242.87 467,-210 498.7,-167.38 442.57,-109.24 411.53,-82.11"/>
<polygon fill="midnightblue" stroke="midnightblue" points="413.78,-79.42 403.89,-75.61 409.24,-84.75 413.78,-79.42"/>
</g>
<!-- Node9 -->
<g id="node9" class="node">
<title>Node9</title>
<g id="a_node9"><a xlink:href="c2_8hpp.html" target="_top" xlink:title="This file defines the primary register C2 of coprocessor CP15.">
<polygon fill="none" stroke="black" points="207.5,-190.5 207.5,-209.5 256.5,-209.5 256.5,-190.5 207.5,-190.5"/>
<text text-anchor="middle" x="232" y="-197.5" font-family="Helvetica,sans-Serif" font-size="10.00">c2.hpp</text>
</a>
</g>
</g>
<!-- Node4&#45;&gt;Node9 -->
<g id="edge9" class="edge">
<title>Node4&#45;&gt;Node9</title>
<path fill="none" stroke="midnightblue" d="M283.12,-246.4C272.98,-237.4 259.84,-225.72 249.41,-216.47"/>
<polygon fill="midnightblue" stroke="midnightblue" points="251.55,-213.68 241.75,-209.66 246.9,-218.92 251.55,-213.68"/>
</g>
<!-- Node10 -->
<g id="node10" class="node">
<title>Node10</title>
<g id="a_node10"><a xlink:href="c3_8hpp.html" target="_top" xlink:title="This file defines the primary register C3 of coprocessor CP15.">
<polygon fill="none" stroke="black" points="274.5,-190.5 274.5,-209.5 323.5,-209.5 323.5,-190.5 274.5,-190.5"/>
<text text-anchor="middle" x="299" y="-197.5" font-family="Helvetica,sans-Serif" font-size="10.00">c3.hpp</text>
</a>
</g>
</g>
<!-- Node4&#45;&gt;Node10 -->
<g id="edge11" class="edge">
<title>Node4&#45;&gt;Node10</title>
<path fill="none" stroke="midnightblue" d="M299,-246.4C299,-238.47 299,-228.46 299,-219.86"/>
<polygon fill="midnightblue" stroke="midnightblue" points="302.5,-219.66 299,-209.66 295.5,-219.66 302.5,-219.66"/>
</g>
<!-- Node11 -->
<g id="node11" class="node">
<title>Node11</title>
<g id="a_node11"><a xlink:href="c7_8hpp.html" target="_top" xlink:title="This file defines the primary register C7 of coprocessor CP15.">
<polygon fill="none" stroke="black" points="341.5,-190.5 341.5,-209.5 390.5,-209.5 390.5,-190.5 341.5,-190.5"/>
<text text-anchor="middle" x="366" y="-197.5" font-family="Helvetica,sans-Serif" font-size="10.00">c7.hpp</text>
</a>
</g>
</g>
<!-- Node4&#45;&gt;Node11 -->
<g id="edge13" class="edge">
<title>Node4&#45;&gt;Node11</title>
<path fill="none" stroke="midnightblue" d="M314.88,-246.4C325.02,-237.4 338.16,-225.72 348.59,-216.47"/>
<polygon fill="midnightblue" stroke="midnightblue" points="351.1,-218.92 356.25,-209.66 346.45,-213.68 351.1,-218.92"/>
</g>
<!-- Node12 -->
<g id="node12" class="node">
<title>Node12</title>
<g id="a_node12"><a xlink:href="c8_8hpp.html" target="_top" xlink:title="This file defines the primary register C8 of coprocessor CP15.">
<polygon fill="none" stroke="black" points="408.5,-190.5 408.5,-209.5 457.5,-209.5 457.5,-190.5 408.5,-190.5"/>
<text text-anchor="middle" x="433" y="-197.5" font-family="Helvetica,sans-Serif" font-size="10.00">c8.hpp</text>
</a>
</g>
</g>
<!-- Node4&#45;&gt;Node12 -->
<g id="edge15" class="edge">
<title>Node4&#45;&gt;Node12</title>
<path fill="none" stroke="midnightblue" d="M330.76,-246.4C353.04,-236.51 382.59,-223.38 404.19,-213.79"/>
<polygon fill="midnightblue" stroke="midnightblue" points="405.78,-216.91 413.5,-209.66 402.94,-210.52 405.78,-216.91"/>
</g>
<!-- Node13 -->
<g id="node13" class="node">
<title>Node13</title>
<g id="a_node13"><a xlink:href="coprocessor_8hpp.html" target="_top" xlink:title="This file defines a general interface of a coprocessor.">
<polygon fill="none" stroke="black" points="693,-190.5 693,-209.5 797,-209.5 797,-190.5 693,-190.5"/>
<text text-anchor="middle" x="745" y="-197.5" font-family="Helvetica,sans-Serif" font-size="10.00">../coprocessor.hpp</text>
</a>
</g>
</g>
<!-- Node4&#45;&gt;Node13 -->
<g id="edge18" class="edge">
<title>Node4&#45;&gt;Node13</title>
<path fill="none" stroke="midnightblue" d="M360.08,-252.35C444.9,-241.04 597.54,-220.67 682.9,-209.28"/>
<polygon fill="midnightblue" stroke="midnightblue" points="683.52,-212.73 692.97,-207.94 682.59,-205.79 683.52,-212.73"/>
</g>
<!-- Node5&#45;&gt;Node6 -->
<g id="edge5" class="edge">
<title>Node5&#45;&gt;Node6</title>
<path fill="none" stroke="midnightblue" d="M148.97,-190.37C179.17,-179.02 232.4,-159.02 266.66,-146.15"/>
<polygon fill="midnightblue" stroke="midnightblue" points="268.08,-149.36 276.21,-142.56 265.62,-142.8 268.08,-149.36"/>
</g>
<!-- Node5&#45;&gt;Node7 -->
<g id="edge8" class="edge">
<title>Node5&#45;&gt;Node7</title>
<path fill="none" stroke="midnightblue" d="M135.15,-190.3C153.8,-173 198.16,-134.08 242,-112 273.06,-96.36 310.51,-85.15 340.34,-77.84"/>
<polygon fill="midnightblue" stroke="midnightblue" points="341.23,-81.22 350.15,-75.5 339.61,-74.41 341.23,-81.22"/>
</g>
<!-- Node6&#45;&gt;Node7 -->
<g id="edge6" class="edge">
<title>Node6&#45;&gt;Node7</title>
<path fill="none" stroke="midnightblue" d="M311.68,-123.23C327.18,-112.51 353.64,-94.22 372.16,-81.41"/>
<polygon fill="midnightblue" stroke="midnightblue" points="374.29,-84.19 380.52,-75.63 370.31,-78.44 374.29,-84.19"/>
</g>
<!-- Node8 -->
<g id="node8" class="node">
<title>Node8</title>
<g id="a_node8"><a xlink:href="api__export_8hpp.html" target="_top" xlink:title="This file defines macros for exporting symbols out of a shared library.">
<polygon fill="none" stroke="black" points="321,-0.5 321,-19.5 465,-19.5 465,-0.5 321,-0.5"/>
<text text-anchor="middle" x="393" y="-7.5" font-family="Helvetica,sans-Serif" font-size="10.00">zero_mate/api_export.hpp</text>
</a>
</g>
</g>
<!-- Node7&#45;&gt;Node8 -->
<g id="edge7" class="edge">
<title>Node7&#45;&gt;Node8</title>
<path fill="none" stroke="midnightblue" d="M393,-56.08C393,-49.01 393,-38.86 393,-29.99"/>
<polygon fill="midnightblue" stroke="midnightblue" points="396.5,-29.75 393,-19.75 389.5,-29.75 396.5,-29.75"/>
</g>
<!-- Node9&#45;&gt;Node6 -->
<g id="edge10" class="edge">
<title>Node9&#45;&gt;Node6</title>
<path fill="none" stroke="midnightblue" d="M241.04,-190.23C251.68,-179.9 269.58,-162.54 282.68,-149.83"/>
<polygon fill="midnightblue" stroke="midnightblue" points="285.37,-152.1 290.11,-142.63 280.49,-147.08 285.37,-152.1"/>
</g>
<!-- Node10&#45;&gt;Node6 -->
<g id="edge12" class="edge">
<title>Node10&#45;&gt;Node6</title>
<path fill="none" stroke="midnightblue" d="M299,-190.23C299,-180.68 299,-165.12 299,-152.78"/>
<polygon fill="midnightblue" stroke="midnightblue" points="302.5,-152.63 299,-142.63 295.5,-152.63 302.5,-152.63"/>
</g>
<!-- Node11&#45;&gt;Node6 -->
<g id="edge14" class="edge">
<title>Node11&#45;&gt;Node6</title>
<path fill="none" stroke="midnightblue" d="M356.96,-190.23C346.32,-179.9 328.42,-162.54 315.32,-149.83"/>
<polygon fill="midnightblue" stroke="midnightblue" points="317.51,-147.08 307.89,-142.63 312.63,-152.1 317.51,-147.08"/>
</g>
<!-- Node12&#45;&gt;Node6 -->
<g id="edge16" class="edge">
<title>Node12&#45;&gt;Node6</title>
<path fill="none" stroke="midnightblue" d="M415.21,-190.37C392.38,-179.3 352.57,-159.99 326,-147.1"/>
<polygon fill="midnightblue" stroke="midnightblue" points="327.39,-143.88 316.87,-142.67 324.34,-150.18 327.39,-143.88"/>
</g>
<!-- Node14 -->
<g id="node14" class="node">
<title>Node14</title>
<g id="a_node14"><a xlink:href="context_8hpp.html" target="_top" xlink:title="This file defines the context (registers) of the CPU.">
<polygon fill="none" stroke="black" points="514,-123.5 514,-142.5 666,-142.5 666,-123.5 514,-123.5"/>
<text text-anchor="middle" x="590" y="-130.5" font-family="Helvetica,sans-Serif" font-size="10.00">../arm1176jzf_s/context.hpp</text>
</a>
</g>
</g>
<!-- Node13&#45;&gt;Node14 -->
<g id="edge19" class="edge">
<title>Node13&#45;&gt;Node14</title>
<path fill="none" stroke="midnightblue" d="M724.42,-190.37C697.67,-179.15 650.75,-159.48 620.03,-146.59"/>
<polygon fill="midnightblue" stroke="midnightblue" points="621.24,-143.31 610.67,-142.67 618.54,-149.76 621.24,-143.31"/>
</g>
<!-- Node15 -->
<g id="node15" class="node">
<title>Node15</title>
<g id="a_node15"><a xlink:href="coprocessor__register__transfer_8hpp.html" target="_top" xlink:title="This file defines a coprocessor register transfer (MRC, MCR).">
<polygon fill="none" stroke="black" points="684.5,-112.5 684.5,-153.5 805.5,-153.5 805.5,-112.5 684.5,-112.5"/>
<text text-anchor="start" x="692.5" y="-141.5" font-family="Helvetica,sans-Serif" font-size="10.00">../arm1176jzf_s/isa</text>
<text text-anchor="start" x="692.5" y="-130.5" font-family="Helvetica,sans-Serif" font-size="10.00">/coprocessor_register</text>
<text text-anchor="middle" x="745" y="-119.5" font-family="Helvetica,sans-Serif" font-size="10.00">_transfer.hpp</text>
</a>
</g>
</g>
<!-- Node13&#45;&gt;Node15 -->
<g id="edge21" class="edge">
<title>Node13&#45;&gt;Node15</title>
<path fill="none" stroke="midnightblue" d="M745,-190.23C745,-183.36 745,-173.38 745,-163.73"/>
<polygon fill="midnightblue" stroke="midnightblue" points="748.5,-163.54 745,-153.54 741.5,-163.54 748.5,-163.54"/>
</g>
<!-- Node17 -->
<g id="node17" class="node">
<title>Node17</title>
<g id="a_node17"><a xlink:href="coprocessor__data__transfer_8hpp.html" target="_top" xlink:title="This file defines a coprocessor data transfer (LDC, STC).">
<polygon fill="none" stroke="black" points="823.5,-118 823.5,-148 992.5,-148 992.5,-118 823.5,-118"/>
<text text-anchor="start" x="831.5" y="-136" font-family="Helvetica,sans-Serif" font-size="10.00">../arm1176jzf_s/isa</text>
<text text-anchor="middle" x="908" y="-125" font-family="Helvetica,sans-Serif" font-size="10.00">/coprocessor_data_transfer.hpp</text>
</a>
</g>
</g>
<!-- Node13&#45;&gt;Node17 -->
<g id="edge23" class="edge">
<title>Node13&#45;&gt;Node17</title>
<path fill="none" stroke="midnightblue" d="M766.65,-190.37C791.21,-180.57 831.94,-164.33 863.39,-151.79"/>
<polygon fill="midnightblue" stroke="midnightblue" points="864.83,-154.98 872.82,-148.03 862.24,-148.48 864.83,-154.98"/>
</g>
<!-- Node18 -->
<g id="node18" class="node">
<title>Node18</title>
<g id="a_node18"><a xlink:href="coprocessor__data__operation_8hpp.html" target="_top" xlink:title="This file defines a coprocessor data operation (CDP).">
<polygon fill="none" stroke="black" points="1010,-118 1010,-148 1188,-148 1188,-118 1010,-118"/>
<text text-anchor="start" x="1018" y="-136" font-family="Helvetica,sans-Serif" font-size="10.00">../arm1176jzf_s/isa</text>
<text text-anchor="middle" x="1099" y="-125" font-family="Helvetica,sans-Serif" font-size="10.00">/coprocessor_data_operation.hpp</text>
</a>
</g>
</g>
<!-- Node13&#45;&gt;Node18 -->
<g id="edge25" class="edge">
<title>Node13&#45;&gt;Node18</title>
<path fill="none" stroke="midnightblue" d="M796.28,-190.49C848.21,-181.76 930.81,-167.57 1002,-154 1008.58,-152.75 1015.41,-151.41 1022.25,-150.05"/>
<polygon fill="midnightblue" stroke="midnightblue" points="1023.15,-153.44 1032.26,-148.03 1021.77,-146.57 1023.15,-153.44"/>
</g>
<!-- Node14&#45;&gt;Node7 -->
<g id="edge20" class="edge">
<title>Node14&#45;&gt;Node7</title>
<path fill="none" stroke="midnightblue" d="M563.84,-123.37C529.16,-111.92 467.8,-91.68 428.83,-78.82"/>
<polygon fill="midnightblue" stroke="midnightblue" points="429.55,-75.37 418.95,-75.56 427.35,-82.02 429.55,-75.37"/>
</g>
<!-- Node16 -->
<g id="node16" class="node">
<title>Node16</title>
<g id="a_node16"><a xlink:href="instruction_8hpp.html" target="_top" xlink:title="This file defines the interface of a general ARM instruction.">
<polygon fill="none" stroke="black" points="863.5,-56.5 863.5,-75.5 952.5,-75.5 952.5,-56.5 863.5,-56.5"/>
<text text-anchor="middle" x="908" y="-63.5" font-family="Helvetica,sans-Serif" font-size="10.00">instruction.hpp</text>
</a>
</g>
</g>
<!-- Node15&#45;&gt;Node16 -->
<g id="edge22" class="edge">
<title>Node15&#45;&gt;Node16</title>
<path fill="none" stroke="midnightblue" d="M793.91,-112.5C820.82,-101.77 853.41,-88.77 876.86,-79.42"/>
<polygon fill="midnightblue" stroke="midnightblue" points="878.31,-82.61 886.3,-75.65 875.72,-76.11 878.31,-82.61"/>
</g>
<!-- Node17&#45;&gt;Node16 -->
<g id="edge24" class="edge">
<title>Node17&#45;&gt;Node16</title>
<path fill="none" stroke="midnightblue" d="M908,-117.9C908,-108.56 908,-96.21 908,-86.02"/>
<polygon fill="midnightblue" stroke="midnightblue" points="911.5,-85.69 908,-75.69 904.5,-85.69 911.5,-85.69"/>
</g>
<!-- Node18&#45;&gt;Node16 -->
<g id="edge26" class="edge">
<title>Node18&#45;&gt;Node16</title>
<path fill="none" stroke="midnightblue" d="M1057.56,-117.9C1023.15,-106.19 974.8,-89.73 942.48,-78.73"/>
<polygon fill="midnightblue" stroke="midnightblue" points="943.59,-75.42 933,-75.51 941.34,-82.04 943.59,-75.42"/>
</g>
</g>
</svg>
