<?xml version="1.0" encoding="UTF-8" standalone="no"?>
<!DOCTYPE svg PUBLIC "-//W3C//DTD SVG 1.1//EN"
 "http://www.w3.org/Graphics/SVG/1.1/DTD/svg11.dtd">
<!-- Generated by graphviz version 2.43.0 (0)
 -->
<!-- Title: src/core/coprocessors/cp15.cpp Pages: 1 -->
<svg width="918pt" height="341pt"
 viewBox="0.00 0.00 918.33 341.00" xmlns="http://www.w3.org/2000/svg" xmlns:xlink="http://www.w3.org/1999/xlink">
<g id="graph0" class="graph" transform="scale(1 1) rotate(0) translate(4 337)">
<title>src/core/coprocessors/cp15.cpp</title>
<!-- Node1 -->
<g id="node1" class="node">
<title>Node1</title>
<g id="a_node1"><a xlink:title=" ">
<polygon fill="#bfbfbf" stroke="black" points="546.33,-302.5 546.33,-332.5 668.33,-332.5 668.33,-302.5 546.33,-302.5"/>
<text text-anchor="start" x="554.33" y="-320.5" font-family="Helvetica,sans-Serif" font-size="10.00">src/core/coprocessors</text>
<text text-anchor="middle" x="607.33" y="-309.5" font-family="Helvetica,sans-Serif" font-size="10.00">/cp15.cpp</text>
</a>
</g>
</g>
<!-- Node2 -->
<g id="node2" class="node">
<title>Node2</title>
<g id="a_node2"><a xlink:title=" ">
<polygon fill="none" stroke="#bfbfbf" points="410.83,-246.5 410.83,-265.5 489.83,-265.5 489.83,-246.5 410.83,-246.5"/>
<text text-anchor="middle" x="450.33" y="-253.5" font-family="Helvetica,sans-Serif" font-size="10.00">fmt/format.h</text>
</a>
</g>
</g>
<!-- Node1&#45;&gt;Node2 -->
<g id="edge1" class="edge">
<title>Node1&#45;&gt;Node2</title>
<path fill="none" stroke="midnightblue" d="M570.13,-302.4C543.55,-292.33 508.15,-278.91 482.73,-269.28"/>
<polygon fill="midnightblue" stroke="midnightblue" points="483.77,-265.93 473.18,-265.66 481.29,-272.47 483.77,-265.93"/>
</g>
<!-- Node3 -->
<g id="node3" class="node">
<title>Node3</title>
<g id="a_node3"><a xlink:title=" ">
<polygon fill="none" stroke="#bfbfbf" points="507.83,-246.5 507.83,-265.5 608.83,-265.5 608.83,-246.5 507.83,-246.5"/>
<text text-anchor="middle" x="558.33" y="-253.5" font-family="Helvetica,sans-Serif" font-size="10.00">magic_enum.hpp</text>
</a>
</g>
</g>
<!-- Node1&#45;&gt;Node3 -->
<g id="edge2" class="edge">
<title>Node1&#45;&gt;Node3</title>
<path fill="none" stroke="midnightblue" d="M595.72,-302.4C588.6,-293.75 579.45,-282.64 571.99,-273.58"/>
<polygon fill="midnightblue" stroke="midnightblue" points="574.52,-271.15 565.46,-265.66 569.12,-275.6 574.52,-271.15"/>
</g>
<!-- Node4 -->
<g id="node4" class="node">
<title>Node4</title>
<g id="a_node4"><a xlink:href="cp15_8hpp.html" target="_top" xlink:title=" ">
<polygon fill="none" stroke="black" points="626.83,-246.5 626.83,-265.5 687.83,-265.5 687.83,-246.5 626.83,-246.5"/>
<text text-anchor="middle" x="657.33" y="-253.5" font-family="Helvetica,sans-Serif" font-size="10.00">cp15.hpp</text>
</a>
</g>
</g>
<!-- Node1&#45;&gt;Node4 -->
<g id="edge3" class="edge">
<title>Node1&#45;&gt;Node4</title>
<path fill="none" stroke="midnightblue" d="M619.18,-302.4C626.45,-293.75 635.79,-282.64 643.41,-273.58"/>
<polygon fill="midnightblue" stroke="midnightblue" points="646.31,-275.57 650.06,-265.66 640.95,-271.06 646.31,-275.57"/>
</g>
<!-- Node19 -->
<g id="node19" class="node">
<title>Node19</title>
<g id="a_node19"><a xlink:href="singleton_8hpp.html" target="_top" xlink:title="This file defines and implements a generic class that is used to treat other classes as singletons.">
<polygon fill="none" stroke="black" points="706.33,-246.5 706.33,-265.5 822.33,-265.5 822.33,-246.5 706.33,-246.5"/>
<text text-anchor="middle" x="764.33" y="-253.5" font-family="Helvetica,sans-Serif" font-size="10.00">../utils/singleton.hpp</text>
</a>
</g>
</g>
<!-- Node1&#45;&gt;Node19 -->
<g id="edge23" class="edge">
<title>Node1&#45;&gt;Node19</title>
<path fill="none" stroke="midnightblue" d="M644.54,-302.4C671.12,-292.33 706.52,-278.91 731.94,-269.28"/>
<polygon fill="midnightblue" stroke="midnightblue" points="733.38,-272.47 741.49,-265.66 730.9,-265.93 733.38,-272.47"/>
</g>
<!-- Node5 -->
<g id="node5" class="node">
<title>Node5</title>
<g id="a_node5"><a xlink:title=" ">
<polygon fill="none" stroke="#bfbfbf" points="229.83,-0.5 229.83,-19.5 276.83,-19.5 276.83,-0.5 229.83,-0.5"/>
<text text-anchor="middle" x="253.33" y="-7.5" font-family="Helvetica,sans-Serif" font-size="10.00">vector</text>
</a>
</g>
</g>
<!-- Node4&#45;&gt;Node5 -->
<g id="edge4" class="edge">
<title>Node4&#45;&gt;Node5</title>
<path fill="none" stroke="midnightblue" d="M626.81,-247.9C623.61,-247.23 620.41,-246.58 617.33,-246 483.91,-220.86 101.82,-256.98 13.33,-154 -51.1,-79.01 139.26,-32.77 219.49,-17.05"/>
<polygon fill="midnightblue" stroke="midnightblue" points="220.43,-20.43 229.6,-15.12 219.12,-13.56 220.43,-20.43"/>
</g>
<!-- Node6 -->
<g id="node6" class="node">
<title>Node6</title>
<g id="a_node6"><a xlink:title=" ">
<polygon fill="none" stroke="#bfbfbf" points="789.83,-190.5 789.83,-209.5 882.83,-209.5 882.83,-190.5 789.83,-190.5"/>
<text text-anchor="middle" x="836.33" y="-197.5" font-family="Helvetica,sans-Serif" font-size="10.00">unordered_map</text>
</a>
</g>
</g>
<!-- Node4&#45;&gt;Node6 -->
<g id="edge5" class="edge">
<title>Node4&#45;&gt;Node6</title>
<path fill="none" stroke="midnightblue" d="M685.7,-246.44C716.07,-237.28 764.44,-222.69 798.15,-212.52"/>
<polygon fill="midnightblue" stroke="midnightblue" points="799.54,-215.76 808.1,-209.52 797.52,-209.05 799.54,-215.76"/>
</g>
<!-- Node7 -->
<g id="node7" class="node">
<title>Node7</title>
<g id="a_node7"><a xlink:href="coprocessor_8hpp.html" target="_top" xlink:title=" ">
<polygon fill="none" stroke="black" points="449.83,-190.5 449.83,-209.5 544.83,-209.5 544.83,-190.5 449.83,-190.5"/>
<text text-anchor="middle" x="497.33" y="-197.5" font-family="Helvetica,sans-Serif" font-size="10.00">coprocessor.hpp</text>
</a>
</g>
</g>
<!-- Node4&#45;&gt;Node7 -->
<g id="edge6" class="edge">
<title>Node4&#45;&gt;Node7</title>
<path fill="none" stroke="midnightblue" d="M631.98,-246.44C605.07,-237.36 562.34,-222.94 532.25,-212.78"/>
<polygon fill="midnightblue" stroke="midnightblue" points="533.16,-209.4 522.57,-209.52 530.92,-216.03 533.16,-209.4"/>
</g>
<!-- Node10 -->
<g id="node10" class="node">
<title>Node10</title>
<g id="a_node10"><a xlink:href="logger_8hpp.html" target="_top" xlink:title=" ">
<polygon fill="none" stroke="black" points="603.33,-56.5 603.33,-75.5 737.33,-75.5 737.33,-56.5 603.33,-56.5"/>
<text text-anchor="middle" x="670.33" y="-63.5" font-family="Helvetica,sans-Serif" font-size="10.00">../utils/logger/logger.hpp</text>
</a>
</g>
</g>
<!-- Node4&#45;&gt;Node10 -->
<g id="edge22" class="edge">
<title>Node4&#45;&gt;Node10</title>
<path fill="none" stroke="midnightblue" d="M668.39,-246.48C687.82,-230.73 727.41,-194.91 742.33,-154 748.73,-136.46 751.38,-128.33 742.33,-112 734.25,-97.41 719.23,-86.92 705,-79.76"/>
<polygon fill="midnightblue" stroke="midnightblue" points="706.38,-76.55 695.84,-75.53 703.45,-82.9 706.38,-76.55"/>
</g>
<!-- Node8 -->
<g id="node8" class="node">
<title>Node8</title>
<g id="a_node8"><a xlink:title=" ">
<polygon fill="none" stroke="#bfbfbf" points="515.33,-0.5 515.33,-19.5 565.33,-19.5 565.33,-0.5 515.33,-0.5"/>
<text text-anchor="middle" x="540.33" y="-7.5" font-family="Helvetica,sans-Serif" font-size="10.00">cstdint</text>
</a>
</g>
</g>
<!-- Node7&#45;&gt;Node8 -->
<g id="edge7" class="edge">
<title>Node7&#45;&gt;Node8</title>
<path fill="none" stroke="midnightblue" d="M507.63,-190.19C516.51,-181.88 528.77,-168.55 534.33,-154 550.39,-111.98 546.74,-57.87 543.22,-29.79"/>
<polygon fill="midnightblue" stroke="midnightblue" points="546.67,-29.18 541.83,-19.76 539.74,-30.15 546.67,-29.18"/>
</g>
<!-- Node9 -->
<g id="node9" class="node">
<title>Node9</title>
<g id="a_node9"><a xlink:href="context_8hpp.html" target="_top" xlink:title="This file defines the context (registers) of the CPU.">
<polygon fill="none" stroke="black" points="581.33,-123.5 581.33,-142.5 733.33,-142.5 733.33,-123.5 581.33,-123.5"/>
<text text-anchor="middle" x="657.33" y="-130.5" font-family="Helvetica,sans-Serif" font-size="10.00">../arm1176jzf_s/context.hpp</text>
</a>
</g>
</g>
<!-- Node7&#45;&gt;Node9 -->
<g id="edge8" class="edge">
<title>Node7&#45;&gt;Node9</title>
<path fill="none" stroke="midnightblue" d="M518.58,-190.37C546.27,-179.12 594.89,-159.37 626.6,-146.49"/>
<polygon fill="midnightblue" stroke="midnightblue" points="628.31,-149.57 636.25,-142.56 625.67,-143.08 628.31,-149.57"/>
</g>
<!-- Node15 -->
<g id="node15" class="node">
<title>Node15</title>
<g id="a_node15"><a xlink:href="coprocessor__register__transfer_8hpp.html" target="_top" xlink:title="This file defines a coprocessor register transfer (MRC, MCR).">
<polygon fill="none" stroke="black" points="217.83,-112.5 217.83,-153.5 338.83,-153.5 338.83,-112.5 217.83,-112.5"/>
<text text-anchor="start" x="225.83" y="-141.5" font-family="Helvetica,sans-Serif" font-size="10.00">../arm1176jzf_s/isa</text>
<text text-anchor="start" x="225.83" y="-130.5" font-family="Helvetica,sans-Serif" font-size="10.00">/coprocessor_register</text>
<text text-anchor="middle" x="278.33" y="-119.5" font-family="Helvetica,sans-Serif" font-size="10.00">_transfer.hpp</text>
</a>
</g>
</g>
<!-- Node7&#45;&gt;Node15 -->
<g id="edge16" class="edge">
<title>Node7&#45;&gt;Node15</title>
<path fill="none" stroke="midnightblue" d="M468.25,-190.37C437.94,-181.37 389.31,-166.94 348.84,-154.93"/>
<polygon fill="midnightblue" stroke="midnightblue" points="349.6,-151.5 339.01,-152.01 347.6,-158.21 349.6,-151.5"/>
</g>
<!-- Node17 -->
<g id="node17" class="node">
<title>Node17</title>
<g id="a_node17"><a xlink:href="coprocessor__data__transfer_8hpp.html" target="_top" xlink:title="This file defines a coprocessor data transfer (LDC, STC).">
<polygon fill="none" stroke="black" points="356.83,-118 356.83,-148 525.83,-148 525.83,-118 356.83,-118"/>
<text text-anchor="start" x="364.83" y="-136" font-family="Helvetica,sans-Serif" font-size="10.00">../arm1176jzf_s/isa</text>
<text text-anchor="middle" x="441.33" y="-125" font-family="Helvetica,sans-Serif" font-size="10.00">/coprocessor_data_transfer.hpp</text>
</a>
</g>
</g>
<!-- Node7&#45;&gt;Node17 -->
<g id="edge18" class="edge">
<title>Node7&#45;&gt;Node17</title>
<path fill="none" stroke="midnightblue" d="M489.78,-190.23C482.21,-181.45 470.26,-167.58 460.13,-155.81"/>
<polygon fill="midnightblue" stroke="midnightblue" points="462.65,-153.38 453.47,-148.09 457.35,-157.95 462.65,-153.38"/>
</g>
<!-- Node18 -->
<g id="node18" class="node">
<title>Node18</title>
<g id="a_node18"><a xlink:href="coprocessor__data__operation_8hpp.html" target="_top" xlink:title="This file defines a coprocessor data operation (CDP).">
<polygon fill="none" stroke="black" points="22.33,-118 22.33,-148 200.33,-148 200.33,-118 22.33,-118"/>
<text text-anchor="start" x="30.33" y="-136" font-family="Helvetica,sans-Serif" font-size="10.00">../arm1176jzf_s/isa</text>
<text text-anchor="middle" x="111.33" y="-125" font-family="Helvetica,sans-Serif" font-size="10.00">/coprocessor_data_operation.hpp</text>
</a>
</g>
</g>
<!-- Node7&#45;&gt;Node18 -->
<g id="edge20" class="edge">
<title>Node7&#45;&gt;Node18</title>
<path fill="none" stroke="midnightblue" d="M449.66,-192.3C392.26,-184.08 293.03,-169.32 208.33,-154 201.57,-152.78 194.55,-151.45 187.53,-150.08"/>
<polygon fill="midnightblue" stroke="midnightblue" points="187.75,-146.55 177.26,-148.04 186.39,-153.42 187.75,-146.55"/>
</g>
<!-- Node9&#45;&gt;Node10 -->
<g id="edge9" class="edge">
<title>Node9&#45;&gt;Node10</title>
<path fill="none" stroke="midnightblue" d="M659.09,-123.23C661,-113.68 664.11,-98.12 666.58,-85.78"/>
<polygon fill="midnightblue" stroke="midnightblue" points="670.08,-86.12 668.61,-75.63 663.22,-84.75 670.08,-86.12"/>
</g>
<!-- Node10&#45;&gt;Node5 -->
<g id="edge11" class="edge">
<title>Node10&#45;&gt;Node5</title>
<path fill="none" stroke="midnightblue" d="M604.26,-56.44C514.23,-44.78 356.33,-24.34 287.28,-15.4"/>
<polygon fill="midnightblue" stroke="midnightblue" points="287.35,-11.88 276.98,-14.06 286.45,-18.82 287.35,-11.88"/>
</g>
<!-- Node10&#45;&gt;Node8 -->
<g id="edge13" class="edge">
<title>Node10&#45;&gt;Node8</title>
<path fill="none" stroke="midnightblue" d="M649.74,-56.44C628.34,-47.56 594.65,-33.56 570.31,-23.45"/>
<polygon fill="midnightblue" stroke="midnightblue" points="571.41,-20.12 560.84,-19.52 568.73,-26.58 571.41,-20.12"/>
</g>
<!-- Node11 -->
<g id="node11" class="node">
<title>Node11</title>
<g id="a_node11"><a xlink:title=" ">
<polygon fill="none" stroke="#bfbfbf" points="862.33,-0.5 862.33,-19.5 910.33,-19.5 910.33,-0.5 862.33,-0.5"/>
<text text-anchor="middle" x="886.33" y="-7.5" font-family="Helvetica,sans-Serif" font-size="10.00">mutex</text>
</a>
</g>
</g>
<!-- Node10&#45;&gt;Node11 -->
<g id="edge10" class="edge">
<title>Node10&#45;&gt;Node11</title>
<path fill="none" stroke="midnightblue" d="M705.61,-56.46C742.3,-47.53 801.41,-33.03 852.33,-20 852.43,-19.97 852.53,-19.95 852.63,-19.92"/>
<polygon fill="midnightblue" stroke="midnightblue" points="853.4,-23.34 862.2,-17.44 851.64,-16.56 853.4,-23.34"/>
</g>
<!-- Node12 -->
<g id="node12" class="node">
<title>Node12</title>
<g id="a_node12"><a xlink:title=" ">
<polygon fill="none" stroke="#bfbfbf" points="583.33,-0.5 583.33,-19.5 641.33,-19.5 641.33,-0.5 583.33,-0.5"/>
<text text-anchor="middle" x="612.33" y="-7.5" font-family="Helvetica,sans-Serif" font-size="10.00">memory</text>
</a>
</g>
</g>
<!-- Node10&#45;&gt;Node12 -->
<g id="edge12" class="edge">
<title>Node10&#45;&gt;Node12</title>
<path fill="none" stroke="midnightblue" d="M661.02,-56.32C652.44,-48.34 639.52,-36.31 629.15,-26.65"/>
<polygon fill="midnightblue" stroke="midnightblue" points="631.53,-24.09 621.82,-19.83 626.76,-29.21 631.53,-24.09"/>
</g>
<!-- Node13 -->
<g id="node13" class="node">
<title>Node13</title>
<g id="a_node13"><a xlink:title=" ">
<polygon fill="none" stroke="#bfbfbf" points="659.83,-0.5 659.83,-19.5 732.83,-19.5 732.83,-0.5 659.83,-0.5"/>
<text text-anchor="middle" x="696.33" y="-7.5" font-family="Helvetica,sans-Serif" font-size="10.00">string_view</text>
</a>
</g>
</g>
<!-- Node10&#45;&gt;Node13 -->
<g id="edge14" class="edge">
<title>Node10&#45;&gt;Node13</title>
<path fill="none" stroke="midnightblue" d="M674.63,-56.08C678.19,-48.69 683.36,-37.95 687.76,-28.81"/>
<polygon fill="midnightblue" stroke="midnightblue" points="690.94,-30.28 692.12,-19.75 684.63,-27.24 690.94,-30.28"/>
</g>
<!-- Node14 -->
<g id="node14" class="node">
<title>Node14</title>
<g id="a_node14"><a xlink:title=" ">
<polygon fill="none" stroke="#bfbfbf" points="750.83,-0.5 750.83,-19.5 843.83,-19.5 843.83,-0.5 750.83,-0.5"/>
<text text-anchor="middle" x="797.33" y="-7.5" font-family="Helvetica,sans-Serif" font-size="10.00">source_location</text>
</a>
</g>
</g>
<!-- Node10&#45;&gt;Node14 -->
<g id="edge15" class="edge">
<title>Node10&#45;&gt;Node14</title>
<path fill="none" stroke="midnightblue" d="M690.46,-56.44C711.36,-47.56 744.27,-33.56 768.05,-23.45"/>
<polygon fill="midnightblue" stroke="midnightblue" points="769.47,-26.65 777.31,-19.52 766.73,-20.21 769.47,-26.65"/>
</g>
<!-- Node16 -->
<g id="node16" class="node">
<title>Node16</title>
<g id="a_node16"><a xlink:href="instruction_8hpp.html" target="_top" xlink:title="This file defines the interface of a general ARM instruction.">
<polygon fill="none" stroke="black" points="233.83,-56.5 233.83,-75.5 322.83,-75.5 322.83,-56.5 233.83,-56.5"/>
<text text-anchor="middle" x="278.33" y="-63.5" font-family="Helvetica,sans-Serif" font-size="10.00">instruction.hpp</text>
</a>
</g>
</g>
<!-- Node15&#45;&gt;Node16 -->
<g id="edge17" class="edge">
<title>Node15&#45;&gt;Node16</title>
<path fill="none" stroke="midnightblue" d="M278.33,-112.5C278.33,-104.07 278.33,-94.24 278.33,-85.87"/>
<polygon fill="midnightblue" stroke="midnightblue" points="281.83,-85.65 278.33,-75.65 274.83,-85.65 281.83,-85.65"/>
</g>
<!-- Node17&#45;&gt;Node16 -->
<g id="edge19" class="edge">
<title>Node17&#45;&gt;Node16</title>
<path fill="none" stroke="midnightblue" d="M405.97,-117.9C377.11,-106.39 336.76,-90.3 309.2,-79.31"/>
<polygon fill="midnightblue" stroke="midnightblue" points="310.25,-75.96 299.67,-75.51 307.66,-82.46 310.25,-75.96"/>
</g>
<!-- Node18&#45;&gt;Node16 -->
<g id="edge21" class="edge">
<title>Node18&#45;&gt;Node16</title>
<path fill="none" stroke="midnightblue" d="M147.57,-117.9C177.26,-106.34 218.84,-90.16 247.09,-79.16"/>
<polygon fill="midnightblue" stroke="midnightblue" points="248.43,-82.4 256.48,-75.51 245.89,-75.87 248.43,-82.4"/>
</g>
</g>
</svg>
