<?xml version="1.0" encoding="UTF-8" standalone="no"?>
<!DOCTYPE svg PUBLIC "-//W3C//DTD SVG 1.1//EN"
 "http://www.w3.org/Graphics/SVG/1.1/DTD/svg11.dtd">
<!-- Generated by graphviz version 2.43.0 (0)
 -->
<!-- Title: src/gui/windows/cp15_window.cpp Pages: 1 -->
<svg width="959pt" height="352pt"
 viewBox="0.00 0.00 958.50 352.00" xmlns="http://www.w3.org/2000/svg" xmlns:xlink="http://www.w3.org/1999/xlink">
<g id="graph0" class="graph" transform="scale(1 1) rotate(0) translate(4 348)">
<title>src/gui/windows/cp15_window.cpp</title>
<!-- Node1 -->
<g id="node1" class="node">
<title>Node1</title>
<g id="a_node1"><a xlink:title=" ">
<polygon fill="#bfbfbf" stroke="black" points="50,-313.5 50,-343.5 171,-343.5 171,-313.5 50,-313.5"/>
<text text-anchor="start" x="58" y="-331.5" font-family="Helvetica,sans-Serif" font-size="10.00">src/gui/windows/cp15</text>
<text text-anchor="middle" x="110.5" y="-320.5" font-family="Helvetica,sans-Serif" font-size="10.00">_window.cpp</text>
</a>
</g>
</g>
<!-- Node2 -->
<g id="node2" class="node">
<title>Node2</title>
<g id="a_node2"><a xlink:title=" ">
<polygon fill="none" stroke="#bfbfbf" points="0,-257.5 0,-276.5 53,-276.5 53,-257.5 0,-257.5"/>
<text text-anchor="middle" x="26.5" y="-264.5" font-family="Helvetica,sans-Serif" font-size="10.00">imgui.h</text>
</a>
</g>
</g>
<!-- Node1&#45;&gt;Node2 -->
<g id="edge1" class="edge">
<title>Node1&#45;&gt;Node2</title>
<path fill="none" stroke="midnightblue" d="M90.59,-313.4C77.51,-304.13 60.42,-292.03 47.18,-282.65"/>
<polygon fill="midnightblue" stroke="midnightblue" points="48.91,-279.58 38.72,-276.66 44.86,-285.29 48.91,-279.58"/>
</g>
<!-- Node3 -->
<g id="node3" class="node">
<title>Node3</title>
<g id="a_node3"><a xlink:title=" ">
<polygon fill="none" stroke="#bfbfbf" points="71,-257.5 71,-276.5 150,-276.5 150,-257.5 71,-257.5"/>
<text text-anchor="middle" x="110.5" y="-264.5" font-family="Helvetica,sans-Serif" font-size="10.00">fmt/format.h</text>
</a>
</g>
</g>
<!-- Node1&#45;&gt;Node3 -->
<g id="edge2" class="edge">
<title>Node1&#45;&gt;Node3</title>
<path fill="none" stroke="midnightblue" d="M110.5,-313.4C110.5,-305.47 110.5,-295.46 110.5,-286.86"/>
<polygon fill="midnightblue" stroke="midnightblue" points="114,-286.66 110.5,-276.66 107,-286.66 114,-286.66"/>
</g>
<!-- Node4 -->
<g id="node4" class="node">
<title>Node4</title>
<g id="a_node4"><a xlink:href="cp15__window_8hpp.html" target="_top" xlink:title=" ">
<polygon fill="none" stroke="black" points="168,-257.5 168,-276.5 271,-276.5 271,-257.5 168,-257.5"/>
<text text-anchor="middle" x="219.5" y="-264.5" font-family="Helvetica,sans-Serif" font-size="10.00">cp15_window.hpp</text>
</a>
</g>
</g>
<!-- Node1&#45;&gt;Node4 -->
<g id="edge3" class="edge">
<title>Node1&#45;&gt;Node4</title>
<path fill="none" stroke="midnightblue" d="M136.33,-313.4C153.97,-303.77 177.2,-291.09 194.63,-281.58"/>
<polygon fill="midnightblue" stroke="midnightblue" points="196.54,-284.52 203.64,-276.66 193.19,-278.38 196.54,-284.52"/>
</g>
<!-- Node5 -->
<g id="node5" class="node">
<title>Node5</title>
<g id="a_node5"><a xlink:href="window_8hpp.html" target="_top" xlink:title=" ">
<polygon fill="none" stroke="black" points="118,-196 118,-215 201,-215 201,-196 118,-196"/>
<text text-anchor="middle" x="159.5" y="-203" font-family="Helvetica,sans-Serif" font-size="10.00">../window.hpp</text>
</a>
</g>
</g>
<!-- Node4&#45;&gt;Node5 -->
<g id="edge4" class="edge">
<title>Node4&#45;&gt;Node5</title>
<path fill="none" stroke="midnightblue" d="M210.9,-257.48C201.64,-248.28 186.68,-233.46 175.29,-222.16"/>
<polygon fill="midnightblue" stroke="midnightblue" points="177.65,-219.57 168.08,-215.01 172.72,-224.54 177.65,-219.57"/>
</g>
<!-- Node7 -->
<g id="node7" class="node">
<title>Node7</title>
<g id="a_node7"><a xlink:href="cp15_8hpp.html" target="_top" xlink:title="This file defines CP15 (system control coprocessor).">
<polygon fill="none" stroke="black" points="219.5,-190.5 219.5,-220.5 341.5,-220.5 341.5,-190.5 219.5,-190.5"/>
<text text-anchor="start" x="227.5" y="-208.5" font-family="Helvetica,sans-Serif" font-size="10.00">../../core/coprocessors</text>
<text text-anchor="middle" x="280.5" y="-197.5" font-family="Helvetica,sans-Serif" font-size="10.00">/cp15.hpp</text>
</a>
</g>
</g>
<!-- Node4&#45;&gt;Node7 -->
<g id="edge6" class="edge">
<title>Node4&#45;&gt;Node7</title>
<path fill="none" stroke="midnightblue" d="M228.24,-257.48C236.19,-249.72 248.26,-237.94 258.8,-227.66"/>
<polygon fill="midnightblue" stroke="midnightblue" points="261.41,-230.01 266.12,-220.52 256.52,-225 261.41,-230.01"/>
</g>
<!-- Node6 -->
<g id="node6" class="node">
<title>Node6</title>
<g id="a_node6"><a xlink:title=" ">
<polygon fill="none" stroke="#bfbfbf" points="130.5,-134.5 130.5,-153.5 188.5,-153.5 188.5,-134.5 130.5,-134.5"/>
<text text-anchor="middle" x="159.5" y="-141.5" font-family="Helvetica,sans-Serif" font-size="10.00">memory</text>
</a>
</g>
</g>
<!-- Node5&#45;&gt;Node6 -->
<g id="edge5" class="edge">
<title>Node5&#45;&gt;Node6</title>
<path fill="none" stroke="midnightblue" d="M159.5,-195.98C159.5,-187.58 159.5,-174.48 159.5,-163.66"/>
<polygon fill="midnightblue" stroke="midnightblue" points="163,-163.51 159.5,-153.51 156,-163.51 163,-163.51"/>
</g>
<!-- Node8 -->
<g id="node8" class="node">
<title>Node8</title>
<g id="a_node8"><a xlink:href="coprocessor_8hpp.html" target="_top" xlink:title="This file defines a general interface of a coprocessor.">
<polygon fill="none" stroke="black" points="460,-134.5 460,-153.5 555,-153.5 555,-134.5 460,-134.5"/>
<text text-anchor="middle" x="507.5" y="-141.5" font-family="Helvetica,sans-Serif" font-size="10.00">coprocessor.hpp</text>
</a>
</g>
</g>
<!-- Node7&#45;&gt;Node8 -->
<g id="edge7" class="edge">
<title>Node7&#45;&gt;Node8</title>
<path fill="none" stroke="midnightblue" d="M334.01,-190.47C374.03,-179.99 428.01,-165.84 465.07,-156.12"/>
<polygon fill="midnightblue" stroke="midnightblue" points="466.26,-159.43 475.05,-153.51 464.49,-152.66 466.26,-159.43"/>
</g>
<!-- Node10 -->
<g id="node10" class="node">
<title>Node10</title>
<g id="a_node10"><a xlink:href="logger_8hpp.html" target="_top" xlink:title="This file defines a general logger interface as well as a logging system that is used in the project.">
<polygon fill="none" stroke="black" points="233.5,-0.5 233.5,-19.5 367.5,-19.5 367.5,-0.5 233.5,-0.5"/>
<text text-anchor="middle" x="300.5" y="-7.5" font-family="Helvetica,sans-Serif" font-size="10.00">../utils/logger/logger.hpp</text>
</a>
</g>
</g>
<!-- Node7&#45;&gt;Node10 -->
<g id="edge16" class="edge">
<title>Node7&#45;&gt;Node10</title>
<path fill="none" stroke="midnightblue" d="M275.57,-190.15C267.08,-163.14 252.04,-103.22 267.5,-56 270.99,-45.34 278.07,-35.12 284.79,-27.12"/>
<polygon fill="midnightblue" stroke="midnightblue" points="287.4,-29.44 291.48,-19.66 282.2,-24.76 287.4,-29.44"/>
</g>
<!-- Node9 -->
<g id="node9" class="node">
<title>Node9</title>
<g id="a_node9"><a xlink:href="context_8hpp.html" target="_top" xlink:title="This file defines the context (registers) of the CPU.">
<polygon fill="none" stroke="black" points="276.5,-67.5 276.5,-86.5 428.5,-86.5 428.5,-67.5 276.5,-67.5"/>
<text text-anchor="middle" x="352.5" y="-74.5" font-family="Helvetica,sans-Serif" font-size="10.00">../arm1176jzf_s/context.hpp</text>
</a>
</g>
</g>
<!-- Node8&#45;&gt;Node9 -->
<g id="edge8" class="edge">
<title>Node8&#45;&gt;Node9</title>
<path fill="none" stroke="midnightblue" d="M486.92,-134.37C460.17,-123.15 413.25,-103.48 382.53,-90.59"/>
<polygon fill="midnightblue" stroke="midnightblue" points="383.74,-87.31 373.17,-86.67 381.04,-93.76 383.74,-87.31"/>
</g>
<!-- Node11 -->
<g id="node11" class="node">
<title>Node11</title>
<g id="a_node11"><a xlink:href="coprocessor__register__transfer_8hpp.html" target="_top" xlink:title="This file defines a coprocessor register transfer (MRC, MCR).">
<polygon fill="none" stroke="black" points="447,-56.5 447,-97.5 568,-97.5 568,-56.5 447,-56.5"/>
<text text-anchor="start" x="455" y="-85.5" font-family="Helvetica,sans-Serif" font-size="10.00">../arm1176jzf_s/isa</text>
<text text-anchor="start" x="455" y="-74.5" font-family="Helvetica,sans-Serif" font-size="10.00">/coprocessor_register</text>
<text text-anchor="middle" x="507.5" y="-63.5" font-family="Helvetica,sans-Serif" font-size="10.00">_transfer.hpp</text>
</a>
</g>
</g>
<!-- Node8&#45;&gt;Node11 -->
<g id="edge10" class="edge">
<title>Node8&#45;&gt;Node11</title>
<path fill="none" stroke="midnightblue" d="M507.5,-134.23C507.5,-127.36 507.5,-117.38 507.5,-107.73"/>
<polygon fill="midnightblue" stroke="midnightblue" points="511,-107.54 507.5,-97.54 504,-107.54 511,-107.54"/>
</g>
<!-- Node13 -->
<g id="node13" class="node">
<title>Node13</title>
<g id="a_node13"><a xlink:href="coprocessor__data__transfer_8hpp.html" target="_top" xlink:title="This file defines a coprocessor data transfer (LDC, STC).">
<polygon fill="none" stroke="black" points="586,-62 586,-92 755,-92 755,-62 586,-62"/>
<text text-anchor="start" x="594" y="-80" font-family="Helvetica,sans-Serif" font-size="10.00">../arm1176jzf_s/isa</text>
<text text-anchor="middle" x="670.5" y="-69" font-family="Helvetica,sans-Serif" font-size="10.00">/coprocessor_data_transfer.hpp</text>
</a>
</g>
</g>
<!-- Node8&#45;&gt;Node13 -->
<g id="edge12" class="edge">
<title>Node8&#45;&gt;Node13</title>
<path fill="none" stroke="midnightblue" d="M529.15,-134.37C553.71,-124.57 594.44,-108.33 625.89,-95.79"/>
<polygon fill="midnightblue" stroke="midnightblue" points="627.33,-98.98 635.32,-92.03 624.74,-92.48 627.33,-98.98"/>
</g>
<!-- Node14 -->
<g id="node14" class="node">
<title>Node14</title>
<g id="a_node14"><a xlink:href="coprocessor__data__operation_8hpp.html" target="_top" xlink:title="This file defines a coprocessor data operation (CDP).">
<polygon fill="none" stroke="black" points="772.5,-62 772.5,-92 950.5,-92 950.5,-62 772.5,-62"/>
<text text-anchor="start" x="780.5" y="-80" font-family="Helvetica,sans-Serif" font-size="10.00">../arm1176jzf_s/isa</text>
<text text-anchor="middle" x="861.5" y="-69" font-family="Helvetica,sans-Serif" font-size="10.00">/coprocessor_data_operation.hpp</text>
</a>
</g>
</g>
<!-- Node8&#45;&gt;Node14 -->
<g id="edge14" class="edge">
<title>Node8&#45;&gt;Node14</title>
<path fill="none" stroke="midnightblue" d="M555.22,-135.01C606.7,-126.3 691.01,-111.76 763.5,-98 770.15,-96.74 777.04,-95.4 783.96,-94.03"/>
<polygon fill="midnightblue" stroke="midnightblue" points="784.95,-97.4 794.07,-92.01 783.58,-90.54 784.95,-97.4"/>
</g>
<!-- Node9&#45;&gt;Node10 -->
<g id="edge9" class="edge">
<title>Node9&#45;&gt;Node10</title>
<path fill="none" stroke="midnightblue" d="M345.49,-67.23C337.38,-57.1 323.85,-40.19 313.74,-27.56"/>
<polygon fill="midnightblue" stroke="midnightblue" points="316.38,-25.25 307.4,-19.63 310.92,-29.62 316.38,-25.25"/>
</g>
<!-- Node12 -->
<g id="node12" class="node">
<title>Node12</title>
<g id="a_node12"><a xlink:href="instruction_8hpp.html" target="_top" xlink:title="This file defines the interface of a general ARM instruction.">
<polygon fill="none" stroke="black" points="626,-0.5 626,-19.5 715,-19.5 715,-0.5 626,-0.5"/>
<text text-anchor="middle" x="670.5" y="-7.5" font-family="Helvetica,sans-Serif" font-size="10.00">instruction.hpp</text>
</a>
</g>
</g>
<!-- Node11&#45;&gt;Node12 -->
<g id="edge11" class="edge">
<title>Node11&#45;&gt;Node12</title>
<path fill="none" stroke="midnightblue" d="M556.41,-56.5C583.32,-45.77 615.91,-32.77 639.36,-23.42"/>
<polygon fill="midnightblue" stroke="midnightblue" points="640.81,-26.61 648.8,-19.65 638.22,-20.11 640.81,-26.61"/>
</g>
<!-- Node13&#45;&gt;Node12 -->
<g id="edge13" class="edge">
<title>Node13&#45;&gt;Node12</title>
<path fill="none" stroke="midnightblue" d="M670.5,-61.9C670.5,-52.56 670.5,-40.21 670.5,-30.02"/>
<polygon fill="midnightblue" stroke="midnightblue" points="674,-29.69 670.5,-19.69 667,-29.69 674,-29.69"/>
</g>
<!-- Node14&#45;&gt;Node12 -->
<g id="edge15" class="edge">
<title>Node14&#45;&gt;Node12</title>
<path fill="none" stroke="midnightblue" d="M820.06,-61.9C785.65,-50.19 737.3,-33.73 704.98,-22.73"/>
<polygon fill="midnightblue" stroke="midnightblue" points="706.09,-19.42 695.5,-19.51 703.84,-26.04 706.09,-19.42"/>
</g>
</g>
</svg>
