<?xml version="1.0" encoding="UTF-8" standalone="no"?>
<!DOCTYPE svg PUBLIC "-//W3C//DTD SVG 1.1//EN"
 "http://www.w3.org/Graphics/SVG/1.1/DTD/svg11.dtd">
<!-- Generated by graphviz version 2.43.0 (0)
 -->
<!-- Title: src/core/coprocessors/cp15.cpp Pages: 1 -->
<svg width="1043pt" height="341pt"
 viewBox="0.00 0.00 1042.50 341.00" xmlns="http://www.w3.org/2000/svg" xmlns:xlink="http://www.w3.org/1999/xlink">
<g id="graph0" class="graph" transform="scale(1 1) rotate(0) translate(4 337)">
<title>src/core/coprocessors/cp15.cpp</title>
<!-- Node1 -->
<g id="node1" class="node">
<title>Node1</title>
<g id="a_node1"><a xlink:title=" ">
<polygon fill="#bfbfbf" stroke="black" points="135.5,-302.5 135.5,-332.5 257.5,-332.5 257.5,-302.5 135.5,-302.5"/>
<text text-anchor="start" x="143.5" y="-320.5" font-family="Helvetica,sans-Serif" font-size="10.00">src/core/coprocessors</text>
<text text-anchor="middle" x="196.5" y="-309.5" font-family="Helvetica,sans-Serif" font-size="10.00">/cp15.cpp</text>
</a>
</g>
</g>
<!-- Node2 -->
<g id="node2" class="node">
<title>Node2</title>
<g id="a_node2"><a xlink:title=" ">
<polygon fill="none" stroke="#bfbfbf" points="0,-246.5 0,-265.5 79,-265.5 79,-246.5 0,-246.5"/>
<text text-anchor="middle" x="39.5" y="-253.5" font-family="Helvetica,sans-Serif" font-size="10.00">fmt/format.h</text>
</a>
</g>
</g>
<!-- Node1&#45;&gt;Node2 -->
<g id="edge1" class="edge">
<title>Node1&#45;&gt;Node2</title>
<path fill="none" stroke="midnightblue" d="M159.29,-302.4C132.72,-292.33 97.31,-278.91 71.89,-269.28"/>
<polygon fill="midnightblue" stroke="midnightblue" points="72.94,-265.93 62.34,-265.66 70.46,-272.47 72.94,-265.93"/>
</g>
<!-- Node3 -->
<g id="node3" class="node">
<title>Node3</title>
<g id="a_node3"><a xlink:title=" ">
<polygon fill="none" stroke="#bfbfbf" points="97,-246.5 97,-265.5 198,-265.5 198,-246.5 97,-246.5"/>
<text text-anchor="middle" x="147.5" y="-253.5" font-family="Helvetica,sans-Serif" font-size="10.00">magic_enum.hpp</text>
</a>
</g>
</g>
<!-- Node1&#45;&gt;Node3 -->
<g id="edge2" class="edge">
<title>Node1&#45;&gt;Node3</title>
<path fill="none" stroke="midnightblue" d="M184.89,-302.4C177.77,-293.75 168.62,-282.64 161.15,-273.58"/>
<polygon fill="midnightblue" stroke="midnightblue" points="163.69,-271.15 154.63,-265.66 158.29,-275.6 163.69,-271.15"/>
</g>
<!-- Node4 -->
<g id="node4" class="node">
<title>Node4</title>
<g id="a_node4"><a xlink:href="cp15_8hpp.html" target="_top" xlink:title=" ">
<polygon fill="none" stroke="black" points="216,-246.5 216,-265.5 277,-265.5 277,-246.5 216,-246.5"/>
<text text-anchor="middle" x="246.5" y="-253.5" font-family="Helvetica,sans-Serif" font-size="10.00">cp15.hpp</text>
</a>
</g>
</g>
<!-- Node1&#45;&gt;Node4 -->
<g id="edge3" class="edge">
<title>Node1&#45;&gt;Node4</title>
<path fill="none" stroke="midnightblue" d="M208.35,-302.4C215.61,-293.75 224.95,-282.64 232.57,-273.58"/>
<polygon fill="midnightblue" stroke="midnightblue" points="235.47,-275.57 239.22,-265.66 230.11,-271.06 235.47,-275.57"/>
</g>
<!-- Node20 -->
<g id="node20" class="node">
<title>Node20</title>
<g id="a_node20"><a xlink:href="singleton_8hpp.html" target="_top" xlink:title="This file defines and implements a generic class that is used to treat other classes as singletons.">
<polygon fill="none" stroke="black" points="295.5,-246.5 295.5,-265.5 411.5,-265.5 411.5,-246.5 295.5,-246.5"/>
<text text-anchor="middle" x="353.5" y="-253.5" font-family="Helvetica,sans-Serif" font-size="10.00">../utils/singleton.hpp</text>
</a>
</g>
</g>
<!-- Node1&#45;&gt;Node20 -->
<g id="edge27" class="edge">
<title>Node1&#45;&gt;Node20</title>
<path fill="none" stroke="midnightblue" d="M233.71,-302.4C260.28,-292.33 295.69,-278.91 321.11,-269.28"/>
<polygon fill="midnightblue" stroke="midnightblue" points="322.54,-272.47 330.66,-265.66 320.06,-265.93 322.54,-272.47"/>
</g>
<!-- Node5 -->
<g id="node5" class="node">
<title>Node5</title>
<g id="a_node5"><a xlink:title=" ">
<polygon fill="none" stroke="#bfbfbf" points="15,-0.5 15,-19.5 62,-19.5 62,-0.5 15,-0.5"/>
<text text-anchor="middle" x="38.5" y="-7.5" font-family="Helvetica,sans-Serif" font-size="10.00">vector</text>
</a>
</g>
</g>
<!-- Node4&#45;&gt;Node5 -->
<g id="edge4" class="edge">
<title>Node4&#45;&gt;Node5</title>
<path fill="none" stroke="midnightblue" d="M239.1,-246.32C208.64,-210.59 92.74,-74.63 52.43,-27.34"/>
<polygon fill="midnightblue" stroke="midnightblue" points="54.97,-24.92 45.81,-19.58 49.64,-29.46 54.97,-24.92"/>
</g>
<!-- Node6 -->
<g id="node6" class="node">
<title>Node6</title>
<g id="a_node6"><a xlink:title=" ">
<polygon fill="none" stroke="#bfbfbf" points="283,-56.5 283,-75.5 376,-75.5 376,-56.5 283,-56.5"/>
<text text-anchor="middle" x="329.5" y="-63.5" font-family="Helvetica,sans-Serif" font-size="10.00">unordered_map</text>
</a>
</g>
</g>
<!-- Node4&#45;&gt;Node6 -->
<g id="edge5" class="edge">
<title>Node4&#45;&gt;Node6</title>
<path fill="none" stroke="midnightblue" d="M250.28,-246.43C262.97,-217.68 304.23,-124.24 321.64,-84.81"/>
<polygon fill="midnightblue" stroke="midnightblue" points="324.86,-86.18 325.7,-75.62 318.46,-83.35 324.86,-86.18"/>
</g>
<!-- Node7 -->
<g id="node7" class="node">
<title>Node7</title>
<g id="a_node7"><a xlink:href="coprocessor_8hpp.html" target="_top" xlink:title=" ">
<polygon fill="none" stroke="black" points="499,-190.5 499,-209.5 594,-209.5 594,-190.5 499,-190.5"/>
<text text-anchor="middle" x="546.5" y="-197.5" font-family="Helvetica,sans-Serif" font-size="10.00">coprocessor.hpp</text>
</a>
</g>
</g>
<!-- Node4&#45;&gt;Node7 -->
<g id="edge6" class="edge">
<title>Node4&#45;&gt;Node7</title>
<path fill="none" stroke="midnightblue" d="M277.04,-247.96C280.23,-247.28 283.43,-246.61 286.5,-246 355.79,-232.22 435.95,-218.71 488.74,-210.15"/>
<polygon fill="midnightblue" stroke="midnightblue" points="489.61,-213.55 498.92,-208.5 488.49,-206.64 489.61,-213.55"/>
</g>
<!-- Node11 -->
<g id="node11" class="node">
<title>Node11</title>
<g id="a_node11"><a xlink:href="logger_8hpp.html" target="_top" xlink:title=" ">
<polygon fill="none" stroke="black" points="130.5,-56.5 130.5,-75.5 264.5,-75.5 264.5,-56.5 130.5,-56.5"/>
<text text-anchor="middle" x="197.5" y="-63.5" font-family="Helvetica,sans-Serif" font-size="10.00">../utils/logger/logger.hpp</text>
</a>
</g>
</g>
<!-- Node4&#45;&gt;Node11 -->
<g id="edge26" class="edge">
<title>Node4&#45;&gt;Node11</title>
<path fill="none" stroke="midnightblue" d="M244.27,-246.43C236.81,-217.81 212.62,-125.03 202.27,-85.31"/>
<polygon fill="midnightblue" stroke="midnightblue" points="205.65,-84.41 199.75,-75.62 198.88,-86.18 205.65,-84.41"/>
</g>
<!-- Node8 -->
<g id="node8" class="node">
<title>Node8</title>
<g id="a_node8"><a xlink:title=" ">
<polygon fill="none" stroke="#bfbfbf" points="460.5,-0.5 460.5,-19.5 510.5,-19.5 510.5,-0.5 460.5,-0.5"/>
<text text-anchor="middle" x="485.5" y="-7.5" font-family="Helvetica,sans-Serif" font-size="10.00">cstdint</text>
</a>
</g>
</g>
<!-- Node7&#45;&gt;Node8 -->
<g id="edge7" class="edge">
<title>Node7&#45;&gt;Node8</title>
<path fill="none" stroke="midnightblue" d="M541.08,-190.33C535.73,-181.48 527.64,-167.2 522.5,-154 505.64,-110.74 494.12,-57.14 488.82,-29.47"/>
<polygon fill="midnightblue" stroke="midnightblue" points="492.26,-28.79 486.99,-19.6 485.37,-30.07 492.26,-28.79"/>
</g>
<!-- Node9 -->
<g id="node9" class="node">
<title>Node9</title>
<g id="a_node9"><a xlink:href="context_8hpp.html" target="_top" xlink:title=" ">
<polygon fill="none" stroke="black" points="322.5,-123.5 322.5,-142.5 474.5,-142.5 474.5,-123.5 322.5,-123.5"/>
<text text-anchor="middle" x="398.5" y="-130.5" font-family="Helvetica,sans-Serif" font-size="10.00">../arm1176jzf_s/context.hpp</text>
</a>
</g>
</g>
<!-- Node7&#45;&gt;Node9 -->
<g id="edge8" class="edge">
<title>Node7&#45;&gt;Node9</title>
<path fill="none" stroke="midnightblue" d="M526.85,-190.37C501.41,-179.2 456.9,-159.65 427.55,-146.76"/>
<polygon fill="midnightblue" stroke="midnightblue" points="428.8,-143.48 418.23,-142.67 425.98,-149.89 428.8,-143.48"/>
</g>
<!-- Node16 -->
<g id="node16" class="node">
<title>Node16</title>
<g id="a_node16"><a xlink:href="coprocessor__register__transfer_8hpp.html" target="_top" xlink:title=" ">
<polygon fill="none" stroke="black" points="531,-112.5 531,-153.5 652,-153.5 652,-112.5 531,-112.5"/>
<text text-anchor="start" x="539" y="-141.5" font-family="Helvetica,sans-Serif" font-size="10.00">../arm1176jzf_s/isa</text>
<text text-anchor="start" x="539" y="-130.5" font-family="Helvetica,sans-Serif" font-size="10.00">/coprocessor_register</text>
<text text-anchor="middle" x="591.5" y="-119.5" font-family="Helvetica,sans-Serif" font-size="10.00">_transfer.hpp</text>
</a>
</g>
</g>
<!-- Node7&#45;&gt;Node16 -->
<g id="edge19" class="edge">
<title>Node7&#45;&gt;Node16</title>
<path fill="none" stroke="midnightblue" d="M552.57,-190.23C557.63,-182.92 565.13,-172.09 572.2,-161.88"/>
<polygon fill="midnightblue" stroke="midnightblue" points="575.16,-163.76 577.97,-153.54 569.4,-159.77 575.16,-163.76"/>
</g>
<!-- Node18 -->
<g id="node18" class="node">
<title>Node18</title>
<g id="a_node18"><a xlink:href="coprocessor__data__transfer_8hpp.html" target="_top" xlink:title=" ">
<polygon fill="none" stroke="black" points="670,-118 670,-148 839,-148 839,-118 670,-118"/>
<text text-anchor="start" x="678" y="-136" font-family="Helvetica,sans-Serif" font-size="10.00">../arm1176jzf_s/isa</text>
<text text-anchor="middle" x="754.5" y="-125" font-family="Helvetica,sans-Serif" font-size="10.00">/coprocessor_data_transfer.hpp</text>
</a>
</g>
</g>
<!-- Node7&#45;&gt;Node18 -->
<g id="edge22" class="edge">
<title>Node7&#45;&gt;Node18</title>
<path fill="none" stroke="midnightblue" d="M574.12,-190.37C606.08,-180.38 659.47,-163.7 699.89,-151.06"/>
<polygon fill="midnightblue" stroke="midnightblue" points="701.11,-154.35 709.61,-148.03 699.02,-147.67 701.11,-154.35"/>
</g>
<!-- Node19 -->
<g id="node19" class="node">
<title>Node19</title>
<g id="a_node19"><a xlink:href="coprocessor__data__operation_8hpp.html" target="_top" xlink:title=" ">
<polygon fill="none" stroke="black" points="856.5,-118 856.5,-148 1034.5,-148 1034.5,-118 856.5,-118"/>
<text text-anchor="start" x="864.5" y="-136" font-family="Helvetica,sans-Serif" font-size="10.00">../arm1176jzf_s/isa</text>
<text text-anchor="middle" x="945.5" y="-125" font-family="Helvetica,sans-Serif" font-size="10.00">/coprocessor_data_operation.hpp</text>
</a>
</g>
</g>
<!-- Node7&#45;&gt;Node19 -->
<g id="edge24" class="edge">
<title>Node7&#45;&gt;Node19</title>
<path fill="none" stroke="midnightblue" d="M594.23,-192.72C653.87,-184.68 758.99,-169.88 848.5,-154 855.48,-152.76 862.74,-151.4 869.99,-149.99"/>
<polygon fill="midnightblue" stroke="midnightblue" points="870.72,-153.42 879.85,-148.05 869.36,-146.55 870.72,-153.42"/>
</g>
<!-- Node9&#45;&gt;Node6 -->
<g id="edge11" class="edge">
<title>Node9&#45;&gt;Node6</title>
<path fill="none" stroke="midnightblue" d="M389.19,-123.23C378.23,-112.9 359.79,-95.54 346.31,-82.83"/>
<polygon fill="midnightblue" stroke="midnightblue" points="348.34,-79.94 338.66,-75.63 343.54,-85.03 348.34,-79.94"/>
</g>
<!-- Node9&#45;&gt;Node8 -->
<g id="edge10" class="edge">
<title>Node9&#45;&gt;Node8</title>
<path fill="none" stroke="midnightblue" d="M399.6,-123.23C401.84,-108.19 408.11,-77.09 423.5,-56 432.9,-43.12 447.09,-32.43 459.53,-24.71"/>
<polygon fill="midnightblue" stroke="midnightblue" points="461.34,-27.71 468.18,-19.62 457.79,-21.67 461.34,-27.71"/>
</g>
<!-- Node10 -->
<g id="node10" class="node">
<title>Node10</title>
<g id="a_node10"><a xlink:title=" ">
<polygon fill="none" stroke="#bfbfbf" points="432.5,-56.5 432.5,-75.5 474.5,-75.5 474.5,-56.5 432.5,-56.5"/>
<text text-anchor="middle" x="453.5" y="-63.5" font-family="Helvetica,sans-Serif" font-size="10.00">array</text>
</a>
</g>
</g>
<!-- Node9&#45;&gt;Node10 -->
<g id="edge9" class="edge">
<title>Node9&#45;&gt;Node10</title>
<path fill="none" stroke="midnightblue" d="M405.92,-123.23C414.49,-113.1 428.8,-96.19 439.49,-83.56"/>
<polygon fill="midnightblue" stroke="midnightblue" points="442.41,-85.52 446.2,-75.63 437.07,-81 442.41,-85.52"/>
</g>
<!-- Node9&#45;&gt;Node11 -->
<g id="edge12" class="edge">
<title>Node9&#45;&gt;Node11</title>
<path fill="none" stroke="midnightblue" d="M371.81,-123.37C336.27,-111.88 273.29,-91.51 233.55,-78.66"/>
<polygon fill="midnightblue" stroke="midnightblue" points="234.57,-75.31 223.98,-75.56 232.42,-81.97 234.57,-75.31"/>
</g>
<!-- Node11&#45;&gt;Node5 -->
<g id="edge14" class="edge">
<title>Node11&#45;&gt;Node5</title>
<path fill="none" stroke="midnightblue" d="M172.31,-56.44C145.09,-47.2 101.59,-32.43 71.62,-22.25"/>
<polygon fill="midnightblue" stroke="midnightblue" points="72.62,-18.89 62.02,-18.99 70.36,-25.52 72.62,-18.89"/>
</g>
<!-- Node11&#45;&gt;Node8 -->
<g id="edge16" class="edge">
<title>Node11&#45;&gt;Node8</title>
<path fill="none" stroke="midnightblue" d="M243.13,-56.44C300.56,-45.68 397.96,-27.41 450.09,-17.64"/>
<polygon fill="midnightblue" stroke="midnightblue" points="451.01,-21.03 460.19,-15.75 449.72,-14.15 451.01,-21.03"/>
</g>
<!-- Node12 -->
<g id="node12" class="node">
<title>Node12</title>
<g id="a_node12"><a xlink:title=" ">
<polygon fill="none" stroke="#bfbfbf" points="191.5,-0.5 191.5,-19.5 239.5,-19.5 239.5,-0.5 191.5,-0.5"/>
<text text-anchor="middle" x="215.5" y="-7.5" font-family="Helvetica,sans-Serif" font-size="10.00">mutex</text>
</a>
</g>
</g>
<!-- Node11&#45;&gt;Node12 -->
<g id="edge13" class="edge">
<title>Node11&#45;&gt;Node12</title>
<path fill="none" stroke="midnightblue" d="M200.47,-56.08C202.88,-48.85 206.36,-38.41 209.37,-29.4"/>
<polygon fill="midnightblue" stroke="midnightblue" points="212.74,-30.34 212.58,-19.75 206.1,-28.13 212.74,-30.34"/>
</g>
<!-- Node13 -->
<g id="node13" class="node">
<title>Node13</title>
<g id="a_node13"><a xlink:title=" ">
<polygon fill="none" stroke="#bfbfbf" points="257.5,-0.5 257.5,-19.5 315.5,-19.5 315.5,-0.5 257.5,-0.5"/>
<text text-anchor="middle" x="286.5" y="-7.5" font-family="Helvetica,sans-Serif" font-size="10.00">memory</text>
</a>
</g>
</g>
<!-- Node11&#45;&gt;Node13 -->
<g id="edge15" class="edge">
<title>Node11&#45;&gt;Node13</title>
<path fill="none" stroke="midnightblue" d="M211.8,-56.32C225.68,-47.9 246.99,-34.97 263.3,-25.07"/>
<polygon fill="midnightblue" stroke="midnightblue" points="265.5,-27.83 272.24,-19.65 261.87,-21.85 265.5,-27.83"/>
</g>
<!-- Node14 -->
<g id="node14" class="node">
<title>Node14</title>
<g id="a_node14"><a xlink:title=" ">
<polygon fill="none" stroke="#bfbfbf" points="334,-0.5 334,-19.5 407,-19.5 407,-0.5 334,-0.5"/>
<text text-anchor="middle" x="370.5" y="-7.5" font-family="Helvetica,sans-Serif" font-size="10.00">string_view</text>
</a>
</g>
</g>
<!-- Node11&#45;&gt;Node14 -->
<g id="edge17" class="edge">
<title>Node11&#45;&gt;Node14</title>
<path fill="none" stroke="midnightblue" d="M224.91,-56.44C254.27,-47.28 301.02,-32.69 333.6,-22.52"/>
<polygon fill="midnightblue" stroke="midnightblue" points="334.71,-25.84 343.22,-19.52 332.63,-19.16 334.71,-25.84"/>
</g>
<!-- Node15 -->
<g id="node15" class="node">
<title>Node15</title>
<g id="a_node15"><a xlink:title=" ">
<polygon fill="none" stroke="#bfbfbf" points="80,-0.5 80,-19.5 173,-19.5 173,-0.5 80,-0.5"/>
<text text-anchor="middle" x="126.5" y="-7.5" font-family="Helvetica,sans-Serif" font-size="10.00">source_location</text>
</a>
</g>
</g>
<!-- Node11&#45;&gt;Node15 -->
<g id="edge18" class="edge">
<title>Node11&#45;&gt;Node15</title>
<path fill="none" stroke="midnightblue" d="M186.09,-56.32C175.39,-48.18 159.16,-35.84 146.34,-26.09"/>
<polygon fill="midnightblue" stroke="midnightblue" points="148.19,-23.1 138.11,-19.83 143.96,-28.67 148.19,-23.1"/>
</g>
<!-- Node17 -->
<g id="node17" class="node">
<title>Node17</title>
<g id="a_node17"><a xlink:href="instruction_8hpp.html" target="_top" xlink:title=" ">
<polygon fill="none" stroke="black" points="628,-56.5 628,-75.5 717,-75.5 717,-56.5 628,-56.5"/>
<text text-anchor="middle" x="672.5" y="-63.5" font-family="Helvetica,sans-Serif" font-size="10.00">instruction.hpp</text>
</a>
</g>
</g>
<!-- Node16&#45;&gt;Node17 -->
<g id="edge20" class="edge">
<title>Node16&#45;&gt;Node17</title>
<path fill="none" stroke="midnightblue" d="M615.8,-112.5C627.98,-102.72 642.5,-91.07 653.8,-82.01"/>
<polygon fill="midnightblue" stroke="midnightblue" points="656.11,-84.64 661.72,-75.65 651.73,-79.18 656.11,-84.64"/>
</g>
<!-- Node17&#45;&gt;Node8 -->
<g id="edge21" class="edge">
<title>Node17&#45;&gt;Node8</title>
<path fill="none" stroke="midnightblue" d="M642.87,-56.44C609.59,-46.83 555.65,-31.26 520.37,-21.07"/>
<polygon fill="midnightblue" stroke="midnightblue" points="521.08,-17.63 510.5,-18.22 519.14,-24.36 521.08,-17.63"/>
</g>
<!-- Node18&#45;&gt;Node17 -->
<g id="edge23" class="edge">
<title>Node18&#45;&gt;Node17</title>
<path fill="none" stroke="midnightblue" d="M736.71,-117.9C723.42,-107.36 705.27,-92.98 691.66,-82.19"/>
<polygon fill="midnightblue" stroke="midnightblue" points="693.48,-79.16 683.47,-75.69 689.13,-84.65 693.48,-79.16"/>
</g>
<!-- Node19&#45;&gt;Node17 -->
<g id="edge25" class="edge">
<title>Node19&#45;&gt;Node17</title>
<path fill="none" stroke="midnightblue" d="M886.6,-117.98C836.07,-105.95 764.3,-88.86 718.07,-77.85"/>
<polygon fill="midnightblue" stroke="midnightblue" points="718.86,-74.44 708.32,-75.53 717.24,-81.25 718.86,-74.44"/>
</g>
</g>
</svg>
