<?xml version="1.0" encoding="UTF-8" standalone="no"?>
<!DOCTYPE svg PUBLIC "-//W3C//DTD SVG 1.1//EN"
 "http://www.w3.org/Graphics/SVG/1.1/DTD/svg11.dtd">
<!-- Generated by graphviz version 2.43.0 (0)
 -->
<!-- Title: src/gui/windows/cp15_window.hpp Pages: 1 -->
<svg width="1196pt" height="296pt"
 viewBox="0.00 0.00 1196.00 296.00" xmlns="http://www.w3.org/2000/svg" xmlns:xlink="http://www.w3.org/1999/xlink">
<g id="graph0" class="graph" transform="scale(1 1) rotate(0) translate(4 292)">
<title>src/gui/windows/cp15_window.hpp</title>
<!-- Node1 -->
<g id="node1" class="node">
<title>Node1</title>
<g id="a_node1"><a xlink:title="This file defines a window that displays data (information) related to coprocessor 15.">
<polygon fill="#bfbfbf" stroke="black" points="109.5,-257.5 109.5,-287.5 230.5,-287.5 230.5,-257.5 109.5,-257.5"/>
<text text-anchor="start" x="117.5" y="-275.5" font-family="Helvetica,sans-Serif" font-size="10.00">src/gui/windows/cp15</text>
<text text-anchor="middle" x="170" y="-264.5" font-family="Helvetica,sans-Serif" font-size="10.00">_window.hpp</text>
</a>
</g>
</g>
<!-- Node2 -->
<g id="node2" class="node">
<title>Node2</title>
<g id="a_node2"><a xlink:href="window_8hpp.html" target="_top" xlink:title="This file defines an interface for all windows that will be rendered by the application.">
<polygon fill="none" stroke="black" points="68.5,-196 68.5,-215 151.5,-215 151.5,-196 68.5,-196"/>
<text text-anchor="middle" x="110" y="-203" font-family="Helvetica,sans-Serif" font-size="10.00">../window.hpp</text>
</a>
</g>
</g>
<!-- Node1&#45;&gt;Node2 -->
<g id="edge1" class="edge">
<title>Node1&#45;&gt;Node2</title>
<path fill="none" stroke="midnightblue" d="M156.98,-257.4C147.53,-247.16 134.73,-233.3 124.88,-222.62"/>
<polygon fill="midnightblue" stroke="midnightblue" points="127.38,-220.17 118.03,-215.19 122.24,-224.92 127.38,-220.17"/>
</g>
<!-- Node4 -->
<g id="node4" class="node">
<title>Node4</title>
<g id="a_node4"><a xlink:href="cp15_8hpp.html" target="_top" xlink:title="This file defines coprocessor CP15.">
<polygon fill="none" stroke="black" points="238,-190.5 238,-220.5 360,-220.5 360,-190.5 238,-190.5"/>
<text text-anchor="start" x="246" y="-208.5" font-family="Helvetica,sans-Serif" font-size="10.00">../../core/coprocessors</text>
<text text-anchor="middle" x="299" y="-197.5" font-family="Helvetica,sans-Serif" font-size="10.00">/cp15/cp15.hpp</text>
</a>
</g>
</g>
<!-- Node1&#45;&gt;Node4 -->
<g id="edge3" class="edge">
<title>Node1&#45;&gt;Node4</title>
<path fill="none" stroke="midnightblue" d="M197.99,-257.4C216.75,-247.94 241.67,-235.39 262.05,-225.12"/>
<polygon fill="midnightblue" stroke="midnightblue" points="263.71,-228.2 271.06,-220.58 260.56,-221.95 263.71,-228.2"/>
</g>
<!-- Node3 -->
<g id="node3" class="node">
<title>Node3</title>
<g id="a_node3"><a xlink:title=" ">
<polygon fill="none" stroke="#bfbfbf" points="0,-134.5 0,-153.5 84,-153.5 84,-134.5 0,-134.5"/>
<text text-anchor="middle" x="42" y="-141.5" font-family="Helvetica,sans-Serif" font-size="10.00">imgui/imgui.h</text>
</a>
</g>
</g>
<!-- Node2&#45;&gt;Node3 -->
<g id="edge2" class="edge">
<title>Node2&#45;&gt;Node3</title>
<path fill="none" stroke="midnightblue" d="M100.26,-195.98C89.65,-186.7 72.48,-171.67 59.52,-160.33"/>
<polygon fill="midnightblue" stroke="midnightblue" points="61.56,-157.46 51.72,-153.51 56.95,-162.73 61.56,-157.46"/>
</g>
<!-- Node5 -->
<g id="node5" class="node">
<title>Node5</title>
<g id="a_node5"><a xlink:href="c1_8hpp.html" target="_top" xlink:title="This file defines the primary register C1 of coprocessor CP15.">
<polygon fill="none" stroke="black" points="101.5,-134.5 101.5,-153.5 150.5,-153.5 150.5,-134.5 101.5,-134.5"/>
<text text-anchor="middle" x="126" y="-141.5" font-family="Helvetica,sans-Serif" font-size="10.00">c1.hpp</text>
</a>
</g>
</g>
<!-- Node4&#45;&gt;Node5 -->
<g id="edge4" class="edge">
<title>Node4&#45;&gt;Node5</title>
<path fill="none" stroke="midnightblue" d="M258,-190.4C228.28,-180.18 188.54,-166.51 160.45,-156.85"/>
<polygon fill="midnightblue" stroke="midnightblue" points="161.26,-153.43 150.67,-153.48 158.99,-160.05 161.26,-153.43"/>
</g>
<!-- Node6 -->
<g id="node6" class="node">
<title>Node6</title>
<g id="a_node6"><a xlink:href="primary__reg_8hpp.html" target="_top" xlink:title="This file defines a primary register interface of coprocessor CP15.">
<polygon fill="none" stroke="black" points="250.5,-67.5 250.5,-86.5 347.5,-86.5 347.5,-67.5 250.5,-67.5"/>
<text text-anchor="middle" x="299" y="-74.5" font-family="Helvetica,sans-Serif" font-size="10.00">primary_reg.hpp</text>
</a>
</g>
</g>
<!-- Node4&#45;&gt;Node6 -->
<g id="edge16" class="edge">
<title>Node4&#45;&gt;Node6</title>
<path fill="none" stroke="midnightblue" d="M245.53,-190.46C227.22,-182.82 208.67,-171.26 198,-154 179.7,-124.4 222.84,-102.3 258.31,-89.78"/>
<polygon fill="midnightblue" stroke="midnightblue" points="259.69,-93.01 268.06,-86.5 257.46,-86.37 259.69,-93.01"/>
</g>
<!-- Node7 -->
<g id="node7" class="node">
<title>Node7</title>
<g id="a_node7"><a xlink:href="logger_8hpp.html" target="_top" xlink:title="This file defines a general logger interface as well as a logging system that is used in the project.">
<polygon fill="none" stroke="black" points="320,-0.5 320,-19.5 466,-19.5 466,-0.5 320,-0.5"/>
<text text-anchor="middle" x="393" y="-7.5" font-family="Helvetica,sans-Serif" font-size="10.00">zero_mate/utils/logger.hpp</text>
</a>
</g>
</g>
<!-- Node4&#45;&gt;Node7 -->
<g id="edge26" class="edge">
<title>Node4&#45;&gt;Node7</title>
<path fill="none" stroke="midnightblue" d="M360.09,-203.38C397.42,-199.14 442.56,-186.87 467,-154 498.7,-111.38 442.57,-53.24 411.53,-26.11"/>
<polygon fill="midnightblue" stroke="midnightblue" points="413.78,-23.42 403.89,-19.61 409.24,-28.75 413.78,-23.42"/>
</g>
<!-- Node8 -->
<g id="node8" class="node">
<title>Node8</title>
<g id="a_node8"><a xlink:href="c2_8hpp.html" target="_top" xlink:title="This file defines the primary register C2 of coprocessor CP15.">
<polygon fill="none" stroke="black" points="207.5,-134.5 207.5,-153.5 256.5,-153.5 256.5,-134.5 207.5,-134.5"/>
<text text-anchor="middle" x="232" y="-141.5" font-family="Helvetica,sans-Serif" font-size="10.00">c2.hpp</text>
</a>
</g>
</g>
<!-- Node4&#45;&gt;Node8 -->
<g id="edge8" class="edge">
<title>Node4&#45;&gt;Node8</title>
<path fill="none" stroke="midnightblue" d="M283.12,-190.4C272.98,-181.4 259.84,-169.72 249.41,-160.47"/>
<polygon fill="midnightblue" stroke="midnightblue" points="251.55,-157.68 241.75,-153.66 246.9,-162.92 251.55,-157.68"/>
</g>
<!-- Node9 -->
<g id="node9" class="node">
<title>Node9</title>
<g id="a_node9"><a xlink:href="c3_8hpp.html" target="_top" xlink:title="This file defines the primary register C3 of coprocessor CP15.">
<polygon fill="none" stroke="black" points="274.5,-134.5 274.5,-153.5 323.5,-153.5 323.5,-134.5 274.5,-134.5"/>
<text text-anchor="middle" x="299" y="-141.5" font-family="Helvetica,sans-Serif" font-size="10.00">c3.hpp</text>
</a>
</g>
</g>
<!-- Node4&#45;&gt;Node9 -->
<g id="edge10" class="edge">
<title>Node4&#45;&gt;Node9</title>
<path fill="none" stroke="midnightblue" d="M299,-190.4C299,-182.47 299,-172.46 299,-163.86"/>
<polygon fill="midnightblue" stroke="midnightblue" points="302.5,-163.66 299,-153.66 295.5,-163.66 302.5,-163.66"/>
</g>
<!-- Node10 -->
<g id="node10" class="node">
<title>Node10</title>
<g id="a_node10"><a xlink:href="c7_8hpp.html" target="_top" xlink:title="This file defines the primary register C7 of coprocessor CP15.">
<polygon fill="none" stroke="black" points="341.5,-134.5 341.5,-153.5 390.5,-153.5 390.5,-134.5 341.5,-134.5"/>
<text text-anchor="middle" x="366" y="-141.5" font-family="Helvetica,sans-Serif" font-size="10.00">c7.hpp</text>
</a>
</g>
</g>
<!-- Node4&#45;&gt;Node10 -->
<g id="edge12" class="edge">
<title>Node4&#45;&gt;Node10</title>
<path fill="none" stroke="midnightblue" d="M314.88,-190.4C325.02,-181.4 338.16,-169.72 348.59,-160.47"/>
<polygon fill="midnightblue" stroke="midnightblue" points="351.1,-162.92 356.25,-153.66 346.45,-157.68 351.1,-162.92"/>
</g>
<!-- Node11 -->
<g id="node11" class="node">
<title>Node11</title>
<g id="a_node11"><a xlink:href="c8_8hpp.html" target="_top" xlink:title="This file defines the primary register C8 of coprocessor CP15.">
<polygon fill="none" stroke="black" points="408.5,-134.5 408.5,-153.5 457.5,-153.5 457.5,-134.5 408.5,-134.5"/>
<text text-anchor="middle" x="433" y="-141.5" font-family="Helvetica,sans-Serif" font-size="10.00">c8.hpp</text>
</a>
</g>
</g>
<!-- Node4&#45;&gt;Node11 -->
<g id="edge14" class="edge">
<title>Node4&#45;&gt;Node11</title>
<path fill="none" stroke="midnightblue" d="M330.76,-190.4C353.04,-180.51 382.59,-167.38 404.19,-157.79"/>
<polygon fill="midnightblue" stroke="midnightblue" points="405.78,-160.91 413.5,-153.66 402.94,-154.52 405.78,-160.91"/>
</g>
<!-- Node12 -->
<g id="node12" class="node">
<title>Node12</title>
<g id="a_node12"><a xlink:href="coprocessor_8hpp.html" target="_top" xlink:title="This file defines a general interface of a coprocessor.">
<polygon fill="none" stroke="black" points="693,-134.5 693,-153.5 797,-153.5 797,-134.5 693,-134.5"/>
<text text-anchor="middle" x="745" y="-141.5" font-family="Helvetica,sans-Serif" font-size="10.00">../coprocessor.hpp</text>
</a>
</g>
</g>
<!-- Node4&#45;&gt;Node12 -->
<g id="edge17" class="edge">
<title>Node4&#45;&gt;Node12</title>
<path fill="none" stroke="midnightblue" d="M360.08,-196.35C444.9,-185.04 597.54,-164.67 682.9,-153.28"/>
<polygon fill="midnightblue" stroke="midnightblue" points="683.52,-156.73 692.97,-151.94 682.59,-149.79 683.52,-156.73"/>
</g>
<!-- Node5&#45;&gt;Node6 -->
<g id="edge5" class="edge">
<title>Node5&#45;&gt;Node6</title>
<path fill="none" stroke="midnightblue" d="M148.97,-134.37C179.17,-123.02 232.4,-103.02 266.66,-90.15"/>
<polygon fill="midnightblue" stroke="midnightblue" points="268.08,-93.36 276.21,-86.56 265.62,-86.8 268.08,-93.36"/>
</g>
<!-- Node5&#45;&gt;Node7 -->
<g id="edge7" class="edge">
<title>Node5&#45;&gt;Node7</title>
<path fill="none" stroke="midnightblue" d="M135.15,-134.3C153.8,-117 198.16,-78.08 242,-56 273.06,-40.36 310.51,-29.15 340.34,-21.84"/>
<polygon fill="midnightblue" stroke="midnightblue" points="341.23,-25.22 350.15,-19.5 339.61,-18.41 341.23,-25.22"/>
</g>
<!-- Node6&#45;&gt;Node7 -->
<g id="edge6" class="edge">
<title>Node6&#45;&gt;Node7</title>
<path fill="none" stroke="midnightblue" d="M311.68,-67.23C327.18,-56.51 353.64,-38.22 372.16,-25.41"/>
<polygon fill="midnightblue" stroke="midnightblue" points="374.29,-28.19 380.52,-19.63 370.31,-22.44 374.29,-28.19"/>
</g>
<!-- Node8&#45;&gt;Node6 -->
<g id="edge9" class="edge">
<title>Node8&#45;&gt;Node6</title>
<path fill="none" stroke="midnightblue" d="M241.04,-134.23C251.68,-123.9 269.58,-106.54 282.68,-93.83"/>
<polygon fill="midnightblue" stroke="midnightblue" points="285.37,-96.1 290.11,-86.63 280.49,-91.08 285.37,-96.1"/>
</g>
<!-- Node9&#45;&gt;Node6 -->
<g id="edge11" class="edge">
<title>Node9&#45;&gt;Node6</title>
<path fill="none" stroke="midnightblue" d="M299,-134.23C299,-124.68 299,-109.12 299,-96.78"/>
<polygon fill="midnightblue" stroke="midnightblue" points="302.5,-96.63 299,-86.63 295.5,-96.63 302.5,-96.63"/>
</g>
<!-- Node10&#45;&gt;Node6 -->
<g id="edge13" class="edge">
<title>Node10&#45;&gt;Node6</title>
<path fill="none" stroke="midnightblue" d="M356.96,-134.23C346.32,-123.9 328.42,-106.54 315.32,-93.83"/>
<polygon fill="midnightblue" stroke="midnightblue" points="317.51,-91.08 307.89,-86.63 312.63,-96.1 317.51,-91.08"/>
</g>
<!-- Node11&#45;&gt;Node6 -->
<g id="edge15" class="edge">
<title>Node11&#45;&gt;Node6</title>
<path fill="none" stroke="midnightblue" d="M415.21,-134.37C392.38,-123.3 352.57,-103.99 326,-91.1"/>
<polygon fill="midnightblue" stroke="midnightblue" points="327.39,-87.88 316.87,-86.67 324.34,-94.18 327.39,-87.88"/>
</g>
<!-- Node13 -->
<g id="node13" class="node">
<title>Node13</title>
<g id="a_node13"><a xlink:href="context_8hpp.html" target="_top" xlink:title="This file defines the context (registers) of the CPU.">
<polygon fill="none" stroke="black" points="514,-67.5 514,-86.5 666,-86.5 666,-67.5 514,-67.5"/>
<text text-anchor="middle" x="590" y="-74.5" font-family="Helvetica,sans-Serif" font-size="10.00">../arm1176jzf_s/context.hpp</text>
</a>
</g>
</g>
<!-- Node12&#45;&gt;Node13 -->
<g id="edge18" class="edge">
<title>Node12&#45;&gt;Node13</title>
<path fill="none" stroke="midnightblue" d="M724.42,-134.37C697.67,-123.15 650.75,-103.48 620.03,-90.59"/>
<polygon fill="midnightblue" stroke="midnightblue" points="621.24,-87.31 610.67,-86.67 618.54,-93.76 621.24,-87.31"/>
</g>
<!-- Node14 -->
<g id="node14" class="node">
<title>Node14</title>
<g id="a_node14"><a xlink:href="coprocessor__register__transfer_8hpp.html" target="_top" xlink:title="This file defines a coprocessor register transfer (MRC, MCR).">
<polygon fill="none" stroke="black" points="684.5,-56.5 684.5,-97.5 805.5,-97.5 805.5,-56.5 684.5,-56.5"/>
<text text-anchor="start" x="692.5" y="-85.5" font-family="Helvetica,sans-Serif" font-size="10.00">../arm1176jzf_s/isa</text>
<text text-anchor="start" x="692.5" y="-74.5" font-family="Helvetica,sans-Serif" font-size="10.00">/coprocessor_register</text>
<text text-anchor="middle" x="745" y="-63.5" font-family="Helvetica,sans-Serif" font-size="10.00">_transfer.hpp</text>
</a>
</g>
</g>
<!-- Node12&#45;&gt;Node14 -->
<g id="edge20" class="edge">
<title>Node12&#45;&gt;Node14</title>
<path fill="none" stroke="midnightblue" d="M745,-134.23C745,-127.36 745,-117.38 745,-107.73"/>
<polygon fill="midnightblue" stroke="midnightblue" points="748.5,-107.54 745,-97.54 741.5,-107.54 748.5,-107.54"/>
</g>
<!-- Node16 -->
<g id="node16" class="node">
<title>Node16</title>
<g id="a_node16"><a xlink:href="coprocessor__data__transfer_8hpp.html" target="_top" xlink:title="This file defines a coprocessor data transfer (LDC, STC).">
<polygon fill="none" stroke="black" points="823.5,-62 823.5,-92 992.5,-92 992.5,-62 823.5,-62"/>
<text text-anchor="start" x="831.5" y="-80" font-family="Helvetica,sans-Serif" font-size="10.00">../arm1176jzf_s/isa</text>
<text text-anchor="middle" x="908" y="-69" font-family="Helvetica,sans-Serif" font-size="10.00">/coprocessor_data_transfer.hpp</text>
</a>
</g>
</g>
<!-- Node12&#45;&gt;Node16 -->
<g id="edge22" class="edge">
<title>Node12&#45;&gt;Node16</title>
<path fill="none" stroke="midnightblue" d="M766.65,-134.37C791.21,-124.57 831.94,-108.33 863.39,-95.79"/>
<polygon fill="midnightblue" stroke="midnightblue" points="864.83,-98.98 872.82,-92.03 862.24,-92.48 864.83,-98.98"/>
</g>
<!-- Node17 -->
<g id="node17" class="node">
<title>Node17</title>
<g id="a_node17"><a xlink:href="coprocessor__data__operation_8hpp.html" target="_top" xlink:title="This file defines a coprocessor data operation (CDP).">
<polygon fill="none" stroke="black" points="1010,-62 1010,-92 1188,-92 1188,-62 1010,-62"/>
<text text-anchor="start" x="1018" y="-80" font-family="Helvetica,sans-Serif" font-size="10.00">../arm1176jzf_s/isa</text>
<text text-anchor="middle" x="1099" y="-69" font-family="Helvetica,sans-Serif" font-size="10.00">/coprocessor_data_operation.hpp</text>
</a>
</g>
</g>
<!-- Node12&#45;&gt;Node17 -->
<g id="edge24" class="edge">
<title>Node12&#45;&gt;Node17</title>
<path fill="none" stroke="midnightblue" d="M796.28,-134.49C848.21,-125.76 930.81,-111.57 1002,-98 1008.58,-96.75 1015.41,-95.41 1022.25,-94.05"/>
<polygon fill="midnightblue" stroke="midnightblue" points="1023.15,-97.44 1032.26,-92.03 1021.77,-90.57 1023.15,-97.44"/>
</g>
<!-- Node13&#45;&gt;Node7 -->
<g id="edge19" class="edge">
<title>Node13&#45;&gt;Node7</title>
<path fill="none" stroke="midnightblue" d="M563.84,-67.37C529.16,-55.92 467.8,-35.68 428.83,-22.82"/>
<polygon fill="midnightblue" stroke="midnightblue" points="429.55,-19.37 418.95,-19.56 427.35,-26.02 429.55,-19.37"/>
</g>
<!-- Node15 -->
<g id="node15" class="node">
<title>Node15</title>
<g id="a_node15"><a xlink:href="instruction_8hpp.html" target="_top" xlink:title="This file defines the interface of a general ARM instruction.">
<polygon fill="none" stroke="black" points="863.5,-0.5 863.5,-19.5 952.5,-19.5 952.5,-0.5 863.5,-0.5"/>
<text text-anchor="middle" x="908" y="-7.5" font-family="Helvetica,sans-Serif" font-size="10.00">instruction.hpp</text>
</a>
</g>
</g>
<!-- Node14&#45;&gt;Node15 -->
<g id="edge21" class="edge">
<title>Node14&#45;&gt;Node15</title>
<path fill="none" stroke="midnightblue" d="M793.91,-56.5C820.82,-45.77 853.41,-32.77 876.86,-23.42"/>
<polygon fill="midnightblue" stroke="midnightblue" points="878.31,-26.61 886.3,-19.65 875.72,-20.11 878.31,-26.61"/>
</g>
<!-- Node16&#45;&gt;Node15 -->
<g id="edge23" class="edge">
<title>Node16&#45;&gt;Node15</title>
<path fill="none" stroke="midnightblue" d="M908,-61.9C908,-52.56 908,-40.21 908,-30.02"/>
<polygon fill="midnightblue" stroke="midnightblue" points="911.5,-29.69 908,-19.69 904.5,-29.69 911.5,-29.69"/>
</g>
<!-- Node17&#45;&gt;Node15 -->
<g id="edge25" class="edge">
<title>Node17&#45;&gt;Node15</title>
<path fill="none" stroke="midnightblue" d="M1057.56,-61.9C1023.15,-50.19 974.8,-33.73 942.48,-22.73"/>
<polygon fill="midnightblue" stroke="midnightblue" points="943.59,-19.42 933,-19.51 941.34,-26.04 943.59,-19.42"/>
</g>
</g>
</svg>
