<?xml version="1.0" encoding="UTF-8" standalone="no"?>
<!DOCTYPE svg PUBLIC "-//W3C//DTD SVG 1.1//EN"
 "http://www.w3.org/Graphics/SVG/1.1/DTD/svg11.dtd">
<!-- Generated by graphviz version 2.43.0 (0)
 -->
<!-- Title: src/gui/windows/cp15_window.hpp Pages: 1 -->
<svg width="234pt" height="106pt"
 viewBox="0.00 0.00 234.00 106.00" xmlns="http://www.w3.org/2000/svg" xmlns:xlink="http://www.w3.org/1999/xlink">
<g id="graph0" class="graph" transform="scale(1 1) rotate(0) translate(4 102)">
<title>src/gui/windows/cp15_window.hpp</title>
<!-- Node1 -->
<g id="node1" class="node">
<title>Node1</title>
<g id="a_node1"><a xlink:title="This file defines a window that displays data (information) related to coprocessor 15.">
<polygon fill="#bfbfbf" stroke="black" points="44,-67.5 44,-97.5 165,-97.5 165,-67.5 44,-67.5"/>
<text text-anchor="start" x="52" y="-85.5" font-family="Helvetica,sans-Serif" font-size="10.00">src/gui/windows/cp15</text>
<text text-anchor="middle" x="104.5" y="-74.5" font-family="Helvetica,sans-Serif" font-size="10.00">_window.hpp</text>
</a>
</g>
</g>
<!-- Node2 -->
<g id="node2" class="node">
<title>Node2</title>
<g id="a_node2"><a xlink:href="gui_8cpp.html" target="_top" xlink:title="This file implements the main GUI entry function that takes care of creating and rendering all window...">
<polygon fill="none" stroke="black" points="0,-6 0,-25 87,-25 87,-6 0,-6"/>
<text text-anchor="middle" x="43.5" y="-13" font-family="Helvetica,sans-Serif" font-size="10.00">src/gui/gui.cpp</text>
</a>
</g>
</g>
<!-- Node1&#45;&gt;Node2 -->
<g id="edge1" class="edge">
<title>Node1&#45;&gt;Node2</title>
<path fill="none" stroke="midnightblue" d="M84.32,-60C73.19,-48.13 59.97,-34.05 51.66,-25.19"/>
<polygon fill="midnightblue" stroke="midnightblue" points="81.87,-62.5 91.26,-67.4 86.97,-57.71 81.87,-62.5"/>
</g>
<!-- Node3 -->
<g id="node3" class="node">
<title>Node3</title>
<g id="a_node3"><a xlink:href="cp15__window_8cpp.html" target="_top" xlink:title="This file implements a window that displays data (information) related to coprocessor 15.">
<polygon fill="none" stroke="black" points="105,-0.5 105,-30.5 226,-30.5 226,-0.5 105,-0.5"/>
<text text-anchor="start" x="113" y="-18.5" font-family="Helvetica,sans-Serif" font-size="10.00">src/gui/windows/cp15</text>
<text text-anchor="middle" x="165.5" y="-7.5" font-family="Helvetica,sans-Serif" font-size="10.00">_window.cpp</text>
</a>
</g>
</g>
<!-- Node1&#45;&gt;Node3 -->
<g id="edge2" class="edge">
<title>Node1&#45;&gt;Node3</title>
<path fill="none" stroke="midnightblue" d="M124.65,-60.02C133.74,-50.34 144.22,-39.17 152.29,-30.58"/>
<polygon fill="midnightblue" stroke="midnightblue" points="122.03,-57.71 117.74,-67.4 127.13,-62.5 122.03,-57.71"/>
</g>
</g>
</svg>
