<?xml version="1.0" encoding="UTF-8" standalone="no"?>
<!DOCTYPE svg PUBLIC "-//W3C//DTD SVG 1.1//EN"
 "http://www.w3.org/Graphics/SVG/1.1/DTD/svg11.dtd">
<!-- Generated by graphviz version 2.43.0 (0)
 -->
<!-- Title: src/gui/windows/cp15_window.cpp Pages: 1 -->
<svg width="1260pt" height="408pt"
 viewBox="0.00 0.00 1259.50 408.00" xmlns="http://www.w3.org/2000/svg" xmlns:xlink="http://www.w3.org/1999/xlink">
<g id="graph0" class="graph" transform="scale(1 1) rotate(0) translate(4 404)">
<title>src/gui/windows/cp15_window.cpp</title>
<!-- Node1 -->
<g id="node1" class="node">
<title>Node1</title>
<g id="a_node1"><a xlink:title="This file implements a window that displays data (information) related to coprocessor 15.">
<polygon fill="#bfbfbf" stroke="black" points="87,-369.5 87,-399.5 208,-399.5 208,-369.5 87,-369.5"/>
<text text-anchor="start" x="95" y="-387.5" font-family="Helvetica,sans-Serif" font-size="10.00">src/gui/windows/cp15</text>
<text text-anchor="middle" x="147.5" y="-376.5" font-family="Helvetica,sans-Serif" font-size="10.00">_window.cpp</text>
</a>
</g>
</g>
<!-- Node2 -->
<g id="node2" class="node">
<title>Node2</title>
<g id="a_node2"><a xlink:title=" ">
<polygon fill="none" stroke="#bfbfbf" points="0,-313.5 0,-332.5 79,-332.5 79,-313.5 0,-313.5"/>
<text text-anchor="middle" x="39.5" y="-320.5" font-family="Helvetica,sans-Serif" font-size="10.00">fmt/format.h</text>
</a>
</g>
</g>
<!-- Node1&#45;&gt;Node2 -->
<g id="edge1" class="edge">
<title>Node1&#45;&gt;Node2</title>
<path fill="none" stroke="midnightblue" d="M121.91,-369.4C104.43,-359.77 81.41,-347.09 64.14,-337.58"/>
<polygon fill="midnightblue" stroke="midnightblue" points="65.66,-334.42 55.21,-332.66 62.28,-340.55 65.66,-334.42"/>
</g>
<!-- Node3 -->
<g id="node3" class="node">
<title>Node3</title>
<g id="a_node3"><a xlink:title=" ">
<polygon fill="none" stroke="#bfbfbf" points="97,-313.5 97,-332.5 198,-332.5 198,-313.5 97,-313.5"/>
<text text-anchor="middle" x="147.5" y="-320.5" font-family="Helvetica,sans-Serif" font-size="10.00">magic_enum.hpp</text>
</a>
</g>
</g>
<!-- Node1&#45;&gt;Node3 -->
<g id="edge2" class="edge">
<title>Node1&#45;&gt;Node3</title>
<path fill="none" stroke="midnightblue" d="M147.5,-369.4C147.5,-361.47 147.5,-351.46 147.5,-342.86"/>
<polygon fill="midnightblue" stroke="midnightblue" points="151,-342.66 147.5,-332.66 144,-342.66 151,-342.66"/>
</g>
<!-- Node4 -->
<g id="node4" class="node">
<title>Node4</title>
<g id="a_node4"><a xlink:href="cp15__window_8hpp.html" target="_top" xlink:title="This file defines a window that displays data (information) related to coprocessor 15.">
<polygon fill="none" stroke="black" points="216,-313.5 216,-332.5 319,-332.5 319,-313.5 216,-313.5"/>
<text text-anchor="middle" x="267.5" y="-320.5" font-family="Helvetica,sans-Serif" font-size="10.00">cp15_window.hpp</text>
</a>
</g>
</g>
<!-- Node1&#45;&gt;Node4 -->
<g id="edge3" class="edge">
<title>Node1&#45;&gt;Node4</title>
<path fill="none" stroke="midnightblue" d="M175.94,-369.4C195.62,-359.64 221.64,-346.74 240.91,-337.18"/>
<polygon fill="midnightblue" stroke="midnightblue" points="242.63,-340.24 250.04,-332.66 239.52,-333.96 242.63,-340.24"/>
</g>
<!-- Node5 -->
<g id="node5" class="node">
<title>Node5</title>
<g id="a_node5"><a xlink:href="window_8hpp.html" target="_top" xlink:title="This file defines an interface for all windows that will be rendered by the application.">
<polygon fill="none" stroke="black" points="132,-252 132,-271 215,-271 215,-252 132,-252"/>
<text text-anchor="middle" x="173.5" y="-259" font-family="Helvetica,sans-Serif" font-size="10.00">../window.hpp</text>
</a>
</g>
</g>
<!-- Node4&#45;&gt;Node5 -->
<g id="edge4" class="edge">
<title>Node4&#45;&gt;Node5</title>
<path fill="none" stroke="midnightblue" d="M254.03,-313.48C238.82,-303.84 213.81,-288.02 195.7,-276.55"/>
<polygon fill="midnightblue" stroke="midnightblue" points="197.26,-273.4 186.94,-271.01 193.52,-279.31 197.26,-273.4"/>
</g>
<!-- Node7 -->
<g id="node7" class="node">
<title>Node7</title>
<g id="a_node7"><a xlink:href="cp15_8hpp.html" target="_top" xlink:title="This file defines coprocessor CP15.">
<polygon fill="none" stroke="black" points="301.5,-246.5 301.5,-276.5 423.5,-276.5 423.5,-246.5 301.5,-246.5"/>
<text text-anchor="start" x="309.5" y="-264.5" font-family="Helvetica,sans-Serif" font-size="10.00">../../core/coprocessors</text>
<text text-anchor="middle" x="362.5" y="-253.5" font-family="Helvetica,sans-Serif" font-size="10.00">/cp15/cp15.hpp</text>
</a>
</g>
</g>
<!-- Node4&#45;&gt;Node7 -->
<g id="edge6" class="edge">
<title>Node4&#45;&gt;Node7</title>
<path fill="none" stroke="midnightblue" d="M281.11,-313.48C294.22,-305.27 314.51,-292.56 331.55,-281.88"/>
<polygon fill="midnightblue" stroke="midnightblue" points="333.49,-284.8 340.11,-276.52 329.78,-278.86 333.49,-284.8"/>
</g>
<!-- Node6 -->
<g id="node6" class="node">
<title>Node6</title>
<g id="a_node6"><a xlink:title=" ">
<polygon fill="none" stroke="#bfbfbf" points="63.5,-190.5 63.5,-209.5 147.5,-209.5 147.5,-190.5 63.5,-190.5"/>
<text text-anchor="middle" x="105.5" y="-197.5" font-family="Helvetica,sans-Serif" font-size="10.00">imgui/imgui.h</text>
</a>
</g>
</g>
<!-- Node5&#45;&gt;Node6 -->
<g id="edge5" class="edge">
<title>Node5&#45;&gt;Node6</title>
<path fill="none" stroke="midnightblue" d="M163.76,-251.98C153.15,-242.7 135.98,-227.67 123.02,-216.33"/>
<polygon fill="midnightblue" stroke="midnightblue" points="125.06,-213.46 115.22,-209.51 120.45,-218.73 125.06,-213.46"/>
</g>
<!-- Node8 -->
<g id="node8" class="node">
<title>Node8</title>
<g id="a_node8"><a xlink:href="c1_8hpp.html" target="_top" xlink:title="This file defines the primary register C1 of coprocessor CP15.">
<polygon fill="none" stroke="black" points="165,-190.5 165,-209.5 214,-209.5 214,-190.5 165,-190.5"/>
<text text-anchor="middle" x="189.5" y="-197.5" font-family="Helvetica,sans-Serif" font-size="10.00">c1.hpp</text>
</a>
</g>
</g>
<!-- Node7&#45;&gt;Node8 -->
<g id="edge7" class="edge">
<title>Node7&#45;&gt;Node8</title>
<path fill="none" stroke="midnightblue" d="M321.5,-246.4C291.78,-236.18 252.04,-222.51 223.95,-212.85"/>
<polygon fill="midnightblue" stroke="midnightblue" points="224.76,-209.43 214.17,-209.48 222.49,-216.05 224.76,-209.43"/>
</g>
<!-- Node9 -->
<g id="node9" class="node">
<title>Node9</title>
<g id="a_node9"><a xlink:href="primary__reg_8hpp.html" target="_top" xlink:title="This file defines a primary register interface of coprocessor CP15.">
<polygon fill="none" stroke="black" points="314,-123.5 314,-142.5 411,-142.5 411,-123.5 314,-123.5"/>
<text text-anchor="middle" x="362.5" y="-130.5" font-family="Helvetica,sans-Serif" font-size="10.00">primary_reg.hpp</text>
</a>
</g>
</g>
<!-- Node7&#45;&gt;Node9 -->
<g id="edge20" class="edge">
<title>Node7&#45;&gt;Node9</title>
<path fill="none" stroke="midnightblue" d="M309.03,-246.46C290.72,-238.82 272.17,-227.26 261.5,-210 243.2,-180.4 286.34,-158.3 321.81,-145.78"/>
<polygon fill="midnightblue" stroke="midnightblue" points="323.19,-149.01 331.56,-142.5 320.96,-142.37 323.19,-149.01"/>
</g>
<!-- Node10 -->
<g id="node10" class="node">
<title>Node10</title>
<g id="a_node10"><a xlink:href="logger_8hpp.html" target="_top" xlink:title="This file defines a general logger interface as well as a logging system that is used in the project.">
<polygon fill="none" stroke="black" points="383.5,-56.5 383.5,-75.5 529.5,-75.5 529.5,-56.5 383.5,-56.5"/>
<text text-anchor="middle" x="456.5" y="-63.5" font-family="Helvetica,sans-Serif" font-size="10.00">zero_mate/utils/logger.hpp</text>
</a>
</g>
</g>
<!-- Node7&#45;&gt;Node10 -->
<g id="edge30" class="edge">
<title>Node7&#45;&gt;Node10</title>
<path fill="none" stroke="midnightblue" d="M423.59,-259.38C460.92,-255.14 506.06,-242.87 530.5,-210 562.2,-167.38 506.07,-109.24 475.03,-82.11"/>
<polygon fill="midnightblue" stroke="midnightblue" points="477.28,-79.42 467.39,-75.61 472.74,-84.75 477.28,-79.42"/>
</g>
<!-- Node12 -->
<g id="node12" class="node">
<title>Node12</title>
<g id="a_node12"><a xlink:href="c2_8hpp.html" target="_top" xlink:title="This file defines the primary register C2 of coprocessor CP15.">
<polygon fill="none" stroke="black" points="271,-190.5 271,-209.5 320,-209.5 320,-190.5 271,-190.5"/>
<text text-anchor="middle" x="295.5" y="-197.5" font-family="Helvetica,sans-Serif" font-size="10.00">c2.hpp</text>
</a>
</g>
</g>
<!-- Node7&#45;&gt;Node12 -->
<g id="edge12" class="edge">
<title>Node7&#45;&gt;Node12</title>
<path fill="none" stroke="midnightblue" d="M346.62,-246.4C336.48,-237.4 323.34,-225.72 312.91,-216.47"/>
<polygon fill="midnightblue" stroke="midnightblue" points="315.05,-213.68 305.25,-209.66 310.4,-218.92 315.05,-213.68"/>
</g>
<!-- Node13 -->
<g id="node13" class="node">
<title>Node13</title>
<g id="a_node13"><a xlink:href="c3_8hpp.html" target="_top" xlink:title="This file defines the primary register C3 of coprocessor CP15.">
<polygon fill="none" stroke="black" points="338,-190.5 338,-209.5 387,-209.5 387,-190.5 338,-190.5"/>
<text text-anchor="middle" x="362.5" y="-197.5" font-family="Helvetica,sans-Serif" font-size="10.00">c3.hpp</text>
</a>
</g>
</g>
<!-- Node7&#45;&gt;Node13 -->
<g id="edge14" class="edge">
<title>Node7&#45;&gt;Node13</title>
<path fill="none" stroke="midnightblue" d="M362.5,-246.4C362.5,-238.47 362.5,-228.46 362.5,-219.86"/>
<polygon fill="midnightblue" stroke="midnightblue" points="366,-219.66 362.5,-209.66 359,-219.66 366,-219.66"/>
</g>
<!-- Node14 -->
<g id="node14" class="node">
<title>Node14</title>
<g id="a_node14"><a xlink:href="c7_8hpp.html" target="_top" xlink:title="This file defines the primary register C7 of coprocessor CP15.">
<polygon fill="none" stroke="black" points="405,-190.5 405,-209.5 454,-209.5 454,-190.5 405,-190.5"/>
<text text-anchor="middle" x="429.5" y="-197.5" font-family="Helvetica,sans-Serif" font-size="10.00">c7.hpp</text>
</a>
</g>
</g>
<!-- Node7&#45;&gt;Node14 -->
<g id="edge16" class="edge">
<title>Node7&#45;&gt;Node14</title>
<path fill="none" stroke="midnightblue" d="M378.38,-246.4C388.52,-237.4 401.66,-225.72 412.09,-216.47"/>
<polygon fill="midnightblue" stroke="midnightblue" points="414.6,-218.92 419.75,-209.66 409.95,-213.68 414.6,-218.92"/>
</g>
<!-- Node15 -->
<g id="node15" class="node">
<title>Node15</title>
<g id="a_node15"><a xlink:href="c8_8hpp.html" target="_top" xlink:title="This file defines the primary register C8 of coprocessor CP15.">
<polygon fill="none" stroke="black" points="472,-190.5 472,-209.5 521,-209.5 521,-190.5 472,-190.5"/>
<text text-anchor="middle" x="496.5" y="-197.5" font-family="Helvetica,sans-Serif" font-size="10.00">c8.hpp</text>
</a>
</g>
</g>
<!-- Node7&#45;&gt;Node15 -->
<g id="edge18" class="edge">
<title>Node7&#45;&gt;Node15</title>
<path fill="none" stroke="midnightblue" d="M394.26,-246.4C416.54,-236.51 446.09,-223.38 467.69,-213.79"/>
<polygon fill="midnightblue" stroke="midnightblue" points="469.28,-216.91 477,-209.66 466.44,-210.52 469.28,-216.91"/>
</g>
<!-- Node16 -->
<g id="node16" class="node">
<title>Node16</title>
<g id="a_node16"><a xlink:href="coprocessor_8hpp.html" target="_top" xlink:title="This file defines a general interface of a coprocessor.">
<polygon fill="none" stroke="black" points="756.5,-190.5 756.5,-209.5 860.5,-209.5 860.5,-190.5 756.5,-190.5"/>
<text text-anchor="middle" x="808.5" y="-197.5" font-family="Helvetica,sans-Serif" font-size="10.00">../coprocessor.hpp</text>
</a>
</g>
</g>
<!-- Node7&#45;&gt;Node16 -->
<g id="edge21" class="edge">
<title>Node7&#45;&gt;Node16</title>
<path fill="none" stroke="midnightblue" d="M423.58,-252.35C508.4,-241.04 661.04,-220.67 746.4,-209.28"/>
<polygon fill="midnightblue" stroke="midnightblue" points="747.02,-212.73 756.47,-207.94 746.09,-205.79 747.02,-212.73"/>
</g>
<!-- Node8&#45;&gt;Node9 -->
<g id="edge8" class="edge">
<title>Node8&#45;&gt;Node9</title>
<path fill="none" stroke="midnightblue" d="M212.47,-190.37C242.67,-179.02 295.9,-159.02 330.16,-146.15"/>
<polygon fill="midnightblue" stroke="midnightblue" points="331.58,-149.36 339.71,-142.56 329.12,-142.8 331.58,-149.36"/>
</g>
<!-- Node8&#45;&gt;Node10 -->
<g id="edge11" class="edge">
<title>Node8&#45;&gt;Node10</title>
<path fill="none" stroke="midnightblue" d="M198.65,-190.3C217.3,-173 261.66,-134.08 305.5,-112 336.56,-96.36 374.01,-85.15 403.84,-77.84"/>
<polygon fill="midnightblue" stroke="midnightblue" points="404.73,-81.22 413.65,-75.5 403.11,-74.41 404.73,-81.22"/>
</g>
<!-- Node9&#45;&gt;Node10 -->
<g id="edge9" class="edge">
<title>Node9&#45;&gt;Node10</title>
<path fill="none" stroke="midnightblue" d="M375.18,-123.23C390.68,-112.51 417.14,-94.22 435.66,-81.41"/>
<polygon fill="midnightblue" stroke="midnightblue" points="437.79,-84.19 444.02,-75.63 433.81,-78.44 437.79,-84.19"/>
</g>
<!-- Node11 -->
<g id="node11" class="node">
<title>Node11</title>
<g id="a_node11"><a xlink:href="api__export_8hpp.html" target="_top" xlink:title="This file defines macros for exporting symbols out of a shared library.">
<polygon fill="none" stroke="black" points="384.5,-0.5 384.5,-19.5 528.5,-19.5 528.5,-0.5 384.5,-0.5"/>
<text text-anchor="middle" x="456.5" y="-7.5" font-family="Helvetica,sans-Serif" font-size="10.00">zero_mate/api_export.hpp</text>
</a>
</g>
</g>
<!-- Node10&#45;&gt;Node11 -->
<g id="edge10" class="edge">
<title>Node10&#45;&gt;Node11</title>
<path fill="none" stroke="midnightblue" d="M456.5,-56.08C456.5,-49.01 456.5,-38.86 456.5,-29.99"/>
<polygon fill="midnightblue" stroke="midnightblue" points="460,-29.75 456.5,-19.75 453,-29.75 460,-29.75"/>
</g>
<!-- Node12&#45;&gt;Node9 -->
<g id="edge13" class="edge">
<title>Node12&#45;&gt;Node9</title>
<path fill="none" stroke="midnightblue" d="M304.54,-190.23C315.18,-179.9 333.08,-162.54 346.18,-149.83"/>
<polygon fill="midnightblue" stroke="midnightblue" points="348.87,-152.1 353.61,-142.63 343.99,-147.08 348.87,-152.1"/>
</g>
<!-- Node13&#45;&gt;Node9 -->
<g id="edge15" class="edge">
<title>Node13&#45;&gt;Node9</title>
<path fill="none" stroke="midnightblue" d="M362.5,-190.23C362.5,-180.68 362.5,-165.12 362.5,-152.78"/>
<polygon fill="midnightblue" stroke="midnightblue" points="366,-152.63 362.5,-142.63 359,-152.63 366,-152.63"/>
</g>
<!-- Node14&#45;&gt;Node9 -->
<g id="edge17" class="edge">
<title>Node14&#45;&gt;Node9</title>
<path fill="none" stroke="midnightblue" d="M420.46,-190.23C409.82,-179.9 391.92,-162.54 378.82,-149.83"/>
<polygon fill="midnightblue" stroke="midnightblue" points="381.01,-147.08 371.39,-142.63 376.13,-152.1 381.01,-147.08"/>
</g>
<!-- Node15&#45;&gt;Node9 -->
<g id="edge19" class="edge">
<title>Node15&#45;&gt;Node9</title>
<path fill="none" stroke="midnightblue" d="M478.71,-190.37C455.88,-179.3 416.07,-159.99 389.5,-147.1"/>
<polygon fill="midnightblue" stroke="midnightblue" points="390.89,-143.88 380.37,-142.67 387.84,-150.18 390.89,-143.88"/>
</g>
<!-- Node17 -->
<g id="node17" class="node">
<title>Node17</title>
<g id="a_node17"><a xlink:href="context_8hpp.html" target="_top" xlink:title="This file defines the context (registers) of the CPU.">
<polygon fill="none" stroke="black" points="577.5,-123.5 577.5,-142.5 729.5,-142.5 729.5,-123.5 577.5,-123.5"/>
<text text-anchor="middle" x="653.5" y="-130.5" font-family="Helvetica,sans-Serif" font-size="10.00">../arm1176jzf_s/context.hpp</text>
</a>
</g>
</g>
<!-- Node16&#45;&gt;Node17 -->
<g id="edge22" class="edge">
<title>Node16&#45;&gt;Node17</title>
<path fill="none" stroke="midnightblue" d="M787.92,-190.37C761.17,-179.15 714.25,-159.48 683.53,-146.59"/>
<polygon fill="midnightblue" stroke="midnightblue" points="684.74,-143.31 674.17,-142.67 682.04,-149.76 684.74,-143.31"/>
</g>
<!-- Node18 -->
<g id="node18" class="node">
<title>Node18</title>
<g id="a_node18"><a xlink:href="coprocessor__register__transfer_8hpp.html" target="_top" xlink:title="This file defines a coprocessor register transfer (MRC, MCR).">
<polygon fill="none" stroke="black" points="748,-112.5 748,-153.5 869,-153.5 869,-112.5 748,-112.5"/>
<text text-anchor="start" x="756" y="-141.5" font-family="Helvetica,sans-Serif" font-size="10.00">../arm1176jzf_s/isa</text>
<text text-anchor="start" x="756" y="-130.5" font-family="Helvetica,sans-Serif" font-size="10.00">/coprocessor_register</text>
<text text-anchor="middle" x="808.5" y="-119.5" font-family="Helvetica,sans-Serif" font-size="10.00">_transfer.hpp</text>
</a>
</g>
</g>
<!-- Node16&#45;&gt;Node18 -->
<g id="edge24" class="edge">
<title>Node16&#45;&gt;Node18</title>
<path fill="none" stroke="midnightblue" d="M808.5,-190.23C808.5,-183.36 808.5,-173.38 808.5,-163.73"/>
<polygon fill="midnightblue" stroke="midnightblue" points="812,-163.54 808.5,-153.54 805,-163.54 812,-163.54"/>
</g>
<!-- Node20 -->
<g id="node20" class="node">
<title>Node20</title>
<g id="a_node20"><a xlink:href="coprocessor__data__transfer_8hpp.html" target="_top" xlink:title="This file defines a coprocessor data transfer (LDC, STC).">
<polygon fill="none" stroke="black" points="887,-118 887,-148 1056,-148 1056,-118 887,-118"/>
<text text-anchor="start" x="895" y="-136" font-family="Helvetica,sans-Serif" font-size="10.00">../arm1176jzf_s/isa</text>
<text text-anchor="middle" x="971.5" y="-125" font-family="Helvetica,sans-Serif" font-size="10.00">/coprocessor_data_transfer.hpp</text>
</a>
</g>
</g>
<!-- Node16&#45;&gt;Node20 -->
<g id="edge26" class="edge">
<title>Node16&#45;&gt;Node20</title>
<path fill="none" stroke="midnightblue" d="M830.15,-190.37C854.71,-180.57 895.44,-164.33 926.89,-151.79"/>
<polygon fill="midnightblue" stroke="midnightblue" points="928.33,-154.98 936.32,-148.03 925.74,-148.48 928.33,-154.98"/>
</g>
<!-- Node21 -->
<g id="node21" class="node">
<title>Node21</title>
<g id="a_node21"><a xlink:href="coprocessor__data__operation_8hpp.html" target="_top" xlink:title="This file defines a coprocessor data operation (CDP).">
<polygon fill="none" stroke="black" points="1073.5,-118 1073.5,-148 1251.5,-148 1251.5,-118 1073.5,-118"/>
<text text-anchor="start" x="1081.5" y="-136" font-family="Helvetica,sans-Serif" font-size="10.00">../arm1176jzf_s/isa</text>
<text text-anchor="middle" x="1162.5" y="-125" font-family="Helvetica,sans-Serif" font-size="10.00">/coprocessor_data_operation.hpp</text>
</a>
</g>
</g>
<!-- Node16&#45;&gt;Node21 -->
<g id="edge28" class="edge">
<title>Node16&#45;&gt;Node21</title>
<path fill="none" stroke="midnightblue" d="M859.78,-190.49C911.71,-181.76 994.31,-167.57 1065.5,-154 1072.08,-152.75 1078.91,-151.41 1085.75,-150.05"/>
<polygon fill="midnightblue" stroke="midnightblue" points="1086.65,-153.44 1095.76,-148.03 1085.27,-146.57 1086.65,-153.44"/>
</g>
<!-- Node17&#45;&gt;Node10 -->
<g id="edge23" class="edge">
<title>Node17&#45;&gt;Node10</title>
<path fill="none" stroke="midnightblue" d="M627.34,-123.37C592.66,-111.92 531.3,-91.68 492.33,-78.82"/>
<polygon fill="midnightblue" stroke="midnightblue" points="493.05,-75.37 482.45,-75.56 490.85,-82.02 493.05,-75.37"/>
</g>
<!-- Node19 -->
<g id="node19" class="node">
<title>Node19</title>
<g id="a_node19"><a xlink:href="instruction_8hpp.html" target="_top" xlink:title="This file defines the interface of a general ARM instruction.">
<polygon fill="none" stroke="black" points="927,-56.5 927,-75.5 1016,-75.5 1016,-56.5 927,-56.5"/>
<text text-anchor="middle" x="971.5" y="-63.5" font-family="Helvetica,sans-Serif" font-size="10.00">instruction.hpp</text>
</a>
</g>
</g>
<!-- Node18&#45;&gt;Node19 -->
<g id="edge25" class="edge">
<title>Node18&#45;&gt;Node19</title>
<path fill="none" stroke="midnightblue" d="M857.41,-112.5C884.32,-101.77 916.91,-88.77 940.36,-79.42"/>
<polygon fill="midnightblue" stroke="midnightblue" points="941.81,-82.61 949.8,-75.65 939.22,-76.11 941.81,-82.61"/>
</g>
<!-- Node20&#45;&gt;Node19 -->
<g id="edge27" class="edge">
<title>Node20&#45;&gt;Node19</title>
<path fill="none" stroke="midnightblue" d="M971.5,-117.9C971.5,-108.56 971.5,-96.21 971.5,-86.02"/>
<polygon fill="midnightblue" stroke="midnightblue" points="975,-85.69 971.5,-75.69 968,-85.69 975,-85.69"/>
</g>
<!-- Node21&#45;&gt;Node19 -->
<g id="edge29" class="edge">
<title>Node21&#45;&gt;Node19</title>
<path fill="none" stroke="midnightblue" d="M1121.06,-117.9C1086.65,-106.19 1038.3,-89.73 1005.98,-78.73"/>
<polygon fill="midnightblue" stroke="midnightblue" points="1007.09,-75.42 996.5,-75.51 1004.84,-82.04 1007.09,-75.42"/>
</g>
</g>
</svg>
