<?xml version="1.0" encoding="UTF-8" standalone="no"?>
<!DOCTYPE svg PUBLIC "-//W3C//DTD SVG 1.1//EN"
 "http://www.w3.org/Graphics/SVG/1.1/DTD/svg11.dtd">
<!-- Generated by graphviz version 2.43.0 (0)
 -->
<!-- Title: src/core/coprocessors/cp15.hpp Pages: 1 -->
<svg width="943pt" height="307pt"
 viewBox="0.00 0.00 943.00 307.00" xmlns="http://www.w3.org/2000/svg" xmlns:xlink="http://www.w3.org/1999/xlink">
<g id="graph0" class="graph" transform="scale(1 1) rotate(0) translate(4 303)">
<title>src/core/coprocessors/cp15.hpp</title>
<!-- Node1 -->
<g id="node1" class="node">
<title>Node1</title>
<g id="a_node1"><a xlink:title="This file defines CP15 (system control coprocessor).">
<polygon fill="#bfbfbf" stroke="black" points="609,-268.5 609,-298.5 731,-298.5 731,-268.5 609,-268.5"/>
<text text-anchor="start" x="617" y="-286.5" font-family="Helvetica,sans-Serif" font-size="10.00">src/core/coprocessors</text>
<text text-anchor="middle" x="670" y="-275.5" font-family="Helvetica,sans-Serif" font-size="10.00">/cp15.hpp</text>
</a>
</g>
</g>
<!-- Node2 -->
<g id="node2" class="node">
<title>Node2</title>
<g id="a_node2"><a xlink:href="bus_8hpp.html" target="_top" xlink:title="This file defines an interface the CPU uses to access different memory&#45;mapped peripherals.">
<polygon fill="none" stroke="black" points="361,-207 361,-226 457,-226 457,-207 361,-207"/>
<text text-anchor="middle" x="409" y="-214" font-family="Helvetica,sans-Serif" font-size="10.00">src/core/bus.hpp</text>
</a>
</g>
</g>
<!-- Node1&#45;&gt;Node2 -->
<g id="edge1" class="edge">
<title>Node1&#45;&gt;Node2</title>
<path fill="none" stroke="midnightblue" d="M603.71,-265.99C552.56,-253.25 483.88,-236.15 443.25,-226.03"/>
<polygon fill="midnightblue" stroke="midnightblue" points="603.14,-269.46 613.69,-268.48 604.83,-262.66 603.14,-269.46"/>
</g>
<!-- Node17 -->
<g id="node17" class="node">
<title>Node17</title>
<g id="a_node17"><a xlink:href="cp15_8cpp.html" target="_top" xlink:title="This file implements CP15 (system control coprocessor) as defined in cp15.hpp.">
<polygon fill="none" stroke="black" points="749,-201.5 749,-231.5 871,-231.5 871,-201.5 749,-201.5"/>
<text text-anchor="start" x="757" y="-219.5" font-family="Helvetica,sans-Serif" font-size="10.00">src/core/coprocessors</text>
<text text-anchor="middle" x="810" y="-208.5" font-family="Helvetica,sans-Serif" font-size="10.00">/cp15.cpp</text>
</a>
</g>
</g>
<!-- Node1&#45;&gt;Node17 -->
<g id="edge24" class="edge">
<title>Node1&#45;&gt;Node17</title>
<path fill="none" stroke="midnightblue" d="M709.57,-264.13C731.81,-253.8 759.15,-241.11 779.68,-231.58"/>
<polygon fill="midnightblue" stroke="midnightblue" points="707.97,-261.01 700.38,-268.4 710.92,-267.36 707.97,-261.01"/>
</g>
<!-- Node18 -->
<g id="node18" class="node">
<title>Node18</title>
<g id="a_node18"><a xlink:href="cp15__window_8hpp.html" target="_top" xlink:title=" ">
<polygon fill="none" stroke="black" points="609.5,-201.5 609.5,-231.5 730.5,-231.5 730.5,-201.5 609.5,-201.5"/>
<text text-anchor="start" x="617.5" y="-219.5" font-family="Helvetica,sans-Serif" font-size="10.00">src/gui/windows/cp15</text>
<text text-anchor="middle" x="670" y="-208.5" font-family="Helvetica,sans-Serif" font-size="10.00">_window.hpp</text>
</a>
</g>
</g>
<!-- Node1&#45;&gt;Node18 -->
<g id="edge25" class="edge">
<title>Node1&#45;&gt;Node18</title>
<path fill="none" stroke="midnightblue" d="M670,-258.11C670,-249.15 670,-239.32 670,-231.58"/>
<polygon fill="midnightblue" stroke="midnightblue" points="666.5,-258.4 670,-268.4 673.5,-258.4 666.5,-258.4"/>
</g>
<!-- Node3 -->
<g id="node3" class="node">
<title>Node3</title>
<g id="a_node3"><a xlink:href="core_8hpp.html" target="_top" xlink:title="This file defines a class that represents a CPU core (arm1176jzf_s).">
<polygon fill="none" stroke="black" points="464.5,-134.5 464.5,-164.5 577.5,-164.5 577.5,-134.5 464.5,-134.5"/>
<text text-anchor="start" x="472.5" y="-152.5" font-family="Helvetica,sans-Serif" font-size="10.00">src/core/arm1176jzf</text>
<text text-anchor="middle" x="521" y="-141.5" font-family="Helvetica,sans-Serif" font-size="10.00">_s/core.hpp</text>
</a>
</g>
</g>
<!-- Node2&#45;&gt;Node3 -->
<g id="edge2" class="edge">
<title>Node2&#45;&gt;Node3</title>
<path fill="none" stroke="midnightblue" d="M432.94,-201.6C451.75,-190.69 477.83,-175.55 496.72,-164.59"/>
<polygon fill="midnightblue" stroke="midnightblue" points="431,-198.69 424.1,-206.73 434.51,-204.74 431,-198.69"/>
</g>
<!-- Node8 -->
<g id="node8" class="node">
<title>Node8</title>
<g id="a_node8"><a xlink:href="file__window_8hpp.html" target="_top" xlink:title=" ">
<polygon fill="none" stroke="black" points="345.5,-67.5 345.5,-97.5 458.5,-97.5 458.5,-67.5 345.5,-67.5"/>
<text text-anchor="start" x="353.5" y="-85.5" font-family="Helvetica,sans-Serif" font-size="10.00">src/gui/windows/file</text>
<text text-anchor="middle" x="402" y="-74.5" font-family="Helvetica,sans-Serif" font-size="10.00">_window.hpp</text>
</a>
</g>
</g>
<!-- Node2&#45;&gt;Node8 -->
<g id="edge23" class="edge">
<title>Node2&#45;&gt;Node8</title>
<path fill="none" stroke="midnightblue" d="M407.99,-196.53C406.58,-169.81 404.03,-121.69 402.76,-97.78"/>
<polygon fill="midnightblue" stroke="midnightblue" points="404.52,-197.04 408.54,-206.84 411.51,-196.67 404.52,-197.04"/>
</g>
<!-- Node14 -->
<g id="node14" class="node">
<title>Node14</title>
<g id="a_node14"><a xlink:href="bus_8cpp.html" target="_top" xlink:title="This file implements the interface defined in bus.hpp.">
<polygon fill="none" stroke="black" points="285.5,-140 285.5,-159 380.5,-159 380.5,-140 285.5,-140"/>
<text text-anchor="middle" x="333" y="-147" font-family="Helvetica,sans-Serif" font-size="10.00">src/core/bus.cpp</text>
</a>
</g>
</g>
<!-- Node2&#45;&gt;Node14 -->
<g id="edge16" class="edge">
<title>Node2&#45;&gt;Node14</title>
<path fill="none" stroke="midnightblue" d="M391.13,-200.21C376.15,-187.41 355.32,-169.59 343.09,-159.13"/>
<polygon fill="midnightblue" stroke="midnightblue" points="388.88,-202.89 398.75,-206.73 393.43,-197.57 388.88,-202.89"/>
</g>
<!-- Node15 -->
<g id="node15" class="node">
<title>Node15</title>
<g id="a_node15"><a xlink:href="elf__loader_8hpp.html" target="_top" xlink:title="This file defines the functionality of an ELF loader.">
<polygon fill="none" stroke="black" points="150.5,-134.5 150.5,-164.5 245.5,-164.5 245.5,-134.5 150.5,-134.5"/>
<text text-anchor="start" x="158.5" y="-152.5" font-family="Helvetica,sans-Serif" font-size="10.00">src/core/utils/elf</text>
<text text-anchor="middle" x="198" y="-141.5" font-family="Helvetica,sans-Serif" font-size="10.00">_loader.hpp</text>
</a>
</g>
</g>
<!-- Node2&#45;&gt;Node15 -->
<g id="edge17" class="edge">
<title>Node2&#45;&gt;Node15</title>
<path fill="none" stroke="midnightblue" d="M371.4,-203.92C335.62,-192.9 281.73,-176.29 243.54,-164.53"/>
<polygon fill="midnightblue" stroke="midnightblue" points="370.39,-207.27 380.98,-206.87 372.45,-200.58 370.39,-207.27"/>
</g>
<!-- Node4 -->
<g id="node4" class="node">
<title>Node4</title>
<g id="a_node4"><a xlink:href="core_8cpp.html" target="_top" xlink:title="This file implements the CCPU_Core class defined in core.hpp.">
<polygon fill="none" stroke="black" points="625.5,-67.5 625.5,-97.5 738.5,-97.5 738.5,-67.5 625.5,-67.5"/>
<text text-anchor="start" x="633.5" y="-85.5" font-family="Helvetica,sans-Serif" font-size="10.00">src/core/arm1176jzf</text>
<text text-anchor="middle" x="682" y="-74.5" font-family="Helvetica,sans-Serif" font-size="10.00">_s/core.cpp</text>
</a>
</g>
</g>
<!-- Node3&#45;&gt;Node4 -->
<g id="edge3" class="edge">
<title>Node3&#45;&gt;Node4</title>
<path fill="none" stroke="midnightblue" d="M565.48,-130.54C591.24,-120.14 623.2,-107.24 647.13,-97.58"/>
<polygon fill="midnightblue" stroke="midnightblue" points="563.9,-127.41 555.93,-134.4 566.52,-133.9 563.9,-127.41"/>
</g>
<!-- Node5 -->
<g id="node5" class="node">
<title>Node5</title>
<g id="a_node5"><a xlink:href="control__window_8hpp.html" target="_top" xlink:title=" ">
<polygon fill="none" stroke="black" points="476.5,-67.5 476.5,-97.5 607.5,-97.5 607.5,-67.5 476.5,-67.5"/>
<text text-anchor="start" x="484.5" y="-85.5" font-family="Helvetica,sans-Serif" font-size="10.00">src/gui/windows/control</text>
<text text-anchor="middle" x="542" y="-74.5" font-family="Helvetica,sans-Serif" font-size="10.00">_window.hpp</text>
</a>
</g>
</g>
<!-- Node3&#45;&gt;Node5 -->
<g id="edge4" class="edge">
<title>Node3&#45;&gt;Node5</title>
<path fill="none" stroke="midnightblue" d="M528.69,-124.7C531.63,-115.59 534.89,-105.49 537.45,-97.58"/>
<polygon fill="midnightblue" stroke="midnightblue" points="525.3,-123.8 525.56,-134.4 531.96,-125.96 525.3,-123.8"/>
</g>
<!-- Node3&#45;&gt;Node8 -->
<g id="edge7" class="edge">
<title>Node3&#45;&gt;Node8</title>
<path fill="none" stroke="midnightblue" d="M486.35,-129.57C467.63,-119.35 444.91,-106.94 427.77,-97.58"/>
<polygon fill="midnightblue" stroke="midnightblue" points="484.72,-132.67 495.18,-134.4 488.08,-126.53 484.72,-132.67"/>
</g>
<!-- Node10 -->
<g id="node10" class="node">
<title>Node10</title>
<g id="a_node10"><a xlink:href="registers__window_8hpp.html" target="_top" xlink:title=" ">
<polygon fill="none" stroke="black" points="795,-67.5 795,-97.5 935,-97.5 935,-67.5 795,-67.5"/>
<text text-anchor="start" x="803" y="-85.5" font-family="Helvetica,sans-Serif" font-size="10.00">src/gui/windows/registers</text>
<text text-anchor="middle" x="865" y="-74.5" font-family="Helvetica,sans-Serif" font-size="10.00">_window.hpp</text>
</a>
</g>
</g>
<!-- Node3&#45;&gt;Node10 -->
<g id="edge10" class="edge">
<title>Node3&#45;&gt;Node10</title>
<path fill="none" stroke="midnightblue" d="M587.85,-135.87C647.38,-124.62 734.17,-108.22 794.72,-96.78"/>
<polygon fill="midnightblue" stroke="midnightblue" points="586.98,-132.47 577.8,-137.77 588.28,-139.35 586.98,-132.47"/>
</g>
<!-- Node12 -->
<g id="node12" class="node">
<title>Node12</title>
<g id="a_node12"><a xlink:href="source__code__window_8hpp.html" target="_top" xlink:title=" ">
<polygon fill="none" stroke="black" points="197,-67.5 197,-97.5 327,-97.5 327,-67.5 197,-67.5"/>
<text text-anchor="start" x="205" y="-85.5" font-family="Helvetica,sans-Serif" font-size="10.00">src/gui/windows/source</text>
<text text-anchor="middle" x="262" y="-74.5" font-family="Helvetica,sans-Serif" font-size="10.00">_code_window.hpp</text>
</a>
</g>
</g>
<!-- Node3&#45;&gt;Node12 -->
<g id="edge13" class="edge">
<title>Node3&#45;&gt;Node12</title>
<path fill="none" stroke="midnightblue" d="M455.19,-131.98C412.89,-121.37 358.51,-107.72 318.23,-97.61"/>
<polygon fill="midnightblue" stroke="midnightblue" points="454.57,-135.44 465.12,-134.48 456.27,-128.65 454.57,-135.44"/>
</g>
<!-- Node6 -->
<g id="node6" class="node">
<title>Node6</title>
<g id="a_node6"><a xlink:href="gui_8cpp.html" target="_top" xlink:title=" ">
<polygon fill="none" stroke="black" points="498.5,-6 498.5,-25 585.5,-25 585.5,-6 498.5,-6"/>
<text text-anchor="middle" x="542" y="-13" font-family="Helvetica,sans-Serif" font-size="10.00">src/gui/gui.cpp</text>
</a>
</g>
</g>
<!-- Node5&#45;&gt;Node6 -->
<g id="edge5" class="edge">
<title>Node5&#45;&gt;Node6</title>
<path fill="none" stroke="midnightblue" d="M542,-57.25C542,-46.02 542,-33.38 542,-25.19"/>
<polygon fill="midnightblue" stroke="midnightblue" points="538.5,-57.4 542,-67.4 545.5,-57.4 538.5,-57.4"/>
</g>
<!-- Node7 -->
<g id="node7" class="node">
<title>Node7</title>
<g id="a_node7"><a xlink:href="control__window_8cpp.html" target="_top" xlink:title=" ">
<polygon fill="none" stroke="black" points="149.5,-0.5 149.5,-30.5 280.5,-30.5 280.5,-0.5 149.5,-0.5"/>
<text text-anchor="start" x="157.5" y="-18.5" font-family="Helvetica,sans-Serif" font-size="10.00">src/gui/windows/control</text>
<text text-anchor="middle" x="215" y="-7.5" font-family="Helvetica,sans-Serif" font-size="10.00">_window.cpp</text>
</a>
</g>
</g>
<!-- Node5&#45;&gt;Node7 -->
<g id="edge6" class="edge">
<title>Node5&#45;&gt;Node7</title>
<path fill="none" stroke="midnightblue" d="M466.32,-66.46C410.15,-55.29 334.31,-40.22 280.67,-29.55"/>
<polygon fill="midnightblue" stroke="midnightblue" points="465.73,-69.91 476.22,-68.42 467.09,-63.04 465.73,-69.91"/>
</g>
<!-- Node8&#45;&gt;Node6 -->
<g id="edge8" class="edge">
<title>Node8&#45;&gt;Node6</title>
<path fill="none" stroke="midnightblue" d="M441.56,-63.13C468.51,-50.62 502.93,-34.64 523.68,-25.01"/>
<polygon fill="midnightblue" stroke="midnightblue" points="439.97,-60.01 432.38,-67.4 442.92,-66.36 439.97,-60.01"/>
</g>
<!-- Node9 -->
<g id="node9" class="node">
<title>Node9</title>
<g id="a_node9"><a xlink:href="file__window_8cpp.html" target="_top" xlink:title=" ">
<polygon fill="none" stroke="black" points="345.5,-0.5 345.5,-30.5 458.5,-30.5 458.5,-0.5 345.5,-0.5"/>
<text text-anchor="start" x="353.5" y="-18.5" font-family="Helvetica,sans-Serif" font-size="10.00">src/gui/windows/file</text>
<text text-anchor="middle" x="402" y="-7.5" font-family="Helvetica,sans-Serif" font-size="10.00">_window.cpp</text>
</a>
</g>
</g>
<!-- Node8&#45;&gt;Node9 -->
<g id="edge9" class="edge">
<title>Node8&#45;&gt;Node9</title>
<path fill="none" stroke="midnightblue" d="M402,-57.11C402,-48.15 402,-38.32 402,-30.58"/>
<polygon fill="midnightblue" stroke="midnightblue" points="398.5,-57.4 402,-67.4 405.5,-57.4 398.5,-57.4"/>
</g>
<!-- Node10&#45;&gt;Node6 -->
<g id="edge11" class="edge">
<title>Node10&#45;&gt;Node6</title>
<path fill="none" stroke="midnightblue" d="M785.32,-65.47C721.79,-52.68 635.3,-35.27 584.38,-25.03"/>
<polygon fill="midnightblue" stroke="midnightblue" points="784.82,-68.93 795.31,-67.48 786.2,-62.07 784.82,-68.93"/>
</g>
<!-- Node11 -->
<g id="node11" class="node">
<title>Node11</title>
<g id="a_node11"><a xlink:href="registers__window_8cpp.html" target="_top" xlink:title=" ">
<polygon fill="none" stroke="black" points="795,-0.5 795,-30.5 935,-30.5 935,-0.5 795,-0.5"/>
<text text-anchor="start" x="803" y="-18.5" font-family="Helvetica,sans-Serif" font-size="10.00">src/gui/windows/registers</text>
<text text-anchor="middle" x="865" y="-7.5" font-family="Helvetica,sans-Serif" font-size="10.00">_window.cpp</text>
</a>
</g>
</g>
<!-- Node10&#45;&gt;Node11 -->
<g id="edge12" class="edge">
<title>Node10&#45;&gt;Node11</title>
<path fill="none" stroke="midnightblue" d="M865,-57.11C865,-48.15 865,-38.32 865,-30.58"/>
<polygon fill="midnightblue" stroke="midnightblue" points="861.5,-57.4 865,-67.4 868.5,-57.4 861.5,-57.4"/>
</g>
<!-- Node12&#45;&gt;Node6 -->
<g id="edge14" class="edge">
<title>Node12&#45;&gt;Node6</title>
<path fill="none" stroke="midnightblue" d="M332.44,-65.15C387.38,-52.39 461.49,-35.19 505.26,-25.03"/>
<polygon fill="midnightblue" stroke="midnightblue" points="331.36,-61.81 322.41,-67.48 332.94,-68.62 331.36,-61.81"/>
</g>
<!-- Node13 -->
<g id="node13" class="node">
<title>Node13</title>
<g id="a_node13"><a xlink:href="source__code__window_8cpp.html" target="_top" xlink:title=" ">
<polygon fill="none" stroke="black" points="0,-0.5 0,-30.5 130,-30.5 130,-0.5 0,-0.5"/>
<text text-anchor="start" x="8" y="-18.5" font-family="Helvetica,sans-Serif" font-size="10.00">src/gui/windows/source</text>
<text text-anchor="middle" x="65" y="-7.5" font-family="Helvetica,sans-Serif" font-size="10.00">_code_window.cpp</text>
</a>
</g>
</g>
<!-- Node12&#45;&gt;Node13 -->
<g id="edge15" class="edge">
<title>Node12&#45;&gt;Node13</title>
<path fill="none" stroke="midnightblue" d="M209.65,-64.23C177.78,-53.71 137.59,-40.45 107.66,-30.58"/>
<polygon fill="midnightblue" stroke="midnightblue" points="208.66,-67.59 219.25,-67.4 210.85,-60.94 208.66,-67.59"/>
</g>
<!-- Node15&#45;&gt;Node7 -->
<g id="edge19" class="edge">
<title>Node15&#45;&gt;Node7</title>
<path fill="none" stroke="midnightblue" d="M190.52,-124.61C186.49,-108.21 183.23,-86.06 188,-67 191.29,-53.88 198.7,-40.45 204.93,-30.74"/>
<polygon fill="midnightblue" stroke="midnightblue" points="187.2,-125.74 193.2,-134.46 193.95,-123.9 187.2,-125.74"/>
</g>
<!-- Node15&#45;&gt;Node8 -->
<g id="edge20" class="edge">
<title>Node15&#45;&gt;Node8</title>
<path fill="none" stroke="midnightblue" d="M251.96,-131.31C284.96,-120.79 326.66,-107.51 357.71,-97.61"/>
<polygon fill="midnightblue" stroke="midnightblue" points="250.48,-128.11 242.01,-134.48 252.6,-134.77 250.48,-128.11"/>
</g>
<!-- Node15&#45;&gt;Node12 -->
<g id="edge22" class="edge">
<title>Node15&#45;&gt;Node12</title>
<path fill="none" stroke="midnightblue" d="M219.15,-127.02C228.68,-117.34 239.67,-106.17 248.14,-97.58"/>
<polygon fill="midnightblue" stroke="midnightblue" points="216.41,-124.81 211.89,-134.4 221.4,-129.73 216.41,-124.81"/>
</g>
<!-- Node15&#45;&gt;Node13 -->
<g id="edge21" class="edge">
<title>Node15&#45;&gt;Node13</title>
<path fill="none" stroke="midnightblue" d="M140.39,-146.91C104.11,-142.54 59.78,-130.32 36,-98 20.78,-77.31 38.83,-47.9 52.5,-30.65"/>
<polygon fill="midnightblue" stroke="midnightblue" points="140.08,-150.39 150.39,-147.94 140.8,-143.43 140.08,-150.39"/>
</g>
<!-- Node16 -->
<g id="node16" class="node">
<title>Node16</title>
<g id="a_node16"><a xlink:href="elf__loader_8cpp.html" target="_top" xlink:title="This file implements the functionality of an ELF loader defined in elf_loader.hpp.">
<polygon fill="none" stroke="black" points="45.5,-67.5 45.5,-97.5 140.5,-97.5 140.5,-67.5 45.5,-67.5"/>
<text text-anchor="start" x="53.5" y="-85.5" font-family="Helvetica,sans-Serif" font-size="10.00">src/core/utils/elf</text>
<text text-anchor="middle" x="93" y="-74.5" font-family="Helvetica,sans-Serif" font-size="10.00">_loader.cpp</text>
</a>
</g>
</g>
<!-- Node15&#45;&gt;Node16 -->
<g id="edge18" class="edge">
<title>Node15&#45;&gt;Node16</title>
<path fill="none" stroke="midnightblue" d="M166.52,-129.02C150.18,-118.9 130.59,-106.77 115.74,-97.58"/>
<polygon fill="midnightblue" stroke="midnightblue" points="164.87,-132.11 175.22,-134.4 168.56,-126.16 164.87,-132.11"/>
</g>
<!-- Node18&#45;&gt;Node6 -->
<g id="edge26" class="edge">
<title>Node18&#45;&gt;Node6</title>
<path fill="none" stroke="midnightblue" d="M708.5,-196.04C720.5,-188.06 732.53,-177.68 740,-165 762.18,-127.35 774.97,-101.38 748,-67 728.23,-41.79 640.17,-27.52 585.78,-20.97"/>
<polygon fill="midnightblue" stroke="midnightblue" points="706.48,-193.17 699.83,-201.42 710.17,-199.12 706.48,-193.17"/>
</g>
<!-- Node19 -->
<g id="node19" class="node">
<title>Node19</title>
<g id="a_node19"><a xlink:href="cp15__window_8cpp.html" target="_top" xlink:title=" ">
<polygon fill="none" stroke="black" points="609.5,-134.5 609.5,-164.5 730.5,-164.5 730.5,-134.5 609.5,-134.5"/>
<text text-anchor="start" x="617.5" y="-152.5" font-family="Helvetica,sans-Serif" font-size="10.00">src/gui/windows/cp15</text>
<text text-anchor="middle" x="670" y="-141.5" font-family="Helvetica,sans-Serif" font-size="10.00">_window.cpp</text>
</a>
</g>
</g>
<!-- Node18&#45;&gt;Node19 -->
<g id="edge27" class="edge">
<title>Node18&#45;&gt;Node19</title>
<path fill="none" stroke="midnightblue" d="M670,-191.11C670,-182.15 670,-172.32 670,-164.58"/>
<polygon fill="midnightblue" stroke="midnightblue" points="666.5,-191.4 670,-201.4 673.5,-191.4 666.5,-191.4"/>
</g>
</g>
</svg>
