<?xml version="1.0" encoding="UTF-8" standalone="no"?>
<!DOCTYPE svg PUBLIC "-//W3C//DTD SVG 1.1//EN"
 "http://www.w3.org/Graphics/SVG/1.1/DTD/svg11.dtd">
<!-- Generated by graphviz version 2.43.0 (0)
 -->
<!-- Title: src/core/coprocessors/cp10/isa/cp_data_transfer_inst.hpp Pages: 1 -->
<svg width="480pt" height="262pt"
 viewBox="0.00 0.00 479.50 262.00" xmlns="http://www.w3.org/2000/svg" xmlns:xlink="http://www.w3.org/1999/xlink">
<g id="graph0" class="graph" transform="scale(1 1) rotate(0) translate(4 258)">
<title>src/core/coprocessors/cp10/isa/cp_data_transfer_inst.hpp</title>
<!-- Node1 -->
<g id="node1" class="node">
<title>Node1</title>
<g id="a_node1"><a xlink:title="This file defines a general CP10 data transfer instruction (load and store).">
<polygon fill="#bfbfbf" stroke="black" points="191.5,-212.5 191.5,-253.5 336.5,-253.5 336.5,-212.5 191.5,-212.5"/>
<text text-anchor="start" x="199.5" y="-241.5" font-family="Helvetica,sans-Serif" font-size="10.00">src/core/coprocessors</text>
<text text-anchor="start" x="199.5" y="-230.5" font-family="Helvetica,sans-Serif" font-size="10.00">/cp10/isa/cp_data_transfer</text>
<text text-anchor="middle" x="264" y="-219.5" font-family="Helvetica,sans-Serif" font-size="10.00">_inst.hpp</text>
</a>
</g>
</g>
<!-- Node2 -->
<g id="node2" class="node">
<title>Node2</title>
<g id="a_node2"><a xlink:href="cp10_8hpp.html" target="_top" xlink:title="This file defines coprocessor CP10 (single&#45;precision FPU).">
<polygon fill="none" stroke="black" points="127,-140 127,-170 249,-170 249,-140 127,-140"/>
<text text-anchor="start" x="135" y="-158" font-family="Helvetica,sans-Serif" font-size="10.00">src/core/coprocessors</text>
<text text-anchor="middle" x="188" y="-147" font-family="Helvetica,sans-Serif" font-size="10.00">/cp10/cp10.hpp</text>
</a>
</g>
</g>
<!-- Node1&#45;&gt;Node2 -->
<g id="edge1" class="edge">
<title>Node1&#45;&gt;Node2</title>
<path fill="none" stroke="midnightblue" d="M237.32,-205.32C225.51,-193.51 212.08,-180.08 202.23,-170.23"/>
<polygon fill="midnightblue" stroke="midnightblue" points="234.88,-207.83 244.43,-212.43 239.83,-202.88 234.88,-207.83"/>
</g>
<!-- Node10 -->
<g id="node10" class="node">
<title>Node10</title>
<g id="a_node10"><a xlink:href="cp__data__transfer__inst_8cpp.html" target="_top" xlink:title="This file implements a general CP10 data transfer instruction (load and store).">
<polygon fill="none" stroke="black" points="267.5,-134.5 267.5,-175.5 412.5,-175.5 412.5,-134.5 267.5,-134.5"/>
<text text-anchor="start" x="275.5" y="-163.5" font-family="Helvetica,sans-Serif" font-size="10.00">src/core/coprocessors</text>
<text text-anchor="start" x="275.5" y="-152.5" font-family="Helvetica,sans-Serif" font-size="10.00">/cp10/isa/cp_data_transfer</text>
<text text-anchor="middle" x="340" y="-141.5" font-family="Helvetica,sans-Serif" font-size="10.00">_inst.cpp</text>
</a>
</g>
</g>
<!-- Node1&#45;&gt;Node10 -->
<g id="edge10" class="edge">
<title>Node1&#45;&gt;Node10</title>
<path fill="none" stroke="midnightblue" d="M290.8,-205.2C300.58,-195.42 311.46,-184.54 320.49,-175.51"/>
<polygon fill="midnightblue" stroke="midnightblue" points="288.17,-202.88 283.57,-212.43 293.12,-207.83 288.17,-202.88"/>
</g>
<!-- Node3 -->
<g id="node3" class="node">
<title>Node3</title>
<g id="a_node3"><a xlink:href="cp10_8cpp.html" target="_top" xlink:title="This file implements coprocessor CP10 (single&#45;precision FPU).">
<polygon fill="none" stroke="black" points="0,-67.5 0,-97.5 122,-97.5 122,-67.5 0,-67.5"/>
<text text-anchor="start" x="8" y="-85.5" font-family="Helvetica,sans-Serif" font-size="10.00">src/core/coprocessors</text>
<text text-anchor="middle" x="61" y="-74.5" font-family="Helvetica,sans-Serif" font-size="10.00">/cp10/cp10.cpp</text>
</a>
</g>
</g>
<!-- Node2&#45;&gt;Node3 -->
<g id="edge2" class="edge">
<title>Node2&#45;&gt;Node3</title>
<path fill="none" stroke="midnightblue" d="M153.59,-134.9C132.38,-123.12 105.63,-108.28 86.35,-97.57"/>
<polygon fill="midnightblue" stroke="midnightblue" points="152.16,-138.11 162.6,-139.9 155.56,-131.99 152.16,-138.11"/>
</g>
<!-- Node4 -->
<g id="node4" class="node">
<title>Node4</title>
<g id="a_node4"><a xlink:href="soc_8hpp.html" target="_top" xlink:title=" ">
<polygon fill="none" stroke="black" points="140.5,-73 140.5,-92 235.5,-92 235.5,-73 140.5,-73"/>
<text text-anchor="middle" x="188" y="-80" font-family="Helvetica,sans-Serif" font-size="10.00">src/core/soc.hpp</text>
</a>
</g>
</g>
<!-- Node2&#45;&gt;Node4 -->
<g id="edge3" class="edge">
<title>Node2&#45;&gt;Node4</title>
<path fill="none" stroke="midnightblue" d="M188,-129.59C188,-116.71 188,-101.7 188,-92.39"/>
<polygon fill="midnightblue" stroke="midnightblue" points="184.5,-129.73 188,-139.73 191.5,-129.73 184.5,-129.73"/>
</g>
<!-- Node8 -->
<g id="node8" class="node">
<title>Node8</title>
<g id="a_node8"><a xlink:href="cp10__window_8hpp.html" target="_top" xlink:title="This file defines a window that displays data (information) related to coprocessor 10 (FPU).">
<polygon fill="none" stroke="black" points="253.5,-67.5 253.5,-97.5 374.5,-97.5 374.5,-67.5 253.5,-67.5"/>
<text text-anchor="start" x="261.5" y="-85.5" font-family="Helvetica,sans-Serif" font-size="10.00">src/gui/windows/cp10</text>
<text text-anchor="middle" x="314" y="-74.5" font-family="Helvetica,sans-Serif" font-size="10.00">_window.hpp</text>
</a>
</g>
</g>
<!-- Node2&#45;&gt;Node8 -->
<g id="edge7" class="edge">
<title>Node2&#45;&gt;Node8</title>
<path fill="none" stroke="midnightblue" d="M222.14,-134.9C243.19,-123.12 269.72,-108.28 288.85,-97.57"/>
<polygon fill="midnightblue" stroke="midnightblue" points="220.21,-131.97 213.2,-139.9 223.63,-138.07 220.21,-131.97"/>
</g>
<!-- Node5 -->
<g id="node5" class="node">
<title>Node5</title>
<g id="a_node5"><a xlink:href="soc_8cpp.html" target="_top" xlink:title=" ">
<polygon fill="none" stroke="black" points="35.5,-6 35.5,-25 130.5,-25 130.5,-6 35.5,-6"/>
<text text-anchor="middle" x="83" y="-13" font-family="Helvetica,sans-Serif" font-size="10.00">src/core/soc.cpp</text>
</a>
</g>
</g>
<!-- Node4&#45;&gt;Node5 -->
<g id="edge4" class="edge">
<title>Node4&#45;&gt;Node5</title>
<path fill="none" stroke="midnightblue" d="M165.29,-67.44C144.5,-54.57 114.38,-35.93 96.94,-25.13"/>
<polygon fill="midnightblue" stroke="midnightblue" points="163.49,-70.45 173.84,-72.73 167.18,-64.49 163.49,-70.45"/>
</g>
<!-- Node6 -->
<g id="node6" class="node">
<title>Node6</title>
<g id="a_node6"><a xlink:href="gui_8cpp.html" target="_top" xlink:title="This file implements the main GUI entry function that takes care of creating and rendering all window...">
<polygon fill="none" stroke="black" points="245.5,-6 245.5,-25 332.5,-25 332.5,-6 245.5,-6"/>
<text text-anchor="middle" x="289" y="-13" font-family="Helvetica,sans-Serif" font-size="10.00">src/gui/gui.cpp</text>
</a>
</g>
</g>
<!-- Node4&#45;&gt;Node6 -->
<g id="edge5" class="edge">
<title>Node4&#45;&gt;Node6</title>
<path fill="none" stroke="midnightblue" d="M210.11,-67.27C230.11,-54.4 258.89,-35.88 275.59,-25.13"/>
<polygon fill="midnightblue" stroke="midnightblue" points="208.14,-64.38 201.62,-72.73 211.92,-70.27 208.14,-64.38"/>
</g>
<!-- Node7 -->
<g id="node7" class="node">
<title>Node7</title>
<g id="a_node7"><a xlink:href="main_8cpp.html" target="_top" xlink:title="This file defines and implements the main function of the application.">
<polygon fill="none" stroke="black" points="148.5,-6 148.5,-25 227.5,-25 227.5,-6 148.5,-6"/>
<text text-anchor="middle" x="188" y="-13" font-family="Helvetica,sans-Serif" font-size="10.00">src/main.cpp</text>
</a>
</g>
</g>
<!-- Node4&#45;&gt;Node7 -->
<g id="edge6" class="edge">
<title>Node4&#45;&gt;Node7</title>
<path fill="none" stroke="midnightblue" d="M188,-62.54C188,-50.17 188,-34.62 188,-25.13"/>
<polygon fill="midnightblue" stroke="midnightblue" points="184.5,-62.73 188,-72.73 191.5,-62.73 184.5,-62.73"/>
</g>
<!-- Node8&#45;&gt;Node6 -->
<g id="edge8" class="edge">
<title>Node8&#45;&gt;Node6</title>
<path fill="none" stroke="midnightblue" d="M304.94,-57.94C300.55,-46.54 295.56,-33.55 292.34,-25.19"/>
<polygon fill="midnightblue" stroke="midnightblue" points="301.72,-59.32 308.58,-67.4 308.25,-56.81 301.72,-59.32"/>
</g>
<!-- Node9 -->
<g id="node9" class="node">
<title>Node9</title>
<g id="a_node9"><a xlink:href="cp10__window_8cpp.html" target="_top" xlink:title="This file implements a window that displays data (information) related to coprocessor 10 (FPU).">
<polygon fill="none" stroke="black" points="350.5,-0.5 350.5,-30.5 471.5,-30.5 471.5,-0.5 350.5,-0.5"/>
<text text-anchor="start" x="358.5" y="-18.5" font-family="Helvetica,sans-Serif" font-size="10.00">src/gui/windows/cp10</text>
<text text-anchor="middle" x="411" y="-7.5" font-family="Helvetica,sans-Serif" font-size="10.00">_window.cpp</text>
</a>
</g>
</g>
<!-- Node8&#45;&gt;Node9 -->
<g id="edge9" class="edge">
<title>Node8&#45;&gt;Node9</title>
<path fill="none" stroke="midnightblue" d="M343.5,-61.73C358.51,-51.68 376.4,-39.68 389.99,-30.58"/>
<polygon fill="midnightblue" stroke="midnightblue" points="341.41,-58.92 335.05,-67.4 345.3,-64.74 341.41,-58.92"/>
</g>
</g>
</svg>
