<?xml version="1.0" encoding="UTF-8" standalone="no"?>
<!DOCTYPE svg PUBLIC "-//W3C//DTD SVG 1.1//EN"
 "http://www.w3.org/Graphics/SVG/1.1/DTD/svg11.dtd">
<!-- Generated by graphviz version 2.43.0 (0)
 -->
<!-- Title: src/gui Pages: 1 -->
<svg width="148pt" height="319pt"
 viewBox="0.00 0.00 148.00 319.00" xmlns="http://www.w3.org/2000/svg" xmlns:xlink="http://www.w3.org/1999/xlink">
<g id="graph0" class="graph" transform="scale(1 1) rotate(0) translate(4 315)">
<title>src/gui</title>
<g id="clust1" class="cluster">
<title>clusterdir_68267d1309a1af8e8297ef4c3efbcdba</title>
<g id="a_clust1"><a xlink:href="dir_68267d1309a1af8e8297ef4c3efbcdba.html" target="_top" xlink:title="src">
<polygon fill="#ddddee" stroke="black" points="8,-8 8,-303 132,-303 132,-8 8,-8"/>
<text text-anchor="middle" x="70" y="-291" font-family="Helvetica,sans-Serif" font-size="10.00">src</text>
</a>
</g>
</g>
<g id="clust2" class="cluster">
<title>clusterdir_99d0482cf009f9d97a0877749b817f19</title>
<g id="a_clust2"><a xlink:href="dir_99d0482cf009f9d97a0877749b817f19.html" target="_top">
<polygon fill="#eeeeff" stroke="black" points="16,-152 16,-276 92,-276 92,-152 16,-152"/>
</a>
</g>
</g>
<!-- dir_313caf1132e152dd9b58bea13a4052ca -->
<g id="node1" class="node">
<title>dir_313caf1132e152dd9b58bea13a4052ca</title>
<g id="a_node1"><a xlink:href="dir_313caf1132e152dd9b58bea13a4052ca.html" target="_top" xlink:title="utils">
<polygon fill="none" stroke="red" points="104,-124 50,-124 50,-88 104,-88 104,-124"/>
<text text-anchor="middle" x="77" y="-103.5" font-family="Helvetica,sans-Serif" font-size="10.00">utils</text>
</a>
</g>
</g>
<!-- dir_aebb8dcc11953d78e620bbef0b9e2183 -->
<g id="node2" class="node">
<title>dir_aebb8dcc11953d78e620bbef0b9e2183</title>
<g id="a_node2"><a xlink:href="dir_aebb8dcc11953d78e620bbef0b9e2183.html" target="_top" xlink:title="core">
<polygon fill="none" stroke="red" points="104,-52 50,-52 50,-16 104,-16 104,-52"/>
<text text-anchor="middle" x="77" y="-31.5" font-family="Helvetica,sans-Serif" font-size="10.00">core</text>
</a>
</g>
</g>
<!-- dir_313caf1132e152dd9b58bea13a4052ca&#45;&gt;dir_aebb8dcc11953d78e620bbef0b9e2183 -->
<g id="edge7" class="edge">
<title>dir_313caf1132e152dd9b58bea13a4052ca&#45;&gt;dir_aebb8dcc11953d78e620bbef0b9e2183</title>
<path fill="none" stroke="black" d="M71.08,-87.7C70.29,-79.98 70.06,-70.71 70.4,-62.11"/>
<polygon fill="black" stroke="black" points="73.9,-62.32 71.1,-52.1 66.92,-61.84 73.9,-62.32"/>
<g id="a_edge7&#45;headlabel"><a xlink:href="dir_000009_000001.html" target="_top" xlink:title="1">
<text text-anchor="middle" x="76.48" y="-63.61" font-family="Helvetica,sans-Serif" font-size="10.00">1</text>
</a>
</g>
</g>
<!-- dir_aebb8dcc11953d78e620bbef0b9e2183&#45;&gt;dir_313caf1132e152dd9b58bea13a4052ca -->
<g id="edge6" class="edge">
<title>dir_aebb8dcc11953d78e620bbef0b9e2183&#45;&gt;dir_313caf1132e152dd9b58bea13a4052ca</title>
<path fill="none" stroke="black" d="M82.9,-52.1C83.7,-59.79 83.94,-69.05 83.6,-77.67"/>
<polygon fill="black" stroke="black" points="80.11,-77.48 82.92,-87.7 87.09,-77.96 80.11,-77.48"/>
<g id="a_edge6&#45;headlabel"><a xlink:href="dir_000001_000009.html" target="_top" xlink:title="1">
<text text-anchor="middle" x="77.52" y="-71.2" font-family="Helvetica,sans-Serif" font-size="10.00">1</text>
</a>
</g>
</g>
<!-- dir_99d0482cf009f9d97a0877749b817f19 -->
<g id="node3" class="node">
<title>dir_99d0482cf009f9d97a0877749b817f19</title>
<text text-anchor="middle" x="57" y="-247.5" font-family="Helvetica,sans-Serif" font-size="10.00">gui</text>
</g>
<!-- dir_99d0482cf009f9d97a0877749b817f19&#45;&gt;dir_313caf1132e152dd9b58bea13a4052ca -->
<g id="edge2" class="edge">
<title>dir_99d0482cf009f9d97a0877749b817f19&#45;&gt;dir_313caf1132e152dd9b58bea13a4052ca</title>
<path fill="none" stroke="black" d="M72.61,-231.77C80.37,-222.03 88.95,-209.18 93,-196 99.32,-175.46 94.3,-151.44 88.27,-133.53"/>
<polygon fill="black" stroke="black" points="91.51,-132.2 84.78,-124.02 84.94,-134.61 91.51,-132.2"/>
<g id="a_edge2&#45;headlabel"><a xlink:href="dir_000006_000009.html" target="_top" xlink:title="5">
<text text-anchor="middle" x="95.41" y="-132.1" font-family="Helvetica,sans-Serif" font-size="10.00">5</text>
</a>
</g>
</g>
<!-- dir_99d0482cf009f9d97a0877749b817f19&#45;&gt;dir_aebb8dcc11953d78e620bbef0b9e2183 -->
<g id="edge3" class="edge">
<title>dir_99d0482cf009f9d97a0877749b817f19&#45;&gt;dir_aebb8dcc11953d78e620bbef0b9e2183</title>
<path fill="none" stroke="black" d="M74.13,-231.81C82.87,-222.07 92.92,-209.23 99,-196 112.62,-166.38 109.87,-156.45 113,-124 114.53,-108.07 117.7,-103.29 113,-88 109.99,-78.22 104.49,-68.62 98.68,-60.33"/>
<polygon fill="black" stroke="black" points="101.41,-58.13 92.61,-52.23 95.81,-62.33 101.41,-58.13"/>
<g id="a_edge3&#45;headlabel"><a xlink:href="dir_000006_000001.html" target="_top" xlink:title="13">
<text text-anchor="middle" x="105.83" y="-56.8" font-family="Helvetica,sans-Serif" font-size="10.00">13</text>
</a>
</g>
</g>
<!-- dir_2c5e0d2f5313fab5e08c06477185b08d -->
<g id="node4" class="node">
<title>dir_2c5e0d2f5313fab5e08c06477185b08d</title>
<g id="a_node4"><a xlink:href="dir_2c5e0d2f5313fab5e08c06477185b08d.html" target="_top" xlink:title="windows">
<polygon fill="white" stroke="red" points="83.5,-196 24.5,-196 24.5,-160 83.5,-160 83.5,-196"/>
<text text-anchor="middle" x="54" y="-175.5" font-family="Helvetica,sans-Serif" font-size="10.00">windows</text>
</a>
</g>
</g>
<!-- dir_99d0482cf009f9d97a0877749b817f19&#45;&gt;dir_2c5e0d2f5313fab5e08c06477185b08d -->
<g id="edge1" class="edge">
<title>dir_99d0482cf009f9d97a0877749b817f19&#45;&gt;dir_2c5e0d2f5313fab5e08c06477185b08d</title>
<path fill="none" stroke="black" d="M56.26,-231.7C55.93,-223.98 55.53,-214.71 55.16,-206.11"/>
<polygon fill="black" stroke="black" points="58.66,-205.95 54.73,-196.1 51.66,-206.25 58.66,-205.95"/>
<g id="a_edge1&#45;headlabel"><a xlink:href="dir_000006_000007.html" target="_top" xlink:title="11">
<text text-anchor="middle" x="61.65" y="-206.92" font-family="Helvetica,sans-Serif" font-size="10.00">11</text>
</a>
</g>
</g>
<!-- dir_2c5e0d2f5313fab5e08c06477185b08d&#45;&gt;dir_313caf1132e152dd9b58bea13a4052ca -->
<g id="edge4" class="edge">
<title>dir_2c5e0d2f5313fab5e08c06477185b08d&#45;&gt;dir_313caf1132e152dd9b58bea13a4052ca</title>
<path fill="none" stroke="black" d="M59.69,-159.7C62.25,-151.9 65.33,-142.51 68.18,-133.83"/>
<polygon fill="black" stroke="black" points="71.58,-134.7 71.38,-124.1 64.93,-132.51 71.58,-134.7"/>
<g id="a_edge4&#45;headlabel"><a xlink:href="dir_000007_000009.html" target="_top" xlink:title="4">
<text text-anchor="middle" x="73.16" y="-136.5" font-family="Helvetica,sans-Serif" font-size="10.00">4</text>
</a>
</g>
</g>
<!-- dir_2c5e0d2f5313fab5e08c06477185b08d&#45;&gt;dir_aebb8dcc11953d78e620bbef0b9e2183 -->
<g id="edge5" class="edge">
<title>dir_2c5e0d2f5313fab5e08c06477185b08d&#45;&gt;dir_aebb8dcc11953d78e620bbef0b9e2183</title>
<path fill="none" stroke="black" d="M47.14,-159.93C40.83,-141.76 33.52,-112.33 41,-88 44.01,-78.22 49.51,-68.62 55.32,-60.33"/>
<polygon fill="black" stroke="black" points="58.19,-62.33 61.39,-52.23 52.59,-58.13 58.19,-62.33"/>
<g id="a_edge5&#45;headlabel"><a xlink:href="dir_000007_000001.html" target="_top" xlink:title="12">
<text text-anchor="middle" x="58.31" y="-64.41" font-family="Helvetica,sans-Serif" font-size="10.00">12</text>
</a>
</g>
</g>
</g>
</svg>
