<?xml version="1.0" encoding="UTF-8" standalone="no"?>
<!DOCTYPE svg PUBLIC "-//W3C//DTD SVG 1.1//EN"
 "http://www.w3.org/Graphics/SVG/1.1/DTD/svg11.dtd">
<!-- Generated by graphviz version 2.43.0 (0)
 -->
<!-- Title: src/gui/windows Pages: 1 -->
<svg width="205pt" height="231pt"
 viewBox="0.00 0.00 205.00 231.00" xmlns="http://www.w3.org/2000/svg" xmlns:xlink="http://www.w3.org/1999/xlink">
<g id="graph0" class="graph" transform="scale(1 1) rotate(0) translate(4 227)">
<title>src/gui/windows</title>
<g id="clust1" class="cluster">
<title>clusterdir_99d0482cf009f9d97a0877749b817f19</title>
<g id="a_clust1"><a xlink:href="dir_99d0482cf009f9d97a0877749b817f19.html" target="_top" xlink:title="gui">
<polygon fill="#ddddee" stroke="black" points="8,-128 8,-215 189,-215 189,-128 8,-128"/>
<text text-anchor="middle" x="98.5" y="-203" font-family="Helvetica,sans-Serif" font-size="10.00">gui</text>
</a>
</g>
</g>
<g id="clust2" class="cluster">
<title>clusterdir_2c5e0d2f5313fab5e08c06477185b08d</title>
<g id="a_clust2"><a xlink:href="dir_2c5e0d2f5313fab5e08c06477185b08d.html" target="_top">
<polygon fill="#eeeeff" stroke="black" points="16,-136 16,-188 181,-188 181,-136 16,-136"/>
</a>
</g>
</g>
<!-- dir_2c5e0d2f5313fab5e08c06477185b08d -->
<g id="node1" class="node">
<title>dir_2c5e0d2f5313fab5e08c06477185b08d</title>
<text text-anchor="middle" x="54" y="-159.5" font-family="Helvetica,sans-Serif" font-size="10.00">windows</text>
</g>
<!-- dir_313caf1132e152dd9b58bea13a4052ca -->
<g id="node3" class="node">
<title>dir_313caf1132e152dd9b58bea13a4052ca</title>
<g id="a_node3"><a xlink:href="dir_313caf1132e152dd9b58bea13a4052ca.html" target="_top" xlink:title="utils">
<polygon fill="none" stroke="red" points="95,-108 41,-108 41,-72 95,-72 95,-108"/>
<text text-anchor="middle" x="68" y="-87.5" font-family="Helvetica,sans-Serif" font-size="10.00">utils</text>
</a>
</g>
</g>
<!-- dir_2c5e0d2f5313fab5e08c06477185b08d&#45;&gt;dir_313caf1132e152dd9b58bea13a4052ca -->
<g id="edge2" class="edge">
<title>dir_2c5e0d2f5313fab5e08c06477185b08d&#45;&gt;dir_313caf1132e152dd9b58bea13a4052ca</title>
<path fill="none" stroke="black" d="M57.46,-143.7C59,-135.98 60.86,-126.71 62.58,-118.11"/>
<polygon fill="black" stroke="black" points="66.05,-118.6 64.58,-108.1 59.19,-117.22 66.05,-118.6"/>
<g id="a_edge2&#45;headlabel"><a xlink:href="dir_000007_000009.html" target="_top" xlink:title="4">
<text text-anchor="middle" x="68.13" y="-120.18" font-family="Helvetica,sans-Serif" font-size="10.00">4</text>
</a>
</g>
</g>
<!-- dir_8af9cd55c71db5a3a7f716a8c0fe58a4 -->
<g id="node2" class="node">
<title>dir_8af9cd55c71db5a3a7f716a8c0fe58a4</title>
<g id="a_node2"><a xlink:href="dir_8af9cd55c71db5a3a7f716a8c0fe58a4.html" target="_top" xlink:title="peripherals">
<polygon fill="white" stroke="black" points="172.5,-180 101.5,-180 101.5,-144 172.5,-144 172.5,-180"/>
<text text-anchor="middle" x="137" y="-159.5" font-family="Helvetica,sans-Serif" font-size="10.00">peripherals</text>
</a>
</g>
</g>
<!-- dir_aebb8dcc11953d78e620bbef0b9e2183 -->
<g id="node4" class="node">
<title>dir_aebb8dcc11953d78e620bbef0b9e2183</title>
<g id="a_node4"><a xlink:href="dir_aebb8dcc11953d78e620bbef0b9e2183.html" target="_top" xlink:title="core">
<polygon fill="none" stroke="red" points="95,-36 41,-36 41,0 95,0 95,-36"/>
<text text-anchor="middle" x="68" y="-15.5" font-family="Helvetica,sans-Serif" font-size="10.00">core</text>
</a>
</g>
</g>
<!-- dir_8af9cd55c71db5a3a7f716a8c0fe58a4&#45;&gt;dir_aebb8dcc11953d78e620bbef0b9e2183 -->
<g id="edge1" class="edge">
<title>dir_8af9cd55c71db5a3a7f716a8c0fe58a4&#45;&gt;dir_aebb8dcc11953d78e620bbef0b9e2183</title>
<path fill="none" stroke="black" d="M131.97,-143.75C126.32,-125.43 116.31,-95.88 104,-72 99.16,-62.61 92.95,-52.89 87.06,-44.38"/>
<polygon fill="black" stroke="black" points="89.76,-42.13 81.11,-36.01 84.05,-46.18 89.76,-42.13"/>
<g id="a_edge1&#45;headlabel"><a xlink:href="dir_000008_000001.html" target="_top" xlink:title="5">
<text text-anchor="middle" x="94.16" y="-40.91" font-family="Helvetica,sans-Serif" font-size="10.00">5</text>
</a>
</g>
</g>
<!-- dir_313caf1132e152dd9b58bea13a4052ca&#45;&gt;dir_aebb8dcc11953d78e620bbef0b9e2183 -->
<g id="edge4" class="edge">
<title>dir_313caf1132e152dd9b58bea13a4052ca&#45;&gt;dir_aebb8dcc11953d78e620bbef0b9e2183</title>
<path fill="none" stroke="black" d="M62.08,-71.7C61.29,-63.98 61.06,-54.71 61.4,-46.11"/>
<polygon fill="black" stroke="black" points="64.9,-46.32 62.1,-36.1 57.92,-45.84 64.9,-46.32"/>
<g id="a_edge4&#45;headlabel"><a xlink:href="dir_000009_000001.html" target="_top" xlink:title="1">
<text text-anchor="middle" x="67.48" y="-47.61" font-family="Helvetica,sans-Serif" font-size="10.00">1</text>
</a>
</g>
</g>
<!-- dir_aebb8dcc11953d78e620bbef0b9e2183&#45;&gt;dir_313caf1132e152dd9b58bea13a4052ca -->
<g id="edge3" class="edge">
<title>dir_aebb8dcc11953d78e620bbef0b9e2183&#45;&gt;dir_313caf1132e152dd9b58bea13a4052ca</title>
<path fill="none" stroke="black" d="M73.9,-36.1C74.7,-43.79 74.94,-53.05 74.6,-61.67"/>
<polygon fill="black" stroke="black" points="71.11,-61.48 73.92,-71.7 78.09,-61.96 71.11,-61.48"/>
<g id="a_edge3&#45;headlabel"><a xlink:href="dir_000001_000009.html" target="_top" xlink:title="1">
<text text-anchor="middle" x="68.52" y="-55.2" font-family="Helvetica,sans-Serif" font-size="10.00">1</text>
</a>
</g>
</g>
</g>
</svg>
