<?xml version="1.0" encoding="UTF-8" standalone="no"?>
<!DOCTYPE svg PUBLIC "-//W3C//DTD SVG 1.1//EN"
 "http://www.w3.org/Graphics/SVG/1.1/DTD/svg11.dtd">
<!-- Generated by graphviz version 2.43.0 (0)
 -->
<!-- Title: src/core Pages: 1 -->
<svg width="168pt" height="399pt"
 viewBox="0.00 0.00 168.00 399.00" xmlns="http://www.w3.org/2000/svg" xmlns:xlink="http://www.w3.org/1999/xlink">
<g id="graph0" class="graph" transform="scale(1 1) rotate(0) translate(4 395)">
<title>src/core</title>
<g id="clust1" class="cluster">
<title>clusterdir_68267d1309a1af8e8297ef4c3efbcdba</title>
<g id="a_clust1"><a xlink:href="dir_68267d1309a1af8e8297ef4c3efbcdba.html" target="_top" xlink:title="src">
<polygon fill="#ddddee" stroke="black" points="8,-8 8,-383 152,-383 152,-8 8,-8"/>
<text text-anchor="middle" x="80" y="-371" font-family="Helvetica,sans-Serif" font-size="10.00">src</text>
</a>
</g>
</g>
<g id="clust2" class="cluster">
<title>clusterdir_aebb8dcc11953d78e620bbef0b9e2183</title>
<g id="a_clust2"><a xlink:href="dir_aebb8dcc11953d78e620bbef0b9e2183.html" target="_top">
<polygon fill="#eeeeff" stroke="black" points="16,-16 16,-356 144,-356 144,-16 16,-16"/>
</a>
</g>
</g>
<!-- dir_aebb8dcc11953d78e620bbef0b9e2183 -->
<g id="node1" class="node">
<title>dir_aebb8dcc11953d78e620bbef0b9e2183</title>
<text text-anchor="middle" x="83" y="-327.5" font-family="Helvetica,sans-Serif" font-size="10.00">core</text>
</g>
<!-- dir_523ec841fd74605300afe43d91402cb4 -->
<g id="node3" class="node">
<title>dir_523ec841fd74605300afe43d91402cb4</title>
<g id="a_node3"><a xlink:href="dir_523ec841fd74605300afe43d91402cb4.html" target="_top" xlink:title="coprocessors">
<polygon fill="white" stroke="black" points="123,-276 43,-276 43,-240 123,-240 123,-276"/>
<text text-anchor="middle" x="83" y="-255.5" font-family="Helvetica,sans-Serif" font-size="10.00">coprocessors</text>
</a>
</g>
</g>
<!-- dir_aebb8dcc11953d78e620bbef0b9e2183&#45;&gt;dir_523ec841fd74605300afe43d91402cb4 -->
<g id="edge5" class="edge">
<title>dir_aebb8dcc11953d78e620bbef0b9e2183&#45;&gt;dir_523ec841fd74605300afe43d91402cb4</title>
<path fill="none" stroke="black" d="M83,-311.7C83,-303.98 83,-294.71 83,-286.11"/>
<polygon fill="black" stroke="black" points="86.5,-286.1 83,-276.1 79.5,-286.1 86.5,-286.1"/>
<g id="a_edge5&#45;headlabel"><a xlink:href="dir_000001_000004.html" target="_top" xlink:title="1">
<text text-anchor="middle" x="89.34" y="-287.2" font-family="Helvetica,sans-Serif" font-size="10.00">1</text>
</a>
</g>
</g>
<!-- dir_5c2a493d5805d567e6a0ff4c1ba80ec6 -->
<g id="node2" class="node">
<title>dir_5c2a493d5805d567e6a0ff4c1ba80ec6</title>
<g id="a_node2"><a xlink:href="dir_5c2a493d5805d567e6a0ff4c1ba80ec6.html" target="_top" xlink:title="arm1176jzf_s">
<polygon fill="white" stroke="red" points="111.5,-204 28.5,-204 28.5,-168 111.5,-168 111.5,-204"/>
<text text-anchor="middle" x="70" y="-183.5" font-family="Helvetica,sans-Serif" font-size="10.00">arm1176jzf_s</text>
</a>
</g>
</g>
<!-- dir_34794bca92a793a1e58b77dac439fbe4 -->
<g id="node4" class="node">
<title>dir_34794bca92a793a1e58b77dac439fbe4</title>
<g id="a_node4"><a xlink:href="dir_34794bca92a793a1e58b77dac439fbe4.html" target="_top" xlink:title="peripherals">
<polygon fill="white" stroke="red" points="95.5,-132 24.5,-132 24.5,-96 95.5,-96 95.5,-132"/>
<text text-anchor="middle" x="60" y="-111.5" font-family="Helvetica,sans-Serif" font-size="10.00">peripherals</text>
</a>
</g>
</g>
<!-- dir_5c2a493d5805d567e6a0ff4c1ba80ec6&#45;&gt;dir_34794bca92a793a1e58b77dac439fbe4 -->
<g id="edge1" class="edge">
<title>dir_5c2a493d5805d567e6a0ff4c1ba80ec6&#45;&gt;dir_34794bca92a793a1e58b77dac439fbe4</title>
<path fill="none" stroke="black" d="M61.61,-167.7C59.71,-159.98 58.16,-150.71 57.28,-142.11"/>
<polygon fill="black" stroke="black" points="60.77,-141.82 56.55,-132.1 53.78,-142.33 60.77,-141.82"/>
<g id="a_edge1&#45;headlabel"><a xlink:href="dir_000002_000005.html" target="_top" xlink:title="2">
<text text-anchor="middle" x="63.86" y="-142.7" font-family="Helvetica,sans-Serif" font-size="10.00">2</text>
</a>
</g>
</g>
<!-- dir_a8053b3d69cfefb2b2e6ec7bf9dd5c1a -->
<g id="node5" class="node">
<title>dir_a8053b3d69cfefb2b2e6ec7bf9dd5c1a</title>
<g id="a_node5"><a xlink:href="dir_a8053b3d69cfefb2b2e6ec7bf9dd5c1a.html" target="_top" xlink:title="utils">
<polygon fill="white" stroke="red" points="136,-60 82,-60 82,-24 136,-24 136,-60"/>
<text text-anchor="middle" x="109" y="-39.5" font-family="Helvetica,sans-Serif" font-size="10.00">utils</text>
</a>
</g>
</g>
<!-- dir_5c2a493d5805d567e6a0ff4c1ba80ec6&#45;&gt;dir_a8053b3d69cfefb2b2e6ec7bf9dd5c1a -->
<g id="edge2" class="edge">
<title>dir_5c2a493d5805d567e6a0ff4c1ba80ec6&#45;&gt;dir_a8053b3d69cfefb2b2e6ec7bf9dd5c1a</title>
<path fill="none" stroke="black" d="M84.95,-167.63C92.43,-157.84 100.77,-145 105,-132 111.48,-112.05 112.22,-88.26 111.48,-70.3"/>
<polygon fill="black" stroke="black" points="114.97,-69.99 110.89,-60.21 107.98,-70.4 114.97,-69.99"/>
<g id="a_edge2&#45;headlabel"><a xlink:href="dir_000002_000007.html" target="_top" xlink:title="9">
<text text-anchor="middle" x="118.01" y="-70.91" font-family="Helvetica,sans-Serif" font-size="10.00">9</text>
</a>
</g>
</g>
<!-- dir_523ec841fd74605300afe43d91402cb4&#45;&gt;dir_5c2a493d5805d567e6a0ff4c1ba80ec6 -->
<g id="edge3" class="edge">
<title>dir_523ec841fd74605300afe43d91402cb4&#45;&gt;dir_5c2a493d5805d567e6a0ff4c1ba80ec6</title>
<path fill="none" stroke="black" d="M79.79,-239.7C78.35,-231.98 76.63,-222.71 75.04,-214.11"/>
<polygon fill="black" stroke="black" points="78.44,-213.3 73.18,-204.1 71.56,-214.58 78.44,-213.3"/>
<g id="a_edge3&#45;headlabel"><a xlink:href="dir_000004_000002.html" target="_top" xlink:title="4">
<text text-anchor="middle" x="81.89" y="-213.81" font-family="Helvetica,sans-Serif" font-size="10.00">4</text>
</a>
</g>
</g>
<!-- dir_523ec841fd74605300afe43d91402cb4&#45;&gt;dir_a8053b3d69cfefb2b2e6ec7bf9dd5c1a -->
<g id="edge4" class="edge">
<title>dir_523ec841fd74605300afe43d91402cb4&#45;&gt;dir_a8053b3d69cfefb2b2e6ec7bf9dd5c1a</title>
<path fill="none" stroke="black" d="M99.46,-239.92C107.65,-230.22 116.7,-217.37 121,-204 135.55,-158.73 125.55,-102.76 117.14,-70.15"/>
<polygon fill="black" stroke="black" points="120.5,-69.16 114.5,-60.43 113.75,-70.99 120.5,-69.16"/>
<g id="a_edge4&#45;headlabel"><a xlink:href="dir_000004_000007.html" target="_top" xlink:title="2">
<text text-anchor="middle" x="124.18" y="-69.38" font-family="Helvetica,sans-Serif" font-size="10.00">2</text>
</a>
</g>
</g>
<!-- dir_34794bca92a793a1e58b77dac439fbe4&#45;&gt;dir_5c2a493d5805d567e6a0ff4c1ba80ec6 -->
<g id="edge6" class="edge">
<title>dir_34794bca92a793a1e58b77dac439fbe4&#45;&gt;dir_5c2a493d5805d567e6a0ff4c1ba80ec6</title>
<path fill="none" stroke="black" d="M68.34,-132.1C70.24,-139.79 71.8,-149.05 72.7,-157.67"/>
<polygon fill="black" stroke="black" points="69.21,-157.98 73.44,-167.7 76.19,-157.46 69.21,-157.98"/>
<g id="a_edge6&#45;headlabel"><a xlink:href="dir_000005_000002.html" target="_top" xlink:title="1">
<text text-anchor="middle" x="66.12" y="-152.11" font-family="Helvetica,sans-Serif" font-size="10.00">1</text>
</a>
</g>
</g>
<!-- dir_34794bca92a793a1e58b77dac439fbe4&#45;&gt;dir_a8053b3d69cfefb2b2e6ec7bf9dd5c1a -->
<g id="edge7" class="edge">
<title>dir_34794bca92a793a1e58b77dac439fbe4&#45;&gt;dir_a8053b3d69cfefb2b2e6ec7bf9dd5c1a</title>
<path fill="none" stroke="black" d="M72.11,-95.7C77.87,-87.47 84.86,-77.48 91.21,-68.42"/>
<polygon fill="black" stroke="black" points="94.16,-70.3 97.03,-60.1 88.42,-66.29 94.16,-70.3"/>
<g id="a_edge7&#45;headlabel"><a xlink:href="dir_000005_000007.html" target="_top" xlink:title="10">
<text text-anchor="middle" x="94.42" y="-72.38" font-family="Helvetica,sans-Serif" font-size="10.00">10</text>
</a>
</g>
</g>
</g>
</svg>
