<?xml version="1.0" encoding="UTF-8" standalone="no"?>
<!DOCTYPE svg PUBLIC "-//W3C//DTD SVG 1.1//EN"
 "http://www.w3.org/Graphics/SVG/1.1/DTD/svg11.dtd">
<!-- Generated by graphviz version 2.43.0 (0)
 -->
<!-- Title: src/core/peripherals Pages: 1 -->
<svg width="205pt" height="223pt"
 viewBox="0.00 0.00 205.00 223.00" xmlns="http://www.w3.org/2000/svg" xmlns:xlink="http://www.w3.org/1999/xlink">
<g id="graph0" class="graph" transform="scale(1 1) rotate(0) translate(4 219)">
<title>src/core/peripherals</title>
<g id="clust1" class="cluster">
<title>clusterdir_aebb8dcc11953d78e620bbef0b9e2183</title>
<g id="a_clust1"><a xlink:href="dir_aebb8dcc11953d78e620bbef0b9e2183.html" target="_top" xlink:title="core">
<polygon fill="#ddddee" stroke="black" points="8,-56 8,-207 189,-207 189,-56 8,-56"/>
<text text-anchor="middle" x="98.5" y="-195" font-family="Helvetica,sans-Serif" font-size="10.00">core</text>
</a>
</g>
</g>
<g id="clust2" class="cluster">
<title>clusterdir_34794bca92a793a1e58b77dac439fbe4</title>
<g id="a_clust2"><a xlink:href="dir_34794bca92a793a1e58b77dac439fbe4.html" target="_top">
<polygon fill="#eeeeff" stroke="black" points="16,-64 16,-116 181,-116 181,-64 16,-64"/>
</a>
</g>
</g>
<!-- dir_5c2a493d5805d567e6a0ff4c1ba80ec6 -->
<g id="node1" class="node">
<title>dir_5c2a493d5805d567e6a0ff4c1ba80ec6</title>
<g id="a_node1"><a xlink:href="dir_5c2a493d5805d567e6a0ff4c1ba80ec6.html" target="_top" xlink:title="arm1176jzf_s">
<polygon fill="none" stroke="red" points="179.5,-180 96.5,-180 96.5,-144 179.5,-144 179.5,-180"/>
<text text-anchor="middle" x="138" y="-159.5" font-family="Helvetica,sans-Serif" font-size="10.00">arm1176jzf_s</text>
</a>
</g>
</g>
<!-- dir_34794bca92a793a1e58b77dac439fbe4 -->
<g id="node2" class="node">
<title>dir_34794bca92a793a1e58b77dac439fbe4</title>
<text text-anchor="middle" x="137" y="-87.5" font-family="Helvetica,sans-Serif" font-size="10.00">peripherals</text>
</g>
<!-- dir_5c2a493d5805d567e6a0ff4c1ba80ec6&#45;&gt;dir_34794bca92a793a1e58b77dac439fbe4 -->
<g id="edge1" class="edge">
<title>dir_5c2a493d5805d567e6a0ff4c1ba80ec6&#45;&gt;dir_34794bca92a793a1e58b77dac439fbe4</title>
<path fill="none" stroke="black" d="M143.67,-143.7C144.35,-135.98 144.45,-126.71 143.98,-118.11"/>
<polygon fill="black" stroke="black" points="147.47,-117.78 143.14,-108.1 140.49,-118.36 147.47,-117.78"/>
<g id="a_edge1&#45;headlabel"><a xlink:href="dir_000008_000015.html" target="_top" xlink:title="2">
<text text-anchor="middle" x="150.6" y="-118.62" font-family="Helvetica,sans-Serif" font-size="10.00">2</text>
</a>
</g>
</g>
<!-- dir_d44c64559bbebec7f509842c48db8b23 -->
<g id="node4" class="node">
<title>dir_d44c64559bbebec7f509842c48db8b23</title>
<g id="a_node4"><a xlink:href="dir_d44c64559bbebec7f509842c48db8b23.html" target="_top" xlink:title="include">
<polygon fill="none" stroke="red" points="154,-36 100,-36 100,0 154,0 154,-36"/>
<text text-anchor="middle" x="127" y="-15.5" font-family="Helvetica,sans-Serif" font-size="10.00">include</text>
</a>
</g>
</g>
<!-- dir_5c2a493d5805d567e6a0ff4c1ba80ec6&#45;&gt;dir_d44c64559bbebec7f509842c48db8b23 -->
<g id="edge2" class="edge">
<title>dir_5c2a493d5805d567e6a0ff4c1ba80ec6&#45;&gt;dir_d44c64559bbebec7f509842c48db8b23</title>
<path fill="none" stroke="black" d="M163.15,-143.67C171.76,-136.26 180.39,-126.8 185,-116 195.47,-91.48 197.82,-79.38 185,-56 180,-46.89 171.71,-39.7 162.93,-34.17"/>
<polygon fill="black" stroke="black" points="164.52,-31.05 154.09,-29.19 161.08,-37.15 164.52,-31.05"/>
<g id="a_edge2&#45;headlabel"><a xlink:href="dir_000008_000000.html" target="_top" xlink:title="9">
<text text-anchor="middle" x="169.05" y="-27.84" font-family="Helvetica,sans-Serif" font-size="10.00">9</text>
</a>
</g>
</g>
<!-- dir_34794bca92a793a1e58b77dac439fbe4&#45;&gt;dir_5c2a493d5805d567e6a0ff4c1ba80ec6 -->
<g id="edge4" class="edge">
<title>dir_34794bca92a793a1e58b77dac439fbe4&#45;&gt;dir_5c2a493d5805d567e6a0ff4c1ba80ec6</title>
<path fill="none" stroke="black" d="M131.35,-108.1C130.65,-115.79 130.55,-125.05 131.01,-133.67"/>
<polygon fill="black" stroke="black" points="127.52,-134.02 131.84,-143.7 134.5,-133.44 127.52,-134.02"/>
<g id="a_edge4&#45;headlabel"><a xlink:href="dir_000015_000008.html" target="_top" xlink:title="1">
<text text-anchor="middle" x="124.4" y="-128.17" font-family="Helvetica,sans-Serif" font-size="10.00">1</text>
</a>
</g>
</g>
<!-- dir_d76b111fde503afb4d629e488ee1218e -->
<g id="node3" class="node">
<title>dir_d76b111fde503afb4d629e488ee1218e</title>
<g id="a_node3"><a xlink:href="dir_d76b111fde503afb4d629e488ee1218e.html" target="_top" xlink:title="auxiliary">
<polygon fill="white" stroke="black" points="83.5,-108 24.5,-108 24.5,-72 83.5,-72 83.5,-108"/>
<text text-anchor="middle" x="54" y="-87.5" font-family="Helvetica,sans-Serif" font-size="10.00">auxiliary</text>
</a>
</g>
</g>
<!-- dir_d76b111fde503afb4d629e488ee1218e&#45;&gt;dir_d44c64559bbebec7f509842c48db8b23 -->
<g id="edge3" class="edge">
<title>dir_d76b111fde503afb4d629e488ee1218e&#45;&gt;dir_d44c64559bbebec7f509842c48db8b23</title>
<path fill="none" stroke="black" d="M72.04,-71.7C81.06,-63.05 92.12,-52.45 101.94,-43.03"/>
<polygon fill="black" stroke="black" points="104.37,-45.55 109.16,-36.1 99.52,-40.5 104.37,-45.55"/>
<g id="a_edge3&#45;headlabel"><a xlink:href="dir_000016_000000.html" target="_top" xlink:title="2">
<text text-anchor="middle" x="103.74" y="-47.59" font-family="Helvetica,sans-Serif" font-size="10.00">2</text>
</a>
</g>
</g>
</g>
</svg>
