<?xml version="1.0" encoding="UTF-8" standalone="no"?>
<!DOCTYPE svg PUBLIC "-//W3C//DTD SVG 1.1//EN"
 "http://www.w3.org/Graphics/SVG/1.1/DTD/svg11.dtd">
<!-- Generated by graphviz version 2.43.0 (0)
 -->
<!-- Title: src/core/peripherals Pages: 1 -->
<svg width="125pt" height="223pt"
 viewBox="0.00 0.00 125.00 223.00" xmlns="http://www.w3.org/2000/svg" xmlns:xlink="http://www.w3.org/1999/xlink">
<g id="graph0" class="graph" transform="scale(1 1) rotate(0) translate(4 219)">
<title>src/core/peripherals</title>
<g id="clust1" class="cluster">
<title>clusterdir_aebb8dcc11953d78e620bbef0b9e2183</title>
<g id="a_clust1"><a xlink:href="dir_aebb8dcc11953d78e620bbef0b9e2183.html" target="_top" xlink:title="core">
<polygon fill="#ddddee" stroke="black" points="8,-64 8,-207 108,-207 108,-64 8,-64"/>
<text text-anchor="middle" x="58" y="-195" font-family="Helvetica,sans-Serif" font-size="10.00">core</text>
</a>
</g>
</g>
<!-- dir_5c2a493d5805d567e6a0ff4c1ba80ec6 -->
<g id="node1" class="node">
<title>dir_5c2a493d5805d567e6a0ff4c1ba80ec6</title>
<g id="a_node1"><a xlink:href="dir_5c2a493d5805d567e6a0ff4c1ba80ec6.html" target="_top" xlink:title="arm1176jzf_s">
<polygon fill="none" stroke="red" points="99.5,-180 16.5,-180 16.5,-144 99.5,-144 99.5,-180"/>
<text text-anchor="middle" x="58" y="-159.5" font-family="Helvetica,sans-Serif" font-size="10.00">arm1176jzf_s</text>
</a>
</g>
</g>
<!-- dir_34794bca92a793a1e58b77dac439fbe4 -->
<g id="node2" class="node">
<title>dir_34794bca92a793a1e58b77dac439fbe4</title>
<g id="a_node2"><a xlink:href="dir_34794bca92a793a1e58b77dac439fbe4.html" target="_top" xlink:title="peripherals">
<polygon fill="#eeeeff" stroke="black" points="93.5,-108 22.5,-108 22.5,-72 93.5,-72 93.5,-108"/>
<text text-anchor="middle" x="58" y="-87.5" font-family="Helvetica,sans-Serif" font-size="10.00">peripherals</text>
</a>
</g>
</g>
<!-- dir_5c2a493d5805d567e6a0ff4c1ba80ec6&#45;&gt;dir_34794bca92a793a1e58b77dac439fbe4 -->
<g id="edge1" class="edge">
<title>dir_5c2a493d5805d567e6a0ff4c1ba80ec6&#45;&gt;dir_34794bca92a793a1e58b77dac439fbe4</title>
<path fill="none" stroke="black" d="M52.08,-143.7C51.29,-135.98 51.06,-126.71 51.4,-118.11"/>
<polygon fill="black" stroke="black" points="54.9,-118.32 52.1,-108.1 47.92,-117.84 54.9,-118.32"/>
<g id="a_edge1&#45;headlabel"><a xlink:href="dir_000008_000013.html" target="_top" xlink:title="2">
<text text-anchor="middle" x="57.48" y="-119.61" font-family="Helvetica,sans-Serif" font-size="10.00">2</text>
</a>
</g>
</g>
<!-- dir_d44c64559bbebec7f509842c48db8b23 -->
<g id="node3" class="node">
<title>dir_d44c64559bbebec7f509842c48db8b23</title>
<g id="a_node3"><a xlink:href="dir_d44c64559bbebec7f509842c48db8b23.html" target="_top" xlink:title="include">
<polygon fill="none" stroke="red" points="117,-36 63,-36 63,0 117,0 117,-36"/>
<text text-anchor="middle" x="90" y="-15.5" font-family="Helvetica,sans-Serif" font-size="10.00">include</text>
</a>
</g>
</g>
<!-- dir_5c2a493d5805d567e6a0ff4c1ba80ec6&#45;&gt;dir_d44c64559bbebec7f509842c48db8b23 -->
<g id="edge2" class="edge">
<title>dir_5c2a493d5805d567e6a0ff4c1ba80ec6&#45;&gt;dir_d44c64559bbebec7f509842c48db8b23</title>
<path fill="none" stroke="black" d="M78.38,-143.53C87.81,-134.09 98.01,-121.6 103,-108 110.37,-87.93 106.14,-63.88 100.61,-45.84"/>
<polygon fill="black" stroke="black" points="103.89,-44.6 97.37,-36.24 97.25,-46.84 103.89,-44.6"/>
<g id="a_edge2&#45;headlabel"><a xlink:href="dir_000008_000000.html" target="_top" xlink:title="8">
<text text-anchor="middle" x="107.72" y="-44.6" font-family="Helvetica,sans-Serif" font-size="10.00">8</text>
</a>
</g>
</g>
<!-- dir_34794bca92a793a1e58b77dac439fbe4&#45;&gt;dir_5c2a493d5805d567e6a0ff4c1ba80ec6 -->
<g id="edge3" class="edge">
<title>dir_34794bca92a793a1e58b77dac439fbe4&#45;&gt;dir_5c2a493d5805d567e6a0ff4c1ba80ec6</title>
<path fill="none" stroke="black" d="M63.9,-108.1C64.7,-115.79 64.94,-125.05 64.6,-133.67"/>
<polygon fill="black" stroke="black" points="61.11,-133.48 63.92,-143.7 68.09,-133.96 61.11,-133.48"/>
<g id="a_edge3&#45;headlabel"><a xlink:href="dir_000013_000008.html" target="_top" xlink:title="1">
<text text-anchor="middle" x="58.52" y="-127.2" font-family="Helvetica,sans-Serif" font-size="10.00">1</text>
</a>
</g>
</g>
<!-- dir_34794bca92a793a1e58b77dac439fbe4&#45;&gt;dir_d44c64559bbebec7f509842c48db8b23 -->
<g id="edge4" class="edge">
<title>dir_34794bca92a793a1e58b77dac439fbe4&#45;&gt;dir_d44c64559bbebec7f509842c48db8b23</title>
<path fill="none" stroke="black" d="M65.91,-71.7C69.55,-63.73 73.95,-54.1 77.99,-45.26"/>
<polygon fill="black" stroke="black" points="81.21,-46.65 82.18,-36.1 74.84,-43.74 81.21,-46.65"/>
<g id="a_edge4&#45;headlabel"><a xlink:href="dir_000013_000000.html" target="_top" xlink:title="9">
<text text-anchor="middle" x="82.29" y="-48.6" font-family="Helvetica,sans-Serif" font-size="10.00">9</text>
</a>
</g>
</g>
</g>
</svg>
