<?xml version="1.0" encoding="UTF-8" standalone="no"?>
<!DOCTYPE svg PUBLIC "-//W3C//DTD SVG 1.1//EN"
 "http://www.w3.org/Graphics/SVG/1.1/DTD/svg11.dtd">
<!-- Generated by graphviz version 2.43.0 (0)
 -->
<!-- Title: src/utils/elf_loader.hpp Pages: 1 -->
<svg width="1090pt" height="330pt"
 viewBox="0.00 0.00 1090.00 330.00" xmlns="http://www.w3.org/2000/svg" xmlns:xlink="http://www.w3.org/1999/xlink">
<g id="graph0" class="graph" transform="scale(1 1) rotate(0) translate(4 326)">
<title>src/utils/elf_loader.hpp</title>
<!-- Node1 -->
<g id="node1" class="node">
<title>Node1</title>
<g id="a_node1"><a xlink:title="This file defines the functionality of an ELF loader.">
<polygon fill="#bfbfbf" stroke="black" points="421,-302.5 421,-321.5 548,-321.5 548,-302.5 421,-302.5"/>
<text text-anchor="middle" x="484.5" y="-309.5" font-family="Helvetica,sans-Serif" font-size="10.00">src/utils/elf_loader.hpp</text>
</a>
</g>
</g>
<!-- Node2 -->
<g id="node2" class="node">
<title>Node2</title>
<g id="a_node2"><a xlink:href="bus_8hpp.html" target="_top" xlink:title="This file defines an interface the CPU uses to access different memory&#45;mapped peripherals.">
<polygon fill="none" stroke="black" points="440.5,-246.5 440.5,-265.5 528.5,-265.5 528.5,-246.5 440.5,-246.5"/>
<text text-anchor="middle" x="484.5" y="-253.5" font-family="Helvetica,sans-Serif" font-size="10.00">../core/bus.hpp</text>
</a>
</g>
</g>
<!-- Node1&#45;&gt;Node2 -->
<g id="edge1" class="edge">
<title>Node1&#45;&gt;Node2</title>
<path fill="none" stroke="midnightblue" d="M484.5,-302.08C484.5,-295.01 484.5,-284.86 484.5,-275.99"/>
<polygon fill="midnightblue" stroke="midnightblue" points="488,-275.75 484.5,-265.75 481,-275.75 488,-275.75"/>
</g>
<!-- Node3 -->
<g id="node3" class="node">
<title>Node3</title>
<g id="a_node3"><a xlink:href="cp15_8hpp.html" target="_top" xlink:title="This file defines coprocessor CP15.">
<polygon fill="none" stroke="black" points="187.5,-190.5 187.5,-209.5 341.5,-209.5 341.5,-190.5 187.5,-190.5"/>
<text text-anchor="middle" x="264.5" y="-197.5" font-family="Helvetica,sans-Serif" font-size="10.00">coprocessors/cp15/cp15.hpp</text>
</a>
</g>
</g>
<!-- Node2&#45;&gt;Node3 -->
<g id="edge2" class="edge">
<title>Node2&#45;&gt;Node3</title>
<path fill="none" stroke="midnightblue" d="M449.64,-246.44C411.58,-237.1 350.54,-222.12 309.04,-211.93"/>
<polygon fill="midnightblue" stroke="midnightblue" points="309.74,-208.5 299.2,-209.52 308.07,-215.3 309.74,-208.5"/>
</g>
<!-- Node17 -->
<g id="node17" class="node">
<title>Node17</title>
<g id="a_node17"><a xlink:href="peripheral_8hpp.html" target="_top" xlink:title="This file defines an interface for a memory&#45;mapped peripheral.">
<polygon fill="none" stroke="black" points="583,-190.5 583,-209.5 728,-209.5 728,-190.5 583,-190.5"/>
<text text-anchor="middle" x="655.5" y="-197.5" font-family="Helvetica,sans-Serif" font-size="10.00">peripherals/peripheral.hpp</text>
</a>
</g>
</g>
<!-- Node2&#45;&gt;Node17 -->
<g id="edge26" class="edge">
<title>Node2&#45;&gt;Node17</title>
<path fill="none" stroke="midnightblue" d="M511.6,-246.44C540.49,-237.32 586.42,-222.81 618.61,-212.65"/>
<polygon fill="midnightblue" stroke="midnightblue" points="620.05,-215.87 628.53,-209.52 617.94,-209.19 620.05,-215.87"/>
</g>
<!-- Node18 -->
<g id="node18" class="node">
<title>Node18</title>
<g id="a_node18"><a xlink:href="exceptions_8hpp.html" target="_top" xlink:title="This file defines all exceptions that can be thrown by the CPU during execution.">
<polygon fill="none" stroke="black" points="404.5,-190.5 404.5,-209.5 564.5,-209.5 564.5,-190.5 404.5,-190.5"/>
<text text-anchor="middle" x="484.5" y="-197.5" font-family="Helvetica,sans-Serif" font-size="10.00">arm1176jzf_s/exceptions.hpp</text>
</a>
</g>
</g>
<!-- Node2&#45;&gt;Node18 -->
<g id="edge27" class="edge">
<title>Node2&#45;&gt;Node18</title>
<path fill="none" stroke="midnightblue" d="M484.5,-246.08C484.5,-239.01 484.5,-228.86 484.5,-219.99"/>
<polygon fill="midnightblue" stroke="midnightblue" points="488,-219.75 484.5,-209.75 481,-219.75 488,-219.75"/>
</g>
<!-- Node4 -->
<g id="node4" class="node">
<title>Node4</title>
<g id="a_node4"><a xlink:href="c1_8hpp.html" target="_top" xlink:title="This file defines the primary register C1 of coprocessor CP15.">
<polygon fill="none" stroke="black" points="307,-134.5 307,-153.5 356,-153.5 356,-134.5 307,-134.5"/>
<text text-anchor="middle" x="331.5" y="-141.5" font-family="Helvetica,sans-Serif" font-size="10.00">c1.hpp</text>
</a>
</g>
</g>
<!-- Node3&#45;&gt;Node4 -->
<g id="edge3" class="edge">
<title>Node3&#45;&gt;Node4</title>
<path fill="none" stroke="midnightblue" d="M275.26,-190.32C285.27,-182.26 300.39,-170.08 312.43,-160.37"/>
<polygon fill="midnightblue" stroke="midnightblue" points="314.95,-162.83 320.54,-153.83 310.56,-157.38 314.95,-162.83"/>
</g>
<!-- Node5 -->
<g id="node5" class="node">
<title>Node5</title>
<g id="a_node5"><a xlink:href="primary__reg_8hpp.html" target="_top" xlink:title="This file defines a primary register interface of coprocessor CP15.">
<polygon fill="none" stroke="black" points="149,-67.5 149,-86.5 246,-86.5 246,-67.5 149,-67.5"/>
<text text-anchor="middle" x="197.5" y="-74.5" font-family="Helvetica,sans-Serif" font-size="10.00">primary_reg.hpp</text>
</a>
</g>
</g>
<!-- Node3&#45;&gt;Node5 -->
<g id="edge15" class="edge">
<title>Node3&#45;&gt;Node5</title>
<path fill="none" stroke="midnightblue" d="M218.85,-190.43C198.26,-184.04 175.83,-173 163.5,-154 151.03,-134.8 167.01,-110.26 181,-94.35"/>
<polygon fill="midnightblue" stroke="midnightblue" points="183.71,-96.58 187.98,-86.88 178.59,-91.8 183.71,-96.58"/>
</g>
<!-- Node6 -->
<g id="node6" class="node">
<title>Node6</title>
<g id="a_node6"><a xlink:href="logger_8hpp.html" target="_top" xlink:title="This file defines a general logger interface as well as a logging system that is used in the project.">
<polygon fill="none" stroke="black" points="288.5,-0.5 288.5,-19.5 434.5,-19.5 434.5,-0.5 288.5,-0.5"/>
<text text-anchor="middle" x="361.5" y="-7.5" font-family="Helvetica,sans-Serif" font-size="10.00">zero_mate/utils/logger.hpp</text>
</a>
</g>
</g>
<!-- Node3&#45;&gt;Node6 -->
<g id="edge25" class="edge">
<title>Node3&#45;&gt;Node6</title>
<path fill="none" stroke="midnightblue" d="M310.15,-190.43C330.74,-184.04 353.17,-173 365.5,-154 390.44,-115.58 377.37,-58.29 368.11,-29.27"/>
<polygon fill="midnightblue" stroke="midnightblue" points="371.37,-27.97 364.84,-19.63 364.74,-30.22 371.37,-27.97"/>
</g>
<!-- Node7 -->
<g id="node7" class="node">
<title>Node7</title>
<g id="a_node7"><a xlink:href="c2_8hpp.html" target="_top" xlink:title="This file defines the primary register C2 of coprocessor CP15.">
<polygon fill="none" stroke="black" points="173,-134.5 173,-153.5 222,-153.5 222,-134.5 173,-134.5"/>
<text text-anchor="middle" x="197.5" y="-141.5" font-family="Helvetica,sans-Serif" font-size="10.00">c2.hpp</text>
</a>
</g>
</g>
<!-- Node3&#45;&gt;Node7 -->
<g id="edge7" class="edge">
<title>Node3&#45;&gt;Node7</title>
<path fill="none" stroke="midnightblue" d="M253.74,-190.32C243.73,-182.26 228.61,-170.08 216.57,-160.37"/>
<polygon fill="midnightblue" stroke="midnightblue" points="218.44,-157.38 208.46,-153.83 214.05,-162.83 218.44,-157.38"/>
</g>
<!-- Node8 -->
<g id="node8" class="node">
<title>Node8</title>
<g id="a_node8"><a xlink:href="c3_8hpp.html" target="_top" xlink:title="This file defines the primary register C3 of coprocessor CP15.">
<polygon fill="none" stroke="black" points="240,-134.5 240,-153.5 289,-153.5 289,-134.5 240,-134.5"/>
<text text-anchor="middle" x="264.5" y="-141.5" font-family="Helvetica,sans-Serif" font-size="10.00">c3.hpp</text>
</a>
</g>
</g>
<!-- Node3&#45;&gt;Node8 -->
<g id="edge9" class="edge">
<title>Node3&#45;&gt;Node8</title>
<path fill="none" stroke="midnightblue" d="M264.5,-190.08C264.5,-183.01 264.5,-172.86 264.5,-163.99"/>
<polygon fill="midnightblue" stroke="midnightblue" points="268,-163.75 264.5,-153.75 261,-163.75 268,-163.75"/>
</g>
<!-- Node9 -->
<g id="node9" class="node">
<title>Node9</title>
<g id="a_node9"><a xlink:href="c7_8hpp.html" target="_top" xlink:title="This file defines the primary register C7 of coprocessor CP15.">
<polygon fill="none" stroke="black" points="0,-134.5 0,-153.5 49,-153.5 49,-134.5 0,-134.5"/>
<text text-anchor="middle" x="24.5" y="-141.5" font-family="Helvetica,sans-Serif" font-size="10.00">c7.hpp</text>
</a>
</g>
</g>
<!-- Node3&#45;&gt;Node9 -->
<g id="edge11" class="edge">
<title>Node3&#45;&gt;Node9</title>
<path fill="none" stroke="midnightblue" d="M221.93,-190.42C182.11,-182.25 120.75,-169.27 59.21,-154.33"/>
<polygon fill="midnightblue" stroke="midnightblue" points="59.88,-150.89 49.33,-151.92 58.21,-157.69 59.88,-150.89"/>
</g>
<!-- Node10 -->
<g id="node10" class="node">
<title>Node10</title>
<g id="a_node10"><a xlink:href="c8_8hpp.html" target="_top" xlink:title="This file defines the primary register C8 of coprocessor CP15.">
<polygon fill="none" stroke="black" points="67,-134.5 67,-153.5 116,-153.5 116,-134.5 67,-134.5"/>
<text text-anchor="middle" x="91.5" y="-141.5" font-family="Helvetica,sans-Serif" font-size="10.00">c8.hpp</text>
</a>
</g>
</g>
<!-- Node3&#45;&gt;Node10 -->
<g id="edge13" class="edge">
<title>Node3&#45;&gt;Node10</title>
<path fill="none" stroke="midnightblue" d="M237.09,-190.44C206.95,-181.04 158.49,-165.91 125.85,-155.72"/>
<polygon fill="midnightblue" stroke="midnightblue" points="126.85,-152.37 116.26,-152.73 124.76,-159.05 126.85,-152.37"/>
</g>
<!-- Node11 -->
<g id="node11" class="node">
<title>Node11</title>
<g id="a_node11"><a xlink:href="coprocessor_8hpp.html" target="_top" xlink:title="This file defines a general interface of a coprocessor.">
<polygon fill="none" stroke="black" points="564.5,-134.5 564.5,-153.5 668.5,-153.5 668.5,-134.5 564.5,-134.5"/>
<text text-anchor="middle" x="616.5" y="-141.5" font-family="Helvetica,sans-Serif" font-size="10.00">../coprocessor.hpp</text>
</a>
</g>
</g>
<!-- Node3&#45;&gt;Node11 -->
<g id="edge16" class="edge">
<title>Node3&#45;&gt;Node11</title>
<path fill="none" stroke="midnightblue" d="M320.28,-190.44C384.07,-180.66 488.25,-164.68 554.53,-154.51"/>
<polygon fill="midnightblue" stroke="midnightblue" points="555.07,-157.96 564.43,-152.99 554.01,-151.05 555.07,-157.96"/>
</g>
<!-- Node4&#45;&gt;Node5 -->
<g id="edge4" class="edge">
<title>Node4&#45;&gt;Node5</title>
<path fill="none" stroke="midnightblue" d="M313.71,-134.37C290.88,-123.3 251.07,-103.99 224.5,-91.1"/>
<polygon fill="midnightblue" stroke="midnightblue" points="225.89,-87.88 215.37,-86.67 222.84,-94.18 225.89,-87.88"/>
</g>
<!-- Node4&#45;&gt;Node6 -->
<g id="edge6" class="edge">
<title>Node4&#45;&gt;Node6</title>
<path fill="none" stroke="midnightblue" d="M333.47,-134.34C338.28,-113.17 350.72,-58.45 357.29,-29.53"/>
<polygon fill="midnightblue" stroke="midnightblue" points="360.76,-30.05 359.56,-19.52 353.93,-28.5 360.76,-30.05"/>
</g>
<!-- Node5&#45;&gt;Node6 -->
<g id="edge5" class="edge">
<title>Node5&#45;&gt;Node6</title>
<path fill="none" stroke="midnightblue" d="M219.28,-67.37C247.78,-56.07 297.93,-36.2 330.42,-23.32"/>
<polygon fill="midnightblue" stroke="midnightblue" points="331.89,-26.5 339.89,-19.56 329.31,-19.99 331.89,-26.5"/>
</g>
<!-- Node7&#45;&gt;Node5 -->
<g id="edge8" class="edge">
<title>Node7&#45;&gt;Node5</title>
<path fill="none" stroke="midnightblue" d="M197.5,-134.23C197.5,-124.68 197.5,-109.12 197.5,-96.78"/>
<polygon fill="midnightblue" stroke="midnightblue" points="201,-96.63 197.5,-86.63 194,-96.63 201,-96.63"/>
</g>
<!-- Node8&#45;&gt;Node5 -->
<g id="edge10" class="edge">
<title>Node8&#45;&gt;Node5</title>
<path fill="none" stroke="midnightblue" d="M255.46,-134.23C244.82,-123.9 226.92,-106.54 213.82,-93.83"/>
<polygon fill="midnightblue" stroke="midnightblue" points="216.01,-91.08 206.39,-86.63 211.13,-96.1 216.01,-91.08"/>
</g>
<!-- Node9&#45;&gt;Node5 -->
<g id="edge12" class="edge">
<title>Node9&#45;&gt;Node5</title>
<path fill="none" stroke="midnightblue" d="M47.47,-134.37C77.67,-123.02 130.9,-103.02 165.16,-90.15"/>
<polygon fill="midnightblue" stroke="midnightblue" points="166.58,-93.36 174.71,-86.56 164.12,-86.8 166.58,-93.36"/>
</g>
<!-- Node10&#45;&gt;Node5 -->
<g id="edge14" class="edge">
<title>Node10&#45;&gt;Node5</title>
<path fill="none" stroke="midnightblue" d="M105.8,-134.23C123.52,-123.37 153.93,-104.72 174.84,-91.89"/>
<polygon fill="midnightblue" stroke="midnightblue" points="176.74,-94.84 183.43,-86.63 173.08,-88.87 176.74,-94.84"/>
</g>
<!-- Node12 -->
<g id="node12" class="node">
<title>Node12</title>
<g id="a_node12"><a xlink:href="context_8hpp.html" target="_top" xlink:title="This file defines the context (registers) of the CPU.">
<polygon fill="none" stroke="black" points="408.5,-67.5 408.5,-86.5 560.5,-86.5 560.5,-67.5 408.5,-67.5"/>
<text text-anchor="middle" x="484.5" y="-74.5" font-family="Helvetica,sans-Serif" font-size="10.00">../arm1176jzf_s/context.hpp</text>
</a>
</g>
</g>
<!-- Node11&#45;&gt;Node12 -->
<g id="edge17" class="edge">
<title>Node11&#45;&gt;Node12</title>
<path fill="none" stroke="midnightblue" d="M598.97,-134.37C576.49,-123.3 537.27,-103.99 511.1,-91.1"/>
<polygon fill="midnightblue" stroke="midnightblue" points="512.62,-87.94 502.1,-86.67 509.53,-94.22 512.62,-87.94"/>
</g>
<!-- Node13 -->
<g id="node13" class="node">
<title>Node13</title>
<g id="a_node13"><a xlink:href="coprocessor__register__transfer_8hpp.html" target="_top" xlink:title="This file defines a coprocessor register transfer (MRC, MCR).">
<polygon fill="none" stroke="black" points="774,-56.5 774,-97.5 895,-97.5 895,-56.5 774,-56.5"/>
<text text-anchor="start" x="782" y="-85.5" font-family="Helvetica,sans-Serif" font-size="10.00">../arm1176jzf_s/isa</text>
<text text-anchor="start" x="782" y="-74.5" font-family="Helvetica,sans-Serif" font-size="10.00">/coprocessor_register</text>
<text text-anchor="middle" x="834.5" y="-63.5" font-family="Helvetica,sans-Serif" font-size="10.00">_transfer.hpp</text>
</a>
</g>
</g>
<!-- Node11&#45;&gt;Node13 -->
<g id="edge19" class="edge">
<title>Node11&#45;&gt;Node13</title>
<path fill="none" stroke="midnightblue" d="M645.45,-134.37C675.52,-125.4 723.69,-111.04 763.89,-99.05"/>
<polygon fill="midnightblue" stroke="midnightblue" points="765.07,-102.35 773.65,-96.14 763.07,-95.65 765.07,-102.35"/>
</g>
<!-- Node15 -->
<g id="node15" class="node">
<title>Node15</title>
<g id="a_node15"><a xlink:href="coprocessor__data__transfer_8hpp.html" target="_top" xlink:title="This file defines a coprocessor data transfer (LDC, STC).">
<polygon fill="none" stroke="black" points="913,-62 913,-92 1082,-92 1082,-62 913,-62"/>
<text text-anchor="start" x="921" y="-80" font-family="Helvetica,sans-Serif" font-size="10.00">../arm1176jzf_s/isa</text>
<text text-anchor="middle" x="997.5" y="-69" font-family="Helvetica,sans-Serif" font-size="10.00">/coprocessor_data_transfer.hpp</text>
</a>
</g>
</g>
<!-- Node11&#45;&gt;Node15 -->
<g id="edge21" class="edge">
<title>Node11&#45;&gt;Node15</title>
<path fill="none" stroke="midnightblue" d="M668.68,-135.21C738.96,-124.66 860.34,-106.19 904.5,-98 911.05,-96.79 917.84,-95.46 924.63,-94.08"/>
<polygon fill="midnightblue" stroke="midnightblue" points="925.47,-97.48 934.56,-92.04 924.06,-90.63 925.47,-97.48"/>
</g>
<!-- Node16 -->
<g id="node16" class="node">
<title>Node16</title>
<g id="a_node16"><a xlink:href="coprocessor__data__operation_8hpp.html" target="_top" xlink:title="This file defines a coprocessor data operation (CDP).">
<polygon fill="none" stroke="black" points="578.5,-62 578.5,-92 756.5,-92 756.5,-62 578.5,-62"/>
<text text-anchor="start" x="586.5" y="-80" font-family="Helvetica,sans-Serif" font-size="10.00">../arm1176jzf_s/isa</text>
<text text-anchor="middle" x="667.5" y="-69" font-family="Helvetica,sans-Serif" font-size="10.00">/coprocessor_data_operation.hpp</text>
</a>
</g>
</g>
<!-- Node11&#45;&gt;Node16 -->
<g id="edge23" class="edge">
<title>Node11&#45;&gt;Node16</title>
<path fill="none" stroke="midnightblue" d="M623.38,-134.23C630.2,-125.53 640.94,-111.84 650.12,-100.15"/>
<polygon fill="midnightblue" stroke="midnightblue" points="653.03,-102.12 656.45,-92.09 647.52,-97.8 653.03,-102.12"/>
</g>
<!-- Node12&#45;&gt;Node6 -->
<g id="edge18" class="edge">
<title>Node12&#45;&gt;Node6</title>
<path fill="none" stroke="midnightblue" d="M468.17,-67.37C447.4,-56.39 411.31,-37.32 386.93,-24.44"/>
<polygon fill="midnightblue" stroke="midnightblue" points="388.38,-21.25 377.9,-19.67 385.11,-27.43 388.38,-21.25"/>
</g>
<!-- Node14 -->
<g id="node14" class="node">
<title>Node14</title>
<g id="a_node14"><a xlink:href="instruction_8hpp.html" target="_top" xlink:title="This file defines the interface of a general ARM instruction.">
<polygon fill="none" stroke="black" points="790,-0.5 790,-19.5 879,-19.5 879,-0.5 790,-0.5"/>
<text text-anchor="middle" x="834.5" y="-7.5" font-family="Helvetica,sans-Serif" font-size="10.00">instruction.hpp</text>
</a>
</g>
</g>
<!-- Node13&#45;&gt;Node14 -->
<g id="edge20" class="edge">
<title>Node13&#45;&gt;Node14</title>
<path fill="none" stroke="midnightblue" d="M834.5,-56.5C834.5,-48.07 834.5,-38.24 834.5,-29.87"/>
<polygon fill="midnightblue" stroke="midnightblue" points="838,-29.65 834.5,-19.65 831,-29.65 838,-29.65"/>
</g>
<!-- Node15&#45;&gt;Node14 -->
<g id="edge22" class="edge">
<title>Node15&#45;&gt;Node14</title>
<path fill="none" stroke="midnightblue" d="M962.13,-61.9C933.28,-50.39 892.92,-34.3 865.36,-23.31"/>
<polygon fill="midnightblue" stroke="midnightblue" points="866.42,-19.96 855.83,-19.51 863.83,-26.46 866.42,-19.96"/>
</g>
<!-- Node16&#45;&gt;Node14 -->
<g id="edge24" class="edge">
<title>Node16&#45;&gt;Node14</title>
<path fill="none" stroke="midnightblue" d="M703.74,-61.9C733.43,-50.34 775.01,-34.16 803.25,-23.16"/>
<polygon fill="midnightblue" stroke="midnightblue" points="804.59,-26.4 812.64,-19.51 802.06,-19.87 804.59,-26.4"/>
</g>
<!-- Node18&#45;&gt;Node12 -->
<g id="edge29" class="edge">
<title>Node18&#45;&gt;Node12</title>
<path fill="none" stroke="midnightblue" d="M484.5,-190.3C484.5,-170.85 484.5,-123.49 484.5,-96.9"/>
<polygon fill="midnightblue" stroke="midnightblue" points="488,-96.62 484.5,-86.62 481,-96.62 488,-96.62"/>
</g>
<!-- Node19 -->
<g id="node19" class="node">
<title>Node19</title>
<g id="a_node19"><a xlink:title=" ">
<polygon fill="none" stroke="#bfbfbf" points="687,-134.5 687,-153.5 766,-153.5 766,-134.5 687,-134.5"/>
<text text-anchor="middle" x="726.5" y="-141.5" font-family="Helvetica,sans-Serif" font-size="10.00">fmt/format.h</text>
</a>
</g>
</g>
<!-- Node18&#45;&gt;Node19 -->
<g id="edge28" class="edge">
<title>Node18&#45;&gt;Node19</title>
<path fill="none" stroke="midnightblue" d="M522.85,-190.44C564.97,-181.04 632.71,-165.93 678.37,-155.74"/>
<polygon fill="midnightblue" stroke="midnightblue" points="679.34,-159.11 688.33,-153.52 677.81,-152.28 679.34,-159.11"/>
</g>
</g>
</svg>
