<?xml version="1.0" encoding="UTF-8" standalone="no"?>
<!DOCTYPE svg PUBLIC "-//W3C//DTD SVG 1.1//EN"
 "http://www.w3.org/Graphics/SVG/1.1/DTD/svg11.dtd">
<!-- Generated by graphviz version 2.43.0 (0)
 -->
<!-- Title: src/core/utils/elf_loader.hpp Pages: 1 -->
<svg width="861pt" height="397pt"
 viewBox="0.00 0.00 861.00 397.00" xmlns="http://www.w3.org/2000/svg" xmlns:xlink="http://www.w3.org/1999/xlink">
<g id="graph0" class="graph" transform="scale(1 1) rotate(0) translate(4 393)">
<title>src/core/utils/elf_loader.hpp</title>
<!-- Node1 -->
<g id="node1" class="node">
<title>Node1</title>
<g id="a_node1"><a xlink:title=" ">
<polygon fill="#bfbfbf" stroke="black" points="0,-358.5 0,-388.5 95,-388.5 95,-358.5 0,-358.5"/>
<text text-anchor="start" x="8" y="-376.5" font-family="Helvetica,sans-Serif" font-size="10.00">src/core/utils/elf</text>
<text text-anchor="middle" x="47.5" y="-365.5" font-family="Helvetica,sans-Serif" font-size="10.00">_loader.hpp</text>
</a>
</g>
</g>
<!-- Node2 -->
<g id="node2" class="node">
<title>Node2</title>
<g id="a_node2"><a xlink:title=" ">
<polygon fill="none" stroke="#bfbfbf" points="16,-0.5 16,-19.5 63,-19.5 63,-0.5 16,-0.5"/>
<text text-anchor="middle" x="39.5" y="-7.5" font-family="Helvetica,sans-Serif" font-size="10.00">vector</text>
</a>
</g>
</g>
<!-- Node1&#45;&gt;Node2 -->
<g id="edge1" class="edge">
<title>Node1&#45;&gt;Node2</title>
<path fill="none" stroke="midnightblue" d="M37.74,-358.28C24.24,-337.17 1.5,-295.85 1.5,-257 1.5,-257 1.5,-257 1.5,-132 1.5,-93.81 18.94,-51.83 30.19,-28.72"/>
<polygon fill="midnightblue" stroke="midnightblue" points="33.46,-30.02 34.84,-19.52 27.21,-26.86 33.46,-30.02"/>
</g>
<!-- Node3 -->
<g id="node3" class="node">
<title>Node3</title>
<g id="a_node3"><a xlink:href="bus_8hpp.html" target="_top" xlink:title="This file defines an interface the CPU uses to access different memory&#45;mapped peripherals.">
<polygon fill="none" stroke="black" points="238.5,-302.5 238.5,-321.5 302.5,-321.5 302.5,-302.5 238.5,-302.5"/>
<text text-anchor="middle" x="270.5" y="-309.5" font-family="Helvetica,sans-Serif" font-size="10.00">../bus.hpp</text>
</a>
</g>
</g>
<!-- Node1&#45;&gt;Node3 -->
<g id="edge2" class="edge">
<title>Node1&#45;&gt;Node3</title>
<path fill="none" stroke="midnightblue" d="M95.07,-359.81C134.75,-349.22 190.77,-334.27 228.74,-324.14"/>
<polygon fill="midnightblue" stroke="midnightblue" points="229.71,-327.51 238.47,-321.55 227.9,-320.74 229.71,-327.51"/>
</g>
<!-- Node4 -->
<g id="node4" class="node">
<title>Node4</title>
<g id="a_node4"><a xlink:href="cp15_8hpp.html" target="_top" xlink:title=" ">
<polygon fill="none" stroke="black" points="125.5,-246.5 125.5,-265.5 253.5,-265.5 253.5,-246.5 125.5,-246.5"/>
<text text-anchor="middle" x="189.5" y="-253.5" font-family="Helvetica,sans-Serif" font-size="10.00">coprocessors/cp15.hpp</text>
</a>
</g>
</g>
<!-- Node3&#45;&gt;Node4 -->
<g id="edge3" class="edge">
<title>Node3&#45;&gt;Node4</title>
<path fill="none" stroke="midnightblue" d="M257.49,-302.32C244.97,-293.98 225.82,-281.21 211.03,-271.35"/>
<polygon fill="midnightblue" stroke="midnightblue" points="212.74,-268.29 202.48,-265.65 208.86,-274.11 212.74,-268.29"/>
</g>
<!-- Node18 -->
<g id="node18" class="node">
<title>Node18</title>
<g id="a_node18"><a xlink:href="peripheral_8hpp.html" target="_top" xlink:title=" ">
<polygon fill="none" stroke="black" points="708,-56.5 708,-75.5 853,-75.5 853,-56.5 708,-56.5"/>
<text text-anchor="middle" x="780.5" y="-63.5" font-family="Helvetica,sans-Serif" font-size="10.00">peripherals/peripheral.hpp</text>
</a>
</g>
</g>
<!-- Node3&#45;&gt;Node18 -->
<g id="edge24" class="edge">
<title>Node3&#45;&gt;Node18</title>
<path fill="none" stroke="midnightblue" d="M302.59,-306.99C411.16,-292.72 761.52,-240.52 826.5,-154 837.71,-139.07 833.74,-129.21 826.5,-112 821.47,-100.05 811.56,-89.69 802.21,-81.93"/>
<polygon fill="midnightblue" stroke="midnightblue" points="804.34,-79.15 794.29,-75.81 800.06,-84.69 804.34,-79.15"/>
</g>
<!-- Node19 -->
<g id="node19" class="node">
<title>Node19</title>
<g id="a_node19"><a xlink:href="exceptions_8hpp.html" target="_top" xlink:title="This file defines all exceptions that can be thrown by the CPU during execution.">
<polygon fill="none" stroke="black" points="271.5,-246.5 271.5,-265.5 431.5,-265.5 431.5,-246.5 271.5,-246.5"/>
<text text-anchor="middle" x="351.5" y="-253.5" font-family="Helvetica,sans-Serif" font-size="10.00">arm1176jzf_s/exceptions.hpp</text>
</a>
</g>
</g>
<!-- Node3&#45;&gt;Node19 -->
<g id="edge26" class="edge">
<title>Node3&#45;&gt;Node19</title>
<path fill="none" stroke="midnightblue" d="M283.51,-302.32C296.03,-293.98 315.18,-281.21 329.97,-271.35"/>
<polygon fill="midnightblue" stroke="midnightblue" points="332.14,-274.11 338.52,-265.65 328.26,-268.29 332.14,-274.11"/>
</g>
<!-- Node4&#45;&gt;Node2 -->
<g id="edge4" class="edge">
<title>Node4&#45;&gt;Node2</title>
<path fill="none" stroke="midnightblue" d="M168.54,-246.38C152.14,-238.78 129.67,-226.38 114.5,-210 65.39,-156.97 47.53,-68.69 41.85,-30.07"/>
<polygon fill="midnightblue" stroke="midnightblue" points="45.26,-29.21 40.45,-19.77 38.33,-30.15 45.26,-29.21"/>
</g>
<!-- Node5 -->
<g id="node5" class="node">
<title>Node5</title>
<g id="a_node5"><a xlink:title=" ">
<polygon fill="none" stroke="#bfbfbf" points="337,-190.5 337,-209.5 430,-209.5 430,-190.5 337,-190.5"/>
<text text-anchor="middle" x="383.5" y="-197.5" font-family="Helvetica,sans-Serif" font-size="10.00">unordered_map</text>
</a>
</g>
</g>
<!-- Node4&#45;&gt;Node5 -->
<g id="edge5" class="edge">
<title>Node4&#45;&gt;Node5</title>
<path fill="none" stroke="midnightblue" d="M220.24,-246.44C253.44,-237.2 306.49,-222.44 343.06,-212.26"/>
<polygon fill="midnightblue" stroke="midnightblue" points="344.21,-215.57 352.9,-209.52 342.33,-208.83 344.21,-215.57"/>
</g>
<!-- Node6 -->
<g id="node6" class="node">
<title>Node6</title>
<g id="a_node6"><a xlink:href="coprocessor_8hpp.html" target="_top" xlink:title=" ">
<polygon fill="none" stroke="black" points="224,-190.5 224,-209.5 319,-209.5 319,-190.5 224,-190.5"/>
<text text-anchor="middle" x="271.5" y="-197.5" font-family="Helvetica,sans-Serif" font-size="10.00">coprocessor.hpp</text>
</a>
</g>
</g>
<!-- Node4&#45;&gt;Node6 -->
<g id="edge6" class="edge">
<title>Node4&#45;&gt;Node6</title>
<path fill="none" stroke="midnightblue" d="M202.67,-246.32C215.35,-237.98 234.73,-225.21 249.71,-215.35"/>
<polygon fill="midnightblue" stroke="midnightblue" points="251.93,-218.08 258.36,-209.65 248.08,-212.23 251.93,-218.08"/>
</g>
<!-- Node9 -->
<g id="node9" class="node">
<title>Node9</title>
<g id="a_node9"><a xlink:href="logger_8hpp.html" target="_top" xlink:title=" ">
<polygon fill="none" stroke="black" points="112.5,-56.5 112.5,-75.5 246.5,-75.5 246.5,-56.5 112.5,-56.5"/>
<text text-anchor="middle" x="179.5" y="-63.5" font-family="Helvetica,sans-Serif" font-size="10.00">../utils/logger/logger.hpp</text>
</a>
</g>
</g>
<!-- Node4&#45;&gt;Node9 -->
<g id="edge23" class="edge">
<title>Node4&#45;&gt;Node9</title>
<path fill="none" stroke="midnightblue" d="M177.09,-246.49C155.76,-231.02 112.88,-195.97 96.5,-154 89.71,-136.61 86.95,-128.04 96.5,-112 105.6,-96.72 121.89,-86.31 137.64,-79.39"/>
<polygon fill="midnightblue" stroke="midnightblue" points="139.33,-82.48 147.32,-75.51 136.73,-75.98 139.33,-82.48"/>
</g>
<!-- Node7 -->
<g id="node7" class="node">
<title>Node7</title>
<g id="a_node7"><a xlink:title=" ">
<polygon fill="none" stroke="#bfbfbf" points="470.5,-0.5 470.5,-19.5 520.5,-19.5 520.5,-0.5 470.5,-0.5"/>
<text text-anchor="middle" x="495.5" y="-7.5" font-family="Helvetica,sans-Serif" font-size="10.00">cstdint</text>
</a>
</g>
</g>
<!-- Node6&#45;&gt;Node7 -->
<g id="edge7" class="edge">
<title>Node6&#45;&gt;Node7</title>
<path fill="none" stroke="midnightblue" d="M272.72,-190.3C275.5,-173.34 283.75,-135.49 304.5,-112 347.03,-63.85 418.14,-34.92 460.56,-21.04"/>
<polygon fill="midnightblue" stroke="midnightblue" points="461.7,-24.35 470.17,-18 459.58,-17.68 461.7,-24.35"/>
</g>
<!-- Node8 -->
<g id="node8" class="node">
<title>Node8</title>
<g id="a_node8"><a xlink:href="context_8hpp.html" target="_top" xlink:title="This file defines the context (registers) of the CPU.">
<polygon fill="none" stroke="black" points="105.5,-123.5 105.5,-142.5 257.5,-142.5 257.5,-123.5 105.5,-123.5"/>
<text text-anchor="middle" x="181.5" y="-130.5" font-family="Helvetica,sans-Serif" font-size="10.00">../arm1176jzf_s/context.hpp</text>
</a>
</g>
</g>
<!-- Node6&#45;&gt;Node8 -->
<g id="edge8" class="edge">
<title>Node6&#45;&gt;Node8</title>
<path fill="none" stroke="midnightblue" d="M259.36,-190.23C244.65,-179.61 219.64,-161.55 201.94,-148.76"/>
<polygon fill="midnightblue" stroke="midnightblue" points="203.6,-145.64 193.45,-142.63 199.5,-151.32 203.6,-145.64"/>
</g>
<!-- Node14 -->
<g id="node14" class="node">
<title>Node14</title>
<g id="a_node14"><a xlink:href="coprocessor__register__transfer_8hpp.html" target="_top" xlink:title=" ">
<polygon fill="none" stroke="black" points="314,-112.5 314,-153.5 435,-153.5 435,-112.5 314,-112.5"/>
<text text-anchor="start" x="322" y="-141.5" font-family="Helvetica,sans-Serif" font-size="10.00">../arm1176jzf_s/isa</text>
<text text-anchor="start" x="322" y="-130.5" font-family="Helvetica,sans-Serif" font-size="10.00">/coprocessor_register</text>
<text text-anchor="middle" x="374.5" y="-119.5" font-family="Helvetica,sans-Serif" font-size="10.00">_transfer.hpp</text>
</a>
</g>
</g>
<!-- Node6&#45;&gt;Node14 -->
<g id="edge16" class="edge">
<title>Node6&#45;&gt;Node14</title>
<path fill="none" stroke="midnightblue" d="M285.39,-190.23C298.02,-182.27 317.27,-170.11 334.66,-159.14"/>
<polygon fill="midnightblue" stroke="midnightblue" points="336.94,-161.84 343.53,-153.54 333.21,-155.92 336.94,-161.84"/>
</g>
<!-- Node16 -->
<g id="node16" class="node">
<title>Node16</title>
<g id="a_node16"><a xlink:href="coprocessor__data__transfer_8hpp.html" target="_top" xlink:title=" ">
<polygon fill="none" stroke="black" points="453,-118 453,-148 622,-148 622,-118 453,-118"/>
<text text-anchor="start" x="461" y="-136" font-family="Helvetica,sans-Serif" font-size="10.00">../arm1176jzf_s/isa</text>
<text text-anchor="middle" x="537.5" y="-125" font-family="Helvetica,sans-Serif" font-size="10.00">/coprocessor_data_transfer.hpp</text>
</a>
</g>
</g>
<!-- Node6&#45;&gt;Node16 -->
<g id="edge19" class="edge">
<title>Node6&#45;&gt;Node16</title>
<path fill="none" stroke="midnightblue" d="M306.55,-190.44C348.03,-180.3 418.04,-163.19 470.13,-150.46"/>
<polygon fill="midnightblue" stroke="midnightblue" points="471.08,-153.83 479.97,-148.06 469.42,-147.03 471.08,-153.83"/>
</g>
<!-- Node17 -->
<g id="node17" class="node">
<title>Node17</title>
<g id="a_node17"><a xlink:href="coprocessor__data__operation_8hpp.html" target="_top" xlink:title=" ">
<polygon fill="none" stroke="black" points="639.5,-118 639.5,-148 817.5,-148 817.5,-118 639.5,-118"/>
<text text-anchor="start" x="647.5" y="-136" font-family="Helvetica,sans-Serif" font-size="10.00">../arm1176jzf_s/isa</text>
<text text-anchor="middle" x="728.5" y="-125" font-family="Helvetica,sans-Serif" font-size="10.00">/coprocessor_data_operation.hpp</text>
</a>
</g>
</g>
<!-- Node6&#45;&gt;Node17 -->
<g id="edge21" class="edge">
<title>Node6&#45;&gt;Node17</title>
<path fill="none" stroke="midnightblue" d="M319.14,-191.21C321.97,-190.79 324.77,-190.38 327.5,-190 461.81,-171.24 496.61,-175.58 630.5,-154 638.03,-152.79 645.87,-151.4 653.68,-149.94"/>
<polygon fill="midnightblue" stroke="midnightblue" points="654.37,-153.37 663.54,-148.05 653.06,-146.49 654.37,-153.37"/>
</g>
<!-- Node8&#45;&gt;Node9 -->
<g id="edge9" class="edge">
<title>Node8&#45;&gt;Node9</title>
<path fill="none" stroke="midnightblue" d="M181.23,-123.23C180.94,-113.68 180.46,-98.12 180.08,-85.78"/>
<polygon fill="midnightblue" stroke="midnightblue" points="183.57,-85.51 179.77,-75.63 176.57,-85.73 183.57,-85.51"/>
</g>
<!-- Node9&#45;&gt;Node2 -->
<g id="edge11" class="edge">
<title>Node9&#45;&gt;Node2</title>
<path fill="none" stroke="midnightblue" d="M157.32,-56.44C134.07,-47.48 97.35,-33.31 71.08,-23.18"/>
<polygon fill="midnightblue" stroke="midnightblue" points="72.17,-19.85 61.58,-19.52 69.65,-26.38 72.17,-19.85"/>
</g>
<!-- Node9&#45;&gt;Node7 -->
<g id="edge13" class="edge">
<title>Node9&#45;&gt;Node7</title>
<path fill="none" stroke="midnightblue" d="M229.57,-56.44C293.82,-45.46 403.69,-26.69 459.98,-17.07"/>
<polygon fill="midnightblue" stroke="midnightblue" points="460.9,-20.46 470.17,-15.33 459.72,-13.56 460.9,-20.46"/>
</g>
<!-- Node10 -->
<g id="node10" class="node">
<title>Node10</title>
<g id="a_node10"><a xlink:title=" ">
<polygon fill="none" stroke="#bfbfbf" points="83.5,-0.5 83.5,-19.5 131.5,-19.5 131.5,-0.5 83.5,-0.5"/>
<text text-anchor="middle" x="107.5" y="-7.5" font-family="Helvetica,sans-Serif" font-size="10.00">mutex</text>
</a>
</g>
</g>
<!-- Node9&#45;&gt;Node10 -->
<g id="edge10" class="edge">
<title>Node9&#45;&gt;Node10</title>
<path fill="none" stroke="midnightblue" d="M167.93,-56.32C157.08,-48.18 140.62,-35.84 127.62,-26.09"/>
<polygon fill="midnightblue" stroke="midnightblue" points="129.38,-23.03 119.28,-19.83 125.18,-28.63 129.38,-23.03"/>
</g>
<!-- Node11 -->
<g id="node11" class="node">
<title>Node11</title>
<g id="a_node11"><a xlink:title=" ">
<polygon fill="none" stroke="#bfbfbf" points="149.5,-0.5 149.5,-19.5 207.5,-19.5 207.5,-0.5 149.5,-0.5"/>
<text text-anchor="middle" x="178.5" y="-7.5" font-family="Helvetica,sans-Serif" font-size="10.00">memory</text>
</a>
</g>
</g>
<!-- Node9&#45;&gt;Node11 -->
<g id="edge12" class="edge">
<title>Node9&#45;&gt;Node11</title>
<path fill="none" stroke="midnightblue" d="M179.33,-56.08C179.2,-49.01 179.02,-38.86 178.85,-29.99"/>
<polygon fill="midnightblue" stroke="midnightblue" points="182.35,-29.68 178.66,-19.75 175.35,-29.81 182.35,-29.68"/>
</g>
<!-- Node12 -->
<g id="node12" class="node">
<title>Node12</title>
<g id="a_node12"><a xlink:title=" ">
<polygon fill="none" stroke="#bfbfbf" points="226,-0.5 226,-19.5 299,-19.5 299,-0.5 226,-0.5"/>
<text text-anchor="middle" x="262.5" y="-7.5" font-family="Helvetica,sans-Serif" font-size="10.00">string_view</text>
</a>
</g>
</g>
<!-- Node9&#45;&gt;Node12 -->
<g id="edge14" class="edge">
<title>Node9&#45;&gt;Node12</title>
<path fill="none" stroke="midnightblue" d="M192.84,-56.32C205.66,-47.98 225.28,-35.21 240.44,-25.35"/>
<polygon fill="midnightblue" stroke="midnightblue" points="242.72,-28.04 249.2,-19.65 238.91,-22.17 242.72,-28.04"/>
</g>
<!-- Node13 -->
<g id="node13" class="node">
<title>Node13</title>
<g id="a_node13"><a xlink:title=" ">
<polygon fill="none" stroke="#bfbfbf" points="317,-0.5 317,-19.5 410,-19.5 410,-0.5 317,-0.5"/>
<text text-anchor="middle" x="363.5" y="-7.5" font-family="Helvetica,sans-Serif" font-size="10.00">source_location</text>
</a>
</g>
</g>
<!-- Node9&#45;&gt;Node13 -->
<g id="edge15" class="edge">
<title>Node9&#45;&gt;Node13</title>
<path fill="none" stroke="midnightblue" d="M208.66,-56.44C240.01,-47.24 290.03,-32.56 324.7,-22.39"/>
<polygon fill="midnightblue" stroke="midnightblue" points="325.87,-25.69 334.48,-19.52 323.9,-18.97 325.87,-25.69"/>
</g>
<!-- Node15 -->
<g id="node15" class="node">
<title>Node15</title>
<g id="a_node15"><a xlink:href="instruction_8hpp.html" target="_top" xlink:title=" ">
<polygon fill="none" stroke="black" points="472,-56.5 472,-75.5 561,-75.5 561,-56.5 472,-56.5"/>
<text text-anchor="middle" x="516.5" y="-63.5" font-family="Helvetica,sans-Serif" font-size="10.00">instruction.hpp</text>
</a>
</g>
</g>
<!-- Node14&#45;&gt;Node15 -->
<g id="edge17" class="edge">
<title>Node14&#45;&gt;Node15</title>
<path fill="none" stroke="midnightblue" d="M417.1,-112.5C440.13,-101.96 467.93,-89.23 488.27,-79.92"/>
<polygon fill="midnightblue" stroke="midnightblue" points="489.96,-83 497.6,-75.65 487.05,-76.63 489.96,-83"/>
</g>
<!-- Node15&#45;&gt;Node7 -->
<g id="edge18" class="edge">
<title>Node15&#45;&gt;Node7</title>
<path fill="none" stroke="midnightblue" d="M513.03,-56.08C510.19,-48.77 506.07,-38.18 502.54,-29.1"/>
<polygon fill="midnightblue" stroke="midnightblue" points="505.79,-27.8 498.9,-19.75 499.27,-30.34 505.79,-27.8"/>
</g>
<!-- Node16&#45;&gt;Node15 -->
<g id="edge20" class="edge">
<title>Node16&#45;&gt;Node15</title>
<path fill="none" stroke="midnightblue" d="M532.94,-117.9C529.86,-108.36 525.77,-95.68 522.43,-85.36"/>
<polygon fill="midnightblue" stroke="midnightblue" points="525.71,-84.13 519.31,-75.69 519.05,-86.29 525.71,-84.13"/>
</g>
<!-- Node17&#45;&gt;Node15 -->
<g id="edge22" class="edge">
<title>Node17&#45;&gt;Node15</title>
<path fill="none" stroke="midnightblue" d="M682.76,-117.98C644.26,-106.17 589.89,-89.5 553.94,-78.48"/>
<polygon fill="midnightblue" stroke="midnightblue" points="554.9,-75.11 544.32,-75.53 552.85,-81.81 554.9,-75.11"/>
</g>
<!-- Node18&#45;&gt;Node7 -->
<g id="edge25" class="edge">
<title>Node18&#45;&gt;Node7</title>
<path fill="none" stroke="midnightblue" d="M735.34,-56.44C678.51,-45.68 582.12,-27.41 530.54,-17.64"/>
<polygon fill="midnightblue" stroke="midnightblue" points="531.02,-14.17 520.54,-15.75 529.72,-21.05 531.02,-14.17"/>
</g>
<!-- Node19&#45;&gt;Node8 -->
<g id="edge28" class="edge">
<title>Node19&#45;&gt;Node8</title>
<path fill="none" stroke="midnightblue" d="M290.93,-246.49C264.81,-240.16 235.5,-229.14 214.5,-210 197.85,-194.82 189.22,-169.75 185.03,-152.59"/>
<polygon fill="midnightblue" stroke="midnightblue" points="188.41,-151.67 182.88,-142.63 181.57,-153.14 188.41,-151.67"/>
</g>
<!-- Node20 -->
<g id="node20" class="node">
<title>Node20</title>
<g id="a_node20"><a xlink:title=" ">
<polygon fill="none" stroke="#bfbfbf" points="448,-190.5 448,-209.5 527,-209.5 527,-190.5 448,-190.5"/>
<text text-anchor="middle" x="487.5" y="-197.5" font-family="Helvetica,sans-Serif" font-size="10.00">fmt/format.h</text>
</a>
</g>
</g>
<!-- Node19&#45;&gt;Node20 -->
<g id="edge27" class="edge">
<title>Node19&#45;&gt;Node20</title>
<path fill="none" stroke="midnightblue" d="M373.05,-246.44C395.53,-237.52 430.99,-223.44 456.48,-213.32"/>
<polygon fill="midnightblue" stroke="midnightblue" points="458.05,-216.46 466.05,-209.52 455.47,-209.95 458.05,-216.46"/>
</g>
</g>
</svg>
