<?xml version="1.0" encoding="UTF-8" standalone="no"?>
<!DOCTYPE svg PUBLIC "-//W3C//DTD SVG 1.1//EN"
 "http://www.w3.org/Graphics/SVG/1.1/DTD/svg11.dtd">
<!-- Generated by graphviz version 2.43.0 (0)
 -->
<!-- Title: src/utils/elf_loader.hpp Pages: 1 -->
<svg width="1090pt" height="397pt"
 viewBox="0.00 0.00 1090.00 397.00" xmlns="http://www.w3.org/2000/svg" xmlns:xlink="http://www.w3.org/1999/xlink">
<g id="graph0" class="graph" transform="scale(1 1) rotate(0) translate(4 393)">
<title>src/utils/elf_loader.hpp</title>
<!-- Node1 -->
<g id="node1" class="node">
<title>Node1</title>
<g id="a_node1"><a xlink:title="This file defines the functionality of an ELF loader.">
<polygon fill="#bfbfbf" stroke="black" points="421,-369.5 421,-388.5 548,-388.5 548,-369.5 421,-369.5"/>
<text text-anchor="middle" x="484.5" y="-376.5" font-family="Helvetica,sans-Serif" font-size="10.00">src/utils/elf_loader.hpp</text>
</a>
</g>
</g>
<!-- Node2 -->
<g id="node2" class="node">
<title>Node2</title>
<g id="a_node2"><a xlink:href="bus_8hpp.html" target="_top" xlink:title="This file defines an interface the CPU uses to access different memory&#45;mapped peripherals.">
<polygon fill="none" stroke="black" points="440.5,-313.5 440.5,-332.5 528.5,-332.5 528.5,-313.5 440.5,-313.5"/>
<text text-anchor="middle" x="484.5" y="-320.5" font-family="Helvetica,sans-Serif" font-size="10.00">../core/bus.hpp</text>
</a>
</g>
</g>
<!-- Node1&#45;&gt;Node2 -->
<g id="edge1" class="edge">
<title>Node1&#45;&gt;Node2</title>
<path fill="none" stroke="midnightblue" d="M484.5,-369.08C484.5,-362.01 484.5,-351.86 484.5,-342.99"/>
<polygon fill="midnightblue" stroke="midnightblue" points="488,-342.75 484.5,-332.75 481,-342.75 488,-342.75"/>
</g>
<!-- Node3 -->
<g id="node3" class="node">
<title>Node3</title>
<g id="a_node3"><a xlink:href="cp15_8hpp.html" target="_top" xlink:title="This file defines coprocessor CP15.">
<polygon fill="none" stroke="black" points="187.5,-257.5 187.5,-276.5 341.5,-276.5 341.5,-257.5 187.5,-257.5"/>
<text text-anchor="middle" x="264.5" y="-264.5" font-family="Helvetica,sans-Serif" font-size="10.00">coprocessors/cp15/cp15.hpp</text>
</a>
</g>
</g>
<!-- Node2&#45;&gt;Node3 -->
<g id="edge2" class="edge">
<title>Node2&#45;&gt;Node3</title>
<path fill="none" stroke="midnightblue" d="M449.64,-313.44C411.58,-304.1 350.54,-289.12 309.04,-278.93"/>
<polygon fill="midnightblue" stroke="midnightblue" points="309.74,-275.5 299.2,-276.52 308.07,-282.3 309.74,-275.5"/>
</g>
<!-- Node18 -->
<g id="node18" class="node">
<title>Node18</title>
<g id="a_node18"><a xlink:href="peripheral_8hpp.html" target="_top" xlink:title="This file defines an interface for a memory&#45;mapped peripheral.">
<polygon fill="none" stroke="black" points="583,-257.5 583,-276.5 728,-276.5 728,-257.5 583,-257.5"/>
<text text-anchor="middle" x="655.5" y="-264.5" font-family="Helvetica,sans-Serif" font-size="10.00">peripherals/peripheral.hpp</text>
</a>
</g>
</g>
<!-- Node2&#45;&gt;Node18 -->
<g id="edge27" class="edge">
<title>Node2&#45;&gt;Node18</title>
<path fill="none" stroke="midnightblue" d="M511.6,-313.44C540.49,-304.32 586.42,-289.81 618.61,-279.65"/>
<polygon fill="midnightblue" stroke="midnightblue" points="620.05,-282.87 628.53,-276.52 617.94,-276.19 620.05,-282.87"/>
</g>
<!-- Node19 -->
<g id="node19" class="node">
<title>Node19</title>
<g id="a_node19"><a xlink:href="exceptions_8hpp.html" target="_top" xlink:title="This file defines all exceptions that can be thrown by the CPU during execution.">
<polygon fill="none" stroke="black" points="404.5,-257.5 404.5,-276.5 564.5,-276.5 564.5,-257.5 404.5,-257.5"/>
<text text-anchor="middle" x="484.5" y="-264.5" font-family="Helvetica,sans-Serif" font-size="10.00">arm1176jzf_s/exceptions.hpp</text>
</a>
</g>
</g>
<!-- Node2&#45;&gt;Node19 -->
<g id="edge28" class="edge">
<title>Node2&#45;&gt;Node19</title>
<path fill="none" stroke="midnightblue" d="M484.5,-313.08C484.5,-306.01 484.5,-295.86 484.5,-286.99"/>
<polygon fill="midnightblue" stroke="midnightblue" points="488,-286.75 484.5,-276.75 481,-286.75 488,-286.75"/>
</g>
<!-- Node4 -->
<g id="node4" class="node">
<title>Node4</title>
<g id="a_node4"><a xlink:href="c1_8hpp.html" target="_top" xlink:title="This file defines the primary register C1 of coprocessor CP15.">
<polygon fill="none" stroke="black" points="307,-201.5 307,-220.5 356,-220.5 356,-201.5 307,-201.5"/>
<text text-anchor="middle" x="331.5" y="-208.5" font-family="Helvetica,sans-Serif" font-size="10.00">c1.hpp</text>
</a>
</g>
</g>
<!-- Node3&#45;&gt;Node4 -->
<g id="edge3" class="edge">
<title>Node3&#45;&gt;Node4</title>
<path fill="none" stroke="midnightblue" d="M275.26,-257.32C285.27,-249.26 300.39,-237.08 312.43,-227.37"/>
<polygon fill="midnightblue" stroke="midnightblue" points="314.95,-229.83 320.54,-220.83 310.56,-224.38 314.95,-229.83"/>
</g>
<!-- Node5 -->
<g id="node5" class="node">
<title>Node5</title>
<g id="a_node5"><a xlink:href="primary__reg_8hpp.html" target="_top" xlink:title="This file defines a primary register interface of coprocessor CP15.">
<polygon fill="none" stroke="black" points="149,-134.5 149,-153.5 246,-153.5 246,-134.5 149,-134.5"/>
<text text-anchor="middle" x="197.5" y="-141.5" font-family="Helvetica,sans-Serif" font-size="10.00">primary_reg.hpp</text>
</a>
</g>
</g>
<!-- Node3&#45;&gt;Node5 -->
<g id="edge16" class="edge">
<title>Node3&#45;&gt;Node5</title>
<path fill="none" stroke="midnightblue" d="M218.85,-257.43C198.26,-251.04 175.83,-240 163.5,-221 151.03,-201.8 167.01,-177.26 181,-161.35"/>
<polygon fill="midnightblue" stroke="midnightblue" points="183.71,-163.58 187.98,-153.88 178.59,-158.8 183.71,-163.58"/>
</g>
<!-- Node6 -->
<g id="node6" class="node">
<title>Node6</title>
<g id="a_node6"><a xlink:href="logging__system_8hpp.html" target="_top" xlink:title="This file defines a logging system that is used in the project.">
<polygon fill="none" stroke="black" points="296,-56.5 296,-86.5 427,-86.5 427,-56.5 296,-56.5"/>
<text text-anchor="start" x="304" y="-74.5" font-family="Helvetica,sans-Serif" font-size="10.00">zero_mate/utils/logging</text>
<text text-anchor="middle" x="361.5" y="-63.5" font-family="Helvetica,sans-Serif" font-size="10.00">_system.hpp</text>
</a>
</g>
</g>
<!-- Node3&#45;&gt;Node6 -->
<g id="edge26" class="edge">
<title>Node3&#45;&gt;Node6</title>
<path fill="none" stroke="midnightblue" d="M310.15,-257.43C330.74,-251.04 353.17,-240 365.5,-221 390.1,-183.1 379.16,-127.53 369.8,-96.22"/>
<polygon fill="midnightblue" stroke="midnightblue" points="373.1,-95.06 366.74,-86.59 366.43,-97.18 373.1,-95.06"/>
</g>
<!-- Node8 -->
<g id="node8" class="node">
<title>Node8</title>
<g id="a_node8"><a xlink:href="c2_8hpp.html" target="_top" xlink:title="This file defines the primary register C2 of coprocessor CP15.">
<polygon fill="none" stroke="black" points="173,-201.5 173,-220.5 222,-220.5 222,-201.5 173,-201.5"/>
<text text-anchor="middle" x="197.5" y="-208.5" font-family="Helvetica,sans-Serif" font-size="10.00">c2.hpp</text>
</a>
</g>
</g>
<!-- Node3&#45;&gt;Node8 -->
<g id="edge8" class="edge">
<title>Node3&#45;&gt;Node8</title>
<path fill="none" stroke="midnightblue" d="M253.74,-257.32C243.73,-249.26 228.61,-237.08 216.57,-227.37"/>
<polygon fill="midnightblue" stroke="midnightblue" points="218.44,-224.38 208.46,-220.83 214.05,-229.83 218.44,-224.38"/>
</g>
<!-- Node9 -->
<g id="node9" class="node">
<title>Node9</title>
<g id="a_node9"><a xlink:href="c3_8hpp.html" target="_top" xlink:title="This file defines the primary register C3 of coprocessor CP15.">
<polygon fill="none" stroke="black" points="240,-201.5 240,-220.5 289,-220.5 289,-201.5 240,-201.5"/>
<text text-anchor="middle" x="264.5" y="-208.5" font-family="Helvetica,sans-Serif" font-size="10.00">c3.hpp</text>
</a>
</g>
</g>
<!-- Node3&#45;&gt;Node9 -->
<g id="edge10" class="edge">
<title>Node3&#45;&gt;Node9</title>
<path fill="none" stroke="midnightblue" d="M264.5,-257.08C264.5,-250.01 264.5,-239.86 264.5,-230.99"/>
<polygon fill="midnightblue" stroke="midnightblue" points="268,-230.75 264.5,-220.75 261,-230.75 268,-230.75"/>
</g>
<!-- Node10 -->
<g id="node10" class="node">
<title>Node10</title>
<g id="a_node10"><a xlink:href="c7_8hpp.html" target="_top" xlink:title="This file defines the primary register C7 of coprocessor CP15.">
<polygon fill="none" stroke="black" points="0,-201.5 0,-220.5 49,-220.5 49,-201.5 0,-201.5"/>
<text text-anchor="middle" x="24.5" y="-208.5" font-family="Helvetica,sans-Serif" font-size="10.00">c7.hpp</text>
</a>
</g>
</g>
<!-- Node3&#45;&gt;Node10 -->
<g id="edge12" class="edge">
<title>Node3&#45;&gt;Node10</title>
<path fill="none" stroke="midnightblue" d="M221.93,-257.42C182.11,-249.25 120.75,-236.27 59.21,-221.33"/>
<polygon fill="midnightblue" stroke="midnightblue" points="59.88,-217.89 49.33,-218.92 58.21,-224.69 59.88,-217.89"/>
</g>
<!-- Node11 -->
<g id="node11" class="node">
<title>Node11</title>
<g id="a_node11"><a xlink:href="c8_8hpp.html" target="_top" xlink:title="This file defines the primary register C8 of coprocessor CP15.">
<polygon fill="none" stroke="black" points="67,-201.5 67,-220.5 116,-220.5 116,-201.5 67,-201.5"/>
<text text-anchor="middle" x="91.5" y="-208.5" font-family="Helvetica,sans-Serif" font-size="10.00">c8.hpp</text>
</a>
</g>
</g>
<!-- Node3&#45;&gt;Node11 -->
<g id="edge14" class="edge">
<title>Node3&#45;&gt;Node11</title>
<path fill="none" stroke="midnightblue" d="M237.09,-257.44C206.95,-248.04 158.49,-232.91 125.85,-222.72"/>
<polygon fill="midnightblue" stroke="midnightblue" points="126.85,-219.37 116.26,-219.73 124.76,-226.05 126.85,-219.37"/>
</g>
<!-- Node12 -->
<g id="node12" class="node">
<title>Node12</title>
<g id="a_node12"><a xlink:href="coprocessor_8hpp.html" target="_top" xlink:title="This file defines a general interface of a coprocessor.">
<polygon fill="none" stroke="black" points="564.5,-201.5 564.5,-220.5 668.5,-220.5 668.5,-201.5 564.5,-201.5"/>
<text text-anchor="middle" x="616.5" y="-208.5" font-family="Helvetica,sans-Serif" font-size="10.00">../coprocessor.hpp</text>
</a>
</g>
</g>
<!-- Node3&#45;&gt;Node12 -->
<g id="edge17" class="edge">
<title>Node3&#45;&gt;Node12</title>
<path fill="none" stroke="midnightblue" d="M320.28,-257.44C384.07,-247.66 488.25,-231.68 554.53,-221.51"/>
<polygon fill="midnightblue" stroke="midnightblue" points="555.07,-224.96 564.43,-219.99 554.01,-218.05 555.07,-224.96"/>
</g>
<!-- Node4&#45;&gt;Node5 -->
<g id="edge4" class="edge">
<title>Node4&#45;&gt;Node5</title>
<path fill="none" stroke="midnightblue" d="M313.71,-201.37C290.88,-190.3 251.07,-170.99 224.5,-158.1"/>
<polygon fill="midnightblue" stroke="midnightblue" points="225.89,-154.88 215.37,-153.67 222.84,-161.18 225.89,-154.88"/>
</g>
<!-- Node4&#45;&gt;Node6 -->
<g id="edge7" class="edge">
<title>Node4&#45;&gt;Node6</title>
<path fill="none" stroke="midnightblue" d="M333.38,-201.4C337.87,-180.78 349.4,-127.94 356.22,-96.69"/>
<polygon fill="midnightblue" stroke="midnightblue" points="359.71,-97.14 358.42,-86.62 352.87,-95.65 359.71,-97.14"/>
</g>
<!-- Node5&#45;&gt;Node6 -->
<g id="edge5" class="edge">
<title>Node5&#45;&gt;Node6</title>
<path fill="none" stroke="midnightblue" d="M217.28,-134.5C242.48,-123.66 286.7,-104.65 319.55,-90.53"/>
<polygon fill="midnightblue" stroke="midnightblue" points="321.11,-93.67 328.92,-86.51 318.35,-87.24 321.11,-93.67"/>
</g>
<!-- Node7 -->
<g id="node7" class="node">
<title>Node7</title>
<g id="a_node7"><a xlink:href="logger_8hpp.html" target="_top" xlink:title="This file defines a general logger interface.">
<polygon fill="none" stroke="black" points="327.5,-0.5 327.5,-19.5 395.5,-19.5 395.5,-0.5 327.5,-0.5"/>
<text text-anchor="middle" x="361.5" y="-7.5" font-family="Helvetica,sans-Serif" font-size="10.00">logger.hpp</text>
</a>
</g>
</g>
<!-- Node6&#45;&gt;Node7 -->
<g id="edge6" class="edge">
<title>Node6&#45;&gt;Node7</title>
<path fill="none" stroke="midnightblue" d="M361.5,-56.4C361.5,-48.47 361.5,-38.46 361.5,-29.86"/>
<polygon fill="midnightblue" stroke="midnightblue" points="365,-29.66 361.5,-19.66 358,-29.66 365,-29.66"/>
</g>
<!-- Node8&#45;&gt;Node5 -->
<g id="edge9" class="edge">
<title>Node8&#45;&gt;Node5</title>
<path fill="none" stroke="midnightblue" d="M197.5,-201.23C197.5,-191.68 197.5,-176.12 197.5,-163.78"/>
<polygon fill="midnightblue" stroke="midnightblue" points="201,-163.63 197.5,-153.63 194,-163.63 201,-163.63"/>
</g>
<!-- Node9&#45;&gt;Node5 -->
<g id="edge11" class="edge">
<title>Node9&#45;&gt;Node5</title>
<path fill="none" stroke="midnightblue" d="M255.46,-201.23C244.82,-190.9 226.92,-173.54 213.82,-160.83"/>
<polygon fill="midnightblue" stroke="midnightblue" points="216.01,-158.08 206.39,-153.63 211.13,-163.1 216.01,-158.08"/>
</g>
<!-- Node10&#45;&gt;Node5 -->
<g id="edge13" class="edge">
<title>Node10&#45;&gt;Node5</title>
<path fill="none" stroke="midnightblue" d="M47.47,-201.37C77.67,-190.02 130.9,-170.02 165.16,-157.15"/>
<polygon fill="midnightblue" stroke="midnightblue" points="166.58,-160.36 174.71,-153.56 164.12,-153.8 166.58,-160.36"/>
</g>
<!-- Node11&#45;&gt;Node5 -->
<g id="edge15" class="edge">
<title>Node11&#45;&gt;Node5</title>
<path fill="none" stroke="midnightblue" d="M105.8,-201.23C123.52,-190.37 153.93,-171.72 174.84,-158.89"/>
<polygon fill="midnightblue" stroke="midnightblue" points="176.74,-161.84 183.43,-153.63 173.08,-155.87 176.74,-161.84"/>
</g>
<!-- Node13 -->
<g id="node13" class="node">
<title>Node13</title>
<g id="a_node13"><a xlink:href="context_8hpp.html" target="_top" xlink:title="This file defines the context (registers) of the CPU.">
<polygon fill="none" stroke="black" points="408.5,-134.5 408.5,-153.5 560.5,-153.5 560.5,-134.5 408.5,-134.5"/>
<text text-anchor="middle" x="484.5" y="-141.5" font-family="Helvetica,sans-Serif" font-size="10.00">../arm1176jzf_s/context.hpp</text>
</a>
</g>
</g>
<!-- Node12&#45;&gt;Node13 -->
<g id="edge18" class="edge">
<title>Node12&#45;&gt;Node13</title>
<path fill="none" stroke="midnightblue" d="M598.97,-201.37C576.49,-190.3 537.27,-170.99 511.1,-158.1"/>
<polygon fill="midnightblue" stroke="midnightblue" points="512.62,-154.94 502.1,-153.67 509.53,-161.22 512.62,-154.94"/>
</g>
<!-- Node14 -->
<g id="node14" class="node">
<title>Node14</title>
<g id="a_node14"><a xlink:href="coprocessor__register__transfer_8hpp.html" target="_top" xlink:title="This file defines a coprocessor register transfer (MRC, MCR).">
<polygon fill="none" stroke="black" points="774,-123.5 774,-164.5 895,-164.5 895,-123.5 774,-123.5"/>
<text text-anchor="start" x="782" y="-152.5" font-family="Helvetica,sans-Serif" font-size="10.00">../arm1176jzf_s/isa</text>
<text text-anchor="start" x="782" y="-141.5" font-family="Helvetica,sans-Serif" font-size="10.00">/coprocessor_register</text>
<text text-anchor="middle" x="834.5" y="-130.5" font-family="Helvetica,sans-Serif" font-size="10.00">_transfer.hpp</text>
</a>
</g>
</g>
<!-- Node12&#45;&gt;Node14 -->
<g id="edge20" class="edge">
<title>Node12&#45;&gt;Node14</title>
<path fill="none" stroke="midnightblue" d="M645.45,-201.37C675.52,-192.4 723.69,-178.04 763.89,-166.05"/>
<polygon fill="midnightblue" stroke="midnightblue" points="765.07,-169.35 773.65,-163.14 763.07,-162.65 765.07,-169.35"/>
</g>
<!-- Node16 -->
<g id="node16" class="node">
<title>Node16</title>
<g id="a_node16"><a xlink:href="coprocessor__data__transfer_8hpp.html" target="_top" xlink:title="This file defines a coprocessor data transfer (LDC, STC).">
<polygon fill="none" stroke="black" points="913,-129 913,-159 1082,-159 1082,-129 913,-129"/>
<text text-anchor="start" x="921" y="-147" font-family="Helvetica,sans-Serif" font-size="10.00">../arm1176jzf_s/isa</text>
<text text-anchor="middle" x="997.5" y="-136" font-family="Helvetica,sans-Serif" font-size="10.00">/coprocessor_data_transfer.hpp</text>
</a>
</g>
</g>
<!-- Node12&#45;&gt;Node16 -->
<g id="edge22" class="edge">
<title>Node12&#45;&gt;Node16</title>
<path fill="none" stroke="midnightblue" d="M668.68,-202.21C738.96,-191.66 860.34,-173.19 904.5,-165 911.05,-163.79 917.84,-162.46 924.63,-161.08"/>
<polygon fill="midnightblue" stroke="midnightblue" points="925.47,-164.48 934.56,-159.04 924.06,-157.63 925.47,-164.48"/>
</g>
<!-- Node17 -->
<g id="node17" class="node">
<title>Node17</title>
<g id="a_node17"><a xlink:href="coprocessor__data__operation_8hpp.html" target="_top" xlink:title="This file defines a coprocessor data operation (CDP).">
<polygon fill="none" stroke="black" points="578.5,-129 578.5,-159 756.5,-159 756.5,-129 578.5,-129"/>
<text text-anchor="start" x="586.5" y="-147" font-family="Helvetica,sans-Serif" font-size="10.00">../arm1176jzf_s/isa</text>
<text text-anchor="middle" x="667.5" y="-136" font-family="Helvetica,sans-Serif" font-size="10.00">/coprocessor_data_operation.hpp</text>
</a>
</g>
</g>
<!-- Node12&#45;&gt;Node17 -->
<g id="edge24" class="edge">
<title>Node12&#45;&gt;Node17</title>
<path fill="none" stroke="midnightblue" d="M623.38,-201.23C630.2,-192.53 640.94,-178.84 650.12,-167.15"/>
<polygon fill="midnightblue" stroke="midnightblue" points="653.03,-169.12 656.45,-159.09 647.52,-164.8 653.03,-169.12"/>
</g>
<!-- Node13&#45;&gt;Node6 -->
<g id="edge19" class="edge">
<title>Node13&#45;&gt;Node6</title>
<path fill="none" stroke="midnightblue" d="M469.42,-134.36C450.99,-123.79 419.26,-105.61 394.96,-91.68"/>
<polygon fill="midnightblue" stroke="midnightblue" points="396.47,-88.51 386.06,-86.58 392.99,-94.59 396.47,-88.51"/>
</g>
<!-- Node15 -->
<g id="node15" class="node">
<title>Node15</title>
<g id="a_node15"><a xlink:href="instruction_8hpp.html" target="_top" xlink:title="This file defines the interface of a general ARM instruction.">
<polygon fill="none" stroke="black" points="790,-62 790,-81 879,-81 879,-62 790,-62"/>
<text text-anchor="middle" x="834.5" y="-69" font-family="Helvetica,sans-Serif" font-size="10.00">instruction.hpp</text>
</a>
</g>
</g>
<!-- Node14&#45;&gt;Node15 -->
<g id="edge21" class="edge">
<title>Node14&#45;&gt;Node15</title>
<path fill="none" stroke="midnightblue" d="M834.5,-123.36C834.5,-113.3 834.5,-101.1 834.5,-91.18"/>
<polygon fill="midnightblue" stroke="midnightblue" points="838,-91.17 834.5,-81.17 831,-91.17 838,-91.17"/>
</g>
<!-- Node16&#45;&gt;Node15 -->
<g id="edge23" class="edge">
<title>Node16&#45;&gt;Node15</title>
<path fill="none" stroke="midnightblue" d="M964.91,-128.9C935.32,-116.11 892.09,-97.41 863.63,-85.1"/>
<polygon fill="midnightblue" stroke="midnightblue" points="864.8,-81.79 854.23,-81.03 862.02,-88.22 864.8,-81.79"/>
</g>
<!-- Node17&#45;&gt;Node15 -->
<g id="edge25" class="edge">
<title>Node17&#45;&gt;Node15</title>
<path fill="none" stroke="midnightblue" d="M700.89,-128.9C731.34,-116.05 775.88,-97.24 805.03,-84.94"/>
<polygon fill="midnightblue" stroke="midnightblue" points="806.43,-88.15 814.29,-81.03 803.71,-81.7 806.43,-88.15"/>
</g>
<!-- Node19&#45;&gt;Node13 -->
<g id="edge30" class="edge">
<title>Node19&#45;&gt;Node13</title>
<path fill="none" stroke="midnightblue" d="M484.5,-257.3C484.5,-237.85 484.5,-190.49 484.5,-163.9"/>
<polygon fill="midnightblue" stroke="midnightblue" points="488,-163.62 484.5,-153.62 481,-163.62 488,-163.62"/>
</g>
<!-- Node20 -->
<g id="node20" class="node">
<title>Node20</title>
<g id="a_node20"><a xlink:title=" ">
<polygon fill="none" stroke="#bfbfbf" points="687,-201.5 687,-220.5 766,-220.5 766,-201.5 687,-201.5"/>
<text text-anchor="middle" x="726.5" y="-208.5" font-family="Helvetica,sans-Serif" font-size="10.00">fmt/format.h</text>
</a>
</g>
</g>
<!-- Node19&#45;&gt;Node20 -->
<g id="edge29" class="edge">
<title>Node19&#45;&gt;Node20</title>
<path fill="none" stroke="midnightblue" d="M522.85,-257.44C564.97,-248.04 632.71,-232.93 678.37,-222.74"/>
<polygon fill="midnightblue" stroke="midnightblue" points="679.34,-226.11 688.33,-220.52 677.81,-219.28 679.34,-226.11"/>
</g>
</g>
</svg>
