<?xml version="1.0" encoding="UTF-8" standalone="no"?>
<!DOCTYPE svg PUBLIC "-//W3C//DTD SVG 1.1//EN"
 "http://www.w3.org/Graphics/SVG/1.1/DTD/svg11.dtd">
<!-- Generated by graphviz version 2.43.0 (0)
 -->
<!-- Title: src/core/arm1176jzf_s/exceptions.hpp Pages: 1 -->
<svg width="627pt" height="207pt"
 viewBox="0.00 0.00 627.00 207.00" xmlns="http://www.w3.org/2000/svg" xmlns:xlink="http://www.w3.org/1999/xlink">
<g id="graph0" class="graph" transform="scale(1 1) rotate(0) translate(4 203)">
<title>src/core/arm1176jzf_s/exceptions.hpp</title>
<!-- Node1 -->
<g id="node1" class="node">
<title>Node1</title>
<g id="a_node1"><a xlink:title=" ">
<polygon fill="#bfbfbf" stroke="black" points="66,-168.5 66,-198.5 179,-198.5 179,-168.5 66,-168.5"/>
<text text-anchor="start" x="74" y="-186.5" font-family="Helvetica,sans-Serif" font-size="10.00">src/core/arm1176jzf</text>
<text text-anchor="middle" x="122.5" y="-175.5" font-family="Helvetica,sans-Serif" font-size="10.00">_s/exceptions.hpp</text>
</a>
</g>
</g>
<!-- Node2 -->
<g id="node2" class="node">
<title>Node2</title>
<g id="a_node2"><a xlink:title=" ">
<polygon fill="none" stroke="#bfbfbf" points="0,-112.5 0,-131.5 65,-131.5 65,-112.5 0,-112.5"/>
<text text-anchor="middle" x="32.5" y="-119.5" font-family="Helvetica,sans-Serif" font-size="10.00">stdexcept</text>
</a>
</g>
</g>
<!-- Node1&#45;&gt;Node2 -->
<g id="edge1" class="edge">
<title>Node1&#45;&gt;Node2</title>
<path fill="none" stroke="midnightblue" d="M101.17,-168.4C87.01,-159.04 68.49,-146.79 54.25,-137.38"/>
<polygon fill="midnightblue" stroke="midnightblue" points="55.87,-134.25 45.6,-131.66 52.01,-140.09 55.87,-134.25"/>
</g>
<!-- Node3 -->
<g id="node3" class="node">
<title>Node3</title>
<g id="a_node3"><a xlink:title=" ">
<polygon fill="none" stroke="#bfbfbf" points="83,-112.5 83,-131.5 162,-131.5 162,-112.5 83,-112.5"/>
<text text-anchor="middle" x="122.5" y="-119.5" font-family="Helvetica,sans-Serif" font-size="10.00">fmt/format.h</text>
</a>
</g>
</g>
<!-- Node1&#45;&gt;Node3 -->
<g id="edge2" class="edge">
<title>Node1&#45;&gt;Node3</title>
<path fill="none" stroke="midnightblue" d="M122.5,-168.4C122.5,-160.47 122.5,-150.46 122.5,-141.86"/>
<polygon fill="midnightblue" stroke="midnightblue" points="126,-141.66 122.5,-131.66 119,-141.66 126,-141.66"/>
</g>
<!-- Node4 -->
<g id="node4" class="node">
<title>Node4</title>
<g id="a_node4"><a xlink:href="context_8hpp.html" target="_top" xlink:title=" ">
<polygon fill="none" stroke="black" points="180.5,-112.5 180.5,-131.5 254.5,-131.5 254.5,-112.5 180.5,-112.5"/>
<text text-anchor="middle" x="217.5" y="-119.5" font-family="Helvetica,sans-Serif" font-size="10.00">context.hpp</text>
</a>
</g>
</g>
<!-- Node1&#45;&gt;Node4 -->
<g id="edge3" class="edge">
<title>Node1&#45;&gt;Node4</title>
<path fill="none" stroke="midnightblue" d="M145.01,-168.4C160.1,-158.95 179.89,-146.56 194.97,-137.11"/>
<polygon fill="midnightblue" stroke="midnightblue" points="197.06,-139.93 203.68,-131.66 193.34,-134 197.06,-139.93"/>
</g>
<!-- Node5 -->
<g id="node5" class="node">
<title>Node5</title>
<g id="a_node5"><a xlink:title=" ">
<polygon fill="none" stroke="#bfbfbf" points="110.5,-56.5 110.5,-75.5 152.5,-75.5 152.5,-56.5 110.5,-56.5"/>
<text text-anchor="middle" x="131.5" y="-63.5" font-family="Helvetica,sans-Serif" font-size="10.00">array</text>
</a>
</g>
</g>
<!-- Node4&#45;&gt;Node5 -->
<g id="edge4" class="edge">
<title>Node4&#45;&gt;Node5</title>
<path fill="none" stroke="midnightblue" d="M203.68,-112.32C190.27,-103.9 169.68,-90.97 153.91,-81.07"/>
<polygon fill="midnightblue" stroke="midnightblue" points="155.61,-78.01 145.28,-75.65 151.89,-83.94 155.61,-78.01"/>
</g>
<!-- Node6 -->
<g id="node6" class="node">
<title>Node6</title>
<g id="a_node6"><a xlink:title=" ">
<polygon fill="none" stroke="#bfbfbf" points="157.5,-0.5 157.5,-19.5 207.5,-19.5 207.5,-0.5 157.5,-0.5"/>
<text text-anchor="middle" x="182.5" y="-7.5" font-family="Helvetica,sans-Serif" font-size="10.00">cstdint</text>
</a>
</g>
</g>
<!-- Node4&#45;&gt;Node6 -->
<g id="edge5" class="edge">
<title>Node4&#45;&gt;Node6</title>
<path fill="none" stroke="midnightblue" d="M213.73,-112.49C209.84,-103.53 203.76,-88.95 199.5,-76 194.42,-60.58 189.84,-42.7 186.71,-29.61"/>
<polygon fill="midnightblue" stroke="midnightblue" points="190.04,-28.46 184.37,-19.51 183.22,-30.04 190.04,-28.46"/>
</g>
<!-- Node7 -->
<g id="node7" class="node">
<title>Node7</title>
<g id="a_node7"><a xlink:title=" ">
<polygon fill="none" stroke="#bfbfbf" points="209,-56.5 209,-75.5 302,-75.5 302,-56.5 209,-56.5"/>
<text text-anchor="middle" x="255.5" y="-63.5" font-family="Helvetica,sans-Serif" font-size="10.00">unordered_map</text>
</a>
</g>
</g>
<!-- Node4&#45;&gt;Node7 -->
<g id="edge6" class="edge">
<title>Node4&#45;&gt;Node7</title>
<path fill="none" stroke="midnightblue" d="M223.77,-112.08C229.14,-104.46 237.02,-93.26 243.58,-83.94"/>
<polygon fill="midnightblue" stroke="midnightblue" points="246.45,-85.94 249.34,-75.75 240.72,-81.91 246.45,-85.94"/>
</g>
<!-- Node8 -->
<g id="node8" class="node">
<title>Node8</title>
<g id="a_node8"><a xlink:href="logger_8hpp.html" target="_top" xlink:title=" ">
<polygon fill="none" stroke="black" points="320.5,-56.5 320.5,-75.5 454.5,-75.5 454.5,-56.5 320.5,-56.5"/>
<text text-anchor="middle" x="387.5" y="-63.5" font-family="Helvetica,sans-Serif" font-size="10.00">../utils/logger/logger.hpp</text>
</a>
</g>
</g>
<!-- Node4&#45;&gt;Node8 -->
<g id="edge7" class="edge">
<title>Node4&#45;&gt;Node8</title>
<path fill="none" stroke="midnightblue" d="M244.44,-112.44C273.16,-103.32 318.83,-88.81 350.82,-78.65"/>
<polygon fill="midnightblue" stroke="midnightblue" points="352.22,-81.88 360.69,-75.52 350.1,-75.21 352.22,-81.88"/>
</g>
<!-- Node8&#45;&gt;Node6 -->
<g id="edge11" class="edge">
<title>Node8&#45;&gt;Node6</title>
<path fill="none" stroke="midnightblue" d="M355.02,-56.44C317.5,-46.56 256.01,-30.36 217.47,-20.21"/>
<polygon fill="midnightblue" stroke="midnightblue" points="218.28,-16.81 207.72,-17.64 216.5,-23.58 218.28,-16.81"/>
</g>
<!-- Node9 -->
<g id="node9" class="node">
<title>Node9</title>
<g id="a_node9"><a xlink:title=" ">
<polygon fill="none" stroke="#bfbfbf" points="226.5,-0.5 226.5,-19.5 274.5,-19.5 274.5,-0.5 226.5,-0.5"/>
<text text-anchor="middle" x="250.5" y="-7.5" font-family="Helvetica,sans-Serif" font-size="10.00">mutex</text>
</a>
</g>
</g>
<!-- Node8&#45;&gt;Node9 -->
<g id="edge8" class="edge">
<title>Node8&#45;&gt;Node9</title>
<path fill="none" stroke="midnightblue" d="M365.79,-56.44C343.15,-47.52 307.43,-33.44 281.75,-23.32"/>
<polygon fill="midnightblue" stroke="midnightblue" points="282.69,-19.93 272.11,-19.52 280.13,-26.44 282.69,-19.93"/>
</g>
<!-- Node10 -->
<g id="node10" class="node">
<title>Node10</title>
<g id="a_node10"><a xlink:title=" ">
<polygon fill="none" stroke="#bfbfbf" points="293,-0.5 293,-19.5 340,-19.5 340,-0.5 293,-0.5"/>
<text text-anchor="middle" x="316.5" y="-7.5" font-family="Helvetica,sans-Serif" font-size="10.00">vector</text>
</a>
</g>
</g>
<!-- Node8&#45;&gt;Node10 -->
<g id="edge9" class="edge">
<title>Node8&#45;&gt;Node10</title>
<path fill="none" stroke="midnightblue" d="M376.09,-56.32C365.39,-48.18 349.16,-35.84 336.34,-26.09"/>
<polygon fill="midnightblue" stroke="midnightblue" points="338.19,-23.1 328.11,-19.83 333.96,-28.67 338.19,-23.1"/>
</g>
<!-- Node11 -->
<g id="node11" class="node">
<title>Node11</title>
<g id="a_node11"><a xlink:title=" ">
<polygon fill="none" stroke="#bfbfbf" points="358.5,-0.5 358.5,-19.5 416.5,-19.5 416.5,-0.5 358.5,-0.5"/>
<text text-anchor="middle" x="387.5" y="-7.5" font-family="Helvetica,sans-Serif" font-size="10.00">memory</text>
</a>
</g>
</g>
<!-- Node8&#45;&gt;Node11 -->
<g id="edge10" class="edge">
<title>Node8&#45;&gt;Node11</title>
<path fill="none" stroke="midnightblue" d="M387.5,-56.08C387.5,-49.01 387.5,-38.86 387.5,-29.99"/>
<polygon fill="midnightblue" stroke="midnightblue" points="391,-29.75 387.5,-19.75 384,-29.75 391,-29.75"/>
</g>
<!-- Node12 -->
<g id="node12" class="node">
<title>Node12</title>
<g id="a_node12"><a xlink:title=" ">
<polygon fill="none" stroke="#bfbfbf" points="435,-0.5 435,-19.5 508,-19.5 508,-0.5 435,-0.5"/>
<text text-anchor="middle" x="471.5" y="-7.5" font-family="Helvetica,sans-Serif" font-size="10.00">string_view</text>
</a>
</g>
</g>
<!-- Node8&#45;&gt;Node12 -->
<g id="edge12" class="edge">
<title>Node8&#45;&gt;Node12</title>
<path fill="none" stroke="midnightblue" d="M401,-56.32C414.1,-47.9 434.21,-34.97 449.61,-25.07"/>
<polygon fill="midnightblue" stroke="midnightblue" points="451.52,-28.01 458.04,-19.65 447.73,-22.12 451.52,-28.01"/>
</g>
<!-- Node13 -->
<g id="node13" class="node">
<title>Node13</title>
<g id="a_node13"><a xlink:title=" ">
<polygon fill="none" stroke="#bfbfbf" points="526,-0.5 526,-19.5 619,-19.5 619,-0.5 526,-0.5"/>
<text text-anchor="middle" x="572.5" y="-7.5" font-family="Helvetica,sans-Serif" font-size="10.00">source_location</text>
</a>
</g>
</g>
<!-- Node8&#45;&gt;Node13 -->
<g id="edge13" class="edge">
<title>Node8&#45;&gt;Node13</title>
<path fill="none" stroke="midnightblue" d="M416.81,-56.44C448.34,-47.24 498.63,-32.56 533.49,-22.39"/>
<polygon fill="midnightblue" stroke="midnightblue" points="534.7,-25.68 543.32,-19.52 532.74,-18.96 534.7,-25.68"/>
</g>
</g>
</svg>
