<?xml version="1.0" encoding="UTF-8" standalone="no"?>
<!DOCTYPE svg PUBLIC "-//W3C//DTD SVG 1.1//EN"
 "http://www.w3.org/Graphics/SVG/1.1/DTD/svg11.dtd">
<!-- Generated by graphviz version 2.43.0 (0)
 -->
<!-- Title: src/core/arm1176jzf_s/exceptions.hpp Pages: 1 -->
<svg width="860pt" height="307pt"
 viewBox="0.00 0.00 860.00 307.00" xmlns="http://www.w3.org/2000/svg" xmlns:xlink="http://www.w3.org/1999/xlink">
<g id="graph0" class="graph" transform="scale(1 1) rotate(0) translate(4 303)">
<title>src/core/arm1176jzf_s/exceptions.hpp</title>
<!-- Node1 -->
<g id="node1" class="node">
<title>Node1</title>
<g id="a_node1"><a xlink:title="This file defines all exceptions that can be thrown by the CPU during execution.">
<polygon fill="#bfbfbf" stroke="black" points="417,-268.5 417,-298.5 530,-298.5 530,-268.5 417,-268.5"/>
<text text-anchor="start" x="425" y="-286.5" font-family="Helvetica,sans-Serif" font-size="10.00">src/core/arm1176jzf</text>
<text text-anchor="middle" x="473.5" y="-275.5" font-family="Helvetica,sans-Serif" font-size="10.00">_s/exceptions.hpp</text>
</a>
</g>
</g>
<!-- Node2 -->
<g id="node2" class="node">
<title>Node2</title>
<g id="a_node2"><a xlink:href="context_8cpp.html" target="_top" xlink:title="This file implements the context (registers) of the CPU.">
<polygon fill="none" stroke="black" points="294,-201.5 294,-231.5 407,-231.5 407,-201.5 294,-201.5"/>
<text text-anchor="start" x="302" y="-219.5" font-family="Helvetica,sans-Serif" font-size="10.00">src/core/arm1176jzf</text>
<text text-anchor="middle" x="350.5" y="-208.5" font-family="Helvetica,sans-Serif" font-size="10.00">_s/context.cpp</text>
</a>
</g>
</g>
<!-- Node1&#45;&gt;Node2 -->
<g id="edge1" class="edge">
<title>Node1&#45;&gt;Node2</title>
<path fill="none" stroke="midnightblue" d="M437.95,-263.71C418.55,-253.46 394.94,-240.98 377.14,-231.58"/>
<polygon fill="midnightblue" stroke="midnightblue" points="436.33,-266.82 446.81,-268.4 439.6,-260.63 436.33,-266.82"/>
</g>
<!-- Node3 -->
<g id="node3" class="node">
<title>Node3</title>
<g id="a_node3"><a xlink:href="core_8hpp.html" target="_top" xlink:title="This file defines a class that represents a CPU core (arm1176jzf_s).">
<polygon fill="none" stroke="black" points="370,-134.5 370,-164.5 483,-164.5 483,-134.5 370,-134.5"/>
<text text-anchor="start" x="378" y="-152.5" font-family="Helvetica,sans-Serif" font-size="10.00">src/core/arm1176jzf</text>
<text text-anchor="middle" x="426.5" y="-141.5" font-family="Helvetica,sans-Serif" font-size="10.00">_s/core.hpp</text>
</a>
</g>
</g>
<!-- Node1&#45;&gt;Node3 -->
<g id="edge2" class="edge">
<title>Node1&#45;&gt;Node3</title>
<path fill="none" stroke="midnightblue" d="M464.42,-258.8C461.23,-250.36 457.66,-240.77 454.5,-232 446.04,-208.49 436.7,-180.97 431.23,-164.68"/>
<polygon fill="midnightblue" stroke="midnightblue" points="461.24,-260.29 468.07,-268.39 467.79,-257.8 461.24,-260.29"/>
</g>
<!-- Node14 -->
<g id="node14" class="node">
<title>Node14</title>
<g id="a_node14"><a xlink:href="exceptions_8cpp.html" target="_top" xlink:title="This file implements all exceptions that can be thrown by the CPU during execution.">
<polygon fill="none" stroke="black" points="578,-201.5 578,-231.5 691,-231.5 691,-201.5 578,-201.5"/>
<text text-anchor="start" x="586" y="-219.5" font-family="Helvetica,sans-Serif" font-size="10.00">src/core/arm1176jzf</text>
<text text-anchor="middle" x="634.5" y="-208.5" font-family="Helvetica,sans-Serif" font-size="10.00">_s/exceptions.cpp</text>
</a>
</g>
</g>
<!-- Node1&#45;&gt;Node14 -->
<g id="edge16" class="edge">
<title>Node1&#45;&gt;Node14</title>
<path fill="none" stroke="midnightblue" d="M517.98,-264.54C543.74,-254.14 575.7,-241.24 599.63,-231.58"/>
<polygon fill="midnightblue" stroke="midnightblue" points="516.4,-261.41 508.43,-268.4 519.02,-267.9 516.4,-261.41"/>
</g>
<!-- Node15 -->
<g id="node15" class="node">
<title>Node15</title>
<g id="a_node15"><a xlink:href="bus_8hpp.html" target="_top" xlink:title="This file defines an interface the CPU uses to access different memory&#45;mapped peripherals.">
<polygon fill="none" stroke="black" points="463.5,-207 463.5,-226 559.5,-226 559.5,-207 463.5,-207"/>
<text text-anchor="middle" x="511.5" y="-214" font-family="Helvetica,sans-Serif" font-size="10.00">src/core/bus.hpp</text>
</a>
</g>
</g>
<!-- Node1&#45;&gt;Node15 -->
<g id="edge17" class="edge">
<title>Node1&#45;&gt;Node15</title>
<path fill="none" stroke="midnightblue" d="M486.87,-259.63C493.63,-248.07 501.44,-234.71 506.42,-226.19"/>
<polygon fill="midnightblue" stroke="midnightblue" points="483.77,-258 481.75,-268.4 489.81,-261.53 483.77,-258"/>
</g>
<!-- Node4 -->
<g id="node4" class="node">
<title>Node4</title>
<g id="a_node4"><a xlink:href="core_8cpp.html" target="_top" xlink:title="This file implements the CCPU_Core class defined in core.hpp.">
<polygon fill="none" stroke="black" points="0,-67.5 0,-97.5 113,-97.5 113,-67.5 0,-67.5"/>
<text text-anchor="start" x="8" y="-85.5" font-family="Helvetica,sans-Serif" font-size="10.00">src/core/arm1176jzf</text>
<text text-anchor="middle" x="56.5" y="-74.5" font-family="Helvetica,sans-Serif" font-size="10.00">_s/core.cpp</text>
</a>
</g>
</g>
<!-- Node3&#45;&gt;Node4 -->
<g id="edge3" class="edge">
<title>Node3&#45;&gt;Node4</title>
<path fill="none" stroke="midnightblue" d="M359.76,-138.43C298.05,-128.87 203.86,-113.68 122.5,-98 119.5,-97.42 116.44,-96.81 113.34,-96.18"/>
<polygon fill="midnightblue" stroke="midnightblue" points="359.34,-141.9 369.76,-139.97 360.41,-134.99 359.34,-141.9"/>
</g>
<!-- Node5 -->
<g id="node5" class="node">
<title>Node5</title>
<g id="a_node5"><a xlink:href="control__window_8hpp.html" target="_top" xlink:title=" ">
<polygon fill="none" stroke="black" points="290,-67.5 290,-97.5 421,-97.5 421,-67.5 290,-67.5"/>
<text text-anchor="start" x="298" y="-85.5" font-family="Helvetica,sans-Serif" font-size="10.00">src/gui/windows/control</text>
<text text-anchor="middle" x="355.5" y="-74.5" font-family="Helvetica,sans-Serif" font-size="10.00">_window.hpp</text>
</a>
</g>
</g>
<!-- Node3&#45;&gt;Node5 -->
<g id="edge4" class="edge">
<title>Node3&#45;&gt;Node5</title>
<path fill="none" stroke="midnightblue" d="M403.67,-127.6C392.95,-117.78 380.45,-106.34 370.88,-97.58"/>
<polygon fill="midnightblue" stroke="midnightblue" points="401.35,-130.22 411.09,-134.4 406.08,-125.06 401.35,-130.22"/>
</g>
<!-- Node8 -->
<g id="node8" class="node">
<title>Node8</title>
<g id="a_node8"><a xlink:href="file__window_8hpp.html" target="_top" xlink:title=" ">
<polygon fill="none" stroke="black" points="439,-67.5 439,-97.5 552,-97.5 552,-67.5 439,-67.5"/>
<text text-anchor="start" x="447" y="-85.5" font-family="Helvetica,sans-Serif" font-size="10.00">src/gui/windows/file</text>
<text text-anchor="middle" x="495.5" y="-74.5" font-family="Helvetica,sans-Serif" font-size="10.00">_window.hpp</text>
</a>
</g>
</g>
<!-- Node3&#45;&gt;Node8 -->
<g id="edge7" class="edge">
<title>Node3&#45;&gt;Node8</title>
<path fill="none" stroke="midnightblue" d="M448.99,-127.31C459.34,-117.56 471.34,-106.26 480.56,-97.58"/>
<polygon fill="midnightblue" stroke="midnightblue" points="446.35,-124.99 441.47,-134.4 451.15,-130.09 446.35,-124.99"/>
</g>
<!-- Node10 -->
<g id="node10" class="node">
<title>Node10</title>
<g id="a_node10"><a xlink:href="registers__window_8hpp.html" target="_top" xlink:title=" ">
<polygon fill="none" stroke="black" points="131.5,-67.5 131.5,-97.5 271.5,-97.5 271.5,-67.5 131.5,-67.5"/>
<text text-anchor="start" x="139.5" y="-85.5" font-family="Helvetica,sans-Serif" font-size="10.00">src/gui/windows/registers</text>
<text text-anchor="middle" x="201.5" y="-74.5" font-family="Helvetica,sans-Serif" font-size="10.00">_window.hpp</text>
</a>
</g>
</g>
<!-- Node3&#45;&gt;Node10 -->
<g id="edge10" class="edge">
<title>Node3&#45;&gt;Node10</title>
<path fill="none" stroke="midnightblue" d="M367.93,-131.58C331.39,-121.02 284.9,-107.59 250.35,-97.61"/>
<polygon fill="midnightblue" stroke="midnightblue" points="367.38,-135.06 377.96,-134.48 369.32,-128.34 367.38,-135.06"/>
</g>
<!-- Node12 -->
<g id="node12" class="node">
<title>Node12</title>
<g id="a_node12"><a xlink:href="source__code__window_8hpp.html" target="_top" xlink:title=" ">
<polygon fill="none" stroke="black" points="570.5,-67.5 570.5,-97.5 700.5,-97.5 700.5,-67.5 570.5,-67.5"/>
<text text-anchor="start" x="578.5" y="-85.5" font-family="Helvetica,sans-Serif" font-size="10.00">src/gui/windows/source</text>
<text text-anchor="middle" x="635.5" y="-74.5" font-family="Helvetica,sans-Serif" font-size="10.00">_code_window.hpp</text>
</a>
</g>
</g>
<!-- Node3&#45;&gt;Node12 -->
<g id="edge13" class="edge">
<title>Node3&#45;&gt;Node12</title>
<path fill="none" stroke="midnightblue" d="M481.34,-131.44C515.22,-120.91 558.17,-107.55 590.13,-97.61"/>
<polygon fill="midnightblue" stroke="midnightblue" points="480.1,-128.16 471.59,-134.48 482.18,-134.85 480.1,-128.16"/>
</g>
<!-- Node6 -->
<g id="node6" class="node">
<title>Node6</title>
<g id="a_node6"><a xlink:href="gui_8cpp.html" target="_top" xlink:title=" ">
<polygon fill="none" stroke="black" points="427,-6 427,-25 514,-25 514,-6 427,-6"/>
<text text-anchor="middle" x="470.5" y="-13" font-family="Helvetica,sans-Serif" font-size="10.00">src/gui/gui.cpp</text>
</a>
</g>
</g>
<!-- Node5&#45;&gt;Node6 -->
<g id="edge5" class="edge">
<title>Node5&#45;&gt;Node6</title>
<path fill="none" stroke="midnightblue" d="M389.16,-62.47C411.12,-50.06 438.7,-34.47 455.45,-25.01"/>
<polygon fill="midnightblue" stroke="midnightblue" points="387.44,-59.43 380.45,-67.4 390.88,-65.52 387.44,-59.43"/>
</g>
<!-- Node7 -->
<g id="node7" class="node">
<title>Node7</title>
<g id="a_node7"><a xlink:href="control__window_8cpp.html" target="_top" xlink:title=" ">
<polygon fill="none" stroke="black" points="278,-0.5 278,-30.5 409,-30.5 409,-0.5 278,-0.5"/>
<text text-anchor="start" x="286" y="-18.5" font-family="Helvetica,sans-Serif" font-size="10.00">src/gui/windows/control</text>
<text text-anchor="middle" x="343.5" y="-7.5" font-family="Helvetica,sans-Serif" font-size="10.00">_window.cpp</text>
</a>
</g>
</g>
<!-- Node5&#45;&gt;Node7 -->
<g id="edge6" class="edge">
<title>Node5&#45;&gt;Node7</title>
<path fill="none" stroke="midnightblue" d="M351.05,-57.4C349.38,-48.37 347.54,-38.41 346.1,-30.58"/>
<polygon fill="midnightblue" stroke="midnightblue" points="347.64,-58.2 352.9,-67.4 354.52,-56.93 347.64,-58.2"/>
</g>
<!-- Node8&#45;&gt;Node6 -->
<g id="edge8" class="edge">
<title>Node8&#45;&gt;Node6</title>
<path fill="none" stroke="midnightblue" d="M486.44,-57.94C482.05,-46.54 477.06,-33.55 473.84,-25.19"/>
<polygon fill="midnightblue" stroke="midnightblue" points="483.22,-59.32 490.08,-67.4 489.75,-56.81 483.22,-59.32"/>
</g>
<!-- Node9 -->
<g id="node9" class="node">
<title>Node9</title>
<g id="a_node9"><a xlink:href="file__window_8cpp.html" target="_top" xlink:title=" ">
<polygon fill="none" stroke="black" points="532,-0.5 532,-30.5 645,-30.5 645,-0.5 532,-0.5"/>
<text text-anchor="start" x="540" y="-18.5" font-family="Helvetica,sans-Serif" font-size="10.00">src/gui/windows/file</text>
<text text-anchor="middle" x="588.5" y="-7.5" font-family="Helvetica,sans-Serif" font-size="10.00">_window.cpp</text>
</a>
</g>
</g>
<!-- Node8&#45;&gt;Node9 -->
<g id="edge9" class="edge">
<title>Node8&#45;&gt;Node9</title>
<path fill="none" stroke="midnightblue" d="M524.19,-61.45C538.49,-51.45 555.45,-39.6 568.36,-30.58"/>
<polygon fill="midnightblue" stroke="midnightblue" points="521.87,-58.8 515.68,-67.4 525.88,-64.54 521.87,-58.8"/>
</g>
<!-- Node10&#45;&gt;Node6 -->
<g id="edge11" class="edge">
<title>Node10&#45;&gt;Node6</title>
<path fill="none" stroke="midnightblue" d="M275.18,-65.19C317.27,-55.66 370.97,-43.15 418.5,-31 425.76,-29.14 433.57,-27.03 440.86,-25"/>
<polygon fill="midnightblue" stroke="midnightblue" points="274.28,-61.8 265.29,-67.42 275.82,-68.63 274.28,-61.8"/>
</g>
<!-- Node11 -->
<g id="node11" class="node">
<title>Node11</title>
<g id="a_node11"><a xlink:href="registers__window_8cpp.html" target="_top" xlink:title=" ">
<polygon fill="none" stroke="black" points="119.5,-0.5 119.5,-30.5 259.5,-30.5 259.5,-0.5 119.5,-0.5"/>
<text text-anchor="start" x="127.5" y="-18.5" font-family="Helvetica,sans-Serif" font-size="10.00">src/gui/windows/registers</text>
<text text-anchor="middle" x="189.5" y="-7.5" font-family="Helvetica,sans-Serif" font-size="10.00">_window.cpp</text>
</a>
</g>
</g>
<!-- Node10&#45;&gt;Node11 -->
<g id="edge12" class="edge">
<title>Node10&#45;&gt;Node11</title>
<path fill="none" stroke="midnightblue" d="M197.05,-57.4C195.38,-48.37 193.54,-38.41 192.1,-30.58"/>
<polygon fill="midnightblue" stroke="midnightblue" points="193.64,-58.2 198.9,-67.4 200.52,-56.93 193.64,-58.2"/>
</g>
<!-- Node12&#45;&gt;Node6 -->
<g id="edge14" class="edge">
<title>Node12&#45;&gt;Node6</title>
<path fill="none" stroke="midnightblue" d="M590.12,-63.62C558.18,-51.04 516.87,-34.77 492.09,-25.01"/>
<polygon fill="midnightblue" stroke="midnightblue" points="589.11,-66.99 599.7,-67.4 591.68,-60.47 589.11,-66.99"/>
</g>
<!-- Node13 -->
<g id="node13" class="node">
<title>Node13</title>
<g id="a_node13"><a xlink:href="source__code__window_8cpp.html" target="_top" xlink:title=" ">
<polygon fill="none" stroke="black" points="663.5,-0.5 663.5,-30.5 793.5,-30.5 793.5,-0.5 663.5,-0.5"/>
<text text-anchor="start" x="671.5" y="-18.5" font-family="Helvetica,sans-Serif" font-size="10.00">src/gui/windows/source</text>
<text text-anchor="middle" x="728.5" y="-7.5" font-family="Helvetica,sans-Serif" font-size="10.00">_code_window.cpp</text>
</a>
</g>
</g>
<!-- Node12&#45;&gt;Node13 -->
<g id="edge15" class="edge">
<title>Node12&#45;&gt;Node13</title>
<path fill="none" stroke="midnightblue" d="M664.19,-61.45C678.49,-51.45 695.45,-39.6 708.36,-30.58"/>
<polygon fill="midnightblue" stroke="midnightblue" points="661.87,-58.8 655.68,-67.4 665.88,-64.54 661.87,-58.8"/>
</g>
<!-- Node15&#45;&gt;Node3 -->
<g id="edge18" class="edge">
<title>Node15&#45;&gt;Node3</title>
<path fill="none" stroke="midnightblue" d="M491.94,-200.54C477.79,-189.73 458.8,-175.2 444.92,-164.59"/>
<polygon fill="midnightblue" stroke="midnightblue" points="489.97,-203.44 500.04,-206.73 494.22,-197.88 489.97,-203.44"/>
</g>
<!-- Node15&#45;&gt;Node8 -->
<g id="edge25" class="edge">
<title>Node15&#45;&gt;Node8</title>
<path fill="none" stroke="midnightblue" d="M509.24,-196.89C506.01,-170.24 500.14,-121.8 497.23,-97.78"/>
<polygon fill="midnightblue" stroke="midnightblue" points="505.77,-197.33 510.45,-206.84 512.72,-196.49 505.77,-197.33"/>
</g>
<!-- Node16 -->
<g id="node16" class="node">
<title>Node16</title>
<g id="a_node16"><a xlink:href="bus_8cpp.html" target="_top" xlink:title="This file implements the interface defined in bus.hpp.">
<polygon fill="none" stroke="black" points="685,-140 685,-159 780,-159 780,-140 685,-140"/>
<text text-anchor="middle" x="732.5" y="-147" font-family="Helvetica,sans-Serif" font-size="10.00">src/core/bus.cpp</text>
</a>
</g>
</g>
<!-- Node15&#45;&gt;Node16 -->
<g id="edge19" class="edge">
<title>Node15&#45;&gt;Node16</title>
<path fill="none" stroke="midnightblue" d="M550.57,-204.01C594.31,-191.15 664.18,-170.59 703.38,-159.06"/>
<polygon fill="midnightblue" stroke="midnightblue" points="549.45,-200.69 540.85,-206.87 551.43,-207.4 549.45,-200.69"/>
</g>
<!-- Node17 -->
<g id="node17" class="node">
<title>Node17</title>
<g id="a_node17"><a xlink:href="elf__loader_8hpp.html" target="_top" xlink:title="This file defines the functionality of an ELF loader.">
<polygon fill="none" stroke="black" points="572,-134.5 572,-164.5 667,-164.5 667,-134.5 572,-134.5"/>
<text text-anchor="start" x="580" y="-152.5" font-family="Helvetica,sans-Serif" font-size="10.00">src/core/utils/elf</text>
<text text-anchor="middle" x="619.5" y="-141.5" font-family="Helvetica,sans-Serif" font-size="10.00">_loader.hpp</text>
</a>
</g>
</g>
<!-- Node15&#45;&gt;Node17 -->
<g id="edge20" class="edge">
<title>Node15&#45;&gt;Node17</title>
<path fill="none" stroke="midnightblue" d="M534.84,-201.45C552.95,-190.55 577.96,-175.5 596.09,-164.59"/>
<polygon fill="midnightblue" stroke="midnightblue" points="532.83,-198.58 526.07,-206.73 536.44,-204.58 532.83,-198.58"/>
</g>
<!-- Node17&#45;&gt;Node8 -->
<g id="edge22" class="edge">
<title>Node17&#45;&gt;Node8</title>
<path fill="none" stroke="midnightblue" d="M583.66,-129.71C564.11,-119.46 540.3,-106.98 522.35,-97.58"/>
<polygon fill="midnightblue" stroke="midnightblue" points="582.11,-132.85 592.59,-134.4 585.36,-126.65 582.11,-132.85"/>
</g>
<!-- Node17&#45;&gt;Node12 -->
<g id="edge24" class="edge">
<title>Node17&#45;&gt;Node12</title>
<path fill="none" stroke="midnightblue" d="M625.43,-124.4C627.66,-115.37 630.11,-105.41 632.04,-97.58"/>
<polygon fill="midnightblue" stroke="midnightblue" points="621.96,-123.85 622.97,-134.4 628.76,-125.52 621.96,-123.85"/>
</g>
<!-- Node17&#45;&gt;Node13 -->
<g id="edge23" class="edge">
<title>Node17&#45;&gt;Node13</title>
<path fill="none" stroke="midnightblue" d="M669.28,-129.91C684.17,-122.12 699.25,-111.64 709.5,-98 724.51,-78.02 727.93,-48.1 728.55,-30.61"/>
<polygon fill="midnightblue" stroke="midnightblue" points="667.52,-126.87 660.07,-134.41 670.59,-133.16 667.52,-126.87"/>
</g>
<!-- Node18 -->
<g id="node18" class="node">
<title>Node18</title>
<g id="a_node18"><a xlink:href="elf__loader_8cpp.html" target="_top" xlink:title="This file implements the functionality of an ELF loader defined in elf_loader.hpp.">
<polygon fill="none" stroke="black" points="757,-67.5 757,-97.5 852,-97.5 852,-67.5 757,-67.5"/>
<text text-anchor="start" x="765" y="-85.5" font-family="Helvetica,sans-Serif" font-size="10.00">src/core/utils/elf</text>
<text text-anchor="middle" x="804.5" y="-74.5" font-family="Helvetica,sans-Serif" font-size="10.00">_loader.cpp</text>
</a>
</g>
</g>
<!-- Node17&#45;&gt;Node18 -->
<g id="edge21" class="edge">
<title>Node17&#45;&gt;Node18</title>
<path fill="none" stroke="midnightblue" d="M669.44,-130.96C699.24,-120.48 736.57,-107.37 764.44,-97.58"/>
<polygon fill="midnightblue" stroke="midnightblue" points="667.92,-127.78 659.64,-134.4 670.24,-134.38 667.92,-127.78"/>
</g>
</g>
</svg>
