<?xml version="1.0" encoding="UTF-8" standalone="no"?>
<!DOCTYPE svg PUBLIC "-//W3C//DTD SVG 1.1//EN"
 "http://www.w3.org/Graphics/SVG/1.1/DTD/svg11.dtd">
<!-- Generated by graphviz version 2.43.0 (0)
 -->
<!-- Title: src/core/arm1176jzf_s/exceptions.hpp Pages: 1 -->
<svg width="216pt" height="207pt"
 viewBox="0.00 0.00 215.50 207.00" xmlns="http://www.w3.org/2000/svg" xmlns:xlink="http://www.w3.org/1999/xlink">
<g id="graph0" class="graph" transform="scale(1 1) rotate(0) translate(4 203)">
<title>src/core/arm1176jzf_s/exceptions.hpp</title>
<!-- Node1 -->
<g id="node1" class="node">
<title>Node1</title>
<g id="a_node1"><a xlink:title="This file defines all exceptions that can be thrown by the CPU during execution.">
<polygon fill="#bfbfbf" stroke="black" points="30,-168.5 30,-198.5 143,-198.5 143,-168.5 30,-168.5"/>
<text text-anchor="start" x="38" y="-186.5" font-family="Helvetica,sans-Serif" font-size="10.00">src/core/arm1176jzf</text>
<text text-anchor="middle" x="86.5" y="-175.5" font-family="Helvetica,sans-Serif" font-size="10.00">_s/exceptions.hpp</text>
</a>
</g>
</g>
<!-- Node2 -->
<g id="node2" class="node">
<title>Node2</title>
<g id="a_node2"><a xlink:title=" ">
<polygon fill="none" stroke="#bfbfbf" points="0,-112.5 0,-131.5 79,-131.5 79,-112.5 0,-112.5"/>
<text text-anchor="middle" x="39.5" y="-119.5" font-family="Helvetica,sans-Serif" font-size="10.00">fmt/format.h</text>
</a>
</g>
</g>
<!-- Node1&#45;&gt;Node2 -->
<g id="edge1" class="edge">
<title>Node1&#45;&gt;Node2</title>
<path fill="none" stroke="midnightblue" d="M75.36,-168.4C68.53,-159.75 59.76,-148.64 52.59,-139.58"/>
<polygon fill="midnightblue" stroke="midnightblue" points="55.28,-137.34 46.34,-131.66 49.79,-141.67 55.28,-137.34"/>
</g>
<!-- Node3 -->
<g id="node3" class="node">
<title>Node3</title>
<g id="a_node3"><a xlink:href="context_8hpp.html" target="_top" xlink:title="This file defines the context (registers) of the CPU.">
<polygon fill="none" stroke="black" points="97.5,-112.5 97.5,-131.5 171.5,-131.5 171.5,-112.5 97.5,-112.5"/>
<text text-anchor="middle" x="134.5" y="-119.5" font-family="Helvetica,sans-Serif" font-size="10.00">context.hpp</text>
</a>
</g>
</g>
<!-- Node1&#45;&gt;Node3 -->
<g id="edge2" class="edge">
<title>Node1&#45;&gt;Node3</title>
<path fill="none" stroke="midnightblue" d="M97.88,-168.4C104.85,-159.75 113.81,-148.64 121.13,-139.58"/>
<polygon fill="midnightblue" stroke="midnightblue" points="123.96,-141.64 127.52,-131.66 118.51,-137.24 123.96,-141.64"/>
</g>
<!-- Node4 -->
<g id="node4" class="node">
<title>Node4</title>
<g id="a_node4"><a xlink:href="logger_8hpp.html" target="_top" xlink:title="This file defines a general logger interface as well as a logging system that is used in the project.">
<polygon fill="none" stroke="black" points="61.5,-56.5 61.5,-75.5 207.5,-75.5 207.5,-56.5 61.5,-56.5"/>
<text text-anchor="middle" x="134.5" y="-63.5" font-family="Helvetica,sans-Serif" font-size="10.00">zero_mate/utils/logger.hpp</text>
</a>
</g>
</g>
<!-- Node3&#45;&gt;Node4 -->
<g id="edge3" class="edge">
<title>Node3&#45;&gt;Node4</title>
<path fill="none" stroke="midnightblue" d="M134.5,-112.08C134.5,-105.01 134.5,-94.86 134.5,-85.99"/>
<polygon fill="midnightblue" stroke="midnightblue" points="138,-85.75 134.5,-75.75 131,-85.75 138,-85.75"/>
</g>
<!-- Node5 -->
<g id="node5" class="node">
<title>Node5</title>
<g id="a_node5"><a xlink:href="api__export_8hpp.html" target="_top" xlink:title="This file defines macros for exporting symbols out of a shared library.">
<polygon fill="none" stroke="black" points="62.5,-0.5 62.5,-19.5 206.5,-19.5 206.5,-0.5 62.5,-0.5"/>
<text text-anchor="middle" x="134.5" y="-7.5" font-family="Helvetica,sans-Serif" font-size="10.00">zero_mate/api_export.hpp</text>
</a>
</g>
</g>
<!-- Node4&#45;&gt;Node5 -->
<g id="edge4" class="edge">
<title>Node4&#45;&gt;Node5</title>
<path fill="none" stroke="midnightblue" d="M134.5,-56.08C134.5,-49.01 134.5,-38.86 134.5,-29.99"/>
<polygon fill="midnightblue" stroke="midnightblue" points="138,-29.75 134.5,-19.75 131,-29.75 138,-29.75"/>
</g>
</g>
</svg>
