<?xml version="1.0" encoding="UTF-8" standalone="no"?>
<!DOCTYPE svg PUBLIC "-//W3C//DTD SVG 1.1//EN"
 "http://www.w3.org/Graphics/SVG/1.1/DTD/svg11.dtd">
<!-- Generated by graphviz version 2.43.0 (0)
 -->
<!-- Title: src/core/arm1176jzf_s/isa/extend.cpp Pages: 1 -->
<svg width="199pt" height="207pt"
 viewBox="0.00 0.00 199.00 207.00" xmlns="http://www.w3.org/2000/svg" xmlns:xlink="http://www.w3.org/1999/xlink">
<g id="graph0" class="graph" transform="scale(1 1) rotate(0) translate(4 203)">
<title>src/core/arm1176jzf_s/isa/extend.cpp</title>
<!-- Node1 -->
<g id="node1" class="node">
<title>Node1</title>
<g id="a_node1"><a xlink:title=" ">
<polygon fill="#bfbfbf" stroke="black" points="40,-168.5 40,-198.5 153,-198.5 153,-168.5 40,-168.5"/>
<text text-anchor="start" x="48" y="-186.5" font-family="Helvetica,sans-Serif" font-size="10.00">src/core/arm1176jzf</text>
<text text-anchor="middle" x="96.5" y="-175.5" font-family="Helvetica,sans-Serif" font-size="10.00">_s/isa/extend.cpp</text>
</a>
</g>
</g>
<!-- Node2 -->
<g id="node2" class="node">
<title>Node2</title>
<g id="a_node2"><a xlink:title=" ">
<polygon fill="none" stroke="#bfbfbf" points="0,-112.5 0,-131.5 93,-131.5 93,-112.5 0,-112.5"/>
<text text-anchor="middle" x="46.5" y="-119.5" font-family="Helvetica,sans-Serif" font-size="10.00">unordered_map</text>
</a>
</g>
</g>
<!-- Node1&#45;&gt;Node2 -->
<g id="edge1" class="edge">
<title>Node1&#45;&gt;Node2</title>
<path fill="none" stroke="midnightblue" d="M84.65,-168.4C77.39,-159.75 68.05,-148.64 60.43,-139.58"/>
<polygon fill="midnightblue" stroke="midnightblue" points="62.89,-137.06 53.78,-131.66 57.53,-141.57 62.89,-137.06"/>
</g>
<!-- Node3 -->
<g id="node3" class="node">
<title>Node3</title>
<g id="a_node3"><a xlink:href="extend_8hpp.html" target="_top" xlink:title=" ">
<polygon fill="none" stroke="black" points="111,-112.5 111,-131.5 182,-131.5 182,-112.5 111,-112.5"/>
<text text-anchor="middle" x="146.5" y="-119.5" font-family="Helvetica,sans-Serif" font-size="10.00">extend.hpp</text>
</a>
</g>
</g>
<!-- Node1&#45;&gt;Node3 -->
<g id="edge2" class="edge">
<title>Node1&#45;&gt;Node3</title>
<path fill="none" stroke="midnightblue" d="M108.35,-168.4C115.61,-159.75 124.95,-148.64 132.57,-139.58"/>
<polygon fill="midnightblue" stroke="midnightblue" points="135.47,-141.57 139.22,-131.66 130.11,-137.06 135.47,-141.57"/>
</g>
<!-- Node4 -->
<g id="node4" class="node">
<title>Node4</title>
<g id="a_node4"><a xlink:href="instruction_8hpp.html" target="_top" xlink:title=" ">
<polygon fill="none" stroke="black" points="102,-56.5 102,-75.5 191,-75.5 191,-56.5 102,-56.5"/>
<text text-anchor="middle" x="146.5" y="-63.5" font-family="Helvetica,sans-Serif" font-size="10.00">instruction.hpp</text>
</a>
</g>
</g>
<!-- Node3&#45;&gt;Node4 -->
<g id="edge3" class="edge">
<title>Node3&#45;&gt;Node4</title>
<path fill="none" stroke="midnightblue" d="M146.5,-112.08C146.5,-105.01 146.5,-94.86 146.5,-85.99"/>
<polygon fill="midnightblue" stroke="midnightblue" points="150,-85.75 146.5,-75.75 143,-85.75 150,-85.75"/>
</g>
<!-- Node5 -->
<g id="node5" class="node">
<title>Node5</title>
<g id="a_node5"><a xlink:title=" ">
<polygon fill="none" stroke="#bfbfbf" points="121.5,-0.5 121.5,-19.5 171.5,-19.5 171.5,-0.5 121.5,-0.5"/>
<text text-anchor="middle" x="146.5" y="-7.5" font-family="Helvetica,sans-Serif" font-size="10.00">cstdint</text>
</a>
</g>
</g>
<!-- Node4&#45;&gt;Node5 -->
<g id="edge4" class="edge">
<title>Node4&#45;&gt;Node5</title>
<path fill="none" stroke="midnightblue" d="M146.5,-56.08C146.5,-49.01 146.5,-38.86 146.5,-29.99"/>
<polygon fill="midnightblue" stroke="midnightblue" points="150,-29.75 146.5,-19.75 143,-29.75 150,-29.75"/>
</g>
</g>
</svg>
