<?xml version="1.0" encoding="UTF-8" standalone="no"?>
<!DOCTYPE svg PUBLIC "-//W3C//DTD SVG 1.1//EN"
 "http://www.w3.org/Graphics/SVG/1.1/DTD/svg11.dtd">
<!-- Generated by graphviz version 2.43.0 (0)
 -->
<!-- Title: include/zero_mate/external_peripheral.hpp Pages: 1 -->
<svg width="502pt" height="240pt"
 viewBox="0.00 0.00 502.00 240.00" xmlns="http://www.w3.org/2000/svg" xmlns:xlink="http://www.w3.org/1999/xlink">
<g id="graph0" class="graph" transform="scale(1 1) rotate(0) translate(4 236)">
<title>include/zero_mate/external_peripheral.hpp</title>
<!-- Node1 -->
<g id="node1" class="node">
<title>Node1</title>
<g id="a_node1"><a xlink:title="This file defines an interface for external peripherals that can be attached to the system via GPIO p...">
<polygon fill="#bfbfbf" stroke="black" points="202.5,-201.5 202.5,-231.5 352.5,-231.5 352.5,-201.5 202.5,-201.5"/>
<text text-anchor="start" x="210.5" y="-219.5" font-family="Helvetica,sans-Serif" font-size="10.00">include/zero_mate/external</text>
<text text-anchor="middle" x="277.5" y="-208.5" font-family="Helvetica,sans-Serif" font-size="10.00">_peripheral.hpp</text>
</a>
</g>
</g>
<!-- Node2 -->
<g id="node2" class="node">
<title>Node2</title>
<g id="a_node2"><a xlink:href="gpio_8hpp.html" target="_top" xlink:title="This file defines the GPIO controller used in BCM2835.">
<polygon fill="none" stroke="black" points="179,-134.5 179,-164.5 292,-164.5 292,-134.5 179,-134.5"/>
<text text-anchor="start" x="187" y="-152.5" font-family="Helvetica,sans-Serif" font-size="10.00">src/core/peripherals</text>
<text text-anchor="middle" x="235.5" y="-141.5" font-family="Helvetica,sans-Serif" font-size="10.00">/gpio.hpp</text>
</a>
</g>
</g>
<!-- Node1&#45;&gt;Node2 -->
<g id="edge1" class="edge">
<title>Node1&#45;&gt;Node2</title>
<path fill="none" stroke="midnightblue" d="M262.88,-192.87C256.8,-183.46 249.93,-172.83 244.6,-164.58"/>
<polygon fill="midnightblue" stroke="midnightblue" points="260.02,-194.9 268.39,-201.4 265.9,-191.1 260.02,-194.9"/>
</g>
<!-- Node4 -->
<g id="node4" class="node">
<title>Node4</title>
<g id="a_node4"><a xlink:href="soc_8hpp.html" target="_top" xlink:title=" ">
<polygon fill="none" stroke="black" points="302,-73 302,-92 397,-92 397,-73 302,-73"/>
<text text-anchor="middle" x="349.5" y="-80" font-family="Helvetica,sans-Serif" font-size="10.00">src/core/soc.hpp</text>
</a>
</g>
</g>
<!-- Node1&#45;&gt;Node4 -->
<g id="edge10" class="edge">
<title>Node1&#45;&gt;Node4</title>
<path fill="none" stroke="midnightblue" d="M290.05,-192.49C306.31,-162.68 333.86,-112.17 344.81,-92.1"/>
<polygon fill="midnightblue" stroke="midnightblue" points="286.92,-190.92 285.21,-201.37 293.07,-194.27 286.92,-190.92"/>
</g>
<!-- Node3 -->
<g id="node3" class="node">
<title>Node3</title>
<g id="a_node3"><a xlink:href="gpio_8cpp.html" target="_top" xlink:title="This file implements the GPIO controller used in BCM2835 (defined in gpio.hpp).">
<polygon fill="none" stroke="black" points="0,-67.5 0,-97.5 113,-97.5 113,-67.5 0,-67.5"/>
<text text-anchor="start" x="8" y="-85.5" font-family="Helvetica,sans-Serif" font-size="10.00">src/core/peripherals</text>
<text text-anchor="middle" x="56.5" y="-74.5" font-family="Helvetica,sans-Serif" font-size="10.00">/gpio.cpp</text>
</a>
</g>
</g>
<!-- Node2&#45;&gt;Node3 -->
<g id="edge2" class="edge">
<title>Node2&#45;&gt;Node3</title>
<path fill="none" stroke="midnightblue" d="M187.18,-130.96C158.35,-120.48 122.22,-107.37 95.26,-97.58"/>
<polygon fill="midnightblue" stroke="midnightblue" points="186.07,-134.27 196.66,-134.4 188.45,-127.69 186.07,-134.27"/>
</g>
<!-- Node2&#45;&gt;Node4 -->
<g id="edge3" class="edge">
<title>Node2&#45;&gt;Node4</title>
<path fill="none" stroke="midnightblue" d="M269.16,-129.31C290.88,-116.93 318.05,-101.43 334.58,-92.01"/>
<polygon fill="midnightblue" stroke="midnightblue" points="267.19,-126.4 260.24,-134.4 270.66,-132.48 267.19,-126.4"/>
</g>
<!-- Node8 -->
<g id="node8" class="node">
<title>Node8</title>
<g id="a_node8"><a xlink:href="gpio__window_8hpp.html" target="_top" xlink:title="This file defines a window that visualizes the states and information about GPIO pins.">
<polygon fill="none" stroke="black" points="131.5,-67.5 131.5,-97.5 283.5,-97.5 283.5,-67.5 131.5,-67.5"/>
<text text-anchor="start" x="139.5" y="-85.5" font-family="Helvetica,sans-Serif" font-size="10.00">src/gui/windows/peripherals</text>
<text text-anchor="middle" x="207.5" y="-74.5" font-family="Helvetica,sans-Serif" font-size="10.00">/gpio_window.hpp</text>
</a>
</g>
</g>
<!-- Node2&#45;&gt;Node8 -->
<g id="edge7" class="edge">
<title>Node2&#45;&gt;Node8</title>
<path fill="none" stroke="midnightblue" d="M225.37,-124.99C221.42,-115.8 217.01,-105.58 213.56,-97.58"/>
<polygon fill="midnightblue" stroke="midnightblue" points="222.25,-126.6 229.42,-134.4 228.68,-123.83 222.25,-126.6"/>
</g>
<!-- Node5 -->
<g id="node5" class="node">
<title>Node5</title>
<g id="a_node5"><a xlink:href="soc_8cpp.html" target="_top" xlink:title=" ">
<polygon fill="none" stroke="black" points="302,-6 302,-25 397,-25 397,-6 302,-6"/>
<text text-anchor="middle" x="349.5" y="-13" font-family="Helvetica,sans-Serif" font-size="10.00">src/core/soc.cpp</text>
</a>
</g>
</g>
<!-- Node4&#45;&gt;Node5 -->
<g id="edge4" class="edge">
<title>Node4&#45;&gt;Node5</title>
<path fill="none" stroke="midnightblue" d="M349.5,-62.54C349.5,-50.17 349.5,-34.62 349.5,-25.13"/>
<polygon fill="midnightblue" stroke="midnightblue" points="346,-62.73 349.5,-72.73 353,-62.73 346,-62.73"/>
</g>
<!-- Node6 -->
<g id="node6" class="node">
<title>Node6</title>
<g id="a_node6"><a xlink:href="gui_8cpp.html" target="_top" xlink:title="This file implements the main GUI entry function that takes care of creating and rendering all window...">
<polygon fill="none" stroke="black" points="197,-6 197,-25 284,-25 284,-6 197,-6"/>
<text text-anchor="middle" x="240.5" y="-13" font-family="Helvetica,sans-Serif" font-size="10.00">src/gui/gui.cpp</text>
</a>
</g>
</g>
<!-- Node4&#45;&gt;Node6 -->
<g id="edge5" class="edge">
<title>Node4&#45;&gt;Node6</title>
<path fill="none" stroke="midnightblue" d="M325.93,-67.44C304.34,-54.57 273.08,-35.93 254.97,-25.13"/>
<polygon fill="midnightblue" stroke="midnightblue" points="324.42,-70.62 334.8,-72.73 328,-64.61 324.42,-70.62"/>
</g>
<!-- Node7 -->
<g id="node7" class="node">
<title>Node7</title>
<g id="a_node7"><a xlink:href="main_8cpp.html" target="_top" xlink:title="This file defines and implements the main function of the application.">
<polygon fill="none" stroke="black" points="415,-6 415,-25 494,-25 494,-6 415,-6"/>
<text text-anchor="middle" x="454.5" y="-13" font-family="Helvetica,sans-Serif" font-size="10.00">src/main.cpp</text>
</a>
</g>
</g>
<!-- Node4&#45;&gt;Node7 -->
<g id="edge6" class="edge">
<title>Node4&#45;&gt;Node7</title>
<path fill="none" stroke="midnightblue" d="M372.21,-67.44C393,-54.57 423.12,-35.93 440.56,-25.13"/>
<polygon fill="midnightblue" stroke="midnightblue" points="370.32,-64.49 363.66,-72.73 374.01,-70.45 370.32,-64.49"/>
</g>
<!-- Node8&#45;&gt;Node6 -->
<g id="edge8" class="edge">
<title>Node8&#45;&gt;Node6</title>
<path fill="none" stroke="midnightblue" d="M219.28,-58.29C225.12,-46.8 231.8,-33.63 236.09,-25.19"/>
<polygon fill="midnightblue" stroke="midnightblue" points="216.07,-56.89 214.66,-67.4 222.31,-60.06 216.07,-56.89"/>
</g>
<!-- Node9 -->
<g id="node9" class="node">
<title>Node9</title>
<g id="a_node9"><a xlink:href="gpio__window_8cpp.html" target="_top" xlink:title="This file implements a window that visualizes the states and information about GPIO pins.">
<polygon fill="none" stroke="black" points="26.5,-0.5 26.5,-30.5 178.5,-30.5 178.5,-0.5 26.5,-0.5"/>
<text text-anchor="start" x="34.5" y="-18.5" font-family="Helvetica,sans-Serif" font-size="10.00">src/gui/windows/peripherals</text>
<text text-anchor="middle" x="102.5" y="-7.5" font-family="Helvetica,sans-Serif" font-size="10.00">/gpio_window.cpp</text>
</a>
</g>
</g>
<!-- Node8&#45;&gt;Node9 -->
<g id="edge9" class="edge">
<title>Node8&#45;&gt;Node9</title>
<path fill="none" stroke="midnightblue" d="M176.02,-62.02C159.68,-51.9 140.09,-39.77 125.24,-30.58"/>
<polygon fill="midnightblue" stroke="midnightblue" points="174.37,-65.11 184.72,-67.4 178.06,-59.16 174.37,-65.11"/>
</g>
</g>
</svg>
