<?xml version="1.0" encoding="UTF-8" standalone="no"?>
<!DOCTYPE svg PUBLIC "-//W3C//DTD SVG 1.1//EN"
 "http://www.w3.org/Graphics/SVG/1.1/DTD/svg11.dtd">
<!-- Generated by graphviz version 2.43.0 (0)
 -->
<!-- Title: include/zero_mate/external_peripheral.hpp Pages: 1 -->
<svg width="1626pt" height="307pt"
 viewBox="0.00 0.00 1625.50 307.00" xmlns="http://www.w3.org/2000/svg" xmlns:xlink="http://www.w3.org/1999/xlink">
<g id="graph0" class="graph" transform="scale(1 1) rotate(0) translate(4 303)">
<title>include/zero_mate/external_peripheral.hpp</title>
<!-- Node1 -->
<g id="node1" class="node">
<title>Node1</title>
<g id="a_node1"><a xlink:title="This file defines an interface for external peripherals that can be attached to the system via GPIO p...">
<polygon fill="#bfbfbf" stroke="black" points="689.5,-268.5 689.5,-298.5 839.5,-298.5 839.5,-268.5 689.5,-268.5"/>
<text text-anchor="start" x="697.5" y="-286.5" font-family="Helvetica,sans-Serif" font-size="10.00">include/zero_mate/external</text>
<text text-anchor="middle" x="764.5" y="-275.5" font-family="Helvetica,sans-Serif" font-size="10.00">_peripheral.hpp</text>
</a>
</g>
</g>
<!-- Node2 -->
<g id="node2" class="node">
<title>Node2</title>
<g id="a_node2"><a xlink:href="core_8hpp.html" target="_top" xlink:title="This file defines a class that represents a CPU core (arm1176jzf_s).">
<polygon fill="none" stroke="black" points="456,-134.5 456,-164.5 569,-164.5 569,-134.5 456,-134.5"/>
<text text-anchor="start" x="464" y="-152.5" font-family="Helvetica,sans-Serif" font-size="10.00">src/core/arm1176jzf</text>
<text text-anchor="middle" x="512.5" y="-141.5" font-family="Helvetica,sans-Serif" font-size="10.00">_s/core.hpp</text>
</a>
</g>
</g>
<!-- Node1&#45;&gt;Node2 -->
<g id="edge1" class="edge">
<title>Node1&#45;&gt;Node2</title>
<path fill="none" stroke="midnightblue" d="M728.48,-263.63C677.33,-236.84 584.8,-188.37 539.27,-164.52"/>
<polygon fill="midnightblue" stroke="midnightblue" points="727.05,-266.83 737.53,-268.37 730.3,-260.63 727.05,-266.83"/>
</g>
<!-- Node4 -->
<g id="node4" class="node">
<title>Node4</title>
<g id="a_node4"><a xlink:href="soc_8hpp.html" target="_top" xlink:title=" ">
<polygon fill="none" stroke="black" points="718,-73 718,-92 813,-92 813,-73 718,-73"/>
<text text-anchor="middle" x="765.5" y="-80" font-family="Helvetica,sans-Serif" font-size="10.00">src/core/soc.hpp</text>
</a>
</g>
</g>
<!-- Node1&#45;&gt;Node4 -->
<g id="edge35" class="edge">
<title>Node1&#45;&gt;Node4</title>
<path fill="none" stroke="midnightblue" d="M764.62,-257.96C764.85,-213.43 765.31,-121.25 765.46,-92.36"/>
<polygon fill="midnightblue" stroke="midnightblue" points="761.12,-258.17 764.57,-268.19 768.12,-258.21 761.12,-258.17"/>
</g>
<!-- Node16 -->
<g id="node16" class="node">
<title>Node16</title>
<g id="a_node16"><a xlink:href="gpio_8hpp.html" target="_top" xlink:title="This file defines the GPIO controller used in BCM2835.">
<polygon fill="none" stroke="black" points="900,-201.5 900,-231.5 1013,-231.5 1013,-201.5 900,-201.5"/>
<text text-anchor="start" x="908" y="-219.5" font-family="Helvetica,sans-Serif" font-size="10.00">src/core/peripherals</text>
<text text-anchor="middle" x="956.5" y="-208.5" font-family="Helvetica,sans-Serif" font-size="10.00">/gpio.hpp</text>
</a>
</g>
</g>
<!-- Node1&#45;&gt;Node16 -->
<g id="edge19" class="edge">
<title>Node1&#45;&gt;Node16</title>
<path fill="none" stroke="midnightblue" d="M815.92,-265.09C846.92,-254.6 885.88,-241.41 914.92,-231.58"/>
<polygon fill="midnightblue" stroke="midnightblue" points="814.51,-261.87 806.16,-268.4 816.76,-268.5 814.51,-261.87"/>
</g>
<!-- Node3 -->
<g id="node3" class="node">
<title>Node3</title>
<g id="a_node3"><a xlink:href="core_8cpp.html" target="_top" xlink:title="This file implements the CCPU_Core class defined in core.hpp.">
<polygon fill="none" stroke="black" points="587,-67.5 587,-97.5 700,-97.5 700,-67.5 587,-67.5"/>
<text text-anchor="start" x="595" y="-85.5" font-family="Helvetica,sans-Serif" font-size="10.00">src/core/arm1176jzf</text>
<text text-anchor="middle" x="643.5" y="-74.5" font-family="Helvetica,sans-Serif" font-size="10.00">_s/core.cpp</text>
</a>
</g>
</g>
<!-- Node2&#45;&gt;Node3 -->
<g id="edge2" class="edge">
<title>Node2&#45;&gt;Node3</title>
<path fill="none" stroke="midnightblue" d="M550.08,-129.85C570.79,-119.58 596.09,-107.03 615.13,-97.58"/>
<polygon fill="midnightblue" stroke="midnightblue" points="548.33,-126.82 540.93,-134.4 551.44,-133.09 548.33,-126.82"/>
</g>
<!-- Node2&#45;&gt;Node4 -->
<g id="edge3" class="edge">
<title>Node2&#45;&gt;Node4</title>
<path fill="none" stroke="midnightblue" d="M577.07,-131.91C626.62,-119.18 693,-102.13 732.3,-92.03"/>
<polygon fill="midnightblue" stroke="midnightblue" points="575.9,-128.6 567.09,-134.48 577.64,-135.38 575.9,-128.6"/>
</g>
<!-- Node8 -->
<g id="node8" class="node">
<title>Node8</title>
<g id="a_node8"><a xlink:href="control__window_8hpp.html" target="_top" xlink:title="This file defines a window that allows the user to control CPU execution.">
<polygon fill="none" stroke="black" points="0,-67.5 0,-97.5 131,-97.5 131,-67.5 0,-67.5"/>
<text text-anchor="start" x="8" y="-85.5" font-family="Helvetica,sans-Serif" font-size="10.00">src/gui/windows/control</text>
<text text-anchor="middle" x="65.5" y="-74.5" font-family="Helvetica,sans-Serif" font-size="10.00">_window.hpp</text>
</a>
</g>
</g>
<!-- Node2&#45;&gt;Node8 -->
<g id="edge7" class="edge">
<title>Node2&#45;&gt;Node8</title>
<path fill="none" stroke="midnightblue" d="M445.76,-140.58C371.18,-131.47 246.92,-115.5 140.5,-98 137.49,-97.51 134.42,-96.98 131.31,-96.44"/>
<polygon fill="midnightblue" stroke="midnightblue" points="445.6,-144.09 455.95,-141.82 446.44,-137.14 445.6,-144.09"/>
</g>
<!-- Node10 -->
<g id="node10" class="node">
<title>Node10</title>
<g id="a_node10"><a xlink:href="registers__window_8hpp.html" target="_top" xlink:title="This file defines a window that displays the contents of all CPU registers.">
<polygon fill="none" stroke="black" points="149.5,-67.5 149.5,-97.5 289.5,-97.5 289.5,-67.5 149.5,-67.5"/>
<text text-anchor="start" x="157.5" y="-85.5" font-family="Helvetica,sans-Serif" font-size="10.00">src/gui/windows/registers</text>
<text text-anchor="middle" x="219.5" y="-74.5" font-family="Helvetica,sans-Serif" font-size="10.00">_window.hpp</text>
</a>
</g>
</g>
<!-- Node2&#45;&gt;Node10 -->
<g id="edge10" class="edge">
<title>Node2&#45;&gt;Node10</title>
<path fill="none" stroke="midnightblue" d="M445.8,-133.7C396.89,-122.85 330.89,-108.21 282.79,-97.54"/>
<polygon fill="midnightblue" stroke="midnightblue" points="445.14,-137.14 455.66,-135.89 446.65,-130.31 445.14,-137.14"/>
</g>
<!-- Node12 -->
<g id="node12" class="node">
<title>Node12</title>
<g id="a_node12"><a xlink:href="source__code__window_8hpp.html" target="_top" xlink:title="This file defines a window that displays loaded ELF files (disassembled instructions of the source co...">
<polygon fill="none" stroke="black" points="307.5,-67.5 307.5,-97.5 437.5,-97.5 437.5,-67.5 307.5,-67.5"/>
<text text-anchor="start" x="315.5" y="-85.5" font-family="Helvetica,sans-Serif" font-size="10.00">src/gui/windows/source</text>
<text text-anchor="middle" x="372.5" y="-74.5" font-family="Helvetica,sans-Serif" font-size="10.00">_code_window.hpp</text>
</a>
</g>
</g>
<!-- Node2&#45;&gt;Node12 -->
<g id="edge13" class="edge">
<title>Node2&#45;&gt;Node12</title>
<path fill="none" stroke="midnightblue" d="M472.93,-130.13C450.69,-119.8 423.35,-107.11 402.82,-97.58"/>
<polygon fill="midnightblue" stroke="midnightblue" points="471.58,-133.36 482.12,-134.4 474.53,-127.01 471.58,-133.36"/>
</g>
<!-- Node14 -->
<g id="node14" class="node">
<title>Node14</title>
<g id="a_node14"><a xlink:href="top__bar__menu_8hpp.html" target="_top" xlink:title=" ">
<polygon fill="none" stroke="black" points="456,-67.5 456,-97.5 569,-97.5 569,-67.5 456,-67.5"/>
<text text-anchor="start" x="464" y="-85.5" font-family="Helvetica,sans-Serif" font-size="10.00">src/gui/windows/top</text>
<text text-anchor="middle" x="512.5" y="-74.5" font-family="Helvetica,sans-Serif" font-size="10.00">_bar_menu.hpp</text>
</a>
</g>
</g>
<!-- Node2&#45;&gt;Node14 -->
<g id="edge16" class="edge">
<title>Node2&#45;&gt;Node14</title>
<path fill="none" stroke="midnightblue" d="M512.5,-124.11C512.5,-115.15 512.5,-105.32 512.5,-97.58"/>
<polygon fill="midnightblue" stroke="midnightblue" points="509,-124.4 512.5,-134.4 516,-124.4 509,-124.4"/>
</g>
<!-- Node5 -->
<g id="node5" class="node">
<title>Node5</title>
<g id="a_node5"><a xlink:href="soc_8cpp.html" target="_top" xlink:title=" ">
<polygon fill="none" stroke="black" points="709,-6 709,-25 804,-25 804,-6 709,-6"/>
<text text-anchor="middle" x="756.5" y="-13" font-family="Helvetica,sans-Serif" font-size="10.00">src/core/soc.cpp</text>
</a>
</g>
</g>
<!-- Node4&#45;&gt;Node5 -->
<g id="edge4" class="edge">
<title>Node4&#45;&gt;Node5</title>
<path fill="none" stroke="midnightblue" d="M762.87,-62.54C761.16,-50.17 759.01,-34.62 757.69,-25.13"/>
<polygon fill="midnightblue" stroke="midnightblue" points="759.45,-63.31 764.29,-72.73 766.38,-62.35 759.45,-63.31"/>
</g>
<!-- Node6 -->
<g id="node6" class="node">
<title>Node6</title>
<g id="a_node6"><a xlink:href="gui_8cpp.html" target="_top" xlink:title="This file implements the main GUI entry function that takes care of creating and rendering all window...">
<polygon fill="none" stroke="black" points="463,-6 463,-25 550,-25 550,-6 463,-6"/>
<text text-anchor="middle" x="506.5" y="-13" font-family="Helvetica,sans-Serif" font-size="10.00">src/gui/gui.cpp</text>
</a>
</g>
</g>
<!-- Node4&#45;&gt;Node6 -->
<g id="edge5" class="edge">
<title>Node4&#45;&gt;Node6</title>
<path fill="none" stroke="midnightblue" d="M722.66,-70.54C717.89,-69.33 713.09,-68.13 708.5,-67 641.94,-50.55 624.86,-48.21 558.5,-31 551.33,-29.14 543.64,-27.05 536.42,-25.04"/>
<polygon fill="midnightblue" stroke="midnightblue" points="721.81,-73.93 732.36,-72.99 723.53,-67.14 721.81,-73.93"/>
</g>
<!-- Node7 -->
<g id="node7" class="node">
<title>Node7</title>
<g id="a_node7"><a xlink:href="main_8cpp.html" target="_top" xlink:title="This file defines and implements the main function of the application.">
<polygon fill="none" stroke="black" points="822,-6 822,-25 901,-25 901,-6 822,-6"/>
<text text-anchor="middle" x="861.5" y="-13" font-family="Helvetica,sans-Serif" font-size="10.00">src/main.cpp</text>
</a>
</g>
</g>
<!-- Node4&#45;&gt;Node7 -->
<g id="edge6" class="edge">
<title>Node4&#45;&gt;Node7</title>
<path fill="none" stroke="midnightblue" d="M786.78,-67.09C805.77,-54.24 832.95,-35.83 848.76,-25.13"/>
<polygon fill="midnightblue" stroke="midnightblue" points="784.77,-64.23 778.45,-72.73 788.69,-70.03 784.77,-64.23"/>
</g>
<!-- Node8&#45;&gt;Node6 -->
<g id="edge8" class="edge">
<title>Node8&#45;&gt;Node6</title>
<path fill="none" stroke="midnightblue" d="M141.29,-66.96C277.55,-46.4 314.86,-54.56 446.5,-31 455.57,-29.38 465.32,-27.21 474.27,-25.04"/>
<polygon fill="midnightblue" stroke="midnightblue" points="140.66,-63.52 131.3,-68.49 141.72,-70.44 140.66,-63.52"/>
</g>
<!-- Node9 -->
<g id="node9" class="node">
<title>Node9</title>
<g id="a_node9"><a xlink:href="control__window_8cpp.html" target="_top" xlink:title="This file implements a window that allows the user to control CPU execution.">
<polygon fill="none" stroke="black" points="0,-0.5 0,-30.5 131,-30.5 131,-0.5 0,-0.5"/>
<text text-anchor="start" x="8" y="-18.5" font-family="Helvetica,sans-Serif" font-size="10.00">src/gui/windows/control</text>
<text text-anchor="middle" x="65.5" y="-7.5" font-family="Helvetica,sans-Serif" font-size="10.00">_window.cpp</text>
</a>
</g>
</g>
<!-- Node8&#45;&gt;Node9 -->
<g id="edge9" class="edge">
<title>Node8&#45;&gt;Node9</title>
<path fill="none" stroke="midnightblue" d="M65.5,-57.11C65.5,-48.15 65.5,-38.32 65.5,-30.58"/>
<polygon fill="midnightblue" stroke="midnightblue" points="62,-57.4 65.5,-67.4 69,-57.4 62,-57.4"/>
</g>
<!-- Node10&#45;&gt;Node6 -->
<g id="edge11" class="edge">
<title>Node10&#45;&gt;Node6</title>
<path fill="none" stroke="midnightblue" d="M293.98,-65.29C338.32,-55.55 395.68,-42.79 446.5,-31 454.64,-29.11 463.39,-27.03 471.63,-25.04"/>
<polygon fill="midnightblue" stroke="midnightblue" points="293.17,-61.88 284.15,-67.45 294.67,-68.72 293.17,-61.88"/>
</g>
<!-- Node11 -->
<g id="node11" class="node">
<title>Node11</title>
<g id="a_node11"><a xlink:href="registers__window_8cpp.html" target="_top" xlink:title="This file implements a window that displays the contents of all CPU registers.">
<polygon fill="none" stroke="black" points="149.5,-0.5 149.5,-30.5 289.5,-30.5 289.5,-0.5 149.5,-0.5"/>
<text text-anchor="start" x="157.5" y="-18.5" font-family="Helvetica,sans-Serif" font-size="10.00">src/gui/windows/registers</text>
<text text-anchor="middle" x="219.5" y="-7.5" font-family="Helvetica,sans-Serif" font-size="10.00">_window.cpp</text>
</a>
</g>
</g>
<!-- Node10&#45;&gt;Node11 -->
<g id="edge12" class="edge">
<title>Node10&#45;&gt;Node11</title>
<path fill="none" stroke="midnightblue" d="M219.5,-57.11C219.5,-48.15 219.5,-38.32 219.5,-30.58"/>
<polygon fill="midnightblue" stroke="midnightblue" points="216,-57.4 219.5,-67.4 223,-57.4 216,-57.4"/>
</g>
<!-- Node12&#45;&gt;Node6 -->
<g id="edge14" class="edge">
<title>Node12&#45;&gt;Node6</title>
<path fill="none" stroke="midnightblue" d="M410.71,-62.97C436.45,-50.48 469.19,-34.6 488.96,-25.01"/>
<polygon fill="midnightblue" stroke="midnightblue" points="409.05,-59.88 401.58,-67.4 412.1,-66.18 409.05,-59.88"/>
</g>
<!-- Node13 -->
<g id="node13" class="node">
<title>Node13</title>
<g id="a_node13"><a xlink:href="source__code__window_8cpp.html" target="_top" xlink:title="This file implements a window that displays loaded ELF files (disassembled instructions of the source...">
<polygon fill="none" stroke="black" points="307.5,-0.5 307.5,-30.5 437.5,-30.5 437.5,-0.5 307.5,-0.5"/>
<text text-anchor="start" x="315.5" y="-18.5" font-family="Helvetica,sans-Serif" font-size="10.00">src/gui/windows/source</text>
<text text-anchor="middle" x="372.5" y="-7.5" font-family="Helvetica,sans-Serif" font-size="10.00">_code_window.cpp</text>
</a>
</g>
</g>
<!-- Node12&#45;&gt;Node13 -->
<g id="edge15" class="edge">
<title>Node12&#45;&gt;Node13</title>
<path fill="none" stroke="midnightblue" d="M372.5,-57.11C372.5,-48.15 372.5,-38.32 372.5,-30.58"/>
<polygon fill="midnightblue" stroke="midnightblue" points="369,-57.4 372.5,-67.4 376,-57.4 369,-57.4"/>
</g>
<!-- Node14&#45;&gt;Node6 -->
<g id="edge17" class="edge">
<title>Node14&#45;&gt;Node6</title>
<path fill="none" stroke="midnightblue" d="M510.26,-57.25C509.22,-46.02 508.06,-33.38 507.3,-25.19"/>
<polygon fill="midnightblue" stroke="midnightblue" points="506.79,-57.76 511.2,-67.4 513.76,-57.12 506.79,-57.76"/>
</g>
<!-- Node15 -->
<g id="node15" class="node">
<title>Node15</title>
<g id="a_node15"><a xlink:href="top__bar__menu_8cpp.html" target="_top" xlink:title=" ">
<polygon fill="none" stroke="black" points="568,-0.5 568,-30.5 681,-30.5 681,-0.5 568,-0.5"/>
<text text-anchor="start" x="576" y="-18.5" font-family="Helvetica,sans-Serif" font-size="10.00">src/gui/windows/top</text>
<text text-anchor="middle" x="624.5" y="-7.5" font-family="Helvetica,sans-Serif" font-size="10.00">_bar_menu.cpp</text>
</a>
</g>
</g>
<!-- Node14&#45;&gt;Node15 -->
<g id="edge18" class="edge">
<title>Node14&#45;&gt;Node15</title>
<path fill="none" stroke="midnightblue" d="M545.59,-62.3C563.12,-52.12 584.26,-39.85 600.25,-30.58"/>
<polygon fill="midnightblue" stroke="midnightblue" points="543.69,-59.35 536.8,-67.4 547.21,-65.4 543.69,-59.35"/>
</g>
<!-- Node16&#45;&gt;Node4 -->
<g id="edge31" class="edge">
<title>Node16&#45;&gt;Node4</title>
<path fill="none" stroke="midnightblue" d="M890.17,-199.23C867.18,-191.43 842.26,-180.35 822.5,-165 796.32,-144.66 777.35,-108.99 769.5,-92.42"/>
<polygon fill="midnightblue" stroke="midnightblue" points="889.28,-202.63 899.88,-202.38 891.44,-195.97 889.28,-202.63"/>
</g>
<!-- Node17 -->
<g id="node17" class="node">
<title>Node17</title>
<g id="a_node17"><a xlink:href="auxiliary_8hpp.html" target="_top" xlink:title=" ">
<polygon fill="none" stroke="black" points="962.5,-134.5 962.5,-164.5 1090.5,-164.5 1090.5,-134.5 962.5,-134.5"/>
<text text-anchor="start" x="970.5" y="-152.5" font-family="Helvetica,sans-Serif" font-size="10.00">src/core/peripherals</text>
<text text-anchor="middle" x="1026.5" y="-141.5" font-family="Helvetica,sans-Serif" font-size="10.00">/auxiliary/auxiliary.hpp</text>
</a>
</g>
</g>
<!-- Node16&#45;&gt;Node17 -->
<g id="edge20" class="edge">
<title>Node16&#45;&gt;Node17</title>
<path fill="none" stroke="midnightblue" d="M979.32,-194.31C989.82,-184.56 1001.99,-173.26 1011.34,-164.58"/>
<polygon fill="midnightblue" stroke="midnightblue" points="976.64,-192.03 971.69,-201.4 981.4,-197.16 976.64,-192.03"/>
</g>
<!-- Node22 -->
<g id="node22" class="node">
<title>Node22</title>
<g id="a_node22"><a xlink:href="bsc_8hpp.html" target="_top" xlink:title=" ">
<polygon fill="none" stroke="black" points="831,-134.5 831,-164.5 944,-164.5 944,-134.5 831,-134.5"/>
<text text-anchor="start" x="839" y="-152.5" font-family="Helvetica,sans-Serif" font-size="10.00">src/core/peripherals</text>
<text text-anchor="middle" x="887.5" y="-141.5" font-family="Helvetica,sans-Serif" font-size="10.00">/bsc.hpp</text>
</a>
</g>
</g>
<!-- Node16&#45;&gt;Node22 -->
<g id="edge27" class="edge">
<title>Node16&#45;&gt;Node22</title>
<path fill="none" stroke="midnightblue" d="M934.01,-194.31C923.66,-184.56 911.66,-173.26 902.44,-164.58"/>
<polygon fill="midnightblue" stroke="midnightblue" points="931.85,-197.09 941.53,-201.4 936.65,-191.99 931.85,-197.09"/>
</g>
<!-- Node24 -->
<g id="node24" class="node">
<title>Node24</title>
<g id="a_node24"><a xlink:href="gpio_8cpp.html" target="_top" xlink:title="This file implements the GPIO controller used in BCM2835 (defined in gpio.hpp).">
<polygon fill="none" stroke="black" points="1320,-134.5 1320,-164.5 1433,-164.5 1433,-134.5 1320,-134.5"/>
<text text-anchor="start" x="1328" y="-152.5" font-family="Helvetica,sans-Serif" font-size="10.00">src/core/peripherals</text>
<text text-anchor="middle" x="1376.5" y="-141.5" font-family="Helvetica,sans-Serif" font-size="10.00">/gpio.cpp</text>
</a>
</g>
</g>
<!-- Node16&#45;&gt;Node24 -->
<g id="edge30" class="edge">
<title>Node16&#45;&gt;Node24</title>
<path fill="none" stroke="midnightblue" d="M1023.31,-207.48C1094.66,-198.56 1210.93,-183.01 1310.5,-165 1313.5,-164.46 1316.57,-163.87 1319.67,-163.27"/>
<polygon fill="midnightblue" stroke="midnightblue" points="1022.61,-204.04 1013.11,-208.75 1023.47,-210.98 1022.61,-204.04"/>
</g>
<!-- Node25 -->
<g id="node25" class="node">
<title>Node25</title>
<g id="a_node25"><a xlink:href="gpio__window_8hpp.html" target="_top" xlink:title="This file defines a window that visualizes the states and information about GPIO pins.">
<polygon fill="none" stroke="black" points="1149.5,-134.5 1149.5,-164.5 1301.5,-164.5 1301.5,-134.5 1149.5,-134.5"/>
<text text-anchor="start" x="1157.5" y="-152.5" font-family="Helvetica,sans-Serif" font-size="10.00">src/gui/windows/peripherals</text>
<text text-anchor="middle" x="1225.5" y="-141.5" font-family="Helvetica,sans-Serif" font-size="10.00">/gpio_window.hpp</text>
</a>
</g>
</g>
<!-- Node16&#45;&gt;Node25 -->
<g id="edge32" class="edge">
<title>Node16&#45;&gt;Node25</title>
<path fill="none" stroke="midnightblue" d="M1023.03,-199.42C1067.35,-188.72 1125.02,-174.78 1167.47,-164.52"/>
<polygon fill="midnightblue" stroke="midnightblue" points="1022.12,-196.04 1013.22,-201.79 1023.76,-202.85 1022.12,-196.04"/>
</g>
<!-- Node17&#45;&gt;Node4 -->
<g id="edge23" class="edge">
<title>Node17&#45;&gt;Node4</title>
<path fill="none" stroke="midnightblue" d="M959.46,-132.02C919.64,-122.2 868.17,-109.46 822.5,-98 814.87,-96.09 806.68,-94.01 798.95,-92.05"/>
<polygon fill="midnightblue" stroke="midnightblue" points="958.77,-135.45 969.32,-134.45 960.45,-128.66 958.77,-135.45"/>
</g>
<!-- Node18 -->
<g id="node18" class="node">
<title>Node18</title>
<g id="a_node18"><a xlink:href="auxiliary_8cpp.html" target="_top" xlink:title=" ">
<polygon fill="none" stroke="black" points="962,-67.5 962,-97.5 1089,-97.5 1089,-67.5 962,-67.5"/>
<text text-anchor="start" x="970" y="-85.5" font-family="Helvetica,sans-Serif" font-size="10.00">src/core/peripherals</text>
<text text-anchor="middle" x="1025.5" y="-74.5" font-family="Helvetica,sans-Serif" font-size="10.00">/auxiliary/auxiliary.cpp</text>
</a>
</g>
</g>
<!-- Node17&#45;&gt;Node18 -->
<g id="edge21" class="edge">
<title>Node17&#45;&gt;Node18</title>
<path fill="none" stroke="midnightblue" d="M1026.12,-124.11C1025.99,-115.15 1025.84,-105.32 1025.72,-97.58"/>
<polygon fill="midnightblue" stroke="midnightblue" points="1022.63,-124.45 1026.28,-134.4 1029.63,-124.34 1022.63,-124.45"/>
</g>
<!-- Node19 -->
<g id="node19" class="node">
<title>Node19</title>
<g id="a_node19"><a xlink:href="mini__uart_8cpp.html" target="_top" xlink:title="This file implements the Mini UART auxiliary peripheral used in BCM2835.">
<polygon fill="none" stroke="black" points="1107.5,-67.5 1107.5,-97.5 1239.5,-97.5 1239.5,-67.5 1107.5,-67.5"/>
<text text-anchor="start" x="1115.5" y="-85.5" font-family="Helvetica,sans-Serif" font-size="10.00">src/core/peripherals</text>
<text text-anchor="middle" x="1173.5" y="-74.5" font-family="Helvetica,sans-Serif" font-size="10.00">/auxiliary/mini_uart.cpp</text>
</a>
</g>
</g>
<!-- Node17&#45;&gt;Node19 -->
<g id="edge22" class="edge">
<title>Node17&#45;&gt;Node19</title>
<path fill="none" stroke="midnightblue" d="M1067.73,-130.27C1091.14,-119.92 1120.01,-107.15 1141.67,-97.58"/>
<polygon fill="midnightblue" stroke="midnightblue" points="1066.13,-127.15 1058.4,-134.4 1068.96,-133.55 1066.13,-127.15"/>
</g>
<!-- Node20 -->
<g id="node20" class="node">
<title>Node20</title>
<g id="a_node20"><a xlink:href="aux__window_8hpp.html" target="_top" xlink:title="This file defines a window that visualizes the auxiliaries (UART1 &amp; SPI1, and SPI2) used in BCM2835.">
<polygon fill="none" stroke="black" points="1295.5,-67.5 1295.5,-97.5 1447.5,-97.5 1447.5,-67.5 1295.5,-67.5"/>
<text text-anchor="start" x="1303.5" y="-85.5" font-family="Helvetica,sans-Serif" font-size="10.00">src/gui/windows/peripherals</text>
<text text-anchor="middle" x="1371.5" y="-74.5" font-family="Helvetica,sans-Serif" font-size="10.00">/aux_window.hpp</text>
</a>
</g>
</g>
<!-- Node17&#45;&gt;Node20 -->
<g id="edge24" class="edge">
<title>Node17&#45;&gt;Node20</title>
<path fill="none" stroke="midnightblue" d="M1100.42,-134.57C1158.42,-123.65 1238.81,-108.5 1296.97,-97.54"/>
<polygon fill="midnightblue" stroke="midnightblue" points="1099.76,-131.14 1090.58,-136.43 1101.06,-138.01 1099.76,-131.14"/>
</g>
<!-- Node20&#45;&gt;Node6 -->
<g id="edge25" class="edge">
<title>Node20&#45;&gt;Node6</title>
<path fill="none" stroke="midnightblue" d="M1285.38,-67.42C1284.08,-67.28 1282.78,-67.13 1281.5,-67 961.53,-33.36 876.08,-82.53 558.5,-31 549.99,-29.62 540.88,-27.36 532.7,-25.03"/>
<polygon fill="midnightblue" stroke="midnightblue" points="1285.12,-70.92 1295.47,-68.65 1285.96,-63.97 1285.12,-70.92"/>
</g>
<!-- Node21 -->
<g id="node21" class="node">
<title>Node21</title>
<g id="a_node21"><a xlink:href="aux__window_8cpp.html" target="_top" xlink:title="This file implements a window that visualizes the auxiliaries (UART1 &amp; SPI1, and SPI2) used in BCM283...">
<polygon fill="none" stroke="black" points="1295.5,-0.5 1295.5,-30.5 1447.5,-30.5 1447.5,-0.5 1295.5,-0.5"/>
<text text-anchor="start" x="1303.5" y="-18.5" font-family="Helvetica,sans-Serif" font-size="10.00">src/gui/windows/peripherals</text>
<text text-anchor="middle" x="1371.5" y="-7.5" font-family="Helvetica,sans-Serif" font-size="10.00">/aux_window.cpp</text>
</a>
</g>
</g>
<!-- Node20&#45;&gt;Node21 -->
<g id="edge26" class="edge">
<title>Node20&#45;&gt;Node21</title>
<path fill="none" stroke="midnightblue" d="M1371.5,-57.11C1371.5,-48.15 1371.5,-38.32 1371.5,-30.58"/>
<polygon fill="midnightblue" stroke="midnightblue" points="1368,-57.4 1371.5,-67.4 1375,-57.4 1368,-57.4"/>
</g>
<!-- Node22&#45;&gt;Node4 -->
<g id="edge29" class="edge">
<title>Node22&#45;&gt;Node4</title>
<path fill="none" stroke="midnightblue" d="M852.1,-129.64C828.76,-117.2 799.31,-101.51 781.47,-92.01"/>
<polygon fill="midnightblue" stroke="midnightblue" points="850.56,-132.78 861.03,-134.4 853.85,-126.6 850.56,-132.78"/>
</g>
<!-- Node23 -->
<g id="node23" class="node">
<title>Node23</title>
<g id="a_node23"><a xlink:href="bsc_8cpp.html" target="_top" xlink:title=" ">
<polygon fill="none" stroke="black" points="831,-67.5 831,-97.5 944,-97.5 944,-67.5 831,-67.5"/>
<text text-anchor="start" x="839" y="-85.5" font-family="Helvetica,sans-Serif" font-size="10.00">src/core/peripherals</text>
<text text-anchor="middle" x="887.5" y="-74.5" font-family="Helvetica,sans-Serif" font-size="10.00">/bsc.cpp</text>
</a>
</g>
</g>
<!-- Node22&#45;&gt;Node23 -->
<g id="edge28" class="edge">
<title>Node22&#45;&gt;Node23</title>
<path fill="none" stroke="midnightblue" d="M887.5,-124.11C887.5,-115.15 887.5,-105.32 887.5,-97.58"/>
<polygon fill="midnightblue" stroke="midnightblue" points="884,-124.4 887.5,-134.4 891,-124.4 884,-124.4"/>
</g>
<!-- Node25&#45;&gt;Node6 -->
<g id="edge33" class="edge">
<title>Node25&#45;&gt;Node6</title>
<path fill="none" stroke="midnightblue" d="M1242.29,-125.71C1253.43,-107.61 1263.5,-82.8 1248.5,-67 1195.65,-11.32 634.27,-43.39 558.5,-31 549.99,-29.61 540.88,-27.35 532.7,-25.02"/>
<polygon fill="midnightblue" stroke="midnightblue" points="1239.08,-124.21 1236.49,-134.48 1244.92,-128.07 1239.08,-124.21"/>
</g>
<!-- Node26 -->
<g id="node26" class="node">
<title>Node26</title>
<g id="a_node26"><a xlink:href="gpio__window_8cpp.html" target="_top" xlink:title="This file implements a window that visualizes the states and information about GPIO pins.">
<polygon fill="none" stroke="black" points="1465.5,-67.5 1465.5,-97.5 1617.5,-97.5 1617.5,-67.5 1465.5,-67.5"/>
<text text-anchor="start" x="1473.5" y="-85.5" font-family="Helvetica,sans-Serif" font-size="10.00">src/gui/windows/peripherals</text>
<text text-anchor="middle" x="1541.5" y="-74.5" font-family="Helvetica,sans-Serif" font-size="10.00">/gpio_window.cpp</text>
</a>
</g>
</g>
<!-- Node25&#45;&gt;Node26 -->
<g id="edge34" class="edge">
<title>Node25&#45;&gt;Node26</title>
<path fill="none" stroke="midnightblue" d="M1303.53,-132.45C1355.55,-121.75 1423.28,-107.82 1473.17,-97.55"/>
<polygon fill="midnightblue" stroke="midnightblue" points="1302.77,-129.03 1293.68,-134.48 1304.18,-135.89 1302.77,-129.03"/>
</g>
</g>
</svg>
