<?xml version="1.0" encoding="UTF-8" standalone="no"?>
<!DOCTYPE svg PUBLIC "-//W3C//DTD SVG 1.1//EN"
 "http://www.w3.org/Graphics/SVG/1.1/DTD/svg11.dtd">
<!-- Generated by graphviz version 2.43.0 (0)
 -->
<!-- Title: include/zero_mate/external_peripheral.hpp Pages: 1 -->
<svg width="207pt" height="151pt"
 viewBox="0.00 0.00 207.00 151.00" xmlns="http://www.w3.org/2000/svg" xmlns:xlink="http://www.w3.org/1999/xlink">
<g id="graph0" class="graph" transform="scale(1 1) rotate(0) translate(4 147)">
<title>include/zero_mate/external_peripheral.hpp</title>
<!-- Node1 -->
<g id="node1" class="node">
<title>Node1</title>
<g id="a_node1"><a xlink:title="This file defines an interface for external peripherals that can be attached to the system via GPIO p...">
<polygon fill="#bfbfbf" stroke="black" points="0,-112.5 0,-142.5 150,-142.5 150,-112.5 0,-112.5"/>
<text text-anchor="start" x="8" y="-130.5" font-family="Helvetica,sans-Serif" font-size="10.00">include/zero_mate/external</text>
<text text-anchor="middle" x="75" y="-119.5" font-family="Helvetica,sans-Serif" font-size="10.00">_peripheral.hpp</text>
</a>
</g>
</g>
<!-- Node2 -->
<g id="node2" class="node">
<title>Node2</title>
<g id="a_node2"><a xlink:href="api__export_8hpp.html" target="_top" xlink:title="This file defines macros for exporting symbols out of a shared library.">
<polygon fill="none" stroke="black" points="3,-0.5 3,-19.5 147,-19.5 147,-0.5 3,-0.5"/>
<text text-anchor="middle" x="75" y="-7.5" font-family="Helvetica,sans-Serif" font-size="10.00">zero_mate/api_export.hpp</text>
</a>
</g>
</g>
<!-- Node1&#45;&gt;Node2 -->
<g id="edge1" class="edge">
<title>Node1&#45;&gt;Node2</title>
<path fill="none" stroke="midnightblue" d="M62.09,-112.28C51,-98.3 37.72,-76.17 44,-56 47.23,-45.62 53.78,-35.52 60.02,-27.53"/>
<polygon fill="midnightblue" stroke="midnightblue" points="62.79,-29.68 66.52,-19.77 57.42,-25.19 62.79,-29.68"/>
</g>
<!-- Node3 -->
<g id="node3" class="node">
<title>Node3</title>
<g id="a_node3"><a xlink:href="logger_8hpp.html" target="_top" xlink:title="This file defines a general logger interface as well as a logging system that is used in the project.">
<polygon fill="none" stroke="black" points="53,-56.5 53,-75.5 199,-75.5 199,-56.5 53,-56.5"/>
<text text-anchor="middle" x="126" y="-63.5" font-family="Helvetica,sans-Serif" font-size="10.00">zero_mate/utils/logger.hpp</text>
</a>
</g>
</g>
<!-- Node1&#45;&gt;Node3 -->
<g id="edge2" class="edge">
<title>Node1&#45;&gt;Node3</title>
<path fill="none" stroke="midnightblue" d="M87.09,-112.4C94.57,-103.66 104.22,-92.41 112.03,-83.3"/>
<polygon fill="midnightblue" stroke="midnightblue" points="114.73,-85.53 118.58,-75.66 109.41,-80.97 114.73,-85.53"/>
</g>
<!-- Node3&#45;&gt;Node2 -->
<g id="edge3" class="edge">
<title>Node3&#45;&gt;Node2</title>
<path fill="none" stroke="midnightblue" d="M117.58,-56.08C110.15,-48.22 99.15,-36.57 90.19,-27.08"/>
<polygon fill="midnightblue" stroke="midnightblue" points="92.68,-24.62 83.26,-19.75 87.59,-29.42 92.68,-24.62"/>
</g>
</g>
</svg>
