<?xml version="1.0" encoding="UTF-8" standalone="no"?>
<!DOCTYPE svg PUBLIC "-//W3C//DTD SVG 1.1//EN"
 "http://www.w3.org/Graphics/SVG/1.1/DTD/svg11.dtd">
<!-- Generated by graphviz version 2.43.0 (0)
 -->
<!-- Title: src/gui/windows/file_window.hpp Pages: 1 -->
<svg width="2837pt" height="464pt"
 viewBox="0.00 0.00 2837.15 464.00" xmlns="http://www.w3.org/2000/svg" xmlns:xlink="http://www.w3.org/1999/xlink">
<g id="graph0" class="graph" transform="scale(1 1) rotate(0) translate(4 460)">
<title>src/gui/windows/file_window.hpp</title>
<!-- Node1 -->
<g id="node1" class="node">
<title>Node1</title>
<g id="a_node1"><a xlink:title=" ">
<polygon fill="#bfbfbf" stroke="black" points="195,-425.5 195,-455.5 308,-455.5 308,-425.5 195,-425.5"/>
<text text-anchor="start" x="203" y="-443.5" font-family="Helvetica,sans-Serif" font-size="10.00">src/gui/windows/file</text>
<text text-anchor="middle" x="251.5" y="-432.5" font-family="Helvetica,sans-Serif" font-size="10.00">_window.hpp</text>
</a>
</g>
</g>
<!-- Node2 -->
<g id="node2" class="node">
<title>Node2</title>
<g id="a_node2"><a xlink:href="window_8hpp.html" target="_top" xlink:title=" ">
<polygon fill="none" stroke="black" points="0,-56.5 0,-75.5 83,-75.5 83,-56.5 0,-56.5"/>
<text text-anchor="middle" x="41.5" y="-63.5" font-family="Helvetica,sans-Serif" font-size="10.00">../window.hpp</text>
</a>
</g>
</g>
<!-- Node1&#45;&gt;Node2 -->
<g id="edge1" class="edge">
<title>Node1&#45;&gt;Node2</title>
<path fill="none" stroke="midnightblue" d="M194.87,-426.65C137.6,-409.91 57.5,-374.51 57.5,-307.5 57.5,-307.5 57.5,-307.5 57.5,-188 57.5,-151.58 50.29,-109.52 45.55,-85.81"/>
<polygon fill="midnightblue" stroke="midnightblue" points="48.92,-84.83 43.46,-75.75 42.07,-86.26 48.92,-84.83"/>
</g>
<!-- Node4 -->
<g id="node4" class="node">
<title>Node4</title>
<g id="a_node4"><a xlink:href="core_8hpp.html" target="_top" xlink:title="This file defines a class that represents a CPU core (arm1176jzf_s).">
<polygon fill="none" stroke="black" points="626.5,-358.5 626.5,-388.5 740.5,-388.5 740.5,-358.5 626.5,-358.5"/>
<text text-anchor="start" x="634.5" y="-376.5" font-family="Helvetica,sans-Serif" font-size="10.00">../../core/arm1176jzf</text>
<text text-anchor="middle" x="683.5" y="-365.5" font-family="Helvetica,sans-Serif" font-size="10.00">_s/core.hpp</text>
</a>
</g>
</g>
<!-- Node1&#45;&gt;Node4 -->
<g id="edge3" class="edge">
<title>Node1&#45;&gt;Node4</title>
<path fill="none" stroke="midnightblue" d="M308.42,-430.94C387.9,-418.98 531.86,-397.32 616.44,-384.59"/>
<polygon fill="midnightblue" stroke="midnightblue" points="617.09,-388.03 626.45,-383.08 616.04,-381.11 617.09,-388.03"/>
</g>
<!-- Node6 -->
<g id="node6" class="node">
<title>Node6</title>
<g id="a_node6"><a xlink:href="logger_8hpp.html" target="_top" xlink:title=" ">
<polygon fill="none" stroke="black" points="370.5,-56.5 370.5,-75.5 504.5,-75.5 504.5,-56.5 370.5,-56.5"/>
<text text-anchor="middle" x="437.5" y="-63.5" font-family="Helvetica,sans-Serif" font-size="10.00">../utils/logger/logger.hpp</text>
</a>
</g>
</g>
<!-- Node1&#45;&gt;Node6 -->
<g id="edge77" class="edge">
<title>Node1&#45;&gt;Node6</title>
<path fill="none" stroke="midnightblue" d="M229.87,-425.29C199.93,-403.71 149.5,-359.63 149.5,-307.5 149.5,-307.5 149.5,-307.5 149.5,-244 149.5,-140.13 287.16,-95.28 372.14,-77.49"/>
<polygon fill="midnightblue" stroke="midnightblue" points="372.86,-80.91 381.97,-75.5 371.48,-74.05 372.86,-80.91"/>
</g>
<!-- Node34 -->
<g id="node34" class="node">
<title>Node34</title>
<g id="a_node34"><a xlink:href="bus_8hpp.html" target="_top" xlink:title="This file defines an interface the CPU uses to access different memory&#45;mapped peripherals.">
<polygon fill="none" stroke="black" points="327.5,-297 327.5,-316 391.5,-316 391.5,-297 327.5,-297"/>
<text text-anchor="middle" x="359.5" y="-304" font-family="Helvetica,sans-Serif" font-size="10.00">../bus.hpp</text>
</a>
</g>
</g>
<!-- Node1&#45;&gt;Node34 -->
<g id="edge73" class="edge">
<title>Node1&#45;&gt;Node34</title>
<path fill="none" stroke="midnightblue" d="M269.94,-425.45C281.75,-415.92 296.97,-402.62 308.5,-389 325.63,-368.77 341.13,-342.27 350.44,-325.07"/>
<polygon fill="midnightblue" stroke="midnightblue" points="353.58,-326.61 355.16,-316.13 347.39,-323.33 353.58,-326.61"/>
</g>
<!-- Node42 -->
<g id="node42" class="node">
<title>Node42</title>
<g id="a_node42"><a xlink:href="elf__loader_8hpp.html" target="_top" xlink:title=" ">
<polygon fill="none" stroke="black" points="204,-358.5 204,-388.5 299,-388.5 299,-358.5 204,-358.5"/>
<text text-anchor="start" x="212" y="-376.5" font-family="Helvetica,sans-Serif" font-size="10.00">../../core/utils/elf</text>
<text text-anchor="middle" x="251.5" y="-365.5" font-family="Helvetica,sans-Serif" font-size="10.00">_loader.hpp</text>
</a>
</g>
</g>
<!-- Node1&#45;&gt;Node42 -->
<g id="edge74" class="edge">
<title>Node1&#45;&gt;Node42</title>
<path fill="none" stroke="midnightblue" d="M251.5,-425.4C251.5,-417.64 251.5,-407.81 251.5,-398.86"/>
<polygon fill="midnightblue" stroke="midnightblue" points="255,-398.58 251.5,-388.58 248,-398.58 255,-398.58"/>
</g>
<!-- Node3 -->
<g id="node3" class="node">
<title>Node3</title>
<g id="a_node3"><a xlink:title=" ">
<polygon fill="none" stroke="#bfbfbf" points="49.5,-0.5 49.5,-19.5 107.5,-19.5 107.5,-0.5 49.5,-0.5"/>
<text text-anchor="middle" x="78.5" y="-7.5" font-family="Helvetica,sans-Serif" font-size="10.00">memory</text>
</a>
</g>
</g>
<!-- Node2&#45;&gt;Node3 -->
<g id="edge2" class="edge">
<title>Node2&#45;&gt;Node3</title>
<path fill="none" stroke="midnightblue" d="M47.61,-56.08C52.78,-48.53 60.35,-37.49 66.69,-28.23"/>
<polygon fill="midnightblue" stroke="midnightblue" points="69.74,-29.98 72.5,-19.75 63.96,-26.02 69.74,-29.98"/>
</g>
<!-- Node5 -->
<g id="node5" class="node">
<title>Node5</title>
<g id="a_node5"><a xlink:href="context_8hpp.html" target="_top" xlink:title="This file defines the context (registers) of the CPU.">
<polygon fill="none" stroke="black" points="536.5,-118 536.5,-137 610.5,-137 610.5,-118 536.5,-118"/>
<text text-anchor="middle" x="573.5" y="-125" font-family="Helvetica,sans-Serif" font-size="10.00">context.hpp</text>
</a>
</g>
</g>
<!-- Node4&#45;&gt;Node5 -->
<g id="edge4" class="edge">
<title>Node4&#45;&gt;Node5</title>
<path fill="none" stroke="midnightblue" d="M636.04,-358.3C618.19,-350.5 599.55,-338.88 588.5,-322 552.53,-267.08 562.63,-183.67 569.5,-146.95"/>
<polygon fill="midnightblue" stroke="midnightblue" points="572.93,-147.63 571.48,-137.14 566.07,-146.25 572.93,-147.63"/>
</g>
<!-- Node4&#45;&gt;Node6 -->
<g id="edge67" class="edge">
<title>Node4&#45;&gt;Node6</title>
<path fill="none" stroke="midnightblue" d="M696.08,-358.12C703.67,-348.56 712.77,-335.35 717.5,-322 738.81,-261.92 759.61,-234.64 728.5,-179 725.03,-172.8 626.06,-114.75 619.5,-112 581.22,-95.96 535.92,-84.74 500.09,-77.51"/>
<polygon fill="midnightblue" stroke="midnightblue" points="500.74,-74.07 490.25,-75.57 499.39,-80.94 500.74,-74.07"/>
</g>
<!-- Node12 -->
<g id="node12" class="node">
<title>Node12</title>
<g id="a_node12"><a xlink:href="exceptions_8hpp.html" target="_top" xlink:title="This file defines all exceptions that can be thrown by the CPU during execution.">
<polygon fill="none" stroke="black" points="615,-235.5 615,-254.5 706,-254.5 706,-235.5 615,-235.5"/>
<text text-anchor="middle" x="660.5" y="-242.5" font-family="Helvetica,sans-Serif" font-size="10.00">exceptions.hpp</text>
</a>
</g>
</g>
<!-- Node4&#45;&gt;Node12 -->
<g id="edge12" class="edge">
<title>Node4&#45;&gt;Node12</title>
<path fill="none" stroke="midnightblue" d="M691.86,-358.28C700.47,-341.71 711.45,-313.71 702.5,-291 697.99,-279.55 689.03,-269.29 680.55,-261.47"/>
<polygon fill="midnightblue" stroke="midnightblue" points="682.59,-258.61 672.71,-254.76 678.03,-263.93 682.59,-258.61"/>
</g>
<!-- Node14 -->
<g id="node14" class="node">
<title>Node14</title>
<g id="a_node14"><a xlink:href="isa_8hpp.html" target="_top" xlink:title="This file is just a helper file for including all ARM instructions supported by the emulator.">
<polygon fill="none" stroke="black" points="1926,-179.5 1926,-198.5 1995,-198.5 1995,-179.5 1926,-179.5"/>
<text text-anchor="middle" x="1960.5" y="-186.5" font-family="Helvetica,sans-Serif" font-size="10.00">isa/isa.hpp</text>
</a>
</g>
</g>
<!-- Node4&#45;&gt;Node14 -->
<g id="edge15" class="edge">
<title>Node4&#45;&gt;Node14</title>
<path fill="none" stroke="midnightblue" d="M740.85,-364.3C957.32,-333.37 1722.28,-224.04 1915.77,-196.39"/>
<polygon fill="midnightblue" stroke="midnightblue" points="1916.46,-199.83 1925.86,-194.95 1915.47,-192.9 1916.46,-199.83"/>
</g>
<!-- Node33 -->
<g id="node33" class="node">
<title>Node33</title>
<g id="a_node33"><a xlink:href="isa__decoder_8hpp.html" target="_top" xlink:title="This file defines an instruction decoder.">
<polygon fill="none" stroke="black" points="2133,-235.5 2133,-254.5 2246,-254.5 2246,-235.5 2133,-235.5"/>
<text text-anchor="middle" x="2189.5" y="-242.5" font-family="Helvetica,sans-Serif" font-size="10.00">isa/isa_decoder.hpp</text>
</a>
</g>
</g>
<!-- Node4&#45;&gt;Node33 -->
<g id="edge51" class="edge">
<title>Node4&#45;&gt;Node33</title>
<path fill="none" stroke="midnightblue" d="M740.88,-369.58C870.16,-362.81 1194.06,-344.91 1464.5,-322 1707.3,-301.43 1994.98,-268.81 2122.69,-253.9"/>
<polygon fill="midnightblue" stroke="midnightblue" points="2123.18,-257.37 2132.71,-252.73 2122.37,-250.42 2123.18,-257.37"/>
</g>
<!-- Node4&#45;&gt;Node34 -->
<g id="edge53" class="edge">
<title>Node4&#45;&gt;Node34</title>
<path fill="none" stroke="midnightblue" d="M626.28,-363.96C570.19,-355.13 482.43,-340.11 407.5,-322 403.61,-321.06 399.58,-319.99 395.57,-318.87"/>
<polygon fill="midnightblue" stroke="midnightblue" points="396.34,-315.45 385.76,-316.01 394.38,-322.17 396.34,-315.45"/>
</g>
<!-- Node39 -->
<g id="node39" class="node">
<title>Node39</title>
<g id="a_node39"><a xlink:href="math_8hpp.html" target="_top" xlink:title="This file defines and implements a variety of handy helper functions that are used throughout the pro...">
<polygon fill="none" stroke="black" points="597.5,-297 597.5,-316 693.5,-316 693.5,-297 597.5,-297"/>
<text text-anchor="middle" x="645.5" y="-304" font-family="Helvetica,sans-Serif" font-size="10.00">../utils/math.hpp</text>
</a>
</g>
</g>
<!-- Node4&#45;&gt;Node39 -->
<g id="edge66" class="edge">
<title>Node4&#45;&gt;Node39</title>
<path fill="none" stroke="midnightblue" d="M675.25,-358.4C669.51,-348.56 661.8,-335.38 655.67,-324.89"/>
<polygon fill="midnightblue" stroke="midnightblue" points="658.65,-323.06 650.58,-316.19 652.61,-326.59 658.65,-323.06"/>
</g>
<!-- Node40 -->
<g id="node40" class="node">
<title>Node40</title>
<g id="a_node40"><a xlink:href="interrupt__controller_8hpp.html" target="_top" xlink:title="This file defines the interrupt controller used BCM2835.">
<polygon fill="none" stroke="black" points="416,-291.5 416,-321.5 541,-321.5 541,-291.5 416,-291.5"/>
<text text-anchor="start" x="424" y="-309.5" font-family="Helvetica,sans-Serif" font-size="10.00">../peripherals/interrupt</text>
<text text-anchor="middle" x="478.5" y="-298.5" font-family="Helvetica,sans-Serif" font-size="10.00">_controller.hpp</text>
</a>
</g>
</g>
<!-- Node4&#45;&gt;Node40 -->
<g id="edge68" class="edge">
<title>Node4&#45;&gt;Node40</title>
<path fill="none" stroke="midnightblue" d="M639.27,-358.48C607.99,-348.56 565.86,-335.2 532.58,-324.65"/>
<polygon fill="midnightblue" stroke="midnightblue" points="533.59,-321.3 523,-321.61 531.48,-327.97 533.59,-321.3"/>
</g>
<!-- Node41 -->
<g id="node41" class="node">
<title>Node41</title>
<g id="a_node41"><a xlink:href="system__clock__listener_8hpp.html" target="_top" xlink:title="This file defines an interface for a CPU clock listener.">
<polygon fill="none" stroke="black" points="788,-291.5 788,-321.5 907,-321.5 907,-291.5 788,-291.5"/>
<text text-anchor="start" x="796" y="-309.5" font-family="Helvetica,sans-Serif" font-size="10.00">../peripherals/system</text>
<text text-anchor="middle" x="847.5" y="-298.5" font-family="Helvetica,sans-Serif" font-size="10.00">_clock_listener.hpp</text>
</a>
</g>
</g>
<!-- Node4&#45;&gt;Node41 -->
<g id="edge72" class="edge">
<title>Node4&#45;&gt;Node41</title>
<path fill="none" stroke="midnightblue" d="M719.09,-358.4C743.59,-348.69 776.33,-335.71 802.62,-325.29"/>
<polygon fill="midnightblue" stroke="midnightblue" points="803.98,-328.51 811.98,-321.58 801.4,-322.01 803.98,-328.51"/>
</g>
<!-- Node5&#45;&gt;Node6 -->
<g id="edge5" class="edge">
<title>Node5&#45;&gt;Node6</title>
<path fill="none" stroke="midnightblue" d="M554.01,-117.98C531.09,-107.95 492.81,-91.2 466.42,-79.65"/>
<polygon fill="midnightblue" stroke="midnightblue" points="467.51,-76.31 456.95,-75.51 464.71,-82.72 467.51,-76.31"/>
</g>
<!-- Node6&#45;&gt;Node3 -->
<g id="edge8" class="edge">
<title>Node6&#45;&gt;Node3</title>
<path fill="none" stroke="midnightblue" d="M380.62,-56.44C307.2,-45.4 181.36,-26.47 117.76,-16.91"/>
<polygon fill="midnightblue" stroke="midnightblue" points="118.15,-13.42 107.74,-15.4 117.1,-20.35 118.15,-13.42"/>
</g>
<!-- Node7 -->
<g id="node7" class="node">
<title>Node7</title>
<g id="a_node7"><a xlink:title=" ">
<polygon fill="none" stroke="#bfbfbf" points="334.5,-0.5 334.5,-19.5 382.5,-19.5 382.5,-0.5 334.5,-0.5"/>
<text text-anchor="middle" x="358.5" y="-7.5" font-family="Helvetica,sans-Serif" font-size="10.00">mutex</text>
</a>
</g>
</g>
<!-- Node6&#45;&gt;Node7 -->
<g id="edge6" class="edge">
<title>Node6&#45;&gt;Node7</title>
<path fill="none" stroke="midnightblue" d="M424.81,-56.32C412.6,-47.98 393.92,-35.21 379.5,-25.35"/>
<polygon fill="midnightblue" stroke="midnightblue" points="381.39,-22.41 371.16,-19.65 377.44,-28.19 381.39,-22.41"/>
</g>
<!-- Node8 -->
<g id="node8" class="node">
<title>Node8</title>
<g id="a_node8"><a xlink:title=" ">
<polygon fill="none" stroke="#bfbfbf" points="164,-0.5 164,-19.5 211,-19.5 211,-0.5 164,-0.5"/>
<text text-anchor="middle" x="187.5" y="-7.5" font-family="Helvetica,sans-Serif" font-size="10.00">vector</text>
</a>
</g>
</g>
<!-- Node6&#45;&gt;Node8 -->
<g id="edge7" class="edge">
<title>Node6&#45;&gt;Node8</title>
<path fill="none" stroke="midnightblue" d="M397.89,-56.44C349.09,-45.9 267.05,-28.18 221.16,-18.27"/>
<polygon fill="midnightblue" stroke="midnightblue" points="221.64,-14.79 211.13,-16.1 220.17,-21.64 221.64,-14.79"/>
</g>
<!-- Node9 -->
<g id="node9" class="node">
<title>Node9</title>
<g id="a_node9"><a xlink:title=" ">
<polygon fill="none" stroke="#bfbfbf" points="619.5,-0.5 619.5,-19.5 669.5,-19.5 669.5,-0.5 619.5,-0.5"/>
<text text-anchor="middle" x="644.5" y="-7.5" font-family="Helvetica,sans-Serif" font-size="10.00">cstdint</text>
</a>
</g>
</g>
<!-- Node6&#45;&gt;Node9 -->
<g id="edge9" class="edge">
<title>Node6&#45;&gt;Node9</title>
<path fill="none" stroke="midnightblue" d="M470.3,-56.44C508.29,-46.53 570.62,-30.27 609.51,-20.13"/>
<polygon fill="midnightblue" stroke="midnightblue" points="610.55,-23.47 619.34,-17.56 608.78,-16.7 610.55,-23.47"/>
</g>
<!-- Node10 -->
<g id="node10" class="node">
<title>Node10</title>
<g id="a_node10"><a xlink:title=" ">
<polygon fill="none" stroke="#bfbfbf" points="401,-0.5 401,-19.5 474,-19.5 474,-0.5 401,-0.5"/>
<text text-anchor="middle" x="437.5" y="-7.5" font-family="Helvetica,sans-Serif" font-size="10.00">string_view</text>
</a>
</g>
</g>
<!-- Node6&#45;&gt;Node10 -->
<g id="edge10" class="edge">
<title>Node6&#45;&gt;Node10</title>
<path fill="none" stroke="midnightblue" d="M437.5,-56.08C437.5,-49.01 437.5,-38.86 437.5,-29.99"/>
<polygon fill="midnightblue" stroke="midnightblue" points="441,-29.75 437.5,-19.75 434,-29.75 441,-29.75"/>
</g>
<!-- Node11 -->
<g id="node11" class="node">
<title>Node11</title>
<g id="a_node11"><a xlink:title=" ">
<polygon fill="none" stroke="#bfbfbf" points="492,-0.5 492,-19.5 585,-19.5 585,-0.5 492,-0.5"/>
<text text-anchor="middle" x="538.5" y="-7.5" font-family="Helvetica,sans-Serif" font-size="10.00">source_location</text>
</a>
</g>
</g>
<!-- Node6&#45;&gt;Node11 -->
<g id="edge11" class="edge">
<title>Node6&#45;&gt;Node11</title>
<path fill="none" stroke="midnightblue" d="M453.73,-56.32C469.85,-47.7 494.8,-34.36 513.46,-24.39"/>
<polygon fill="midnightblue" stroke="midnightblue" points="515.14,-27.46 522.31,-19.65 511.84,-21.28 515.14,-27.46"/>
</g>
<!-- Node12&#45;&gt;Node5 -->
<g id="edge14" class="edge">
<title>Node12&#45;&gt;Node5</title>
<path fill="none" stroke="midnightblue" d="M653.96,-235.32C639.6,-216.26 605.1,-170.45 586.27,-145.46"/>
<polygon fill="midnightblue" stroke="midnightblue" points="588.93,-143.16 580.12,-137.28 583.34,-147.38 588.93,-143.16"/>
</g>
<!-- Node13 -->
<g id="node13" class="node">
<title>Node13</title>
<g id="a_node13"><a xlink:title=" ">
<polygon fill="none" stroke="#bfbfbf" points="640,-179.5 640,-198.5 719,-198.5 719,-179.5 640,-179.5"/>
<text text-anchor="middle" x="679.5" y="-186.5" font-family="Helvetica,sans-Serif" font-size="10.00">fmt/format.h</text>
</a>
</g>
</g>
<!-- Node12&#45;&gt;Node13 -->
<g id="edge13" class="edge">
<title>Node12&#45;&gt;Node13</title>
<path fill="none" stroke="midnightblue" d="M663.64,-235.08C666.18,-227.85 669.86,-217.41 673.03,-208.4"/>
<polygon fill="midnightblue" stroke="midnightblue" points="676.4,-209.35 676.42,-198.75 669.8,-207.02 676.4,-209.35"/>
</g>
<!-- Node15 -->
<g id="node15" class="node">
<title>Node15</title>
<g id="a_node15"><a xlink:href="instruction_8hpp.html" target="_top" xlink:title="This file defines the interface of a general ARM instruction.">
<polygon fill="none" stroke="black" points="2044,-56.5 2044,-75.5 2133,-75.5 2133,-56.5 2044,-56.5"/>
<text text-anchor="middle" x="2088.5" y="-63.5" font-family="Helvetica,sans-Serif" font-size="10.00">instruction.hpp</text>
</a>
</g>
</g>
<!-- Node14&#45;&gt;Node15 -->
<g id="edge16" class="edge">
<title>Node14&#45;&gt;Node15</title>
<path fill="none" stroke="midnightblue" d="M1995.05,-187.92C2112.54,-187.28 2491.32,-182.17 2527.5,-143 2536.85,-132.88 2536.73,-122.23 2527.5,-112 2502.17,-83.94 2255.03,-72.4 2143.1,-68.59"/>
<polygon fill="midnightblue" stroke="midnightblue" points="2143.13,-65.09 2133.02,-68.25 2142.9,-72.08 2143.13,-65.09"/>
</g>
<!-- Node16 -->
<g id="node16" class="node">
<title>Node16</title>
<g id="a_node16"><a xlink:href="branch__and__exchange_8hpp.html" target="_top" xlink:title="This file defines a branch and exchange instruction (BX).">
<polygon fill="none" stroke="black" points="2574.5,-118 2574.5,-137 2720.5,-137 2720.5,-118 2574.5,-118"/>
<text text-anchor="middle" x="2647.5" y="-125" font-family="Helvetica,sans-Serif" font-size="10.00">branch_and_exchange.hpp</text>
</a>
</g>
</g>
<!-- Node14&#45;&gt;Node16 -->
<g id="edge17" class="edge">
<title>Node14&#45;&gt;Node16</title>
<path fill="none" stroke="midnightblue" d="M1995.1,-186.5C2087.28,-182.27 2346.34,-168.82 2560.5,-143 2570.42,-141.8 2580.93,-140.28 2591.1,-138.66"/>
<polygon fill="midnightblue" stroke="midnightblue" points="2591.8,-142.09 2601.11,-137.03 2590.67,-135.18 2591.8,-142.09"/>
</g>
<!-- Node17 -->
<g id="node17" class="node">
<title>Node17</title>
<g id="a_node17"><a xlink:href="branch_8hpp.html" target="_top" xlink:title="This file defines a branch instruction (B, BL).">
<polygon fill="none" stroke="black" points="2739,-118 2739,-137 2810,-137 2810,-118 2739,-118"/>
<text text-anchor="middle" x="2774.5" y="-125" font-family="Helvetica,sans-Serif" font-size="10.00">branch.hpp</text>
</a>
</g>
</g>
<!-- Node14&#45;&gt;Node17 -->
<g id="edge19" class="edge">
<title>Node14&#45;&gt;Node17</title>
<path fill="none" stroke="midnightblue" d="M1995.03,-187.14C2125.12,-183.72 2585.56,-169.95 2729.5,-143 2733.68,-142.22 2738,-141.16 2742.25,-139.97"/>
<polygon fill="midnightblue" stroke="midnightblue" points="2743.36,-143.29 2751.9,-137.02 2741.31,-136.6 2743.36,-143.29"/>
</g>
<!-- Node18 -->
<g id="node18" class="node">
<title>Node18</title>
<g id="a_node18"><a xlink:href="data__processing_8hpp.html" target="_top" xlink:title="This file defines a data processing instruction.">
<polygon fill="none" stroke="black" points="1225,-118 1225,-137 1342,-137 1342,-118 1225,-118"/>
<text text-anchor="middle" x="1283.5" y="-125" font-family="Helvetica,sans-Serif" font-size="10.00">data_processing.hpp</text>
</a>
</g>
</g>
<!-- Node14&#45;&gt;Node18 -->
<g id="edge21" class="edge">
<title>Node14&#45;&gt;Node18</title>
<path fill="none" stroke="midnightblue" d="M1925.98,-187.1C1832.84,-184.31 1568.75,-174.04 1351.5,-143 1344.19,-141.96 1336.49,-140.58 1329,-139.1"/>
<polygon fill="midnightblue" stroke="midnightblue" points="1329.48,-135.62 1318.98,-137.02 1328.06,-142.48 1329.48,-135.62"/>
</g>
<!-- Node19 -->
<g id="node19" class="node">
<title>Node19</title>
<g id="a_node19"><a xlink:href="multiply_8hpp.html" target="_top" xlink:title="This file defines a multiplication instruction (MUL, MLA).">
<polygon fill="none" stroke="black" points="1360,-118 1360,-137 1437,-137 1437,-118 1360,-118"/>
<text text-anchor="middle" x="1398.5" y="-125" font-family="Helvetica,sans-Serif" font-size="10.00">multiply.hpp</text>
</a>
</g>
</g>
<!-- Node14&#45;&gt;Node19 -->
<g id="edge23" class="edge">
<title>Node14&#45;&gt;Node19</title>
<path fill="none" stroke="midnightblue" d="M1925.87,-187.42C1842.56,-185.5 1624.62,-177.32 1446.5,-143 1442.05,-142.14 1437.43,-141.04 1432.89,-139.81"/>
<polygon fill="midnightblue" stroke="midnightblue" points="1433.75,-136.42 1423.17,-137.01 1431.81,-143.15 1433.75,-136.42"/>
</g>
<!-- Node20 -->
<g id="node20" class="node">
<title>Node20</title>
<g id="a_node20"><a xlink:href="multiply__long_8hpp.html" target="_top" xlink:title="This file defines a multiplication (long) instruction.">
<polygon fill="none" stroke="black" points="1455.5,-118 1455.5,-137 1559.5,-137 1559.5,-118 1455.5,-118"/>
<text text-anchor="middle" x="1507.5" y="-125" font-family="Helvetica,sans-Serif" font-size="10.00">multiply_long.hpp</text>
</a>
</g>
</g>
<!-- Node14&#45;&gt;Node20 -->
<g id="edge25" class="edge">
<title>Node14&#45;&gt;Node20</title>
<path fill="none" stroke="midnightblue" d="M1925.79,-185.36C1857.3,-179.84 1700.1,-165.71 1569.5,-143 1563.35,-141.93 1556.9,-140.63 1550.58,-139.25"/>
<polygon fill="midnightblue" stroke="midnightblue" points="1551.35,-135.83 1540.82,-137.04 1549.8,-142.66 1551.35,-135.83"/>
</g>
<!-- Node21 -->
<g id="node21" class="node">
<title>Node21</title>
<g id="a_node21"><a xlink:href="single__data__transfer_8hpp.html" target="_top" xlink:title="This file defines single data transfer instruction (LDR, STR).">
<polygon fill="none" stroke="black" points="1578,-118 1578,-137 1715,-137 1715,-118 1578,-118"/>
<text text-anchor="middle" x="1646.5" y="-125" font-family="Helvetica,sans-Serif" font-size="10.00">single_data_transfer.hpp</text>
</a>
</g>
</g>
<!-- Node14&#45;&gt;Node21 -->
<g id="edge27" class="edge">
<title>Node14&#45;&gt;Node21</title>
<path fill="none" stroke="midnightblue" d="M1926,-181.46C1871.78,-171.19 1766.17,-151.18 1701.43,-138.91"/>
<polygon fill="midnightblue" stroke="midnightblue" points="1701.88,-135.43 1691.4,-137.01 1700.58,-142.31 1701.88,-135.43"/>
</g>
<!-- Node22 -->
<g id="node22" class="node">
<title>Node22</title>
<g id="a_node22"><a xlink:href="block__data__transfer_8hpp.html" target="_top" xlink:title="This file defines a block data transfer instruction (LDM, STM).">
<polygon fill="none" stroke="black" points="1733.5,-118 1733.5,-137 1867.5,-137 1867.5,-118 1733.5,-118"/>
<text text-anchor="middle" x="1800.5" y="-125" font-family="Helvetica,sans-Serif" font-size="10.00">block_data_transfer.hpp</text>
</a>
</g>
</g>
<!-- Node14&#45;&gt;Node22 -->
<g id="edge29" class="edge">
<title>Node14&#45;&gt;Node22</title>
<path fill="none" stroke="midnightblue" d="M1937.58,-179.48C1910.13,-169.27 1863.98,-152.11 1832.9,-140.55"/>
<polygon fill="midnightblue" stroke="midnightblue" points="1833.97,-137.21 1823.38,-137.01 1831.53,-143.78 1833.97,-137.21"/>
</g>
<!-- Node23 -->
<g id="node23" class="node">
<title>Node23</title>
<g id="a_node23"><a xlink:href="halfword__data__transfer_8hpp.html" target="_top" xlink:title="This file defines a Halfword data transfer instruction.">
<polygon fill="none" stroke="black" points="1886,-118 1886,-137 2035,-137 2035,-118 1886,-118"/>
<text text-anchor="middle" x="1960.5" y="-125" font-family="Helvetica,sans-Serif" font-size="10.00">halfword_data_transfer.hpp</text>
</a>
</g>
</g>
<!-- Node14&#45;&gt;Node23 -->
<g id="edge31" class="edge">
<title>Node14&#45;&gt;Node23</title>
<path fill="none" stroke="midnightblue" d="M1960.5,-179.48C1960.5,-171.08 1960.5,-157.98 1960.5,-147.16"/>
<polygon fill="midnightblue" stroke="midnightblue" points="1964,-147.01 1960.5,-137.01 1957,-147.01 1964,-147.01"/>
</g>
<!-- Node24 -->
<g id="node24" class="node">
<title>Node24</title>
<g id="a_node24"><a xlink:href="extend_8hpp.html" target="_top" xlink:title="This file defines an extend instruction.">
<polygon fill="none" stroke="black" points="2053,-118 2053,-137 2124,-137 2124,-118 2053,-118"/>
<text text-anchor="middle" x="2088.5" y="-125" font-family="Helvetica,sans-Serif" font-size="10.00">extend.hpp</text>
</a>
</g>
</g>
<!-- Node14&#45;&gt;Node24 -->
<g id="edge33" class="edge">
<title>Node14&#45;&gt;Node24</title>
<path fill="none" stroke="midnightblue" d="M1978.84,-179.48C2000.32,-169.49 2036.12,-152.85 2060.95,-141.31"/>
<polygon fill="midnightblue" stroke="midnightblue" points="2062.6,-144.4 2070.19,-137.01 2059.65,-138.05 2062.6,-144.4"/>
</g>
<!-- Node25 -->
<g id="node25" class="node">
<title>Node25</title>
<g id="a_node25"><a xlink:href="psr__transfer_8hpp.html" target="_top" xlink:title="This file defines a PSR instruction (MRS, MSR).">
<polygon fill="none" stroke="black" points="2142,-118 2142,-137 2237,-137 2237,-118 2142,-118"/>
<text text-anchor="middle" x="2189.5" y="-125" font-family="Helvetica,sans-Serif" font-size="10.00">psr_transfer.hpp</text>
</a>
</g>
</g>
<!-- Node14&#45;&gt;Node25 -->
<g id="edge35" class="edge">
<title>Node14&#45;&gt;Node25</title>
<path fill="none" stroke="midnightblue" d="M1993.31,-179.48C2033.7,-168.98 2102.38,-151.14 2146.83,-139.59"/>
<polygon fill="midnightblue" stroke="midnightblue" points="2147.95,-142.91 2156.75,-137.01 2146.19,-136.14 2147.95,-142.91"/>
</g>
<!-- Node26 -->
<g id="node26" class="node">
<title>Node26</title>
<g id="a_node26"><a xlink:href="cps_8hpp.html" target="_top" xlink:title="This file defines a change processor state instruction (CPS).">
<polygon fill="none" stroke="black" points="2255.5,-118 2255.5,-137 2309.5,-137 2309.5,-118 2255.5,-118"/>
<text text-anchor="middle" x="2282.5" y="-125" font-family="Helvetica,sans-Serif" font-size="10.00">cps.hpp</text>
</a>
</g>
</g>
<!-- Node14&#45;&gt;Node26 -->
<g id="edge37" class="edge">
<title>Node14&#45;&gt;Node26</title>
<path fill="none" stroke="midnightblue" d="M1995.38,-185.08C2049.79,-179.96 2157.84,-167.49 2246.5,-143 2248.94,-142.33 2251.45,-141.54 2253.94,-140.68"/>
<polygon fill="midnightblue" stroke="midnightblue" points="2255.21,-143.94 2263.35,-137.15 2252.76,-137.38 2255.21,-143.94"/>
</g>
<!-- Node27 -->
<g id="node27" class="node">
<title>Node27</title>
<g id="a_node27"><a xlink:href="coprocessor__register__transfer_8hpp.html" target="_top" xlink:title="This file defines a coprocessor register transfer (MRC, MCR).">
<polygon fill="none" stroke="black" points="1088.5,-112.5 1088.5,-142.5 1206.5,-142.5 1206.5,-112.5 1088.5,-112.5"/>
<text text-anchor="start" x="1096.5" y="-130.5" font-family="Helvetica,sans-Serif" font-size="10.00">coprocessor_register</text>
<text text-anchor="middle" x="1147.5" y="-119.5" font-family="Helvetica,sans-Serif" font-size="10.00">_transfer.hpp</text>
</a>
</g>
</g>
<!-- Node14&#45;&gt;Node27 -->
<g id="edge39" class="edge">
<title>Node14&#45;&gt;Node27</title>
<path fill="none" stroke="midnightblue" d="M1925.84,-187.71C1820.71,-186.44 1496.12,-179.71 1217.19,-142.93"/>
<polygon fill="midnightblue" stroke="midnightblue" points="1217.25,-139.41 1206.87,-141.55 1216.32,-146.35 1217.25,-139.41"/>
</g>
<!-- Node28 -->
<g id="node28" class="node">
<title>Node28</title>
<g id="a_node28"><a xlink:href="coprocessor__data__transfer_8hpp.html" target="_top" xlink:title="This file defines a coprocessor data transfer (LDC, STC).">
<polygon fill="none" stroke="black" points="710.5,-118 710.5,-137 876.5,-137 876.5,-118 710.5,-118"/>
<text text-anchor="middle" x="793.5" y="-125" font-family="Helvetica,sans-Serif" font-size="10.00">coprocessor_data_transfer.hpp</text>
</a>
</g>
</g>
<!-- Node14&#45;&gt;Node28 -->
<g id="edge41" class="edge">
<title>Node14&#45;&gt;Node28</title>
<path fill="none" stroke="midnightblue" d="M1925.63,-187.97C1791.19,-187.53 1293.69,-183.15 886.5,-143 875.18,-141.88 863.14,-140.3 851.61,-138.59"/>
<polygon fill="midnightblue" stroke="midnightblue" points="852.05,-135.12 841.64,-137.06 850.99,-142.04 852.05,-135.12"/>
</g>
<!-- Node29 -->
<g id="node29" class="node">
<title>Node29</title>
<g id="a_node29"><a xlink:href="coprocessor__data__operation_8hpp.html" target="_top" xlink:title="This file defines a coprocessor data operation (CDP).">
<polygon fill="none" stroke="black" points="895,-118 895,-137 1070,-137 1070,-118 895,-118"/>
<text text-anchor="middle" x="982.5" y="-125" font-family="Helvetica,sans-Serif" font-size="10.00">coprocessor_data_operation.hpp</text>
</a>
</g>
</g>
<!-- Node14&#45;&gt;Node29 -->
<g id="edge43" class="edge">
<title>Node14&#45;&gt;Node29</title>
<path fill="none" stroke="midnightblue" d="M1925.98,-187.44C1807.7,-185.28 1407.9,-175.85 1079.5,-143 1067.72,-141.82 1055.18,-140.21 1043.17,-138.5"/>
<polygon fill="midnightblue" stroke="midnightblue" points="1043.63,-135.03 1033.23,-137.04 1042.61,-141.95 1043.63,-135.03"/>
</g>
<!-- Node30 -->
<g id="node30" class="node">
<title>Node30</title>
<g id="a_node30"><a xlink:href="srs_8hpp.html" target="_top" xlink:title="This file defines an SRS instruction (store return state onto a stack).">
<polygon fill="none" stroke="black" points="2327.5,-118 2327.5,-137 2379.5,-137 2379.5,-118 2327.5,-118"/>
<text text-anchor="middle" x="2353.5" y="-125" font-family="Helvetica,sans-Serif" font-size="10.00">srs.hpp</text>
</a>
</g>
</g>
<!-- Node14&#45;&gt;Node30 -->
<g id="edge45" class="edge">
<title>Node14&#45;&gt;Node30</title>
<path fill="none" stroke="midnightblue" d="M1995.14,-186.72C2059.74,-183.66 2202.54,-173.71 2318.5,-143 2320.95,-142.35 2323.45,-141.57 2325.94,-140.71"/>
<polygon fill="midnightblue" stroke="midnightblue" points="2327.21,-143.97 2335.29,-137.12 2324.7,-137.44 2327.21,-143.97"/>
</g>
<!-- Node31 -->
<g id="node31" class="node">
<title>Node31</title>
<g id="a_node31"><a xlink:href="rfe_8hpp.html" target="_top" xlink:title="This file defines an RFE instruction (return from exception).">
<polygon fill="none" stroke="black" points="2398,-118 2398,-137 2449,-137 2449,-118 2398,-118"/>
<text text-anchor="middle" x="2423.5" y="-125" font-family="Helvetica,sans-Serif" font-size="10.00">rfe.hpp</text>
</a>
</g>
</g>
<!-- Node14&#45;&gt;Node31 -->
<g id="edge47" class="edge">
<title>Node14&#45;&gt;Node31</title>
<path fill="none" stroke="midnightblue" d="M1995.21,-187.71C2068.84,-186.37 2245.66,-179.28 2388.5,-143 2391.01,-142.36 2393.58,-141.58 2396.12,-140.71"/>
<polygon fill="midnightblue" stroke="midnightblue" points="2397.59,-143.89 2405.67,-137.05 2395.08,-137.36 2397.59,-143.89"/>
</g>
<!-- Node32 -->
<g id="node32" class="node">
<title>Node32</title>
<g id="a_node32"><a xlink:href="clz_8hpp.html" target="_top" xlink:title="This file defines a count leading zeros instruction (CLZ).">
<polygon fill="none" stroke="black" points="2467,-118 2467,-137 2518,-137 2518,-118 2467,-118"/>
<text text-anchor="middle" x="2492.5" y="-125" font-family="Helvetica,sans-Serif" font-size="10.00">clz.hpp</text>
</a>
</g>
</g>
<!-- Node14&#45;&gt;Node32 -->
<g id="edge49" class="edge">
<title>Node14&#45;&gt;Node32</title>
<path fill="none" stroke="midnightblue" d="M1995.23,-188.55C2077.22,-189.07 2288.66,-185.76 2458.5,-143 2460.86,-142.41 2463.27,-141.67 2465.66,-140.84"/>
<polygon fill="midnightblue" stroke="midnightblue" points="2467.18,-144.01 2475.22,-137.11 2464.63,-137.49 2467.18,-144.01"/>
</g>
<!-- Node16&#45;&gt;Node15 -->
<g id="edge18" class="edge">
<title>Node16&#45;&gt;Node15</title>
<path fill="none" stroke="midnightblue" d="M2600.18,-117.99C2587.33,-115.85 2573.41,-113.69 2560.5,-112 2409.95,-92.3 2231.32,-77.63 2143.23,-70.96"/>
<polygon fill="midnightblue" stroke="midnightblue" points="2143.43,-67.47 2133.19,-70.21 2142.9,-74.45 2143.43,-67.47"/>
</g>
<!-- Node17&#45;&gt;Node15 -->
<g id="edge20" class="edge">
<title>Node17&#45;&gt;Node15</title>
<path fill="none" stroke="midnightblue" d="M2751.42,-117.88C2744.47,-115.61 2736.75,-113.4 2729.5,-112 2515.69,-70.68 2255.25,-66.21 2143.61,-66.42"/>
<polygon fill="midnightblue" stroke="midnightblue" points="2143.26,-62.92 2133.28,-66.45 2143.29,-69.92 2143.26,-62.92"/>
</g>
<!-- Node18&#45;&gt;Node15 -->
<g id="edge22" class="edge">
<title>Node18&#45;&gt;Node15</title>
<path fill="none" stroke="midnightblue" d="M1318.62,-117.97C1329.14,-115.7 1340.74,-113.47 1351.5,-112 1604.81,-77.46 1910.74,-69.42 2033.56,-67.56"/>
<polygon fill="midnightblue" stroke="midnightblue" points="2033.88,-71.06 2043.83,-67.41 2033.78,-64.06 2033.88,-71.06"/>
</g>
<!-- Node19&#45;&gt;Node15 -->
<g id="edge24" class="edge">
<title>Node19&#45;&gt;Node15</title>
<path fill="none" stroke="midnightblue" d="M1423.15,-117.9C1430.57,-115.63 1438.79,-113.42 1446.5,-112 1661.23,-72.55 1922.19,-67.11 2033.7,-66.74"/>
<polygon fill="midnightblue" stroke="midnightblue" points="2033.71,-70.24 2043.71,-66.72 2033.7,-63.24 2033.71,-70.24"/>
</g>
<!-- Node20&#45;&gt;Node15 -->
<g id="edge26" class="edge">
<title>Node20&#45;&gt;Node15</title>
<path fill="none" stroke="midnightblue" d="M1540.15,-117.94C1549.57,-115.72 1559.89,-113.53 1569.5,-112 1737.37,-85.23 1938.5,-73.51 2033.57,-69.17"/>
<polygon fill="midnightblue" stroke="midnightblue" points="2033.97,-72.66 2043.81,-68.72 2033.66,-65.67 2033.97,-72.66"/>
</g>
<!-- Node21&#45;&gt;Node15 -->
<g id="edge28" class="edge">
<title>Node21&#45;&gt;Node15</title>
<path fill="none" stroke="midnightblue" d="M1689.74,-117.98C1701.03,-115.89 1713.2,-113.75 1724.5,-112 1833.81,-95.1 1962.37,-80.42 2033.73,-72.72"/>
<polygon fill="midnightblue" stroke="midnightblue" points="2034.26,-76.18 2043.83,-71.64 2033.52,-69.22 2034.26,-76.18"/>
</g>
<!-- Node22&#45;&gt;Node15 -->
<g id="edge30" class="edge">
<title>Node22&#45;&gt;Node15</title>
<path fill="none" stroke="midnightblue" d="M1841.76,-117.98C1893.3,-107.33 1981.48,-89.11 2037.29,-77.58"/>
<polygon fill="midnightblue" stroke="midnightblue" points="2038.23,-80.96 2047.31,-75.51 2036.81,-74.1 2038.23,-80.96"/>
</g>
<!-- Node23&#45;&gt;Node15 -->
<g id="edge32" class="edge">
<title>Node23&#45;&gt;Node15</title>
<path fill="none" stroke="midnightblue" d="M1978.84,-117.98C2000.32,-107.99 2036.12,-91.35 2060.95,-79.81"/>
<polygon fill="midnightblue" stroke="midnightblue" points="2062.6,-82.9 2070.19,-75.51 2059.65,-76.55 2062.6,-82.9"/>
</g>
<!-- Node24&#45;&gt;Node15 -->
<g id="edge34" class="edge">
<title>Node24&#45;&gt;Node15</title>
<path fill="none" stroke="midnightblue" d="M2088.5,-117.98C2088.5,-109.58 2088.5,-96.48 2088.5,-85.66"/>
<polygon fill="midnightblue" stroke="midnightblue" points="2092,-85.51 2088.5,-75.51 2085,-85.51 2092,-85.51"/>
</g>
<!-- Node25&#45;&gt;Node15 -->
<g id="edge36" class="edge">
<title>Node25&#45;&gt;Node15</title>
<path fill="none" stroke="midnightblue" d="M2175.03,-117.98C2158.53,-108.25 2131.32,-92.23 2111.82,-80.74"/>
<polygon fill="midnightblue" stroke="midnightblue" points="2113.34,-77.57 2102.94,-75.51 2109.78,-83.6 2113.34,-77.57"/>
</g>
<!-- Node26&#45;&gt;Node15 -->
<g id="edge38" class="edge">
<title>Node26&#45;&gt;Node15</title>
<path fill="none" stroke="midnightblue" d="M2262.46,-117.99C2257.3,-115.92 2251.73,-113.79 2246.5,-112 2208.4,-98.94 2164.25,-86.6 2132.33,-78.15"/>
<polygon fill="midnightblue" stroke="midnightblue" points="2132.98,-74.7 2122.42,-75.55 2131.2,-81.47 2132.98,-74.7"/>
</g>
<!-- Node27&#45;&gt;Node15 -->
<g id="edge40" class="edge">
<title>Node27&#45;&gt;Node15</title>
<path fill="none" stroke="midnightblue" d="M1206.87,-113.41C1210.12,-112.89 1213.34,-112.41 1216.5,-112 1523.43,-72.08 1895.47,-67.21 2033.51,-66.88"/>
<polygon fill="midnightblue" stroke="midnightblue" points="2033.82,-70.38 2043.81,-66.86 2033.81,-63.38 2033.82,-70.38"/>
</g>
<!-- Node28&#45;&gt;Node15 -->
<g id="edge42" class="edge">
<title>Node28&#45;&gt;Node15</title>
<path fill="none" stroke="midnightblue" d="M841.15,-117.97C855.67,-115.67 871.7,-113.43 886.5,-112 1327.55,-69.51 1863.22,-66.54 2033.68,-66.77"/>
<polygon fill="midnightblue" stroke="midnightblue" points="2033.89,-70.27 2043.9,-66.79 2033.9,-63.27 2033.89,-70.27"/>
</g>
<!-- Node29&#45;&gt;Node15 -->
<g id="edge44" class="edge">
<title>Node29&#45;&gt;Node15</title>
<path fill="none" stroke="midnightblue" d="M1032.72,-117.98C1047.73,-115.71 1064.25,-113.48 1079.5,-112 1442.69,-76.85 1882.13,-69.11 2033.88,-67.45"/>
<polygon fill="midnightblue" stroke="midnightblue" points="2033.91,-70.95 2043.88,-67.34 2033.84,-63.95 2033.91,-70.95"/>
</g>
<!-- Node30&#45;&gt;Node15 -->
<g id="edge46" class="edge">
<title>Node30&#45;&gt;Node15</title>
<path fill="none" stroke="midnightblue" d="M2334.86,-117.97C2329.64,-115.81 2323.92,-113.63 2318.5,-112 2259.71,-94.26 2190.3,-81.8 2143.22,-74.56"/>
<polygon fill="midnightblue" stroke="midnightblue" points="2143.64,-71.08 2133.23,-73.05 2142.6,-78 2143.64,-71.08"/>
</g>
<!-- Node31&#45;&gt;Node15 -->
<g id="edge48" class="edge">
<title>Node31&#45;&gt;Node15</title>
<path fill="none" stroke="midnightblue" d="M2405.27,-117.96C2399.96,-115.75 2394.08,-113.55 2388.5,-112 2304.67,-88.72 2204.11,-76.75 2143.32,-71.18"/>
<polygon fill="midnightblue" stroke="midnightblue" points="2143.45,-67.68 2133.18,-70.28 2142.83,-74.65 2143.45,-67.68"/>
</g>
<!-- Node32&#45;&gt;Node15 -->
<g id="edge50" class="edge">
<title>Node32&#45;&gt;Node15</title>
<path fill="none" stroke="midnightblue" d="M2474.84,-117.85C2469.68,-115.63 2463.95,-113.46 2458.5,-112 2349.19,-82.68 2216.54,-72.42 2143.46,-68.86"/>
<polygon fill="midnightblue" stroke="midnightblue" points="2143.27,-65.35 2133.12,-68.38 2142.95,-72.34 2143.27,-65.35"/>
</g>
<!-- Node33&#45;&gt;Node15 -->
<g id="edge52" class="edge">
<title>Node33&#45;&gt;Node15</title>
<path fill="none" stroke="midnightblue" d="M2246.13,-241.29C2415.35,-232.19 2900.65,-198.3 2819.5,-112 2796.41,-87.44 2309.82,-72.69 2143.6,-68.35"/>
<polygon fill="midnightblue" stroke="midnightblue" points="2143.2,-64.84 2133.12,-68.08 2143.02,-71.84 2143.2,-64.84"/>
</g>
<!-- Node34&#45;&gt;Node12 -->
<g id="edge65" class="edge">
<title>Node34&#45;&gt;Node12</title>
<path fill="none" stroke="midnightblue" d="M385.76,-296.96C392.78,-294.85 400.39,-292.7 407.5,-291 474.82,-274.9 553.47,-261.79 604.99,-253.95"/>
<polygon fill="midnightblue" stroke="midnightblue" points="605.56,-257.41 614.92,-252.46 604.51,-250.49 605.56,-257.41"/>
</g>
<!-- Node35 -->
<g id="node35" class="node">
<title>Node35</title>
<g id="a_node35"><a xlink:href="cp15_8hpp.html" target="_top" xlink:title=" ">
<polygon fill="none" stroke="black" points="177.5,-235.5 177.5,-254.5 305.5,-254.5 305.5,-235.5 177.5,-235.5"/>
<text text-anchor="middle" x="241.5" y="-242.5" font-family="Helvetica,sans-Serif" font-size="10.00">coprocessors/cp15.hpp</text>
</a>
</g>
</g>
<!-- Node34&#45;&gt;Node35 -->
<g id="edge54" class="edge">
<title>Node34&#45;&gt;Node35</title>
<path fill="none" stroke="midnightblue" d="M342.59,-296.98C322.97,-287.08 290.37,-270.64 267.51,-259.12"/>
<polygon fill="midnightblue" stroke="midnightblue" points="268.88,-255.89 258.38,-254.51 265.73,-262.14 268.88,-255.89"/>
</g>
<!-- Node38 -->
<g id="node38" class="node">
<title>Node38</title>
<g id="a_node38"><a xlink:href="peripheral_8hpp.html" target="_top" xlink:title="This file defines an interface for a memory&#45;mapped peripheral.">
<polygon fill="none" stroke="black" points="324,-235.5 324,-254.5 469,-254.5 469,-235.5 324,-235.5"/>
<text text-anchor="middle" x="396.5" y="-242.5" font-family="Helvetica,sans-Serif" font-size="10.00">peripherals/peripheral.hpp</text>
</a>
</g>
</g>
<!-- Node34&#45;&gt;Node38 -->
<g id="edge64" class="edge">
<title>Node34&#45;&gt;Node38</title>
<path fill="none" stroke="midnightblue" d="M364.8,-296.98C370.24,-288.23 378.86,-274.37 385.74,-263.31"/>
<polygon fill="midnightblue" stroke="midnightblue" points="388.9,-264.85 391.21,-254.51 382.96,-261.15 388.9,-264.85"/>
</g>
<!-- Node35&#45;&gt;Node6 -->
<g id="edge63" class="edge">
<title>Node35&#45;&gt;Node6</title>
<path fill="none" stroke="midnightblue" d="M259.62,-235.43C275.9,-227.28 300,-214.05 318.5,-199 362.6,-163.12 404.87,-110.5 425.1,-83.83"/>
<polygon fill="midnightblue" stroke="midnightblue" points="428.1,-85.65 431.3,-75.55 422.5,-81.45 428.1,-85.65"/>
</g>
<!-- Node35&#45;&gt;Node8 -->
<g id="edge55" class="edge">
<title>Node35&#45;&gt;Node8</title>
<path fill="none" stroke="midnightblue" d="M232.56,-235.27C224.51,-226.81 213.12,-213.21 207.5,-199 184.4,-140.59 184.66,-64.45 186.26,-29.73"/>
<polygon fill="midnightblue" stroke="midnightblue" points="189.77,-29.81 186.83,-19.63 182.78,-29.42 189.77,-29.81"/>
</g>
<!-- Node36 -->
<g id="node36" class="node">
<title>Node36</title>
<g id="a_node36"><a xlink:title=" ">
<polygon fill="none" stroke="#bfbfbf" points="216,-179.5 216,-198.5 309,-198.5 309,-179.5 216,-179.5"/>
<text text-anchor="middle" x="262.5" y="-186.5" font-family="Helvetica,sans-Serif" font-size="10.00">unordered_map</text>
</a>
</g>
</g>
<!-- Node35&#45;&gt;Node36 -->
<g id="edge56" class="edge">
<title>Node35&#45;&gt;Node36</title>
<path fill="none" stroke="midnightblue" d="M244.97,-235.08C247.81,-227.77 251.93,-217.18 255.46,-208.1"/>
<polygon fill="midnightblue" stroke="midnightblue" points="258.73,-209.34 259.1,-198.75 252.21,-206.8 258.73,-209.34"/>
</g>
<!-- Node37 -->
<g id="node37" class="node">
<title>Node37</title>
<g id="a_node37"><a xlink:href="coprocessor_8hpp.html" target="_top" xlink:title=" ">
<polygon fill="none" stroke="black" points="776,-179.5 776,-198.5 871,-198.5 871,-179.5 776,-179.5"/>
<text text-anchor="middle" x="823.5" y="-186.5" font-family="Helvetica,sans-Serif" font-size="10.00">coprocessor.hpp</text>
</a>
</g>
</g>
<!-- Node35&#45;&gt;Node37 -->
<g id="edge57" class="edge">
<title>Node35&#45;&gt;Node37</title>
<path fill="none" stroke="midnightblue" d="M305.66,-236.06C308.99,-235.69 312.28,-235.34 315.5,-235 498.76,-215.87 545.01,-215.69 728.5,-199 740.49,-197.91 753.32,-196.71 765.56,-195.56"/>
<polygon fill="midnightblue" stroke="midnightblue" points="766.04,-199.03 775.66,-194.6 765.38,-192.06 766.04,-199.03"/>
</g>
<!-- Node37&#45;&gt;Node5 -->
<g id="edge59" class="edge">
<title>Node37&#45;&gt;Node5</title>
<path fill="none" stroke="midnightblue" d="M787.68,-179.48C743.31,-168.92 667.66,-150.91 619.17,-139.37"/>
<polygon fill="midnightblue" stroke="midnightblue" points="619.79,-135.92 609.25,-137.01 618.17,-142.73 619.79,-135.92"/>
</g>
<!-- Node37&#45;&gt;Node9 -->
<g id="edge58" class="edge">
<title>Node37&#45;&gt;Node9</title>
<path fill="none" stroke="midnightblue" d="M775.85,-179.8C751.08,-173.41 721.82,-162.25 701.5,-143 668.53,-111.77 653.63,-58.26 647.77,-29.91"/>
<polygon fill="midnightblue" stroke="midnightblue" points="651.15,-28.92 645.84,-19.75 644.27,-30.23 651.15,-28.92"/>
</g>
<!-- Node37&#45;&gt;Node27 -->
<g id="edge60" class="edge">
<title>Node37&#45;&gt;Node27</title>
<path fill="none" stroke="midnightblue" d="M871.25,-180.14C920.63,-171.89 1000.21,-158.26 1078.19,-143.22"/>
<polygon fill="midnightblue" stroke="midnightblue" points="1079.04,-146.62 1088.19,-141.28 1077.7,-139.75 1079.04,-146.62"/>
</g>
<!-- Node37&#45;&gt;Node28 -->
<g id="edge61" class="edge">
<title>Node37&#45;&gt;Node28</title>
<path fill="none" stroke="midnightblue" d="M819.2,-179.48C814.84,-170.82 807.94,-157.15 802.4,-146.15"/>
<polygon fill="midnightblue" stroke="midnightblue" points="805.42,-144.36 797.79,-137.01 799.17,-147.51 805.42,-144.36"/>
</g>
<!-- Node37&#45;&gt;Node29 -->
<g id="edge62" class="edge">
<title>Node37&#45;&gt;Node29</title>
<path fill="none" stroke="midnightblue" d="M846.28,-179.48C873.55,-169.27 919.41,-152.11 950.3,-140.55"/>
<polygon fill="midnightblue" stroke="midnightblue" points="951.62,-143.79 959.76,-137.01 949.17,-137.24 951.62,-143.79"/>
</g>
<!-- Node40&#45;&gt;Node5 -->
<g id="edge70" class="edge">
<title>Node40&#45;&gt;Node5</title>
<path fill="none" stroke="midnightblue" d="M488.51,-291.21C495.32,-281.26 504.35,-267.56 511.5,-255 532.88,-217.43 554.29,-171.43 565.5,-146.56"/>
<polygon fill="midnightblue" stroke="midnightblue" points="568.76,-147.84 569.65,-137.28 562.37,-144.98 568.76,-147.84"/>
</g>
<!-- Node40&#45;&gt;Node6 -->
<g id="edge71" class="edge">
<title>Node40&#45;&gt;Node6</title>
<path fill="none" stroke="midnightblue" d="M479.49,-291.4C480.25,-277.12 480.84,-254.44 478.5,-235 471.83,-179.52 453.18,-115.9 443.5,-85.31"/>
<polygon fill="midnightblue" stroke="midnightblue" points="446.78,-84.06 440.38,-75.61 440.11,-86.2 446.78,-84.06"/>
</g>
<!-- Node40&#45;&gt;Node38 -->
<g id="edge69" class="edge">
<title>Node40&#45;&gt;Node38</title>
<path fill="none" stroke="midnightblue" d="M459.07,-291.4C446.29,-282.13 429.61,-270.03 416.69,-260.65"/>
<polygon fill="midnightblue" stroke="midnightblue" points="418.58,-257.7 408.43,-254.66 414.47,-263.36 418.58,-257.7"/>
</g>
<!-- Node42&#45;&gt;Node8 -->
<g id="edge75" class="edge">
<title>Node42&#45;&gt;Node8</title>
<path fill="none" stroke="midnightblue" d="M229.62,-358.36C190.25,-330.99 111.5,-266.67 111.5,-190 111.5,-190 111.5,-190 111.5,-126.5 111.5,-84.81 146.48,-46.53 168.98,-26.22"/>
<polygon fill="midnightblue" stroke="midnightblue" points="171.36,-28.78 176.61,-19.58 166.77,-23.5 171.36,-28.78"/>
</g>
<!-- Node42&#45;&gt;Node34 -->
<g id="edge76" class="edge">
<title>Node42&#45;&gt;Node34</title>
<path fill="none" stroke="midnightblue" d="M274.93,-358.4C293.21,-347.39 318.46,-332.2 336.6,-321.28"/>
<polygon fill="midnightblue" stroke="midnightblue" points="338.6,-324.16 345.37,-316.01 334.99,-318.16 338.6,-324.16"/>
</g>
</g>
</svg>
