<?xml version="1.0" encoding="UTF-8" standalone="no"?>
<!DOCTYPE svg PUBLIC "-//W3C//DTD SVG 1.1//EN"
 "http://www.w3.org/Graphics/SVG/1.1/DTD/svg11.dtd">
<!-- Generated by graphviz version 2.43.0 (0)
 -->
<!-- Title: src/gui/windows/file_window.hpp Pages: 1 -->
<svg width="2776pt" height="408pt"
 viewBox="0.00 0.00 2775.76 408.00" xmlns="http://www.w3.org/2000/svg" xmlns:xlink="http://www.w3.org/1999/xlink">
<g id="graph0" class="graph" transform="scale(1 1) rotate(0) translate(4 404)">
<title>src/gui/windows/file_window.hpp</title>
<!-- Node1 -->
<g id="node1" class="node">
<title>Node1</title>
<g id="a_node1"><a xlink:title=" ">
<polygon fill="#bfbfbf" stroke="black" points="311,-369.5 311,-399.5 424,-399.5 424,-369.5 311,-369.5"/>
<text text-anchor="start" x="319" y="-387.5" font-family="Helvetica,sans-Serif" font-size="10.00">src/gui/windows/file</text>
<text text-anchor="middle" x="367.5" y="-376.5" font-family="Helvetica,sans-Serif" font-size="10.00">_window.hpp</text>
</a>
</g>
</g>
<!-- Node2 -->
<g id="node2" class="node">
<title>Node2</title>
<g id="a_node2"><a xlink:href="window_8hpp.html" target="_top" xlink:title=" ">
<polygon fill="none" stroke="black" points="0,-308 0,-327 83,-327 83,-308 0,-308"/>
<text text-anchor="middle" x="41.5" y="-315" font-family="Helvetica,sans-Serif" font-size="10.00">../window.hpp</text>
</a>
</g>
</g>
<!-- Node1&#45;&gt;Node2 -->
<g id="edge1" class="edge">
<title>Node1&#45;&gt;Node2</title>
<path fill="none" stroke="midnightblue" d="M310.9,-374.08C256.11,-364.68 170.81,-349.33 97.5,-333 92.73,-331.94 87.74,-330.75 82.8,-329.53"/>
<polygon fill="midnightblue" stroke="midnightblue" points="83.36,-326.06 72.8,-327.01 81.64,-332.85 83.36,-326.06"/>
</g>
<!-- Node4 -->
<g id="node4" class="node">
<title>Node4</title>
<g id="a_node4"><a xlink:href="core_8hpp.html" target="_top" xlink:title="This file defines a class that represents a CPU core (arm1176jzf_s).">
<polygon fill="none" stroke="black" points="530.5,-302.5 530.5,-332.5 644.5,-332.5 644.5,-302.5 530.5,-302.5"/>
<text text-anchor="start" x="538.5" y="-320.5" font-family="Helvetica,sans-Serif" font-size="10.00">../../core/arm1176jzf</text>
<text text-anchor="middle" x="587.5" y="-309.5" font-family="Helvetica,sans-Serif" font-size="10.00">_s/core.hpp</text>
</a>
</g>
</g>
<!-- Node1&#45;&gt;Node4 -->
<g id="edge3" class="edge">
<title>Node1&#45;&gt;Node4</title>
<path fill="none" stroke="midnightblue" d="M414.97,-369.48C448.68,-359.51 494.13,-346.09 529.92,-335.51"/>
<polygon fill="midnightblue" stroke="midnightblue" points="531.14,-338.8 539.74,-332.61 529.16,-332.09 531.14,-338.8"/>
</g>
<!-- Node6 -->
<g id="node6" class="node">
<title>Node6</title>
<g id="a_node6"><a xlink:href="logger_8hpp.html" target="_top" xlink:title=" ">
<polygon fill="none" stroke="black" points="120.5,-0.5 120.5,-19.5 254.5,-19.5 254.5,-0.5 120.5,-0.5"/>
<text text-anchor="middle" x="187.5" y="-7.5" font-family="Helvetica,sans-Serif" font-size="10.00">../utils/logger/logger.hpp</text>
</a>
</g>
</g>
<!-- Node1&#45;&gt;Node6 -->
<g id="edge67" class="edge">
<title>Node1&#45;&gt;Node6</title>
<path fill="none" stroke="midnightblue" d="M310.69,-378.99C235.27,-369.56 111.5,-340.51 111.5,-251.5 111.5,-251.5 111.5,-251.5 111.5,-132 111.5,-88.48 147.2,-47.77 169.66,-26.47"/>
<polygon fill="midnightblue" stroke="midnightblue" points="172.23,-28.86 177.25,-19.53 167.51,-23.7 172.23,-28.86"/>
</g>
<!-- Node29 -->
<g id="node29" class="node">
<title>Node29</title>
<g id="a_node29"><a xlink:href="bus_8hpp.html" target="_top" xlink:title="This file defines an interface the CPU uses to access different memory&#45;mapped peripherals.">
<polygon fill="none" stroke="black" points="411.5,-241 411.5,-260 475.5,-260 475.5,-241 411.5,-241"/>
<text text-anchor="middle" x="443.5" y="-248" font-family="Helvetica,sans-Serif" font-size="10.00">../bus.hpp</text>
</a>
</g>
</g>
<!-- Node1&#45;&gt;Node29 -->
<g id="edge64" class="edge">
<title>Node1&#45;&gt;Node29</title>
<path fill="none" stroke="midnightblue" d="M368.45,-369.28C370.14,-352.22 374.79,-323.26 387.5,-302 396.04,-287.71 409.91,-275.16 421.71,-266.15"/>
<polygon fill="midnightblue" stroke="midnightblue" points="423.81,-268.95 429.83,-260.23 419.69,-263.29 423.81,-268.95"/>
</g>
<!-- Node36 -->
<g id="node36" class="node">
<title>Node36</title>
<g id="a_node36"><a xlink:href="elf__loader_8hpp.html" target="_top" xlink:title="This file defines the functionality of an ELF loader.">
<polygon fill="none" stroke="black" points="396,-302.5 396,-332.5 491,-332.5 491,-302.5 396,-302.5"/>
<text text-anchor="start" x="404" y="-320.5" font-family="Helvetica,sans-Serif" font-size="10.00">../../core/utils/elf</text>
<text text-anchor="middle" x="443.5" y="-309.5" font-family="Helvetica,sans-Serif" font-size="10.00">_loader.hpp</text>
</a>
</g>
</g>
<!-- Node1&#45;&gt;Node36 -->
<g id="edge65" class="edge">
<title>Node1&#45;&gt;Node36</title>
<path fill="none" stroke="midnightblue" d="M383.99,-369.4C394.35,-360.54 407.88,-348.96 419.43,-339.09"/>
<polygon fill="midnightblue" stroke="midnightblue" points="421.72,-341.74 427.04,-332.58 417.17,-336.42 421.72,-341.74"/>
</g>
<!-- Node3 -->
<g id="node3" class="node">
<title>Node3</title>
<g id="a_node3"><a xlink:title=" ">
<polygon fill="none" stroke="#bfbfbf" points="12.5,-241 12.5,-260 70.5,-260 70.5,-241 12.5,-241"/>
<text text-anchor="middle" x="41.5" y="-248" font-family="Helvetica,sans-Serif" font-size="10.00">memory</text>
</a>
</g>
</g>
<!-- Node2&#45;&gt;Node3 -->
<g id="edge2" class="edge">
<title>Node2&#45;&gt;Node3</title>
<path fill="none" stroke="midnightblue" d="M41.5,-307.73C41.5,-298.18 41.5,-282.62 41.5,-270.28"/>
<polygon fill="midnightblue" stroke="midnightblue" points="45,-270.13 41.5,-260.13 38,-270.13 45,-270.13"/>
</g>
<!-- Node5 -->
<g id="node5" class="node">
<title>Node5</title>
<g id="a_node5"><a xlink:href="context_8hpp.html" target="_top" xlink:title="This file defines the context (registers) of the CPU.">
<polygon fill="none" stroke="black" points="469.5,-62 469.5,-81 543.5,-81 543.5,-62 469.5,-62"/>
<text text-anchor="middle" x="506.5" y="-69" font-family="Helvetica,sans-Serif" font-size="10.00">context.hpp</text>
</a>
</g>
</g>
<!-- Node4&#45;&gt;Node5 -->
<g id="edge4" class="edge">
<title>Node4&#45;&gt;Node5</title>
<path fill="none" stroke="midnightblue" d="M583,-302.47C578.42,-285.6 573.31,-256.82 583.5,-235 594.05,-212.42 615.95,-221.58 626.5,-199 633.23,-184.58 637.91,-143.68 623.5,-123 607.42,-99.92 578.46,-87.31 553.38,-80.46"/>
<polygon fill="midnightblue" stroke="midnightblue" points="554.18,-77.06 543.63,-78.03 552.49,-83.85 554.18,-77.06"/>
</g>
<!-- Node4&#45;&gt;Node6 -->
<g id="edge58" class="edge">
<title>Node4&#45;&gt;Node6</title>
<path fill="none" stroke="midnightblue" d="M644.66,-313.02C710.26,-307.7 811.87,-294.92 835.5,-266 844.22,-255.33 842.15,-247.07 835.5,-235 826.53,-218.7 570.02,-62.26 552.5,-56 457.47,-22.03 340.64,-12.85 265.16,-10.8"/>
<polygon fill="midnightblue" stroke="midnightblue" points="264.87,-7.3 254.79,-10.56 264.7,-14.29 264.87,-7.3"/>
</g>
<!-- Node7 -->
<g id="node7" class="node">
<title>Node7</title>
<g id="a_node7"><a xlink:href="exceptions_8hpp.html" target="_top" xlink:title="This file defines all exceptions that can be thrown by the CPU during execution.">
<polygon fill="none" stroke="black" points="526,-179.5 526,-198.5 617,-198.5 617,-179.5 526,-179.5"/>
<text text-anchor="middle" x="571.5" y="-186.5" font-family="Helvetica,sans-Serif" font-size="10.00">exceptions.hpp</text>
</a>
</g>
</g>
<!-- Node4&#45;&gt;Node7 -->
<g id="edge6" class="edge">
<title>Node4&#45;&gt;Node7</title>
<path fill="none" stroke="midnightblue" d="M573.39,-302.46C564.95,-293.03 555.03,-279.84 550.5,-266 544.01,-246.15 552.71,-222.96 560.81,-207.47"/>
<polygon fill="midnightblue" stroke="midnightblue" points="564,-208.94 565.87,-198.51 557.9,-205.49 564,-208.94"/>
</g>
<!-- Node9 -->
<g id="node9" class="node">
<title>Node9</title>
<g id="a_node9"><a xlink:href="isa_8hpp.html" target="_top" xlink:title="This file is just a helper file for including all ARM instructions supported by the emulator.">
<polygon fill="none" stroke="black" points="1556,-123.5 1556,-142.5 1625,-142.5 1625,-123.5 1556,-123.5"/>
<text text-anchor="middle" x="1590.5" y="-130.5" font-family="Helvetica,sans-Serif" font-size="10.00">isa/isa.hpp</text>
</a>
</g>
</g>
<!-- Node4&#45;&gt;Node9 -->
<g id="edge9" class="edge">
<title>Node4&#45;&gt;Node9</title>
<path fill="none" stroke="midnightblue" d="M644.56,-306.3C701.34,-296.13 790.95,-280.06 868.5,-266 1125.05,-219.5 1432.73,-163 1545.91,-142.2"/>
<polygon fill="midnightblue" stroke="midnightblue" points="1546.74,-145.61 1555.94,-140.36 1545.47,-138.72 1546.74,-145.61"/>
</g>
<!-- Node28 -->
<g id="node28" class="node">
<title>Node28</title>
<g id="a_node28"><a xlink:href="isa__decoder_8hpp.html" target="_top" xlink:title="This file defines an instruction decoder.">
<polygon fill="none" stroke="black" points="2255,-179.5 2255,-198.5 2368,-198.5 2368,-179.5 2255,-179.5"/>
<text text-anchor="middle" x="2311.5" y="-186.5" font-family="Helvetica,sans-Serif" font-size="10.00">isa/isa_decoder.hpp</text>
</a>
</g>
</g>
<!-- Node4&#45;&gt;Node28 -->
<g id="edge45" class="edge">
<title>Node4&#45;&gt;Node28</title>
<path fill="none" stroke="midnightblue" d="M644.86,-312.29C904.15,-293.27 1966.11,-215.34 2244.45,-194.92"/>
<polygon fill="midnightblue" stroke="midnightblue" points="2245.08,-198.38 2254.8,-194.16 2244.57,-191.4 2245.08,-198.38"/>
</g>
<!-- Node4&#45;&gt;Node29 -->
<g id="edge47" class="edge">
<title>Node4&#45;&gt;Node29</title>
<path fill="none" stroke="midnightblue" d="M556.25,-302.4C531.1,-291.04 496.05,-275.22 471.73,-264.24"/>
<polygon fill="midnightblue" stroke="midnightblue" points="472.9,-260.93 462.35,-260.01 470.02,-267.31 472.9,-260.93"/>
</g>
<!-- Node33 -->
<g id="node33" class="node">
<title>Node33</title>
<g id="a_node33"><a xlink:href="math_8hpp.html" target="_top" xlink:title="This file defines and implements a variety of handy helper functions that are used throughout the pro...">
<polygon fill="none" stroke="black" points="592.5,-241 592.5,-260 688.5,-260 688.5,-241 592.5,-241"/>
<text text-anchor="middle" x="640.5" y="-248" font-family="Helvetica,sans-Serif" font-size="10.00">../utils/math.hpp</text>
</a>
</g>
</g>
<!-- Node4&#45;&gt;Node33 -->
<g id="edge57" class="edge">
<title>Node4&#45;&gt;Node33</title>
<path fill="none" stroke="midnightblue" d="M599,-302.4C607.18,-292.36 618.21,-278.84 626.84,-268.25"/>
<polygon fill="midnightblue" stroke="midnightblue" points="629.8,-270.16 633.41,-260.19 624.38,-265.73 629.8,-270.16"/>
</g>
<!-- Node34 -->
<g id="node34" class="node">
<title>Node34</title>
<g id="a_node34"><a xlink:href="interrupt__controller_8hpp.html" target="_top" xlink:title="This file defines the interrupt controller used in BCM2835.">
<polygon fill="none" stroke="black" points="183,-235.5 183,-265.5 308,-265.5 308,-235.5 183,-235.5"/>
<text text-anchor="start" x="191" y="-253.5" font-family="Helvetica,sans-Serif" font-size="10.00">../peripherals/interrupt</text>
<text text-anchor="middle" x="245.5" y="-242.5" font-family="Helvetica,sans-Serif" font-size="10.00">_controller.hpp</text>
</a>
</g>
</g>
<!-- Node4&#45;&gt;Node34 -->
<g id="edge59" class="edge">
<title>Node4&#45;&gt;Node34</title>
<path fill="none" stroke="midnightblue" d="M530.26,-305.62C471.96,-294.54 381.37,-277.32 318.07,-265.29"/>
<polygon fill="midnightblue" stroke="midnightblue" points="318.63,-261.84 308.15,-263.41 317.32,-268.71 318.63,-261.84"/>
</g>
<!-- Node35 -->
<g id="node35" class="node">
<title>Node35</title>
<g id="a_node35"><a xlink:href="system__clock__listener_8hpp.html" target="_top" xlink:title="This file defines an interface for a CPU clock listener.">
<polygon fill="none" stroke="black" points="707,-235.5 707,-265.5 826,-265.5 826,-235.5 707,-235.5"/>
<text text-anchor="start" x="715" y="-253.5" font-family="Helvetica,sans-Serif" font-size="10.00">../peripherals/system</text>
<text text-anchor="middle" x="766.5" y="-242.5" font-family="Helvetica,sans-Serif" font-size="10.00">_clock_listener.hpp</text>
</a>
</g>
</g>
<!-- Node4&#45;&gt;Node35 -->
<g id="edge63" class="edge">
<title>Node4&#45;&gt;Node35</title>
<path fill="none" stroke="midnightblue" d="M626.34,-302.4C653.32,-292.6 689.44,-279.48 718.27,-269.02"/>
<polygon fill="midnightblue" stroke="midnightblue" points="719.53,-272.28 727.74,-265.58 717.14,-265.7 719.53,-272.28"/>
</g>
<!-- Node5&#45;&gt;Node6 -->
<g id="edge5" class="edge">
<title>Node5&#45;&gt;Node6</title>
<path fill="none" stroke="midnightblue" d="M469.28,-63.56C413.59,-53.17 308.18,-33.51 243.26,-21.4"/>
<polygon fill="midnightblue" stroke="midnightblue" points="243.68,-17.92 233.21,-19.53 242.39,-24.8 243.68,-17.92"/>
</g>
<!-- Node7&#45;&gt;Node5 -->
<g id="edge8" class="edge">
<title>Node7&#45;&gt;Node5</title>
<path fill="none" stroke="midnightblue" d="M559.86,-179.25C549.65,-170.98 535.11,-157.67 526.5,-143 517.05,-126.91 511.87,-106.13 509.16,-91.3"/>
<polygon fill="midnightblue" stroke="midnightblue" points="512.6,-90.62 507.54,-81.3 505.68,-91.73 512.6,-90.62"/>
</g>
<!-- Node8 -->
<g id="node8" class="node">
<title>Node8</title>
<g id="a_node8"><a xlink:title=" ">
<polygon fill="none" stroke="#bfbfbf" points="535,-123.5 535,-142.5 614,-142.5 614,-123.5 535,-123.5"/>
<text text-anchor="middle" x="574.5" y="-130.5" font-family="Helvetica,sans-Serif" font-size="10.00">fmt/format.h</text>
</a>
</g>
</g>
<!-- Node7&#45;&gt;Node8 -->
<g id="edge7" class="edge">
<title>Node7&#45;&gt;Node8</title>
<path fill="none" stroke="midnightblue" d="M572,-179.08C572.39,-172.01 572.95,-161.86 573.45,-152.99"/>
<polygon fill="midnightblue" stroke="midnightblue" points="576.95,-152.93 574.01,-142.75 569.96,-152.54 576.95,-152.93"/>
</g>
<!-- Node10 -->
<g id="node10" class="node">
<title>Node10</title>
<g id="a_node10"><a xlink:href="instruction_8hpp.html" target="_top" xlink:title="This file defines the interface of a general ARM instruction.">
<polygon fill="none" stroke="black" points="1600,-0.5 1600,-19.5 1689,-19.5 1689,-0.5 1600,-0.5"/>
<text text-anchor="middle" x="1644.5" y="-7.5" font-family="Helvetica,sans-Serif" font-size="10.00">instruction.hpp</text>
</a>
</g>
</g>
<!-- Node9&#45;&gt;Node10 -->
<g id="edge10" class="edge">
<title>Node9&#45;&gt;Node10</title>
<path fill="none" stroke="midnightblue" d="M1598.95,-123.45C1606.93,-114.91 1618.66,-101.06 1625.5,-87 1634.41,-68.7 1639.4,-45.82 1642,-29.97"/>
<polygon fill="midnightblue" stroke="midnightblue" points="1645.5,-30.24 1643.5,-19.84 1638.57,-29.22 1645.5,-30.24"/>
</g>
<!-- Node11 -->
<g id="node11" class="node">
<title>Node11</title>
<g id="a_node11"><a xlink:href="branch__and__exchange_8hpp.html" target="_top" xlink:title="This file defines a branch and exchange instruction (BX).">
<polygon fill="none" stroke="black" points="1672.5,-62 1672.5,-81 1818.5,-81 1818.5,-62 1672.5,-62"/>
<text text-anchor="middle" x="1745.5" y="-69" font-family="Helvetica,sans-Serif" font-size="10.00">branch_and_exchange.hpp</text>
</a>
</g>
</g>
<!-- Node9&#45;&gt;Node11 -->
<g id="edge11" class="edge">
<title>Node9&#45;&gt;Node11</title>
<path fill="none" stroke="midnightblue" d="M1612.71,-123.48C1639.18,-113.31 1683.61,-96.26 1713.72,-84.7"/>
<polygon fill="midnightblue" stroke="midnightblue" points="1715.25,-87.86 1723.33,-81.01 1712.74,-81.33 1715.25,-87.86"/>
</g>
<!-- Node12 -->
<g id="node12" class="node">
<title>Node12</title>
<g id="a_node12"><a xlink:href="branch_8hpp.html" target="_top" xlink:title="This file defines a branch instruction (B, BL).">
<polygon fill="none" stroke="black" points="1837,-62 1837,-81 1908,-81 1908,-62 1837,-62"/>
<text text-anchor="middle" x="1872.5" y="-69" font-family="Helvetica,sans-Serif" font-size="10.00">branch.hpp</text>
</a>
</g>
</g>
<!-- Node9&#45;&gt;Node12 -->
<g id="edge13" class="edge">
<title>Node9&#45;&gt;Node12</title>
<path fill="none" stroke="midnightblue" d="M1625.34,-126.77C1671.81,-119.49 1756.48,-105.11 1827.5,-87 1830.94,-86.12 1834.51,-85.13 1838.06,-84.08"/>
<polygon fill="midnightblue" stroke="midnightblue" points="1839.38,-87.33 1847.9,-81.03 1837.32,-80.64 1839.38,-87.33"/>
</g>
<!-- Node13 -->
<g id="node13" class="node">
<title>Node13</title>
<g id="a_node13"><a xlink:href="data__processing_8hpp.html" target="_top" xlink:title="This file defines a data processing instruction.">
<polygon fill="none" stroke="black" points="1926,-62 1926,-81 2043,-81 2043,-62 1926,-62"/>
<text text-anchor="middle" x="1984.5" y="-69" font-family="Helvetica,sans-Serif" font-size="10.00">data_processing.hpp</text>
</a>
</g>
</g>
<!-- Node9&#45;&gt;Node13 -->
<g id="edge15" class="edge">
<title>Node9&#45;&gt;Node13</title>
<path fill="none" stroke="midnightblue" d="M1625,-128.13C1684.79,-121.23 1811.41,-105.75 1917.5,-87 1923.88,-85.87 1930.58,-84.57 1937.18,-83.21"/>
<polygon fill="midnightblue" stroke="midnightblue" points="1938.33,-86.55 1947.39,-81.06 1936.88,-79.7 1938.33,-86.55"/>
</g>
<!-- Node14 -->
<g id="node14" class="node">
<title>Node14</title>
<g id="a_node14"><a xlink:href="multiply_8hpp.html" target="_top" xlink:title="This file defines a multiplication instruction (MUL, MLA).">
<polygon fill="none" stroke="black" points="2061,-62 2061,-81 2138,-81 2138,-62 2061,-62"/>
<text text-anchor="middle" x="2099.5" y="-69" font-family="Helvetica,sans-Serif" font-size="10.00">multiply.hpp</text>
</a>
</g>
</g>
<!-- Node9&#45;&gt;Node14 -->
<g id="edge17" class="edge">
<title>Node9&#45;&gt;Node14</title>
<path fill="none" stroke="midnightblue" d="M1625.04,-131.02C1702.35,-128.3 1894.87,-118.65 2052.5,-87 2056.64,-86.17 2060.94,-85.12 2065.18,-83.96"/>
<polygon fill="midnightblue" stroke="midnightblue" points="2066.25,-87.29 2074.86,-81.13 2064.28,-80.58 2066.25,-87.29"/>
</g>
<!-- Node15 -->
<g id="node15" class="node">
<title>Node15</title>
<g id="a_node15"><a xlink:href="multiply__long_8hpp.html" target="_top" xlink:title="This file defines a multiplication (long) instruction.">
<polygon fill="none" stroke="black" points="2156.5,-62 2156.5,-81 2260.5,-81 2260.5,-62 2156.5,-62"/>
<text text-anchor="middle" x="2208.5" y="-69" font-family="Helvetica,sans-Serif" font-size="10.00">multiply_long.hpp</text>
</a>
</g>
</g>
<!-- Node9&#45;&gt;Node15 -->
<g id="edge19" class="edge">
<title>Node9&#45;&gt;Node15</title>
<path fill="none" stroke="midnightblue" d="M1625.26,-131.04C1713.22,-128.2 1951.54,-118.02 2147.5,-87 2153.78,-86.01 2160.37,-84.71 2166.8,-83.3"/>
<polygon fill="midnightblue" stroke="midnightblue" points="2167.75,-86.68 2176.71,-81.03 2166.18,-79.86 2167.75,-86.68"/>
</g>
<!-- Node16 -->
<g id="node16" class="node">
<title>Node16</title>
<g id="a_node16"><a xlink:href="single__data__transfer_8hpp.html" target="_top" xlink:title="This file defines single data transfer instruction (LDR, STR).">
<polygon fill="none" stroke="black" points="2279,-62 2279,-81 2416,-81 2416,-62 2279,-62"/>
<text text-anchor="middle" x="2347.5" y="-69" font-family="Helvetica,sans-Serif" font-size="10.00">single_data_transfer.hpp</text>
</a>
</g>
</g>
<!-- Node9&#45;&gt;Node16 -->
<g id="edge21" class="edge">
<title>Node9&#45;&gt;Node16</title>
<path fill="none" stroke="midnightblue" d="M1625.26,-131.14C1725.55,-128.35 2023.93,-117.85 2269.5,-87 2278.34,-85.89 2287.69,-84.42 2296.73,-82.83"/>
<polygon fill="midnightblue" stroke="midnightblue" points="2297.54,-86.24 2306.76,-81.01 2296.29,-79.35 2297.54,-86.24"/>
</g>
<!-- Node17 -->
<g id="node17" class="node">
<title>Node17</title>
<g id="a_node17"><a xlink:href="block__data__transfer_8hpp.html" target="_top" xlink:title="This file defines a block data transfer instruction (LDM, STM).">
<polygon fill="none" stroke="black" points="2434.5,-62 2434.5,-81 2568.5,-81 2568.5,-62 2434.5,-62"/>
<text text-anchor="middle" x="2501.5" y="-69" font-family="Helvetica,sans-Serif" font-size="10.00">block_data_transfer.hpp</text>
</a>
</g>
</g>
<!-- Node9&#45;&gt;Node17 -->
<g id="edge23" class="edge">
<title>Node9&#45;&gt;Node17</title>
<path fill="none" stroke="midnightblue" d="M1625.25,-131.8C1739.94,-130.78 2116.74,-124.6 2425.5,-87 2434.22,-85.94 2443.44,-84.47 2452.34,-82.88"/>
<polygon fill="midnightblue" stroke="midnightblue" points="2453.02,-86.31 2462.21,-81.04 2451.74,-79.43 2453.02,-86.31"/>
</g>
<!-- Node18 -->
<g id="node18" class="node">
<title>Node18</title>
<g id="a_node18"><a xlink:href="halfword__data__transfer_8hpp.html" target="_top" xlink:title="This file defines a Halfword data transfer instruction.">
<polygon fill="none" stroke="black" points="2587,-62 2587,-81 2736,-81 2736,-62 2587,-62"/>
<text text-anchor="middle" x="2661.5" y="-69" font-family="Helvetica,sans-Serif" font-size="10.00">halfword_data_transfer.hpp</text>
</a>
</g>
</g>
<!-- Node9&#45;&gt;Node18 -->
<g id="edge25" class="edge">
<title>Node9&#45;&gt;Node18</title>
<path fill="none" stroke="midnightblue" d="M1625.15,-131.99C1752.45,-131.62 2206.17,-127.35 2577.5,-87 2587.43,-85.92 2597.96,-84.4 2608.09,-82.75"/>
<polygon fill="midnightblue" stroke="midnightblue" points="2608.77,-86.19 2618.05,-81.07 2607.61,-79.28 2608.77,-86.19"/>
</g>
<!-- Node19 -->
<g id="node19" class="node">
<title>Node19</title>
<g id="a_node19"><a xlink:href="extend_8hpp.html" target="_top" xlink:title="This file defines an extend instruction.">
<polygon fill="none" stroke="black" points="1151,-62 1151,-81 1222,-81 1222,-62 1151,-62"/>
<text text-anchor="middle" x="1186.5" y="-69" font-family="Helvetica,sans-Serif" font-size="10.00">extend.hpp</text>
</a>
</g>
</g>
<!-- Node9&#45;&gt;Node19 -->
<g id="edge27" class="edge">
<title>Node9&#45;&gt;Node19</title>
<path fill="none" stroke="midnightblue" d="M1555.98,-129.83C1491.56,-125.3 1348.94,-113.04 1231.5,-87 1227.64,-86.14 1223.65,-85.1 1219.7,-83.96"/>
<polygon fill="midnightblue" stroke="midnightblue" points="1220.68,-80.6 1210.09,-81.02 1218.63,-87.3 1220.68,-80.6"/>
</g>
<!-- Node20 -->
<g id="node20" class="node">
<title>Node20</title>
<g id="a_node20"><a xlink:href="psr__transfer_8hpp.html" target="_top" xlink:title="This file defines a PSR instruction (MRS, MSR).">
<polygon fill="none" stroke="black" points="1240,-62 1240,-81 1335,-81 1335,-62 1240,-62"/>
<text text-anchor="middle" x="1287.5" y="-69" font-family="Helvetica,sans-Serif" font-size="10.00">psr_transfer.hpp</text>
</a>
</g>
</g>
<!-- Node9&#45;&gt;Node20 -->
<g id="edge29" class="edge">
<title>Node9&#45;&gt;Node20</title>
<path fill="none" stroke="midnightblue" d="M1555.72,-126.41C1507.93,-118.55 1419.37,-103.35 1344.5,-87 1339.52,-85.91 1334.3,-84.7 1329.15,-83.44"/>
<polygon fill="midnightblue" stroke="midnightblue" points="1329.91,-80.03 1319.36,-81.01 1328.23,-86.82 1329.91,-80.03"/>
</g>
<!-- Node21 -->
<g id="node21" class="node">
<title>Node21</title>
<g id="a_node21"><a xlink:href="cps_8hpp.html" target="_top" xlink:title="This file defines a change processor state instruction (CPS).">
<polygon fill="none" stroke="black" points="1353.5,-62 1353.5,-81 1407.5,-81 1407.5,-62 1353.5,-62"/>
<text text-anchor="middle" x="1380.5" y="-69" font-family="Helvetica,sans-Serif" font-size="10.00">cps.hpp</text>
</a>
</g>
</g>
<!-- Node9&#45;&gt;Node21 -->
<g id="edge31" class="edge">
<title>Node9&#45;&gt;Node21</title>
<path fill="none" stroke="midnightblue" d="M1555.78,-124.42C1520.39,-116.37 1464.07,-102.66 1416.5,-87 1414.37,-86.3 1412.18,-85.53 1409.99,-84.73"/>
<polygon fill="midnightblue" stroke="midnightblue" points="1411.1,-81.41 1400.51,-81.1 1408.59,-87.95 1411.1,-81.41"/>
</g>
<!-- Node22 -->
<g id="node22" class="node">
<title>Node22</title>
<g id="a_node22"><a xlink:href="coprocessor__register__transfer_8hpp.html" target="_top" xlink:title="This file defines a coprocessor register transfer (MRC, MCR).">
<polygon fill="none" stroke="black" points="830.5,-56.5 830.5,-86.5 948.5,-86.5 948.5,-56.5 830.5,-56.5"/>
<text text-anchor="start" x="838.5" y="-74.5" font-family="Helvetica,sans-Serif" font-size="10.00">coprocessor_register</text>
<text text-anchor="middle" x="889.5" y="-63.5" font-family="Helvetica,sans-Serif" font-size="10.00">_transfer.hpp</text>
</a>
</g>
</g>
<!-- Node9&#45;&gt;Node22 -->
<g id="edge33" class="edge">
<title>Node9&#45;&gt;Node22</title>
<path fill="none" stroke="midnightblue" d="M1555.67,-131.22C1461.16,-128.76 1191.9,-119.33 958.77,-87.05"/>
<polygon fill="midnightblue" stroke="midnightblue" points="959.14,-83.56 948.75,-85.64 958.17,-90.5 959.14,-83.56"/>
</g>
<!-- Node23 -->
<g id="node23" class="node">
<title>Node23</title>
<g id="a_node23"><a xlink:href="coprocessor__data__transfer_8hpp.html" target="_top" xlink:title="This file defines a coprocessor data transfer (LDC, STC).">
<polygon fill="none" stroke="black" points="966.5,-62 966.5,-81 1132.5,-81 1132.5,-62 966.5,-62"/>
<text text-anchor="middle" x="1049.5" y="-69" font-family="Helvetica,sans-Serif" font-size="10.00">coprocessor_data_transfer.hpp</text>
</a>
</g>
</g>
<!-- Node9&#45;&gt;Node23 -->
<g id="edge35" class="edge">
<title>Node9&#45;&gt;Node23</title>
<path fill="none" stroke="midnightblue" d="M1555.86,-129.17C1480.52,-122.87 1296.21,-106.69 1142.5,-87 1132.31,-85.69 1121.51,-84.15 1111.01,-82.58"/>
<polygon fill="midnightblue" stroke="midnightblue" points="1111.49,-79.11 1101.08,-81.05 1110.44,-86.03 1111.49,-79.11"/>
</g>
<!-- Node24 -->
<g id="node24" class="node">
<title>Node24</title>
<g id="a_node24"><a xlink:href="coprocessor__data__operation_8hpp.html" target="_top" xlink:title="This file defines a coprocessor data operation (CDP).">
<polygon fill="none" stroke="black" points="637,-62 637,-81 812,-81 812,-62 637,-62"/>
<text text-anchor="middle" x="724.5" y="-69" font-family="Helvetica,sans-Serif" font-size="10.00">coprocessor_data_operation.hpp</text>
</a>
</g>
</g>
<!-- Node9&#45;&gt;Node24 -->
<g id="edge37" class="edge">
<title>Node9&#45;&gt;Node24</title>
<path fill="none" stroke="midnightblue" d="M1555.92,-131.08C1447.43,-127.98 1104.17,-116.34 821.5,-87 809.91,-85.8 797.58,-84.2 785.74,-82.51"/>
<polygon fill="midnightblue" stroke="midnightblue" points="785.89,-78.99 775.49,-81 784.87,-85.92 785.89,-78.99"/>
</g>
<!-- Node25 -->
<g id="node25" class="node">
<title>Node25</title>
<g id="a_node25"><a xlink:href="srs_8hpp.html" target="_top" xlink:title="This file defines an SRS instruction (store return state onto a stack).">
<polygon fill="none" stroke="black" points="1425.5,-62 1425.5,-81 1477.5,-81 1477.5,-62 1425.5,-62"/>
<text text-anchor="middle" x="1451.5" y="-69" font-family="Helvetica,sans-Serif" font-size="10.00">srs.hpp</text>
</a>
</g>
</g>
<!-- Node9&#45;&gt;Node25 -->
<g id="edge39" class="edge">
<title>Node9&#45;&gt;Node25</title>
<path fill="none" stroke="midnightblue" d="M1570.58,-123.48C1547.05,-113.4 1507.69,-96.55 1480.71,-85"/>
<polygon fill="midnightblue" stroke="midnightblue" points="1481.95,-81.73 1471.38,-81.01 1479.19,-88.16 1481.95,-81.73"/>
</g>
<!-- Node26 -->
<g id="node26" class="node">
<title>Node26</title>
<g id="a_node26"><a xlink:href="rfe_8hpp.html" target="_top" xlink:title="This file defines an RFE instruction (return from exception).">
<polygon fill="none" stroke="black" points="1496,-62 1496,-81 1547,-81 1547,-62 1496,-62"/>
<text text-anchor="middle" x="1521.5" y="-69" font-family="Helvetica,sans-Serif" font-size="10.00">rfe.hpp</text>
</a>
</g>
</g>
<!-- Node9&#45;&gt;Node26 -->
<g id="edge41" class="edge">
<title>Node9&#45;&gt;Node26</title>
<path fill="none" stroke="midnightblue" d="M1580.61,-123.48C1569.85,-114.2 1552.43,-99.17 1539.28,-87.83"/>
<polygon fill="midnightblue" stroke="midnightblue" points="1541.23,-84.89 1531.37,-81.01 1536.66,-90.19 1541.23,-84.89"/>
</g>
<!-- Node27 -->
<g id="node27" class="node">
<title>Node27</title>
<g id="a_node27"><a xlink:href="clz_8hpp.html" target="_top" xlink:title="This file defines a count leading zeros instruction (CLZ).">
<polygon fill="none" stroke="black" points="1565,-62 1565,-81 1616,-81 1616,-62 1565,-62"/>
<text text-anchor="middle" x="1590.5" y="-69" font-family="Helvetica,sans-Serif" font-size="10.00">clz.hpp</text>
</a>
</g>
</g>
<!-- Node9&#45;&gt;Node27 -->
<g id="edge43" class="edge">
<title>Node9&#45;&gt;Node27</title>
<path fill="none" stroke="midnightblue" d="M1590.5,-123.48C1590.5,-115.08 1590.5,-101.98 1590.5,-91.16"/>
<polygon fill="midnightblue" stroke="midnightblue" points="1594,-91.01 1590.5,-81.01 1587,-91.01 1594,-91.01"/>
</g>
<!-- Node11&#45;&gt;Node10 -->
<g id="edge12" class="edge">
<title>Node11&#45;&gt;Node10</title>
<path fill="none" stroke="midnightblue" d="M1731.03,-61.98C1714.53,-52.25 1687.32,-36.23 1667.82,-24.74"/>
<polygon fill="midnightblue" stroke="midnightblue" points="1669.34,-21.57 1658.94,-19.51 1665.78,-27.6 1669.34,-21.57"/>
</g>
<!-- Node12&#45;&gt;Node10 -->
<g id="edge14" class="edge">
<title>Node12&#45;&gt;Node10</title>
<path fill="none" stroke="midnightblue" d="M1846.89,-61.9C1840.58,-59.88 1833.82,-57.79 1827.5,-56 1782.04,-43.1 1729.63,-30.44 1692.58,-21.84"/>
<polygon fill="midnightblue" stroke="midnightblue" points="1693.09,-18.37 1682.56,-19.53 1691.51,-25.19 1693.09,-18.37"/>
</g>
<!-- Node13&#45;&gt;Node10 -->
<g id="edge16" class="edge">
<title>Node13&#45;&gt;Node10</title>
<path fill="none" stroke="midnightblue" d="M1946.65,-61.97C1937.15,-59.92 1926.97,-57.8 1917.5,-56 1841.98,-41.61 1754.19,-27.63 1698.99,-19.16"/>
<polygon fill="midnightblue" stroke="midnightblue" points="1699.48,-15.7 1689.07,-17.65 1698.43,-22.62 1699.48,-15.7"/>
</g>
<!-- Node14&#45;&gt;Node10 -->
<g id="edge18" class="edge">
<title>Node14&#45;&gt;Node10</title>
<path fill="none" stroke="midnightblue" d="M2074.85,-61.93C2067.71,-59.72 2059.86,-57.53 2052.5,-56 1927.62,-30.09 1777.95,-18.42 1699.18,-13.73"/>
<polygon fill="midnightblue" stroke="midnightblue" points="1699.19,-10.23 1689,-13.15 1698.79,-17.22 1699.19,-10.23"/>
</g>
<!-- Node15&#45;&gt;Node10 -->
<g id="edge20" class="edge">
<title>Node15&#45;&gt;Node10</title>
<path fill="none" stroke="midnightblue" d="M2176.38,-61.95C2167.12,-59.73 2156.95,-57.54 2147.5,-56 1985.68,-29.67 1791.89,-17.8 1699.17,-13.31"/>
<polygon fill="midnightblue" stroke="midnightblue" points="1699.33,-9.81 1689.18,-12.83 1699,-16.8 1699.33,-9.81"/>
</g>
<!-- Node16&#45;&gt;Node10 -->
<g id="edge22" class="edge">
<title>Node16&#45;&gt;Node10</title>
<path fill="none" stroke="midnightblue" d="M2306.35,-61.96C2294.5,-59.74 2281.52,-57.55 2269.5,-56 2059.66,-29.03 1807.95,-17.07 1699.08,-12.87"/>
<polygon fill="midnightblue" stroke="midnightblue" points="1699.13,-9.37 1689,-12.49 1698.86,-16.37 1699.13,-9.37"/>
</g>
<!-- Node17&#45;&gt;Node10 -->
<g id="edge24" class="edge">
<title>Node17&#45;&gt;Node10</title>
<path fill="none" stroke="midnightblue" d="M2462.21,-61.99C2450.45,-59.72 2437.5,-57.48 2425.5,-56 2154.44,-22.48 1827.31,-13.85 1699.46,-11.7"/>
<polygon fill="midnightblue" stroke="midnightblue" points="1699.21,-8.19 1689.15,-11.53 1699.09,-15.19 1699.21,-8.19"/>
</g>
<!-- Node18&#45;&gt;Node10 -->
<g id="edge26" class="edge">
<title>Node18&#45;&gt;Node10</title>
<path fill="none" stroke="midnightblue" d="M2618.05,-61.95C2605.05,-59.68 2590.74,-57.46 2577.5,-56 2245.68,-19.5 1844.24,-12.6 1699.69,-11.3"/>
<polygon fill="midnightblue" stroke="midnightblue" points="1699.35,-7.8 1689.32,-11.21 1699.29,-14.8 1699.35,-7.8"/>
</g>
<!-- Node19&#45;&gt;Node10 -->
<g id="edge28" class="edge">
<title>Node19&#45;&gt;Node10</title>
<path fill="none" stroke="midnightblue" d="M1210.08,-61.91C1216.91,-59.69 1224.44,-57.51 1231.5,-56 1357.91,-29.04 1509.72,-17.77 1589.43,-13.44"/>
<polygon fill="midnightblue" stroke="midnightblue" points="1589.92,-16.92 1599.72,-12.9 1589.55,-9.93 1589.92,-16.92"/>
</g>
<!-- Node20&#45;&gt;Node10 -->
<g id="edge30" class="edge">
<title>Node20&#45;&gt;Node10</title>
<path fill="none" stroke="midnightblue" d="M1318.73,-61.96C1327.06,-59.84 1336.09,-57.7 1344.5,-56 1429.54,-38.85 1529.35,-25.14 1589.71,-17.54"/>
<polygon fill="midnightblue" stroke="midnightblue" points="1590.29,-21 1599.78,-16.29 1589.43,-14.05 1590.29,-21"/>
</g>
<!-- Node21&#45;&gt;Node10 -->
<g id="edge32" class="edge">
<title>Node21&#45;&gt;Node10</title>
<path fill="none" stroke="midnightblue" d="M1399.69,-61.99C1405.06,-59.83 1410.95,-57.65 1416.5,-56 1474.69,-38.71 1543.24,-26.2 1589.87,-18.82"/>
<polygon fill="midnightblue" stroke="midnightblue" points="1590.42,-22.28 1599.77,-17.28 1589.35,-15.36 1590.42,-22.28"/>
</g>
<!-- Node22&#45;&gt;Node10 -->
<g id="edge34" class="edge">
<title>Node22&#45;&gt;Node10</title>
<path fill="none" stroke="midnightblue" d="M948.75,-57.34C951.7,-56.85 954.63,-56.4 957.5,-56 1191.09,-23.62 1472.68,-14.42 1589.54,-11.91"/>
<polygon fill="midnightblue" stroke="midnightblue" points="1589.74,-15.4 1599.66,-11.7 1589.59,-8.4 1589.74,-15.4"/>
</g>
<!-- Node23&#45;&gt;Node10 -->
<g id="edge36" class="edge">
<title>Node23&#45;&gt;Node10</title>
<path fill="none" stroke="midnightblue" d="M1100.1,-62C1113.83,-59.86 1128.71,-57.69 1142.5,-56 1304.53,-36.13 1497,-21.32 1589.5,-14.75"/>
<polygon fill="midnightblue" stroke="midnightblue" points="1590.01,-18.22 1599.74,-14.03 1589.52,-11.24 1590.01,-18.22"/>
</g>
<!-- Node24&#45;&gt;Node10 -->
<g id="edge38" class="edge">
<title>Node24&#45;&gt;Node10</title>
<path fill="none" stroke="midnightblue" d="M775.23,-62C790.11,-59.76 806.42,-57.54 821.5,-56 1109.8,-26.64 1457,-15.57 1589.49,-12.23"/>
<polygon fill="midnightblue" stroke="midnightblue" points="1589.87,-15.72 1599.78,-11.97 1589.7,-8.72 1589.87,-15.72"/>
</g>
<!-- Node25&#45;&gt;Node10 -->
<g id="edge40" class="edge">
<title>Node25&#45;&gt;Node10</title>
<path fill="none" stroke="midnightblue" d="M1471.54,-62C1476.7,-59.93 1482.27,-57.8 1487.5,-56 1525.37,-42.99 1569.23,-30.64 1600.95,-22.18"/>
<polygon fill="midnightblue" stroke="midnightblue" points="1602.03,-25.51 1610.8,-19.57 1600.24,-18.75 1602.03,-25.51"/>
</g>
<!-- Node26&#45;&gt;Node10 -->
<g id="edge42" class="edge">
<title>Node26&#45;&gt;Node10</title>
<path fill="none" stroke="midnightblue" d="M1539.12,-61.98C1559.67,-52.03 1593.86,-35.49 1617.71,-23.96"/>
<polygon fill="midnightblue" stroke="midnightblue" points="1619.43,-27.01 1626.91,-19.51 1616.38,-20.71 1619.43,-27.01"/>
</g>
<!-- Node27&#45;&gt;Node10 -->
<g id="edge44" class="edge">
<title>Node27&#45;&gt;Node10</title>
<path fill="none" stroke="midnightblue" d="M1598.24,-61.98C1606.5,-52.87 1619.78,-38.24 1629.99,-26.98"/>
<polygon fill="midnightblue" stroke="midnightblue" points="1632.65,-29.27 1636.78,-19.51 1627.47,-24.56 1632.65,-29.27"/>
</g>
<!-- Node28&#45;&gt;Node10 -->
<g id="edge46" class="edge">
<title>Node28&#45;&gt;Node10</title>
<path fill="none" stroke="midnightblue" d="M2368.07,-188.25C2509.21,-187.16 2857.71,-172.89 2745.5,-56 2708.94,-17.92 1916.69,-12.05 1699.27,-11.16"/>
<polygon fill="midnightblue" stroke="midnightblue" points="1699.07,-7.66 1689.05,-11.12 1699.04,-14.66 1699.07,-7.66"/>
</g>
<!-- Node29&#45;&gt;Node7 -->
<g id="edge56" class="edge">
<title>Node29&#45;&gt;Node7</title>
<path fill="none" stroke="midnightblue" d="M461.84,-240.98C483.32,-230.99 519.12,-214.35 543.95,-202.81"/>
<polygon fill="midnightblue" stroke="midnightblue" points="545.6,-205.9 553.19,-198.51 542.65,-199.55 545.6,-205.9"/>
</g>
<!-- Node30 -->
<g id="node30" class="node">
<title>Node30</title>
<g id="a_node30"><a xlink:href="cp15_8hpp.html" target="_top" xlink:title=" ">
<polygon fill="none" stroke="black" points="379.5,-179.5 379.5,-198.5 507.5,-198.5 507.5,-179.5 379.5,-179.5"/>
<text text-anchor="middle" x="443.5" y="-186.5" font-family="Helvetica,sans-Serif" font-size="10.00">coprocessors/cp15.hpp</text>
</a>
</g>
</g>
<!-- Node29&#45;&gt;Node30 -->
<g id="edge48" class="edge">
<title>Node29&#45;&gt;Node30</title>
<path fill="none" stroke="midnightblue" d="M443.5,-240.98C443.5,-232.58 443.5,-219.48 443.5,-208.66"/>
<polygon fill="midnightblue" stroke="midnightblue" points="447,-208.51 443.5,-198.51 440,-208.51 447,-208.51"/>
</g>
<!-- Node32 -->
<g id="node32" class="node">
<title>Node32</title>
<g id="a_node32"><a xlink:href="peripheral_8hpp.html" target="_top" xlink:title="This file defines an interface for a memory&#45;mapped peripheral.">
<polygon fill="none" stroke="black" points="216,-179.5 216,-198.5 361,-198.5 361,-179.5 216,-179.5"/>
<text text-anchor="middle" x="288.5" y="-186.5" font-family="Helvetica,sans-Serif" font-size="10.00">peripherals/peripheral.hpp</text>
</a>
</g>
</g>
<!-- Node29&#45;&gt;Node32 -->
<g id="edge55" class="edge">
<title>Node29&#45;&gt;Node32</title>
<path fill="none" stroke="midnightblue" d="M421.29,-240.98C394.82,-230.81 350.39,-213.76 320.28,-202.2"/>
<polygon fill="midnightblue" stroke="midnightblue" points="321.26,-198.83 310.67,-198.51 318.75,-205.36 321.26,-198.83"/>
</g>
<!-- Node30&#45;&gt;Node6 -->
<g id="edge54" class="edge">
<title>Node30&#45;&gt;Node6</title>
<path fill="none" stroke="midnightblue" d="M431.15,-179.46C390.36,-151.26 259.57,-60.83 208.35,-25.42"/>
<polygon fill="midnightblue" stroke="midnightblue" points="210.24,-22.47 200.02,-19.66 206.26,-28.22 210.24,-22.47"/>
</g>
<!-- Node31 -->
<g id="node31" class="node">
<title>Node31</title>
<g id="a_node31"><a xlink:href="coprocessor_8hpp.html" target="_top" xlink:title="This file defines a general interface of a coprocessor.">
<polygon fill="none" stroke="black" points="712,-123.5 712,-142.5 807,-142.5 807,-123.5 712,-123.5"/>
<text text-anchor="middle" x="759.5" y="-130.5" font-family="Helvetica,sans-Serif" font-size="10.00">coprocessor.hpp</text>
</a>
</g>
</g>
<!-- Node30&#45;&gt;Node31 -->
<g id="edge49" class="edge">
<title>Node30&#45;&gt;Node31</title>
<path fill="none" stroke="midnightblue" d="M493.57,-179.44C550.25,-169.76 642.41,-154.01 701.99,-143.83"/>
<polygon fill="midnightblue" stroke="midnightblue" points="702.72,-147.25 711.99,-142.12 701.54,-140.35 702.72,-147.25"/>
</g>
<!-- Node31&#45;&gt;Node5 -->
<g id="edge50" class="edge">
<title>Node31&#45;&gt;Node5</title>
<path fill="none" stroke="midnightblue" d="M723.25,-123.48C678.35,-112.92 601.79,-94.91 552.72,-83.37"/>
<polygon fill="midnightblue" stroke="midnightblue" points="553.22,-79.89 542.68,-81.01 551.61,-86.71 553.22,-79.89"/>
</g>
<!-- Node31&#45;&gt;Node22 -->
<g id="edge51" class="edge">
<title>Node31&#45;&gt;Node22</title>
<path fill="none" stroke="midnightblue" d="M778.13,-123.48C796.72,-114.96 825.88,-101.62 849.7,-90.72"/>
<polygon fill="midnightblue" stroke="midnightblue" points="851.23,-93.87 858.86,-86.52 848.31,-87.5 851.23,-93.87"/>
</g>
<!-- Node31&#45;&gt;Node23 -->
<g id="edge52" class="edge">
<title>Node31&#45;&gt;Node23</title>
<path fill="none" stroke="midnightblue" d="M801.05,-123.48C852.95,-112.83 941.74,-94.61 997.93,-83.08"/>
<polygon fill="midnightblue" stroke="midnightblue" points="998.93,-86.45 1008.03,-81.01 997.53,-79.59 998.93,-86.45"/>
</g>
<!-- Node31&#45;&gt;Node24 -->
<g id="edge53" class="edge">
<title>Node31&#45;&gt;Node24</title>
<path fill="none" stroke="midnightblue" d="M754.49,-123.48C749.34,-114.73 741.19,-100.87 734.68,-89.81"/>
<polygon fill="midnightblue" stroke="midnightblue" points="737.59,-87.85 729.51,-81.01 731.56,-91.4 737.59,-87.85"/>
</g>
<!-- Node34&#45;&gt;Node5 -->
<g id="edge61" class="edge">
<title>Node34&#45;&gt;Node5</title>
<path fill="none" stroke="midnightblue" d="M228.3,-235.45C212.52,-220.83 193.43,-197.51 206.5,-179 264.19,-97.3 390.22,-77.89 459.15,-73.53"/>
<polygon fill="midnightblue" stroke="midnightblue" points="459.51,-77.01 469.3,-72.97 459.12,-70.03 459.51,-77.01"/>
</g>
<!-- Node34&#45;&gt;Node6 -->
<g id="edge62" class="edge">
<title>Node34&#45;&gt;Node6</title>
<path fill="none" stroke="midnightblue" d="M227,-235.25C216.64,-226.12 204.62,-213.32 198.5,-199 173.91,-141.47 179.93,-64.9 184.55,-29.9"/>
<polygon fill="midnightblue" stroke="midnightblue" points="188.05,-30.11 186.01,-19.71 181.12,-29.11 188.05,-30.11"/>
</g>
<!-- Node34&#45;&gt;Node32 -->
<g id="edge60" class="edge">
<title>Node34&#45;&gt;Node32</title>
<path fill="none" stroke="midnightblue" d="M255.69,-235.4C261.87,-226.84 269.8,-215.87 276.32,-206.86"/>
<polygon fill="midnightblue" stroke="midnightblue" points="279.22,-208.81 282.24,-198.66 273.55,-204.71 279.22,-208.81"/>
</g>
<!-- Node36&#45;&gt;Node29 -->
<g id="edge66" class="edge">
<title>Node36&#45;&gt;Node29</title>
<path fill="none" stroke="midnightblue" d="M443.5,-302.4C443.5,-293.06 443.5,-280.71 443.5,-270.52"/>
<polygon fill="midnightblue" stroke="midnightblue" points="447,-270.19 443.5,-260.19 440,-270.19 447,-270.19"/>
</g>
</g>
</svg>
