<?xml version="1.0" encoding="UTF-8" standalone="no"?>
<!DOCTYPE svg PUBLIC "-//W3C//DTD SVG 1.1//EN"
 "http://www.w3.org/Graphics/SVG/1.1/DTD/svg11.dtd">
<!-- Generated by graphviz version 2.43.0 (0)
 -->
<!-- Title: src/gui/windows/file_window.hpp Pages: 1 -->
<svg width="2930pt" height="475pt"
 viewBox="0.00 0.00 2929.50 475.00" xmlns="http://www.w3.org/2000/svg" xmlns:xlink="http://www.w3.org/1999/xlink">
<g id="graph0" class="graph" transform="scale(1 1) rotate(0) translate(4 471)">
<title>src/gui/windows/file_window.hpp</title>
<!-- Node1 -->
<g id="node1" class="node">
<title>Node1</title>
<g id="a_node1"><a xlink:title=" ">
<polygon fill="#bfbfbf" stroke="black" points="440,-436.5 440,-466.5 553,-466.5 553,-436.5 440,-436.5"/>
<text text-anchor="start" x="448" y="-454.5" font-family="Helvetica,sans-Serif" font-size="10.00">src/gui/windows/file</text>
<text text-anchor="middle" x="496.5" y="-443.5" font-family="Helvetica,sans-Serif" font-size="10.00">_window.hpp</text>
</a>
</g>
</g>
<!-- Node2 -->
<g id="node2" class="node">
<title>Node2</title>
<g id="a_node2"><a xlink:href="window_8hpp.html" target="_top" xlink:title=" ">
<polygon fill="none" stroke="black" points="0,-56.5 0,-75.5 83,-75.5 83,-56.5 0,-56.5"/>
<text text-anchor="middle" x="41.5" y="-63.5" font-family="Helvetica,sans-Serif" font-size="10.00">../window.hpp</text>
</a>
</g>
</g>
<!-- Node1&#45;&gt;Node2 -->
<g id="edge1" class="edge">
<title>Node1&#45;&gt;Node2</title>
<path fill="none" stroke="midnightblue" d="M439.68,-447.68C347.1,-442.33 168.41,-428.56 112.5,-400 68.12,-377.33 35.5,-368.33 35.5,-318.5 35.5,-318.5 35.5,-318.5 35.5,-188 35.5,-151.67 38.23,-109.28 40.01,-85.54"/>
<polygon fill="midnightblue" stroke="midnightblue" points="43.5,-85.74 40.79,-75.5 36.52,-85.2 43.5,-85.74"/>
</g>
<!-- Node4 -->
<g id="node4" class="node">
<title>Node4</title>
<g id="a_node4"><a xlink:href="core_8hpp.html" target="_top" xlink:title="This file defines a class that represents a CPU core (arm1176jzf_s).">
<polygon fill="none" stroke="black" points="439.5,-369.5 439.5,-399.5 553.5,-399.5 553.5,-369.5 439.5,-369.5"/>
<text text-anchor="start" x="447.5" y="-387.5" font-family="Helvetica,sans-Serif" font-size="10.00">../../core/arm1176jzf</text>
<text text-anchor="middle" x="496.5" y="-376.5" font-family="Helvetica,sans-Serif" font-size="10.00">_s/core.hpp</text>
</a>
</g>
</g>
<!-- Node1&#45;&gt;Node4 -->
<g id="edge3" class="edge">
<title>Node1&#45;&gt;Node4</title>
<path fill="none" stroke="midnightblue" d="M496.5,-436.4C496.5,-428.64 496.5,-418.81 496.5,-409.86"/>
<polygon fill="midnightblue" stroke="midnightblue" points="500,-409.58 496.5,-399.58 493,-409.58 500,-409.58"/>
</g>
<!-- Node6 -->
<g id="node6" class="node">
<title>Node6</title>
<g id="a_node6"><a xlink:href="logger_8hpp.html" target="_top" xlink:title=" ">
<polygon fill="none" stroke="black" points="175.5,-56.5 175.5,-75.5 309.5,-75.5 309.5,-56.5 175.5,-56.5"/>
<text text-anchor="middle" x="242.5" y="-63.5" font-family="Helvetica,sans-Serif" font-size="10.00">../utils/logger/logger.hpp</text>
</a>
</g>
</g>
<!-- Node1&#45;&gt;Node6 -->
<g id="edge79" class="edge">
<title>Node1&#45;&gt;Node6</title>
<path fill="none" stroke="midnightblue" d="M439.89,-444.82C324.63,-431.69 73.5,-394.37 73.5,-318.5 73.5,-318.5 73.5,-318.5 73.5,-188 73.5,-127.28 146.53,-94.1 196.57,-78.49"/>
<polygon fill="midnightblue" stroke="midnightblue" points="197.67,-81.82 206.25,-75.61 195.66,-75.11 197.67,-81.82"/>
</g>
<!-- Node34 -->
<g id="node34" class="node">
<title>Node34</title>
<g id="a_node34"><a xlink:href="bus_8hpp.html" target="_top" xlink:title="This file defines an interface the CPU uses to access different memory&#45;mapped peripherals.">
<polygon fill="none" stroke="black" points="562.5,-308 562.5,-327 626.5,-327 626.5,-308 562.5,-308"/>
<text text-anchor="middle" x="594.5" y="-315" font-family="Helvetica,sans-Serif" font-size="10.00">../bus.hpp</text>
</a>
</g>
</g>
<!-- Node1&#45;&gt;Node34 -->
<g id="edge75" class="edge">
<title>Node1&#45;&gt;Node34</title>
<path fill="none" stroke="midnightblue" d="M521.16,-436.31C534.88,-427.37 551.38,-414.75 562.5,-400 576.84,-380.98 585.61,-354.71 590.26,-337.2"/>
<polygon fill="midnightblue" stroke="midnightblue" points="593.75,-337.66 592.74,-327.11 586.95,-335.99 593.75,-337.66"/>
</g>
<!-- Node43 -->
<g id="node43" class="node">
<title>Node43</title>
<g id="a_node43"><a xlink:href="elf__loader_8hpp.html" target="_top" xlink:title=" ">
<polygon fill="none" stroke="black" points="610,-369.5 610,-399.5 705,-399.5 705,-369.5 610,-369.5"/>
<text text-anchor="start" x="618" y="-387.5" font-family="Helvetica,sans-Serif" font-size="10.00">../../core/utils/elf</text>
<text text-anchor="middle" x="657.5" y="-376.5" font-family="Helvetica,sans-Serif" font-size="10.00">_loader.hpp</text>
</a>
</g>
</g>
<!-- Node1&#45;&gt;Node43 -->
<g id="edge76" class="edge">
<title>Node1&#45;&gt;Node43</title>
<path fill="none" stroke="midnightblue" d="M531.43,-436.4C555.38,-426.73 587.35,-413.82 613.1,-403.43"/>
<polygon fill="midnightblue" stroke="midnightblue" points="614.67,-406.57 622.63,-399.58 612.05,-400.07 614.67,-406.57"/>
</g>
<!-- Node3 -->
<g id="node3" class="node">
<title>Node3</title>
<g id="a_node3"><a xlink:title=" ">
<polygon fill="none" stroke="#bfbfbf" points="24.5,-0.5 24.5,-19.5 82.5,-19.5 82.5,-0.5 24.5,-0.5"/>
<text text-anchor="middle" x="53.5" y="-7.5" font-family="Helvetica,sans-Serif" font-size="10.00">memory</text>
</a>
</g>
</g>
<!-- Node2&#45;&gt;Node3 -->
<g id="edge2" class="edge">
<title>Node2&#45;&gt;Node3</title>
<path fill="none" stroke="midnightblue" d="M43.48,-56.08C45.07,-48.93 47.36,-38.64 49.35,-29.69"/>
<polygon fill="midnightblue" stroke="midnightblue" points="52.8,-30.27 51.56,-19.75 45.97,-28.75 52.8,-30.27"/>
</g>
<!-- Node5 -->
<g id="node5" class="node">
<title>Node5</title>
<g id="a_node5"><a xlink:href="context_8hpp.html" target="_top" xlink:title="This file defines the context (registers) of the CPU.">
<polygon fill="none" stroke="black" points="626.5,-118 626.5,-137 700.5,-137 700.5,-118 626.5,-118"/>
<text text-anchor="middle" x="663.5" y="-125" font-family="Helvetica,sans-Serif" font-size="10.00">context.hpp</text>
</a>
</g>
</g>
<!-- Node4&#45;&gt;Node5 -->
<g id="edge4" class="edge">
<title>Node4&#45;&gt;Node5</title>
<path fill="none" stroke="midnightblue" d="M553.61,-375.32C613.78,-363.23 705.04,-334.13 743.5,-266 762.63,-232.11 773.17,-212.59 753.5,-179 746.7,-167.38 716.86,-152 693.38,-141.28"/>
<polygon fill="midnightblue" stroke="midnightblue" points="694.67,-138.02 684.12,-137.13 691.82,-144.41 694.67,-138.02"/>
</g>
<!-- Node4&#45;&gt;Node6 -->
<g id="edge67" class="edge">
<title>Node4&#45;&gt;Node6</title>
<path fill="none" stroke="midnightblue" d="M439.28,-376.02C332.03,-360.4 111.5,-319.95 111.5,-251.5 111.5,-251.5 111.5,-251.5 111.5,-188 111.5,-134.06 172.18,-97.49 210.95,-79.64"/>
<polygon fill="midnightblue" stroke="midnightblue" points="212.55,-82.75 220.28,-75.5 209.72,-76.35 212.55,-82.75"/>
</g>
<!-- Node12 -->
<g id="node12" class="node">
<title>Node12</title>
<g id="a_node12"><a xlink:href="exceptions_8hpp.html" target="_top" xlink:title="This file defines all exceptions that can be thrown by the CPU during execution.">
<polygon fill="none" stroke="black" points="643,-241 643,-260 734,-260 734,-241 643,-241"/>
<text text-anchor="middle" x="688.5" y="-248" font-family="Helvetica,sans-Serif" font-size="10.00">exceptions.hpp</text>
</a>
</g>
</g>
<!-- Node4&#45;&gt;Node12 -->
<g id="edge12" class="edge">
<title>Node4&#45;&gt;Node12</title>
<path fill="none" stroke="midnightblue" d="M553.79,-371.63C580.66,-363.94 611.88,-351.77 635.5,-333 656.92,-315.98 672.46,-287.84 680.98,-269.49"/>
<polygon fill="midnightblue" stroke="midnightblue" points="684.25,-270.76 685.08,-260.2 677.84,-267.93 684.25,-270.76"/>
</g>
<!-- Node14 -->
<g id="node14" class="node">
<title>Node14</title>
<g id="a_node14"><a xlink:href="isa_8hpp.html" target="_top" xlink:title="This file is just a helper file for including all ARM instructions supported by the emulator.">
<polygon fill="none" stroke="black" points="1941,-179.5 1941,-198.5 2010,-198.5 2010,-179.5 1941,-179.5"/>
<text text-anchor="middle" x="1975.5" y="-186.5" font-family="Helvetica,sans-Serif" font-size="10.00">isa/isa.hpp</text>
</a>
</g>
</g>
<!-- Node4&#45;&gt;Node14 -->
<g id="edge15" class="edge">
<title>Node4&#45;&gt;Node14</title>
<path fill="none" stroke="midnightblue" d="M553.71,-375.52C569.21,-373.38 586,-371.08 601.5,-369 1124.29,-298.85 1759.53,-217.55 1931.05,-195.66"/>
<polygon fill="midnightblue" stroke="midnightblue" points="1931.5,-199.14 1940.98,-194.4 1930.61,-192.19 1931.5,-199.14"/>
</g>
<!-- Node33 -->
<g id="node33" class="node">
<title>Node33</title>
<g id="a_node33"><a xlink:href="isa__decoder_8hpp.html" target="_top" xlink:title="This file defines an instruction decoder.">
<polygon fill="none" stroke="black" points="2574,-241 2574,-260 2687,-260 2687,-241 2574,-241"/>
<text text-anchor="middle" x="2630.5" y="-248" font-family="Helvetica,sans-Serif" font-size="10.00">isa/isa_decoder.hpp</text>
</a>
</g>
</g>
<!-- Node4&#45;&gt;Node33 -->
<g id="edge51" class="edge">
<title>Node4&#45;&gt;Node33</title>
<path fill="none" stroke="midnightblue" d="M553.61,-374.64C569.11,-372.5 585.92,-370.42 601.5,-369 958.6,-336.44 1049.47,-352.92 1407.5,-333 1849.05,-308.43 2379.68,-270.04 2563.77,-256.46"/>
<polygon fill="midnightblue" stroke="midnightblue" points="2564.12,-259.95 2573.84,-255.72 2563.61,-252.97 2564.12,-259.95"/>
</g>
<!-- Node4&#45;&gt;Node34 -->
<g id="edge53" class="edge">
<title>Node4&#45;&gt;Node34</title>
<path fill="none" stroke="midnightblue" d="M517.76,-369.4C534.2,-358.5 556.84,-343.48 573.27,-332.58"/>
<polygon fill="midnightblue" stroke="midnightblue" points="575.28,-335.45 581.67,-327.01 571.41,-329.62 575.28,-335.45"/>
</g>
<!-- Node39 -->
<g id="node39" class="node">
<title>Node39</title>
<g id="a_node39"><a xlink:href="math_8hpp.html" target="_top" xlink:title="This file defines and implements a variety of handy helper functions that are used throughout the pro...">
<polygon fill="none" stroke="black" points="272.5,-308 272.5,-327 368.5,-327 368.5,-308 272.5,-308"/>
<text text-anchor="middle" x="320.5" y="-315" font-family="Helvetica,sans-Serif" font-size="10.00">../utils/math.hpp</text>
</a>
</g>
</g>
<!-- Node4&#45;&gt;Node39 -->
<g id="edge66" class="edge">
<title>Node4&#45;&gt;Node39</title>
<path fill="none" stroke="midnightblue" d="M458.31,-369.4C426.88,-357.79 382.82,-341.51 353.04,-330.52"/>
<polygon fill="midnightblue" stroke="midnightblue" points="354.13,-327.19 343.53,-327.01 351.7,-333.75 354.13,-327.19"/>
</g>
<!-- Node40 -->
<g id="node40" class="node">
<title>Node40</title>
<g id="a_node40"><a xlink:href="interrupt__controller_8hpp.html" target="_top" xlink:title=" ">
<polygon fill="none" stroke="black" points="190,-235.5 190,-265.5 315,-265.5 315,-235.5 190,-235.5"/>
<text text-anchor="start" x="198" y="-253.5" font-family="Helvetica,sans-Serif" font-size="10.00">../peripherals/interrupt</text>
<text text-anchor="middle" x="252.5" y="-242.5" font-family="Helvetica,sans-Serif" font-size="10.00">_controller.hpp</text>
</a>
</g>
</g>
<!-- Node4&#45;&gt;Node40 -->
<g id="edge68" class="edge">
<title>Node4&#45;&gt;Node40</title>
<path fill="none" stroke="midnightblue" d="M472.61,-369.35C456.47,-359.57 434.85,-346.03 416.5,-333 398.44,-320.18 396.63,-313.15 377.5,-302 354.94,-288.85 328.31,-277.57 305.43,-269.03"/>
<polygon fill="midnightblue" stroke="midnightblue" points="306.47,-265.68 295.88,-265.54 304.07,-272.26 306.47,-265.68"/>
</g>
<!-- Node42 -->
<g id="node42" class="node">
<title>Node42</title>
<g id="a_node42"><a xlink:href="system__clock__listener_8hpp.html" target="_top" xlink:title="This file defines an interface for a CPU clock listener.">
<polygon fill="none" stroke="black" points="425,-302.5 425,-332.5 544,-332.5 544,-302.5 425,-302.5"/>
<text text-anchor="start" x="433" y="-320.5" font-family="Helvetica,sans-Serif" font-size="10.00">../peripherals/system</text>
<text text-anchor="middle" x="484.5" y="-309.5" font-family="Helvetica,sans-Serif" font-size="10.00">_clock_listener.hpp</text>
</a>
</g>
</g>
<!-- Node4&#45;&gt;Node42 -->
<g id="edge74" class="edge">
<title>Node4&#45;&gt;Node42</title>
<path fill="none" stroke="midnightblue" d="M493.9,-369.4C492.45,-361.56 490.61,-351.6 488.94,-342.57"/>
<polygon fill="midnightblue" stroke="midnightblue" points="492.36,-341.77 487.1,-332.58 485.47,-343.05 492.36,-341.77"/>
</g>
<!-- Node5&#45;&gt;Node6 -->
<g id="edge5" class="edge">
<title>Node5&#45;&gt;Node6</title>
<path fill="none" stroke="midnightblue" d="M626.29,-120.21C610.36,-117.58 591.53,-114.54 574.5,-112 487.22,-98.98 386.79,-85.59 319.45,-76.84"/>
<polygon fill="midnightblue" stroke="midnightblue" points="319.71,-73.34 309.34,-75.53 318.81,-80.28 319.71,-73.34"/>
</g>
<!-- Node6&#45;&gt;Node3 -->
<g id="edge8" class="edge">
<title>Node6&#45;&gt;Node3</title>
<path fill="none" stroke="midnightblue" d="M212.55,-56.44C180.15,-47.19 128.36,-32.39 92.73,-22.21"/>
<polygon fill="midnightblue" stroke="midnightblue" points="93.26,-18.72 82.69,-19.34 91.34,-25.45 93.26,-18.72"/>
</g>
<!-- Node7 -->
<g id="node7" class="node">
<title>Node7</title>
<g id="a_node7"><a xlink:title=" ">
<polygon fill="none" stroke="#bfbfbf" points="139.5,-0.5 139.5,-19.5 187.5,-19.5 187.5,-0.5 139.5,-0.5"/>
<text text-anchor="middle" x="163.5" y="-7.5" font-family="Helvetica,sans-Serif" font-size="10.00">mutex</text>
</a>
</g>
</g>
<!-- Node6&#45;&gt;Node7 -->
<g id="edge6" class="edge">
<title>Node6&#45;&gt;Node7</title>
<path fill="none" stroke="midnightblue" d="M229.81,-56.32C217.6,-47.98 198.92,-35.21 184.5,-25.35"/>
<polygon fill="midnightblue" stroke="midnightblue" points="186.39,-22.41 176.16,-19.65 182.44,-28.19 186.39,-22.41"/>
</g>
<!-- Node8 -->
<g id="node8" class="node">
<title>Node8</title>
<g id="a_node8"><a xlink:title=" ">
<polygon fill="none" stroke="#bfbfbf" points="575,-0.5 575,-19.5 622,-19.5 622,-0.5 575,-0.5"/>
<text text-anchor="middle" x="598.5" y="-7.5" font-family="Helvetica,sans-Serif" font-size="10.00">vector</text>
</a>
</g>
</g>
<!-- Node6&#45;&gt;Node8 -->
<g id="edge7" class="edge">
<title>Node6&#45;&gt;Node8</title>
<path fill="none" stroke="midnightblue" d="M298.91,-56.44C373.79,-45.09 503.65,-25.39 564.81,-16.11"/>
<polygon fill="midnightblue" stroke="midnightblue" points="565.34,-19.57 574.71,-14.61 564.29,-12.65 565.34,-19.57"/>
</g>
<!-- Node9 -->
<g id="node9" class="node">
<title>Node9</title>
<g id="a_node9"><a xlink:title=" ">
<polygon fill="none" stroke="#bfbfbf" points="441.5,-0.5 441.5,-19.5 491.5,-19.5 491.5,-0.5 441.5,-0.5"/>
<text text-anchor="middle" x="466.5" y="-7.5" font-family="Helvetica,sans-Serif" font-size="10.00">cstdint</text>
</a>
</g>
</g>
<!-- Node6&#45;&gt;Node9 -->
<g id="edge9" class="edge">
<title>Node6&#45;&gt;Node9</title>
<path fill="none" stroke="midnightblue" d="M277.99,-56.44C320.05,-46.31 389.67,-29.52 431.5,-19.44"/>
<polygon fill="midnightblue" stroke="midnightblue" points="432.35,-22.83 441.25,-17.09 430.71,-16.03 432.35,-22.83"/>
</g>
<!-- Node10 -->
<g id="node10" class="node">
<title>Node10</title>
<g id="a_node10"><a xlink:title=" ">
<polygon fill="none" stroke="#bfbfbf" points="206,-0.5 206,-19.5 279,-19.5 279,-0.5 206,-0.5"/>
<text text-anchor="middle" x="242.5" y="-7.5" font-family="Helvetica,sans-Serif" font-size="10.00">string_view</text>
</a>
</g>
</g>
<!-- Node6&#45;&gt;Node10 -->
<g id="edge10" class="edge">
<title>Node6&#45;&gt;Node10</title>
<path fill="none" stroke="midnightblue" d="M242.5,-56.08C242.5,-49.01 242.5,-38.86 242.5,-29.99"/>
<polygon fill="midnightblue" stroke="midnightblue" points="246,-29.75 242.5,-19.75 239,-29.75 246,-29.75"/>
</g>
<!-- Node11 -->
<g id="node11" class="node">
<title>Node11</title>
<g id="a_node11"><a xlink:title=" ">
<polygon fill="none" stroke="#bfbfbf" points="297,-0.5 297,-19.5 390,-19.5 390,-0.5 297,-0.5"/>
<text text-anchor="middle" x="343.5" y="-7.5" font-family="Helvetica,sans-Serif" font-size="10.00">source_location</text>
</a>
</g>
</g>
<!-- Node6&#45;&gt;Node11 -->
<g id="edge11" class="edge">
<title>Node6&#45;&gt;Node11</title>
<path fill="none" stroke="midnightblue" d="M258.73,-56.32C274.85,-47.7 299.8,-34.36 318.46,-24.39"/>
<polygon fill="midnightblue" stroke="midnightblue" points="320.14,-27.46 327.31,-19.65 316.84,-21.28 320.14,-27.46"/>
</g>
<!-- Node12&#45;&gt;Node5 -->
<g id="edge14" class="edge">
<title>Node12&#45;&gt;Node5</title>
<path fill="none" stroke="midnightblue" d="M680.91,-240.96C673.04,-231.48 661.24,-215.35 656.5,-199 651.53,-181.87 654.44,-161.52 657.89,-147.1"/>
<polygon fill="midnightblue" stroke="midnightblue" points="661.29,-147.94 660.52,-137.38 654.53,-146.12 661.29,-147.94"/>
</g>
<!-- Node13 -->
<g id="node13" class="node">
<title>Node13</title>
<g id="a_node13"><a xlink:title=" ">
<polygon fill="none" stroke="#bfbfbf" points="665,-179.5 665,-198.5 744,-198.5 744,-179.5 665,-179.5"/>
<text text-anchor="middle" x="704.5" y="-186.5" font-family="Helvetica,sans-Serif" font-size="10.00">fmt/format.h</text>
</a>
</g>
</g>
<!-- Node12&#45;&gt;Node13 -->
<g id="edge13" class="edge">
<title>Node12&#45;&gt;Node13</title>
<path fill="none" stroke="midnightblue" d="M690.79,-240.98C693.07,-232.49 696.65,-219.2 699.57,-208.32"/>
<polygon fill="midnightblue" stroke="midnightblue" points="702.99,-209.07 702.21,-198.51 696.24,-207.26 702.99,-209.07"/>
</g>
<!-- Node15 -->
<g id="node15" class="node">
<title>Node15</title>
<g id="a_node15"><a xlink:href="instruction_8hpp.html" target="_top" xlink:title="This file defines the interface of a general ARM instruction.">
<polygon fill="none" stroke="black" points="2002,-56.5 2002,-75.5 2091,-75.5 2091,-56.5 2002,-56.5"/>
<text text-anchor="middle" x="2046.5" y="-63.5" font-family="Helvetica,sans-Serif" font-size="10.00">instruction.hpp</text>
</a>
</g>
</g>
<!-- Node14&#45;&gt;Node15 -->
<g id="edge16" class="edge">
<title>Node14&#45;&gt;Node15</title>
<path fill="none" stroke="midnightblue" d="M2010.23,-186.89C2071.34,-184.11 2194.13,-174.65 2220.5,-143 2257,-99.19 2164.71,-79.88 2101.03,-71.97"/>
<polygon fill="midnightblue" stroke="midnightblue" points="2101.42,-68.49 2091.08,-70.8 2100.6,-75.44 2101.42,-68.49"/>
</g>
<!-- Node16 -->
<g id="node16" class="node">
<title>Node16</title>
<g id="a_node16"><a xlink:href="branch__and__exchange_8hpp.html" target="_top" xlink:title="This file defines a branch and exchange instruction (BX).">
<polygon fill="none" stroke="black" points="2267.5,-118 2267.5,-137 2413.5,-137 2413.5,-118 2267.5,-118"/>
<text text-anchor="middle" x="2340.5" y="-125" font-family="Helvetica,sans-Serif" font-size="10.00">branch_and_exchange.hpp</text>
</a>
</g>
</g>
<!-- Node14&#45;&gt;Node16 -->
<g id="edge17" class="edge">
<title>Node14&#45;&gt;Node16</title>
<path fill="none" stroke="midnightblue" d="M2010.18,-182.44C2062.79,-173.99 2165.93,-157.38 2253.5,-143 2261.86,-141.63 2270.68,-140.17 2279.35,-138.73"/>
<polygon fill="midnightblue" stroke="midnightblue" points="2280.15,-142.14 2289.44,-137.05 2279,-135.24 2280.15,-142.14"/>
</g>
<!-- Node17 -->
<g id="node17" class="node">
<title>Node17</title>
<g id="a_node17"><a xlink:href="branch_8hpp.html" target="_top" xlink:title="This file defines a branch instruction (B, BL).">
<polygon fill="none" stroke="black" points="2432,-118 2432,-137 2503,-137 2503,-118 2432,-118"/>
<text text-anchor="middle" x="2467.5" y="-125" font-family="Helvetica,sans-Serif" font-size="10.00">branch.hpp</text>
</a>
</g>
</g>
<!-- Node14&#45;&gt;Node17 -->
<g id="edge19" class="edge">
<title>Node14&#45;&gt;Node17</title>
<path fill="none" stroke="midnightblue" d="M2010.09,-187C2085.67,-184.28 2270.95,-174.67 2422.5,-143 2426.37,-142.19 2430.37,-141.18 2434.32,-140.06"/>
<polygon fill="midnightblue" stroke="midnightblue" points="2435.39,-143.39 2443.93,-137.13 2433.35,-136.7 2435.39,-143.39"/>
</g>
<!-- Node18 -->
<g id="node18" class="node">
<title>Node18</title>
<g id="a_node18"><a xlink:href="data__processing_8hpp.html" target="_top" xlink:title="This file defines a data processing instruction.">
<polygon fill="none" stroke="black" points="2521,-118 2521,-137 2638,-137 2638,-118 2521,-118"/>
<text text-anchor="middle" x="2579.5" y="-125" font-family="Helvetica,sans-Serif" font-size="10.00">data_processing.hpp</text>
</a>
</g>
</g>
<!-- Node14&#45;&gt;Node18 -->
<g id="edge21" class="edge">
<title>Node14&#45;&gt;Node18</title>
<path fill="none" stroke="midnightblue" d="M2010.23,-186.65C2095.94,-182.98 2324.21,-171.14 2512.5,-143 2519.46,-141.96 2526.78,-140.63 2533.92,-139.19"/>
<polygon fill="midnightblue" stroke="midnightblue" points="2535.12,-142.52 2544.19,-137.04 2533.69,-135.66 2535.12,-142.52"/>
</g>
<!-- Node19 -->
<g id="node19" class="node">
<title>Node19</title>
<g id="a_node19"><a xlink:href="multiply_8hpp.html" target="_top" xlink:title="This file defines a multiplication instruction (MUL, MLA).">
<polygon fill="none" stroke="black" points="2656,-118 2656,-137 2733,-137 2733,-118 2656,-118"/>
<text text-anchor="middle" x="2694.5" y="-125" font-family="Helvetica,sans-Serif" font-size="10.00">multiply.hpp</text>
</a>
</g>
</g>
<!-- Node14&#45;&gt;Node19 -->
<g id="edge23" class="edge">
<title>Node14&#45;&gt;Node19</title>
<path fill="none" stroke="midnightblue" d="M2010.12,-188.5C2109.95,-189.34 2406.63,-187.59 2647.5,-143 2651.75,-142.21 2656.16,-141.17 2660.49,-140"/>
<polygon fill="midnightblue" stroke="midnightblue" points="2661.76,-143.28 2670.37,-137.12 2659.79,-136.56 2661.76,-143.28"/>
</g>
<!-- Node20 -->
<g id="node20" class="node">
<title>Node20</title>
<g id="a_node20"><a xlink:href="multiply__long_8hpp.html" target="_top" xlink:title="This file defines a multiplication (long) instruction.">
<polygon fill="none" stroke="black" points="2751.5,-118 2751.5,-137 2855.5,-137 2855.5,-118 2751.5,-118"/>
<text text-anchor="middle" x="2803.5" y="-125" font-family="Helvetica,sans-Serif" font-size="10.00">multiply_long.hpp</text>
</a>
</g>
</g>
<!-- Node14&#45;&gt;Node20 -->
<g id="edge25" class="edge">
<title>Node14&#45;&gt;Node20</title>
<path fill="none" stroke="midnightblue" d="M2010.12,-188.12C2118.71,-188.02 2462.06,-184.23 2742.5,-143 2748.93,-142.05 2755.68,-140.76 2762.25,-139.33"/>
<polygon fill="midnightblue" stroke="midnightblue" points="2763.4,-142.66 2772.36,-137.01 2761.83,-135.84 2763.4,-142.66"/>
</g>
<!-- Node21 -->
<g id="node21" class="node">
<title>Node21</title>
<g id="a_node21"><a xlink:href="single__data__transfer_8hpp.html" target="_top" xlink:title="This file defines single data transfer instruction (LDR, STR).">
<polygon fill="none" stroke="black" points="1271,-118 1271,-137 1408,-137 1408,-118 1271,-118"/>
<text text-anchor="middle" x="1339.5" y="-125" font-family="Helvetica,sans-Serif" font-size="10.00">single_data_transfer.hpp</text>
</a>
</g>
</g>
<!-- Node14&#45;&gt;Node21 -->
<g id="edge27" class="edge">
<title>Node14&#45;&gt;Node21</title>
<path fill="none" stroke="midnightblue" d="M1940.76,-186.45C1852.84,-182.25 1614.52,-169.19 1417.5,-143 1408.96,-141.87 1399.94,-140.42 1391.18,-138.88"/>
<polygon fill="midnightblue" stroke="midnightblue" points="1391.53,-135.39 1381.07,-137.05 1390.28,-142.28 1391.53,-135.39"/>
</g>
<!-- Node22 -->
<g id="node22" class="node">
<title>Node22</title>
<g id="a_node22"><a xlink:href="block__data__transfer_8hpp.html" target="_top" xlink:title="This file defines a block data transfer instruction (LDM, STM).">
<polygon fill="none" stroke="black" points="1426.5,-118 1426.5,-137 1560.5,-137 1560.5,-118 1426.5,-118"/>
<text text-anchor="middle" x="1493.5" y="-125" font-family="Helvetica,sans-Serif" font-size="10.00">block_data_transfer.hpp</text>
</a>
</g>
</g>
<!-- Node14&#45;&gt;Node22 -->
<g id="edge29" class="edge">
<title>Node14&#45;&gt;Node22</title>
<path fill="none" stroke="midnightblue" d="M1940.98,-185.05C1870.93,-178.87 1707.11,-163.42 1570.5,-143 1562.47,-141.8 1553.99,-140.37 1545.72,-138.88"/>
<polygon fill="midnightblue" stroke="midnightblue" points="1546.23,-135.42 1535.77,-137.05 1544.97,-142.3 1546.23,-135.42"/>
</g>
<!-- Node23 -->
<g id="node23" class="node">
<title>Node23</title>
<g id="a_node23"><a xlink:href="halfword__data__transfer_8hpp.html" target="_top" xlink:title="This file defines a Halfword data transfer instruction.">
<polygon fill="none" stroke="black" points="1579,-118 1579,-137 1728,-137 1728,-118 1579,-118"/>
<text text-anchor="middle" x="1653.5" y="-125" font-family="Helvetica,sans-Serif" font-size="10.00">halfword_data_transfer.hpp</text>
</a>
</g>
</g>
<!-- Node14&#45;&gt;Node23 -->
<g id="edge31" class="edge">
<title>Node14&#45;&gt;Node23</title>
<path fill="none" stroke="midnightblue" d="M1940.73,-181.58C1885.28,-171.33 1776.29,-151.19 1709.66,-138.88"/>
<polygon fill="midnightblue" stroke="midnightblue" points="1710.22,-135.42 1699.75,-137.05 1708.95,-142.31 1710.22,-135.42"/>
</g>
<!-- Node24 -->
<g id="node24" class="node">
<title>Node24</title>
<g id="a_node24"><a xlink:href="extend_8hpp.html" target="_top" xlink:title="This file defines an extend instruction.">
<polygon fill="none" stroke="black" points="1746,-118 1746,-137 1817,-137 1817,-118 1746,-118"/>
<text text-anchor="middle" x="1781.5" y="-125" font-family="Helvetica,sans-Serif" font-size="10.00">extend.hpp</text>
</a>
</g>
</g>
<!-- Node14&#45;&gt;Node24 -->
<g id="edge33" class="edge">
<title>Node14&#45;&gt;Node24</title>
<path fill="none" stroke="midnightblue" d="M1946.61,-179.45C1916.56,-170.51 1868.16,-156 1826.5,-143 1823.54,-142.08 1820.47,-141.11 1817.4,-140.13"/>
<polygon fill="midnightblue" stroke="midnightblue" points="1818.24,-136.73 1807.65,-137.02 1816.11,-143.39 1818.24,-136.73"/>
</g>
<!-- Node25 -->
<g id="node25" class="node">
<title>Node25</title>
<g id="a_node25"><a xlink:href="psr__transfer_8hpp.html" target="_top" xlink:title="This file defines a PSR instruction (MRS, MSR).">
<polygon fill="none" stroke="black" points="1835,-118 1835,-137 1930,-137 1930,-118 1835,-118"/>
<text text-anchor="middle" x="1882.5" y="-125" font-family="Helvetica,sans-Serif" font-size="10.00">psr_transfer.hpp</text>
</a>
</g>
</g>
<!-- Node14&#45;&gt;Node25 -->
<g id="edge35" class="edge">
<title>Node14&#45;&gt;Node25</title>
<path fill="none" stroke="midnightblue" d="M1962.18,-179.48C1947.12,-169.84 1922.38,-154.02 1904.46,-142.55"/>
<polygon fill="midnightblue" stroke="midnightblue" points="1906.11,-139.45 1895.8,-137.01 1902.34,-145.35 1906.11,-139.45"/>
</g>
<!-- Node26 -->
<g id="node26" class="node">
<title>Node26</title>
<g id="a_node26"><a xlink:href="cps_8hpp.html" target="_top" xlink:title="This file defines a change processor state instruction (CPS).">
<polygon fill="none" stroke="black" points="1948.5,-118 1948.5,-137 2002.5,-137 2002.5,-118 1948.5,-118"/>
<text text-anchor="middle" x="1975.5" y="-125" font-family="Helvetica,sans-Serif" font-size="10.00">cps.hpp</text>
</a>
</g>
</g>
<!-- Node14&#45;&gt;Node26 -->
<g id="edge37" class="edge">
<title>Node14&#45;&gt;Node26</title>
<path fill="none" stroke="midnightblue" d="M1975.5,-179.48C1975.5,-171.08 1975.5,-157.98 1975.5,-147.16"/>
<polygon fill="midnightblue" stroke="midnightblue" points="1979,-147.01 1975.5,-137.01 1972,-147.01 1979,-147.01"/>
</g>
<!-- Node27 -->
<g id="node27" class="node">
<title>Node27</title>
<g id="a_node27"><a xlink:href="coprocessor__register__transfer_8hpp.html" target="_top" xlink:title="This file defines a coprocessor register transfer (MRC, MCR).">
<polygon fill="none" stroke="black" points="1134.5,-112.5 1134.5,-142.5 1252.5,-142.5 1252.5,-112.5 1134.5,-112.5"/>
<text text-anchor="start" x="1142.5" y="-130.5" font-family="Helvetica,sans-Serif" font-size="10.00">coprocessor_register</text>
<text text-anchor="middle" x="1193.5" y="-119.5" font-family="Helvetica,sans-Serif" font-size="10.00">_transfer.hpp</text>
</a>
</g>
</g>
<!-- Node14&#45;&gt;Node27 -->
<g id="edge39" class="edge">
<title>Node14&#45;&gt;Node27</title>
<path fill="none" stroke="midnightblue" d="M1940.82,-187.58C1838.6,-185.96 1529.5,-178.4 1263.13,-142.93"/>
<polygon fill="midnightblue" stroke="midnightblue" points="1263.25,-139.41 1252.87,-141.54 1262.32,-146.35 1263.25,-139.41"/>
</g>
<!-- Node28 -->
<g id="node28" class="node">
<title>Node28</title>
<g id="a_node28"><a xlink:href="coprocessor__data__transfer_8hpp.html" target="_top" xlink:title="This file defines a coprocessor data transfer (LDC, STC).">
<polygon fill="none" stroke="black" points="756.5,-118 756.5,-137 922.5,-137 922.5,-118 756.5,-118"/>
<text text-anchor="middle" x="839.5" y="-125" font-family="Helvetica,sans-Serif" font-size="10.00">coprocessor_data_transfer.hpp</text>
</a>
</g>
</g>
<!-- Node14&#45;&gt;Node28 -->
<g id="edge41" class="edge">
<title>Node14&#45;&gt;Node28</title>
<path fill="none" stroke="midnightblue" d="M1940.74,-187.91C1808.87,-187.25 1327.04,-182.14 932.5,-143 921.18,-141.88 909.14,-140.29 897.61,-138.58"/>
<polygon fill="midnightblue" stroke="midnightblue" points="898.05,-135.11 887.64,-137.05 896.99,-142.03 898.05,-135.11"/>
</g>
<!-- Node29 -->
<g id="node29" class="node">
<title>Node29</title>
<g id="a_node29"><a xlink:href="coprocessor__data__operation_8hpp.html" target="_top" xlink:title="This file defines a coprocessor data operation (CDP).">
<polygon fill="none" stroke="black" points="941,-118 941,-137 1116,-137 1116,-118 941,-118"/>
<text text-anchor="middle" x="1028.5" y="-125" font-family="Helvetica,sans-Serif" font-size="10.00">coprocessor_data_operation.hpp</text>
</a>
</g>
</g>
<!-- Node14&#45;&gt;Node29 -->
<g id="edge43" class="edge">
<title>Node14&#45;&gt;Node29</title>
<path fill="none" stroke="midnightblue" d="M1941,-187.35C1825.4,-184.94 1441.24,-174.88 1125.5,-143 1113.72,-141.81 1101.18,-140.2 1089.17,-138.48"/>
<polygon fill="midnightblue" stroke="midnightblue" points="1089.63,-135.01 1079.23,-137.02 1088.62,-141.93 1089.63,-135.01"/>
</g>
<!-- Node30 -->
<g id="node30" class="node">
<title>Node30</title>
<g id="a_node30"><a xlink:href="srs_8hpp.html" target="_top" xlink:title="This file defines an SRS instruction (store return state onto a stack).">
<polygon fill="none" stroke="black" points="2020.5,-118 2020.5,-137 2072.5,-137 2072.5,-118 2020.5,-118"/>
<text text-anchor="middle" x="2046.5" y="-125" font-family="Helvetica,sans-Serif" font-size="10.00">srs.hpp</text>
</a>
</g>
</g>
<!-- Node14&#45;&gt;Node30 -->
<g id="edge45" class="edge">
<title>Node14&#45;&gt;Node30</title>
<path fill="none" stroke="midnightblue" d="M1985.67,-179.48C1996.85,-170.11 2015.02,-154.88 2028.59,-143.51"/>
<polygon fill="midnightblue" stroke="midnightblue" points="2030.93,-146.11 2036.35,-137.01 2026.43,-140.75 2030.93,-146.11"/>
</g>
<!-- Node31 -->
<g id="node31" class="node">
<title>Node31</title>
<g id="a_node31"><a xlink:href="rfe_8hpp.html" target="_top" xlink:title="This file defines an RFE instruction (return from exception).">
<polygon fill="none" stroke="black" points="2091,-118 2091,-137 2142,-137 2142,-118 2091,-118"/>
<text text-anchor="middle" x="2116.5" y="-125" font-family="Helvetica,sans-Serif" font-size="10.00">rfe.hpp</text>
</a>
</g>
</g>
<!-- Node14&#45;&gt;Node31 -->
<g id="edge47" class="edge">
<title>Node14&#45;&gt;Node31</title>
<path fill="none" stroke="midnightblue" d="M1995.7,-179.48C2019.57,-169.4 2059.5,-152.55 2086.87,-141"/>
<polygon fill="midnightblue" stroke="midnightblue" points="2088.48,-144.12 2096.34,-137.01 2085.76,-137.67 2088.48,-144.12"/>
</g>
<!-- Node32 -->
<g id="node32" class="node">
<title>Node32</title>
<g id="a_node32"><a xlink:href="clz_8hpp.html" target="_top" xlink:title="This file defines a count leading zeros instruction (CLZ).">
<polygon fill="none" stroke="black" points="2160,-118 2160,-137 2211,-137 2211,-118 2160,-118"/>
<text text-anchor="middle" x="2185.5" y="-125" font-family="Helvetica,sans-Serif" font-size="10.00">clz.hpp</text>
</a>
</g>
</g>
<!-- Node14&#45;&gt;Node32 -->
<g id="edge49" class="edge">
<title>Node14&#45;&gt;Node32</title>
<path fill="none" stroke="midnightblue" d="M2010.02,-180.81C2045.84,-172.98 2103.26,-159.35 2151.5,-143 2153.37,-142.37 2155.28,-141.68 2157.19,-140.95"/>
<polygon fill="midnightblue" stroke="midnightblue" points="2158.67,-144.13 2166.64,-137.15 2156.05,-137.64 2158.67,-144.13"/>
</g>
<!-- Node16&#45;&gt;Node15 -->
<g id="edge18" class="edge">
<title>Node16&#45;&gt;Node15</title>
<path fill="none" stroke="midnightblue" d="M2298.38,-117.98C2245.65,-107.3 2155.37,-89.03 2098.43,-77.51"/>
<polygon fill="midnightblue" stroke="midnightblue" points="2099.04,-74.06 2088.54,-75.51 2097.65,-80.92 2099.04,-74.06"/>
</g>
<!-- Node17&#45;&gt;Node15 -->
<g id="edge20" class="edge">
<title>Node17&#45;&gt;Node15</title>
<path fill="none" stroke="midnightblue" d="M2443.91,-117.96C2437.08,-115.74 2429.56,-113.54 2422.5,-112 2309.79,-87.34 2174.91,-75.34 2101.23,-70.23"/>
<polygon fill="midnightblue" stroke="midnightblue" points="2101.46,-66.74 2091.24,-69.56 2100.98,-73.73 2101.46,-66.74"/>
</g>
<!-- Node18&#45;&gt;Node15 -->
<g id="edge22" class="edge">
<title>Node18&#45;&gt;Node15</title>
<path fill="none" stroke="midnightblue" d="M2543.83,-117.97C2533.75,-115.78 2522.73,-113.6 2512.5,-112 2364.72,-88.95 2188.61,-75.79 2101.26,-70.21"/>
<polygon fill="midnightblue" stroke="midnightblue" points="2101.25,-66.7 2091.05,-69.56 2100.81,-73.69 2101.25,-66.7"/>
</g>
<!-- Node19&#45;&gt;Node15 -->
<g id="edge24" class="edge">
<title>Node19&#45;&gt;Node15</title>
<path fill="none" stroke="midnightblue" d="M2670.37,-117.92C2663.1,-115.65 2655.05,-113.43 2647.5,-112 2448.76,-74.4 2207.47,-67.92 2101.21,-67.01"/>
<polygon fill="midnightblue" stroke="midnightblue" points="2101.08,-63.51 2091.05,-66.94 2101.03,-70.51 2101.08,-63.51"/>
</g>
<!-- Node20&#45;&gt;Node15 -->
<g id="edge26" class="edge">
<title>Node20&#45;&gt;Node15</title>
<path fill="none" stroke="midnightblue" d="M2772.04,-117.95C2762.6,-115.68 2752.19,-113.45 2742.5,-112 2505.67,-76.46 2219.35,-68.97 2101.37,-67.41"/>
<polygon fill="midnightblue" stroke="midnightblue" points="2101.2,-63.91 2091.15,-67.28 2101.11,-70.91 2101.2,-63.91"/>
</g>
<!-- Node21&#45;&gt;Node15 -->
<g id="edge28" class="edge">
<title>Node21&#45;&gt;Node15</title>
<path fill="none" stroke="midnightblue" d="M1380.65,-117.96C1392.5,-115.74 1405.48,-113.54 1417.5,-112 1628.68,-84.9 1882,-73.01 1991.57,-68.85"/>
<polygon fill="midnightblue" stroke="midnightblue" points="1991.85,-72.34 2001.71,-68.47 1991.59,-65.35 1991.85,-72.34"/>
</g>
<!-- Node22&#45;&gt;Node15 -->
<g id="edge30" class="edge">
<title>Node22&#45;&gt;Node15</title>
<path fill="none" stroke="midnightblue" d="M1534.94,-117.97C1546.43,-115.81 1558.92,-113.63 1570.5,-112 1722.3,-90.58 1902.82,-76.64 1991.61,-70.54"/>
<polygon fill="midnightblue" stroke="midnightblue" points="1991.98,-74.03 2001.71,-69.86 1991.5,-67.04 1991.98,-74.03"/>
</g>
<!-- Node23&#45;&gt;Node15 -->
<g id="edge32" class="edge">
<title>Node23&#45;&gt;Node15</title>
<path fill="none" stroke="midnightblue" d="M1701.88,-117.92C1713.53,-115.92 1725.95,-113.84 1737.5,-112 1826.5,-97.84 1930.22,-83.09 1992.01,-74.49"/>
<polygon fill="midnightblue" stroke="midnightblue" points="1992.5,-77.96 2001.93,-73.12 1991.54,-71.03 1992.5,-77.96"/>
</g>
<!-- Node24&#45;&gt;Node15 -->
<g id="edge34" class="edge">
<title>Node24&#45;&gt;Node15</title>
<path fill="none" stroke="midnightblue" d="M1806.58,-117.88C1813.03,-115.81 1819.99,-113.71 1826.5,-112 1882.3,-97.35 1947.09,-84.6 1991.84,-76.45"/>
<polygon fill="midnightblue" stroke="midnightblue" points="1992.7,-79.85 2001.92,-74.63 1991.46,-72.96 1992.7,-79.85"/>
</g>
<!-- Node25&#45;&gt;Node15 -->
<g id="edge36" class="edge">
<title>Node25&#45;&gt;Node15</title>
<path fill="none" stroke="midnightblue" d="M1906,-117.98C1934.13,-107.77 1981.43,-90.61 2013.29,-79.05"/>
<polygon fill="midnightblue" stroke="midnightblue" points="2014.84,-82.21 2023.05,-75.51 2012.45,-75.63 2014.84,-82.21"/>
</g>
<!-- Node26&#45;&gt;Node15 -->
<g id="edge38" class="edge">
<title>Node26&#45;&gt;Node15</title>
<path fill="none" stroke="midnightblue" d="M1985.67,-117.98C1996.85,-108.61 2015.02,-93.38 2028.59,-82.01"/>
<polygon fill="midnightblue" stroke="midnightblue" points="2030.93,-84.61 2036.35,-75.51 2026.43,-79.25 2030.93,-84.61"/>
</g>
<!-- Node27&#45;&gt;Node15 -->
<g id="edge40" class="edge">
<title>Node27&#45;&gt;Node15</title>
<path fill="none" stroke="midnightblue" d="M1252.87,-113.43C1256.12,-112.9 1259.35,-112.42 1262.5,-112 1534.27,-75.85 1862.85,-68.73 1991.29,-67.33"/>
<polygon fill="midnightblue" stroke="midnightblue" points="1991.67,-70.83 2001.64,-67.23 1991.6,-63.83 1991.67,-70.83"/>
</g>
<!-- Node28&#45;&gt;Node15 -->
<g id="edge42" class="edge">
<title>Node28&#45;&gt;Node15</title>
<path fill="none" stroke="midnightblue" d="M887.16,-118C901.67,-115.7 917.7,-113.45 932.5,-112 1337.78,-72.35 1829.29,-67.48 1991.59,-67"/>
<polygon fill="midnightblue" stroke="midnightblue" points="1991.81,-70.5 2001.8,-66.98 1991.79,-63.5 1991.81,-70.5"/>
</g>
<!-- Node29&#45;&gt;Node15 -->
<g id="edge44" class="edge">
<title>Node29&#45;&gt;Node15</title>
<path fill="none" stroke="midnightblue" d="M1078.98,-117.98C1093.92,-115.72 1110.33,-113.5 1125.5,-112 1453.05,-79.6 1848.54,-70.22 1991.56,-67.78"/>
<polygon fill="midnightblue" stroke="midnightblue" points="1991.88,-71.27 2001.82,-67.61 1991.76,-64.27 1991.88,-71.27"/>
</g>
<!-- Node30&#45;&gt;Node15 -->
<g id="edge46" class="edge">
<title>Node30&#45;&gt;Node15</title>
<path fill="none" stroke="midnightblue" d="M2046.5,-117.98C2046.5,-109.58 2046.5,-96.48 2046.5,-85.66"/>
<polygon fill="midnightblue" stroke="midnightblue" points="2050,-85.51 2046.5,-75.51 2043,-85.51 2050,-85.51"/>
</g>
<!-- Node31&#45;&gt;Node15 -->
<g id="edge48" class="edge">
<title>Node31&#45;&gt;Node15</title>
<path fill="none" stroke="midnightblue" d="M2106.47,-117.98C2095.45,-108.61 2077.54,-93.38 2064.16,-82.01"/>
<polygon fill="midnightblue" stroke="midnightblue" points="2066.4,-79.32 2056.51,-75.51 2061.86,-84.65 2066.4,-79.32"/>
</g>
<!-- Node32&#45;&gt;Node15 -->
<g id="edge50" class="edge">
<title>Node32&#45;&gt;Node15</title>
<path fill="none" stroke="midnightblue" d="M2165.58,-117.98C2142.05,-107.9 2102.69,-91.05 2075.71,-79.5"/>
<polygon fill="midnightblue" stroke="midnightblue" points="2076.95,-76.23 2066.38,-75.51 2074.19,-82.66 2076.95,-76.23"/>
</g>
<!-- Node33&#45;&gt;Node15 -->
<g id="edge52" class="edge">
<title>Node33&#45;&gt;Node15</title>
<path fill="none" stroke="midnightblue" d="M2675.76,-240.96C2760.13,-223.24 2927.42,-178.47 2864.5,-112 2838.26,-84.28 2280.56,-71.4 2101.39,-67.97"/>
<polygon fill="midnightblue" stroke="midnightblue" points="2101.21,-64.47 2091.15,-67.78 2101.08,-71.46 2101.21,-64.47"/>
</g>
<!-- Node34&#45;&gt;Node12 -->
<g id="edge65" class="edge">
<title>Node34&#45;&gt;Node12</title>
<path fill="none" stroke="midnightblue" d="M607.18,-307.73C622.68,-297.01 649.14,-278.72 667.66,-265.91"/>
<polygon fill="midnightblue" stroke="midnightblue" points="669.79,-268.69 676.02,-260.13 665.81,-262.94 669.79,-268.69"/>
</g>
<!-- Node35 -->
<g id="node35" class="node">
<title>Node35</title>
<g id="a_node35"><a xlink:href="cp15_8hpp.html" target="_top" xlink:title=" ">
<polygon fill="none" stroke="black" points="496.5,-241 496.5,-260 624.5,-260 624.5,-241 496.5,-241"/>
<text text-anchor="middle" x="560.5" y="-248" font-family="Helvetica,sans-Serif" font-size="10.00">coprocessors/cp15.hpp</text>
</a>
</g>
</g>
<!-- Node34&#45;&gt;Node35 -->
<g id="edge54" class="edge">
<title>Node34&#45;&gt;Node35</title>
<path fill="none" stroke="midnightblue" d="M589.91,-307.73C584.77,-297.89 576.28,-281.66 569.74,-269.16"/>
<polygon fill="midnightblue" stroke="midnightblue" points="572.75,-267.37 565.01,-260.13 566.55,-270.61 572.75,-267.37"/>
</g>
<!-- Node38 -->
<g id="node38" class="node">
<title>Node38</title>
<g id="a_node38"><a xlink:href="peripheral_8hpp.html" target="_top" xlink:title="This file defines an interface for a memory&#45;mapped peripheral.">
<polygon fill="none" stroke="black" points="276,-179.5 276,-198.5 421,-198.5 421,-179.5 276,-179.5"/>
<text text-anchor="middle" x="348.5" y="-186.5" font-family="Helvetica,sans-Serif" font-size="10.00">peripherals/peripheral.hpp</text>
</a>
</g>
</g>
<!-- Node34&#45;&gt;Node38 -->
<g id="edge64" class="edge">
<title>Node34&#45;&gt;Node38</title>
<path fill="none" stroke="midnightblue" d="M575.39,-307.9C553.86,-298.11 517.89,-281.46 487.5,-266 446.5,-245.14 399.73,-219.09 372.24,-203.54"/>
<polygon fill="midnightblue" stroke="midnightblue" points="373.79,-200.39 363.36,-198.5 370.33,-206.48 373.79,-200.39"/>
</g>
<!-- Node35&#45;&gt;Node6 -->
<g id="edge63" class="edge">
<title>Node35&#45;&gt;Node6</title>
<path fill="none" stroke="midnightblue" d="M560.58,-240.95C560.26,-226.39 557.53,-196.63 541.5,-179 484.13,-115.9 387.72,-88.19 319.92,-76.12"/>
<polygon fill="midnightblue" stroke="midnightblue" points="320.16,-72.61 309.72,-74.39 318.99,-79.52 320.16,-72.61"/>
</g>
<!-- Node35&#45;&gt;Node8 -->
<g id="edge55" class="edge">
<title>Node35&#45;&gt;Node8</title>
<path fill="none" stroke="midnightblue" d="M561.9,-240.73C567.43,-206.03 587.84,-77.89 595.54,-29.59"/>
<polygon fill="midnightblue" stroke="midnightblue" points="599.01,-30.03 597.13,-19.6 592.1,-28.92 599.01,-30.03"/>
</g>
<!-- Node36 -->
<g id="node36" class="node">
<title>Node36</title>
<g id="a_node36"><a xlink:title=" ">
<polygon fill="none" stroke="#bfbfbf" points="439,-179.5 439,-198.5 532,-198.5 532,-179.5 439,-179.5"/>
<text text-anchor="middle" x="485.5" y="-186.5" font-family="Helvetica,sans-Serif" font-size="10.00">unordered_map</text>
</a>
</g>
</g>
<!-- Node35&#45;&gt;Node36 -->
<g id="edge56" class="edge">
<title>Node35&#45;&gt;Node36</title>
<path fill="none" stroke="midnightblue" d="M549.75,-240.98C537.95,-231.61 518.76,-216.38 504.42,-205.01"/>
<polygon fill="midnightblue" stroke="midnightblue" points="506.24,-201.98 496.23,-198.51 501.88,-207.47 506.24,-201.98"/>
</g>
<!-- Node37 -->
<g id="node37" class="node">
<title>Node37</title>
<g id="a_node37"><a xlink:href="coprocessor_8hpp.html" target="_top" xlink:title=" ">
<polygon fill="none" stroke="black" points="801,-179.5 801,-198.5 896,-198.5 896,-179.5 801,-179.5"/>
<text text-anchor="middle" x="848.5" y="-186.5" font-family="Helvetica,sans-Serif" font-size="10.00">coprocessor.hpp</text>
</a>
</g>
</g>
<!-- Node35&#45;&gt;Node37 -->
<g id="edge57" class="edge">
<title>Node35&#45;&gt;Node37</title>
<path fill="none" stroke="midnightblue" d="M601.76,-240.98C653.3,-230.33 741.48,-212.11 797.29,-200.58"/>
<polygon fill="midnightblue" stroke="midnightblue" points="798.23,-203.96 807.31,-198.51 796.81,-197.1 798.23,-203.96"/>
</g>
<!-- Node37&#45;&gt;Node5 -->
<g id="edge59" class="edge">
<title>Node37&#45;&gt;Node5</title>
<path fill="none" stroke="midnightblue" d="M821.99,-179.48C789.85,-169.14 735.51,-151.66 699.57,-140.1"/>
<polygon fill="midnightblue" stroke="midnightblue" points="700.55,-136.74 689.96,-137.01 698.4,-143.4 700.55,-136.74"/>
</g>
<!-- Node37&#45;&gt;Node9 -->
<g id="edge58" class="edge">
<title>Node37&#45;&gt;Node9</title>
<path fill="none" stroke="midnightblue" d="M824.75,-179.48C803.7,-171.46 772.51,-158.39 747.5,-143 728.94,-131.58 728.2,-123.19 709.5,-112 639.95,-70.4 550.12,-37.96 501.5,-21.95"/>
<polygon fill="midnightblue" stroke="midnightblue" points="502.36,-18.56 491.77,-18.79 500.2,-25.21 502.36,-18.56"/>
</g>
<!-- Node37&#45;&gt;Node27 -->
<g id="edge60" class="edge">
<title>Node37&#45;&gt;Node27</title>
<path fill="none" stroke="midnightblue" d="M896.17,-180.98C949.41,-172.98 1038.38,-159.13 1124.28,-143.18"/>
<polygon fill="midnightblue" stroke="midnightblue" points="1125.01,-146.6 1134.2,-141.32 1123.72,-139.72 1125.01,-146.6"/>
</g>
<!-- Node37&#45;&gt;Node28 -->
<g id="edge61" class="edge">
<title>Node37&#45;&gt;Node28</title>
<path fill="none" stroke="midnightblue" d="M847.21,-179.48C845.94,-171.08 843.96,-157.98 842.32,-147.16"/>
<polygon fill="midnightblue" stroke="midnightblue" points="845.74,-146.37 840.79,-137.01 838.82,-147.42 845.74,-146.37"/>
</g>
<!-- Node37&#45;&gt;Node29 -->
<g id="edge62" class="edge">
<title>Node37&#45;&gt;Node29</title>
<path fill="none" stroke="midnightblue" d="M874.29,-179.48C905.43,-169.18 957.98,-151.81 992.95,-140.25"/>
<polygon fill="midnightblue" stroke="midnightblue" points="994.36,-143.47 1002.76,-137.01 992.16,-136.82 994.36,-143.47"/>
</g>
<!-- Node40&#45;&gt;Node5 -->
<g id="edge72" class="edge">
<title>Node40&#45;&gt;Node5</title>
<path fill="none" stroke="midnightblue" d="M251.12,-235.28C250.41,-219.15 252.03,-193.24 267.5,-179 317.39,-133.08 522.35,-127.85 616.19,-127.94"/>
<polygon fill="midnightblue" stroke="midnightblue" points="616.25,-131.44 626.26,-127.97 616.27,-124.44 616.25,-131.44"/>
</g>
<!-- Node40&#45;&gt;Node6 -->
<g id="edge73" class="edge">
<title>Node40&#45;&gt;Node6</title>
<path fill="none" stroke="midnightblue" d="M251.73,-235.48C249.96,-203.1 245.57,-123.04 243.55,-86.16"/>
<polygon fill="midnightblue" stroke="midnightblue" points="247.03,-85.61 242.98,-75.82 240.04,-86 247.03,-85.61"/>
</g>
<!-- Node40&#45;&gt;Node36 -->
<g id="edge70" class="edge">
<title>Node40&#45;&gt;Node36</title>
<path fill="none" stroke="midnightblue" d="M307.42,-235.47C348.67,-224.94 404.38,-210.72 442.43,-201"/>
<polygon fill="midnightblue" stroke="midnightblue" points="443.37,-204.37 452.19,-198.51 441.63,-197.59 443.37,-204.37"/>
</g>
<!-- Node40&#45;&gt;Node38 -->
<g id="edge71" class="edge">
<title>Node40&#45;&gt;Node38</title>
<path fill="none" stroke="midnightblue" d="M275.25,-235.4C290.49,-225.95 310.49,-213.56 325.74,-204.11"/>
<polygon fill="midnightblue" stroke="midnightblue" points="327.88,-206.9 334.53,-198.66 324.19,-200.95 327.88,-206.9"/>
</g>
<!-- Node41 -->
<g id="node41" class="node">
<title>Node41</title>
<g id="a_node41"><a xlink:title=" ">
<polygon fill="none" stroke="#bfbfbf" points="139.5,-179.5 139.5,-198.5 181.5,-198.5 181.5,-179.5 139.5,-179.5"/>
<text text-anchor="middle" x="160.5" y="-186.5" font-family="Helvetica,sans-Serif" font-size="10.00">array</text>
</a>
</g>
</g>
<!-- Node40&#45;&gt;Node41 -->
<g id="edge69" class="edge">
<title>Node40&#45;&gt;Node41</title>
<path fill="none" stroke="midnightblue" d="M230.7,-235.4C216.09,-225.95 196.93,-213.56 182.32,-204.11"/>
<polygon fill="midnightblue" stroke="midnightblue" points="184.18,-201.15 173.89,-198.66 180.38,-207.03 184.18,-201.15"/>
</g>
<!-- Node43&#45;&gt;Node8 -->
<g id="edge77" class="edge">
<title>Node43&#45;&gt;Node8</title>
<path fill="none" stroke="midnightblue" d="M705.05,-383.29C1030.92,-381.57 2921.5,-366.63 2921.5,-251.5 2921.5,-251.5 2921.5,-251.5 2921.5,-126.5 2921.5,-6.53 918.85,-9.77 632.44,-10.85"/>
<polygon fill="midnightblue" stroke="midnightblue" points="632.23,-7.35 622.25,-10.89 632.26,-14.35 632.23,-7.35"/>
</g>
<!-- Node43&#45;&gt;Node34 -->
<g id="edge78" class="edge">
<title>Node43&#45;&gt;Node34</title>
<path fill="none" stroke="midnightblue" d="M643.83,-369.4C633.91,-359.16 620.47,-345.3 610.13,-334.62"/>
<polygon fill="midnightblue" stroke="midnightblue" points="612.4,-331.94 602.93,-327.19 607.37,-336.81 612.4,-331.94"/>
</g>
</g>
</svg>
