<?xml version="1.0" encoding="UTF-8" standalone="no"?>
<!DOCTYPE svg PUBLIC "-//W3C//DTD SVG 1.1//EN"
 "http://www.w3.org/Graphics/SVG/1.1/DTD/svg11.dtd">
<!-- Generated by graphviz version 2.43.0 (0)
 -->
<!-- Title: src/core/peripherals/gpio.cpp Pages: 1 -->
<svg width="654pt" height="330pt"
 viewBox="0.00 0.00 654.00 330.00" xmlns="http://www.w3.org/2000/svg" xmlns:xlink="http://www.w3.org/1999/xlink">
<g id="graph0" class="graph" transform="scale(1 1) rotate(0) translate(4 326)">
<title>src/core/peripherals/gpio.cpp</title>
<!-- Node1 -->
<g id="node1" class="node">
<title>Node1</title>
<g id="a_node1"><a xlink:title="This file implements the GPIO controller used in BCM2835 (defined in gpio.hpp).">
<polygon fill="#bfbfbf" stroke="black" points="220,-291.5 220,-321.5 333,-321.5 333,-291.5 220,-291.5"/>
<text text-anchor="start" x="228" y="-309.5" font-family="Helvetica,sans-Serif" font-size="10.00">src/core/peripherals</text>
<text text-anchor="middle" x="276.5" y="-298.5" font-family="Helvetica,sans-Serif" font-size="10.00">/gpio.cpp</text>
</a>
</g>
</g>
<!-- Node2 -->
<g id="node2" class="node">
<title>Node2</title>
<g id="a_node2"><a xlink:title=" ">
<polygon fill="none" stroke="#bfbfbf" points="31,-235.5 31,-254.5 110,-254.5 110,-235.5 31,-235.5"/>
<text text-anchor="middle" x="70.5" y="-242.5" font-family="Helvetica,sans-Serif" font-size="10.00">fmt/format.h</text>
</a>
</g>
</g>
<!-- Node1&#45;&gt;Node2 -->
<g id="edge1" class="edge">
<title>Node1&#45;&gt;Node2</title>
<path fill="none" stroke="midnightblue" d="M227.94,-291.47C191.94,-281.08 143.48,-267.08 109.87,-257.37"/>
<polygon fill="midnightblue" stroke="midnightblue" points="110.53,-253.92 99.95,-254.51 108.59,-260.64 110.53,-253.92"/>
</g>
<!-- Node3 -->
<g id="node3" class="node">
<title>Node3</title>
<g id="a_node3"><a xlink:title=" ">
<polygon fill="none" stroke="#bfbfbf" points="128,-235.5 128,-254.5 229,-254.5 229,-235.5 128,-235.5"/>
<text text-anchor="middle" x="178.5" y="-242.5" font-family="Helvetica,sans-Serif" font-size="10.00">magic_enum.hpp</text>
</a>
</g>
</g>
<!-- Node1&#45;&gt;Node3 -->
<g id="edge2" class="edge">
<title>Node1&#45;&gt;Node3</title>
<path fill="none" stroke="midnightblue" d="M253.28,-291.4C237.71,-281.95 217.3,-269.56 201.74,-260.11"/>
<polygon fill="midnightblue" stroke="midnightblue" points="203.12,-256.86 192.76,-254.66 199.49,-262.84 203.12,-256.86"/>
</g>
<!-- Node4 -->
<g id="node4" class="node">
<title>Node4</title>
<g id="a_node4"><a xlink:href="gpio_8hpp.html" target="_top" xlink:title="This file defines the GPIO controller used in BCM2835.">
<polygon fill="none" stroke="black" points="247,-235.5 247,-254.5 306,-254.5 306,-235.5 247,-235.5"/>
<text text-anchor="middle" x="276.5" y="-242.5" font-family="Helvetica,sans-Serif" font-size="10.00">gpio.hpp</text>
</a>
</g>
</g>
<!-- Node1&#45;&gt;Node4 -->
<g id="edge3" class="edge">
<title>Node1&#45;&gt;Node4</title>
<path fill="none" stroke="midnightblue" d="M276.5,-291.4C276.5,-283.47 276.5,-273.46 276.5,-264.86"/>
<polygon fill="midnightblue" stroke="midnightblue" points="280,-264.66 276.5,-254.66 273,-264.66 280,-264.66"/>
</g>
<!-- Node11 -->
<g id="node11" class="node">
<title>Node11</title>
<g id="a_node11"><a xlink:href="math_8hpp.html" target="_top" xlink:title="This file defines and implements a variety of handy helper functions that are used throughout the pro...">
<polygon fill="none" stroke="black" points="324.5,-235.5 324.5,-254.5 466.5,-254.5 466.5,-235.5 324.5,-235.5"/>
<text text-anchor="middle" x="395.5" y="-242.5" font-family="Helvetica,sans-Serif" font-size="10.00">zero_mate/utils/math.hpp</text>
</a>
</g>
</g>
<!-- Node1&#45;&gt;Node11 -->
<g id="edge15" class="edge">
<title>Node1&#45;&gt;Node11</title>
<path fill="none" stroke="midnightblue" d="M304.7,-291.4C324.22,-281.64 350.03,-268.74 369.13,-259.18"/>
<polygon fill="midnightblue" stroke="midnightblue" points="370.81,-262.26 378.18,-254.66 367.67,-256 370.81,-262.26"/>
</g>
<!-- Node12 -->
<g id="node12" class="node">
<title>Node12</title>
<g id="a_node12"><a xlink:href="singleton_8hpp.html" target="_top" xlink:title="This file defines and implements a generic class that is used to treat other classes as singletons.">
<polygon fill="none" stroke="black" points="485,-235.5 485,-254.5 646,-254.5 646,-235.5 485,-235.5"/>
<text text-anchor="middle" x="565.5" y="-242.5" font-family="Helvetica,sans-Serif" font-size="10.00">zero_mate/utils/singleton.hpp</text>
</a>
</g>
</g>
<!-- Node1&#45;&gt;Node12 -->
<g id="edge16" class="edge">
<title>Node1&#45;&gt;Node12</title>
<path fill="none" stroke="midnightblue" d="M333.25,-293.82C385.69,-283.02 462.95,-267.11 513.74,-256.66"/>
<polygon fill="midnightblue" stroke="midnightblue" points="514.76,-260.02 523.84,-254.58 513.34,-253.16 514.76,-260.02"/>
</g>
<!-- Node5 -->
<g id="node5" class="node">
<title>Node5</title>
<g id="a_node5"><a xlink:href="peripheral_8hpp.html" target="_top" xlink:title="This file defines an interface for a memory&#45;mapped peripheral.">
<polygon fill="none" stroke="black" points="0,-118 0,-137 87,-137 87,-118 0,-118"/>
<text text-anchor="middle" x="43.5" y="-125" font-family="Helvetica,sans-Serif" font-size="10.00">peripheral.hpp</text>
</a>
</g>
</g>
<!-- Node4&#45;&gt;Node5 -->
<g id="edge4" class="edge">
<title>Node4&#45;&gt;Node5</title>
<path fill="none" stroke="midnightblue" d="M246.79,-236.28C210.3,-226.55 150.74,-209.8 130.5,-199 102.79,-184.22 75.4,-160.01 58.97,-144.17"/>
<polygon fill="midnightblue" stroke="midnightblue" points="61.41,-141.66 51.83,-137.14 56.5,-146.65 61.41,-141.66"/>
</g>
<!-- Node6 -->
<g id="node6" class="node">
<title>Node6</title>
<g id="a_node6"><a xlink:href="interrupt__controller_8hpp.html" target="_top" xlink:title="This file defines the interrupt controller used in BCM2835.">
<polygon fill="none" stroke="black" points="140,-179.5 140,-198.5 271,-198.5 271,-179.5 140,-179.5"/>
<text text-anchor="middle" x="205.5" y="-186.5" font-family="Helvetica,sans-Serif" font-size="10.00">interrupt_controller.hpp</text>
</a>
</g>
</g>
<!-- Node4&#45;&gt;Node6 -->
<g id="edge5" class="edge">
<title>Node4&#45;&gt;Node6</title>
<path fill="none" stroke="midnightblue" d="M265.09,-235.32C254.39,-227.18 238.16,-214.84 225.34,-205.09"/>
<polygon fill="midnightblue" stroke="midnightblue" points="227.19,-202.1 217.11,-198.83 222.96,-207.67 227.19,-202.1"/>
</g>
<!-- Node8 -->
<g id="node8" class="node">
<title>Node8</title>
<g id="a_node8"><a xlink:href="logger_8hpp.html" target="_top" xlink:title="This file defines a general logger interface as well as a logging system that is used in the project.">
<polygon fill="none" stroke="black" points="233.5,-56.5 233.5,-75.5 379.5,-75.5 379.5,-56.5 233.5,-56.5"/>
<text text-anchor="middle" x="306.5" y="-63.5" font-family="Helvetica,sans-Serif" font-size="10.00">zero_mate/utils/logger.hpp</text>
</a>
</g>
</g>
<!-- Node4&#45;&gt;Node8 -->
<g id="edge11" class="edge">
<title>Node4&#45;&gt;Node8</title>
<path fill="none" stroke="midnightblue" d="M277.95,-235.46C282.53,-208.43 296.8,-124.24 303.26,-86.11"/>
<polygon fill="midnightblue" stroke="midnightblue" points="306.78,-86.31 305,-75.87 299.87,-85.14 306.78,-86.31"/>
</g>
<!-- Node10 -->
<g id="node10" class="node">
<title>Node10</title>
<g id="a_node10"><a xlink:href="external__peripheral_8hpp.html" target="_top" xlink:title="This file defines an interface for external peripherals that can be attached to the system via GPIO p...">
<polygon fill="none" stroke="black" points="351.5,-112.5 351.5,-142.5 463.5,-142.5 463.5,-112.5 351.5,-112.5"/>
<text text-anchor="start" x="359.5" y="-130.5" font-family="Helvetica,sans-Serif" font-size="10.00">zero_mate/external</text>
<text text-anchor="middle" x="407.5" y="-119.5" font-family="Helvetica,sans-Serif" font-size="10.00">_peripheral.hpp</text>
</a>
</g>
</g>
<!-- Node4&#45;&gt;Node10 -->
<g id="edge12" class="edge">
<title>Node4&#45;&gt;Node10</title>
<path fill="none" stroke="midnightblue" d="M289.55,-235.24C302.21,-226.55 321.76,-212.59 337.5,-199 355.34,-183.59 374.09,-164.54 387.69,-150.13"/>
<polygon fill="midnightblue" stroke="midnightblue" points="390.4,-152.35 394.67,-142.65 385.29,-147.57 390.4,-152.35"/>
</g>
<!-- Node6&#45;&gt;Node5 -->
<g id="edge6" class="edge">
<title>Node6&#45;&gt;Node5</title>
<path fill="none" stroke="midnightblue" d="M182.29,-179.48C154.5,-169.27 107.78,-152.11 76.31,-140.55"/>
<polygon fill="midnightblue" stroke="midnightblue" points="77.26,-137.17 66.67,-137.01 74.85,-143.74 77.26,-137.17"/>
</g>
<!-- Node7 -->
<g id="node7" class="node">
<title>Node7</title>
<g id="a_node7"><a xlink:href="context_8hpp.html" target="_top" xlink:title="This file defines the context (registers) of the CPU.">
<polygon fill="none" stroke="black" points="105.5,-118 105.5,-137 257.5,-137 257.5,-118 105.5,-118"/>
<text text-anchor="middle" x="181.5" y="-125" font-family="Helvetica,sans-Serif" font-size="10.00">../arm1176jzf_s/context.hpp</text>
</a>
</g>
</g>
<!-- Node6&#45;&gt;Node7 -->
<g id="edge7" class="edge">
<title>Node6&#45;&gt;Node7</title>
<path fill="none" stroke="midnightblue" d="M202.06,-179.48C198.6,-170.9 193.17,-157.43 188.75,-146.48"/>
<polygon fill="midnightblue" stroke="midnightblue" points="191.92,-144.97 184.93,-137.01 185.43,-147.59 191.92,-144.97"/>
</g>
<!-- Node6&#45;&gt;Node8 -->
<g id="edge10" class="edge">
<title>Node6&#45;&gt;Node8</title>
<path fill="none" stroke="midnightblue" d="M220.81,-179.42C234.15,-171.36 253.38,-158.27 266.5,-143 281.49,-125.56 292.93,-101.55 299.67,-85.22"/>
<polygon fill="midnightblue" stroke="midnightblue" points="302.99,-86.32 303.4,-75.74 296.48,-83.76 302.99,-86.32"/>
</g>
<!-- Node7&#45;&gt;Node8 -->
<g id="edge8" class="edge">
<title>Node7&#45;&gt;Node8</title>
<path fill="none" stroke="midnightblue" d="M199.41,-117.98C220.39,-107.99 255.35,-91.35 279.59,-79.81"/>
<polygon fill="midnightblue" stroke="midnightblue" points="281.1,-82.97 288.62,-75.51 278.09,-76.65 281.1,-82.97"/>
</g>
<!-- Node9 -->
<g id="node9" class="node">
<title>Node9</title>
<g id="a_node9"><a xlink:href="api__export_8hpp.html" target="_top" xlink:title="This file defines macros for exporting symbols out of a shared library.">
<polygon fill="none" stroke="black" points="284.5,-0.5 284.5,-19.5 428.5,-19.5 428.5,-0.5 284.5,-0.5"/>
<text text-anchor="middle" x="356.5" y="-7.5" font-family="Helvetica,sans-Serif" font-size="10.00">zero_mate/api_export.hpp</text>
</a>
</g>
</g>
<!-- Node8&#45;&gt;Node9 -->
<g id="edge9" class="edge">
<title>Node8&#45;&gt;Node9</title>
<path fill="none" stroke="midnightblue" d="M314.76,-56.08C321.96,-48.3 332.61,-36.8 341.35,-27.37"/>
<polygon fill="midnightblue" stroke="midnightblue" points="344.17,-29.47 348.4,-19.75 339.03,-24.71 344.17,-29.47"/>
</g>
<!-- Node10&#45;&gt;Node8 -->
<g id="edge14" class="edge">
<title>Node10&#45;&gt;Node8</title>
<path fill="none" stroke="midnightblue" d="M383.56,-112.4C367.37,-102.86 346.09,-90.32 330,-80.84"/>
<polygon fill="midnightblue" stroke="midnightblue" points="331.59,-77.72 321.2,-75.66 328.04,-83.75 331.59,-77.72"/>
</g>
<!-- Node10&#45;&gt;Node9 -->
<g id="edge13" class="edge">
<title>Node10&#45;&gt;Node9</title>
<path fill="none" stroke="midnightblue" d="M405.24,-112.48C402.54,-97.87 397.26,-74.57 388.5,-56 383.76,-45.94 376.74,-35.75 370.48,-27.62"/>
<polygon fill="midnightblue" stroke="midnightblue" points="373.12,-25.32 364.14,-19.71 367.66,-29.7 373.12,-25.32"/>
</g>
</g>
</svg>
