<?xml version="1.0" encoding="UTF-8" standalone="no"?>
<!DOCTYPE svg PUBLIC "-//W3C//DTD SVG 1.1//EN"
 "http://www.w3.org/Graphics/SVG/1.1/DTD/svg11.dtd">
<!-- Generated by graphviz version 2.43.0 (0)
 -->
<!-- Title: src/gui/windows/peripherals/gpio_window.hpp Pages: 1 -->
<svg width="507pt" height="285pt"
 viewBox="0.00 0.00 507.21 285.00" xmlns="http://www.w3.org/2000/svg" xmlns:xlink="http://www.w3.org/1999/xlink">
<g id="graph0" class="graph" transform="scale(1 1) rotate(0) translate(4 281)">
<title>src/gui/windows/peripherals/gpio_window.hpp</title>
<!-- Node1 -->
<g id="node1" class="node">
<title>Node1</title>
<g id="a_node1"><a xlink:title=" ">
<polygon fill="#bfbfbf" stroke="black" points="9.21,-246.5 9.21,-276.5 161.21,-276.5 161.21,-246.5 9.21,-246.5"/>
<text text-anchor="start" x="17.21" y="-264.5" font-family="Helvetica,sans-Serif" font-size="10.00">src/gui/windows/peripherals</text>
<text text-anchor="middle" x="85.21" y="-253.5" font-family="Helvetica,sans-Serif" font-size="10.00">/gpio_window.hpp</text>
</a>
</g>
</g>
<!-- Node2 -->
<g id="node2" class="node">
<title>Node2</title>
<g id="a_node2"><a xlink:title=" ">
<polygon fill="none" stroke="#bfbfbf" points="16.21,-118 16.21,-137 74.21,-137 74.21,-118 16.21,-118"/>
<text text-anchor="middle" x="45.21" y="-125" font-family="Helvetica,sans-Serif" font-size="10.00">memory</text>
</a>
</g>
</g>
<!-- Node1&#45;&gt;Node2 -->
<g id="edge1" class="edge">
<title>Node1&#45;&gt;Node2</title>
<path fill="none" stroke="midnightblue" d="M46.55,-246.37C30.44,-238.34 13.38,-226.52 4.21,-210 -8.21,-187.63 11.38,-161.03 27.52,-144.46"/>
<polygon fill="midnightblue" stroke="midnightblue" points="30.27,-146.66 35.01,-137.19 25.39,-141.64 30.27,-146.66"/>
</g>
<!-- Node3 -->
<g id="node3" class="node">
<title>Node3</title>
<g id="a_node3"><a xlink:title=" ">
<polygon fill="none" stroke="#bfbfbf" points="13.71,-185 13.71,-204 66.71,-204 66.71,-185 13.71,-185"/>
<text text-anchor="middle" x="40.21" y="-192" font-family="Helvetica,sans-Serif" font-size="10.00">imgui.h</text>
</a>
</g>
</g>
<!-- Node1&#45;&gt;Node3 -->
<g id="edge2" class="edge">
<title>Node1&#45;&gt;Node3</title>
<path fill="none" stroke="midnightblue" d="M75.44,-246.4C68.57,-236.46 59.32,-223.11 52.03,-212.57"/>
<polygon fill="midnightblue" stroke="midnightblue" points="54.8,-210.42 46.23,-204.19 49.04,-214.41 54.8,-210.42"/>
</g>
<!-- Node4 -->
<g id="node4" class="node">
<title>Node4</title>
<g id="a_node4"><a xlink:href="window_8hpp.html" target="_top" xlink:title=" ">
<polygon fill="none" stroke="black" points="85.21,-185 85.21,-204 177.21,-204 177.21,-185 85.21,-185"/>
<text text-anchor="middle" x="131.21" y="-192" font-family="Helvetica,sans-Serif" font-size="10.00">../../window.hpp</text>
</a>
</g>
</g>
<!-- Node1&#45;&gt;Node4 -->
<g id="edge3" class="edge">
<title>Node1&#45;&gt;Node4</title>
<path fill="none" stroke="midnightblue" d="M95.19,-246.4C102.22,-236.46 111.67,-223.11 119.13,-212.57"/>
<polygon fill="midnightblue" stroke="midnightblue" points="122.14,-214.38 125.06,-204.19 116.42,-210.34 122.14,-214.38"/>
</g>
<!-- Node5 -->
<g id="node5" class="node">
<title>Node5</title>
<g id="a_node5"><a xlink:href="gpio_8hpp.html" target="_top" xlink:title="This file defines the GPIO controller used in BCM2835.">
<polygon fill="none" stroke="black" points="195.21,-179.5 195.21,-209.5 317.21,-209.5 317.21,-179.5 195.21,-179.5"/>
<text text-anchor="start" x="203.21" y="-197.5" font-family="Helvetica,sans-Serif" font-size="10.00">../../../core/peripherals</text>
<text text-anchor="middle" x="256.21" y="-186.5" font-family="Helvetica,sans-Serif" font-size="10.00">/gpio.hpp</text>
</a>
</g>
</g>
<!-- Node1&#45;&gt;Node5 -->
<g id="edge5" class="edge">
<title>Node1&#45;&gt;Node5</title>
<path fill="none" stroke="midnightblue" d="M122.31,-246.4C147.97,-236.64 182.3,-223.59 209.77,-213.15"/>
<polygon fill="midnightblue" stroke="midnightblue" points="211.07,-216.4 219.18,-209.58 208.59,-209.86 211.07,-216.4"/>
</g>
<!-- Node4&#45;&gt;Node2 -->
<g id="edge4" class="edge">
<title>Node4&#45;&gt;Node2</title>
<path fill="none" stroke="midnightblue" d="M119.61,-184.73C105.55,-174.11 81.66,-156.05 64.74,-143.26"/>
<polygon fill="midnightblue" stroke="midnightblue" points="66.71,-140.36 56.62,-137.13 62.49,-145.95 66.71,-140.36"/>
</g>
<!-- Node6 -->
<g id="node6" class="node">
<title>Node6</title>
<g id="a_node6"><a xlink:href="peripheral_8hpp.html" target="_top" xlink:title="This file defines an interface for a memory&#45;mapped peripheral.">
<polygon fill="none" stroke="black" points="35.71,-56.5 35.71,-75.5 122.71,-75.5 122.71,-56.5 35.71,-56.5"/>
<text text-anchor="middle" x="79.21" y="-63.5" font-family="Helvetica,sans-Serif" font-size="10.00">peripheral.hpp</text>
</a>
</g>
</g>
<!-- Node5&#45;&gt;Node6 -->
<g id="edge6" class="edge">
<title>Node5&#45;&gt;Node6</title>
<path fill="none" stroke="midnightblue" d="M227.73,-179.46C209.56,-170.03 185.82,-156.85 166.21,-143 139.74,-124.31 112.03,-98.94 95.18,-82.77"/>
<polygon fill="midnightblue" stroke="midnightblue" points="97.45,-80.09 87.84,-75.64 92.58,-85.11 97.45,-80.09"/>
</g>
<!-- Node7 -->
<g id="node7" class="node">
<title>Node7</title>
<g id="a_node7"><a xlink:href="interrupt__controller_8hpp.html" target="_top" xlink:title="This file defines the interrupt controller used in BCM2835.">
<polygon fill="none" stroke="black" points="175.71,-118 175.71,-137 306.71,-137 306.71,-118 175.71,-118"/>
<text text-anchor="middle" x="241.21" y="-125" font-family="Helvetica,sans-Serif" font-size="10.00">interrupt_controller.hpp</text>
</a>
</g>
</g>
<!-- Node5&#45;&gt;Node7 -->
<g id="edge7" class="edge">
<title>Node5&#45;&gt;Node7</title>
<path fill="none" stroke="midnightblue" d="M252.95,-179.4C250.78,-169.96 247.89,-157.45 245.52,-147.19"/>
<polygon fill="midnightblue" stroke="midnightblue" points="248.87,-146.15 243.21,-137.19 242.05,-147.73 248.87,-146.15"/>
</g>
<!-- Node9 -->
<g id="node9" class="node">
<title>Node9</title>
<g id="a_node9"><a xlink:title=" ">
<polygon fill="none" stroke="#bfbfbf" points="248.21,-0.5 248.21,-19.5 394.21,-19.5 394.21,-0.5 248.21,-0.5"/>
<text text-anchor="middle" x="321.21" y="-7.5" font-family="Helvetica,sans-Serif" font-size="10.00">zero_mate/utils/logger.hpp</text>
</a>
</g>
</g>
<!-- Node5&#45;&gt;Node9 -->
<g id="edge12" class="edge">
<title>Node5&#45;&gt;Node9</title>
<path fill="none" stroke="midnightblue" d="M280.38,-179.34C293.01,-170.57 307.42,-158.1 315.21,-143 334.07,-106.43 329.44,-56.3 324.99,-29.57"/>
<polygon fill="midnightblue" stroke="midnightblue" points="328.41,-28.85 323.16,-19.65 321.53,-30.12 328.41,-28.85"/>
</g>
<!-- Node10 -->
<g id="node10" class="node">
<title>Node10</title>
<g id="a_node10"><a xlink:title=" ">
<polygon fill="none" stroke="#bfbfbf" points="387.21,-112.5 387.21,-142.5 499.21,-142.5 499.21,-112.5 387.21,-112.5"/>
<text text-anchor="start" x="395.21" y="-130.5" font-family="Helvetica,sans-Serif" font-size="10.00">zero_mate/external</text>
<text text-anchor="middle" x="443.21" y="-119.5" font-family="Helvetica,sans-Serif" font-size="10.00">_peripheral.hpp</text>
</a>
</g>
</g>
<!-- Node5&#45;&gt;Node10 -->
<g id="edge13" class="edge">
<title>Node5&#45;&gt;Node10</title>
<path fill="none" stroke="midnightblue" d="M296.78,-179.4C325.09,-169.56 363.04,-156.37 393.21,-145.88"/>
<polygon fill="midnightblue" stroke="midnightblue" points="394.42,-149.17 402.71,-142.58 392.12,-142.55 394.42,-149.17"/>
</g>
<!-- Node7&#45;&gt;Node6 -->
<g id="edge8" class="edge">
<title>Node7&#45;&gt;Node6</title>
<path fill="none" stroke="midnightblue" d="M218,-117.98C190.21,-107.77 143.49,-90.61 112.01,-79.05"/>
<polygon fill="midnightblue" stroke="midnightblue" points="112.97,-75.67 102.38,-75.51 110.56,-82.24 112.97,-75.67"/>
</g>
<!-- Node8 -->
<g id="node8" class="node">
<title>Node8</title>
<g id="a_node8"><a xlink:href="context_8hpp.html" target="_top" xlink:title="This file defines the context (registers) of the CPU.">
<polygon fill="none" stroke="black" points="141.21,-56.5 141.21,-75.5 293.21,-75.5 293.21,-56.5 141.21,-56.5"/>
<text text-anchor="middle" x="217.21" y="-63.5" font-family="Helvetica,sans-Serif" font-size="10.00">../arm1176jzf_s/context.hpp</text>
</a>
</g>
</g>
<!-- Node7&#45;&gt;Node8 -->
<g id="edge9" class="edge">
<title>Node7&#45;&gt;Node8</title>
<path fill="none" stroke="midnightblue" d="M237.77,-117.98C234.31,-109.4 228.88,-95.93 224.46,-84.98"/>
<polygon fill="midnightblue" stroke="midnightblue" points="227.63,-83.47 220.64,-75.51 221.14,-86.09 227.63,-83.47"/>
</g>
<!-- Node7&#45;&gt;Node9 -->
<g id="edge11" class="edge">
<title>Node7&#45;&gt;Node9</title>
<path fill="none" stroke="midnightblue" d="M255.93,-117.94C269.83,-109.13 290.27,-94.15 302.21,-76 311.4,-62.03 316.24,-43.53 318.73,-29.84"/>
<polygon fill="midnightblue" stroke="midnightblue" points="322.23,-30.09 320.31,-19.67 315.31,-29.02 322.23,-30.09"/>
</g>
<!-- Node8&#45;&gt;Node9 -->
<g id="edge10" class="edge">
<title>Node8&#45;&gt;Node9</title>
<path fill="none" stroke="midnightblue" d="M233.92,-56.32C250.52,-47.7 276.21,-34.36 295.43,-24.39"/>
<polygon fill="midnightblue" stroke="midnightblue" points="297.28,-27.37 304.54,-19.65 294.05,-21.16 297.28,-27.37"/>
</g>
</g>
</svg>
