<?xml version="1.0" encoding="UTF-8" standalone="no"?>
<!DOCTYPE svg PUBLIC "-//W3C//DTD SVG 1.1//EN"
 "http://www.w3.org/Graphics/SVG/1.1/DTD/svg11.dtd">
<!-- Generated by graphviz version 2.43.0 (0)
 -->
<!-- Title: src/core/peripherals/gpio.cpp Pages: 1 -->
<svg width="801pt" height="319pt"
 viewBox="0.00 0.00 801.00 319.00" xmlns="http://www.w3.org/2000/svg" xmlns:xlink="http://www.w3.org/1999/xlink">
<g id="graph0" class="graph" transform="scale(1 1) rotate(0) translate(4 315)">
<title>src/core/peripherals/gpio.cpp</title>
<!-- Node1 -->
<g id="node1" class="node">
<title>Node1</title>
<g id="a_node1"><a xlink:title=" ">
<polygon fill="#bfbfbf" stroke="black" points="457.5,-280.5 457.5,-310.5 570.5,-310.5 570.5,-280.5 457.5,-280.5"/>
<text text-anchor="start" x="465.5" y="-298.5" font-family="Helvetica,sans-Serif" font-size="10.00">src/core/peripherals</text>
<text text-anchor="middle" x="514" y="-287.5" font-family="Helvetica,sans-Serif" font-size="10.00">/gpio.cpp</text>
</a>
</g>
</g>
<!-- Node2 -->
<g id="node2" class="node">
<title>Node2</title>
<g id="a_node2"><a xlink:title=" ">
<polygon fill="none" stroke="#bfbfbf" points="268.5,-224.5 268.5,-243.5 347.5,-243.5 347.5,-224.5 268.5,-224.5"/>
<text text-anchor="middle" x="308" y="-231.5" font-family="Helvetica,sans-Serif" font-size="10.00">fmt/format.h</text>
</a>
</g>
</g>
<!-- Node1&#45;&gt;Node2 -->
<g id="edge1" class="edge">
<title>Node1&#45;&gt;Node2</title>
<path fill="none" stroke="midnightblue" d="M465.44,-280.47C429.44,-270.08 380.98,-256.08 347.37,-246.37"/>
<polygon fill="midnightblue" stroke="midnightblue" points="348.03,-242.92 337.45,-243.51 346.09,-249.64 348.03,-242.92"/>
</g>
<!-- Node3 -->
<g id="node3" class="node">
<title>Node3</title>
<g id="a_node3"><a xlink:title=" ">
<polygon fill="none" stroke="#bfbfbf" points="365.5,-224.5 365.5,-243.5 466.5,-243.5 466.5,-224.5 365.5,-224.5"/>
<text text-anchor="middle" x="416" y="-231.5" font-family="Helvetica,sans-Serif" font-size="10.00">magic_enum.hpp</text>
</a>
</g>
</g>
<!-- Node1&#45;&gt;Node3 -->
<g id="edge2" class="edge">
<title>Node1&#45;&gt;Node3</title>
<path fill="none" stroke="midnightblue" d="M490.78,-280.4C475.21,-270.95 454.8,-258.56 439.24,-249.11"/>
<polygon fill="midnightblue" stroke="midnightblue" points="440.62,-245.86 430.26,-243.66 436.99,-251.84 440.62,-245.86"/>
</g>
<!-- Node4 -->
<g id="node4" class="node">
<title>Node4</title>
<g id="a_node4"><a xlink:href="gpio_8hpp.html" target="_top" xlink:title=" ">
<polygon fill="none" stroke="black" points="484.5,-224.5 484.5,-243.5 543.5,-243.5 543.5,-224.5 484.5,-224.5"/>
<text text-anchor="middle" x="514" y="-231.5" font-family="Helvetica,sans-Serif" font-size="10.00">gpio.hpp</text>
</a>
</g>
</g>
<!-- Node1&#45;&gt;Node4 -->
<g id="edge3" class="edge">
<title>Node1&#45;&gt;Node4</title>
<path fill="none" stroke="midnightblue" d="M514,-280.4C514,-272.47 514,-262.46 514,-253.86"/>
<polygon fill="midnightblue" stroke="midnightblue" points="517.5,-253.66 514,-243.66 510.5,-253.66 517.5,-253.66"/>
</g>
<!-- Node20 -->
<g id="node20" class="node">
<title>Node20</title>
<g id="a_node20"><a xlink:href="math_8hpp.html" target="_top" xlink:title="This file defines and implements a variety of handy helper functions that are used throughout the pro...">
<polygon fill="none" stroke="black" points="562,-224.5 562,-243.5 658,-243.5 658,-224.5 562,-224.5"/>
<text text-anchor="middle" x="610" y="-231.5" font-family="Helvetica,sans-Serif" font-size="10.00">../utils/math.hpp</text>
</a>
</g>
</g>
<!-- Node1&#45;&gt;Node20 -->
<g id="edge25" class="edge">
<title>Node1&#45;&gt;Node20</title>
<path fill="none" stroke="midnightblue" d="M536.75,-280.4C551.99,-270.95 571.99,-258.56 587.24,-249.11"/>
<polygon fill="midnightblue" stroke="midnightblue" points="589.38,-251.9 596.03,-243.66 585.69,-245.95 589.38,-251.9"/>
</g>
<!-- Node21 -->
<g id="node21" class="node">
<title>Node21</title>
<g id="a_node21"><a xlink:href="singleton_8hpp.html" target="_top" xlink:title="This file defines and implements a generic class that is used to treat other classes as singletons.">
<polygon fill="none" stroke="black" points="676,-224.5 676,-243.5 792,-243.5 792,-224.5 676,-224.5"/>
<text text-anchor="middle" x="734" y="-231.5" font-family="Helvetica,sans-Serif" font-size="10.00">../utils/singleton.hpp</text>
</a>
</g>
</g>
<!-- Node1&#45;&gt;Node21 -->
<g id="edge26" class="edge">
<title>Node1&#45;&gt;Node21</title>
<path fill="none" stroke="midnightblue" d="M565.86,-280.47C604.64,-269.99 656.96,-255.84 692.88,-246.12"/>
<polygon fill="midnightblue" stroke="midnightblue" points="693.81,-249.5 702.55,-243.51 691.98,-242.74 693.81,-249.5"/>
</g>
<!-- Node5 -->
<g id="node5" class="node">
<title>Node5</title>
<g id="a_node5"><a xlink:title=" ">
<polygon fill="none" stroke="#bfbfbf" points="0,-112.5 0,-131.5 42,-131.5 42,-112.5 0,-112.5"/>
<text text-anchor="middle" x="21" y="-119.5" font-family="Helvetica,sans-Serif" font-size="10.00">array</text>
</a>
</g>
</g>
<!-- Node4&#45;&gt;Node5 -->
<g id="edge4" class="edge">
<title>Node4&#45;&gt;Node5</title>
<path fill="none" stroke="midnightblue" d="M484.19,-225.63C481.43,-225.04 478.67,-224.49 476,-224 352.56,-201.51 317.82,-218.04 196,-188 142.59,-174.83 83.07,-150.55 49.02,-135.68"/>
<polygon fill="midnightblue" stroke="midnightblue" points="50.28,-132.41 39.71,-131.57 47.45,-138.81 50.28,-132.41"/>
</g>
<!-- Node6 -->
<g id="node6" class="node">
<title>Node6</title>
<g id="a_node6"><a xlink:title=" ">
<polygon fill="none" stroke="#bfbfbf" points="504,-0.5 504,-19.5 562,-19.5 562,-0.5 504,-0.5"/>
<text text-anchor="middle" x="533" y="-7.5" font-family="Helvetica,sans-Serif" font-size="10.00">memory</text>
</a>
</g>
</g>
<!-- Node4&#45;&gt;Node6 -->
<g id="edge5" class="edge">
<title>Node4&#45;&gt;Node6</title>
<path fill="none" stroke="midnightblue" d="M514.74,-224.3C517.54,-191.63 527.45,-75.87 531.38,-29.96"/>
<polygon fill="midnightblue" stroke="midnightblue" points="534.87,-30.15 532.24,-19.88 527.9,-29.55 534.87,-30.15"/>
</g>
<!-- Node7 -->
<g id="node7" class="node">
<title>Node7</title>
<g id="a_node7"><a xlink:title=" ">
<polygon fill="none" stroke="#bfbfbf" points="561,-168.5 561,-187.5 605,-187.5 605,-168.5 561,-168.5"/>
<text text-anchor="middle" x="583" y="-175.5" font-family="Helvetica,sans-Serif" font-size="10.00">limits</text>
</a>
</g>
</g>
<!-- Node4&#45;&gt;Node7 -->
<g id="edge6" class="edge">
<title>Node4&#45;&gt;Node7</title>
<path fill="none" stroke="midnightblue" d="M525.09,-224.32C535.49,-216.18 551.26,-203.84 563.72,-194.09"/>
<polygon fill="midnightblue" stroke="midnightblue" points="565.99,-196.75 571.71,-187.83 561.68,-191.24 565.99,-196.75"/>
</g>
<!-- Node8 -->
<g id="node8" class="node">
<title>Node8</title>
<g id="a_node8"><a xlink:title=" ">
<polygon fill="none" stroke="#bfbfbf" points="623.5,-168.5 623.5,-187.5 688.5,-187.5 688.5,-168.5 623.5,-168.5"/>
<text text-anchor="middle" x="656" y="-175.5" font-family="Helvetica,sans-Serif" font-size="10.00">functional</text>
</a>
</g>
</g>
<!-- Node4&#45;&gt;Node8 -->
<g id="edge7" class="edge">
<title>Node4&#45;&gt;Node8</title>
<path fill="none" stroke="midnightblue" d="M536.5,-224.44C560.08,-215.48 597.32,-201.31 623.96,-191.18"/>
<polygon fill="midnightblue" stroke="midnightblue" points="625.5,-194.34 633.6,-187.52 623.01,-187.8 625.5,-194.34"/>
</g>
<!-- Node9 -->
<g id="node9" class="node">
<title>Node9</title>
<g id="a_node9"><a xlink:title=" ">
<polygon fill="none" stroke="#bfbfbf" points="707,-168.5 707,-187.5 793,-187.5 793,-168.5 707,-168.5"/>
<text text-anchor="middle" x="750" y="-175.5" font-family="Helvetica,sans-Serif" font-size="10.00">unordered_set</text>
</a>
</g>
</g>
<!-- Node4&#45;&gt;Node9 -->
<g id="edge8" class="edge">
<title>Node4&#45;&gt;Node9</title>
<path fill="none" stroke="midnightblue" d="M543.81,-226.11C546.91,-225.4 550.02,-224.68 553,-224 604.11,-212.26 662.71,-198.89 702.61,-189.79"/>
<polygon fill="midnightblue" stroke="midnightblue" points="703.62,-193.15 712.59,-187.52 702.07,-186.33 703.62,-193.15"/>
</g>
<!-- Node10 -->
<g id="node10" class="node">
<title>Node10</title>
<g id="a_node10"><a xlink:href="peripheral_8hpp.html" target="_top" xlink:title=" ">
<polygon fill="none" stroke="black" points="60.5,-112.5 60.5,-131.5 147.5,-131.5 147.5,-112.5 60.5,-112.5"/>
<text text-anchor="middle" x="104" y="-119.5" font-family="Helvetica,sans-Serif" font-size="10.00">peripheral.hpp</text>
</a>
</g>
</g>
<!-- Node4&#45;&gt;Node10 -->
<g id="edge9" class="edge">
<title>Node4&#45;&gt;Node10</title>
<path fill="none" stroke="midnightblue" d="M484.17,-225.72C481.42,-225.11 478.66,-224.53 476,-224 377.97,-204.47 349.93,-216.09 254,-188 208.48,-174.67 158.47,-151.05 129.23,-136.25"/>
<polygon fill="midnightblue" stroke="midnightblue" points="130.64,-133.04 120.15,-131.59 127.45,-139.27 130.64,-133.04"/>
</g>
<!-- Node12 -->
<g id="node12" class="node">
<title>Node12</title>
<g id="a_node12"><a xlink:href="interrupt__controller_8hpp.html" target="_top" xlink:title=" ">
<polygon fill="none" stroke="black" points="262.5,-168.5 262.5,-187.5 393.5,-187.5 393.5,-168.5 262.5,-168.5"/>
<text text-anchor="middle" x="328" y="-175.5" font-family="Helvetica,sans-Serif" font-size="10.00">interrupt_controller.hpp</text>
</a>
</g>
</g>
<!-- Node4&#45;&gt;Node12 -->
<g id="edge11" class="edge">
<title>Node4&#45;&gt;Node12</title>
<path fill="none" stroke="midnightblue" d="M484.53,-224.44C452.83,-215.24 402.27,-200.56 367.23,-190.39"/>
<polygon fill="midnightblue" stroke="midnightblue" points="367.91,-186.94 357.33,-187.52 365.96,-193.67 367.91,-186.94"/>
</g>
<!-- Node15 -->
<g id="node15" class="node">
<title>Node15</title>
<g id="a_node15"><a xlink:href="logger_8hpp.html" target="_top" xlink:title=" ">
<polygon fill="none" stroke="black" points="329,-56.5 329,-75.5 463,-75.5 463,-56.5 329,-56.5"/>
<text text-anchor="middle" x="396" y="-63.5" font-family="Helvetica,sans-Serif" font-size="10.00">../utils/logger/logger.hpp</text>
</a>
</g>
</g>
<!-- Node4&#45;&gt;Node15 -->
<g id="edge24" class="edge">
<title>Node4&#45;&gt;Node15</title>
<path fill="none" stroke="midnightblue" d="M511.12,-224.35C503.86,-203.4 483.2,-148.99 453,-112 443.31,-100.13 429.98,-89.39 418.64,-81.38"/>
<polygon fill="midnightblue" stroke="midnightblue" points="420.33,-78.3 410.09,-75.58 416.4,-84.09 420.33,-78.3"/>
</g>
<!-- Node11 -->
<g id="node11" class="node">
<title>Node11</title>
<g id="a_node11"><a xlink:title=" ">
<polygon fill="none" stroke="#bfbfbf" points="96,-0.5 96,-19.5 146,-19.5 146,-0.5 96,-0.5"/>
<text text-anchor="middle" x="121" y="-7.5" font-family="Helvetica,sans-Serif" font-size="10.00">cstdint</text>
</a>
</g>
</g>
<!-- Node10&#45;&gt;Node11 -->
<g id="edge10" class="edge">
<title>Node10&#45;&gt;Node11</title>
<path fill="none" stroke="midnightblue" d="M105.33,-112.37C108.08,-94.62 114.41,-53.67 118.13,-29.6"/>
<polygon fill="midnightblue" stroke="midnightblue" points="121.6,-30.01 119.67,-19.59 114.69,-28.94 121.6,-30.01"/>
</g>
<!-- Node12&#45;&gt;Node5 -->
<g id="edge12" class="edge">
<title>Node12&#45;&gt;Node5</title>
<path fill="none" stroke="midnightblue" d="M262.33,-168.79C208.22,-161.47 129.37,-149.51 52.11,-132.01"/>
<polygon fill="midnightblue" stroke="midnightblue" points="52.74,-128.57 42.21,-129.74 51.18,-135.39 52.74,-128.57"/>
</g>
<!-- Node12&#45;&gt;Node10 -->
<g id="edge14" class="edge">
<title>Node12&#45;&gt;Node10</title>
<path fill="none" stroke="midnightblue" d="M292.51,-168.44C253.68,-159.08 191.34,-144.06 149.08,-133.87"/>
<polygon fill="midnightblue" stroke="midnightblue" points="149.87,-130.46 139.33,-131.52 148.23,-137.26 149.87,-130.46"/>
</g>
<!-- Node13 -->
<g id="node13" class="node">
<title>Node13</title>
<g id="a_node13"><a xlink:title=" ">
<polygon fill="none" stroke="#bfbfbf" points="165.5,-112.5 165.5,-131.5 258.5,-131.5 258.5,-112.5 165.5,-112.5"/>
<text text-anchor="middle" x="212" y="-119.5" font-family="Helvetica,sans-Serif" font-size="10.00">unordered_map</text>
</a>
</g>
</g>
<!-- Node12&#45;&gt;Node13 -->
<g id="edge13" class="edge">
<title>Node12&#45;&gt;Node13</title>
<path fill="none" stroke="midnightblue" d="M309.62,-168.44C290.78,-159.68 261.27,-145.94 239.62,-135.86"/>
<polygon fill="midnightblue" stroke="midnightblue" points="240.84,-132.56 230.29,-131.52 237.88,-138.91 240.84,-132.56"/>
</g>
<!-- Node14 -->
<g id="node14" class="node">
<title>Node14</title>
<g id="a_node14"><a xlink:href="context_8hpp.html" target="_top" xlink:title="This file defines the context (registers) of the CPU.">
<polygon fill="none" stroke="black" points="277,-112.5 277,-131.5 429,-131.5 429,-112.5 277,-112.5"/>
<text text-anchor="middle" x="353" y="-119.5" font-family="Helvetica,sans-Serif" font-size="10.00">../arm1176jzf_s/context.hpp</text>
</a>
</g>
</g>
<!-- Node12&#45;&gt;Node14 -->
<g id="edge15" class="edge">
<title>Node12&#45;&gt;Node14</title>
<path fill="none" stroke="midnightblue" d="M332.13,-168.08C335.51,-160.77 340.42,-150.18 344.62,-141.1"/>
<polygon fill="midnightblue" stroke="midnightblue" points="347.92,-142.3 348.95,-131.75 341.57,-139.36 347.92,-142.3"/>
</g>
<!-- Node12&#45;&gt;Node15 -->
<g id="edge23" class="edge">
<title>Node12&#45;&gt;Node15</title>
<path fill="none" stroke="midnightblue" d="M381.32,-168.43C402.66,-162.1 425.18,-151.1 438,-132 449.42,-115 432.35,-95.2 416.67,-81.96"/>
<polygon fill="midnightblue" stroke="midnightblue" points="418.76,-79.15 408.75,-75.68 414.41,-84.64 418.76,-79.15"/>
</g>
<!-- Node14&#45;&gt;Node15 -->
<g id="edge16" class="edge">
<title>Node14&#45;&gt;Node15</title>
<path fill="none" stroke="midnightblue" d="M360.1,-112.08C366.24,-104.38 375.27,-93.03 382.74,-83.65"/>
<polygon fill="midnightblue" stroke="midnightblue" points="385.54,-85.75 389.03,-75.75 380.06,-81.39 385.54,-85.75"/>
</g>
<!-- Node15&#45;&gt;Node6 -->
<g id="edge19" class="edge">
<title>Node15&#45;&gt;Node6</title>
<path fill="none" stroke="midnightblue" d="M417.71,-56.44C440.35,-47.52 476.07,-33.44 501.75,-23.32"/>
<polygon fill="midnightblue" stroke="midnightblue" points="503.37,-26.44 511.39,-19.52 500.81,-19.93 503.37,-26.44"/>
</g>
<!-- Node15&#45;&gt;Node11 -->
<g id="edge20" class="edge">
<title>Node15&#45;&gt;Node11</title>
<path fill="none" stroke="midnightblue" d="M348.43,-56.48C300.69,-47.81 225.1,-33.71 160,-20 158.74,-19.73 157.45,-19.46 156.16,-19.18"/>
<polygon fill="midnightblue" stroke="midnightblue" points="156.67,-15.71 146.14,-16.95 155.15,-22.54 156.67,-15.71"/>
</g>
<!-- Node16 -->
<g id="node16" class="node">
<title>Node16</title>
<g id="a_node16"><a xlink:title=" ">
<polygon fill="none" stroke="#bfbfbf" points="372,-0.5 372,-19.5 420,-19.5 420,-0.5 372,-0.5"/>
<text text-anchor="middle" x="396" y="-7.5" font-family="Helvetica,sans-Serif" font-size="10.00">mutex</text>
</a>
</g>
</g>
<!-- Node15&#45;&gt;Node16 -->
<g id="edge17" class="edge">
<title>Node15&#45;&gt;Node16</title>
<path fill="none" stroke="midnightblue" d="M396,-56.08C396,-49.01 396,-38.86 396,-29.99"/>
<polygon fill="midnightblue" stroke="midnightblue" points="399.5,-29.75 396,-19.75 392.5,-29.75 399.5,-29.75"/>
</g>
<!-- Node17 -->
<g id="node17" class="node">
<title>Node17</title>
<g id="a_node17"><a xlink:title=" ">
<polygon fill="none" stroke="#bfbfbf" points="438.5,-0.5 438.5,-19.5 485.5,-19.5 485.5,-0.5 438.5,-0.5"/>
<text text-anchor="middle" x="462" y="-7.5" font-family="Helvetica,sans-Serif" font-size="10.00">vector</text>
</a>
</g>
</g>
<!-- Node15&#45;&gt;Node17 -->
<g id="edge18" class="edge">
<title>Node15&#45;&gt;Node17</title>
<path fill="none" stroke="midnightblue" d="M406.6,-56.32C416.46,-48.26 431.35,-36.08 443.22,-26.37"/>
<polygon fill="midnightblue" stroke="midnightblue" points="445.68,-28.88 451.2,-19.83 441.25,-23.46 445.68,-28.88"/>
</g>
<!-- Node18 -->
<g id="node18" class="node">
<title>Node18</title>
<g id="a_node18"><a xlink:title=" ">
<polygon fill="none" stroke="#bfbfbf" points="169.5,-0.5 169.5,-19.5 242.5,-19.5 242.5,-0.5 169.5,-0.5"/>
<text text-anchor="middle" x="206" y="-7.5" font-family="Helvetica,sans-Serif" font-size="10.00">string_view</text>
</a>
</g>
</g>
<!-- Node15&#45;&gt;Node18 -->
<g id="edge21" class="edge">
<title>Node15&#45;&gt;Node18</title>
<path fill="none" stroke="midnightblue" d="M365.89,-56.44C333.37,-47.2 281.42,-32.44 245.61,-22.26"/>
<polygon fill="midnightblue" stroke="midnightblue" points="246.54,-18.88 235.97,-19.52 244.63,-25.62 246.54,-18.88"/>
</g>
<!-- Node19 -->
<g id="node19" class="node">
<title>Node19</title>
<g id="a_node19"><a xlink:title=" ">
<polygon fill="none" stroke="#bfbfbf" points="260.5,-0.5 260.5,-19.5 353.5,-19.5 353.5,-0.5 260.5,-0.5"/>
<text text-anchor="middle" x="307" y="-7.5" font-family="Helvetica,sans-Serif" font-size="10.00">source_location</text>
</a>
</g>
</g>
<!-- Node15&#45;&gt;Node19 -->
<g id="edge22" class="edge">
<title>Node15&#45;&gt;Node19</title>
<path fill="none" stroke="midnightblue" d="M381.7,-56.32C367.82,-47.9 346.51,-34.97 330.2,-25.07"/>
<polygon fill="midnightblue" stroke="midnightblue" points="331.63,-21.85 321.26,-19.65 328,-27.83 331.63,-21.85"/>
</g>
</g>
</svg>
