<?xml version="1.0" encoding="UTF-8" standalone="no"?>
<!DOCTYPE svg PUBLIC "-//W3C//DTD SVG 1.1//EN"
 "http://www.w3.org/Graphics/SVG/1.1/DTD/svg11.dtd">
<!-- Generated by graphviz version 2.43.0 (0)
 -->
<!-- Title: src/core/peripherals/gpio.cpp Pages: 1 -->
<svg width="721pt" height="319pt"
 viewBox="0.00 0.00 721.00 319.00" xmlns="http://www.w3.org/2000/svg" xmlns:xlink="http://www.w3.org/1999/xlink">
<g id="graph0" class="graph" transform="scale(1 1) rotate(0) translate(4 315)">
<title>src/core/peripherals/gpio.cpp</title>
<!-- Node1 -->
<g id="node1" class="node">
<title>Node1</title>
<g id="a_node1"><a xlink:title=" ">
<polygon fill="#bfbfbf" stroke="black" points="189,-280.5 189,-310.5 302,-310.5 302,-280.5 189,-280.5"/>
<text text-anchor="start" x="197" y="-298.5" font-family="Helvetica,sans-Serif" font-size="10.00">src/core/peripherals</text>
<text text-anchor="middle" x="245.5" y="-287.5" font-family="Helvetica,sans-Serif" font-size="10.00">/gpio.cpp</text>
</a>
</g>
</g>
<!-- Node2 -->
<g id="node2" class="node">
<title>Node2</title>
<g id="a_node2"><a xlink:title=" ">
<polygon fill="none" stroke="#bfbfbf" points="0,-224.5 0,-243.5 79,-243.5 79,-224.5 0,-224.5"/>
<text text-anchor="middle" x="39.5" y="-231.5" font-family="Helvetica,sans-Serif" font-size="10.00">fmt/format.h</text>
</a>
</g>
</g>
<!-- Node1&#45;&gt;Node2 -->
<g id="edge1" class="edge">
<title>Node1&#45;&gt;Node2</title>
<path fill="none" stroke="midnightblue" d="M196.94,-280.47C160.94,-270.08 112.48,-256.08 78.87,-246.37"/>
<polygon fill="midnightblue" stroke="midnightblue" points="79.53,-242.92 68.95,-243.51 77.59,-249.64 79.53,-242.92"/>
</g>
<!-- Node3 -->
<g id="node3" class="node">
<title>Node3</title>
<g id="a_node3"><a xlink:title=" ">
<polygon fill="none" stroke="#bfbfbf" points="97,-224.5 97,-243.5 198,-243.5 198,-224.5 97,-224.5"/>
<text text-anchor="middle" x="147.5" y="-231.5" font-family="Helvetica,sans-Serif" font-size="10.00">magic_enum.hpp</text>
</a>
</g>
</g>
<!-- Node1&#45;&gt;Node3 -->
<g id="edge2" class="edge">
<title>Node1&#45;&gt;Node3</title>
<path fill="none" stroke="midnightblue" d="M222.28,-280.4C206.71,-270.95 186.3,-258.56 170.74,-249.11"/>
<polygon fill="midnightblue" stroke="midnightblue" points="172.12,-245.86 161.76,-243.66 168.49,-251.84 172.12,-245.86"/>
</g>
<!-- Node4 -->
<g id="node4" class="node">
<title>Node4</title>
<g id="a_node4"><a xlink:href="gpio_8hpp.html" target="_top" xlink:title=" ">
<polygon fill="none" stroke="black" points="216,-224.5 216,-243.5 275,-243.5 275,-224.5 216,-224.5"/>
<text text-anchor="middle" x="245.5" y="-231.5" font-family="Helvetica,sans-Serif" font-size="10.00">gpio.hpp</text>
</a>
</g>
</g>
<!-- Node1&#45;&gt;Node4 -->
<g id="edge3" class="edge">
<title>Node1&#45;&gt;Node4</title>
<path fill="none" stroke="midnightblue" d="M245.5,-280.4C245.5,-272.47 245.5,-262.46 245.5,-253.86"/>
<polygon fill="midnightblue" stroke="midnightblue" points="249,-253.66 245.5,-243.66 242,-253.66 249,-253.66"/>
</g>
<!-- Node19 -->
<g id="node19" class="node">
<title>Node19</title>
<g id="a_node19"><a xlink:href="math_8hpp.html" target="_top" xlink:title="This file defines and implements a variety of handy helper functions that are used throughout the pro...">
<polygon fill="none" stroke="black" points="293.5,-224.5 293.5,-243.5 389.5,-243.5 389.5,-224.5 293.5,-224.5"/>
<text text-anchor="middle" x="341.5" y="-231.5" font-family="Helvetica,sans-Serif" font-size="10.00">../utils/math.hpp</text>
</a>
</g>
</g>
<!-- Node1&#45;&gt;Node19 -->
<g id="edge22" class="edge">
<title>Node1&#45;&gt;Node19</title>
<path fill="none" stroke="midnightblue" d="M268.25,-280.4C283.49,-270.95 303.49,-258.56 318.74,-249.11"/>
<polygon fill="midnightblue" stroke="midnightblue" points="320.88,-251.9 327.53,-243.66 317.19,-245.95 320.88,-251.9"/>
</g>
<!-- Node20 -->
<g id="node20" class="node">
<title>Node20</title>
<g id="a_node20"><a xlink:href="singleton_8hpp.html" target="_top" xlink:title="This file defines and implements a generic class that is used to treat other classes as singletons.">
<polygon fill="none" stroke="black" points="407.5,-224.5 407.5,-243.5 523.5,-243.5 523.5,-224.5 407.5,-224.5"/>
<text text-anchor="middle" x="465.5" y="-231.5" font-family="Helvetica,sans-Serif" font-size="10.00">../utils/singleton.hpp</text>
</a>
</g>
</g>
<!-- Node1&#45;&gt;Node20 -->
<g id="edge23" class="edge">
<title>Node1&#45;&gt;Node20</title>
<path fill="none" stroke="midnightblue" d="M297.36,-280.47C336.14,-269.99 388.46,-255.84 424.38,-246.12"/>
<polygon fill="midnightblue" stroke="midnightblue" points="425.31,-249.5 434.05,-243.51 423.48,-242.74 425.31,-249.5"/>
</g>
<!-- Node5 -->
<g id="node5" class="node">
<title>Node5</title>
<g id="a_node5"><a xlink:title=" ">
<polygon fill="none" stroke="#bfbfbf" points="5.5,-168.5 5.5,-187.5 47.5,-187.5 47.5,-168.5 5.5,-168.5"/>
<text text-anchor="middle" x="26.5" y="-175.5" font-family="Helvetica,sans-Serif" font-size="10.00">array</text>
</a>
</g>
</g>
<!-- Node4&#45;&gt;Node5 -->
<g id="edge4" class="edge">
<title>Node4&#45;&gt;Node5</title>
<path fill="none" stroke="midnightblue" d="M215.84,-225.86C179.45,-217.07 115.89,-201.64 61.5,-188 60.23,-187.68 58.94,-187.36 57.64,-187.03"/>
<polygon fill="midnightblue" stroke="midnightblue" points="58.14,-183.54 47.59,-184.47 56.41,-190.33 58.14,-183.54"/>
</g>
<!-- Node6 -->
<g id="node6" class="node">
<title>Node6</title>
<g id="a_node6"><a xlink:title=" ">
<polygon fill="none" stroke="#bfbfbf" points="187.5,-0.5 187.5,-19.5 245.5,-19.5 245.5,-0.5 187.5,-0.5"/>
<text text-anchor="middle" x="216.5" y="-7.5" font-family="Helvetica,sans-Serif" font-size="10.00">memory</text>
</a>
</g>
</g>
<!-- Node4&#45;&gt;Node6 -->
<g id="edge5" class="edge">
<title>Node4&#45;&gt;Node6</title>
<path fill="none" stroke="midnightblue" d="M215.77,-226.15C173.92,-216.21 101.88,-197.9 94.5,-188 50.38,-128.81 147.28,-55.41 193.62,-25.1"/>
<polygon fill="midnightblue" stroke="midnightblue" points="195.62,-27.97 202.15,-19.63 191.85,-22.08 195.62,-27.97"/>
</g>
<!-- Node7 -->
<g id="node7" class="node">
<title>Node7</title>
<g id="a_node7"><a xlink:title=" ">
<polygon fill="none" stroke="#bfbfbf" points="103.5,-168.5 103.5,-187.5 147.5,-187.5 147.5,-168.5 103.5,-168.5"/>
<text text-anchor="middle" x="125.5" y="-175.5" font-family="Helvetica,sans-Serif" font-size="10.00">limits</text>
</a>
</g>
</g>
<!-- Node4&#45;&gt;Node7 -->
<g id="edge6" class="edge">
<title>Node4&#45;&gt;Node7</title>
<path fill="none" stroke="midnightblue" d="M226.49,-224.44C206.91,-215.64 176.19,-201.81 153.77,-191.72"/>
<polygon fill="midnightblue" stroke="midnightblue" points="154.98,-188.43 144.43,-187.52 152.11,-194.81 154.98,-188.43"/>
</g>
<!-- Node8 -->
<g id="node8" class="node">
<title>Node8</title>
<g id="a_node8"><a xlink:title=" ">
<polygon fill="none" stroke="#bfbfbf" points="166,-168.5 166,-187.5 231,-187.5 231,-168.5 166,-168.5"/>
<text text-anchor="middle" x="198.5" y="-175.5" font-family="Helvetica,sans-Serif" font-size="10.00">functional</text>
</a>
</g>
</g>
<!-- Node4&#45;&gt;Node8 -->
<g id="edge7" class="edge">
<title>Node4&#45;&gt;Node8</title>
<path fill="none" stroke="midnightblue" d="M237.74,-224.08C230.96,-216.3 220.96,-204.8 212.74,-195.37"/>
<polygon fill="midnightblue" stroke="midnightblue" points="215.32,-193 206.12,-187.75 210.04,-197.59 215.32,-193"/>
</g>
<!-- Node9 -->
<g id="node9" class="node">
<title>Node9</title>
<g id="a_node9"><a xlink:title=" ">
<polygon fill="none" stroke="#bfbfbf" points="249.5,-168.5 249.5,-187.5 335.5,-187.5 335.5,-168.5 249.5,-168.5"/>
<text text-anchor="middle" x="292.5" y="-175.5" font-family="Helvetica,sans-Serif" font-size="10.00">unordered_set</text>
</a>
</g>
</g>
<!-- Node4&#45;&gt;Node9 -->
<g id="edge8" class="edge">
<title>Node4&#45;&gt;Node9</title>
<path fill="none" stroke="midnightblue" d="M253.26,-224.08C260.04,-216.3 270.04,-204.8 278.26,-195.37"/>
<polygon fill="midnightblue" stroke="midnightblue" points="280.96,-197.59 284.88,-187.75 275.68,-193 280.96,-197.59"/>
</g>
<!-- Node10 -->
<g id="node10" class="node">
<title>Node10</title>
<g id="a_node10"><a xlink:href="peripheral_8hpp.html" target="_top" xlink:title="This file defines an interface for a memory&#45;mapped peripheral.">
<polygon fill="none" stroke="black" points="252,-112.5 252,-131.5 339,-131.5 339,-112.5 252,-112.5"/>
<text text-anchor="middle" x="295.5" y="-119.5" font-family="Helvetica,sans-Serif" font-size="10.00">peripheral.hpp</text>
</a>
</g>
</g>
<!-- Node4&#45;&gt;Node10 -->
<g id="edge9" class="edge">
<title>Node4&#45;&gt;Node10</title>
<path fill="none" stroke="midnightblue" d="M272.39,-224.45C298.78,-215.46 336.22,-200.86 344.5,-188 356.2,-169.82 336.43,-150.16 318.61,-137.28"/>
<polygon fill="midnightblue" stroke="midnightblue" points="320.4,-134.27 310.17,-131.54 316.47,-140.05 320.4,-134.27"/>
</g>
<!-- Node11 -->
<g id="node11" class="node">
<title>Node11</title>
<g id="a_node11"><a xlink:href="interrupt__controller_8hpp.html" target="_top" xlink:title="This file defines the interrupt controller used BCM2835.">
<polygon fill="none" stroke="black" points="392,-168.5 392,-187.5 523,-187.5 523,-168.5 392,-168.5"/>
<text text-anchor="middle" x="457.5" y="-175.5" font-family="Helvetica,sans-Serif" font-size="10.00">interrupt_controller.hpp</text>
</a>
</g>
</g>
<!-- Node4&#45;&gt;Node11 -->
<g id="edge10" class="edge">
<title>Node4&#45;&gt;Node11</title>
<path fill="none" stroke="midnightblue" d="M275.42,-225.38C311.59,-216.17 372.73,-200.59 414.08,-190.06"/>
<polygon fill="midnightblue" stroke="midnightblue" points="415.05,-193.42 423.88,-187.56 413.33,-186.64 415.05,-193.42"/>
</g>
<!-- Node13 -->
<g id="node13" class="node">
<title>Node13</title>
<g id="a_node13"><a xlink:href="logger_8hpp.html" target="_top" xlink:title=" ">
<polygon fill="none" stroke="black" points="418.5,-56.5 418.5,-75.5 552.5,-75.5 552.5,-56.5 418.5,-56.5"/>
<text text-anchor="middle" x="485.5" y="-63.5" font-family="Helvetica,sans-Serif" font-size="10.00">../utils/logger/logger.hpp</text>
</a>
</g>
</g>
<!-- Node4&#45;&gt;Node13 -->
<g id="edge21" class="edge">
<title>Node4&#45;&gt;Node13</title>
<path fill="none" stroke="midnightblue" d="M275.26,-225.87C278.37,-225.2 281.49,-224.56 284.5,-224 339.23,-213.73 495.69,-229.78 532.5,-188 554.83,-162.65 546.93,-143 533.5,-112 528.23,-99.84 517.88,-89.46 508.14,-81.74"/>
<polygon fill="midnightblue" stroke="midnightblue" points="510,-78.77 499.87,-75.67 505.86,-84.41 510,-78.77"/>
</g>
<!-- Node11&#45;&gt;Node10 -->
<g id="edge11" class="edge">
<title>Node11&#45;&gt;Node10</title>
<path fill="none" stroke="midnightblue" d="M431.83,-168.44C404.58,-159.36 361.32,-144.94 330.85,-134.78"/>
<polygon fill="midnightblue" stroke="midnightblue" points="331.64,-131.36 321.05,-131.52 329.43,-138 331.64,-131.36"/>
</g>
<!-- Node12 -->
<g id="node12" class="node">
<title>Node12</title>
<g id="a_node12"><a xlink:href="context_8hpp.html" target="_top" xlink:title="This file defines the context (registers) of the CPU.">
<polygon fill="none" stroke="black" points="357.5,-112.5 357.5,-131.5 509.5,-131.5 509.5,-112.5 357.5,-112.5"/>
<text text-anchor="middle" x="433.5" y="-119.5" font-family="Helvetica,sans-Serif" font-size="10.00">../arm1176jzf_s/context.hpp</text>
</a>
</g>
</g>
<!-- Node11&#45;&gt;Node12 -->
<g id="edge12" class="edge">
<title>Node11&#45;&gt;Node12</title>
<path fill="none" stroke="midnightblue" d="M453.54,-168.08C450.29,-160.77 445.58,-150.18 441.55,-141.1"/>
<polygon fill="midnightblue" stroke="midnightblue" points="444.65,-139.47 437.39,-131.75 438.25,-142.31 444.65,-139.47"/>
</g>
<!-- Node11&#45;&gt;Node13 -->
<g id="edge20" class="edge">
<title>Node11&#45;&gt;Node13</title>
<path fill="none" stroke="midnightblue" d="M477.41,-168.41C491.72,-161.04 509.96,-148.92 518.5,-132 526.91,-115.35 514.69,-96.32 502.82,-83.18"/>
<polygon fill="midnightblue" stroke="midnightblue" points="505.14,-80.54 495.65,-75.83 500.12,-85.43 505.14,-80.54"/>
</g>
<!-- Node12&#45;&gt;Node13 -->
<g id="edge13" class="edge">
<title>Node12&#45;&gt;Node13</title>
<path fill="none" stroke="midnightblue" d="M442.09,-112.08C449.66,-104.22 460.88,-92.57 470.01,-83.08"/>
<polygon fill="midnightblue" stroke="midnightblue" points="472.66,-85.38 477.07,-75.75 467.62,-80.53 472.66,-85.38"/>
</g>
<!-- Node13&#45;&gt;Node6 -->
<g id="edge16" class="edge">
<title>Node13&#45;&gt;Node6</title>
<path fill="none" stroke="midnightblue" d="M442.88,-56.44C391.43,-46.12 305.62,-28.89 255.73,-18.88"/>
<polygon fill="midnightblue" stroke="midnightblue" points="256.15,-15.39 245.66,-16.85 254.77,-22.25 256.15,-15.39"/>
</g>
<!-- Node14 -->
<g id="node14" class="node">
<title>Node14</title>
<g id="a_node14"><a xlink:title=" ">
<polygon fill="none" stroke="#bfbfbf" points="328.5,-0.5 328.5,-19.5 376.5,-19.5 376.5,-0.5 328.5,-0.5"/>
<text text-anchor="middle" x="352.5" y="-7.5" font-family="Helvetica,sans-Serif" font-size="10.00">mutex</text>
</a>
</g>
</g>
<!-- Node13&#45;&gt;Node14 -->
<g id="edge14" class="edge">
<title>Node13&#45;&gt;Node14</title>
<path fill="none" stroke="midnightblue" d="M464.43,-56.44C442.44,-47.52 407.77,-33.44 382.84,-23.32"/>
<polygon fill="midnightblue" stroke="midnightblue" points="384.06,-20.04 373.48,-19.52 381.42,-26.52 384.06,-20.04"/>
</g>
<!-- Node15 -->
<g id="node15" class="node">
<title>Node15</title>
<g id="a_node15"><a xlink:title=" ">
<polygon fill="none" stroke="#bfbfbf" points="395,-0.5 395,-19.5 442,-19.5 442,-0.5 395,-0.5"/>
<text text-anchor="middle" x="418.5" y="-7.5" font-family="Helvetica,sans-Serif" font-size="10.00">vector</text>
</a>
</g>
</g>
<!-- Node13&#45;&gt;Node15 -->
<g id="edge15" class="edge">
<title>Node13&#45;&gt;Node15</title>
<path fill="none" stroke="midnightblue" d="M474.74,-56.32C464.73,-48.26 449.61,-36.08 437.57,-26.37"/>
<polygon fill="midnightblue" stroke="midnightblue" points="439.44,-23.38 429.46,-19.83 435.05,-28.83 439.44,-23.38"/>
</g>
<!-- Node16 -->
<g id="node16" class="node">
<title>Node16</title>
<g id="a_node16"><a xlink:title=" ">
<polygon fill="none" stroke="#bfbfbf" points="460.5,-0.5 460.5,-19.5 510.5,-19.5 510.5,-0.5 460.5,-0.5"/>
<text text-anchor="middle" x="485.5" y="-7.5" font-family="Helvetica,sans-Serif" font-size="10.00">cstdint</text>
</a>
</g>
</g>
<!-- Node13&#45;&gt;Node16 -->
<g id="edge17" class="edge">
<title>Node13&#45;&gt;Node16</title>
<path fill="none" stroke="midnightblue" d="M485.5,-56.08C485.5,-49.01 485.5,-38.86 485.5,-29.99"/>
<polygon fill="midnightblue" stroke="midnightblue" points="489,-29.75 485.5,-19.75 482,-29.75 489,-29.75"/>
</g>
<!-- Node17 -->
<g id="node17" class="node">
<title>Node17</title>
<g id="a_node17"><a xlink:title=" ">
<polygon fill="none" stroke="#bfbfbf" points="529,-0.5 529,-19.5 602,-19.5 602,-0.5 529,-0.5"/>
<text text-anchor="middle" x="565.5" y="-7.5" font-family="Helvetica,sans-Serif" font-size="10.00">string_view</text>
</a>
</g>
</g>
<!-- Node13&#45;&gt;Node17 -->
<g id="edge18" class="edge">
<title>Node13&#45;&gt;Node17</title>
<path fill="none" stroke="midnightblue" d="M498.35,-56.32C510.72,-47.98 529.63,-35.21 544.24,-25.35"/>
<polygon fill="midnightblue" stroke="midnightblue" points="546.35,-28.15 552.68,-19.65 542.43,-22.35 546.35,-28.15"/>
</g>
<!-- Node18 -->
<g id="node18" class="node">
<title>Node18</title>
<g id="a_node18"><a xlink:title=" ">
<polygon fill="none" stroke="#bfbfbf" points="620,-0.5 620,-19.5 713,-19.5 713,-0.5 620,-0.5"/>
<text text-anchor="middle" x="666.5" y="-7.5" font-family="Helvetica,sans-Serif" font-size="10.00">source_location</text>
</a>
</g>
</g>
<!-- Node13&#45;&gt;Node18 -->
<g id="edge19" class="edge">
<title>Node13&#45;&gt;Node18</title>
<path fill="none" stroke="midnightblue" d="M514.18,-56.44C545.03,-47.24 594.23,-32.56 628.33,-22.39"/>
<polygon fill="midnightblue" stroke="midnightblue" points="629.37,-25.73 637.95,-19.52 627.37,-19.02 629.37,-25.73"/>
</g>
</g>
</svg>
