<?xml version="1.0" encoding="UTF-8" standalone="no"?>
<!DOCTYPE svg PUBLIC "-//W3C//DTD SVG 1.1//EN"
 "http://www.w3.org/Graphics/SVG/1.1/DTD/svg11.dtd">
<!-- Generated by graphviz version 2.43.0 (0)
 -->
<!-- Title: src/gui/windows/peripherals/gpio_window.cpp Pages: 1 -->
<svg width="508pt" height="397pt"
 viewBox="0.00 0.00 507.50 397.00" xmlns="http://www.w3.org/2000/svg" xmlns:xlink="http://www.w3.org/1999/xlink">
<g id="graph0" class="graph" transform="scale(1 1) rotate(0) translate(4 393)">
<title>src/gui/windows/peripherals/gpio_window.cpp</title>
<!-- Node1 -->
<g id="node1" class="node">
<title>Node1</title>
<g id="a_node1"><a xlink:title="This file implements a window that visualizes the states and information about GPIO pins.">
<polygon fill="#bfbfbf" stroke="black" points="33.5,-358.5 33.5,-388.5 185.5,-388.5 185.5,-358.5 33.5,-358.5"/>
<text text-anchor="start" x="41.5" y="-376.5" font-family="Helvetica,sans-Serif" font-size="10.00">src/gui/windows/peripherals</text>
<text text-anchor="middle" x="109.5" y="-365.5" font-family="Helvetica,sans-Serif" font-size="10.00">/gpio_window.cpp</text>
</a>
</g>
</g>
<!-- Node2 -->
<g id="node2" class="node">
<title>Node2</title>
<g id="a_node2"><a xlink:title=" ">
<polygon fill="none" stroke="#bfbfbf" points="0,-302.5 0,-321.5 101,-321.5 101,-302.5 0,-302.5"/>
<text text-anchor="middle" x="50.5" y="-309.5" font-family="Helvetica,sans-Serif" font-size="10.00">magic_enum.hpp</text>
</a>
</g>
</g>
<!-- Node1&#45;&gt;Node2 -->
<g id="edge1" class="edge">
<title>Node1&#45;&gt;Node2</title>
<path fill="none" stroke="midnightblue" d="M95.52,-358.4C86.77,-349.58 75.47,-338.18 66.38,-329.02"/>
<polygon fill="midnightblue" stroke="midnightblue" points="68.61,-326.29 59.09,-321.66 63.64,-331.22 68.61,-326.29"/>
</g>
<!-- Node3 -->
<g id="node3" class="node">
<title>Node3</title>
<g id="a_node3"><a xlink:href="gpio__window_8hpp.html" target="_top" xlink:title="This file defines a window that visualizes the states and information about GPIO pins.">
<polygon fill="none" stroke="black" points="119,-302.5 119,-321.5 220,-321.5 220,-302.5 119,-302.5"/>
<text text-anchor="middle" x="169.5" y="-309.5" font-family="Helvetica,sans-Serif" font-size="10.00">gpio_window.hpp</text>
</a>
</g>
</g>
<!-- Node1&#45;&gt;Node3 -->
<g id="edge2" class="edge">
<title>Node1&#45;&gt;Node3</title>
<path fill="none" stroke="midnightblue" d="M123.72,-358.4C132.71,-349.49 144.34,-337.95 153.63,-328.74"/>
<polygon fill="midnightblue" stroke="midnightblue" points="156.13,-331.18 160.77,-321.66 151.2,-326.21 156.13,-331.18"/>
</g>
<!-- Node4 -->
<g id="node4" class="node">
<title>Node4</title>
<g id="a_node4"><a xlink:href="window_8hpp.html" target="_top" xlink:title="This file defines an interface for all windows that will be rendered by the application.">
<polygon fill="none" stroke="black" points="51.5,-241 51.5,-260 143.5,-260 143.5,-241 51.5,-241"/>
<text text-anchor="middle" x="97.5" y="-248" font-family="Helvetica,sans-Serif" font-size="10.00">../../window.hpp</text>
</a>
</g>
</g>
<!-- Node3&#45;&gt;Node4 -->
<g id="edge3" class="edge">
<title>Node3&#45;&gt;Node4</title>
<path fill="none" stroke="midnightblue" d="M159.18,-302.48C147.85,-293.11 129.43,-277.88 115.66,-266.51"/>
<polygon fill="midnightblue" stroke="midnightblue" points="117.73,-263.68 107.8,-260.01 113.28,-269.08 117.73,-263.68"/>
</g>
<!-- Node6 -->
<g id="node6" class="node">
<title>Node6</title>
<g id="a_node6"><a xlink:href="gpio_8hpp.html" target="_top" xlink:title="This file defines the GPIO controller used in BCM2835.">
<polygon fill="none" stroke="black" points="180.5,-235.5 180.5,-265.5 302.5,-265.5 302.5,-235.5 180.5,-235.5"/>
<text text-anchor="start" x="188.5" y="-253.5" font-family="Helvetica,sans-Serif" font-size="10.00">../../../core/peripherals</text>
<text text-anchor="middle" x="241.5" y="-242.5" font-family="Helvetica,sans-Serif" font-size="10.00">/gpio.hpp</text>
</a>
</g>
</g>
<!-- Node3&#45;&gt;Node6 -->
<g id="edge5" class="edge">
<title>Node3&#45;&gt;Node6</title>
<path fill="none" stroke="midnightblue" d="M179.82,-302.48C189.38,-294.57 204.01,-282.48 216.61,-272.07"/>
<polygon fill="midnightblue" stroke="midnightblue" points="219.05,-274.59 224.53,-265.52 214.59,-269.2 219.05,-274.59"/>
</g>
<!-- Node5 -->
<g id="node5" class="node">
<title>Node5</title>
<g id="a_node5"><a xlink:title=" ">
<polygon fill="none" stroke="#bfbfbf" points="35.5,-179.5 35.5,-198.5 119.5,-198.5 119.5,-179.5 35.5,-179.5"/>
<text text-anchor="middle" x="77.5" y="-186.5" font-family="Helvetica,sans-Serif" font-size="10.00">imgui/imgui.h</text>
</a>
</g>
</g>
<!-- Node4&#45;&gt;Node5 -->
<g id="edge4" class="edge">
<title>Node4&#45;&gt;Node5</title>
<path fill="none" stroke="midnightblue" d="M94.63,-240.98C91.78,-232.49 87.32,-219.2 83.66,-208.32"/>
<polygon fill="midnightblue" stroke="midnightblue" points="86.86,-206.87 80.36,-198.51 80.23,-209.1 86.86,-206.87"/>
</g>
<!-- Node7 -->
<g id="node7" class="node">
<title>Node7</title>
<g id="a_node7"><a xlink:href="peripheral_8hpp.html" target="_top" xlink:title="This file defines an interface for a memory&#45;mapped peripheral.">
<polygon fill="none" stroke="black" points="36,-118 36,-137 123,-137 123,-118 36,-118"/>
<text text-anchor="middle" x="79.5" y="-125" font-family="Helvetica,sans-Serif" font-size="10.00">peripheral.hpp</text>
</a>
</g>
</g>
<!-- Node6&#45;&gt;Node7 -->
<g id="edge6" class="edge">
<title>Node6&#45;&gt;Node7</title>
<path fill="none" stroke="midnightblue" d="M219.49,-235.41C204.35,-225.55 183.92,-211.88 166.5,-199 141.78,-180.72 114.41,-158.13 97.09,-143.52"/>
<polygon fill="midnightblue" stroke="midnightblue" points="99.34,-140.84 89.45,-137.05 94.82,-146.18 99.34,-140.84"/>
</g>
<!-- Node8 -->
<g id="node8" class="node">
<title>Node8</title>
<g id="a_node8"><a xlink:href="interrupt__controller_8hpp.html" target="_top" xlink:title="This file defines the interrupt controller used in BCM2835.">
<polygon fill="none" stroke="black" points="176,-179.5 176,-198.5 307,-198.5 307,-179.5 176,-179.5"/>
<text text-anchor="middle" x="241.5" y="-186.5" font-family="Helvetica,sans-Serif" font-size="10.00">interrupt_controller.hpp</text>
</a>
</g>
</g>
<!-- Node6&#45;&gt;Node8 -->
<g id="edge7" class="edge">
<title>Node6&#45;&gt;Node8</title>
<path fill="none" stroke="midnightblue" d="M241.5,-235.4C241.5,-227.47 241.5,-217.46 241.5,-208.86"/>
<polygon fill="midnightblue" stroke="midnightblue" points="245,-208.66 241.5,-198.66 238,-208.66 245,-208.66"/>
</g>
<!-- Node10 -->
<g id="node10" class="node">
<title>Node10</title>
<g id="a_node10"><a xlink:href="logger_8hpp.html" target="_top" xlink:title="This file defines a general logger interface as well as a logging system that is used in the project.">
<polygon fill="none" stroke="black" points="269.5,-56.5 269.5,-75.5 415.5,-75.5 415.5,-56.5 269.5,-56.5"/>
<text text-anchor="middle" x="342.5" y="-63.5" font-family="Helvetica,sans-Serif" font-size="10.00">zero_mate/utils/logger.hpp</text>
</a>
</g>
</g>
<!-- Node6&#45;&gt;Node10 -->
<g id="edge13" class="edge">
<title>Node6&#45;&gt;Node10</title>
<path fill="none" stroke="midnightblue" d="M272.46,-235.46C287.69,-227.01 304.99,-214.8 315.5,-199 338.85,-163.89 342.7,-112.78 342.94,-85.61"/>
<polygon fill="midnightblue" stroke="midnightblue" points="346.44,-85.52 342.87,-75.55 339.44,-85.57 346.44,-85.52"/>
</g>
<!-- Node12 -->
<g id="node12" class="node">
<title>Node12</title>
<g id="a_node12"><a xlink:href="external__peripheral_8hpp.html" target="_top" xlink:title="This file defines an interface for external peripherals that can be attached to the system via GPIO p...">
<polygon fill="none" stroke="black" points="387.5,-112.5 387.5,-142.5 499.5,-142.5 499.5,-112.5 387.5,-112.5"/>
<text text-anchor="start" x="395.5" y="-130.5" font-family="Helvetica,sans-Serif" font-size="10.00">zero_mate/external</text>
<text text-anchor="middle" x="443.5" y="-119.5" font-family="Helvetica,sans-Serif" font-size="10.00">_peripheral.hpp</text>
</a>
</g>
</g>
<!-- Node6&#45;&gt;Node12 -->
<g id="edge14" class="edge">
<title>Node6&#45;&gt;Node12</title>
<path fill="none" stroke="midnightblue" d="M292.79,-235.49C318.28,-227.17 348.83,-215.07 373.5,-199 393.74,-185.82 412.79,-165.96 425.89,-150.67"/>
<polygon fill="midnightblue" stroke="midnightblue" points="428.8,-152.64 432.52,-142.72 423.43,-148.16 428.8,-152.64"/>
</g>
<!-- Node8&#45;&gt;Node7 -->
<g id="edge8" class="edge">
<title>Node8&#45;&gt;Node7</title>
<path fill="none" stroke="midnightblue" d="M218.29,-179.48C190.5,-169.27 143.78,-152.11 112.31,-140.55"/>
<polygon fill="midnightblue" stroke="midnightblue" points="113.26,-137.17 102.67,-137.01 110.85,-143.74 113.26,-137.17"/>
</g>
<!-- Node9 -->
<g id="node9" class="node">
<title>Node9</title>
<g id="a_node9"><a xlink:href="context_8hpp.html" target="_top" xlink:title="This file defines the context (registers) of the CPU.">
<polygon fill="none" stroke="black" points="141.5,-118 141.5,-137 293.5,-137 293.5,-118 141.5,-118"/>
<text text-anchor="middle" x="217.5" y="-125" font-family="Helvetica,sans-Serif" font-size="10.00">../arm1176jzf_s/context.hpp</text>
</a>
</g>
</g>
<!-- Node8&#45;&gt;Node9 -->
<g id="edge9" class="edge">
<title>Node8&#45;&gt;Node9</title>
<path fill="none" stroke="midnightblue" d="M238.06,-179.48C234.6,-170.9 229.17,-157.43 224.75,-146.48"/>
<polygon fill="midnightblue" stroke="midnightblue" points="227.92,-144.97 220.93,-137.01 221.43,-147.59 227.92,-144.97"/>
</g>
<!-- Node8&#45;&gt;Node10 -->
<g id="edge12" class="edge">
<title>Node8&#45;&gt;Node10</title>
<path fill="none" stroke="midnightblue" d="M256.81,-179.42C270.15,-171.36 289.38,-158.27 302.5,-143 317.49,-125.56 328.93,-101.55 335.67,-85.22"/>
<polygon fill="midnightblue" stroke="midnightblue" points="338.99,-86.32 339.4,-75.74 332.48,-83.76 338.99,-86.32"/>
</g>
<!-- Node9&#45;&gt;Node10 -->
<g id="edge10" class="edge">
<title>Node9&#45;&gt;Node10</title>
<path fill="none" stroke="midnightblue" d="M235.41,-117.98C256.39,-107.99 291.35,-91.35 315.59,-79.81"/>
<polygon fill="midnightblue" stroke="midnightblue" points="317.1,-82.97 324.62,-75.51 314.09,-76.65 317.1,-82.97"/>
</g>
<!-- Node11 -->
<g id="node11" class="node">
<title>Node11</title>
<g id="a_node11"><a xlink:href="api__export_8hpp.html" target="_top" xlink:title="This file defines macros for exporting symbols out of a shared library.">
<polygon fill="none" stroke="black" points="320.5,-0.5 320.5,-19.5 464.5,-19.5 464.5,-0.5 320.5,-0.5"/>
<text text-anchor="middle" x="392.5" y="-7.5" font-family="Helvetica,sans-Serif" font-size="10.00">zero_mate/api_export.hpp</text>
</a>
</g>
</g>
<!-- Node10&#45;&gt;Node11 -->
<g id="edge11" class="edge">
<title>Node10&#45;&gt;Node11</title>
<path fill="none" stroke="midnightblue" d="M350.76,-56.08C357.96,-48.3 368.61,-36.8 377.35,-27.37"/>
<polygon fill="midnightblue" stroke="midnightblue" points="380.17,-29.47 384.4,-19.75 375.03,-24.71 380.17,-29.47"/>
</g>
<!-- Node12&#45;&gt;Node10 -->
<g id="edge16" class="edge">
<title>Node12&#45;&gt;Node10</title>
<path fill="none" stroke="midnightblue" d="M419.56,-112.4C403.37,-102.86 382.09,-90.32 366,-80.84"/>
<polygon fill="midnightblue" stroke="midnightblue" points="367.59,-77.72 357.2,-75.66 364.04,-83.75 367.59,-77.72"/>
</g>
<!-- Node12&#45;&gt;Node11 -->
<g id="edge15" class="edge">
<title>Node12&#45;&gt;Node11</title>
<path fill="none" stroke="midnightblue" d="M441.24,-112.48C438.54,-97.87 433.26,-74.57 424.5,-56 419.76,-45.94 412.74,-35.75 406.48,-27.62"/>
<polygon fill="midnightblue" stroke="midnightblue" points="409.12,-25.32 400.14,-19.71 403.66,-29.7 409.12,-25.32"/>
</g>
</g>
</svg>
