<?xml version="1.0" encoding="UTF-8" standalone="no"?>
<!DOCTYPE svg PUBLIC "-//W3C//DTD SVG 1.1//EN"
 "http://www.w3.org/Graphics/SVG/1.1/DTD/svg11.dtd">
<!-- Generated by graphviz version 2.43.0 (0)
 -->
<!-- Title: src/core/peripherals/gpio.hpp Pages: 1 -->
<svg width="716pt" height="263pt"
 viewBox="0.00 0.00 715.50 263.00" xmlns="http://www.w3.org/2000/svg" xmlns:xlink="http://www.w3.org/1999/xlink">
<g id="graph0" class="graph" transform="scale(1 1) rotate(0) translate(4 259)">
<title>src/core/peripherals/gpio.hpp</title>
<!-- Node1 -->
<g id="node1" class="node">
<title>Node1</title>
<g id="a_node1"><a xlink:title=" ">
<polygon fill="#bfbfbf" stroke="black" points="183.5,-224.5 183.5,-254.5 296.5,-254.5 296.5,-224.5 183.5,-224.5"/>
<text text-anchor="start" x="191.5" y="-242.5" font-family="Helvetica,sans-Serif" font-size="10.00">src/core/peripherals</text>
<text text-anchor="middle" x="240" y="-231.5" font-family="Helvetica,sans-Serif" font-size="10.00">/gpio.hpp</text>
</a>
</g>
</g>
<!-- Node2 -->
<g id="node2" class="node">
<title>Node2</title>
<g id="a_node2"><a xlink:title=" ">
<polygon fill="none" stroke="#bfbfbf" points="0,-168.5 0,-187.5 42,-187.5 42,-168.5 0,-168.5"/>
<text text-anchor="middle" x="21" y="-175.5" font-family="Helvetica,sans-Serif" font-size="10.00">array</text>
</a>
</g>
</g>
<!-- Node1&#45;&gt;Node2 -->
<g id="edge1" class="edge">
<title>Node1&#45;&gt;Node2</title>
<path fill="none" stroke="midnightblue" d="M188.38,-224.47C146.02,-212.97 87.45,-197.05 52.01,-187.43"/>
<polygon fill="midnightblue" stroke="midnightblue" points="52.8,-184.01 42.23,-184.77 50.96,-190.77 52.8,-184.01"/>
</g>
<!-- Node3 -->
<g id="node3" class="node">
<title>Node3</title>
<g id="a_node3"><a xlink:title=" ">
<polygon fill="none" stroke="#bfbfbf" points="182,-0.5 182,-19.5 240,-19.5 240,-0.5 182,-0.5"/>
<text text-anchor="middle" x="211" y="-7.5" font-family="Helvetica,sans-Serif" font-size="10.00">memory</text>
</a>
</g>
</g>
<!-- Node1&#45;&gt;Node3 -->
<g id="edge2" class="edge">
<title>Node1&#45;&gt;Node3</title>
<path fill="none" stroke="midnightblue" d="M183.42,-235.33C150.1,-230.21 110.4,-217.72 89,-188 45.86,-128.09 142.23,-55.08 188.27,-24.99"/>
<polygon fill="midnightblue" stroke="midnightblue" points="190.22,-27.9 196.75,-19.56 186.44,-22.01 190.22,-27.9"/>
</g>
<!-- Node4 -->
<g id="node4" class="node">
<title>Node4</title>
<g id="a_node4"><a xlink:title=" ">
<polygon fill="none" stroke="#bfbfbf" points="98,-168.5 98,-187.5 142,-187.5 142,-168.5 98,-168.5"/>
<text text-anchor="middle" x="120" y="-175.5" font-family="Helvetica,sans-Serif" font-size="10.00">limits</text>
</a>
</g>
</g>
<!-- Node1&#45;&gt;Node4 -->
<g id="edge3" class="edge">
<title>Node1&#45;&gt;Node4</title>
<path fill="none" stroke="midnightblue" d="M211.56,-224.4C191.88,-214.64 165.86,-201.74 146.59,-192.18"/>
<polygon fill="midnightblue" stroke="midnightblue" points="147.98,-188.96 137.46,-187.66 144.87,-195.24 147.98,-188.96"/>
</g>
<!-- Node5 -->
<g id="node5" class="node">
<title>Node5</title>
<g id="a_node5"><a xlink:title=" ">
<polygon fill="none" stroke="#bfbfbf" points="160.5,-168.5 160.5,-187.5 225.5,-187.5 225.5,-168.5 160.5,-168.5"/>
<text text-anchor="middle" x="193" y="-175.5" font-family="Helvetica,sans-Serif" font-size="10.00">functional</text>
</a>
</g>
</g>
<!-- Node1&#45;&gt;Node5 -->
<g id="edge4" class="edge">
<title>Node1&#45;&gt;Node5</title>
<path fill="none" stroke="midnightblue" d="M228.86,-224.4C222.03,-215.75 213.26,-204.64 206.09,-195.58"/>
<polygon fill="midnightblue" stroke="midnightblue" points="208.78,-193.34 199.84,-187.66 203.29,-197.67 208.78,-193.34"/>
</g>
<!-- Node6 -->
<g id="node6" class="node">
<title>Node6</title>
<g id="a_node6"><a xlink:title=" ">
<polygon fill="none" stroke="#bfbfbf" points="244,-168.5 244,-187.5 330,-187.5 330,-168.5 244,-168.5"/>
<text text-anchor="middle" x="287" y="-175.5" font-family="Helvetica,sans-Serif" font-size="10.00">unordered_set</text>
</a>
</g>
</g>
<!-- Node1&#45;&gt;Node6 -->
<g id="edge5" class="edge">
<title>Node1&#45;&gt;Node6</title>
<path fill="none" stroke="midnightblue" d="M251.14,-224.4C257.97,-215.75 266.74,-204.64 273.91,-195.58"/>
<polygon fill="midnightblue" stroke="midnightblue" points="276.71,-197.67 280.16,-187.66 271.22,-193.34 276.71,-197.67"/>
</g>
<!-- Node7 -->
<g id="node7" class="node">
<title>Node7</title>
<g id="a_node7"><a xlink:href="peripheral_8hpp.html" target="_top" xlink:title="This file defines an interface for a memory&#45;mapped peripheral.">
<polygon fill="none" stroke="black" points="246.5,-112.5 246.5,-131.5 333.5,-131.5 333.5,-112.5 246.5,-112.5"/>
<text text-anchor="middle" x="290" y="-119.5" font-family="Helvetica,sans-Serif" font-size="10.00">peripheral.hpp</text>
</a>
</g>
</g>
<!-- Node1&#45;&gt;Node7 -->
<g id="edge6" class="edge">
<title>Node1&#45;&gt;Node7</title>
<path fill="none" stroke="midnightblue" d="M291.91,-224.44C310.04,-216.77 328.47,-205.19 339,-188 350.23,-169.67 330.81,-150.17 313.21,-137.37"/>
<polygon fill="midnightblue" stroke="midnightblue" points="315.08,-134.41 304.85,-131.66 311.13,-140.19 315.08,-134.41"/>
</g>
<!-- Node8 -->
<g id="node8" class="node">
<title>Node8</title>
<g id="a_node8"><a xlink:href="interrupt__controller_8hpp.html" target="_top" xlink:title="This file defines the interrupt controller used BCM2835.">
<polygon fill="none" stroke="black" points="386.5,-168.5 386.5,-187.5 517.5,-187.5 517.5,-168.5 386.5,-168.5"/>
<text text-anchor="middle" x="452" y="-175.5" font-family="Helvetica,sans-Serif" font-size="10.00">interrupt_controller.hpp</text>
</a>
</g>
</g>
<!-- Node1&#45;&gt;Node8 -->
<g id="edge7" class="edge">
<title>Node1&#45;&gt;Node8</title>
<path fill="none" stroke="midnightblue" d="M289.97,-224.47C327.19,-214.03 377.33,-199.96 411.93,-190.25"/>
<polygon fill="midnightblue" stroke="midnightblue" points="413.01,-193.58 421.69,-187.51 411.12,-186.84 413.01,-193.58"/>
</g>
<!-- Node10 -->
<g id="node10" class="node">
<title>Node10</title>
<g id="a_node10"><a xlink:href="logger_8hpp.html" target="_top" xlink:title=" ">
<polygon fill="none" stroke="black" points="413,-56.5 413,-75.5 547,-75.5 547,-56.5 413,-56.5"/>
<text text-anchor="middle" x="480" y="-63.5" font-family="Helvetica,sans-Serif" font-size="10.00">../utils/logger/logger.hpp</text>
</a>
</g>
</g>
<!-- Node1&#45;&gt;Node10 -->
<g id="edge18" class="edge">
<title>Node1&#45;&gt;Node10</title>
<path fill="none" stroke="midnightblue" d="M296.81,-236.76C371.85,-233.15 497.91,-222.04 527,-188 548.95,-162.32 541.43,-143 528,-112 522.73,-99.84 512.38,-89.46 502.64,-81.74"/>
<polygon fill="midnightblue" stroke="midnightblue" points="504.5,-78.77 494.37,-75.67 500.36,-84.41 504.5,-78.77"/>
</g>
<!-- Node8&#45;&gt;Node7 -->
<g id="edge8" class="edge">
<title>Node8&#45;&gt;Node7</title>
<path fill="none" stroke="midnightblue" d="M426.33,-168.44C399.08,-159.36 355.82,-144.94 325.35,-134.78"/>
<polygon fill="midnightblue" stroke="midnightblue" points="326.14,-131.36 315.55,-131.52 323.93,-138 326.14,-131.36"/>
</g>
<!-- Node9 -->
<g id="node9" class="node">
<title>Node9</title>
<g id="a_node9"><a xlink:href="context_8hpp.html" target="_top" xlink:title="This file defines the context (registers) of the CPU.">
<polygon fill="none" stroke="black" points="352,-112.5 352,-131.5 504,-131.5 504,-112.5 352,-112.5"/>
<text text-anchor="middle" x="428" y="-119.5" font-family="Helvetica,sans-Serif" font-size="10.00">../arm1176jzf_s/context.hpp</text>
</a>
</g>
</g>
<!-- Node8&#45;&gt;Node9 -->
<g id="edge9" class="edge">
<title>Node8&#45;&gt;Node9</title>
<path fill="none" stroke="midnightblue" d="M448.04,-168.08C444.79,-160.77 440.08,-150.18 436.05,-141.1"/>
<polygon fill="midnightblue" stroke="midnightblue" points="439.15,-139.47 431.89,-131.75 432.75,-142.31 439.15,-139.47"/>
</g>
<!-- Node8&#45;&gt;Node10 -->
<g id="edge17" class="edge">
<title>Node8&#45;&gt;Node10</title>
<path fill="none" stroke="midnightblue" d="M471.91,-168.41C486.22,-161.04 504.46,-148.92 513,-132 521.41,-115.35 509.19,-96.32 497.32,-83.18"/>
<polygon fill="midnightblue" stroke="midnightblue" points="499.64,-80.54 490.15,-75.83 494.62,-85.43 499.64,-80.54"/>
</g>
<!-- Node9&#45;&gt;Node10 -->
<g id="edge10" class="edge">
<title>Node9&#45;&gt;Node10</title>
<path fill="none" stroke="midnightblue" d="M436.59,-112.08C444.16,-104.22 455.38,-92.57 464.51,-83.08"/>
<polygon fill="midnightblue" stroke="midnightblue" points="467.16,-85.38 471.57,-75.75 462.12,-80.53 467.16,-85.38"/>
</g>
<!-- Node10&#45;&gt;Node3 -->
<g id="edge13" class="edge">
<title>Node10&#45;&gt;Node3</title>
<path fill="none" stroke="midnightblue" d="M437.38,-56.44C385.93,-46.12 300.12,-28.89 250.23,-18.88"/>
<polygon fill="midnightblue" stroke="midnightblue" points="250.65,-15.39 240.16,-16.85 249.27,-22.25 250.65,-15.39"/>
</g>
<!-- Node11 -->
<g id="node11" class="node">
<title>Node11</title>
<g id="a_node11"><a xlink:title=" ">
<polygon fill="none" stroke="#bfbfbf" points="323,-0.5 323,-19.5 371,-19.5 371,-0.5 323,-0.5"/>
<text text-anchor="middle" x="347" y="-7.5" font-family="Helvetica,sans-Serif" font-size="10.00">mutex</text>
</a>
</g>
</g>
<!-- Node10&#45;&gt;Node11 -->
<g id="edge11" class="edge">
<title>Node10&#45;&gt;Node11</title>
<path fill="none" stroke="midnightblue" d="M458.93,-56.44C436.94,-47.52 402.27,-33.44 377.34,-23.32"/>
<polygon fill="midnightblue" stroke="midnightblue" points="378.56,-20.04 367.98,-19.52 375.92,-26.52 378.56,-20.04"/>
</g>
<!-- Node12 -->
<g id="node12" class="node">
<title>Node12</title>
<g id="a_node12"><a xlink:title=" ">
<polygon fill="none" stroke="#bfbfbf" points="389.5,-0.5 389.5,-19.5 436.5,-19.5 436.5,-0.5 389.5,-0.5"/>
<text text-anchor="middle" x="413" y="-7.5" font-family="Helvetica,sans-Serif" font-size="10.00">vector</text>
</a>
</g>
</g>
<!-- Node10&#45;&gt;Node12 -->
<g id="edge12" class="edge">
<title>Node10&#45;&gt;Node12</title>
<path fill="none" stroke="midnightblue" d="M469.24,-56.32C459.23,-48.26 444.11,-36.08 432.07,-26.37"/>
<polygon fill="midnightblue" stroke="midnightblue" points="433.94,-23.38 423.96,-19.83 429.55,-28.83 433.94,-23.38"/>
</g>
<!-- Node13 -->
<g id="node13" class="node">
<title>Node13</title>
<g id="a_node13"><a xlink:title=" ">
<polygon fill="none" stroke="#bfbfbf" points="455,-0.5 455,-19.5 505,-19.5 505,-0.5 455,-0.5"/>
<text text-anchor="middle" x="480" y="-7.5" font-family="Helvetica,sans-Serif" font-size="10.00">cstdint</text>
</a>
</g>
</g>
<!-- Node10&#45;&gt;Node13 -->
<g id="edge14" class="edge">
<title>Node10&#45;&gt;Node13</title>
<path fill="none" stroke="midnightblue" d="M480,-56.08C480,-49.01 480,-38.86 480,-29.99"/>
<polygon fill="midnightblue" stroke="midnightblue" points="483.5,-29.75 480,-19.75 476.5,-29.75 483.5,-29.75"/>
</g>
<!-- Node14 -->
<g id="node14" class="node">
<title>Node14</title>
<g id="a_node14"><a xlink:title=" ">
<polygon fill="none" stroke="#bfbfbf" points="523.5,-0.5 523.5,-19.5 596.5,-19.5 596.5,-0.5 523.5,-0.5"/>
<text text-anchor="middle" x="560" y="-7.5" font-family="Helvetica,sans-Serif" font-size="10.00">string_view</text>
</a>
</g>
</g>
<!-- Node10&#45;&gt;Node14 -->
<g id="edge15" class="edge">
<title>Node10&#45;&gt;Node14</title>
<path fill="none" stroke="midnightblue" d="M492.85,-56.32C505.22,-47.98 524.13,-35.21 538.74,-25.35"/>
<polygon fill="midnightblue" stroke="midnightblue" points="540.85,-28.15 547.18,-19.65 536.93,-22.35 540.85,-28.15"/>
</g>
<!-- Node15 -->
<g id="node15" class="node">
<title>Node15</title>
<g id="a_node15"><a xlink:title=" ">
<polygon fill="none" stroke="#bfbfbf" points="614.5,-0.5 614.5,-19.5 707.5,-19.5 707.5,-0.5 614.5,-0.5"/>
<text text-anchor="middle" x="661" y="-7.5" font-family="Helvetica,sans-Serif" font-size="10.00">source_location</text>
</a>
</g>
</g>
<!-- Node10&#45;&gt;Node15 -->
<g id="edge16" class="edge">
<title>Node10&#45;&gt;Node15</title>
<path fill="none" stroke="midnightblue" d="M508.68,-56.44C539.53,-47.24 588.73,-32.56 622.83,-22.39"/>
<polygon fill="midnightblue" stroke="midnightblue" points="623.87,-25.73 632.45,-19.52 621.87,-19.02 623.87,-25.73"/>
</g>
</g>
</svg>
