<?xml version="1.0" encoding="UTF-8" standalone="no"?>
<!DOCTYPE svg PUBLIC "-//W3C//DTD SVG 1.1//EN"
 "http://www.w3.org/Graphics/SVG/1.1/DTD/svg11.dtd">
<!-- Generated by graphviz version 2.43.0 (0)
 -->
<!-- Title: src/core/peripherals/gpio.hpp Pages: 1 -->
<svg width="744pt" height="263pt"
 viewBox="0.00 0.00 743.50 263.00" xmlns="http://www.w3.org/2000/svg" xmlns:xlink="http://www.w3.org/1999/xlink">
<g id="graph0" class="graph" transform="scale(1 1) rotate(0) translate(4 259)">
<title>src/core/peripherals/gpio.hpp</title>
<!-- Node1 -->
<g id="node1" class="node">
<title>Node1</title>
<g id="a_node1"><a xlink:title=" ">
<polygon fill="#bfbfbf" stroke="black" points="400,-224.5 400,-254.5 513,-254.5 513,-224.5 400,-224.5"/>
<text text-anchor="start" x="408" y="-242.5" font-family="Helvetica,sans-Serif" font-size="10.00">src/core/peripherals</text>
<text text-anchor="middle" x="456.5" y="-231.5" font-family="Helvetica,sans-Serif" font-size="10.00">/gpio.hpp</text>
</a>
</g>
</g>
<!-- Node2 -->
<g id="node2" class="node">
<title>Node2</title>
<g id="a_node2"><a xlink:title=" ">
<polygon fill="none" stroke="#bfbfbf" points="103.5,-56.5 103.5,-75.5 145.5,-75.5 145.5,-56.5 103.5,-56.5"/>
<text text-anchor="middle" x="124.5" y="-63.5" font-family="Helvetica,sans-Serif" font-size="10.00">array</text>
</a>
</g>
</g>
<!-- Node1&#45;&gt;Node2 -->
<g id="edge1" class="edge">
<title>Node1&#45;&gt;Node2</title>
<path fill="none" stroke="midnightblue" d="M399.92,-234.5C328.59,-228.41 211.2,-214.62 177.5,-188 145.06,-162.38 132.03,-112.85 127.15,-85.78"/>
<polygon fill="midnightblue" stroke="midnightblue" points="130.58,-85.01 125.53,-75.69 123.66,-86.12 130.58,-85.01"/>
</g>
<!-- Node3 -->
<g id="node3" class="node">
<title>Node3</title>
<g id="a_node3"><a xlink:title=" ">
<polygon fill="none" stroke="#bfbfbf" points="488.5,-0.5 488.5,-19.5 546.5,-19.5 546.5,-0.5 488.5,-0.5"/>
<text text-anchor="middle" x="517.5" y="-7.5" font-family="Helvetica,sans-Serif" font-size="10.00">memory</text>
</a>
</g>
</g>
<!-- Node1&#45;&gt;Node3 -->
<g id="edge2" class="edge">
<title>Node1&#45;&gt;Node3</title>
<path fill="none" stroke="midnightblue" d="M460.32,-224.27C470.9,-184.81 500.6,-74.02 512.49,-29.68"/>
<polygon fill="midnightblue" stroke="midnightblue" points="515.9,-30.49 515.11,-19.93 509.14,-28.68 515.9,-30.49"/>
</g>
<!-- Node4 -->
<g id="node4" class="node">
<title>Node4</title>
<g id="a_node4"><a xlink:title=" ">
<polygon fill="none" stroke="#bfbfbf" points="503.5,-168.5 503.5,-187.5 547.5,-187.5 547.5,-168.5 503.5,-168.5"/>
<text text-anchor="middle" x="525.5" y="-175.5" font-family="Helvetica,sans-Serif" font-size="10.00">limits</text>
</a>
</g>
</g>
<!-- Node1&#45;&gt;Node4 -->
<g id="edge3" class="edge">
<title>Node1&#45;&gt;Node4</title>
<path fill="none" stroke="midnightblue" d="M472.85,-224.4C483.4,-215.31 497.1,-203.49 507.88,-194.19"/>
<polygon fill="midnightblue" stroke="midnightblue" points="510.17,-196.84 515.46,-187.66 505.6,-191.54 510.17,-196.84"/>
</g>
<!-- Node5 -->
<g id="node5" class="node">
<title>Node5</title>
<g id="a_node5"><a xlink:title=" ">
<polygon fill="none" stroke="#bfbfbf" points="566,-168.5 566,-187.5 631,-187.5 631,-168.5 566,-168.5"/>
<text text-anchor="middle" x="598.5" y="-175.5" font-family="Helvetica,sans-Serif" font-size="10.00">functional</text>
</a>
</g>
</g>
<!-- Node1&#45;&gt;Node5 -->
<g id="edge4" class="edge">
<title>Node1&#45;&gt;Node5</title>
<path fill="none" stroke="midnightblue" d="M490.15,-224.4C513.98,-214.42 545.65,-201.15 568.59,-191.53"/>
<polygon fill="midnightblue" stroke="midnightblue" points="569.97,-194.75 577.84,-187.66 567.26,-188.29 569.97,-194.75"/>
</g>
<!-- Node6 -->
<g id="node6" class="node">
<title>Node6</title>
<g id="a_node6"><a xlink:title=" ">
<polygon fill="none" stroke="#bfbfbf" points="649.5,-168.5 649.5,-187.5 735.5,-187.5 735.5,-168.5 649.5,-168.5"/>
<text text-anchor="middle" x="692.5" y="-175.5" font-family="Helvetica,sans-Serif" font-size="10.00">unordered_set</text>
</a>
</g>
</g>
<!-- Node1&#45;&gt;Node6 -->
<g id="edge5" class="edge">
<title>Node1&#45;&gt;Node6</title>
<path fill="none" stroke="midnightblue" d="M512.13,-224.47C553.91,-213.94 610.33,-199.72 648.88,-190"/>
<polygon fill="midnightblue" stroke="midnightblue" points="649.92,-193.34 658.76,-187.51 648.21,-186.56 649.92,-193.34"/>
</g>
<!-- Node7 -->
<g id="node7" class="node">
<title>Node7</title>
<g id="a_node7"><a xlink:href="peripheral_8hpp.html" target="_top" xlink:title=" ">
<polygon fill="none" stroke="black" points="0,-112.5 0,-131.5 87,-131.5 87,-112.5 0,-112.5"/>
<text text-anchor="middle" x="43.5" y="-119.5" font-family="Helvetica,sans-Serif" font-size="10.00">peripheral.hpp</text>
</a>
</g>
</g>
<!-- Node1&#45;&gt;Node7 -->
<g id="edge6" class="edge">
<title>Node1&#45;&gt;Node7</title>
<path fill="none" stroke="midnightblue" d="M399.68,-235.16C312.85,-229.26 151.92,-215.01 101.5,-188 80.96,-177 64.14,-155.71 54,-140.49"/>
<polygon fill="midnightblue" stroke="midnightblue" points="56.89,-138.51 48.58,-131.94 50.98,-142.26 56.89,-138.51"/>
</g>
<!-- Node9 -->
<g id="node9" class="node">
<title>Node9</title>
<g id="a_node9"><a xlink:href="interrupt__controller_8hpp.html" target="_top" xlink:title=" ">
<polygon fill="none" stroke="black" points="187,-168.5 187,-187.5 318,-187.5 318,-168.5 187,-168.5"/>
<text text-anchor="middle" x="252.5" y="-175.5" font-family="Helvetica,sans-Serif" font-size="10.00">interrupt_controller.hpp</text>
</a>
</g>
</g>
<!-- Node1&#45;&gt;Node9 -->
<g id="edge8" class="edge">
<title>Node1&#45;&gt;Node9</title>
<path fill="none" stroke="midnightblue" d="M408.41,-224.47C372.76,-214.08 324.77,-200.08 291.49,-190.37"/>
<polygon fill="midnightblue" stroke="midnightblue" points="292.24,-186.95 281.66,-187.51 290.28,-193.67 292.24,-186.95"/>
</g>
<!-- Node12 -->
<g id="node12" class="node">
<title>Node12</title>
<g id="a_node12"><a xlink:href="logger_8hpp.html" target="_top" xlink:title=" ">
<polygon fill="none" stroke="black" points="313.5,-56.5 313.5,-75.5 447.5,-75.5 447.5,-56.5 313.5,-56.5"/>
<text text-anchor="middle" x="380.5" y="-63.5" font-family="Helvetica,sans-Serif" font-size="10.00">../utils/logger/logger.hpp</text>
</a>
</g>
</g>
<!-- Node1&#45;&gt;Node12 -->
<g id="edge24" class="edge">
<title>Node1&#45;&gt;Node12</title>
<path fill="none" stroke="midnightblue" d="M450.28,-224.47C436.53,-193.44 403.57,-119.05 388.39,-84.81"/>
<polygon fill="midnightblue" stroke="midnightblue" points="391.54,-83.28 384.29,-75.56 385.14,-86.12 391.54,-83.28"/>
</g>
<!-- Node8 -->
<g id="node8" class="node">
<title>Node8</title>
<g id="a_node8"><a xlink:title=" ">
<polygon fill="none" stroke="#bfbfbf" points="85.5,-0.5 85.5,-19.5 135.5,-19.5 135.5,-0.5 85.5,-0.5"/>
<text text-anchor="middle" x="110.5" y="-7.5" font-family="Helvetica,sans-Serif" font-size="10.00">cstdint</text>
</a>
</g>
</g>
<!-- Node7&#45;&gt;Node8 -->
<g id="edge7" class="edge">
<title>Node7&#45;&gt;Node8</title>
<path fill="none" stroke="midnightblue" d="M48.76,-112.37C59.77,-94.3 85.42,-52.18 99.96,-28.31"/>
<polygon fill="midnightblue" stroke="midnightblue" points="103.05,-29.95 105.27,-19.59 97.08,-26.31 103.05,-29.95"/>
</g>
<!-- Node9&#45;&gt;Node2 -->
<g id="edge9" class="edge">
<title>Node9&#45;&gt;Node2</title>
<path fill="none" stroke="midnightblue" d="M242.46,-168.37C220.77,-149.73 169.34,-105.53 142.11,-82.13"/>
<polygon fill="midnightblue" stroke="midnightblue" points="144.36,-79.45 134.5,-75.59 139.8,-84.76 144.36,-79.45"/>
</g>
<!-- Node9&#45;&gt;Node7 -->
<g id="edge11" class="edge">
<title>Node9&#45;&gt;Node7</title>
<path fill="none" stroke="midnightblue" d="M219.38,-168.44C183.38,-159.14 125.73,-144.25 86.31,-134.06"/>
<polygon fill="midnightblue" stroke="midnightblue" points="87.02,-130.63 76.46,-131.52 85.27,-137.41 87.02,-130.63"/>
</g>
<!-- Node10 -->
<g id="node10" class="node">
<title>Node10</title>
<g id="a_node10"><a xlink:title=" ">
<polygon fill="none" stroke="#bfbfbf" points="164,-56.5 164,-75.5 257,-75.5 257,-56.5 164,-56.5"/>
<text text-anchor="middle" x="210.5" y="-63.5" font-family="Helvetica,sans-Serif" font-size="10.00">unordered_map</text>
</a>
</g>
</g>
<!-- Node9&#45;&gt;Node10 -->
<g id="edge10" class="edge">
<title>Node9&#45;&gt;Node10</title>
<path fill="none" stroke="midnightblue" d="M240.29,-168.24C230.15,-160.14 216.46,-147.11 210.5,-132 204.68,-117.24 205.25,-99.08 206.95,-85.71"/>
<polygon fill="midnightblue" stroke="midnightblue" points="210.42,-86.21 208.53,-75.79 203.5,-85.12 210.42,-86.21"/>
</g>
<!-- Node11 -->
<g id="node11" class="node">
<title>Node11</title>
<g id="a_node11"><a xlink:href="context_8hpp.html" target="_top" xlink:title=" ">
<polygon fill="none" stroke="black" points="219.5,-112.5 219.5,-131.5 371.5,-131.5 371.5,-112.5 219.5,-112.5"/>
<text text-anchor="middle" x="295.5" y="-119.5" font-family="Helvetica,sans-Serif" font-size="10.00">../arm1176jzf_s/context.hpp</text>
</a>
</g>
</g>
<!-- Node9&#45;&gt;Node11 -->
<g id="edge12" class="edge">
<title>Node9&#45;&gt;Node11</title>
<path fill="none" stroke="midnightblue" d="M259.6,-168.08C265.74,-160.38 274.77,-149.03 282.24,-139.65"/>
<polygon fill="midnightblue" stroke="midnightblue" points="285.04,-141.75 288.53,-131.75 279.56,-137.39 285.04,-141.75"/>
</g>
<!-- Node9&#45;&gt;Node12 -->
<g id="edge23" class="edge">
<title>Node9&#45;&gt;Node12</title>
<path fill="none" stroke="midnightblue" d="M318.31,-169.65C341.87,-163.49 366.13,-152.28 380.5,-132 389.97,-118.63 388.7,-99.52 385.82,-85.48"/>
<polygon fill="midnightblue" stroke="midnightblue" points="389.16,-84.37 383.35,-75.51 382.36,-86.06 389.16,-84.37"/>
</g>
<!-- Node11&#45;&gt;Node2 -->
<g id="edge13" class="edge">
<title>Node11&#45;&gt;Node2</title>
<path fill="none" stroke="midnightblue" d="M268.4,-112.44C237.64,-102.73 187.56,-86.91 155.33,-76.74"/>
<polygon fill="midnightblue" stroke="midnightblue" points="156.13,-73.32 145.54,-73.64 154.02,-79.99 156.13,-73.32"/>
</g>
<!-- Node11&#45;&gt;Node8 -->
<g id="edge14" class="edge">
<title>Node11&#45;&gt;Node8</title>
<path fill="none" stroke="midnightblue" d="M293.93,-112.46C290.92,-98.56 283.02,-71.08 265.5,-56 260.84,-51.99 189.85,-32.37 145.58,-20.39"/>
<polygon fill="midnightblue" stroke="midnightblue" points="146.33,-16.97 135.76,-17.75 144.51,-23.73 146.33,-16.97"/>
</g>
<!-- Node11&#45;&gt;Node10 -->
<g id="edge15" class="edge">
<title>Node11&#45;&gt;Node10</title>
<path fill="none" stroke="midnightblue" d="M281.84,-112.32C268.58,-103.9 248.23,-90.97 232.65,-81.07"/>
<polygon fill="midnightblue" stroke="midnightblue" points="234.44,-78.06 224.12,-75.65 230.69,-83.97 234.44,-78.06"/>
</g>
<!-- Node11&#45;&gt;Node12 -->
<g id="edge16" class="edge">
<title>Node11&#45;&gt;Node12</title>
<path fill="none" stroke="midnightblue" d="M309.16,-112.32C322.42,-103.9 342.77,-90.97 358.35,-81.07"/>
<polygon fill="midnightblue" stroke="midnightblue" points="360.31,-83.97 366.88,-75.65 356.56,-78.06 360.31,-83.97"/>
</g>
<!-- Node12&#45;&gt;Node3 -->
<g id="edge19" class="edge">
<title>Node12&#45;&gt;Node3</title>
<path fill="none" stroke="midnightblue" d="M402.21,-56.44C424.85,-47.52 460.57,-33.44 486.25,-23.32"/>
<polygon fill="midnightblue" stroke="midnightblue" points="487.87,-26.44 495.89,-19.52 485.31,-19.93 487.87,-26.44"/>
</g>
<!-- Node12&#45;&gt;Node8 -->
<g id="edge20" class="edge">
<title>Node12&#45;&gt;Node8</title>
<path fill="none" stroke="midnightblue" d="M330.11,-56.45C284.33,-48.45 214.75,-35.69 145.47,-20.1"/>
<polygon fill="midnightblue" stroke="midnightblue" points="146.23,-16.68 135.7,-17.88 144.68,-23.51 146.23,-16.68"/>
</g>
<!-- Node13 -->
<g id="node13" class="node">
<title>Node13</title>
<g id="a_node13"><a xlink:title=" ">
<polygon fill="none" stroke="#bfbfbf" points="356.5,-0.5 356.5,-19.5 404.5,-19.5 404.5,-0.5 356.5,-0.5"/>
<text text-anchor="middle" x="380.5" y="-7.5" font-family="Helvetica,sans-Serif" font-size="10.00">mutex</text>
</a>
</g>
</g>
<!-- Node12&#45;&gt;Node13 -->
<g id="edge17" class="edge">
<title>Node12&#45;&gt;Node13</title>
<path fill="none" stroke="midnightblue" d="M380.5,-56.08C380.5,-49.01 380.5,-38.86 380.5,-29.99"/>
<polygon fill="midnightblue" stroke="midnightblue" points="384,-29.75 380.5,-19.75 377,-29.75 384,-29.75"/>
</g>
<!-- Node14 -->
<g id="node14" class="node">
<title>Node14</title>
<g id="a_node14"><a xlink:title=" ">
<polygon fill="none" stroke="#bfbfbf" points="423,-0.5 423,-19.5 470,-19.5 470,-0.5 423,-0.5"/>
<text text-anchor="middle" x="446.5" y="-7.5" font-family="Helvetica,sans-Serif" font-size="10.00">vector</text>
</a>
</g>
</g>
<!-- Node12&#45;&gt;Node14 -->
<g id="edge18" class="edge">
<title>Node12&#45;&gt;Node14</title>
<path fill="none" stroke="midnightblue" d="M391.1,-56.32C400.96,-48.26 415.85,-36.08 427.72,-26.37"/>
<polygon fill="midnightblue" stroke="midnightblue" points="430.18,-28.88 435.7,-19.83 425.75,-23.46 430.18,-28.88"/>
</g>
<!-- Node15 -->
<g id="node15" class="node">
<title>Node15</title>
<g id="a_node15"><a xlink:title=" ">
<polygon fill="none" stroke="#bfbfbf" points="154,-0.5 154,-19.5 227,-19.5 227,-0.5 154,-0.5"/>
<text text-anchor="middle" x="190.5" y="-7.5" font-family="Helvetica,sans-Serif" font-size="10.00">string_view</text>
</a>
</g>
</g>
<!-- Node12&#45;&gt;Node15 -->
<g id="edge21" class="edge">
<title>Node12&#45;&gt;Node15</title>
<path fill="none" stroke="midnightblue" d="M350.39,-56.44C317.87,-47.2 265.92,-32.44 230.11,-22.26"/>
<polygon fill="midnightblue" stroke="midnightblue" points="231.04,-18.88 220.47,-19.52 229.13,-25.62 231.04,-18.88"/>
</g>
<!-- Node16 -->
<g id="node16" class="node">
<title>Node16</title>
<g id="a_node16"><a xlink:title=" ">
<polygon fill="none" stroke="#bfbfbf" points="245,-0.5 245,-19.5 338,-19.5 338,-0.5 245,-0.5"/>
<text text-anchor="middle" x="291.5" y="-7.5" font-family="Helvetica,sans-Serif" font-size="10.00">source_location</text>
</a>
</g>
</g>
<!-- Node12&#45;&gt;Node16 -->
<g id="edge22" class="edge">
<title>Node12&#45;&gt;Node16</title>
<path fill="none" stroke="midnightblue" d="M366.2,-56.32C352.32,-47.9 331.01,-34.97 314.7,-25.07"/>
<polygon fill="midnightblue" stroke="midnightblue" points="316.13,-21.85 305.76,-19.65 312.5,-27.83 316.13,-21.85"/>
</g>
</g>
</svg>
