<?xml version="1.0" encoding="UTF-8" standalone="no"?>
<!DOCTYPE svg PUBLIC "-//W3C//DTD SVG 1.1//EN"
 "http://www.w3.org/Graphics/SVG/1.1/DTD/svg11.dtd">
<!-- Generated by graphviz version 2.43.0 (0)
 -->
<!-- Title: src/core/peripherals/gpio.hpp Pages: 1 -->
<svg width="520pt" height="173pt"
 viewBox="0.00 0.00 519.50 173.00" xmlns="http://www.w3.org/2000/svg" xmlns:xlink="http://www.w3.org/1999/xlink">
<g id="graph0" class="graph" transform="scale(1 1) rotate(0) translate(4 169)">
<title>src/core/peripherals/gpio.hpp</title>
<!-- Node1 -->
<g id="node1" class="node">
<title>Node1</title>
<g id="a_node1"><a xlink:title="This file defines the GPIO controller used in BCM2835.">
<polygon fill="#bfbfbf" stroke="black" points="154,-134.5 154,-164.5 267,-164.5 267,-134.5 154,-134.5"/>
<text text-anchor="start" x="162" y="-152.5" font-family="Helvetica,sans-Serif" font-size="10.00">src/core/peripherals</text>
<text text-anchor="middle" x="210.5" y="-141.5" font-family="Helvetica,sans-Serif" font-size="10.00">/gpio.hpp</text>
</a>
</g>
</g>
<!-- Node2 -->
<g id="node2" class="node">
<title>Node2</title>
<g id="a_node2"><a xlink:href="gpio_8cpp.html" target="_top" xlink:title="This file implements the GPIO controller used in BCM2835 (defined in gpio.hpp).">
<polygon fill="none" stroke="black" points="0,-67.5 0,-97.5 113,-97.5 113,-67.5 0,-67.5"/>
<text text-anchor="start" x="8" y="-85.5" font-family="Helvetica,sans-Serif" font-size="10.00">src/core/peripherals</text>
<text text-anchor="middle" x="56.5" y="-74.5" font-family="Helvetica,sans-Serif" font-size="10.00">/gpio.cpp</text>
</a>
</g>
</g>
<!-- Node1&#45;&gt;Node2 -->
<g id="edge1" class="edge">
<title>Node1&#45;&gt;Node2</title>
<path fill="none" stroke="midnightblue" d="M167.63,-130.41C143.05,-120.03 112.64,-107.2 89.85,-97.58"/>
<polygon fill="midnightblue" stroke="midnightblue" points="166.51,-133.73 177.08,-134.4 169.23,-127.28 166.51,-133.73"/>
</g>
<!-- Node3 -->
<g id="node3" class="node">
<title>Node3</title>
<g id="a_node3"><a xlink:href="button__window_8hpp.html" target="_top" xlink:title=" ">
<polygon fill="none" stroke="black" points="131.5,-67.5 131.5,-97.5 289.5,-97.5 289.5,-67.5 131.5,-67.5"/>
<text text-anchor="start" x="139.5" y="-85.5" font-family="Helvetica,sans-Serif" font-size="10.00">src/gui/windows/peripherals</text>
<text text-anchor="middle" x="210.5" y="-74.5" font-family="Helvetica,sans-Serif" font-size="10.00">/external/button_window.hpp</text>
</a>
</g>
</g>
<!-- Node1&#45;&gt;Node3 -->
<g id="edge2" class="edge">
<title>Node1&#45;&gt;Node3</title>
<path fill="none" stroke="midnightblue" d="M210.5,-124.11C210.5,-115.15 210.5,-105.32 210.5,-97.58"/>
<polygon fill="midnightblue" stroke="midnightblue" points="207,-124.4 210.5,-134.4 214,-124.4 207,-124.4"/>
</g>
<!-- Node6 -->
<g id="node6" class="node">
<title>Node6</title>
<g id="a_node6"><a xlink:href="gpio__window_8hpp.html" target="_top" xlink:title=" ">
<polygon fill="none" stroke="black" points="307.5,-67.5 307.5,-97.5 459.5,-97.5 459.5,-67.5 307.5,-67.5"/>
<text text-anchor="start" x="315.5" y="-85.5" font-family="Helvetica,sans-Serif" font-size="10.00">src/gui/windows/peripherals</text>
<text text-anchor="middle" x="383.5" y="-74.5" font-family="Helvetica,sans-Serif" font-size="10.00">/gpio_window.hpp</text>
</a>
</g>
</g>
<!-- Node1&#45;&gt;Node6 -->
<g id="edge5" class="edge">
<title>Node1&#45;&gt;Node6</title>
<path fill="none" stroke="midnightblue" d="M257.56,-130.82C285.37,-120.37 320.09,-107.32 346.03,-97.58"/>
<polygon fill="midnightblue" stroke="midnightblue" points="256.17,-127.6 248.04,-134.4 258.63,-134.16 256.17,-127.6"/>
</g>
<!-- Node4 -->
<g id="node4" class="node">
<title>Node4</title>
<g id="a_node4"><a xlink:href="gui_8cpp.html" target="_top" xlink:title=" ">
<polygon fill="none" stroke="black" points="254,-6 254,-25 341,-25 341,-6 254,-6"/>
<text text-anchor="middle" x="297.5" y="-13" font-family="Helvetica,sans-Serif" font-size="10.00">src/gui/gui.cpp</text>
</a>
</g>
</g>
<!-- Node3&#45;&gt;Node4 -->
<g id="edge3" class="edge">
<title>Node3&#45;&gt;Node4</title>
<path fill="none" stroke="midnightblue" d="M237.48,-61.34C253.72,-49.21 273.56,-34.39 285.86,-25.19"/>
<polygon fill="midnightblue" stroke="midnightblue" points="235.29,-58.61 229.38,-67.4 239.48,-64.21 235.29,-58.61"/>
</g>
<!-- Node5 -->
<g id="node5" class="node">
<title>Node5</title>
<g id="a_node5"><a xlink:href="button__window_8cpp.html" target="_top" xlink:title=" ">
<polygon fill="none" stroke="black" points="79,-0.5 79,-30.5 236,-30.5 236,-0.5 79,-0.5"/>
<text text-anchor="start" x="87" y="-18.5" font-family="Helvetica,sans-Serif" font-size="10.00">src/gui/windows/peripherals</text>
<text text-anchor="middle" x="157.5" y="-7.5" font-family="Helvetica,sans-Serif" font-size="10.00">/external/button_window.cpp</text>
</a>
</g>
</g>
<!-- Node3&#45;&gt;Node5 -->
<g id="edge4" class="edge">
<title>Node3&#45;&gt;Node5</title>
<path fill="none" stroke="midnightblue" d="M192.52,-59.45C184.73,-49.9 175.85,-39 168.98,-30.58"/>
<polygon fill="midnightblue" stroke="midnightblue" points="189.97,-61.86 199,-67.4 195.39,-57.43 189.97,-61.86"/>
</g>
<!-- Node6&#45;&gt;Node4 -->
<g id="edge6" class="edge">
<title>Node6&#45;&gt;Node4</title>
<path fill="none" stroke="midnightblue" d="M356.83,-61.34C340.78,-49.21 321.17,-34.39 309,-25.19"/>
<polygon fill="midnightblue" stroke="midnightblue" points="354.75,-64.16 364.84,-67.4 358.97,-58.57 354.75,-64.16"/>
</g>
<!-- Node7 -->
<g id="node7" class="node">
<title>Node7</title>
<g id="a_node7"><a xlink:href="gpio__window_8cpp.html" target="_top" xlink:title=" ">
<polygon fill="none" stroke="black" points="359.5,-0.5 359.5,-30.5 511.5,-30.5 511.5,-0.5 359.5,-0.5"/>
<text text-anchor="start" x="367.5" y="-18.5" font-family="Helvetica,sans-Serif" font-size="10.00">src/gui/windows/peripherals</text>
<text text-anchor="middle" x="435.5" y="-7.5" font-family="Helvetica,sans-Serif" font-size="10.00">/gpio_window.cpp</text>
</a>
</g>
</g>
<!-- Node6&#45;&gt;Node7 -->
<g id="edge7" class="edge">
<title>Node6&#45;&gt;Node7</title>
<path fill="none" stroke="midnightblue" d="M401.14,-59.45C408.78,-49.9 417.5,-39 424.24,-30.58"/>
<polygon fill="midnightblue" stroke="midnightblue" points="398.3,-57.4 394.78,-67.4 403.76,-61.77 398.3,-57.4"/>
</g>
</g>
</svg>
