<?xml version="1.0" encoding="UTF-8" standalone="no"?>
<!DOCTYPE svg PUBLIC "-//W3C//DTD SVG 1.1//EN"
 "http://www.w3.org/Graphics/SVG/1.1/DTD/svg11.dtd">
<!-- Generated by graphviz version 2.43.0 (0)
 -->
<!-- Title: src/core/peripherals/gpio.hpp Pages: 1 -->
<svg width="801pt" height="263pt"
 viewBox="0.00 0.00 801.00 263.00" xmlns="http://www.w3.org/2000/svg" xmlns:xlink="http://www.w3.org/1999/xlink">
<g id="graph0" class="graph" transform="scale(1 1) rotate(0) translate(4 259)">
<title>src/core/peripherals/gpio.hpp</title>
<!-- Node1 -->
<g id="node1" class="node">
<title>Node1</title>
<g id="a_node1"><a xlink:title=" ">
<polygon fill="#bfbfbf" stroke="black" points="457.5,-224.5 457.5,-254.5 570.5,-254.5 570.5,-224.5 457.5,-224.5"/>
<text text-anchor="start" x="465.5" y="-242.5" font-family="Helvetica,sans-Serif" font-size="10.00">src/core/peripherals</text>
<text text-anchor="middle" x="514" y="-231.5" font-family="Helvetica,sans-Serif" font-size="10.00">/gpio.hpp</text>
</a>
</g>
</g>
<!-- Node2 -->
<g id="node2" class="node">
<title>Node2</title>
<g id="a_node2"><a xlink:title=" ">
<polygon fill="none" stroke="#bfbfbf" points="0,-112.5 0,-131.5 42,-131.5 42,-112.5 0,-112.5"/>
<text text-anchor="middle" x="21" y="-119.5" font-family="Helvetica,sans-Serif" font-size="10.00">array</text>
</a>
</g>
</g>
<!-- Node1&#45;&gt;Node2 -->
<g id="edge1" class="edge">
<title>Node1&#45;&gt;Node2</title>
<path fill="none" stroke="midnightblue" d="M457.47,-232.67C394.09,-225.38 288.58,-210.99 200,-188 145.97,-173.98 85.35,-150.18 50.33,-135.6"/>
<polygon fill="midnightblue" stroke="midnightblue" points="51.32,-132.22 40.74,-131.57 48.61,-138.67 51.32,-132.22"/>
</g>
<!-- Node3 -->
<g id="node3" class="node">
<title>Node3</title>
<g id="a_node3"><a xlink:title=" ">
<polygon fill="none" stroke="#bfbfbf" points="504,-0.5 504,-19.5 562,-19.5 562,-0.5 504,-0.5"/>
<text text-anchor="middle" x="533" y="-7.5" font-family="Helvetica,sans-Serif" font-size="10.00">memory</text>
</a>
</g>
</g>
<!-- Node1&#45;&gt;Node3 -->
<g id="edge2" class="edge">
<title>Node1&#45;&gt;Node3</title>
<path fill="none" stroke="midnightblue" d="M515.19,-224.27C518.48,-184.89 527.7,-74.49 531.42,-29.97"/>
<polygon fill="midnightblue" stroke="midnightblue" points="534.91,-30.18 532.25,-19.93 527.93,-29.6 534.91,-30.18"/>
</g>
<!-- Node4 -->
<g id="node4" class="node">
<title>Node4</title>
<g id="a_node4"><a xlink:title=" ">
<polygon fill="none" stroke="#bfbfbf" points="561,-168.5 561,-187.5 605,-187.5 605,-168.5 561,-168.5"/>
<text text-anchor="middle" x="583" y="-175.5" font-family="Helvetica,sans-Serif" font-size="10.00">limits</text>
</a>
</g>
</g>
<!-- Node1&#45;&gt;Node4 -->
<g id="edge3" class="edge">
<title>Node1&#45;&gt;Node4</title>
<path fill="none" stroke="midnightblue" d="M530.35,-224.4C540.9,-215.31 554.6,-203.49 565.38,-194.19"/>
<polygon fill="midnightblue" stroke="midnightblue" points="567.67,-196.84 572.96,-187.66 563.1,-191.54 567.67,-196.84"/>
</g>
<!-- Node5 -->
<g id="node5" class="node">
<title>Node5</title>
<g id="a_node5"><a xlink:title=" ">
<polygon fill="none" stroke="#bfbfbf" points="623.5,-168.5 623.5,-187.5 688.5,-187.5 688.5,-168.5 623.5,-168.5"/>
<text text-anchor="middle" x="656" y="-175.5" font-family="Helvetica,sans-Serif" font-size="10.00">functional</text>
</a>
</g>
</g>
<!-- Node1&#45;&gt;Node5 -->
<g id="edge4" class="edge">
<title>Node1&#45;&gt;Node5</title>
<path fill="none" stroke="midnightblue" d="M547.65,-224.4C571.48,-214.42 603.15,-201.15 626.09,-191.53"/>
<polygon fill="midnightblue" stroke="midnightblue" points="627.47,-194.75 635.34,-187.66 624.76,-188.29 627.47,-194.75"/>
</g>
<!-- Node6 -->
<g id="node6" class="node">
<title>Node6</title>
<g id="a_node6"><a xlink:title=" ">
<polygon fill="none" stroke="#bfbfbf" points="707,-168.5 707,-187.5 793,-187.5 793,-168.5 707,-168.5"/>
<text text-anchor="middle" x="750" y="-175.5" font-family="Helvetica,sans-Serif" font-size="10.00">unordered_set</text>
</a>
</g>
</g>
<!-- Node1&#45;&gt;Node6 -->
<g id="edge5" class="edge">
<title>Node1&#45;&gt;Node6</title>
<path fill="none" stroke="midnightblue" d="M569.63,-224.47C611.41,-213.94 667.83,-199.72 706.38,-190"/>
<polygon fill="midnightblue" stroke="midnightblue" points="707.42,-193.34 716.26,-187.51 705.71,-186.56 707.42,-193.34"/>
</g>
<!-- Node7 -->
<g id="node7" class="node">
<title>Node7</title>
<g id="a_node7"><a xlink:href="peripheral_8hpp.html" target="_top" xlink:title=" ">
<polygon fill="none" stroke="black" points="60.5,-112.5 60.5,-131.5 147.5,-131.5 147.5,-112.5 60.5,-112.5"/>
<text text-anchor="middle" x="104" y="-119.5" font-family="Helvetica,sans-Serif" font-size="10.00">peripheral.hpp</text>
</a>
</g>
</g>
<!-- Node1&#45;&gt;Node7 -->
<g id="edge6" class="edge">
<title>Node1&#45;&gt;Node7</title>
<path fill="none" stroke="midnightblue" d="M457.34,-231.12C404.08,-223.33 322.52,-209.22 254,-188 208.94,-174.04 159.16,-150.81 129.78,-136.23"/>
<polygon fill="midnightblue" stroke="midnightblue" points="131.15,-133 120.64,-131.64 128.01,-139.25 131.15,-133"/>
</g>
<!-- Node9 -->
<g id="node9" class="node">
<title>Node9</title>
<g id="a_node9"><a xlink:href="interrupt__controller_8hpp.html" target="_top" xlink:title=" ">
<polygon fill="none" stroke="black" points="262.5,-168.5 262.5,-187.5 393.5,-187.5 393.5,-168.5 262.5,-168.5"/>
<text text-anchor="middle" x="328" y="-175.5" font-family="Helvetica,sans-Serif" font-size="10.00">interrupt_controller.hpp</text>
</a>
</g>
</g>
<!-- Node1&#45;&gt;Node9 -->
<g id="edge8" class="edge">
<title>Node1&#45;&gt;Node9</title>
<path fill="none" stroke="midnightblue" d="M469.92,-224.4C437.78,-214.12 394.74,-200.35 364.52,-190.68"/>
<polygon fill="midnightblue" stroke="midnightblue" points="365.38,-187.28 354.79,-187.57 363.25,-193.95 365.38,-187.28"/>
</g>
<!-- Node12 -->
<g id="node12" class="node">
<title>Node12</title>
<g id="a_node12"><a xlink:href="logger_8hpp.html" target="_top" xlink:title=" ">
<polygon fill="none" stroke="black" points="329,-56.5 329,-75.5 463,-75.5 463,-56.5 329,-56.5"/>
<text text-anchor="middle" x="396" y="-63.5" font-family="Helvetica,sans-Serif" font-size="10.00">../utils/logger/logger.hpp</text>
</a>
</g>
</g>
<!-- Node1&#45;&gt;Node12 -->
<g id="edge21" class="edge">
<title>Node1&#45;&gt;Node12</title>
<path fill="none" stroke="midnightblue" d="M509.58,-224.43C501.34,-199.77 481.83,-147.95 453,-112 443.42,-100.05 430.09,-89.3 418.73,-81.31"/>
<polygon fill="midnightblue" stroke="midnightblue" points="420.4,-78.22 410.15,-75.52 416.48,-84.02 420.4,-78.22"/>
</g>
<!-- Node8 -->
<g id="node8" class="node">
<title>Node8</title>
<g id="a_node8"><a xlink:title=" ">
<polygon fill="none" stroke="#bfbfbf" points="96,-0.5 96,-19.5 146,-19.5 146,-0.5 96,-0.5"/>
<text text-anchor="middle" x="121" y="-7.5" font-family="Helvetica,sans-Serif" font-size="10.00">cstdint</text>
</a>
</g>
</g>
<!-- Node7&#45;&gt;Node8 -->
<g id="edge7" class="edge">
<title>Node7&#45;&gt;Node8</title>
<path fill="none" stroke="midnightblue" d="M105.33,-112.37C108.08,-94.62 114.41,-53.67 118.13,-29.6"/>
<polygon fill="midnightblue" stroke="midnightblue" points="121.6,-30.01 119.67,-19.59 114.69,-28.94 121.6,-30.01"/>
</g>
<!-- Node9&#45;&gt;Node2 -->
<g id="edge9" class="edge">
<title>Node9&#45;&gt;Node2</title>
<path fill="none" stroke="midnightblue" d="M262.33,-168.79C208.22,-161.47 129.37,-149.51 52.11,-132.01"/>
<polygon fill="midnightblue" stroke="midnightblue" points="52.74,-128.57 42.21,-129.74 51.18,-135.39 52.74,-128.57"/>
</g>
<!-- Node9&#45;&gt;Node7 -->
<g id="edge11" class="edge">
<title>Node9&#45;&gt;Node7</title>
<path fill="none" stroke="midnightblue" d="M292.51,-168.44C253.68,-159.08 191.34,-144.06 149.08,-133.87"/>
<polygon fill="midnightblue" stroke="midnightblue" points="149.87,-130.46 139.33,-131.52 148.23,-137.26 149.87,-130.46"/>
</g>
<!-- Node10 -->
<g id="node10" class="node">
<title>Node10</title>
<g id="a_node10"><a xlink:title=" ">
<polygon fill="none" stroke="#bfbfbf" points="165.5,-112.5 165.5,-131.5 258.5,-131.5 258.5,-112.5 165.5,-112.5"/>
<text text-anchor="middle" x="212" y="-119.5" font-family="Helvetica,sans-Serif" font-size="10.00">unordered_map</text>
</a>
</g>
</g>
<!-- Node9&#45;&gt;Node10 -->
<g id="edge10" class="edge">
<title>Node9&#45;&gt;Node10</title>
<path fill="none" stroke="midnightblue" d="M309.62,-168.44C290.78,-159.68 261.27,-145.94 239.62,-135.86"/>
<polygon fill="midnightblue" stroke="midnightblue" points="240.84,-132.56 230.29,-131.52 237.88,-138.91 240.84,-132.56"/>
</g>
<!-- Node11 -->
<g id="node11" class="node">
<title>Node11</title>
<g id="a_node11"><a xlink:href="context_8hpp.html" target="_top" xlink:title="This file defines the context (registers) of the CPU.">
<polygon fill="none" stroke="black" points="277,-112.5 277,-131.5 429,-131.5 429,-112.5 277,-112.5"/>
<text text-anchor="middle" x="353" y="-119.5" font-family="Helvetica,sans-Serif" font-size="10.00">../arm1176jzf_s/context.hpp</text>
</a>
</g>
</g>
<!-- Node9&#45;&gt;Node11 -->
<g id="edge12" class="edge">
<title>Node9&#45;&gt;Node11</title>
<path fill="none" stroke="midnightblue" d="M332.13,-168.08C335.51,-160.77 340.42,-150.18 344.62,-141.1"/>
<polygon fill="midnightblue" stroke="midnightblue" points="347.92,-142.3 348.95,-131.75 341.57,-139.36 347.92,-142.3"/>
</g>
<!-- Node9&#45;&gt;Node12 -->
<g id="edge20" class="edge">
<title>Node9&#45;&gt;Node12</title>
<path fill="none" stroke="midnightblue" d="M381.32,-168.43C402.66,-162.1 425.18,-151.1 438,-132 449.42,-115 432.35,-95.2 416.67,-81.96"/>
<polygon fill="midnightblue" stroke="midnightblue" points="418.76,-79.15 408.75,-75.68 414.41,-84.64 418.76,-79.15"/>
</g>
<!-- Node11&#45;&gt;Node12 -->
<g id="edge13" class="edge">
<title>Node11&#45;&gt;Node12</title>
<path fill="none" stroke="midnightblue" d="M360.1,-112.08C366.24,-104.38 375.27,-93.03 382.74,-83.65"/>
<polygon fill="midnightblue" stroke="midnightblue" points="385.54,-85.75 389.03,-75.75 380.06,-81.39 385.54,-85.75"/>
</g>
<!-- Node12&#45;&gt;Node3 -->
<g id="edge16" class="edge">
<title>Node12&#45;&gt;Node3</title>
<path fill="none" stroke="midnightblue" d="M417.71,-56.44C440.35,-47.52 476.07,-33.44 501.75,-23.32"/>
<polygon fill="midnightblue" stroke="midnightblue" points="503.37,-26.44 511.39,-19.52 500.81,-19.93 503.37,-26.44"/>
</g>
<!-- Node12&#45;&gt;Node8 -->
<g id="edge17" class="edge">
<title>Node12&#45;&gt;Node8</title>
<path fill="none" stroke="midnightblue" d="M348.43,-56.48C300.69,-47.81 225.1,-33.71 160,-20 158.74,-19.73 157.45,-19.46 156.16,-19.18"/>
<polygon fill="midnightblue" stroke="midnightblue" points="156.67,-15.71 146.14,-16.95 155.15,-22.54 156.67,-15.71"/>
</g>
<!-- Node13 -->
<g id="node13" class="node">
<title>Node13</title>
<g id="a_node13"><a xlink:title=" ">
<polygon fill="none" stroke="#bfbfbf" points="372,-0.5 372,-19.5 420,-19.5 420,-0.5 372,-0.5"/>
<text text-anchor="middle" x="396" y="-7.5" font-family="Helvetica,sans-Serif" font-size="10.00">mutex</text>
</a>
</g>
</g>
<!-- Node12&#45;&gt;Node13 -->
<g id="edge14" class="edge">
<title>Node12&#45;&gt;Node13</title>
<path fill="none" stroke="midnightblue" d="M396,-56.08C396,-49.01 396,-38.86 396,-29.99"/>
<polygon fill="midnightblue" stroke="midnightblue" points="399.5,-29.75 396,-19.75 392.5,-29.75 399.5,-29.75"/>
</g>
<!-- Node14 -->
<g id="node14" class="node">
<title>Node14</title>
<g id="a_node14"><a xlink:title=" ">
<polygon fill="none" stroke="#bfbfbf" points="438.5,-0.5 438.5,-19.5 485.5,-19.5 485.5,-0.5 438.5,-0.5"/>
<text text-anchor="middle" x="462" y="-7.5" font-family="Helvetica,sans-Serif" font-size="10.00">vector</text>
</a>
</g>
</g>
<!-- Node12&#45;&gt;Node14 -->
<g id="edge15" class="edge">
<title>Node12&#45;&gt;Node14</title>
<path fill="none" stroke="midnightblue" d="M406.6,-56.32C416.46,-48.26 431.35,-36.08 443.22,-26.37"/>
<polygon fill="midnightblue" stroke="midnightblue" points="445.68,-28.88 451.2,-19.83 441.25,-23.46 445.68,-28.88"/>
</g>
<!-- Node15 -->
<g id="node15" class="node">
<title>Node15</title>
<g id="a_node15"><a xlink:title=" ">
<polygon fill="none" stroke="#bfbfbf" points="169.5,-0.5 169.5,-19.5 242.5,-19.5 242.5,-0.5 169.5,-0.5"/>
<text text-anchor="middle" x="206" y="-7.5" font-family="Helvetica,sans-Serif" font-size="10.00">string_view</text>
</a>
</g>
</g>
<!-- Node12&#45;&gt;Node15 -->
<g id="edge18" class="edge">
<title>Node12&#45;&gt;Node15</title>
<path fill="none" stroke="midnightblue" d="M365.89,-56.44C333.37,-47.2 281.42,-32.44 245.61,-22.26"/>
<polygon fill="midnightblue" stroke="midnightblue" points="246.54,-18.88 235.97,-19.52 244.63,-25.62 246.54,-18.88"/>
</g>
<!-- Node16 -->
<g id="node16" class="node">
<title>Node16</title>
<g id="a_node16"><a xlink:title=" ">
<polygon fill="none" stroke="#bfbfbf" points="260.5,-0.5 260.5,-19.5 353.5,-19.5 353.5,-0.5 260.5,-0.5"/>
<text text-anchor="middle" x="307" y="-7.5" font-family="Helvetica,sans-Serif" font-size="10.00">source_location</text>
</a>
</g>
</g>
<!-- Node12&#45;&gt;Node16 -->
<g id="edge19" class="edge">
<title>Node12&#45;&gt;Node16</title>
<path fill="none" stroke="midnightblue" d="M381.7,-56.32C367.82,-47.9 346.51,-34.97 330.2,-25.07"/>
<polygon fill="midnightblue" stroke="midnightblue" points="331.63,-21.85 321.26,-19.65 328,-27.83 331.63,-21.85"/>
</g>
</g>
</svg>
