<?xml version="1.0" encoding="UTF-8" standalone="no"?>
<!DOCTYPE svg PUBLIC "-//W3C//DTD SVG 1.1//EN"
 "http://www.w3.org/Graphics/SVG/1.1/DTD/svg11.dtd">
<!-- Generated by graphviz version 2.43.0 (0)
 -->
<!-- Title: src/core/peripherals/gpio.cpp Pages: 1 -->
<svg width="563pt" height="263pt"
 viewBox="0.00 0.00 562.50 263.00" xmlns="http://www.w3.org/2000/svg" xmlns:xlink="http://www.w3.org/1999/xlink">
<g id="graph0" class="graph" transform="scale(1 1) rotate(0) translate(4 259)">
<title>src/core/peripherals/gpio.cpp</title>
<!-- Node1 -->
<g id="node1" class="node">
<title>Node1</title>
<g id="a_node1"><a xlink:title="This file implements the GPIO controller used in BCM2835 (defined in gpio.hpp).">
<polygon fill="#bfbfbf" stroke="black" points="220,-224.5 220,-254.5 333,-254.5 333,-224.5 220,-224.5"/>
<text text-anchor="start" x="228" y="-242.5" font-family="Helvetica,sans-Serif" font-size="10.00">src/core/peripherals</text>
<text text-anchor="middle" x="276.5" y="-231.5" font-family="Helvetica,sans-Serif" font-size="10.00">/gpio.cpp</text>
</a>
</g>
</g>
<!-- Node2 -->
<g id="node2" class="node">
<title>Node2</title>
<g id="a_node2"><a xlink:title=" ">
<polygon fill="none" stroke="#bfbfbf" points="31,-168.5 31,-187.5 110,-187.5 110,-168.5 31,-168.5"/>
<text text-anchor="middle" x="70.5" y="-175.5" font-family="Helvetica,sans-Serif" font-size="10.00">fmt/format.h</text>
</a>
</g>
</g>
<!-- Node1&#45;&gt;Node2 -->
<g id="edge1" class="edge">
<title>Node1&#45;&gt;Node2</title>
<path fill="none" stroke="midnightblue" d="M227.94,-224.47C191.94,-214.08 143.48,-200.08 109.87,-190.37"/>
<polygon fill="midnightblue" stroke="midnightblue" points="110.53,-186.92 99.95,-187.51 108.59,-193.64 110.53,-186.92"/>
</g>
<!-- Node3 -->
<g id="node3" class="node">
<title>Node3</title>
<g id="a_node3"><a xlink:title=" ">
<polygon fill="none" stroke="#bfbfbf" points="128,-168.5 128,-187.5 229,-187.5 229,-168.5 128,-168.5"/>
<text text-anchor="middle" x="178.5" y="-175.5" font-family="Helvetica,sans-Serif" font-size="10.00">magic_enum.hpp</text>
</a>
</g>
</g>
<!-- Node1&#45;&gt;Node3 -->
<g id="edge2" class="edge">
<title>Node1&#45;&gt;Node3</title>
<path fill="none" stroke="midnightblue" d="M253.28,-224.4C237.71,-214.95 217.3,-202.56 201.74,-193.11"/>
<polygon fill="midnightblue" stroke="midnightblue" points="203.12,-189.86 192.76,-187.66 199.49,-195.84 203.12,-189.86"/>
</g>
<!-- Node4 -->
<g id="node4" class="node">
<title>Node4</title>
<g id="a_node4"><a xlink:href="gpio_8hpp.html" target="_top" xlink:title="This file defines the GPIO controller used in BCM2835.">
<polygon fill="none" stroke="black" points="247,-168.5 247,-187.5 306,-187.5 306,-168.5 247,-168.5"/>
<text text-anchor="middle" x="276.5" y="-175.5" font-family="Helvetica,sans-Serif" font-size="10.00">gpio.hpp</text>
</a>
</g>
</g>
<!-- Node1&#45;&gt;Node4 -->
<g id="edge3" class="edge">
<title>Node1&#45;&gt;Node4</title>
<path fill="none" stroke="midnightblue" d="M276.5,-224.4C276.5,-216.47 276.5,-206.46 276.5,-197.86"/>
<polygon fill="midnightblue" stroke="midnightblue" points="280,-197.66 276.5,-187.66 273,-197.66 280,-197.66"/>
</g>
<!-- Node10 -->
<g id="node10" class="node">
<title>Node10</title>
<g id="a_node10"><a xlink:href="math_8hpp.html" target="_top" xlink:title="This file defines and implements a variety of handy helper functions that are used throughout the pro...">
<polygon fill="none" stroke="black" points="324.5,-168.5 324.5,-187.5 420.5,-187.5 420.5,-168.5 324.5,-168.5"/>
<text text-anchor="middle" x="372.5" y="-175.5" font-family="Helvetica,sans-Serif" font-size="10.00">../utils/math.hpp</text>
</a>
</g>
</g>
<!-- Node1&#45;&gt;Node10 -->
<g id="edge12" class="edge">
<title>Node1&#45;&gt;Node10</title>
<path fill="none" stroke="midnightblue" d="M299.25,-224.4C314.49,-214.95 334.49,-202.56 349.74,-193.11"/>
<polygon fill="midnightblue" stroke="midnightblue" points="351.88,-195.9 358.53,-187.66 348.19,-189.95 351.88,-195.9"/>
</g>
<!-- Node11 -->
<g id="node11" class="node">
<title>Node11</title>
<g id="a_node11"><a xlink:href="singleton_8hpp.html" target="_top" xlink:title="This file defines and implements a generic class that is used to treat other classes as singletons.">
<polygon fill="none" stroke="black" points="438.5,-168.5 438.5,-187.5 554.5,-187.5 554.5,-168.5 438.5,-168.5"/>
<text text-anchor="middle" x="496.5" y="-175.5" font-family="Helvetica,sans-Serif" font-size="10.00">../utils/singleton.hpp</text>
</a>
</g>
</g>
<!-- Node1&#45;&gt;Node11 -->
<g id="edge13" class="edge">
<title>Node1&#45;&gt;Node11</title>
<path fill="none" stroke="midnightblue" d="M328.36,-224.47C367.14,-213.99 419.46,-199.84 455.38,-190.12"/>
<polygon fill="midnightblue" stroke="midnightblue" points="456.31,-193.5 465.05,-187.51 454.48,-186.74 456.31,-193.5"/>
</g>
<!-- Node5 -->
<g id="node5" class="node">
<title>Node5</title>
<g id="a_node5"><a xlink:href="peripheral_8hpp.html" target="_top" xlink:title="This file defines an interface for a memory&#45;mapped peripheral.">
<polygon fill="none" stroke="black" points="0,-56.5 0,-75.5 87,-75.5 87,-56.5 0,-56.5"/>
<text text-anchor="middle" x="43.5" y="-63.5" font-family="Helvetica,sans-Serif" font-size="10.00">peripheral.hpp</text>
</a>
</g>
</g>
<!-- Node4&#45;&gt;Node5 -->
<g id="edge4" class="edge">
<title>Node4&#45;&gt;Node5</title>
<path fill="none" stroke="midnightblue" d="M246.86,-169.16C210.44,-159.29 150.95,-142.4 130.5,-132 104.17,-118.61 77.48,-97.26 60.73,-82.71"/>
<polygon fill="midnightblue" stroke="midnightblue" points="62.74,-79.82 52.94,-75.8 58.1,-85.05 62.74,-79.82"/>
</g>
<!-- Node6 -->
<g id="node6" class="node">
<title>Node6</title>
<g id="a_node6"><a xlink:href="interrupt__controller_8hpp.html" target="_top" xlink:title="This file defines the interrupt controller used in BCM2835.">
<polygon fill="none" stroke="black" points="140,-112.5 140,-131.5 271,-131.5 271,-112.5 140,-112.5"/>
<text text-anchor="middle" x="205.5" y="-119.5" font-family="Helvetica,sans-Serif" font-size="10.00">interrupt_controller.hpp</text>
</a>
</g>
</g>
<!-- Node4&#45;&gt;Node6 -->
<g id="edge5" class="edge">
<title>Node4&#45;&gt;Node6</title>
<path fill="none" stroke="midnightblue" d="M265.09,-168.32C254.39,-160.18 238.16,-147.84 225.34,-138.09"/>
<polygon fill="midnightblue" stroke="midnightblue" points="227.19,-135.1 217.11,-131.83 222.96,-140.67 227.19,-135.1"/>
</g>
<!-- Node8 -->
<g id="node8" class="node">
<title>Node8</title>
<g id="a_node8"><a xlink:href="logger_8hpp.html" target="_top" xlink:title="This file defines a general logger interface as well as a logging system that is used in the project.">
<polygon fill="none" stroke="black" points="218.5,-0.5 218.5,-19.5 352.5,-19.5 352.5,-0.5 218.5,-0.5"/>
<text text-anchor="middle" x="285.5" y="-7.5" font-family="Helvetica,sans-Serif" font-size="10.00">../utils/logger/logger.hpp</text>
</a>
</g>
</g>
<!-- Node4&#45;&gt;Node8 -->
<g id="edge10" class="edge">
<title>Node4&#45;&gt;Node8</title>
<path fill="none" stroke="midnightblue" d="M277.53,-168.37C279.55,-150.95 283.98,-110.29 285.5,-76 286.19,-60.48 286.14,-42.85 285.94,-29.88"/>
<polygon fill="midnightblue" stroke="midnightblue" points="289.44,-29.77 285.75,-19.84 282.44,-29.9 289.44,-29.77"/>
</g>
<!-- Node9 -->
<g id="node9" class="node">
<title>Node9</title>
<g id="a_node9"><a xlink:href="external__peripheral_8hpp.html" target="_top" xlink:title="This file defines an interface for external peripheral that can been hooked up to the system (Rpi Zer...">
<polygon fill="none" stroke="black" points="352,-112.5 352,-131.5 485,-131.5 485,-112.5 352,-112.5"/>
<text text-anchor="middle" x="418.5" y="-119.5" font-family="Helvetica,sans-Serif" font-size="10.00">external_peripheral.hpp</text>
</a>
</g>
</g>
<!-- Node4&#45;&gt;Node9 -->
<g id="edge11" class="edge">
<title>Node4&#45;&gt;Node9</title>
<path fill="none" stroke="midnightblue" d="M299,-168.44C322.58,-159.48 359.82,-145.31 386.46,-135.18"/>
<polygon fill="midnightblue" stroke="midnightblue" points="388,-138.34 396.1,-131.52 385.51,-131.8 388,-138.34"/>
</g>
<!-- Node6&#45;&gt;Node5 -->
<g id="edge6" class="edge">
<title>Node6&#45;&gt;Node5</title>
<path fill="none" stroke="midnightblue" d="M179.83,-112.44C152.58,-103.36 109.32,-88.94 78.85,-78.78"/>
<polygon fill="midnightblue" stroke="midnightblue" points="79.64,-75.36 69.05,-75.52 77.43,-82 79.64,-75.36"/>
</g>
<!-- Node7 -->
<g id="node7" class="node">
<title>Node7</title>
<g id="a_node7"><a xlink:href="context_8hpp.html" target="_top" xlink:title="This file defines the context (registers) of the CPU.">
<polygon fill="none" stroke="black" points="105.5,-56.5 105.5,-75.5 257.5,-75.5 257.5,-56.5 105.5,-56.5"/>
<text text-anchor="middle" x="181.5" y="-63.5" font-family="Helvetica,sans-Serif" font-size="10.00">../arm1176jzf_s/context.hpp</text>
</a>
</g>
</g>
<!-- Node6&#45;&gt;Node7 -->
<g id="edge7" class="edge">
<title>Node6&#45;&gt;Node7</title>
<path fill="none" stroke="midnightblue" d="M201.54,-112.08C198.29,-104.77 193.58,-94.18 189.55,-85.1"/>
<polygon fill="midnightblue" stroke="midnightblue" points="192.65,-83.47 185.39,-75.75 186.25,-86.31 192.65,-83.47"/>
</g>
<!-- Node6&#45;&gt;Node8 -->
<g id="edge9" class="edge">
<title>Node6&#45;&gt;Node8</title>
<path fill="none" stroke="midnightblue" d="M222.68,-112.41C236.45,-104.68 255.27,-92.07 266.5,-76 276.07,-62.3 280.87,-43.76 283.25,-29.99"/>
<polygon fill="midnightblue" stroke="midnightblue" points="286.76,-30.15 284.73,-19.76 279.83,-29.15 286.76,-30.15"/>
</g>
<!-- Node7&#45;&gt;Node8 -->
<g id="edge8" class="edge">
<title>Node7&#45;&gt;Node8</title>
<path fill="none" stroke="midnightblue" d="M198.21,-56.32C214.81,-47.7 240.5,-34.36 259.72,-24.39"/>
<polygon fill="midnightblue" stroke="midnightblue" points="261.57,-27.37 268.83,-19.65 258.34,-21.16 261.57,-27.37"/>
</g>
</g>
</svg>
