<?xml version="1.0" encoding="UTF-8" standalone="no"?>
<!DOCTYPE svg PUBLIC "-//W3C//DTD SVG 1.1//EN"
 "http://www.w3.org/Graphics/SVG/1.1/DTD/svg11.dtd">
<!-- Generated by graphviz version 2.43.0 (0)
 -->
<!-- Title: src/core/peripherals/gpio.hpp Pages: 1 -->
<svg width="940pt" height="240pt"
 viewBox="0.00 0.00 940.00 240.00" xmlns="http://www.w3.org/2000/svg" xmlns:xlink="http://www.w3.org/1999/xlink">
<g id="graph0" class="graph" transform="scale(1 1) rotate(0) translate(4 236)">
<title>src/core/peripherals/gpio.hpp</title>
<!-- Node1 -->
<g id="node1" class="node">
<title>Node1</title>
<g id="a_node1"><a xlink:title="This file defines the GPIO controller used in BCM2835.">
<polygon fill="#bfbfbf" stroke="black" points="603,-201.5 603,-231.5 716,-231.5 716,-201.5 603,-201.5"/>
<text text-anchor="start" x="611" y="-219.5" font-family="Helvetica,sans-Serif" font-size="10.00">src/core/peripherals</text>
<text text-anchor="middle" x="659.5" y="-208.5" font-family="Helvetica,sans-Serif" font-size="10.00">/gpio.hpp</text>
</a>
</g>
</g>
<!-- Node2 -->
<g id="node2" class="node">
<title>Node2</title>
<g id="a_node2"><a xlink:href="auxiliary_8hpp.html" target="_top" xlink:title=" ">
<polygon fill="none" stroke="black" points="307.5,-134.5 307.5,-164.5 435.5,-164.5 435.5,-134.5 307.5,-134.5"/>
<text text-anchor="start" x="315.5" y="-152.5" font-family="Helvetica,sans-Serif" font-size="10.00">src/core/peripherals</text>
<text text-anchor="middle" x="371.5" y="-141.5" font-family="Helvetica,sans-Serif" font-size="10.00">/auxiliary/auxiliary.hpp</text>
</a>
</g>
</g>
<!-- Node1&#45;&gt;Node2 -->
<g id="edge1" class="edge">
<title>Node1&#45;&gt;Node2</title>
<path fill="none" stroke="midnightblue" d="M592.96,-200.48C544.97,-189.65 480.63,-175.13 433.67,-164.53"/>
<polygon fill="midnightblue" stroke="midnightblue" points="592.42,-203.95 602.94,-202.74 593.96,-197.12 592.42,-203.95"/>
</g>
<!-- Node5 -->
<g id="node5" class="node">
<title>Node5</title>
<g id="a_node5"><a xlink:href="soc_8hpp.html" target="_top" xlink:title=" ">
<polygon fill="none" stroke="black" points="674,-73 674,-92 769,-92 769,-73 674,-73"/>
<text text-anchor="middle" x="721.5" y="-80" font-family="Helvetica,sans-Serif" font-size="10.00">src/core/soc.hpp</text>
</a>
</g>
</g>
<!-- Node1&#45;&gt;Node5 -->
<g id="edge15" class="edge">
<title>Node1&#45;&gt;Node5</title>
<path fill="none" stroke="midnightblue" d="M662.1,-191.16C664.61,-174.39 669.43,-151.98 678.5,-134 686.9,-117.34 701.89,-101.55 711.76,-92.19"/>
<polygon fill="midnightblue" stroke="midnightblue" points="658.6,-190.88 660.76,-201.26 665.54,-191.8 658.6,-190.88"/>
</g>
<!-- Node11 -->
<g id="node11" class="node">
<title>Node11</title>
<g id="a_node11"><a xlink:href="bsc_8hpp.html" target="_top" xlink:title=" ">
<polygon fill="none" stroke="black" points="688,-134.5 688,-164.5 801,-164.5 801,-134.5 688,-134.5"/>
<text text-anchor="start" x="696" y="-152.5" font-family="Helvetica,sans-Serif" font-size="10.00">src/core/peripherals</text>
<text text-anchor="middle" x="744.5" y="-141.5" font-family="Helvetica,sans-Serif" font-size="10.00">/bsc.hpp</text>
</a>
</g>
</g>
<!-- Node1&#45;&gt;Node11 -->
<g id="edge11" class="edge">
<title>Node1&#45;&gt;Node11</title>
<path fill="none" stroke="midnightblue" d="M686.09,-195.17C699.09,-185.23 714.4,-173.51 726.09,-164.58"/>
<polygon fill="midnightblue" stroke="midnightblue" points="683.76,-192.54 677.94,-201.4 688.01,-198.1 683.76,-192.54"/>
</g>
<!-- Node13 -->
<g id="node13" class="node">
<title>Node13</title>
<g id="a_node13"><a xlink:href="gpio_8cpp.html" target="_top" xlink:title="This file implements the GPIO controller used in BCM2835 (defined in gpio.hpp).">
<polygon fill="none" stroke="black" points="819,-134.5 819,-164.5 932,-164.5 932,-134.5 819,-134.5"/>
<text text-anchor="start" x="827" y="-152.5" font-family="Helvetica,sans-Serif" font-size="10.00">src/core/peripherals</text>
<text text-anchor="middle" x="875.5" y="-141.5" font-family="Helvetica,sans-Serif" font-size="10.00">/gpio.cpp</text>
</a>
</g>
</g>
<!-- Node1&#45;&gt;Node13 -->
<g id="edge14" class="edge">
<title>Node1&#45;&gt;Node13</title>
<path fill="none" stroke="midnightblue" d="M715.73,-198.58C750.81,-188.02 795.44,-174.59 828.61,-164.61"/>
<polygon fill="midnightblue" stroke="midnightblue" points="714.67,-195.24 706.1,-201.48 716.69,-201.95 714.67,-195.24"/>
</g>
<!-- Node14 -->
<g id="node14" class="node">
<title>Node14</title>
<g id="a_node14"><a xlink:href="gpio__window_8hpp.html" target="_top" xlink:title="This file defines a window that visualizes the states and information about GPIO pins.">
<polygon fill="none" stroke="black" points="479.5,-134.5 479.5,-164.5 631.5,-164.5 631.5,-134.5 479.5,-134.5"/>
<text text-anchor="start" x="487.5" y="-152.5" font-family="Helvetica,sans-Serif" font-size="10.00">src/gui/windows/peripherals</text>
<text text-anchor="middle" x="555.5" y="-141.5" font-family="Helvetica,sans-Serif" font-size="10.00">/gpio_window.hpp</text>
</a>
</g>
</g>
<!-- Node1&#45;&gt;Node14 -->
<g id="edge16" class="edge">
<title>Node1&#45;&gt;Node14</title>
<path fill="none" stroke="midnightblue" d="M628.32,-196.02C612.14,-185.9 592.73,-173.77 578.02,-164.58"/>
<polygon fill="midnightblue" stroke="midnightblue" points="626.6,-199.06 636.93,-201.4 630.31,-193.13 626.6,-199.06"/>
</g>
<!-- Node3 -->
<g id="node3" class="node">
<title>Node3</title>
<g id="a_node3"><a xlink:href="auxiliary_8cpp.html" target="_top" xlink:title=" ">
<polygon fill="none" stroke="black" points="0,-67.5 0,-97.5 127,-97.5 127,-67.5 0,-67.5"/>
<text text-anchor="start" x="8" y="-85.5" font-family="Helvetica,sans-Serif" font-size="10.00">src/core/peripherals</text>
<text text-anchor="middle" x="63.5" y="-74.5" font-family="Helvetica,sans-Serif" font-size="10.00">/auxiliary/auxiliary.cpp</text>
</a>
</g>
</g>
<!-- Node2&#45;&gt;Node3 -->
<g id="edge2" class="edge">
<title>Node2&#45;&gt;Node3</title>
<path fill="none" stroke="midnightblue" d="M297.47,-132.88C245.46,-121.9 176.61,-107.37 127.08,-96.92"/>
<polygon fill="midnightblue" stroke="midnightblue" points="296.8,-136.31 307.31,-134.95 298.25,-129.46 296.8,-136.31"/>
</g>
<!-- Node4 -->
<g id="node4" class="node">
<title>Node4</title>
<g id="a_node4"><a xlink:href="mini__uart_8cpp.html" target="_top" xlink:title="This file implements the Mini UART auxiliary peripheral used in BCM2835.">
<polygon fill="none" stroke="black" points="145.5,-67.5 145.5,-97.5 277.5,-97.5 277.5,-67.5 145.5,-67.5"/>
<text text-anchor="start" x="153.5" y="-85.5" font-family="Helvetica,sans-Serif" font-size="10.00">src/core/peripherals</text>
<text text-anchor="middle" x="211.5" y="-74.5" font-family="Helvetica,sans-Serif" font-size="10.00">/auxiliary/mini_uart.cpp</text>
</a>
</g>
</g>
<!-- Node2&#45;&gt;Node4 -->
<g id="edge3" class="edge">
<title>Node2&#45;&gt;Node4</title>
<path fill="none" stroke="midnightblue" d="M327.3,-130.54C301.7,-120.14 269.93,-107.24 246.15,-97.58"/>
<polygon fill="midnightblue" stroke="midnightblue" points="326.2,-133.87 336.78,-134.4 328.84,-127.39 326.2,-133.87"/>
</g>
<!-- Node2&#45;&gt;Node5 -->
<g id="edge4" class="edge">
<title>Node2&#45;&gt;Node5</title>
<path fill="none" stroke="midnightblue" d="M445.55,-137.38C504.97,-128.07 590.41,-113.78 664.5,-98 672.69,-96.26 681.48,-94.14 689.65,-92.07"/>
<polygon fill="midnightblue" stroke="midnightblue" points="444.85,-133.95 435.51,-138.95 445.92,-140.87 444.85,-133.95"/>
</g>
<!-- Node9 -->
<g id="node9" class="node">
<title>Node9</title>
<g id="a_node9"><a xlink:href="aux__window_8hpp.html" target="_top" xlink:title="This file defines a window that visualizes the auxiliaries (UART1 &amp; SPI1, and SPI2) used in BCM2835.">
<polygon fill="none" stroke="black" points="295.5,-67.5 295.5,-97.5 447.5,-97.5 447.5,-67.5 295.5,-67.5"/>
<text text-anchor="start" x="303.5" y="-85.5" font-family="Helvetica,sans-Serif" font-size="10.00">src/gui/windows/peripherals</text>
<text text-anchor="middle" x="371.5" y="-74.5" font-family="Helvetica,sans-Serif" font-size="10.00">/aux_window.hpp</text>
</a>
</g>
</g>
<!-- Node2&#45;&gt;Node9 -->
<g id="edge8" class="edge">
<title>Node2&#45;&gt;Node9</title>
<path fill="none" stroke="midnightblue" d="M371.5,-124.11C371.5,-115.15 371.5,-105.32 371.5,-97.58"/>
<polygon fill="midnightblue" stroke="midnightblue" points="368,-124.4 371.5,-134.4 375,-124.4 368,-124.4"/>
</g>
<!-- Node6 -->
<g id="node6" class="node">
<title>Node6</title>
<g id="a_node6"><a xlink:href="soc_8cpp.html" target="_top" xlink:title=" ">
<polygon fill="none" stroke="black" points="726,-6 726,-25 821,-25 821,-6 726,-6"/>
<text text-anchor="middle" x="773.5" y="-13" font-family="Helvetica,sans-Serif" font-size="10.00">src/core/soc.cpp</text>
</a>
</g>
</g>
<!-- Node5&#45;&gt;Node6 -->
<g id="edge5" class="edge">
<title>Node5&#45;&gt;Node6</title>
<path fill="none" stroke="midnightblue" d="M734.88,-64.77C745.02,-52.1 758.54,-35.2 766.6,-25.13"/>
<polygon fill="midnightblue" stroke="midnightblue" points="732.03,-62.74 728.51,-72.73 737.49,-67.11 732.03,-62.74"/>
</g>
<!-- Node7 -->
<g id="node7" class="node">
<title>Node7</title>
<g id="a_node7"><a xlink:href="gui_8cpp.html" target="_top" xlink:title="This file implements the main GUI entry function that takes care of creating and rendering all window...">
<polygon fill="none" stroke="black" points="449,-6 449,-25 536,-25 536,-6 449,-6"/>
<text text-anchor="middle" x="492.5" y="-13" font-family="Helvetica,sans-Serif" font-size="10.00">src/gui/gui.cpp</text>
</a>
</g>
</g>
<!-- Node5&#45;&gt;Node7 -->
<g id="edge6" class="edge">
<title>Node5&#45;&gt;Node7</title>
<path fill="none" stroke="midnightblue" d="M681.31,-70.09C636,-57.23 563.38,-36.62 522.67,-25.06"/>
<polygon fill="midnightblue" stroke="midnightblue" points="680.51,-73.5 691.09,-72.87 682.43,-66.77 680.51,-73.5"/>
</g>
<!-- Node8 -->
<g id="node8" class="node">
<title>Node8</title>
<g id="a_node8"><a xlink:href="main_8cpp.html" target="_top" xlink:title="This file defines and implements the main function of the application.">
<polygon fill="none" stroke="black" points="629,-6 629,-25 708,-25 708,-6 629,-6"/>
<text text-anchor="middle" x="668.5" y="-13" font-family="Helvetica,sans-Serif" font-size="10.00">src/main.cpp</text>
</a>
</g>
</g>
<!-- Node5&#45;&gt;Node8 -->
<g id="edge7" class="edge">
<title>Node5&#45;&gt;Node8</title>
<path fill="none" stroke="midnightblue" d="M707.86,-64.77C697.53,-52.1 683.75,-35.2 675.53,-25.13"/>
<polygon fill="midnightblue" stroke="midnightblue" points="705.32,-67.2 714.35,-72.73 710.75,-62.77 705.32,-67.2"/>
</g>
<!-- Node9&#45;&gt;Node7 -->
<g id="edge9" class="edge">
<title>Node9&#45;&gt;Node7</title>
<path fill="none" stroke="midnightblue" d="M406.61,-62.64C429.76,-50.2 458.97,-34.51 476.66,-25.01"/>
<polygon fill="midnightblue" stroke="midnightblue" points="404.91,-59.58 397.76,-67.4 408.22,-65.75 404.91,-59.58"/>
</g>
<!-- Node10 -->
<g id="node10" class="node">
<title>Node10</title>
<g id="a_node10"><a xlink:href="aux__window_8cpp.html" target="_top" xlink:title="This file implements a window that visualizes the auxiliaries (UART1 &amp; SPI1, and SPI2) used in BCM283...">
<polygon fill="none" stroke="black" points="278.5,-0.5 278.5,-30.5 430.5,-30.5 430.5,-0.5 278.5,-0.5"/>
<text text-anchor="start" x="286.5" y="-18.5" font-family="Helvetica,sans-Serif" font-size="10.00">src/gui/windows/peripherals</text>
<text text-anchor="middle" x="354.5" y="-7.5" font-family="Helvetica,sans-Serif" font-size="10.00">/aux_window.cpp</text>
</a>
</g>
</g>
<!-- Node9&#45;&gt;Node10 -->
<g id="edge10" class="edge">
<title>Node9&#45;&gt;Node10</title>
<path fill="none" stroke="midnightblue" d="M365.27,-57.7C362.89,-48.59 360.25,-38.49 358.18,-30.58"/>
<polygon fill="midnightblue" stroke="midnightblue" points="361.89,-58.61 367.81,-67.4 368.67,-56.84 361.89,-58.61"/>
</g>
<!-- Node11&#45;&gt;Node5 -->
<g id="edge13" class="edge">
<title>Node11&#45;&gt;Node5</title>
<path fill="none" stroke="midnightblue" d="M736.16,-124.94C732.13,-113.54 727.53,-100.55 724.58,-92.19"/>
<polygon fill="midnightblue" stroke="midnightblue" points="732.87,-126.14 739.51,-134.4 739.47,-123.8 732.87,-126.14"/>
</g>
<!-- Node12 -->
<g id="node12" class="node">
<title>Node12</title>
<g id="a_node12"><a xlink:href="bsc_8cpp.html" target="_top" xlink:title=" ">
<polygon fill="none" stroke="black" points="787,-67.5 787,-97.5 900,-97.5 900,-67.5 787,-67.5"/>
<text text-anchor="start" x="795" y="-85.5" font-family="Helvetica,sans-Serif" font-size="10.00">src/core/peripherals</text>
<text text-anchor="middle" x="843.5" y="-74.5" font-family="Helvetica,sans-Serif" font-size="10.00">/bsc.cpp</text>
</a>
</g>
</g>
<!-- Node11&#45;&gt;Node12 -->
<g id="edge12" class="edge">
<title>Node11&#45;&gt;Node12</title>
<path fill="none" stroke="midnightblue" d="M774.61,-128.73C789.92,-118.68 808.19,-106.68 822.06,-97.58"/>
<polygon fill="midnightblue" stroke="midnightblue" points="772.42,-125.98 765.98,-134.4 776.26,-131.83 772.42,-125.98"/>
</g>
<!-- Node14&#45;&gt;Node7 -->
<g id="edge17" class="edge">
<title>Node14&#45;&gt;Node7</title>
<path fill="none" stroke="midnightblue" d="M521.15,-128.35C510.67,-120.33 500.37,-110.1 494.5,-98 482.76,-73.81 487.34,-40.63 490.49,-25.13"/>
<polygon fill="midnightblue" stroke="midnightblue" points="519.33,-131.35 529.51,-134.3 523.39,-125.65 519.33,-131.35"/>
</g>
<!-- Node15 -->
<g id="node15" class="node">
<title>Node15</title>
<g id="a_node15"><a xlink:href="gpio__window_8cpp.html" target="_top" xlink:title="This file implements a window that visualizes the states and information about GPIO pins.">
<polygon fill="none" stroke="black" points="503.5,-67.5 503.5,-97.5 655.5,-97.5 655.5,-67.5 503.5,-67.5"/>
<text text-anchor="start" x="511.5" y="-85.5" font-family="Helvetica,sans-Serif" font-size="10.00">src/gui/windows/peripherals</text>
<text text-anchor="middle" x="579.5" y="-74.5" font-family="Helvetica,sans-Serif" font-size="10.00">/gpio_window.cpp</text>
</a>
</g>
</g>
<!-- Node14&#45;&gt;Node15 -->
<g id="edge18" class="edge">
<title>Node14&#45;&gt;Node15</title>
<path fill="none" stroke="midnightblue" d="M564.18,-124.99C567.57,-115.8 571.35,-105.58 574.3,-97.58"/>
<polygon fill="midnightblue" stroke="midnightblue" points="560.89,-123.8 560.71,-134.4 567.45,-126.23 560.89,-123.8"/>
</g>
</g>
</svg>
