<?xml version="1.0" encoding="UTF-8" standalone="no"?>
<!DOCTYPE svg PUBLIC "-//W3C//DTD SVG 1.1//EN"
 "http://www.w3.org/Graphics/SVG/1.1/DTD/svg11.dtd">
<!-- Generated by graphviz version 2.43.0 (0)
 -->
<!-- Title: src/core/peripherals/gpio.cpp Pages: 1 -->
<svg width="630pt" height="274pt"
 viewBox="0.00 0.00 630.00 274.00" xmlns="http://www.w3.org/2000/svg" xmlns:xlink="http://www.w3.org/1999/xlink">
<g id="graph0" class="graph" transform="scale(1 1) rotate(0) translate(4 270)">
<title>src/core/peripherals/gpio.cpp</title>
<!-- Node1 -->
<g id="node1" class="node">
<title>Node1</title>
<g id="a_node1"><a xlink:title="This file implements the GPIO controller used in BCM2835 (defined in gpio.hpp).">
<polygon fill="#bfbfbf" stroke="black" points="196,-235.5 196,-265.5 309,-265.5 309,-235.5 196,-235.5"/>
<text text-anchor="start" x="204" y="-253.5" font-family="Helvetica,sans-Serif" font-size="10.00">src/core/peripherals</text>
<text text-anchor="middle" x="252.5" y="-242.5" font-family="Helvetica,sans-Serif" font-size="10.00">/gpio.cpp</text>
</a>
</g>
</g>
<!-- Node2 -->
<g id="node2" class="node">
<title>Node2</title>
<g id="a_node2"><a xlink:title=" ">
<polygon fill="none" stroke="#bfbfbf" points="7,-179.5 7,-198.5 86,-198.5 86,-179.5 7,-179.5"/>
<text text-anchor="middle" x="46.5" y="-186.5" font-family="Helvetica,sans-Serif" font-size="10.00">fmt/format.h</text>
</a>
</g>
</g>
<!-- Node1&#45;&gt;Node2 -->
<g id="edge1" class="edge">
<title>Node1&#45;&gt;Node2</title>
<path fill="none" stroke="midnightblue" d="M203.94,-235.47C167.94,-225.08 119.48,-211.08 85.87,-201.37"/>
<polygon fill="midnightblue" stroke="midnightblue" points="86.53,-197.92 75.95,-198.51 84.59,-204.64 86.53,-197.92"/>
</g>
<!-- Node3 -->
<g id="node3" class="node">
<title>Node3</title>
<g id="a_node3"><a xlink:title=" ">
<polygon fill="none" stroke="#bfbfbf" points="104,-179.5 104,-198.5 205,-198.5 205,-179.5 104,-179.5"/>
<text text-anchor="middle" x="154.5" y="-186.5" font-family="Helvetica,sans-Serif" font-size="10.00">magic_enum.hpp</text>
</a>
</g>
</g>
<!-- Node1&#45;&gt;Node3 -->
<g id="edge2" class="edge">
<title>Node1&#45;&gt;Node3</title>
<path fill="none" stroke="midnightblue" d="M229.28,-235.4C213.71,-225.95 193.3,-213.56 177.74,-204.11"/>
<polygon fill="midnightblue" stroke="midnightblue" points="179.12,-200.86 168.76,-198.66 175.49,-206.84 179.12,-200.86"/>
</g>
<!-- Node4 -->
<g id="node4" class="node">
<title>Node4</title>
<g id="a_node4"><a xlink:href="gpio_8hpp.html" target="_top" xlink:title="This file defines the GPIO controller used in BCM2835.">
<polygon fill="none" stroke="black" points="223,-179.5 223,-198.5 282,-198.5 282,-179.5 223,-179.5"/>
<text text-anchor="middle" x="252.5" y="-186.5" font-family="Helvetica,sans-Serif" font-size="10.00">gpio.hpp</text>
</a>
</g>
</g>
<!-- Node1&#45;&gt;Node4 -->
<g id="edge3" class="edge">
<title>Node1&#45;&gt;Node4</title>
<path fill="none" stroke="midnightblue" d="M252.5,-235.4C252.5,-227.47 252.5,-217.46 252.5,-208.86"/>
<polygon fill="midnightblue" stroke="midnightblue" points="256,-208.66 252.5,-198.66 249,-208.66 256,-208.66"/>
</g>
<!-- Node10 -->
<g id="node10" class="node">
<title>Node10</title>
<g id="a_node10"><a xlink:href="math_8hpp.html" target="_top" xlink:title="This file defines and implements a variety of handy helper functions that are used throughout the pro...">
<polygon fill="none" stroke="black" points="300.5,-179.5 300.5,-198.5 442.5,-198.5 442.5,-179.5 300.5,-179.5"/>
<text text-anchor="middle" x="371.5" y="-186.5" font-family="Helvetica,sans-Serif" font-size="10.00">zero_mate/utils/math.hpp</text>
</a>
</g>
</g>
<!-- Node1&#45;&gt;Node10 -->
<g id="edge13" class="edge">
<title>Node1&#45;&gt;Node10</title>
<path fill="none" stroke="midnightblue" d="M280.7,-235.4C300.22,-225.64 326.03,-212.74 345.13,-203.18"/>
<polygon fill="midnightblue" stroke="midnightblue" points="346.81,-206.26 354.18,-198.66 343.67,-200 346.81,-206.26"/>
</g>
<!-- Node11 -->
<g id="node11" class="node">
<title>Node11</title>
<g id="a_node11"><a xlink:href="singleton_8hpp.html" target="_top" xlink:title="This file defines and implements a generic class that is used to treat other classes as singletons.">
<polygon fill="none" stroke="black" points="461,-179.5 461,-198.5 622,-198.5 622,-179.5 461,-179.5"/>
<text text-anchor="middle" x="541.5" y="-186.5" font-family="Helvetica,sans-Serif" font-size="10.00">zero_mate/utils/singleton.hpp</text>
</a>
</g>
</g>
<!-- Node1&#45;&gt;Node11 -->
<g id="edge14" class="edge">
<title>Node1&#45;&gt;Node11</title>
<path fill="none" stroke="midnightblue" d="M309.25,-237.82C361.69,-227.02 438.95,-211.11 489.74,-200.66"/>
<polygon fill="midnightblue" stroke="midnightblue" points="490.76,-204.02 499.84,-198.58 489.34,-197.16 490.76,-204.02"/>
</g>
<!-- Node5 -->
<g id="node5" class="node">
<title>Node5</title>
<g id="a_node5"><a xlink:href="peripheral_8hpp.html" target="_top" xlink:title="This file defines an interface for a memory&#45;mapped peripheral.">
<polygon fill="none" stroke="black" points="0,-56.5 0,-75.5 87,-75.5 87,-56.5 0,-56.5"/>
<text text-anchor="middle" x="43.5" y="-63.5" font-family="Helvetica,sans-Serif" font-size="10.00">peripheral.hpp</text>
</a>
</g>
</g>
<!-- Node4&#45;&gt;Node5 -->
<g id="edge4" class="edge">
<title>Node4&#45;&gt;Node5</title>
<path fill="none" stroke="midnightblue" d="M222.81,-180.35C197.24,-173.01 159.91,-160.46 130.5,-143 102.34,-126.28 74.71,-99.97 58.39,-83.11"/>
<polygon fill="midnightblue" stroke="midnightblue" points="60.75,-80.52 51.33,-75.67 55.68,-85.33 60.75,-80.52"/>
</g>
<!-- Node6 -->
<g id="node6" class="node">
<title>Node6</title>
<g id="a_node6"><a xlink:href="interrupt__controller_8hpp.html" target="_top" xlink:title="This file defines the interrupt controller used in BCM2835.">
<polygon fill="none" stroke="black" points="140,-118 140,-137 271,-137 271,-118 140,-118"/>
<text text-anchor="middle" x="205.5" y="-125" font-family="Helvetica,sans-Serif" font-size="10.00">interrupt_controller.hpp</text>
</a>
</g>
</g>
<!-- Node4&#45;&gt;Node6 -->
<g id="edge5" class="edge">
<title>Node4&#45;&gt;Node6</title>
<path fill="none" stroke="midnightblue" d="M245.77,-179.48C238.72,-170.55 227.47,-156.31 218.65,-145.14"/>
<polygon fill="midnightblue" stroke="midnightblue" points="221.17,-142.69 212.22,-137.01 215.67,-147.03 221.17,-142.69"/>
</g>
<!-- Node8 -->
<g id="node8" class="node">
<title>Node8</title>
<g id="a_node8"><a xlink:href="logger_8hpp.html" target="_top" xlink:title="This file defines a general logger interface as well as a logging system that is used in the project.">
<polygon fill="none" stroke="black" points="231.5,-0.5 231.5,-19.5 377.5,-19.5 377.5,-0.5 231.5,-0.5"/>
<text text-anchor="middle" x="304.5" y="-7.5" font-family="Helvetica,sans-Serif" font-size="10.00">zero_mate/utils/logger.hpp</text>
</a>
</g>
</g>
<!-- Node4&#45;&gt;Node8 -->
<g id="edge10" class="edge">
<title>Node4&#45;&gt;Node8</title>
<path fill="none" stroke="midnightblue" d="M259.37,-179.23C265.83,-170.53 275.27,-156.56 280.5,-143 295.4,-104.38 301.18,-55.77 303.32,-29.65"/>
<polygon fill="midnightblue" stroke="midnightblue" points="306.81,-29.87 304.05,-19.64 299.83,-29.36 306.81,-29.87"/>
</g>
<!-- Node9 -->
<g id="node9" class="node">
<title>Node9</title>
<g id="a_node9"><a xlink:href="external__peripheral_8hpp.html" target="_top" xlink:title="This file defines an interface for external peripherals that can be attached to the system via GPIO p...">
<polygon fill="none" stroke="black" points="351.5,-112.5 351.5,-142.5 463.5,-142.5 463.5,-112.5 351.5,-112.5"/>
<text text-anchor="start" x="359.5" y="-130.5" font-family="Helvetica,sans-Serif" font-size="10.00">zero_mate/external</text>
<text text-anchor="middle" x="407.5" y="-119.5" font-family="Helvetica,sans-Serif" font-size="10.00">_peripheral.hpp</text>
</a>
</g>
</g>
<!-- Node4&#45;&gt;Node9 -->
<g id="edge11" class="edge">
<title>Node4&#45;&gt;Node9</title>
<path fill="none" stroke="midnightblue" d="M274.71,-179.48C297.27,-170.81 332.88,-157.15 361.54,-146.14"/>
<polygon fill="midnightblue" stroke="midnightblue" points="362.89,-149.37 370.97,-142.52 360.38,-142.84 362.89,-149.37"/>
</g>
<!-- Node6&#45;&gt;Node5 -->
<g id="edge6" class="edge">
<title>Node6&#45;&gt;Node5</title>
<path fill="none" stroke="midnightblue" d="M182.29,-117.98C154.5,-107.77 107.78,-90.61 76.31,-79.05"/>
<polygon fill="midnightblue" stroke="midnightblue" points="77.26,-75.67 66.67,-75.51 74.85,-82.24 77.26,-75.67"/>
</g>
<!-- Node7 -->
<g id="node7" class="node">
<title>Node7</title>
<g id="a_node7"><a xlink:href="context_8hpp.html" target="_top" xlink:title="This file defines the context (registers) of the CPU.">
<polygon fill="none" stroke="black" points="105.5,-56.5 105.5,-75.5 257.5,-75.5 257.5,-56.5 105.5,-56.5"/>
<text text-anchor="middle" x="181.5" y="-63.5" font-family="Helvetica,sans-Serif" font-size="10.00">../arm1176jzf_s/context.hpp</text>
</a>
</g>
</g>
<!-- Node6&#45;&gt;Node7 -->
<g id="edge7" class="edge">
<title>Node6&#45;&gt;Node7</title>
<path fill="none" stroke="midnightblue" d="M202.06,-117.98C198.6,-109.4 193.17,-95.93 188.75,-84.98"/>
<polygon fill="midnightblue" stroke="midnightblue" points="191.92,-83.47 184.93,-75.51 185.43,-86.09 191.92,-83.47"/>
</g>
<!-- Node6&#45;&gt;Node8 -->
<g id="edge9" class="edge">
<title>Node6&#45;&gt;Node8</title>
<path fill="none" stroke="midnightblue" d="M218.3,-117.94C231.48,-108.69 252.08,-92.98 266.5,-76 278.77,-61.55 289.34,-42.61 296.19,-28.91"/>
<polygon fill="midnightblue" stroke="midnightblue" points="299.48,-30.14 300.67,-19.61 293.18,-27.1 299.48,-30.14"/>
</g>
<!-- Node7&#45;&gt;Node8 -->
<g id="edge8" class="edge">
<title>Node7&#45;&gt;Node8</title>
<path fill="none" stroke="midnightblue" d="M200.99,-56.44C221.14,-47.6 252.82,-33.69 275.83,-23.59"/>
<polygon fill="midnightblue" stroke="midnightblue" points="277.35,-26.74 285.1,-19.52 274.54,-20.33 277.35,-26.74"/>
</g>
<!-- Node9&#45;&gt;Node8 -->
<g id="edge12" class="edge">
<title>Node9&#45;&gt;Node8</title>
<path fill="none" stroke="midnightblue" d="M394.87,-112.34C375.72,-90.86 339.43,-50.17 319.15,-27.43"/>
<polygon fill="midnightblue" stroke="midnightblue" points="321.5,-24.8 312.23,-19.67 316.27,-29.46 321.5,-24.8"/>
</g>
</g>
</svg>
