<?xml version="1.0" encoding="UTF-8" standalone="no"?>
<!DOCTYPE svg PUBLIC "-//W3C//DTD SVG 1.1//EN"
 "http://www.w3.org/Graphics/SVG/1.1/DTD/svg11.dtd">
<!-- Generated by graphviz version 2.43.0 (0)
 -->
<!-- Title: src/core/peripherals/gpio.cpp Pages: 1 -->
<svg width="801pt" height="319pt"
 viewBox="0.00 0.00 801.00 319.00" xmlns="http://www.w3.org/2000/svg" xmlns:xlink="http://www.w3.org/1999/xlink">
<g id="graph0" class="graph" transform="scale(1 1) rotate(0) translate(4 315)">
<title>src/core/peripherals/gpio.cpp</title>
<!-- Node1 -->
<g id="node1" class="node">
<title>Node1</title>
<g id="a_node1"><a xlink:title=" ">
<polygon fill="#bfbfbf" stroke="black" points="457.5,-280.5 457.5,-310.5 570.5,-310.5 570.5,-280.5 457.5,-280.5"/>
<text text-anchor="start" x="465.5" y="-298.5" font-family="Helvetica,sans-Serif" font-size="10.00">src/core/peripherals</text>
<text text-anchor="middle" x="514" y="-287.5" font-family="Helvetica,sans-Serif" font-size="10.00">/gpio.cpp</text>
</a>
</g>
</g>
<!-- Node2 -->
<g id="node2" class="node">
<title>Node2</title>
<g id="a_node2"><a xlink:title=" ">
<polygon fill="none" stroke="#bfbfbf" points="268.5,-224.5 268.5,-243.5 347.5,-243.5 347.5,-224.5 268.5,-224.5"/>
<text text-anchor="middle" x="308" y="-231.5" font-family="Helvetica,sans-Serif" font-size="10.00">fmt/format.h</text>
</a>
</g>
</g>
<!-- Node1&#45;&gt;Node2 -->
<g id="edge1" class="edge">
<title>Node1&#45;&gt;Node2</title>
<path fill="none" stroke="midnightblue" d="M465.44,-280.47C429.44,-270.08 380.98,-256.08 347.37,-246.37"/>
<polygon fill="midnightblue" stroke="midnightblue" points="348.03,-242.92 337.45,-243.51 346.09,-249.64 348.03,-242.92"/>
</g>
<!-- Node3 -->
<g id="node3" class="node">
<title>Node3</title>
<g id="a_node3"><a xlink:title=" ">
<polygon fill="none" stroke="#bfbfbf" points="365.5,-224.5 365.5,-243.5 466.5,-243.5 466.5,-224.5 365.5,-224.5"/>
<text text-anchor="middle" x="416" y="-231.5" font-family="Helvetica,sans-Serif" font-size="10.00">magic_enum.hpp</text>
</a>
</g>
</g>
<!-- Node1&#45;&gt;Node3 -->
<g id="edge2" class="edge">
<title>Node1&#45;&gt;Node3</title>
<path fill="none" stroke="midnightblue" d="M490.78,-280.4C475.21,-270.95 454.8,-258.56 439.24,-249.11"/>
<polygon fill="midnightblue" stroke="midnightblue" points="440.62,-245.86 430.26,-243.66 436.99,-251.84 440.62,-245.86"/>
</g>
<!-- Node4 -->
<g id="node4" class="node">
<title>Node4</title>
<g id="a_node4"><a xlink:href="gpio_8hpp.html" target="_top" xlink:title=" ">
<polygon fill="none" stroke="black" points="484.5,-224.5 484.5,-243.5 543.5,-243.5 543.5,-224.5 484.5,-224.5"/>
<text text-anchor="middle" x="514" y="-231.5" font-family="Helvetica,sans-Serif" font-size="10.00">gpio.hpp</text>
</a>
</g>
</g>
<!-- Node1&#45;&gt;Node4 -->
<g id="edge3" class="edge">
<title>Node1&#45;&gt;Node4</title>
<path fill="none" stroke="midnightblue" d="M514,-280.4C514,-272.47 514,-262.46 514,-253.86"/>
<polygon fill="midnightblue" stroke="midnightblue" points="517.5,-253.66 514,-243.66 510.5,-253.66 517.5,-253.66"/>
</g>
<!-- Node20 -->
<g id="node20" class="node">
<title>Node20</title>
<g id="a_node20"><a xlink:href="math_8hpp.html" target="_top" xlink:title="This file defines and implements a variety of handy helper functions that are used throughout the pro...">
<polygon fill="none" stroke="black" points="562,-224.5 562,-243.5 658,-243.5 658,-224.5 562,-224.5"/>
<text text-anchor="middle" x="610" y="-231.5" font-family="Helvetica,sans-Serif" font-size="10.00">../utils/math.hpp</text>
</a>
</g>
</g>
<!-- Node1&#45;&gt;Node20 -->
<g id="edge24" class="edge">
<title>Node1&#45;&gt;Node20</title>
<path fill="none" stroke="midnightblue" d="M536.75,-280.4C551.99,-270.95 571.99,-258.56 587.24,-249.11"/>
<polygon fill="midnightblue" stroke="midnightblue" points="589.38,-251.9 596.03,-243.66 585.69,-245.95 589.38,-251.9"/>
</g>
<!-- Node21 -->
<g id="node21" class="node">
<title>Node21</title>
<g id="a_node21"><a xlink:href="singleton_8hpp.html" target="_top" xlink:title="This file defines and implements a generic class that is used to treat other classes as singletons.">
<polygon fill="none" stroke="black" points="676,-224.5 676,-243.5 792,-243.5 792,-224.5 676,-224.5"/>
<text text-anchor="middle" x="734" y="-231.5" font-family="Helvetica,sans-Serif" font-size="10.00">../utils/singleton.hpp</text>
</a>
</g>
</g>
<!-- Node1&#45;&gt;Node21 -->
<g id="edge25" class="edge">
<title>Node1&#45;&gt;Node21</title>
<path fill="none" stroke="midnightblue" d="M565.86,-280.47C604.64,-269.99 656.96,-255.84 692.88,-246.12"/>
<polygon fill="midnightblue" stroke="midnightblue" points="693.81,-249.5 702.55,-243.51 691.98,-242.74 693.81,-249.5"/>
</g>
<!-- Node5 -->
<g id="node5" class="node">
<title>Node5</title>
<g id="a_node5"><a xlink:title=" ">
<polygon fill="none" stroke="#bfbfbf" points="0,-112.5 0,-131.5 42,-131.5 42,-112.5 0,-112.5"/>
<text text-anchor="middle" x="21" y="-119.5" font-family="Helvetica,sans-Serif" font-size="10.00">array</text>
</a>
</g>
</g>
<!-- Node4&#45;&gt;Node5 -->
<g id="edge4" class="edge">
<title>Node4&#45;&gt;Node5</title>
<path fill="none" stroke="midnightblue" d="M484.2,-225.58C481.44,-225 478.67,-224.46 476,-224 335,-199.46 293.53,-227.6 156,-188 114.37,-176.01 69.77,-152.11 43.68,-136.87"/>
<polygon fill="midnightblue" stroke="midnightblue" points="45.33,-133.78 34.95,-131.69 41.76,-139.8 45.33,-133.78"/>
</g>
<!-- Node6 -->
<g id="node6" class="node">
<title>Node6</title>
<g id="a_node6"><a xlink:title=" ">
<polygon fill="none" stroke="#bfbfbf" points="504,-0.5 504,-19.5 562,-19.5 562,-0.5 504,-0.5"/>
<text text-anchor="middle" x="533" y="-7.5" font-family="Helvetica,sans-Serif" font-size="10.00">memory</text>
</a>
</g>
</g>
<!-- Node4&#45;&gt;Node6 -->
<g id="edge5" class="edge">
<title>Node4&#45;&gt;Node6</title>
<path fill="none" stroke="midnightblue" d="M515.04,-224.38C516.11,-215.33 517.79,-200.68 519,-188 524.46,-130.61 529.41,-62.6 531.69,-30.12"/>
<polygon fill="midnightblue" stroke="midnightblue" points="535.2,-30.07 532.4,-19.85 528.22,-29.58 535.2,-30.07"/>
</g>
<!-- Node7 -->
<g id="node7" class="node">
<title>Node7</title>
<g id="a_node7"><a xlink:title=" ">
<polygon fill="none" stroke="#bfbfbf" points="561,-168.5 561,-187.5 605,-187.5 605,-168.5 561,-168.5"/>
<text text-anchor="middle" x="583" y="-175.5" font-family="Helvetica,sans-Serif" font-size="10.00">limits</text>
</a>
</g>
</g>
<!-- Node4&#45;&gt;Node7 -->
<g id="edge6" class="edge">
<title>Node4&#45;&gt;Node7</title>
<path fill="none" stroke="midnightblue" d="M525.09,-224.32C535.49,-216.18 551.26,-203.84 563.72,-194.09"/>
<polygon fill="midnightblue" stroke="midnightblue" points="565.99,-196.75 571.71,-187.83 561.68,-191.24 565.99,-196.75"/>
</g>
<!-- Node8 -->
<g id="node8" class="node">
<title>Node8</title>
<g id="a_node8"><a xlink:title=" ">
<polygon fill="none" stroke="#bfbfbf" points="623.5,-168.5 623.5,-187.5 688.5,-187.5 688.5,-168.5 623.5,-168.5"/>
<text text-anchor="middle" x="656" y="-175.5" font-family="Helvetica,sans-Serif" font-size="10.00">functional</text>
</a>
</g>
</g>
<!-- Node4&#45;&gt;Node8 -->
<g id="edge7" class="edge">
<title>Node4&#45;&gt;Node8</title>
<path fill="none" stroke="midnightblue" d="M536.5,-224.44C560.08,-215.48 597.32,-201.31 623.96,-191.18"/>
<polygon fill="midnightblue" stroke="midnightblue" points="625.5,-194.34 633.6,-187.52 623.01,-187.8 625.5,-194.34"/>
</g>
<!-- Node9 -->
<g id="node9" class="node">
<title>Node9</title>
<g id="a_node9"><a xlink:title=" ">
<polygon fill="none" stroke="#bfbfbf" points="707,-168.5 707,-187.5 793,-187.5 793,-168.5 707,-168.5"/>
<text text-anchor="middle" x="750" y="-175.5" font-family="Helvetica,sans-Serif" font-size="10.00">unordered_set</text>
</a>
</g>
</g>
<!-- Node4&#45;&gt;Node9 -->
<g id="edge8" class="edge">
<title>Node4&#45;&gt;Node9</title>
<path fill="none" stroke="midnightblue" d="M543.81,-226.11C546.91,-225.4 550.02,-224.68 553,-224 604.11,-212.26 662.71,-198.89 702.61,-189.79"/>
<polygon fill="midnightblue" stroke="midnightblue" points="703.62,-193.15 712.59,-187.52 702.07,-186.33 703.62,-193.15"/>
</g>
<!-- Node10 -->
<g id="node10" class="node">
<title>Node10</title>
<g id="a_node10"><a xlink:href="peripheral_8hpp.html" target="_top" xlink:title="This file defines an interface for a memory&#45;mapped peripheral.">
<polygon fill="none" stroke="black" points="60.5,-112.5 60.5,-131.5 147.5,-131.5 147.5,-112.5 60.5,-112.5"/>
<text text-anchor="middle" x="104" y="-119.5" font-family="Helvetica,sans-Serif" font-size="10.00">peripheral.hpp</text>
</a>
</g>
</g>
<!-- Node4&#45;&gt;Node10 -->
<g id="edge9" class="edge">
<title>Node4&#45;&gt;Node10</title>
<path fill="none" stroke="midnightblue" d="M484.19,-225.63C481.43,-225.04 478.67,-224.49 476,-224 352.12,-201.46 312.21,-233.98 195,-188 165.8,-176.55 137.21,-153.66 120.09,-138.33"/>
<polygon fill="midnightblue" stroke="midnightblue" points="122.39,-135.69 112.66,-131.5 117.65,-140.84 122.39,-135.69"/>
</g>
<!-- Node11 -->
<g id="node11" class="node">
<title>Node11</title>
<g id="a_node11"><a xlink:href="interrupt__controller_8hpp.html" target="_top" xlink:title=" ">
<polygon fill="none" stroke="black" points="204.5,-168.5 204.5,-187.5 335.5,-187.5 335.5,-168.5 204.5,-168.5"/>
<text text-anchor="middle" x="270" y="-175.5" font-family="Helvetica,sans-Serif" font-size="10.00">interrupt_controller.hpp</text>
</a>
</g>
</g>
<!-- Node4&#45;&gt;Node11 -->
<g id="edge10" class="edge">
<title>Node4&#45;&gt;Node11</title>
<path fill="none" stroke="midnightblue" d="M484.14,-225.88C481.39,-225.24 478.64,-224.6 476,-224 422.74,-211.88 361.59,-198.6 319.84,-189.63"/>
<polygon fill="midnightblue" stroke="midnightblue" points="320.43,-186.18 309.92,-187.5 318.97,-193.02 320.43,-186.18"/>
</g>
<!-- Node14 -->
<g id="node14" class="node">
<title>Node14</title>
<g id="a_node14"><a xlink:href="logger_8hpp.html" target="_top" xlink:title=" ">
<polygon fill="none" stroke="black" points="324,-56.5 324,-75.5 458,-75.5 458,-56.5 324,-56.5"/>
<text text-anchor="middle" x="391" y="-63.5" font-family="Helvetica,sans-Serif" font-size="10.00">../utils/logger/logger.hpp</text>
</a>
</g>
</g>
<!-- Node4&#45;&gt;Node14 -->
<g id="edge23" class="edge">
<title>Node4&#45;&gt;Node14</title>
<path fill="none" stroke="midnightblue" d="M513.49,-224.32C511.8,-202.86 504.73,-146.53 476,-112 463.68,-97.19 445.2,-86.59 428.62,-79.42"/>
<polygon fill="midnightblue" stroke="midnightblue" points="429.72,-76.09 419.13,-75.58 427.09,-82.57 429.72,-76.09"/>
</g>
<!-- Node11&#45;&gt;Node5 -->
<g id="edge11" class="edge">
<title>Node11&#45;&gt;Node5</title>
<path fill="none" stroke="midnightblue" d="M222.3,-168.46C179.93,-160.6 116.13,-148.06 52.1,-132.11"/>
<polygon fill="midnightblue" stroke="midnightblue" points="52.79,-128.67 42.24,-129.63 51.08,-135.46 52.79,-128.67"/>
</g>
<!-- Node11&#45;&gt;Node10 -->
<g id="edge13" class="edge">
<title>Node11&#45;&gt;Node10</title>
<path fill="none" stroke="midnightblue" d="M243.7,-168.44C215.65,-159.32 171.06,-144.81 139.82,-134.65"/>
<polygon fill="midnightblue" stroke="midnightblue" points="140.77,-131.28 130.18,-131.52 138.61,-137.94 140.77,-131.28"/>
</g>
<!-- Node12 -->
<g id="node12" class="node">
<title>Node12</title>
<g id="a_node12"><a xlink:title=" ">
<polygon fill="none" stroke="#bfbfbf" points="165.5,-112.5 165.5,-131.5 258.5,-131.5 258.5,-112.5 165.5,-112.5"/>
<text text-anchor="middle" x="212" y="-119.5" font-family="Helvetica,sans-Serif" font-size="10.00">unordered_map</text>
</a>
</g>
</g>
<!-- Node11&#45;&gt;Node12 -->
<g id="edge12" class="edge">
<title>Node11&#45;&gt;Node12</title>
<path fill="none" stroke="midnightblue" d="M260.68,-168.32C252.11,-160.34 239.19,-148.31 228.81,-138.65"/>
<polygon fill="midnightblue" stroke="midnightblue" points="231.19,-136.09 221.49,-131.83 226.42,-141.21 231.19,-136.09"/>
</g>
<!-- Node13 -->
<g id="node13" class="node">
<title>Node13</title>
<g id="a_node13"><a xlink:href="context_8hpp.html" target="_top" xlink:title="This file defines the context (registers) of the CPU.">
<polygon fill="none" stroke="black" points="315,-112.5 315,-131.5 467,-131.5 467,-112.5 315,-112.5"/>
<text text-anchor="middle" x="391" y="-119.5" font-family="Helvetica,sans-Serif" font-size="10.00">../arm1176jzf_s/context.hpp</text>
</a>
</g>
</g>
<!-- Node11&#45;&gt;Node13 -->
<g id="edge14" class="edge">
<title>Node11&#45;&gt;Node13</title>
<path fill="none" stroke="midnightblue" d="M289.17,-168.44C308.91,-159.64 339.89,-145.81 362.49,-135.72"/>
<polygon fill="midnightblue" stroke="midnightblue" points="364.21,-138.79 371.92,-131.52 361.36,-132.4 364.21,-138.79"/>
</g>
<!-- Node11&#45;&gt;Node14 -->
<g id="edge22" class="edge">
<title>Node11&#45;&gt;Node14</title>
<path fill="none" stroke="midnightblue" d="M272.92,-168.41C277.87,-154.93 289.06,-128.62 306,-112 320.35,-97.92 339.99,-87.13 356.79,-79.65"/>
<polygon fill="midnightblue" stroke="midnightblue" points="358.44,-82.76 366.28,-75.63 355.71,-76.31 358.44,-82.76"/>
</g>
<!-- Node13&#45;&gt;Node14 -->
<g id="edge15" class="edge">
<title>Node13&#45;&gt;Node14</title>
<path fill="none" stroke="midnightblue" d="M391,-112.08C391,-105.01 391,-94.86 391,-85.99"/>
<polygon fill="midnightblue" stroke="midnightblue" points="394.5,-85.75 391,-75.75 387.5,-85.75 394.5,-85.75"/>
</g>
<!-- Node14&#45;&gt;Node6 -->
<g id="edge18" class="edge">
<title>Node14&#45;&gt;Node6</title>
<path fill="none" stroke="midnightblue" d="M413.5,-56.44C437.08,-47.48 474.32,-33.31 500.96,-23.18"/>
<polygon fill="midnightblue" stroke="midnightblue" points="502.5,-26.34 510.6,-19.52 500.01,-19.8 502.5,-26.34"/>
</g>
<!-- Node15 -->
<g id="node15" class="node">
<title>Node15</title>
<g id="a_node15"><a xlink:title=" ">
<polygon fill="none" stroke="#bfbfbf" points="372,-0.5 372,-19.5 420,-19.5 420,-0.5 372,-0.5"/>
<text text-anchor="middle" x="396" y="-7.5" font-family="Helvetica,sans-Serif" font-size="10.00">mutex</text>
</a>
</g>
</g>
<!-- Node14&#45;&gt;Node15 -->
<g id="edge16" class="edge">
<title>Node14&#45;&gt;Node15</title>
<path fill="none" stroke="midnightblue" d="M391.83,-56.08C392.48,-49.01 393.42,-38.86 394.24,-29.99"/>
<polygon fill="midnightblue" stroke="midnightblue" points="397.75,-30.03 395.19,-19.75 390.78,-29.39 397.75,-30.03"/>
</g>
<!-- Node16 -->
<g id="node16" class="node">
<title>Node16</title>
<g id="a_node16"><a xlink:title=" ">
<polygon fill="none" stroke="#bfbfbf" points="438.5,-0.5 438.5,-19.5 485.5,-19.5 485.5,-0.5 438.5,-0.5"/>
<text text-anchor="middle" x="462" y="-7.5" font-family="Helvetica,sans-Serif" font-size="10.00">vector</text>
</a>
</g>
</g>
<!-- Node14&#45;&gt;Node16 -->
<g id="edge17" class="edge">
<title>Node14&#45;&gt;Node16</title>
<path fill="none" stroke="midnightblue" d="M402.41,-56.32C413.11,-48.18 429.34,-35.84 442.16,-26.09"/>
<polygon fill="midnightblue" stroke="midnightblue" points="444.54,-28.67 450.39,-19.83 440.31,-23.1 444.54,-28.67"/>
</g>
<!-- Node17 -->
<g id="node17" class="node">
<title>Node17</title>
<g id="a_node17"><a xlink:title=" ">
<polygon fill="none" stroke="#bfbfbf" points="101,-0.5 101,-19.5 151,-19.5 151,-0.5 101,-0.5"/>
<text text-anchor="middle" x="126" y="-7.5" font-family="Helvetica,sans-Serif" font-size="10.00">cstdint</text>
</a>
</g>
</g>
<!-- Node14&#45;&gt;Node17 -->
<g id="edge19" class="edge">
<title>Node14&#45;&gt;Node17</title>
<path fill="none" stroke="midnightblue" d="M342.13,-56.45C297.44,-48.42 229.28,-35.62 161.24,-20.17"/>
<polygon fill="midnightblue" stroke="midnightblue" points="161.73,-16.69 151.2,-17.87 160.17,-23.52 161.73,-16.69"/>
</g>
<!-- Node18 -->
<g id="node18" class="node">
<title>Node18</title>
<g id="a_node18"><a xlink:title=" ">
<polygon fill="none" stroke="#bfbfbf" points="169.5,-0.5 169.5,-19.5 242.5,-19.5 242.5,-0.5 169.5,-0.5"/>
<text text-anchor="middle" x="206" y="-7.5" font-family="Helvetica,sans-Serif" font-size="10.00">string_view</text>
</a>
</g>
</g>
<!-- Node14&#45;&gt;Node18 -->
<g id="edge20" class="edge">
<title>Node14&#45;&gt;Node18</title>
<path fill="none" stroke="midnightblue" d="M361.69,-56.44C330.16,-47.24 279.87,-32.56 245.01,-22.39"/>
<polygon fill="midnightblue" stroke="midnightblue" points="245.76,-18.96 235.18,-19.52 243.8,-25.68 245.76,-18.96"/>
</g>
<!-- Node19 -->
<g id="node19" class="node">
<title>Node19</title>
<g id="a_node19"><a xlink:title=" ">
<polygon fill="none" stroke="#bfbfbf" points="260.5,-0.5 260.5,-19.5 353.5,-19.5 353.5,-0.5 260.5,-0.5"/>
<text text-anchor="middle" x="307" y="-7.5" font-family="Helvetica,sans-Serif" font-size="10.00">source_location</text>
</a>
</g>
</g>
<!-- Node14&#45;&gt;Node19 -->
<g id="edge21" class="edge">
<title>Node14&#45;&gt;Node19</title>
<path fill="none" stroke="midnightblue" d="M377.5,-56.32C364.4,-47.9 344.29,-34.97 328.89,-25.07"/>
<polygon fill="midnightblue" stroke="midnightblue" points="330.77,-22.12 320.46,-19.65 326.98,-28.01 330.77,-22.12"/>
</g>
</g>
</svg>
