<?xml version="1.0" encoding="UTF-8" standalone="no"?>
<!DOCTYPE svg PUBLIC "-//W3C//DTD SVG 1.1//EN"
 "http://www.w3.org/Graphics/SVG/1.1/DTD/svg11.dtd">
<!-- Generated by graphviz version 2.43.0 (0)
 -->
<!-- Title: Graphical Class Hierarchy Pages: 1 -->
<svg width="332pt" height="529pt"
 viewBox="0.00 0.00 332.00 529.00" xmlns="http://www.w3.org/2000/svg" xmlns:xlink="http://www.w3.org/1999/xlink">
<g id="graph0" class="graph" transform="scale(1 1) rotate(0) translate(4 525)">
<title>Graphical Class Hierarchy</title>
<!-- Node0 -->
<g id="node1" class="node">
<title>Node0</title>
<g id="a_node1"><a xlink:href="classzero__mate_1_1IGUI__Window.html" target="_top" xlink:title=" ">
<polygon fill="none" stroke="black" points="0,-251 0,-270 140,-270 140,-251 0,-251"/>
<text text-anchor="middle" x="70" y="-258" font-family="Helvetica,sans-Serif" font-size="10.00">zero_mate::IGUI_Window</text>
</a>
</g>
</g>
<!-- Node1 -->
<g id="node2" class="node">
<title>Node1</title>
<g id="a_node2"><a xlink:href="classzero__mate_1_1gui_1_1CARM__Timer__Window.html" target="_top" xlink:title=" ">
<polygon fill="none" stroke="black" points="187.5,-490.5 187.5,-520.5 312.5,-520.5 312.5,-490.5 187.5,-490.5"/>
<text text-anchor="start" x="195.5" y="-508.5" font-family="Helvetica,sans-Serif" font-size="10.00">zero_mate::gui::CARM</text>
<text text-anchor="middle" x="250" y="-497.5" font-family="Helvetica,sans-Serif" font-size="10.00">_Timer_Window</text>
</a>
</g>
</g>
<!-- Node0&#45;&gt;Node1 -->
<g id="edge1" class="edge">
<title>Node0&#45;&gt;Node1</title>
<path fill="none" stroke="midnightblue" d="M74.84,-280.05C84.26,-322.86 112.52,-425.55 176,-481.5 179.9,-484.94 184.31,-487.89 188.98,-490.42"/>
<polygon fill="midnightblue" stroke="midnightblue" points="78.23,-279.15 72.75,-270.08 71.38,-280.59 78.23,-279.15"/>
</g>
<!-- Node2 -->
<g id="node3" class="node">
<title>Node2</title>
<g id="a_node3"><a xlink:href="classzero__mate_1_1gui_1_1CCP15__Window.html" target="_top" xlink:title=" ">
<polygon fill="none" stroke="black" points="186.5,-441.5 186.5,-471.5 313.5,-471.5 313.5,-441.5 186.5,-441.5"/>
<text text-anchor="start" x="194.5" y="-459.5" font-family="Helvetica,sans-Serif" font-size="10.00">zero_mate::gui::CCP15</text>
<text text-anchor="middle" x="250" y="-448.5" font-family="Helvetica,sans-Serif" font-size="10.00">_Window</text>
</a>
</g>
</g>
<!-- Node0&#45;&gt;Node2 -->
<g id="edge2" class="edge">
<title>Node0&#45;&gt;Node2</title>
<path fill="none" stroke="midnightblue" d="M77.7,-279.99C90.88,-315.51 123.57,-390.95 176,-432.5 180.29,-435.9 185.07,-438.82 190.09,-441.34"/>
<polygon fill="midnightblue" stroke="midnightblue" points="80.9,-278.56 74.23,-270.33 74.31,-280.92 80.9,-278.56"/>
</g>
<!-- Node3 -->
<g id="node4" class="node">
<title>Node3</title>
<g id="a_node4"><a xlink:href="classzero__mate_1_1gui_1_1CControl__Window.html" target="_top" xlink:title=" ">
<polygon fill="none" stroke="black" points="181.5,-392.5 181.5,-422.5 318.5,-422.5 318.5,-392.5 181.5,-392.5"/>
<text text-anchor="start" x="189.5" y="-410.5" font-family="Helvetica,sans-Serif" font-size="10.00">zero_mate::gui::CControl</text>
<text text-anchor="middle" x="250" y="-399.5" font-family="Helvetica,sans-Serif" font-size="10.00">_Window</text>
</a>
</g>
</g>
<!-- Node0&#45;&gt;Node3 -->
<g id="edge3" class="edge">
<title>Node0&#45;&gt;Node3</title>
<path fill="none" stroke="midnightblue" d="M81.95,-278.79C98.86,-305.54 133.85,-355.22 176,-383.5 181.1,-386.92 186.72,-389.88 192.51,-392.45"/>
<polygon fill="midnightblue" stroke="midnightblue" points="84.78,-276.72 76.55,-270.05 78.83,-280.4 84.78,-276.72"/>
</g>
<!-- Node4 -->
<g id="node5" class="node">
<title>Node4</title>
<g id="a_node5"><a xlink:href="classzero__mate_1_1gui_1_1CFile__Window.html" target="_top" xlink:title=" ">
<polygon fill="none" stroke="black" points="190.5,-343.5 190.5,-373.5 309.5,-373.5 309.5,-343.5 190.5,-343.5"/>
<text text-anchor="start" x="198.5" y="-361.5" font-family="Helvetica,sans-Serif" font-size="10.00">zero_mate::gui::CFile</text>
<text text-anchor="middle" x="250" y="-350.5" font-family="Helvetica,sans-Serif" font-size="10.00">_Window</text>
</a>
</g>
</g>
<!-- Node0&#45;&gt;Node4 -->
<g id="edge4" class="edge">
<title>Node0&#45;&gt;Node4</title>
<path fill="none" stroke="midnightblue" d="M90.06,-276.58C110.3,-292.99 143.75,-318.29 176,-334.5 182.56,-337.8 189.66,-340.78 196.79,-343.44"/>
<polygon fill="midnightblue" stroke="midnightblue" points="92.19,-273.8 82.24,-270.14 87.74,-279.2 92.19,-273.8"/>
</g>
<!-- Node5 -->
<g id="node6" class="node">
<title>Node5</title>
<g id="a_node6"><a xlink:href="classzero__mate_1_1gui_1_1CGPIO__Window.html" target="_top" xlink:title=" ">
<polygon fill="none" stroke="black" points="187,-294.5 187,-324.5 313,-324.5 313,-294.5 187,-294.5"/>
<text text-anchor="start" x="195" y="-312.5" font-family="Helvetica,sans-Serif" font-size="10.00">zero_mate::gui::CGPIO</text>
<text text-anchor="middle" x="250" y="-301.5" font-family="Helvetica,sans-Serif" font-size="10.00">_Window</text>
</a>
</g>
</g>
<!-- Node0&#45;&gt;Node5 -->
<g id="edge5" class="edge">
<title>Node0&#45;&gt;Node5</title>
<path fill="none" stroke="midnightblue" d="M115.6,-272.78C139.49,-279.35 169.12,-287.51 194.38,-294.46"/>
<polygon fill="midnightblue" stroke="midnightblue" points="116.31,-269.34 105.74,-270.06 114.46,-276.09 116.31,-269.34"/>
</g>
<!-- Node6 -->
<g id="node7" class="node">
<title>Node6</title>
<g id="a_node7"><a xlink:href="classzero__mate_1_1gui_1_1CInterrupt__Controller__Window.html" target="_top" xlink:title=" ">
<polygon fill="none" stroke="black" points="178,-245.5 178,-275.5 322,-275.5 322,-245.5 178,-245.5"/>
<text text-anchor="start" x="186" y="-263.5" font-family="Helvetica,sans-Serif" font-size="10.00">zero_mate::gui::CInterrupt</text>
<text text-anchor="middle" x="250" y="-252.5" font-family="Helvetica,sans-Serif" font-size="10.00">_Controller_Window</text>
</a>
</g>
</g>
<!-- Node0&#45;&gt;Node6 -->
<g id="edge6" class="edge">
<title>Node0&#45;&gt;Node6</title>
<path fill="none" stroke="midnightblue" d="M150.36,-260.5C159.53,-260.5 168.85,-260.5 177.91,-260.5"/>
<polygon fill="midnightblue" stroke="midnightblue" points="150.07,-257 140.07,-260.5 150.07,-264 150.07,-257"/>
</g>
<!-- Node7 -->
<g id="node8" class="node">
<title>Node7</title>
<g id="a_node8"><a xlink:href="classzero__mate_1_1gui_1_1CLog__Window.html" target="_top" xlink:title=" ">
<polygon fill="none" stroke="black" points="190.5,-0.5 190.5,-30.5 309.5,-30.5 309.5,-0.5 190.5,-0.5"/>
<text text-anchor="start" x="198.5" y="-18.5" font-family="Helvetica,sans-Serif" font-size="10.00">zero_mate::gui::CLog</text>
<text text-anchor="middle" x="250" y="-7.5" font-family="Helvetica,sans-Serif" font-size="10.00">_Window</text>
</a>
</g>
</g>
<!-- Node0&#45;&gt;Node7 -->
<g id="edge7" class="edge">
<title>Node0&#45;&gt;Node7</title>
<path fill="none" stroke="midnightblue" d="M74.92,-241.1C84.49,-198.59 113.05,-96.58 176,-40.5 180.3,-36.67 185.22,-33.42 190.42,-30.66"/>
<polygon fill="midnightblue" stroke="midnightblue" points="71.47,-240.48 72.79,-250.99 78.31,-241.95 71.47,-240.48"/>
</g>
<!-- Node8 -->
<g id="node9" class="node">
<title>Node8</title>
<g id="a_node9"><a xlink:href="classzero__mate_1_1gui_1_1CMonitor__Window.html" target="_top" xlink:title=" ">
<polygon fill="none" stroke="black" points="180,-196.5 180,-226.5 320,-226.5 320,-196.5 180,-196.5"/>
<text text-anchor="start" x="188" y="-214.5" font-family="Helvetica,sans-Serif" font-size="10.00">zero_mate::gui::CMonitor</text>
<text text-anchor="middle" x="250" y="-203.5" font-family="Helvetica,sans-Serif" font-size="10.00">_Window</text>
</a>
</g>
</g>
<!-- Node0&#45;&gt;Node8 -->
<g id="edge8" class="edge">
<title>Node0&#45;&gt;Node8</title>
<path fill="none" stroke="midnightblue" d="M115.6,-248.22C139.49,-241.65 169.12,-233.49 194.38,-226.54"/>
<polygon fill="midnightblue" stroke="midnightblue" points="114.46,-244.91 105.74,-250.94 116.31,-251.66 114.46,-244.91"/>
</g>
<!-- Node9 -->
<g id="node10" class="node">
<title>Node9</title>
<g id="a_node10"><a xlink:href="classzero__mate_1_1gui_1_1CRAM__Window.html" target="_top" xlink:title=" ">
<polygon fill="none" stroke="black" points="187.5,-147.5 187.5,-177.5 312.5,-177.5 312.5,-147.5 187.5,-147.5"/>
<text text-anchor="start" x="195.5" y="-165.5" font-family="Helvetica,sans-Serif" font-size="10.00">zero_mate::gui::CRAM</text>
<text text-anchor="middle" x="250" y="-154.5" font-family="Helvetica,sans-Serif" font-size="10.00">_Window</text>
</a>
</g>
</g>
<!-- Node0&#45;&gt;Node9 -->
<g id="edge9" class="edge">
<title>Node0&#45;&gt;Node9</title>
<path fill="none" stroke="midnightblue" d="M90.47,-244.47C110.8,-228.36 144.11,-203.65 176,-187.5 183.17,-183.87 190.99,-180.57 198.76,-177.64"/>
<polygon fill="midnightblue" stroke="midnightblue" points="88.2,-241.81 82.6,-250.8 92.58,-247.27 88.2,-241.81"/>
</g>
<!-- Node10 -->
<g id="node11" class="node">
<title>Node10</title>
<g id="a_node11"><a xlink:href="classzero__mate_1_1gui_1_1CRegisters__Window.html" target="_top" xlink:title=" ">
<polygon fill="none" stroke="black" points="176,-98.5 176,-128.5 324,-128.5 324,-98.5 176,-98.5"/>
<text text-anchor="start" x="184" y="-116.5" font-family="Helvetica,sans-Serif" font-size="10.00">zero_mate::gui::CRegisters</text>
<text text-anchor="middle" x="250" y="-105.5" font-family="Helvetica,sans-Serif" font-size="10.00">_Window</text>
</a>
</g>
</g>
<!-- Node0&#45;&gt;Node10 -->
<g id="edge10" class="edge">
<title>Node0&#45;&gt;Node10</title>
<path fill="none" stroke="midnightblue" d="M82.28,-242.04C99.39,-215.51 134.37,-166.68 176,-138.5 181.66,-134.67 187.96,-131.37 194.42,-128.55"/>
<polygon fill="midnightblue" stroke="midnightblue" points="79.18,-240.4 76.8,-250.73 85.1,-244.14 79.18,-240.4"/>
</g>
<!-- Node11 -->
<g id="node12" class="node">
<title>Node11</title>
<g id="a_node12"><a xlink:href="classzero__mate_1_1gui_1_1CSource__Code__Window.html" target="_top" xlink:title=" ">
<polygon fill="none" stroke="black" points="182.5,-49.5 182.5,-79.5 317.5,-79.5 317.5,-49.5 182.5,-49.5"/>
<text text-anchor="start" x="190.5" y="-67.5" font-family="Helvetica,sans-Serif" font-size="10.00">zero_mate::gui::CSource</text>
<text text-anchor="middle" x="250" y="-56.5" font-family="Helvetica,sans-Serif" font-size="10.00">_Code_Window</text>
</a>
</g>
</g>
<!-- Node0&#45;&gt;Node11 -->
<g id="edge11" class="edge">
<title>Node0&#45;&gt;Node11</title>
<path fill="none" stroke="midnightblue" d="M77.78,-241.19C91.1,-205.98 123.99,-131.13 176,-89.5 180.81,-85.65 186.25,-82.37 191.94,-79.59"/>
<polygon fill="midnightblue" stroke="midnightblue" points="74.42,-240.17 74.27,-250.76 81,-242.58 74.42,-240.17"/>
</g>
<!-- Node43 -->
<g id="node13" class="node">
<title>Node43</title>
<g id="a_node13"><a xlink:title=" ">
<polygon fill="none" stroke="#bfbfbf" points="30,-6 30,-25 110,-25 110,-6 30,-6"/>
<text text-anchor="middle" x="70" y="-13" font-family="Helvetica,sans-Serif" font-size="10.00">utils::ILogger</text>
</a>
</g>
</g>
<!-- Node43&#45;&gt;Node7 -->
<g id="edge12" class="edge">
<title>Node43&#45;&gt;Node7</title>
<path fill="none" stroke="midnightblue" d="M120.08,-15.5C141.85,-15.5 167.63,-15.5 190.41,-15.5"/>
<polygon fill="midnightblue" stroke="midnightblue" points="120.06,-12 110.06,-15.5 120.06,-19 120.06,-12"/>
</g>
</g>
</svg>
