<?xml version="1.0" encoding="UTF-8" standalone="no"?>
<!DOCTYPE svg PUBLIC "-//W3C//DTD SVG 1.1//EN"
 "http://www.w3.org/Graphics/SVG/1.1/DTD/svg11.dtd">
<!-- Generated by graphviz version 2.43.0 (0)
 -->
<!-- Title: Graphical Class Hierarchy Pages: 1 -->
<svg width="354pt" height="715pt"
 viewBox="0.00 0.00 354.00 714.50" xmlns="http://www.w3.org/2000/svg" xmlns:xlink="http://www.w3.org/1999/xlink">
<g id="graph0" class="graph" transform="scale(1 1) rotate(0) translate(4 710.5)">
<title>Graphical Class Hierarchy</title>
<!-- Node0 -->
<g id="node1" class="node">
<title>Node0</title>
<g id="a_node1"><a xlink:href="classzero__mate_1_1gui_1_1IGUI__Window.html" target="_top" xlink:title="Common interface for all GUI windows.">
<polygon fill="none" stroke="black" points="10.5,-357 10.5,-387 126.5,-387 126.5,-357 10.5,-357"/>
<text text-anchor="start" x="18.5" y="-375" font-family="Helvetica,sans-Serif" font-size="10.00">zero_mate::gui::IGUI</text>
<text text-anchor="middle" x="68.5" y="-364" font-family="Helvetica,sans-Serif" font-size="10.00">_Window</text>
</a>
</g>
</g>
<!-- Node1 -->
<g id="node2" class="node">
<title>Node1</title>
<g id="a_node2"><a xlink:href="classzero__mate_1_1gui_1_1CARM__Timer__Window.html" target="_top" xlink:title="This windows visualizes the contents of the ARM timer registers.">
<polygon fill="none" stroke="black" points="197,-676 197,-706 322,-706 322,-676 197,-676"/>
<text text-anchor="start" x="205" y="-694" font-family="Helvetica,sans-Serif" font-size="10.00">zero_mate::gui::CARM</text>
<text text-anchor="middle" x="259.5" y="-683" font-family="Helvetica,sans-Serif" font-size="10.00">_Timer_Window</text>
</a>
</g>
</g>
<!-- Node0&#45;&gt;Node1 -->
<g id="edge1" class="edge">
<title>Node0&#45;&gt;Node1</title>
<path fill="none" stroke="midnightblue" d="M70.82,-397.38C75.16,-454.24 93.77,-592.67 173,-667 179.75,-673.33 188.03,-678.01 196.75,-681.47"/>
<polygon fill="midnightblue" stroke="midnightblue" points="74.29,-396.88 70.12,-387.14 67.31,-397.35 74.29,-396.88"/>
</g>
<!-- Node2 -->
<g id="node3" class="node">
<title>Node2</title>
<g id="a_node3"><a xlink:href="classzero__mate_1_1gui_1_1CAUX__Window.html" target="_top" xlink:title="This class represents the windows that visualizes auxiliary peripherals.">
<polygon fill="none" stroke="black" points="198,-627 198,-657 321,-657 321,-627 198,-627"/>
<text text-anchor="start" x="206" y="-645" font-family="Helvetica,sans-Serif" font-size="10.00">zero_mate::gui::CAUX</text>
<text text-anchor="middle" x="259.5" y="-634" font-family="Helvetica,sans-Serif" font-size="10.00">_Window</text>
</a>
</g>
</g>
<!-- Node0&#45;&gt;Node2 -->
<g id="edge2" class="edge">
<title>Node0&#45;&gt;Node2</title>
<path fill="none" stroke="midnightblue" d="M72.82,-397.24C80.72,-447.04 105.34,-558.28 173,-618 180.17,-624.33 188.88,-628.99 197.96,-632.44"/>
<polygon fill="midnightblue" stroke="midnightblue" points="76.23,-396.42 71.3,-387.04 69.31,-397.45 76.23,-396.42"/>
</g>
<!-- Node3 -->
<g id="node4" class="node">
<title>Node3</title>
<g id="a_node4"><a xlink:href="classzero__mate_1_1gui_1_1CCP10__Window.html" target="_top" xlink:title="This class represents a window that displays information related to CP10 (coprocessor 10).">
<polygon fill="none" stroke="black" points="196,-578 196,-608 323,-608 323,-578 196,-578"/>
<text text-anchor="start" x="204" y="-596" font-family="Helvetica,sans-Serif" font-size="10.00">zero_mate::gui::CCP10</text>
<text text-anchor="middle" x="259.5" y="-585" font-family="Helvetica,sans-Serif" font-size="10.00">_Window</text>
</a>
</g>
</g>
<!-- Node0&#45;&gt;Node3 -->
<g id="edge3" class="edge">
<title>Node0&#45;&gt;Node3</title>
<path fill="none" stroke="midnightblue" d="M75.65,-396.91C87.31,-438.84 116.66,-523.41 173,-569 179.71,-574.43 187.58,-578.63 195.77,-581.89"/>
<polygon fill="midnightblue" stroke="midnightblue" points="79.02,-395.98 73.06,-387.22 72.26,-397.78 79.02,-395.98"/>
</g>
<!-- Node4 -->
<g id="node5" class="node">
<title>Node4</title>
<g id="a_node5"><a xlink:href="classzero__mate_1_1gui_1_1CCP15__Window.html" target="_top" xlink:title="This class represents a window that displays information related to CP15 (coprocessor 15).">
<polygon fill="none" stroke="black" points="196,-529 196,-559 323,-559 323,-529 196,-529"/>
<text text-anchor="start" x="204" y="-547" font-family="Helvetica,sans-Serif" font-size="10.00">zero_mate::gui::CCP15</text>
<text text-anchor="middle" x="259.5" y="-536" font-family="Helvetica,sans-Serif" font-size="10.00">_Window</text>
</a>
</g>
</g>
<!-- Node0&#45;&gt;Node4 -->
<g id="edge4" class="edge">
<title>Node0&#45;&gt;Node4</title>
<path fill="none" stroke="midnightblue" d="M80.13,-396.57C95.69,-429.61 127.81,-487.94 173,-520 179.92,-524.91 187.81,-528.81 195.93,-531.92"/>
<polygon fill="midnightblue" stroke="midnightblue" points="83.18,-394.82 75.84,-387.18 76.81,-397.73 83.18,-394.82"/>
</g>
<!-- Node5 -->
<g id="node6" class="node">
<title>Node5</title>
<g id="a_node6"><a xlink:href="classzero__mate_1_1gui_1_1CControl__Window.html" target="_top" xlink:title="This class represents a window that allows the user to control CPU execution.">
<polygon fill="none" stroke="black" points="191,-480 191,-510 328,-510 328,-480 191,-480"/>
<text text-anchor="start" x="199" y="-498" font-family="Helvetica,sans-Serif" font-size="10.00">zero_mate::gui::CControl</text>
<text text-anchor="middle" x="259.5" y="-487" font-family="Helvetica,sans-Serif" font-size="10.00">_Window</text>
</a>
</g>
</g>
<!-- Node0&#45;&gt;Node5 -->
<g id="edge5" class="edge">
<title>Node0&#45;&gt;Node5</title>
<path fill="none" stroke="midnightblue" d="M87.56,-394.88C106.53,-417.41 138.38,-451.25 173,-471 179.03,-474.44 185.58,-477.41 192.28,-479.97"/>
<polygon fill="midnightblue" stroke="midnightblue" points="90.23,-392.62 81.17,-387.13 84.83,-397.07 90.23,-392.62"/>
</g>
<!-- Node6 -->
<g id="node7" class="node">
<title>Node6</title>
<g id="a_node7"><a xlink:href="classzero__mate_1_1gui_1_1CDemo__Window.html" target="_top" xlink:title="This class displays the ImGui and ImPlot demos.">
<polygon fill="none" stroke="black" points="194,-431 194,-461 325,-461 325,-431 194,-431"/>
<text text-anchor="start" x="202" y="-449" font-family="Helvetica,sans-Serif" font-size="10.00">zero_mate::gui::CDemo</text>
<text text-anchor="middle" x="259.5" y="-438" font-family="Helvetica,sans-Serif" font-size="10.00">_Window</text>
</a>
</g>
</g>
<!-- Node0&#45;&gt;Node6 -->
<g id="edge6" class="edge">
<title>Node0&#45;&gt;Node6</title>
<path fill="none" stroke="midnightblue" d="M106.57,-391.88C125.99,-401.78 150.39,-413.44 173,-422 181.51,-425.22 190.63,-428.23 199.64,-430.96"/>
<polygon fill="midnightblue" stroke="midnightblue" points="107.95,-388.65 97.46,-387.17 104.74,-394.87 107.95,-388.65"/>
</g>
<!-- Node7 -->
<g id="node8" class="node">
<title>Node7</title>
<g id="a_node8"><a xlink:href="classzero__mate_1_1gui_1_1CGPIO__Window.html" target="_top" xlink:title="This class represents a windows that displays information about GPIO pins.">
<polygon fill="none" stroke="black" points="196.5,-382 196.5,-412 322.5,-412 322.5,-382 196.5,-382"/>
<text text-anchor="start" x="204.5" y="-400" font-family="Helvetica,sans-Serif" font-size="10.00">zero_mate::gui::CGPIO</text>
<text text-anchor="middle" x="259.5" y="-389" font-family="Helvetica,sans-Serif" font-size="10.00">_Window</text>
</a>
</g>
</g>
<!-- Node0&#45;&gt;Node7 -->
<g id="edge7" class="edge">
<title>Node0&#45;&gt;Node7</title>
<path fill="none" stroke="midnightblue" d="M136.68,-380.89C156.07,-383.45 177.13,-386.24 196.21,-388.76"/>
<polygon fill="midnightblue" stroke="midnightblue" points="137.09,-377.41 126.72,-379.57 136.17,-384.35 137.09,-377.41"/>
</g>
<!-- Node8 -->
<g id="node9" class="node">
<title>Node8</title>
<g id="a_node9"><a xlink:href="classzero__mate_1_1gui_1_1CInterrupt__Controller__Window.html" target="_top" xlink:title="This class defines a window that displays information about the interrupt controller.">
<polygon fill="none" stroke="black" points="187.5,-333 187.5,-363 331.5,-363 331.5,-333 187.5,-333"/>
<text text-anchor="start" x="195.5" y="-351" font-family="Helvetica,sans-Serif" font-size="10.00">zero_mate::gui::CInterrupt</text>
<text text-anchor="middle" x="259.5" y="-340" font-family="Helvetica,sans-Serif" font-size="10.00">_Controller_Window</text>
</a>
</g>
</g>
<!-- Node0&#45;&gt;Node8 -->
<g id="edge8" class="edge">
<title>Node0&#45;&gt;Node8</title>
<path fill="none" stroke="midnightblue" d="M136.77,-363.46C153.2,-361.37 170.83,-359.13 187.43,-357.02"/>
<polygon fill="midnightblue" stroke="midnightblue" points="136.2,-360 126.72,-364.73 137.08,-366.95 136.2,-360"/>
</g>
<!-- Node9 -->
<g id="node10" class="node">
<title>Node9</title>
<g id="a_node10"><a xlink:href="classzero__mate_1_1gui_1_1CLog__Window.html" target="_top" xlink:title="This class represents a window that displays log messages.">
<polygon fill="none" stroke="black" points="200,-39 200,-69 319,-69 319,-39 200,-39"/>
<text text-anchor="start" x="208" y="-57" font-family="Helvetica,sans-Serif" font-size="10.00">zero_mate::gui::CLog</text>
<text text-anchor="middle" x="259.5" y="-46" font-family="Helvetica,sans-Serif" font-size="10.00">_Window</text>
</a>
</g>
</g>
<!-- Node0&#45;&gt;Node9 -->
<g id="edge9" class="edge">
<title>Node0&#45;&gt;Node9</title>
<path fill="none" stroke="midnightblue" d="M70.96,-346.45C75.6,-289.85 94.76,-153.05 173,-79 180.53,-71.88 189.97,-66.77 199.81,-63.11"/>
<polygon fill="midnightblue" stroke="midnightblue" points="67.46,-346.43 70.22,-356.66 74.44,-346.95 67.46,-346.43"/>
</g>
<!-- Node10 -->
<g id="node11" class="node">
<title>Node10</title>
<g id="a_node11"><a xlink:href="classzero__mate_1_1gui_1_1CMonitor__Window.html" target="_top" xlink:title="This class represents a window that visualizes the memory&#45;mapped debug monitor.">
<polygon fill="none" stroke="black" points="189.5,-284 189.5,-314 329.5,-314 329.5,-284 189.5,-284"/>
<text text-anchor="start" x="197.5" y="-302" font-family="Helvetica,sans-Serif" font-size="10.00">zero_mate::gui::CMonitor</text>
<text text-anchor="middle" x="259.5" y="-291" font-family="Helvetica,sans-Serif" font-size="10.00">_Window</text>
</a>
</g>
</g>
<!-- Node0&#45;&gt;Node10 -->
<g id="edge10" class="edge">
<title>Node0&#45;&gt;Node10</title>
<path fill="none" stroke="midnightblue" d="M107.94,-352.5C127.18,-343.17 151.01,-332.26 173,-324 182.41,-320.46 192.55,-317.11 202.45,-314.08"/>
<polygon fill="midnightblue" stroke="midnightblue" points="106.33,-349.39 98.89,-356.93 109.41,-355.68 106.33,-349.39"/>
</g>
<!-- Node11 -->
<g id="node12" class="node">
<title>Node11</title>
<g id="a_node12"><a xlink:href="classzero__mate_1_1gui_1_1CRAM__Window.html" target="_top" xlink:title="This class represents a windows that visualizes the contents of the RAM.">
<polygon fill="none" stroke="black" points="197,-235 197,-265 322,-265 322,-235 197,-235"/>
<text text-anchor="start" x="205" y="-253" font-family="Helvetica,sans-Serif" font-size="10.00">zero_mate::gui::CRAM</text>
<text text-anchor="middle" x="259.5" y="-242" font-family="Helvetica,sans-Serif" font-size="10.00">_Window</text>
</a>
</g>
</g>
<!-- Node0&#45;&gt;Node11 -->
<g id="edge11" class="edge">
<title>Node0&#45;&gt;Node11</title>
<path fill="none" stroke="midnightblue" d="M88.27,-349.02C107.42,-327.02 139.05,-294.38 173,-275 180.39,-270.78 188.55,-267.22 196.81,-264.23"/>
<polygon fill="midnightblue" stroke="midnightblue" points="85.39,-347 81.57,-356.88 90.72,-351.54 85.39,-347"/>
</g>
<!-- Node12 -->
<g id="node13" class="node">
<title>Node12</title>
<g id="a_node13"><a xlink:href="classzero__mate_1_1gui_1_1CRegisters__Window.html" target="_top" xlink:title="This class represents the window that displays the contents of all CPU registers.">
<polygon fill="none" stroke="black" points="185.5,-186 185.5,-216 333.5,-216 333.5,-186 185.5,-186"/>
<text text-anchor="start" x="193.5" y="-204" font-family="Helvetica,sans-Serif" font-size="10.00">zero_mate::gui::CRegisters</text>
<text text-anchor="middle" x="259.5" y="-193" font-family="Helvetica,sans-Serif" font-size="10.00">_Window</text>
</a>
</g>
</g>
<!-- Node0&#45;&gt;Node12 -->
<g id="edge12" class="edge">
<title>Node0&#45;&gt;Node12</title>
<path fill="none" stroke="midnightblue" d="M80.51,-347.33C96.32,-314.72 128.52,-257.71 173,-226 178.42,-222.14 184.42,-218.87 190.67,-216.1"/>
<polygon fill="midnightblue" stroke="midnightblue" points="77.23,-346.08 76.14,-356.61 83.57,-349.06 77.23,-346.08"/>
</g>
<!-- Node13 -->
<g id="node14" class="node">
<title>Node13</title>
<g id="a_node14"><a xlink:href="classzero__mate_1_1gui_1_1CSource__Code__Window.html" target="_top" xlink:title="This class represents a windows that displays the contents of loaded ELF files.">
<polygon fill="none" stroke="black" points="192,-137 192,-167 327,-167 327,-137 192,-137"/>
<text text-anchor="start" x="200" y="-155" font-family="Helvetica,sans-Serif" font-size="10.00">zero_mate::gui::CSource</text>
<text text-anchor="middle" x="259.5" y="-144" font-family="Helvetica,sans-Serif" font-size="10.00">_Code_Window</text>
</a>
</g>
</g>
<!-- Node0&#45;&gt;Node13 -->
<g id="edge13" class="edge">
<title>Node0&#45;&gt;Node13</title>
<path fill="none" stroke="midnightblue" d="M75.85,-347.14C87.76,-305.63 117.37,-222.32 173,-177 178.64,-172.41 185.08,-168.66 191.86,-165.6"/>
<polygon fill="midnightblue" stroke="midnightblue" points="72.43,-346.41 73.14,-356.98 79.18,-348.27 72.43,-346.41"/>
</g>
<!-- Node14 -->
<g id="node15" class="node">
<title>Node14</title>
<g id="a_node15"><a xlink:href="classzero__mate_1_1gui_1_1CTop__Bar__Menu.html" target="_top" xlink:title="This class represents a top bar through which the user can load ELF files.">
<polygon fill="none" stroke="black" points="200,-88 200,-118 319,-118 319,-88 200,-88"/>
<text text-anchor="start" x="208" y="-106" font-family="Helvetica,sans-Serif" font-size="10.00">zero_mate::gui::CTop</text>
<text text-anchor="middle" x="259.5" y="-95" font-family="Helvetica,sans-Serif" font-size="10.00">_Bar_Menu</text>
</a>
</g>
</g>
<!-- Node0&#45;&gt;Node14 -->
<g id="edge14" class="edge">
<title>Node0&#45;&gt;Node14</title>
<path fill="none" stroke="midnightblue" d="M73,-346.67C81.18,-297.21 106.2,-187.43 173,-128 180.63,-121.22 190,-116.27 199.72,-112.66"/>
<polygon fill="midnightblue" stroke="midnightblue" points="69.5,-346.39 71.42,-356.81 76.42,-347.47 69.5,-346.39"/>
</g>
<!-- Node68 -->
<g id="node16" class="node">
<title>Node68</title>
<g id="a_node16"><a xlink:href="classzero__mate_1_1utils_1_1ILogger.html" target="_top" xlink:title="This class represents a logging_system interface.">
<polygon fill="none" stroke="black" points="0,-22.5 0,-41.5 137,-41.5 137,-22.5 0,-22.5"/>
<text text-anchor="middle" x="68.5" y="-29.5" font-family="Helvetica,sans-Serif" font-size="10.00">zero_mate::utils::ILogger</text>
</a>
</g>
</g>
<!-- Node68&#45;&gt;Node9 -->
<g id="edge15" class="edge">
<title>Node68&#45;&gt;Node9</title>
<path fill="none" stroke="midnightblue" d="M147.39,-41.07C164.88,-43.1 183.16,-45.23 199.72,-47.16"/>
<polygon fill="midnightblue" stroke="midnightblue" points="147.54,-37.56 137.2,-39.88 146.73,-44.51 147.54,-37.56"/>
</g>
<!-- Node69 -->
<g id="node17" class="node">
<title>Node69</title>
<g id="a_node17"><a xlink:href="classzero__mate_1_1utils_1_1CLogger__STDO.html" target="_top" xlink:title="This class represents a logging_system that logs messages to the standard output (STDO).">
<polygon fill="none" stroke="black" points="173,-0.5 173,-19.5 346,-19.5 346,-0.5 173,-0.5"/>
<text text-anchor="middle" x="259.5" y="-7.5" font-family="Helvetica,sans-Serif" font-size="10.00">zero_mate::utils::CLogger_STDO</text>
</a>
</g>
</g>
<!-- Node68&#45;&gt;Node69 -->
<g id="edge16" class="edge">
<title>Node68&#45;&gt;Node69</title>
<path fill="none" stroke="midnightblue" d="M147.24,-22.95C156.97,-21.82 166.95,-20.66 176.75,-19.52"/>
<polygon fill="midnightblue" stroke="midnightblue" points="146.73,-19.49 137.2,-24.12 147.54,-26.44 146.73,-19.49"/>
</g>
</g>
</svg>
