<?xml version="1.0" encoding="UTF-8" standalone="no"?>
<!DOCTYPE svg PUBLIC "-//W3C//DTD SVG 1.1//EN"
 "http://www.w3.org/Graphics/SVG/1.1/DTD/svg11.dtd">
<!-- Generated by graphviz version 2.43.0 (0)
 -->
<!-- Title: Graphical Class Hierarchy Pages: 1 -->
<svg width="308pt" height="333pt"
 viewBox="0.00 0.00 308.00 333.00" xmlns="http://www.w3.org/2000/svg" xmlns:xlink="http://www.w3.org/1999/xlink">
<g id="graph0" class="graph" transform="scale(1 1) rotate(0) translate(4 329)">
<title>Graphical Class Hierarchy</title>
<!-- Node0 -->
<g id="node1" class="node">
<title>Node0</title>
<g id="a_node1"><a xlink:href="classzero__mate_1_1peripheral_1_1IPeripheral.html" target="_top" xlink:title="This class represents a general interface of a memory&#45;mapped peripheral.">
<polygon fill="none" stroke="black" points="7.5,-147.5 7.5,-177.5 131.5,-177.5 131.5,-147.5 7.5,-147.5"/>
<text text-anchor="start" x="15.5" y="-165.5" font-family="Helvetica,sans-Serif" font-size="10.00">zero_mate::peripheral</text>
<text text-anchor="middle" x="69.5" y="-154.5" font-family="Helvetica,sans-Serif" font-size="10.00">::IPeripheral</text>
</a>
</g>
</g>
<!-- Node1 -->
<g id="node2" class="node">
<title>Node1</title>
<g id="a_node2"><a xlink:href="classzero__mate_1_1peripheral_1_1CARM__Timer.html" target="_top" xlink:title="This class represents the ARM timer used in BCM2835.">
<polygon fill="none" stroke="black" points="175.5,-245.5 175.5,-275.5 299.5,-275.5 299.5,-245.5 175.5,-245.5"/>
<text text-anchor="start" x="183.5" y="-263.5" font-family="Helvetica,sans-Serif" font-size="10.00">zero_mate::peripheral</text>
<text text-anchor="middle" x="237.5" y="-252.5" font-family="Helvetica,sans-Serif" font-size="10.00">::CARM_Timer</text>
</a>
</g>
</g>
<!-- Node0&#45;&gt;Node1 -->
<g id="edge1" class="edge">
<title>Node0&#45;&gt;Node1</title>
<path fill="none" stroke="midnightblue" d="M97.24,-183.69C117.74,-199.3 147.15,-220.36 175,-235.5 181.58,-239.08 188.79,-242.45 195.87,-245.49"/>
<polygon fill="midnightblue" stroke="midnightblue" points="99.36,-180.91 89.31,-177.58 95.09,-186.46 99.36,-180.91"/>
</g>
<!-- Node2 -->
<g id="node3" class="node">
<title>Node2</title>
<g id="a_node3"><a xlink:href="classzero__mate_1_1peripheral_1_1CAUX.html" target="_top" xlink:title="This class represents the auxiliaries (UART1 &amp; SPI1, and SPI2).">
<polygon fill="none" stroke="black" points="175.5,-294.5 175.5,-324.5 299.5,-324.5 299.5,-294.5 175.5,-294.5"/>
<text text-anchor="start" x="183.5" y="-312.5" font-family="Helvetica,sans-Serif" font-size="10.00">zero_mate::peripheral</text>
<text text-anchor="middle" x="237.5" y="-301.5" font-family="Helvetica,sans-Serif" font-size="10.00">::CAUX</text>
</a>
</g>
</g>
<!-- Node0&#45;&gt;Node2 -->
<g id="edge2" class="edge">
<title>Node0&#45;&gt;Node2</title>
<path fill="none" stroke="midnightblue" d="M85.46,-186.42C103.64,-213.74 136.67,-258.17 175,-285.5 179.67,-288.83 184.86,-291.77 190.19,-294.35"/>
<polygon fill="midnightblue" stroke="midnightblue" points="88.28,-184.33 79.88,-177.86 82.41,-188.15 88.28,-184.33"/>
</g>
<!-- Node3 -->
<g id="node4" class="node">
<title>Node3</title>
<g id="a_node4"><a xlink:href="classzero__mate_1_1peripheral_1_1CGPIO__Manager.html" target="_top" xlink:title="This class represents a GPIO (general&#45;purpose I/O) manager.">
<polygon fill="none" stroke="black" points="175.5,-147.5 175.5,-177.5 299.5,-177.5 299.5,-147.5 175.5,-147.5"/>
<text text-anchor="start" x="183.5" y="-165.5" font-family="Helvetica,sans-Serif" font-size="10.00">zero_mate::peripheral</text>
<text text-anchor="middle" x="237.5" y="-154.5" font-family="Helvetica,sans-Serif" font-size="10.00">::CGPIO_Manager</text>
</a>
</g>
</g>
<!-- Node0&#45;&gt;Node3 -->
<g id="edge3" class="edge">
<title>Node0&#45;&gt;Node3</title>
<path fill="none" stroke="midnightblue" d="M141.97,-162.5C153.11,-162.5 164.53,-162.5 175.41,-162.5"/>
<polygon fill="midnightblue" stroke="midnightblue" points="141.84,-159 131.84,-162.5 141.84,-166 141.84,-159"/>
</g>
<!-- Node4 -->
<g id="node5" class="node">
<title>Node4</title>
<g id="a_node5"><a xlink:href="classzero__mate_1_1peripheral_1_1CInterrupt__Controller.html" target="_top" xlink:title="This class represents the interrupt controller used in BCM2835.">
<polygon fill="none" stroke="black" points="175,-98.5 175,-128.5 300,-128.5 300,-98.5 175,-98.5"/>
<text text-anchor="start" x="183" y="-116.5" font-family="Helvetica,sans-Serif" font-size="10.00">zero_mate::peripheral</text>
<text text-anchor="middle" x="237.5" y="-105.5" font-family="Helvetica,sans-Serif" font-size="10.00">::CInterrupt_Controller</text>
</a>
</g>
</g>
<!-- Node0&#45;&gt;Node4 -->
<g id="edge4" class="edge">
<title>Node0&#45;&gt;Node4</title>
<path fill="none" stroke="midnightblue" d="M131.37,-144.53C149.15,-139.28 168.4,-133.6 185.51,-128.55"/>
<polygon fill="midnightblue" stroke="midnightblue" points="130.26,-141.21 121.66,-147.4 132.24,-147.92 130.26,-141.21"/>
</g>
<!-- Node5 -->
<g id="node6" class="node">
<title>Node5</title>
<g id="a_node6"><a xlink:href="classzero__mate_1_1peripheral_1_1CMonitor.html" target="_top" xlink:title="This class represents a memory&#45;mapped monitor used to print out debug messages.">
<polygon fill="none" stroke="black" points="175.5,-49.5 175.5,-79.5 299.5,-79.5 299.5,-49.5 175.5,-49.5"/>
<text text-anchor="start" x="183.5" y="-67.5" font-family="Helvetica,sans-Serif" font-size="10.00">zero_mate::peripheral</text>
<text text-anchor="middle" x="237.5" y="-56.5" font-family="Helvetica,sans-Serif" font-size="10.00">::CMonitor</text>
</a>
</g>
</g>
<!-- Node0&#45;&gt;Node5 -->
<g id="edge5" class="edge">
<title>Node0&#45;&gt;Node5</title>
<path fill="none" stroke="midnightblue" d="M96.76,-141.17C117.22,-125.24 146.79,-103.7 175,-88.5 180.95,-85.29 187.43,-82.29 193.87,-79.57"/>
<polygon fill="midnightblue" stroke="midnightblue" points="94.54,-138.46 88.85,-147.4 98.87,-143.96 94.54,-138.46"/>
</g>
<!-- Node6 -->
<g id="node7" class="node">
<title>Node6</title>
<g id="a_node7"><a xlink:href="classzero__mate_1_1peripheral_1_1CRAM.html" target="_top" xlink:title="This class represents the RAM used in BCM2835.">
<polygon fill="none" stroke="black" points="175.5,-0.5 175.5,-30.5 299.5,-30.5 299.5,-0.5 175.5,-0.5"/>
<text text-anchor="start" x="183.5" y="-18.5" font-family="Helvetica,sans-Serif" font-size="10.00">zero_mate::peripheral</text>
<text text-anchor="middle" x="237.5" y="-7.5" font-family="Helvetica,sans-Serif" font-size="10.00">::CRAM</text>
</a>
</g>
</g>
<!-- Node0&#45;&gt;Node6 -->
<g id="edge6" class="edge">
<title>Node0&#45;&gt;Node6</title>
<path fill="none" stroke="midnightblue" d="M85.46,-138.58C103.64,-111.26 136.67,-66.83 175,-39.5 179.67,-36.17 184.86,-33.23 190.19,-30.65"/>
<polygon fill="midnightblue" stroke="midnightblue" points="82.41,-136.85 79.88,-147.14 88.28,-140.67 82.41,-136.85"/>
</g>
<!-- Node7 -->
<g id="node8" class="node">
<title>Node7</title>
<g id="a_node8"><a xlink:href="classzero__mate_1_1peripheral_1_1CTRNG.html" target="_top" xlink:title="This class represents a TRNG (random number generator).">
<polygon fill="none" stroke="black" points="175.5,-196.5 175.5,-226.5 299.5,-226.5 299.5,-196.5 175.5,-196.5"/>
<text text-anchor="start" x="183.5" y="-214.5" font-family="Helvetica,sans-Serif" font-size="10.00">zero_mate::peripheral</text>
<text text-anchor="middle" x="237.5" y="-203.5" font-family="Helvetica,sans-Serif" font-size="10.00">::CTRNG</text>
</a>
</g>
</g>
<!-- Node0&#45;&gt;Node7 -->
<g id="edge7" class="edge">
<title>Node0&#45;&gt;Node7</title>
<path fill="none" stroke="midnightblue" d="M131.37,-180.47C149.15,-185.72 168.4,-191.4 185.51,-196.45"/>
<polygon fill="midnightblue" stroke="midnightblue" points="132.24,-177.08 121.66,-177.6 130.26,-183.79 132.24,-177.08"/>
</g>
<!-- Node67 -->
<g id="node9" class="node">
<title>Node67</title>
<g id="a_node9"><a xlink:href="classzero__mate_1_1peripheral_1_1ISystem__Clock__Listener.html" target="_top" xlink:title="This class represents a general interface for a CPU clock listener.">
<polygon fill="none" stroke="black" points="0,-269.5 0,-299.5 139,-299.5 139,-269.5 0,-269.5"/>
<text text-anchor="start" x="8" y="-287.5" font-family="Helvetica,sans-Serif" font-size="10.00">zero_mate::peripheral</text>
<text text-anchor="middle" x="69.5" y="-276.5" font-family="Helvetica,sans-Serif" font-size="10.00">::ISystem_Clock_Listener</text>
</a>
</g>
</g>
<!-- Node67&#45;&gt;Node1 -->
<g id="edge8" class="edge">
<title>Node67&#45;&gt;Node1</title>
<path fill="none" stroke="midnightblue" d="M149.6,-273.06C158.28,-271.81 167.02,-270.55 175.44,-269.33"/>
<polygon fill="midnightblue" stroke="midnightblue" points="148.85,-269.64 139.46,-274.53 149.85,-276.56 148.85,-269.64"/>
</g>
<!-- Node67&#45;&gt;Node2 -->
<g id="edge9" class="edge">
<title>Node67&#45;&gt;Node2</title>
<path fill="none" stroke="midnightblue" d="M149.6,-296.41C158.28,-297.72 167.02,-299.04 175.44,-300.3"/>
<polygon fill="midnightblue" stroke="midnightblue" points="149.87,-292.91 139.46,-294.89 148.82,-299.84 149.87,-292.91"/>
</g>
</g>
</svg>
