<?xml version="1.0" encoding="UTF-8" standalone="no"?>
<!DOCTYPE svg PUBLIC "-//W3C//DTD SVG 1.1//EN"
 "http://www.w3.org/Graphics/SVG/1.1/DTD/svg11.dtd">
<!-- Generated by graphviz version 2.43.0 (0)
 -->
<!-- Title: Graphical Class Hierarchy Pages: 1 -->
<svg width="315pt" height="904pt"
 viewBox="0.00 0.00 315.00 904.00" xmlns="http://www.w3.org/2000/svg" xmlns:xlink="http://www.w3.org/1999/xlink">
<g id="graph0" class="graph" transform="scale(1 1) rotate(0) translate(4 900)">
<title>Graphical Class Hierarchy</title>
<!-- Node0 -->
<g id="node1" class="node">
<title>Node0</title>
<g id="a_node1"><a xlink:href="classzero__mate_1_1arm1176jzf__s_1_1isa_1_1CInstruction.html" target="_top" xlink:title="This class represents a parent class for all ARM instructions used in the emulator.">
<polygon fill="none" stroke="black" points="0,-416 0,-446 130,-446 130,-416 0,-416"/>
<text text-anchor="start" x="8" y="-434" font-family="Helvetica,sans-Serif" font-size="10.00">zero_mate::arm1176jzf</text>
<text text-anchor="middle" x="65" y="-423" font-family="Helvetica,sans-Serif" font-size="10.00">_s::isa::CInstruction</text>
</a>
</g>
</g>
<!-- Node1 -->
<g id="node2" class="node">
<title>Node1</title>
<g id="a_node2"><a xlink:href="classzero__mate_1_1arm1176jzf__s_1_1isa_1_1CBlock__Data__Transfer.html" target="_top" xlink:title=" ">
<polygon fill="none" stroke="black" points="171.5,-854.5 171.5,-895.5 301.5,-895.5 301.5,-854.5 171.5,-854.5"/>
<text text-anchor="start" x="179.5" y="-883.5" font-family="Helvetica,sans-Serif" font-size="10.00">zero_mate::arm1176jzf</text>
<text text-anchor="start" x="179.5" y="-872.5" font-family="Helvetica,sans-Serif" font-size="10.00">_s::isa::CBlock_Data</text>
<text text-anchor="middle" x="236.5" y="-861.5" font-family="Helvetica,sans-Serif" font-size="10.00">_Transfer</text>
</a>
</g>
</g>
<!-- Node0&#45;&gt;Node1 -->
<g id="edge1" class="edge">
<title>Node0&#45;&gt;Node1</title>
<path fill="none" stroke="#8b1a1a" d="M69.15,-456.5C79.57,-537.1 115.15,-784.65 166,-845 168.96,-848.52 172.42,-851.63 176.17,-854.39"/>
<polygon fill="#8b1a1a" stroke="#8b1a1a" points="72.59,-455.75 67.85,-446.27 65.64,-456.63 72.59,-455.75"/>
</g>
<!-- Node2 -->
<g id="node3" class="node">
<title>Node2</title>
<g id="a_node3"><a xlink:href="classzero__mate_1_1arm1176jzf__s_1_1isa_1_1CBranch.html" target="_top" xlink:title=" ">
<polygon fill="none" stroke="black" points="171.5,-805 171.5,-835 301.5,-835 301.5,-805 171.5,-805"/>
<text text-anchor="start" x="179.5" y="-823" font-family="Helvetica,sans-Serif" font-size="10.00">zero_mate::arm1176jzf</text>
<text text-anchor="middle" x="236.5" y="-812" font-family="Helvetica,sans-Serif" font-size="10.00">_s::isa::CBranch</text>
</a>
</g>
</g>
<!-- Node0&#45;&gt;Node2 -->
<g id="edge2" class="edge">
<title>Node0&#45;&gt;Node2</title>
<path fill="none" stroke="midnightblue" d="M65.46,-456.27C65.46,-521.27 74.47,-696.12 166,-795 169.57,-798.86 173.78,-802.12 178.33,-804.88"/>
<polygon fill="midnightblue" stroke="midnightblue" points="68.96,-456.15 65.53,-446.12 61.96,-456.1 68.96,-456.15"/>
</g>
<!-- Node3 -->
<g id="node4" class="node">
<title>Node3</title>
<g id="a_node4"><a xlink:href="classzero__mate_1_1arm1176jzf__s_1_1isa_1_1CBranch__And__Exchange.html" target="_top" xlink:title=" ">
<polygon fill="none" stroke="black" points="171.5,-744.5 171.5,-785.5 301.5,-785.5 301.5,-744.5 171.5,-744.5"/>
<text text-anchor="start" x="179.5" y="-773.5" font-family="Helvetica,sans-Serif" font-size="10.00">zero_mate::arm1176jzf</text>
<text text-anchor="start" x="179.5" y="-762.5" font-family="Helvetica,sans-Serif" font-size="10.00">_s::isa::CBranch_And</text>
<text text-anchor="middle" x="236.5" y="-751.5" font-family="Helvetica,sans-Serif" font-size="10.00">_Exchange</text>
</a>
</g>
</g>
<!-- Node0&#45;&gt;Node3 -->
<g id="edge3" class="edge">
<title>Node0&#45;&gt;Node3</title>
<path fill="none" stroke="midnightblue" d="M67.49,-456.37C72.14,-513.35 90.97,-652.92 166,-735 169.19,-738.49 172.86,-741.6 176.81,-744.35"/>
<polygon fill="midnightblue" stroke="midnightblue" points="70.96,-455.83 66.74,-446.11 63.98,-456.34 70.96,-455.83"/>
</g>
<!-- Node4 -->
<g id="node5" class="node">
<title>Node4</title>
<g id="a_node5"><a xlink:href="classzero__mate_1_1arm1176jzf__s_1_1isa_1_1CCLZ.html" target="_top" xlink:title=" ">
<polygon fill="none" stroke="black" points="171.5,-695 171.5,-725 301.5,-725 301.5,-695 171.5,-695"/>
<text text-anchor="start" x="179.5" y="-713" font-family="Helvetica,sans-Serif" font-size="10.00">zero_mate::arm1176jzf</text>
<text text-anchor="middle" x="236.5" y="-702" font-family="Helvetica,sans-Serif" font-size="10.00">_s::isa::CCLZ</text>
</a>
</g>
</g>
<!-- Node0&#45;&gt;Node4 -->
<g id="edge4" class="edge">
<title>Node0&#45;&gt;Node4</title>
<path fill="none" stroke="midnightblue" d="M68.86,-456.1C75.94,-506.69 98.87,-621.58 166,-686 169.59,-689.45 173.7,-692.4 178.09,-694.93"/>
<polygon fill="midnightblue" stroke="midnightblue" points="72.31,-455.51 67.55,-446.04 65.37,-456.41 72.31,-455.51"/>
</g>
<!-- Node5 -->
<g id="node6" class="node">
<title>Node5</title>
<g id="a_node6"><a xlink:href="classzero__mate_1_1arm1176jzf__s_1_1isa_1_1CCPS.html" target="_top" xlink:title=" ">
<polygon fill="none" stroke="black" points="171.5,-646 171.5,-676 301.5,-676 301.5,-646 171.5,-646"/>
<text text-anchor="start" x="179.5" y="-664" font-family="Helvetica,sans-Serif" font-size="10.00">zero_mate::arm1176jzf</text>
<text text-anchor="middle" x="236.5" y="-653" font-family="Helvetica,sans-Serif" font-size="10.00">_s::isa::CCPS</text>
</a>
</g>
</g>
<!-- Node0&#45;&gt;Node5 -->
<g id="edge5" class="edge">
<title>Node0&#45;&gt;Node5</title>
<path fill="none" stroke="midnightblue" d="M71.68,-456.14C82.61,-498.98 110.56,-586.28 166,-636 170.3,-639.85 175.23,-643.12 180.44,-645.9"/>
<polygon fill="midnightblue" stroke="midnightblue" points="75.04,-455.14 69.26,-446.26 68.24,-456.81 75.04,-455.14"/>
</g>
<!-- Node6 -->
<g id="node7" class="node">
<title>Node6</title>
<g id="a_node7"><a xlink:href="classzero__mate_1_1arm1176jzf__s_1_1isa_1_1CCoprocessor__Data__Operation.html" target="_top" xlink:title=" ">
<polygon fill="none" stroke="black" points="171.5,-585.5 171.5,-626.5 301.5,-626.5 301.5,-585.5 171.5,-585.5"/>
<text text-anchor="start" x="179.5" y="-614.5" font-family="Helvetica,sans-Serif" font-size="10.00">zero_mate::arm1176jzf</text>
<text text-anchor="start" x="179.5" y="-603.5" font-family="Helvetica,sans-Serif" font-size="10.00">_s::isa::CCoprocessor</text>
<text text-anchor="middle" x="236.5" y="-592.5" font-family="Helvetica,sans-Serif" font-size="10.00">_Data_Operation</text>
</a>
</g>
</g>
<!-- Node0&#45;&gt;Node6 -->
<g id="edge6" class="edge">
<title>Node0&#45;&gt;Node6</title>
<path fill="none" stroke="midnightblue" d="M77.3,-455.22C93.13,-486.82 124.66,-542.07 166,-576 170.27,-579.5 175,-582.66 179.94,-585.5"/>
<polygon fill="midnightblue" stroke="midnightblue" points="80.44,-453.66 72.9,-446.22 74.15,-456.74 80.44,-453.66"/>
</g>
<!-- Node7 -->
<g id="node8" class="node">
<title>Node7</title>
<g id="a_node8"><a xlink:href="classzero__mate_1_1arm1176jzf__s_1_1isa_1_1CCoprocessor__Data__Transfer.html" target="_top" xlink:title=" ">
<polygon fill="none" stroke="black" points="171.5,-525.5 171.5,-566.5 301.5,-566.5 301.5,-525.5 171.5,-525.5"/>
<text text-anchor="start" x="179.5" y="-554.5" font-family="Helvetica,sans-Serif" font-size="10.00">zero_mate::arm1176jzf</text>
<text text-anchor="start" x="179.5" y="-543.5" font-family="Helvetica,sans-Serif" font-size="10.00">_s::isa::CCoprocessor</text>
<text text-anchor="middle" x="236.5" y="-532.5" font-family="Helvetica,sans-Serif" font-size="10.00">_Data_Transfer</text>
</a>
</g>
</g>
<!-- Node0&#45;&gt;Node7 -->
<g id="edge7" class="edge">
<title>Node0&#45;&gt;Node7</title>
<path fill="none" stroke="midnightblue" d="M88.19,-453.26C107.51,-471.78 136.91,-497.93 166,-516 171.36,-519.33 177.15,-522.46 183.03,-525.36"/>
<polygon fill="midnightblue" stroke="midnightblue" points="90.42,-450.55 80.81,-446.09 85.54,-455.57 90.42,-450.55"/>
</g>
<!-- Node8 -->
<g id="node9" class="node">
<title>Node8</title>
<g id="a_node9"><a xlink:href="classzero__mate_1_1arm1176jzf__s_1_1isa_1_1CCoprocessor__Reg__Transfer.html" target="_top" xlink:title=" ">
<polygon fill="none" stroke="black" points="171.5,-465.5 171.5,-506.5 301.5,-506.5 301.5,-465.5 171.5,-465.5"/>
<text text-anchor="start" x="179.5" y="-494.5" font-family="Helvetica,sans-Serif" font-size="10.00">zero_mate::arm1176jzf</text>
<text text-anchor="start" x="179.5" y="-483.5" font-family="Helvetica,sans-Serif" font-size="10.00">_s::isa::CCoprocessor</text>
<text text-anchor="middle" x="236.5" y="-472.5" font-family="Helvetica,sans-Serif" font-size="10.00">_Reg_Transfer</text>
</a>
</g>
</g>
<!-- Node0&#45;&gt;Node8 -->
<g id="edge8" class="edge">
<title>Node0&#45;&gt;Node8</title>
<path fill="none" stroke="midnightblue" d="M122.07,-449.19C138.09,-454.39 155.66,-460.09 172.08,-465.42"/>
<polygon fill="midnightblue" stroke="midnightblue" points="122.91,-445.79 112.32,-446.03 120.75,-452.44 122.91,-445.79"/>
</g>
<!-- Node9 -->
<g id="node10" class="node">
<title>Node9</title>
<g id="a_node10"><a xlink:href="classzero__mate_1_1arm1176jzf__s_1_1isa_1_1CData__Processing.html" target="_top" xlink:title=" ">
<polygon fill="none" stroke="black" points="166,-416 166,-446 307,-446 307,-416 166,-416"/>
<text text-anchor="start" x="174" y="-434" font-family="Helvetica,sans-Serif" font-size="10.00">zero_mate::arm1176jzf</text>
<text text-anchor="middle" x="236.5" y="-423" font-family="Helvetica,sans-Serif" font-size="10.00">_s::isa::CData_Processing</text>
</a>
</g>
</g>
<!-- Node0&#45;&gt;Node9 -->
<g id="edge9" class="edge">
<title>Node0&#45;&gt;Node9</title>
<path fill="none" stroke="midnightblue" d="M140.36,-431C148.86,-431 157.51,-431 165.95,-431"/>
<polygon fill="midnightblue" stroke="midnightblue" points="140.08,-427.5 130.08,-431 140.08,-434.5 140.08,-427.5"/>
</g>
<!-- Node10 -->
<g id="node11" class="node">
<title>Node10</title>
<g id="a_node11"><a xlink:href="classzero__mate_1_1arm1176jzf__s_1_1isa_1_1CExtend.html" target="_top" xlink:title=" ">
<polygon fill="none" stroke="black" points="171.5,-367 171.5,-397 301.5,-397 301.5,-367 171.5,-367"/>
<text text-anchor="start" x="179.5" y="-385" font-family="Helvetica,sans-Serif" font-size="10.00">zero_mate::arm1176jzf</text>
<text text-anchor="middle" x="236.5" y="-374" font-family="Helvetica,sans-Serif" font-size="10.00">_s::isa::CExtend</text>
</a>
</g>
</g>
<!-- Node0&#45;&gt;Node10 -->
<g id="edge10" class="edge">
<title>Node0&#45;&gt;Node10</title>
<path fill="none" stroke="#8b1a1a" d="M127.9,-413.11C146.13,-407.84 165.89,-402.12 183.43,-397.05"/>
<polygon fill="#8b1a1a" stroke="#8b1a1a" points="126.87,-409.76 118.24,-415.9 128.82,-416.48 126.87,-409.76"/>
</g>
<!-- Node11 -->
<g id="node12" class="node">
<title>Node11</title>
<g id="a_node12"><a xlink:href="classzero__mate_1_1arm1176jzf__s_1_1isa_1_1CHalfword__Data__Transfer.html" target="_top" xlink:title=" ">
<polygon fill="none" stroke="black" points="170.5,-306.5 170.5,-347.5 302.5,-347.5 302.5,-306.5 170.5,-306.5"/>
<text text-anchor="start" x="178.5" y="-335.5" font-family="Helvetica,sans-Serif" font-size="10.00">zero_mate::arm1176jzf</text>
<text text-anchor="start" x="178.5" y="-324.5" font-family="Helvetica,sans-Serif" font-size="10.00">_s::isa::CHalfword_Data</text>
<text text-anchor="middle" x="236.5" y="-313.5" font-family="Helvetica,sans-Serif" font-size="10.00">_Transfer</text>
</a>
</g>
</g>
<!-- Node0&#45;&gt;Node11 -->
<g id="edge11" class="edge">
<title>Node0&#45;&gt;Node11</title>
<path fill="none" stroke="midnightblue" d="M92.22,-409.48C111.81,-394.01 139.64,-373.27 166,-358 172.29,-354.36 179.08,-350.85 185.87,-347.59"/>
<polygon fill="midnightblue" stroke="midnightblue" points="89.99,-406.79 84.36,-415.76 94.36,-412.26 89.99,-406.79"/>
</g>
<!-- Node12 -->
<g id="node13" class="node">
<title>Node12</title>
<g id="a_node13"><a xlink:href="classzero__mate_1_1arm1176jzf__s_1_1isa_1_1CMultiply.html" target="_top" xlink:title=" ">
<polygon fill="none" stroke="black" points="171.5,-257 171.5,-287 301.5,-287 301.5,-257 171.5,-257"/>
<text text-anchor="start" x="179.5" y="-275" font-family="Helvetica,sans-Serif" font-size="10.00">zero_mate::arm1176jzf</text>
<text text-anchor="middle" x="236.5" y="-264" font-family="Helvetica,sans-Serif" font-size="10.00">_s::isa::CMultiply</text>
</a>
</g>
</g>
<!-- Node0&#45;&gt;Node12 -->
<g id="edge12" class="edge">
<title>Node0&#45;&gt;Node12</title>
<path fill="none" stroke="midnightblue" d="M78.18,-406.96C94.4,-377.19 125.8,-326.78 166,-297 171.15,-293.18 176.94,-289.9 182.93,-287.1"/>
<polygon fill="midnightblue" stroke="midnightblue" points="75.06,-405.38 73.45,-415.85 81.24,-408.67 75.06,-405.38"/>
</g>
<!-- Node13 -->
<g id="node14" class="node">
<title>Node13</title>
<g id="a_node14"><a xlink:href="classzero__mate_1_1arm1176jzf__s_1_1isa_1_1CMultiply__Long.html" target="_top" xlink:title=" ">
<polygon fill="none" stroke="black" points="171.5,-208 171.5,-238 301.5,-238 301.5,-208 171.5,-208"/>
<text text-anchor="start" x="179.5" y="-226" font-family="Helvetica,sans-Serif" font-size="10.00">zero_mate::arm1176jzf</text>
<text text-anchor="middle" x="236.5" y="-215" font-family="Helvetica,sans-Serif" font-size="10.00">_s::isa::CMultiply_Long</text>
</a>
</g>
</g>
<!-- Node0&#45;&gt;Node13 -->
<g id="edge13" class="edge">
<title>Node0&#45;&gt;Node13</title>
<path fill="none" stroke="midnightblue" d="M73.33,-405.82C85.96,-366.68 115.47,-291.26 166,-248 170.48,-244.16 175.6,-240.9 180.97,-238.12"/>
<polygon fill="midnightblue" stroke="midnightblue" points="69.84,-405.25 70.21,-415.84 76.52,-407.33 69.84,-405.25"/>
</g>
<!-- Node14 -->
<g id="node15" class="node">
<title>Node14</title>
<g id="a_node15"><a xlink:href="classzero__mate_1_1arm1176jzf__s_1_1isa_1_1CPSR__Transfer.html" target="_top" xlink:title=" ">
<polygon fill="none" stroke="black" points="171.5,-159 171.5,-189 301.5,-189 301.5,-159 171.5,-159"/>
<text text-anchor="start" x="179.5" y="-177" font-family="Helvetica,sans-Serif" font-size="10.00">zero_mate::arm1176jzf</text>
<text text-anchor="middle" x="236.5" y="-166" font-family="Helvetica,sans-Serif" font-size="10.00">_s::isa::CPSR_Transfer</text>
</a>
</g>
</g>
<!-- Node0&#45;&gt;Node14 -->
<g id="edge14" class="edge">
<title>Node0&#45;&gt;Node14</title>
<path fill="none" stroke="midnightblue" d="M70.05,-405.94C78.94,-358.88 104.48,-256.83 166,-199 170.11,-195.14 174.86,-191.86 179.91,-189.09"/>
<polygon fill="midnightblue" stroke="midnightblue" points="66.59,-405.43 68.27,-415.89 73.48,-406.66 66.59,-405.43"/>
</g>
<!-- Node15 -->
<g id="node16" class="node">
<title>Node15</title>
<g id="a_node16"><a xlink:href="classzero__mate_1_1arm1176jzf__s_1_1isa_1_1CRFE.html" target="_top" xlink:title=" ">
<polygon fill="none" stroke="black" points="171.5,-110 171.5,-140 301.5,-140 301.5,-110 171.5,-110"/>
<text text-anchor="start" x="179.5" y="-128" font-family="Helvetica,sans-Serif" font-size="10.00">zero_mate::arm1176jzf</text>
<text text-anchor="middle" x="236.5" y="-117" font-family="Helvetica,sans-Serif" font-size="10.00">_s::isa::CRFE</text>
</a>
</g>
</g>
<!-- Node0&#45;&gt;Node15 -->
<g id="edge15" class="edge">
<title>Node0&#45;&gt;Node15</title>
<path fill="none" stroke="#8b1a1a" d="M67.9,-405.72C73.32,-351.44 93.5,-222.74 166,-150 169.89,-146.09 174.44,-142.8 179.31,-140.01"/>
<polygon fill="#8b1a1a" stroke="#8b1a1a" points="64.4,-405.57 66.98,-415.84 71.37,-406.2 64.4,-405.57"/>
</g>
<!-- Node16 -->
<g id="node17" class="node">
<title>Node16</title>
<g id="a_node17"><a xlink:href="classzero__mate_1_1arm1176jzf__s_1_1isa_1_1CSRS.html" target="_top" xlink:title=" ">
<polygon fill="none" stroke="black" points="171.5,-61 171.5,-91 301.5,-91 301.5,-61 171.5,-61"/>
<text text-anchor="start" x="179.5" y="-79" font-family="Helvetica,sans-Serif" font-size="10.00">zero_mate::arm1176jzf</text>
<text text-anchor="middle" x="236.5" y="-68" font-family="Helvetica,sans-Serif" font-size="10.00">_s::isa::CSRS</text>
</a>
</g>
</g>
<!-- Node0&#45;&gt;Node16 -->
<g id="edge16" class="edge">
<title>Node0&#45;&gt;Node16</title>
<path fill="none" stroke="#8b1a1a" d="M66.32,-405.64C68.48,-344.79 82.34,-189.04 166,-101 169.71,-97.1 174.07,-93.8 178.78,-91.02"/>
<polygon fill="#8b1a1a" stroke="#8b1a1a" points="62.82,-405.77 66.04,-415.86 69.82,-405.96 62.82,-405.77"/>
</g>
<!-- Node17 -->
<g id="node18" class="node">
<title>Node17</title>
<g id="a_node18"><a xlink:href="classzero__mate_1_1arm1176jzf__s_1_1isa_1_1CSingle__Data__Transfer.html" target="_top" xlink:title=" ">
<polygon fill="none" stroke="black" points="171.5,-0.5 171.5,-41.5 301.5,-41.5 301.5,-0.5 171.5,-0.5"/>
<text text-anchor="start" x="179.5" y="-29.5" font-family="Helvetica,sans-Serif" font-size="10.00">zero_mate::arm1176jzf</text>
<text text-anchor="start" x="179.5" y="-18.5" font-family="Helvetica,sans-Serif" font-size="10.00">_s::isa::CSingle_Data</text>
<text text-anchor="middle" x="236.5" y="-7.5" font-family="Helvetica,sans-Serif" font-size="10.00">_Transfer</text>
</a>
</g>
</g>
<!-- Node0&#45;&gt;Node17 -->
<g id="edge17" class="edge">
<title>Node0&#45;&gt;Node17</title>
<path fill="none" stroke="#8b1a1a" d="M65.56,-405.57C65.77,-339.27 75.16,-158.84 166,-52 169.34,-48.07 173.27,-44.63 177.54,-41.6"/>
<polygon fill="#8b1a1a" stroke="#8b1a1a" points="62.06,-405.91 65.6,-415.9 69.06,-405.88 62.06,-405.91"/>
</g>
</g>
</svg>
