<?xml version="1.0" encoding="UTF-8" standalone="no"?>
<!DOCTYPE svg PUBLIC "-//W3C//DTD SVG 1.1//EN"
 "http://www.w3.org/Graphics/SVG/1.1/DTD/svg11.dtd">
<!-- Generated by graphviz version 2.43.0 (0)
 -->
<!-- Title: Graphical Class Hierarchy Pages: 1 -->
<svg width="308pt" height="284pt"
 viewBox="0.00 0.00 308.00 284.00" xmlns="http://www.w3.org/2000/svg" xmlns:xlink="http://www.w3.org/1999/xlink">
<g id="graph0" class="graph" transform="scale(1 1) rotate(0) translate(4 280)">
<title>Graphical Class Hierarchy</title>
<!-- Node0 -->
<g id="node1" class="node">
<title>Node0</title>
<g id="a_node1"><a xlink:href="classzero__mate_1_1peripheral_1_1IPeripheral.html" target="_top" xlink:title="This class represents a general interface of a memory&#45;mapped peripheral.">
<polygon fill="none" stroke="black" points="7.5,-122.5 7.5,-152.5 131.5,-152.5 131.5,-122.5 7.5,-122.5"/>
<text text-anchor="start" x="15.5" y="-140.5" font-family="Helvetica,sans-Serif" font-size="10.00">zero_mate::peripheral</text>
<text text-anchor="middle" x="69.5" y="-129.5" font-family="Helvetica,sans-Serif" font-size="10.00">::IPeripheral</text>
</a>
</g>
</g>
<!-- Node1 -->
<g id="node2" class="node">
<title>Node1</title>
<g id="a_node2"><a xlink:href="classzero__mate_1_1peripheral_1_1CARM__Timer.html" target="_top" xlink:title="This class represents the ARM timer used in BCM2835.">
<polygon fill="none" stroke="black" points="175.5,-245.5 175.5,-275.5 299.5,-275.5 299.5,-245.5 175.5,-245.5"/>
<text text-anchor="start" x="183.5" y="-263.5" font-family="Helvetica,sans-Serif" font-size="10.00">zero_mate::peripheral</text>
<text text-anchor="middle" x="237.5" y="-252.5" font-family="Helvetica,sans-Serif" font-size="10.00">::CARM_Timer</text>
</a>
</g>
</g>
<!-- Node0&#45;&gt;Node1 -->
<g id="edge1" class="edge">
<title>Node0&#45;&gt;Node1</title>
<path fill="none" stroke="midnightblue" d="M89.86,-160.4C109.45,-182.38 141.54,-215.28 175,-236.5 180.23,-239.81 185.98,-242.8 191.82,-245.44"/>
<polygon fill="midnightblue" stroke="midnightblue" points="92.45,-158.05 83.23,-152.84 87.19,-162.66 92.45,-158.05"/>
</g>
<!-- Node2 -->
<g id="node3" class="node">
<title>Node2</title>
<g id="a_node3"><a xlink:href="classzero__mate_1_1peripheral_1_1CGPIO__Manager.html" target="_top" xlink:title="This class represents a GPIO (general&#45;purpose I/O) manager.">
<polygon fill="none" stroke="black" points="175.5,-196.5 175.5,-226.5 299.5,-226.5 299.5,-196.5 175.5,-196.5"/>
<text text-anchor="start" x="183.5" y="-214.5" font-family="Helvetica,sans-Serif" font-size="10.00">zero_mate::peripheral</text>
<text text-anchor="middle" x="237.5" y="-203.5" font-family="Helvetica,sans-Serif" font-size="10.00">::CGPIO_Manager</text>
</a>
</g>
</g>
<!-- Node0&#45;&gt;Node2 -->
<g id="edge2" class="edge">
<title>Node0&#45;&gt;Node2</title>
<path fill="none" stroke="midnightblue" d="M110.53,-156.87C129.9,-166.09 153.54,-177.12 175,-186.5 182.6,-189.83 190.79,-193.26 198.64,-196.47"/>
<polygon fill="midnightblue" stroke="midnightblue" points="111.93,-153.66 101.4,-152.51 108.91,-159.98 111.93,-153.66"/>
</g>
<!-- Node3 -->
<g id="node4" class="node">
<title>Node3</title>
<g id="a_node4"><a xlink:href="classzero__mate_1_1peripheral_1_1CInterrupt__Controller.html" target="_top" xlink:title="This class represents the interrupt controller used in BCM2835.">
<polygon fill="none" stroke="black" points="175,-147.5 175,-177.5 300,-177.5 300,-147.5 175,-147.5"/>
<text text-anchor="start" x="183" y="-165.5" font-family="Helvetica,sans-Serif" font-size="10.00">zero_mate::peripheral</text>
<text text-anchor="middle" x="237.5" y="-154.5" font-family="Helvetica,sans-Serif" font-size="10.00">::CInterrupt_Controller</text>
</a>
</g>
</g>
<!-- Node0&#45;&gt;Node3 -->
<g id="edge3" class="edge">
<title>Node0&#45;&gt;Node3</title>
<path fill="none" stroke="midnightblue" d="M141.84,-148.24C152.83,-149.9 164.1,-151.6 174.86,-153.22"/>
<polygon fill="midnightblue" stroke="midnightblue" points="142.25,-144.77 131.84,-146.74 141.21,-151.69 142.25,-144.77"/>
</g>
<!-- Node4 -->
<g id="node5" class="node">
<title>Node4</title>
<g id="a_node5"><a xlink:href="classzero__mate_1_1peripheral_1_1CMonitor.html" target="_top" xlink:title="This class represents a memory&#45;mapped monitor used to print out debug messages.">
<polygon fill="none" stroke="black" points="175.5,-98.5 175.5,-128.5 299.5,-128.5 299.5,-98.5 175.5,-98.5"/>
<text text-anchor="start" x="183.5" y="-116.5" font-family="Helvetica,sans-Serif" font-size="10.00">zero_mate::peripheral</text>
<text text-anchor="middle" x="237.5" y="-105.5" font-family="Helvetica,sans-Serif" font-size="10.00">::CMonitor</text>
</a>
</g>
</g>
<!-- Node0&#45;&gt;Node4 -->
<g id="edge4" class="edge">
<title>Node0&#45;&gt;Node4</title>
<path fill="none" stroke="midnightblue" d="M141.97,-127.17C153.11,-125.56 164.53,-123.91 175.41,-122.33"/>
<polygon fill="midnightblue" stroke="midnightblue" points="141.24,-123.74 131.84,-128.63 142.24,-130.66 141.24,-123.74"/>
</g>
<!-- Node5 -->
<g id="node6" class="node">
<title>Node5</title>
<g id="a_node6"><a xlink:href="classzero__mate_1_1peripheral_1_1CRAM.html" target="_top" xlink:title="This class represents the RAM used in BCM2835.">
<polygon fill="none" stroke="black" points="175.5,-49.5 175.5,-79.5 299.5,-79.5 299.5,-49.5 175.5,-49.5"/>
<text text-anchor="start" x="183.5" y="-67.5" font-family="Helvetica,sans-Serif" font-size="10.00">zero_mate::peripheral</text>
<text text-anchor="middle" x="237.5" y="-56.5" font-family="Helvetica,sans-Serif" font-size="10.00">::CRAM</text>
</a>
</g>
</g>
<!-- Node0&#45;&gt;Node5 -->
<g id="edge5" class="edge">
<title>Node0&#45;&gt;Node5</title>
<path fill="none" stroke="midnightblue" d="M110.48,-117.99C129.83,-108.75 153.48,-97.73 175,-88.5 181.95,-85.52 189.41,-82.48 196.64,-79.61"/>
<polygon fill="midnightblue" stroke="midnightblue" points="108.85,-114.89 101.35,-122.38 111.88,-121.2 108.85,-114.89"/>
</g>
<!-- Node6 -->
<g id="node7" class="node">
<title>Node6</title>
<g id="a_node7"><a xlink:href="classzero__mate_1_1peripheral_1_1CTRNG.html" target="_top" xlink:title="This class represents a TRNG (random number generator).">
<polygon fill="none" stroke="black" points="175.5,-0.5 175.5,-30.5 299.5,-30.5 299.5,-0.5 175.5,-0.5"/>
<text text-anchor="start" x="183.5" y="-18.5" font-family="Helvetica,sans-Serif" font-size="10.00">zero_mate::peripheral</text>
<text text-anchor="middle" x="237.5" y="-7.5" font-family="Helvetica,sans-Serif" font-size="10.00">::CTRNG</text>
</a>
</g>
</g>
<!-- Node0&#45;&gt;Node6 -->
<g id="edge6" class="edge">
<title>Node0&#45;&gt;Node6</title>
<path fill="none" stroke="midnightblue" d="M89.91,-114.85C109.53,-93.1 141.65,-60.53 175,-39.5 180.23,-36.2 186,-33.22 191.83,-30.58"/>
<polygon fill="midnightblue" stroke="midnightblue" points="87.29,-112.53 83.26,-122.33 92.52,-117.17 87.29,-112.53"/>
</g>
<!-- Node51 -->
<g id="node8" class="node">
<title>Node51</title>
<g id="a_node8"><a xlink:href="classzero__mate_1_1peripheral_1_1ISystem__Clock__Listener.html" target="_top" xlink:title="This class represents a general interface for a CPU clock listener.">
<polygon fill="none" stroke="black" points="0,-245.5 0,-275.5 139,-275.5 139,-245.5 0,-245.5"/>
<text text-anchor="start" x="8" y="-263.5" font-family="Helvetica,sans-Serif" font-size="10.00">zero_mate::peripheral</text>
<text text-anchor="middle" x="69.5" y="-252.5" font-family="Helvetica,sans-Serif" font-size="10.00">::ISystem_Clock_Listener</text>
</a>
</g>
</g>
<!-- Node51&#45;&gt;Node1 -->
<g id="edge7" class="edge">
<title>Node51&#45;&gt;Node1</title>
<path fill="none" stroke="midnightblue" d="M149.6,-260.5C158.28,-260.5 167.02,-260.5 175.44,-260.5"/>
<polygon fill="midnightblue" stroke="midnightblue" points="149.46,-257 139.46,-260.5 149.46,-264 149.46,-257"/>
</g>
</g>
</svg>
