<?xml version="1.0" encoding="UTF-8" standalone="no"?>
<!DOCTYPE svg PUBLIC "-//W3C//DTD SVG 1.1//EN"
 "http://www.w3.org/Graphics/SVG/1.1/DTD/svg11.dtd">
<!-- Generated by graphviz version 2.43.0 (0)
 -->
<!-- Title: Graphical Class Hierarchy Pages: 1 -->
<svg width="308pt" height="382pt"
 viewBox="0.00 0.00 308.00 382.00" xmlns="http://www.w3.org/2000/svg" xmlns:xlink="http://www.w3.org/1999/xlink">
<g id="graph0" class="graph" transform="scale(1 1) rotate(0) translate(4 378)">
<title>Graphical Class Hierarchy</title>
<!-- Node0 -->
<g id="node1" class="node">
<title>Node0</title>
<g id="a_node1"><a xlink:href="classzero__mate_1_1peripheral_1_1IPeripheral.html" target="_top" xlink:title="This class represents a general interface of a memory&#45;mapped peripheral.">
<polygon fill="none" stroke="black" points="7.5,-171.5 7.5,-201.5 131.5,-201.5 131.5,-171.5 7.5,-171.5"/>
<text text-anchor="start" x="15.5" y="-189.5" font-family="Helvetica,sans-Serif" font-size="10.00">zero_mate::peripheral</text>
<text text-anchor="middle" x="69.5" y="-178.5" font-family="Helvetica,sans-Serif" font-size="10.00">::IPeripheral</text>
</a>
</g>
</g>
<!-- Node1 -->
<g id="node2" class="node">
<title>Node1</title>
<g id="a_node2"><a xlink:href="classzero__mate_1_1peripheral_1_1CARM__Timer.html" target="_top" xlink:title="This class represents the ARM timer used in BCM2835.">
<polygon fill="none" stroke="black" points="175.5,-343.5 175.5,-373.5 299.5,-373.5 299.5,-343.5 175.5,-343.5"/>
<text text-anchor="start" x="183.5" y="-361.5" font-family="Helvetica,sans-Serif" font-size="10.00">zero_mate::peripheral</text>
<text text-anchor="middle" x="237.5" y="-350.5" font-family="Helvetica,sans-Serif" font-size="10.00">::CARM_Timer</text>
</a>
</g>
</g>
<!-- Node0&#45;&gt;Node1 -->
<g id="edge1" class="edge">
<title>Node0&#45;&gt;Node1</title>
<path fill="none" stroke="midnightblue" d="M86.93,-210.14C115.61,-251.35 172.05,-332.19 175,-334.5 179.33,-337.89 184.2,-340.85 189.26,-343.43"/>
<polygon fill="midnightblue" stroke="midnightblue" points="89.69,-207.97 81.1,-201.76 83.94,-211.97 89.69,-207.97"/>
</g>
<!-- Node2 -->
<g id="node3" class="node">
<title>Node2</title>
<g id="a_node3"><a xlink:href="classzero__mate_1_1peripheral_1_1CAUX.html" target="_top" xlink:title="This class represents the auxiliaries (UART1 &amp; SPI1, and SPI2).">
<polygon fill="none" stroke="black" points="175.5,-294.5 175.5,-324.5 299.5,-324.5 299.5,-294.5 175.5,-294.5"/>
<text text-anchor="start" x="183.5" y="-312.5" font-family="Helvetica,sans-Serif" font-size="10.00">zero_mate::peripheral</text>
<text text-anchor="middle" x="237.5" y="-301.5" font-family="Helvetica,sans-Serif" font-size="10.00">::CAUX</text>
</a>
</g>
</g>
<!-- Node0&#45;&gt;Node2 -->
<g id="edge2" class="edge">
<title>Node0&#45;&gt;Node2</title>
<path fill="none" stroke="midnightblue" d="M89.86,-209.4C109.45,-231.38 141.54,-264.28 175,-285.5 180.23,-288.81 185.98,-291.8 191.82,-294.44"/>
<polygon fill="midnightblue" stroke="midnightblue" points="92.45,-207.05 83.23,-201.84 87.19,-211.66 92.45,-207.05"/>
</g>
<!-- Node3 -->
<g id="node4" class="node">
<title>Node3</title>
<g id="a_node4"><a xlink:href="classzero__mate_1_1peripheral_1_1CBSC.html" target="_top" xlink:title="This class represents the BSC peripheral used in BCM2835.">
<polygon fill="none" stroke="black" points="175.5,-245.5 175.5,-275.5 299.5,-275.5 299.5,-245.5 175.5,-245.5"/>
<text text-anchor="start" x="183.5" y="-263.5" font-family="Helvetica,sans-Serif" font-size="10.00">zero_mate::peripheral</text>
<text text-anchor="middle" x="237.5" y="-252.5" font-family="Helvetica,sans-Serif" font-size="10.00">::CBSC</text>
</a>
</g>
</g>
<!-- Node0&#45;&gt;Node3 -->
<g id="edge3" class="edge">
<title>Node0&#45;&gt;Node3</title>
<path fill="none" stroke="midnightblue" d="M109.59,-206.05C129.08,-215.58 153.12,-227.01 175,-236.5 181.94,-239.51 189.39,-242.56 196.62,-245.44"/>
<polygon fill="midnightblue" stroke="midnightblue" points="110.93,-202.81 100.41,-201.54 107.84,-209.09 110.93,-202.81"/>
</g>
<!-- Node4 -->
<g id="node5" class="node">
<title>Node4</title>
<g id="a_node5"><a xlink:href="classzero__mate_1_1peripheral_1_1CGPIO__Manager.html" target="_top" xlink:title="This class represents a GPIO (general&#45;purpose I/O) manager.">
<polygon fill="none" stroke="black" points="175.5,-0.5 175.5,-30.5 299.5,-30.5 299.5,-0.5 175.5,-0.5"/>
<text text-anchor="start" x="183.5" y="-18.5" font-family="Helvetica,sans-Serif" font-size="10.00">zero_mate::peripheral</text>
<text text-anchor="middle" x="237.5" y="-7.5" font-family="Helvetica,sans-Serif" font-size="10.00">::CGPIO_Manager</text>
</a>
</g>
</g>
<!-- Node0&#45;&gt;Node4 -->
<g id="edge4" class="edge">
<title>Node0&#45;&gt;Node4</title>
<path fill="none" stroke="midnightblue" d="M82.06,-162.23C98.52,-130.04 131.59,-73.36 175,-39.5 179.34,-36.12 184.21,-33.16 189.27,-30.58"/>
<polygon fill="midnightblue" stroke="midnightblue" points="78.83,-160.87 77.49,-171.38 85.09,-164 78.83,-160.87"/>
</g>
<!-- Node5 -->
<g id="node6" class="node">
<title>Node5</title>
<g id="a_node6"><a xlink:href="classzero__mate_1_1peripheral_1_1CInterrupt__Controller.html" target="_top" xlink:title="This class represents the interrupt controller used in BCM2835.">
<polygon fill="none" stroke="black" points="175,-196.5 175,-226.5 300,-226.5 300,-196.5 175,-196.5"/>
<text text-anchor="start" x="183" y="-214.5" font-family="Helvetica,sans-Serif" font-size="10.00">zero_mate::peripheral</text>
<text text-anchor="middle" x="237.5" y="-203.5" font-family="Helvetica,sans-Serif" font-size="10.00">::CInterrupt_Controller</text>
</a>
</g>
</g>
<!-- Node0&#45;&gt;Node5 -->
<g id="edge5" class="edge">
<title>Node0&#45;&gt;Node5</title>
<path fill="none" stroke="midnightblue" d="M141.84,-197.24C152.83,-198.9 164.1,-200.6 174.86,-202.22"/>
<polygon fill="midnightblue" stroke="midnightblue" points="142.25,-193.77 131.84,-195.74 141.21,-200.69 142.25,-193.77"/>
</g>
<!-- Node6 -->
<g id="node7" class="node">
<title>Node6</title>
<g id="a_node7"><a xlink:href="classzero__mate_1_1peripheral_1_1CMonitor.html" target="_top" xlink:title="This class represents a memory&#45;mapped monitor used to print out debug messages.">
<polygon fill="none" stroke="black" points="175.5,-147.5 175.5,-177.5 299.5,-177.5 299.5,-147.5 175.5,-147.5"/>
<text text-anchor="start" x="183.5" y="-165.5" font-family="Helvetica,sans-Serif" font-size="10.00">zero_mate::peripheral</text>
<text text-anchor="middle" x="237.5" y="-154.5" font-family="Helvetica,sans-Serif" font-size="10.00">::CMonitor</text>
</a>
</g>
</g>
<!-- Node0&#45;&gt;Node6 -->
<g id="edge6" class="edge">
<title>Node0&#45;&gt;Node6</title>
<path fill="none" stroke="midnightblue" d="M141.97,-176.17C153.11,-174.56 164.53,-172.91 175.41,-171.33"/>
<polygon fill="midnightblue" stroke="midnightblue" points="141.24,-172.74 131.84,-177.63 142.24,-179.66 141.24,-172.74"/>
</g>
<!-- Node7 -->
<g id="node8" class="node">
<title>Node7</title>
<g id="a_node8"><a xlink:href="classzero__mate_1_1peripheral_1_1CRAM.html" target="_top" xlink:title="This class represents the RAM used in BCM2835.">
<polygon fill="none" stroke="black" points="175.5,-98.5 175.5,-128.5 299.5,-128.5 299.5,-98.5 175.5,-98.5"/>
<text text-anchor="start" x="183.5" y="-116.5" font-family="Helvetica,sans-Serif" font-size="10.00">zero_mate::peripheral</text>
<text text-anchor="middle" x="237.5" y="-105.5" font-family="Helvetica,sans-Serif" font-size="10.00">::CRAM</text>
</a>
</g>
</g>
<!-- Node0&#45;&gt;Node7 -->
<g id="edge7" class="edge">
<title>Node0&#45;&gt;Node7</title>
<path fill="none" stroke="midnightblue" d="M110.48,-166.99C129.83,-157.75 153.48,-146.73 175,-137.5 181.95,-134.52 189.41,-131.48 196.64,-128.61"/>
<polygon fill="midnightblue" stroke="midnightblue" points="108.85,-163.89 101.35,-171.38 111.88,-170.2 108.85,-163.89"/>
</g>
<!-- Node8 -->
<g id="node9" class="node">
<title>Node8</title>
<g id="a_node9"><a xlink:href="classzero__mate_1_1peripheral_1_1CTRNG.html" target="_top" xlink:title="This class represents a TRNG (random number generator).">
<polygon fill="none" stroke="black" points="175.5,-49.5 175.5,-79.5 299.5,-79.5 299.5,-49.5 175.5,-49.5"/>
<text text-anchor="start" x="183.5" y="-67.5" font-family="Helvetica,sans-Serif" font-size="10.00">zero_mate::peripheral</text>
<text text-anchor="middle" x="237.5" y="-56.5" font-family="Helvetica,sans-Serif" font-size="10.00">::CTRNG</text>
</a>
</g>
</g>
<!-- Node0&#45;&gt;Node8 -->
<g id="edge8" class="edge">
<title>Node0&#45;&gt;Node8</title>
<path fill="none" stroke="midnightblue" d="M89.91,-163.85C109.53,-142.1 141.65,-109.53 175,-88.5 180.23,-85.2 186,-82.22 191.83,-79.58"/>
<polygon fill="midnightblue" stroke="midnightblue" points="87.29,-161.53 83.26,-171.33 92.52,-166.17 87.29,-161.53"/>
</g>
<!-- Node72 -->
<g id="node10" class="node">
<title>Node72</title>
<g id="a_node10"><a xlink:href="classzero__mate_1_1peripheral_1_1ISystem__Clock__Listener.html" target="_top" xlink:title="This class represents a general interface for a CPU clock listener.">
<polygon fill="none" stroke="black" points="0,-294.5 0,-324.5 139,-324.5 139,-294.5 0,-294.5"/>
<text text-anchor="start" x="8" y="-312.5" font-family="Helvetica,sans-Serif" font-size="10.00">zero_mate::peripheral</text>
<text text-anchor="middle" x="69.5" y="-301.5" font-family="Helvetica,sans-Serif" font-size="10.00">::ISystem_Clock_Listener</text>
</a>
</g>
</g>
<!-- Node72&#45;&gt;Node1 -->
<g id="edge9" class="edge">
<title>Node72&#45;&gt;Node1</title>
<path fill="none" stroke="midnightblue" d="M131.37,-327.47C149.15,-332.72 168.4,-338.4 185.51,-343.45"/>
<polygon fill="midnightblue" stroke="midnightblue" points="132.24,-324.08 121.66,-324.6 130.26,-330.79 132.24,-324.08"/>
</g>
<!-- Node72&#45;&gt;Node2 -->
<g id="edge10" class="edge">
<title>Node72&#45;&gt;Node2</title>
<path fill="none" stroke="midnightblue" d="M149.6,-309.5C158.28,-309.5 167.02,-309.5 175.44,-309.5"/>
<polygon fill="midnightblue" stroke="midnightblue" points="149.46,-306 139.46,-309.5 149.46,-313 149.46,-306"/>
</g>
<!-- Node72&#45;&gt;Node3 -->
<g id="edge11" class="edge">
<title>Node72&#45;&gt;Node3</title>
<path fill="none" stroke="midnightblue" d="M131.37,-291.53C149.15,-286.28 168.4,-280.6 185.51,-275.55"/>
<polygon fill="midnightblue" stroke="midnightblue" points="130.26,-288.21 121.66,-294.4 132.24,-294.92 130.26,-288.21"/>
</g>
</g>
</svg>
