<?xml version="1.0" encoding="UTF-8" standalone="no"?>
<!DOCTYPE svg PUBLIC "-//W3C//DTD SVG 1.1//EN"
 "http://www.w3.org/Graphics/SVG/1.1/DTD/svg11.dtd">
<!-- Generated by graphviz version 2.43.0 (0)
 -->
<!-- Title: Graphical Class Hierarchy Pages: 1 -->
<svg width="354pt" height="666pt"
 viewBox="0.00 0.00 354.00 665.50" xmlns="http://www.w3.org/2000/svg" xmlns:xlink="http://www.w3.org/1999/xlink">
<g id="graph0" class="graph" transform="scale(1 1) rotate(0) translate(4 661.5)">
<title>Graphical Class Hierarchy</title>
<!-- Node0 -->
<g id="node1" class="node">
<title>Node0</title>
<g id="a_node1"><a xlink:href="classzero__mate_1_1gui_1_1IGUI__Window.html" target="_top" xlink:title="Common interface for all GUI windows.">
<polygon fill="none" stroke="black" points="10.5,-333 10.5,-363 126.5,-363 126.5,-333 10.5,-333"/>
<text text-anchor="start" x="18.5" y="-351" font-family="Helvetica,sans-Serif" font-size="10.00">zero_mate::gui::IGUI</text>
<text text-anchor="middle" x="68.5" y="-340" font-family="Helvetica,sans-Serif" font-size="10.00">_Window</text>
</a>
</g>
</g>
<!-- Node1 -->
<g id="node2" class="node">
<title>Node1</title>
<g id="a_node2"><a xlink:href="classzero__mate_1_1gui_1_1CARM__Timer__Window.html" target="_top" xlink:title="This windows visualizes the contents of the ARM timer registers.">
<polygon fill="none" stroke="black" points="197,-627 197,-657 322,-657 322,-627 197,-627"/>
<text text-anchor="start" x="205" y="-645" font-family="Helvetica,sans-Serif" font-size="10.00">zero_mate::gui::CARM</text>
<text text-anchor="middle" x="259.5" y="-634" font-family="Helvetica,sans-Serif" font-size="10.00">_Timer_Window</text>
</a>
</g>
</g>
<!-- Node0&#45;&gt;Node1 -->
<g id="edge1" class="edge">
<title>Node0&#45;&gt;Node1</title>
<path fill="none" stroke="midnightblue" d="M71.77,-373.43C77.92,-426.83 99.75,-551.22 173,-618 179.84,-624.23 188.16,-628.86 196.91,-632.3"/>
<polygon fill="midnightblue" stroke="midnightblue" points="75.22,-372.73 70.68,-363.15 68.25,-373.47 75.22,-372.73"/>
</g>
<!-- Node2 -->
<g id="node3" class="node">
<title>Node2</title>
<g id="a_node3"><a xlink:href="classzero__mate_1_1gui_1_1CAUX__Window.html" target="_top" xlink:title="This class represents the windows that visualizes auxiliary peripherals.">
<polygon fill="none" stroke="black" points="198,-578 198,-608 321,-608 321,-578 198,-578"/>
<text text-anchor="start" x="206" y="-596" font-family="Helvetica,sans-Serif" font-size="10.00">zero_mate::gui::CAUX</text>
<text text-anchor="middle" x="259.5" y="-585" font-family="Helvetica,sans-Serif" font-size="10.00">_Window</text>
</a>
</g>
</g>
<!-- Node0&#45;&gt;Node2 -->
<g id="edge2" class="edge">
<title>Node0&#45;&gt;Node2</title>
<path fill="none" stroke="midnightblue" d="M74.16,-373.26C83.99,-419.23 111.22,-516.62 173,-569 180.17,-575.08 188.78,-579.63 197.74,-583.02"/>
<polygon fill="midnightblue" stroke="midnightblue" points="77.55,-372.35 72.13,-363.25 70.69,-373.74 77.55,-372.35"/>
</g>
<!-- Node3 -->
<g id="node4" class="node">
<title>Node3</title>
<g id="a_node4"><a xlink:href="classzero__mate_1_1gui_1_1CCP15__Window.html" target="_top" xlink:title="This class represents a window that displays information related to CP15 (coprocessor 15).">
<polygon fill="none" stroke="black" points="196,-529 196,-559 323,-559 323,-529 196,-529"/>
<text text-anchor="start" x="204" y="-547" font-family="Helvetica,sans-Serif" font-size="10.00">zero_mate::gui::CCP15</text>
<text text-anchor="middle" x="259.5" y="-536" font-family="Helvetica,sans-Serif" font-size="10.00">_Window</text>
</a>
</g>
</g>
<!-- Node0&#45;&gt;Node3 -->
<g id="edge3" class="edge">
<title>Node0&#45;&gt;Node3</title>
<path fill="none" stroke="midnightblue" d="M77.62,-372.66C91.25,-410.2 122.33,-481.37 173,-520 179.74,-525.14 187.54,-529.18 195.62,-532.36"/>
<polygon fill="midnightblue" stroke="midnightblue" points="80.85,-371.3 74.23,-363.02 74.24,-373.62 80.85,-371.3"/>
</g>
<!-- Node4 -->
<g id="node5" class="node">
<title>Node4</title>
<g id="a_node5"><a xlink:href="classzero__mate_1_1gui_1_1CControl__Window.html" target="_top" xlink:title="This class represents a window that allows the user to control CPU execution.">
<polygon fill="none" stroke="black" points="191,-480 191,-510 328,-510 328,-480 191,-480"/>
<text text-anchor="start" x="199" y="-498" font-family="Helvetica,sans-Serif" font-size="10.00">zero_mate::gui::CControl</text>
<text text-anchor="middle" x="259.5" y="-487" font-family="Helvetica,sans-Serif" font-size="10.00">_Window</text>
</a>
</g>
</g>
<!-- Node0&#45;&gt;Node4 -->
<g id="edge4" class="edge">
<title>Node0&#45;&gt;Node4</title>
<path fill="none" stroke="midnightblue" d="M83.53,-372.16C100.98,-400.08 133.38,-445.46 173,-471 178.57,-474.59 184.69,-477.65 191,-480.26"/>
<polygon fill="midnightblue" stroke="midnightblue" points="86.39,-370.12 78.19,-363.41 80.41,-373.77 86.39,-370.12"/>
</g>
<!-- Node5 -->
<g id="node6" class="node">
<title>Node5</title>
<g id="a_node6"><a xlink:href="classzero__mate_1_1gui_1_1CDemo__Window.html" target="_top" xlink:title="This class displays the ImGui and ImPlot demos.">
<polygon fill="none" stroke="black" points="194,-431 194,-461 325,-461 325,-431 194,-431"/>
<text text-anchor="start" x="202" y="-449" font-family="Helvetica,sans-Serif" font-size="10.00">zero_mate::gui::CDemo</text>
<text text-anchor="middle" x="259.5" y="-438" font-family="Helvetica,sans-Serif" font-size="10.00">_Window</text>
</a>
</g>
</g>
<!-- Node0&#45;&gt;Node5 -->
<g id="edge5" class="edge">
<title>Node0&#45;&gt;Node5</title>
<path fill="none" stroke="midnightblue" d="M94.34,-369.56C114.39,-385.98 143.94,-408.06 173,-422 179.95,-425.33 187.45,-428.28 195.01,-430.86"/>
<polygon fill="midnightblue" stroke="midnightblue" points="96.55,-366.84 86.62,-363.13 92.07,-372.22 96.55,-366.84"/>
</g>
<!-- Node6 -->
<g id="node7" class="node">
<title>Node6</title>
<g id="a_node7"><a xlink:href="classzero__mate_1_1gui_1_1CGPIO__Window.html" target="_top" xlink:title="This class represents a windows that displays information about GPIO pins.">
<polygon fill="none" stroke="black" points="196.5,-382 196.5,-412 322.5,-412 322.5,-382 196.5,-382"/>
<text text-anchor="start" x="204.5" y="-400" font-family="Helvetica,sans-Serif" font-size="10.00">zero_mate::gui::CGPIO</text>
<text text-anchor="middle" x="259.5" y="-389" font-family="Helvetica,sans-Serif" font-size="10.00">_Window</text>
</a>
</g>
</g>
<!-- Node0&#45;&gt;Node6 -->
<g id="edge6" class="edge">
<title>Node0&#45;&gt;Node6</title>
<path fill="none" stroke="midnightblue" d="M136.48,-365.37C157.39,-370.79 180.26,-376.72 200.5,-381.96"/>
<polygon fill="midnightblue" stroke="midnightblue" points="137.28,-361.96 126.72,-362.83 135.52,-368.73 137.28,-361.96"/>
</g>
<!-- Node7 -->
<g id="node8" class="node">
<title>Node7</title>
<g id="a_node8"><a xlink:href="classzero__mate_1_1gui_1_1CInterrupt__Controller__Window.html" target="_top" xlink:title="This class defines a window that displays information about the interrupt controller.">
<polygon fill="none" stroke="black" points="187.5,-333 187.5,-363 331.5,-363 331.5,-333 187.5,-333"/>
<text text-anchor="start" x="195.5" y="-351" font-family="Helvetica,sans-Serif" font-size="10.00">zero_mate::gui::CInterrupt</text>
<text text-anchor="middle" x="259.5" y="-340" font-family="Helvetica,sans-Serif" font-size="10.00">_Controller_Window</text>
</a>
</g>
</g>
<!-- Node0&#45;&gt;Node7 -->
<g id="edge7" class="edge">
<title>Node0&#45;&gt;Node7</title>
<path fill="none" stroke="midnightblue" d="M136.77,-348C153.2,-348 170.83,-348 187.43,-348"/>
<polygon fill="midnightblue" stroke="midnightblue" points="136.72,-344.5 126.72,-348 136.72,-351.5 136.72,-344.5"/>
</g>
<!-- Node8 -->
<g id="node9" class="node">
<title>Node8</title>
<g id="a_node9"><a xlink:href="classzero__mate_1_1gui_1_1CLog__Window.html" target="_top" xlink:title="This class represents a window that displays log messages.">
<polygon fill="none" stroke="black" points="200,-39 200,-69 319,-69 319,-39 200,-39"/>
<text text-anchor="start" x="208" y="-57" font-family="Helvetica,sans-Serif" font-size="10.00">zero_mate::gui::CLog</text>
<text text-anchor="middle" x="259.5" y="-46" font-family="Helvetica,sans-Serif" font-size="10.00">_Window</text>
</a>
</g>
</g>
<!-- Node0&#45;&gt;Node8 -->
<g id="edge8" class="edge">
<title>Node0&#45;&gt;Node8</title>
<path fill="none" stroke="midnightblue" d="M71.86,-322.73C78.18,-269.64 100.3,-145.91 173,-79 180.62,-71.98 190.11,-66.93 199.97,-63.28"/>
<polygon fill="midnightblue" stroke="midnightblue" points="68.35,-322.62 70.74,-332.94 75.31,-323.38 68.35,-322.62"/>
</g>
<!-- Node9 -->
<g id="node10" class="node">
<title>Node9</title>
<g id="a_node10"><a xlink:href="classzero__mate_1_1gui_1_1CMonitor__Window.html" target="_top" xlink:title="This class represents a window that visualizes the memory&#45;mapped debug monitor.">
<polygon fill="none" stroke="black" points="189.5,-284 189.5,-314 329.5,-314 329.5,-284 189.5,-284"/>
<text text-anchor="start" x="197.5" y="-302" font-family="Helvetica,sans-Serif" font-size="10.00">zero_mate::gui::CMonitor</text>
<text text-anchor="middle" x="259.5" y="-291" font-family="Helvetica,sans-Serif" font-size="10.00">_Window</text>
</a>
</g>
</g>
<!-- Node0&#45;&gt;Node9 -->
<g id="edge9" class="edge">
<title>Node0&#45;&gt;Node9</title>
<path fill="none" stroke="midnightblue" d="M136.48,-330.63C157.39,-325.21 180.26,-319.28 200.5,-314.04"/>
<polygon fill="midnightblue" stroke="midnightblue" points="135.52,-327.27 126.72,-333.17 137.28,-334.04 135.52,-327.27"/>
</g>
<!-- Node10 -->
<g id="node11" class="node">
<title>Node10</title>
<g id="a_node11"><a xlink:href="classzero__mate_1_1gui_1_1CRAM__Window.html" target="_top" xlink:title="This class represents a windows that visualizes the contents of the RAM.">
<polygon fill="none" stroke="black" points="197,-235 197,-265 322,-265 322,-235 197,-235"/>
<text text-anchor="start" x="205" y="-253" font-family="Helvetica,sans-Serif" font-size="10.00">zero_mate::gui::CRAM</text>
<text text-anchor="middle" x="259.5" y="-242" font-family="Helvetica,sans-Serif" font-size="10.00">_Window</text>
</a>
</g>
</g>
<!-- Node0&#45;&gt;Node10 -->
<g id="edge10" class="edge">
<title>Node0&#45;&gt;Node10</title>
<path fill="none" stroke="midnightblue" d="M95.06,-326.33C115.15,-310.24 144.41,-288.79 173,-275 180.8,-271.24 189.28,-267.93 197.77,-265.05"/>
<polygon fill="midnightblue" stroke="midnightblue" points="92.59,-323.83 87.05,-332.86 97.01,-329.26 92.59,-323.83"/>
</g>
<!-- Node11 -->
<g id="node12" class="node">
<title>Node11</title>
<g id="a_node12"><a xlink:href="classzero__mate_1_1gui_1_1CRegisters__Window.html" target="_top" xlink:title="This class represents the window that displays the contents of all CPU registers.">
<polygon fill="none" stroke="black" points="185.5,-186 185.5,-216 333.5,-216 333.5,-186 185.5,-186"/>
<text text-anchor="start" x="193.5" y="-204" font-family="Helvetica,sans-Serif" font-size="10.00">zero_mate::gui::CRegisters</text>
<text text-anchor="middle" x="259.5" y="-193" font-family="Helvetica,sans-Serif" font-size="10.00">_Window</text>
</a>
</g>
</g>
<!-- Node0&#45;&gt;Node11 -->
<g id="edge11" class="edge">
<title>Node0&#45;&gt;Node11</title>
<path fill="none" stroke="midnightblue" d="M83.62,-324.12C101.17,-296.49 133.65,-251.55 173,-226 178.97,-222.13 185.55,-218.84 192.33,-216.05"/>
<polygon fill="midnightblue" stroke="midnightblue" points="80.55,-322.43 78.26,-332.77 86.5,-326.12 80.55,-322.43"/>
</g>
<!-- Node12 -->
<g id="node13" class="node">
<title>Node12</title>
<g id="a_node13"><a xlink:href="classzero__mate_1_1gui_1_1CSource__Code__Window.html" target="_top" xlink:title="This class represents a windows that displays the contents of loaded ELF files.">
<polygon fill="none" stroke="black" points="192,-137 192,-167 327,-167 327,-137 192,-137"/>
<text text-anchor="start" x="200" y="-155" font-family="Helvetica,sans-Serif" font-size="10.00">zero_mate::gui::CSource</text>
<text text-anchor="middle" x="259.5" y="-144" font-family="Helvetica,sans-Serif" font-size="10.00">_Code_Window</text>
</a>
</g>
</g>
<!-- Node0&#45;&gt;Node12 -->
<g id="edge12" class="edge">
<title>Node0&#45;&gt;Node12</title>
<path fill="none" stroke="midnightblue" d="M77.81,-323.26C91.62,-285.96 122.83,-215.57 173,-177 178.64,-172.66 185.01,-169.08 191.67,-166.11"/>
<polygon fill="midnightblue" stroke="midnightblue" points="74.46,-322.26 74.38,-332.86 81.05,-324.62 74.46,-322.26"/>
</g>
<!-- Node13 -->
<g id="node14" class="node">
<title>Node13</title>
<g id="a_node14"><a xlink:href="classzero__mate_1_1gui_1_1CTop__Bar__Menu.html" target="_top" xlink:title="This class represents a top bar through which the user can load ELF files.">
<polygon fill="none" stroke="black" points="200,-88 200,-118 319,-118 319,-88 200,-88"/>
<text text-anchor="start" x="208" y="-106" font-family="Helvetica,sans-Serif" font-size="10.00">zero_mate::gui::CTop</text>
<text text-anchor="middle" x="259.5" y="-95" font-family="Helvetica,sans-Serif" font-size="10.00">_Bar_Menu</text>
</a>
</g>
</g>
<!-- Node0&#45;&gt;Node13 -->
<g id="edge13" class="edge">
<title>Node0&#45;&gt;Node13</title>
<path fill="none" stroke="midnightblue" d="M74.25,-322.92C84.23,-277.26 111.69,-180.46 173,-128 180.76,-121.36 190.2,-116.49 199.93,-112.91"/>
<polygon fill="midnightblue" stroke="midnightblue" points="70.8,-322.36 72.18,-332.86 77.65,-323.78 70.8,-322.36"/>
</g>
<!-- Node51 -->
<g id="node15" class="node">
<title>Node51</title>
<g id="a_node15"><a xlink:href="classzero__mate_1_1utils_1_1ILogger.html" target="_top" xlink:title="This class represents a logger interface.">
<polygon fill="none" stroke="black" points="0,-22.5 0,-41.5 137,-41.5 137,-22.5 0,-22.5"/>
<text text-anchor="middle" x="68.5" y="-29.5" font-family="Helvetica,sans-Serif" font-size="10.00">zero_mate::utils::ILogger</text>
</a>
</g>
</g>
<!-- Node51&#45;&gt;Node8 -->
<g id="edge14" class="edge">
<title>Node51&#45;&gt;Node8</title>
<path fill="none" stroke="midnightblue" d="M147.39,-41.07C164.88,-43.1 183.16,-45.23 199.72,-47.16"/>
<polygon fill="midnightblue" stroke="midnightblue" points="147.54,-37.56 137.2,-39.88 146.73,-44.51 147.54,-37.56"/>
</g>
<!-- Node52 -->
<g id="node16" class="node">
<title>Node52</title>
<g id="a_node16"><a xlink:href="classzero__mate_1_1utils_1_1CLogger__STDO.html" target="_top" xlink:title="This class represents a logger that logs messages to the standard output (STDO).">
<polygon fill="none" stroke="black" points="173,-0.5 173,-19.5 346,-19.5 346,-0.5 173,-0.5"/>
<text text-anchor="middle" x="259.5" y="-7.5" font-family="Helvetica,sans-Serif" font-size="10.00">zero_mate::utils::CLogger_STDO</text>
</a>
</g>
</g>
<!-- Node51&#45;&gt;Node52 -->
<g id="edge15" class="edge">
<title>Node51&#45;&gt;Node52</title>
<path fill="none" stroke="midnightblue" d="M147.24,-22.95C156.97,-21.82 166.95,-20.66 176.75,-19.52"/>
<polygon fill="midnightblue" stroke="midnightblue" points="146.73,-19.49 137.2,-24.12 147.54,-26.44 146.73,-19.49"/>
</g>
</g>
</svg>
