<?xml version="1.0" encoding="UTF-8" standalone="no"?>
<!DOCTYPE svg PUBLIC "-//W3C//DTD SVG 1.1//EN"
 "http://www.w3.org/Graphics/SVG/1.1/DTD/svg11.dtd">
<!-- Generated by graphviz version 2.43.0 (0)
 -->
<!-- Title: Graphical Class Hierarchy Pages: 1 -->
<svg width="310pt" height="235pt"
 viewBox="0.00 0.00 310.00 235.00" xmlns="http://www.w3.org/2000/svg" xmlns:xlink="http://www.w3.org/1999/xlink">
<g id="graph0" class="graph" transform="scale(1 1) rotate(0) translate(4 231)">
<title>Graphical Class Hierarchy</title>
<!-- Node0 -->
<g id="node1" class="node">
<title>Node0</title>
<g id="a_node1"><a xlink:href="classzero__mate_1_1coprocessor_1_1cp15_1_1IPrimary__Reg.html" target="_top" xlink:title="This interface defines common functionality of every primary register of coprocessor CP15.">
<polygon fill="none" stroke="black" points="0,-98.5 0,-128.5 133,-128.5 133,-98.5 0,-98.5"/>
<text text-anchor="start" x="8" y="-116.5" font-family="Helvetica,sans-Serif" font-size="10.00">zero_mate::coprocessor</text>
<text text-anchor="middle" x="66.5" y="-105.5" font-family="Helvetica,sans-Serif" font-size="10.00">::cp15::IPrimary_Reg</text>
</a>
</g>
</g>
<!-- Node1 -->
<g id="node2" class="node">
<title>Node1</title>
<g id="a_node2"><a xlink:href="classzero__mate_1_1coprocessor_1_1cp15_1_1CC1.html" target="_top" xlink:title="This class represents primary register C1 of coprocessor CP15.">
<polygon fill="none" stroke="black" points="169,-196.5 169,-226.5 302,-226.5 302,-196.5 169,-196.5"/>
<text text-anchor="start" x="177" y="-214.5" font-family="Helvetica,sans-Serif" font-size="10.00">zero_mate::coprocessor</text>
<text text-anchor="middle" x="235.5" y="-203.5" font-family="Helvetica,sans-Serif" font-size="10.00">::cp15::CC1</text>
</a>
</g>
</g>
<!-- Node0&#45;&gt;Node1 -->
<g id="edge1" class="edge">
<title>Node0&#45;&gt;Node1</title>
<path fill="none" stroke="midnightblue" d="M93.08,-135.27C112.85,-151.29 141.4,-172.76 169,-187.5 175.09,-190.75 181.71,-193.75 188.33,-196.44"/>
<polygon fill="midnightblue" stroke="midnightblue" points="95.13,-132.42 85.18,-128.77 90.68,-137.83 95.13,-132.42"/>
</g>
<!-- Node2 -->
<g id="node3" class="node">
<title>Node2</title>
<g id="a_node3"><a xlink:href="classzero__mate_1_1coprocessor_1_1cp15_1_1CC2.html" target="_top" xlink:title="This class represents primary register C2 of coprocessor CP15.">
<polygon fill="none" stroke="black" points="169,-147.5 169,-177.5 302,-177.5 302,-147.5 169,-147.5"/>
<text text-anchor="start" x="177" y="-165.5" font-family="Helvetica,sans-Serif" font-size="10.00">zero_mate::coprocessor</text>
<text text-anchor="middle" x="235.5" y="-154.5" font-family="Helvetica,sans-Serif" font-size="10.00">::cp15::CC2</text>
</a>
</g>
</g>
<!-- Node0&#45;&gt;Node2 -->
<g id="edge2" class="edge">
<title>Node0&#45;&gt;Node2</title>
<path fill="none" stroke="midnightblue" d="M128.73,-131.47C146.63,-136.72 165.99,-142.4 183.2,-147.45"/>
<polygon fill="midnightblue" stroke="midnightblue" points="129.55,-128.06 118.97,-128.6 127.58,-134.78 129.55,-128.06"/>
</g>
<!-- Node3 -->
<g id="node4" class="node">
<title>Node3</title>
<g id="a_node4"><a xlink:href="classzero__mate_1_1coprocessor_1_1cp15_1_1CC3.html" target="_top" xlink:title="This class represents primary register C3 of coprocessor CP15.">
<polygon fill="none" stroke="black" points="169,-98.5 169,-128.5 302,-128.5 302,-98.5 169,-98.5"/>
<text text-anchor="start" x="177" y="-116.5" font-family="Helvetica,sans-Serif" font-size="10.00">zero_mate::coprocessor</text>
<text text-anchor="middle" x="235.5" y="-105.5" font-family="Helvetica,sans-Serif" font-size="10.00">::cp15::CC3</text>
</a>
</g>
</g>
<!-- Node0&#45;&gt;Node3 -->
<g id="edge3" class="edge">
<title>Node0&#45;&gt;Node3</title>
<path fill="none" stroke="midnightblue" d="M143.07,-113.5C151.68,-113.5 160.42,-113.5 168.89,-113.5"/>
<polygon fill="midnightblue" stroke="midnightblue" points="143.02,-110 133.02,-113.5 143.02,-117 143.02,-110"/>
</g>
<!-- Node4 -->
<g id="node5" class="node">
<title>Node4</title>
<g id="a_node5"><a xlink:href="classzero__mate_1_1coprocessor_1_1cp15_1_1CC7.html" target="_top" xlink:title="This class represents primary register C7 of coprocessor CP15.">
<polygon fill="none" stroke="black" points="169,-49.5 169,-79.5 302,-79.5 302,-49.5 169,-49.5"/>
<text text-anchor="start" x="177" y="-67.5" font-family="Helvetica,sans-Serif" font-size="10.00">zero_mate::coprocessor</text>
<text text-anchor="middle" x="235.5" y="-56.5" font-family="Helvetica,sans-Serif" font-size="10.00">::cp15::CC7</text>
</a>
</g>
</g>
<!-- Node0&#45;&gt;Node4 -->
<g id="edge4" class="edge">
<title>Node0&#45;&gt;Node4</title>
<path fill="none" stroke="midnightblue" d="M128.73,-95.53C146.63,-90.28 165.99,-84.6 183.2,-79.55"/>
<polygon fill="midnightblue" stroke="midnightblue" points="127.58,-92.22 118.97,-98.4 129.55,-98.94 127.58,-92.22"/>
</g>
<!-- Node5 -->
<g id="node6" class="node">
<title>Node5</title>
<g id="a_node6"><a xlink:href="classzero__mate_1_1coprocessor_1_1cp15_1_1CC8.html" target="_top" xlink:title="This class represents primary register C8 of coprocessor CP15.">
<polygon fill="none" stroke="black" points="169,-0.5 169,-30.5 302,-30.5 302,-0.5 169,-0.5"/>
<text text-anchor="start" x="177" y="-18.5" font-family="Helvetica,sans-Serif" font-size="10.00">zero_mate::coprocessor</text>
<text text-anchor="middle" x="235.5" y="-7.5" font-family="Helvetica,sans-Serif" font-size="10.00">::cp15::CC8</text>
</a>
</g>
</g>
<!-- Node0&#45;&gt;Node5 -->
<g id="edge5" class="edge">
<title>Node0&#45;&gt;Node5</title>
<path fill="none" stroke="midnightblue" d="M93.55,-91.87C113.35,-76.16 141.74,-55.18 169,-40.5 175.75,-36.86 183.15,-33.5 190.46,-30.5"/>
<polygon fill="midnightblue" stroke="midnightblue" points="91.22,-89.25 85.62,-98.24 95.61,-94.7 91.22,-89.25"/>
</g>
</g>
</svg>
