<?xml version="1.0" encoding="UTF-8" standalone="no"?>
<!DOCTYPE svg PUBLIC "-//W3C//DTD SVG 1.1//EN"
 "http://www.w3.org/Graphics/SVG/1.1/DTD/svg11.dtd">
<!-- Generated by graphviz version 2.43.0 (0)
 -->
<!-- Title: src/gui/windows/peripherals/interrupt_controller_window.cpp Pages: 1 -->
<svg width="410pt" height="352pt"
 viewBox="0.00 0.00 409.50 352.00" xmlns="http://www.w3.org/2000/svg" xmlns:xlink="http://www.w3.org/1999/xlink">
<g id="graph0" class="graph" transform="scale(1 1) rotate(0) translate(4 348)">
<title>src/gui/windows/peripherals/interrupt_controller_window.cpp</title>
<!-- Node1 -->
<g id="node1" class="node">
<title>Node1</title>
<g id="a_node1"><a xlink:title="This file implements a window that visualizes the interrupt controller IC.">
<polygon fill="#bfbfbf" stroke="black" points="26,-313.5 26,-343.5 202,-343.5 202,-313.5 26,-313.5"/>
<text text-anchor="start" x="34" y="-331.5" font-family="Helvetica,sans-Serif" font-size="10.00">src/gui/windows/peripherals</text>
<text text-anchor="middle" x="114" y="-320.5" font-family="Helvetica,sans-Serif" font-size="10.00">/interrupt_controller_window.cpp</text>
</a>
</g>
</g>
<!-- Node2 -->
<g id="node2" class="node">
<title>Node2</title>
<g id="a_node2"><a xlink:title=" ">
<polygon fill="none" stroke="#bfbfbf" points="1.5,-252 1.5,-271 102.5,-271 102.5,-252 1.5,-252"/>
<text text-anchor="middle" x="52" y="-259" font-family="Helvetica,sans-Serif" font-size="10.00">magic_enum.hpp</text>
</a>
</g>
</g>
<!-- Node1&#45;&gt;Node2 -->
<g id="edge1" class="edge">
<title>Node1&#45;&gt;Node2</title>
<path fill="none" stroke="midnightblue" d="M100.55,-313.4C90.78,-303.16 77.56,-289.3 67.38,-278.62"/>
<polygon fill="midnightblue" stroke="midnightblue" points="69.73,-276.01 60.29,-271.19 64.66,-280.85 69.73,-276.01"/>
</g>
<!-- Node3 -->
<g id="node3" class="node">
<title>Node3</title>
<g id="a_node3"><a xlink:href="interrupt__controller__window_8hpp.html" target="_top" xlink:title="This file defines a window that visualizes the interrupt controller IC.">
<polygon fill="none" stroke="black" points="121,-246.5 121,-276.5 231,-276.5 231,-246.5 121,-246.5"/>
<text text-anchor="start" x="129" y="-264.5" font-family="Helvetica,sans-Serif" font-size="10.00">interrupt_controller</text>
<text text-anchor="middle" x="176" y="-253.5" font-family="Helvetica,sans-Serif" font-size="10.00">_window.hpp</text>
</a>
</g>
</g>
<!-- Node1&#45;&gt;Node3 -->
<g id="edge2" class="edge">
<title>Node1&#45;&gt;Node3</title>
<path fill="none" stroke="midnightblue" d="M127.45,-313.4C135.66,-304.79 146.31,-293.63 155.55,-283.94"/>
<polygon fill="midnightblue" stroke="midnightblue" points="158.2,-286.23 162.57,-276.58 153.14,-281.4 158.2,-286.23"/>
</g>
<!-- Node4 -->
<g id="node4" class="node">
<title>Node4</title>
<g id="a_node4"><a xlink:href="window_8hpp.html" target="_top" xlink:title="This file defines an interface for all windows that will be rendered by the application.">
<polygon fill="none" stroke="black" points="51,-185 51,-204 143,-204 143,-185 51,-185"/>
<text text-anchor="middle" x="97" y="-192" font-family="Helvetica,sans-Serif" font-size="10.00">../../window.hpp</text>
</a>
</g>
</g>
<!-- Node3&#45;&gt;Node4 -->
<g id="edge3" class="edge">
<title>Node3&#45;&gt;Node4</title>
<path fill="none" stroke="midnightblue" d="M158.86,-246.4C146.05,-235.86 128.57,-221.48 115.46,-210.69"/>
<polygon fill="midnightblue" stroke="midnightblue" points="117.51,-207.85 107.57,-204.19 113.07,-213.25 117.51,-207.85"/>
</g>
<!-- Node6 -->
<g id="node6" class="node">
<title>Node6</title>
<g id="a_node6"><a xlink:href="interrupt__controller_8hpp.html" target="_top" xlink:title="This file defines the interrupt controller used in BCM2835.">
<polygon fill="none" stroke="black" points="189,-179.5 189,-209.5 323,-209.5 323,-179.5 189,-179.5"/>
<text text-anchor="start" x="197" y="-197.5" font-family="Helvetica,sans-Serif" font-size="10.00">../../../core/peripherals</text>
<text text-anchor="middle" x="256" y="-186.5" font-family="Helvetica,sans-Serif" font-size="10.00">/interrupt_controller.hpp</text>
</a>
</g>
</g>
<!-- Node3&#45;&gt;Node6 -->
<g id="edge5" class="edge">
<title>Node3&#45;&gt;Node6</title>
<path fill="none" stroke="midnightblue" d="M193.36,-246.4C204.26,-237.54 218.51,-225.96 230.66,-216.09"/>
<polygon fill="midnightblue" stroke="midnightblue" points="233.12,-218.6 238.68,-209.58 228.71,-213.17 233.12,-218.6"/>
</g>
<!-- Node5 -->
<g id="node5" class="node">
<title>Node5</title>
<g id="a_node5"><a xlink:title=" ">
<polygon fill="none" stroke="#bfbfbf" points="0,-123.5 0,-142.5 84,-142.5 84,-123.5 0,-123.5"/>
<text text-anchor="middle" x="42" y="-130.5" font-family="Helvetica,sans-Serif" font-size="10.00">imgui/imgui.h</text>
</a>
</g>
</g>
<!-- Node4&#45;&gt;Node5 -->
<g id="edge4" class="edge">
<title>Node4&#45;&gt;Node5</title>
<path fill="none" stroke="midnightblue" d="M89.12,-184.98C80.71,-175.87 67.18,-161.24 56.77,-149.98"/>
<polygon fill="midnightblue" stroke="midnightblue" points="59.22,-147.48 49.87,-142.51 54.08,-152.23 59.22,-147.48"/>
</g>
<!-- Node7 -->
<g id="node7" class="node">
<title>Node7</title>
<g id="a_node7"><a xlink:href="peripheral_8hpp.html" target="_top" xlink:title="This file defines an interface for a memory&#45;mapped peripheral.">
<polygon fill="none" stroke="black" points="102.5,-123.5 102.5,-142.5 189.5,-142.5 189.5,-123.5 102.5,-123.5"/>
<text text-anchor="middle" x="146" y="-130.5" font-family="Helvetica,sans-Serif" font-size="10.00">peripheral.hpp</text>
</a>
</g>
</g>
<!-- Node6&#45;&gt;Node7 -->
<g id="edge6" class="edge">
<title>Node6&#45;&gt;Node7</title>
<path fill="none" stroke="midnightblue" d="M229.93,-179.4C212.13,-169.77 188.69,-157.09 171.1,-147.58"/>
<polygon fill="midnightblue" stroke="midnightblue" points="172.47,-144.34 162.01,-142.66 169.14,-150.49 172.47,-144.34"/>
</g>
<!-- Node8 -->
<g id="node8" class="node">
<title>Node8</title>
<g id="a_node8"><a xlink:href="context_8hpp.html" target="_top" xlink:title="This file defines the context (registers) of the CPU.">
<polygon fill="none" stroke="black" points="208,-123.5 208,-142.5 360,-142.5 360,-123.5 208,-123.5"/>
<text text-anchor="middle" x="284" y="-130.5" font-family="Helvetica,sans-Serif" font-size="10.00">../arm1176jzf_s/context.hpp</text>
</a>
</g>
</g>
<!-- Node6&#45;&gt;Node8 -->
<g id="edge7" class="edge">
<title>Node6&#45;&gt;Node8</title>
<path fill="none" stroke="midnightblue" d="M262.64,-179.4C266.54,-171.11 271.5,-160.55 275.67,-151.71"/>
<polygon fill="midnightblue" stroke="midnightblue" points="278.83,-153.2 279.93,-142.66 272.5,-150.22 278.83,-153.2"/>
</g>
<!-- Node9 -->
<g id="node9" class="node">
<title>Node9</title>
<g id="a_node9"><a xlink:href="logging__system_8hpp.html" target="_top" xlink:title="This file defines a logging system that is used in the project.">
<polygon fill="none" stroke="black" points="270.5,-56.5 270.5,-86.5 401.5,-86.5 401.5,-56.5 270.5,-56.5"/>
<text text-anchor="start" x="278.5" y="-74.5" font-family="Helvetica,sans-Serif" font-size="10.00">zero_mate/utils/logging</text>
<text text-anchor="middle" x="336" y="-63.5" font-family="Helvetica,sans-Serif" font-size="10.00">_system.hpp</text>
</a>
</g>
</g>
<!-- Node6&#45;&gt;Node9 -->
<g id="edge10" class="edge">
<title>Node6&#45;&gt;Node9</title>
<path fill="none" stroke="midnightblue" d="M319.5,-179.5C338.69,-171.97 357.66,-160.49 369,-143 378.96,-127.64 369.14,-108.81 357.69,-94.47"/>
<polygon fill="midnightblue" stroke="midnightblue" points="360.09,-91.88 350.9,-86.61 354.79,-96.46 360.09,-91.88"/>
</g>
<!-- Node8&#45;&gt;Node9 -->
<g id="edge8" class="edge">
<title>Node8&#45;&gt;Node9</title>
<path fill="none" stroke="midnightblue" d="M291.45,-123.48C298.1,-115.87 308.12,-104.4 316.98,-94.26"/>
<polygon fill="midnightblue" stroke="midnightblue" points="319.8,-96.36 323.74,-86.52 314.53,-91.75 319.8,-96.36"/>
</g>
<!-- Node10 -->
<g id="node10" class="node">
<title>Node10</title>
<g id="a_node10"><a xlink:href="logger_8hpp.html" target="_top" xlink:title="This file defines a general logger interface.">
<polygon fill="none" stroke="black" points="302,-0.5 302,-19.5 370,-19.5 370,-0.5 302,-0.5"/>
<text text-anchor="middle" x="336" y="-7.5" font-family="Helvetica,sans-Serif" font-size="10.00">logger.hpp</text>
</a>
</g>
</g>
<!-- Node9&#45;&gt;Node10 -->
<g id="edge9" class="edge">
<title>Node9&#45;&gt;Node10</title>
<path fill="none" stroke="midnightblue" d="M336,-56.4C336,-48.47 336,-38.46 336,-29.86"/>
<polygon fill="midnightblue" stroke="midnightblue" points="339.5,-29.66 336,-19.66 332.5,-29.66 339.5,-29.66"/>
</g>
</g>
</svg>
