<?xml version="1.0" encoding="UTF-8" standalone="no"?>
<!DOCTYPE svg PUBLIC "-//W3C//DTD SVG 1.1//EN"
 "http://www.w3.org/Graphics/SVG/1.1/DTD/svg11.dtd">
<!-- Generated by graphviz version 2.43.0 (0)
 -->
<!-- Title: src/core/peripherals/interrupt_controller.cpp Pages: 1 -->
<svg width="695pt" height="207pt"
 viewBox="0.00 0.00 695.00 207.00" xmlns="http://www.w3.org/2000/svg" xmlns:xlink="http://www.w3.org/1999/xlink">
<g id="graph0" class="graph" transform="scale(1 1) rotate(0) translate(4 203)">
<title>src/core/peripherals/interrupt_controller.cpp</title>
<!-- Node1 -->
<g id="node1" class="node">
<title>Node1</title>
<g id="a_node1"><a xlink:title="This file implements the interrupt controller used in BCM2835 (defined in interrupt_controller....">
<polygon fill="#bfbfbf" stroke="black" points="215,-168.5 215,-198.5 348,-198.5 348,-168.5 215,-168.5"/>
<text text-anchor="start" x="223" y="-186.5" font-family="Helvetica,sans-Serif" font-size="10.00">src/core/peripherals</text>
<text text-anchor="middle" x="281.5" y="-175.5" font-family="Helvetica,sans-Serif" font-size="10.00">/interrupt_controller.cpp</text>
</a>
</g>
</g>
<!-- Node2 -->
<g id="node2" class="node">
<title>Node2</title>
<g id="a_node2"><a xlink:title=" ">
<polygon fill="none" stroke="#bfbfbf" points="0,-112.5 0,-131.5 79,-131.5 79,-112.5 0,-112.5"/>
<text text-anchor="middle" x="39.5" y="-119.5" font-family="Helvetica,sans-Serif" font-size="10.00">fmt/format.h</text>
</a>
</g>
</g>
<!-- Node1&#45;&gt;Node2 -->
<g id="edge1" class="edge">
<title>Node1&#45;&gt;Node2</title>
<path fill="none" stroke="midnightblue" d="M224.46,-168.47C181.52,-157.92 123.51,-143.66 83.98,-133.94"/>
<polygon fill="midnightblue" stroke="midnightblue" points="84.64,-130.5 74.1,-131.51 82.97,-137.29 84.64,-130.5"/>
</g>
<!-- Node3 -->
<g id="node3" class="node">
<title>Node3</title>
<g id="a_node3"><a xlink:title=" ">
<polygon fill="none" stroke="#bfbfbf" points="97,-112.5 97,-131.5 198,-131.5 198,-112.5 97,-112.5"/>
<text text-anchor="middle" x="147.5" y="-119.5" font-family="Helvetica,sans-Serif" font-size="10.00">magic_enum.hpp</text>
</a>
</g>
</g>
<!-- Node1&#45;&gt;Node3 -->
<g id="edge2" class="edge">
<title>Node1&#45;&gt;Node3</title>
<path fill="none" stroke="midnightblue" d="M249.74,-168.4C227.46,-158.51 197.91,-145.38 176.31,-135.79"/>
<polygon fill="midnightblue" stroke="midnightblue" points="177.56,-132.52 167,-131.66 174.72,-138.91 177.56,-132.52"/>
</g>
<!-- Node4 -->
<g id="node4" class="node">
<title>Node4</title>
<g id="a_node4"><a xlink:href="interrupt__controller_8hpp.html" target="_top" xlink:title="This file defines the interrupt controller used in BCM2835.">
<polygon fill="none" stroke="black" points="216,-112.5 216,-131.5 347,-131.5 347,-112.5 216,-112.5"/>
<text text-anchor="middle" x="281.5" y="-119.5" font-family="Helvetica,sans-Serif" font-size="10.00">interrupt_controller.hpp</text>
</a>
</g>
</g>
<!-- Node1&#45;&gt;Node4 -->
<g id="edge3" class="edge">
<title>Node1&#45;&gt;Node4</title>
<path fill="none" stroke="midnightblue" d="M281.5,-168.4C281.5,-160.47 281.5,-150.46 281.5,-141.86"/>
<polygon fill="midnightblue" stroke="midnightblue" points="285,-141.66 281.5,-131.66 278,-141.66 285,-141.66"/>
</g>
<!-- Node8 -->
<g id="node8" class="node">
<title>Node8</title>
<g id="a_node8"><a xlink:href="math_8hpp.html" target="_top" xlink:title="This file defines and implements a variety of handy helper functions that are used throughout the pro...">
<polygon fill="none" stroke="black" points="365.5,-112.5 365.5,-131.5 507.5,-131.5 507.5,-112.5 365.5,-112.5"/>
<text text-anchor="middle" x="436.5" y="-119.5" font-family="Helvetica,sans-Serif" font-size="10.00">zero_mate/utils/math.hpp</text>
</a>
</g>
</g>
<!-- Node1&#45;&gt;Node8 -->
<g id="edge8" class="edge">
<title>Node1&#45;&gt;Node8</title>
<path fill="none" stroke="midnightblue" d="M318.23,-168.4C344.47,-158.33 379.43,-144.91 404.52,-135.28"/>
<polygon fill="midnightblue" stroke="midnightblue" points="405.86,-138.51 413.95,-131.66 403.36,-131.97 405.86,-138.51"/>
</g>
<!-- Node9 -->
<g id="node9" class="node">
<title>Node9</title>
<g id="a_node9"><a xlink:href="singleton_8hpp.html" target="_top" xlink:title="This file defines and implements a generic class that is used to treat other classes as singletons.">
<polygon fill="none" stroke="black" points="526,-112.5 526,-131.5 687,-131.5 687,-112.5 526,-112.5"/>
<text text-anchor="middle" x="606.5" y="-119.5" font-family="Helvetica,sans-Serif" font-size="10.00">zero_mate/utils/singleton.hpp</text>
</a>
</g>
</g>
<!-- Node1&#45;&gt;Node9 -->
<g id="edge9" class="edge">
<title>Node1&#45;&gt;Node9</title>
<path fill="none" stroke="midnightblue" d="M348.05,-170.32C407.49,-159.43 493.62,-143.67 549.84,-133.37"/>
<polygon fill="midnightblue" stroke="midnightblue" points="550.77,-136.76 559.97,-131.52 549.51,-129.88 550.77,-136.76"/>
</g>
<!-- Node5 -->
<g id="node5" class="node">
<title>Node5</title>
<g id="a_node5"><a xlink:href="peripheral_8hpp.html" target="_top" xlink:title="This file defines an interface for a memory&#45;mapped peripheral.">
<polygon fill="none" stroke="black" points="100,-56.5 100,-75.5 187,-75.5 187,-56.5 100,-56.5"/>
<text text-anchor="middle" x="143.5" y="-63.5" font-family="Helvetica,sans-Serif" font-size="10.00">peripheral.hpp</text>
</a>
</g>
</g>
<!-- Node4&#45;&gt;Node5 -->
<g id="edge4" class="edge">
<title>Node4&#45;&gt;Node5</title>
<path fill="none" stroke="midnightblue" d="M259.63,-112.44C236.72,-103.48 200.52,-89.31 174.63,-79.18"/>
<polygon fill="midnightblue" stroke="midnightblue" points="175.85,-75.9 165.26,-75.52 173.3,-82.42 175.85,-75.9"/>
</g>
<!-- Node6 -->
<g id="node6" class="node">
<title>Node6</title>
<g id="a_node6"><a xlink:href="context_8hpp.html" target="_top" xlink:title="This file defines the context (registers) of the CPU.">
<polygon fill="none" stroke="black" points="205.5,-56.5 205.5,-75.5 357.5,-75.5 357.5,-56.5 205.5,-56.5"/>
<text text-anchor="middle" x="281.5" y="-63.5" font-family="Helvetica,sans-Serif" font-size="10.00">../arm1176jzf_s/context.hpp</text>
</a>
</g>
</g>
<!-- Node4&#45;&gt;Node6 -->
<g id="edge5" class="edge">
<title>Node4&#45;&gt;Node6</title>
<path fill="none" stroke="midnightblue" d="M281.5,-112.08C281.5,-105.01 281.5,-94.86 281.5,-85.99"/>
<polygon fill="midnightblue" stroke="midnightblue" points="285,-85.75 281.5,-75.75 278,-85.75 285,-85.75"/>
</g>
<!-- Node7 -->
<g id="node7" class="node">
<title>Node7</title>
<g id="a_node7"><a xlink:href="logger_8hpp.html" target="_top" xlink:title="This file defines a general logger interface as well as a logging system that is used in the project.">
<polygon fill="none" stroke="black" points="260.5,-0.5 260.5,-19.5 406.5,-19.5 406.5,-0.5 260.5,-0.5"/>
<text text-anchor="middle" x="333.5" y="-7.5" font-family="Helvetica,sans-Serif" font-size="10.00">zero_mate/utils/logger.hpp</text>
</a>
</g>
</g>
<!-- Node4&#45;&gt;Node7 -->
<g id="edge7" class="edge">
<title>Node4&#45;&gt;Node7</title>
<path fill="none" stroke="midnightblue" d="M315.3,-112.39C333.89,-105.74 355.39,-94.45 366.5,-76 376.32,-59.69 363.2,-40.09 350.71,-26.71"/>
<polygon fill="midnightblue" stroke="midnightblue" points="353.16,-24.21 343.61,-19.62 348.21,-29.17 353.16,-24.21"/>
</g>
<!-- Node6&#45;&gt;Node7 -->
<g id="edge6" class="edge">
<title>Node6&#45;&gt;Node7</title>
<path fill="none" stroke="midnightblue" d="M290.09,-56.08C297.66,-48.22 308.88,-36.57 318.01,-27.08"/>
<polygon fill="midnightblue" stroke="midnightblue" points="320.66,-29.38 325.07,-19.75 315.62,-24.53 320.66,-29.38"/>
</g>
</g>
</svg>
