<?xml version="1.0" encoding="UTF-8" standalone="no"?>
<!DOCTYPE svg PUBLIC "-//W3C//DTD SVG 1.1//EN"
 "http://www.w3.org/Graphics/SVG/1.1/DTD/svg11.dtd">
<!-- Generated by graphviz version 2.43.0 (0)
 -->
<!-- Title: src/core/peripherals/interrupt_controller.hpp Pages: 1 -->
<svg width="677pt" height="207pt"
 viewBox="0.00 0.00 676.50 207.00" xmlns="http://www.w3.org/2000/svg" xmlns:xlink="http://www.w3.org/1999/xlink">
<g id="graph0" class="graph" transform="scale(1 1) rotate(0) translate(4 203)">
<title>src/core/peripherals/interrupt_controller.hpp</title>
<!-- Node1 -->
<g id="node1" class="node">
<title>Node1</title>
<g id="a_node1"><a xlink:title=" ">
<polygon fill="#bfbfbf" stroke="black" points="148,-168.5 148,-198.5 282,-198.5 282,-168.5 148,-168.5"/>
<text text-anchor="start" x="156" y="-186.5" font-family="Helvetica,sans-Serif" font-size="10.00">src/core/peripherals</text>
<text text-anchor="middle" x="215" y="-175.5" font-family="Helvetica,sans-Serif" font-size="10.00">/interrupt_controller.hpp</text>
</a>
</g>
</g>
<!-- Node2 -->
<g id="node2" class="node">
<title>Node2</title>
<g id="a_node2"><a xlink:title=" ">
<polygon fill="none" stroke="#bfbfbf" points="0,-112.5 0,-131.5 42,-131.5 42,-112.5 0,-112.5"/>
<text text-anchor="middle" x="21" y="-119.5" font-family="Helvetica,sans-Serif" font-size="10.00">array</text>
</a>
</g>
</g>
<!-- Node1&#45;&gt;Node2 -->
<g id="edge1" class="edge">
<title>Node1&#45;&gt;Node2</title>
<path fill="none" stroke="midnightblue" d="M169.02,-168.4C132.83,-157.3 83.38,-142.13 51.81,-132.45"/>
<polygon fill="midnightblue" stroke="midnightblue" points="52.82,-129.1 42.23,-129.51 50.77,-135.79 52.82,-129.1"/>
</g>
<!-- Node3 -->
<g id="node3" class="node">
<title>Node3</title>
<g id="a_node3"><a xlink:title=" ">
<polygon fill="none" stroke="#bfbfbf" points="60.5,-112.5 60.5,-131.5 153.5,-131.5 153.5,-112.5 60.5,-112.5"/>
<text text-anchor="middle" x="107" y="-119.5" font-family="Helvetica,sans-Serif" font-size="10.00">unordered_map</text>
</a>
</g>
</g>
<!-- Node1&#45;&gt;Node3 -->
<g id="edge2" class="edge">
<title>Node1&#45;&gt;Node3</title>
<path fill="none" stroke="midnightblue" d="M189.41,-168.4C171.93,-158.77 148.91,-146.09 131.64,-136.58"/>
<polygon fill="midnightblue" stroke="midnightblue" points="133.16,-133.42 122.71,-131.66 129.78,-139.55 133.16,-133.42"/>
</g>
<!-- Node4 -->
<g id="node4" class="node">
<title>Node4</title>
<g id="a_node4"><a xlink:href="peripheral_8hpp.html" target="_top" xlink:title="This file defines an interface for a memory&#45;mapped peripheral.">
<polygon fill="none" stroke="black" points="171.5,-112.5 171.5,-131.5 258.5,-131.5 258.5,-112.5 171.5,-112.5"/>
<text text-anchor="middle" x="215" y="-119.5" font-family="Helvetica,sans-Serif" font-size="10.00">peripheral.hpp</text>
</a>
</g>
</g>
<!-- Node1&#45;&gt;Node4 -->
<g id="edge3" class="edge">
<title>Node1&#45;&gt;Node4</title>
<path fill="none" stroke="midnightblue" d="M215,-168.4C215,-160.47 215,-150.46 215,-141.86"/>
<polygon fill="midnightblue" stroke="midnightblue" points="218.5,-141.66 215,-131.66 211.5,-141.66 218.5,-141.66"/>
</g>
<!-- Node5 -->
<g id="node5" class="node">
<title>Node5</title>
<g id="a_node5"><a xlink:href="context_8hpp.html" target="_top" xlink:title="This file defines the context (registers) of the CPU.">
<polygon fill="none" stroke="black" points="277,-112.5 277,-131.5 429,-131.5 429,-112.5 277,-112.5"/>
<text text-anchor="middle" x="353" y="-119.5" font-family="Helvetica,sans-Serif" font-size="10.00">../arm1176jzf_s/context.hpp</text>
</a>
</g>
</g>
<!-- Node1&#45;&gt;Node5 -->
<g id="edge4" class="edge">
<title>Node1&#45;&gt;Node5</title>
<path fill="none" stroke="midnightblue" d="M247.7,-168.4C270.75,-158.46 301.36,-145.26 323.63,-135.66"/>
<polygon fill="midnightblue" stroke="midnightblue" points="325.12,-138.83 332.92,-131.66 322.35,-132.4 325.12,-138.83"/>
</g>
<!-- Node6 -->
<g id="node6" class="node">
<title>Node6</title>
<g id="a_node6"><a xlink:href="logger_8hpp.html" target="_top" xlink:title=" ">
<polygon fill="none" stroke="black" points="338,-56.5 338,-75.5 472,-75.5 472,-56.5 338,-56.5"/>
<text text-anchor="middle" x="405" y="-63.5" font-family="Helvetica,sans-Serif" font-size="10.00">../utils/logger/logger.hpp</text>
</a>
</g>
</g>
<!-- Node1&#45;&gt;Node6 -->
<g id="edge12" class="edge">
<title>Node1&#45;&gt;Node6</title>
<path fill="none" stroke="midnightblue" d="M282.21,-176.41C340.6,-169.57 418.74,-156.11 438,-132 450.02,-116.96 436.1,-96.84 422.82,-82.99"/>
<polygon fill="midnightblue" stroke="midnightblue" points="424.89,-80.11 415.28,-75.64 420,-85.13 424.89,-80.11"/>
</g>
<!-- Node5&#45;&gt;Node6 -->
<g id="edge5" class="edge">
<title>Node5&#45;&gt;Node6</title>
<path fill="none" stroke="midnightblue" d="M361.59,-112.08C369.16,-104.22 380.38,-92.57 389.51,-83.08"/>
<polygon fill="midnightblue" stroke="midnightblue" points="392.16,-85.38 396.57,-75.75 387.12,-80.53 392.16,-85.38"/>
</g>
<!-- Node7 -->
<g id="node7" class="node">
<title>Node7</title>
<g id="a_node7"><a xlink:title=" ">
<polygon fill="none" stroke="#bfbfbf" points="208,-0.5 208,-19.5 256,-19.5 256,-0.5 208,-0.5"/>
<text text-anchor="middle" x="232" y="-7.5" font-family="Helvetica,sans-Serif" font-size="10.00">mutex</text>
</a>
</g>
</g>
<!-- Node6&#45;&gt;Node7 -->
<g id="edge6" class="edge">
<title>Node6&#45;&gt;Node7</title>
<path fill="none" stroke="midnightblue" d="M377.59,-56.44C347.28,-46.98 298.44,-31.74 265.79,-21.55"/>
<polygon fill="midnightblue" stroke="midnightblue" points="266.8,-18.2 256.21,-18.56 264.72,-24.88 266.8,-18.2"/>
</g>
<!-- Node8 -->
<g id="node8" class="node">
<title>Node8</title>
<g id="a_node8"><a xlink:title=" ">
<polygon fill="none" stroke="#bfbfbf" points="274.5,-0.5 274.5,-19.5 321.5,-19.5 321.5,-0.5 274.5,-0.5"/>
<text text-anchor="middle" x="298" y="-7.5" font-family="Helvetica,sans-Serif" font-size="10.00">vector</text>
</a>
</g>
</g>
<!-- Node6&#45;&gt;Node8 -->
<g id="edge7" class="edge">
<title>Node6&#45;&gt;Node8</title>
<path fill="none" stroke="midnightblue" d="M387.81,-56.32C370.65,-47.66 344.05,-34.24 324.25,-24.25"/>
<polygon fill="midnightblue" stroke="midnightblue" points="325.65,-21.04 315.15,-19.65 322.5,-27.28 325.65,-21.04"/>
</g>
<!-- Node9 -->
<g id="node9" class="node">
<title>Node9</title>
<g id="a_node9"><a xlink:title=" ">
<polygon fill="none" stroke="#bfbfbf" points="340,-0.5 340,-19.5 398,-19.5 398,-0.5 340,-0.5"/>
<text text-anchor="middle" x="369" y="-7.5" font-family="Helvetica,sans-Serif" font-size="10.00">memory</text>
</a>
</g>
</g>
<!-- Node6&#45;&gt;Node9 -->
<g id="edge8" class="edge">
<title>Node6&#45;&gt;Node9</title>
<path fill="none" stroke="midnightblue" d="M399.06,-56.08C394.02,-48.53 386.66,-37.49 380.49,-28.23"/>
<polygon fill="midnightblue" stroke="midnightblue" points="383.29,-26.13 374.83,-19.75 377.47,-30.01 383.29,-26.13"/>
</g>
<!-- Node10 -->
<g id="node10" class="node">
<title>Node10</title>
<g id="a_node10"><a xlink:title=" ">
<polygon fill="none" stroke="#bfbfbf" points="416,-0.5 416,-19.5 466,-19.5 466,-0.5 416,-0.5"/>
<text text-anchor="middle" x="441" y="-7.5" font-family="Helvetica,sans-Serif" font-size="10.00">cstdint</text>
</a>
</g>
</g>
<!-- Node6&#45;&gt;Node10 -->
<g id="edge9" class="edge">
<title>Node6&#45;&gt;Node10</title>
<path fill="none" stroke="midnightblue" d="M410.94,-56.08C415.98,-48.53 423.34,-37.49 429.51,-28.23"/>
<polygon fill="midnightblue" stroke="midnightblue" points="432.53,-30.01 435.17,-19.75 426.71,-26.13 432.53,-30.01"/>
</g>
<!-- Node11 -->
<g id="node11" class="node">
<title>Node11</title>
<g id="a_node11"><a xlink:title=" ">
<polygon fill="none" stroke="#bfbfbf" points="484.5,-0.5 484.5,-19.5 557.5,-19.5 557.5,-0.5 484.5,-0.5"/>
<text text-anchor="middle" x="521" y="-7.5" font-family="Helvetica,sans-Serif" font-size="10.00">string_view</text>
</a>
</g>
</g>
<!-- Node6&#45;&gt;Node11 -->
<g id="edge10" class="edge">
<title>Node6&#45;&gt;Node11</title>
<path fill="none" stroke="midnightblue" d="M423.38,-56.44C442.22,-47.68 471.73,-33.94 493.38,-23.86"/>
<polygon fill="midnightblue" stroke="midnightblue" points="495.12,-26.91 502.71,-19.52 492.16,-20.56 495.12,-26.91"/>
</g>
<!-- Node12 -->
<g id="node12" class="node">
<title>Node12</title>
<g id="a_node12"><a xlink:title=" ">
<polygon fill="none" stroke="#bfbfbf" points="575.5,-0.5 575.5,-19.5 668.5,-19.5 668.5,-0.5 575.5,-0.5"/>
<text text-anchor="middle" x="622" y="-7.5" font-family="Helvetica,sans-Serif" font-size="10.00">source_location</text>
</a>
</g>
</g>
<!-- Node6&#45;&gt;Node12 -->
<g id="edge11" class="edge">
<title>Node6&#45;&gt;Node12</title>
<path fill="none" stroke="midnightblue" d="M439.38,-56.44C476.92,-47.1 537.13,-32.12 578.07,-21.93"/>
<polygon fill="midnightblue" stroke="midnightblue" points="578.92,-25.33 587.78,-19.52 577.23,-18.53 578.92,-25.33"/>
</g>
</g>
</svg>
