<?xml version="1.0" encoding="UTF-8" standalone="no"?>
<!DOCTYPE svg PUBLIC "-//W3C//DTD SVG 1.1//EN"
 "http://www.w3.org/Graphics/SVG/1.1/DTD/svg11.dtd">
<!-- Generated by graphviz version 2.43.0 (0)
 -->
<!-- Title: src/core/peripherals/interrupt_controller.hpp Pages: 1 -->
<svg width="1967pt" height="307pt"
 viewBox="0.00 0.00 1966.50 307.00" xmlns="http://www.w3.org/2000/svg" xmlns:xlink="http://www.w3.org/1999/xlink">
<g id="graph0" class="graph" transform="scale(1 1) rotate(0) translate(4 303)">
<title>src/core/peripherals/interrupt_controller.hpp</title>
<!-- Node1 -->
<g id="node1" class="node">
<title>Node1</title>
<g id="a_node1"><a xlink:title="This file defines the interrupt controller used in BCM2835.">
<polygon fill="#bfbfbf" stroke="black" points="1399.5,-268.5 1399.5,-298.5 1533.5,-298.5 1533.5,-268.5 1399.5,-268.5"/>
<text text-anchor="start" x="1407.5" y="-286.5" font-family="Helvetica,sans-Serif" font-size="10.00">src/core/peripherals</text>
<text text-anchor="middle" x="1466.5" y="-275.5" font-family="Helvetica,sans-Serif" font-size="10.00">/interrupt_controller.hpp</text>
</a>
</g>
</g>
<!-- Node2 -->
<g id="node2" class="node">
<title>Node2</title>
<g id="a_node2"><a xlink:href="core_8hpp.html" target="_top" xlink:title="This file defines a class that represents a CPU core (arm1176jzf_s).">
<polygon fill="none" stroke="black" points="447,-134.5 447,-164.5 560,-164.5 560,-134.5 447,-134.5"/>
<text text-anchor="start" x="455" y="-152.5" font-family="Helvetica,sans-Serif" font-size="10.00">src/core/arm1176jzf</text>
<text text-anchor="middle" x="503.5" y="-141.5" font-family="Helvetica,sans-Serif" font-size="10.00">_s/core.hpp</text>
</a>
</g>
</g>
<!-- Node1&#45;&gt;Node2 -->
<g id="edge1" class="edge">
<title>Node1&#45;&gt;Node2</title>
<path fill="none" stroke="midnightblue" d="M1389.26,-272.94C1309.79,-263.03 1182.43,-246.92 1072.5,-232 884.86,-206.54 662.78,-174.05 560.4,-158.93"/>
<polygon fill="midnightblue" stroke="midnightblue" points="1388.83,-276.42 1399.18,-274.18 1389.69,-269.47 1388.83,-276.42"/>
</g>
<!-- Node4 -->
<g id="node4" class="node">
<title>Node4</title>
<g id="a_node4"><a xlink:href="soc_8hpp.html" target="_top" xlink:title=" ">
<polygon fill="none" stroke="black" points="1562,-73 1562,-92 1657,-92 1657,-73 1562,-73"/>
<text text-anchor="middle" x="1609.5" y="-80" font-family="Helvetica,sans-Serif" font-size="10.00">src/core/soc.hpp</text>
</a>
</g>
</g>
<!-- Node1&#45;&gt;Node4 -->
<g id="edge43" class="edge">
<title>Node1&#45;&gt;Node4</title>
<path fill="none" stroke="midnightblue" d="M1511.73,-263.96C1528.96,-255.66 1548.13,-244.83 1563.5,-232 1592.44,-207.85 1603.29,-200.66 1615.5,-165 1624.14,-139.77 1616.86,-107.64 1612.37,-92.36"/>
<polygon fill="midnightblue" stroke="midnightblue" points="1509.98,-260.91 1502.39,-268.31 1512.93,-267.26 1509.98,-260.91"/>
</g>
<!-- Node16 -->
<g id="node16" class="node">
<title>Node16</title>
<g id="a_node16"><a xlink:href="arm__timer_8hpp.html" target="_top" xlink:title="This file defines the ARM timer used in BCM2835.">
<polygon fill="none" stroke="black" points="1669,-134.5 1669,-164.5 1782,-164.5 1782,-134.5 1669,-134.5"/>
<text text-anchor="start" x="1677" y="-152.5" font-family="Helvetica,sans-Serif" font-size="10.00">src/core/peripherals</text>
<text text-anchor="middle" x="1725.5" y="-141.5" font-family="Helvetica,sans-Serif" font-size="10.00">/arm_timer.hpp</text>
</a>
</g>
</g>
<!-- Node1&#45;&gt;Node16 -->
<g id="edge19" class="edge">
<title>Node1&#45;&gt;Node16</title>
<path fill="none" stroke="midnightblue" d="M1543.43,-270.79C1577.36,-263.27 1616.67,-251.17 1648.5,-232 1677.68,-214.42 1702.95,-182.79 1716.02,-164.53"/>
<polygon fill="midnightblue" stroke="midnightblue" points="1542.61,-267.39 1533.55,-272.89 1544.06,-274.24 1542.61,-267.39"/>
</g>
<!-- Node20 -->
<g id="node20" class="node">
<title>Node20</title>
<g id="a_node20"><a xlink:href="auxiliary_8hpp.html" target="_top" xlink:title=" ">
<polygon fill="none" stroke="black" points="944.5,-134.5 944.5,-164.5 1072.5,-164.5 1072.5,-134.5 944.5,-134.5"/>
<text text-anchor="start" x="952.5" y="-152.5" font-family="Helvetica,sans-Serif" font-size="10.00">src/core/peripherals</text>
<text text-anchor="middle" x="1008.5" y="-141.5" font-family="Helvetica,sans-Serif" font-size="10.00">/auxiliary/auxiliary.hpp</text>
</a>
</g>
</g>
<!-- Node1&#45;&gt;Node20 -->
<g id="edge25" class="edge">
<title>Node1&#45;&gt;Node20</title>
<path fill="none" stroke="midnightblue" d="M1388.95,-280.04C1319.9,-275.7 1217.17,-263.89 1133.5,-232 1090.89,-215.76 1047.79,-183.33 1025.01,-164.65"/>
<polygon fill="midnightblue" stroke="midnightblue" points="1389.12,-283.56 1399.31,-280.65 1389.53,-276.57 1389.12,-283.56"/>
</g>
<!-- Node25 -->
<g id="node25" class="node">
<title>Node25</title>
<g id="a_node25"><a xlink:href="gpio_8hpp.html" target="_top" xlink:title="This file defines the GPIO controller used in BCM2835.">
<polygon fill="none" stroke="black" points="1143,-201.5 1143,-231.5 1256,-231.5 1256,-201.5 1143,-201.5"/>
<text text-anchor="start" x="1151" y="-219.5" font-family="Helvetica,sans-Serif" font-size="10.00">src/core/peripherals</text>
<text text-anchor="middle" x="1199.5" y="-208.5" font-family="Helvetica,sans-Serif" font-size="10.00">/gpio.hpp</text>
</a>
</g>
</g>
<!-- Node1&#45;&gt;Node25 -->
<g id="edge32" class="edge">
<title>Node1&#45;&gt;Node25</title>
<path fill="none" stroke="midnightblue" d="M1399.11,-266.09C1354.95,-255.34 1297.88,-241.45 1256.09,-231.28"/>
<polygon fill="midnightblue" stroke="midnightblue" points="1398.35,-269.51 1408.89,-268.48 1400.01,-262.71 1398.35,-269.51"/>
</g>
<!-- Node31 -->
<g id="node31" class="node">
<title>Node31</title>
<g id="a_node31"><a xlink:href="interrupt__controller_8cpp.html" target="_top" xlink:title="This file implements the interrupt controller used in BCM2835 (defined in interrupt_controller....">
<polygon fill="none" stroke="black" points="1701,-201.5 1701,-231.5 1834,-231.5 1834,-201.5 1701,-201.5"/>
<text text-anchor="start" x="1709" y="-219.5" font-family="Helvetica,sans-Serif" font-size="10.00">src/core/peripherals</text>
<text text-anchor="middle" x="1767.5" y="-208.5" font-family="Helvetica,sans-Serif" font-size="10.00">/interrupt_controller.cpp</text>
</a>
</g>
</g>
<!-- Node1&#45;&gt;Node31 -->
<g id="edge42" class="edge">
<title>Node1&#45;&gt;Node31</title>
<path fill="none" stroke="midnightblue" d="M1541.45,-266.32C1590.92,-255.63 1655.09,-241.77 1702.42,-231.55"/>
<polygon fill="midnightblue" stroke="midnightblue" points="1540.48,-262.94 1531.44,-268.48 1541.96,-269.79 1540.48,-262.94"/>
</g>
<!-- Node32 -->
<g id="node32" class="node">
<title>Node32</title>
<g id="a_node32"><a xlink:href="interrupt__controller__window_8hpp.html" target="_top" xlink:title="This file defines a window that visualizes the interrupt controller IC.">
<polygon fill="none" stroke="black" points="1378.5,-201.5 1378.5,-231.5 1554.5,-231.5 1554.5,-201.5 1378.5,-201.5"/>
<text text-anchor="start" x="1386.5" y="-219.5" font-family="Helvetica,sans-Serif" font-size="10.00">src/gui/windows/peripherals</text>
<text text-anchor="middle" x="1466.5" y="-208.5" font-family="Helvetica,sans-Serif" font-size="10.00">/interrupt_controller_window.hpp</text>
</a>
</g>
</g>
<!-- Node1&#45;&gt;Node32 -->
<g id="edge44" class="edge">
<title>Node1&#45;&gt;Node32</title>
<path fill="none" stroke="midnightblue" d="M1466.5,-258.11C1466.5,-249.15 1466.5,-239.32 1466.5,-231.58"/>
<polygon fill="midnightblue" stroke="midnightblue" points="1463,-258.4 1466.5,-268.4 1470,-258.4 1463,-258.4"/>
</g>
<!-- Node3 -->
<g id="node3" class="node">
<title>Node3</title>
<g id="a_node3"><a xlink:href="core_8cpp.html" target="_top" xlink:title="This file implements the CCPU_Core class defined in core.hpp.">
<polygon fill="none" stroke="black" points="0,-67.5 0,-97.5 113,-97.5 113,-67.5 0,-67.5"/>
<text text-anchor="start" x="8" y="-85.5" font-family="Helvetica,sans-Serif" font-size="10.00">src/core/arm1176jzf</text>
<text text-anchor="middle" x="56.5" y="-74.5" font-family="Helvetica,sans-Serif" font-size="10.00">_s/core.cpp</text>
</a>
</g>
</g>
<!-- Node2&#45;&gt;Node3 -->
<g id="edge2" class="edge">
<title>Node2&#45;&gt;Node3</title>
<path fill="none" stroke="midnightblue" d="M436.98,-141.5C360.55,-133.05 231.5,-117.5 121.5,-98 118.77,-97.52 115.98,-96.99 113.16,-96.45"/>
<polygon fill="midnightblue" stroke="midnightblue" points="436.63,-144.99 446.95,-142.6 437.39,-138.03 436.63,-144.99"/>
</g>
<!-- Node2&#45;&gt;Node4 -->
<g id="edge3" class="edge">
<title>Node2&#45;&gt;Node4</title>
<path fill="none" stroke="midnightblue" d="M570.35,-144.26C619.37,-141.22 687.56,-137.12 747.5,-134 1105.15,-115.38 1198.22,-150.42 1552.5,-98 1561.79,-96.62 1571.77,-94.37 1580.74,-92.04"/>
<polygon fill="midnightblue" stroke="midnightblue" points="569.95,-140.78 560.19,-144.9 570.38,-147.77 569.95,-140.78"/>
</g>
<!-- Node8 -->
<g id="node8" class="node">
<title>Node8</title>
<g id="a_node8"><a xlink:href="control__window_8hpp.html" target="_top" xlink:title="This file defines a window that allows the user to control CPU execution.">
<polygon fill="none" stroke="black" points="131,-67.5 131,-97.5 262,-97.5 262,-67.5 131,-67.5"/>
<text text-anchor="start" x="139" y="-85.5" font-family="Helvetica,sans-Serif" font-size="10.00">src/gui/windows/control</text>
<text text-anchor="middle" x="196.5" y="-74.5" font-family="Helvetica,sans-Serif" font-size="10.00">_window.hpp</text>
</a>
</g>
</g>
<!-- Node2&#45;&gt;Node8 -->
<g id="edge7" class="edge">
<title>Node2&#45;&gt;Node8</title>
<path fill="none" stroke="midnightblue" d="M436.75,-134.37C385,-123.41 313.64,-108.3 262.16,-97.4"/>
<polygon fill="midnightblue" stroke="midnightblue" points="436.33,-137.85 446.83,-136.5 437.78,-131.01 436.33,-137.85"/>
</g>
<!-- Node10 -->
<g id="node10" class="node">
<title>Node10</title>
<g id="a_node10"><a xlink:href="registers__window_8hpp.html" target="_top" xlink:title="This file defines a window that displays the contents of all CPU registers.">
<polygon fill="none" stroke="black" points="280.5,-67.5 280.5,-97.5 420.5,-97.5 420.5,-67.5 280.5,-67.5"/>
<text text-anchor="start" x="288.5" y="-85.5" font-family="Helvetica,sans-Serif" font-size="10.00">src/gui/windows/registers</text>
<text text-anchor="middle" x="350.5" y="-74.5" font-family="Helvetica,sans-Serif" font-size="10.00">_window.hpp</text>
</a>
</g>
</g>
<!-- Node2&#45;&gt;Node10 -->
<g id="edge10" class="edge">
<title>Node2&#45;&gt;Node10</title>
<path fill="none" stroke="midnightblue" d="M460.91,-130.41C436.48,-120.03 406.28,-107.2 383.63,-97.58"/>
<polygon fill="midnightblue" stroke="midnightblue" points="459.73,-133.71 470.3,-134.4 462.47,-127.26 459.73,-133.71"/>
</g>
<!-- Node12 -->
<g id="node12" class="node">
<title>Node12</title>
<g id="a_node12"><a xlink:href="source__code__window_8hpp.html" target="_top" xlink:title="This file defines a window that displays loaded ELF files (disassembled instructions of the source co...">
<polygon fill="none" stroke="black" points="438.5,-67.5 438.5,-97.5 568.5,-97.5 568.5,-67.5 438.5,-67.5"/>
<text text-anchor="start" x="446.5" y="-85.5" font-family="Helvetica,sans-Serif" font-size="10.00">src/gui/windows/source</text>
<text text-anchor="middle" x="503.5" y="-74.5" font-family="Helvetica,sans-Serif" font-size="10.00">_code_window.hpp</text>
</a>
</g>
</g>
<!-- Node2&#45;&gt;Node12 -->
<g id="edge13" class="edge">
<title>Node2&#45;&gt;Node12</title>
<path fill="none" stroke="midnightblue" d="M503.5,-124.11C503.5,-115.15 503.5,-105.32 503.5,-97.58"/>
<polygon fill="midnightblue" stroke="midnightblue" points="500,-124.4 503.5,-134.4 507,-124.4 500,-124.4"/>
</g>
<!-- Node14 -->
<g id="node14" class="node">
<title>Node14</title>
<g id="a_node14"><a xlink:href="top__bar__menu_8hpp.html" target="_top" xlink:title=" ">
<polygon fill="none" stroke="black" points="587,-67.5 587,-97.5 700,-97.5 700,-67.5 587,-67.5"/>
<text text-anchor="start" x="595" y="-85.5" font-family="Helvetica,sans-Serif" font-size="10.00">src/gui/windows/top</text>
<text text-anchor="middle" x="643.5" y="-74.5" font-family="Helvetica,sans-Serif" font-size="10.00">_bar_menu.hpp</text>
</a>
</g>
</g>
<!-- Node2&#45;&gt;Node14 -->
<g id="edge16" class="edge">
<title>Node2&#45;&gt;Node14</title>
<path fill="none" stroke="midnightblue" d="M543.07,-130.13C565.31,-119.8 592.65,-107.11 613.18,-97.58"/>
<polygon fill="midnightblue" stroke="midnightblue" points="541.47,-127.01 533.88,-134.4 544.42,-133.36 541.47,-127.01"/>
</g>
<!-- Node5 -->
<g id="node5" class="node">
<title>Node5</title>
<g id="a_node5"><a xlink:href="soc_8cpp.html" target="_top" xlink:title=" ">
<polygon fill="none" stroke="black" points="1509,-6 1509,-25 1604,-25 1604,-6 1509,-6"/>
<text text-anchor="middle" x="1556.5" y="-13" font-family="Helvetica,sans-Serif" font-size="10.00">src/core/soc.cpp</text>
</a>
</g>
</g>
<!-- Node4&#45;&gt;Node5 -->
<g id="edge4" class="edge">
<title>Node4&#45;&gt;Node5</title>
<path fill="none" stroke="midnightblue" d="M1595.86,-64.77C1585.53,-52.1 1571.75,-35.2 1563.53,-25.13"/>
<polygon fill="midnightblue" stroke="midnightblue" points="1593.32,-67.2 1602.35,-72.73 1598.75,-62.77 1593.32,-67.2"/>
</g>
<!-- Node6 -->
<g id="node6" class="node">
<title>Node6</title>
<g id="a_node6"><a xlink:href="gui_8cpp.html" target="_top" xlink:title="This file implements the main GUI entry function that takes care of creating and rendering all window...">
<polygon fill="none" stroke="black" points="718,-6 718,-25 805,-25 805,-6 718,-6"/>
<text text-anchor="middle" x="761.5" y="-13" font-family="Helvetica,sans-Serif" font-size="10.00">src/gui/gui.cpp</text>
</a>
</g>
</g>
<!-- Node4&#45;&gt;Node6 -->
<g id="edge5" class="edge">
<title>Node4&#45;&gt;Node6</title>
<path fill="none" stroke="midnightblue" d="M1570.54,-70.57C1564.54,-69.18 1558.38,-67.93 1552.5,-67 1270.11,-22.46 925.12,-16.95 805.11,-16.46"/>
<polygon fill="midnightblue" stroke="midnightblue" points="1569.88,-74.01 1580.43,-73 1571.55,-67.22 1569.88,-74.01"/>
</g>
<!-- Node7 -->
<g id="node7" class="node">
<title>Node7</title>
<g id="a_node7"><a xlink:href="main_8cpp.html" target="_top" xlink:title="This file defines and implements the main function of the application.">
<polygon fill="none" stroke="black" points="1622,-6 1622,-25 1701,-25 1701,-6 1622,-6"/>
<text text-anchor="middle" x="1661.5" y="-13" font-family="Helvetica,sans-Serif" font-size="10.00">src/main.cpp</text>
</a>
</g>
</g>
<!-- Node4&#45;&gt;Node7 -->
<g id="edge6" class="edge">
<title>Node4&#45;&gt;Node7</title>
<path fill="none" stroke="midnightblue" d="M1622.88,-64.77C1633.02,-52.1 1646.54,-35.2 1654.6,-25.13"/>
<polygon fill="midnightblue" stroke="midnightblue" points="1620.03,-62.74 1616.51,-72.73 1625.49,-67.11 1620.03,-62.74"/>
</g>
<!-- Node8&#45;&gt;Node6 -->
<g id="edge8" class="edge">
<title>Node8&#45;&gt;Node6</title>
<path fill="none" stroke="midnightblue" d="M272.23,-67.02C466.33,-41.26 519.77,-64.3 708.5,-31 716.96,-29.51 726.02,-27.27 734.21,-25"/>
<polygon fill="midnightblue" stroke="midnightblue" points="271.72,-63.55 262.28,-68.36 272.66,-70.49 271.72,-63.55"/>
</g>
<!-- Node9 -->
<g id="node9" class="node">
<title>Node9</title>
<g id="a_node9"><a xlink:href="control__window_8cpp.html" target="_top" xlink:title="This file implements a window that allows the user to control CPU execution.">
<polygon fill="none" stroke="black" points="131,-0.5 131,-30.5 262,-30.5 262,-0.5 131,-0.5"/>
<text text-anchor="start" x="139" y="-18.5" font-family="Helvetica,sans-Serif" font-size="10.00">src/gui/windows/control</text>
<text text-anchor="middle" x="196.5" y="-7.5" font-family="Helvetica,sans-Serif" font-size="10.00">_window.cpp</text>
</a>
</g>
</g>
<!-- Node8&#45;&gt;Node9 -->
<g id="edge9" class="edge">
<title>Node8&#45;&gt;Node9</title>
<path fill="none" stroke="midnightblue" d="M196.5,-57.11C196.5,-48.15 196.5,-38.32 196.5,-30.58"/>
<polygon fill="midnightblue" stroke="midnightblue" points="193,-57.4 196.5,-67.4 200,-57.4 193,-57.4"/>
</g>
<!-- Node10&#45;&gt;Node6 -->
<g id="edge11" class="edge">
<title>Node10&#45;&gt;Node6</title>
<path fill="none" stroke="midnightblue" d="M430.57,-66.9C554.76,-48.09 589.02,-54.93 708.5,-31 716.54,-29.39 725.16,-27.22 733.07,-25.06"/>
<polygon fill="midnightblue" stroke="midnightblue" points="430.03,-63.44 420.68,-68.42 431.09,-70.36 430.03,-63.44"/>
</g>
<!-- Node11 -->
<g id="node11" class="node">
<title>Node11</title>
<g id="a_node11"><a xlink:href="registers__window_8cpp.html" target="_top" xlink:title="This file implements a window that displays the contents of all CPU registers.">
<polygon fill="none" stroke="black" points="280.5,-0.5 280.5,-30.5 420.5,-30.5 420.5,-0.5 280.5,-0.5"/>
<text text-anchor="start" x="288.5" y="-18.5" font-family="Helvetica,sans-Serif" font-size="10.00">src/gui/windows/registers</text>
<text text-anchor="middle" x="350.5" y="-7.5" font-family="Helvetica,sans-Serif" font-size="10.00">_window.cpp</text>
</a>
</g>
</g>
<!-- Node10&#45;&gt;Node11 -->
<g id="edge12" class="edge">
<title>Node10&#45;&gt;Node11</title>
<path fill="none" stroke="midnightblue" d="M350.5,-57.11C350.5,-48.15 350.5,-38.32 350.5,-30.58"/>
<polygon fill="midnightblue" stroke="midnightblue" points="347,-57.4 350.5,-67.4 354,-57.4 347,-57.4"/>
</g>
<!-- Node12&#45;&gt;Node6 -->
<g id="edge14" class="edge">
<title>Node12&#45;&gt;Node6</title>
<path fill="none" stroke="midnightblue" d="M572.24,-65.03C612.1,-55.36 663.2,-42.77 708.5,-31 715.7,-29.13 723.43,-27.05 730.71,-25.07"/>
<polygon fill="midnightblue" stroke="midnightblue" points="571.26,-61.67 562.36,-67.42 572.91,-68.47 571.26,-61.67"/>
</g>
<!-- Node13 -->
<g id="node13" class="node">
<title>Node13</title>
<g id="a_node13"><a xlink:href="source__code__window_8cpp.html" target="_top" xlink:title="This file implements a window that displays loaded ELF files (disassembled instructions of the source...">
<polygon fill="none" stroke="black" points="438.5,-0.5 438.5,-30.5 568.5,-30.5 568.5,-0.5 438.5,-0.5"/>
<text text-anchor="start" x="446.5" y="-18.5" font-family="Helvetica,sans-Serif" font-size="10.00">src/gui/windows/source</text>
<text text-anchor="middle" x="503.5" y="-7.5" font-family="Helvetica,sans-Serif" font-size="10.00">_code_window.cpp</text>
</a>
</g>
</g>
<!-- Node12&#45;&gt;Node13 -->
<g id="edge15" class="edge">
<title>Node12&#45;&gt;Node13</title>
<path fill="none" stroke="midnightblue" d="M503.5,-57.11C503.5,-48.15 503.5,-38.32 503.5,-30.58"/>
<polygon fill="midnightblue" stroke="midnightblue" points="500,-57.4 503.5,-67.4 507,-57.4 500,-57.4"/>
</g>
<!-- Node14&#45;&gt;Node6 -->
<g id="edge17" class="edge">
<title>Node14&#45;&gt;Node6</title>
<path fill="none" stroke="midnightblue" d="M678.04,-62.47C700.57,-50.06 728.87,-34.47 746.06,-25.01"/>
<polygon fill="midnightblue" stroke="midnightblue" points="676.17,-59.51 669.1,-67.4 679.55,-65.64 676.17,-59.51"/>
</g>
<!-- Node15 -->
<g id="node15" class="node">
<title>Node15</title>
<g id="a_node15"><a xlink:href="top__bar__menu_8cpp.html" target="_top" xlink:title=" ">
<polygon fill="none" stroke="black" points="587,-0.5 587,-30.5 700,-30.5 700,-0.5 587,-0.5"/>
<text text-anchor="start" x="595" y="-18.5" font-family="Helvetica,sans-Serif" font-size="10.00">src/gui/windows/top</text>
<text text-anchor="middle" x="643.5" y="-7.5" font-family="Helvetica,sans-Serif" font-size="10.00">_bar_menu.cpp</text>
</a>
</g>
</g>
<!-- Node14&#45;&gt;Node15 -->
<g id="edge18" class="edge">
<title>Node14&#45;&gt;Node15</title>
<path fill="none" stroke="midnightblue" d="M643.5,-57.11C643.5,-48.15 643.5,-38.32 643.5,-30.58"/>
<polygon fill="midnightblue" stroke="midnightblue" points="640,-57.4 643.5,-67.4 647,-57.4 640,-57.4"/>
</g>
<!-- Node16&#45;&gt;Node4 -->
<g id="edge21" class="edge">
<title>Node16&#45;&gt;Node4</title>
<path fill="none" stroke="midnightblue" d="M1691.54,-129.47C1669.4,-117.06 1641.57,-101.47 1624.68,-92.01"/>
<polygon fill="midnightblue" stroke="midnightblue" points="1689.9,-132.56 1700.33,-134.4 1693.32,-126.45 1689.9,-132.56"/>
</g>
<!-- Node17 -->
<g id="node17" class="node">
<title>Node17</title>
<g id="a_node17"><a xlink:href="arm__timer_8cpp.html" target="_top" xlink:title="This file implements the ARM timer used in BCM2835 as defined in arm_timer.hpp.">
<polygon fill="none" stroke="black" points="1675,-67.5 1675,-97.5 1788,-97.5 1788,-67.5 1675,-67.5"/>
<text text-anchor="start" x="1683" y="-85.5" font-family="Helvetica,sans-Serif" font-size="10.00">src/core/peripherals</text>
<text text-anchor="middle" x="1731.5" y="-74.5" font-family="Helvetica,sans-Serif" font-size="10.00">/arm_timer.cpp</text>
</a>
</g>
</g>
<!-- Node16&#45;&gt;Node17 -->
<g id="edge20" class="edge">
<title>Node16&#45;&gt;Node17</title>
<path fill="none" stroke="midnightblue" d="M1727.72,-124.4C1728.56,-115.37 1729.48,-105.41 1730.2,-97.58"/>
<polygon fill="midnightblue" stroke="midnightblue" points="1724.24,-124.12 1726.8,-134.4 1731.21,-124.76 1724.24,-124.12"/>
</g>
<!-- Node18 -->
<g id="node18" class="node">
<title>Node18</title>
<g id="a_node18"><a xlink:href="arm__timer__window_8hpp.html" target="_top" xlink:title="This file defines a window that visualizes the contents of the ARM timer registers.">
<polygon fill="none" stroke="black" points="1806.5,-67.5 1806.5,-97.5 1958.5,-97.5 1958.5,-67.5 1806.5,-67.5"/>
<text text-anchor="start" x="1814.5" y="-85.5" font-family="Helvetica,sans-Serif" font-size="10.00">src/gui/windows/peripherals</text>
<text text-anchor="middle" x="1882.5" y="-74.5" font-family="Helvetica,sans-Serif" font-size="10.00">/arm_timer_window.hpp</text>
</a>
</g>
</g>
<!-- Node16&#45;&gt;Node18 -->
<g id="edge22" class="edge">
<title>Node16&#45;&gt;Node18</title>
<path fill="none" stroke="midnightblue" d="M1768.87,-130.54C1793.99,-120.14 1825.16,-107.24 1848.5,-97.58"/>
<polygon fill="midnightblue" stroke="midnightblue" points="1767.47,-127.34 1759.57,-134.4 1770.14,-133.8 1767.47,-127.34"/>
</g>
<!-- Node18&#45;&gt;Node6 -->
<g id="edge23" class="edge">
<title>Node18&#45;&gt;Node6</title>
<path fill="none" stroke="midnightblue" d="M1796.15,-67.09C1580.27,-44.99 973.41,-23.6 805.18,-17.94"/>
<polygon fill="midnightblue" stroke="midnightblue" points="1795.82,-70.57 1806.13,-68.14 1796.55,-63.61 1795.82,-70.57"/>
</g>
<!-- Node19 -->
<g id="node19" class="node">
<title>Node19</title>
<g id="a_node19"><a xlink:href="arm__timer__window_8cpp.html" target="_top" xlink:title="This file implements a window that visualizes the contents of the ARM timer registers.">
<polygon fill="none" stroke="black" points="1806.5,-0.5 1806.5,-30.5 1958.5,-30.5 1958.5,-0.5 1806.5,-0.5"/>
<text text-anchor="start" x="1814.5" y="-18.5" font-family="Helvetica,sans-Serif" font-size="10.00">src/gui/windows/peripherals</text>
<text text-anchor="middle" x="1882.5" y="-7.5" font-family="Helvetica,sans-Serif" font-size="10.00">/arm_timer_window.cpp</text>
</a>
</g>
</g>
<!-- Node18&#45;&gt;Node19 -->
<g id="edge24" class="edge">
<title>Node18&#45;&gt;Node19</title>
<path fill="none" stroke="midnightblue" d="M1882.5,-57.11C1882.5,-48.15 1882.5,-38.32 1882.5,-30.58"/>
<polygon fill="midnightblue" stroke="midnightblue" points="1879,-57.4 1882.5,-67.4 1886,-57.4 1879,-57.4"/>
</g>
<!-- Node20&#45;&gt;Node4 -->
<g id="edge28" class="edge">
<title>Node20&#45;&gt;Node4</title>
<path fill="none" stroke="midnightblue" d="M1082.58,-133.98C1291.28,-106.31 1348.57,-131.47 1552.5,-98 1561.57,-96.51 1571.31,-94.28 1580.12,-92.01"/>
<polygon fill="midnightblue" stroke="midnightblue" points="1081.96,-130.53 1072.52,-135.33 1082.9,-137.46 1081.96,-130.53"/>
</g>
<!-- Node21 -->
<g id="node21" class="node">
<title>Node21</title>
<g id="a_node21"><a xlink:href="auxiliary_8cpp.html" target="_top" xlink:title=" ">
<polygon fill="none" stroke="black" points="927,-67.5 927,-97.5 1054,-97.5 1054,-67.5 927,-67.5"/>
<text text-anchor="start" x="935" y="-85.5" font-family="Helvetica,sans-Serif" font-size="10.00">src/core/peripherals</text>
<text text-anchor="middle" x="990.5" y="-74.5" font-family="Helvetica,sans-Serif" font-size="10.00">/auxiliary/auxiliary.cpp</text>
</a>
</g>
</g>
<!-- Node20&#45;&gt;Node21 -->
<g id="edge26" class="edge">
<title>Node20&#45;&gt;Node21</title>
<path fill="none" stroke="midnightblue" d="M1001.91,-124.7C999.39,-115.59 996.59,-105.49 994.4,-97.58"/>
<polygon fill="midnightblue" stroke="midnightblue" points="998.55,-125.69 1004.59,-134.4 1005.3,-123.82 998.55,-125.69"/>
</g>
<!-- Node22 -->
<g id="node22" class="node">
<title>Node22</title>
<g id="a_node22"><a xlink:href="mini__uart_8cpp.html" target="_top" xlink:title="This file implements the Mini UART auxiliary peripheral used in BCM2835.">
<polygon fill="none" stroke="black" points="1072.5,-67.5 1072.5,-97.5 1204.5,-97.5 1204.5,-67.5 1072.5,-67.5"/>
<text text-anchor="start" x="1080.5" y="-85.5" font-family="Helvetica,sans-Serif" font-size="10.00">src/core/peripherals</text>
<text text-anchor="middle" x="1138.5" y="-74.5" font-family="Helvetica,sans-Serif" font-size="10.00">/auxiliary/mini_uart.cpp</text>
</a>
</g>
</g>
<!-- Node20&#45;&gt;Node22 -->
<g id="edge27" class="edge">
<title>Node20&#45;&gt;Node22</title>
<path fill="none" stroke="midnightblue" d="M1045.79,-129.85C1066.35,-119.58 1091.45,-107.03 1110.35,-97.58"/>
<polygon fill="midnightblue" stroke="midnightblue" points="1044.09,-126.79 1036.71,-134.4 1047.22,-133.05 1044.09,-126.79"/>
</g>
<!-- Node23 -->
<g id="node23" class="node">
<title>Node23</title>
<g id="a_node23"><a xlink:href="aux__window_8hpp.html" target="_top" xlink:title="This file defines a window that visualizes the auxiliaries (UART1 &amp; SPI1, and SPI2) used in BCM2835.">
<polygon fill="none" stroke="black" points="1260.5,-67.5 1260.5,-97.5 1412.5,-97.5 1412.5,-67.5 1260.5,-67.5"/>
<text text-anchor="start" x="1268.5" y="-85.5" font-family="Helvetica,sans-Serif" font-size="10.00">src/gui/windows/peripherals</text>
<text text-anchor="middle" x="1336.5" y="-74.5" font-family="Helvetica,sans-Serif" font-size="10.00">/aux_window.hpp</text>
</a>
</g>
</g>
<!-- Node20&#45;&gt;Node23 -->
<g id="edge29" class="edge">
<title>Node20&#45;&gt;Node23</title>
<path fill="none" stroke="midnightblue" d="M1082.59,-133.78C1150.29,-120.36 1216.83,-107.18 1265.6,-97.53"/>
<polygon fill="midnightblue" stroke="midnightblue" points="1081.72,-130.39 1072.59,-135.77 1083.08,-137.25 1081.72,-130.39"/>
</g>
<!-- Node23&#45;&gt;Node6 -->
<g id="edge30" class="edge">
<title>Node23&#45;&gt;Node6</title>
<path fill="none" stroke="midnightblue" d="M1250.37,-67.52C1249.07,-67.34 1247.78,-67.17 1246.5,-67 1084.11,-45.48 890.12,-27.64 805.07,-20.21"/>
<polygon fill="midnightblue" stroke="midnightblue" points="1250.05,-71.01 1260.44,-68.94 1251.02,-64.08 1250.05,-71.01"/>
</g>
<!-- Node24 -->
<g id="node24" class="node">
<title>Node24</title>
<g id="a_node24"><a xlink:href="aux__window_8cpp.html" target="_top" xlink:title="This file implements a window that visualizes the auxiliaries (UART1 &amp; SPI1, and SPI2) used in BCM283...">
<polygon fill="none" stroke="black" points="1260.5,-0.5 1260.5,-30.5 1412.5,-30.5 1412.5,-0.5 1260.5,-0.5"/>
<text text-anchor="start" x="1268.5" y="-18.5" font-family="Helvetica,sans-Serif" font-size="10.00">src/gui/windows/peripherals</text>
<text text-anchor="middle" x="1336.5" y="-7.5" font-family="Helvetica,sans-Serif" font-size="10.00">/aux_window.cpp</text>
</a>
</g>
</g>
<!-- Node23&#45;&gt;Node24 -->
<g id="edge31" class="edge">
<title>Node23&#45;&gt;Node24</title>
<path fill="none" stroke="midnightblue" d="M1336.5,-57.11C1336.5,-48.15 1336.5,-38.32 1336.5,-30.58"/>
<polygon fill="midnightblue" stroke="midnightblue" points="1333,-57.4 1336.5,-67.4 1340,-57.4 1333,-57.4"/>
</g>
<!-- Node25&#45;&gt;Node4 -->
<g id="edge38" class="edge">
<title>Node25&#45;&gt;Node4</title>
<path fill="none" stroke="midnightblue" d="M1265.96,-203.9C1301.78,-196.01 1345.98,-183.57 1382.5,-165 1402.24,-154.96 1401.73,-143.97 1421.5,-134 1428.5,-130.47 1524.07,-105.54 1576.17,-92.08"/>
<polygon fill="midnightblue" stroke="midnightblue" points="1265.15,-200.5 1256.1,-206.01 1266.61,-207.34 1265.15,-200.5"/>
</g>
<!-- Node25&#45;&gt;Node20 -->
<g id="edge33" class="edge">
<title>Node25&#45;&gt;Node20</title>
<path fill="none" stroke="midnightblue" d="M1148.35,-198.09C1117.51,-187.6 1078.75,-174.41 1049.86,-164.58"/>
<polygon fill="midnightblue" stroke="midnightblue" points="1147.46,-201.49 1158.06,-201.4 1149.72,-194.86 1147.46,-201.49"/>
</g>
<!-- Node26 -->
<g id="node26" class="node">
<title>Node26</title>
<g id="a_node26"><a xlink:href="bsc_8hpp.html" target="_top" xlink:title="This file defines the BSC peripheral used in BCM2835.">
<polygon fill="none" stroke="black" points="1261,-134.5 1261,-164.5 1374,-164.5 1374,-134.5 1261,-134.5"/>
<text text-anchor="start" x="1269" y="-152.5" font-family="Helvetica,sans-Serif" font-size="10.00">src/core/peripherals</text>
<text text-anchor="middle" x="1317.5" y="-141.5" font-family="Helvetica,sans-Serif" font-size="10.00">/bsc.hpp</text>
</a>
</g>
</g>
<!-- Node25&#45;&gt;Node26 -->
<g id="edge34" class="edge">
<title>Node25&#45;&gt;Node26</title>
<path fill="none" stroke="midnightblue" d="M1234.11,-196.44C1252.62,-186.24 1275.02,-173.9 1291.95,-164.58"/>
<polygon fill="midnightblue" stroke="midnightblue" points="1232.17,-193.51 1225.1,-201.4 1235.55,-199.64 1232.17,-193.51"/>
</g>
<!-- Node28 -->
<g id="node28" class="node">
<title>Node28</title>
<g id="a_node28"><a xlink:href="gpio_8cpp.html" target="_top" xlink:title="This file implements the GPIO controller used in BCM2835 (defined in gpio.hpp).">
<polygon fill="none" stroke="black" points="1091,-134.5 1091,-164.5 1204,-164.5 1204,-134.5 1091,-134.5"/>
<text text-anchor="start" x="1099" y="-152.5" font-family="Helvetica,sans-Serif" font-size="10.00">src/core/peripherals</text>
<text text-anchor="middle" x="1147.5" y="-141.5" font-family="Helvetica,sans-Serif" font-size="10.00">/gpio.cpp</text>
</a>
</g>
</g>
<!-- Node25&#45;&gt;Node28 -->
<g id="edge37" class="edge">
<title>Node25&#45;&gt;Node28</title>
<path fill="none" stroke="midnightblue" d="M1181.86,-193.45C1174.22,-183.9 1165.5,-173 1158.76,-164.58"/>
<polygon fill="midnightblue" stroke="midnightblue" points="1179.24,-195.77 1188.22,-201.4 1184.7,-191.4 1179.24,-195.77"/>
</g>
<!-- Node29 -->
<g id="node29" class="node">
<title>Node29</title>
<g id="a_node29"><a xlink:href="gpio__window_8hpp.html" target="_top" xlink:title="This file defines a window that visualizes the states and information about GPIO pins.">
<polygon fill="none" stroke="black" points="756.5,-134.5 756.5,-164.5 908.5,-164.5 908.5,-134.5 756.5,-134.5"/>
<text text-anchor="start" x="764.5" y="-152.5" font-family="Helvetica,sans-Serif" font-size="10.00">src/gui/windows/peripherals</text>
<text text-anchor="middle" x="832.5" y="-141.5" font-family="Helvetica,sans-Serif" font-size="10.00">/gpio_window.hpp</text>
</a>
</g>
</g>
<!-- Node25&#45;&gt;Node29 -->
<g id="edge39" class="edge">
<title>Node25&#45;&gt;Node29</title>
<path fill="none" stroke="midnightblue" d="M1133.1,-203.74C1069.87,-192.54 974.8,-175.7 908.56,-163.97"/>
<polygon fill="midnightblue" stroke="midnightblue" points="1132.5,-207.19 1142.96,-205.49 1133.72,-200.3 1132.5,-207.19"/>
</g>
<!-- Node26&#45;&gt;Node4 -->
<g id="edge36" class="edge">
<title>Node26&#45;&gt;Node4</title>
<path fill="none" stroke="midnightblue" d="M1384.22,-134.86C1431.34,-125.05 1495.91,-111.27 1552.5,-98 1560.35,-96.16 1568.79,-94.07 1576.7,-92.07"/>
<polygon fill="midnightblue" stroke="midnightblue" points="1383.22,-131.49 1374.14,-136.95 1384.64,-138.34 1383.22,-131.49"/>
</g>
<!-- Node27 -->
<g id="node27" class="node">
<title>Node27</title>
<g id="a_node27"><a xlink:href="bsc_8cpp.html" target="_top" xlink:title="This file implements the BSC peripheral used in BCM2835.">
<polygon fill="none" stroke="black" points="1431,-67.5 1431,-97.5 1544,-97.5 1544,-67.5 1431,-67.5"/>
<text text-anchor="start" x="1439" y="-85.5" font-family="Helvetica,sans-Serif" font-size="10.00">src/core/peripherals</text>
<text text-anchor="middle" x="1487.5" y="-74.5" font-family="Helvetica,sans-Serif" font-size="10.00">/bsc.cpp</text>
</a>
</g>
</g>
<!-- Node26&#45;&gt;Node27 -->
<g id="edge35" class="edge">
<title>Node26&#45;&gt;Node27</title>
<path fill="none" stroke="midnightblue" d="M1363.74,-130.82C1391.07,-120.37 1425.19,-107.32 1450.68,-97.58"/>
<polygon fill="midnightblue" stroke="midnightblue" points="1362.48,-127.56 1354.39,-134.4 1364.98,-134.09 1362.48,-127.56"/>
</g>
<!-- Node29&#45;&gt;Node6 -->
<g id="edge40" class="edge">
<title>Node29&#45;&gt;Node6</title>
<path fill="none" stroke="midnightblue" d="M782.1,-129.75C768.45,-122.08 755.3,-111.71 747.5,-98 734.01,-74.29 748.26,-40.88 756.5,-25.23"/>
<polygon fill="midnightblue" stroke="midnightblue" points="780.61,-132.91 791.1,-134.4 783.83,-126.7 780.61,-132.91"/>
</g>
<!-- Node30 -->
<g id="node30" class="node">
<title>Node30</title>
<g id="a_node30"><a xlink:href="gpio__window_8cpp.html" target="_top" xlink:title="This file implements a window that visualizes the states and information about GPIO pins.">
<polygon fill="none" stroke="black" points="756.5,-67.5 756.5,-97.5 908.5,-97.5 908.5,-67.5 756.5,-67.5"/>
<text text-anchor="start" x="764.5" y="-85.5" font-family="Helvetica,sans-Serif" font-size="10.00">src/gui/windows/peripherals</text>
<text text-anchor="middle" x="832.5" y="-74.5" font-family="Helvetica,sans-Serif" font-size="10.00">/gpio_window.cpp</text>
</a>
</g>
</g>
<!-- Node29&#45;&gt;Node30 -->
<g id="edge41" class="edge">
<title>Node29&#45;&gt;Node30</title>
<path fill="none" stroke="midnightblue" d="M832.5,-124.11C832.5,-115.15 832.5,-105.32 832.5,-97.58"/>
<polygon fill="midnightblue" stroke="midnightblue" points="829,-124.4 832.5,-134.4 836,-124.4 829,-124.4"/>
</g>
<!-- Node32&#45;&gt;Node6 -->
<g id="edge45" class="edge">
<title>Node32&#45;&gt;Node6</title>
<path fill="none" stroke="midnightblue" d="M1368.19,-201.5C1320.39,-192.92 1269.43,-180.59 1251.5,-165 1216.25,-134.34 1250.52,-95.5 1213.5,-67 1150.38,-18.41 906.02,-15.04 805.29,-15.8"/>
<polygon fill="midnightblue" stroke="midnightblue" points="1367.88,-204.99 1378.33,-203.27 1369.09,-198.1 1367.88,-204.99"/>
</g>
<!-- Node33 -->
<g id="node33" class="node">
<title>Node33</title>
<g id="a_node33"><a xlink:href="interrupt__controller__window_8cpp.html" target="_top" xlink:title="This file implements a window that visualizes the interrupt controller IC.">
<polygon fill="none" stroke="black" points="1430.5,-134.5 1430.5,-164.5 1606.5,-164.5 1606.5,-134.5 1430.5,-134.5"/>
<text text-anchor="start" x="1438.5" y="-152.5" font-family="Helvetica,sans-Serif" font-size="10.00">src/gui/windows/peripherals</text>
<text text-anchor="middle" x="1518.5" y="-141.5" font-family="Helvetica,sans-Serif" font-size="10.00">/interrupt_controller_window.cpp</text>
</a>
</g>
</g>
<!-- Node32&#45;&gt;Node33 -->
<g id="edge46" class="edge">
<title>Node32&#45;&gt;Node33</title>
<path fill="none" stroke="midnightblue" d="M1484.14,-193.45C1491.78,-183.9 1500.5,-173 1507.24,-164.58"/>
<polygon fill="midnightblue" stroke="midnightblue" points="1481.3,-191.4 1477.78,-201.4 1486.76,-195.77 1481.3,-191.4"/>
</g>
</g>
</svg>
