<?xml version="1.0" encoding="UTF-8" standalone="no"?>
<!DOCTYPE svg PUBLIC "-//W3C//DTD SVG 1.1//EN"
 "http://www.w3.org/Graphics/SVG/1.1/DTD/svg11.dtd">
<!-- Generated by graphviz version 2.43.0 (0)
 -->
<!-- Title: src/core/peripherals/interrupt_controller.cpp Pages: 1 -->
<svg width="808pt" height="263pt"
 viewBox="0.00 0.00 807.50 263.00" xmlns="http://www.w3.org/2000/svg" xmlns:xlink="http://www.w3.org/1999/xlink">
<g id="graph0" class="graph" transform="scale(1 1) rotate(0) translate(4 259)">
<title>src/core/peripherals/interrupt_controller.cpp</title>
<!-- Node1 -->
<g id="node1" class="node">
<title>Node1</title>
<g id="a_node1"><a xlink:title=" ">
<polygon fill="#bfbfbf" stroke="black" points="230.5,-224.5 230.5,-254.5 363.5,-254.5 363.5,-224.5 230.5,-224.5"/>
<text text-anchor="start" x="238.5" y="-242.5" font-family="Helvetica,sans-Serif" font-size="10.00">src/core/peripherals</text>
<text text-anchor="middle" x="297" y="-231.5" font-family="Helvetica,sans-Serif" font-size="10.00">/interrupt_controller.cpp</text>
</a>
</g>
</g>
<!-- Node2 -->
<g id="node2" class="node">
<title>Node2</title>
<g id="a_node2"><a xlink:title=" ">
<polygon fill="none" stroke="#bfbfbf" points="0,-168.5 0,-187.5 64,-187.5 64,-168.5 0,-168.5"/>
<text text-anchor="middle" x="32" y="-175.5" font-family="Helvetica,sans-Serif" font-size="10.00">algorithm</text>
</a>
</g>
</g>
<!-- Node1&#45;&gt;Node2 -->
<g id="edge1" class="edge">
<title>Node1&#45;&gt;Node2</title>
<path fill="none" stroke="midnightblue" d="M234.53,-224.47C185.09,-213.37 117.4,-198.17 74.18,-188.47"/>
<polygon fill="midnightblue" stroke="midnightblue" points="74.8,-185.02 64.27,-186.25 73.26,-191.85 74.8,-185.02"/>
</g>
<!-- Node3 -->
<g id="node3" class="node">
<title>Node3</title>
<g id="a_node3"><a xlink:title=" ">
<polygon fill="none" stroke="#bfbfbf" points="82.5,-168.5 82.5,-187.5 161.5,-187.5 161.5,-168.5 82.5,-168.5"/>
<text text-anchor="middle" x="122" y="-175.5" font-family="Helvetica,sans-Serif" font-size="10.00">fmt/format.h</text>
</a>
</g>
</g>
<!-- Node1&#45;&gt;Node3 -->
<g id="edge2" class="edge">
<title>Node1&#45;&gt;Node3</title>
<path fill="none" stroke="midnightblue" d="M255.53,-224.4C225.42,-214.16 185.15,-200.47 156.73,-190.81"/>
<polygon fill="midnightblue" stroke="midnightblue" points="157.8,-187.48 147.21,-187.57 155.55,-194.1 157.8,-187.48"/>
</g>
<!-- Node4 -->
<g id="node4" class="node">
<title>Node4</title>
<g id="a_node4"><a xlink:title=" ">
<polygon fill="none" stroke="#bfbfbf" points="179.5,-168.5 179.5,-187.5 280.5,-187.5 280.5,-168.5 179.5,-168.5"/>
<text text-anchor="middle" x="230" y="-175.5" font-family="Helvetica,sans-Serif" font-size="10.00">magic_enum.hpp</text>
</a>
</g>
</g>
<!-- Node1&#45;&gt;Node4 -->
<g id="edge3" class="edge">
<title>Node1&#45;&gt;Node4</title>
<path fill="none" stroke="midnightblue" d="M281.12,-224.4C270.98,-215.4 257.84,-203.72 247.41,-194.47"/>
<polygon fill="midnightblue" stroke="midnightblue" points="249.55,-191.68 239.75,-187.66 244.9,-196.92 249.55,-191.68"/>
</g>
<!-- Node5 -->
<g id="node5" class="node">
<title>Node5</title>
<g id="a_node5"><a xlink:href="interrupt__controller_8hpp.html" target="_top" xlink:title=" ">
<polygon fill="none" stroke="black" points="298.5,-168.5 298.5,-187.5 429.5,-187.5 429.5,-168.5 298.5,-168.5"/>
<text text-anchor="middle" x="364" y="-175.5" font-family="Helvetica,sans-Serif" font-size="10.00">interrupt_controller.hpp</text>
</a>
</g>
</g>
<!-- Node1&#45;&gt;Node5 -->
<g id="edge4" class="edge">
<title>Node1&#45;&gt;Node5</title>
<path fill="none" stroke="midnightblue" d="M312.88,-224.4C323.02,-215.4 336.16,-203.72 346.59,-194.47"/>
<polygon fill="midnightblue" stroke="midnightblue" points="349.1,-196.92 354.25,-187.66 344.45,-191.68 349.1,-196.92"/>
</g>
<!-- Node17 -->
<g id="node17" class="node">
<title>Node17</title>
<g id="a_node17"><a xlink:href="math_8hpp.html" target="_top" xlink:title="This file defines and implements a variety of handy helper functions that are used throughout the pro...">
<polygon fill="none" stroke="black" points="448,-168.5 448,-187.5 544,-187.5 544,-168.5 448,-168.5"/>
<text text-anchor="middle" x="496" y="-175.5" font-family="Helvetica,sans-Serif" font-size="10.00">../utils/math.hpp</text>
</a>
</g>
</g>
<!-- Node1&#45;&gt;Node17 -->
<g id="edge18" class="edge">
<title>Node1&#45;&gt;Node17</title>
<path fill="none" stroke="midnightblue" d="M343.91,-224.47C378.69,-214.08 425.5,-200.08 457.97,-190.37"/>
<polygon fill="midnightblue" stroke="midnightblue" points="458.97,-193.72 467.55,-187.51 456.97,-187.02 458.97,-193.72"/>
</g>
<!-- Node18 -->
<g id="node18" class="node">
<title>Node18</title>
<g id="a_node18"><a xlink:href="singleton_8hpp.html" target="_top" xlink:title="This file defines and implements a generic class that is used to treat other classes as singletons.">
<polygon fill="none" stroke="black" points="562,-168.5 562,-187.5 678,-187.5 678,-168.5 562,-168.5"/>
<text text-anchor="middle" x="620" y="-175.5" font-family="Helvetica,sans-Serif" font-size="10.00">../utils/singleton.hpp</text>
</a>
</g>
</g>
<!-- Node1&#45;&gt;Node18 -->
<g id="edge19" class="edge">
<title>Node1&#45;&gt;Node18</title>
<path fill="none" stroke="midnightblue" d="M363.53,-226.24C422.47,-215.39 507.58,-199.71 563.33,-189.44"/>
<polygon fill="midnightblue" stroke="midnightblue" points="564.19,-192.84 573.39,-187.59 562.92,-185.96 564.19,-192.84"/>
</g>
<!-- Node6 -->
<g id="node6" class="node">
<title>Node6</title>
<g id="a_node6"><a xlink:title=" ">
<polygon fill="none" stroke="#bfbfbf" points="182,-112.5 182,-131.5 224,-131.5 224,-112.5 182,-112.5"/>
<text text-anchor="middle" x="203" y="-119.5" font-family="Helvetica,sans-Serif" font-size="10.00">array</text>
</a>
</g>
</g>
<!-- Node5&#45;&gt;Node6 -->
<g id="edge5" class="edge">
<title>Node5&#45;&gt;Node6</title>
<path fill="none" stroke="midnightblue" d="M338.49,-168.44C310.13,-158.93 264.33,-143.57 233.94,-133.38"/>
<polygon fill="midnightblue" stroke="midnightblue" points="234.87,-130 224.28,-130.14 232.65,-136.64 234.87,-130"/>
</g>
<!-- Node7 -->
<g id="node7" class="node">
<title>Node7</title>
<g id="a_node7"><a xlink:title=" ">
<polygon fill="none" stroke="#bfbfbf" points="242.5,-112.5 242.5,-131.5 335.5,-131.5 335.5,-112.5 242.5,-112.5"/>
<text text-anchor="middle" x="289" y="-119.5" font-family="Helvetica,sans-Serif" font-size="10.00">unordered_map</text>
</a>
</g>
</g>
<!-- Node5&#45;&gt;Node7 -->
<g id="edge6" class="edge">
<title>Node5&#45;&gt;Node7</title>
<path fill="none" stroke="midnightblue" d="M351.95,-168.32C340.54,-160.11 323.17,-147.6 309.57,-137.81"/>
<polygon fill="midnightblue" stroke="midnightblue" points="311.43,-134.84 301.27,-131.83 307.34,-140.52 311.43,-134.84"/>
</g>
<!-- Node8 -->
<g id="node8" class="node">
<title>Node8</title>
<g id="a_node8"><a xlink:href="peripheral_8hpp.html" target="_top" xlink:title=" ">
<polygon fill="none" stroke="black" points="320.5,-56.5 320.5,-75.5 407.5,-75.5 407.5,-56.5 320.5,-56.5"/>
<text text-anchor="middle" x="364" y="-63.5" font-family="Helvetica,sans-Serif" font-size="10.00">peripheral.hpp</text>
</a>
</g>
</g>
<!-- Node5&#45;&gt;Node8 -->
<g id="edge7" class="edge">
<title>Node5&#45;&gt;Node8</title>
<path fill="none" stroke="midnightblue" d="M364,-168.37C364,-150.62 364,-109.67 364,-85.6"/>
<polygon fill="midnightblue" stroke="midnightblue" points="367.5,-85.59 364,-75.59 360.5,-85.59 367.5,-85.59"/>
</g>
<!-- Node10 -->
<g id="node10" class="node">
<title>Node10</title>
<g id="a_node10"><a xlink:href="context_8hpp.html" target="_top" xlink:title="This file defines the context (registers) of the CPU.">
<polygon fill="none" stroke="black" points="392,-112.5 392,-131.5 544,-131.5 544,-112.5 392,-112.5"/>
<text text-anchor="middle" x="468" y="-119.5" font-family="Helvetica,sans-Serif" font-size="10.00">../arm1176jzf_s/context.hpp</text>
</a>
</g>
</g>
<!-- Node5&#45;&gt;Node10 -->
<g id="edge9" class="edge">
<title>Node5&#45;&gt;Node10</title>
<path fill="none" stroke="midnightblue" d="M380.71,-168.32C397.31,-159.7 423,-146.36 442.22,-136.39"/>
<polygon fill="midnightblue" stroke="midnightblue" points="444.07,-139.37 451.33,-131.65 440.84,-133.16 444.07,-139.37"/>
</g>
<!-- Node11 -->
<g id="node11" class="node">
<title>Node11</title>
<g id="a_node11"><a xlink:href="logger_8hpp.html" target="_top" xlink:title=" ">
<polygon fill="none" stroke="black" points="465,-56.5 465,-75.5 599,-75.5 599,-56.5 465,-56.5"/>
<text text-anchor="middle" x="532" y="-63.5" font-family="Helvetica,sans-Serif" font-size="10.00">../utils/logger/logger.hpp</text>
</a>
</g>
</g>
<!-- Node5&#45;&gt;Node11 -->
<g id="edge17" class="edge">
<title>Node5&#45;&gt;Node11</title>
<path fill="none" stroke="midnightblue" d="M413.48,-168.47C466.5,-158.83 544.27,-143.05 553,-132 563.97,-118.11 555.01,-98.31 545.62,-84.22"/>
<polygon fill="midnightblue" stroke="midnightblue" points="548.3,-81.96 539.6,-75.91 542.63,-86.06 548.3,-81.96"/>
</g>
<!-- Node9 -->
<g id="node9" class="node">
<title>Node9</title>
<g id="a_node9"><a xlink:title=" ">
<polygon fill="none" stroke="#bfbfbf" points="339,-0.5 339,-19.5 389,-19.5 389,-0.5 339,-0.5"/>
<text text-anchor="middle" x="364" y="-7.5" font-family="Helvetica,sans-Serif" font-size="10.00">cstdint</text>
</a>
</g>
</g>
<!-- Node8&#45;&gt;Node9 -->
<g id="edge8" class="edge">
<title>Node8&#45;&gt;Node9</title>
<path fill="none" stroke="midnightblue" d="M364,-56.08C364,-49.01 364,-38.86 364,-29.99"/>
<polygon fill="midnightblue" stroke="midnightblue" points="367.5,-29.75 364,-19.75 360.5,-29.75 367.5,-29.75"/>
</g>
<!-- Node10&#45;&gt;Node11 -->
<g id="edge10" class="edge">
<title>Node10&#45;&gt;Node11</title>
<path fill="none" stroke="midnightblue" d="M478.28,-112.32C487.84,-104.26 502.28,-92.08 513.78,-82.37"/>
<polygon fill="midnightblue" stroke="midnightblue" points="516.14,-84.96 521.53,-75.83 511.63,-79.61 516.14,-84.96"/>
</g>
<!-- Node11&#45;&gt;Node9 -->
<g id="edge14" class="edge">
<title>Node11&#45;&gt;Node9</title>
<path fill="none" stroke="midnightblue" d="M505.38,-56.44C476.58,-47.19 430.53,-32.39 398.86,-22.21"/>
<polygon fill="midnightblue" stroke="midnightblue" points="399.71,-18.8 389.12,-19.08 397.57,-25.47 399.71,-18.8"/>
</g>
<!-- Node12 -->
<g id="node12" class="node">
<title>Node12</title>
<g id="a_node12"><a xlink:title=" ">
<polygon fill="none" stroke="#bfbfbf" points="407,-0.5 407,-19.5 455,-19.5 455,-0.5 407,-0.5"/>
<text text-anchor="middle" x="431" y="-7.5" font-family="Helvetica,sans-Serif" font-size="10.00">mutex</text>
</a>
</g>
</g>
<!-- Node11&#45;&gt;Node12 -->
<g id="edge11" class="edge">
<title>Node11&#45;&gt;Node12</title>
<path fill="none" stroke="midnightblue" d="M515.77,-56.32C499.65,-47.7 474.7,-34.36 456.04,-24.39"/>
<polygon fill="midnightblue" stroke="midnightblue" points="457.66,-21.28 447.19,-19.65 454.36,-27.46 457.66,-21.28"/>
</g>
<!-- Node13 -->
<g id="node13" class="node">
<title>Node13</title>
<g id="a_node13"><a xlink:title=" ">
<polygon fill="none" stroke="#bfbfbf" points="473.5,-0.5 473.5,-19.5 520.5,-19.5 520.5,-0.5 473.5,-0.5"/>
<text text-anchor="middle" x="497" y="-7.5" font-family="Helvetica,sans-Serif" font-size="10.00">vector</text>
</a>
</g>
</g>
<!-- Node11&#45;&gt;Node13 -->
<g id="edge12" class="edge">
<title>Node11&#45;&gt;Node13</title>
<path fill="none" stroke="midnightblue" d="M526.22,-56.08C521.33,-48.53 514.17,-37.49 508.17,-28.23"/>
<polygon fill="midnightblue" stroke="midnightblue" points="511.05,-26.24 502.67,-19.75 505.17,-30.05 511.05,-26.24"/>
</g>
<!-- Node14 -->
<g id="node14" class="node">
<title>Node14</title>
<g id="a_node14"><a xlink:title=" ">
<polygon fill="none" stroke="#bfbfbf" points="539,-0.5 539,-19.5 597,-19.5 597,-0.5 539,-0.5"/>
<text text-anchor="middle" x="568" y="-7.5" font-family="Helvetica,sans-Serif" font-size="10.00">memory</text>
</a>
</g>
</g>
<!-- Node11&#45;&gt;Node14 -->
<g id="edge13" class="edge">
<title>Node11&#45;&gt;Node14</title>
<path fill="none" stroke="midnightblue" d="M537.94,-56.08C542.98,-48.53 550.34,-37.49 556.51,-28.23"/>
<polygon fill="midnightblue" stroke="midnightblue" points="559.53,-30.01 562.17,-19.75 553.71,-26.13 559.53,-30.01"/>
</g>
<!-- Node15 -->
<g id="node15" class="node">
<title>Node15</title>
<g id="a_node15"><a xlink:title=" ">
<polygon fill="none" stroke="#bfbfbf" points="615.5,-0.5 615.5,-19.5 688.5,-19.5 688.5,-0.5 615.5,-0.5"/>
<text text-anchor="middle" x="652" y="-7.5" font-family="Helvetica,sans-Serif" font-size="10.00">string_view</text>
</a>
</g>
</g>
<!-- Node11&#45;&gt;Node15 -->
<g id="edge15" class="edge">
<title>Node11&#45;&gt;Node15</title>
<path fill="none" stroke="midnightblue" d="M551.01,-56.44C570.59,-47.64 601.31,-33.81 623.73,-23.72"/>
<polygon fill="midnightblue" stroke="midnightblue" points="625.39,-26.81 633.07,-19.52 622.52,-20.43 625.39,-26.81"/>
</g>
<!-- Node16 -->
<g id="node16" class="node">
<title>Node16</title>
<g id="a_node16"><a xlink:title=" ">
<polygon fill="none" stroke="#bfbfbf" points="706.5,-0.5 706.5,-19.5 799.5,-19.5 799.5,-0.5 706.5,-0.5"/>
<text text-anchor="middle" x="753" y="-7.5" font-family="Helvetica,sans-Serif" font-size="10.00">source_location</text>
</a>
</g>
</g>
<!-- Node11&#45;&gt;Node16 -->
<g id="edge16" class="edge">
<title>Node11&#45;&gt;Node16</title>
<path fill="none" stroke="midnightblue" d="M567.02,-56.44C605.25,-47.1 666.57,-32.12 708.26,-21.93"/>
<polygon fill="midnightblue" stroke="midnightblue" points="709.26,-25.29 718.15,-19.52 707.6,-18.49 709.26,-25.29"/>
</g>
</g>
</svg>
