<?xml version="1.0" encoding="UTF-8" standalone="no"?>
<!DOCTYPE svg PUBLIC "-//W3C//DTD SVG 1.1//EN"
 "http://www.w3.org/Graphics/SVG/1.1/DTD/svg11.dtd">
<!-- Generated by graphviz version 2.43.0 (0)
 -->
<!-- Title: src/core/peripherals/interrupt_controller.cpp Pages: 1 -->
<svg width="826pt" height="263pt"
 viewBox="0.00 0.00 825.50 263.00" xmlns="http://www.w3.org/2000/svg" xmlns:xlink="http://www.w3.org/1999/xlink">
<g id="graph0" class="graph" transform="scale(1 1) rotate(0) translate(4 259)">
<title>src/core/peripherals/interrupt_controller.cpp</title>
<!-- Node1 -->
<g id="node1" class="node">
<title>Node1</title>
<g id="a_node1"><a xlink:title=" ">
<polygon fill="#bfbfbf" stroke="black" points="230.5,-224.5 230.5,-254.5 363.5,-254.5 363.5,-224.5 230.5,-224.5"/>
<text text-anchor="start" x="238.5" y="-242.5" font-family="Helvetica,sans-Serif" font-size="10.00">src/core/peripherals</text>
<text text-anchor="middle" x="297" y="-231.5" font-family="Helvetica,sans-Serif" font-size="10.00">/interrupt_controller.cpp</text>
</a>
</g>
</g>
<!-- Node2 -->
<g id="node2" class="node">
<title>Node2</title>
<g id="a_node2"><a xlink:title=" ">
<polygon fill="none" stroke="#bfbfbf" points="0,-168.5 0,-187.5 64,-187.5 64,-168.5 0,-168.5"/>
<text text-anchor="middle" x="32" y="-175.5" font-family="Helvetica,sans-Serif" font-size="10.00">algorithm</text>
</a>
</g>
</g>
<!-- Node1&#45;&gt;Node2 -->
<g id="edge1" class="edge">
<title>Node1&#45;&gt;Node2</title>
<path fill="none" stroke="midnightblue" d="M234.53,-224.47C185.09,-213.37 117.4,-198.17 74.18,-188.47"/>
<polygon fill="midnightblue" stroke="midnightblue" points="74.8,-185.02 64.27,-186.25 73.26,-191.85 74.8,-185.02"/>
</g>
<!-- Node3 -->
<g id="node3" class="node">
<title>Node3</title>
<g id="a_node3"><a xlink:title=" ">
<polygon fill="none" stroke="#bfbfbf" points="82.5,-168.5 82.5,-187.5 161.5,-187.5 161.5,-168.5 82.5,-168.5"/>
<text text-anchor="middle" x="122" y="-175.5" font-family="Helvetica,sans-Serif" font-size="10.00">fmt/format.h</text>
</a>
</g>
</g>
<!-- Node1&#45;&gt;Node3 -->
<g id="edge2" class="edge">
<title>Node1&#45;&gt;Node3</title>
<path fill="none" stroke="midnightblue" d="M255.53,-224.4C225.42,-214.16 185.15,-200.47 156.73,-190.81"/>
<polygon fill="midnightblue" stroke="midnightblue" points="157.8,-187.48 147.21,-187.57 155.55,-194.1 157.8,-187.48"/>
</g>
<!-- Node4 -->
<g id="node4" class="node">
<title>Node4</title>
<g id="a_node4"><a xlink:title=" ">
<polygon fill="none" stroke="#bfbfbf" points="179.5,-168.5 179.5,-187.5 280.5,-187.5 280.5,-168.5 179.5,-168.5"/>
<text text-anchor="middle" x="230" y="-175.5" font-family="Helvetica,sans-Serif" font-size="10.00">magic_enum.hpp</text>
</a>
</g>
</g>
<!-- Node1&#45;&gt;Node4 -->
<g id="edge3" class="edge">
<title>Node1&#45;&gt;Node4</title>
<path fill="none" stroke="midnightblue" d="M281.12,-224.4C270.98,-215.4 257.84,-203.72 247.41,-194.47"/>
<polygon fill="midnightblue" stroke="midnightblue" points="249.55,-191.68 239.75,-187.66 244.9,-196.92 249.55,-191.68"/>
</g>
<!-- Node5 -->
<g id="node5" class="node">
<title>Node5</title>
<g id="a_node5"><a xlink:href="interrupt__controller_8hpp.html" target="_top" xlink:title=" ">
<polygon fill="none" stroke="black" points="298.5,-168.5 298.5,-187.5 429.5,-187.5 429.5,-168.5 298.5,-168.5"/>
<text text-anchor="middle" x="364" y="-175.5" font-family="Helvetica,sans-Serif" font-size="10.00">interrupt_controller.hpp</text>
</a>
</g>
</g>
<!-- Node1&#45;&gt;Node5 -->
<g id="edge4" class="edge">
<title>Node1&#45;&gt;Node5</title>
<path fill="none" stroke="midnightblue" d="M312.88,-224.4C323.02,-215.4 336.16,-203.72 346.59,-194.47"/>
<polygon fill="midnightblue" stroke="midnightblue" points="349.1,-196.92 354.25,-187.66 344.45,-191.68 349.1,-196.92"/>
</g>
<!-- Node17 -->
<g id="node17" class="node">
<title>Node17</title>
<g id="a_node17"><a xlink:href="math_8hpp.html" target="_top" xlink:title="This file defines and implements a variety of handy helper functions that are used throughout the pro...">
<polygon fill="none" stroke="black" points="448,-168.5 448,-187.5 544,-187.5 544,-168.5 448,-168.5"/>
<text text-anchor="middle" x="496" y="-175.5" font-family="Helvetica,sans-Serif" font-size="10.00">../utils/math.hpp</text>
</a>
</g>
</g>
<!-- Node1&#45;&gt;Node17 -->
<g id="edge17" class="edge">
<title>Node1&#45;&gt;Node17</title>
<path fill="none" stroke="midnightblue" d="M343.91,-224.47C378.69,-214.08 425.5,-200.08 457.97,-190.37"/>
<polygon fill="midnightblue" stroke="midnightblue" points="458.97,-193.72 467.55,-187.51 456.97,-187.02 458.97,-193.72"/>
</g>
<!-- Node18 -->
<g id="node18" class="node">
<title>Node18</title>
<g id="a_node18"><a xlink:href="singleton_8hpp.html" target="_top" xlink:title="This file defines and implements a generic class that is used to treat other classes as singletons.">
<polygon fill="none" stroke="black" points="562,-168.5 562,-187.5 678,-187.5 678,-168.5 562,-168.5"/>
<text text-anchor="middle" x="620" y="-175.5" font-family="Helvetica,sans-Serif" font-size="10.00">../utils/singleton.hpp</text>
</a>
</g>
</g>
<!-- Node1&#45;&gt;Node18 -->
<g id="edge18" class="edge">
<title>Node1&#45;&gt;Node18</title>
<path fill="none" stroke="midnightblue" d="M363.53,-226.24C422.47,-215.39 507.58,-199.71 563.33,-189.44"/>
<polygon fill="midnightblue" stroke="midnightblue" points="564.19,-192.84 573.39,-187.59 562.92,-185.96 564.19,-192.84"/>
</g>
<!-- Node6 -->
<g id="node6" class="node">
<title>Node6</title>
<g id="a_node6"><a xlink:title=" ">
<polygon fill="none" stroke="#bfbfbf" points="149,-112.5 149,-131.5 191,-131.5 191,-112.5 149,-112.5"/>
<text text-anchor="middle" x="170" y="-119.5" font-family="Helvetica,sans-Serif" font-size="10.00">array</text>
</a>
</g>
</g>
<!-- Node5&#45;&gt;Node6 -->
<g id="edge5" class="edge">
<title>Node5&#45;&gt;Node6</title>
<path fill="none" stroke="midnightblue" d="M332.72,-168.5C299.88,-159.54 246.76,-144.96 201,-132 200.9,-131.97 200.8,-131.94 200.7,-131.91"/>
<polygon fill="midnightblue" stroke="midnightblue" points="201.58,-128.53 191,-129.14 199.65,-135.26 201.58,-128.53"/>
</g>
<!-- Node7 -->
<g id="node7" class="node">
<title>Node7</title>
<g id="a_node7"><a xlink:title=" ">
<polygon fill="none" stroke="#bfbfbf" points="209.5,-112.5 209.5,-131.5 302.5,-131.5 302.5,-112.5 209.5,-112.5"/>
<text text-anchor="middle" x="256" y="-119.5" font-family="Helvetica,sans-Serif" font-size="10.00">unordered_map</text>
</a>
</g>
</g>
<!-- Node5&#45;&gt;Node7 -->
<g id="edge6" class="edge">
<title>Node5&#45;&gt;Node7</title>
<path fill="none" stroke="midnightblue" d="M346.65,-168.32C329.33,-159.66 302.48,-146.24 282.5,-136.25"/>
<polygon fill="midnightblue" stroke="midnightblue" points="283.82,-133 273.31,-131.65 280.69,-139.26 283.82,-133"/>
</g>
<!-- Node8 -->
<g id="node8" class="node">
<title>Node8</title>
<g id="a_node8"><a xlink:href="peripheral_8hpp.html" target="_top" xlink:title="This file defines an interface for a memory&#45;mapped peripheral.">
<polygon fill="none" stroke="black" points="320.5,-112.5 320.5,-131.5 407.5,-131.5 407.5,-112.5 320.5,-112.5"/>
<text text-anchor="middle" x="364" y="-119.5" font-family="Helvetica,sans-Serif" font-size="10.00">peripheral.hpp</text>
</a>
</g>
</g>
<!-- Node5&#45;&gt;Node8 -->
<g id="edge7" class="edge">
<title>Node5&#45;&gt;Node8</title>
<path fill="none" stroke="midnightblue" d="M364,-168.08C364,-161.01 364,-150.86 364,-141.99"/>
<polygon fill="midnightblue" stroke="midnightblue" points="367.5,-141.75 364,-131.75 360.5,-141.75 367.5,-141.75"/>
</g>
<!-- Node9 -->
<g id="node9" class="node">
<title>Node9</title>
<g id="a_node9"><a xlink:href="context_8hpp.html" target="_top" xlink:title="This file defines the context (registers) of the CPU.">
<polygon fill="none" stroke="black" points="426,-112.5 426,-131.5 578,-131.5 578,-112.5 426,-112.5"/>
<text text-anchor="middle" x="502" y="-119.5" font-family="Helvetica,sans-Serif" font-size="10.00">../arm1176jzf_s/context.hpp</text>
</a>
</g>
</g>
<!-- Node5&#45;&gt;Node9 -->
<g id="edge8" class="edge">
<title>Node5&#45;&gt;Node9</title>
<path fill="none" stroke="midnightblue" d="M385.87,-168.44C408.78,-159.48 444.98,-145.31 470.87,-135.18"/>
<polygon fill="midnightblue" stroke="midnightblue" points="472.2,-138.42 480.24,-131.52 469.65,-131.9 472.2,-138.42"/>
</g>
<!-- Node10 -->
<g id="node10" class="node">
<title>Node10</title>
<g id="a_node10"><a xlink:href="logger_8hpp.html" target="_top" xlink:title=" ">
<polygon fill="none" stroke="black" points="487,-56.5 487,-75.5 621,-75.5 621,-56.5 487,-56.5"/>
<text text-anchor="middle" x="554" y="-63.5" font-family="Helvetica,sans-Serif" font-size="10.00">../utils/logger/logger.hpp</text>
</a>
</g>
</g>
<!-- Node5&#45;&gt;Node10 -->
<g id="edge16" class="edge">
<title>Node5&#45;&gt;Node10</title>
<path fill="none" stroke="midnightblue" d="M426.59,-168.47C488.92,-159.34 576.79,-144.47 587,-132 599.31,-116.96 584.98,-96.57 571.54,-82.67"/>
<polygon fill="midnightblue" stroke="midnightblue" points="573.95,-80.14 564.33,-75.69 569.08,-85.16 573.95,-80.14"/>
</g>
<!-- Node9&#45;&gt;Node10 -->
<g id="edge9" class="edge">
<title>Node9&#45;&gt;Node10</title>
<path fill="none" stroke="midnightblue" d="M510.59,-112.08C518.16,-104.22 529.38,-92.57 538.51,-83.08"/>
<polygon fill="midnightblue" stroke="midnightblue" points="541.16,-85.38 545.57,-75.75 536.12,-80.53 541.16,-85.38"/>
</g>
<!-- Node11 -->
<g id="node11" class="node">
<title>Node11</title>
<g id="a_node11"><a xlink:title=" ">
<polygon fill="none" stroke="#bfbfbf" points="357,-0.5 357,-19.5 405,-19.5 405,-0.5 357,-0.5"/>
<text text-anchor="middle" x="381" y="-7.5" font-family="Helvetica,sans-Serif" font-size="10.00">mutex</text>
</a>
</g>
</g>
<!-- Node10&#45;&gt;Node11 -->
<g id="edge10" class="edge">
<title>Node10&#45;&gt;Node11</title>
<path fill="none" stroke="midnightblue" d="M526.59,-56.44C496.28,-46.98 447.44,-31.74 414.79,-21.55"/>
<polygon fill="midnightblue" stroke="midnightblue" points="415.8,-18.2 405.21,-18.56 413.72,-24.88 415.8,-18.2"/>
</g>
<!-- Node12 -->
<g id="node12" class="node">
<title>Node12</title>
<g id="a_node12"><a xlink:title=" ">
<polygon fill="none" stroke="#bfbfbf" points="423.5,-0.5 423.5,-19.5 470.5,-19.5 470.5,-0.5 423.5,-0.5"/>
<text text-anchor="middle" x="447" y="-7.5" font-family="Helvetica,sans-Serif" font-size="10.00">vector</text>
</a>
</g>
</g>
<!-- Node10&#45;&gt;Node12 -->
<g id="edge11" class="edge">
<title>Node10&#45;&gt;Node12</title>
<path fill="none" stroke="midnightblue" d="M536.81,-56.32C519.65,-47.66 493.05,-34.24 473.25,-24.25"/>
<polygon fill="midnightblue" stroke="midnightblue" points="474.65,-21.04 464.15,-19.65 471.5,-27.28 474.65,-21.04"/>
</g>
<!-- Node13 -->
<g id="node13" class="node">
<title>Node13</title>
<g id="a_node13"><a xlink:title=" ">
<polygon fill="none" stroke="#bfbfbf" points="489,-0.5 489,-19.5 547,-19.5 547,-0.5 489,-0.5"/>
<text text-anchor="middle" x="518" y="-7.5" font-family="Helvetica,sans-Serif" font-size="10.00">memory</text>
</a>
</g>
</g>
<!-- Node10&#45;&gt;Node13 -->
<g id="edge12" class="edge">
<title>Node10&#45;&gt;Node13</title>
<path fill="none" stroke="midnightblue" d="M548.06,-56.08C543.02,-48.53 535.66,-37.49 529.49,-28.23"/>
<polygon fill="midnightblue" stroke="midnightblue" points="532.29,-26.13 523.83,-19.75 526.47,-30.01 532.29,-26.13"/>
</g>
<!-- Node14 -->
<g id="node14" class="node">
<title>Node14</title>
<g id="a_node14"><a xlink:title=" ">
<polygon fill="none" stroke="#bfbfbf" points="565,-0.5 565,-19.5 615,-19.5 615,-0.5 565,-0.5"/>
<text text-anchor="middle" x="590" y="-7.5" font-family="Helvetica,sans-Serif" font-size="10.00">cstdint</text>
</a>
</g>
</g>
<!-- Node10&#45;&gt;Node14 -->
<g id="edge13" class="edge">
<title>Node10&#45;&gt;Node14</title>
<path fill="none" stroke="midnightblue" d="M559.94,-56.08C564.98,-48.53 572.34,-37.49 578.51,-28.23"/>
<polygon fill="midnightblue" stroke="midnightblue" points="581.53,-30.01 584.17,-19.75 575.71,-26.13 581.53,-30.01"/>
</g>
<!-- Node15 -->
<g id="node15" class="node">
<title>Node15</title>
<g id="a_node15"><a xlink:title=" ">
<polygon fill="none" stroke="#bfbfbf" points="633.5,-0.5 633.5,-19.5 706.5,-19.5 706.5,-0.5 633.5,-0.5"/>
<text text-anchor="middle" x="670" y="-7.5" font-family="Helvetica,sans-Serif" font-size="10.00">string_view</text>
</a>
</g>
</g>
<!-- Node10&#45;&gt;Node15 -->
<g id="edge14" class="edge">
<title>Node10&#45;&gt;Node15</title>
<path fill="none" stroke="midnightblue" d="M572.38,-56.44C591.22,-47.68 620.73,-33.94 642.38,-23.86"/>
<polygon fill="midnightblue" stroke="midnightblue" points="644.12,-26.91 651.71,-19.52 641.16,-20.56 644.12,-26.91"/>
</g>
<!-- Node16 -->
<g id="node16" class="node">
<title>Node16</title>
<g id="a_node16"><a xlink:title=" ">
<polygon fill="none" stroke="#bfbfbf" points="724.5,-0.5 724.5,-19.5 817.5,-19.5 817.5,-0.5 724.5,-0.5"/>
<text text-anchor="middle" x="771" y="-7.5" font-family="Helvetica,sans-Serif" font-size="10.00">source_location</text>
</a>
</g>
</g>
<!-- Node10&#45;&gt;Node16 -->
<g id="edge15" class="edge">
<title>Node10&#45;&gt;Node16</title>
<path fill="none" stroke="midnightblue" d="M588.38,-56.44C625.92,-47.1 686.13,-32.12 727.07,-21.93"/>
<polygon fill="midnightblue" stroke="midnightblue" points="727.92,-25.33 736.78,-19.52 726.23,-18.53 727.92,-25.33"/>
</g>
</g>
</svg>
