<?xml version="1.0" encoding="UTF-8" standalone="no"?>
<!DOCTYPE svg PUBLIC "-//W3C//DTD SVG 1.1//EN"
 "http://www.w3.org/Graphics/SVG/1.1/DTD/svg11.dtd">
<!-- Generated by graphviz version 2.43.0 (0)
 -->
<!-- Title: src/gui/windows/peripherals/interrupt_controller_window.cpp Pages: 1 -->
<svg width="485pt" height="285pt"
 viewBox="0.00 0.00 484.50 285.00" xmlns="http://www.w3.org/2000/svg" xmlns:xlink="http://www.w3.org/1999/xlink">
<g id="graph0" class="graph" transform="scale(1 1) rotate(0) translate(4 281)">
<title>src/gui/windows/peripherals/interrupt_controller_window.cpp</title>
<!-- Node1 -->
<g id="node1" class="node">
<title>Node1</title>
<g id="a_node1"><a xlink:title=" ">
<polygon fill="#bfbfbf" stroke="black" points="24.5,-246.5 24.5,-276.5 200.5,-276.5 200.5,-246.5 24.5,-246.5"/>
<text text-anchor="start" x="32.5" y="-264.5" font-family="Helvetica,sans-Serif" font-size="10.00">src/gui/windows/peripherals</text>
<text text-anchor="middle" x="112.5" y="-253.5" font-family="Helvetica,sans-Serif" font-size="10.00">/interrupt_controller_window.cpp</text>
</a>
</g>
</g>
<!-- Node2 -->
<g id="node2" class="node">
<title>Node2</title>
<g id="a_node2"><a xlink:title=" ">
<polygon fill="none" stroke="#bfbfbf" points="0,-185 0,-204 101,-204 101,-185 0,-185"/>
<text text-anchor="middle" x="50.5" y="-192" font-family="Helvetica,sans-Serif" font-size="10.00">magic_enum.hpp</text>
</a>
</g>
</g>
<!-- Node1&#45;&gt;Node2 -->
<g id="edge1" class="edge">
<title>Node1&#45;&gt;Node2</title>
<path fill="none" stroke="midnightblue" d="M99.05,-246.4C89.28,-236.16 76.06,-222.3 65.88,-211.62"/>
<polygon fill="midnightblue" stroke="midnightblue" points="68.23,-209.01 58.79,-204.19 63.16,-213.85 68.23,-209.01"/>
</g>
<!-- Node3 -->
<g id="node3" class="node">
<title>Node3</title>
<g id="a_node3"><a xlink:href="interrupt__controller__window_8hpp.html" target="_top" xlink:title=" ">
<polygon fill="none" stroke="black" points="119.5,-179.5 119.5,-209.5 229.5,-209.5 229.5,-179.5 119.5,-179.5"/>
<text text-anchor="start" x="127.5" y="-197.5" font-family="Helvetica,sans-Serif" font-size="10.00">interrupt_controller</text>
<text text-anchor="middle" x="174.5" y="-186.5" font-family="Helvetica,sans-Serif" font-size="10.00">_window.hpp</text>
</a>
</g>
</g>
<!-- Node1&#45;&gt;Node3 -->
<g id="edge2" class="edge">
<title>Node1&#45;&gt;Node3</title>
<path fill="none" stroke="midnightblue" d="M125.95,-246.4C134.16,-237.79 144.81,-226.63 154.05,-216.94"/>
<polygon fill="midnightblue" stroke="midnightblue" points="156.7,-219.23 161.07,-209.58 151.64,-214.4 156.7,-219.23"/>
</g>
<!-- Node4 -->
<g id="node4" class="node">
<title>Node4</title>
<g id="a_node4"><a xlink:title=" ">
<polygon fill="none" stroke="#bfbfbf" points="69.5,-56.5 69.5,-75.5 127.5,-75.5 127.5,-56.5 69.5,-56.5"/>
<text text-anchor="middle" x="98.5" y="-63.5" font-family="Helvetica,sans-Serif" font-size="10.00">memory</text>
</a>
</g>
</g>
<!-- Node3&#45;&gt;Node4 -->
<g id="edge3" class="edge">
<title>Node3&#45;&gt;Node4</title>
<path fill="none" stroke="midnightblue" d="M135.84,-179.37C119.73,-171.34 102.67,-159.52 93.5,-143 83.7,-125.34 87.37,-101.7 91.93,-85.5"/>
<polygon fill="midnightblue" stroke="midnightblue" points="95.37,-86.23 95.08,-75.64 88.7,-84.1 95.37,-86.23"/>
</g>
<!-- Node5 -->
<g id="node5" class="node">
<title>Node5</title>
<g id="a_node5"><a xlink:title=" ">
<polygon fill="none" stroke="#bfbfbf" points="103,-118 103,-137 156,-137 156,-118 103,-118"/>
<text text-anchor="middle" x="129.5" y="-125" font-family="Helvetica,sans-Serif" font-size="10.00">imgui.h</text>
</a>
</g>
</g>
<!-- Node3&#45;&gt;Node5 -->
<g id="edge4" class="edge">
<title>Node3&#45;&gt;Node5</title>
<path fill="none" stroke="midnightblue" d="M164.74,-179.4C157.86,-169.46 148.61,-156.11 141.32,-145.57"/>
<polygon fill="midnightblue" stroke="midnightblue" points="144.09,-143.42 135.52,-137.19 138.33,-147.41 144.09,-143.42"/>
</g>
<!-- Node6 -->
<g id="node6" class="node">
<title>Node6</title>
<g id="a_node6"><a xlink:href="window_8hpp.html" target="_top" xlink:title=" ">
<polygon fill="none" stroke="black" points="174.5,-118 174.5,-137 266.5,-137 266.5,-118 174.5,-118"/>
<text text-anchor="middle" x="220.5" y="-125" font-family="Helvetica,sans-Serif" font-size="10.00">../../window.hpp</text>
</a>
</g>
</g>
<!-- Node3&#45;&gt;Node6 -->
<g id="edge5" class="edge">
<title>Node3&#45;&gt;Node6</title>
<path fill="none" stroke="midnightblue" d="M184.48,-179.4C191.51,-169.46 200.96,-156.11 208.42,-145.57"/>
<polygon fill="midnightblue" stroke="midnightblue" points="211.43,-147.38 214.35,-137.19 205.71,-143.34 211.43,-147.38"/>
</g>
<!-- Node7 -->
<g id="node7" class="node">
<title>Node7</title>
<g id="a_node7"><a xlink:href="interrupt__controller_8hpp.html" target="_top" xlink:title="This file defines the interrupt controller used in BCM2835.">
<polygon fill="none" stroke="black" points="284.5,-112.5 284.5,-142.5 418.5,-142.5 418.5,-112.5 284.5,-112.5"/>
<text text-anchor="start" x="292.5" y="-130.5" font-family="Helvetica,sans-Serif" font-size="10.00">../../../core/peripherals</text>
<text text-anchor="middle" x="351.5" y="-119.5" font-family="Helvetica,sans-Serif" font-size="10.00">/interrupt_controller.hpp</text>
</a>
</g>
</g>
<!-- Node3&#45;&gt;Node7 -->
<g id="edge7" class="edge">
<title>Node3&#45;&gt;Node7</title>
<path fill="none" stroke="midnightblue" d="M212.91,-179.4C239.46,-169.64 275,-156.59 303.43,-146.15"/>
<polygon fill="midnightblue" stroke="midnightblue" points="304.99,-149.31 313.17,-142.58 302.57,-142.74 304.99,-149.31"/>
</g>
<!-- Node6&#45;&gt;Node4 -->
<g id="edge6" class="edge">
<title>Node6&#45;&gt;Node4</title>
<path fill="none" stroke="midnightblue" d="M203.02,-117.98C182.64,-108.03 148.72,-91.49 125.08,-79.96"/>
<polygon fill="midnightblue" stroke="midnightblue" points="126.47,-76.75 115.95,-75.51 123.4,-83.04 126.47,-76.75"/>
</g>
<!-- Node8 -->
<g id="node8" class="node">
<title>Node8</title>
<g id="a_node8"><a xlink:href="peripheral_8hpp.html" target="_top" xlink:title="This file defines an interface for a memory&#45;mapped peripheral.">
<polygon fill="none" stroke="black" points="170,-56.5 170,-75.5 257,-75.5 257,-56.5 170,-56.5"/>
<text text-anchor="middle" x="213.5" y="-63.5" font-family="Helvetica,sans-Serif" font-size="10.00">peripheral.hpp</text>
</a>
</g>
</g>
<!-- Node7&#45;&gt;Node8 -->
<g id="edge8" class="edge">
<title>Node7&#45;&gt;Node8</title>
<path fill="none" stroke="midnightblue" d="M318.8,-112.4C295.75,-102.46 265.14,-89.26 242.87,-79.66"/>
<polygon fill="midnightblue" stroke="midnightblue" points="244.15,-76.4 233.58,-75.66 241.38,-82.83 244.15,-76.4"/>
</g>
<!-- Node9 -->
<g id="node9" class="node">
<title>Node9</title>
<g id="a_node9"><a xlink:href="context_8hpp.html" target="_top" xlink:title="This file defines the context (registers) of the CPU.">
<polygon fill="none" stroke="black" points="275.5,-56.5 275.5,-75.5 427.5,-75.5 427.5,-56.5 275.5,-56.5"/>
<text text-anchor="middle" x="351.5" y="-63.5" font-family="Helvetica,sans-Serif" font-size="10.00">../arm1176jzf_s/context.hpp</text>
</a>
</g>
</g>
<!-- Node7&#45;&gt;Node9 -->
<g id="edge9" class="edge">
<title>Node7&#45;&gt;Node9</title>
<path fill="none" stroke="midnightblue" d="M351.5,-112.4C351.5,-104.47 351.5,-94.46 351.5,-85.86"/>
<polygon fill="midnightblue" stroke="midnightblue" points="355,-85.66 351.5,-75.66 348,-85.66 355,-85.66"/>
</g>
<!-- Node10 -->
<g id="node10" class="node">
<title>Node10</title>
<g id="a_node10"><a xlink:title=" ">
<polygon fill="none" stroke="#bfbfbf" points="330.5,-0.5 330.5,-19.5 476.5,-19.5 476.5,-0.5 330.5,-0.5"/>
<text text-anchor="middle" x="403.5" y="-7.5" font-family="Helvetica,sans-Serif" font-size="10.00">zero_mate/utils/logger.hpp</text>
</a>
</g>
</g>
<!-- Node7&#45;&gt;Node10 -->
<g id="edge11" class="edge">
<title>Node7&#45;&gt;Node10</title>
<path fill="none" stroke="midnightblue" d="M392.9,-112.4C409.53,-104.46 426.99,-92.71 436.5,-76 445.83,-59.6 433.11,-40.26 420.85,-26.97"/>
<polygon fill="midnightblue" stroke="midnightblue" points="423.01,-24.18 413.48,-19.55 418.04,-29.11 423.01,-24.18"/>
</g>
<!-- Node9&#45;&gt;Node10 -->
<g id="edge10" class="edge">
<title>Node9&#45;&gt;Node10</title>
<path fill="none" stroke="midnightblue" d="M360.09,-56.08C367.66,-48.22 378.88,-36.57 388.01,-27.08"/>
<polygon fill="midnightblue" stroke="midnightblue" points="390.66,-29.38 395.07,-19.75 385.62,-24.53 390.66,-29.38"/>
</g>
</g>
</svg>
