<?xml version="1.0" encoding="UTF-8" standalone="no"?>
<!DOCTYPE svg PUBLIC "-//W3C//DTD SVG 1.1//EN"
 "http://www.w3.org/Graphics/SVG/1.1/DTD/svg11.dtd">
<!-- Generated by graphviz version 2.43.0 (0)
 -->
<!-- Title: src/gui/windows/peripherals/interrupt_controller_window.hpp Pages: 1 -->
<svg width="410pt" height="285pt"
 viewBox="0.00 0.00 409.50 285.00" xmlns="http://www.w3.org/2000/svg" xmlns:xlink="http://www.w3.org/1999/xlink">
<g id="graph0" class="graph" transform="scale(1 1) rotate(0) translate(4 281)">
<title>src/gui/windows/peripherals/interrupt_controller_window.hpp</title>
<!-- Node1 -->
<g id="node1" class="node">
<title>Node1</title>
<g id="a_node1"><a xlink:title="This file defines a window that visualizes the interrupt controller IC.">
<polygon fill="#bfbfbf" stroke="black" points="74,-246.5 74,-276.5 250,-276.5 250,-246.5 74,-246.5"/>
<text text-anchor="start" x="82" y="-264.5" font-family="Helvetica,sans-Serif" font-size="10.00">src/gui/windows/peripherals</text>
<text text-anchor="middle" x="162" y="-253.5" font-family="Helvetica,sans-Serif" font-size="10.00">/interrupt_controller_window.hpp</text>
</a>
</g>
</g>
<!-- Node2 -->
<g id="node2" class="node">
<title>Node2</title>
<g id="a_node2"><a xlink:href="window_8hpp.html" target="_top" xlink:title="This file defines an interface for all windows that will be rendered by the application.">
<polygon fill="none" stroke="black" points="51,-185 51,-204 143,-204 143,-185 51,-185"/>
<text text-anchor="middle" x="97" y="-192" font-family="Helvetica,sans-Serif" font-size="10.00">../../window.hpp</text>
</a>
</g>
</g>
<!-- Node1&#45;&gt;Node2 -->
<g id="edge1" class="edge">
<title>Node1&#45;&gt;Node2</title>
<path fill="none" stroke="midnightblue" d="M147.9,-246.4C137.56,-236.06 123.52,-222.02 112.81,-211.31"/>
<polygon fill="midnightblue" stroke="midnightblue" points="115.24,-208.79 105.69,-204.19 110.29,-213.74 115.24,-208.79"/>
</g>
<!-- Node4 -->
<g id="node4" class="node">
<title>Node4</title>
<g id="a_node4"><a xlink:href="interrupt__controller_8hpp.html" target="_top" xlink:title="This file defines the interrupt controller used in BCM2835.">
<polygon fill="none" stroke="black" points="189,-179.5 189,-209.5 323,-209.5 323,-179.5 189,-179.5"/>
<text text-anchor="start" x="197" y="-197.5" font-family="Helvetica,sans-Serif" font-size="10.00">../../../core/peripherals</text>
<text text-anchor="middle" x="256" y="-186.5" font-family="Helvetica,sans-Serif" font-size="10.00">/interrupt_controller.hpp</text>
</a>
</g>
</g>
<!-- Node1&#45;&gt;Node4 -->
<g id="edge3" class="edge">
<title>Node1&#45;&gt;Node4</title>
<path fill="none" stroke="midnightblue" d="M182.4,-246.4C195.45,-237.37 212.6,-225.51 227.05,-215.52"/>
<polygon fill="midnightblue" stroke="midnightblue" points="229.41,-218.14 235.64,-209.58 225.43,-212.39 229.41,-218.14"/>
</g>
<!-- Node3 -->
<g id="node3" class="node">
<title>Node3</title>
<g id="a_node3"><a xlink:title=" ">
<polygon fill="none" stroke="#bfbfbf" points="0,-123.5 0,-142.5 84,-142.5 84,-123.5 0,-123.5"/>
<text text-anchor="middle" x="42" y="-130.5" font-family="Helvetica,sans-Serif" font-size="10.00">imgui/imgui.h</text>
</a>
</g>
</g>
<!-- Node2&#45;&gt;Node3 -->
<g id="edge2" class="edge">
<title>Node2&#45;&gt;Node3</title>
<path fill="none" stroke="midnightblue" d="M89.12,-184.98C80.71,-175.87 67.18,-161.24 56.77,-149.98"/>
<polygon fill="midnightblue" stroke="midnightblue" points="59.22,-147.48 49.87,-142.51 54.08,-152.23 59.22,-147.48"/>
</g>
<!-- Node5 -->
<g id="node5" class="node">
<title>Node5</title>
<g id="a_node5"><a xlink:href="peripheral_8hpp.html" target="_top" xlink:title="This file defines an interface for a memory&#45;mapped peripheral.">
<polygon fill="none" stroke="black" points="102.5,-123.5 102.5,-142.5 189.5,-142.5 189.5,-123.5 102.5,-123.5"/>
<text text-anchor="middle" x="146" y="-130.5" font-family="Helvetica,sans-Serif" font-size="10.00">peripheral.hpp</text>
</a>
</g>
</g>
<!-- Node4&#45;&gt;Node5 -->
<g id="edge4" class="edge">
<title>Node4&#45;&gt;Node5</title>
<path fill="none" stroke="midnightblue" d="M229.93,-179.4C212.13,-169.77 188.69,-157.09 171.1,-147.58"/>
<polygon fill="midnightblue" stroke="midnightblue" points="172.47,-144.34 162.01,-142.66 169.14,-150.49 172.47,-144.34"/>
</g>
<!-- Node6 -->
<g id="node6" class="node">
<title>Node6</title>
<g id="a_node6"><a xlink:href="context_8hpp.html" target="_top" xlink:title="This file defines the context (registers) of the CPU.">
<polygon fill="none" stroke="black" points="208,-123.5 208,-142.5 360,-142.5 360,-123.5 208,-123.5"/>
<text text-anchor="middle" x="284" y="-130.5" font-family="Helvetica,sans-Serif" font-size="10.00">../arm1176jzf_s/context.hpp</text>
</a>
</g>
</g>
<!-- Node4&#45;&gt;Node6 -->
<g id="edge5" class="edge">
<title>Node4&#45;&gt;Node6</title>
<path fill="none" stroke="midnightblue" d="M262.64,-179.4C266.54,-171.11 271.5,-160.55 275.67,-151.71"/>
<polygon fill="midnightblue" stroke="midnightblue" points="278.83,-153.2 279.93,-142.66 272.5,-150.22 278.83,-153.2"/>
</g>
<!-- Node7 -->
<g id="node7" class="node">
<title>Node7</title>
<g id="a_node7"><a xlink:href="logging__system_8hpp.html" target="_top" xlink:title="This file defines a logging system that is used in the project.">
<polygon fill="none" stroke="black" points="270.5,-56.5 270.5,-86.5 401.5,-86.5 401.5,-56.5 270.5,-56.5"/>
<text text-anchor="start" x="278.5" y="-74.5" font-family="Helvetica,sans-Serif" font-size="10.00">zero_mate/utils/logging</text>
<text text-anchor="middle" x="336" y="-63.5" font-family="Helvetica,sans-Serif" font-size="10.00">_system.hpp</text>
</a>
</g>
</g>
<!-- Node4&#45;&gt;Node7 -->
<g id="edge8" class="edge">
<title>Node4&#45;&gt;Node7</title>
<path fill="none" stroke="midnightblue" d="M319.5,-179.5C338.69,-171.97 357.66,-160.49 369,-143 378.96,-127.64 369.14,-108.81 357.69,-94.47"/>
<polygon fill="midnightblue" stroke="midnightblue" points="360.09,-91.88 350.9,-86.61 354.79,-96.46 360.09,-91.88"/>
</g>
<!-- Node6&#45;&gt;Node7 -->
<g id="edge6" class="edge">
<title>Node6&#45;&gt;Node7</title>
<path fill="none" stroke="midnightblue" d="M291.45,-123.48C298.1,-115.87 308.12,-104.4 316.98,-94.26"/>
<polygon fill="midnightblue" stroke="midnightblue" points="319.8,-96.36 323.74,-86.52 314.53,-91.75 319.8,-96.36"/>
</g>
<!-- Node8 -->
<g id="node8" class="node">
<title>Node8</title>
<g id="a_node8"><a xlink:href="logger_8hpp.html" target="_top" xlink:title="This file defines a general logger interface.">
<polygon fill="none" stroke="black" points="302,-0.5 302,-19.5 370,-19.5 370,-0.5 302,-0.5"/>
<text text-anchor="middle" x="336" y="-7.5" font-family="Helvetica,sans-Serif" font-size="10.00">logger.hpp</text>
</a>
</g>
</g>
<!-- Node7&#45;&gt;Node8 -->
<g id="edge7" class="edge">
<title>Node7&#45;&gt;Node8</title>
<path fill="none" stroke="midnightblue" d="M336,-56.4C336,-48.47 336,-38.46 336,-29.86"/>
<polygon fill="midnightblue" stroke="midnightblue" points="339.5,-29.66 336,-19.66 332.5,-29.66 339.5,-29.66"/>
</g>
</g>
</svg>
