<?xml version="1.0" encoding="UTF-8" standalone="no"?>
<!DOCTYPE svg PUBLIC "-//W3C//DTD SVG 1.1//EN"
 "http://www.w3.org/Graphics/SVG/1.1/DTD/svg11.dtd">
<!-- Generated by graphviz version 2.43.0 (0)
 -->
<!-- Title: src/gui/windows/peripherals/interrupt_controller_window.hpp Pages: 1 -->
<svg width="290pt" height="106pt"
 viewBox="0.00 0.00 289.50 106.00" xmlns="http://www.w3.org/2000/svg" xmlns:xlink="http://www.w3.org/1999/xlink">
<g id="graph0" class="graph" transform="scale(1 1) rotate(0) translate(4 102)">
<title>src/gui/windows/peripherals/interrupt_controller_window.hpp</title>
<!-- Node1 -->
<g id="node1" class="node">
<title>Node1</title>
<g id="a_node1"><a xlink:title="This file defines a window that visualizes the interrupt controller IC.">
<polygon fill="#bfbfbf" stroke="black" points="30.5,-67.5 30.5,-97.5 206.5,-97.5 206.5,-67.5 30.5,-67.5"/>
<text text-anchor="start" x="38.5" y="-85.5" font-family="Helvetica,sans-Serif" font-size="10.00">src/gui/windows/peripherals</text>
<text text-anchor="middle" x="118.5" y="-74.5" font-family="Helvetica,sans-Serif" font-size="10.00">/interrupt_controller_window.hpp</text>
</a>
</g>
</g>
<!-- Node2 -->
<g id="node2" class="node">
<title>Node2</title>
<g id="a_node2"><a xlink:href="gui_8cpp.html" target="_top" xlink:title="This file implements the main GUI entry function that takes care of creating and rendering all window...">
<polygon fill="none" stroke="black" points="0,-6 0,-25 87,-25 87,-6 0,-6"/>
<text text-anchor="middle" x="43.5" y="-13" font-family="Helvetica,sans-Serif" font-size="10.00">src/gui/gui.cpp</text>
</a>
</g>
</g>
<!-- Node1&#45;&gt;Node2 -->
<g id="edge1" class="edge">
<title>Node1&#45;&gt;Node2</title>
<path fill="none" stroke="midnightblue" d="M94.47,-60.67C80.62,-48.67 63.95,-34.22 53.53,-25.19"/>
<polygon fill="midnightblue" stroke="midnightblue" points="92.38,-63.49 102.23,-67.4 96.96,-58.2 92.38,-63.49"/>
</g>
<!-- Node3 -->
<g id="node3" class="node">
<title>Node3</title>
<g id="a_node3"><a xlink:href="interrupt__controller__window_8cpp.html" target="_top" xlink:title="This file implements a window that visualizes the interrupt controller IC.">
<polygon fill="none" stroke="black" points="105.5,-0.5 105.5,-30.5 281.5,-30.5 281.5,-0.5 105.5,-0.5"/>
<text text-anchor="start" x="113.5" y="-18.5" font-family="Helvetica,sans-Serif" font-size="10.00">src/gui/windows/peripherals</text>
<text text-anchor="middle" x="193.5" y="-7.5" font-family="Helvetica,sans-Serif" font-size="10.00">/interrupt_controller_window.cpp</text>
</a>
</g>
</g>
<!-- Node1&#45;&gt;Node3 -->
<g id="edge2" class="edge">
<title>Node1&#45;&gt;Node3</title>
<path fill="none" stroke="midnightblue" d="M142.62,-60.6C153.94,-50.78 167.14,-39.34 177.26,-30.58"/>
<polygon fill="midnightblue" stroke="midnightblue" points="140.04,-58.2 134.77,-67.4 144.62,-63.49 140.04,-58.2"/>
</g>
</g>
</svg>
