<?xml version="1.0" encoding="UTF-8" standalone="no"?>
<!DOCTYPE svg PUBLIC "-//W3C//DTD SVG 1.1//EN"
 "http://www.w3.org/Graphics/SVG/1.1/DTD/svg11.dtd">
<!-- Generated by graphviz version 2.43.0 (0)
 -->
<!-- Title: src/core/peripherals/interrupt_controller.hpp Pages: 1 -->
<svg width="1658pt" height="240pt"
 viewBox="0.00 0.00 1657.50 240.00" xmlns="http://www.w3.org/2000/svg" xmlns:xlink="http://www.w3.org/1999/xlink">
<g id="graph0" class="graph" transform="scale(1 1) rotate(0) translate(4 236)">
<title>src/core/peripherals/interrupt_controller.hpp</title>
<!-- Node1 -->
<g id="node1" class="node">
<title>Node1</title>
<g id="a_node1"><a xlink:title="This file defines the interrupt controller used in BCM2835.">
<polygon fill="#bfbfbf" stroke="black" points="1133.5,-201.5 1133.5,-231.5 1267.5,-231.5 1267.5,-201.5 1133.5,-201.5"/>
<text text-anchor="start" x="1141.5" y="-219.5" font-family="Helvetica,sans-Serif" font-size="10.00">src/core/peripherals</text>
<text text-anchor="middle" x="1200.5" y="-208.5" font-family="Helvetica,sans-Serif" font-size="10.00">/interrupt_controller.hpp</text>
</a>
</g>
</g>
<!-- Node2 -->
<g id="node2" class="node">
<title>Node2</title>
<g id="a_node2"><a xlink:href="core_8hpp.html" target="_top" xlink:title="This file defines a class that represents a CPU core (arm1176jzf_s).">
<polygon fill="none" stroke="black" points="447,-134.5 447,-164.5 560,-164.5 560,-134.5 447,-134.5"/>
<text text-anchor="start" x="455" y="-152.5" font-family="Helvetica,sans-Serif" font-size="10.00">src/core/arm1176jzf</text>
<text text-anchor="middle" x="503.5" y="-141.5" font-family="Helvetica,sans-Serif" font-size="10.00">_s/core.hpp</text>
</a>
</g>
</g>
<!-- Node1&#45;&gt;Node2 -->
<g id="edge1" class="edge">
<title>Node1&#45;&gt;Node2</title>
<path fill="none" stroke="midnightblue" d="M1123.03,-208.28C981.56,-195.08 684.56,-167.39 560.18,-155.79"/>
<polygon fill="midnightblue" stroke="midnightblue" points="1123.07,-211.79 1133.35,-209.24 1123.72,-204.82 1123.07,-211.79"/>
</g>
<!-- Node4 -->
<g id="node4" class="node">
<title>Node4</title>
<g id="a_node4"><a xlink:href="soc_8hpp.html" target="_top" xlink:title=" ">
<polygon fill="none" stroke="black" points="1253,-73 1253,-92 1348,-92 1348,-73 1253,-73"/>
<text text-anchor="middle" x="1300.5" y="-80" font-family="Helvetica,sans-Serif" font-size="10.00">src/core/soc.hpp</text>
</a>
</g>
</g>
<!-- Node1&#45;&gt;Node4 -->
<g id="edge32" class="edge">
<title>Node1&#45;&gt;Node4</title>
<path fill="none" stroke="midnightblue" d="M1217.35,-193.26C1239.85,-163.56 1278.65,-112.35 1293.99,-92.1"/>
<polygon fill="midnightblue" stroke="midnightblue" points="1214.45,-191.29 1211.2,-201.37 1220.03,-195.52 1214.45,-191.29"/>
</g>
<!-- Node16 -->
<g id="node16" class="node">
<title>Node16</title>
<g id="a_node16"><a xlink:href="arm__timer_8hpp.html" target="_top" xlink:title="This file defines the ARM timer used in BCM2835.">
<polygon fill="none" stroke="black" points="1102,-134.5 1102,-164.5 1215,-164.5 1215,-134.5 1102,-134.5"/>
<text text-anchor="start" x="1110" y="-152.5" font-family="Helvetica,sans-Serif" font-size="10.00">src/core/peripherals</text>
<text text-anchor="middle" x="1158.5" y="-141.5" font-family="Helvetica,sans-Serif" font-size="10.00">/arm_timer.hpp</text>
</a>
</g>
</g>
<!-- Node1&#45;&gt;Node16 -->
<g id="edge19" class="edge">
<title>Node1&#45;&gt;Node16</title>
<path fill="none" stroke="midnightblue" d="M1185.88,-192.87C1179.8,-183.46 1172.93,-172.83 1167.6,-164.58"/>
<polygon fill="midnightblue" stroke="midnightblue" points="1183.02,-194.9 1191.39,-201.4 1188.9,-191.1 1183.02,-194.9"/>
</g>
<!-- Node20 -->
<g id="node20" class="node">
<title>Node20</title>
<g id="a_node20"><a xlink:href="gpio_8hpp.html" target="_top" xlink:title="This file defines the GPIO controller used in BCM2835.">
<polygon fill="none" stroke="black" points="1272,-134.5 1272,-164.5 1385,-164.5 1385,-134.5 1272,-134.5"/>
<text text-anchor="start" x="1280" y="-152.5" font-family="Helvetica,sans-Serif" font-size="10.00">src/core/peripherals</text>
<text text-anchor="middle" x="1328.5" y="-141.5" font-family="Helvetica,sans-Serif" font-size="10.00">/gpio.hpp</text>
</a>
</g>
</g>
<!-- Node1&#45;&gt;Node20 -->
<g id="edge25" class="edge">
<title>Node1&#45;&gt;Node20</title>
<path fill="none" stroke="midnightblue" d="M1237.22,-196.85C1257.46,-186.58 1282.17,-174.03 1300.78,-164.58"/>
<polygon fill="midnightblue" stroke="midnightblue" points="1235.61,-193.75 1228.27,-201.4 1238.78,-199.99 1235.61,-193.75"/>
</g>
<!-- Node24 -->
<g id="node24" class="node">
<title>Node24</title>
<g id="a_node24"><a xlink:href="interrupt__controller_8cpp.html" target="_top" xlink:title="This file implements the interrupt controller used in BCM2835 (defined in interrupt_controller....">
<polygon fill="none" stroke="black" points="1403,-134.5 1403,-164.5 1536,-164.5 1536,-134.5 1403,-134.5"/>
<text text-anchor="start" x="1411" y="-152.5" font-family="Helvetica,sans-Serif" font-size="10.00">src/core/peripherals</text>
<text text-anchor="middle" x="1469.5" y="-141.5" font-family="Helvetica,sans-Serif" font-size="10.00">/interrupt_controller.cpp</text>
</a>
</g>
</g>
<!-- Node1&#45;&gt;Node24 -->
<g id="edge31" class="edge">
<title>Node1&#45;&gt;Node24</title>
<path fill="none" stroke="midnightblue" d="M1268.29,-199.12C1312.31,-188.48 1369.09,-174.76 1411.1,-164.61"/>
<polygon fill="midnightblue" stroke="midnightblue" points="1267.44,-195.73 1258.54,-201.48 1269.08,-202.53 1267.44,-195.73"/>
</g>
<!-- Node25 -->
<g id="node25" class="node">
<title>Node25</title>
<g id="a_node25"><a xlink:href="interrupt__controller__window_8hpp.html" target="_top" xlink:title=" ">
<polygon fill="none" stroke="black" points="756.5,-134.5 756.5,-164.5 932.5,-164.5 932.5,-134.5 756.5,-134.5"/>
<text text-anchor="start" x="764.5" y="-152.5" font-family="Helvetica,sans-Serif" font-size="10.00">src/gui/windows/peripherals</text>
<text text-anchor="middle" x="844.5" y="-141.5" font-family="Helvetica,sans-Serif" font-size="10.00">/interrupt_controller_window.hpp</text>
</a>
</g>
</g>
<!-- Node1&#45;&gt;Node25 -->
<g id="edge33" class="edge">
<title>Node1&#45;&gt;Node25</title>
<path fill="none" stroke="midnightblue" d="M1122.97,-201.34C1063.14,-190.42 980.8,-175.39 921.18,-164.5"/>
<polygon fill="midnightblue" stroke="midnightblue" points="1122.65,-204.84 1133.12,-203.2 1123.91,-197.96 1122.65,-204.84"/>
</g>
<!-- Node3 -->
<g id="node3" class="node">
<title>Node3</title>
<g id="a_node3"><a xlink:href="core_8cpp.html" target="_top" xlink:title="This file implements the CCPU_Core class defined in core.hpp.">
<polygon fill="none" stroke="black" points="587,-67.5 587,-97.5 700,-97.5 700,-67.5 587,-67.5"/>
<text text-anchor="start" x="595" y="-85.5" font-family="Helvetica,sans-Serif" font-size="10.00">src/core/arm1176jzf</text>
<text text-anchor="middle" x="643.5" y="-74.5" font-family="Helvetica,sans-Serif" font-size="10.00">_s/core.cpp</text>
</a>
</g>
</g>
<!-- Node2&#45;&gt;Node3 -->
<g id="edge2" class="edge">
<title>Node2&#45;&gt;Node3</title>
<path fill="none" stroke="midnightblue" d="M543.07,-130.13C565.31,-119.8 592.65,-107.11 613.18,-97.58"/>
<polygon fill="midnightblue" stroke="midnightblue" points="541.47,-127.01 533.88,-134.4 544.42,-133.36 541.47,-127.01"/>
</g>
<!-- Node2&#45;&gt;Node4 -->
<g id="edge3" class="edge">
<title>Node2&#45;&gt;Node4</title>
<path fill="none" stroke="midnightblue" d="M570.21,-144.28C745.97,-133.1 1210.56,-103.27 1243.5,-98 1252.57,-96.55 1262.31,-94.33 1271.13,-92.05"/>
<polygon fill="midnightblue" stroke="midnightblue" points="569.81,-140.79 560.06,-144.92 570.26,-147.78 569.81,-140.79"/>
</g>
<!-- Node8 -->
<g id="node8" class="node">
<title>Node8</title>
<g id="a_node8"><a xlink:href="control__window_8hpp.html" target="_top" xlink:title=" ">
<polygon fill="none" stroke="black" points="0,-67.5 0,-97.5 131,-97.5 131,-67.5 0,-67.5"/>
<text text-anchor="start" x="8" y="-85.5" font-family="Helvetica,sans-Serif" font-size="10.00">src/gui/windows/control</text>
<text text-anchor="middle" x="65.5" y="-74.5" font-family="Helvetica,sans-Serif" font-size="10.00">_window.hpp</text>
</a>
</g>
</g>
<!-- Node2&#45;&gt;Node8 -->
<g id="edge7" class="edge">
<title>Node2&#45;&gt;Node8</title>
<path fill="none" stroke="midnightblue" d="M436.93,-140.39C363.81,-131.23 243.02,-115.31 139.5,-98 136.79,-97.55 134.02,-97.07 131.23,-96.58"/>
<polygon fill="midnightblue" stroke="midnightblue" points="436.56,-143.87 446.92,-141.64 437.43,-136.93 436.56,-143.87"/>
</g>
<!-- Node10 -->
<g id="node10" class="node">
<title>Node10</title>
<g id="a_node10"><a xlink:href="file__window_8hpp.html" target="_top" xlink:title=" ">
<polygon fill="none" stroke="black" points="149,-67.5 149,-97.5 262,-97.5 262,-67.5 149,-67.5"/>
<text text-anchor="start" x="157" y="-85.5" font-family="Helvetica,sans-Serif" font-size="10.00">src/gui/windows/file</text>
<text text-anchor="middle" x="205.5" y="-74.5" font-family="Helvetica,sans-Serif" font-size="10.00">_window.hpp</text>
</a>
</g>
</g>
<!-- Node2&#45;&gt;Node10 -->
<g id="edge10" class="edge">
<title>Node2&#45;&gt;Node10</title>
<path fill="none" stroke="midnightblue" d="M436.84,-134.03C390.47,-123.95 327.21,-110.18 271.5,-98 268.41,-97.32 265.23,-96.63 262.02,-95.93"/>
<polygon fill="midnightblue" stroke="midnightblue" points="436.25,-137.48 446.76,-136.18 437.73,-130.64 436.25,-137.48"/>
</g>
<!-- Node12 -->
<g id="node12" class="node">
<title>Node12</title>
<g id="a_node12"><a xlink:href="registers__window_8hpp.html" target="_top" xlink:title=" ">
<polygon fill="none" stroke="black" points="280.5,-67.5 280.5,-97.5 420.5,-97.5 420.5,-67.5 280.5,-67.5"/>
<text text-anchor="start" x="288.5" y="-85.5" font-family="Helvetica,sans-Serif" font-size="10.00">src/gui/windows/registers</text>
<text text-anchor="middle" x="350.5" y="-74.5" font-family="Helvetica,sans-Serif" font-size="10.00">_window.hpp</text>
</a>
</g>
</g>
<!-- Node2&#45;&gt;Node12 -->
<g id="edge13" class="edge">
<title>Node2&#45;&gt;Node12</title>
<path fill="none" stroke="midnightblue" d="M460.91,-130.41C436.48,-120.03 406.28,-107.2 383.63,-97.58"/>
<polygon fill="midnightblue" stroke="midnightblue" points="459.73,-133.71 470.3,-134.4 462.47,-127.26 459.73,-133.71"/>
</g>
<!-- Node14 -->
<g id="node14" class="node">
<title>Node14</title>
<g id="a_node14"><a xlink:href="source__code__window_8hpp.html" target="_top" xlink:title=" ">
<polygon fill="none" stroke="black" points="438.5,-67.5 438.5,-97.5 568.5,-97.5 568.5,-67.5 438.5,-67.5"/>
<text text-anchor="start" x="446.5" y="-85.5" font-family="Helvetica,sans-Serif" font-size="10.00">src/gui/windows/source</text>
<text text-anchor="middle" x="503.5" y="-74.5" font-family="Helvetica,sans-Serif" font-size="10.00">_code_window.hpp</text>
</a>
</g>
</g>
<!-- Node2&#45;&gt;Node14 -->
<g id="edge16" class="edge">
<title>Node2&#45;&gt;Node14</title>
<path fill="none" stroke="midnightblue" d="M503.5,-124.11C503.5,-115.15 503.5,-105.32 503.5,-97.58"/>
<polygon fill="midnightblue" stroke="midnightblue" points="500,-124.4 503.5,-134.4 507,-124.4 500,-124.4"/>
</g>
<!-- Node5 -->
<g id="node5" class="node">
<title>Node5</title>
<g id="a_node5"><a xlink:href="soc_8cpp.html" target="_top" xlink:title=" ">
<polygon fill="none" stroke="black" points="1354,-6 1354,-25 1449,-25 1449,-6 1354,-6"/>
<text text-anchor="middle" x="1401.5" y="-13" font-family="Helvetica,sans-Serif" font-size="10.00">src/core/soc.cpp</text>
</a>
</g>
</g>
<!-- Node4&#45;&gt;Node5 -->
<g id="edge4" class="edge">
<title>Node4&#45;&gt;Node5</title>
<path fill="none" stroke="midnightblue" d="M1322.61,-67.27C1342.61,-54.4 1371.39,-35.88 1388.09,-25.13"/>
<polygon fill="midnightblue" stroke="midnightblue" points="1320.64,-64.38 1314.12,-72.73 1324.42,-70.27 1320.64,-64.38"/>
</g>
<!-- Node6 -->
<g id="node6" class="node">
<title>Node6</title>
<g id="a_node6"><a xlink:href="gui_8cpp.html" target="_top" xlink:title=" ">
<polygon fill="none" stroke="black" points="636,-6 636,-25 723,-25 723,-6 636,-6"/>
<text text-anchor="middle" x="679.5" y="-13" font-family="Helvetica,sans-Serif" font-size="10.00">src/gui/gui.cpp</text>
</a>
</g>
</g>
<!-- Node4&#45;&gt;Node6 -->
<g id="edge5" class="edge">
<title>Node4&#45;&gt;Node6</title>
<path fill="none" stroke="midnightblue" d="M1260.69,-70.51C1254.96,-69.18 1249.1,-67.96 1243.5,-67 1051.39,-34.18 818.58,-21.91 723.33,-18.04"/>
<polygon fill="midnightblue" stroke="midnightblue" points="1260.27,-74.01 1270.81,-72.99 1261.93,-67.21 1260.27,-74.01"/>
</g>
<!-- Node7 -->
<g id="node7" class="node">
<title>Node7</title>
<g id="a_node7"><a xlink:href="main_8cpp.html" target="_top" xlink:title="This file defines and implements the main function of the application.">
<polygon fill="none" stroke="black" points="1257,-6 1257,-25 1336,-25 1336,-6 1257,-6"/>
<text text-anchor="middle" x="1296.5" y="-13" font-family="Helvetica,sans-Serif" font-size="10.00">src/main.cpp</text>
</a>
</g>
</g>
<!-- Node4&#45;&gt;Node7 -->
<g id="edge6" class="edge">
<title>Node4&#45;&gt;Node7</title>
<path fill="none" stroke="midnightblue" d="M1299.33,-62.54C1298.57,-50.17 1297.62,-34.62 1297.03,-25.13"/>
<polygon fill="midnightblue" stroke="midnightblue" points="1295.85,-62.97 1299.96,-72.73 1302.84,-62.54 1295.85,-62.97"/>
</g>
<!-- Node8&#45;&gt;Node6 -->
<g id="edge8" class="edge">
<title>Node8&#45;&gt;Node6</title>
<path fill="none" stroke="midnightblue" d="M141.13,-66.87C334.69,-40.59 386.61,-52.39 577.5,-31 596.7,-28.85 617.85,-25.93 635.89,-23.28"/>
<polygon fill="midnightblue" stroke="midnightblue" points="140.63,-63.4 131.2,-68.23 141.59,-70.34 140.63,-63.4"/>
</g>
<!-- Node9 -->
<g id="node9" class="node">
<title>Node9</title>
<g id="a_node9"><a xlink:href="control__window_8cpp.html" target="_top" xlink:title=" ">
<polygon fill="none" stroke="black" points="0,-0.5 0,-30.5 131,-30.5 131,-0.5 0,-0.5"/>
<text text-anchor="start" x="8" y="-18.5" font-family="Helvetica,sans-Serif" font-size="10.00">src/gui/windows/control</text>
<text text-anchor="middle" x="65.5" y="-7.5" font-family="Helvetica,sans-Serif" font-size="10.00">_window.cpp</text>
</a>
</g>
</g>
<!-- Node8&#45;&gt;Node9 -->
<g id="edge9" class="edge">
<title>Node8&#45;&gt;Node9</title>
<path fill="none" stroke="midnightblue" d="M65.5,-57.11C65.5,-48.15 65.5,-38.32 65.5,-30.58"/>
<polygon fill="midnightblue" stroke="midnightblue" points="62,-57.4 65.5,-67.4 69,-57.4 62,-57.4"/>
</g>
<!-- Node10&#45;&gt;Node6 -->
<g id="edge11" class="edge">
<title>Node10&#45;&gt;Node6</title>
<path fill="none" stroke="midnightblue" d="M272.28,-66.98C408.24,-44.47 444.89,-48.22 577.5,-31 596.66,-28.51 617.8,-25.54 635.85,-22.94"/>
<polygon fill="midnightblue" stroke="midnightblue" points="271.6,-63.54 262.31,-68.64 272.75,-70.45 271.6,-63.54"/>
</g>
<!-- Node11 -->
<g id="node11" class="node">
<title>Node11</title>
<g id="a_node11"><a xlink:href="file__window_8cpp.html" target="_top" xlink:title=" ">
<polygon fill="none" stroke="black" points="149,-0.5 149,-30.5 262,-30.5 262,-0.5 149,-0.5"/>
<text text-anchor="start" x="157" y="-18.5" font-family="Helvetica,sans-Serif" font-size="10.00">src/gui/windows/file</text>
<text text-anchor="middle" x="205.5" y="-7.5" font-family="Helvetica,sans-Serif" font-size="10.00">_window.cpp</text>
</a>
</g>
</g>
<!-- Node10&#45;&gt;Node11 -->
<g id="edge12" class="edge">
<title>Node10&#45;&gt;Node11</title>
<path fill="none" stroke="midnightblue" d="M205.5,-57.11C205.5,-48.15 205.5,-38.32 205.5,-30.58"/>
<polygon fill="midnightblue" stroke="midnightblue" points="202,-57.4 205.5,-67.4 209,-57.4 202,-57.4"/>
</g>
<!-- Node12&#45;&gt;Node6 -->
<g id="edge14" class="edge">
<title>Node12&#45;&gt;Node6</title>
<path fill="none" stroke="midnightblue" d="M430.85,-65.63C495.54,-52.84 584,-35.37 636.11,-25.07"/>
<polygon fill="midnightblue" stroke="midnightblue" points="429.81,-62.26 420.68,-67.64 431.16,-69.13 429.81,-62.26"/>
</g>
<!-- Node13 -->
<g id="node13" class="node">
<title>Node13</title>
<g id="a_node13"><a xlink:href="registers__window_8cpp.html" target="_top" xlink:title=" ">
<polygon fill="none" stroke="black" points="280.5,-0.5 280.5,-30.5 420.5,-30.5 420.5,-0.5 280.5,-0.5"/>
<text text-anchor="start" x="288.5" y="-18.5" font-family="Helvetica,sans-Serif" font-size="10.00">src/gui/windows/registers</text>
<text text-anchor="middle" x="350.5" y="-7.5" font-family="Helvetica,sans-Serif" font-size="10.00">_window.cpp</text>
</a>
</g>
</g>
<!-- Node12&#45;&gt;Node13 -->
<g id="edge15" class="edge">
<title>Node12&#45;&gt;Node13</title>
<path fill="none" stroke="midnightblue" d="M350.5,-57.11C350.5,-48.15 350.5,-38.32 350.5,-30.58"/>
<polygon fill="midnightblue" stroke="midnightblue" points="347,-57.4 350.5,-67.4 354,-57.4 347,-57.4"/>
</g>
<!-- Node14&#45;&gt;Node6 -->
<g id="edge17" class="edge">
<title>Node14&#45;&gt;Node6</title>
<path fill="none" stroke="midnightblue" d="M551.47,-63.78C585.6,-51.18 629.93,-34.81 656.47,-25.01"/>
<polygon fill="midnightblue" stroke="midnightblue" points="549.86,-60.65 541.69,-67.4 552.28,-67.21 549.86,-60.65"/>
</g>
<!-- Node15 -->
<g id="node15" class="node">
<title>Node15</title>
<g id="a_node15"><a xlink:href="source__code__window_8cpp.html" target="_top" xlink:title=" ">
<polygon fill="none" stroke="black" points="438.5,-0.5 438.5,-30.5 568.5,-30.5 568.5,-0.5 438.5,-0.5"/>
<text text-anchor="start" x="446.5" y="-18.5" font-family="Helvetica,sans-Serif" font-size="10.00">src/gui/windows/source</text>
<text text-anchor="middle" x="503.5" y="-7.5" font-family="Helvetica,sans-Serif" font-size="10.00">_code_window.cpp</text>
</a>
</g>
</g>
<!-- Node14&#45;&gt;Node15 -->
<g id="edge18" class="edge">
<title>Node14&#45;&gt;Node15</title>
<path fill="none" stroke="midnightblue" d="M503.5,-57.11C503.5,-48.15 503.5,-38.32 503.5,-30.58"/>
<polygon fill="midnightblue" stroke="midnightblue" points="500,-57.4 503.5,-67.4 507,-57.4 500,-57.4"/>
</g>
<!-- Node16&#45;&gt;Node4 -->
<g id="edge21" class="edge">
<title>Node16&#45;&gt;Node4</title>
<path fill="none" stroke="midnightblue" d="M1198.63,-130.13C1225.96,-117.62 1260.87,-101.64 1281.92,-92.01"/>
<polygon fill="midnightblue" stroke="midnightblue" points="1196.95,-127.05 1189.31,-134.4 1199.86,-133.42 1196.95,-127.05"/>
</g>
<!-- Node17 -->
<g id="node17" class="node">
<title>Node17</title>
<g id="a_node17"><a xlink:href="arm__timer_8cpp.html" target="_top" xlink:title="This file implements the ARM timer used in BCM2835 as defined in arm_timer.hpp.">
<polygon fill="none" stroke="black" points="951,-67.5 951,-97.5 1064,-97.5 1064,-67.5 951,-67.5"/>
<text text-anchor="start" x="959" y="-85.5" font-family="Helvetica,sans-Serif" font-size="10.00">src/core/peripherals</text>
<text text-anchor="middle" x="1007.5" y="-74.5" font-family="Helvetica,sans-Serif" font-size="10.00">/arm_timer.cpp</text>
</a>
</g>
</g>
<!-- Node16&#45;&gt;Node17 -->
<g id="edge20" class="edge">
<title>Node16&#45;&gt;Node17</title>
<path fill="none" stroke="midnightblue" d="M1116.47,-130.41C1092.36,-120.03 1062.55,-107.2 1040.2,-97.58"/>
<polygon fill="midnightblue" stroke="midnightblue" points="1115.17,-133.66 1125.74,-134.4 1117.93,-127.23 1115.17,-133.66"/>
</g>
<!-- Node18 -->
<g id="node18" class="node">
<title>Node18</title>
<g id="a_node18"><a xlink:href="arm__timer__window_8hpp.html" target="_top" xlink:title=" ">
<polygon fill="none" stroke="black" points="1082.5,-67.5 1082.5,-97.5 1234.5,-97.5 1234.5,-67.5 1082.5,-67.5"/>
<text text-anchor="start" x="1090.5" y="-85.5" font-family="Helvetica,sans-Serif" font-size="10.00">src/gui/windows/peripherals</text>
<text text-anchor="middle" x="1158.5" y="-74.5" font-family="Helvetica,sans-Serif" font-size="10.00">/arm_timer_window.hpp</text>
</a>
</g>
</g>
<!-- Node16&#45;&gt;Node18 -->
<g id="edge22" class="edge">
<title>Node16&#45;&gt;Node18</title>
<path fill="none" stroke="midnightblue" d="M1158.5,-124.11C1158.5,-115.15 1158.5,-105.32 1158.5,-97.58"/>
<polygon fill="midnightblue" stroke="midnightblue" points="1155,-124.4 1158.5,-134.4 1162,-124.4 1155,-124.4"/>
</g>
<!-- Node18&#45;&gt;Node6 -->
<g id="edge23" class="edge">
<title>Node18&#45;&gt;Node6</title>
<path fill="none" stroke="midnightblue" d="M1072.11,-66.83C939.15,-47.15 793.95,-29.73 723.02,-21.48"/>
<polygon fill="midnightblue" stroke="midnightblue" points="1071.66,-70.3 1082.07,-68.31 1072.69,-63.37 1071.66,-70.3"/>
</g>
<!-- Node19 -->
<g id="node19" class="node">
<title>Node19</title>
<g id="a_node19"><a xlink:href="arm__timer__window_8cpp.html" target="_top" xlink:title=" ">
<polygon fill="none" stroke="black" points="1082.5,-0.5 1082.5,-30.5 1234.5,-30.5 1234.5,-0.5 1082.5,-0.5"/>
<text text-anchor="start" x="1090.5" y="-18.5" font-family="Helvetica,sans-Serif" font-size="10.00">src/gui/windows/peripherals</text>
<text text-anchor="middle" x="1158.5" y="-7.5" font-family="Helvetica,sans-Serif" font-size="10.00">/arm_timer_window.cpp</text>
</a>
</g>
</g>
<!-- Node18&#45;&gt;Node19 -->
<g id="edge24" class="edge">
<title>Node18&#45;&gt;Node19</title>
<path fill="none" stroke="midnightblue" d="M1158.5,-57.11C1158.5,-48.15 1158.5,-38.32 1158.5,-30.58"/>
<polygon fill="midnightblue" stroke="midnightblue" points="1155,-57.4 1158.5,-67.4 1162,-57.4 1155,-57.4"/>
</g>
<!-- Node20&#45;&gt;Node4 -->
<g id="edge27" class="edge">
<title>Node20&#45;&gt;Node4</title>
<path fill="none" stroke="midnightblue" d="M1318.35,-124.94C1313.44,-113.54 1307.84,-100.55 1304.25,-92.19"/>
<polygon fill="midnightblue" stroke="midnightblue" points="1315.25,-126.6 1322.42,-134.4 1321.68,-123.83 1315.25,-126.6"/>
</g>
<!-- Node21 -->
<g id="node21" class="node">
<title>Node21</title>
<g id="a_node21"><a xlink:href="gpio_8cpp.html" target="_top" xlink:title="This file implements the GPIO controller used in BCM2835 (defined in gpio.hpp).">
<polygon fill="none" stroke="black" points="1366,-67.5 1366,-97.5 1479,-97.5 1479,-67.5 1366,-67.5"/>
<text text-anchor="start" x="1374" y="-85.5" font-family="Helvetica,sans-Serif" font-size="10.00">src/core/peripherals</text>
<text text-anchor="middle" x="1422.5" y="-74.5" font-family="Helvetica,sans-Serif" font-size="10.00">/gpio.cpp</text>
</a>
</g>
</g>
<!-- Node20&#45;&gt;Node21 -->
<g id="edge26" class="edge">
<title>Node20&#45;&gt;Node21</title>
<path fill="none" stroke="midnightblue" d="M1357.49,-128.45C1371.95,-118.45 1389.09,-106.6 1402.14,-97.58"/>
<polygon fill="midnightblue" stroke="midnightblue" points="1355.13,-125.83 1348.9,-134.4 1359.11,-131.59 1355.13,-125.83"/>
</g>
<!-- Node22 -->
<g id="node22" class="node">
<title>Node22</title>
<g id="a_node22"><a xlink:href="gpio__window_8hpp.html" target="_top" xlink:title=" ">
<polygon fill="none" stroke="black" points="1497.5,-67.5 1497.5,-97.5 1649.5,-97.5 1649.5,-67.5 1497.5,-67.5"/>
<text text-anchor="start" x="1505.5" y="-85.5" font-family="Helvetica,sans-Serif" font-size="10.00">src/gui/windows/peripherals</text>
<text text-anchor="middle" x="1573.5" y="-74.5" font-family="Helvetica,sans-Serif" font-size="10.00">/gpio_window.hpp</text>
</a>
</g>
</g>
<!-- Node20&#45;&gt;Node22 -->
<g id="edge28" class="edge">
<title>Node20&#45;&gt;Node22</title>
<path fill="none" stroke="midnightblue" d="M1391.26,-131.85C1431.2,-121.25 1482.37,-107.68 1520.31,-97.61"/>
<polygon fill="midnightblue" stroke="midnightblue" points="1390.13,-128.53 1381.36,-134.48 1391.92,-135.29 1390.13,-128.53"/>
</g>
<!-- Node22&#45;&gt;Node6 -->
<g id="edge29" class="edge">
<title>Node22&#45;&gt;Node6</title>
<path fill="none" stroke="midnightblue" d="M1486.98,-66.9C1189.5,-32.91 843.19,-20.93 723.05,-17.59"/>
<polygon fill="midnightblue" stroke="midnightblue" points="1486.76,-70.4 1497.1,-68.07 1487.57,-63.45 1486.76,-70.4"/>
</g>
<!-- Node23 -->
<g id="node23" class="node">
<title>Node23</title>
<g id="a_node23"><a xlink:href="gpio__window_8cpp.html" target="_top" xlink:title=" ">
<polygon fill="none" stroke="black" points="1497.5,-0.5 1497.5,-30.5 1649.5,-30.5 1649.5,-0.5 1497.5,-0.5"/>
<text text-anchor="start" x="1505.5" y="-18.5" font-family="Helvetica,sans-Serif" font-size="10.00">src/gui/windows/peripherals</text>
<text text-anchor="middle" x="1573.5" y="-7.5" font-family="Helvetica,sans-Serif" font-size="10.00">/gpio_window.cpp</text>
</a>
</g>
</g>
<!-- Node22&#45;&gt;Node23 -->
<g id="edge30" class="edge">
<title>Node22&#45;&gt;Node23</title>
<path fill="none" stroke="midnightblue" d="M1573.5,-57.11C1573.5,-48.15 1573.5,-38.32 1573.5,-30.58"/>
<polygon fill="midnightblue" stroke="midnightblue" points="1570,-57.4 1573.5,-67.4 1577,-57.4 1570,-57.4"/>
</g>
<!-- Node25&#45;&gt;Node6 -->
<g id="edge34" class="edge">
<title>Node25&#45;&gt;Node6</title>
<path fill="none" stroke="midnightblue" d="M800.33,-130.07C782.92,-121.68 763.35,-110.76 747.5,-98 719.94,-75.82 695.47,-41.06 684.96,-25.07"/>
<polygon fill="midnightblue" stroke="midnightblue" points="799.2,-133.41 809.74,-134.47 802.16,-127.07 799.2,-133.41"/>
</g>
<!-- Node26 -->
<g id="node26" class="node">
<title>Node26</title>
<g id="a_node26"><a xlink:href="interrupt__controller__window_8cpp.html" target="_top" xlink:title=" ">
<polygon fill="none" stroke="black" points="756.5,-67.5 756.5,-97.5 932.5,-97.5 932.5,-67.5 756.5,-67.5"/>
<text text-anchor="start" x="764.5" y="-85.5" font-family="Helvetica,sans-Serif" font-size="10.00">src/gui/windows/peripherals</text>
<text text-anchor="middle" x="844.5" y="-74.5" font-family="Helvetica,sans-Serif" font-size="10.00">/interrupt_controller_window.cpp</text>
</a>
</g>
</g>
<!-- Node25&#45;&gt;Node26 -->
<g id="edge35" class="edge">
<title>Node25&#45;&gt;Node26</title>
<path fill="none" stroke="midnightblue" d="M844.5,-124.11C844.5,-115.15 844.5,-105.32 844.5,-97.58"/>
<polygon fill="midnightblue" stroke="midnightblue" points="841,-124.4 844.5,-134.4 848,-124.4 841,-124.4"/>
</g>
</g>
</svg>
