<?xml version="1.0" encoding="UTF-8" standalone="no"?>
<!DOCTYPE svg PUBLIC "-//W3C//DTD SVG 1.1//EN"
 "http://www.w3.org/Graphics/SVG/1.1/DTD/svg11.dtd">
<!-- Generated by graphviz version 2.43.0 (0)
 -->
<!-- Title: src/gui/windows/peripherals/interrupt_controller_window.cpp Pages: 1 -->
<svg width="569pt" height="341pt"
 viewBox="0.00 0.00 569.00 341.00" xmlns="http://www.w3.org/2000/svg" xmlns:xlink="http://www.w3.org/1999/xlink">
<g id="graph0" class="graph" transform="scale(1 1) rotate(0) translate(4 337)">
<title>src/gui/windows/peripherals/interrupt_controller_window.cpp</title>
<!-- Node1 -->
<g id="node1" class="node">
<title>Node1</title>
<g id="a_node1"><a xlink:title=" ">
<polygon fill="#bfbfbf" stroke="black" points="24.5,-302.5 24.5,-332.5 200.5,-332.5 200.5,-302.5 24.5,-302.5"/>
<text text-anchor="start" x="32.5" y="-320.5" font-family="Helvetica,sans-Serif" font-size="10.00">src/gui/windows/peripherals</text>
<text text-anchor="middle" x="112.5" y="-309.5" font-family="Helvetica,sans-Serif" font-size="10.00">/interrupt_controller_window.cpp</text>
</a>
</g>
</g>
<!-- Node2 -->
<g id="node2" class="node">
<title>Node2</title>
<g id="a_node2"><a xlink:title=" ">
<polygon fill="none" stroke="#bfbfbf" points="0,-241 0,-260 101,-260 101,-241 0,-241"/>
<text text-anchor="middle" x="50.5" y="-248" font-family="Helvetica,sans-Serif" font-size="10.00">magic_enum.hpp</text>
</a>
</g>
</g>
<!-- Node1&#45;&gt;Node2 -->
<g id="edge1" class="edge">
<title>Node1&#45;&gt;Node2</title>
<path fill="none" stroke="midnightblue" d="M99.05,-302.4C89.28,-292.16 76.06,-278.3 65.88,-267.62"/>
<polygon fill="midnightblue" stroke="midnightblue" points="68.23,-265.01 58.79,-260.19 63.16,-269.85 68.23,-265.01"/>
</g>
<!-- Node3 -->
<g id="node3" class="node">
<title>Node3</title>
<g id="a_node3"><a xlink:href="interrupt__controller__window_8hpp.html" target="_top" xlink:title=" ">
<polygon fill="none" stroke="black" points="119.5,-235.5 119.5,-265.5 229.5,-265.5 229.5,-235.5 119.5,-235.5"/>
<text text-anchor="start" x="127.5" y="-253.5" font-family="Helvetica,sans-Serif" font-size="10.00">interrupt_controller</text>
<text text-anchor="middle" x="174.5" y="-242.5" font-family="Helvetica,sans-Serif" font-size="10.00">_window.hpp</text>
</a>
</g>
</g>
<!-- Node1&#45;&gt;Node3 -->
<g id="edge2" class="edge">
<title>Node1&#45;&gt;Node3</title>
<path fill="none" stroke="midnightblue" d="M125.95,-302.4C134.16,-293.79 144.81,-282.63 154.05,-272.94"/>
<polygon fill="midnightblue" stroke="midnightblue" points="156.7,-275.23 161.07,-265.58 151.64,-270.4 156.7,-275.23"/>
</g>
<!-- Node4 -->
<g id="node4" class="node">
<title>Node4</title>
<g id="a_node4"><a xlink:title=" ">
<polygon fill="none" stroke="#bfbfbf" points="43.5,-0.5 43.5,-19.5 101.5,-19.5 101.5,-0.5 43.5,-0.5"/>
<text text-anchor="middle" x="72.5" y="-7.5" font-family="Helvetica,sans-Serif" font-size="10.00">memory</text>
</a>
</g>
</g>
<!-- Node3&#45;&gt;Node4 -->
<g id="edge3" class="edge">
<title>Node3&#45;&gt;Node4</title>
<path fill="none" stroke="midnightblue" d="M167.23,-235.48C162.09,-225.42 155.14,-211.48 149.5,-199 121.73,-137.51 92.47,-62.94 79.45,-29.17"/>
<polygon fill="midnightblue" stroke="midnightblue" points="82.67,-27.79 75.81,-19.71 76.13,-30.3 82.67,-27.79"/>
</g>
<!-- Node5 -->
<g id="node5" class="node">
<title>Node5</title>
<g id="a_node5"><a xlink:title=" ">
<polygon fill="none" stroke="#bfbfbf" points="311,-174 311,-193 364,-193 364,-174 311,-174"/>
<text text-anchor="middle" x="337.5" y="-181" font-family="Helvetica,sans-Serif" font-size="10.00">imgui.h</text>
</a>
</g>
</g>
<!-- Node3&#45;&gt;Node5 -->
<g id="edge4" class="edge">
<title>Node3&#45;&gt;Node5</title>
<path fill="none" stroke="midnightblue" d="M210.1,-235.39C235.57,-225.29 270.66,-211.34 301.5,-199 303.13,-198.35 304.81,-197.67 306.5,-197"/>
<polygon fill="midnightblue" stroke="midnightblue" points="308.21,-200.08 316.19,-193.1 305.6,-193.59 308.21,-200.08"/>
</g>
<!-- Node6 -->
<g id="node6" class="node">
<title>Node6</title>
<g id="a_node6"><a xlink:href="window_8hpp.html" target="_top" xlink:title=" ">
<polygon fill="none" stroke="black" points="4.5,-112.5 4.5,-131.5 96.5,-131.5 96.5,-112.5 4.5,-112.5"/>
<text text-anchor="middle" x="50.5" y="-119.5" font-family="Helvetica,sans-Serif" font-size="10.00">../../window.hpp</text>
</a>
</g>
</g>
<!-- Node3&#45;&gt;Node6 -->
<g id="edge5" class="edge">
<title>Node3&#45;&gt;Node6</title>
<path fill="none" stroke="midnightblue" d="M154.18,-235.37C141.07,-225.81 124.01,-212.51 110.5,-199 91.82,-180.32 73.46,-155.93 62.07,-139.89"/>
<polygon fill="midnightblue" stroke="midnightblue" points="64.82,-137.7 56.22,-131.51 59.08,-141.71 64.82,-137.7"/>
</g>
<!-- Node7 -->
<g id="node7" class="node">
<title>Node7</title>
<g id="a_node7"><a xlink:href="interrupt__controller_8hpp.html" target="_top" xlink:title=" ">
<polygon fill="none" stroke="black" points="158.5,-168.5 158.5,-198.5 292.5,-198.5 292.5,-168.5 158.5,-168.5"/>
<text text-anchor="start" x="166.5" y="-186.5" font-family="Helvetica,sans-Serif" font-size="10.00">../../../core/peripherals</text>
<text text-anchor="middle" x="225.5" y="-175.5" font-family="Helvetica,sans-Serif" font-size="10.00">/interrupt_controller.hpp</text>
</a>
</g>
</g>
<!-- Node3&#45;&gt;Node7 -->
<g id="edge7" class="edge">
<title>Node3&#45;&gt;Node7</title>
<path fill="none" stroke="midnightblue" d="M185.57,-235.4C192.18,-226.96 200.73,-216.07 208.22,-206.52"/>
<polygon fill="midnightblue" stroke="midnightblue" points="211.04,-208.6 214.46,-198.58 205.53,-204.28 211.04,-208.6"/>
</g>
<!-- Node6&#45;&gt;Node4 -->
<g id="edge6" class="edge">
<title>Node6&#45;&gt;Node4</title>
<path fill="none" stroke="midnightblue" d="M52.23,-112.37C55.78,-94.62 63.97,-53.67 68.78,-29.6"/>
<polygon fill="midnightblue" stroke="midnightblue" points="72.25,-30.08 70.78,-19.59 65.39,-28.71 72.25,-30.08"/>
</g>
<!-- Node8 -->
<g id="node8" class="node">
<title>Node8</title>
<g id="a_node8"><a xlink:title=" ">
<polygon fill="none" stroke="#bfbfbf" points="152.5,-56.5 152.5,-75.5 194.5,-75.5 194.5,-56.5 152.5,-56.5"/>
<text text-anchor="middle" x="173.5" y="-63.5" font-family="Helvetica,sans-Serif" font-size="10.00">array</text>
</a>
</g>
</g>
<!-- Node7&#45;&gt;Node8 -->
<g id="edge8" class="edge">
<title>Node7&#45;&gt;Node8</title>
<path fill="none" stroke="midnightblue" d="M219.12,-168.34C209.67,-147.34 191.94,-107.96 181.58,-84.96"/>
<polygon fill="midnightblue" stroke="midnightblue" points="184.7,-83.35 177.4,-75.67 178.32,-86.22 184.7,-83.35"/>
</g>
<!-- Node9 -->
<g id="node9" class="node">
<title>Node9</title>
<g id="a_node9"><a xlink:title=" ">
<polygon fill="none" stroke="#bfbfbf" points="403,-56.5 403,-75.5 496,-75.5 496,-56.5 403,-56.5"/>
<text text-anchor="middle" x="449.5" y="-63.5" font-family="Helvetica,sans-Serif" font-size="10.00">unordered_map</text>
</a>
</g>
</g>
<!-- Node7&#45;&gt;Node9 -->
<g id="edge9" class="edge">
<title>Node7&#45;&gt;Node9</title>
<path fill="none" stroke="midnightblue" d="M287.72,-168.47C338.79,-156.52 404.31,-140.06 414.5,-132 429.55,-120.1 438.96,-99.9 444.19,-85.17"/>
<polygon fill="midnightblue" stroke="midnightblue" points="447.54,-86.2 447.28,-75.61 440.87,-84.05 447.54,-86.2"/>
</g>
<!-- Node10 -->
<g id="node10" class="node">
<title>Node10</title>
<g id="a_node10"><a xlink:href="peripheral_8hpp.html" target="_top" xlink:title=" ">
<polygon fill="none" stroke="black" points="474,-112.5 474,-131.5 561,-131.5 561,-112.5 474,-112.5"/>
<text text-anchor="middle" x="517.5" y="-119.5" font-family="Helvetica,sans-Serif" font-size="10.00">peripheral.hpp</text>
</a>
</g>
</g>
<!-- Node7&#45;&gt;Node10 -->
<g id="edge10" class="edge">
<title>Node7&#45;&gt;Node10</title>
<path fill="none" stroke="midnightblue" d="M292.86,-168.77C345.53,-158.04 417.68,-143.34 465.85,-133.52"/>
<polygon fill="midnightblue" stroke="midnightblue" points="466.65,-136.93 475.75,-131.51 465.25,-130.07 466.65,-136.93"/>
</g>
<!-- Node12 -->
<g id="node12" class="node">
<title>Node12</title>
<g id="a_node12"><a xlink:href="context_8hpp.html" target="_top" xlink:title=" ">
<polygon fill="none" stroke="black" points="253.5,-112.5 253.5,-131.5 405.5,-131.5 405.5,-112.5 253.5,-112.5"/>
<text text-anchor="middle" x="329.5" y="-119.5" font-family="Helvetica,sans-Serif" font-size="10.00">../arm1176jzf_s/context.hpp</text>
</a>
</g>
</g>
<!-- Node7&#45;&gt;Node12 -->
<g id="edge12" class="edge">
<title>Node7&#45;&gt;Node12</title>
<path fill="none" stroke="midnightblue" d="M250.15,-168.4C266.82,-158.86 288.73,-146.32 305.31,-136.84"/>
<polygon fill="midnightblue" stroke="midnightblue" points="307.43,-139.66 314.37,-131.66 303.95,-133.59 307.43,-139.66"/>
</g>
<!-- Node13 -->
<g id="node13" class="node">
<title>Node13</title>
<g id="a_node13"><a xlink:href="logger_8hpp.html" target="_top" xlink:title=" ">
<polygon fill="none" stroke="black" points="212.5,-56.5 212.5,-75.5 346.5,-75.5 346.5,-56.5 212.5,-56.5"/>
<text text-anchor="middle" x="279.5" y="-63.5" font-family="Helvetica,sans-Serif" font-size="10.00">../utils/logger/logger.hpp</text>
</a>
</g>
</g>
<!-- Node7&#45;&gt;Node13 -->
<g id="edge23" class="edge">
<title>Node7&#45;&gt;Node13</title>
<path fill="none" stroke="midnightblue" d="M227.6,-168.4C230.17,-153.73 235.34,-130.38 244.5,-112 249.67,-101.61 257.45,-91.3 264.36,-83.17"/>
<polygon fill="midnightblue" stroke="midnightblue" points="267.08,-85.38 271.11,-75.58 261.85,-80.73 267.08,-85.38"/>
</g>
<!-- Node11 -->
<g id="node11" class="node">
<title>Node11</title>
<g id="a_node11"><a xlink:title=" ">
<polygon fill="none" stroke="#bfbfbf" points="454.5,-0.5 454.5,-19.5 504.5,-19.5 504.5,-0.5 454.5,-0.5"/>
<text text-anchor="middle" x="479.5" y="-7.5" font-family="Helvetica,sans-Serif" font-size="10.00">cstdint</text>
</a>
</g>
</g>
<!-- Node10&#45;&gt;Node11 -->
<g id="edge11" class="edge">
<title>Node10&#45;&gt;Node11</title>
<path fill="none" stroke="midnightblue" d="M516.84,-112.34C515.68,-99.64 512.65,-75.38 505.5,-56 501.91,-46.26 496.3,-36.19 491.21,-28.06"/>
<polygon fill="midnightblue" stroke="midnightblue" points="494.03,-25.97 485.62,-19.52 488.17,-29.81 494.03,-25.97"/>
</g>
<!-- Node12&#45;&gt;Node8 -->
<g id="edge13" class="edge">
<title>Node12&#45;&gt;Node8</title>
<path fill="none" stroke="midnightblue" d="M304.78,-112.44C277.58,-103.03 233.8,-87.87 204.37,-77.68"/>
<polygon fill="midnightblue" stroke="midnightblue" points="205.2,-74.27 194.6,-74.3 202.91,-80.88 205.2,-74.27"/>
</g>
<!-- Node12&#45;&gt;Node9 -->
<g id="edge15" class="edge">
<title>Node12&#45;&gt;Node9</title>
<path fill="none" stroke="midnightblue" d="M348.51,-112.44C368.09,-103.64 398.81,-89.81 421.23,-79.72"/>
<polygon fill="midnightblue" stroke="midnightblue" points="422.89,-82.81 430.57,-75.52 420.02,-76.43 422.89,-82.81"/>
</g>
<!-- Node12&#45;&gt;Node11 -->
<g id="edge14" class="edge">
<title>Node12&#45;&gt;Node11</title>
<path fill="none" stroke="midnightblue" d="M336.8,-112.17C348.14,-98.83 371.14,-73.26 394.5,-56 411.68,-43.31 432.91,-32.07 449.85,-24"/>
<polygon fill="midnightblue" stroke="midnightblue" points="451.68,-27.01 459.27,-19.62 448.73,-20.66 451.68,-27.01"/>
</g>
<!-- Node12&#45;&gt;Node13 -->
<g id="edge16" class="edge">
<title>Node12&#45;&gt;Node13</title>
<path fill="none" stroke="midnightblue" d="M321.24,-112.08C314.04,-104.3 303.39,-92.8 294.65,-83.37"/>
<polygon fill="midnightblue" stroke="midnightblue" points="296.97,-80.71 287.6,-75.75 291.83,-85.47 296.97,-80.71"/>
</g>
<!-- Node13&#45;&gt;Node4 -->
<g id="edge19" class="edge">
<title>Node13&#45;&gt;Node4</title>
<path fill="none" stroke="midnightblue" d="M246.7,-56.44C210.07,-46.89 150.82,-31.43 111.76,-21.24"/>
<polygon fill="midnightblue" stroke="midnightblue" points="112.36,-17.78 101.8,-18.64 110.59,-24.55 112.36,-17.78"/>
</g>
<!-- Node13&#45;&gt;Node11 -->
<g id="edge20" class="edge">
<title>Node13&#45;&gt;Node11</title>
<path fill="none" stroke="midnightblue" d="M311.19,-56.44C347.44,-46.66 406.61,-30.68 444.28,-20.51"/>
<polygon fill="midnightblue" stroke="midnightblue" points="445.55,-23.79 454.29,-17.81 443.72,-17.03 445.55,-23.79"/>
</g>
<!-- Node14 -->
<g id="node14" class="node">
<title>Node14</title>
<g id="a_node14"><a xlink:title=" ">
<polygon fill="none" stroke="#bfbfbf" points="322.5,-0.5 322.5,-19.5 370.5,-19.5 370.5,-0.5 322.5,-0.5"/>
<text text-anchor="middle" x="346.5" y="-7.5" font-family="Helvetica,sans-Serif" font-size="10.00">mutex</text>
</a>
</g>
</g>
<!-- Node13&#45;&gt;Node14 -->
<g id="edge17" class="edge">
<title>Node13&#45;&gt;Node14</title>
<path fill="none" stroke="midnightblue" d="M290.26,-56.32C300.27,-48.26 315.39,-36.08 327.43,-26.37"/>
<polygon fill="midnightblue" stroke="midnightblue" points="329.95,-28.83 335.54,-19.83 325.56,-23.38 329.95,-28.83"/>
</g>
<!-- Node15 -->
<g id="node15" class="node">
<title>Node15</title>
<g id="a_node15"><a xlink:title=" ">
<polygon fill="none" stroke="#bfbfbf" points="389,-0.5 389,-19.5 436,-19.5 436,-0.5 389,-0.5"/>
<text text-anchor="middle" x="412.5" y="-7.5" font-family="Helvetica,sans-Serif" font-size="10.00">vector</text>
</a>
</g>
</g>
<!-- Node13&#45;&gt;Node15 -->
<g id="edge18" class="edge">
<title>Node13&#45;&gt;Node15</title>
<path fill="none" stroke="midnightblue" d="M300.57,-56.44C322.56,-47.52 357.23,-33.44 382.16,-23.32"/>
<polygon fill="midnightblue" stroke="midnightblue" points="383.58,-26.52 391.52,-19.52 380.94,-20.04 383.58,-26.52"/>
</g>
<!-- Node16 -->
<g id="node16" class="node">
<title>Node16</title>
<g id="a_node16"><a xlink:title=" ">
<polygon fill="none" stroke="#bfbfbf" points="120,-0.5 120,-19.5 193,-19.5 193,-0.5 120,-0.5"/>
<text text-anchor="middle" x="156.5" y="-7.5" font-family="Helvetica,sans-Serif" font-size="10.00">string_view</text>
</a>
</g>
</g>
<!-- Node13&#45;&gt;Node16 -->
<g id="edge21" class="edge">
<title>Node13&#45;&gt;Node16</title>
<path fill="none" stroke="midnightblue" d="M260.01,-56.44C239.86,-47.6 208.18,-33.69 185.17,-23.59"/>
<polygon fill="midnightblue" stroke="midnightblue" points="186.46,-20.33 175.9,-19.52 183.65,-26.74 186.46,-20.33"/>
</g>
<!-- Node17 -->
<g id="node17" class="node">
<title>Node17</title>
<g id="a_node17"><a xlink:title=" ">
<polygon fill="none" stroke="#bfbfbf" points="211,-0.5 211,-19.5 304,-19.5 304,-0.5 211,-0.5"/>
<text text-anchor="middle" x="257.5" y="-7.5" font-family="Helvetica,sans-Serif" font-size="10.00">source_location</text>
</a>
</g>
</g>
<!-- Node13&#45;&gt;Node17 -->
<g id="edge22" class="edge">
<title>Node13&#45;&gt;Node17</title>
<path fill="none" stroke="midnightblue" d="M275.87,-56.08C272.89,-48.77 268.57,-38.18 264.88,-29.1"/>
<polygon fill="midnightblue" stroke="midnightblue" points="268.08,-27.69 261.07,-19.75 261.6,-30.33 268.08,-27.69"/>
</g>
</g>
</svg>
