<?xml version="1.0" encoding="UTF-8" standalone="no"?>
<!DOCTYPE svg PUBLIC "-//W3C//DTD SVG 1.1//EN"
 "http://www.w3.org/Graphics/SVG/1.1/DTD/svg11.dtd">
<!-- Generated by graphviz version 2.43.0 (0)
 -->
<!-- Title: src/gui/windows/peripherals/interrupt_controller_window.cpp Pages: 1 -->
<svg width="648pt" height="341pt"
 viewBox="0.00 0.00 648.00 341.00" xmlns="http://www.w3.org/2000/svg" xmlns:xlink="http://www.w3.org/1999/xlink">
<g id="graph0" class="graph" transform="scale(1 1) rotate(0) translate(4 337)">
<title>src/gui/windows/peripherals/interrupt_controller_window.cpp</title>
<!-- Node1 -->
<g id="node1" class="node">
<title>Node1</title>
<g id="a_node1"><a xlink:title=" ">
<polygon fill="#bfbfbf" stroke="black" points="24.5,-302.5 24.5,-332.5 200.5,-332.5 200.5,-302.5 24.5,-302.5"/>
<text text-anchor="start" x="32.5" y="-320.5" font-family="Helvetica,sans-Serif" font-size="10.00">src/gui/windows/peripherals</text>
<text text-anchor="middle" x="112.5" y="-309.5" font-family="Helvetica,sans-Serif" font-size="10.00">/interrupt_controller_window.cpp</text>
</a>
</g>
</g>
<!-- Node2 -->
<g id="node2" class="node">
<title>Node2</title>
<g id="a_node2"><a xlink:title=" ">
<polygon fill="none" stroke="#bfbfbf" points="0,-241 0,-260 101,-260 101,-241 0,-241"/>
<text text-anchor="middle" x="50.5" y="-248" font-family="Helvetica,sans-Serif" font-size="10.00">magic_enum.hpp</text>
</a>
</g>
</g>
<!-- Node1&#45;&gt;Node2 -->
<g id="edge1" class="edge">
<title>Node1&#45;&gt;Node2</title>
<path fill="none" stroke="midnightblue" d="M99.05,-302.4C89.28,-292.16 76.06,-278.3 65.88,-267.62"/>
<polygon fill="midnightblue" stroke="midnightblue" points="68.23,-265.01 58.79,-260.19 63.16,-269.85 68.23,-265.01"/>
</g>
<!-- Node3 -->
<g id="node3" class="node">
<title>Node3</title>
<g id="a_node3"><a xlink:href="interrupt__controller__window_8hpp.html" target="_top" xlink:title=" ">
<polygon fill="none" stroke="black" points="119.5,-235.5 119.5,-265.5 229.5,-265.5 229.5,-235.5 119.5,-235.5"/>
<text text-anchor="start" x="127.5" y="-253.5" font-family="Helvetica,sans-Serif" font-size="10.00">interrupt_controller</text>
<text text-anchor="middle" x="174.5" y="-242.5" font-family="Helvetica,sans-Serif" font-size="10.00">_window.hpp</text>
</a>
</g>
</g>
<!-- Node1&#45;&gt;Node3 -->
<g id="edge2" class="edge">
<title>Node1&#45;&gt;Node3</title>
<path fill="none" stroke="midnightblue" d="M125.95,-302.4C134.16,-293.79 144.81,-282.63 154.05,-272.94"/>
<polygon fill="midnightblue" stroke="midnightblue" points="156.7,-275.23 161.07,-265.58 151.64,-270.4 156.7,-275.23"/>
</g>
<!-- Node4 -->
<g id="node4" class="node">
<title>Node4</title>
<g id="a_node4"><a xlink:title=" ">
<polygon fill="none" stroke="#bfbfbf" points="173.5,-0.5 173.5,-19.5 231.5,-19.5 231.5,-0.5 173.5,-0.5"/>
<text text-anchor="middle" x="202.5" y="-7.5" font-family="Helvetica,sans-Serif" font-size="10.00">memory</text>
</a>
</g>
</g>
<!-- Node3&#45;&gt;Node4 -->
<g id="edge3" class="edge">
<title>Node3&#45;&gt;Node4</title>
<path fill="none" stroke="midnightblue" d="M147.2,-235.36C133.8,-226.81 118.96,-214.54 111.5,-199 105.54,-186.58 109.37,-181.61 111.5,-168 119.6,-116.34 118.06,-99.21 147.5,-56 155.83,-43.77 168.43,-33.12 179.47,-25.26"/>
<polygon fill="midnightblue" stroke="midnightblue" points="181.55,-28.08 187.87,-19.57 177.63,-22.28 181.55,-28.08"/>
</g>
<!-- Node5 -->
<g id="node5" class="node">
<title>Node5</title>
<g id="a_node5"><a xlink:title=" ">
<polygon fill="none" stroke="#bfbfbf" points="121,-174 121,-193 174,-193 174,-174 121,-174"/>
<text text-anchor="middle" x="147.5" y="-181" font-family="Helvetica,sans-Serif" font-size="10.00">imgui.h</text>
</a>
</g>
</g>
<!-- Node3&#45;&gt;Node5 -->
<g id="edge4" class="edge">
<title>Node3&#45;&gt;Node5</title>
<path fill="none" stroke="midnightblue" d="M168.64,-235.4C164.64,-225.76 159.3,-212.91 154.99,-202.54"/>
<polygon fill="midnightblue" stroke="midnightblue" points="158.18,-201.09 151.11,-193.19 151.72,-203.77 158.18,-201.09"/>
</g>
<!-- Node6 -->
<g id="node6" class="node">
<title>Node6</title>
<g id="a_node6"><a xlink:href="window_8hpp.html" target="_top" xlink:title=" ">
<polygon fill="none" stroke="black" points="156.5,-56.5 156.5,-75.5 248.5,-75.5 248.5,-56.5 156.5,-56.5"/>
<text text-anchor="middle" x="202.5" y="-63.5" font-family="Helvetica,sans-Serif" font-size="10.00">../../window.hpp</text>
</a>
</g>
</g>
<!-- Node3&#45;&gt;Node6 -->
<g id="edge5" class="edge">
<title>Node3&#45;&gt;Node6</title>
<path fill="none" stroke="midnightblue" d="M176.77,-235.35C178.38,-225.23 180.6,-211.28 182.5,-199 188.75,-158.68 195.86,-111.39 199.69,-85.79"/>
<polygon fill="midnightblue" stroke="midnightblue" points="203.19,-86.06 201.21,-75.65 196.27,-85.02 203.19,-86.06"/>
</g>
<!-- Node7 -->
<g id="node7" class="node">
<title>Node7</title>
<g id="a_node7"><a xlink:href="interrupt__controller_8hpp.html" target="_top" xlink:title="This file defines the interrupt controller used BCM2835.">
<polygon fill="none" stroke="black" points="287.5,-168.5 287.5,-198.5 421.5,-198.5 421.5,-168.5 287.5,-168.5"/>
<text text-anchor="start" x="295.5" y="-186.5" font-family="Helvetica,sans-Serif" font-size="10.00">../../../core/peripherals</text>
<text text-anchor="middle" x="354.5" y="-175.5" font-family="Helvetica,sans-Serif" font-size="10.00">/interrupt_controller.hpp</text>
</a>
</g>
</g>
<!-- Node3&#45;&gt;Node7 -->
<g id="edge7" class="edge">
<title>Node3&#45;&gt;Node7</title>
<path fill="none" stroke="midnightblue" d="M213.56,-235.4C240.68,-225.6 277.01,-212.48 306,-202.02"/>
<polygon fill="midnightblue" stroke="midnightblue" points="307.3,-205.26 315.52,-198.58 304.92,-198.68 307.3,-205.26"/>
</g>
<!-- Node6&#45;&gt;Node4 -->
<g id="edge6" class="edge">
<title>Node6&#45;&gt;Node4</title>
<path fill="none" stroke="midnightblue" d="M202.5,-56.08C202.5,-49.01 202.5,-38.86 202.5,-29.99"/>
<polygon fill="midnightblue" stroke="midnightblue" points="206,-29.75 202.5,-19.75 199,-29.75 206,-29.75"/>
</g>
<!-- Node8 -->
<g id="node8" class="node">
<title>Node8</title>
<g id="a_node8"><a xlink:href="peripheral_8hpp.html" target="_top" xlink:title="This file defines an interface for a memory&#45;mapped peripheral.">
<polygon fill="none" stroke="black" points="231,-112.5 231,-131.5 318,-131.5 318,-112.5 231,-112.5"/>
<text text-anchor="middle" x="274.5" y="-119.5" font-family="Helvetica,sans-Serif" font-size="10.00">peripheral.hpp</text>
</a>
</g>
</g>
<!-- Node7&#45;&gt;Node8 -->
<g id="edge8" class="edge">
<title>Node7&#45;&gt;Node8</title>
<path fill="none" stroke="midnightblue" d="M335.54,-168.4C323.08,-159.13 306.8,-147.03 294.19,-137.65"/>
<polygon fill="midnightblue" stroke="midnightblue" points="296.25,-134.82 286.14,-131.66 292.08,-140.43 296.25,-134.82"/>
</g>
<!-- Node9 -->
<g id="node9" class="node">
<title>Node9</title>
<g id="a_node9"><a xlink:href="context_8hpp.html" target="_top" xlink:title="This file defines the context (registers) of the CPU.">
<polygon fill="none" stroke="black" points="336.5,-112.5 336.5,-131.5 488.5,-131.5 488.5,-112.5 336.5,-112.5"/>
<text text-anchor="middle" x="412.5" y="-119.5" font-family="Helvetica,sans-Serif" font-size="10.00">../arm1176jzf_s/context.hpp</text>
</a>
</g>
</g>
<!-- Node7&#45;&gt;Node9 -->
<g id="edge9" class="edge">
<title>Node7&#45;&gt;Node9</title>
<path fill="none" stroke="midnightblue" d="M368.25,-168.4C376.85,-159.58 387.95,-148.18 396.89,-139.02"/>
<polygon fill="midnightblue" stroke="midnightblue" points="399.59,-141.26 404.06,-131.66 394.57,-136.38 399.59,-141.26"/>
</g>
<!-- Node10 -->
<g id="node10" class="node">
<title>Node10</title>
<g id="a_node10"><a xlink:href="logger_8hpp.html" target="_top" xlink:title=" ">
<polygon fill="none" stroke="black" points="345.5,-56.5 345.5,-75.5 479.5,-75.5 479.5,-56.5 345.5,-56.5"/>
<text text-anchor="middle" x="412.5" y="-63.5" font-family="Helvetica,sans-Serif" font-size="10.00">../utils/logger/logger.hpp</text>
</a>
</g>
</g>
<!-- Node7&#45;&gt;Node10 -->
<g id="edge17" class="edge">
<title>Node7&#45;&gt;Node10</title>
<path fill="none" stroke="midnightblue" d="M421.68,-175.74C449.91,-169.2 480.17,-156.5 497.5,-132 513.86,-108.87 480.57,-90.23 450.97,-78.94"/>
<polygon fill="midnightblue" stroke="midnightblue" points="452.15,-75.65 441.56,-75.54 449.77,-82.23 452.15,-75.65"/>
</g>
<!-- Node9&#45;&gt;Node10 -->
<g id="edge10" class="edge">
<title>Node9&#45;&gt;Node10</title>
<path fill="none" stroke="midnightblue" d="M412.5,-112.08C412.5,-105.01 412.5,-94.86 412.5,-85.99"/>
<polygon fill="midnightblue" stroke="midnightblue" points="416,-85.75 412.5,-75.75 409,-85.75 416,-85.75"/>
</g>
<!-- Node10&#45;&gt;Node4 -->
<g id="edge13" class="edge">
<title>Node10&#45;&gt;Node4</title>
<path fill="none" stroke="midnightblue" d="M379.22,-56.44C341.78,-46.81 281.01,-31.19 241.4,-21"/>
<polygon fill="midnightblue" stroke="midnightblue" points="242.12,-17.57 231.56,-18.47 240.37,-24.35 242.12,-17.57"/>
</g>
<!-- Node11 -->
<g id="node11" class="node">
<title>Node11</title>
<g id="a_node11"><a xlink:title=" ">
<polygon fill="none" stroke="#bfbfbf" points="255.5,-0.5 255.5,-19.5 303.5,-19.5 303.5,-0.5 255.5,-0.5"/>
<text text-anchor="middle" x="279.5" y="-7.5" font-family="Helvetica,sans-Serif" font-size="10.00">mutex</text>
</a>
</g>
</g>
<!-- Node10&#45;&gt;Node11 -->
<g id="edge11" class="edge">
<title>Node10&#45;&gt;Node11</title>
<path fill="none" stroke="midnightblue" d="M391.43,-56.44C369.44,-47.52 334.77,-33.44 309.84,-23.32"/>
<polygon fill="midnightblue" stroke="midnightblue" points="311.06,-20.04 300.48,-19.52 308.42,-26.52 311.06,-20.04"/>
</g>
<!-- Node12 -->
<g id="node12" class="node">
<title>Node12</title>
<g id="a_node12"><a xlink:title=" ">
<polygon fill="none" stroke="#bfbfbf" points="322,-0.5 322,-19.5 369,-19.5 369,-0.5 322,-0.5"/>
<text text-anchor="middle" x="345.5" y="-7.5" font-family="Helvetica,sans-Serif" font-size="10.00">vector</text>
</a>
</g>
</g>
<!-- Node10&#45;&gt;Node12 -->
<g id="edge12" class="edge">
<title>Node10&#45;&gt;Node12</title>
<path fill="none" stroke="midnightblue" d="M401.74,-56.32C391.73,-48.26 376.61,-36.08 364.57,-26.37"/>
<polygon fill="midnightblue" stroke="midnightblue" points="366.44,-23.38 356.46,-19.83 362.05,-28.83 366.44,-23.38"/>
</g>
<!-- Node13 -->
<g id="node13" class="node">
<title>Node13</title>
<g id="a_node13"><a xlink:title=" ">
<polygon fill="none" stroke="#bfbfbf" points="387.5,-0.5 387.5,-19.5 437.5,-19.5 437.5,-0.5 387.5,-0.5"/>
<text text-anchor="middle" x="412.5" y="-7.5" font-family="Helvetica,sans-Serif" font-size="10.00">cstdint</text>
</a>
</g>
</g>
<!-- Node10&#45;&gt;Node13 -->
<g id="edge14" class="edge">
<title>Node10&#45;&gt;Node13</title>
<path fill="none" stroke="midnightblue" d="M412.5,-56.08C412.5,-49.01 412.5,-38.86 412.5,-29.99"/>
<polygon fill="midnightblue" stroke="midnightblue" points="416,-29.75 412.5,-19.75 409,-29.75 416,-29.75"/>
</g>
<!-- Node14 -->
<g id="node14" class="node">
<title>Node14</title>
<g id="a_node14"><a xlink:title=" ">
<polygon fill="none" stroke="#bfbfbf" points="456,-0.5 456,-19.5 529,-19.5 529,-0.5 456,-0.5"/>
<text text-anchor="middle" x="492.5" y="-7.5" font-family="Helvetica,sans-Serif" font-size="10.00">string_view</text>
</a>
</g>
</g>
<!-- Node10&#45;&gt;Node14 -->
<g id="edge15" class="edge">
<title>Node10&#45;&gt;Node14</title>
<path fill="none" stroke="midnightblue" d="M425.35,-56.32C437.72,-47.98 456.63,-35.21 471.24,-25.35"/>
<polygon fill="midnightblue" stroke="midnightblue" points="473.35,-28.15 479.68,-19.65 469.43,-22.35 473.35,-28.15"/>
</g>
<!-- Node15 -->
<g id="node15" class="node">
<title>Node15</title>
<g id="a_node15"><a xlink:title=" ">
<polygon fill="none" stroke="#bfbfbf" points="547,-0.5 547,-19.5 640,-19.5 640,-0.5 547,-0.5"/>
<text text-anchor="middle" x="593.5" y="-7.5" font-family="Helvetica,sans-Serif" font-size="10.00">source_location</text>
</a>
</g>
</g>
<!-- Node10&#45;&gt;Node15 -->
<g id="edge16" class="edge">
<title>Node10&#45;&gt;Node15</title>
<path fill="none" stroke="midnightblue" d="M441.18,-56.44C472.03,-47.24 521.23,-32.56 555.33,-22.39"/>
<polygon fill="midnightblue" stroke="midnightblue" points="556.37,-25.73 564.95,-19.52 554.37,-19.02 556.37,-25.73"/>
</g>
</g>
</svg>
