<?xml version="1.0" encoding="UTF-8" standalone="no"?>
<!DOCTYPE svg PUBLIC "-//W3C//DTD SVG 1.1//EN"
 "http://www.w3.org/Graphics/SVG/1.1/DTD/svg11.dtd">
<!-- Generated by graphviz version 2.43.0 (0)
 -->
<!-- Title: src/core/arm1176jzf_s/isa/isa_decoder.cpp Pages: 1 -->
<svg width="264pt" height="151pt"
 viewBox="0.00 0.00 263.50 151.00" xmlns="http://www.w3.org/2000/svg" xmlns:xlink="http://www.w3.org/1999/xlink">
<g id="graph0" class="graph" transform="scale(1 1) rotate(0) translate(4 147)">
<title>src/core/arm1176jzf_s/isa/isa_decoder.cpp</title>
<!-- Node1 -->
<g id="node1" class="node">
<title>Node1</title>
<g id="a_node1"><a xlink:title="This file implements an instruction decoder defined in isa_decoder.hpp.">
<polygon fill="#bfbfbf" stroke="black" points="76.5,-112.5 76.5,-142.5 201.5,-142.5 201.5,-112.5 76.5,-112.5"/>
<text text-anchor="start" x="84.5" y="-130.5" font-family="Helvetica,sans-Serif" font-size="10.00">src/core/arm1176jzf</text>
<text text-anchor="middle" x="139" y="-119.5" font-family="Helvetica,sans-Serif" font-size="10.00">_s/isa/isa_decoder.cpp</text>
</a>
</g>
</g>
<!-- Node2 -->
<g id="node2" class="node">
<title>Node2</title>
<g id="a_node2"><a xlink:title=" ">
<polygon fill="none" stroke="#bfbfbf" points="0,-56.5 0,-75.5 142,-75.5 142,-56.5 0,-56.5"/>
<text text-anchor="middle" x="71" y="-63.5" font-family="Helvetica,sans-Serif" font-size="10.00">zero_mate/utils/math.hpp</text>
</a>
</g>
</g>
<!-- Node1&#45;&gt;Node2 -->
<g id="edge1" class="edge">
<title>Node1&#45;&gt;Node2</title>
<path fill="none" stroke="midnightblue" d="M122.88,-112.4C112.6,-103.4 99.25,-91.72 88.67,-82.47"/>
<polygon fill="midnightblue" stroke="midnightblue" points="90.73,-79.61 80.89,-75.66 86.12,-84.88 90.73,-79.61"/>
</g>
<!-- Node3 -->
<g id="node3" class="node">
<title>Node3</title>
<g id="a_node3"><a xlink:href="isa__decoder_8hpp.html" target="_top" xlink:title="This file defines an instruction decoder.">
<polygon fill="none" stroke="black" points="160.5,-56.5 160.5,-75.5 255.5,-75.5 255.5,-56.5 160.5,-56.5"/>
<text text-anchor="middle" x="208" y="-63.5" font-family="Helvetica,sans-Serif" font-size="10.00">isa_decoder.hpp</text>
</a>
</g>
</g>
<!-- Node1&#45;&gt;Node3 -->
<g id="edge2" class="edge">
<title>Node1&#45;&gt;Node3</title>
<path fill="none" stroke="midnightblue" d="M155.35,-112.4C165.9,-103.31 179.6,-91.49 190.38,-82.19"/>
<polygon fill="midnightblue" stroke="midnightblue" points="192.67,-84.84 197.96,-75.66 188.1,-79.54 192.67,-84.84"/>
</g>
<!-- Node4 -->
<g id="node4" class="node">
<title>Node4</title>
<g id="a_node4"><a xlink:href="instruction_8hpp.html" target="_top" xlink:title="This file defines the interface of a general ARM instruction.">
<polygon fill="none" stroke="black" points="163.5,-0.5 163.5,-19.5 252.5,-19.5 252.5,-0.5 163.5,-0.5"/>
<text text-anchor="middle" x="208" y="-7.5" font-family="Helvetica,sans-Serif" font-size="10.00">instruction.hpp</text>
</a>
</g>
</g>
<!-- Node3&#45;&gt;Node4 -->
<g id="edge3" class="edge">
<title>Node3&#45;&gt;Node4</title>
<path fill="none" stroke="midnightblue" d="M208,-56.08C208,-49.01 208,-38.86 208,-29.99"/>
<polygon fill="midnightblue" stroke="midnightblue" points="211.5,-29.75 208,-19.75 204.5,-29.75 211.5,-29.75"/>
</g>
</g>
</svg>
