<?xml version="1.0" encoding="UTF-8" standalone="no"?>
<!DOCTYPE svg PUBLIC "-//W3C//DTD SVG 1.1//EN"
 "http://www.w3.org/Graphics/SVG/1.1/DTD/svg11.dtd">
<!-- Generated by graphviz version 2.43.0 (0)
 -->
<!-- Title: src/core/arm1176jzf_s/isa/isa_decoder.cpp Pages: 1 -->
<svg width="441pt" height="151pt"
 viewBox="0.00 0.00 441.00 151.00" xmlns="http://www.w3.org/2000/svg" xmlns:xlink="http://www.w3.org/1999/xlink">
<g id="graph0" class="graph" transform="scale(1 1) rotate(0) translate(4 147)">
<title>src/core/arm1176jzf_s/isa/isa_decoder.cpp</title>
<!-- Node1 -->
<g id="node1" class="node">
<title>Node1</title>
<g id="a_node1"><a xlink:title=" ">
<polygon fill="#bfbfbf" stroke="black" points="68,-112.5 68,-142.5 193,-142.5 193,-112.5 68,-112.5"/>
<text text-anchor="start" x="76" y="-130.5" font-family="Helvetica,sans-Serif" font-size="10.00">src/core/arm1176jzf</text>
<text text-anchor="middle" x="130.5" y="-119.5" font-family="Helvetica,sans-Serif" font-size="10.00">_s/isa/isa_decoder.cpp</text>
</a>
</g>
</g>
<!-- Node2 -->
<g id="node2" class="node">
<title>Node2</title>
<g id="a_node2"><a xlink:title=" ">
<polygon fill="none" stroke="#bfbfbf" points="0,-56.5 0,-75.5 29,-75.5 29,-56.5 0,-56.5"/>
<text text-anchor="middle" x="14.5" y="-63.5" font-family="Helvetica,sans-Serif" font-size="10.00">bit</text>
</a>
</g>
</g>
<!-- Node1&#45;&gt;Node2 -->
<g id="edge1" class="edge">
<title>Node1&#45;&gt;Node2</title>
<path fill="none" stroke="midnightblue" d="M103.01,-112.4C83.27,-102.27 56.94,-88.77 38.14,-79.12"/>
<polygon fill="midnightblue" stroke="midnightblue" points="39.56,-75.92 29.07,-74.47 36.37,-82.15 39.56,-75.92"/>
</g>
<!-- Node3 -->
<g id="node3" class="node">
<title>Node3</title>
<g id="a_node3"><a xlink:title=" ">
<polygon fill="none" stroke="#bfbfbf" points="47.5,-56.5 47.5,-75.5 111.5,-75.5 111.5,-56.5 47.5,-56.5"/>
<text text-anchor="middle" x="79.5" y="-63.5" font-family="Helvetica,sans-Serif" font-size="10.00">algorithm</text>
</a>
</g>
</g>
<!-- Node1&#45;&gt;Node3 -->
<g id="edge2" class="edge">
<title>Node1&#45;&gt;Node3</title>
<path fill="none" stroke="midnightblue" d="M118.41,-112.4C110.93,-103.66 101.28,-92.41 93.47,-83.3"/>
<polygon fill="midnightblue" stroke="midnightblue" points="96.09,-80.97 86.92,-75.66 90.77,-85.53 96.09,-80.97"/>
</g>
<!-- Node4 -->
<g id="node4" class="node">
<title>Node4</title>
<g id="a_node4"><a xlink:href="math_8hpp.html" target="_top" xlink:title="This file defines and implements a variety of handy helper functions that are used throughout the pro...">
<polygon fill="none" stroke="black" points="130,-56.5 130,-75.5 235,-75.5 235,-56.5 130,-56.5"/>
<text text-anchor="middle" x="182.5" y="-63.5" font-family="Helvetica,sans-Serif" font-size="10.00">../../utils/math.hpp</text>
</a>
</g>
</g>
<!-- Node1&#45;&gt;Node4 -->
<g id="edge3" class="edge">
<title>Node1&#45;&gt;Node4</title>
<path fill="none" stroke="midnightblue" d="M142.82,-112.4C150.46,-103.66 160.29,-92.41 168.26,-83.3"/>
<polygon fill="midnightblue" stroke="midnightblue" points="170.99,-85.49 174.93,-75.66 165.72,-80.88 170.99,-85.49"/>
</g>
<!-- Node5 -->
<g id="node5" class="node">
<title>Node5</title>
<g id="a_node5"><a xlink:href="isa__decoder_8hpp.html" target="_top" xlink:title=" ">
<polygon fill="none" stroke="black" points="253,-56.5 253,-75.5 348,-75.5 348,-56.5 253,-56.5"/>
<text text-anchor="middle" x="300.5" y="-63.5" font-family="Helvetica,sans-Serif" font-size="10.00">isa_decoder.hpp</text>
</a>
</g>
</g>
<!-- Node1&#45;&gt;Node5 -->
<g id="edge4" class="edge">
<title>Node1&#45;&gt;Node5</title>
<path fill="none" stroke="midnightblue" d="M170.79,-112.4C199.82,-102.24 238.58,-88.67 266.15,-79.02"/>
<polygon fill="midnightblue" stroke="midnightblue" points="267.48,-82.26 275.76,-75.66 265.17,-75.66 267.48,-82.26"/>
</g>
<!-- Node6 -->
<g id="node6" class="node">
<title>Node6</title>
<g id="a_node6"><a xlink:title=" ">
<polygon fill="none" stroke="#bfbfbf" points="215.5,-0.5 215.5,-19.5 257.5,-19.5 257.5,-0.5 215.5,-0.5"/>
<text text-anchor="middle" x="236.5" y="-7.5" font-family="Helvetica,sans-Serif" font-size="10.00">array</text>
</a>
</g>
</g>
<!-- Node5&#45;&gt;Node6 -->
<g id="edge5" class="edge">
<title>Node5&#45;&gt;Node6</title>
<path fill="none" stroke="midnightblue" d="M290.22,-56.32C280.66,-48.26 266.22,-36.08 254.72,-26.37"/>
<polygon fill="midnightblue" stroke="midnightblue" points="256.87,-23.61 246.97,-19.83 252.36,-28.96 256.87,-23.61"/>
</g>
<!-- Node7 -->
<g id="node7" class="node">
<title>Node7</title>
<g id="a_node7"><a xlink:title=" ">
<polygon fill="none" stroke="#bfbfbf" points="275.5,-0.5 275.5,-19.5 325.5,-19.5 325.5,-0.5 275.5,-0.5"/>
<text text-anchor="middle" x="300.5" y="-7.5" font-family="Helvetica,sans-Serif" font-size="10.00">cstdint</text>
</a>
</g>
</g>
<!-- Node5&#45;&gt;Node7 -->
<g id="edge6" class="edge">
<title>Node5&#45;&gt;Node7</title>
<path fill="none" stroke="midnightblue" d="M300.5,-56.08C300.5,-49.01 300.5,-38.86 300.5,-29.99"/>
<polygon fill="midnightblue" stroke="midnightblue" points="304,-29.75 300.5,-19.75 297,-29.75 304,-29.75"/>
</g>
<!-- Node8 -->
<g id="node8" class="node">
<title>Node8</title>
<g id="a_node8"><a xlink:href="instruction_8hpp.html" target="_top" xlink:title="This file defines the interface of a general ARM instruction.">
<polygon fill="none" stroke="black" points="344,-0.5 344,-19.5 433,-19.5 433,-0.5 344,-0.5"/>
<text text-anchor="middle" x="388.5" y="-7.5" font-family="Helvetica,sans-Serif" font-size="10.00">instruction.hpp</text>
</a>
</g>
</g>
<!-- Node5&#45;&gt;Node8 -->
<g id="edge7" class="edge">
<title>Node5&#45;&gt;Node8</title>
<path fill="none" stroke="midnightblue" d="M314.64,-56.32C328.37,-47.9 349.44,-34.97 365.56,-25.07"/>
<polygon fill="midnightblue" stroke="midnightblue" points="367.7,-27.87 374.4,-19.65 364.04,-21.9 367.7,-27.87"/>
</g>
</g>
</svg>
