<?xml version="1.0" encoding="UTF-8" standalone="no"?>
<!DOCTYPE svg PUBLIC "-//W3C//DTD SVG 1.1//EN"
 "http://www.w3.org/Graphics/SVG/1.1/DTD/svg11.dtd">
<!-- Generated by graphviz version 2.43.0 (0)
 -->
<!-- Title: src/gui/windows/log_window.cpp Pages: 1 -->
<svg width="276pt" height="218pt"
 viewBox="0.00 0.00 275.50 218.00" xmlns="http://www.w3.org/2000/svg" xmlns:xlink="http://www.w3.org/1999/xlink">
<g id="graph0" class="graph" transform="scale(1 1) rotate(0) translate(4 214)">
<title>src/gui/windows/log_window.cpp</title>
<!-- Node1 -->
<g id="node1" class="node">
<title>Node1</title>
<g id="a_node1"><a xlink:title="This file implements a window that displays log messages.">
<polygon fill="#bfbfbf" stroke="black" points="20.5,-179.5 20.5,-209.5 133.5,-209.5 133.5,-179.5 20.5,-179.5"/>
<text text-anchor="start" x="28.5" y="-197.5" font-family="Helvetica,sans-Serif" font-size="10.00">src/gui/windows/log</text>
<text text-anchor="middle" x="77" y="-186.5" font-family="Helvetica,sans-Serif" font-size="10.00">_window.cpp</text>
</a>
</g>
</g>
<!-- Node2 -->
<g id="node2" class="node">
<title>Node2</title>
<g id="a_node2"><a xlink:href="log__window_8hpp.html" target="_top" xlink:title="This file defines a window that displays log messages.">
<polygon fill="none" stroke="black" points="29.5,-123.5 29.5,-142.5 124.5,-142.5 124.5,-123.5 29.5,-123.5"/>
<text text-anchor="middle" x="77" y="-130.5" font-family="Helvetica,sans-Serif" font-size="10.00">log_window.hpp</text>
</a>
</g>
</g>
<!-- Node1&#45;&gt;Node2 -->
<g id="edge1" class="edge">
<title>Node1&#45;&gt;Node2</title>
<path fill="none" stroke="midnightblue" d="M77,-179.4C77,-171.47 77,-161.46 77,-152.86"/>
<polygon fill="midnightblue" stroke="midnightblue" points="80.5,-152.66 77,-142.66 73.5,-152.66 80.5,-152.66"/>
</g>
<!-- Node3 -->
<g id="node3" class="node">
<title>Node3</title>
<g id="a_node3"><a xlink:title=" ">
<polygon fill="none" stroke="#bfbfbf" points="0,-0.5 0,-19.5 84,-19.5 84,-0.5 0,-0.5"/>
<text text-anchor="middle" x="42" y="-7.5" font-family="Helvetica,sans-Serif" font-size="10.00">imgui/imgui.h</text>
</a>
</g>
</g>
<!-- Node2&#45;&gt;Node3 -->
<g id="edge2" class="edge">
<title>Node2&#45;&gt;Node3</title>
<path fill="none" stroke="midnightblue" d="M61.27,-123.24C49.11,-115.48 33.19,-102.93 26,-87 17.54,-68.25 24.85,-44.85 32.13,-29.01"/>
<polygon fill="midnightblue" stroke="midnightblue" points="35.39,-30.32 36.75,-19.81 29.14,-27.18 35.39,-30.32"/>
</g>
<!-- Node4 -->
<g id="node4" class="node">
<title>Node4</title>
<g id="a_node4"><a xlink:href="window_8hpp.html" target="_top" xlink:title="This file defines an interface for all windows that will be rendered by the application.">
<polygon fill="none" stroke="black" points="35.5,-62 35.5,-81 118.5,-81 118.5,-62 35.5,-62"/>
<text text-anchor="middle" x="77" y="-69" font-family="Helvetica,sans-Serif" font-size="10.00">../window.hpp</text>
</a>
</g>
</g>
<!-- Node2&#45;&gt;Node4 -->
<g id="edge3" class="edge">
<title>Node2&#45;&gt;Node4</title>
<path fill="none" stroke="midnightblue" d="M77,-123.48C77,-115.08 77,-101.98 77,-91.16"/>
<polygon fill="midnightblue" stroke="midnightblue" points="80.5,-91.01 77,-81.01 73.5,-91.01 80.5,-91.01"/>
</g>
<!-- Node5 -->
<g id="node5" class="node">
<title>Node5</title>
<g id="a_node5"><a xlink:href="logging__system_8hpp.html" target="_top" xlink:title="This file defines a logging system that is used in the project.">
<polygon fill="none" stroke="black" points="136.5,-56.5 136.5,-86.5 267.5,-86.5 267.5,-56.5 136.5,-56.5"/>
<text text-anchor="start" x="144.5" y="-74.5" font-family="Helvetica,sans-Serif" font-size="10.00">zero_mate/utils/logging</text>
<text text-anchor="middle" x="202" y="-63.5" font-family="Helvetica,sans-Serif" font-size="10.00">_system.hpp</text>
</a>
</g>
</g>
<!-- Node2&#45;&gt;Node5 -->
<g id="edge5" class="edge">
<title>Node2&#45;&gt;Node5</title>
<path fill="none" stroke="midnightblue" d="M94.91,-123.48C112.71,-115 140.58,-101.74 163.42,-90.86"/>
<polygon fill="midnightblue" stroke="midnightblue" points="165.01,-93.98 172.54,-86.52 162.01,-87.66 165.01,-93.98"/>
</g>
<!-- Node4&#45;&gt;Node3 -->
<g id="edge4" class="edge">
<title>Node4&#45;&gt;Node3</title>
<path fill="none" stroke="midnightblue" d="M71.99,-61.98C66.84,-53.23 58.69,-39.37 52.18,-28.31"/>
<polygon fill="midnightblue" stroke="midnightblue" points="55.09,-26.35 47.01,-19.51 49.06,-29.9 55.09,-26.35"/>
</g>
<!-- Node6 -->
<g id="node6" class="node">
<title>Node6</title>
<g id="a_node6"><a xlink:href="logger_8hpp.html" target="_top" xlink:title="This file defines a general logger interface.">
<polygon fill="none" stroke="black" points="168,-0.5 168,-19.5 236,-19.5 236,-0.5 168,-0.5"/>
<text text-anchor="middle" x="202" y="-7.5" font-family="Helvetica,sans-Serif" font-size="10.00">logger.hpp</text>
</a>
</g>
</g>
<!-- Node5&#45;&gt;Node6 -->
<g id="edge6" class="edge">
<title>Node5&#45;&gt;Node6</title>
<path fill="none" stroke="midnightblue" d="M202,-56.4C202,-48.47 202,-38.46 202,-29.86"/>
<polygon fill="midnightblue" stroke="midnightblue" points="205.5,-29.66 202,-19.66 198.5,-29.66 205.5,-29.66"/>
</g>
</g>
</svg>
