<?xml version="1.0" encoding="UTF-8" standalone="no"?>
<!DOCTYPE svg PUBLIC "-//W3C//DTD SVG 1.1//EN"
 "http://www.w3.org/Graphics/SVG/1.1/DTD/svg11.dtd">
<!-- Generated by graphviz version 2.43.0 (0)
 -->
<!-- Title: src/core/utils/logger/logger_stdo.cpp Pages: 1 -->
<svg width="502pt" height="207pt"
 viewBox="0.00 0.00 502.00 207.00" xmlns="http://www.w3.org/2000/svg" xmlns:xlink="http://www.w3.org/1999/xlink">
<g id="graph0" class="graph" transform="scale(1 1) rotate(0) translate(4 203)">
<title>src/core/utils/logger/logger_stdo.cpp</title>
<!-- Node1 -->
<g id="node1" class="node">
<title>Node1</title>
<g id="a_node1"><a xlink:title=" ">
<polygon fill="#bfbfbf" stroke="black" points="35,-168.5 35,-198.5 148,-198.5 148,-168.5 35,-168.5"/>
<text text-anchor="start" x="43" y="-186.5" font-family="Helvetica,sans-Serif" font-size="10.00">src/core/utils/logger</text>
<text text-anchor="middle" x="91.5" y="-175.5" font-family="Helvetica,sans-Serif" font-size="10.00">/logger_stdo.cpp</text>
</a>
</g>
</g>
<!-- Node2 -->
<g id="node2" class="node">
<title>Node2</title>
<g id="a_node2"><a xlink:title=" ">
<polygon fill="none" stroke="#bfbfbf" points="0,-112.5 0,-131.5 79,-131.5 79,-112.5 0,-112.5"/>
<text text-anchor="middle" x="39.5" y="-119.5" font-family="Helvetica,sans-Serif" font-size="10.00">fmt/format.h</text>
</a>
</g>
</g>
<!-- Node1&#45;&gt;Node2 -->
<g id="edge1" class="edge">
<title>Node1&#45;&gt;Node2</title>
<path fill="none" stroke="midnightblue" d="M79.18,-168.4C71.54,-159.66 61.71,-148.41 53.74,-139.3"/>
<polygon fill="midnightblue" stroke="midnightblue" points="56.28,-136.88 47.07,-131.66 51.01,-141.49 56.28,-136.88"/>
</g>
<!-- Node3 -->
<g id="node3" class="node">
<title>Node3</title>
<g id="a_node3"><a xlink:href="logger__stdo_8hpp.html" target="_top" xlink:title=" ">
<polygon fill="none" stroke="black" points="97,-112.5 97,-131.5 192,-131.5 192,-112.5 97,-112.5"/>
<text text-anchor="middle" x="144.5" y="-119.5" font-family="Helvetica,sans-Serif" font-size="10.00">logger_stdo.hpp</text>
</a>
</g>
</g>
<!-- Node1&#45;&gt;Node3 -->
<g id="edge2" class="edge">
<title>Node1&#45;&gt;Node3</title>
<path fill="none" stroke="midnightblue" d="M104.06,-168.4C111.84,-159.66 121.86,-148.41 129.98,-139.3"/>
<polygon fill="midnightblue" stroke="midnightblue" points="132.75,-141.45 136.79,-131.66 127.52,-136.8 132.75,-141.45"/>
</g>
<!-- Node4 -->
<g id="node4" class="node">
<title>Node4</title>
<g id="a_node4"><a xlink:title=" ">
<polygon fill="none" stroke="#bfbfbf" points="33.5,-0.5 33.5,-19.5 81.5,-19.5 81.5,-0.5 33.5,-0.5"/>
<text text-anchor="middle" x="57.5" y="-7.5" font-family="Helvetica,sans-Serif" font-size="10.00">mutex</text>
</a>
</g>
</g>
<!-- Node3&#45;&gt;Node4 -->
<g id="edge3" class="edge">
<title>Node3&#45;&gt;Node4</title>
<path fill="none" stroke="midnightblue" d="M137.67,-112.37C123.25,-94.14 89.47,-51.43 70.69,-27.68"/>
<polygon fill="midnightblue" stroke="midnightblue" points="73.24,-25.26 64.3,-19.59 67.75,-29.61 73.24,-25.26"/>
</g>
<!-- Node5 -->
<g id="node5" class="node">
<title>Node5</title>
<g id="a_node5"><a xlink:href="logger_8hpp.html" target="_top" xlink:title=" ">
<polygon fill="none" stroke="black" points="160.5,-56.5 160.5,-75.5 228.5,-75.5 228.5,-56.5 160.5,-56.5"/>
<text text-anchor="middle" x="194.5" y="-63.5" font-family="Helvetica,sans-Serif" font-size="10.00">logger.hpp</text>
</a>
</g>
</g>
<!-- Node3&#45;&gt;Node5 -->
<g id="edge4" class="edge">
<title>Node3&#45;&gt;Node5</title>
<path fill="none" stroke="midnightblue" d="M152.76,-112.08C159.96,-104.3 170.61,-92.8 179.35,-83.37"/>
<polygon fill="midnightblue" stroke="midnightblue" points="182.17,-85.47 186.4,-75.75 177.03,-80.71 182.17,-85.47"/>
</g>
<!-- Node5&#45;&gt;Node4 -->
<g id="edge5" class="edge">
<title>Node5&#45;&gt;Node4</title>
<path fill="none" stroke="midnightblue" d="M172.79,-56.44C150.15,-47.52 114.43,-33.44 88.75,-23.32"/>
<polygon fill="midnightblue" stroke="midnightblue" points="89.69,-19.93 79.11,-19.52 87.13,-26.44 89.69,-19.93"/>
</g>
<!-- Node6 -->
<g id="node6" class="node">
<title>Node6</title>
<g id="a_node6"><a xlink:title=" ">
<polygon fill="none" stroke="#bfbfbf" points="100,-0.5 100,-19.5 147,-19.5 147,-0.5 100,-0.5"/>
<text text-anchor="middle" x="123.5" y="-7.5" font-family="Helvetica,sans-Serif" font-size="10.00">vector</text>
</a>
</g>
</g>
<!-- Node5&#45;&gt;Node6 -->
<g id="edge6" class="edge">
<title>Node5&#45;&gt;Node6</title>
<path fill="none" stroke="midnightblue" d="M183.09,-56.32C172.39,-48.18 156.16,-35.84 143.34,-26.09"/>
<polygon fill="midnightblue" stroke="midnightblue" points="145.19,-23.1 135.11,-19.83 140.96,-28.67 145.19,-23.1"/>
</g>
<!-- Node7 -->
<g id="node7" class="node">
<title>Node7</title>
<g id="a_node7"><a xlink:title=" ">
<polygon fill="none" stroke="#bfbfbf" points="165.5,-0.5 165.5,-19.5 223.5,-19.5 223.5,-0.5 165.5,-0.5"/>
<text text-anchor="middle" x="194.5" y="-7.5" font-family="Helvetica,sans-Serif" font-size="10.00">memory</text>
</a>
</g>
</g>
<!-- Node5&#45;&gt;Node7 -->
<g id="edge7" class="edge">
<title>Node5&#45;&gt;Node7</title>
<path fill="none" stroke="midnightblue" d="M194.5,-56.08C194.5,-49.01 194.5,-38.86 194.5,-29.99"/>
<polygon fill="midnightblue" stroke="midnightblue" points="198,-29.75 194.5,-19.75 191,-29.75 198,-29.75"/>
</g>
<!-- Node8 -->
<g id="node8" class="node">
<title>Node8</title>
<g id="a_node8"><a xlink:title=" ">
<polygon fill="none" stroke="#bfbfbf" points="241.5,-0.5 241.5,-19.5 291.5,-19.5 291.5,-0.5 241.5,-0.5"/>
<text text-anchor="middle" x="266.5" y="-7.5" font-family="Helvetica,sans-Serif" font-size="10.00">cstdint</text>
</a>
</g>
</g>
<!-- Node5&#45;&gt;Node8 -->
<g id="edge8" class="edge">
<title>Node5&#45;&gt;Node8</title>
<path fill="none" stroke="midnightblue" d="M206.07,-56.32C216.92,-48.18 233.38,-35.84 246.38,-26.09"/>
<polygon fill="midnightblue" stroke="midnightblue" points="248.82,-28.63 254.72,-19.83 244.62,-23.03 248.82,-28.63"/>
</g>
<!-- Node9 -->
<g id="node9" class="node">
<title>Node9</title>
<g id="a_node9"><a xlink:title=" ">
<polygon fill="none" stroke="#bfbfbf" points="310,-0.5 310,-19.5 383,-19.5 383,-0.5 310,-0.5"/>
<text text-anchor="middle" x="346.5" y="-7.5" font-family="Helvetica,sans-Serif" font-size="10.00">string_view</text>
</a>
</g>
</g>
<!-- Node5&#45;&gt;Node9 -->
<g id="edge9" class="edge">
<title>Node5&#45;&gt;Node9</title>
<path fill="none" stroke="midnightblue" d="M218.58,-56.44C244.04,-47.4 284.39,-33.06 312.96,-22.92"/>
<polygon fill="midnightblue" stroke="midnightblue" points="314.28,-26.16 322.53,-19.52 311.93,-19.57 314.28,-26.16"/>
</g>
<!-- Node10 -->
<g id="node10" class="node">
<title>Node10</title>
<g id="a_node10"><a xlink:title=" ">
<polygon fill="none" stroke="#bfbfbf" points="401,-0.5 401,-19.5 494,-19.5 494,-0.5 401,-0.5"/>
<text text-anchor="middle" x="447.5" y="-7.5" font-family="Helvetica,sans-Serif" font-size="10.00">source_location</text>
</a>
</g>
</g>
<!-- Node5&#45;&gt;Node10 -->
<g id="edge10" class="edge">
<title>Node5&#45;&gt;Node10</title>
<path fill="none" stroke="midnightblue" d="M228.62,-57.72C272.03,-48.45 347.35,-32.38 397.31,-21.71"/>
<polygon fill="midnightblue" stroke="midnightblue" points="398.21,-25.1 407.25,-19.59 396.74,-18.25 398.21,-25.1"/>
</g>
</g>
</svg>
