<?xml version="1.0" encoding="UTF-8" standalone="no"?>
<!DOCTYPE svg PUBLIC "-//W3C//DTD SVG 1.1//EN"
 "http://www.w3.org/Graphics/SVG/1.1/DTD/svg11.dtd">
<!-- Generated by graphviz version 2.43.0 (0)
 -->
<!-- Title: src/core/utils/logger/logger.hpp Pages: 1 -->
<svg width="2028pt" height="508pt"
 viewBox="0.00 0.00 2027.50 508.00" xmlns="http://www.w3.org/2000/svg" xmlns:xlink="http://www.w3.org/1999/xlink">
<g id="graph0" class="graph" transform="scale(1 1) rotate(0) translate(4 504)">
<title>src/core/utils/logger/logger.hpp</title>
<!-- Node1 -->
<g id="node1" class="node">
<title>Node1</title>
<g id="a_node1"><a xlink:title=" ">
<polygon fill="#bfbfbf" stroke="black" points="934.5,-469.5 934.5,-499.5 1047.5,-499.5 1047.5,-469.5 934.5,-469.5"/>
<text text-anchor="start" x="942.5" y="-487.5" font-family="Helvetica,sans-Serif" font-size="10.00">src/core/utils/logger</text>
<text text-anchor="middle" x="991" y="-476.5" font-family="Helvetica,sans-Serif" font-size="10.00">/logger.hpp</text>
</a>
</g>
</g>
<!-- Node2 -->
<g id="node2" class="node">
<title>Node2</title>
<g id="a_node2"><a xlink:href="context_8hpp.html" target="_top" xlink:title="This file defines the context (registers) of the CPU.">
<polygon fill="none" stroke="black" points="392.5,-402.5 392.5,-432.5 505.5,-432.5 505.5,-402.5 392.5,-402.5"/>
<text text-anchor="start" x="400.5" y="-420.5" font-family="Helvetica,sans-Serif" font-size="10.00">src/core/arm1176jzf</text>
<text text-anchor="middle" x="449" y="-409.5" font-family="Helvetica,sans-Serif" font-size="10.00">_s/context.hpp</text>
</a>
</g>
</g>
<!-- Node1&#45;&gt;Node2 -->
<g id="edge1" class="edge">
<title>Node1&#45;&gt;Node2</title>
<path fill="none" stroke="midnightblue" d="M924.18,-475.49C816.51,-462.57 606.51,-437.39 505.69,-425.3"/>
<polygon fill="midnightblue" stroke="midnightblue" points="923.93,-478.98 934.28,-476.7 924.76,-472.03 923.93,-478.98"/>
</g>
<!-- Node4 -->
<g id="node4" class="node">
<title>Node4</title>
<g id="a_node4"><a xlink:href="core_8hpp.html" target="_top" xlink:title="This file defines a class that represents a CPU core (arm1176jzf_s).">
<polygon fill="none" stroke="black" points="282.5,-134.5 282.5,-164.5 395.5,-164.5 395.5,-134.5 282.5,-134.5"/>
<text text-anchor="start" x="290.5" y="-152.5" font-family="Helvetica,sans-Serif" font-size="10.00">src/core/arm1176jzf</text>
<text text-anchor="middle" x="339" y="-141.5" font-family="Helvetica,sans-Serif" font-size="10.00">_s/core.hpp</text>
</a>
</g>
</g>
<!-- Node1&#45;&gt;Node4 -->
<g id="edge54" class="edge">
<title>Node1&#45;&gt;Node4</title>
<path fill="none" stroke="midnightblue" d="M923.95,-481.28C706.98,-473.21 38,-441.07 38,-351.5 38,-351.5 38,-351.5 38,-282.5 38,-176.94 195.19,-155.01 282.38,-150.97"/>
<polygon fill="midnightblue" stroke="midnightblue" points="924.12,-484.79 934.24,-481.66 924.37,-477.79 924.12,-484.79"/>
</g>
<!-- Node6 -->
<g id="node6" class="node">
<title>Node6</title>
<g id="a_node6"><a xlink:href="control__window_8hpp.html" target="_top" xlink:title=" ">
<polygon fill="none" stroke="black" points="61.5,-67.5 61.5,-97.5 192.5,-97.5 192.5,-67.5 61.5,-67.5"/>
<text text-anchor="start" x="69.5" y="-85.5" font-family="Helvetica,sans-Serif" font-size="10.00">src/gui/windows/control</text>
<text text-anchor="middle" x="127" y="-74.5" font-family="Helvetica,sans-Serif" font-size="10.00">_window.hpp</text>
</a>
</g>
</g>
<!-- Node1&#45;&gt;Node6 -->
<g id="edge64" class="edge">
<title>Node1&#45;&gt;Node6</title>
<path fill="none" stroke="midnightblue" d="M924.31,-483.74C749.28,-483.72 280.17,-479.22 133,-433 66.86,-412.23 0,-420.83 0,-351.5 0,-351.5 0,-351.5 0,-215.5 0,-159.37 60.37,-117.89 97.86,-97.54"/>
<polygon fill="midnightblue" stroke="midnightblue" points="924.41,-487.24 934.41,-483.74 924.41,-480.24 924.41,-487.24"/>
</g>
<!-- Node9 -->
<g id="node9" class="node">
<title>Node9</title>
<g id="a_node9"><a xlink:href="file__window_8hpp.html" target="_top" xlink:title=" ">
<polygon fill="none" stroke="black" points="686.5,-67.5 686.5,-97.5 799.5,-97.5 799.5,-67.5 686.5,-67.5"/>
<text text-anchor="start" x="694.5" y="-85.5" font-family="Helvetica,sans-Serif" font-size="10.00">src/gui/windows/file</text>
<text text-anchor="middle" x="743" y="-74.5" font-family="Helvetica,sans-Serif" font-size="10.00">_window.hpp</text>
</a>
</g>
</g>
<!-- Node1&#45;&gt;Node9 -->
<g id="edge65" class="edge">
<title>Node1&#45;&gt;Node9</title>
<path fill="none" stroke="midnightblue" d="M924.2,-472.29C859.78,-457.21 772,-423.45 772,-351.5 772,-351.5 772,-351.5 772,-215.5 772,-171.62 756.53,-121.41 748.18,-97.54"/>
<polygon fill="midnightblue" stroke="midnightblue" points="923.79,-475.79 934.32,-474.55 925.32,-468.95 923.79,-475.79"/>
</g>
<!-- Node20 -->
<g id="node20" class="node">
<title>Node20</title>
<g id="a_node20"><a xlink:href="elf__loader_8cpp.html" target="_top" xlink:title=" ">
<polygon fill="none" stroke="black" points="817.5,-67.5 817.5,-97.5 912.5,-97.5 912.5,-67.5 817.5,-67.5"/>
<text text-anchor="start" x="825.5" y="-85.5" font-family="Helvetica,sans-Serif" font-size="10.00">src/core/utils/elf</text>
<text text-anchor="middle" x="865" y="-74.5" font-family="Helvetica,sans-Serif" font-size="10.00">_loader.cpp</text>
</a>
</g>
</g>
<!-- Node1&#45;&gt;Node20 -->
<g id="edge59" class="edge">
<title>Node1&#45;&gt;Node20</title>
<path fill="none" stroke="midnightblue" d="M928.57,-466.17C876.23,-447.39 810,-411.73 810,-351.5 810,-351.5 810,-351.5 810,-215.5 810,-169.57 838.72,-121.09 854.65,-97.73"/>
<polygon fill="midnightblue" stroke="midnightblue" points="927.57,-469.53 938.16,-469.48 929.85,-462.91 927.57,-469.53"/>
</g>
<!-- Node23 -->
<g id="node23" class="node">
<title>Node23</title>
<g id="a_node23"><a xlink:href="cp15_8hpp.html" target="_top" xlink:title=" ">
<polygon fill="none" stroke="black" points="584,-268.5 584,-298.5 706,-298.5 706,-268.5 584,-268.5"/>
<text text-anchor="start" x="592" y="-286.5" font-family="Helvetica,sans-Serif" font-size="10.00">src/core/coprocessors</text>
<text text-anchor="middle" x="645" y="-275.5" font-family="Helvetica,sans-Serif" font-size="10.00">/cp15.hpp</text>
</a>
</g>
</g>
<!-- Node1&#45;&gt;Node23 -->
<g id="edge55" class="edge">
<title>Node1&#45;&gt;Node23</title>
<path fill="none" stroke="midnightblue" d="M923.9,-481.23C874.63,-476.79 807.87,-464.75 758,-433 703.89,-398.55 665.88,-328.56 651.44,-298.61"/>
<polygon fill="midnightblue" stroke="midnightblue" points="923.89,-484.74 934.14,-482.07 924.46,-477.77 923.89,-484.74"/>
</g>
<!-- Node25 -->
<g id="node25" class="node">
<title>Node25</title>
<g id="a_node25"><a xlink:href="interrupt__controller_8hpp.html" target="_top" xlink:title="This file defines the interrupt controller used in BCM2835.">
<polygon fill="none" stroke="black" points="924,-335.5 924,-365.5 1058,-365.5 1058,-335.5 924,-335.5"/>
<text text-anchor="start" x="932" y="-353.5" font-family="Helvetica,sans-Serif" font-size="10.00">src/core/peripherals</text>
<text text-anchor="middle" x="991" y="-342.5" font-family="Helvetica,sans-Serif" font-size="10.00">/interrupt_controller.hpp</text>
</a>
</g>
</g>
<!-- Node1&#45;&gt;Node25 -->
<g id="edge58" class="edge">
<title>Node1&#45;&gt;Node25</title>
<path fill="none" stroke="midnightblue" d="M991,-459.02C991,-431.51 991,-387.79 991,-365.52"/>
<polygon fill="midnightblue" stroke="midnightblue" points="987.5,-459.37 991,-469.37 994.5,-459.37 987.5,-459.37"/>
</g>
<!-- Node26 -->
<g id="node26" class="node">
<title>Node26</title>
<g id="a_node26"><a xlink:href="arm__timer_8hpp.html" target="_top" xlink:title="This file defines the ARM timer used in BCM2835.">
<polygon fill="none" stroke="black" points="1184.5,-268.5 1184.5,-298.5 1297.5,-298.5 1297.5,-268.5 1184.5,-268.5"/>
<text text-anchor="start" x="1192.5" y="-286.5" font-family="Helvetica,sans-Serif" font-size="10.00">src/core/peripherals</text>
<text text-anchor="middle" x="1241" y="-275.5" font-family="Helvetica,sans-Serif" font-size="10.00">/arm_timer.hpp</text>
</a>
</g>
</g>
<!-- Node1&#45;&gt;Node26 -->
<g id="edge56" class="edge">
<title>Node1&#45;&gt;Node26</title>
<path fill="none" stroke="midnightblue" d="M1016.89,-462.89C1067.78,-422.39 1179.66,-333.33 1223.18,-298.68"/>
<polygon fill="midnightblue" stroke="midnightblue" points="1014.62,-460.22 1008.98,-469.19 1018.98,-465.7 1014.62,-460.22"/>
</g>
<!-- Node30 -->
<g id="node30" class="node">
<title>Node30</title>
<g id="a_node30"><a xlink:href="gpio_8hpp.html" target="_top" xlink:title="This file defines teh GPIO controller used in BCM2835.">
<polygon fill="none" stroke="black" points="1372.5,-268.5 1372.5,-298.5 1485.5,-298.5 1485.5,-268.5 1372.5,-268.5"/>
<text text-anchor="start" x="1380.5" y="-286.5" font-family="Helvetica,sans-Serif" font-size="10.00">src/core/peripherals</text>
<text text-anchor="middle" x="1429" y="-275.5" font-family="Helvetica,sans-Serif" font-size="10.00">/gpio.hpp</text>
</a>
</g>
</g>
<!-- Node1&#45;&gt;Node30 -->
<g id="edge57" class="edge">
<title>Node1&#45;&gt;Node30</title>
<path fill="none" stroke="midnightblue" d="M1031.4,-465.14C1118.11,-425.75 1320.47,-333.81 1398.01,-298.58"/>
<polygon fill="midnightblue" stroke="midnightblue" points="1029.81,-462.02 1022.15,-469.35 1032.7,-468.4 1029.81,-462.02"/>
</g>
<!-- Node32 -->
<g id="node32" class="node">
<title>Node32</title>
<g id="a_node32"><a xlink:href="button__window_8hpp.html" target="_top" xlink:title=" ">
<polygon fill="none" stroke="black" points="1674,-201.5 1674,-231.5 1832,-231.5 1832,-201.5 1674,-201.5"/>
<text text-anchor="start" x="1682" y="-219.5" font-family="Helvetica,sans-Serif" font-size="10.00">src/gui/windows/peripherals</text>
<text text-anchor="middle" x="1753" y="-208.5" font-family="Helvetica,sans-Serif" font-size="10.00">/external/button_window.hpp</text>
</a>
</g>
</g>
<!-- Node1&#45;&gt;Node32 -->
<g id="edge69" class="edge">
<title>Node1&#45;&gt;Node32</title>
<path fill="none" stroke="midnightblue" d="M1046.36,-466.45C1077,-456.88 1115.7,-444.57 1150,-433 1364.89,-360.5 1620.21,-266.7 1715.07,-231.59"/>
<polygon fill="midnightblue" stroke="midnightblue" points="1045.22,-463.14 1036.72,-469.45 1047.31,-469.82 1045.22,-463.14"/>
</g>
<!-- Node39 -->
<g id="node39" class="node">
<title>Node39</title>
<g id="a_node39"><a xlink:href="logger_8cpp.html" target="_top" xlink:title=" ">
<polygon fill="none" stroke="black" points="1906.5,-402.5 1906.5,-432.5 2019.5,-432.5 2019.5,-402.5 1906.5,-402.5"/>
<text text-anchor="start" x="1914.5" y="-420.5" font-family="Helvetica,sans-Serif" font-size="10.00">src/core/utils/logger</text>
<text text-anchor="middle" x="1963" y="-409.5" font-family="Helvetica,sans-Serif" font-size="10.00">/logger.cpp</text>
</a>
</g>
</g>
<!-- Node1&#45;&gt;Node39 -->
<g id="edge60" class="edge">
<title>Node1&#45;&gt;Node39</title>
<path fill="none" stroke="midnightblue" d="M1057.57,-483.52C1208.07,-482.74 1585.71,-476.23 1898,-433 1900.75,-432.62 1903.55,-432.18 1906.38,-431.7"/>
<polygon fill="midnightblue" stroke="midnightblue" points="1057.55,-480.02 1047.56,-483.56 1057.58,-487.02 1057.55,-480.02"/>
</g>
<!-- Node40 -->
<g id="node40" class="node">
<title>Node40</title>
<g id="a_node40"><a xlink:href="logger__stdo_8hpp.html" target="_top" xlink:title=" ">
<polygon fill="none" stroke="black" points="1625.5,-402.5 1625.5,-432.5 1738.5,-432.5 1738.5,-402.5 1625.5,-402.5"/>
<text text-anchor="start" x="1633.5" y="-420.5" font-family="Helvetica,sans-Serif" font-size="10.00">src/core/utils/logger</text>
<text text-anchor="middle" x="1682" y="-409.5" font-family="Helvetica,sans-Serif" font-size="10.00">/logger_stdo.hpp</text>
</a>
</g>
</g>
<!-- Node1&#45;&gt;Node40 -->
<g id="edge61" class="edge">
<title>Node1&#45;&gt;Node40</title>
<path fill="none" stroke="midnightblue" d="M1058.12,-479.1C1168.03,-471.6 1393.16,-454.98 1583,-433 1596.72,-431.41 1611.46,-429.41 1625.28,-427.41"/>
<polygon fill="midnightblue" stroke="midnightblue" points="1057.59,-475.63 1047.85,-479.8 1058.06,-482.61 1057.59,-475.63"/>
</g>
<!-- Node42 -->
<g id="node42" class="node">
<title>Node42</title>
<g id="a_node42"><a xlink:href="log__window_8hpp.html" target="_top" xlink:title=" ">
<polygon fill="none" stroke="black" points="1775.5,-402.5 1775.5,-432.5 1888.5,-432.5 1888.5,-402.5 1775.5,-402.5"/>
<text text-anchor="start" x="1783.5" y="-420.5" font-family="Helvetica,sans-Serif" font-size="10.00">src/gui/windows/log</text>
<text text-anchor="middle" x="1832" y="-409.5" font-family="Helvetica,sans-Serif" font-size="10.00">_window.hpp</text>
</a>
</g>
</g>
<!-- Node1&#45;&gt;Node42 -->
<g id="edge66" class="edge">
<title>Node1&#45;&gt;Node42</title>
<path fill="none" stroke="midnightblue" d="M1058.06,-481.38C1190.38,-476.67 1494.28,-463.28 1748,-433 1756.82,-431.95 1766.12,-430.59 1775.18,-429.13"/>
<polygon fill="midnightblue" stroke="midnightblue" points="1057.56,-477.89 1047.69,-481.74 1057.81,-484.89 1057.56,-477.89"/>
</g>
<!-- Node3 -->
<g id="node3" class="node">
<title>Node3</title>
<g id="a_node3"><a xlink:href="context_8cpp.html" target="_top" xlink:title="This file implements the context (registers) of the CPU.">
<polygon fill="none" stroke="black" points="312.5,-268.5 312.5,-298.5 425.5,-298.5 425.5,-268.5 312.5,-268.5"/>
<text text-anchor="start" x="320.5" y="-286.5" font-family="Helvetica,sans-Serif" font-size="10.00">src/core/arm1176jzf</text>
<text text-anchor="middle" x="369" y="-275.5" font-family="Helvetica,sans-Serif" font-size="10.00">_s/context.cpp</text>
</a>
</g>
</g>
<!-- Node2&#45;&gt;Node3 -->
<g id="edge2" class="edge">
<title>Node2&#45;&gt;Node3</title>
<path fill="none" stroke="midnightblue" d="M435.05,-393.48C418.44,-366.07 391.23,-321.19 377.5,-298.52"/>
<polygon fill="midnightblue" stroke="midnightblue" points="432.26,-395.64 440.44,-402.37 438.25,-392.01 432.26,-395.64"/>
</g>
<!-- Node2&#45;&gt;Node4 -->
<g id="edge3" class="edge">
<title>Node2&#45;&gt;Node4</title>
<path fill="none" stroke="midnightblue" d="M382.19,-416.43C301.72,-412.14 171.47,-390.56 124,-299 102.57,-257.67 124.55,-229.96 161,-201 195.58,-173.53 244.37,-161 282.12,-155.28"/>
<polygon fill="midnightblue" stroke="midnightblue" points="382.08,-419.93 392.23,-416.89 382.4,-412.94 382.08,-419.93"/>
</g>
<!-- Node15 -->
<g id="node15" class="node">
<title>Node15</title>
<g id="a_node15"><a xlink:href="exceptions_8hpp.html" target="_top" xlink:title="This file defines all exceptions that can be thrown by the CPU during execution.">
<polygon fill="none" stroke="black" points="227.5,-335.5 227.5,-365.5 340.5,-365.5 340.5,-335.5 227.5,-335.5"/>
<text text-anchor="start" x="235.5" y="-353.5" font-family="Helvetica,sans-Serif" font-size="10.00">src/core/arm1176jzf</text>
<text text-anchor="middle" x="284" y="-342.5" font-family="Helvetica,sans-Serif" font-size="10.00">_s/exceptions.hpp</text>
</a>
</g>
</g>
<!-- Node2&#45;&gt;Node15 -->
<g id="edge17" class="edge">
<title>Node2&#45;&gt;Node15</title>
<path fill="none" stroke="midnightblue" d="M403.77,-398.68C377.31,-388.26 344.37,-375.28 319.73,-365.58"/>
<polygon fill="midnightblue" stroke="midnightblue" points="402.61,-401.99 413.2,-402.4 405.18,-395.47 402.61,-401.99"/>
</g>
<!-- Node21 -->
<g id="node21" class="node">
<title>Node21</title>
<g id="a_node21"><a xlink:href="coprocessor_8hpp.html" target="_top" xlink:title=" ">
<polygon fill="none" stroke="black" points="444,-335.5 444,-365.5 566,-365.5 566,-335.5 444,-335.5"/>
<text text-anchor="start" x="452" y="-353.5" font-family="Helvetica,sans-Serif" font-size="10.00">src/core/coprocessors</text>
<text text-anchor="middle" x="505" y="-342.5" font-family="Helvetica,sans-Serif" font-size="10.00">/coprocessor.hpp</text>
</a>
</g>
</g>
<!-- Node2&#45;&gt;Node21 -->
<g id="edge30" class="edge">
<title>Node2&#45;&gt;Node21</title>
<path fill="none" stroke="midnightblue" d="M467.75,-394.74C476.04,-385.12 485.54,-374.09 492.87,-365.58"/>
<polygon fill="midnightblue" stroke="midnightblue" points="465.03,-392.54 461.15,-402.4 470.33,-397.1 465.03,-392.54"/>
</g>
<!-- Node2&#45;&gt;Node25 -->
<g id="edge35" class="edge">
<title>Node2&#45;&gt;Node25</title>
<path fill="none" stroke="midnightblue" d="M515.79,-408.49C619.84,-396.01 819.47,-372.07 923.77,-359.56"/>
<polygon fill="midnightblue" stroke="midnightblue" points="515.24,-405.03 505.72,-409.7 516.07,-411.98 515.24,-405.03"/>
</g>
<!-- Node5 -->
<g id="node5" class="node">
<title>Node5</title>
<g id="a_node5"><a xlink:href="core_8cpp.html" target="_top" xlink:title="This file implements the CCPU_Core class defined in core.hpp.">
<polygon fill="none" stroke="black" points="210.5,-67.5 210.5,-97.5 323.5,-97.5 323.5,-67.5 210.5,-67.5"/>
<text text-anchor="start" x="218.5" y="-85.5" font-family="Helvetica,sans-Serif" font-size="10.00">src/core/arm1176jzf</text>
<text text-anchor="middle" x="267" y="-74.5" font-family="Helvetica,sans-Serif" font-size="10.00">_s/core.cpp</text>
</a>
</g>
</g>
<!-- Node4&#45;&gt;Node5 -->
<g id="edge4" class="edge">
<title>Node4&#45;&gt;Node5</title>
<path fill="none" stroke="midnightblue" d="M315.85,-127.6C304.98,-117.78 292.3,-106.34 282.59,-97.58"/>
<polygon fill="midnightblue" stroke="midnightblue" points="313.61,-130.29 323.38,-134.4 318.3,-125.1 313.61,-130.29"/>
</g>
<!-- Node4&#45;&gt;Node6 -->
<g id="edge5" class="edge">
<title>Node4&#45;&gt;Node6</title>
<path fill="none" stroke="midnightblue" d="M283.37,-131.44C249.01,-120.91 205.44,-107.55 173.02,-97.61"/>
<polygon fill="midnightblue" stroke="midnightblue" points="282.67,-134.89 293.26,-134.48 284.73,-128.2 282.67,-134.89"/>
</g>
<!-- Node4&#45;&gt;Node9 -->
<g id="edge8" class="edge">
<title>Node4&#45;&gt;Node9</title>
<path fill="none" stroke="midnightblue" d="M405.85,-137.75C484.24,-125.13 612.81,-104.45 686.46,-92.6"/>
<polygon fill="midnightblue" stroke="midnightblue" points="404.92,-134.35 395.6,-139.39 406.03,-141.26 404.92,-134.35"/>
</g>
<!-- Node11 -->
<g id="node11" class="node">
<title>Node11</title>
<g id="a_node11"><a xlink:href="registers__window_8hpp.html" target="_top" xlink:title=" ">
<polygon fill="none" stroke="black" points="342,-67.5 342,-97.5 482,-97.5 482,-67.5 342,-67.5"/>
<text text-anchor="start" x="350" y="-85.5" font-family="Helvetica,sans-Serif" font-size="10.00">src/gui/windows/registers</text>
<text text-anchor="middle" x="412" y="-74.5" font-family="Helvetica,sans-Serif" font-size="10.00">_window.hpp</text>
</a>
</g>
</g>
<!-- Node4&#45;&gt;Node11 -->
<g id="edge11" class="edge">
<title>Node4&#45;&gt;Node11</title>
<path fill="none" stroke="midnightblue" d="M362.47,-127.6C373.5,-117.78 386.34,-106.34 396.19,-97.58"/>
<polygon fill="midnightblue" stroke="midnightblue" points="359.98,-125.13 354.84,-134.4 364.64,-130.36 359.98,-125.13"/>
</g>
<!-- Node13 -->
<g id="node13" class="node">
<title>Node13</title>
<g id="a_node13"><a xlink:href="source__code__window_8hpp.html" target="_top" xlink:title=" ">
<polygon fill="none" stroke="black" points="500,-67.5 500,-97.5 630,-97.5 630,-67.5 500,-67.5"/>
<text text-anchor="start" x="508" y="-85.5" font-family="Helvetica,sans-Serif" font-size="10.00">src/gui/windows/source</text>
<text text-anchor="middle" x="565" y="-74.5" font-family="Helvetica,sans-Serif" font-size="10.00">_code_window.hpp</text>
</a>
</g>
</g>
<!-- Node4&#45;&gt;Node13 -->
<g id="edge14" class="edge">
<title>Node4&#45;&gt;Node13</title>
<path fill="none" stroke="midnightblue" d="M397.83,-131.58C434.54,-121.02 481.23,-107.59 515.94,-97.61"/>
<polygon fill="midnightblue" stroke="midnightblue" points="396.4,-128.35 387.76,-134.48 398.34,-135.08 396.4,-128.35"/>
</g>
<!-- Node7 -->
<g id="node7" class="node">
<title>Node7</title>
<g id="a_node7"><a xlink:href="gui_8cpp.html" target="_top" xlink:title=" ">
<polygon fill="none" stroke="black" points="1116.5,-6 1116.5,-25 1203.5,-25 1203.5,-6 1116.5,-6"/>
<text text-anchor="middle" x="1160" y="-13" font-family="Helvetica,sans-Serif" font-size="10.00">src/gui/gui.cpp</text>
</a>
</g>
</g>
<!-- Node6&#45;&gt;Node7 -->
<g id="edge6" class="edge">
<title>Node6&#45;&gt;Node7</title>
<path fill="none" stroke="midnightblue" d="M202.99,-67.12C330.88,-54.11 946.07,-26.08 1116.3,-18.45"/>
<polygon fill="midnightblue" stroke="midnightblue" points="202.32,-63.67 192.77,-68.25 203.09,-70.63 202.32,-63.67"/>
</g>
<!-- Node8 -->
<g id="node8" class="node">
<title>Node8</title>
<g id="a_node8"><a xlink:href="control__window_8cpp.html" target="_top" xlink:title=" ">
<polygon fill="none" stroke="black" points="61.5,-0.5 61.5,-30.5 192.5,-30.5 192.5,-0.5 61.5,-0.5"/>
<text text-anchor="start" x="69.5" y="-18.5" font-family="Helvetica,sans-Serif" font-size="10.00">src/gui/windows/control</text>
<text text-anchor="middle" x="127" y="-7.5" font-family="Helvetica,sans-Serif" font-size="10.00">_window.cpp</text>
</a>
</g>
</g>
<!-- Node6&#45;&gt;Node8 -->
<g id="edge7" class="edge">
<title>Node6&#45;&gt;Node8</title>
<path fill="none" stroke="midnightblue" d="M127,-57.11C127,-48.15 127,-38.32 127,-30.58"/>
<polygon fill="midnightblue" stroke="midnightblue" points="123.5,-57.4 127,-67.4 130.5,-57.4 123.5,-57.4"/>
</g>
<!-- Node9&#45;&gt;Node7 -->
<g id="edge9" class="edge">
<title>Node9&#45;&gt;Node7</title>
<path fill="none" stroke="midnightblue" d="M809.99,-66.9C926.45,-46.05 1051.67,-29.72 1116.33,-21.74"/>
<polygon fill="midnightblue" stroke="midnightblue" points="809.05,-63.52 799.83,-68.74 810.29,-70.4 809.05,-63.52"/>
</g>
<!-- Node10 -->
<g id="node10" class="node">
<title>Node10</title>
<g id="a_node10"><a xlink:href="file__window_8cpp.html" target="_top" xlink:title=" ">
<polygon fill="none" stroke="black" points="686.5,-0.5 686.5,-30.5 799.5,-30.5 799.5,-0.5 686.5,-0.5"/>
<text text-anchor="start" x="694.5" y="-18.5" font-family="Helvetica,sans-Serif" font-size="10.00">src/gui/windows/file</text>
<text text-anchor="middle" x="743" y="-7.5" font-family="Helvetica,sans-Serif" font-size="10.00">_window.cpp</text>
</a>
</g>
</g>
<!-- Node9&#45;&gt;Node10 -->
<g id="edge10" class="edge">
<title>Node9&#45;&gt;Node10</title>
<path fill="none" stroke="midnightblue" d="M743,-57.11C743,-48.15 743,-38.32 743,-30.58"/>
<polygon fill="midnightblue" stroke="midnightblue" points="739.5,-57.4 743,-67.4 746.5,-57.4 739.5,-57.4"/>
</g>
<!-- Node11&#45;&gt;Node7 -->
<g id="edge12" class="edge">
<title>Node11&#45;&gt;Node7</title>
<path fill="none" stroke="midnightblue" d="M492.17,-66.94C733.51,-36.3 1010.92,-22.61 1116.4,-18.19"/>
<polygon fill="midnightblue" stroke="midnightblue" points="491.62,-63.48 482.15,-68.22 492.51,-70.42 491.62,-63.48"/>
</g>
<!-- Node12 -->
<g id="node12" class="node">
<title>Node12</title>
<g id="a_node12"><a xlink:href="registers__window_8cpp.html" target="_top" xlink:title=" ">
<polygon fill="none" stroke="black" points="342,-0.5 342,-30.5 482,-30.5 482,-0.5 342,-0.5"/>
<text text-anchor="start" x="350" y="-18.5" font-family="Helvetica,sans-Serif" font-size="10.00">src/gui/windows/registers</text>
<text text-anchor="middle" x="412" y="-7.5" font-family="Helvetica,sans-Serif" font-size="10.00">_window.cpp</text>
</a>
</g>
</g>
<!-- Node11&#45;&gt;Node12 -->
<g id="edge13" class="edge">
<title>Node11&#45;&gt;Node12</title>
<path fill="none" stroke="midnightblue" d="M412,-57.11C412,-48.15 412,-38.32 412,-30.58"/>
<polygon fill="midnightblue" stroke="midnightblue" points="408.5,-57.4 412,-67.4 415.5,-57.4 408.5,-57.4"/>
</g>
<!-- Node13&#45;&gt;Node7 -->
<g id="edge15" class="edge">
<title>Node13&#45;&gt;Node7</title>
<path fill="none" stroke="midnightblue" d="M640.14,-71.61C652.77,-70.02 665.75,-68.43 678,-67 839.5,-48.18 1031.84,-29 1116.43,-20.72"/>
<polygon fill="midnightblue" stroke="midnightblue" points="639.58,-68.15 630.1,-72.88 640.46,-75.1 639.58,-68.15"/>
</g>
<!-- Node14 -->
<g id="node14" class="node">
<title>Node14</title>
<g id="a_node14"><a xlink:href="source__code__window_8cpp.html" target="_top" xlink:title=" ">
<polygon fill="none" stroke="black" points="519,-0.5 519,-30.5 649,-30.5 649,-0.5 519,-0.5"/>
<text text-anchor="start" x="527" y="-18.5" font-family="Helvetica,sans-Serif" font-size="10.00">src/gui/windows/source</text>
<text text-anchor="middle" x="584" y="-7.5" font-family="Helvetica,sans-Serif" font-size="10.00">_code_window.cpp</text>
</a>
</g>
</g>
<!-- Node13&#45;&gt;Node14 -->
<g id="edge16" class="edge">
<title>Node13&#45;&gt;Node14</title>
<path fill="none" stroke="midnightblue" d="M571.96,-57.7C574.62,-48.59 577.57,-38.49 579.89,-30.58"/>
<polygon fill="midnightblue" stroke="midnightblue" points="568.57,-56.82 569.12,-67.4 575.29,-58.78 568.57,-56.82"/>
</g>
<!-- Node15&#45;&gt;Node3 -->
<g id="edge18" class="edge">
<title>Node15&#45;&gt;Node3</title>
<path fill="none" stroke="midnightblue" d="M310.59,-329.17C323.59,-319.23 338.9,-307.51 350.59,-298.58"/>
<polygon fill="midnightblue" stroke="midnightblue" points="308.26,-326.54 302.44,-335.4 312.51,-332.1 308.26,-326.54"/>
</g>
<!-- Node15&#45;&gt;Node4 -->
<g id="edge19" class="edge">
<title>Node15&#45;&gt;Node4</title>
<path fill="none" stroke="midnightblue" d="M217.61,-339.14C167.74,-328.1 111.57,-306.71 134,-268 166.29,-212.27 236.08,-180.71 285.22,-164.62"/>
<polygon fill="midnightblue" stroke="midnightblue" points="216.97,-342.59 227.48,-341.22 218.41,-335.74 216.97,-342.59"/>
</g>
<!-- Node16 -->
<g id="node16" class="node">
<title>Node16</title>
<g id="a_node16"><a xlink:href="exceptions_8cpp.html" target="_top" xlink:title="This file implements all exceptions that can be thrown by the CPU during execution.">
<polygon fill="none" stroke="black" points="142.5,-268.5 142.5,-298.5 255.5,-298.5 255.5,-268.5 142.5,-268.5"/>
<text text-anchor="start" x="150.5" y="-286.5" font-family="Helvetica,sans-Serif" font-size="10.00">src/core/arm1176jzf</text>
<text text-anchor="middle" x="199" y="-275.5" font-family="Helvetica,sans-Serif" font-size="10.00">_s/exceptions.cpp</text>
</a>
</g>
</g>
<!-- Node15&#45;&gt;Node16 -->
<g id="edge20" class="edge">
<title>Node15&#45;&gt;Node16</title>
<path fill="none" stroke="midnightblue" d="M257.41,-329.17C244.41,-319.23 229.1,-307.51 217.41,-298.58"/>
<polygon fill="midnightblue" stroke="midnightblue" points="255.49,-332.1 265.56,-335.4 259.74,-326.54 255.49,-332.1"/>
</g>
<!-- Node17 -->
<g id="node17" class="node">
<title>Node17</title>
<g id="a_node17"><a xlink:href="bus_8hpp.html" target="_top" xlink:title="This file defines an interface the CPU uses to access different memory&#45;mapped peripherals.">
<polygon fill="none" stroke="black" points="629,-207 629,-226 725,-226 725,-207 629,-207"/>
<text text-anchor="middle" x="677" y="-214" font-family="Helvetica,sans-Serif" font-size="10.00">src/core/bus.hpp</text>
</a>
</g>
</g>
<!-- Node15&#45;&gt;Node17 -->
<g id="edge21" class="edge">
<title>Node15&#45;&gt;Node17</title>
<path fill="none" stroke="midnightblue" d="M283.12,-325.25C283.85,-306.79 288.11,-282.2 304,-268 350.44,-226.48 520.32,-240.7 582,-232 597.2,-229.86 613.74,-227.38 628.7,-225.09"/>
<polygon fill="midnightblue" stroke="midnightblue" points="279.62,-325.26 283.03,-335.29 286.62,-325.32 279.62,-325.26"/>
</g>
<!-- Node17&#45;&gt;Node4 -->
<g id="edge22" class="edge">
<title>Node17&#45;&gt;Node4</title>
<path fill="none" stroke="midnightblue" d="M631.89,-204.68C626.22,-203.4 620.48,-202.14 615,-201 539.41,-185.26 451.62,-169.65 395.72,-160.04"/>
<polygon fill="midnightblue" stroke="midnightblue" points="631.45,-208.17 641.98,-207 633.02,-201.35 631.45,-208.17"/>
</g>
<!-- Node17&#45;&gt;Node9 -->
<g id="edge29" class="edge">
<title>Node17&#45;&gt;Node9</title>
<path fill="none" stroke="midnightblue" d="M691.51,-199.01C699.28,-189.55 708.54,-177.17 715,-165 726.85,-142.67 735.26,-114.3 739.6,-97.6"/>
<polygon fill="midnightblue" stroke="midnightblue" points="688.72,-196.89 684.93,-206.78 694.06,-201.41 688.72,-196.89"/>
</g>
<!-- Node18 -->
<g id="node18" class="node">
<title>Node18</title>
<g id="a_node18"><a xlink:href="bus_8cpp.html" target="_top" xlink:title="This file implements the interface defined in bus.hpp.">
<polygon fill="none" stroke="black" points="497.5,-140 497.5,-159 592.5,-159 592.5,-140 497.5,-140"/>
<text text-anchor="middle" x="545" y="-147" font-family="Helvetica,sans-Serif" font-size="10.00">src/core/bus.cpp</text>
</a>
</g>
</g>
<!-- Node17&#45;&gt;Node18 -->
<g id="edge23" class="edge">
<title>Node17&#45;&gt;Node18</title>
<path fill="none" stroke="midnightblue" d="M650.49,-202.44C624.34,-189.57 585.12,-170.26 562.6,-159.17"/>
<polygon fill="midnightblue" stroke="midnightblue" points="648.95,-205.59 659.47,-206.87 652.05,-199.31 648.95,-205.59"/>
</g>
<!-- Node19 -->
<g id="node19" class="node">
<title>Node19</title>
<g id="a_node19"><a xlink:href="elf__loader_8hpp.html" target="_top" xlink:title=" ">
<polygon fill="none" stroke="black" points="610.5,-134.5 610.5,-164.5 705.5,-164.5 705.5,-134.5 610.5,-134.5"/>
<text text-anchor="start" x="618.5" y="-152.5" font-family="Helvetica,sans-Serif" font-size="10.00">src/core/utils/elf</text>
<text text-anchor="middle" x="658" y="-141.5" font-family="Helvetica,sans-Serif" font-size="10.00">_loader.hpp</text>
</a>
</g>
</g>
<!-- Node17&#45;&gt;Node19 -->
<g id="edge24" class="edge">
<title>Node17&#45;&gt;Node19</title>
<path fill="none" stroke="midnightblue" d="M671.61,-197.06C668.6,-186.75 664.9,-174.1 662.12,-164.59"/>
<polygon fill="midnightblue" stroke="midnightblue" points="668.27,-198.12 674.44,-206.73 674.99,-196.15 668.27,-198.12"/>
</g>
<!-- Node19&#45;&gt;Node9 -->
<g id="edge26" class="edge">
<title>Node19&#45;&gt;Node9</title>
<path fill="none" stroke="midnightblue" d="M684.59,-128.17C697.59,-118.23 712.9,-106.51 724.59,-97.58"/>
<polygon fill="midnightblue" stroke="midnightblue" points="682.26,-125.54 676.44,-134.4 686.51,-131.1 682.26,-125.54"/>
</g>
<!-- Node19&#45;&gt;Node13 -->
<g id="edge28" class="edge">
<title>Node19&#45;&gt;Node13</title>
<path fill="none" stroke="midnightblue" d="M629.31,-128.45C615.01,-118.45 598.05,-106.6 585.14,-97.58"/>
<polygon fill="midnightblue" stroke="midnightblue" points="627.62,-131.54 637.82,-134.4 631.63,-125.8 627.62,-131.54"/>
</g>
<!-- Node19&#45;&gt;Node14 -->
<g id="edge27" class="edge">
<title>Node19&#45;&gt;Node14</title>
<path fill="none" stroke="midnightblue" d="M656.12,-124.08C653.94,-107.11 649.22,-84.5 639,-67 630.5,-52.45 616.45,-39.65 604.68,-30.58"/>
<polygon fill="midnightblue" stroke="midnightblue" points="652.67,-124.74 657.22,-134.31 659.63,-123.99 652.67,-124.74"/>
</g>
<!-- Node19&#45;&gt;Node20 -->
<g id="edge25" class="edge">
<title>Node19&#45;&gt;Node20</title>
<path fill="none" stroke="midnightblue" d="M712.32,-131.44C745.87,-120.91 788.41,-107.55 820.06,-97.61"/>
<polygon fill="midnightblue" stroke="midnightblue" points="711.15,-128.14 702.66,-134.48 713.25,-134.82 711.15,-128.14"/>
</g>
<!-- Node22 -->
<g id="node22" class="node">
<title>Node22</title>
<g id="a_node22"><a xlink:href="coprocessor_8cpp.html" target="_top" xlink:title=" ">
<polygon fill="none" stroke="black" points="444,-268.5 444,-298.5 566,-298.5 566,-268.5 444,-268.5"/>
<text text-anchor="start" x="452" y="-286.5" font-family="Helvetica,sans-Serif" font-size="10.00">src/core/coprocessors</text>
<text text-anchor="middle" x="505" y="-275.5" font-family="Helvetica,sans-Serif" font-size="10.00">/coprocessor.cpp</text>
</a>
</g>
</g>
<!-- Node21&#45;&gt;Node22 -->
<g id="edge31" class="edge">
<title>Node21&#45;&gt;Node22</title>
<path fill="none" stroke="midnightblue" d="M505,-325.11C505,-316.15 505,-306.32 505,-298.58"/>
<polygon fill="midnightblue" stroke="midnightblue" points="501.5,-325.4 505,-335.4 508.5,-325.4 501.5,-325.4"/>
</g>
<!-- Node21&#45;&gt;Node23 -->
<g id="edge32" class="edge">
<title>Node21&#45;&gt;Node23</title>
<path fill="none" stroke="midnightblue" d="M544.57,-331.13C566.81,-320.8 594.15,-308.11 614.68,-298.58"/>
<polygon fill="midnightblue" stroke="midnightblue" points="542.97,-328.01 535.38,-335.4 545.92,-334.36 542.97,-328.01"/>
</g>
<!-- Node23&#45;&gt;Node17 -->
<g id="edge33" class="edge">
<title>Node23&#45;&gt;Node17</title>
<path fill="none" stroke="midnightblue" d="M656.43,-259.29C662.08,-247.8 668.57,-234.63 672.72,-226.19"/>
<polygon fill="midnightblue" stroke="midnightblue" points="653.22,-257.88 651.94,-268.4 659.5,-260.97 653.22,-257.88"/>
</g>
<!-- Node24 -->
<g id="node24" class="node">
<title>Node24</title>
<g id="a_node24"><a xlink:href="cp15_8cpp.html" target="_top" xlink:title=" ">
<polygon fill="none" stroke="black" points="451,-201.5 451,-231.5 573,-231.5 573,-201.5 451,-201.5"/>
<text text-anchor="start" x="459" y="-219.5" font-family="Helvetica,sans-Serif" font-size="10.00">src/core/coprocessors</text>
<text text-anchor="middle" x="512" y="-208.5" font-family="Helvetica,sans-Serif" font-size="10.00">/cp15.cpp</text>
</a>
</g>
</g>
<!-- Node23&#45;&gt;Node24 -->
<g id="edge34" class="edge">
<title>Node23&#45;&gt;Node24</title>
<path fill="none" stroke="midnightblue" d="M607.13,-263.99C586.05,-253.69 560.22,-241.07 540.8,-231.58"/>
<polygon fill="midnightblue" stroke="midnightblue" points="605.62,-267.15 616.14,-268.4 608.69,-260.86 605.62,-267.15"/>
</g>
<!-- Node25&#45;&gt;Node4 -->
<g id="edge36" class="edge">
<title>Node25&#45;&gt;Node4</title>
<path fill="none" stroke="midnightblue" d="M936.08,-332.35C904.95,-322.61 865.28,-310.16 830,-299 783.3,-284.23 663.07,-255.34 620,-232 600.84,-221.62 601.68,-210.37 582,-201 522.29,-172.55 446.82,-160.06 395.96,-154.62"/>
<polygon fill="midnightblue" stroke="midnightblue" points="935.28,-335.76 945.87,-335.41 937.37,-329.08 935.28,-335.76"/>
</g>
<!-- Node25&#45;&gt;Node26 -->
<g id="edge37" class="edge">
<title>Node25&#45;&gt;Node26</title>
<path fill="none" stroke="midnightblue" d="M1054.78,-332.92C1095.58,-322.31 1147.93,-308.7 1186.73,-298.61"/>
<polygon fill="midnightblue" stroke="midnightblue" points="1053.74,-329.57 1044.94,-335.48 1055.5,-336.35 1053.74,-329.57"/>
</g>
<!-- Node25&#45;&gt;Node30 -->
<g id="edge42" class="edge">
<title>Node25&#45;&gt;Node30</title>
<path fill="none" stroke="midnightblue" d="M1068.57,-337.99C1155.62,-325.07 1294.79,-304.42 1372.26,-292.92"/>
<polygon fill="midnightblue" stroke="midnightblue" points="1067.86,-334.56 1058.48,-339.49 1068.88,-341.48 1067.86,-334.56"/>
</g>
<!-- Node36 -->
<g id="node36" class="node">
<title>Node36</title>
<g id="a_node36"><a xlink:href="interrupt__controller_8cpp.html" target="_top" xlink:title="This file implements the interrupt controller used in BCM2835 (defined in interrupt_controller....">
<polygon fill="none" stroke="black" points="838.5,-268.5 838.5,-298.5 971.5,-298.5 971.5,-268.5 838.5,-268.5"/>
<text text-anchor="start" x="846.5" y="-286.5" font-family="Helvetica,sans-Serif" font-size="10.00">src/core/peripherals</text>
<text text-anchor="middle" x="905" y="-275.5" font-family="Helvetica,sans-Serif" font-size="10.00">/interrupt_controller.cpp</text>
</a>
</g>
</g>
<!-- Node25&#45;&gt;Node36 -->
<g id="edge50" class="edge">
<title>Node25&#45;&gt;Node36</title>
<path fill="none" stroke="midnightblue" d="M964.1,-329.17C950.95,-319.23 935.45,-307.51 923.62,-298.58"/>
<polygon fill="midnightblue" stroke="midnightblue" points="962.25,-332.16 972.34,-335.4 966.47,-326.57 962.25,-332.16"/>
</g>
<!-- Node37 -->
<g id="node37" class="node">
<title>Node37</title>
<g id="a_node37"><a xlink:href="interrupt__controller__window_8hpp.html" target="_top" xlink:title=" ">
<polygon fill="none" stroke="black" points="990,-268.5 990,-298.5 1166,-298.5 1166,-268.5 990,-268.5"/>
<text text-anchor="start" x="998" y="-286.5" font-family="Helvetica,sans-Serif" font-size="10.00">src/gui/windows/peripherals</text>
<text text-anchor="middle" x="1078" y="-275.5" font-family="Helvetica,sans-Serif" font-size="10.00">/interrupt_controller_window.hpp</text>
</a>
</g>
</g>
<!-- Node25&#45;&gt;Node37 -->
<g id="edge51" class="edge">
<title>Node25&#45;&gt;Node37</title>
<path fill="none" stroke="midnightblue" d="M1018.21,-329.17C1031.52,-319.23 1047.2,-307.51 1059.16,-298.58"/>
<polygon fill="midnightblue" stroke="midnightblue" points="1015.79,-326.61 1009.88,-335.4 1019.98,-332.21 1015.79,-326.61"/>
</g>
<!-- Node27 -->
<g id="node27" class="node">
<title>Node27</title>
<g id="a_node27"><a xlink:href="arm__timer_8cpp.html" target="_top" xlink:title="This file implements the ARM timer used in BCM2835 as defined in arm_timer.hpp.">
<polygon fill="none" stroke="black" points="1070.5,-201.5 1070.5,-231.5 1183.5,-231.5 1183.5,-201.5 1070.5,-201.5"/>
<text text-anchor="start" x="1078.5" y="-219.5" font-family="Helvetica,sans-Serif" font-size="10.00">src/core/peripherals</text>
<text text-anchor="middle" x="1127" y="-208.5" font-family="Helvetica,sans-Serif" font-size="10.00">/arm_timer.cpp</text>
</a>
</g>
</g>
<!-- Node26&#45;&gt;Node27 -->
<g id="edge38" class="edge">
<title>Node26&#45;&gt;Node27</title>
<path fill="none" stroke="midnightblue" d="M1207.32,-263.3C1189.48,-253.12 1167.96,-240.85 1151.69,-231.58"/>
<polygon fill="midnightblue" stroke="midnightblue" points="1205.84,-266.48 1216.26,-268.4 1209.31,-260.4 1205.84,-266.48"/>
</g>
<!-- Node28 -->
<g id="node28" class="node">
<title>Node28</title>
<g id="a_node28"><a xlink:href="arm__timer__window_8hpp.html" target="_top" xlink:title=" ">
<polygon fill="none" stroke="black" points="1202,-201.5 1202,-231.5 1354,-231.5 1354,-201.5 1202,-201.5"/>
<text text-anchor="start" x="1210" y="-219.5" font-family="Helvetica,sans-Serif" font-size="10.00">src/gui/windows/peripherals</text>
<text text-anchor="middle" x="1278" y="-208.5" font-family="Helvetica,sans-Serif" font-size="10.00">/arm_timer_window.hpp</text>
</a>
</g>
</g>
<!-- Node26&#45;&gt;Node28 -->
<g id="edge39" class="edge">
<title>Node26&#45;&gt;Node28</title>
<path fill="none" stroke="midnightblue" d="M1254.05,-259.58C1259.36,-250.24 1265.34,-239.75 1269.99,-231.58"/>
<polygon fill="midnightblue" stroke="midnightblue" points="1250.93,-257.97 1249.03,-268.4 1257.02,-261.44 1250.93,-257.97"/>
</g>
<!-- Node28&#45;&gt;Node7 -->
<g id="edge40" class="edge">
<title>Node28&#45;&gt;Node7</title>
<path fill="none" stroke="midnightblue" d="M1275.37,-191.17C1272.85,-174.41 1268.02,-152.01 1259,-134 1235.57,-87.26 1189.99,-43.21 1169.91,-25.14"/>
<polygon fill="midnightblue" stroke="midnightblue" points="1271.93,-191.82 1276.72,-201.27 1278.87,-190.89 1271.93,-191.82"/>
</g>
<!-- Node29 -->
<g id="node29" class="node">
<title>Node29</title>
<g id="a_node29"><a xlink:href="arm__timer__window_8cpp.html" target="_top" xlink:title=" ">
<polygon fill="none" stroke="black" points="1098,-134.5 1098,-164.5 1250,-164.5 1250,-134.5 1098,-134.5"/>
<text text-anchor="start" x="1106" y="-152.5" font-family="Helvetica,sans-Serif" font-size="10.00">src/gui/windows/peripherals</text>
<text text-anchor="middle" x="1174" y="-141.5" font-family="Helvetica,sans-Serif" font-size="10.00">/arm_timer_window.cpp</text>
</a>
</g>
</g>
<!-- Node28&#45;&gt;Node29 -->
<g id="edge41" class="edge">
<title>Node28&#45;&gt;Node29</title>
<path fill="none" stroke="midnightblue" d="M1246.82,-196.02C1230.64,-185.9 1211.23,-173.77 1196.52,-164.58"/>
<polygon fill="midnightblue" stroke="midnightblue" points="1245.1,-199.06 1255.43,-201.4 1248.81,-193.13 1245.1,-199.06"/>
</g>
<!-- Node31 -->
<g id="node31" class="node">
<title>Node31</title>
<g id="a_node31"><a xlink:href="gpio_8cpp.html" target="_top" xlink:title="This file implements teh GPIO controller used in BCM2835 (defined in gpio.hpp).">
<polygon fill="none" stroke="black" points="1372.5,-201.5 1372.5,-231.5 1485.5,-231.5 1485.5,-201.5 1372.5,-201.5"/>
<text text-anchor="start" x="1380.5" y="-219.5" font-family="Helvetica,sans-Serif" font-size="10.00">src/core/peripherals</text>
<text text-anchor="middle" x="1429" y="-208.5" font-family="Helvetica,sans-Serif" font-size="10.00">/gpio.cpp</text>
</a>
</g>
</g>
<!-- Node30&#45;&gt;Node31 -->
<g id="edge43" class="edge">
<title>Node30&#45;&gt;Node31</title>
<path fill="none" stroke="midnightblue" d="M1429,-258.11C1429,-249.15 1429,-239.32 1429,-231.58"/>
<polygon fill="midnightblue" stroke="midnightblue" points="1425.5,-258.4 1429,-268.4 1432.5,-258.4 1425.5,-258.4"/>
</g>
<!-- Node30&#45;&gt;Node32 -->
<g id="edge44" class="edge">
<title>Node30&#45;&gt;Node32</title>
<path fill="none" stroke="midnightblue" d="M1495.74,-269.11C1550.39,-258.15 1627.46,-242.69 1682.98,-231.55"/>
<polygon fill="midnightblue" stroke="midnightblue" points="1494.92,-265.7 1485.81,-271.1 1496.3,-272.57 1494.92,-265.7"/>
</g>
<!-- Node34 -->
<g id="node34" class="node">
<title>Node34</title>
<g id="a_node34"><a xlink:href="gpio__window_8hpp.html" target="_top" xlink:title=" ">
<polygon fill="none" stroke="black" points="1504,-201.5 1504,-231.5 1656,-231.5 1656,-201.5 1504,-201.5"/>
<text text-anchor="start" x="1512" y="-219.5" font-family="Helvetica,sans-Serif" font-size="10.00">src/gui/windows/peripherals</text>
<text text-anchor="middle" x="1580" y="-208.5" font-family="Helvetica,sans-Serif" font-size="10.00">/gpio_window.hpp</text>
</a>
</g>
</g>
<!-- Node30&#45;&gt;Node34 -->
<g id="edge47" class="edge">
<title>Node30&#45;&gt;Node34</title>
<path fill="none" stroke="midnightblue" d="M1471.03,-264.41C1495.14,-254.03 1524.95,-241.2 1547.3,-231.58"/>
<polygon fill="midnightblue" stroke="midnightblue" points="1469.57,-261.23 1461.76,-268.4 1472.33,-267.66 1469.57,-261.23"/>
</g>
<!-- Node32&#45;&gt;Node7 -->
<g id="edge45" class="edge">
<title>Node32&#45;&gt;Node7</title>
<path fill="none" stroke="midnightblue" d="M1761.02,-191.75C1765.42,-173.97 1767.71,-150.04 1755,-134 1686.27,-47.24 1329.1,-23.73 1203.63,-18.1"/>
<polygon fill="midnightblue" stroke="midnightblue" points="1757.65,-190.83 1758.29,-201.41 1764.38,-192.74 1757.65,-190.83"/>
</g>
<!-- Node33 -->
<g id="node33" class="node">
<title>Node33</title>
<g id="a_node33"><a xlink:href="button__window_8cpp.html" target="_top" xlink:title=" ">
<polygon fill="none" stroke="black" points="1588.5,-134.5 1588.5,-164.5 1745.5,-164.5 1745.5,-134.5 1588.5,-134.5"/>
<text text-anchor="start" x="1596.5" y="-152.5" font-family="Helvetica,sans-Serif" font-size="10.00">src/gui/windows/peripherals</text>
<text text-anchor="middle" x="1667" y="-141.5" font-family="Helvetica,sans-Serif" font-size="10.00">/external/button_window.cpp</text>
</a>
</g>
</g>
<!-- Node32&#45;&gt;Node33 -->
<g id="edge46" class="edge">
<title>Node32&#45;&gt;Node33</title>
<path fill="none" stroke="midnightblue" d="M1726.1,-195.17C1712.95,-185.23 1697.45,-173.51 1685.62,-164.58"/>
<polygon fill="midnightblue" stroke="midnightblue" points="1724.25,-198.16 1734.34,-201.4 1728.47,-192.57 1724.25,-198.16"/>
</g>
<!-- Node34&#45;&gt;Node7 -->
<g id="edge48" class="edge">
<title>Node34&#45;&gt;Node7</title>
<path fill="none" stroke="midnightblue" d="M1574.21,-191.62C1568.61,-173.41 1558.36,-148.97 1541,-134 1441.68,-48.32 1280.63,-25.1 1203.66,-18.82"/>
<polygon fill="midnightblue" stroke="midnightblue" points="1570.84,-192.58 1576.92,-201.26 1577.58,-190.68 1570.84,-192.58"/>
</g>
<!-- Node35 -->
<g id="node35" class="node">
<title>Node35</title>
<g id="a_node35"><a xlink:href="gpio__window_8cpp.html" target="_top" xlink:title=" ">
<polygon fill="none" stroke="black" points="1380,-134.5 1380,-164.5 1532,-164.5 1532,-134.5 1380,-134.5"/>
<text text-anchor="start" x="1388" y="-152.5" font-family="Helvetica,sans-Serif" font-size="10.00">src/gui/windows/peripherals</text>
<text text-anchor="middle" x="1456" y="-141.5" font-family="Helvetica,sans-Serif" font-size="10.00">/gpio_window.cpp</text>
</a>
</g>
</g>
<!-- Node34&#45;&gt;Node35 -->
<g id="edge49" class="edge">
<title>Node34&#45;&gt;Node35</title>
<path fill="none" stroke="midnightblue" d="M1544.16,-196.71C1524.61,-186.46 1500.8,-173.98 1482.85,-164.58"/>
<polygon fill="midnightblue" stroke="midnightblue" points="1542.61,-199.85 1553.09,-201.4 1545.86,-193.65 1542.61,-199.85"/>
</g>
<!-- Node37&#45;&gt;Node7 -->
<g id="edge52" class="edge">
<title>Node37&#45;&gt;Node7</title>
<path fill="none" stroke="midnightblue" d="M1068.4,-258.61C1063.09,-242.37 1058.24,-220.39 1062,-201 1076.43,-126.58 1132.62,-50.7 1152.76,-25.35"/>
<polygon fill="midnightblue" stroke="midnightblue" points="1065.23,-260.12 1071.88,-268.37 1071.82,-257.77 1065.23,-260.12"/>
</g>
<!-- Node38 -->
<g id="node38" class="node">
<title>Node38</title>
<g id="a_node38"><a xlink:href="interrupt__controller__window_8cpp.html" target="_top" xlink:title=" ">
<polygon fill="none" stroke="black" points="838,-201.5 838,-231.5 1014,-231.5 1014,-201.5 838,-201.5"/>
<text text-anchor="start" x="846" y="-219.5" font-family="Helvetica,sans-Serif" font-size="10.00">src/gui/windows/peripherals</text>
<text text-anchor="middle" x="926" y="-208.5" font-family="Helvetica,sans-Serif" font-size="10.00">/interrupt_controller_window.cpp</text>
</a>
</g>
</g>
<!-- Node37&#45;&gt;Node38 -->
<g id="edge53" class="edge">
<title>Node37&#45;&gt;Node38</title>
<path fill="none" stroke="midnightblue" d="M1035.69,-264.41C1011.42,-254.03 981.41,-241.2 958.92,-231.58"/>
<polygon fill="midnightblue" stroke="midnightblue" points="1034.45,-267.68 1045.02,-268.4 1037.2,-261.25 1034.45,-267.68"/>
</g>
<!-- Node40&#45;&gt;Node7 -->
<g id="edge63" class="edge">
<title>Node40&#45;&gt;Node7</title>
<path fill="none" stroke="midnightblue" d="M1712.21,-396.45C1724.06,-387.83 1737.34,-377.17 1748,-366 1798.06,-313.56 1819.34,-301.18 1841,-232 1856.84,-181.41 1814.24,-167.32 1773,-134 1730.81,-99.91 1722.14,-85.08 1671,-67 1585.17,-36.65 1311.01,-22.58 1203.68,-18.14"/>
<polygon fill="midnightblue" stroke="midnightblue" points="1710.02,-393.7 1703.89,-402.34 1714.07,-399.41 1710.02,-393.7"/>
</g>
<!-- Node41 -->
<g id="node41" class="node">
<title>Node41</title>
<g id="a_node41"><a xlink:href="logger__stdo_8cpp.html" target="_top" xlink:title=" ">
<polygon fill="none" stroke="black" points="1625.5,-335.5 1625.5,-365.5 1738.5,-365.5 1738.5,-335.5 1625.5,-335.5"/>
<text text-anchor="start" x="1633.5" y="-353.5" font-family="Helvetica,sans-Serif" font-size="10.00">src/core/utils/logger</text>
<text text-anchor="middle" x="1682" y="-342.5" font-family="Helvetica,sans-Serif" font-size="10.00">/logger_stdo.cpp</text>
</a>
</g>
</g>
<!-- Node40&#45;&gt;Node41 -->
<g id="edge62" class="edge">
<title>Node40&#45;&gt;Node41</title>
<path fill="none" stroke="midnightblue" d="M1682,-392.11C1682,-383.15 1682,-373.32 1682,-365.58"/>
<polygon fill="midnightblue" stroke="midnightblue" points="1678.5,-392.4 1682,-402.4 1685.5,-392.4 1678.5,-392.4"/>
</g>
<!-- Node42&#45;&gt;Node7 -->
<g id="edge67" class="edge">
<title>Node42&#45;&gt;Node7</title>
<path fill="none" stroke="midnightblue" d="M1898.23,-398.8C1915.62,-391.25 1932.89,-380.68 1945,-366 1968.67,-337.31 1964,-321.69 1964,-284.5 1964,-284.5 1964,-284.5 1964,-148.5 1964,-31.63 1828.47,-90.56 1714,-67 1526.7,-28.44 1297.72,-19.32 1203.58,-17.16"/>
<polygon fill="midnightblue" stroke="midnightblue" points="1896.55,-395.7 1888.58,-402.68 1899.16,-402.19 1896.55,-395.7"/>
</g>
<!-- Node43 -->
<g id="node43" class="node">
<title>Node43</title>
<g id="a_node43"><a xlink:href="log__window_8cpp.html" target="_top" xlink:title=" ">
<polygon fill="none" stroke="black" points="1822.5,-335.5 1822.5,-365.5 1935.5,-365.5 1935.5,-335.5 1822.5,-335.5"/>
<text text-anchor="start" x="1830.5" y="-353.5" font-family="Helvetica,sans-Serif" font-size="10.00">src/gui/windows/log</text>
<text text-anchor="middle" x="1879" y="-342.5" font-family="Helvetica,sans-Serif" font-size="10.00">_window.cpp</text>
</a>
</g>
</g>
<!-- Node42&#45;&gt;Node43 -->
<g id="edge68" class="edge">
<title>Node42&#45;&gt;Node43</title>
<path fill="none" stroke="midnightblue" d="M1848.16,-394.16C1855.01,-384.68 1862.79,-373.92 1868.82,-365.58"/>
<polygon fill="midnightblue" stroke="midnightblue" points="1845.22,-392.24 1842.2,-402.4 1850.89,-396.34 1845.22,-392.24"/>
</g>
</g>
</svg>
