<?xml version="1.0" encoding="UTF-8" standalone="no"?>
<!DOCTYPE svg PUBLIC "-//W3C//DTD SVG 1.1//EN"
 "http://www.w3.org/Graphics/SVG/1.1/DTD/svg11.dtd">
<!-- Generated by graphviz version 2.43.0 (0)
 -->
<!-- Title: src/core/utils/logger/logger.cpp Pages: 1 -->
<svg width="554pt" height="151pt"
 viewBox="0.00 0.00 553.50 151.00" xmlns="http://www.w3.org/2000/svg" xmlns:xlink="http://www.w3.org/1999/xlink">
<g id="graph0" class="graph" transform="scale(1 1) rotate(0) translate(4 147)">
<title>src/core/utils/logger/logger.cpp</title>
<!-- Node1 -->
<g id="node1" class="node">
<title>Node1</title>
<g id="a_node1"><a xlink:title=" ">
<polygon fill="#bfbfbf" stroke="black" points="88.5,-112.5 88.5,-142.5 201.5,-142.5 201.5,-112.5 88.5,-112.5"/>
<text text-anchor="start" x="96.5" y="-130.5" font-family="Helvetica,sans-Serif" font-size="10.00">src/core/utils/logger</text>
<text text-anchor="middle" x="145" y="-119.5" font-family="Helvetica,sans-Serif" font-size="10.00">/logger.cpp</text>
</a>
</g>
</g>
<!-- Node2 -->
<g id="node2" class="node">
<title>Node2</title>
<g id="a_node2"><a xlink:title=" ">
<polygon fill="none" stroke="#bfbfbf" points="0,-56.5 0,-75.5 50,-75.5 50,-56.5 0,-56.5"/>
<text text-anchor="middle" x="25" y="-63.5" font-family="Helvetica,sans-Serif" font-size="10.00">ranges</text>
</a>
</g>
</g>
<!-- Node1&#45;&gt;Node2 -->
<g id="edge1" class="edge">
<title>Node1&#45;&gt;Node2</title>
<path fill="none" stroke="midnightblue" d="M116.56,-112.4C96.88,-102.64 70.86,-89.74 51.59,-80.18"/>
<polygon fill="midnightblue" stroke="midnightblue" points="52.98,-76.96 42.46,-75.66 49.87,-83.24 52.98,-76.96"/>
</g>
<!-- Node3 -->
<g id="node3" class="node">
<title>Node3</title>
<g id="a_node3"><a xlink:title=" ">
<polygon fill="none" stroke="#bfbfbf" points="68,-56.5 68,-75.5 132,-75.5 132,-56.5 68,-56.5"/>
<text text-anchor="middle" x="100" y="-63.5" font-family="Helvetica,sans-Serif" font-size="10.00">algorithm</text>
</a>
</g>
</g>
<!-- Node1&#45;&gt;Node3 -->
<g id="edge2" class="edge">
<title>Node1&#45;&gt;Node3</title>
<path fill="none" stroke="midnightblue" d="M134.34,-112.4C127.86,-103.84 119.57,-92.87 112.75,-83.86"/>
<polygon fill="midnightblue" stroke="midnightblue" points="115.37,-81.52 106.55,-75.66 109.79,-85.74 115.37,-81.52"/>
</g>
<!-- Node4 -->
<g id="node4" class="node">
<title>Node4</title>
<g id="a_node4"><a xlink:title=" ">
<polygon fill="none" stroke="#bfbfbf" points="150.5,-56.5 150.5,-75.5 229.5,-75.5 229.5,-56.5 150.5,-56.5"/>
<text text-anchor="middle" x="190" y="-63.5" font-family="Helvetica,sans-Serif" font-size="10.00">fmt/format.h</text>
</a>
</g>
</g>
<!-- Node1&#45;&gt;Node4 -->
<g id="edge3" class="edge">
<title>Node1&#45;&gt;Node4</title>
<path fill="none" stroke="midnightblue" d="M155.66,-112.4C162.14,-103.84 170.43,-92.87 177.25,-83.86"/>
<polygon fill="midnightblue" stroke="midnightblue" points="180.21,-85.74 183.45,-75.66 174.63,-81.52 180.21,-85.74"/>
</g>
<!-- Node5 -->
<g id="node5" class="node">
<title>Node5</title>
<g id="a_node5"><a xlink:href="logger_8hpp.html" target="_top" xlink:title=" ">
<polygon fill="none" stroke="black" points="248,-56.5 248,-75.5 316,-75.5 316,-56.5 248,-56.5"/>
<text text-anchor="middle" x="282" y="-63.5" font-family="Helvetica,sans-Serif" font-size="10.00">logger.hpp</text>
</a>
</g>
</g>
<!-- Node1&#45;&gt;Node5 -->
<g id="edge4" class="edge">
<title>Node1&#45;&gt;Node5</title>
<path fill="none" stroke="midnightblue" d="M177.47,-112.4C200.35,-102.46 230.73,-89.26 252.84,-79.66"/>
<polygon fill="midnightblue" stroke="midnightblue" points="254.29,-82.85 262.07,-75.66 251.5,-76.43 254.29,-82.85"/>
</g>
<!-- Node6 -->
<g id="node6" class="node">
<title>Node6</title>
<g id="a_node6"><a xlink:title=" ">
<polygon fill="none" stroke="#bfbfbf" points="85,-0.5 85,-19.5 133,-19.5 133,-0.5 85,-0.5"/>
<text text-anchor="middle" x="109" y="-7.5" font-family="Helvetica,sans-Serif" font-size="10.00">mutex</text>
</a>
</g>
</g>
<!-- Node5&#45;&gt;Node6 -->
<g id="edge5" class="edge">
<title>Node5&#45;&gt;Node6</title>
<path fill="none" stroke="midnightblue" d="M254.59,-56.44C224.28,-46.98 175.44,-31.74 142.79,-21.55"/>
<polygon fill="midnightblue" stroke="midnightblue" points="143.8,-18.2 133.21,-18.56 141.72,-24.88 143.8,-18.2"/>
</g>
<!-- Node7 -->
<g id="node7" class="node">
<title>Node7</title>
<g id="a_node7"><a xlink:title=" ">
<polygon fill="none" stroke="#bfbfbf" points="151.5,-0.5 151.5,-19.5 198.5,-19.5 198.5,-0.5 151.5,-0.5"/>
<text text-anchor="middle" x="175" y="-7.5" font-family="Helvetica,sans-Serif" font-size="10.00">vector</text>
</a>
</g>
</g>
<!-- Node5&#45;&gt;Node7 -->
<g id="edge6" class="edge">
<title>Node5&#45;&gt;Node7</title>
<path fill="none" stroke="midnightblue" d="M264.81,-56.32C247.65,-47.66 221.05,-34.24 201.25,-24.25"/>
<polygon fill="midnightblue" stroke="midnightblue" points="202.65,-21.04 192.15,-19.65 199.5,-27.28 202.65,-21.04"/>
</g>
<!-- Node8 -->
<g id="node8" class="node">
<title>Node8</title>
<g id="a_node8"><a xlink:title=" ">
<polygon fill="none" stroke="#bfbfbf" points="217,-0.5 217,-19.5 275,-19.5 275,-0.5 217,-0.5"/>
<text text-anchor="middle" x="246" y="-7.5" font-family="Helvetica,sans-Serif" font-size="10.00">memory</text>
</a>
</g>
</g>
<!-- Node5&#45;&gt;Node8 -->
<g id="edge7" class="edge">
<title>Node5&#45;&gt;Node8</title>
<path fill="none" stroke="midnightblue" d="M276.06,-56.08C271.02,-48.53 263.66,-37.49 257.49,-28.23"/>
<polygon fill="midnightblue" stroke="midnightblue" points="260.29,-26.13 251.83,-19.75 254.47,-30.01 260.29,-26.13"/>
</g>
<!-- Node9 -->
<g id="node9" class="node">
<title>Node9</title>
<g id="a_node9"><a xlink:title=" ">
<polygon fill="none" stroke="#bfbfbf" points="293,-0.5 293,-19.5 343,-19.5 343,-0.5 293,-0.5"/>
<text text-anchor="middle" x="318" y="-7.5" font-family="Helvetica,sans-Serif" font-size="10.00">cstdint</text>
</a>
</g>
</g>
<!-- Node5&#45;&gt;Node9 -->
<g id="edge8" class="edge">
<title>Node5&#45;&gt;Node9</title>
<path fill="none" stroke="midnightblue" d="M287.94,-56.08C292.98,-48.53 300.34,-37.49 306.51,-28.23"/>
<polygon fill="midnightblue" stroke="midnightblue" points="309.53,-30.01 312.17,-19.75 303.71,-26.13 309.53,-30.01"/>
</g>
<!-- Node10 -->
<g id="node10" class="node">
<title>Node10</title>
<g id="a_node10"><a xlink:title=" ">
<polygon fill="none" stroke="#bfbfbf" points="361.5,-0.5 361.5,-19.5 434.5,-19.5 434.5,-0.5 361.5,-0.5"/>
<text text-anchor="middle" x="398" y="-7.5" font-family="Helvetica,sans-Serif" font-size="10.00">string_view</text>
</a>
</g>
</g>
<!-- Node5&#45;&gt;Node10 -->
<g id="edge9" class="edge">
<title>Node5&#45;&gt;Node10</title>
<path fill="none" stroke="midnightblue" d="M300.38,-56.44C319.22,-47.68 348.73,-33.94 370.38,-23.86"/>
<polygon fill="midnightblue" stroke="midnightblue" points="372.12,-26.91 379.71,-19.52 369.16,-20.56 372.12,-26.91"/>
</g>
<!-- Node11 -->
<g id="node11" class="node">
<title>Node11</title>
<g id="a_node11"><a xlink:title=" ">
<polygon fill="none" stroke="#bfbfbf" points="452.5,-0.5 452.5,-19.5 545.5,-19.5 545.5,-0.5 452.5,-0.5"/>
<text text-anchor="middle" x="499" y="-7.5" font-family="Helvetica,sans-Serif" font-size="10.00">source_location</text>
</a>
</g>
</g>
<!-- Node5&#45;&gt;Node11 -->
<g id="edge10" class="edge">
<title>Node5&#45;&gt;Node11</title>
<path fill="none" stroke="midnightblue" d="M316.38,-56.44C353.92,-47.1 414.13,-32.12 455.07,-21.93"/>
<polygon fill="midnightblue" stroke="midnightblue" points="455.92,-25.33 464.78,-19.52 454.23,-18.53 455.92,-25.33"/>
</g>
</g>
</svg>
