<?xml version="1.0" encoding="UTF-8" standalone="no"?>
<!DOCTYPE svg PUBLIC "-//W3C//DTD SVG 1.1//EN"
 "http://www.w3.org/Graphics/SVG/1.1/DTD/svg11.dtd">
<!-- Generated by graphviz version 2.43.0 (0)
 -->
<!-- Title: src/core/arm1176jzf_s/mac.hpp Pages: 1 -->
<svg width="242pt" height="151pt"
 viewBox="0.00 0.00 242.00 151.00" xmlns="http://www.w3.org/2000/svg" xmlns:xlink="http://www.w3.org/1999/xlink">
<g id="graph0" class="graph" transform="scale(1 1) rotate(0) translate(4 147)">
<title>src/core/arm1176jzf_s/mac.hpp</title>
<!-- Node1 -->
<g id="node1" class="node">
<title>Node1</title>
<g id="a_node1"><a xlink:title="This file defines the functionality of the CPU multiplier (MAC unit).">
<polygon fill="#bfbfbf" stroke="black" points="53.5,-112.5 53.5,-142.5 166.5,-142.5 166.5,-112.5 53.5,-112.5"/>
<text text-anchor="start" x="61.5" y="-130.5" font-family="Helvetica,sans-Serif" font-size="10.00">src/core/arm1176jzf</text>
<text text-anchor="middle" x="110" y="-119.5" font-family="Helvetica,sans-Serif" font-size="10.00">_s/mac.hpp</text>
</a>
</g>
</g>
<!-- Node2 -->
<g id="node2" class="node">
<title>Node2</title>
<g id="a_node2"><a xlink:href="multiply_8hpp.html" target="_top" xlink:title="This file defines a multiplication instruction (MUL, MLA).">
<polygon fill="none" stroke="black" points="0,-56.5 0,-75.5 94,-75.5 94,-56.5 0,-56.5"/>
<text text-anchor="middle" x="47" y="-63.5" font-family="Helvetica,sans-Serif" font-size="10.00">isa/multiply.hpp</text>
</a>
</g>
</g>
<!-- Node1&#45;&gt;Node2 -->
<g id="edge1" class="edge">
<title>Node1&#45;&gt;Node2</title>
<path fill="none" stroke="midnightblue" d="M95.07,-112.4C85.63,-103.49 73.42,-91.95 63.67,-82.74"/>
<polygon fill="midnightblue" stroke="midnightblue" points="65.84,-79.98 56.17,-75.66 61.03,-85.07 65.84,-79.98"/>
</g>
<!-- Node4 -->
<g id="node4" class="node">
<title>Node4</title>
<g id="a_node4"><a xlink:href="multiply__long_8hpp.html" target="_top" xlink:title="This file defines a multiplication (long) instruction.">
<polygon fill="none" stroke="black" points="112,-56.5 112,-75.5 234,-75.5 234,-56.5 112,-56.5"/>
<text text-anchor="middle" x="173" y="-63.5" font-family="Helvetica,sans-Serif" font-size="10.00">isa/multiply_long.hpp</text>
</a>
</g>
</g>
<!-- Node1&#45;&gt;Node4 -->
<g id="edge3" class="edge">
<title>Node1&#45;&gt;Node4</title>
<path fill="none" stroke="midnightblue" d="M124.93,-112.4C134.37,-103.49 146.58,-91.95 156.33,-82.74"/>
<polygon fill="midnightblue" stroke="midnightblue" points="158.97,-85.07 163.83,-75.66 154.16,-79.98 158.97,-85.07"/>
</g>
<!-- Node3 -->
<g id="node3" class="node">
<title>Node3</title>
<g id="a_node3"><a xlink:href="instruction_8hpp.html" target="_top" xlink:title="This file defines the interface of a general ARM instruction.">
<polygon fill="none" stroke="black" points="65.5,-0.5 65.5,-19.5 154.5,-19.5 154.5,-0.5 65.5,-0.5"/>
<text text-anchor="middle" x="110" y="-7.5" font-family="Helvetica,sans-Serif" font-size="10.00">instruction.hpp</text>
</a>
</g>
</g>
<!-- Node2&#45;&gt;Node3 -->
<g id="edge2" class="edge">
<title>Node2&#45;&gt;Node3</title>
<path fill="none" stroke="midnightblue" d="M57.12,-56.32C66.53,-48.26 80.74,-36.08 92.07,-26.37"/>
<polygon fill="midnightblue" stroke="midnightblue" points="94.38,-29 99.69,-19.83 89.82,-23.68 94.38,-29"/>
</g>
<!-- Node4&#45;&gt;Node3 -->
<g id="edge4" class="edge">
<title>Node4&#45;&gt;Node3</title>
<path fill="none" stroke="midnightblue" d="M162.88,-56.32C153.47,-48.26 139.26,-36.08 127.93,-26.37"/>
<polygon fill="midnightblue" stroke="midnightblue" points="130.18,-23.68 120.31,-19.83 125.62,-29 130.18,-23.68"/>
</g>
</g>
</svg>
