<?xml version="1.0" encoding="UTF-8" standalone="no"?>
<!DOCTYPE svg PUBLIC "-//W3C//DTD SVG 1.1//EN"
 "http://www.w3.org/Graphics/SVG/1.1/DTD/svg11.dtd">
<!-- Generated by graphviz version 2.43.0 (0)
 -->
<!-- Title: main Pages: 1 -->
<svg width="228pt" height="66pt"
 viewBox="0.00 0.00 228.00 66.00" xmlns="http://www.w3.org/2000/svg" xmlns:xlink="http://www.w3.org/1999/xlink">
<g id="graph0" class="graph" transform="scale(1 1) rotate(0) translate(4 62)">
<title>main</title>
<!-- Node1 -->
<g id="node1" class="node">
<title>Node1</title>
<g id="a_node1"><a xlink:title="Entry point of the application.">
<polygon fill="#bfbfbf" stroke="black" points="0,-19.5 0,-38.5 41,-38.5 41,-19.5 0,-19.5"/>
<text text-anchor="middle" x="20.5" y="-26.5" font-family="Helvetica,sans-Serif" font-size="10.00">main</text>
</a>
</g>
</g>
<!-- Node2 -->
<g id="node2" class="node">
<title>Node2</title>
<g id="a_node2"><a xlink:href="namespacezero__mate_1_1soc.html#a3a1bd117cb86b2023bd0a9c617ce3bfe" target="_top" xlink:title="Initializes the system.">
<polygon fill="none" stroke="black" points="92,-38.5 92,-57.5 205,-57.5 205,-38.5 92,-38.5"/>
<text text-anchor="middle" x="148.5" y="-45.5" font-family="Helvetica,sans-Serif" font-size="10.00">zero_mate::soc::Init</text>
</a>
</g>
</g>
<!-- Node1&#45;&gt;Node2 -->
<g id="edge1" class="edge">
<title>Node1&#45;&gt;Node2</title>
<path fill="none" stroke="midnightblue" d="M41.19,-31.97C52.27,-33.64 66.81,-35.83 81.57,-38.06"/>
<polygon fill="midnightblue" stroke="midnightblue" points="81.37,-41.57 91.78,-39.6 82.41,-34.65 81.37,-41.57"/>
</g>
<!-- Node3 -->
<g id="node3" class="node">
<title>Node3</title>
<g id="a_node3"><a xlink:href="namespacezero__mate_1_1gui.html#ad17e948433f50f210774367b5671af03" target="_top" xlink:title=" ">
<polygon fill="none" stroke="black" points="77,-0.5 77,-19.5 220,-19.5 220,-0.5 77,-0.5"/>
<text text-anchor="middle" x="148.5" y="-7.5" font-family="Helvetica,sans-Serif" font-size="10.00">zero_mate::gui::Main_GUI</text>
</a>
</g>
</g>
<!-- Node1&#45;&gt;Node3 -->
<g id="edge2" class="edge">
<title>Node1&#45;&gt;Node3</title>
<path fill="none" stroke="midnightblue" d="M41.19,-26.03C50.47,-24.63 62.19,-22.86 74.43,-21.02"/>
<polygon fill="midnightblue" stroke="midnightblue" points="74.95,-24.48 84.32,-19.53 73.91,-17.56 74.95,-24.48"/>
</g>
</g>
</svg>
