<?xml version="1.0" encoding="UTF-8" standalone="no"?>
<!DOCTYPE svg PUBLIC "-//W3C//DTD SVG 1.1//EN"
 "http://www.w3.org/Graphics/SVG/1.1/DTD/svg11.dtd">
<!-- Generated by graphviz version 2.43.0 (0)
 -->
<!-- Title: src/core/utils/math.hpp Pages: 1 -->
<svg width="1255pt" height="240pt"
 viewBox="0.00 0.00 1254.50 240.00" xmlns="http://www.w3.org/2000/svg" xmlns:xlink="http://www.w3.org/1999/xlink">
<g id="graph0" class="graph" transform="scale(1 1) rotate(0) translate(4 236)">
<title>src/core/utils/math.hpp</title>
<!-- Node1 -->
<g id="node1" class="node">
<title>Node1</title>
<g id="a_node1"><a xlink:title="This file defines and implements a variety of handy helper functions that are used throughout the pro...">
<polygon fill="#bfbfbf" stroke="black" points="604.5,-212.5 604.5,-231.5 732.5,-231.5 732.5,-212.5 604.5,-212.5"/>
<text text-anchor="middle" x="668.5" y="-219.5" font-family="Helvetica,sans-Serif" font-size="10.00">src/core/utils/math.hpp</text>
</a>
</g>
</g>
<!-- Node2 -->
<g id="node2" class="node">
<title>Node2</title>
<g id="a_node2"><a xlink:href="alu_8cpp.html" target="_top" xlink:title="This file implements the functionality of the arithmetic logic unit (ALU).">
<polygon fill="none" stroke="black" points="145,-140 145,-170 258,-170 258,-140 145,-140"/>
<text text-anchor="start" x="153" y="-158" font-family="Helvetica,sans-Serif" font-size="10.00">src/core/arm1176jzf</text>
<text text-anchor="middle" x="201.5" y="-147" font-family="Helvetica,sans-Serif" font-size="10.00">_s/alu.cpp</text>
</a>
</g>
</g>
<!-- Node1&#45;&gt;Node2 -->
<g id="edge1" class="edge">
<title>Node1&#45;&gt;Node2</title>
<path fill="none" stroke="midnightblue" d="M594.09,-216.85C512.9,-211.35 379.42,-199.48 266.5,-176 258.87,-174.41 250.85,-172.32 243.16,-170.08"/>
<polygon fill="midnightblue" stroke="midnightblue" points="594,-220.35 604.21,-217.52 594.46,-213.37 594,-220.35"/>
</g>
<!-- Node3 -->
<g id="node3" class="node">
<title>Node3</title>
<g id="a_node3"><a xlink:href="core_8hpp.html" target="_top" xlink:title="This file defines a class that represents a CPU core (arm1176jzf_s).">
<polygon fill="none" stroke="black" points="276,-140 276,-170 389,-170 389,-140 276,-140"/>
<text text-anchor="start" x="284" y="-158" font-family="Helvetica,sans-Serif" font-size="10.00">src/core/arm1176jzf</text>
<text text-anchor="middle" x="332.5" y="-147" font-family="Helvetica,sans-Serif" font-size="10.00">_s/core.hpp</text>
</a>
</g>
</g>
<!-- Node1&#45;&gt;Node3 -->
<g id="edge2" class="edge">
<title>Node1&#45;&gt;Node3</title>
<path fill="none" stroke="midnightblue" d="M594.55,-211.3C540.01,-203.51 464.17,-191.35 398.5,-176 391.16,-174.28 383.43,-172.2 375.95,-170.03"/>
<polygon fill="midnightblue" stroke="midnightblue" points="594.09,-214.77 604.49,-212.71 595.07,-207.84 594.09,-214.77"/>
</g>
<!-- Node14 -->
<g id="node14" class="node">
<title>Node14</title>
<g id="a_node14"><a xlink:href="branch_8cpp.html" target="_top" xlink:title="This file implements a branch instruction (B, BL) as defined in branch.hpp.">
<polygon fill="none" stroke="black" points="407,-140 407,-170 520,-170 520,-140 407,-140"/>
<text text-anchor="start" x="415" y="-158" font-family="Helvetica,sans-Serif" font-size="10.00">src/core/arm1176jzf</text>
<text text-anchor="middle" x="463.5" y="-147" font-family="Helvetica,sans-Serif" font-size="10.00">_s/isa/branch.cpp</text>
</a>
</g>
</g>
<!-- Node1&#45;&gt;Node14 -->
<g id="edge16" class="edge">
<title>Node1&#45;&gt;Node14</title>
<path fill="none" stroke="midnightblue" d="M631.52,-209.27C596.76,-198.25 544.69,-181.74 507.74,-170.03"/>
<polygon fill="midnightblue" stroke="midnightblue" points="630.69,-212.68 641.28,-212.37 632.8,-206.01 630.69,-212.68"/>
</g>
<!-- Node15 -->
<g id="node15" class="node">
<title>Node15</title>
<g id="a_node15"><a xlink:href="isa__decoder_8cpp.html" target="_top" xlink:title="This file implements an instruction decoder defined in isa_decoder.hpp.">
<polygon fill="none" stroke="black" points="538,-140 538,-170 663,-170 663,-140 538,-140"/>
<text text-anchor="start" x="546" y="-158" font-family="Helvetica,sans-Serif" font-size="10.00">src/core/arm1176jzf</text>
<text text-anchor="middle" x="600.5" y="-147" font-family="Helvetica,sans-Serif" font-size="10.00">_s/isa/isa_decoder.cpp</text>
</a>
</g>
</g>
<!-- Node1&#45;&gt;Node15 -->
<g id="edge17" class="edge">
<title>Node1&#45;&gt;Node15</title>
<path fill="none" stroke="midnightblue" d="M651.88,-205.12C640.68,-194.41 626.03,-180.4 615.24,-170.09"/>
<polygon fill="midnightblue" stroke="midnightblue" points="649.68,-207.85 659.33,-212.23 654.52,-202.79 649.68,-207.85"/>
</g>
<!-- Node16 -->
<g id="node16" class="node">
<title>Node16</title>
<g id="a_node16"><a xlink:href="mac_8cpp.html" target="_top" xlink:title="This file implements the functionality of the CPU multiplier (MAC unit).">
<polygon fill="none" stroke="black" points="681,-140 681,-170 794,-170 794,-140 681,-140"/>
<text text-anchor="start" x="689" y="-158" font-family="Helvetica,sans-Serif" font-size="10.00">src/core/arm1176jzf</text>
<text text-anchor="middle" x="737.5" y="-147" font-family="Helvetica,sans-Serif" font-size="10.00">_s/mac.cpp</text>
</a>
</g>
</g>
<!-- Node1&#45;&gt;Node16 -->
<g id="edge18" class="edge">
<title>Node1&#45;&gt;Node16</title>
<path fill="none" stroke="midnightblue" d="M685.36,-205.12C696.73,-194.41 711.6,-180.4 722.54,-170.09"/>
<polygon fill="midnightblue" stroke="midnightblue" points="682.68,-202.83 677.81,-212.23 687.48,-207.92 682.68,-202.83"/>
</g>
<!-- Node17 -->
<g id="node17" class="node">
<title>Node17</title>
<g id="a_node17"><a xlink:href="gpio_8cpp.html" target="_top" xlink:title="This file implements the GPIO controller used in BCM2835 (defined in gpio.hpp).">
<polygon fill="none" stroke="black" points="812,-140 812,-170 925,-170 925,-140 812,-140"/>
<text text-anchor="start" x="820" y="-158" font-family="Helvetica,sans-Serif" font-size="10.00">src/core/peripherals</text>
<text text-anchor="middle" x="868.5" y="-147" font-family="Helvetica,sans-Serif" font-size="10.00">/gpio.cpp</text>
</a>
</g>
</g>
<!-- Node1&#45;&gt;Node17 -->
<g id="edge19" class="edge">
<title>Node1&#45;&gt;Node17</title>
<path fill="none" stroke="midnightblue" d="M704.58,-209.27C738.49,-198.25 789.29,-181.74 825.34,-170.03"/>
<polygon fill="midnightblue" stroke="midnightblue" points="703.49,-205.95 695.06,-212.37 705.65,-212.61 703.49,-205.95"/>
</g>
<!-- Node18 -->
<g id="node18" class="node">
<title>Node18</title>
<g id="a_node18"><a xlink:href="interrupt__controller_8cpp.html" target="_top" xlink:title="This file implements the interrupt controller used in BCM2835 (defined in interrupt_controller....">
<polygon fill="none" stroke="black" points="943,-140 943,-170 1076,-170 1076,-140 943,-140"/>
<text text-anchor="start" x="951" y="-158" font-family="Helvetica,sans-Serif" font-size="10.00">src/core/peripherals</text>
<text text-anchor="middle" x="1009.5" y="-147" font-family="Helvetica,sans-Serif" font-size="10.00">/interrupt_controller.cpp</text>
</a>
</g>
</g>
<!-- Node1&#45;&gt;Node18 -->
<g id="edge20" class="edge">
<title>Node1&#45;&gt;Node18</title>
<path fill="none" stroke="midnightblue" d="M738.62,-210.96C792.45,-202.81 868.5,-190.35 934.5,-176 942.53,-174.25 951,-172.2 959.23,-170.09"/>
<polygon fill="midnightblue" stroke="midnightblue" points="737.86,-207.53 728.49,-212.48 738.9,-214.46 737.86,-207.53"/>
</g>
<!-- Node19 -->
<g id="node19" class="node">
<title>Node19</title>
<g id="a_node19"><a xlink:href="seven__segment__display__window_8cpp.html" target="_top" xlink:title=" ">
<polygon fill="none" stroke="black" points="1094.5,-134.5 1094.5,-175.5 1246.5,-175.5 1246.5,-134.5 1094.5,-134.5"/>
<text text-anchor="start" x="1102.5" y="-163.5" font-family="Helvetica,sans-Serif" font-size="10.00">src/gui/windows/peripherals</text>
<text text-anchor="start" x="1102.5" y="-152.5" font-family="Helvetica,sans-Serif" font-size="10.00">/external/seven_segment</text>
<text text-anchor="middle" x="1170.5" y="-141.5" font-family="Helvetica,sans-Serif" font-size="10.00">_display_window.cpp</text>
</a>
</g>
</g>
<!-- Node1&#45;&gt;Node19 -->
<g id="edge21" class="edge">
<title>Node1&#45;&gt;Node19</title>
<path fill="none" stroke="midnightblue" d="M742.95,-215.76C826.67,-209.22 966.47,-196.35 1085.5,-176 1088.34,-175.51 1091.23,-174.99 1094.14,-174.44"/>
<polygon fill="midnightblue" stroke="midnightblue" points="742.48,-212.28 732.78,-216.54 743.02,-219.26 742.48,-212.28"/>
</g>
<!-- Node4 -->
<g id="node4" class="node">
<title>Node4</title>
<g id="a_node4"><a xlink:href="core_8cpp.html" target="_top" xlink:title="This file implements the CCPU_Core class defined in core.hpp.">
<polygon fill="none" stroke="black" points="0,-67.5 0,-97.5 113,-97.5 113,-67.5 0,-67.5"/>
<text text-anchor="start" x="8" y="-85.5" font-family="Helvetica,sans-Serif" font-size="10.00">src/core/arm1176jzf</text>
<text text-anchor="middle" x="56.5" y="-74.5" font-family="Helvetica,sans-Serif" font-size="10.00">_s/core.cpp</text>
</a>
</g>
</g>
<!-- Node3&#45;&gt;Node4 -->
<g id="edge3" class="edge">
<title>Node3&#45;&gt;Node4</title>
<path fill="none" stroke="midnightblue" d="M277.59,-137.1C273.85,-136.03 270.12,-134.98 266.5,-134 214.93,-120 155.71,-105.94 113.33,-96.22"/>
<polygon fill="midnightblue" stroke="midnightblue" points="276.93,-140.55 287.51,-139.99 278.89,-133.83 276.93,-140.55"/>
</g>
<!-- Node5 -->
<g id="node5" class="node">
<title>Node5</title>
<g id="a_node5"><a xlink:href="control__window_8hpp.html" target="_top" xlink:title=" ">
<polygon fill="none" stroke="black" points="569,-67.5 569,-97.5 700,-97.5 700,-67.5 569,-67.5"/>
<text text-anchor="start" x="577" y="-85.5" font-family="Helvetica,sans-Serif" font-size="10.00">src/gui/windows/control</text>
<text text-anchor="middle" x="634.5" y="-74.5" font-family="Helvetica,sans-Serif" font-size="10.00">_window.hpp</text>
</a>
</g>
</g>
<!-- Node3&#45;&gt;Node5 -->
<g id="edge4" class="edge">
<title>Node3&#45;&gt;Node5</title>
<path fill="none" stroke="midnightblue" d="M386.85,-137.14C390.78,-136.04 394.7,-134.98 398.5,-134 430.09,-125.85 510.6,-108.92 568.81,-96.92"/>
<polygon fill="midnightblue" stroke="midnightblue" points="385.74,-133.82 377.09,-139.94 387.67,-140.55 385.74,-133.82"/>
</g>
<!-- Node8 -->
<g id="node8" class="node">
<title>Node8</title>
<g id="a_node8"><a xlink:href="file__window_8hpp.html" target="_top" xlink:title=" ">
<polygon fill="none" stroke="black" points="131,-67.5 131,-97.5 244,-97.5 244,-67.5 131,-67.5"/>
<text text-anchor="start" x="139" y="-85.5" font-family="Helvetica,sans-Serif" font-size="10.00">src/gui/windows/file</text>
<text text-anchor="middle" x="187.5" y="-74.5" font-family="Helvetica,sans-Serif" font-size="10.00">_window.hpp</text>
</a>
</g>
</g>
<!-- Node3&#45;&gt;Node8 -->
<g id="edge7" class="edge">
<title>Node3&#45;&gt;Node8</title>
<path fill="none" stroke="midnightblue" d="M294.51,-135.53C270.09,-123.66 238.86,-108.47 216.44,-97.57"/>
<polygon fill="midnightblue" stroke="midnightblue" points="292.98,-138.68 303.51,-139.9 296.04,-132.38 292.98,-138.68"/>
</g>
<!-- Node10 -->
<g id="node10" class="node">
<title>Node10</title>
<g id="a_node10"><a xlink:href="registers__window_8hpp.html" target="_top" xlink:title=" ">
<polygon fill="none" stroke="black" points="262.5,-67.5 262.5,-97.5 402.5,-97.5 402.5,-67.5 262.5,-67.5"/>
<text text-anchor="start" x="270.5" y="-85.5" font-family="Helvetica,sans-Serif" font-size="10.00">src/gui/windows/registers</text>
<text text-anchor="middle" x="332.5" y="-74.5" font-family="Helvetica,sans-Serif" font-size="10.00">_window.hpp</text>
</a>
</g>
</g>
<!-- Node3&#45;&gt;Node10 -->
<g id="edge10" class="edge">
<title>Node3&#45;&gt;Node10</title>
<path fill="none" stroke="midnightblue" d="M332.5,-129.73C332.5,-119.07 332.5,-106.91 332.5,-97.75"/>
<polygon fill="midnightblue" stroke="midnightblue" points="329,-129.73 332.5,-139.73 336,-129.73 329,-129.73"/>
</g>
<!-- Node12 -->
<g id="node12" class="node">
<title>Node12</title>
<g id="a_node12"><a xlink:href="source__code__window_8hpp.html" target="_top" xlink:title=" ">
<polygon fill="none" stroke="black" points="420.5,-67.5 420.5,-97.5 550.5,-97.5 550.5,-67.5 420.5,-67.5"/>
<text text-anchor="start" x="428.5" y="-85.5" font-family="Helvetica,sans-Serif" font-size="10.00">src/gui/windows/source</text>
<text text-anchor="middle" x="485.5" y="-74.5" font-family="Helvetica,sans-Serif" font-size="10.00">_code_window.hpp</text>
</a>
</g>
</g>
<!-- Node3&#45;&gt;Node12 -->
<g id="edge13" class="edge">
<title>Node3&#45;&gt;Node12</title>
<path fill="none" stroke="midnightblue" d="M372.24,-135.69C398.06,-123.79 431.21,-108.52 454.96,-97.57"/>
<polygon fill="midnightblue" stroke="midnightblue" points="370.71,-132.54 363.09,-139.9 373.64,-138.9 370.71,-132.54"/>
</g>
<!-- Node6 -->
<g id="node6" class="node">
<title>Node6</title>
<g id="a_node6"><a xlink:href="gui_8cpp.html" target="_top" xlink:title=" ">
<polygon fill="none" stroke="black" points="368,-6 368,-25 455,-25 455,-6 368,-6"/>
<text text-anchor="middle" x="411.5" y="-13" font-family="Helvetica,sans-Serif" font-size="10.00">src/gui/gui.cpp</text>
</a>
</g>
</g>
<!-- Node5&#45;&gt;Node6 -->
<g id="edge5" class="edge">
<title>Node5&#45;&gt;Node6</title>
<path fill="none" stroke="midnightblue" d="M576.76,-64.67C533.18,-51.97 475.19,-35.06 440.76,-25.03"/>
<polygon fill="midnightblue" stroke="midnightblue" points="575.81,-68.04 586.39,-67.48 577.77,-61.32 575.81,-68.04"/>
</g>
<!-- Node7 -->
<g id="node7" class="node">
<title>Node7</title>
<g id="a_node7"><a xlink:href="control__window_8cpp.html" target="_top" xlink:title=" ">
<polygon fill="none" stroke="black" points="622,-0.5 622,-30.5 753,-30.5 753,-0.5 622,-0.5"/>
<text text-anchor="start" x="630" y="-18.5" font-family="Helvetica,sans-Serif" font-size="10.00">src/gui/windows/control</text>
<text text-anchor="middle" x="687.5" y="-7.5" font-family="Helvetica,sans-Serif" font-size="10.00">_window.cpp</text>
</a>
</g>
</g>
<!-- Node5&#45;&gt;Node7 -->
<g id="edge6" class="edge">
<title>Node5&#45;&gt;Node7</title>
<path fill="none" stroke="midnightblue" d="M652.48,-59.45C660.27,-49.9 669.15,-39 676.02,-30.58"/>
<polygon fill="midnightblue" stroke="midnightblue" points="649.61,-57.43 646,-67.4 655.03,-61.86 649.61,-57.43"/>
</g>
<!-- Node8&#45;&gt;Node6 -->
<g id="edge8" class="edge">
<title>Node8&#45;&gt;Node6</title>
<path fill="none" stroke="midnightblue" d="M245.5,-64.67C289.28,-51.97 347.53,-35.06 382.11,-25.03"/>
<polygon fill="midnightblue" stroke="midnightblue" points="244.46,-61.33 235.83,-67.48 246.41,-68.05 244.46,-61.33"/>
</g>
<!-- Node9 -->
<g id="node9" class="node">
<title>Node9</title>
<g id="a_node9"><a xlink:href="file__window_8cpp.html" target="_top" xlink:title=" ">
<polygon fill="none" stroke="black" points="78,-0.5 78,-30.5 191,-30.5 191,-0.5 78,-0.5"/>
<text text-anchor="start" x="86" y="-18.5" font-family="Helvetica,sans-Serif" font-size="10.00">src/gui/windows/file</text>
<text text-anchor="middle" x="134.5" y="-7.5" font-family="Helvetica,sans-Serif" font-size="10.00">_window.cpp</text>
</a>
</g>
</g>
<!-- Node8&#45;&gt;Node9 -->
<g id="edge9" class="edge">
<title>Node8&#45;&gt;Node9</title>
<path fill="none" stroke="midnightblue" d="M169.52,-59.45C161.73,-49.9 152.85,-39 145.98,-30.58"/>
<polygon fill="midnightblue" stroke="midnightblue" points="166.97,-61.86 176,-67.4 172.39,-57.43 166.97,-61.86"/>
</g>
<!-- Node10&#45;&gt;Node6 -->
<g id="edge11" class="edge">
<title>Node10&#45;&gt;Node6</title>
<path fill="none" stroke="midnightblue" d="M357.41,-61.01C372.07,-48.94 389.86,-34.3 400.93,-25.19"/>
<polygon fill="midnightblue" stroke="midnightblue" points="355.14,-58.34 349.64,-67.4 359.59,-63.75 355.14,-58.34"/>
</g>
<!-- Node11 -->
<g id="node11" class="node">
<title>Node11</title>
<g id="a_node11"><a xlink:href="registers__window_8cpp.html" target="_top" xlink:title=" ">
<polygon fill="none" stroke="black" points="209.5,-0.5 209.5,-30.5 349.5,-30.5 349.5,-0.5 209.5,-0.5"/>
<text text-anchor="start" x="217.5" y="-18.5" font-family="Helvetica,sans-Serif" font-size="10.00">src/gui/windows/registers</text>
<text text-anchor="middle" x="279.5" y="-7.5" font-family="Helvetica,sans-Serif" font-size="10.00">_window.cpp</text>
</a>
</g>
</g>
<!-- Node10&#45;&gt;Node11 -->
<g id="edge12" class="edge">
<title>Node10&#45;&gt;Node11</title>
<path fill="none" stroke="midnightblue" d="M314.52,-59.45C306.73,-49.9 297.85,-39 290.98,-30.58"/>
<polygon fill="midnightblue" stroke="midnightblue" points="311.97,-61.86 321,-67.4 317.39,-57.43 311.97,-61.86"/>
</g>
<!-- Node12&#45;&gt;Node6 -->
<g id="edge14" class="edge">
<title>Node12&#45;&gt;Node6</title>
<path fill="none" stroke="midnightblue" d="M461.79,-60.67C448.13,-48.67 431.67,-34.22 421.4,-25.19"/>
<polygon fill="midnightblue" stroke="midnightblue" points="459.62,-63.43 469.44,-67.4 464.24,-58.17 459.62,-63.43"/>
</g>
<!-- Node13 -->
<g id="node13" class="node">
<title>Node13</title>
<g id="a_node13"><a xlink:href="source__code__window_8cpp.html" target="_top" xlink:title=" ">
<polygon fill="none" stroke="black" points="473.5,-0.5 473.5,-30.5 603.5,-30.5 603.5,-0.5 473.5,-0.5"/>
<text text-anchor="start" x="481.5" y="-18.5" font-family="Helvetica,sans-Serif" font-size="10.00">src/gui/windows/source</text>
<text text-anchor="middle" x="538.5" y="-7.5" font-family="Helvetica,sans-Serif" font-size="10.00">_code_window.cpp</text>
</a>
</g>
</g>
<!-- Node12&#45;&gt;Node13 -->
<g id="edge15" class="edge">
<title>Node12&#45;&gt;Node13</title>
<path fill="none" stroke="midnightblue" d="M503.48,-59.45C511.27,-49.9 520.15,-39 527.02,-30.58"/>
<polygon fill="midnightblue" stroke="midnightblue" points="500.61,-57.43 497,-67.4 506.03,-61.86 500.61,-57.43"/>
</g>
</g>
</svg>
