<?xml version="1.0" encoding="UTF-8" standalone="no"?>
<!DOCTYPE svg PUBLIC "-//W3C//DTD SVG 1.1//EN"
 "http://www.w3.org/Graphics/SVG/1.1/DTD/svg11.dtd">
<!-- Generated by graphviz version 2.43.0 (0)
 -->
<!-- Title: src/core/utils/math.hpp Pages: 1 -->
<svg width="1084pt" height="229pt"
 viewBox="0.00 0.00 1084.00 229.00" xmlns="http://www.w3.org/2000/svg" xmlns:xlink="http://www.w3.org/1999/xlink">
<g id="graph0" class="graph" transform="scale(1 1) rotate(0) translate(4 225)">
<title>src/core/utils/math.hpp</title>
<!-- Node1 -->
<g id="node1" class="node">
<title>Node1</title>
<g id="a_node1"><a xlink:title="This file defines and implements a variety of handy helper functions that are used throughout the pro...">
<polygon fill="#bfbfbf" stroke="black" points="536.5,-201.5 536.5,-220.5 664.5,-220.5 664.5,-201.5 536.5,-201.5"/>
<text text-anchor="middle" x="600.5" y="-208.5" font-family="Helvetica,sans-Serif" font-size="10.00">src/core/utils/math.hpp</text>
</a>
</g>
</g>
<!-- Node2 -->
<g id="node2" class="node">
<title>Node2</title>
<g id="a_node2"><a xlink:href="alu_8cpp.html" target="_top" xlink:title="This file implements the functionality of the arithmetic logic unit (ALU).">
<polygon fill="none" stroke="black" points="145,-134.5 145,-164.5 258,-164.5 258,-134.5 145,-134.5"/>
<text text-anchor="start" x="153" y="-152.5" font-family="Helvetica,sans-Serif" font-size="10.00">src/core/arm1176jzf</text>
<text text-anchor="middle" x="201.5" y="-141.5" font-family="Helvetica,sans-Serif" font-size="10.00">_s/alu.cpp</text>
</a>
</g>
</g>
<!-- Node1&#45;&gt;Node2 -->
<g id="edge1" class="edge">
<title>Node1&#45;&gt;Node2</title>
<path fill="none" stroke="midnightblue" d="M526.05,-201.82C458.17,-193.92 355.25,-180.85 266.5,-165 263.77,-164.51 260.98,-163.99 258.16,-163.44"/>
<polygon fill="midnightblue" stroke="midnightblue" points="525.88,-205.32 536.22,-202.99 526.68,-198.37 525.88,-205.32"/>
</g>
<!-- Node3 -->
<g id="node3" class="node">
<title>Node3</title>
<g id="a_node3"><a xlink:href="core_8hpp.html" target="_top" xlink:title="This file defines a class that represents a CPU core (arm1176jzf_s).">
<polygon fill="none" stroke="black" points="276,-134.5 276,-164.5 389,-164.5 389,-134.5 276,-134.5"/>
<text text-anchor="start" x="284" y="-152.5" font-family="Helvetica,sans-Serif" font-size="10.00">src/core/arm1176jzf</text>
<text text-anchor="middle" x="332.5" y="-141.5" font-family="Helvetica,sans-Serif" font-size="10.00">_s/core.hpp</text>
</a>
</g>
</g>
<!-- Node1&#45;&gt;Node3 -->
<g id="edge2" class="edge">
<title>Node1&#45;&gt;Node3</title>
<path fill="none" stroke="midnightblue" d="M552.11,-199.26C506.27,-189.08 437.42,-173.79 389.06,-163.06"/>
<polygon fill="midnightblue" stroke="midnightblue" points="551.58,-202.72 562.1,-201.48 553.1,-195.89 551.58,-202.72"/>
</g>
<!-- Node14 -->
<g id="node14" class="node">
<title>Node14</title>
<g id="a_node14"><a xlink:href="branch_8cpp.html" target="_top" xlink:title="This file implements a branch instruction (B, BL) as defined in branch.hpp.">
<polygon fill="none" stroke="black" points="407,-134.5 407,-164.5 520,-164.5 520,-134.5 407,-134.5"/>
<text text-anchor="start" x="415" y="-152.5" font-family="Helvetica,sans-Serif" font-size="10.00">src/core/arm1176jzf</text>
<text text-anchor="middle" x="463.5" y="-141.5" font-family="Helvetica,sans-Serif" font-size="10.00">_s/isa/branch.cpp</text>
</a>
</g>
</g>
<!-- Node1&#45;&gt;Node14 -->
<g id="edge16" class="edge">
<title>Node1&#45;&gt;Node14</title>
<path fill="none" stroke="midnightblue" d="M571.63,-197.46C549.44,-187.82 518.79,-174.51 495.79,-164.52"/>
<polygon fill="midnightblue" stroke="midnightblue" points="570.3,-200.7 580.87,-201.48 573.09,-194.28 570.3,-200.7"/>
</g>
<!-- Node15 -->
<g id="node15" class="node">
<title>Node15</title>
<g id="a_node15"><a xlink:href="isa__decoder_8cpp.html" target="_top" xlink:title="This file implements an instruction decoder defined in isa_decoder.hpp.">
<polygon fill="none" stroke="black" points="538,-134.5 538,-164.5 663,-164.5 663,-134.5 538,-134.5"/>
<text text-anchor="start" x="546" y="-152.5" font-family="Helvetica,sans-Serif" font-size="10.00">src/core/arm1176jzf</text>
<text text-anchor="middle" x="600.5" y="-141.5" font-family="Helvetica,sans-Serif" font-size="10.00">_s/isa/isa_decoder.cpp</text>
</a>
</g>
</g>
<!-- Node1&#45;&gt;Node15 -->
<g id="edge17" class="edge">
<title>Node1&#45;&gt;Node15</title>
<path fill="none" stroke="midnightblue" d="M600.5,-191.23C600.5,-182.59 600.5,-172.5 600.5,-164.52"/>
<polygon fill="midnightblue" stroke="midnightblue" points="597,-191.48 600.5,-201.48 604,-191.48 597,-191.48"/>
</g>
<!-- Node16 -->
<g id="node16" class="node">
<title>Node16</title>
<g id="a_node16"><a xlink:href="mac_8cpp.html" target="_top" xlink:title="This file implements the functionality of the CPU multiplier (MAC unit).">
<polygon fill="none" stroke="black" points="681,-134.5 681,-164.5 794,-164.5 794,-134.5 681,-134.5"/>
<text text-anchor="start" x="689" y="-152.5" font-family="Helvetica,sans-Serif" font-size="10.00">src/core/arm1176jzf</text>
<text text-anchor="middle" x="737.5" y="-141.5" font-family="Helvetica,sans-Serif" font-size="10.00">_s/mac.cpp</text>
</a>
</g>
</g>
<!-- Node1&#45;&gt;Node16 -->
<g id="edge18" class="edge">
<title>Node1&#45;&gt;Node16</title>
<path fill="none" stroke="midnightblue" d="M629.37,-197.46C651.56,-187.82 682.21,-174.51 705.21,-164.52"/>
<polygon fill="midnightblue" stroke="midnightblue" points="627.91,-194.28 620.13,-201.48 630.7,-200.7 627.91,-194.28"/>
</g>
<!-- Node17 -->
<g id="node17" class="node">
<title>Node17</title>
<g id="a_node17"><a xlink:href="gpio_8cpp.html" target="_top" xlink:title=" ">
<polygon fill="none" stroke="black" points="812,-134.5 812,-164.5 925,-164.5 925,-134.5 812,-134.5"/>
<text text-anchor="start" x="820" y="-152.5" font-family="Helvetica,sans-Serif" font-size="10.00">src/core/peripherals</text>
<text text-anchor="middle" x="868.5" y="-141.5" font-family="Helvetica,sans-Serif" font-size="10.00">/gpio.cpp</text>
</a>
</g>
</g>
<!-- Node1&#45;&gt;Node17 -->
<g id="edge19" class="edge">
<title>Node1&#45;&gt;Node17</title>
<path fill="none" stroke="midnightblue" d="M649.06,-199.25C690.19,-190.15 750.71,-176.74 803.5,-165 806.21,-164.4 808.98,-163.78 811.78,-163.16"/>
<polygon fill="midnightblue" stroke="midnightblue" points="648.05,-195.89 639.04,-201.47 649.56,-202.73 648.05,-195.89"/>
</g>
<!-- Node18 -->
<g id="node18" class="node">
<title>Node18</title>
<g id="a_node18"><a xlink:href="interrupt__controller_8cpp.html" target="_top" xlink:title="This file implements the interrupt controller used BCM2835 (defined in interrupt_controller....">
<polygon fill="none" stroke="black" points="943,-134.5 943,-164.5 1076,-164.5 1076,-134.5 943,-134.5"/>
<text text-anchor="start" x="951" y="-152.5" font-family="Helvetica,sans-Serif" font-size="10.00">src/core/peripherals</text>
<text text-anchor="middle" x="1009.5" y="-141.5" font-family="Helvetica,sans-Serif" font-size="10.00">/interrupt_controller.cpp</text>
</a>
</g>
</g>
<!-- Node1&#45;&gt;Node18 -->
<g id="edge20" class="edge">
<title>Node1&#45;&gt;Node18</title>
<path fill="none" stroke="midnightblue" d="M674.85,-201.22C742.66,-192.91 845.53,-179.58 934.5,-165 937.25,-164.55 940.05,-164.08 942.88,-163.58"/>
<polygon fill="midnightblue" stroke="midnightblue" points="674.19,-197.77 664.69,-202.45 675.04,-204.72 674.19,-197.77"/>
</g>
<!-- Node4 -->
<g id="node4" class="node">
<title>Node4</title>
<g id="a_node4"><a xlink:href="core_8cpp.html" target="_top" xlink:title="This file implements the CCPU_Core class defined in core.hpp.">
<polygon fill="none" stroke="black" points="0,-67.5 0,-97.5 113,-97.5 113,-67.5 0,-67.5"/>
<text text-anchor="start" x="8" y="-85.5" font-family="Helvetica,sans-Serif" font-size="10.00">src/core/arm1176jzf</text>
<text text-anchor="middle" x="56.5" y="-74.5" font-family="Helvetica,sans-Serif" font-size="10.00">_s/core.cpp</text>
</a>
</g>
</g>
<!-- Node3&#45;&gt;Node4 -->
<g id="edge3" class="edge">
<title>Node3&#45;&gt;Node4</title>
<path fill="none" stroke="midnightblue" d="M265.98,-132.83C219.37,-121.86 157.75,-107.34 113.42,-96.9"/>
<polygon fill="midnightblue" stroke="midnightblue" points="265.45,-136.3 275.98,-135.19 267.05,-129.49 265.45,-136.3"/>
</g>
<!-- Node5 -->
<g id="node5" class="node">
<title>Node5</title>
<g id="a_node5"><a xlink:href="control__window_8hpp.html" target="_top" xlink:title=" ">
<polygon fill="none" stroke="black" points="569,-67.5 569,-97.5 700,-97.5 700,-67.5 569,-67.5"/>
<text text-anchor="start" x="577" y="-85.5" font-family="Helvetica,sans-Serif" font-size="10.00">src/gui/windows/control</text>
<text text-anchor="middle" x="634.5" y="-74.5" font-family="Helvetica,sans-Serif" font-size="10.00">_window.hpp</text>
</a>
</g>
</g>
<!-- Node3&#45;&gt;Node5 -->
<g id="edge4" class="edge">
<title>Node3&#45;&gt;Node5</title>
<path fill="none" stroke="midnightblue" d="M398.82,-133.94C462.38,-120.17 523.81,-107.04 568.86,-97.44"/>
<polygon fill="midnightblue" stroke="midnightblue" points="398.05,-130.52 389.02,-136.06 399.54,-137.36 398.05,-130.52"/>
</g>
<!-- Node8 -->
<g id="node8" class="node">
<title>Node8</title>
<g id="a_node8"><a xlink:href="file__window_8hpp.html" target="_top" xlink:title=" ">
<polygon fill="none" stroke="black" points="131,-67.5 131,-97.5 244,-97.5 244,-67.5 131,-67.5"/>
<text text-anchor="start" x="139" y="-85.5" font-family="Helvetica,sans-Serif" font-size="10.00">src/gui/windows/file</text>
<text text-anchor="middle" x="187.5" y="-74.5" font-family="Helvetica,sans-Serif" font-size="10.00">_window.hpp</text>
</a>
</g>
</g>
<!-- Node3&#45;&gt;Node8 -->
<g id="edge7" class="edge">
<title>Node3&#45;&gt;Node8</title>
<path fill="none" stroke="midnightblue" d="M291.83,-130.27C268.74,-119.92 240.26,-107.15 218.9,-97.58"/>
<polygon fill="midnightblue" stroke="midnightblue" points="290.48,-133.5 301.04,-134.4 293.34,-127.11 290.48,-133.5"/>
</g>
<!-- Node10 -->
<g id="node10" class="node">
<title>Node10</title>
<g id="a_node10"><a xlink:href="registers__window_8hpp.html" target="_top" xlink:title=" ">
<polygon fill="none" stroke="black" points="262.5,-67.5 262.5,-97.5 402.5,-97.5 402.5,-67.5 262.5,-67.5"/>
<text text-anchor="start" x="270.5" y="-85.5" font-family="Helvetica,sans-Serif" font-size="10.00">src/gui/windows/registers</text>
<text text-anchor="middle" x="332.5" y="-74.5" font-family="Helvetica,sans-Serif" font-size="10.00">_window.hpp</text>
</a>
</g>
</g>
<!-- Node3&#45;&gt;Node10 -->
<g id="edge10" class="edge">
<title>Node3&#45;&gt;Node10</title>
<path fill="none" stroke="midnightblue" d="M332.5,-124.11C332.5,-115.15 332.5,-105.32 332.5,-97.58"/>
<polygon fill="midnightblue" stroke="midnightblue" points="329,-124.4 332.5,-134.4 336,-124.4 329,-124.4"/>
</g>
<!-- Node12 -->
<g id="node12" class="node">
<title>Node12</title>
<g id="a_node12"><a xlink:href="source__code__window_8hpp.html" target="_top" xlink:title=" ">
<polygon fill="none" stroke="black" points="420.5,-67.5 420.5,-97.5 550.5,-97.5 550.5,-67.5 420.5,-67.5"/>
<text text-anchor="start" x="428.5" y="-85.5" font-family="Helvetica,sans-Serif" font-size="10.00">src/gui/windows/source</text>
<text text-anchor="middle" x="485.5" y="-74.5" font-family="Helvetica,sans-Serif" font-size="10.00">_code_window.hpp</text>
</a>
</g>
</g>
<!-- Node3&#45;&gt;Node12 -->
<g id="edge13" class="edge">
<title>Node3&#45;&gt;Node12</title>
<path fill="none" stroke="midnightblue" d="M375.09,-130.41C399.52,-120.03 429.72,-107.2 452.37,-97.58"/>
<polygon fill="midnightblue" stroke="midnightblue" points="373.53,-127.26 365.7,-134.4 376.27,-133.71 373.53,-127.26"/>
</g>
<!-- Node6 -->
<g id="node6" class="node">
<title>Node6</title>
<g id="a_node6"><a xlink:href="gui_8cpp.html" target="_top" xlink:title=" ">
<polygon fill="none" stroke="black" points="368,-6 368,-25 455,-25 455,-6 368,-6"/>
<text text-anchor="middle" x="411.5" y="-13" font-family="Helvetica,sans-Serif" font-size="10.00">src/gui/gui.cpp</text>
</a>
</g>
</g>
<!-- Node5&#45;&gt;Node6 -->
<g id="edge5" class="edge">
<title>Node5&#45;&gt;Node6</title>
<path fill="none" stroke="midnightblue" d="M576.76,-64.67C533.18,-51.97 475.19,-35.06 440.76,-25.03"/>
<polygon fill="midnightblue" stroke="midnightblue" points="575.81,-68.04 586.39,-67.48 577.77,-61.32 575.81,-68.04"/>
</g>
<!-- Node7 -->
<g id="node7" class="node">
<title>Node7</title>
<g id="a_node7"><a xlink:href="control__window_8cpp.html" target="_top" xlink:title=" ">
<polygon fill="none" stroke="black" points="622,-0.5 622,-30.5 753,-30.5 753,-0.5 622,-0.5"/>
<text text-anchor="start" x="630" y="-18.5" font-family="Helvetica,sans-Serif" font-size="10.00">src/gui/windows/control</text>
<text text-anchor="middle" x="687.5" y="-7.5" font-family="Helvetica,sans-Serif" font-size="10.00">_window.cpp</text>
</a>
</g>
</g>
<!-- Node5&#45;&gt;Node7 -->
<g id="edge6" class="edge">
<title>Node5&#45;&gt;Node7</title>
<path fill="none" stroke="midnightblue" d="M652.48,-59.45C660.27,-49.9 669.15,-39 676.02,-30.58"/>
<polygon fill="midnightblue" stroke="midnightblue" points="649.61,-57.43 646,-67.4 655.03,-61.86 649.61,-57.43"/>
</g>
<!-- Node8&#45;&gt;Node6 -->
<g id="edge8" class="edge">
<title>Node8&#45;&gt;Node6</title>
<path fill="none" stroke="midnightblue" d="M245.5,-64.67C289.28,-51.97 347.53,-35.06 382.11,-25.03"/>
<polygon fill="midnightblue" stroke="midnightblue" points="244.46,-61.33 235.83,-67.48 246.41,-68.05 244.46,-61.33"/>
</g>
<!-- Node9 -->
<g id="node9" class="node">
<title>Node9</title>
<g id="a_node9"><a xlink:href="file__window_8cpp.html" target="_top" xlink:title=" ">
<polygon fill="none" stroke="black" points="78,-0.5 78,-30.5 191,-30.5 191,-0.5 78,-0.5"/>
<text text-anchor="start" x="86" y="-18.5" font-family="Helvetica,sans-Serif" font-size="10.00">src/gui/windows/file</text>
<text text-anchor="middle" x="134.5" y="-7.5" font-family="Helvetica,sans-Serif" font-size="10.00">_window.cpp</text>
</a>
</g>
</g>
<!-- Node8&#45;&gt;Node9 -->
<g id="edge9" class="edge">
<title>Node8&#45;&gt;Node9</title>
<path fill="none" stroke="midnightblue" d="M169.52,-59.45C161.73,-49.9 152.85,-39 145.98,-30.58"/>
<polygon fill="midnightblue" stroke="midnightblue" points="166.97,-61.86 176,-67.4 172.39,-57.43 166.97,-61.86"/>
</g>
<!-- Node10&#45;&gt;Node6 -->
<g id="edge11" class="edge">
<title>Node10&#45;&gt;Node6</title>
<path fill="none" stroke="midnightblue" d="M357.41,-61.01C372.07,-48.94 389.86,-34.3 400.93,-25.19"/>
<polygon fill="midnightblue" stroke="midnightblue" points="355.14,-58.34 349.64,-67.4 359.59,-63.75 355.14,-58.34"/>
</g>
<!-- Node11 -->
<g id="node11" class="node">
<title>Node11</title>
<g id="a_node11"><a xlink:href="registers__window_8cpp.html" target="_top" xlink:title=" ">
<polygon fill="none" stroke="black" points="209.5,-0.5 209.5,-30.5 349.5,-30.5 349.5,-0.5 209.5,-0.5"/>
<text text-anchor="start" x="217.5" y="-18.5" font-family="Helvetica,sans-Serif" font-size="10.00">src/gui/windows/registers</text>
<text text-anchor="middle" x="279.5" y="-7.5" font-family="Helvetica,sans-Serif" font-size="10.00">_window.cpp</text>
</a>
</g>
</g>
<!-- Node10&#45;&gt;Node11 -->
<g id="edge12" class="edge">
<title>Node10&#45;&gt;Node11</title>
<path fill="none" stroke="midnightblue" d="M314.52,-59.45C306.73,-49.9 297.85,-39 290.98,-30.58"/>
<polygon fill="midnightblue" stroke="midnightblue" points="311.97,-61.86 321,-67.4 317.39,-57.43 311.97,-61.86"/>
</g>
<!-- Node12&#45;&gt;Node6 -->
<g id="edge14" class="edge">
<title>Node12&#45;&gt;Node6</title>
<path fill="none" stroke="midnightblue" d="M461.79,-60.67C448.13,-48.67 431.67,-34.22 421.4,-25.19"/>
<polygon fill="midnightblue" stroke="midnightblue" points="459.62,-63.43 469.44,-67.4 464.24,-58.17 459.62,-63.43"/>
</g>
<!-- Node13 -->
<g id="node13" class="node">
<title>Node13</title>
<g id="a_node13"><a xlink:href="source__code__window_8cpp.html" target="_top" xlink:title=" ">
<polygon fill="none" stroke="black" points="473.5,-0.5 473.5,-30.5 603.5,-30.5 603.5,-0.5 473.5,-0.5"/>
<text text-anchor="start" x="481.5" y="-18.5" font-family="Helvetica,sans-Serif" font-size="10.00">src/gui/windows/source</text>
<text text-anchor="middle" x="538.5" y="-7.5" font-family="Helvetica,sans-Serif" font-size="10.00">_code_window.cpp</text>
</a>
</g>
</g>
<!-- Node12&#45;&gt;Node13 -->
<g id="edge15" class="edge">
<title>Node12&#45;&gt;Node13</title>
<path fill="none" stroke="midnightblue" d="M503.48,-59.45C511.27,-49.9 520.15,-39 527.02,-30.58"/>
<polygon fill="midnightblue" stroke="midnightblue" points="500.61,-57.43 497,-67.4 506.03,-61.86 500.61,-57.43"/>
</g>
</g>
</svg>
