<?xml version="1.0" encoding="UTF-8" standalone="no"?>
<!DOCTYPE svg PUBLIC "-//W3C//DTD SVG 1.1//EN"
 "http://www.w3.org/Graphics/SVG/1.1/DTD/svg11.dtd">
<!-- Generated by graphviz version 2.43.0 (0)
 -->
<!-- Title: src/core/peripherals/auxiliary/mini_uart.cpp Pages: 1 -->
<svg width="454pt" height="330pt"
 viewBox="0.00 0.00 453.75 330.00" xmlns="http://www.w3.org/2000/svg" xmlns:xlink="http://www.w3.org/1999/xlink">
<g id="graph0" class="graph" transform="scale(1 1) rotate(0) translate(4 326)">
<title>src/core/peripherals/auxiliary/mini_uart.cpp</title>
<!-- Node1 -->
<g id="node1" class="node">
<title>Node1</title>
<g id="a_node1"><a xlink:title="This file implements the Mini UART auxiliary peripheral used in BCM2835.">
<polygon fill="#bfbfbf" stroke="black" points="88,-291.5 88,-321.5 220,-321.5 220,-291.5 88,-291.5"/>
<text text-anchor="start" x="96" y="-309.5" font-family="Helvetica,sans-Serif" font-size="10.00">src/core/peripherals</text>
<text text-anchor="middle" x="154" y="-298.5" font-family="Helvetica,sans-Serif" font-size="10.00">/auxiliary/mini_uart.cpp</text>
</a>
</g>
</g>
<!-- Node2 -->
<g id="node2" class="node">
<title>Node2</title>
<g id="a_node2"><a xlink:href="mini__uart_8hpp.html" target="_top" xlink:title="This file defines the Mini UART auxiliary peripheral used in BCM2835.">
<polygon fill="none" stroke="black" points="0,-179.5 0,-198.5 84,-198.5 84,-179.5 0,-179.5"/>
<text text-anchor="middle" x="42" y="-186.5" font-family="Helvetica,sans-Serif" font-size="10.00">mini_uart.hpp</text>
</a>
</g>
</g>
<!-- Node1&#45;&gt;Node2 -->
<g id="edge1" class="edge">
<title>Node1&#45;&gt;Node2</title>
<path fill="none" stroke="midnightblue" d="M140.27,-291.34C119.35,-269.77 79.64,-228.81 57.64,-206.13"/>
<polygon fill="midnightblue" stroke="midnightblue" points="59.88,-203.41 50.41,-198.67 54.86,-208.29 59.88,-203.41"/>
</g>
<!-- Node3 -->
<g id="node3" class="node">
<title>Node3</title>
<g id="a_node3"><a xlink:href="auxiliary_8hpp.html" target="_top" xlink:title=" ">
<polygon fill="none" stroke="black" points="226.5,-235.5 226.5,-254.5 305.5,-254.5 305.5,-235.5 226.5,-235.5"/>
<text text-anchor="middle" x="266" y="-242.5" font-family="Helvetica,sans-Serif" font-size="10.00">auxiliary.hpp</text>
</a>
</g>
</g>
<!-- Node1&#45;&gt;Node3 -->
<g id="edge2" class="edge">
<title>Node1&#45;&gt;Node3</title>
<path fill="none" stroke="midnightblue" d="M180.54,-291.4C198.66,-281.77 222.54,-269.09 240.44,-259.58"/>
<polygon fill="midnightblue" stroke="midnightblue" points="242.51,-262.44 249.7,-254.66 239.23,-256.26 242.51,-262.44"/>
</g>
<!-- Node3&#45;&gt;Node2 -->
<g id="edge13" class="edge">
<title>Node3&#45;&gt;Node2</title>
<path fill="none" stroke="midnightblue" d="M230.51,-235.44C191.68,-226.08 129.34,-211.06 87.08,-200.87"/>
<polygon fill="midnightblue" stroke="midnightblue" points="87.87,-197.46 77.33,-198.52 86.23,-204.26 87.87,-197.46"/>
</g>
<!-- Node4 -->
<g id="node4" class="node">
<title>Node4</title>
<g id="a_node4"><a xlink:href="gpio_8hpp.html" target="_top" xlink:title="This file defines the GPIO controller used in BCM2835.">
<polygon fill="none" stroke="black" points="102,-179.5 102,-198.5 170,-198.5 170,-179.5 102,-179.5"/>
<text text-anchor="middle" x="136" y="-186.5" font-family="Helvetica,sans-Serif" font-size="10.00">../gpio.hpp</text>
</a>
</g>
</g>
<!-- Node3&#45;&gt;Node4 -->
<g id="edge3" class="edge">
<title>Node3&#45;&gt;Node4</title>
<path fill="none" stroke="midnightblue" d="M245.4,-235.44C224.01,-226.56 190.32,-212.56 165.98,-202.45"/>
<polygon fill="midnightblue" stroke="midnightblue" points="167.08,-199.12 156.5,-198.52 164.39,-205.58 167.08,-199.12"/>
</g>
<!-- Node5 -->
<g id="node5" class="node">
<title>Node5</title>
<g id="a_node5"><a xlink:href="peripheral_8hpp.html" target="_top" xlink:title="This file defines an interface for a memory&#45;mapped peripheral.">
<polygon fill="none" stroke="black" points="330.5,-56.5 330.5,-75.5 417.5,-75.5 417.5,-56.5 330.5,-56.5"/>
<text text-anchor="middle" x="374" y="-63.5" font-family="Helvetica,sans-Serif" font-size="10.00">peripheral.hpp</text>
</a>
</g>
</g>
<!-- Node3&#45;&gt;Node5 -->
<g id="edge14" class="edge">
<title>Node3&#45;&gt;Node5</title>
<path fill="none" stroke="midnightblue" d="M305.65,-236.48C327.51,-230.21 353.15,-218.95 368,-199 392.8,-165.68 385.52,-113.47 379.13,-85.75"/>
<polygon fill="midnightblue" stroke="midnightblue" points="382.47,-84.64 376.63,-75.8 375.68,-86.35 382.47,-84.64"/>
</g>
<!-- Node6 -->
<g id="node6" class="node">
<title>Node6</title>
<g id="a_node6"><a xlink:href="interrupt__controller_8hpp.html" target="_top" xlink:title="This file defines the interrupt controller used in BCM2835.">
<polygon fill="none" stroke="black" points="212.5,-118 212.5,-137 343.5,-137 343.5,-118 212.5,-118"/>
<text text-anchor="middle" x="278" y="-125" font-family="Helvetica,sans-Serif" font-size="10.00">interrupt_controller.hpp</text>
</a>
</g>
</g>
<!-- Node3&#45;&gt;Node6 -->
<g id="edge16" class="edge">
<title>Node3&#45;&gt;Node6</title>
<path fill="none" stroke="midnightblue" d="M301.01,-235.45C319.93,-228.84 341.68,-217.59 353,-199 367.48,-175.21 336.53,-154.25 310.1,-141.5"/>
<polygon fill="midnightblue" stroke="midnightblue" points="311.21,-138.16 300.66,-137.18 308.3,-144.53 311.21,-138.16"/>
</g>
<!-- Node8 -->
<g id="node8" class="node">
<title>Node8</title>
<g id="a_node8"><a xlink:href="logger_8hpp.html" target="_top" xlink:title="This file defines a general logger interface as well as a logging system that is used in the project.">
<polygon fill="none" stroke="black" points="125,-0.5 125,-19.5 271,-19.5 271,-0.5 125,-0.5"/>
<text text-anchor="middle" x="198" y="-7.5" font-family="Helvetica,sans-Serif" font-size="10.00">zero_mate/utils/logger.hpp</text>
</a>
</g>
</g>
<!-- Node3&#45;&gt;Node8 -->
<g id="edge17" class="edge">
<title>Node3&#45;&gt;Node8</title>
<path fill="none" stroke="midnightblue" d="M305.78,-238.36C332.1,-232.65 365.59,-221.32 387,-199 432.68,-151.37 468.93,-106.97 427,-56 408.58,-33.6 339.15,-22.18 281.52,-16.47"/>
<polygon fill="midnightblue" stroke="midnightblue" points="281.57,-12.96 271.28,-15.5 280.91,-19.92 281.57,-12.96"/>
</g>
<!-- Node10 -->
<g id="node10" class="node">
<title>Node10</title>
<g id="a_node10"><a xlink:href="system__clock__listener_8hpp.html" target="_top" xlink:title="This file defines an interface for a CPU clock listener.">
<polygon fill="none" stroke="black" points="188.5,-179.5 188.5,-198.5 343.5,-198.5 343.5,-179.5 188.5,-179.5"/>
<text text-anchor="middle" x="266" y="-186.5" font-family="Helvetica,sans-Serif" font-size="10.00">../system_clock_listener.hpp</text>
</a>
</g>
</g>
<!-- Node3&#45;&gt;Node10 -->
<g id="edge15" class="edge">
<title>Node3&#45;&gt;Node10</title>
<path fill="none" stroke="midnightblue" d="M266,-235.08C266,-228.01 266,-217.86 266,-208.99"/>
<polygon fill="midnightblue" stroke="midnightblue" points="269.5,-208.75 266,-198.75 262.5,-208.75 269.5,-208.75"/>
</g>
<!-- Node4&#45;&gt;Node5 -->
<g id="edge4" class="edge">
<title>Node4&#45;&gt;Node5</title>
<path fill="none" stroke="midnightblue" d="M170.3,-180.94C231.36,-168.38 352.58,-143.39 353,-143 368.73,-128.26 373.06,-102.89 374.05,-85.55"/>
<polygon fill="midnightblue" stroke="midnightblue" points="377.55,-85.59 374.31,-75.51 370.56,-85.41 377.55,-85.59"/>
</g>
<!-- Node4&#45;&gt;Node6 -->
<g id="edge5" class="edge">
<title>Node4&#45;&gt;Node6</title>
<path fill="none" stroke="midnightblue" d="M156.35,-179.48C180.39,-169.4 220.6,-152.55 248.16,-141"/>
<polygon fill="midnightblue" stroke="midnightblue" points="249.82,-144.1 257.69,-137.01 247.12,-137.65 249.82,-144.1"/>
</g>
<!-- Node4&#45;&gt;Node8 -->
<g id="edge10" class="edge">
<title>Node4&#45;&gt;Node8</title>
<path fill="none" stroke="midnightblue" d="M114.52,-179.36C99.61,-172.09 80.89,-160.12 72,-143 65.65,-130.77 68.46,-125.32 72,-112 79.36,-84.29 83.01,-75.52 104,-56 119.84,-41.27 141.37,-30.49 159.84,-23.18"/>
<polygon fill="midnightblue" stroke="midnightblue" points="161.32,-26.36 169.45,-19.57 158.85,-19.81 161.32,-26.36"/>
</g>
<!-- Node9 -->
<g id="node9" class="node">
<title>Node9</title>
<g id="a_node9"><a xlink:href="external__peripheral_8hpp.html" target="_top" xlink:title="This file defines an interface for external peripherals that can be attached to the system via GPIO p...">
<polygon fill="none" stroke="black" points="81,-112.5 81,-142.5 193,-142.5 193,-112.5 81,-112.5"/>
<text text-anchor="start" x="89" y="-130.5" font-family="Helvetica,sans-Serif" font-size="10.00">zero_mate/external</text>
<text text-anchor="middle" x="137" y="-119.5" font-family="Helvetica,sans-Serif" font-size="10.00">_peripheral.hpp</text>
</a>
</g>
</g>
<!-- Node4&#45;&gt;Node9 -->
<g id="edge11" class="edge">
<title>Node4&#45;&gt;Node9</title>
<path fill="none" stroke="midnightblue" d="M136.14,-179.48C136.26,-172.47 136.43,-162.19 136.59,-152.7"/>
<polygon fill="midnightblue" stroke="midnightblue" points="140.1,-152.58 136.76,-142.52 133.1,-152.46 140.1,-152.58"/>
</g>
<!-- Node6&#45;&gt;Node5 -->
<g id="edge6" class="edge">
<title>Node6&#45;&gt;Node5</title>
<path fill="none" stroke="midnightblue" d="M291.75,-117.98C307.37,-108.3 333.06,-92.37 351.58,-80.89"/>
<polygon fill="midnightblue" stroke="midnightblue" points="353.62,-83.75 360.27,-75.51 349.93,-77.8 353.62,-83.75"/>
</g>
<!-- Node7 -->
<g id="node7" class="node">
<title>Node7</title>
<g id="a_node7"><a xlink:href="context_8hpp.html" target="_top" xlink:title="This file defines the context (registers) of the CPU.">
<polygon fill="none" stroke="black" points="122,-56.5 122,-75.5 274,-75.5 274,-56.5 122,-56.5"/>
<text text-anchor="middle" x="198" y="-63.5" font-family="Helvetica,sans-Serif" font-size="10.00">../arm1176jzf_s/context.hpp</text>
</a>
</g>
</g>
<!-- Node6&#45;&gt;Node7 -->
<g id="edge7" class="edge">
<title>Node6&#45;&gt;Node7</title>
<path fill="none" stroke="midnightblue" d="M266.54,-117.98C253.83,-108.52 233.09,-93.1 217.75,-81.69"/>
<polygon fill="midnightblue" stroke="midnightblue" points="219.55,-78.67 209.44,-75.51 215.38,-84.29 219.55,-78.67"/>
</g>
<!-- Node6&#45;&gt;Node8 -->
<g id="edge9" class="edge">
<title>Node6&#45;&gt;Node8</title>
<path fill="none" stroke="midnightblue" d="M281.56,-117.95C286.8,-103.91 294.77,-75.55 283,-56 273.71,-40.57 257.17,-30.16 241.13,-23.27"/>
<polygon fill="midnightblue" stroke="midnightblue" points="242.39,-20.01 231.8,-19.61 239.83,-26.52 242.39,-20.01"/>
</g>
<!-- Node7&#45;&gt;Node8 -->
<g id="edge8" class="edge">
<title>Node7&#45;&gt;Node8</title>
<path fill="none" stroke="midnightblue" d="M198,-56.08C198,-49.01 198,-38.86 198,-29.99"/>
<polygon fill="midnightblue" stroke="midnightblue" points="201.5,-29.75 198,-19.75 194.5,-29.75 201.5,-29.75"/>
</g>
<!-- Node9&#45;&gt;Node8 -->
<g id="edge12" class="edge">
<title>Node9&#45;&gt;Node8</title>
<path fill="none" stroke="midnightblue" d="M125.5,-112.5C114.83,-97.7 102.13,-74.05 113,-56 122.29,-40.57 138.83,-30.16 154.87,-23.27"/>
<polygon fill="midnightblue" stroke="midnightblue" points="156.17,-26.52 164.2,-19.61 153.61,-20.01 156.17,-26.52"/>
</g>
</g>
</svg>
