<?xml version="1.0" encoding="UTF-8" standalone="no"?>
<!DOCTYPE svg PUBLIC "-//W3C//DTD SVG 1.1//EN"
 "http://www.w3.org/Graphics/SVG/1.1/DTD/svg11.dtd">
<!-- Generated by graphviz version 2.43.0 (0)
 -->
<!-- Title: src/core/peripherals/auxiliary/mini_uart.cpp Pages: 1 -->
<svg width="453pt" height="397pt"
 viewBox="0.00 0.00 453.49 397.00" xmlns="http://www.w3.org/2000/svg" xmlns:xlink="http://www.w3.org/1999/xlink">
<g id="graph0" class="graph" transform="scale(1 1) rotate(0) translate(4 393)">
<title>src/core/peripherals/auxiliary/mini_uart.cpp</title>
<!-- Node1 -->
<g id="node1" class="node">
<title>Node1</title>
<g id="a_node1"><a xlink:title="This file implements the Mini UART auxiliary peripheral used in BCM2835.">
<polygon fill="#bfbfbf" stroke="black" points="88,-358.5 88,-388.5 220,-388.5 220,-358.5 88,-358.5"/>
<text text-anchor="start" x="96" y="-376.5" font-family="Helvetica,sans-Serif" font-size="10.00">src/core/peripherals</text>
<text text-anchor="middle" x="154" y="-365.5" font-family="Helvetica,sans-Serif" font-size="10.00">/auxiliary/mini_uart.cpp</text>
</a>
</g>
</g>
<!-- Node2 -->
<g id="node2" class="node">
<title>Node2</title>
<g id="a_node2"><a xlink:href="mini__uart_8hpp.html" target="_top" xlink:title="This file defines the Mini UART auxiliary peripheral used in BCM2835.">
<polygon fill="none" stroke="black" points="0,-246.5 0,-265.5 84,-265.5 84,-246.5 0,-246.5"/>
<text text-anchor="middle" x="42" y="-253.5" font-family="Helvetica,sans-Serif" font-size="10.00">mini_uart.hpp</text>
</a>
</g>
</g>
<!-- Node1&#45;&gt;Node2 -->
<g id="edge1" class="edge">
<title>Node1&#45;&gt;Node2</title>
<path fill="none" stroke="midnightblue" d="M140.27,-358.34C119.35,-336.77 79.64,-295.81 57.64,-273.13"/>
<polygon fill="midnightblue" stroke="midnightblue" points="59.88,-270.41 50.41,-265.67 54.86,-275.29 59.88,-270.41"/>
</g>
<!-- Node3 -->
<g id="node3" class="node">
<title>Node3</title>
<g id="a_node3"><a xlink:href="auxiliary_8hpp.html" target="_top" xlink:title=" ">
<polygon fill="none" stroke="black" points="226.5,-302.5 226.5,-321.5 305.5,-321.5 305.5,-302.5 226.5,-302.5"/>
<text text-anchor="middle" x="266" y="-309.5" font-family="Helvetica,sans-Serif" font-size="10.00">auxiliary.hpp</text>
</a>
</g>
</g>
<!-- Node1&#45;&gt;Node3 -->
<g id="edge2" class="edge">
<title>Node1&#45;&gt;Node3</title>
<path fill="none" stroke="midnightblue" d="M180.54,-358.4C198.66,-348.77 222.54,-336.09 240.44,-326.58"/>
<polygon fill="midnightblue" stroke="midnightblue" points="242.51,-329.44 249.7,-321.66 239.23,-323.26 242.51,-329.44"/>
</g>
<!-- Node3&#45;&gt;Node2 -->
<g id="edge14" class="edge">
<title>Node3&#45;&gt;Node2</title>
<path fill="none" stroke="midnightblue" d="M230.51,-302.44C191.68,-293.08 129.34,-278.06 87.08,-267.87"/>
<polygon fill="midnightblue" stroke="midnightblue" points="87.87,-264.46 77.33,-265.52 86.23,-271.26 87.87,-264.46"/>
</g>
<!-- Node4 -->
<g id="node4" class="node">
<title>Node4</title>
<g id="a_node4"><a xlink:href="gpio_8hpp.html" target="_top" xlink:title="This file defines the GPIO controller used in BCM2835.">
<polygon fill="none" stroke="black" points="102,-246.5 102,-265.5 170,-265.5 170,-246.5 102,-246.5"/>
<text text-anchor="middle" x="136" y="-253.5" font-family="Helvetica,sans-Serif" font-size="10.00">../gpio.hpp</text>
</a>
</g>
</g>
<!-- Node3&#45;&gt;Node4 -->
<g id="edge3" class="edge">
<title>Node3&#45;&gt;Node4</title>
<path fill="none" stroke="midnightblue" d="M245.4,-302.44C224.01,-293.56 190.32,-279.56 165.98,-269.45"/>
<polygon fill="midnightblue" stroke="midnightblue" points="167.08,-266.12 156.5,-265.52 164.39,-272.58 167.08,-266.12"/>
</g>
<!-- Node5 -->
<g id="node5" class="node">
<title>Node5</title>
<g id="a_node5"><a xlink:href="peripheral_8hpp.html" target="_top" xlink:title="This file defines an interface for a memory&#45;mapped peripheral.">
<polygon fill="none" stroke="black" points="330.5,-123.5 330.5,-142.5 417.5,-142.5 417.5,-123.5 330.5,-123.5"/>
<text text-anchor="middle" x="374" y="-130.5" font-family="Helvetica,sans-Serif" font-size="10.00">peripheral.hpp</text>
</a>
</g>
</g>
<!-- Node3&#45;&gt;Node5 -->
<g id="edge15" class="edge">
<title>Node3&#45;&gt;Node5</title>
<path fill="none" stroke="midnightblue" d="M305.65,-303.48C327.51,-297.21 353.15,-285.95 368,-266 392.8,-232.68 385.52,-180.47 379.13,-152.75"/>
<polygon fill="midnightblue" stroke="midnightblue" points="382.47,-151.64 376.63,-142.8 375.68,-153.35 382.47,-151.64"/>
</g>
<!-- Node6 -->
<g id="node6" class="node">
<title>Node6</title>
<g id="a_node6"><a xlink:href="interrupt__controller_8hpp.html" target="_top" xlink:title="This file defines the interrupt controller used in BCM2835.">
<polygon fill="none" stroke="black" points="212.5,-185 212.5,-204 343.5,-204 343.5,-185 212.5,-185"/>
<text text-anchor="middle" x="278" y="-192" font-family="Helvetica,sans-Serif" font-size="10.00">interrupt_controller.hpp</text>
</a>
</g>
</g>
<!-- Node3&#45;&gt;Node6 -->
<g id="edge17" class="edge">
<title>Node3&#45;&gt;Node6</title>
<path fill="none" stroke="midnightblue" d="M301.01,-302.45C319.93,-295.84 341.68,-284.59 353,-266 367.48,-242.21 336.53,-221.25 310.1,-208.5"/>
<polygon fill="midnightblue" stroke="midnightblue" points="311.21,-205.16 300.66,-204.18 308.3,-211.53 311.21,-205.16"/>
</g>
<!-- Node8 -->
<g id="node8" class="node">
<title>Node8</title>
<g id="a_node8"><a xlink:href="logging__system_8hpp.html" target="_top" xlink:title="This file defines a logging system that is used in the project.">
<polygon fill="none" stroke="black" points="132.5,-56.5 132.5,-86.5 263.5,-86.5 263.5,-56.5 132.5,-56.5"/>
<text text-anchor="start" x="140.5" y="-74.5" font-family="Helvetica,sans-Serif" font-size="10.00">zero_mate/utils/logging</text>
<text text-anchor="middle" x="198" y="-63.5" font-family="Helvetica,sans-Serif" font-size="10.00">_system.hpp</text>
</a>
</g>
</g>
<!-- Node3&#45;&gt;Node8 -->
<g id="edge18" class="edge">
<title>Node3&#45;&gt;Node8</title>
<path fill="none" stroke="midnightblue" d="M305.78,-305.36C332.1,-299.65 365.59,-288.32 387,-266 432.68,-218.37 468.34,-174.45 427,-123 407.9,-99.22 332.71,-85.98 273.63,-79.08"/>
<polygon fill="midnightblue" stroke="midnightblue" points="273.88,-75.59 263.56,-77.95 273.1,-82.55 273.88,-75.59"/>
</g>
<!-- Node11 -->
<g id="node11" class="node">
<title>Node11</title>
<g id="a_node11"><a xlink:href="system__clock__listener_8hpp.html" target="_top" xlink:title="This file defines an interface for a CPU clock listener.">
<polygon fill="none" stroke="black" points="188.5,-246.5 188.5,-265.5 343.5,-265.5 343.5,-246.5 188.5,-246.5"/>
<text text-anchor="middle" x="266" y="-253.5" font-family="Helvetica,sans-Serif" font-size="10.00">../system_clock_listener.hpp</text>
</a>
</g>
</g>
<!-- Node3&#45;&gt;Node11 -->
<g id="edge16" class="edge">
<title>Node3&#45;&gt;Node11</title>
<path fill="none" stroke="midnightblue" d="M266,-302.08C266,-295.01 266,-284.86 266,-275.99"/>
<polygon fill="midnightblue" stroke="midnightblue" points="269.5,-275.75 266,-265.75 262.5,-275.75 269.5,-275.75"/>
</g>
<!-- Node4&#45;&gt;Node5 -->
<g id="edge4" class="edge">
<title>Node4&#45;&gt;Node5</title>
<path fill="none" stroke="midnightblue" d="M170.3,-247.94C231.36,-235.38 352.58,-210.39 353,-210 368.73,-195.26 373.06,-169.89 374.05,-152.55"/>
<polygon fill="midnightblue" stroke="midnightblue" points="377.55,-152.59 374.31,-142.51 370.56,-152.41 377.55,-152.59"/>
</g>
<!-- Node4&#45;&gt;Node6 -->
<g id="edge5" class="edge">
<title>Node4&#45;&gt;Node6</title>
<path fill="none" stroke="midnightblue" d="M156.35,-246.48C180.39,-236.4 220.6,-219.55 248.16,-208"/>
<polygon fill="midnightblue" stroke="midnightblue" points="249.82,-211.1 257.69,-204.01 247.12,-204.65 249.82,-211.1"/>
</g>
<!-- Node4&#45;&gt;Node8 -->
<g id="edge11" class="edge">
<title>Node4&#45;&gt;Node8</title>
<path fill="none" stroke="midnightblue" d="M114.52,-246.36C99.61,-239.09 80.89,-227.12 72,-210 65.65,-197.77 68.37,-192.29 72,-179 79.6,-151.13 84.22,-143.07 105,-123 118.59,-109.88 136.27,-99.15 152.55,-91.01"/>
<polygon fill="midnightblue" stroke="midnightblue" points="154.43,-93.99 161.94,-86.52 151.41,-87.68 154.43,-93.99"/>
</g>
<!-- Node10 -->
<g id="node10" class="node">
<title>Node10</title>
<g id="a_node10"><a xlink:href="external__peripheral_8hpp.html" target="_top" xlink:title="This file defines an interface for external peripherals that can be attached to the system via GPIO p...">
<polygon fill="none" stroke="black" points="81,-179.5 81,-209.5 193,-209.5 193,-179.5 81,-179.5"/>
<text text-anchor="start" x="89" y="-197.5" font-family="Helvetica,sans-Serif" font-size="10.00">zero_mate/external</text>
<text text-anchor="middle" x="137" y="-186.5" font-family="Helvetica,sans-Serif" font-size="10.00">_peripheral.hpp</text>
</a>
</g>
</g>
<!-- Node4&#45;&gt;Node10 -->
<g id="edge12" class="edge">
<title>Node4&#45;&gt;Node10</title>
<path fill="none" stroke="midnightblue" d="M136.14,-246.48C136.26,-239.47 136.43,-229.19 136.59,-219.7"/>
<polygon fill="midnightblue" stroke="midnightblue" points="140.1,-219.58 136.76,-209.52 133.1,-219.46 140.1,-219.58"/>
</g>
<!-- Node6&#45;&gt;Node5 -->
<g id="edge6" class="edge">
<title>Node6&#45;&gt;Node5</title>
<path fill="none" stroke="midnightblue" d="M291.75,-184.98C307.37,-175.3 333.06,-159.37 351.58,-147.89"/>
<polygon fill="midnightblue" stroke="midnightblue" points="353.62,-150.75 360.27,-142.51 349.93,-144.8 353.62,-150.75"/>
</g>
<!-- Node7 -->
<g id="node7" class="node">
<title>Node7</title>
<g id="a_node7"><a xlink:href="context_8hpp.html" target="_top" xlink:title="This file defines the context (registers) of the CPU.">
<polygon fill="none" stroke="black" points="122,-123.5 122,-142.5 274,-142.5 274,-123.5 122,-123.5"/>
<text text-anchor="middle" x="198" y="-130.5" font-family="Helvetica,sans-Serif" font-size="10.00">../arm1176jzf_s/context.hpp</text>
</a>
</g>
</g>
<!-- Node6&#45;&gt;Node7 -->
<g id="edge7" class="edge">
<title>Node6&#45;&gt;Node7</title>
<path fill="none" stroke="midnightblue" d="M266.54,-184.98C253.83,-175.52 233.09,-160.1 217.75,-148.69"/>
<polygon fill="midnightblue" stroke="midnightblue" points="219.55,-145.67 209.44,-142.51 215.38,-151.29 219.55,-145.67"/>
</g>
<!-- Node6&#45;&gt;Node8 -->
<g id="edge10" class="edge">
<title>Node6&#45;&gt;Node8</title>
<path fill="none" stroke="midnightblue" d="M281.61,-184.56C286.7,-170.46 294.17,-142.62 283,-123 275.2,-109.29 262.05,-98.92 248.4,-91.25"/>
<polygon fill="midnightblue" stroke="midnightblue" points="249.89,-88.09 239.4,-86.6 246.67,-94.3 249.89,-88.09"/>
</g>
<!-- Node7&#45;&gt;Node8 -->
<g id="edge8" class="edge">
<title>Node7&#45;&gt;Node8</title>
<path fill="none" stroke="midnightblue" d="M198,-123.48C198,-116.47 198,-106.19 198,-96.7"/>
<polygon fill="midnightblue" stroke="midnightblue" points="201.5,-96.52 198,-86.52 194.5,-96.52 201.5,-96.52"/>
</g>
<!-- Node9 -->
<g id="node9" class="node">
<title>Node9</title>
<g id="a_node9"><a xlink:href="logger_8hpp.html" target="_top" xlink:title="This file defines a general logger interface.">
<polygon fill="none" stroke="black" points="164,-0.5 164,-19.5 232,-19.5 232,-0.5 164,-0.5"/>
<text text-anchor="middle" x="198" y="-7.5" font-family="Helvetica,sans-Serif" font-size="10.00">logger.hpp</text>
</a>
</g>
</g>
<!-- Node8&#45;&gt;Node9 -->
<g id="edge9" class="edge">
<title>Node8&#45;&gt;Node9</title>
<path fill="none" stroke="midnightblue" d="M198,-56.4C198,-48.47 198,-38.46 198,-29.86"/>
<polygon fill="midnightblue" stroke="midnightblue" points="201.5,-29.66 198,-19.66 194.5,-29.66 201.5,-29.66"/>
</g>
<!-- Node10&#45;&gt;Node8 -->
<g id="edge13" class="edge">
<title>Node10&#45;&gt;Node8</title>
<path fill="none" stroke="midnightblue" d="M125.48,-179.33C115,-164.6 102.64,-141.2 113,-123 120.8,-109.29 133.95,-98.92 147.6,-91.25"/>
<polygon fill="midnightblue" stroke="midnightblue" points="149.33,-94.3 156.6,-86.6 146.11,-88.09 149.33,-94.3"/>
</g>
</g>
</svg>
