<?xml version="1.0" encoding="UTF-8" standalone="no"?>
<!DOCTYPE svg PUBLIC "-//W3C//DTD SVG 1.1//EN"
 "http://www.w3.org/Graphics/SVG/1.1/DTD/svg11.dtd">
<!-- Generated by graphviz version 2.43.0 (0)
 -->
<!-- Title: src/core/arm1176jzf_s/mmu/mmu.cpp Pages: 1 -->
<svg width="1053pt" height="453pt"
 viewBox="0.00 0.00 1053.00 453.00" xmlns="http://www.w3.org/2000/svg" xmlns:xlink="http://www.w3.org/1999/xlink">
<g id="graph0" class="graph" transform="scale(1 1) rotate(0) translate(4 449)">
<title>src/core/arm1176jzf_s/mmu/mmu.cpp</title>
<!-- Node1 -->
<g id="node1" class="node">
<title>Node1</title>
<g id="a_node1"><a xlink:title="This file implements the MMU (memory management unit) of the CPU.">
<polygon fill="#bfbfbf" stroke="black" points="398,-414.5 398,-444.5 511,-444.5 511,-414.5 398,-414.5"/>
<text text-anchor="start" x="406" y="-432.5" font-family="Helvetica,sans-Serif" font-size="10.00">src/core/arm1176jzf</text>
<text text-anchor="middle" x="454.5" y="-421.5" font-family="Helvetica,sans-Serif" font-size="10.00">_s/mmu/mmu.cpp</text>
</a>
</g>
</g>
<!-- Node2 -->
<g id="node2" class="node">
<title>Node2</title>
<g id="a_node2"><a xlink:href="mmu_8hpp.html" target="_top" xlink:title="This file defines the MMU (memory management unit) of the CPU.">
<polygon fill="none" stroke="black" points="423,-358.5 423,-377.5 486,-377.5 486,-358.5 423,-358.5"/>
<text text-anchor="middle" x="454.5" y="-365.5" font-family="Helvetica,sans-Serif" font-size="10.00">mmu.hpp</text>
</a>
</g>
</g>
<!-- Node1&#45;&gt;Node2 -->
<g id="edge1" class="edge">
<title>Node1&#45;&gt;Node2</title>
<path fill="none" stroke="midnightblue" d="M454.5,-414.4C454.5,-406.47 454.5,-396.46 454.5,-387.86"/>
<polygon fill="midnightblue" stroke="midnightblue" points="458,-387.66 454.5,-377.66 451,-387.66 458,-387.66"/>
</g>
<!-- Node3 -->
<g id="node3" class="node">
<title>Node3</title>
<g id="a_node3"><a xlink:href="bus_8hpp.html" target="_top" xlink:title="This file defines an interface the CPU uses to access different memory&#45;mapped peripherals.">
<polygon fill="none" stroke="black" points="472,-302.5 472,-321.5 545,-321.5 545,-302.5 472,-302.5"/>
<text text-anchor="middle" x="508.5" y="-309.5" font-family="Helvetica,sans-Serif" font-size="10.00">../../bus.hpp</text>
</a>
</g>
</g>
<!-- Node2&#45;&gt;Node3 -->
<g id="edge2" class="edge">
<title>Node2&#45;&gt;Node3</title>
<path fill="none" stroke="midnightblue" d="M463.42,-358.08C471.28,-350.22 482.93,-338.57 492.42,-329.08"/>
<polygon fill="midnightblue" stroke="midnightblue" points="495.15,-331.3 499.75,-321.75 490.2,-326.35 495.15,-331.3"/>
</g>
<!-- Node4 -->
<g id="node4" class="node">
<title>Node4</title>
<g id="a_node4"><a xlink:href="cp15_8hpp.html" target="_top" xlink:title="This file defines coprocessor CP15.">
<polygon fill="none" stroke="black" points="214.5,-246.5 214.5,-265.5 368.5,-265.5 368.5,-246.5 214.5,-246.5"/>
<text text-anchor="middle" x="291.5" y="-253.5" font-family="Helvetica,sans-Serif" font-size="10.00">coprocessors/cp15/cp15.hpp</text>
</a>
</g>
</g>
<!-- Node2&#45;&gt;Node4 -->
<g id="edge35" class="edge">
<title>Node2&#45;&gt;Node4</title>
<path fill="none" stroke="midnightblue" d="M441.71,-358.37C413.74,-339.49 346.9,-294.38 312.6,-271.24"/>
<polygon fill="midnightblue" stroke="midnightblue" points="314.48,-268.28 304.23,-265.59 310.56,-274.09 314.48,-268.28"/>
</g>
<!-- Node14 -->
<g id="node14" class="node">
<title>Node14</title>
<g id="a_node14"><a xlink:href="context_8hpp.html" target="_top" xlink:title="This file defines the context (registers) of the CPU.">
<polygon fill="none" stroke="black" points="371.5,-123.5 371.5,-142.5 523.5,-142.5 523.5,-123.5 371.5,-123.5"/>
<text text-anchor="middle" x="447.5" y="-130.5" font-family="Helvetica,sans-Serif" font-size="10.00">../arm1176jzf_s/context.hpp</text>
</a>
</g>
</g>
<!-- Node2&#45;&gt;Node14 -->
<g id="edge34" class="edge">
<title>Node2&#45;&gt;Node14</title>
<path fill="none" stroke="midnightblue" d="M453.01,-358.39C450.09,-341 443.71,-300.4 441.5,-266 438.92,-225.7 442.72,-178.41 445.35,-152.79"/>
<polygon fill="midnightblue" stroke="midnightblue" points="448.85,-152.97 446.45,-142.65 441.9,-152.22 448.85,-152.97"/>
</g>
<!-- Node22 -->
<g id="node22" class="node">
<title>Node22</title>
<g id="a_node22"><a xlink:href="page__table_8hpp.html" target="_top" xlink:title="This file defines a page table.">
<polygon fill="none" stroke="black" points="677.5,-302.5 677.5,-321.5 769.5,-321.5 769.5,-302.5 677.5,-302.5"/>
<text text-anchor="middle" x="723.5" y="-309.5" font-family="Helvetica,sans-Serif" font-size="10.00">page_table.hpp</text>
</a>
</g>
</g>
<!-- Node2&#45;&gt;Node22 -->
<g id="edge32" class="edge">
<title>Node2&#45;&gt;Node22</title>
<path fill="none" stroke="midnightblue" d="M486.15,-360.65C531.65,-351.51 616.1,-334.56 671.02,-323.53"/>
<polygon fill="midnightblue" stroke="midnightblue" points="671.8,-326.95 680.92,-321.55 670.43,-320.08 671.8,-326.95"/>
</g>
<!-- Node3&#45;&gt;Node4 -->
<g id="edge3" class="edge">
<title>Node3&#45;&gt;Node4</title>
<path fill="none" stroke="midnightblue" d="M474.12,-302.44C436.58,-293.1 376.37,-278.12 335.43,-267.93"/>
<polygon fill="midnightblue" stroke="midnightblue" points="336.27,-264.53 325.72,-265.52 334.58,-271.33 336.27,-264.53"/>
</g>
<!-- Node19 -->
<g id="node19" class="node">
<title>Node19</title>
<g id="a_node19"><a xlink:href="peripheral_8hpp.html" target="_top" xlink:title="This file defines an interface for a memory&#45;mapped peripheral.">
<polygon fill="none" stroke="black" points="629,-246.5 629,-265.5 774,-265.5 774,-246.5 629,-246.5"/>
<text text-anchor="middle" x="701.5" y="-253.5" font-family="Helvetica,sans-Serif" font-size="10.00">peripherals/peripheral.hpp</text>
</a>
</g>
</g>
<!-- Node3&#45;&gt;Node19 -->
<g id="edge28" class="edge">
<title>Node3&#45;&gt;Node19</title>
<path fill="none" stroke="midnightblue" d="M539.08,-302.44C572.11,-293.2 624.89,-278.44 661.27,-268.26"/>
<polygon fill="midnightblue" stroke="midnightblue" points="662.37,-271.58 671.06,-265.52 660.49,-264.84 662.37,-271.58"/>
</g>
<!-- Node20 -->
<g id="node20" class="node">
<title>Node20</title>
<g id="a_node20"><a xlink:href="exceptions_8hpp.html" target="_top" xlink:title="This file defines all exceptions that can be thrown by the CPU during execution.">
<polygon fill="none" stroke="black" points="450.5,-246.5 450.5,-265.5 610.5,-265.5 610.5,-246.5 450.5,-246.5"/>
<text text-anchor="middle" x="530.5" y="-253.5" font-family="Helvetica,sans-Serif" font-size="10.00">arm1176jzf_s/exceptions.hpp</text>
</a>
</g>
</g>
<!-- Node3&#45;&gt;Node20 -->
<g id="edge29" class="edge">
<title>Node3&#45;&gt;Node20</title>
<path fill="none" stroke="midnightblue" d="M512.13,-302.08C515.11,-294.77 519.43,-284.18 523.12,-275.1"/>
<polygon fill="midnightblue" stroke="midnightblue" points="526.4,-276.33 526.93,-265.75 519.92,-273.69 526.4,-276.33"/>
</g>
<!-- Node5 -->
<g id="node5" class="node">
<title>Node5</title>
<g id="a_node5"><a xlink:href="c1_8hpp.html" target="_top" xlink:title="This file defines the primary register C1 of coprocessor CP15.">
<polygon fill="none" stroke="black" points="0,-190.5 0,-209.5 49,-209.5 49,-190.5 0,-190.5"/>
<text text-anchor="middle" x="24.5" y="-197.5" font-family="Helvetica,sans-Serif" font-size="10.00">c1.hpp</text>
</a>
</g>
</g>
<!-- Node4&#45;&gt;Node5 -->
<g id="edge4" class="edge">
<title>Node4&#45;&gt;Node5</title>
<path fill="none" stroke="midnightblue" d="M245.99,-246.46C199.91,-237.71 126.63,-223.51 63.5,-210 62.06,-209.69 60.58,-209.37 59.1,-209.04"/>
<polygon fill="midnightblue" stroke="midnightblue" points="59.75,-205.61 49.23,-206.83 58.22,-212.44 59.75,-205.61"/>
</g>
<!-- Node6 -->
<g id="node6" class="node">
<title>Node6</title>
<g id="a_node6"><a xlink:href="primary__reg_8hpp.html" target="_top" xlink:title="This file defines a primary register interface of coprocessor CP15.">
<polygon fill="none" stroke="black" points="149,-123.5 149,-142.5 246,-142.5 246,-123.5 149,-123.5"/>
<text text-anchor="middle" x="197.5" y="-130.5" font-family="Helvetica,sans-Serif" font-size="10.00">primary_reg.hpp</text>
</a>
</g>
</g>
<!-- Node4&#45;&gt;Node6 -->
<g id="edge17" class="edge">
<title>Node4&#45;&gt;Node6</title>
<path fill="none" stroke="midnightblue" d="M214.39,-247.02C166.52,-240.29 111.37,-228.69 96.5,-210 74.3,-182.1 120.97,-159 158.03,-145.85"/>
<polygon fill="midnightblue" stroke="midnightblue" points="159.33,-149.1 167.67,-142.56 157.08,-142.47 159.33,-149.1"/>
</g>
<!-- Node7 -->
<g id="node7" class="node">
<title>Node7</title>
<g id="a_node7"><a xlink:href="logger_8hpp.html" target="_top" xlink:title="This file defines a general logger interface as well as a logging system that is used in the project.">
<polygon fill="none" stroke="black" points="207.5,-56.5 207.5,-75.5 353.5,-75.5 353.5,-56.5 207.5,-56.5"/>
<text text-anchor="middle" x="280.5" y="-63.5" font-family="Helvetica,sans-Serif" font-size="10.00">zero_mate/utils/logger.hpp</text>
</a>
</g>
</g>
<!-- Node4&#45;&gt;Node7 -->
<g id="edge27" class="edge">
<title>Node4&#45;&gt;Node7</title>
<path fill="none" stroke="midnightblue" d="M317.71,-246.41C334.35,-239.44 354.56,-227.81 364.5,-210 368.83,-202.24 367.12,-198.49 364.5,-190 351.1,-146.62 316.57,-104.89 296.2,-82.95"/>
<polygon fill="midnightblue" stroke="midnightblue" points="298.58,-80.38 289.15,-75.55 293.51,-85.2 298.58,-80.38"/>
</g>
<!-- Node9 -->
<g id="node9" class="node">
<title>Node9</title>
<g id="a_node9"><a xlink:href="c2_8hpp.html" target="_top" xlink:title="This file defines the primary register C2 of coprocessor CP15.">
<polygon fill="none" stroke="black" points="106,-190.5 106,-209.5 155,-209.5 155,-190.5 106,-190.5"/>
<text text-anchor="middle" x="130.5" y="-197.5" font-family="Helvetica,sans-Serif" font-size="10.00">c2.hpp</text>
</a>
</g>
</g>
<!-- Node4&#45;&gt;Node9 -->
<g id="edge9" class="edge">
<title>Node4&#45;&gt;Node9</title>
<path fill="none" stroke="midnightblue" d="M265.99,-246.44C238.67,-237.28 195.15,-222.68 164.83,-212.52"/>
<polygon fill="midnightblue" stroke="midnightblue" points="165.69,-209.11 155.1,-209.25 163.47,-215.75 165.69,-209.11"/>
</g>
<!-- Node10 -->
<g id="node10" class="node">
<title>Node10</title>
<g id="a_node10"><a xlink:href="c3_8hpp.html" target="_top" xlink:title="This file defines the primary register C3 of coprocessor CP15.">
<polygon fill="none" stroke="black" points="173,-190.5 173,-209.5 222,-209.5 222,-190.5 173,-190.5"/>
<text text-anchor="middle" x="197.5" y="-197.5" font-family="Helvetica,sans-Serif" font-size="10.00">c3.hpp</text>
</a>
</g>
</g>
<!-- Node4&#45;&gt;Node10 -->
<g id="edge11" class="edge">
<title>Node4&#45;&gt;Node10</title>
<path fill="none" stroke="midnightblue" d="M276.4,-246.32C261.6,-237.82 238.81,-224.73 221.52,-214.8"/>
<polygon fill="midnightblue" stroke="midnightblue" points="222.98,-211.6 212.57,-209.65 219.49,-217.67 222.98,-211.6"/>
</g>
<!-- Node11 -->
<g id="node11" class="node">
<title>Node11</title>
<g id="a_node11"><a xlink:href="c7_8hpp.html" target="_top" xlink:title="This file defines the primary register C7 of coprocessor CP15.">
<polygon fill="none" stroke="black" points="240,-190.5 240,-209.5 289,-209.5 289,-190.5 240,-190.5"/>
<text text-anchor="middle" x="264.5" y="-197.5" font-family="Helvetica,sans-Serif" font-size="10.00">c7.hpp</text>
</a>
</g>
</g>
<!-- Node4&#45;&gt;Node11 -->
<g id="edge13" class="edge">
<title>Node4&#45;&gt;Node11</title>
<path fill="none" stroke="midnightblue" d="M287.04,-246.08C283.35,-238.69 277.98,-227.95 273.41,-218.81"/>
<polygon fill="midnightblue" stroke="midnightblue" points="276.48,-217.13 268.88,-209.75 270.22,-220.26 276.48,-217.13"/>
</g>
<!-- Node12 -->
<g id="node12" class="node">
<title>Node12</title>
<g id="a_node12"><a xlink:href="c8_8hpp.html" target="_top" xlink:title="This file defines the primary register C8 of coprocessor CP15.">
<polygon fill="none" stroke="black" points="307,-190.5 307,-209.5 356,-209.5 356,-190.5 307,-190.5"/>
<text text-anchor="middle" x="331.5" y="-197.5" font-family="Helvetica,sans-Serif" font-size="10.00">c8.hpp</text>
</a>
</g>
</g>
<!-- Node4&#45;&gt;Node12 -->
<g id="edge15" class="edge">
<title>Node4&#45;&gt;Node12</title>
<path fill="none" stroke="midnightblue" d="M298.11,-246.08C303.76,-238.46 312.04,-227.26 318.95,-217.94"/>
<polygon fill="midnightblue" stroke="midnightblue" points="321.88,-219.87 325.02,-209.75 316.25,-215.7 321.88,-219.87"/>
</g>
<!-- Node13 -->
<g id="node13" class="node">
<title>Node13</title>
<g id="a_node13"><a xlink:href="coprocessor_8hpp.html" target="_top" xlink:title="This file defines a general interface of a coprocessor.">
<polygon fill="none" stroke="black" points="563.5,-190.5 563.5,-209.5 667.5,-209.5 667.5,-190.5 563.5,-190.5"/>
<text text-anchor="middle" x="615.5" y="-197.5" font-family="Helvetica,sans-Serif" font-size="10.00">../coprocessor.hpp</text>
</a>
</g>
</g>
<!-- Node4&#45;&gt;Node13 -->
<g id="edge18" class="edge">
<title>Node4&#45;&gt;Node13</title>
<path fill="none" stroke="midnightblue" d="M342.84,-246.44C400.31,-236.87 493.37,-221.36 554.5,-211.17"/>
<polygon fill="midnightblue" stroke="midnightblue" points="555.11,-214.61 564.4,-209.52 553.96,-207.71 555.11,-214.61"/>
</g>
<!-- Node5&#45;&gt;Node6 -->
<g id="edge5" class="edge">
<title>Node5&#45;&gt;Node6</title>
<path fill="none" stroke="midnightblue" d="M47.47,-190.37C77.67,-179.02 130.9,-159.02 165.16,-146.15"/>
<polygon fill="midnightblue" stroke="midnightblue" points="166.58,-149.36 174.71,-142.56 164.12,-142.8 166.58,-149.36"/>
</g>
<!-- Node5&#45;&gt;Node7 -->
<g id="edge8" class="edge">
<title>Node5&#45;&gt;Node7</title>
<path fill="none" stroke="midnightblue" d="M33.59,-190.36C52.12,-173.19 96.16,-134.47 139.5,-112 168.76,-96.83 204.09,-85.57 232.06,-78.1"/>
<polygon fill="midnightblue" stroke="midnightblue" points="233.21,-81.42 242.01,-75.52 231.45,-74.64 233.21,-81.42"/>
</g>
<!-- Node6&#45;&gt;Node7 -->
<g id="edge6" class="edge">
<title>Node6&#45;&gt;Node7</title>
<path fill="none" stroke="midnightblue" d="M208.69,-123.23C222.13,-112.71 244.9,-94.88 261.2,-82.12"/>
<polygon fill="midnightblue" stroke="midnightblue" points="263.77,-84.55 269.48,-75.63 259.45,-79.04 263.77,-84.55"/>
</g>
<!-- Node8 -->
<g id="node8" class="node">
<title>Node8</title>
<g id="a_node8"><a xlink:href="api__export_8hpp.html" target="_top" xlink:title="This file defines macros for exporting symbols out of a shared library.">
<polygon fill="none" stroke="black" points="208.5,-0.5 208.5,-19.5 352.5,-19.5 352.5,-0.5 208.5,-0.5"/>
<text text-anchor="middle" x="280.5" y="-7.5" font-family="Helvetica,sans-Serif" font-size="10.00">zero_mate/api_export.hpp</text>
</a>
</g>
</g>
<!-- Node7&#45;&gt;Node8 -->
<g id="edge7" class="edge">
<title>Node7&#45;&gt;Node8</title>
<path fill="none" stroke="midnightblue" d="M280.5,-56.08C280.5,-49.01 280.5,-38.86 280.5,-29.99"/>
<polygon fill="midnightblue" stroke="midnightblue" points="284,-29.75 280.5,-19.75 277,-29.75 284,-29.75"/>
</g>
<!-- Node9&#45;&gt;Node6 -->
<g id="edge10" class="edge">
<title>Node9&#45;&gt;Node6</title>
<path fill="none" stroke="midnightblue" d="M139.54,-190.23C150.18,-179.9 168.08,-162.54 181.18,-149.83"/>
<polygon fill="midnightblue" stroke="midnightblue" points="183.87,-152.1 188.61,-142.63 178.99,-147.08 183.87,-152.1"/>
</g>
<!-- Node10&#45;&gt;Node6 -->
<g id="edge12" class="edge">
<title>Node10&#45;&gt;Node6</title>
<path fill="none" stroke="midnightblue" d="M197.5,-190.23C197.5,-180.68 197.5,-165.12 197.5,-152.78"/>
<polygon fill="midnightblue" stroke="midnightblue" points="201,-152.63 197.5,-142.63 194,-152.63 201,-152.63"/>
</g>
<!-- Node11&#45;&gt;Node6 -->
<g id="edge14" class="edge">
<title>Node11&#45;&gt;Node6</title>
<path fill="none" stroke="midnightblue" d="M255.46,-190.23C244.82,-179.9 226.92,-162.54 213.82,-149.83"/>
<polygon fill="midnightblue" stroke="midnightblue" points="216.01,-147.08 206.39,-142.63 211.13,-152.1 216.01,-147.08"/>
</g>
<!-- Node12&#45;&gt;Node6 -->
<g id="edge16" class="edge">
<title>Node12&#45;&gt;Node6</title>
<path fill="none" stroke="midnightblue" d="M313.71,-190.37C290.88,-179.3 251.07,-159.99 224.5,-147.1"/>
<polygon fill="midnightblue" stroke="midnightblue" points="225.89,-143.88 215.37,-142.67 222.84,-150.18 225.89,-143.88"/>
</g>
<!-- Node13&#45;&gt;Node14 -->
<g id="edge19" class="edge">
<title>Node13&#45;&gt;Node14</title>
<path fill="none" stroke="midnightblue" d="M593.19,-190.37C563.99,-179.07 512.62,-159.2 479.34,-146.32"/>
<polygon fill="midnightblue" stroke="midnightblue" points="480.22,-142.91 469.63,-142.56 477.7,-149.44 480.22,-142.91"/>
</g>
<!-- Node15 -->
<g id="node15" class="node">
<title>Node15</title>
<g id="a_node15"><a xlink:href="coprocessor__register__transfer_8hpp.html" target="_top" xlink:title="This file defines a coprocessor register transfer (MRC, MCR).">
<polygon fill="none" stroke="black" points="737,-112.5 737,-153.5 858,-153.5 858,-112.5 737,-112.5"/>
<text text-anchor="start" x="745" y="-141.5" font-family="Helvetica,sans-Serif" font-size="10.00">../arm1176jzf_s/isa</text>
<text text-anchor="start" x="745" y="-130.5" font-family="Helvetica,sans-Serif" font-size="10.00">/coprocessor_register</text>
<text text-anchor="middle" x="797.5" y="-119.5" font-family="Helvetica,sans-Serif" font-size="10.00">_transfer.hpp</text>
</a>
</g>
</g>
<!-- Node13&#45;&gt;Node15 -->
<g id="edge21" class="edge">
<title>Node13&#45;&gt;Node15</title>
<path fill="none" stroke="midnightblue" d="M639.67,-190.37C663.43,-181.88 700.74,-168.56 733.12,-156.99"/>
<polygon fill="midnightblue" stroke="midnightblue" points="734.31,-160.28 742.55,-153.63 731.95,-153.69 734.31,-160.28"/>
</g>
<!-- Node17 -->
<g id="node17" class="node">
<title>Node17</title>
<g id="a_node17"><a xlink:href="coprocessor__data__transfer_8hpp.html" target="_top" xlink:title="This file defines a coprocessor data transfer (LDC, STC).">
<polygon fill="none" stroke="black" points="876,-118 876,-148 1045,-148 1045,-118 876,-118"/>
<text text-anchor="start" x="884" y="-136" font-family="Helvetica,sans-Serif" font-size="10.00">../arm1176jzf_s/isa</text>
<text text-anchor="middle" x="960.5" y="-125" font-family="Helvetica,sans-Serif" font-size="10.00">/coprocessor_data_transfer.hpp</text>
</a>
</g>
</g>
<!-- Node13&#45;&gt;Node17 -->
<g id="edge23" class="edge">
<title>Node13&#45;&gt;Node17</title>
<path fill="none" stroke="midnightblue" d="M666.28,-190.47C717.24,-181.79 797.95,-167.68 867.5,-154 873.72,-152.78 880.17,-151.47 886.63,-150.13"/>
<polygon fill="midnightblue" stroke="midnightblue" points="887.7,-153.48 896.78,-148.01 886.27,-146.63 887.7,-153.48"/>
</g>
<!-- Node18 -->
<g id="node18" class="node">
<title>Node18</title>
<g id="a_node18"><a xlink:href="coprocessor__data__operation_8hpp.html" target="_top" xlink:title="This file defines a coprocessor data operation (CDP).">
<polygon fill="none" stroke="black" points="541.5,-118 541.5,-148 719.5,-148 719.5,-118 541.5,-118"/>
<text text-anchor="start" x="549.5" y="-136" font-family="Helvetica,sans-Serif" font-size="10.00">../arm1176jzf_s/isa</text>
<text text-anchor="middle" x="630.5" y="-125" font-family="Helvetica,sans-Serif" font-size="10.00">/coprocessor_data_operation.hpp</text>
</a>
</g>
</g>
<!-- Node13&#45;&gt;Node18 -->
<g id="edge25" class="edge">
<title>Node13&#45;&gt;Node18</title>
<path fill="none" stroke="midnightblue" d="M617.52,-190.23C619.43,-181.96 622.39,-169.16 624.99,-157.87"/>
<polygon fill="midnightblue" stroke="midnightblue" points="628.41,-158.62 627.25,-148.09 621.59,-157.05 628.41,-158.62"/>
</g>
<!-- Node14&#45;&gt;Node7 -->
<g id="edge20" class="edge">
<title>Node14&#45;&gt;Node7</title>
<path fill="none" stroke="midnightblue" d="M425.32,-123.37C396.3,-112.07 345.23,-92.2 312.15,-79.32"/>
<polygon fill="midnightblue" stroke="midnightblue" points="313.09,-75.93 302.5,-75.56 310.55,-82.45 313.09,-75.93"/>
</g>
<!-- Node16 -->
<g id="node16" class="node">
<title>Node16</title>
<g id="a_node16"><a xlink:href="instruction_8hpp.html" target="_top" xlink:title="This file defines the interface of a general ARM instruction.">
<polygon fill="none" stroke="black" points="753,-56.5 753,-75.5 842,-75.5 842,-56.5 753,-56.5"/>
<text text-anchor="middle" x="797.5" y="-63.5" font-family="Helvetica,sans-Serif" font-size="10.00">instruction.hpp</text>
</a>
</g>
</g>
<!-- Node15&#45;&gt;Node16 -->
<g id="edge22" class="edge">
<title>Node15&#45;&gt;Node16</title>
<path fill="none" stroke="midnightblue" d="M797.5,-112.5C797.5,-104.07 797.5,-94.24 797.5,-85.87"/>
<polygon fill="midnightblue" stroke="midnightblue" points="801,-85.65 797.5,-75.65 794,-85.65 801,-85.65"/>
</g>
<!-- Node17&#45;&gt;Node16 -->
<g id="edge24" class="edge">
<title>Node17&#45;&gt;Node16</title>
<path fill="none" stroke="midnightblue" d="M925.13,-117.9C896.28,-106.39 855.92,-90.3 828.36,-79.31"/>
<polygon fill="midnightblue" stroke="midnightblue" points="829.42,-75.96 818.83,-75.51 826.83,-82.46 829.42,-75.96"/>
</g>
<!-- Node18&#45;&gt;Node16 -->
<g id="edge26" class="edge">
<title>Node18&#45;&gt;Node16</title>
<path fill="none" stroke="midnightblue" d="M666.74,-117.9C696.43,-106.34 738.01,-90.16 766.25,-79.16"/>
<polygon fill="midnightblue" stroke="midnightblue" points="767.59,-82.4 775.64,-75.51 765.06,-75.87 767.59,-82.4"/>
</g>
<!-- Node20&#45;&gt;Node14 -->
<g id="edge31" class="edge">
<title>Node20&#45;&gt;Node14</title>
<path fill="none" stroke="midnightblue" d="M524.53,-246.3C510.89,-226.41 477.24,-177.35 459.26,-151.15"/>
<polygon fill="midnightblue" stroke="midnightblue" points="461.96,-148.89 453.42,-142.62 456.19,-152.85 461.96,-148.89"/>
</g>
<!-- Node21 -->
<g id="node21" class="node">
<title>Node21</title>
<g id="a_node21"><a xlink:title=" ">
<polygon fill="none" stroke="#bfbfbf" points="686,-190.5 686,-209.5 765,-209.5 765,-190.5 686,-190.5"/>
<text text-anchor="middle" x="725.5" y="-197.5" font-family="Helvetica,sans-Serif" font-size="10.00">fmt/format.h</text>
</a>
</g>
</g>
<!-- Node20&#45;&gt;Node21 -->
<g id="edge30" class="edge">
<title>Node20&#45;&gt;Node21</title>
<path fill="none" stroke="midnightblue" d="M561.4,-246.44C594.77,-237.2 648.09,-222.44 684.85,-212.26"/>
<polygon fill="midnightblue" stroke="midnightblue" points="686.04,-215.56 694.75,-209.52 684.17,-208.81 686.04,-215.56"/>
</g>
<!-- Node23 -->
<g id="node23" class="node">
<title>Node23</title>
<g id="a_node23"><a xlink:href="page__entry_8hpp.html" target="_top" xlink:title="This file defines a page table entry.">
<polygon fill="none" stroke="black" points="792,-246.5 792,-265.5 883,-265.5 883,-246.5 792,-246.5"/>
<text text-anchor="middle" x="837.5" y="-253.5" font-family="Helvetica,sans-Serif" font-size="10.00">page_entry.hpp</text>
</a>
</g>
</g>
<!-- Node22&#45;&gt;Node23 -->
<g id="edge33" class="edge">
<title>Node22&#45;&gt;Node23</title>
<path fill="none" stroke="midnightblue" d="M741.56,-302.44C760.07,-293.68 789.08,-279.94 810.36,-269.86"/>
<polygon fill="midnightblue" stroke="midnightblue" points="811.98,-272.96 819.52,-265.52 808.99,-266.63 811.98,-272.96"/>
</g>
</g>
</svg>
