<?xml version="1.0" encoding="UTF-8" standalone="no"?>
<!DOCTYPE svg PUBLIC "-//W3C//DTD SVG 1.1//EN"
 "http://www.w3.org/Graphics/SVG/1.1/DTD/svg11.dtd">
<!-- Generated by graphviz version 2.43.0 (0)
 -->
<!-- Title: src/gui/windows/peripherals/monitor_window.hpp Pages: 1 -->
<svg width="240pt" height="162pt"
 viewBox="0.00 0.00 240.00 162.00" xmlns="http://www.w3.org/2000/svg" xmlns:xlink="http://www.w3.org/1999/xlink">
<g id="graph0" class="graph" transform="scale(1 1) rotate(0) translate(4 158)">
<title>src/gui/windows/peripherals/monitor_window.hpp</title>
<!-- Node1 -->
<g id="node1" class="node">
<title>Node1</title>
<g id="a_node1"><a xlink:title="This file defines a window that visualizes the memory&#45;mapped debug monitor.">
<polygon fill="#bfbfbf" stroke="black" points="32,-123.5 32,-153.5 184,-153.5 184,-123.5 32,-123.5"/>
<text text-anchor="start" x="40" y="-141.5" font-family="Helvetica,sans-Serif" font-size="10.00">src/gui/windows/peripherals</text>
<text text-anchor="middle" x="108" y="-130.5" font-family="Helvetica,sans-Serif" font-size="10.00">/monitor_window.hpp</text>
</a>
</g>
</g>
<!-- Node2 -->
<g id="node2" class="node">
<title>Node2</title>
<g id="a_node2"><a xlink:href="window_8hpp.html" target="_top" xlink:title="This file defines an interface for all windows that will be rendered by the application.">
<polygon fill="none" stroke="black" points="0,-62 0,-81 92,-81 92,-62 0,-62"/>
<text text-anchor="middle" x="46" y="-69" font-family="Helvetica,sans-Serif" font-size="10.00">../../window.hpp</text>
</a>
</g>
</g>
<!-- Node1&#45;&gt;Node2 -->
<g id="edge1" class="edge">
<title>Node1&#45;&gt;Node2</title>
<path fill="none" stroke="midnightblue" d="M94.55,-123.4C84.78,-113.16 71.56,-99.3 61.38,-88.62"/>
<polygon fill="midnightblue" stroke="midnightblue" points="63.73,-86.01 54.29,-81.19 58.66,-90.85 63.73,-86.01"/>
</g>
<!-- Node4 -->
<g id="node4" class="node">
<title>Node4</title>
<g id="a_node4"><a xlink:href="monitor_8hpp.html" target="_top" xlink:title="This file defines an 80x25 8&#45;bit memory&#45;mapped monitor which is used as a debug output.">
<polygon fill="none" stroke="black" points="110,-56.5 110,-86.5 232,-86.5 232,-56.5 110,-56.5"/>
<text text-anchor="start" x="118" y="-74.5" font-family="Helvetica,sans-Serif" font-size="10.00">../../../core/peripherals</text>
<text text-anchor="middle" x="171" y="-63.5" font-family="Helvetica,sans-Serif" font-size="10.00">/monitor.hpp</text>
</a>
</g>
</g>
<!-- Node1&#45;&gt;Node4 -->
<g id="edge3" class="edge">
<title>Node1&#45;&gt;Node4</title>
<path fill="none" stroke="midnightblue" d="M121.67,-123.4C130.01,-114.79 140.83,-103.63 150.22,-93.94"/>
<polygon fill="midnightblue" stroke="midnightblue" points="152.91,-96.19 157.36,-86.58 147.88,-91.32 152.91,-96.19"/>
</g>
<!-- Node3 -->
<g id="node3" class="node">
<title>Node3</title>
<g id="a_node3"><a xlink:title=" ">
<polygon fill="none" stroke="#bfbfbf" points="4,-0.5 4,-19.5 88,-19.5 88,-0.5 4,-0.5"/>
<text text-anchor="middle" x="46" y="-7.5" font-family="Helvetica,sans-Serif" font-size="10.00">imgui/imgui.h</text>
</a>
</g>
</g>
<!-- Node2&#45;&gt;Node3 -->
<g id="edge2" class="edge">
<title>Node2&#45;&gt;Node3</title>
<path fill="none" stroke="midnightblue" d="M46,-61.98C46,-53.58 46,-40.48 46,-29.66"/>
<polygon fill="midnightblue" stroke="midnightblue" points="49.5,-29.51 46,-19.51 42.5,-29.51 49.5,-29.51"/>
</g>
<!-- Node5 -->
<g id="node5" class="node">
<title>Node5</title>
<g id="a_node5"><a xlink:href="peripheral_8hpp.html" target="_top" xlink:title="This file defines an interface for a memory&#45;mapped peripheral.">
<polygon fill="none" stroke="black" points="127.5,-0.5 127.5,-19.5 214.5,-19.5 214.5,-0.5 127.5,-0.5"/>
<text text-anchor="middle" x="171" y="-7.5" font-family="Helvetica,sans-Serif" font-size="10.00">peripheral.hpp</text>
</a>
</g>
</g>
<!-- Node4&#45;&gt;Node5 -->
<g id="edge4" class="edge">
<title>Node4&#45;&gt;Node5</title>
<path fill="none" stroke="midnightblue" d="M171,-56.4C171,-48.47 171,-38.46 171,-29.86"/>
<polygon fill="midnightblue" stroke="midnightblue" points="174.5,-29.66 171,-19.66 167.5,-29.66 174.5,-29.66"/>
</g>
</g>
</svg>
