<?xml version="1.0" encoding="UTF-8" standalone="no"?>
<!DOCTYPE svg PUBLIC "-//W3C//DTD SVG 1.1//EN"
 "http://www.w3.org/Graphics/SVG/1.1/DTD/svg11.dtd">
<!-- Generated by graphviz version 2.43.0 (0)
 -->
<!-- Title: src/gui/windows/peripherals/monitor_window.cpp Pages: 1 -->
<svg width="332pt" height="218pt"
 viewBox="0.00 0.00 332.00 218.00" xmlns="http://www.w3.org/2000/svg" xmlns:xlink="http://www.w3.org/1999/xlink">
<g id="graph0" class="graph" transform="scale(1 1) rotate(0) translate(4 214)">
<title>src/gui/windows/peripherals/monitor_window.cpp</title>
<!-- Node1 -->
<g id="node1" class="node">
<title>Node1</title>
<g id="a_node1"><a xlink:title=" ">
<polygon fill="#bfbfbf" stroke="black" points="2.5,-179.5 2.5,-209.5 154.5,-209.5 154.5,-179.5 2.5,-179.5"/>
<text text-anchor="start" x="10.5" y="-197.5" font-family="Helvetica,sans-Serif" font-size="10.00">src/gui/windows/peripherals</text>
<text text-anchor="middle" x="78.5" y="-186.5" font-family="Helvetica,sans-Serif" font-size="10.00">/monitor_window.cpp</text>
</a>
</g>
</g>
<!-- Node2 -->
<g id="node2" class="node">
<title>Node2</title>
<g id="a_node2"><a xlink:title=" ">
<polygon fill="none" stroke="#bfbfbf" points="0,-123.5 0,-142.5 53,-142.5 53,-123.5 0,-123.5"/>
<text text-anchor="middle" x="26.5" y="-130.5" font-family="Helvetica,sans-Serif" font-size="10.00">imgui.h</text>
</a>
</g>
</g>
<!-- Node1&#45;&gt;Node2 -->
<g id="edge1" class="edge">
<title>Node1&#45;&gt;Node2</title>
<path fill="none" stroke="midnightblue" d="M66.18,-179.4C58.54,-170.66 48.71,-159.41 40.74,-150.3"/>
<polygon fill="midnightblue" stroke="midnightblue" points="43.28,-147.88 34.07,-142.66 38.01,-152.49 43.28,-147.88"/>
</g>
<!-- Node3 -->
<g id="node3" class="node">
<title>Node3</title>
<g id="a_node3"><a xlink:href="monitor__window_8hpp.html" target="_top" xlink:title=" ">
<polygon fill="none" stroke="black" points="71.5,-123.5 71.5,-142.5 189.5,-142.5 189.5,-123.5 71.5,-123.5"/>
<text text-anchor="middle" x="130.5" y="-130.5" font-family="Helvetica,sans-Serif" font-size="10.00">monitor_window.hpp</text>
</a>
</g>
</g>
<!-- Node1&#45;&gt;Node3 -->
<g id="edge2" class="edge">
<title>Node1&#45;&gt;Node3</title>
<path fill="none" stroke="midnightblue" d="M90.82,-179.4C98.46,-170.66 108.29,-159.41 116.26,-150.3"/>
<polygon fill="midnightblue" stroke="midnightblue" points="118.99,-152.49 122.93,-142.66 113.72,-147.88 118.99,-152.49"/>
</g>
<!-- Node4 -->
<g id="node4" class="node">
<title>Node4</title>
<g id="a_node4"><a xlink:title=" ">
<polygon fill="none" stroke="#bfbfbf" points="75.5,-0.5 75.5,-19.5 133.5,-19.5 133.5,-0.5 75.5,-0.5"/>
<text text-anchor="middle" x="104.5" y="-7.5" font-family="Helvetica,sans-Serif" font-size="10.00">memory</text>
</a>
</g>
</g>
<!-- Node3&#45;&gt;Node4 -->
<g id="edge3" class="edge">
<title>Node3&#45;&gt;Node4</title>
<path fill="none" stroke="midnightblue" d="M113.3,-123.39C100.25,-115.79 83.27,-103.39 75.5,-87 66.1,-67.16 78.81,-43.38 90.25,-27.77"/>
<polygon fill="midnightblue" stroke="midnightblue" points="93.23,-29.64 96.66,-19.62 87.73,-25.32 93.23,-29.64"/>
</g>
<!-- Node5 -->
<g id="node5" class="node">
<title>Node5</title>
<g id="a_node5"><a xlink:href="window_8hpp.html" target="_top" xlink:title=" ">
<polygon fill="none" stroke="black" points="84.5,-62 84.5,-81 176.5,-81 176.5,-62 84.5,-62"/>
<text text-anchor="middle" x="130.5" y="-69" font-family="Helvetica,sans-Serif" font-size="10.00">../../window.hpp</text>
</a>
</g>
</g>
<!-- Node3&#45;&gt;Node5 -->
<g id="edge4" class="edge">
<title>Node3&#45;&gt;Node5</title>
<path fill="none" stroke="midnightblue" d="M130.5,-123.48C130.5,-115.08 130.5,-101.98 130.5,-91.16"/>
<polygon fill="midnightblue" stroke="midnightblue" points="134,-91.01 130.5,-81.01 127,-91.01 134,-91.01"/>
</g>
<!-- Node6 -->
<g id="node6" class="node">
<title>Node6</title>
<g id="a_node6"><a xlink:href="monitor_8hpp.html" target="_top" xlink:title=" ">
<polygon fill="none" stroke="black" points="194.5,-56.5 194.5,-86.5 316.5,-86.5 316.5,-56.5 194.5,-56.5"/>
<text text-anchor="start" x="202.5" y="-74.5" font-family="Helvetica,sans-Serif" font-size="10.00">../../../core/peripherals</text>
<text text-anchor="middle" x="255.5" y="-63.5" font-family="Helvetica,sans-Serif" font-size="10.00">/monitor.hpp</text>
</a>
</g>
</g>
<!-- Node3&#45;&gt;Node6 -->
<g id="edge6" class="edge">
<title>Node3&#45;&gt;Node6</title>
<path fill="none" stroke="midnightblue" d="M148.41,-123.48C166.21,-115 194.08,-101.74 216.92,-90.86"/>
<polygon fill="midnightblue" stroke="midnightblue" points="218.51,-93.98 226.04,-86.52 215.51,-87.66 218.51,-93.98"/>
</g>
<!-- Node5&#45;&gt;Node4 -->
<g id="edge5" class="edge">
<title>Node5&#45;&gt;Node4</title>
<path fill="none" stroke="midnightblue" d="M126.77,-61.98C123.03,-53.4 117.14,-39.93 112.36,-28.98"/>
<polygon fill="midnightblue" stroke="midnightblue" points="115.43,-27.27 108.22,-19.51 109.02,-30.07 115.43,-27.27"/>
</g>
<!-- Node7 -->
<g id="node7" class="node">
<title>Node7</title>
<g id="a_node7"><a xlink:title=" ">
<polygon fill="none" stroke="#bfbfbf" points="174.5,-0.5 174.5,-19.5 218.5,-19.5 218.5,-0.5 174.5,-0.5"/>
<text text-anchor="middle" x="196.5" y="-7.5" font-family="Helvetica,sans-Serif" font-size="10.00">string</text>
</a>
</g>
</g>
<!-- Node6&#45;&gt;Node7 -->
<g id="edge7" class="edge">
<title>Node6&#45;&gt;Node7</title>
<path fill="none" stroke="midnightblue" d="M241.52,-56.4C232.77,-47.58 221.47,-36.18 212.38,-27.02"/>
<polygon fill="midnightblue" stroke="midnightblue" points="214.61,-24.29 205.09,-19.66 209.64,-29.22 214.61,-24.29"/>
</g>
<!-- Node8 -->
<g id="node8" class="node">
<title>Node8</title>
<g id="a_node8"><a xlink:href="peripheral_8hpp.html" target="_top" xlink:title="This file defines an interface for a memory&#45;mapped peripheral.">
<polygon fill="none" stroke="black" points="237,-0.5 237,-19.5 324,-19.5 324,-0.5 237,-0.5"/>
<text text-anchor="middle" x="280.5" y="-7.5" font-family="Helvetica,sans-Serif" font-size="10.00">peripheral.hpp</text>
</a>
</g>
</g>
<!-- Node6&#45;&gt;Node8 -->
<g id="edge8" class="edge">
<title>Node6&#45;&gt;Node8</title>
<path fill="none" stroke="midnightblue" d="M261.42,-56.4C264.87,-48.2 269.25,-37.78 272.94,-28.99"/>
<polygon fill="midnightblue" stroke="midnightblue" points="276.22,-30.23 276.86,-19.66 269.76,-27.52 276.22,-30.23"/>
</g>
</g>
</svg>
