<?xml version="1.0" encoding="UTF-8" standalone="no"?>
<!DOCTYPE svg PUBLIC "-//W3C//DTD SVG 1.1//EN"
 "http://www.w3.org/Graphics/SVG/1.1/DTD/svg11.dtd">
<!-- Generated by graphviz version 2.43.0 (0)
 -->
<!-- Title: src/gui/windows/peripherals/monitor_window.hpp Pages: 1 -->
<svg width="278pt" height="218pt"
 viewBox="0.00 0.00 277.50 218.00" xmlns="http://www.w3.org/2000/svg" xmlns:xlink="http://www.w3.org/1999/xlink">
<g id="graph0" class="graph" transform="scale(1 1) rotate(0) translate(4 214)">
<title>src/gui/windows/peripherals/monitor_window.hpp</title>
<!-- Node1 -->
<g id="node1" class="node">
<title>Node1</title>
<g id="a_node1"><a xlink:title=" ">
<polygon fill="#bfbfbf" stroke="black" points="0,-179.5 0,-209.5 152,-209.5 152,-179.5 0,-179.5"/>
<text text-anchor="start" x="8" y="-197.5" font-family="Helvetica,sans-Serif" font-size="10.00">src/gui/windows/peripherals</text>
<text text-anchor="middle" x="76" y="-186.5" font-family="Helvetica,sans-Serif" font-size="10.00">/monitor_window.hpp</text>
</a>
</g>
</g>
<!-- Node2 -->
<g id="node2" class="node">
<title>Node2</title>
<g id="a_node2"><a xlink:title=" ">
<polygon fill="none" stroke="#bfbfbf" points="21,-56.5 21,-75.5 79,-75.5 79,-56.5 21,-56.5"/>
<text text-anchor="middle" x="50" y="-63.5" font-family="Helvetica,sans-Serif" font-size="10.00">memory</text>
</a>
</g>
</g>
<!-- Node1&#45;&gt;Node2 -->
<g id="edge1" class="edge">
<title>Node1&#45;&gt;Node2</title>
<path fill="none" stroke="midnightblue" d="M53.22,-179.44C41.21,-170.62 27.62,-158.07 21,-143 12.17,-122.9 24.76,-99.18 36.01,-83.65"/>
<polygon fill="midnightblue" stroke="midnightblue" points="38.94,-85.59 42.31,-75.55 33.41,-81.29 38.94,-85.59"/>
</g>
<!-- Node3 -->
<g id="node3" class="node">
<title>Node3</title>
<g id="a_node3"><a xlink:href="window_8hpp.html" target="_top" xlink:title=" ">
<polygon fill="none" stroke="black" points="30,-118 30,-137 122,-137 122,-118 30,-118"/>
<text text-anchor="middle" x="76" y="-125" font-family="Helvetica,sans-Serif" font-size="10.00">../../window.hpp</text>
</a>
</g>
</g>
<!-- Node1&#45;&gt;Node3 -->
<g id="edge2" class="edge">
<title>Node1&#45;&gt;Node3</title>
<path fill="none" stroke="midnightblue" d="M76,-179.4C76,-170.06 76,-157.71 76,-147.52"/>
<polygon fill="midnightblue" stroke="midnightblue" points="79.5,-147.19 76,-137.19 72.5,-147.19 79.5,-147.19"/>
</g>
<!-- Node4 -->
<g id="node4" class="node">
<title>Node4</title>
<g id="a_node4"><a xlink:href="monitor_8hpp.html" target="_top" xlink:title=" ">
<polygon fill="none" stroke="black" points="140,-112.5 140,-142.5 262,-142.5 262,-112.5 140,-112.5"/>
<text text-anchor="start" x="148" y="-130.5" font-family="Helvetica,sans-Serif" font-size="10.00">../../../core/peripherals</text>
<text text-anchor="middle" x="201" y="-119.5" font-family="Helvetica,sans-Serif" font-size="10.00">/monitor.hpp</text>
</a>
</g>
</g>
<!-- Node1&#45;&gt;Node4 -->
<g id="edge4" class="edge">
<title>Node1&#45;&gt;Node4</title>
<path fill="none" stroke="midnightblue" d="M103.12,-179.4C121.22,-169.98 145.23,-157.5 164.93,-147.26"/>
<polygon fill="midnightblue" stroke="midnightblue" points="166.67,-150.3 173.93,-142.58 163.44,-144.08 166.67,-150.3"/>
</g>
<!-- Node3&#45;&gt;Node2 -->
<g id="edge3" class="edge">
<title>Node3&#45;&gt;Node2</title>
<path fill="none" stroke="midnightblue" d="M72.27,-117.98C68.53,-109.4 62.64,-95.93 57.86,-84.98"/>
<polygon fill="midnightblue" stroke="midnightblue" points="60.93,-83.27 53.72,-75.51 54.52,-86.07 60.93,-83.27"/>
</g>
<!-- Node5 -->
<g id="node5" class="node">
<title>Node5</title>
<g id="a_node5"><a xlink:title=" ">
<polygon fill="none" stroke="#bfbfbf" points="120,-56.5 120,-75.5 164,-75.5 164,-56.5 120,-56.5"/>
<text text-anchor="middle" x="142" y="-63.5" font-family="Helvetica,sans-Serif" font-size="10.00">string</text>
</a>
</g>
</g>
<!-- Node4&#45;&gt;Node5 -->
<g id="edge5" class="edge">
<title>Node4&#45;&gt;Node5</title>
<path fill="none" stroke="midnightblue" d="M187.02,-112.4C178.27,-103.58 166.97,-92.18 157.88,-83.02"/>
<polygon fill="midnightblue" stroke="midnightblue" points="160.11,-80.29 150.59,-75.66 155.14,-85.22 160.11,-80.29"/>
</g>
<!-- Node6 -->
<g id="node6" class="node">
<title>Node6</title>
<g id="a_node6"><a xlink:href="peripheral_8hpp.html" target="_top" xlink:title=" ">
<polygon fill="none" stroke="black" points="182.5,-56.5 182.5,-75.5 269.5,-75.5 269.5,-56.5 182.5,-56.5"/>
<text text-anchor="middle" x="226" y="-63.5" font-family="Helvetica,sans-Serif" font-size="10.00">peripheral.hpp</text>
</a>
</g>
</g>
<!-- Node4&#45;&gt;Node6 -->
<g id="edge6" class="edge">
<title>Node4&#45;&gt;Node6</title>
<path fill="none" stroke="midnightblue" d="M206.92,-112.4C210.37,-104.2 214.75,-93.78 218.44,-84.99"/>
<polygon fill="midnightblue" stroke="midnightblue" points="221.72,-86.23 222.36,-75.66 215.26,-83.52 221.72,-86.23"/>
</g>
<!-- Node7 -->
<g id="node7" class="node">
<title>Node7</title>
<g id="a_node7"><a xlink:title=" ">
<polygon fill="none" stroke="#bfbfbf" points="201,-0.5 201,-19.5 251,-19.5 251,-0.5 201,-0.5"/>
<text text-anchor="middle" x="226" y="-7.5" font-family="Helvetica,sans-Serif" font-size="10.00">cstdint</text>
</a>
</g>
</g>
<!-- Node6&#45;&gt;Node7 -->
<g id="edge7" class="edge">
<title>Node6&#45;&gt;Node7</title>
<path fill="none" stroke="midnightblue" d="M226,-56.08C226,-49.01 226,-38.86 226,-29.99"/>
<polygon fill="midnightblue" stroke="midnightblue" points="229.5,-29.75 226,-19.75 222.5,-29.75 229.5,-29.75"/>
</g>
</g>
</svg>
