<?xml version="1.0" encoding="UTF-8" standalone="no"?>
<!DOCTYPE svg PUBLIC "-//W3C//DTD SVG 1.1//EN"
 "http://www.w3.org/Graphics/SVG/1.1/DTD/svg11.dtd">
<!-- Generated by graphviz version 2.43.0 (0)
 -->
<!-- Title: src/core/peripherals/monitor.cpp Pages: 1 -->
<svg width="261pt" height="151pt"
 viewBox="0.00 0.00 261.00 151.00" xmlns="http://www.w3.org/2000/svg" xmlns:xlink="http://www.w3.org/1999/xlink">
<g id="graph0" class="graph" transform="scale(1 1) rotate(0) translate(4 147)">
<title>src/core/peripherals/monitor.cpp</title>
<!-- Node1 -->
<g id="node1" class="node">
<title>Node1</title>
<g id="a_node1"><a xlink:title=" ">
<polygon fill="#bfbfbf" stroke="black" points="23,-112.5 23,-142.5 136,-142.5 136,-112.5 23,-112.5"/>
<text text-anchor="start" x="31" y="-130.5" font-family="Helvetica,sans-Serif" font-size="10.00">src/core/peripherals</text>
<text text-anchor="middle" x="79.5" y="-119.5" font-family="Helvetica,sans-Serif" font-size="10.00">/monitor.cpp</text>
</a>
</g>
</g>
<!-- Node2 -->
<g id="node2" class="node">
<title>Node2</title>
<g id="a_node2"><a xlink:title=" ">
<polygon fill="none" stroke="#bfbfbf" points="0,-56.5 0,-75.5 29,-75.5 29,-56.5 0,-56.5"/>
<text text-anchor="middle" x="14.5" y="-63.5" font-family="Helvetica,sans-Serif" font-size="10.00">bit</text>
</a>
</g>
</g>
<!-- Node1&#45;&gt;Node2 -->
<g id="edge1" class="edge">
<title>Node1&#45;&gt;Node2</title>
<path fill="none" stroke="midnightblue" d="M64.1,-112.4C54.26,-103.4 41.51,-91.72 31.39,-82.47"/>
<polygon fill="midnightblue" stroke="midnightblue" points="33.7,-79.83 23.96,-75.66 28.97,-84.99 33.7,-79.83"/>
</g>
<!-- Node3 -->
<g id="node3" class="node">
<title>Node3</title>
<g id="a_node3"><a xlink:title=" ">
<polygon fill="none" stroke="#bfbfbf" points="47.5,-56.5 47.5,-75.5 111.5,-75.5 111.5,-56.5 47.5,-56.5"/>
<text text-anchor="middle" x="79.5" y="-63.5" font-family="Helvetica,sans-Serif" font-size="10.00">algorithm</text>
</a>
</g>
</g>
<!-- Node1&#45;&gt;Node3 -->
<g id="edge2" class="edge">
<title>Node1&#45;&gt;Node3</title>
<path fill="none" stroke="midnightblue" d="M79.5,-112.4C79.5,-104.47 79.5,-94.46 79.5,-85.86"/>
<polygon fill="midnightblue" stroke="midnightblue" points="83,-85.66 79.5,-75.66 76,-85.66 83,-85.66"/>
</g>
<!-- Node4 -->
<g id="node4" class="node">
<title>Node4</title>
<g id="a_node4"><a xlink:href="monitor_8hpp.html" target="_top" xlink:title=" ">
<polygon fill="none" stroke="black" points="130,-56.5 130,-75.5 205,-75.5 205,-56.5 130,-56.5"/>
<text text-anchor="middle" x="167.5" y="-63.5" font-family="Helvetica,sans-Serif" font-size="10.00">monitor.hpp</text>
</a>
</g>
</g>
<!-- Node1&#45;&gt;Node4 -->
<g id="edge3" class="edge">
<title>Node1&#45;&gt;Node4</title>
<path fill="none" stroke="midnightblue" d="M100.35,-112.4C114.2,-103.04 132.31,-90.79 146.24,-81.38"/>
<polygon fill="midnightblue" stroke="midnightblue" points="148.37,-84.16 154.7,-75.66 144.45,-78.36 148.37,-84.16"/>
</g>
<!-- Node5 -->
<g id="node5" class="node">
<title>Node5</title>
<g id="a_node5"><a xlink:title=" ">
<polygon fill="none" stroke="#bfbfbf" points="103.5,-0.5 103.5,-19.5 147.5,-19.5 147.5,-0.5 103.5,-0.5"/>
<text text-anchor="middle" x="125.5" y="-7.5" font-family="Helvetica,sans-Serif" font-size="10.00">string</text>
</a>
</g>
</g>
<!-- Node4&#45;&gt;Node5 -->
<g id="edge4" class="edge">
<title>Node4&#45;&gt;Node5</title>
<path fill="none" stroke="midnightblue" d="M160.56,-56.08C154.57,-48.38 145.75,-37.03 138.45,-27.65"/>
<polygon fill="midnightblue" stroke="midnightblue" points="141.21,-25.5 132.31,-19.75 135.68,-29.79 141.21,-25.5"/>
</g>
<!-- Node6 -->
<g id="node6" class="node">
<title>Node6</title>
<g id="a_node6"><a xlink:href="peripheral_8hpp.html" target="_top" xlink:title="This file defines an interface for a memory&#45;mapped peripheral.">
<polygon fill="none" stroke="black" points="166,-0.5 166,-19.5 253,-19.5 253,-0.5 166,-0.5"/>
<text text-anchor="middle" x="209.5" y="-7.5" font-family="Helvetica,sans-Serif" font-size="10.00">peripheral.hpp</text>
</a>
</g>
</g>
<!-- Node4&#45;&gt;Node6 -->
<g id="edge5" class="edge">
<title>Node4&#45;&gt;Node6</title>
<path fill="none" stroke="midnightblue" d="M174.44,-56.08C180.43,-48.38 189.25,-37.03 196.55,-27.65"/>
<polygon fill="midnightblue" stroke="midnightblue" points="199.32,-29.79 202.69,-19.75 193.79,-25.5 199.32,-29.79"/>
</g>
</g>
</svg>
