<?xml version="1.0" encoding="UTF-8" standalone="no"?>
<!DOCTYPE svg PUBLIC "-//W3C//DTD SVG 1.1//EN"
 "http://www.w3.org/Graphics/SVG/1.1/DTD/svg11.dtd">
<!-- Generated by graphviz version 2.43.0 (0)
 -->
<!-- Title: zero_mate::utils::math::Is_Bit_Set Pages: 1 -->
<svg width="496pt" height="389pt"
 viewBox="0.00 0.00 496.00 388.50" xmlns="http://www.w3.org/2000/svg" xmlns:xlink="http://www.w3.org/1999/xlink">
<g id="graph0" class="graph" transform="scale(1 1) rotate(0) translate(4 384.5)">
<title>zero_mate::utils::math::Is_Bit_Set</title>
<!-- Node1 -->
<g id="node1" class="node">
<title>Node1</title>
<g id="a_node1"><a xlink:title="Tests whether a bit is set in the given integral variable.">
<polygon fill="#bfbfbf" stroke="black" points="361,-186 361,-216 488,-216 488,-186 361,-186"/>
<text text-anchor="start" x="369" y="-204" font-family="Helvetica,sans-Serif" font-size="10.00">zero_mate::utils::math</text>
<text text-anchor="middle" x="424.5" y="-193" font-family="Helvetica,sans-Serif" font-size="10.00">::Is_Bit_Set</text>
</a>
</g>
</g>
<!-- Node2 -->
<g id="node2" class="node">
<title>Node2</title>
<g id="a_node2"><a xlink:href="classzero__mate_1_1peripheral_1_1CGPIO__Manager.html#a4a4e9cf470ed6f7dbfb3ada75d35e47c" target="_top" xlink:title=" ">
<polygon fill="none" stroke="black" points="170,-350 170,-380 325,-380 325,-350 170,-350"/>
<text text-anchor="start" x="178" y="-368" font-family="Helvetica,sans-Serif" font-size="10.00">zero_mate::peripheral</text>
<text text-anchor="middle" x="247.5" y="-357" font-family="Helvetica,sans-Serif" font-size="10.00">::CGPIO_Manager::Clear_IRQ</text>
</a>
</g>
</g>
<!-- Node1&#45;&gt;Node2 -->
<g id="edge1" class="edge">
<title>Node1&#45;&gt;Node2</title>
<path fill="none" stroke="midnightblue" d="M412.55,-225.42C397.31,-256.69 366.79,-310.47 325,-341 320.28,-344.45 315.05,-347.41 309.6,-349.95"/>
<polygon fill="midnightblue" stroke="midnightblue" points="415.84,-226.65 416.96,-216.12 409.51,-223.66 415.84,-226.65"/>
</g>
<!-- Node4 -->
<g id="node4" class="node">
<title>Node4</title>
<g id="a_node4"><a xlink:href="classzero__mate_1_1arm1176jzf__s_1_1CCPU__Core.html#af576acdfa9a998bc49f2203c5be2ab8c" target="_top" xlink:title="Executes a CLZ instruction.">
<polygon fill="none" stroke="black" points="181.5,-301 181.5,-331 313.5,-331 313.5,-301 181.5,-301"/>
<text text-anchor="start" x="189.5" y="-319" font-family="Helvetica,sans-Serif" font-size="10.00">zero_mate::arm1176jzf</text>
<text text-anchor="middle" x="247.5" y="-308" font-family="Helvetica,sans-Serif" font-size="10.00">_s::CCPU_Core::Execute</text>
</a>
</g>
</g>
<!-- Node1&#45;&gt;Node4 -->
<g id="edge3" class="edge">
<title>Node1&#45;&gt;Node4</title>
<path fill="none" stroke="midnightblue" d="M403.9,-223.72C385.39,-243.92 355.91,-272.97 325,-291 318.48,-294.8 311.31,-298.11 304.05,-300.97"/>
<polygon fill="midnightblue" stroke="midnightblue" points="406.59,-225.97 410.67,-216.19 401.38,-221.29 406.59,-225.97"/>
</g>
<!-- Node5 -->
<g id="node5" class="node">
<title>Node5</title>
<g id="a_node5"><a xlink:href="classzero__mate_1_1arm1176jzf__s_1_1isa_1_1CBranch.html#a802cd5fadc7952225e152142ab047b0f" target="_top" xlink:title="Returns the offset of the branch instruction.">
<polygon fill="none" stroke="black" points="182.5,-240.5 182.5,-281.5 312.5,-281.5 312.5,-240.5 182.5,-240.5"/>
<text text-anchor="start" x="190.5" y="-269.5" font-family="Helvetica,sans-Serif" font-size="10.00">zero_mate::arm1176jzf</text>
<text text-anchor="start" x="190.5" y="-258.5" font-family="Helvetica,sans-Serif" font-size="10.00">_s::isa::CBranch::Get</text>
<text text-anchor="middle" x="247.5" y="-247.5" font-family="Helvetica,sans-Serif" font-size="10.00">_Offset</text>
</a>
</g>
</g>
<!-- Node1&#45;&gt;Node5 -->
<g id="edge4" class="edge">
<title>Node1&#45;&gt;Node5</title>
<path fill="none" stroke="midnightblue" d="M369.76,-219.42C350.38,-226.07 328.39,-233.61 308.51,-240.42"/>
<polygon fill="midnightblue" stroke="midnightblue" points="371.02,-222.69 379.34,-216.14 368.75,-216.07 371.02,-222.69"/>
</g>
<!-- Node6 -->
<g id="node6" class="node">
<title>Node6</title>
<g id="a_node6"><a xlink:href="classzero__mate_1_1peripheral_1_1CGPIO__Manager.html#ad29d57528b73baef90b0ca885a297e4d" target="_top" xlink:title=" ">
<polygon fill="none" stroke="black" points="185.5,-180.5 185.5,-221.5 309.5,-221.5 309.5,-180.5 185.5,-180.5"/>
<text text-anchor="start" x="193.5" y="-209.5" font-family="Helvetica,sans-Serif" font-size="10.00">zero_mate::peripheral</text>
<text text-anchor="start" x="193.5" y="-198.5" font-family="Helvetica,sans-Serif" font-size="10.00">::CGPIO_Manager::Set</text>
<text text-anchor="middle" x="247.5" y="-187.5" font-family="Helvetica,sans-Serif" font-size="10.00">_Interrupt</text>
</a>
</g>
</g>
<!-- Node1&#45;&gt;Node6 -->
<g id="edge5" class="edge">
<title>Node1&#45;&gt;Node6</title>
<path fill="none" stroke="midnightblue" d="M350.52,-201C336.89,-201 322.79,-201 309.57,-201"/>
<polygon fill="midnightblue" stroke="midnightblue" points="350.82,-204.5 360.82,-201 350.82,-197.5 350.82,-204.5"/>
</g>
<!-- Node7 -->
<g id="node7" class="node">
<title>Node7</title>
<g id="a_node7"><a xlink:href="classzero__mate_1_1peripheral_1_1CInterrupt__Controller.html#a6f074a301f17ac293e1cd4555067461f" target="_top" xlink:title=" ">
<polygon fill="none" stroke="black" points="170,-60.5 170,-101.5 325,-101.5 325,-60.5 170,-60.5"/>
<text text-anchor="start" x="178" y="-89.5" font-family="Helvetica,sans-Serif" font-size="10.00">zero_mate::peripheral</text>
<text text-anchor="start" x="178" y="-78.5" font-family="Helvetica,sans-Serif" font-size="10.00">::CInterrupt_Controller</text>
<text text-anchor="middle" x="247.5" y="-67.5" font-family="Helvetica,sans-Serif" font-size="10.00">::Update_IRQ_Basic_Sources</text>
</a>
</g>
</g>
<!-- Node1&#45;&gt;Node7 -->
<g id="edge7" class="edge">
<title>Node1&#45;&gt;Node7</title>
<path fill="none" stroke="midnightblue" d="M403.33,-178.35C384.62,-158.45 355.2,-129.81 325,-111 319.55,-107.61 313.65,-104.48 307.63,-101.63"/>
<polygon fill="midnightblue" stroke="midnightblue" points="400.83,-180.8 410.19,-185.77 405.97,-176.05 400.83,-180.8"/>
</g>
<!-- Node9 -->
<g id="node9" class="node">
<title>Node9</title>
<g id="a_node9"><a xlink:href="classzero__mate_1_1peripheral_1_1CInterrupt__Controller.html#ae94d5f5a394ae360ab5e57ee4caa97f5" target="_top" xlink:title=" ">
<polygon fill="none" stroke="black" points="185,-0.5 185,-41.5 310,-41.5 310,-0.5 185,-0.5"/>
<text text-anchor="start" x="193" y="-29.5" font-family="Helvetica,sans-Serif" font-size="10.00">zero_mate::peripheral</text>
<text text-anchor="start" x="193" y="-18.5" font-family="Helvetica,sans-Serif" font-size="10.00">::CInterrupt_Controller</text>
<text text-anchor="middle" x="247.5" y="-7.5" font-family="Helvetica,sans-Serif" font-size="10.00">::Update_IRQ_Sources</text>
</a>
</g>
</g>
<!-- Node1&#45;&gt;Node9 -->
<g id="edge9" class="edge">
<title>Node1&#45;&gt;Node9</title>
<path fill="none" stroke="midnightblue" d="M413.08,-176.23C398.1,-143.37 367.53,-85.52 325,-51 320.46,-47.31 315.41,-44.04 310.13,-41.14"/>
<polygon fill="midnightblue" stroke="midnightblue" points="409.97,-177.85 417.22,-185.57 416.37,-175.01 409.97,-177.85"/>
</g>
<!-- Node10 -->
<g id="node10" class="node">
<title>Node10</title>
<g id="a_node10"><a xlink:href="classzero__mate_1_1peripheral_1_1CGPIO__Manager.html#ae93785da50eefb8a8cc21c1c59a32726" target="_top" xlink:title=" ">
<polygon fill="none" stroke="black" points="176,-120.5 176,-161.5 319,-161.5 319,-120.5 176,-120.5"/>
<text text-anchor="start" x="184" y="-149.5" font-family="Helvetica,sans-Serif" font-size="10.00">zero_mate::peripheral</text>
<text text-anchor="start" x="184" y="-138.5" font-family="Helvetica,sans-Serif" font-size="10.00">::CGPIO_Manager::Update</text>
<text text-anchor="middle" x="247.5" y="-127.5" font-family="Helvetica,sans-Serif" font-size="10.00">_Pin_State</text>
</a>
</g>
</g>
<!-- Node1&#45;&gt;Node10 -->
<g id="edge11" class="edge">
<title>Node1&#45;&gt;Node10</title>
<path fill="none" stroke="midnightblue" d="M369.76,-182.58C350.38,-175.93 328.39,-168.39 308.51,-161.58"/>
<polygon fill="midnightblue" stroke="midnightblue" points="368.75,-185.93 379.34,-185.86 371.02,-179.31 368.75,-185.93"/>
</g>
<!-- Node3 -->
<g id="node3" class="node">
<title>Node3</title>
<g id="a_node3"><a xlink:href="classzero__mate_1_1peripheral_1_1CGPIO__Manager.html#a26aa957dbb7682447e4ebf9aa078c00c" target="_top" xlink:title=" ">
<polygon fill="none" stroke="black" points="0,-186 0,-216 134,-216 134,-186 0,-186"/>
<text text-anchor="start" x="8" y="-204" font-family="Helvetica,sans-Serif" font-size="10.00">zero_mate::peripheral</text>
<text text-anchor="middle" x="67" y="-193" font-family="Helvetica,sans-Serif" font-size="10.00">::CGPIO_Manager::Write</text>
</a>
</g>
</g>
<!-- Node2&#45;&gt;Node3 -->
<g id="edge2" class="edge">
<title>Node2&#45;&gt;Node3</title>
<path fill="none" stroke="midnightblue" d="M176.5,-345.21C174.25,-343.89 172.08,-342.49 170,-341 122.85,-307.16 88.82,-244.77 74.93,-216.11"/>
<polygon fill="midnightblue" stroke="midnightblue" points="174.97,-348.36 185.46,-349.87 178.2,-342.15 174.97,-348.36"/>
</g>
<!-- Node6&#45;&gt;Node3 -->
<g id="edge6" class="edge">
<title>Node6&#45;&gt;Node3</title>
<path fill="none" stroke="midnightblue" d="M174.9,-201C161.43,-201 147.41,-201 134.12,-201"/>
<polygon fill="midnightblue" stroke="midnightblue" points="175.07,-204.5 185.07,-201 175.07,-197.5 175.07,-204.5"/>
</g>
<!-- Node8 -->
<g id="node8" class="node">
<title>Node8</title>
<g id="a_node8"><a xlink:href="classzero__mate_1_1peripheral_1_1CInterrupt__Controller.html#ab37428109c8e5f862b528417048903f3" target="_top" xlink:title=" ">
<polygon fill="none" stroke="black" points="4.5,-30.5 4.5,-71.5 129.5,-71.5 129.5,-30.5 4.5,-30.5"/>
<text text-anchor="start" x="12.5" y="-59.5" font-family="Helvetica,sans-Serif" font-size="10.00">zero_mate::peripheral</text>
<text text-anchor="start" x="12.5" y="-48.5" font-family="Helvetica,sans-Serif" font-size="10.00">::CInterrupt_Controller</text>
<text text-anchor="middle" x="67" y="-37.5" font-family="Helvetica,sans-Serif" font-size="10.00">::Write</text>
</a>
</g>
</g>
<!-- Node7&#45;&gt;Node8 -->
<g id="edge8" class="edge">
<title>Node7&#45;&gt;Node8</title>
<path fill="none" stroke="midnightblue" d="M159.65,-66.4C149.5,-64.7 139.31,-62.98 129.6,-61.35"/>
<polygon fill="midnightblue" stroke="midnightblue" points="159.32,-69.9 169.76,-68.1 160.48,-62.99 159.32,-69.9"/>
</g>
<!-- Node9&#45;&gt;Node8 -->
<g id="edge10" class="edge">
<title>Node9&#45;&gt;Node8</title>
<path fill="none" stroke="midnightblue" d="M174.64,-33.08C159.74,-35.58 144.17,-38.2 129.68,-40.63"/>
<polygon fill="midnightblue" stroke="midnightblue" points="175.54,-36.48 184.82,-31.37 174.38,-29.57 175.54,-36.48"/>
</g>
<!-- Node10&#45;&gt;Node3 -->
<g id="edge12" class="edge">
<title>Node10&#45;&gt;Node3</title>
<path fill="none" stroke="midnightblue" d="M175.45,-164.88C154.25,-172.01 131.63,-179.61 112.63,-186"/>
<polygon fill="midnightblue" stroke="midnightblue" points="176.71,-168.15 185.07,-161.65 174.48,-161.52 176.71,-168.15"/>
</g>
</g>
</svg>
