<?xml version="1.0" encoding="UTF-8" standalone="no"?>
<!DOCTYPE svg PUBLIC "-//W3C//DTD SVG 1.1//EN"
 "http://www.w3.org/Graphics/SVG/1.1/DTD/svg11.dtd">
<!-- Generated by graphviz version 2.43.0 (0)
 -->
<!-- Title: zero_mate::utils::math::Is_Bit_Set Pages: 1 -->
<svg width="496pt" height="389pt"
 viewBox="0.00 0.00 496.00 389.00" xmlns="http://www.w3.org/2000/svg" xmlns:xlink="http://www.w3.org/1999/xlink">
<g id="graph0" class="graph" transform="scale(1 1) rotate(0) translate(4 385)">
<title>zero_mate::utils::math::Is_Bit_Set</title>
<!-- Node1 -->
<g id="node1" class="node">
<title>Node1</title>
<g id="a_node1"><a xlink:title="Tests whether a bit is set in the given integral variable.">
<polygon fill="#bfbfbf" stroke="black" points="361,-181 361,-211 488,-211 488,-181 361,-181"/>
<text text-anchor="start" x="369" y="-199" font-family="Helvetica,sans-Serif" font-size="10.00">zero_mate::utils::math</text>
<text text-anchor="middle" x="424.5" y="-188" font-family="Helvetica,sans-Serif" font-size="10.00">::Is_Bit_Set</text>
</a>
</g>
</g>
<!-- Node2 -->
<g id="node2" class="node">
<title>Node2</title>
<g id="a_node2"><a xlink:href="classzero__mate_1_1peripheral_1_1CGPIO__Manager.html#a4a4e9cf470ed6f7dbfb3ada75d35e47c" target="_top" xlink:title=" ">
<polygon fill="none" stroke="black" points="170,-230 170,-260 325,-260 325,-230 170,-230"/>
<text text-anchor="start" x="178" y="-248" font-family="Helvetica,sans-Serif" font-size="10.00">zero_mate::peripheral</text>
<text text-anchor="middle" x="247.5" y="-237" font-family="Helvetica,sans-Serif" font-size="10.00">::CGPIO_Manager::Clear_IRQ</text>
</a>
</g>
</g>
<!-- Node1&#45;&gt;Node2 -->
<g id="edge1" class="edge">
<title>Node1&#45;&gt;Node2</title>
<path fill="none" stroke="midnightblue" d="M359.85,-213.82C340.96,-219.11 320.46,-224.85 302.26,-229.95"/>
<polygon fill="midnightblue" stroke="midnightblue" points="360.88,-217.17 369.57,-211.1 358.99,-210.43 360.88,-217.17"/>
</g>
<!-- Node4 -->
<g id="node4" class="node">
<title>Node4</title>
<g id="a_node4"><a xlink:href="classzero__mate_1_1peripheral_1_1CInterrupt__Controller.html#aa731c1d6e73a4db1087a803ca5fe5557" target="_top" xlink:title="Enables/disables interrupts from a basic IRQ source.">
<polygon fill="none" stroke="black" points="171,-339.5 171,-380.5 324,-380.5 324,-339.5 171,-339.5"/>
<text text-anchor="start" x="179" y="-368.5" font-family="Helvetica,sans-Serif" font-size="10.00">zero_mate::peripheral</text>
<text text-anchor="start" x="179" y="-357.5" font-family="Helvetica,sans-Serif" font-size="10.00">::CInterrupt_Controller</text>
<text text-anchor="middle" x="247.5" y="-346.5" font-family="Helvetica,sans-Serif" font-size="10.00">::Enable_IRQ_Basic_Sources</text>
</a>
</g>
</g>
<!-- Node1&#45;&gt;Node4 -->
<g id="edge3" class="edge">
<title>Node1&#45;&gt;Node4</title>
<path fill="none" stroke="midnightblue" d="M411.25,-220.24C395.16,-249.88 364.28,-299.81 325,-330 320.48,-333.48 315.5,-336.6 310.32,-339.4"/>
<polygon fill="midnightblue" stroke="midnightblue" points="414.54,-221.5 416.13,-211.03 408.36,-218.23 414.54,-221.5"/>
</g>
<!-- Node6 -->
<g id="node6" class="node">
<title>Node6</title>
<g id="a_node6"><a xlink:href="classzero__mate_1_1peripheral_1_1CInterrupt__Controller.html#ac3c9423e443ca2389cef743f32713cca" target="_top" xlink:title="Enables/disables interrupts from an IRQ source.">
<polygon fill="none" stroke="black" points="185,-279.5 185,-320.5 310,-320.5 310,-279.5 185,-279.5"/>
<text text-anchor="start" x="193" y="-308.5" font-family="Helvetica,sans-Serif" font-size="10.00">zero_mate::peripheral</text>
<text text-anchor="start" x="193" y="-297.5" font-family="Helvetica,sans-Serif" font-size="10.00">::CInterrupt_Controller</text>
<text text-anchor="middle" x="247.5" y="-286.5" font-family="Helvetica,sans-Serif" font-size="10.00">::Enable_IRQ_Sources</text>
</a>
</g>
</g>
<!-- Node1&#45;&gt;Node6 -->
<g id="edge5" class="edge">
<title>Node1&#45;&gt;Node6</title>
<path fill="none" stroke="midnightblue" d="M397.97,-217.74C378.78,-233.37 351.36,-254.21 325,-269 318.38,-272.72 311.22,-276.22 304.03,-279.45"/>
<polygon fill="midnightblue" stroke="midnightblue" points="400.44,-220.24 405.93,-211.18 395.98,-214.84 400.44,-220.24"/>
</g>
<!-- Node7 -->
<g id="node7" class="node">
<title>Node7</title>
<g id="a_node7"><a xlink:href="classzero__mate_1_1arm1176jzf__s_1_1CCPU__Core.html#af576acdfa9a998bc49f2203c5be2ab8c" target="_top" xlink:title="Executes a CLZ instruction.">
<polygon fill="none" stroke="black" points="181.5,-181 181.5,-211 313.5,-211 313.5,-181 181.5,-181"/>
<text text-anchor="start" x="189.5" y="-199" font-family="Helvetica,sans-Serif" font-size="10.00">zero_mate::arm1176jzf</text>
<text text-anchor="middle" x="247.5" y="-188" font-family="Helvetica,sans-Serif" font-size="10.00">_s::CCPU_Core::Execute</text>
</a>
</g>
</g>
<!-- Node1&#45;&gt;Node7 -->
<g id="edge7" class="edge">
<title>Node1&#45;&gt;Node7</title>
<path fill="none" stroke="midnightblue" d="M350.64,-196C338.39,-196 325.74,-196 313.7,-196"/>
<polygon fill="midnightblue" stroke="midnightblue" points="350.82,-199.5 360.82,-196 350.82,-192.5 350.82,-199.5"/>
</g>
<!-- Node8 -->
<g id="node8" class="node">
<title>Node8</title>
<g id="a_node8"><a xlink:href="classzero__mate_1_1arm1176jzf__s_1_1isa_1_1CBranch.html#a802cd5fadc7952225e152142ab047b0f" target="_top" xlink:title="Returns the offset of the branch instruction.">
<polygon fill="none" stroke="black" points="182.5,-120.5 182.5,-161.5 312.5,-161.5 312.5,-120.5 182.5,-120.5"/>
<text text-anchor="start" x="190.5" y="-149.5" font-family="Helvetica,sans-Serif" font-size="10.00">zero_mate::arm1176jzf</text>
<text text-anchor="start" x="190.5" y="-138.5" font-family="Helvetica,sans-Serif" font-size="10.00">_s::isa::CBranch::Get</text>
<text text-anchor="middle" x="247.5" y="-127.5" font-family="Helvetica,sans-Serif" font-size="10.00">_Offset</text>
</a>
</g>
</g>
<!-- Node1&#45;&gt;Node8 -->
<g id="edge8" class="edge">
<title>Node1&#45;&gt;Node8</title>
<path fill="none" stroke="midnightblue" d="M365.87,-177.89C348.84,-172.54 330.09,-166.64 312.67,-161.17"/>
<polygon fill="midnightblue" stroke="midnightblue" points="365.09,-181.31 375.68,-180.97 367.19,-174.63 365.09,-181.31"/>
</g>
<!-- Node9 -->
<g id="node9" class="node">
<title>Node9</title>
<g id="a_node9"><a xlink:href="classzero__mate_1_1peripheral_1_1CGPIO__Manager.html#ad29d57528b73baef90b0ca885a297e4d" target="_top" xlink:title=" ">
<polygon fill="none" stroke="black" points="185.5,-60.5 185.5,-101.5 309.5,-101.5 309.5,-60.5 185.5,-60.5"/>
<text text-anchor="start" x="193.5" y="-89.5" font-family="Helvetica,sans-Serif" font-size="10.00">zero_mate::peripheral</text>
<text text-anchor="start" x="193.5" y="-78.5" font-family="Helvetica,sans-Serif" font-size="10.00">::CGPIO_Manager::Set</text>
<text text-anchor="middle" x="247.5" y="-67.5" font-family="Helvetica,sans-Serif" font-size="10.00">_Interrupt</text>
</a>
</g>
</g>
<!-- Node1&#45;&gt;Node9 -->
<g id="edge9" class="edge">
<title>Node1&#45;&gt;Node9</title>
<path fill="none" stroke="midnightblue" d="M401.6,-173.21C382.7,-154.55 353.94,-128.46 325,-111 319.38,-107.61 313.31,-104.47 307.13,-101.6"/>
<polygon fill="midnightblue" stroke="midnightblue" points="399.53,-176.1 409.07,-180.71 404.49,-171.15 399.53,-176.1"/>
</g>
<!-- Node10 -->
<g id="node10" class="node">
<title>Node10</title>
<g id="a_node10"><a xlink:href="classzero__mate_1_1peripheral_1_1CGPIO__Manager.html#ae93785da50eefb8a8cc21c1c59a32726" target="_top" xlink:title=" ">
<polygon fill="none" stroke="black" points="176,-0.5 176,-41.5 319,-41.5 319,-0.5 176,-0.5"/>
<text text-anchor="start" x="184" y="-29.5" font-family="Helvetica,sans-Serif" font-size="10.00">zero_mate::peripheral</text>
<text text-anchor="start" x="184" y="-18.5" font-family="Helvetica,sans-Serif" font-size="10.00">::CGPIO_Manager::Update</text>
<text text-anchor="middle" x="247.5" y="-7.5" font-family="Helvetica,sans-Serif" font-size="10.00">_Pin_State</text>
</a>
</g>
</g>
<!-- Node1&#45;&gt;Node10 -->
<g id="edge11" class="edge">
<title>Node1&#45;&gt;Node10</title>
<path fill="none" stroke="midnightblue" d="M412.63,-171.57C397.33,-139.73 366.59,-84.22 325,-51 320.65,-47.53 315.85,-44.42 310.84,-41.64"/>
<polygon fill="midnightblue" stroke="midnightblue" points="409.47,-173.07 416.88,-180.64 415.81,-170.1 409.47,-173.07"/>
</g>
<!-- Node3 -->
<g id="node3" class="node">
<title>Node3</title>
<g id="a_node3"><a xlink:href="classzero__mate_1_1peripheral_1_1CGPIO__Manager.html#a26aa957dbb7682447e4ebf9aa078c00c" target="_top" xlink:title="Writes data to the peripheral.">
<polygon fill="none" stroke="black" points="0,-66 0,-96 134,-96 134,-66 0,-66"/>
<text text-anchor="start" x="8" y="-84" font-family="Helvetica,sans-Serif" font-size="10.00">zero_mate::peripheral</text>
<text text-anchor="middle" x="67" y="-73" font-family="Helvetica,sans-Serif" font-size="10.00">::CGPIO_Manager::Write</text>
</a>
</g>
</g>
<!-- Node2&#45;&gt;Node3 -->
<g id="edge2" class="edge">
<title>Node2&#45;&gt;Node3</title>
<path fill="none" stroke="midnightblue" d="M178.4,-225.36C175.48,-223.71 172.66,-221.93 170,-220 123.45,-186.29 89.35,-124.96 75.21,-96.4"/>
<polygon fill="midnightblue" stroke="midnightblue" points="176.92,-228.53 187.42,-229.92 180.08,-222.29 176.92,-228.53"/>
</g>
<!-- Node5 -->
<g id="node5" class="node">
<title>Node5</title>
<g id="a_node5"><a xlink:href="classzero__mate_1_1peripheral_1_1CInterrupt__Controller.html#ab37428109c8e5f862b528417048903f3" target="_top" xlink:title="Writes data to the peripheral (IPeripheral interface).">
<polygon fill="none" stroke="black" points="4.5,-309.5 4.5,-350.5 129.5,-350.5 129.5,-309.5 4.5,-309.5"/>
<text text-anchor="start" x="12.5" y="-338.5" font-family="Helvetica,sans-Serif" font-size="10.00">zero_mate::peripheral</text>
<text text-anchor="start" x="12.5" y="-327.5" font-family="Helvetica,sans-Serif" font-size="10.00">::CInterrupt_Controller</text>
<text text-anchor="middle" x="67" y="-316.5" font-family="Helvetica,sans-Serif" font-size="10.00">::Write</text>
</a>
</g>
</g>
<!-- Node4&#45;&gt;Node5 -->
<g id="edge4" class="edge">
<title>Node4&#45;&gt;Node5</title>
<path fill="none" stroke="midnightblue" d="M160.8,-345.6C150.33,-343.84 139.8,-342.07 129.77,-340.38"/>
<polygon fill="midnightblue" stroke="midnightblue" points="160.36,-349.07 170.8,-347.28 161.52,-342.17 160.36,-349.07"/>
</g>
<!-- Node6&#45;&gt;Node5 -->
<g id="edge6" class="edge">
<title>Node6&#45;&gt;Node5</title>
<path fill="none" stroke="midnightblue" d="M174.64,-312.08C159.74,-314.58 144.17,-317.2 129.68,-319.63"/>
<polygon fill="midnightblue" stroke="midnightblue" points="175.54,-315.48 184.82,-310.37 174.38,-308.57 175.54,-315.48"/>
</g>
<!-- Node9&#45;&gt;Node3 -->
<g id="edge10" class="edge">
<title>Node9&#45;&gt;Node3</title>
<path fill="none" stroke="midnightblue" d="M174.9,-81C161.43,-81 147.41,-81 134.12,-81"/>
<polygon fill="midnightblue" stroke="midnightblue" points="175.07,-84.5 185.07,-81 175.07,-77.5 175.07,-84.5"/>
</g>
<!-- Node10&#45;&gt;Node3 -->
<g id="edge12" class="edge">
<title>Node10&#45;&gt;Node3</title>
<path fill="none" stroke="midnightblue" d="M175.45,-44.88C154.25,-52.01 131.63,-59.61 112.63,-66"/>
<polygon fill="midnightblue" stroke="midnightblue" points="176.71,-48.15 185.07,-41.65 174.48,-41.52 176.71,-48.15"/>
</g>
</g>
</svg>
