<?xml version="1.0" encoding="UTF-8" standalone="no"?>
<!DOCTYPE svg PUBLIC "-//W3C//DTD SVG 1.1//EN"
 "http://www.w3.org/Graphics/SVG/1.1/DTD/svg11.dtd">
<!-- Generated by graphviz version 2.43.0 (0)
 -->
<!-- Title: src/core/arm1176jzf_s/mmu/page_entry.hpp Pages: 1 -->
<svg width="919pt" height="374pt"
 viewBox="0.00 0.00 918.50 374.00" xmlns="http://www.w3.org/2000/svg" xmlns:xlink="http://www.w3.org/1999/xlink">
<g id="graph0" class="graph" transform="scale(1 1) rotate(0) translate(4 370)">
<title>src/core/arm1176jzf_s/mmu/page_entry.hpp</title>
<!-- Node1 -->
<g id="node1" class="node">
<title>Node1</title>
<g id="a_node1"><a xlink:title="This file defines a page table entry.">
<polygon fill="#bfbfbf" stroke="black" points="344,-335.5 344,-365.5 477,-365.5 477,-335.5 344,-335.5"/>
<text text-anchor="start" x="352" y="-353.5" font-family="Helvetica,sans-Serif" font-size="10.00">src/core/arm1176jzf</text>
<text text-anchor="middle" x="410.5" y="-342.5" font-family="Helvetica,sans-Serif" font-size="10.00">_s/mmu/page_entry.hpp</text>
</a>
</g>
</g>
<!-- Node2 -->
<g id="node2" class="node">
<title>Node2</title>
<g id="a_node2"><a xlink:href="page__entry_8cpp.html" target="_top" xlink:title="This file implements a page table entry.">
<polygon fill="none" stroke="black" points="269.5,-268.5 269.5,-298.5 401.5,-298.5 401.5,-268.5 269.5,-268.5"/>
<text text-anchor="start" x="277.5" y="-286.5" font-family="Helvetica,sans-Serif" font-size="10.00">src/core/arm1176jzf</text>
<text text-anchor="middle" x="335.5" y="-275.5" font-family="Helvetica,sans-Serif" font-size="10.00">_s/mmu/page_entry.cpp</text>
</a>
</g>
</g>
<!-- Node1&#45;&gt;Node2 -->
<g id="edge1" class="edge">
<title>Node1&#45;&gt;Node2</title>
<path fill="none" stroke="midnightblue" d="M386.38,-328.6C375.06,-318.78 361.86,-307.34 351.74,-298.58"/>
<polygon fill="midnightblue" stroke="midnightblue" points="384.38,-331.49 394.23,-335.4 388.96,-326.2 384.38,-331.49"/>
</g>
<!-- Node3 -->
<g id="node3" class="node">
<title>Node3</title>
<g id="a_node3"><a xlink:href="page__table_8hpp.html" target="_top" xlink:title="This file defines a page table.">
<polygon fill="none" stroke="black" points="419.5,-268.5 419.5,-298.5 553.5,-298.5 553.5,-268.5 419.5,-268.5"/>
<text text-anchor="start" x="427.5" y="-286.5" font-family="Helvetica,sans-Serif" font-size="10.00">src/core/arm1176jzf</text>
<text text-anchor="middle" x="486.5" y="-275.5" font-family="Helvetica,sans-Serif" font-size="10.00">_s/mmu/page_table.hpp</text>
</a>
</g>
</g>
<!-- Node1&#45;&gt;Node3 -->
<g id="edge2" class="edge">
<title>Node1&#45;&gt;Node3</title>
<path fill="none" stroke="midnightblue" d="M434.61,-328.88C446.16,-319.01 459.69,-307.43 470.04,-298.58"/>
<polygon fill="midnightblue" stroke="midnightblue" points="432.32,-326.24 426.99,-335.4 436.87,-331.56 432.32,-326.24"/>
</g>
<!-- Node4 -->
<g id="node4" class="node">
<title>Node4</title>
<g id="a_node4"><a xlink:href="mmu_8hpp.html" target="_top" xlink:title="This file defines the MMU (memory management unit) of the CPU.">
<polygon fill="none" stroke="black" points="359,-201.5 359,-231.5 472,-231.5 472,-201.5 359,-201.5"/>
<text text-anchor="start" x="367" y="-219.5" font-family="Helvetica,sans-Serif" font-size="10.00">src/core/arm1176jzf</text>
<text text-anchor="middle" x="415.5" y="-208.5" font-family="Helvetica,sans-Serif" font-size="10.00">_s/mmu/mmu.hpp</text>
</a>
</g>
</g>
<!-- Node3&#45;&gt;Node4 -->
<g id="edge3" class="edge">
<title>Node3&#45;&gt;Node4</title>
<path fill="none" stroke="midnightblue" d="M463.67,-261.6C452.95,-251.78 440.45,-240.34 430.88,-231.58"/>
<polygon fill="midnightblue" stroke="midnightblue" points="461.35,-264.22 471.09,-268.4 466.08,-259.06 461.35,-264.22"/>
</g>
<!-- Node20 -->
<g id="node20" class="node">
<title>Node20</title>
<g id="a_node20"><a xlink:href="page__table_8cpp.html" target="_top" xlink:title="This file implements a page table.">
<polygon fill="none" stroke="black" points="490,-201.5 490,-231.5 623,-231.5 623,-201.5 490,-201.5"/>
<text text-anchor="start" x="498" y="-219.5" font-family="Helvetica,sans-Serif" font-size="10.00">src/core/arm1176jzf</text>
<text text-anchor="middle" x="556.5" y="-208.5" font-family="Helvetica,sans-Serif" font-size="10.00">_s/mmu/page_table.cpp</text>
</a>
</g>
</g>
<!-- Node3&#45;&gt;Node20 -->
<g id="edge24" class="edge">
<title>Node3&#45;&gt;Node20</title>
<path fill="none" stroke="midnightblue" d="M509.32,-261.31C519.82,-251.56 531.99,-240.26 541.34,-231.58"/>
<polygon fill="midnightblue" stroke="midnightblue" points="506.64,-259.03 501.69,-268.4 511.4,-264.16 506.64,-259.03"/>
</g>
<!-- Node5 -->
<g id="node5" class="node">
<title>Node5</title>
<g id="a_node5"><a xlink:href="core_8hpp.html" target="_top" xlink:title="This file defines a class that represents a CPU core (arm1176jzf_s).">
<polygon fill="none" stroke="black" points="359,-134.5 359,-164.5 472,-164.5 472,-134.5 359,-134.5"/>
<text text-anchor="start" x="367" y="-152.5" font-family="Helvetica,sans-Serif" font-size="10.00">src/core/arm1176jzf</text>
<text text-anchor="middle" x="415.5" y="-141.5" font-family="Helvetica,sans-Serif" font-size="10.00">_s/core.hpp</text>
</a>
</g>
</g>
<!-- Node4&#45;&gt;Node5 -->
<g id="edge4" class="edge">
<title>Node4&#45;&gt;Node5</title>
<path fill="none" stroke="midnightblue" d="M415.5,-191.11C415.5,-182.15 415.5,-172.32 415.5,-164.58"/>
<polygon fill="midnightblue" stroke="midnightblue" points="412,-191.4 415.5,-201.4 419,-191.4 412,-191.4"/>
</g>
<!-- Node7 -->
<g id="node7" class="node">
<title>Node7</title>
<g id="a_node7"><a xlink:href="soc_8hpp.html" target="_top" xlink:title=" ">
<polygon fill="none" stroke="black" points="97,-73 97,-92 192,-92 192,-73 97,-73"/>
<text text-anchor="middle" x="144.5" y="-80" font-family="Helvetica,sans-Serif" font-size="10.00">src/core/soc.hpp</text>
</a>
</g>
</g>
<!-- Node4&#45;&gt;Node7 -->
<g id="edge23" class="edge">
<title>Node4&#45;&gt;Node7</title>
<path fill="none" stroke="midnightblue" d="M377.71,-197.09C318.37,-168.19 205.64,-113.28 162.19,-92.12"/>
<polygon fill="midnightblue" stroke="midnightblue" points="376.23,-200.27 386.75,-201.5 379.3,-193.97 376.23,-200.27"/>
</g>
<!-- Node19 -->
<g id="node19" class="node">
<title>Node19</title>
<g id="a_node19"><a xlink:href="mmu_8cpp.html" target="_top" xlink:title="This file implements the MMU (memory management unit) of the CPU.">
<polygon fill="none" stroke="black" points="490,-134.5 490,-164.5 603,-164.5 603,-134.5 490,-134.5"/>
<text text-anchor="start" x="498" y="-152.5" font-family="Helvetica,sans-Serif" font-size="10.00">src/core/arm1176jzf</text>
<text text-anchor="middle" x="546.5" y="-141.5" font-family="Helvetica,sans-Serif" font-size="10.00">_s/mmu/mmu.cpp</text>
</a>
</g>
</g>
<!-- Node4&#45;&gt;Node19 -->
<g id="edge22" class="edge">
<title>Node4&#45;&gt;Node19</title>
<path fill="none" stroke="midnightblue" d="M453.08,-196.85C473.79,-186.58 499.09,-174.03 518.13,-164.58"/>
<polygon fill="midnightblue" stroke="midnightblue" points="451.33,-193.82 443.93,-201.4 454.44,-200.09 451.33,-193.82"/>
</g>
<!-- Node6 -->
<g id="node6" class="node">
<title>Node6</title>
<g id="a_node6"><a xlink:href="core_8cpp.html" target="_top" xlink:title="This file implements the CCPU_Core class defined in core.hpp.">
<polygon fill="none" stroke="black" points="490,-67.5 490,-97.5 603,-97.5 603,-67.5 490,-67.5"/>
<text text-anchor="start" x="498" y="-85.5" font-family="Helvetica,sans-Serif" font-size="10.00">src/core/arm1176jzf</text>
<text text-anchor="middle" x="546.5" y="-74.5" font-family="Helvetica,sans-Serif" font-size="10.00">_s/core.cpp</text>
</a>
</g>
</g>
<!-- Node5&#45;&gt;Node6 -->
<g id="edge5" class="edge">
<title>Node5&#45;&gt;Node6</title>
<path fill="none" stroke="midnightblue" d="M453.08,-129.85C473.79,-119.58 499.09,-107.03 518.13,-97.58"/>
<polygon fill="midnightblue" stroke="midnightblue" points="451.33,-126.82 443.93,-134.4 454.44,-133.09 451.33,-126.82"/>
</g>
<!-- Node5&#45;&gt;Node7 -->
<g id="edge6" class="edge">
<title>Node5&#45;&gt;Node7</title>
<path fill="none" stroke="midnightblue" d="M348.77,-133.07C306.52,-123.22 250.75,-110.08 201.5,-98 193.76,-96.1 185.45,-94.02 177.63,-92.03"/>
<polygon fill="midnightblue" stroke="midnightblue" points="348.13,-136.51 358.66,-135.37 349.72,-129.69 348.13,-136.51"/>
</g>
<!-- Node11 -->
<g id="node11" class="node">
<title>Node11</title>
<g id="a_node11"><a xlink:href="control__window_8hpp.html" target="_top" xlink:title="This file defines a window that allows the user to control CPU execution.">
<polygon fill="none" stroke="black" points="621,-67.5 621,-97.5 752,-97.5 752,-67.5 621,-67.5"/>
<text text-anchor="start" x="629" y="-85.5" font-family="Helvetica,sans-Serif" font-size="10.00">src/gui/windows/control</text>
<text text-anchor="middle" x="686.5" y="-74.5" font-family="Helvetica,sans-Serif" font-size="10.00">_window.hpp</text>
</a>
</g>
</g>
<!-- Node5&#45;&gt;Node11 -->
<g id="edge10" class="edge">
<title>Node5&#45;&gt;Node11</title>
<path fill="none" stroke="midnightblue" d="M482.19,-132.5C526.83,-121.8 585.03,-107.84 627.89,-97.56"/>
<polygon fill="midnightblue" stroke="midnightblue" points="481.22,-129.14 472.31,-134.87 482.85,-135.94 481.22,-129.14"/>
</g>
<!-- Node13 -->
<g id="node13" class="node">
<title>Node13</title>
<g id="a_node13"><a xlink:href="registers__window_8hpp.html" target="_top" xlink:title="This file defines a window that displays the contents of all CPU registers.">
<polygon fill="none" stroke="black" points="770.5,-67.5 770.5,-97.5 910.5,-97.5 910.5,-67.5 770.5,-67.5"/>
<text text-anchor="start" x="778.5" y="-85.5" font-family="Helvetica,sans-Serif" font-size="10.00">src/gui/windows/registers</text>
<text text-anchor="middle" x="840.5" y="-74.5" font-family="Helvetica,sans-Serif" font-size="10.00">_window.hpp</text>
</a>
</g>
</g>
<!-- Node5&#45;&gt;Node13 -->
<g id="edge13" class="edge">
<title>Node5&#45;&gt;Node13</title>
<path fill="none" stroke="midnightblue" d="M482.24,-133.97C606.82,-112.75 640.68,-116.84 761.5,-98 764.39,-97.55 767.34,-97.07 770.32,-96.58"/>
<polygon fill="midnightblue" stroke="midnightblue" points="481.58,-130.53 472.32,-135.68 482.77,-137.43 481.58,-130.53"/>
</g>
<!-- Node15 -->
<g id="node15" class="node">
<title>Node15</title>
<g id="a_node15"><a xlink:href="source__code__window_8hpp.html" target="_top" xlink:title="This file defines a window that displays loaded ELF files (disassembled instructions of the source co...">
<polygon fill="none" stroke="black" points="210.5,-67.5 210.5,-97.5 340.5,-97.5 340.5,-67.5 210.5,-67.5"/>
<text text-anchor="start" x="218.5" y="-85.5" font-family="Helvetica,sans-Serif" font-size="10.00">src/gui/windows/source</text>
<text text-anchor="middle" x="275.5" y="-74.5" font-family="Helvetica,sans-Serif" font-size="10.00">_code_window.hpp</text>
</a>
</g>
</g>
<!-- Node5&#45;&gt;Node15 -->
<g id="edge16" class="edge">
<title>Node5&#45;&gt;Node15</title>
<path fill="none" stroke="midnightblue" d="M375.93,-130.13C353.69,-119.8 326.35,-107.11 305.82,-97.58"/>
<polygon fill="midnightblue" stroke="midnightblue" points="374.58,-133.36 385.12,-134.4 377.53,-127.01 374.58,-133.36"/>
</g>
<!-- Node17 -->
<g id="node17" class="node">
<title>Node17</title>
<g id="a_node17"><a xlink:href="top__bar__menu_8hpp.html" target="_top" xlink:title=" ">
<polygon fill="none" stroke="black" points="359,-67.5 359,-97.5 472,-97.5 472,-67.5 359,-67.5"/>
<text text-anchor="start" x="367" y="-85.5" font-family="Helvetica,sans-Serif" font-size="10.00">src/gui/windows/top</text>
<text text-anchor="middle" x="415.5" y="-74.5" font-family="Helvetica,sans-Serif" font-size="10.00">_bar_menu.hpp</text>
</a>
</g>
</g>
<!-- Node5&#45;&gt;Node17 -->
<g id="edge19" class="edge">
<title>Node5&#45;&gt;Node17</title>
<path fill="none" stroke="midnightblue" d="M415.5,-124.11C415.5,-115.15 415.5,-105.32 415.5,-97.58"/>
<polygon fill="midnightblue" stroke="midnightblue" points="412,-124.4 415.5,-134.4 419,-124.4 412,-124.4"/>
</g>
<!-- Node8 -->
<g id="node8" class="node">
<title>Node8</title>
<g id="a_node8"><a xlink:href="soc_8cpp.html" target="_top" xlink:title=" ">
<polygon fill="none" stroke="black" points="97,-6 97,-25 192,-25 192,-6 97,-6"/>
<text text-anchor="middle" x="144.5" y="-13" font-family="Helvetica,sans-Serif" font-size="10.00">src/core/soc.cpp</text>
</a>
</g>
</g>
<!-- Node7&#45;&gt;Node8 -->
<g id="edge7" class="edge">
<title>Node7&#45;&gt;Node8</title>
<path fill="none" stroke="midnightblue" d="M144.5,-62.54C144.5,-50.17 144.5,-34.62 144.5,-25.13"/>
<polygon fill="midnightblue" stroke="midnightblue" points="141,-62.73 144.5,-72.73 148,-62.73 141,-62.73"/>
</g>
<!-- Node9 -->
<g id="node9" class="node">
<title>Node9</title>
<g id="a_node9"><a xlink:href="gui_8cpp.html" target="_top" xlink:title="This file implements the main GUI entry function that takes care of creating and rendering all window...">
<polygon fill="none" stroke="black" points="366,-6 366,-25 453,-25 453,-6 366,-6"/>
<text text-anchor="middle" x="409.5" y="-13" font-family="Helvetica,sans-Serif" font-size="10.00">src/gui/gui.cpp</text>
</a>
</g>
</g>
<!-- Node7&#45;&gt;Node9 -->
<g id="edge8" class="edge">
<title>Node7&#45;&gt;Node9</title>
<path fill="none" stroke="midnightblue" d="M187.9,-70.41C192.49,-69.25 197.09,-68.1 201.5,-67 218.18,-62.85 319.38,-38.33 374.23,-25.04"/>
<polygon fill="midnightblue" stroke="midnightblue" points="186.78,-67.08 177.94,-72.93 188.49,-73.87 186.78,-67.08"/>
</g>
<!-- Node10 -->
<g id="node10" class="node">
<title>Node10</title>
<g id="a_node10"><a xlink:href="main_8cpp.html" target="_top" xlink:title="This file defines and implements the main function of the application.">
<polygon fill="none" stroke="black" points="0,-6 0,-25 79,-25 79,-6 0,-6"/>
<text text-anchor="middle" x="39.5" y="-13" font-family="Helvetica,sans-Serif" font-size="10.00">src/main.cpp</text>
</a>
</g>
</g>
<!-- Node7&#45;&gt;Node10 -->
<g id="edge9" class="edge">
<title>Node7&#45;&gt;Node10</title>
<path fill="none" stroke="midnightblue" d="M121.79,-67.44C101,-54.57 70.88,-35.93 53.44,-25.13"/>
<polygon fill="midnightblue" stroke="midnightblue" points="119.99,-70.45 130.34,-72.73 123.68,-64.49 119.99,-70.45"/>
</g>
<!-- Node11&#45;&gt;Node9 -->
<g id="edge11" class="edge">
<title>Node11&#45;&gt;Node9</title>
<path fill="none" stroke="midnightblue" d="M610.71,-65.31C567.22,-55.79 511.66,-43.26 462.5,-31 455.1,-29.15 447.14,-27.04 439.71,-25.02"/>
<polygon fill="midnightblue" stroke="midnightblue" points="610.13,-68.76 620.64,-67.48 611.62,-61.92 610.13,-68.76"/>
</g>
<!-- Node12 -->
<g id="node12" class="node">
<title>Node12</title>
<g id="a_node12"><a xlink:href="control__window_8cpp.html" target="_top" xlink:title="This file implements a window that allows the user to control CPU execution.">
<polygon fill="none" stroke="black" points="621,-0.5 621,-30.5 752,-30.5 752,-0.5 621,-0.5"/>
<text text-anchor="start" x="629" y="-18.5" font-family="Helvetica,sans-Serif" font-size="10.00">src/gui/windows/control</text>
<text text-anchor="middle" x="686.5" y="-7.5" font-family="Helvetica,sans-Serif" font-size="10.00">_window.cpp</text>
</a>
</g>
</g>
<!-- Node11&#45;&gt;Node12 -->
<g id="edge12" class="edge">
<title>Node11&#45;&gt;Node12</title>
<path fill="none" stroke="midnightblue" d="M686.5,-57.11C686.5,-48.15 686.5,-38.32 686.5,-30.58"/>
<polygon fill="midnightblue" stroke="midnightblue" points="683,-57.4 686.5,-67.4 690,-57.4 683,-57.4"/>
</g>
<!-- Node13&#45;&gt;Node9 -->
<g id="edge14" class="edge">
<title>Node13&#45;&gt;Node9</title>
<path fill="none" stroke="midnightblue" d="M760.17,-66.87C627.39,-47.37 590.65,-56.1 462.5,-31 454.36,-29.4 445.63,-27.22 437.65,-25.03"/>
<polygon fill="midnightblue" stroke="midnightblue" points="759.92,-70.37 770.33,-68.39 760.95,-63.45 759.92,-70.37"/>
</g>
<!-- Node14 -->
<g id="node14" class="node">
<title>Node14</title>
<g id="a_node14"><a xlink:href="registers__window_8cpp.html" target="_top" xlink:title="This file implements a window that displays the contents of all CPU registers.">
<polygon fill="none" stroke="black" points="770.5,-0.5 770.5,-30.5 910.5,-30.5 910.5,-0.5 770.5,-0.5"/>
<text text-anchor="start" x="778.5" y="-18.5" font-family="Helvetica,sans-Serif" font-size="10.00">src/gui/windows/registers</text>
<text text-anchor="middle" x="840.5" y="-7.5" font-family="Helvetica,sans-Serif" font-size="10.00">_window.cpp</text>
</a>
</g>
</g>
<!-- Node13&#45;&gt;Node14 -->
<g id="edge15" class="edge">
<title>Node13&#45;&gt;Node14</title>
<path fill="none" stroke="midnightblue" d="M840.5,-57.11C840.5,-48.15 840.5,-38.32 840.5,-30.58"/>
<polygon fill="midnightblue" stroke="midnightblue" points="837,-57.4 840.5,-67.4 844,-57.4 837,-57.4"/>
</g>
<!-- Node15&#45;&gt;Node9 -->
<g id="edge17" class="edge">
<title>Node15&#45;&gt;Node9</title>
<path fill="none" stroke="midnightblue" d="M313.71,-62.97C339.45,-50.48 372.19,-34.6 391.96,-25.01"/>
<polygon fill="midnightblue" stroke="midnightblue" points="312.05,-59.88 304.58,-67.4 315.1,-66.18 312.05,-59.88"/>
</g>
<!-- Node16 -->
<g id="node16" class="node">
<title>Node16</title>
<g id="a_node16"><a xlink:href="source__code__window_8cpp.html" target="_top" xlink:title="This file implements a window that displays loaded ELF files (disassembled instructions of the source...">
<polygon fill="none" stroke="black" points="210.5,-0.5 210.5,-30.5 340.5,-30.5 340.5,-0.5 210.5,-0.5"/>
<text text-anchor="start" x="218.5" y="-18.5" font-family="Helvetica,sans-Serif" font-size="10.00">src/gui/windows/source</text>
<text text-anchor="middle" x="275.5" y="-7.5" font-family="Helvetica,sans-Serif" font-size="10.00">_code_window.cpp</text>
</a>
</g>
</g>
<!-- Node15&#45;&gt;Node16 -->
<g id="edge18" class="edge">
<title>Node15&#45;&gt;Node16</title>
<path fill="none" stroke="midnightblue" d="M275.5,-57.11C275.5,-48.15 275.5,-38.32 275.5,-30.58"/>
<polygon fill="midnightblue" stroke="midnightblue" points="272,-57.4 275.5,-67.4 279,-57.4 272,-57.4"/>
</g>
<!-- Node17&#45;&gt;Node9 -->
<g id="edge20" class="edge">
<title>Node17&#45;&gt;Node9</title>
<path fill="none" stroke="midnightblue" d="M413.26,-57.25C412.22,-46.02 411.06,-33.38 410.3,-25.19"/>
<polygon fill="midnightblue" stroke="midnightblue" points="409.79,-57.76 414.2,-67.4 416.76,-57.12 409.79,-57.76"/>
</g>
<!-- Node18 -->
<g id="node18" class="node">
<title>Node18</title>
<g id="a_node18"><a xlink:href="top__bar__menu_8cpp.html" target="_top" xlink:title=" ">
<polygon fill="none" stroke="black" points="471,-0.5 471,-30.5 584,-30.5 584,-0.5 471,-0.5"/>
<text text-anchor="start" x="479" y="-18.5" font-family="Helvetica,sans-Serif" font-size="10.00">src/gui/windows/top</text>
<text text-anchor="middle" x="527.5" y="-7.5" font-family="Helvetica,sans-Serif" font-size="10.00">_bar_menu.cpp</text>
</a>
</g>
</g>
<!-- Node17&#45;&gt;Node18 -->
<g id="edge21" class="edge">
<title>Node17&#45;&gt;Node18</title>
<path fill="none" stroke="midnightblue" d="M448.59,-62.3C466.12,-52.12 487.26,-39.85 503.25,-30.58"/>
<polygon fill="midnightblue" stroke="midnightblue" points="446.69,-59.35 439.8,-67.4 450.21,-65.4 446.69,-59.35"/>
</g>
</g>
</svg>
