<?xml version="1.0" encoding="UTF-8" standalone="no"?>
<!DOCTYPE svg PUBLIC "-//W3C//DTD SVG 1.1//EN"
 "http://www.w3.org/Graphics/SVG/1.1/DTD/svg11.dtd">
<!-- Generated by graphviz version 2.43.0 (0)
 -->
<!-- Title: src/core/peripherals/peripheral.hpp Pages: 1 -->
<svg width="2325pt" height="307pt"
 viewBox="0.00 0.00 2325.00 307.00" xmlns="http://www.w3.org/2000/svg" xmlns:xlink="http://www.w3.org/1999/xlink">
<g id="graph0" class="graph" transform="scale(1 1) rotate(0) translate(4 303)">
<title>src/core/peripherals/peripheral.hpp</title>
<!-- Node1 -->
<g id="node1" class="node">
<title>Node1</title>
<g id="a_node1"><a xlink:title=" ">
<polygon fill="#bfbfbf" stroke="black" points="1319.5,-268.5 1319.5,-298.5 1432.5,-298.5 1432.5,-268.5 1319.5,-268.5"/>
<text text-anchor="start" x="1327.5" y="-286.5" font-family="Helvetica,sans-Serif" font-size="10.00">src/core/peripherals</text>
<text text-anchor="middle" x="1376" y="-275.5" font-family="Helvetica,sans-Serif" font-size="10.00">/peripheral.hpp</text>
</a>
</g>
</g>
<!-- Node2 -->
<g id="node2" class="node">
<title>Node2</title>
<g id="a_node2"><a xlink:href="bus_8hpp.html" target="_top" xlink:title="This file defines an interface the CPU uses to access different memory&#45;mapped peripherals.">
<polygon fill="none" stroke="black" points="377,-207 377,-226 473,-226 473,-207 377,-207"/>
<text text-anchor="middle" x="425" y="-214" font-family="Helvetica,sans-Serif" font-size="10.00">src/core/bus.hpp</text>
</a>
</g>
</g>
<!-- Node1&#45;&gt;Node2 -->
<g id="edge1" class="edge">
<title>Node1&#45;&gt;Node2</title>
<path fill="none" stroke="midnightblue" d="M1309.17,-277.93C1127.97,-265.55 630.41,-231.54 473.24,-220.8"/>
<polygon fill="midnightblue" stroke="midnightblue" points="1309.14,-281.44 1319.36,-278.63 1309.62,-274.45 1309.14,-281.44"/>
</g>
<!-- Node19 -->
<g id="node19" class="node">
<title>Node19</title>
<g id="a_node19"><a xlink:href="arm__timer_8hpp.html" target="_top" xlink:title=" ">
<polygon fill="none" stroke="black" points="1001.5,-134.5 1001.5,-164.5 1114.5,-164.5 1114.5,-134.5 1001.5,-134.5"/>
<text text-anchor="start" x="1009.5" y="-152.5" font-family="Helvetica,sans-Serif" font-size="10.00">src/core/peripherals</text>
<text text-anchor="middle" x="1058" y="-141.5" font-family="Helvetica,sans-Serif" font-size="10.00">/arm_timer.hpp</text>
</a>
</g>
</g>
<!-- Node1&#45;&gt;Node19 -->
<g id="edge26" class="edge">
<title>Node1&#45;&gt;Node19</title>
<path fill="none" stroke="midnightblue" d="M1309.56,-271.9C1269.66,-264.04 1218.54,-251.3 1176,-232 1136.55,-214.1 1096.21,-182.88 1074.42,-164.72"/>
<polygon fill="midnightblue" stroke="midnightblue" points="1308.98,-275.35 1319.46,-273.79 1310.29,-268.48 1308.98,-275.35"/>
</g>
<!-- Node23 -->
<g id="node23" class="node">
<title>Node23</title>
<g id="a_node23"><a xlink:href="gpio_8hpp.html" target="_top" xlink:title=" ">
<polygon fill="none" stroke="black" points="1649.5,-134.5 1649.5,-164.5 1762.5,-164.5 1762.5,-134.5 1649.5,-134.5"/>
<text text-anchor="start" x="1657.5" y="-152.5" font-family="Helvetica,sans-Serif" font-size="10.00">src/core/peripherals</text>
<text text-anchor="middle" x="1706" y="-141.5" font-family="Helvetica,sans-Serif" font-size="10.00">/gpio.hpp</text>
</a>
</g>
</g>
<!-- Node1&#45;&gt;Node23 -->
<g id="edge31" class="edge">
<title>Node1&#45;&gt;Node23</title>
<path fill="none" stroke="midnightblue" d="M1398.88,-261.76C1420.57,-243.18 1454.83,-216.54 1489,-201 1496.39,-197.64 1587.54,-176.94 1649.33,-163.11"/>
<polygon fill="midnightblue" stroke="midnightblue" points="1396.45,-259.24 1391.21,-268.45 1401.04,-264.52 1396.45,-259.24"/>
</g>
<!-- Node29 -->
<g id="node29" class="node">
<title>Node29</title>
<g id="a_node29"><a xlink:href="interrupt__controller_8hpp.html" target="_top" xlink:title=" ">
<polygon fill="none" stroke="black" points="1185,-201.5 1185,-231.5 1319,-231.5 1319,-201.5 1185,-201.5"/>
<text text-anchor="start" x="1193" y="-219.5" font-family="Helvetica,sans-Serif" font-size="10.00">src/core/peripherals</text>
<text text-anchor="middle" x="1252" y="-208.5" font-family="Helvetica,sans-Serif" font-size="10.00">/interrupt_controller.hpp</text>
</a>
</g>
</g>
<!-- Node1&#45;&gt;Node29 -->
<g id="edge39" class="edge">
<title>Node1&#45;&gt;Node29</title>
<path fill="none" stroke="midnightblue" d="M1340.16,-263.71C1320.61,-253.46 1296.8,-240.98 1278.85,-231.58"/>
<polygon fill="midnightblue" stroke="midnightblue" points="1338.61,-266.85 1349.09,-268.4 1341.86,-260.65 1338.61,-266.85"/>
</g>
<!-- Node33 -->
<g id="node33" class="node">
<title>Node33</title>
<g id="a_node33"><a xlink:href="monitor_8hpp.html" target="_top" xlink:title=" ">
<polygon fill="none" stroke="black" points="1931.5,-201.5 1931.5,-231.5 2044.5,-231.5 2044.5,-201.5 1931.5,-201.5"/>
<text text-anchor="start" x="1939.5" y="-219.5" font-family="Helvetica,sans-Serif" font-size="10.00">src/core/peripherals</text>
<text text-anchor="middle" x="1988" y="-208.5" font-family="Helvetica,sans-Serif" font-size="10.00">/monitor.hpp</text>
</a>
</g>
</g>
<!-- Node1&#45;&gt;Node33 -->
<g id="edge47" class="edge">
<title>Node1&#45;&gt;Node33</title>
<path fill="none" stroke="midnightblue" d="M1443.01,-275.38C1564.27,-262.5 1818,-235.56 1931.28,-223.52"/>
<polygon fill="midnightblue" stroke="midnightblue" points="1442.33,-271.94 1432.75,-276.47 1443.07,-278.9 1442.33,-271.94"/>
</g>
<!-- Node37 -->
<g id="node37" class="node">
<title>Node37</title>
<g id="a_node37"><a xlink:href="ram_8hpp.html" target="_top" xlink:title=" ">
<polygon fill="none" stroke="black" points="1498.5,-201.5 1498.5,-231.5 1611.5,-231.5 1611.5,-201.5 1498.5,-201.5"/>
<text text-anchor="start" x="1506.5" y="-219.5" font-family="Helvetica,sans-Serif" font-size="10.00">src/core/peripherals</text>
<text text-anchor="middle" x="1555" y="-208.5" font-family="Helvetica,sans-Serif" font-size="10.00">/ram.hpp</text>
</a>
</g>
</g>
<!-- Node1&#45;&gt;Node37 -->
<g id="edge52" class="edge">
<title>Node1&#45;&gt;Node37</title>
<path fill="none" stroke="midnightblue" d="M1424.32,-264.96C1453.15,-254.48 1489.28,-241.37 1516.24,-231.58"/>
<polygon fill="midnightblue" stroke="midnightblue" points="1423.05,-261.69 1414.84,-268.4 1425.43,-268.27 1423.05,-261.69"/>
</g>
<!-- Node3 -->
<g id="node3" class="node">
<title>Node3</title>
<g id="a_node3"><a xlink:href="core_8hpp.html" target="_top" xlink:title="This file defines a class that represents a CPU core (arm1176jzf_s).">
<polygon fill="none" stroke="black" points="494.5,-134.5 494.5,-164.5 607.5,-164.5 607.5,-134.5 494.5,-134.5"/>
<text text-anchor="start" x="502.5" y="-152.5" font-family="Helvetica,sans-Serif" font-size="10.00">src/core/arm1176jzf</text>
<text text-anchor="middle" x="551" y="-141.5" font-family="Helvetica,sans-Serif" font-size="10.00">_s/core.hpp</text>
</a>
</g>
</g>
<!-- Node2&#45;&gt;Node3 -->
<g id="edge2" class="edge">
<title>Node2&#45;&gt;Node3</title>
<path fill="none" stroke="midnightblue" d="M450.79,-202.19C471.99,-191.26 501.94,-175.81 523.57,-164.65"/>
<polygon fill="midnightblue" stroke="midnightblue" points="449.01,-199.17 441.73,-206.87 452.22,-205.39 449.01,-199.17"/>
</g>
<!-- Node10 -->
<g id="node10" class="node">
<title>Node10</title>
<g id="a_node10"><a xlink:href="file__window_8hpp.html" target="_top" xlink:title=" ">
<polygon fill="none" stroke="black" points="298.5,-67.5 298.5,-97.5 411.5,-97.5 411.5,-67.5 298.5,-67.5"/>
<text text-anchor="start" x="306.5" y="-85.5" font-family="Helvetica,sans-Serif" font-size="10.00">src/gui/windows/file</text>
<text text-anchor="middle" x="355" y="-74.5" font-family="Helvetica,sans-Serif" font-size="10.00">_window.hpp</text>
</a>
</g>
</g>
<!-- Node2&#45;&gt;Node10 -->
<g id="edge25" class="edge">
<title>Node2&#45;&gt;Node10</title>
<path fill="none" stroke="midnightblue" d="M423.24,-196.44C421,-179.22 415.99,-153.62 405,-134 397.04,-119.79 384,-106.81 373.23,-97.57"/>
<polygon fill="midnightblue" stroke="midnightblue" points="419.82,-197.3 424.39,-206.86 426.77,-196.53 419.82,-197.3"/>
</g>
<!-- Node16 -->
<g id="node16" class="node">
<title>Node16</title>
<g id="a_node16"><a xlink:href="bus_8cpp.html" target="_top" xlink:title="This file implements the interface defined in bus.hpp.">
<polygon fill="none" stroke="black" points="301.5,-140 301.5,-159 396.5,-159 396.5,-140 301.5,-140"/>
<text text-anchor="middle" x="349" y="-147" font-family="Helvetica,sans-Serif" font-size="10.00">src/core/bus.cpp</text>
</a>
</g>
</g>
<!-- Node2&#45;&gt;Node16 -->
<g id="edge19" class="edge">
<title>Node2&#45;&gt;Node16</title>
<path fill="none" stroke="midnightblue" d="M407.13,-200.21C392.15,-187.41 371.32,-169.59 359.09,-159.13"/>
<polygon fill="midnightblue" stroke="midnightblue" points="404.88,-202.89 414.75,-206.73 409.43,-197.57 404.88,-202.89"/>
</g>
<!-- Node17 -->
<g id="node17" class="node">
<title>Node17</title>
<g id="a_node17"><a xlink:href="elf__loader_8hpp.html" target="_top" xlink:title=" ">
<polygon fill="none" stroke="black" points="167.5,-134.5 167.5,-164.5 262.5,-164.5 262.5,-134.5 167.5,-134.5"/>
<text text-anchor="start" x="175.5" y="-152.5" font-family="Helvetica,sans-Serif" font-size="10.00">src/core/utils/elf</text>
<text text-anchor="middle" x="215" y="-141.5" font-family="Helvetica,sans-Serif" font-size="10.00">_loader.hpp</text>
</a>
</g>
</g>
<!-- Node2&#45;&gt;Node17 -->
<g id="edge20" class="edge">
<title>Node2&#45;&gt;Node17</title>
<path fill="none" stroke="midnightblue" d="M387.12,-203.77C351.51,-192.75 298.17,-176.24 260.32,-164.53"/>
<polygon fill="midnightblue" stroke="midnightblue" points="386.53,-207.26 397.11,-206.87 388.6,-200.57 386.53,-207.26"/>
</g>
<!-- Node4 -->
<g id="node4" class="node">
<title>Node4</title>
<g id="a_node4"><a xlink:href="alu_8hpp.html" target="_top" xlink:title=" ">
<polygon fill="none" stroke="black" points="429.5,-67.5 429.5,-97.5 542.5,-97.5 542.5,-67.5 429.5,-67.5"/>
<text text-anchor="start" x="437.5" y="-85.5" font-family="Helvetica,sans-Serif" font-size="10.00">src/core/arm1176jzf</text>
<text text-anchor="middle" x="486" y="-74.5" font-family="Helvetica,sans-Serif" font-size="10.00">_s/alu.hpp</text>
</a>
</g>
</g>
<!-- Node3&#45;&gt;Node4 -->
<g id="edge3" class="edge">
<title>Node3&#45;&gt;Node4</title>
<path fill="none" stroke="midnightblue" d="M529.81,-127.31C520.06,-117.56 508.76,-106.26 500.08,-97.58"/>
<polygon fill="midnightblue" stroke="midnightblue" points="527.35,-129.8 536.9,-134.4 532.3,-124.85 527.35,-129.8"/>
</g>
<!-- Node6 -->
<g id="node6" class="node">
<title>Node6</title>
<g id="a_node6"><a xlink:href="core_8cpp.html" target="_top" xlink:title=" ">
<polygon fill="none" stroke="black" points="467.5,-0.5 467.5,-30.5 580.5,-30.5 580.5,-0.5 467.5,-0.5"/>
<text text-anchor="start" x="475.5" y="-18.5" font-family="Helvetica,sans-Serif" font-size="10.00">src/core/arm1176jzf</text>
<text text-anchor="middle" x="524" y="-7.5" font-family="Helvetica,sans-Serif" font-size="10.00">_s/core.cpp</text>
</a>
</g>
</g>
<!-- Node3&#45;&gt;Node6 -->
<g id="edge6" class="edge">
<title>Node3&#45;&gt;Node6</title>
<path fill="none" stroke="midnightblue" d="M554.07,-124.05C555.38,-107.66 555.69,-85.73 551,-67 547.71,-53.88 540.3,-40.45 534.07,-30.74"/>
<polygon fill="midnightblue" stroke="midnightblue" points="550.55,-124.11 553.05,-134.4 557.51,-124.8 550.55,-124.11"/>
</g>
<!-- Node7 -->
<g id="node7" class="node">
<title>Node7</title>
<g id="a_node7"><a xlink:href="control__window_8hpp.html" target="_top" xlink:title=" ">
<polygon fill="none" stroke="black" points="757.5,-67.5 757.5,-97.5 888.5,-97.5 888.5,-67.5 757.5,-67.5"/>
<text text-anchor="start" x="765.5" y="-85.5" font-family="Helvetica,sans-Serif" font-size="10.00">src/gui/windows/control</text>
<text text-anchor="middle" x="823" y="-74.5" font-family="Helvetica,sans-Serif" font-size="10.00">_window.hpp</text>
</a>
</g>
</g>
<!-- Node3&#45;&gt;Node7 -->
<g id="edge7" class="edge">
<title>Node3&#45;&gt;Node7</title>
<path fill="none" stroke="midnightblue" d="M617.61,-132.58C662.4,-121.88 720.92,-107.89 764.03,-97.59"/>
<polygon fill="midnightblue" stroke="midnightblue" points="616.6,-129.22 607.69,-134.95 618.23,-136.03 616.6,-129.22"/>
</g>
<!-- Node3&#45;&gt;Node10 -->
<g id="edge10" class="edge">
<title>Node3&#45;&gt;Node10</title>
<path fill="none" stroke="midnightblue" d="M498.92,-131.23C467.21,-120.71 427.22,-107.45 397.45,-97.58"/>
<polygon fill="midnightblue" stroke="midnightblue" points="497.88,-134.57 508.47,-134.4 500.08,-127.93 497.88,-134.57"/>
</g>
<!-- Node12 -->
<g id="node12" class="node">
<title>Node12</title>
<g id="a_node12"><a xlink:href="registers__window_8hpp.html" target="_top" xlink:title=" ">
<polygon fill="none" stroke="black" points="599,-67.5 599,-97.5 739,-97.5 739,-67.5 599,-67.5"/>
<text text-anchor="start" x="607" y="-85.5" font-family="Helvetica,sans-Serif" font-size="10.00">src/gui/windows/registers</text>
<text text-anchor="middle" x="669" y="-74.5" font-family="Helvetica,sans-Serif" font-size="10.00">_window.hpp</text>
</a>
</g>
</g>
<!-- Node3&#45;&gt;Node12 -->
<g id="edge13" class="edge">
<title>Node3&#45;&gt;Node12</title>
<path fill="none" stroke="midnightblue" d="M585.61,-129.44C604.12,-119.24 626.52,-106.9 643.45,-97.58"/>
<polygon fill="midnightblue" stroke="midnightblue" points="583.67,-126.51 576.6,-134.4 587.05,-132.64 583.67,-126.51"/>
</g>
<!-- Node14 -->
<g id="node14" class="node">
<title>Node14</title>
<g id="a_node14"><a xlink:href="source__code__window_8hpp.html" target="_top" xlink:title=" ">
<polygon fill="none" stroke="black" points="150,-67.5 150,-97.5 280,-97.5 280,-67.5 150,-67.5"/>
<text text-anchor="start" x="158" y="-85.5" font-family="Helvetica,sans-Serif" font-size="10.00">src/gui/windows/source</text>
<text text-anchor="middle" x="215" y="-74.5" font-family="Helvetica,sans-Serif" font-size="10.00">_code_window.hpp</text>
</a>
</g>
</g>
<!-- Node3&#45;&gt;Node14 -->
<g id="edge16" class="edge">
<title>Node3&#45;&gt;Node14</title>
<path fill="none" stroke="midnightblue" d="M484.32,-135.71C431.36,-125.53 355.43,-110.91 289,-98 286.17,-97.45 283.28,-96.89 280.37,-96.32"/>
<polygon fill="midnightblue" stroke="midnightblue" points="483.78,-139.17 494.26,-137.62 485.1,-132.29 483.78,-139.17"/>
</g>
<!-- Node5 -->
<g id="node5" class="node">
<title>Node5</title>
<g id="a_node5"><a xlink:href="alu_8cpp.html" target="_top" xlink:title=" ">
<polygon fill="none" stroke="black" points="336.5,-0.5 336.5,-30.5 449.5,-30.5 449.5,-0.5 336.5,-0.5"/>
<text text-anchor="start" x="344.5" y="-18.5" font-family="Helvetica,sans-Serif" font-size="10.00">src/core/arm1176jzf</text>
<text text-anchor="middle" x="393" y="-7.5" font-family="Helvetica,sans-Serif" font-size="10.00">_s/alu.cpp</text>
</a>
</g>
</g>
<!-- Node4&#45;&gt;Node5 -->
<g id="edge4" class="edge">
<title>Node4&#45;&gt;Node5</title>
<path fill="none" stroke="midnightblue" d="M457.31,-61.45C443.01,-51.45 426.05,-39.6 413.14,-30.58"/>
<polygon fill="midnightblue" stroke="midnightblue" points="455.62,-64.54 465.82,-67.4 459.63,-58.8 455.62,-64.54"/>
</g>
<!-- Node4&#45;&gt;Node6 -->
<g id="edge5" class="edge">
<title>Node4&#45;&gt;Node6</title>
<path fill="none" stroke="midnightblue" d="M499.4,-58.58C504.86,-49.24 510.99,-38.75 515.77,-30.58"/>
<polygon fill="midnightblue" stroke="midnightblue" points="496.27,-57 494.25,-67.4 502.31,-60.53 496.27,-57"/>
</g>
<!-- Node8 -->
<g id="node8" class="node">
<title>Node8</title>
<g id="a_node8"><a xlink:href="gui_8cpp.html" target="_top" xlink:title=" ">
<polygon fill="none" stroke="black" points="1223.5,-6 1223.5,-25 1310.5,-25 1310.5,-6 1223.5,-6"/>
<text text-anchor="middle" x="1267" y="-13" font-family="Helvetica,sans-Serif" font-size="10.00">src/gui/gui.cpp</text>
</a>
</g>
</g>
<!-- Node7&#45;&gt;Node8 -->
<g id="edge8" class="edge">
<title>Node7&#45;&gt;Node8</title>
<path fill="none" stroke="midnightblue" d="M898.84,-66.92C1022.51,-46.74 1156.1,-29.85 1223.43,-21.68"/>
<polygon fill="midnightblue" stroke="midnightblue" points="898.11,-63.49 888.81,-68.56 899.25,-70.4 898.11,-63.49"/>
</g>
<!-- Node9 -->
<g id="node9" class="node">
<title>Node9</title>
<g id="a_node9"><a xlink:href="control__window_8cpp.html" target="_top" xlink:title=" ">
<polygon fill="none" stroke="black" points="757.5,-0.5 757.5,-30.5 888.5,-30.5 888.5,-0.5 757.5,-0.5"/>
<text text-anchor="start" x="765.5" y="-18.5" font-family="Helvetica,sans-Serif" font-size="10.00">src/gui/windows/control</text>
<text text-anchor="middle" x="823" y="-7.5" font-family="Helvetica,sans-Serif" font-size="10.00">_window.cpp</text>
</a>
</g>
</g>
<!-- Node7&#45;&gt;Node9 -->
<g id="edge9" class="edge">
<title>Node7&#45;&gt;Node9</title>
<path fill="none" stroke="midnightblue" d="M823,-57.11C823,-48.15 823,-38.32 823,-30.58"/>
<polygon fill="midnightblue" stroke="midnightblue" points="819.5,-57.4 823,-67.4 826.5,-57.4 819.5,-57.4"/>
</g>
<!-- Node10&#45;&gt;Node8 -->
<g id="edge11" class="edge">
<title>Node10&#45;&gt;Node8</title>
<path fill="none" stroke="midnightblue" d="M421.87,-66.89C707.5,-27.98 783.52,-49.26 1068,-31 1121.41,-27.57 1182.83,-23 1223.15,-19.91"/>
<polygon fill="midnightblue" stroke="midnightblue" points="421.05,-63.47 411.62,-68.3 422,-70.4 421.05,-63.47"/>
</g>
<!-- Node11 -->
<g id="node11" class="node">
<title>Node11</title>
<g id="a_node11"><a xlink:href="file__window_8cpp.html" target="_top" xlink:title=" ">
<polygon fill="none" stroke="black" points="205.5,-0.5 205.5,-30.5 318.5,-30.5 318.5,-0.5 205.5,-0.5"/>
<text text-anchor="start" x="213.5" y="-18.5" font-family="Helvetica,sans-Serif" font-size="10.00">src/gui/windows/file</text>
<text text-anchor="middle" x="262" y="-7.5" font-family="Helvetica,sans-Serif" font-size="10.00">_window.cpp</text>
</a>
</g>
</g>
<!-- Node10&#45;&gt;Node11 -->
<g id="edge12" class="edge">
<title>Node10&#45;&gt;Node11</title>
<path fill="none" stroke="midnightblue" d="M326.31,-61.45C312.01,-51.45 295.05,-39.6 282.14,-30.58"/>
<polygon fill="midnightblue" stroke="midnightblue" points="324.62,-64.54 334.82,-67.4 328.63,-58.8 324.62,-64.54"/>
</g>
<!-- Node12&#45;&gt;Node8 -->
<g id="edge14" class="edge">
<title>Node12&#45;&gt;Node8</title>
<path fill="none" stroke="midnightblue" d="M749.18,-66.91C931.06,-41.81 1135.67,-25.78 1223.45,-19.49"/>
<polygon fill="midnightblue" stroke="midnightblue" points="748.58,-63.46 739.16,-68.3 749.55,-70.39 748.58,-63.46"/>
</g>
<!-- Node13 -->
<g id="node13" class="node">
<title>Node13</title>
<g id="a_node13"><a xlink:href="registers__window_8cpp.html" target="_top" xlink:title=" ">
<polygon fill="none" stroke="black" points="599,-0.5 599,-30.5 739,-30.5 739,-0.5 599,-0.5"/>
<text text-anchor="start" x="607" y="-18.5" font-family="Helvetica,sans-Serif" font-size="10.00">src/gui/windows/registers</text>
<text text-anchor="middle" x="669" y="-7.5" font-family="Helvetica,sans-Serif" font-size="10.00">_window.cpp</text>
</a>
</g>
</g>
<!-- Node12&#45;&gt;Node13 -->
<g id="edge15" class="edge">
<title>Node12&#45;&gt;Node13</title>
<path fill="none" stroke="midnightblue" d="M669,-57.11C669,-48.15 669,-38.32 669,-30.58"/>
<polygon fill="midnightblue" stroke="midnightblue" points="665.5,-57.4 669,-67.4 672.5,-57.4 665.5,-57.4"/>
</g>
<!-- Node14&#45;&gt;Node8 -->
<g id="edge17" class="edge">
<title>Node14&#45;&gt;Node8</title>
<path fill="none" stroke="midnightblue" d="M290.29,-66.97C634.82,-26.06 725.31,-51.4 1068,-31 1121.42,-27.82 1182.85,-23.2 1223.15,-20.03"/>
<polygon fill="midnightblue" stroke="midnightblue" points="289.8,-63.5 280.29,-68.17 290.63,-70.45 289.8,-63.5"/>
</g>
<!-- Node15 -->
<g id="node15" class="node">
<title>Node15</title>
<g id="a_node15"><a xlink:href="source__code__window_8cpp.html" target="_top" xlink:title=" ">
<polygon fill="none" stroke="black" points="0,-0.5 0,-30.5 130,-30.5 130,-0.5 0,-0.5"/>
<text text-anchor="start" x="8" y="-18.5" font-family="Helvetica,sans-Serif" font-size="10.00">src/gui/windows/source</text>
<text text-anchor="middle" x="65" y="-7.5" font-family="Helvetica,sans-Serif" font-size="10.00">_code_window.cpp</text>
</a>
</g>
</g>
<!-- Node14&#45;&gt;Node15 -->
<g id="edge18" class="edge">
<title>Node14&#45;&gt;Node15</title>
<path fill="none" stroke="midnightblue" d="M173.25,-63.41C149.3,-53.03 119.68,-40.2 97.48,-30.58"/>
<polygon fill="midnightblue" stroke="midnightblue" points="171.89,-66.63 182.45,-67.4 174.67,-60.21 171.89,-66.63"/>
</g>
<!-- Node17&#45;&gt;Node10 -->
<g id="edge22" class="edge">
<title>Node17&#45;&gt;Node10</title>
<path fill="none" stroke="midnightblue" d="M254.57,-130.13C276.81,-119.8 304.15,-107.11 324.68,-97.58"/>
<polygon fill="midnightblue" stroke="midnightblue" points="252.97,-127.01 245.38,-134.4 255.92,-133.36 252.97,-127.01"/>
</g>
<!-- Node17&#45;&gt;Node14 -->
<g id="edge24" class="edge">
<title>Node17&#45;&gt;Node14</title>
<path fill="none" stroke="midnightblue" d="M215,-124.11C215,-115.15 215,-105.32 215,-97.58"/>
<polygon fill="midnightblue" stroke="midnightblue" points="211.5,-124.4 215,-134.4 218.5,-124.4 211.5,-124.4"/>
</g>
<!-- Node17&#45;&gt;Node15 -->
<g id="edge23" class="edge">
<title>Node17&#45;&gt;Node15</title>
<path fill="none" stroke="midnightblue" d="M157.14,-140.73C107.96,-132.8 42.87,-118.7 27,-98 10.85,-76.94 32.91,-47.91 49.55,-30.78"/>
<polygon fill="midnightblue" stroke="midnightblue" points="156.63,-144.19 167.05,-142.28 157.72,-137.28 156.63,-144.19"/>
</g>
<!-- Node18 -->
<g id="node18" class="node">
<title>Node18</title>
<g id="a_node18"><a xlink:href="elf__loader_8cpp.html" target="_top" xlink:title=" ">
<polygon fill="none" stroke="black" points="36.5,-67.5 36.5,-97.5 131.5,-97.5 131.5,-67.5 36.5,-67.5"/>
<text text-anchor="start" x="44.5" y="-85.5" font-family="Helvetica,sans-Serif" font-size="10.00">src/core/utils/elf</text>
<text text-anchor="middle" x="84" y="-74.5" font-family="Helvetica,sans-Serif" font-size="10.00">_loader.cpp</text>
</a>
</g>
</g>
<!-- Node17&#45;&gt;Node18 -->
<g id="edge21" class="edge">
<title>Node17&#45;&gt;Node18</title>
<path fill="none" stroke="midnightblue" d="M177.42,-129.85C156.71,-119.58 131.41,-107.03 112.37,-97.58"/>
<polygon fill="midnightblue" stroke="midnightblue" points="176.06,-133.09 186.57,-134.4 179.17,-126.82 176.06,-133.09"/>
</g>
<!-- Node20 -->
<g id="node20" class="node">
<title>Node20</title>
<g id="a_node20"><a xlink:href="arm__timer_8cpp.html" target="_top" xlink:title=" ">
<polygon fill="none" stroke="black" points="1077.5,-67.5 1077.5,-97.5 1190.5,-97.5 1190.5,-67.5 1077.5,-67.5"/>
<text text-anchor="start" x="1085.5" y="-85.5" font-family="Helvetica,sans-Serif" font-size="10.00">src/core/peripherals</text>
<text text-anchor="middle" x="1134" y="-74.5" font-family="Helvetica,sans-Serif" font-size="10.00">/arm_timer.cpp</text>
</a>
</g>
</g>
<!-- Node19&#45;&gt;Node20 -->
<g id="edge27" class="edge">
<title>Node19&#45;&gt;Node20</title>
<path fill="none" stroke="midnightblue" d="M1082.11,-127.88C1093.66,-118.01 1107.19,-106.43 1117.54,-97.58"/>
<polygon fill="midnightblue" stroke="midnightblue" points="1079.82,-125.24 1074.49,-134.4 1084.37,-130.56 1079.82,-125.24"/>
</g>
<!-- Node21 -->
<g id="node21" class="node">
<title>Node21</title>
<g id="a_node21"><a xlink:href="arm__timer__window_8hpp.html" target="_top" xlink:title=" ">
<polygon fill="none" stroke="black" points="907,-67.5 907,-97.5 1059,-97.5 1059,-67.5 907,-67.5"/>
<text text-anchor="start" x="915" y="-85.5" font-family="Helvetica,sans-Serif" font-size="10.00">src/gui/windows/peripherals</text>
<text text-anchor="middle" x="983" y="-74.5" font-family="Helvetica,sans-Serif" font-size="10.00">/arm_timer_window.hpp</text>
</a>
</g>
</g>
<!-- Node19&#45;&gt;Node21 -->
<g id="edge28" class="edge">
<title>Node19&#45;&gt;Node21</title>
<path fill="none" stroke="midnightblue" d="M1033.88,-127.6C1022.56,-117.78 1009.36,-106.34 999.24,-97.58"/>
<polygon fill="midnightblue" stroke="midnightblue" points="1031.88,-130.49 1041.73,-134.4 1036.46,-125.2 1031.88,-130.49"/>
</g>
<!-- Node21&#45;&gt;Node8 -->
<g id="edge29" class="edge">
<title>Node21&#45;&gt;Node8</title>
<path fill="none" stroke="midnightblue" d="M1054.1,-65.23C1109.86,-52.47 1185.24,-35.21 1229.74,-25.03"/>
<polygon fill="midnightblue" stroke="midnightblue" points="1053.24,-61.83 1044.27,-67.48 1054.8,-68.66 1053.24,-61.83"/>
</g>
<!-- Node22 -->
<g id="node22" class="node">
<title>Node22</title>
<g id="a_node22"><a xlink:href="arm__timer__window_8cpp.html" target="_top" xlink:title=" ">
<polygon fill="none" stroke="black" points="907,-0.5 907,-30.5 1059,-30.5 1059,-0.5 907,-0.5"/>
<text text-anchor="start" x="915" y="-18.5" font-family="Helvetica,sans-Serif" font-size="10.00">src/gui/windows/peripherals</text>
<text text-anchor="middle" x="983" y="-7.5" font-family="Helvetica,sans-Serif" font-size="10.00">/arm_timer_window.cpp</text>
</a>
</g>
</g>
<!-- Node21&#45;&gt;Node22 -->
<g id="edge30" class="edge">
<title>Node21&#45;&gt;Node22</title>
<path fill="none" stroke="midnightblue" d="M983,-57.11C983,-48.15 983,-38.32 983,-30.58"/>
<polygon fill="midnightblue" stroke="midnightblue" points="979.5,-57.4 983,-67.4 986.5,-57.4 979.5,-57.4"/>
</g>
<!-- Node24 -->
<g id="node24" class="node">
<title>Node24</title>
<g id="a_node24"><a xlink:href="gpio_8cpp.html" target="_top" xlink:title=" ">
<polygon fill="none" stroke="black" points="1649.5,-67.5 1649.5,-97.5 1762.5,-97.5 1762.5,-67.5 1649.5,-67.5"/>
<text text-anchor="start" x="1657.5" y="-85.5" font-family="Helvetica,sans-Serif" font-size="10.00">src/core/peripherals</text>
<text text-anchor="middle" x="1706" y="-74.5" font-family="Helvetica,sans-Serif" font-size="10.00">/gpio.cpp</text>
</a>
</g>
</g>
<!-- Node23&#45;&gt;Node24 -->
<g id="edge32" class="edge">
<title>Node23&#45;&gt;Node24</title>
<path fill="none" stroke="midnightblue" d="M1706,-124.11C1706,-115.15 1706,-105.32 1706,-97.58"/>
<polygon fill="midnightblue" stroke="midnightblue" points="1702.5,-124.4 1706,-134.4 1709.5,-124.4 1702.5,-124.4"/>
</g>
<!-- Node25 -->
<g id="node25" class="node">
<title>Node25</title>
<g id="a_node25"><a xlink:href="button__window_8hpp.html" target="_top" xlink:title=" ">
<polygon fill="none" stroke="black" points="1819,-67.5 1819,-97.5 1977,-97.5 1977,-67.5 1819,-67.5"/>
<text text-anchor="start" x="1827" y="-85.5" font-family="Helvetica,sans-Serif" font-size="10.00">src/gui/windows/peripherals</text>
<text text-anchor="middle" x="1898" y="-74.5" font-family="Helvetica,sans-Serif" font-size="10.00">/external/button_window.hpp</text>
</a>
</g>
</g>
<!-- Node23&#45;&gt;Node25 -->
<g id="edge33" class="edge">
<title>Node23&#45;&gt;Node25</title>
<path fill="none" stroke="midnightblue" d="M1757.42,-131.09C1788.42,-120.6 1827.38,-107.41 1856.42,-97.58"/>
<polygon fill="midnightblue" stroke="midnightblue" points="1756.01,-127.87 1747.66,-134.4 1758.26,-134.5 1756.01,-127.87"/>
</g>
<!-- Node27 -->
<g id="node27" class="node">
<title>Node27</title>
<g id="a_node27"><a xlink:href="gpio__window_8hpp.html" target="_top" xlink:title=" ">
<polygon fill="none" stroke="black" points="1995,-67.5 1995,-97.5 2147,-97.5 2147,-67.5 1995,-67.5"/>
<text text-anchor="start" x="2003" y="-85.5" font-family="Helvetica,sans-Serif" font-size="10.00">src/gui/windows/peripherals</text>
<text text-anchor="middle" x="2071" y="-74.5" font-family="Helvetica,sans-Serif" font-size="10.00">/gpio_window.hpp</text>
</a>
</g>
</g>
<!-- Node23&#45;&gt;Node27 -->
<g id="edge36" class="edge">
<title>Node23&#45;&gt;Node27</title>
<path fill="none" stroke="midnightblue" d="M1772.93,-133.87C1868.37,-115.53 1894.06,-113.57 1986,-98 1988.8,-97.52 1991.66,-97.04 1994.55,-96.55"/>
<polygon fill="midnightblue" stroke="midnightblue" points="1772,-130.49 1762.84,-135.82 1773.33,-137.36 1772,-130.49"/>
</g>
<!-- Node25&#45;&gt;Node8 -->
<g id="edge34" class="edge">
<title>Node25&#45;&gt;Node8</title>
<path fill="none" stroke="midnightblue" d="M1808.86,-67.49C1807.56,-67.32 1806.28,-67.16 1805,-67 1621.84,-44.15 1402.43,-26.59 1310.68,-19.69"/>
<polygon fill="midnightblue" stroke="midnightblue" points="1808.52,-70.98 1818.9,-68.83 1809.45,-64.04 1808.52,-70.98"/>
</g>
<!-- Node26 -->
<g id="node26" class="node">
<title>Node26</title>
<g id="a_node26"><a xlink:href="button__window_8cpp.html" target="_top" xlink:title=" ">
<polygon fill="none" stroke="black" points="1819.5,-0.5 1819.5,-30.5 1976.5,-30.5 1976.5,-0.5 1819.5,-0.5"/>
<text text-anchor="start" x="1827.5" y="-18.5" font-family="Helvetica,sans-Serif" font-size="10.00">src/gui/windows/peripherals</text>
<text text-anchor="middle" x="1898" y="-7.5" font-family="Helvetica,sans-Serif" font-size="10.00">/external/button_window.cpp</text>
</a>
</g>
</g>
<!-- Node25&#45;&gt;Node26 -->
<g id="edge35" class="edge">
<title>Node25&#45;&gt;Node26</title>
<path fill="none" stroke="midnightblue" d="M1898,-57.11C1898,-48.15 1898,-38.32 1898,-30.58"/>
<polygon fill="midnightblue" stroke="midnightblue" points="1894.5,-57.4 1898,-67.4 1901.5,-57.4 1894.5,-57.4"/>
</g>
<!-- Node27&#45;&gt;Node8 -->
<g id="edge37" class="edge">
<title>Node27&#45;&gt;Node8</title>
<path fill="none" stroke="midnightblue" d="M1984.54,-66.9C1723.2,-36.02 1421.29,-22.34 1310.5,-18.06"/>
<polygon fill="midnightblue" stroke="midnightblue" points="1984.25,-70.39 1994.6,-68.1 1985.08,-63.44 1984.25,-70.39"/>
</g>
<!-- Node28 -->
<g id="node28" class="node">
<title>Node28</title>
<g id="a_node28"><a xlink:href="gpio__window_8cpp.html" target="_top" xlink:title=" ">
<polygon fill="none" stroke="black" points="1995,-0.5 1995,-30.5 2147,-30.5 2147,-0.5 1995,-0.5"/>
<text text-anchor="start" x="2003" y="-18.5" font-family="Helvetica,sans-Serif" font-size="10.00">src/gui/windows/peripherals</text>
<text text-anchor="middle" x="2071" y="-7.5" font-family="Helvetica,sans-Serif" font-size="10.00">/gpio_window.cpp</text>
</a>
</g>
</g>
<!-- Node27&#45;&gt;Node28 -->
<g id="edge38" class="edge">
<title>Node27&#45;&gt;Node28</title>
<path fill="none" stroke="midnightblue" d="M2071,-57.11C2071,-48.15 2071,-38.32 2071,-30.58"/>
<polygon fill="midnightblue" stroke="midnightblue" points="2067.5,-57.4 2071,-67.4 2074.5,-57.4 2067.5,-57.4"/>
</g>
<!-- Node29&#45;&gt;Node3 -->
<g id="edge40" class="edge">
<title>Node29&#45;&gt;Node3</title>
<path fill="none" stroke="midnightblue" d="M1174.4,-208.3C1032.09,-195.11 732.53,-167.33 607.59,-155.75"/>
<polygon fill="midnightblue" stroke="midnightblue" points="1174.5,-211.83 1184.79,-209.27 1175.15,-204.86 1174.5,-211.83"/>
</g>
<!-- Node29&#45;&gt;Node19 -->
<g id="edge41" class="edge">
<title>Node29&#45;&gt;Node19</title>
<path fill="none" stroke="midnightblue" d="M1200.04,-198.09C1168.73,-187.6 1129.36,-174.41 1100.01,-164.58"/>
<polygon fill="midnightblue" stroke="midnightblue" points="1199.31,-201.54 1209.9,-201.4 1201.53,-194.9 1199.31,-201.54"/>
</g>
<!-- Node29&#45;&gt;Node23 -->
<g id="edge42" class="edge">
<title>Node29&#45;&gt;Node23</title>
<path fill="none" stroke="midnightblue" d="M1329.5,-207.42C1408.04,-198.76 1532.89,-183.7 1640,-165 1643,-164.48 1646.08,-163.91 1649.18,-163.31"/>
<polygon fill="midnightblue" stroke="midnightblue" points="1328.77,-203.98 1319.21,-208.55 1329.53,-210.94 1328.77,-203.98"/>
</g>
<!-- Node30 -->
<g id="node30" class="node">
<title>Node30</title>
<g id="a_node30"><a xlink:href="interrupt__controller_8cpp.html" target="_top" xlink:title=" ">
<polygon fill="none" stroke="black" points="1327.5,-134.5 1327.5,-164.5 1460.5,-164.5 1460.5,-134.5 1327.5,-134.5"/>
<text text-anchor="start" x="1335.5" y="-152.5" font-family="Helvetica,sans-Serif" font-size="10.00">src/core/peripherals</text>
<text text-anchor="middle" x="1394" y="-141.5" font-family="Helvetica,sans-Serif" font-size="10.00">/interrupt_controller.cpp</text>
</a>
</g>
</g>
<!-- Node29&#45;&gt;Node30 -->
<g id="edge43" class="edge">
<title>Node29&#45;&gt;Node30</title>
<path fill="none" stroke="midnightblue" d="M1292.13,-197.13C1314.69,-186.8 1342.42,-174.11 1363.25,-164.58"/>
<polygon fill="midnightblue" stroke="midnightblue" points="1290.45,-194.05 1282.81,-201.4 1293.36,-200.42 1290.45,-194.05"/>
</g>
<!-- Node31 -->
<g id="node31" class="node">
<title>Node31</title>
<g id="a_node31"><a xlink:href="interrupt__controller__window_8hpp.html" target="_top" xlink:title=" ">
<polygon fill="none" stroke="black" points="1133,-134.5 1133,-164.5 1309,-164.5 1309,-134.5 1133,-134.5"/>
<text text-anchor="start" x="1141" y="-152.5" font-family="Helvetica,sans-Serif" font-size="10.00">src/gui/windows/peripherals</text>
<text text-anchor="middle" x="1221" y="-141.5" font-family="Helvetica,sans-Serif" font-size="10.00">/interrupt_controller_window.hpp</text>
</a>
</g>
</g>
<!-- Node29&#45;&gt;Node31 -->
<g id="edge44" class="edge">
<title>Node29&#45;&gt;Node31</title>
<path fill="none" stroke="midnightblue" d="M1240.93,-192.28C1236.51,-183.02 1231.57,-172.66 1227.71,-164.58"/>
<polygon fill="midnightblue" stroke="midnightblue" points="1237.81,-193.88 1245.27,-201.4 1244.13,-190.86 1237.81,-193.88"/>
</g>
<!-- Node31&#45;&gt;Node8 -->
<g id="edge45" class="edge">
<title>Node31&#45;&gt;Node8</title>
<path fill="none" stroke="midnightblue" d="M1312.38,-132.15C1348.23,-123.71 1383.36,-112.19 1394,-98 1421.35,-61.53 1352.85,-36.98 1306.16,-25"/>
<polygon fill="midnightblue" stroke="midnightblue" points="1311.25,-128.82 1302.27,-134.45 1312.8,-135.64 1311.25,-128.82"/>
</g>
<!-- Node32 -->
<g id="node32" class="node">
<title>Node32</title>
<g id="a_node32"><a xlink:href="interrupt__controller__window_8cpp.html" target="_top" xlink:title=" ">
<polygon fill="none" stroke="black" points="1209,-67.5 1209,-97.5 1385,-97.5 1385,-67.5 1209,-67.5"/>
<text text-anchor="start" x="1217" y="-85.5" font-family="Helvetica,sans-Serif" font-size="10.00">src/gui/windows/peripherals</text>
<text text-anchor="middle" x="1297" y="-74.5" font-family="Helvetica,sans-Serif" font-size="10.00">/interrupt_controller_window.cpp</text>
</a>
</g>
</g>
<!-- Node31&#45;&gt;Node32 -->
<g id="edge46" class="edge">
<title>Node31&#45;&gt;Node32</title>
<path fill="none" stroke="midnightblue" d="M1245.11,-127.88C1256.66,-118.01 1270.19,-106.43 1280.54,-97.58"/>
<polygon fill="midnightblue" stroke="midnightblue" points="1242.82,-125.24 1237.49,-134.4 1247.37,-130.56 1242.82,-125.24"/>
</g>
<!-- Node34 -->
<g id="node34" class="node">
<title>Node34</title>
<g id="a_node34"><a xlink:href="monitor_8cpp.html" target="_top" xlink:title=" ">
<polygon fill="none" stroke="black" points="2082.5,-134.5 2082.5,-164.5 2195.5,-164.5 2195.5,-134.5 2082.5,-134.5"/>
<text text-anchor="start" x="2090.5" y="-152.5" font-family="Helvetica,sans-Serif" font-size="10.00">src/core/peripherals</text>
<text text-anchor="middle" x="2139" y="-141.5" font-family="Helvetica,sans-Serif" font-size="10.00">/monitor.cpp</text>
</a>
</g>
</g>
<!-- Node33&#45;&gt;Node34 -->
<g id="edge48" class="edge">
<title>Node33&#45;&gt;Node34</title>
<path fill="none" stroke="midnightblue" d="M2030.03,-197.41C2054.14,-187.03 2083.95,-174.2 2106.3,-164.58"/>
<polygon fill="midnightblue" stroke="midnightblue" points="2028.57,-194.23 2020.76,-201.4 2031.33,-200.66 2028.57,-194.23"/>
</g>
<!-- Node35 -->
<g id="node35" class="node">
<title>Node35</title>
<g id="a_node35"><a xlink:href="monitor__window_8hpp.html" target="_top" xlink:title=" ">
<polygon fill="none" stroke="black" points="1912,-134.5 1912,-164.5 2064,-164.5 2064,-134.5 1912,-134.5"/>
<text text-anchor="start" x="1920" y="-152.5" font-family="Helvetica,sans-Serif" font-size="10.00">src/gui/windows/peripherals</text>
<text text-anchor="middle" x="1988" y="-141.5" font-family="Helvetica,sans-Serif" font-size="10.00">/monitor_window.hpp</text>
</a>
</g>
</g>
<!-- Node33&#45;&gt;Node35 -->
<g id="edge49" class="edge">
<title>Node33&#45;&gt;Node35</title>
<path fill="none" stroke="midnightblue" d="M1988,-191.11C1988,-182.15 1988,-172.32 1988,-164.58"/>
<polygon fill="midnightblue" stroke="midnightblue" points="1984.5,-191.4 1988,-201.4 1991.5,-191.4 1984.5,-191.4"/>
</g>
<!-- Node35&#45;&gt;Node8 -->
<g id="edge50" class="edge">
<title>Node35&#45;&gt;Node8</title>
<path fill="none" stroke="midnightblue" d="M1903.36,-131.99C1872.89,-124.13 1838.92,-113.07 1810,-98 1790.67,-87.93 1792.14,-75.33 1772,-67 1688.94,-32.67 1417.58,-20.98 1310.76,-17.65"/>
<polygon fill="midnightblue" stroke="midnightblue" points="1902.57,-135.4 1913.12,-134.43 1904.27,-128.61 1902.57,-135.4"/>
</g>
<!-- Node36 -->
<g id="node36" class="node">
<title>Node36</title>
<g id="a_node36"><a xlink:href="monitor__window_8cpp.html" target="_top" xlink:title=" ">
<polygon fill="none" stroke="black" points="2165,-67.5 2165,-97.5 2317,-97.5 2317,-67.5 2165,-67.5"/>
<text text-anchor="start" x="2173" y="-85.5" font-family="Helvetica,sans-Serif" font-size="10.00">src/gui/windows/peripherals</text>
<text text-anchor="middle" x="2241" y="-74.5" font-family="Helvetica,sans-Serif" font-size="10.00">/monitor_window.cpp</text>
</a>
</g>
</g>
<!-- Node35&#45;&gt;Node36 -->
<g id="edge51" class="edge">
<title>Node35&#45;&gt;Node36</title>
<path fill="none" stroke="midnightblue" d="M2052.28,-131.98C2093.61,-121.37 2146.73,-107.72 2186.08,-97.61"/>
<polygon fill="midnightblue" stroke="midnightblue" points="2051.4,-128.6 2042.59,-134.48 2053.14,-135.38 2051.4,-128.6"/>
</g>
<!-- Node38 -->
<g id="node38" class="node">
<title>Node38</title>
<g id="a_node38"><a xlink:href="ram_8cpp.html" target="_top" xlink:title=" ">
<polygon fill="none" stroke="black" points="1780.5,-134.5 1780.5,-164.5 1893.5,-164.5 1893.5,-134.5 1780.5,-134.5"/>
<text text-anchor="start" x="1788.5" y="-152.5" font-family="Helvetica,sans-Serif" font-size="10.00">src/core/peripherals</text>
<text text-anchor="middle" x="1837" y="-141.5" font-family="Helvetica,sans-Serif" font-size="10.00">/ram.cpp</text>
</a>
</g>
</g>
<!-- Node37&#45;&gt;Node38 -->
<g id="edge53" class="edge">
<title>Node37&#45;&gt;Node38</title>
<path fill="none" stroke="midnightblue" d="M1621.77,-200.11C1670.06,-188.98 1734.59,-174.11 1780.36,-163.55"/>
<polygon fill="midnightblue" stroke="midnightblue" points="1620.69,-196.77 1611.73,-202.42 1622.26,-203.59 1620.69,-196.77"/>
</g>
<!-- Node39 -->
<g id="node39" class="node">
<title>Node39</title>
<g id="a_node39"><a xlink:href="ram__window_8hpp.html" target="_top" xlink:title=" ">
<polygon fill="none" stroke="black" points="1479,-134.5 1479,-164.5 1631,-164.5 1631,-134.5 1479,-134.5"/>
<text text-anchor="start" x="1487" y="-152.5" font-family="Helvetica,sans-Serif" font-size="10.00">src/gui/windows/peripherals</text>
<text text-anchor="middle" x="1555" y="-141.5" font-family="Helvetica,sans-Serif" font-size="10.00">/ram_window.hpp</text>
</a>
</g>
</g>
<!-- Node37&#45;&gt;Node39 -->
<g id="edge54" class="edge">
<title>Node37&#45;&gt;Node39</title>
<path fill="none" stroke="midnightblue" d="M1555,-191.11C1555,-182.15 1555,-172.32 1555,-164.58"/>
<polygon fill="midnightblue" stroke="midnightblue" points="1551.5,-191.4 1555,-201.4 1558.5,-191.4 1551.5,-191.4"/>
</g>
<!-- Node39&#45;&gt;Node8 -->
<g id="edge55" class="edge">
<title>Node39&#45;&gt;Node8</title>
<path fill="none" stroke="midnightblue" d="M1522.51,-129.06C1487.41,-108.23 1433.61,-76.82 1412,-67 1373.17,-49.35 1326.24,-34.04 1296.5,-25.03"/>
<polygon fill="midnightblue" stroke="midnightblue" points="1521.05,-132.26 1531.43,-134.37 1524.63,-126.25 1521.05,-132.26"/>
</g>
<!-- Node40 -->
<g id="node40" class="node">
<title>Node40</title>
<g id="a_node40"><a xlink:href="ram__window_8cpp.html" target="_top" xlink:title=" ">
<polygon fill="none" stroke="black" points="1479,-67.5 1479,-97.5 1631,-97.5 1631,-67.5 1479,-67.5"/>
<text text-anchor="start" x="1487" y="-85.5" font-family="Helvetica,sans-Serif" font-size="10.00">src/gui/windows/peripherals</text>
<text text-anchor="middle" x="1555" y="-74.5" font-family="Helvetica,sans-Serif" font-size="10.00">/ram_window.cpp</text>
</a>
</g>
</g>
<!-- Node39&#45;&gt;Node40 -->
<g id="edge56" class="edge">
<title>Node39&#45;&gt;Node40</title>
<path fill="none" stroke="midnightblue" d="M1555,-124.11C1555,-115.15 1555,-105.32 1555,-97.58"/>
<polygon fill="midnightblue" stroke="midnightblue" points="1551.5,-124.4 1555,-134.4 1558.5,-124.4 1551.5,-124.4"/>
</g>
</g>
</svg>
