<?xml version="1.0" encoding="UTF-8" standalone="no"?>
<!DOCTYPE svg PUBLIC "-//W3C//DTD SVG 1.1//EN"
 "http://www.w3.org/Graphics/SVG/1.1/DTD/svg11.dtd">
<!-- Generated by graphviz version 2.43.0 (0)
 -->
<!-- Title: src/core/peripherals/peripheral.hpp Pages: 1 -->
<svg width="2334pt" height="307pt"
 viewBox="0.00 0.00 2334.00 307.00" xmlns="http://www.w3.org/2000/svg" xmlns:xlink="http://www.w3.org/1999/xlink">
<g id="graph0" class="graph" transform="scale(1 1) rotate(0) translate(4 303)">
<title>src/core/peripherals/peripheral.hpp</title>
<!-- Node1 -->
<g id="node1" class="node">
<title>Node1</title>
<g id="a_node1"><a xlink:title="This file defines an interface for a memory&#45;mapped peripheral.">
<polygon fill="#bfbfbf" stroke="black" points="1098.5,-268.5 1098.5,-298.5 1211.5,-298.5 1211.5,-268.5 1098.5,-268.5"/>
<text text-anchor="start" x="1106.5" y="-286.5" font-family="Helvetica,sans-Serif" font-size="10.00">src/core/peripherals</text>
<text text-anchor="middle" x="1155" y="-275.5" font-family="Helvetica,sans-Serif" font-size="10.00">/peripheral.hpp</text>
</a>
</g>
</g>
<!-- Node2 -->
<g id="node2" class="node">
<title>Node2</title>
<g id="a_node2"><a xlink:href="bus_8hpp.html" target="_top" xlink:title="This file defines an interface the CPU uses to access different memory&#45;mapped peripherals.">
<polygon fill="none" stroke="black" points="354,-207 354,-226 450,-226 450,-207 354,-207"/>
<text text-anchor="middle" x="402" y="-214" font-family="Helvetica,sans-Serif" font-size="10.00">src/core/bus.hpp</text>
</a>
</g>
</g>
<!-- Node1&#45;&gt;Node2 -->
<g id="edge1" class="edge">
<title>Node1&#45;&gt;Node2</title>
<path fill="none" stroke="midnightblue" d="M1088,-276.72C938.46,-263.81 580.4,-232.9 450.3,-221.67"/>
<polygon fill="midnightblue" stroke="midnightblue" points="1088.14,-280.24 1098.4,-277.61 1088.74,-273.27 1088.14,-280.24"/>
</g>
<!-- Node5 -->
<g id="node5" class="node">
<title>Node5</title>
<g id="a_node5"><a xlink:href="control__window_8hpp.html" target="_top" xlink:title=" ">
<polygon fill="none" stroke="black" points="766.5,-67.5 766.5,-97.5 897.5,-97.5 897.5,-67.5 766.5,-67.5"/>
<text text-anchor="start" x="774.5" y="-85.5" font-family="Helvetica,sans-Serif" font-size="10.00">src/gui/windows/control</text>
<text text-anchor="middle" x="832" y="-74.5" font-family="Helvetica,sans-Serif" font-size="10.00">_window.hpp</text>
</a>
</g>
</g>
<!-- Node1&#45;&gt;Node5 -->
<g id="edge55" class="edge">
<title>Node1&#45;&gt;Node5</title>
<path fill="none" stroke="midnightblue" d="M1110.79,-264.47C1063,-243.95 985.67,-207.68 926,-165 896.13,-143.64 864.48,-114.71 846.59,-97.68"/>
<polygon fill="midnightblue" stroke="midnightblue" points="1109.66,-267.79 1120.23,-268.49 1112.4,-261.35 1109.66,-267.79"/>
</g>
<!-- Node17 -->
<g id="node17" class="node">
<title>Node17</title>
<g id="a_node17"><a xlink:href="arm__timer_8hpp.html" target="_top" xlink:title="This file defines the ARM timer used in BCM2835.">
<polygon fill="none" stroke="black" points="935.5,-134.5 935.5,-164.5 1048.5,-164.5 1048.5,-134.5 935.5,-134.5"/>
<text text-anchor="start" x="943.5" y="-152.5" font-family="Helvetica,sans-Serif" font-size="10.00">src/core/peripherals</text>
<text text-anchor="middle" x="992" y="-141.5" font-family="Helvetica,sans-Serif" font-size="10.00">/arm_timer.hpp</text>
</a>
</g>
</g>
<!-- Node1&#45;&gt;Node17 -->
<g id="edge24" class="edge">
<title>Node1&#45;&gt;Node17</title>
<path fill="none" stroke="midnightblue" d="M1122.95,-262.89C1109.07,-253.97 1092.86,-242.97 1079,-232 1051.41,-210.16 1022.1,-181.39 1005.52,-164.52"/>
<polygon fill="midnightblue" stroke="midnightblue" points="1121.37,-266.03 1131.69,-268.43 1125.12,-260.12 1121.37,-266.03"/>
</g>
<!-- Node21 -->
<g id="node21" class="node">
<title>Node21</title>
<g id="a_node21"><a xlink:href="gpio_8hpp.html" target="_top" xlink:title="This file defines the GPIO controller used in BCM2835.">
<polygon fill="none" stroke="black" points="1714.5,-134.5 1714.5,-164.5 1827.5,-164.5 1827.5,-134.5 1714.5,-134.5"/>
<text text-anchor="start" x="1722.5" y="-152.5" font-family="Helvetica,sans-Serif" font-size="10.00">src/core/peripherals</text>
<text text-anchor="middle" x="1771" y="-141.5" font-family="Helvetica,sans-Serif" font-size="10.00">/gpio.hpp</text>
</a>
</g>
</g>
<!-- Node1&#45;&gt;Node21 -->
<g id="edge29" class="edge">
<title>Node1&#45;&gt;Node21</title>
<path fill="none" stroke="midnightblue" d="M1221.63,-277.71C1298.08,-271.28 1426.84,-257.59 1535,-232 1608.82,-214.54 1692,-182.86 1737.24,-164.57"/>
<polygon fill="midnightblue" stroke="midnightblue" points="1221.34,-274.22 1211.66,-278.53 1221.91,-281.2 1221.34,-274.22"/>
</g>
<!-- Node27 -->
<g id="node27" class="node">
<title>Node27</title>
<g id="a_node27"><a xlink:href="interrupt__controller_8hpp.html" target="_top" xlink:title="This file defines the interrupt controller used in BCM2835.">
<polygon fill="none" stroke="black" points="1088,-201.5 1088,-231.5 1222,-231.5 1222,-201.5 1088,-201.5"/>
<text text-anchor="start" x="1096" y="-219.5" font-family="Helvetica,sans-Serif" font-size="10.00">src/core/peripherals</text>
<text text-anchor="middle" x="1155" y="-208.5" font-family="Helvetica,sans-Serif" font-size="10.00">/interrupt_controller.hpp</text>
</a>
</g>
</g>
<!-- Node1&#45;&gt;Node27 -->
<g id="edge37" class="edge">
<title>Node1&#45;&gt;Node27</title>
<path fill="none" stroke="midnightblue" d="M1155,-258.11C1155,-249.15 1155,-239.32 1155,-231.58"/>
<polygon fill="midnightblue" stroke="midnightblue" points="1151.5,-258.4 1155,-268.4 1158.5,-258.4 1151.5,-258.4"/>
</g>
<!-- Node31 -->
<g id="node31" class="node">
<title>Node31</title>
<g id="a_node31"><a xlink:href="monitor_8hpp.html" target="_top" xlink:title="This file defines an 80x25 8&#45;bit memory&#45;mapped monitor which is used as a debug output.">
<polygon fill="none" stroke="black" points="1412.5,-201.5 1412.5,-231.5 1525.5,-231.5 1525.5,-201.5 1412.5,-201.5"/>
<text text-anchor="start" x="1420.5" y="-219.5" font-family="Helvetica,sans-Serif" font-size="10.00">src/core/peripherals</text>
<text text-anchor="middle" x="1469" y="-208.5" font-family="Helvetica,sans-Serif" font-size="10.00">/monitor.hpp</text>
</a>
</g>
</g>
<!-- Node1&#45;&gt;Node31 -->
<g id="edge45" class="edge">
<title>Node1&#45;&gt;Node31</title>
<path fill="none" stroke="midnightblue" d="M1221.8,-268.67C1278.42,-256.95 1358.75,-240.32 1412.3,-229.24"/>
<polygon fill="midnightblue" stroke="midnightblue" points="1220.95,-265.27 1211.86,-270.73 1222.36,-272.13 1220.95,-265.27"/>
</g>
<!-- Node35 -->
<g id="node35" class="node">
<title>Node35</title>
<g id="a_node35"><a xlink:href="ram_8hpp.html" target="_top" xlink:title="This file defines the RAM (random access memory) used in BCM2835.">
<polygon fill="none" stroke="black" points="1913.5,-201.5 1913.5,-231.5 2026.5,-231.5 2026.5,-201.5 1913.5,-201.5"/>
<text text-anchor="start" x="1921.5" y="-219.5" font-family="Helvetica,sans-Serif" font-size="10.00">src/core/peripherals</text>
<text text-anchor="middle" x="1970" y="-208.5" font-family="Helvetica,sans-Serif" font-size="10.00">/ram.hpp</text>
</a>
</g>
</g>
<!-- Node1&#45;&gt;Node35 -->
<g id="edge50" class="edge">
<title>Node1&#45;&gt;Node35</title>
<path fill="none" stroke="midnightblue" d="M1221.64,-277.19C1378.23,-264.7 1767.41,-233.66 1913.44,-222.01"/>
<polygon fill="midnightblue" stroke="midnightblue" points="1221.35,-273.7 1211.66,-277.98 1221.91,-280.67 1221.35,-273.7"/>
</g>
<!-- Node3 -->
<g id="node3" class="node">
<title>Node3</title>
<g id="a_node3"><a xlink:href="core_8hpp.html" target="_top" xlink:title="This file defines a class that represents a CPU core (arm1176jzf_s).">
<polygon fill="none" stroke="black" points="490.5,-134.5 490.5,-164.5 603.5,-164.5 603.5,-134.5 490.5,-134.5"/>
<text text-anchor="start" x="498.5" y="-152.5" font-family="Helvetica,sans-Serif" font-size="10.00">src/core/arm1176jzf</text>
<text text-anchor="middle" x="547" y="-141.5" font-family="Helvetica,sans-Serif" font-size="10.00">_s/core.hpp</text>
</a>
</g>
</g>
<!-- Node2&#45;&gt;Node3 -->
<g id="edge2" class="edge">
<title>Node2&#45;&gt;Node3</title>
<path fill="none" stroke="midnightblue" d="M430.4,-202.77C454.95,-191.77 490.36,-175.89 515.71,-164.53"/>
<polygon fill="midnightblue" stroke="midnightblue" points="428.95,-199.58 421.25,-206.87 431.81,-205.97 428.95,-199.58"/>
</g>
<!-- Node8 -->
<g id="node8" class="node">
<title>Node8</title>
<g id="a_node8"><a xlink:href="file__window_8hpp.html" target="_top" xlink:title=" ">
<polygon fill="none" stroke="black" points="345.5,-67.5 345.5,-97.5 458.5,-97.5 458.5,-67.5 345.5,-67.5"/>
<text text-anchor="start" x="353.5" y="-85.5" font-family="Helvetica,sans-Serif" font-size="10.00">src/gui/windows/file</text>
<text text-anchor="middle" x="402" y="-74.5" font-family="Helvetica,sans-Serif" font-size="10.00">_window.hpp</text>
</a>
</g>
</g>
<!-- Node2&#45;&gt;Node8 -->
<g id="edge23" class="edge">
<title>Node2&#45;&gt;Node8</title>
<path fill="none" stroke="midnightblue" d="M402,-196.53C402,-169.81 402,-121.69 402,-97.78"/>
<polygon fill="midnightblue" stroke="midnightblue" points="398.5,-196.84 402,-206.84 405.5,-196.84 398.5,-196.84"/>
</g>
<!-- Node14 -->
<g id="node14" class="node">
<title>Node14</title>
<g id="a_node14"><a xlink:href="bus_8cpp.html" target="_top" xlink:title="This file implements the interface defined in bus.hpp.">
<polygon fill="none" stroke="black" points="101.5,-140 101.5,-159 196.5,-159 196.5,-140 101.5,-140"/>
<text text-anchor="middle" x="149" y="-147" font-family="Helvetica,sans-Serif" font-size="10.00">src/core/bus.cpp</text>
</a>
</g>
</g>
<!-- Node2&#45;&gt;Node14 -->
<g id="edge16" class="edge">
<title>Node2&#45;&gt;Node14</title>
<path fill="none" stroke="midnightblue" d="M358.6,-204.41C318.68,-194.2 257.84,-178.61 205,-165 197.51,-163.07 189.46,-160.99 181.87,-159.02"/>
<polygon fill="midnightblue" stroke="midnightblue" points="357.98,-207.86 368.53,-206.95 359.71,-201.08 357.98,-207.86"/>
</g>
<!-- Node15 -->
<g id="node15" class="node">
<title>Node15</title>
<g id="a_node15"><a xlink:href="elf__loader_8hpp.html" target="_top" xlink:title="This file defines the functionality of an ELF loader.">
<polygon fill="none" stroke="black" points="214.5,-134.5 214.5,-164.5 309.5,-164.5 309.5,-134.5 214.5,-134.5"/>
<text text-anchor="start" x="222.5" y="-152.5" font-family="Helvetica,sans-Serif" font-size="10.00">src/core/utils/elf</text>
<text text-anchor="middle" x="262" y="-141.5" font-family="Helvetica,sans-Serif" font-size="10.00">_loader.hpp</text>
</a>
</g>
</g>
<!-- Node2&#45;&gt;Node15 -->
<g id="edge17" class="edge">
<title>Node2&#45;&gt;Node15</title>
<path fill="none" stroke="midnightblue" d="M374.26,-202.62C350.58,-191.63 316.58,-175.84 292.21,-164.53"/>
<polygon fill="midnightblue" stroke="midnightblue" points="372.87,-205.83 383.41,-206.87 375.81,-199.48 372.87,-205.83"/>
</g>
<!-- Node4 -->
<g id="node4" class="node">
<title>Node4</title>
<g id="a_node4"><a xlink:href="core_8cpp.html" target="_top" xlink:title="This file implements the CCPU_Core class defined in core.hpp.">
<polygon fill="none" stroke="black" points="635.5,-67.5 635.5,-97.5 748.5,-97.5 748.5,-67.5 635.5,-67.5"/>
<text text-anchor="start" x="643.5" y="-85.5" font-family="Helvetica,sans-Serif" font-size="10.00">src/core/arm1176jzf</text>
<text text-anchor="middle" x="692" y="-74.5" font-family="Helvetica,sans-Serif" font-size="10.00">_s/core.cpp</text>
</a>
</g>
</g>
<!-- Node3&#45;&gt;Node4 -->
<g id="edge3" class="edge">
<title>Node3&#45;&gt;Node4</title>
<path fill="none" stroke="midnightblue" d="M587.67,-130.27C610.76,-119.92 639.24,-107.15 660.6,-97.58"/>
<polygon fill="midnightblue" stroke="midnightblue" points="586.16,-127.11 578.46,-134.4 589.02,-133.5 586.16,-127.11"/>
</g>
<!-- Node3&#45;&gt;Node5 -->
<g id="edge4" class="edge">
<title>Node3&#45;&gt;Node5</title>
<path fill="none" stroke="midnightblue" d="M613.52,-133.33C660.95,-122.51 724.27,-108.07 770.52,-97.52"/>
<polygon fill="midnightblue" stroke="midnightblue" points="612.62,-129.94 603.65,-135.58 614.18,-136.77 612.62,-129.94"/>
</g>
<!-- Node3&#45;&gt;Node8 -->
<g id="edge7" class="edge">
<title>Node3&#45;&gt;Node8</title>
<path fill="none" stroke="midnightblue" d="M506.33,-130.27C483.24,-119.92 454.76,-107.15 433.4,-97.58"/>
<polygon fill="midnightblue" stroke="midnightblue" points="504.98,-133.5 515.54,-134.4 507.84,-127.11 504.98,-133.5"/>
</g>
<!-- Node10 -->
<g id="node10" class="node">
<title>Node10</title>
<g id="a_node10"><a xlink:href="registers__window_8hpp.html" target="_top" xlink:title=" ">
<polygon fill="none" stroke="black" points="477,-67.5 477,-97.5 617,-97.5 617,-67.5 477,-67.5"/>
<text text-anchor="start" x="485" y="-85.5" font-family="Helvetica,sans-Serif" font-size="10.00">src/gui/windows/registers</text>
<text text-anchor="middle" x="547" y="-74.5" font-family="Helvetica,sans-Serif" font-size="10.00">_window.hpp</text>
</a>
</g>
</g>
<!-- Node3&#45;&gt;Node10 -->
<g id="edge10" class="edge">
<title>Node3&#45;&gt;Node10</title>
<path fill="none" stroke="midnightblue" d="M547,-124.11C547,-115.15 547,-105.32 547,-97.58"/>
<polygon fill="midnightblue" stroke="midnightblue" points="543.5,-124.4 547,-134.4 550.5,-124.4 543.5,-124.4"/>
</g>
<!-- Node12 -->
<g id="node12" class="node">
<title>Node12</title>
<g id="a_node12"><a xlink:href="source__code__window_8hpp.html" target="_top" xlink:title=" ">
<polygon fill="none" stroke="black" points="197,-67.5 197,-97.5 327,-97.5 327,-67.5 197,-67.5"/>
<text text-anchor="start" x="205" y="-85.5" font-family="Helvetica,sans-Serif" font-size="10.00">src/gui/windows/source</text>
<text text-anchor="middle" x="262" y="-74.5" font-family="Helvetica,sans-Serif" font-size="10.00">_code_window.hpp</text>
</a>
</g>
</g>
<!-- Node3&#45;&gt;Node12 -->
<g id="edge13" class="edge">
<title>Node3&#45;&gt;Node12</title>
<path fill="none" stroke="midnightblue" d="M480.48,-133.33C433.05,-122.51 369.73,-108.07 323.48,-97.52"/>
<polygon fill="midnightblue" stroke="midnightblue" points="479.82,-136.77 490.35,-135.58 481.38,-129.94 479.82,-136.77"/>
</g>
<!-- Node6 -->
<g id="node6" class="node">
<title>Node6</title>
<g id="a_node6"><a xlink:href="gui_8cpp.html" target="_top" xlink:title=" ">
<polygon fill="none" stroke="black" points="1232.5,-6 1232.5,-25 1319.5,-25 1319.5,-6 1232.5,-6"/>
<text text-anchor="middle" x="1276" y="-13" font-family="Helvetica,sans-Serif" font-size="10.00">src/gui/gui.cpp</text>
</a>
</g>
</g>
<!-- Node5&#45;&gt;Node6 -->
<g id="edge5" class="edge">
<title>Node5&#45;&gt;Node6</title>
<path fill="none" stroke="midnightblue" d="M907.84,-66.92C1031.51,-46.74 1165.1,-29.85 1232.43,-21.68"/>
<polygon fill="midnightblue" stroke="midnightblue" points="907.11,-63.49 897.81,-68.56 908.25,-70.4 907.11,-63.49"/>
</g>
<!-- Node7 -->
<g id="node7" class="node">
<title>Node7</title>
<g id="a_node7"><a xlink:href="control__window_8cpp.html" target="_top" xlink:title=" ">
<polygon fill="none" stroke="black" points="149.5,-0.5 149.5,-30.5 280.5,-30.5 280.5,-0.5 149.5,-0.5"/>
<text text-anchor="start" x="157.5" y="-18.5" font-family="Helvetica,sans-Serif" font-size="10.00">src/gui/windows/control</text>
<text text-anchor="middle" x="215" y="-7.5" font-family="Helvetica,sans-Serif" font-size="10.00">_window.cpp</text>
</a>
</g>
</g>
<!-- Node5&#45;&gt;Node7 -->
<g id="edge6" class="edge">
<title>Node5&#45;&gt;Node7</title>
<path fill="none" stroke="midnightblue" d="M756.06,-66.97C569.26,-41.45 519.53,-49.84 336,-31 318.01,-29.15 298.53,-26.92 280.58,-24.77"/>
<polygon fill="midnightblue" stroke="midnightblue" points="755.83,-70.47 766.22,-68.37 756.79,-63.54 755.83,-70.47"/>
</g>
<!-- Node8&#45;&gt;Node6 -->
<g id="edge8" class="edge">
<title>Node8&#45;&gt;Node6</title>
<path fill="none" stroke="midnightblue" d="M468.86,-67.04C738.31,-30.25 809.75,-48.63 1077,-31 1130.4,-27.48 1191.83,-22.92 1232.14,-19.87"/>
<polygon fill="midnightblue" stroke="midnightblue" points="468.21,-63.6 458.78,-68.43 469.16,-70.53 468.21,-63.6"/>
</g>
<!-- Node9 -->
<g id="node9" class="node">
<title>Node9</title>
<g id="a_node9"><a xlink:href="file__window_8cpp.html" target="_top" xlink:title=" ">
<polygon fill="none" stroke="black" points="345.5,-0.5 345.5,-30.5 458.5,-30.5 458.5,-0.5 345.5,-0.5"/>
<text text-anchor="start" x="353.5" y="-18.5" font-family="Helvetica,sans-Serif" font-size="10.00">src/gui/windows/file</text>
<text text-anchor="middle" x="402" y="-7.5" font-family="Helvetica,sans-Serif" font-size="10.00">_window.cpp</text>
</a>
</g>
</g>
<!-- Node8&#45;&gt;Node9 -->
<g id="edge9" class="edge">
<title>Node8&#45;&gt;Node9</title>
<path fill="none" stroke="midnightblue" d="M402,-57.11C402,-48.15 402,-38.32 402,-30.58"/>
<polygon fill="midnightblue" stroke="midnightblue" points="398.5,-57.4 402,-67.4 405.5,-57.4 398.5,-57.4"/>
</g>
<!-- Node10&#45;&gt;Node6 -->
<g id="edge11" class="edge">
<title>Node10&#45;&gt;Node6</title>
<path fill="none" stroke="midnightblue" d="M627.45,-67.1C704.4,-59.45 1099.07,-29.75 1232.17,-19.78"/>
<polygon fill="midnightblue" stroke="midnightblue" points="626.71,-63.66 617.15,-68.23 627.47,-70.62 626.71,-63.66"/>
</g>
<!-- Node11 -->
<g id="node11" class="node">
<title>Node11</title>
<g id="a_node11"><a xlink:href="registers__window_8cpp.html" target="_top" xlink:title=" ">
<polygon fill="none" stroke="black" points="477,-0.5 477,-30.5 617,-30.5 617,-0.5 477,-0.5"/>
<text text-anchor="start" x="485" y="-18.5" font-family="Helvetica,sans-Serif" font-size="10.00">src/gui/windows/registers</text>
<text text-anchor="middle" x="547" y="-7.5" font-family="Helvetica,sans-Serif" font-size="10.00">_window.cpp</text>
</a>
</g>
</g>
<!-- Node10&#45;&gt;Node11 -->
<g id="edge12" class="edge">
<title>Node10&#45;&gt;Node11</title>
<path fill="none" stroke="midnightblue" d="M547,-57.11C547,-48.15 547,-38.32 547,-30.58"/>
<polygon fill="midnightblue" stroke="midnightblue" points="543.5,-57.4 547,-67.4 550.5,-57.4 543.5,-57.4"/>
</g>
<!-- Node12&#45;&gt;Node6 -->
<g id="edge14" class="edge">
<title>Node12&#45;&gt;Node6</title>
<path fill="none" stroke="midnightblue" d="M337.55,-66.93C665.07,-27.68 751.26,-50.78 1077,-31 1130.42,-27.76 1191.84,-23.15 1232.15,-20"/>
<polygon fill="midnightblue" stroke="midnightblue" points="336.8,-63.5 327.29,-68.17 337.64,-70.45 336.8,-63.5"/>
</g>
<!-- Node13 -->
<g id="node13" class="node">
<title>Node13</title>
<g id="a_node13"><a xlink:href="source__code__window_8cpp.html" target="_top" xlink:title=" ">
<polygon fill="none" stroke="black" points="0,-0.5 0,-30.5 130,-30.5 130,-0.5 0,-0.5"/>
<text text-anchor="start" x="8" y="-18.5" font-family="Helvetica,sans-Serif" font-size="10.00">src/gui/windows/source</text>
<text text-anchor="middle" x="65" y="-7.5" font-family="Helvetica,sans-Serif" font-size="10.00">_code_window.cpp</text>
</a>
</g>
</g>
<!-- Node12&#45;&gt;Node13 -->
<g id="edge15" class="edge">
<title>Node12&#45;&gt;Node13</title>
<path fill="none" stroke="midnightblue" d="M209.65,-64.23C177.78,-53.71 137.59,-40.45 107.66,-30.58"/>
<polygon fill="midnightblue" stroke="midnightblue" points="208.66,-67.59 219.25,-67.4 210.85,-60.94 208.66,-67.59"/>
</g>
<!-- Node15&#45;&gt;Node7 -->
<g id="edge19" class="edge">
<title>Node15&#45;&gt;Node7</title>
<path fill="none" stroke="midnightblue" d="M219.18,-129.19C206.86,-121.38 194.9,-111.06 188,-98 176.23,-75.73 191.77,-47.34 203.69,-30.62"/>
<polygon fill="midnightblue" stroke="midnightblue" points="217.75,-132.41 228.15,-134.44 221.29,-126.37 217.75,-132.41"/>
</g>
<!-- Node15&#45;&gt;Node8 -->
<g id="edge20" class="edge">
<title>Node15&#45;&gt;Node8</title>
<path fill="none" stroke="midnightblue" d="M301.57,-130.13C323.81,-119.8 351.15,-107.11 371.68,-97.58"/>
<polygon fill="midnightblue" stroke="midnightblue" points="299.97,-127.01 292.38,-134.4 302.92,-133.36 299.97,-127.01"/>
</g>
<!-- Node15&#45;&gt;Node12 -->
<g id="edge22" class="edge">
<title>Node15&#45;&gt;Node12</title>
<path fill="none" stroke="midnightblue" d="M262,-124.11C262,-115.15 262,-105.32 262,-97.58"/>
<polygon fill="midnightblue" stroke="midnightblue" points="258.5,-124.4 262,-134.4 265.5,-124.4 258.5,-124.4"/>
</g>
<!-- Node15&#45;&gt;Node13 -->
<g id="edge21" class="edge">
<title>Node15&#45;&gt;Node13</title>
<path fill="none" stroke="midnightblue" d="M204.27,-134.12C126.45,-119.74 82.33,-155.24 36,-98 19.75,-77.92 38.43,-48.03 52.43,-30.58"/>
<polygon fill="midnightblue" stroke="midnightblue" points="203.94,-137.63 214.45,-136.26 205.38,-130.78 203.94,-137.63"/>
</g>
<!-- Node16 -->
<g id="node16" class="node">
<title>Node16</title>
<g id="a_node16"><a xlink:href="elf__loader_8cpp.html" target="_top" xlink:title="This file implements the functionality of an ELF loader defined in elf_loader.hpp.">
<polygon fill="none" stroke="black" points="45.5,-67.5 45.5,-97.5 140.5,-97.5 140.5,-67.5 45.5,-67.5"/>
<text text-anchor="start" x="53.5" y="-85.5" font-family="Helvetica,sans-Serif" font-size="10.00">src/core/utils/elf</text>
<text text-anchor="middle" x="93" y="-74.5" font-family="Helvetica,sans-Serif" font-size="10.00">_loader.cpp</text>
</a>
</g>
</g>
<!-- Node15&#45;&gt;Node16 -->
<g id="edge18" class="edge">
<title>Node15&#45;&gt;Node16</title>
<path fill="none" stroke="midnightblue" d="M215.67,-130.68C188.57,-120.26 154.83,-107.28 129.6,-97.58"/>
<polygon fill="midnightblue" stroke="midnightblue" points="214.74,-134.07 225.33,-134.4 217.25,-127.54 214.74,-134.07"/>
</g>
<!-- Node18 -->
<g id="node18" class="node">
<title>Node18</title>
<g id="a_node18"><a xlink:href="arm__timer_8cpp.html" target="_top" xlink:title="This file implements the ARM timer used in BCM2835 as defined in arm_timer.hpp.">
<polygon fill="none" stroke="black" points="1086.5,-67.5 1086.5,-97.5 1199.5,-97.5 1199.5,-67.5 1086.5,-67.5"/>
<text text-anchor="start" x="1094.5" y="-85.5" font-family="Helvetica,sans-Serif" font-size="10.00">src/core/peripherals</text>
<text text-anchor="middle" x="1143" y="-74.5" font-family="Helvetica,sans-Serif" font-size="10.00">/arm_timer.cpp</text>
</a>
</g>
</g>
<!-- Node17&#45;&gt;Node18 -->
<g id="edge25" class="edge">
<title>Node17&#45;&gt;Node18</title>
<path fill="none" stroke="midnightblue" d="M1034.03,-130.41C1058.14,-120.03 1087.95,-107.2 1110.3,-97.58"/>
<polygon fill="midnightblue" stroke="midnightblue" points="1032.57,-127.23 1024.76,-134.4 1035.33,-133.66 1032.57,-127.23"/>
</g>
<!-- Node19 -->
<g id="node19" class="node">
<title>Node19</title>
<g id="a_node19"><a xlink:href="arm__timer__window_8hpp.html" target="_top" xlink:title=" ">
<polygon fill="none" stroke="black" points="916,-67.5 916,-97.5 1068,-97.5 1068,-67.5 916,-67.5"/>
<text text-anchor="start" x="924" y="-85.5" font-family="Helvetica,sans-Serif" font-size="10.00">src/gui/windows/peripherals</text>
<text text-anchor="middle" x="992" y="-74.5" font-family="Helvetica,sans-Serif" font-size="10.00">/arm_timer_window.hpp</text>
</a>
</g>
</g>
<!-- Node17&#45;&gt;Node19 -->
<g id="edge26" class="edge">
<title>Node17&#45;&gt;Node19</title>
<path fill="none" stroke="midnightblue" d="M992,-124.11C992,-115.15 992,-105.32 992,-97.58"/>
<polygon fill="midnightblue" stroke="midnightblue" points="988.5,-124.4 992,-134.4 995.5,-124.4 988.5,-124.4"/>
</g>
<!-- Node19&#45;&gt;Node6 -->
<g id="edge27" class="edge">
<title>Node19&#45;&gt;Node6</title>
<path fill="none" stroke="midnightblue" d="M1063.1,-65.23C1118.86,-52.47 1194.24,-35.21 1238.74,-25.03"/>
<polygon fill="midnightblue" stroke="midnightblue" points="1062.24,-61.83 1053.27,-67.48 1063.8,-68.66 1062.24,-61.83"/>
</g>
<!-- Node20 -->
<g id="node20" class="node">
<title>Node20</title>
<g id="a_node20"><a xlink:href="arm__timer__window_8cpp.html" target="_top" xlink:title=" ">
<polygon fill="none" stroke="black" points="916,-0.5 916,-30.5 1068,-30.5 1068,-0.5 916,-0.5"/>
<text text-anchor="start" x="924" y="-18.5" font-family="Helvetica,sans-Serif" font-size="10.00">src/gui/windows/peripherals</text>
<text text-anchor="middle" x="992" y="-7.5" font-family="Helvetica,sans-Serif" font-size="10.00">/arm_timer_window.cpp</text>
</a>
</g>
</g>
<!-- Node19&#45;&gt;Node20 -->
<g id="edge28" class="edge">
<title>Node19&#45;&gt;Node20</title>
<path fill="none" stroke="midnightblue" d="M992,-57.11C992,-48.15 992,-38.32 992,-30.58"/>
<polygon fill="midnightblue" stroke="midnightblue" points="988.5,-57.4 992,-67.4 995.5,-57.4 988.5,-57.4"/>
</g>
<!-- Node22 -->
<g id="node22" class="node">
<title>Node22</title>
<g id="a_node22"><a xlink:href="gpio_8cpp.html" target="_top" xlink:title="This file implements the GPIO controller used in BCM2835 (defined in gpio.hpp).">
<polygon fill="none" stroke="black" points="1658.5,-67.5 1658.5,-97.5 1771.5,-97.5 1771.5,-67.5 1658.5,-67.5"/>
<text text-anchor="start" x="1666.5" y="-85.5" font-family="Helvetica,sans-Serif" font-size="10.00">src/core/peripherals</text>
<text text-anchor="middle" x="1715" y="-74.5" font-family="Helvetica,sans-Serif" font-size="10.00">/gpio.cpp</text>
</a>
</g>
</g>
<!-- Node21&#45;&gt;Node22 -->
<g id="edge30" class="edge">
<title>Node21&#45;&gt;Node22</title>
<path fill="none" stroke="midnightblue" d="M1752.25,-126.74C1743.96,-117.12 1734.46,-106.09 1727.13,-97.58"/>
<polygon fill="midnightblue" stroke="midnightblue" points="1749.67,-129.1 1758.85,-134.4 1754.97,-124.54 1749.67,-129.1"/>
</g>
<!-- Node23 -->
<g id="node23" class="node">
<title>Node23</title>
<g id="a_node23"><a xlink:href="button__window_8hpp.html" target="_top" xlink:title=" ">
<polygon fill="none" stroke="black" points="1998,-67.5 1998,-97.5 2156,-97.5 2156,-67.5 1998,-67.5"/>
<text text-anchor="start" x="2006" y="-85.5" font-family="Helvetica,sans-Serif" font-size="10.00">src/gui/windows/peripherals</text>
<text text-anchor="middle" x="2077" y="-74.5" font-family="Helvetica,sans-Serif" font-size="10.00">/external/button_window.hpp</text>
</a>
</g>
</g>
<!-- Node21&#45;&gt;Node23 -->
<g id="edge31" class="edge">
<title>Node21&#45;&gt;Node23</title>
<path fill="none" stroke="midnightblue" d="M1837.84,-134.3C1889.18,-123.4 1959.73,-108.41 2010.89,-97.54"/>
<polygon fill="midnightblue" stroke="midnightblue" points="1836.89,-130.92 1827.84,-136.43 1838.35,-137.77 1836.89,-130.92"/>
</g>
<!-- Node25 -->
<g id="node25" class="node">
<title>Node25</title>
<g id="a_node25"><a xlink:href="gpio__window_8hpp.html" target="_top" xlink:title=" ">
<polygon fill="none" stroke="black" points="1790,-67.5 1790,-97.5 1942,-97.5 1942,-67.5 1790,-67.5"/>
<text text-anchor="start" x="1798" y="-85.5" font-family="Helvetica,sans-Serif" font-size="10.00">src/gui/windows/peripherals</text>
<text text-anchor="middle" x="1866" y="-74.5" font-family="Helvetica,sans-Serif" font-size="10.00">/gpio_window.hpp</text>
</a>
</g>
</g>
<!-- Node21&#45;&gt;Node25 -->
<g id="edge34" class="edge">
<title>Node21&#45;&gt;Node25</title>
<path fill="none" stroke="midnightblue" d="M1799.89,-128.73C1814.59,-118.68 1832.11,-106.68 1845.43,-97.58"/>
<polygon fill="midnightblue" stroke="midnightblue" points="1797.89,-125.86 1791.61,-134.4 1801.84,-131.64 1797.89,-125.86"/>
</g>
<!-- Node23&#45;&gt;Node6 -->
<g id="edge32" class="edge">
<title>Node23&#45;&gt;Node6</title>
<path fill="none" stroke="midnightblue" d="M1987.86,-67.45C1986.57,-67.29 1985.28,-67.15 1984,-67 1733.3,-38.57 1430.72,-23.31 1319.62,-18.34"/>
<polygon fill="midnightblue" stroke="midnightblue" points="1987.56,-70.94 1997.91,-68.71 1988.43,-63.99 1987.56,-70.94"/>
</g>
<!-- Node24 -->
<g id="node24" class="node">
<title>Node24</title>
<g id="a_node24"><a xlink:href="button__window_8cpp.html" target="_top" xlink:title=" ">
<polygon fill="none" stroke="black" points="1998.5,-0.5 1998.5,-30.5 2155.5,-30.5 2155.5,-0.5 1998.5,-0.5"/>
<text text-anchor="start" x="2006.5" y="-18.5" font-family="Helvetica,sans-Serif" font-size="10.00">src/gui/windows/peripherals</text>
<text text-anchor="middle" x="2077" y="-7.5" font-family="Helvetica,sans-Serif" font-size="10.00">/external/button_window.cpp</text>
</a>
</g>
</g>
<!-- Node23&#45;&gt;Node24 -->
<g id="edge33" class="edge">
<title>Node23&#45;&gt;Node24</title>
<path fill="none" stroke="midnightblue" d="M2077,-57.11C2077,-48.15 2077,-38.32 2077,-30.58"/>
<polygon fill="midnightblue" stroke="midnightblue" points="2073.5,-57.4 2077,-67.4 2080.5,-57.4 2073.5,-57.4"/>
</g>
<!-- Node25&#45;&gt;Node6 -->
<g id="edge35" class="edge">
<title>Node25&#45;&gt;Node6</title>
<path fill="none" stroke="midnightblue" d="M1779.61,-66.87C1603.43,-43.38 1405.74,-26.65 1319.69,-19.84"/>
<polygon fill="midnightblue" stroke="midnightblue" points="1779.21,-70.34 1789.58,-68.21 1780.14,-63.41 1779.21,-70.34"/>
</g>
<!-- Node26 -->
<g id="node26" class="node">
<title>Node26</title>
<g id="a_node26"><a xlink:href="gpio__window_8cpp.html" target="_top" xlink:title=" ">
<polygon fill="none" stroke="black" points="1790,-0.5 1790,-30.5 1942,-30.5 1942,-0.5 1790,-0.5"/>
<text text-anchor="start" x="1798" y="-18.5" font-family="Helvetica,sans-Serif" font-size="10.00">src/gui/windows/peripherals</text>
<text text-anchor="middle" x="1866" y="-7.5" font-family="Helvetica,sans-Serif" font-size="10.00">/gpio_window.cpp</text>
</a>
</g>
</g>
<!-- Node25&#45;&gt;Node26 -->
<g id="edge36" class="edge">
<title>Node25&#45;&gt;Node26</title>
<path fill="none" stroke="midnightblue" d="M1866,-57.11C1866,-48.15 1866,-38.32 1866,-30.58"/>
<polygon fill="midnightblue" stroke="midnightblue" points="1862.5,-57.4 1866,-67.4 1869.5,-57.4 1862.5,-57.4"/>
</g>
<!-- Node27&#45;&gt;Node3 -->
<g id="edge38" class="edge">
<title>Node27&#45;&gt;Node3</title>
<path fill="none" stroke="midnightblue" d="M1077.72,-207.24C953.67,-193.98 712.94,-168.24 603.55,-156.55"/>
<polygon fill="midnightblue" stroke="midnightblue" points="1077.59,-210.74 1087.9,-208.33 1078.33,-203.78 1077.59,-210.74"/>
</g>
<!-- Node27&#45;&gt;Node17 -->
<g id="edge39" class="edge">
<title>Node27&#45;&gt;Node17</title>
<path fill="none" stroke="midnightblue" d="M1110.32,-197.68C1084.17,-187.26 1051.63,-174.28 1027.3,-164.58"/>
<polygon fill="midnightblue" stroke="midnightblue" points="1109.05,-200.94 1119.63,-201.4 1111.64,-194.44 1109.05,-200.94"/>
</g>
<!-- Node27&#45;&gt;Node21 -->
<g id="edge40" class="edge">
<title>Node27&#45;&gt;Node21</title>
<path fill="none" stroke="midnightblue" d="M1232.26,-211.45C1339.02,-205.17 1537.48,-190.99 1705,-165 1708.01,-164.53 1711.1,-164.01 1714.2,-163.45"/>
<polygon fill="midnightblue" stroke="midnightblue" points="1231.99,-207.96 1222.21,-212.04 1232.4,-214.95 1231.99,-207.96"/>
</g>
<!-- Node28 -->
<g id="node28" class="node">
<title>Node28</title>
<g id="a_node28"><a xlink:href="interrupt__controller_8cpp.html" target="_top" xlink:title="This file implements the interrupt controller used in BCM2835 (defined in interrupt_controller....">
<polygon fill="none" stroke="black" points="1261.5,-134.5 1261.5,-164.5 1394.5,-164.5 1394.5,-134.5 1261.5,-134.5"/>
<text text-anchor="start" x="1269.5" y="-152.5" font-family="Helvetica,sans-Serif" font-size="10.00">src/core/peripherals</text>
<text text-anchor="middle" x="1328" y="-141.5" font-family="Helvetica,sans-Serif" font-size="10.00">/interrupt_controller.cpp</text>
</a>
</g>
</g>
<!-- Node27&#45;&gt;Node28 -->
<g id="edge41" class="edge">
<title>Node27&#45;&gt;Node28</title>
<path fill="none" stroke="midnightblue" d="M1202.06,-197.82C1229.87,-187.37 1264.59,-174.32 1290.53,-164.58"/>
<polygon fill="midnightblue" stroke="midnightblue" points="1200.67,-194.6 1192.54,-201.4 1203.13,-201.16 1200.67,-194.6"/>
</g>
<!-- Node29 -->
<g id="node29" class="node">
<title>Node29</title>
<g id="a_node29"><a xlink:href="interrupt__controller__window_8hpp.html" target="_top" xlink:title=" ">
<polygon fill="none" stroke="black" points="1067,-134.5 1067,-164.5 1243,-164.5 1243,-134.5 1067,-134.5"/>
<text text-anchor="start" x="1075" y="-152.5" font-family="Helvetica,sans-Serif" font-size="10.00">src/gui/windows/peripherals</text>
<text text-anchor="middle" x="1155" y="-141.5" font-family="Helvetica,sans-Serif" font-size="10.00">/interrupt_controller_window.hpp</text>
</a>
</g>
</g>
<!-- Node27&#45;&gt;Node29 -->
<g id="edge42" class="edge">
<title>Node27&#45;&gt;Node29</title>
<path fill="none" stroke="midnightblue" d="M1155,-191.11C1155,-182.15 1155,-172.32 1155,-164.58"/>
<polygon fill="midnightblue" stroke="midnightblue" points="1151.5,-191.4 1155,-201.4 1158.5,-191.4 1151.5,-191.4"/>
</g>
<!-- Node29&#45;&gt;Node6 -->
<g id="edge43" class="edge">
<title>Node29&#45;&gt;Node6</title>
<path fill="none" stroke="midnightblue" d="M1246.48,-132.65C1315.01,-120.34 1397.83,-104.32 1403,-98 1432.09,-62.39 1361.61,-37.3 1314.4,-25.05"/>
<polygon fill="midnightblue" stroke="midnightblue" points="1245.71,-129.23 1236.48,-134.44 1246.94,-136.12 1245.71,-129.23"/>
</g>
<!-- Node30 -->
<g id="node30" class="node">
<title>Node30</title>
<g id="a_node30"><a xlink:href="interrupt__controller__window_8cpp.html" target="_top" xlink:title=" ">
<polygon fill="none" stroke="black" points="1218,-67.5 1218,-97.5 1394,-97.5 1394,-67.5 1218,-67.5"/>
<text text-anchor="start" x="1226" y="-85.5" font-family="Helvetica,sans-Serif" font-size="10.00">src/gui/windows/peripherals</text>
<text text-anchor="middle" x="1306" y="-74.5" font-family="Helvetica,sans-Serif" font-size="10.00">/interrupt_controller_window.cpp</text>
</a>
</g>
</g>
<!-- Node29&#45;&gt;Node30 -->
<g id="edge44" class="edge">
<title>Node29&#45;&gt;Node30</title>
<path fill="none" stroke="midnightblue" d="M1197.03,-130.41C1221.14,-120.03 1250.95,-107.2 1273.3,-97.58"/>
<polygon fill="midnightblue" stroke="midnightblue" points="1195.57,-127.23 1187.76,-134.4 1198.33,-133.66 1195.57,-127.23"/>
</g>
<!-- Node32 -->
<g id="node32" class="node">
<title>Node32</title>
<g id="a_node32"><a xlink:href="monitor_8cpp.html" target="_top" xlink:title="This file implements an 80x25 8&#45;bit memory&#45;mapped monitor which is used as a debug output.">
<polygon fill="none" stroke="black" points="1412.5,-134.5 1412.5,-164.5 1525.5,-164.5 1525.5,-134.5 1412.5,-134.5"/>
<text text-anchor="start" x="1420.5" y="-152.5" font-family="Helvetica,sans-Serif" font-size="10.00">src/core/peripherals</text>
<text text-anchor="middle" x="1469" y="-141.5" font-family="Helvetica,sans-Serif" font-size="10.00">/monitor.cpp</text>
</a>
</g>
</g>
<!-- Node31&#45;&gt;Node32 -->
<g id="edge46" class="edge">
<title>Node31&#45;&gt;Node32</title>
<path fill="none" stroke="midnightblue" d="M1469,-191.11C1469,-182.15 1469,-172.32 1469,-164.58"/>
<polygon fill="midnightblue" stroke="midnightblue" points="1465.5,-191.4 1469,-201.4 1472.5,-191.4 1465.5,-191.4"/>
</g>
<!-- Node33 -->
<g id="node33" class="node">
<title>Node33</title>
<g id="a_node33"><a xlink:href="monitor__window_8hpp.html" target="_top" xlink:title=" ">
<polygon fill="none" stroke="black" points="1544,-134.5 1544,-164.5 1696,-164.5 1696,-134.5 1544,-134.5"/>
<text text-anchor="start" x="1552" y="-152.5" font-family="Helvetica,sans-Serif" font-size="10.00">src/gui/windows/peripherals</text>
<text text-anchor="middle" x="1620" y="-141.5" font-family="Helvetica,sans-Serif" font-size="10.00">/monitor_window.hpp</text>
</a>
</g>
</g>
<!-- Node31&#45;&gt;Node33 -->
<g id="edge47" class="edge">
<title>Node31&#45;&gt;Node33</title>
<path fill="none" stroke="midnightblue" d="M1511.03,-197.41C1535.14,-187.03 1564.95,-174.2 1587.3,-164.58"/>
<polygon fill="midnightblue" stroke="midnightblue" points="1509.57,-194.23 1501.76,-201.4 1512.33,-200.66 1509.57,-194.23"/>
</g>
<!-- Node33&#45;&gt;Node6 -->
<g id="edge48" class="edge">
<title>Node33&#45;&gt;Node6</title>
<path fill="none" stroke="midnightblue" d="M1566.35,-131.26C1539.73,-122.21 1507.31,-110.43 1479,-98 1451.88,-86.09 1447.16,-78.82 1420,-67 1380.77,-49.92 1333.73,-34.3 1304.34,-25.08"/>
<polygon fill="midnightblue" stroke="midnightblue" points="1565.28,-134.59 1575.87,-134.47 1567.51,-127.96 1565.28,-134.59"/>
</g>
<!-- Node34 -->
<g id="node34" class="node">
<title>Node34</title>
<g id="a_node34"><a xlink:href="monitor__window_8cpp.html" target="_top" xlink:title=" ">
<polygon fill="none" stroke="black" points="1488,-67.5 1488,-97.5 1640,-97.5 1640,-67.5 1488,-67.5"/>
<text text-anchor="start" x="1496" y="-85.5" font-family="Helvetica,sans-Serif" font-size="10.00">src/gui/windows/peripherals</text>
<text text-anchor="middle" x="1564" y="-74.5" font-family="Helvetica,sans-Serif" font-size="10.00">/monitor_window.cpp</text>
</a>
</g>
</g>
<!-- Node33&#45;&gt;Node34 -->
<g id="edge49" class="edge">
<title>Node33&#45;&gt;Node34</title>
<path fill="none" stroke="midnightblue" d="M1601.25,-126.74C1592.96,-117.12 1583.46,-106.09 1576.13,-97.58"/>
<polygon fill="midnightblue" stroke="midnightblue" points="1598.67,-129.1 1607.85,-134.4 1603.97,-124.54 1598.67,-129.1"/>
</g>
<!-- Node36 -->
<g id="node36" class="node">
<title>Node36</title>
<g id="a_node36"><a xlink:href="ram_8cpp.html" target="_top" xlink:title="This file implements the RAM (random access memory) used in BCM2835.">
<polygon fill="none" stroke="black" points="2064.5,-134.5 2064.5,-164.5 2177.5,-164.5 2177.5,-134.5 2064.5,-134.5"/>
<text text-anchor="start" x="2072.5" y="-152.5" font-family="Helvetica,sans-Serif" font-size="10.00">src/core/peripherals</text>
<text text-anchor="middle" x="2121" y="-141.5" font-family="Helvetica,sans-Serif" font-size="10.00">/ram.cpp</text>
</a>
</g>
</g>
<!-- Node35&#45;&gt;Node36 -->
<g id="edge51" class="edge">
<title>Node35&#45;&gt;Node36</title>
<path fill="none" stroke="midnightblue" d="M2012.03,-197.41C2036.14,-187.03 2065.95,-174.2 2088.3,-164.58"/>
<polygon fill="midnightblue" stroke="midnightblue" points="2010.57,-194.23 2002.76,-201.4 2013.33,-200.66 2010.57,-194.23"/>
</g>
<!-- Node37 -->
<g id="node37" class="node">
<title>Node37</title>
<g id="a_node37"><a xlink:href="ram__window_8hpp.html" target="_top" xlink:title=" ">
<polygon fill="none" stroke="black" points="1894,-134.5 1894,-164.5 2046,-164.5 2046,-134.5 1894,-134.5"/>
<text text-anchor="start" x="1902" y="-152.5" font-family="Helvetica,sans-Serif" font-size="10.00">src/gui/windows/peripherals</text>
<text text-anchor="middle" x="1970" y="-141.5" font-family="Helvetica,sans-Serif" font-size="10.00">/ram_window.hpp</text>
</a>
</g>
</g>
<!-- Node35&#45;&gt;Node37 -->
<g id="edge52" class="edge">
<title>Node35&#45;&gt;Node37</title>
<path fill="none" stroke="midnightblue" d="M1970,-191.11C1970,-182.15 1970,-172.32 1970,-164.58"/>
<polygon fill="midnightblue" stroke="midnightblue" points="1966.5,-191.4 1970,-201.4 1973.5,-191.4 1966.5,-191.4"/>
</g>
<!-- Node37&#45;&gt;Node6 -->
<g id="edge53" class="edge">
<title>Node37&#45;&gt;Node6</title>
<path fill="none" stroke="midnightblue" d="M1971.42,-124.36C1971.08,-105.75 1967.24,-80.9 1951,-67 1903.14,-26.01 1461.59,-18.26 1319.69,-16.82"/>
<polygon fill="midnightblue" stroke="midnightblue" points="1967.92,-124.42 1971.28,-134.47 1974.92,-124.52 1967.92,-124.42"/>
</g>
<!-- Node38 -->
<g id="node38" class="node">
<title>Node38</title>
<g id="a_node38"><a xlink:href="ram__window_8cpp.html" target="_top" xlink:title=" ">
<polygon fill="none" stroke="black" points="2174,-67.5 2174,-97.5 2326,-97.5 2326,-67.5 2174,-67.5"/>
<text text-anchor="start" x="2182" y="-85.5" font-family="Helvetica,sans-Serif" font-size="10.00">src/gui/windows/peripherals</text>
<text text-anchor="middle" x="2250" y="-74.5" font-family="Helvetica,sans-Serif" font-size="10.00">/ram_window.cpp</text>
</a>
</g>
</g>
<!-- Node37&#45;&gt;Node38 -->
<g id="edge54" class="edge">
<title>Node37&#45;&gt;Node38</title>
<path fill="none" stroke="midnightblue" d="M2040.28,-132.19C2086.13,-121.54 2145.39,-107.78 2189.21,-97.61"/>
<polygon fill="midnightblue" stroke="midnightblue" points="2039.36,-128.81 2030.41,-134.48 2040.94,-135.62 2039.36,-128.81"/>
</g>
</g>
</svg>
