<?xml version="1.0" encoding="UTF-8" standalone="no"?>
<!DOCTYPE svg PUBLIC "-//W3C//DTD SVG 1.1//EN"
 "http://www.w3.org/Graphics/SVG/1.1/DTD/svg11.dtd">
<!-- Generated by graphviz version 2.43.0 (0)
 -->
<!-- Title: src/core/peripherals/peripheral.hpp Pages: 1 -->
<svg width="2315pt" height="307pt"
 viewBox="0.00 0.00 2315.00 307.00" xmlns="http://www.w3.org/2000/svg" xmlns:xlink="http://www.w3.org/1999/xlink">
<g id="graph0" class="graph" transform="scale(1 1) rotate(0) translate(4 303)">
<title>src/core/peripherals/peripheral.hpp</title>
<!-- Node1 -->
<g id="node1" class="node">
<title>Node1</title>
<g id="a_node1"><a xlink:title="This file defines an interface for a memory&#45;mapped peripheral.">
<polygon fill="#bfbfbf" stroke="black" points="1275,-268.5 1275,-298.5 1388,-298.5 1388,-268.5 1275,-268.5"/>
<text text-anchor="start" x="1283" y="-286.5" font-family="Helvetica,sans-Serif" font-size="10.00">src/core/peripherals</text>
<text text-anchor="middle" x="1331.5" y="-275.5" font-family="Helvetica,sans-Serif" font-size="10.00">/peripheral.hpp</text>
</a>
</g>
</g>
<!-- Node2 -->
<g id="node2" class="node">
<title>Node2</title>
<g id="a_node2"><a xlink:href="bus_8hpp.html" target="_top" xlink:title="This file defines an interface the CPU uses to access different memory&#45;mapped peripherals.">
<polygon fill="none" stroke="black" points="308.5,-207 308.5,-226 404.5,-226 404.5,-207 308.5,-207"/>
<text text-anchor="middle" x="356.5" y="-214" font-family="Helvetica,sans-Serif" font-size="10.00">src/core/bus.hpp</text>
</a>
</g>
</g>
<!-- Node1&#45;&gt;Node2 -->
<g id="edge1" class="edge">
<title>Node1&#45;&gt;Node2</title>
<path fill="none" stroke="midnightblue" d="M1264.75,-278.05C1080,-265.73 565.02,-231.4 404.75,-220.72"/>
<polygon fill="midnightblue" stroke="midnightblue" points="1264.65,-281.55 1274.87,-278.72 1265.12,-274.57 1264.65,-281.55"/>
</g>
<!-- Node17 -->
<g id="node17" class="node">
<title>Node17</title>
<g id="a_node17"><a xlink:href="arm__timer_8hpp.html" target="_top" xlink:title="This file defines the ARM timer used BCM2835.">
<polygon fill="none" stroke="black" points="965,-134.5 965,-164.5 1078,-164.5 1078,-134.5 965,-134.5"/>
<text text-anchor="start" x="973" y="-152.5" font-family="Helvetica,sans-Serif" font-size="10.00">src/core/peripherals</text>
<text text-anchor="middle" x="1021.5" y="-141.5" font-family="Helvetica,sans-Serif" font-size="10.00">/arm_timer.hpp</text>
</a>
</g>
</g>
<!-- Node1&#45;&gt;Node17 -->
<g id="edge23" class="edge">
<title>Node1&#45;&gt;Node17</title>
<path fill="none" stroke="midnightblue" d="M1264.87,-274.46C1221.96,-267.41 1165.92,-254.61 1120.5,-232 1085.62,-214.64 1052.17,-182.93 1034.49,-164.6"/>
<polygon fill="midnightblue" stroke="midnightblue" points="1264.5,-277.94 1274.92,-276.05 1265.59,-271.03 1264.5,-277.94"/>
</g>
<!-- Node21 -->
<g id="node21" class="node">
<title>Node21</title>
<g id="a_node21"><a xlink:href="gpio_8hpp.html" target="_top" xlink:title=" ">
<polygon fill="none" stroke="black" points="1612,-134.5 1612,-164.5 1725,-164.5 1725,-134.5 1612,-134.5"/>
<text text-anchor="start" x="1620" y="-152.5" font-family="Helvetica,sans-Serif" font-size="10.00">src/core/peripherals</text>
<text text-anchor="middle" x="1668.5" y="-141.5" font-family="Helvetica,sans-Serif" font-size="10.00">/gpio.hpp</text>
</a>
</g>
</g>
<!-- Node1&#45;&gt;Node21 -->
<g id="edge28" class="edge">
<title>Node1&#45;&gt;Node21</title>
<path fill="none" stroke="midnightblue" d="M1355.71,-262.07C1378.89,-243.52 1415.54,-216.74 1451.5,-201 1458.94,-197.74 1550.07,-177.01 1611.84,-163.14"/>
<polygon fill="midnightblue" stroke="midnightblue" points="1353.36,-259.47 1347.81,-268.49 1357.78,-264.9 1353.36,-259.47"/>
</g>
<!-- Node27 -->
<g id="node27" class="node">
<title>Node27</title>
<g id="a_node27"><a xlink:href="interrupt__controller_8hpp.html" target="_top" xlink:title="This file defines the interrupt controller used BCM2835.">
<polygon fill="none" stroke="black" points="1129.5,-201.5 1129.5,-231.5 1263.5,-231.5 1263.5,-201.5 1129.5,-201.5"/>
<text text-anchor="start" x="1137.5" y="-219.5" font-family="Helvetica,sans-Serif" font-size="10.00">src/core/peripherals</text>
<text text-anchor="middle" x="1196.5" y="-208.5" font-family="Helvetica,sans-Serif" font-size="10.00">/interrupt_controller.hpp</text>
</a>
</g>
</g>
<!-- Node1&#45;&gt;Node27 -->
<g id="edge36" class="edge">
<title>Node1&#45;&gt;Node27</title>
<path fill="none" stroke="midnightblue" d="M1293.06,-263.99C1271.66,-253.69 1245.45,-241.07 1225.74,-231.58"/>
<polygon fill="midnightblue" stroke="midnightblue" points="1291.68,-267.21 1302.21,-268.4 1294.72,-260.9 1291.68,-267.21"/>
</g>
<!-- Node31 -->
<g id="node31" class="node">
<title>Node31</title>
<g id="a_node31"><a xlink:href="monitor_8hpp.html" target="_top" xlink:title=" ">
<polygon fill="none" stroke="black" points="1461,-201.5 1461,-231.5 1574,-231.5 1574,-201.5 1461,-201.5"/>
<text text-anchor="start" x="1469" y="-219.5" font-family="Helvetica,sans-Serif" font-size="10.00">src/core/peripherals</text>
<text text-anchor="middle" x="1517.5" y="-208.5" font-family="Helvetica,sans-Serif" font-size="10.00">/monitor.hpp</text>
</a>
</g>
</g>
<!-- Node1&#45;&gt;Node31 -->
<g id="edge44" class="edge">
<title>Node1&#45;&gt;Node31</title>
<path fill="none" stroke="midnightblue" d="M1381.31,-265.09C1411.34,-254.6 1449.09,-241.41 1477.22,-231.58"/>
<polygon fill="midnightblue" stroke="midnightblue" points="1380.14,-261.79 1371.86,-268.4 1382.45,-268.4 1380.14,-261.79"/>
</g>
<!-- Node35 -->
<g id="node35" class="node">
<title>Node35</title>
<g id="a_node35"><a xlink:href="ram_8hpp.html" target="_top" xlink:title=" ">
<polygon fill="none" stroke="black" points="2043,-201.5 2043,-231.5 2156,-231.5 2156,-201.5 2043,-201.5"/>
<text text-anchor="start" x="2051" y="-219.5" font-family="Helvetica,sans-Serif" font-size="10.00">src/core/peripherals</text>
<text text-anchor="middle" x="2099.5" y="-208.5" font-family="Helvetica,sans-Serif" font-size="10.00">/ram.hpp</text>
</a>
</g>
</g>
<!-- Node1&#45;&gt;Node35 -->
<g id="edge49" class="edge">
<title>Node1&#45;&gt;Node35</title>
<path fill="none" stroke="midnightblue" d="M1398.65,-276.82C1547.7,-264.2 1903.92,-234.05 2042.75,-222.3"/>
<polygon fill="midnightblue" stroke="midnightblue" points="1397.95,-273.36 1388.28,-277.69 1398.54,-280.34 1397.95,-273.36"/>
</g>
<!-- Node3 -->
<g id="node3" class="node">
<title>Node3</title>
<g id="a_node3"><a xlink:href="core_8hpp.html" target="_top" xlink:title="This file defines a class that represents a CPU core (arm1176jzf_s).">
<polygon fill="none" stroke="black" points="431,-134.5 431,-164.5 544,-164.5 544,-134.5 431,-134.5"/>
<text text-anchor="start" x="439" y="-152.5" font-family="Helvetica,sans-Serif" font-size="10.00">src/core/arm1176jzf</text>
<text text-anchor="middle" x="487.5" y="-141.5" font-family="Helvetica,sans-Serif" font-size="10.00">_s/core.hpp</text>
</a>
</g>
</g>
<!-- Node2&#45;&gt;Node3 -->
<g id="edge2" class="edge">
<title>Node2&#45;&gt;Node3</title>
<path fill="none" stroke="midnightblue" d="M383.02,-202.34C405.07,-191.4 436.39,-175.86 458.98,-164.65"/>
<polygon fill="midnightblue" stroke="midnightblue" points="381.3,-199.29 373.9,-206.87 384.41,-205.56 381.3,-199.29"/>
</g>
<!-- Node8 -->
<g id="node8" class="node">
<title>Node8</title>
<g id="a_node8"><a xlink:href="file__window_8hpp.html" target="_top" xlink:title=" ">
<polygon fill="none" stroke="black" points="300,-67.5 300,-97.5 413,-97.5 413,-67.5 300,-67.5"/>
<text text-anchor="start" x="308" y="-85.5" font-family="Helvetica,sans-Serif" font-size="10.00">src/gui/windows/file</text>
<text text-anchor="middle" x="356.5" y="-74.5" font-family="Helvetica,sans-Serif" font-size="10.00">_window.hpp</text>
</a>
</g>
</g>
<!-- Node2&#45;&gt;Node8 -->
<g id="edge22" class="edge">
<title>Node2&#45;&gt;Node8</title>
<path fill="none" stroke="midnightblue" d="M356.5,-196.53C356.5,-169.81 356.5,-121.69 356.5,-97.78"/>
<polygon fill="midnightblue" stroke="midnightblue" points="353,-196.84 356.5,-206.84 360,-196.84 353,-196.84"/>
</g>
<!-- Node14 -->
<g id="node14" class="node">
<title>Node14</title>
<g id="a_node14"><a xlink:href="bus_8cpp.html" target="_top" xlink:title="This file implements the interface defined in bus.hpp.">
<polygon fill="none" stroke="black" points="88,-140 88,-159 183,-159 183,-140 88,-140"/>
<text text-anchor="middle" x="135.5" y="-147" font-family="Helvetica,sans-Serif" font-size="10.00">src/core/bus.cpp</text>
</a>
</g>
</g>
<!-- Node2&#45;&gt;Node14 -->
<g id="edge16" class="edge">
<title>Node2&#45;&gt;Node14</title>
<path fill="none" stroke="midnightblue" d="M317.43,-204.01C273.69,-191.15 203.82,-170.59 164.62,-159.06"/>
<polygon fill="midnightblue" stroke="midnightblue" points="316.57,-207.4 327.15,-206.87 318.55,-200.69 316.57,-207.4"/>
</g>
<!-- Node15 -->
<g id="node15" class="node">
<title>Node15</title>
<g id="a_node15"><a xlink:href="elf__loader_8hpp.html" target="_top" xlink:title=" ">
<polygon fill="none" stroke="black" points="201,-134.5 201,-164.5 296,-164.5 296,-134.5 201,-134.5"/>
<text text-anchor="start" x="209" y="-152.5" font-family="Helvetica,sans-Serif" font-size="10.00">src/core/utils/elf</text>
<text text-anchor="middle" x="248.5" y="-141.5" font-family="Helvetica,sans-Serif" font-size="10.00">_loader.hpp</text>
</a>
</g>
</g>
<!-- Node2&#45;&gt;Node15 -->
<g id="edge17" class="edge">
<title>Node2&#45;&gt;Node15</title>
<path fill="none" stroke="midnightblue" d="M333.16,-201.45C315.05,-190.55 290.04,-175.5 271.91,-164.59"/>
<polygon fill="midnightblue" stroke="midnightblue" points="331.56,-204.58 341.93,-206.73 335.17,-198.58 331.56,-204.58"/>
</g>
<!-- Node4 -->
<g id="node4" class="node">
<title>Node4</title>
<g id="a_node4"><a xlink:href="core_8cpp.html" target="_top" xlink:title="This file implements the CCPU_Core class defined in core.hpp.">
<polygon fill="none" stroke="black" points="431,-67.5 431,-97.5 544,-97.5 544,-67.5 431,-67.5"/>
<text text-anchor="start" x="439" y="-85.5" font-family="Helvetica,sans-Serif" font-size="10.00">src/core/arm1176jzf</text>
<text text-anchor="middle" x="487.5" y="-74.5" font-family="Helvetica,sans-Serif" font-size="10.00">_s/core.cpp</text>
</a>
</g>
</g>
<!-- Node3&#45;&gt;Node4 -->
<g id="edge3" class="edge">
<title>Node3&#45;&gt;Node4</title>
<path fill="none" stroke="midnightblue" d="M487.5,-124.11C487.5,-115.15 487.5,-105.32 487.5,-97.58"/>
<polygon fill="midnightblue" stroke="midnightblue" points="484,-124.4 487.5,-134.4 491,-124.4 484,-124.4"/>
</g>
<!-- Node5 -->
<g id="node5" class="node">
<title>Node5</title>
<g id="a_node5"><a xlink:href="control__window_8hpp.html" target="_top" xlink:title=" ">
<polygon fill="none" stroke="black" points="721,-67.5 721,-97.5 852,-97.5 852,-67.5 721,-67.5"/>
<text text-anchor="start" x="729" y="-85.5" font-family="Helvetica,sans-Serif" font-size="10.00">src/gui/windows/control</text>
<text text-anchor="middle" x="786.5" y="-74.5" font-family="Helvetica,sans-Serif" font-size="10.00">_window.hpp</text>
</a>
</g>
</g>
<!-- Node3&#45;&gt;Node5 -->
<g id="edge4" class="edge">
<title>Node3&#45;&gt;Node5</title>
<path fill="none" stroke="midnightblue" d="M553.86,-134.07C604.01,-123.17 672.44,-108.3 722.09,-97.5"/>
<polygon fill="midnightblue" stroke="midnightblue" points="553.12,-130.65 544.09,-136.2 554.61,-137.49 553.12,-130.65"/>
</g>
<!-- Node3&#45;&gt;Node8 -->
<g id="edge7" class="edge">
<title>Node3&#45;&gt;Node8</title>
<path fill="none" stroke="midnightblue" d="M449.92,-129.85C429.21,-119.58 403.91,-107.03 384.87,-97.58"/>
<polygon fill="midnightblue" stroke="midnightblue" points="448.56,-133.09 459.07,-134.4 451.67,-126.82 448.56,-133.09"/>
</g>
<!-- Node10 -->
<g id="node10" class="node">
<title>Node10</title>
<g id="a_node10"><a xlink:href="registers__window_8hpp.html" target="_top" xlink:title=" ">
<polygon fill="none" stroke="black" points="562.5,-67.5 562.5,-97.5 702.5,-97.5 702.5,-67.5 562.5,-67.5"/>
<text text-anchor="start" x="570.5" y="-85.5" font-family="Helvetica,sans-Serif" font-size="10.00">src/gui/windows/registers</text>
<text text-anchor="middle" x="632.5" y="-74.5" font-family="Helvetica,sans-Serif" font-size="10.00">_window.hpp</text>
</a>
</g>
</g>
<!-- Node3&#45;&gt;Node10 -->
<g id="edge10" class="edge">
<title>Node3&#45;&gt;Node10</title>
<path fill="none" stroke="midnightblue" d="M528.17,-130.27C551.26,-119.92 579.74,-107.15 601.1,-97.58"/>
<polygon fill="midnightblue" stroke="midnightblue" points="526.66,-127.11 518.96,-134.4 529.52,-133.5 526.66,-127.11"/>
</g>
<!-- Node12 -->
<g id="node12" class="node">
<title>Node12</title>
<g id="a_node12"><a xlink:href="source__code__window_8hpp.html" target="_top" xlink:title=" ">
<polygon fill="none" stroke="black" points="151.5,-67.5 151.5,-97.5 281.5,-97.5 281.5,-67.5 151.5,-67.5"/>
<text text-anchor="start" x="159.5" y="-85.5" font-family="Helvetica,sans-Serif" font-size="10.00">src/gui/windows/source</text>
<text text-anchor="middle" x="216.5" y="-74.5" font-family="Helvetica,sans-Serif" font-size="10.00">_code_window.hpp</text>
</a>
</g>
</g>
<!-- Node3&#45;&gt;Node12 -->
<g id="edge13" class="edge">
<title>Node3&#45;&gt;Node12</title>
<path fill="none" stroke="midnightblue" d="M420.81,-132.5C376.17,-121.8 317.97,-107.84 275.11,-97.56"/>
<polygon fill="midnightblue" stroke="midnightblue" points="420.15,-135.94 430.69,-134.87 421.78,-129.14 420.15,-135.94"/>
</g>
<!-- Node6 -->
<g id="node6" class="node">
<title>Node6</title>
<g id="a_node6"><a xlink:href="gui_8cpp.html" target="_top" xlink:title=" ">
<polygon fill="none" stroke="black" points="1252,-6 1252,-25 1339,-25 1339,-6 1252,-6"/>
<text text-anchor="middle" x="1295.5" y="-13" font-family="Helvetica,sans-Serif" font-size="10.00">src/gui/gui.cpp</text>
</a>
</g>
</g>
<!-- Node5&#45;&gt;Node6 -->
<g id="edge5" class="edge">
<title>Node5&#45;&gt;Node6</title>
<path fill="none" stroke="midnightblue" d="M862.4,-66.86C927.44,-57.82 1155.21,-32.18 1251.81,-21.38"/>
<polygon fill="midnightblue" stroke="midnightblue" points="861.61,-63.44 852.22,-68.35 862.62,-70.36 861.61,-63.44"/>
</g>
<!-- Node7 -->
<g id="node7" class="node">
<title>Node7</title>
<g id="a_node7"><a xlink:href="control__window_8cpp.html" target="_top" xlink:title=" ">
<polygon fill="none" stroke="black" points="721,-0.5 721,-30.5 852,-30.5 852,-0.5 721,-0.5"/>
<text text-anchor="start" x="729" y="-18.5" font-family="Helvetica,sans-Serif" font-size="10.00">src/gui/windows/control</text>
<text text-anchor="middle" x="786.5" y="-7.5" font-family="Helvetica,sans-Serif" font-size="10.00">_window.cpp</text>
</a>
</g>
</g>
<!-- Node5&#45;&gt;Node7 -->
<g id="edge6" class="edge">
<title>Node5&#45;&gt;Node7</title>
<path fill="none" stroke="midnightblue" d="M786.5,-57.11C786.5,-48.15 786.5,-38.32 786.5,-30.58"/>
<polygon fill="midnightblue" stroke="midnightblue" points="783,-57.4 786.5,-67.4 790,-57.4 783,-57.4"/>
</g>
<!-- Node8&#45;&gt;Node6 -->
<g id="edge8" class="edge">
<title>Node8&#45;&gt;Node6</title>
<path fill="none" stroke="midnightblue" d="M423.35,-66.9C750.04,-23.63 837.17,-56.61 1162.5,-31 1192.37,-28.65 1225.91,-24.98 1251.83,-21.93"/>
<polygon fill="midnightblue" stroke="midnightblue" points="422.56,-63.48 413.12,-68.27 423.49,-70.41 422.56,-63.48"/>
</g>
<!-- Node9 -->
<g id="node9" class="node">
<title>Node9</title>
<g id="a_node9"><a xlink:href="file__window_8cpp.html" target="_top" xlink:title=" ">
<polygon fill="none" stroke="black" points="300,-0.5 300,-30.5 413,-30.5 413,-0.5 300,-0.5"/>
<text text-anchor="start" x="308" y="-18.5" font-family="Helvetica,sans-Serif" font-size="10.00">src/gui/windows/file</text>
<text text-anchor="middle" x="356.5" y="-7.5" font-family="Helvetica,sans-Serif" font-size="10.00">_window.cpp</text>
</a>
</g>
</g>
<!-- Node8&#45;&gt;Node9 -->
<g id="edge9" class="edge">
<title>Node8&#45;&gt;Node9</title>
<path fill="none" stroke="midnightblue" d="M356.5,-57.11C356.5,-48.15 356.5,-38.32 356.5,-30.58"/>
<polygon fill="midnightblue" stroke="midnightblue" points="353,-57.4 356.5,-67.4 360,-57.4 353,-57.4"/>
</g>
<!-- Node10&#45;&gt;Node6 -->
<g id="edge11" class="edge">
<title>Node10&#45;&gt;Node6</title>
<path fill="none" stroke="midnightblue" d="M712.6,-66.94C912.57,-41.1 965.53,-49.59 1162.5,-31 1192.33,-28.18 1225.87,-24.52 1251.8,-21.59"/>
<polygon fill="midnightblue" stroke="midnightblue" points="712.12,-63.48 702.65,-68.24 713.02,-70.42 712.12,-63.48"/>
</g>
<!-- Node11 -->
<g id="node11" class="node">
<title>Node11</title>
<g id="a_node11"><a xlink:href="registers__window_8cpp.html" target="_top" xlink:title=" ">
<polygon fill="none" stroke="black" points="562.5,-0.5 562.5,-30.5 702.5,-30.5 702.5,-0.5 562.5,-0.5"/>
<text text-anchor="start" x="570.5" y="-18.5" font-family="Helvetica,sans-Serif" font-size="10.00">src/gui/windows/registers</text>
<text text-anchor="middle" x="632.5" y="-7.5" font-family="Helvetica,sans-Serif" font-size="10.00">_window.cpp</text>
</a>
</g>
</g>
<!-- Node10&#45;&gt;Node11 -->
<g id="edge12" class="edge">
<title>Node10&#45;&gt;Node11</title>
<path fill="none" stroke="midnightblue" d="M632.5,-57.11C632.5,-48.15 632.5,-38.32 632.5,-30.58"/>
<polygon fill="midnightblue" stroke="midnightblue" points="629,-57.4 632.5,-67.4 636,-57.4 629,-57.4"/>
</g>
<!-- Node12&#45;&gt;Node6 -->
<g id="edge14" class="edge">
<title>Node12&#45;&gt;Node6</title>
<path fill="none" stroke="midnightblue" d="M291.82,-66.97C677.45,-22.23 779.01,-59.79 1162.5,-31 1192.38,-28.76 1225.92,-25.09 1251.84,-22.01"/>
<polygon fill="midnightblue" stroke="midnightblue" points="291.31,-63.51 281.78,-68.15 292.12,-70.46 291.31,-63.51"/>
</g>
<!-- Node13 -->
<g id="node13" class="node">
<title>Node13</title>
<g id="a_node13"><a xlink:href="source__code__window_8cpp.html" target="_top" xlink:title=" ">
<polygon fill="none" stroke="black" points="105.5,-0.5 105.5,-30.5 235.5,-30.5 235.5,-0.5 105.5,-0.5"/>
<text text-anchor="start" x="113.5" y="-18.5" font-family="Helvetica,sans-Serif" font-size="10.00">src/gui/windows/source</text>
<text text-anchor="middle" x="170.5" y="-7.5" font-family="Helvetica,sans-Serif" font-size="10.00">_code_window.cpp</text>
</a>
</g>
</g>
<!-- Node12&#45;&gt;Node13 -->
<g id="edge15" class="edge">
<title>Node12&#45;&gt;Node13</title>
<path fill="none" stroke="midnightblue" d="M200.69,-59.16C193.98,-49.68 186.37,-38.92 180.46,-30.58"/>
<polygon fill="midnightblue" stroke="midnightblue" points="197.88,-61.26 206.52,-67.4 203.6,-57.21 197.88,-61.26"/>
</g>
<!-- Node15&#45;&gt;Node8 -->
<g id="edge19" class="edge">
<title>Node15&#45;&gt;Node8</title>
<path fill="none" stroke="midnightblue" d="M280.87,-129.02C297.68,-118.9 317.84,-106.77 333.11,-97.58"/>
<polygon fill="midnightblue" stroke="midnightblue" points="278.7,-126.24 271.93,-134.4 282.31,-132.24 278.7,-126.24"/>
</g>
<!-- Node15&#45;&gt;Node12 -->
<g id="edge21" class="edge">
<title>Node15&#45;&gt;Node12</title>
<path fill="none" stroke="midnightblue" d="M237.07,-125.28C232.51,-116.02 227.41,-105.66 223.43,-97.58"/>
<polygon fill="midnightblue" stroke="midnightblue" points="234,-126.97 241.56,-134.4 240.28,-123.88 234,-126.97"/>
</g>
<!-- Node15&#45;&gt;Node13 -->
<g id="edge20" class="edge">
<title>Node15&#45;&gt;Node13</title>
<path fill="none" stroke="midnightblue" d="M198.67,-130.7C174.52,-120.96 149.27,-108.73 142.5,-98 128.92,-76.49 145.73,-47.61 158.55,-30.63"/>
<polygon fill="midnightblue" stroke="midnightblue" points="197.6,-134.04 208.19,-134.44 200.16,-127.53 197.6,-134.04"/>
</g>
<!-- Node16 -->
<g id="node16" class="node">
<title>Node16</title>
<g id="a_node16"><a xlink:href="elf__loader_8cpp.html" target="_top" xlink:title=" ">
<polygon fill="none" stroke="black" points="0,-67.5 0,-97.5 95,-97.5 95,-67.5 0,-67.5"/>
<text text-anchor="start" x="8" y="-85.5" font-family="Helvetica,sans-Serif" font-size="10.00">src/core/utils/elf</text>
<text text-anchor="middle" x="47.5" y="-74.5" font-family="Helvetica,sans-Serif" font-size="10.00">_loader.cpp</text>
</a>
</g>
</g>
<!-- Node15&#45;&gt;Node16 -->
<g id="edge18" class="edge">
<title>Node15&#45;&gt;Node16</title>
<path fill="none" stroke="midnightblue" d="M195.09,-131.23C162.57,-120.71 121.56,-107.45 91.03,-97.58"/>
<polygon fill="midnightblue" stroke="midnightblue" points="194.29,-134.65 204.89,-134.4 196.45,-127.99 194.29,-134.65"/>
</g>
<!-- Node18 -->
<g id="node18" class="node">
<title>Node18</title>
<g id="a_node18"><a xlink:href="arm__timer_8cpp.html" target="_top" xlink:title="This file implements the ARM timer used BCM2835 as defined in arm_timer.hpp.">
<polygon fill="none" stroke="black" points="870,-67.5 870,-97.5 983,-97.5 983,-67.5 870,-67.5"/>
<text text-anchor="start" x="878" y="-85.5" font-family="Helvetica,sans-Serif" font-size="10.00">src/core/peripherals</text>
<text text-anchor="middle" x="926.5" y="-74.5" font-family="Helvetica,sans-Serif" font-size="10.00">/arm_timer.cpp</text>
</a>
</g>
</g>
<!-- Node17&#45;&gt;Node18 -->
<g id="edge24" class="edge">
<title>Node17&#45;&gt;Node18</title>
<path fill="none" stroke="midnightblue" d="M992.61,-128.73C977.91,-118.68 960.39,-106.68 947.07,-97.58"/>
<polygon fill="midnightblue" stroke="midnightblue" points="990.66,-131.64 1000.89,-134.4 994.61,-125.86 990.66,-131.64"/>
</g>
<!-- Node19 -->
<g id="node19" class="node">
<title>Node19</title>
<g id="a_node19"><a xlink:href="arm__timer__window_8hpp.html" target="_top" xlink:title=" ">
<polygon fill="none" stroke="black" points="1001.5,-67.5 1001.5,-97.5 1153.5,-97.5 1153.5,-67.5 1001.5,-67.5"/>
<text text-anchor="start" x="1009.5" y="-85.5" font-family="Helvetica,sans-Serif" font-size="10.00">src/gui/windows/peripherals</text>
<text text-anchor="middle" x="1077.5" y="-74.5" font-family="Helvetica,sans-Serif" font-size="10.00">/arm_timer_window.hpp</text>
</a>
</g>
</g>
<!-- Node17&#45;&gt;Node19 -->
<g id="edge25" class="edge">
<title>Node17&#45;&gt;Node19</title>
<path fill="none" stroke="midnightblue" d="M1040.25,-126.74C1048.54,-117.12 1058.04,-106.09 1065.37,-97.58"/>
<polygon fill="midnightblue" stroke="midnightblue" points="1037.53,-124.54 1033.65,-134.4 1042.83,-129.1 1037.53,-124.54"/>
</g>
<!-- Node19&#45;&gt;Node6 -->
<g id="edge26" class="edge">
<title>Node19&#45;&gt;Node6</title>
<path fill="none" stroke="midnightblue" d="M1134.21,-64.59C1176.79,-51.9 1233.31,-35.04 1266.9,-25.03"/>
<polygon fill="midnightblue" stroke="midnightblue" points="1133.12,-61.26 1124.53,-67.48 1135.12,-67.97 1133.12,-61.26"/>
</g>
<!-- Node20 -->
<g id="node20" class="node">
<title>Node20</title>
<g id="a_node20"><a xlink:href="arm__timer__window_8cpp.html" target="_top" xlink:title=" ">
<polygon fill="none" stroke="black" points="1001.5,-0.5 1001.5,-30.5 1153.5,-30.5 1153.5,-0.5 1001.5,-0.5"/>
<text text-anchor="start" x="1009.5" y="-18.5" font-family="Helvetica,sans-Serif" font-size="10.00">src/gui/windows/peripherals</text>
<text text-anchor="middle" x="1077.5" y="-7.5" font-family="Helvetica,sans-Serif" font-size="10.00">/arm_timer_window.cpp</text>
</a>
</g>
</g>
<!-- Node19&#45;&gt;Node20 -->
<g id="edge27" class="edge">
<title>Node19&#45;&gt;Node20</title>
<path fill="none" stroke="midnightblue" d="M1077.5,-57.11C1077.5,-48.15 1077.5,-38.32 1077.5,-30.58"/>
<polygon fill="midnightblue" stroke="midnightblue" points="1074,-57.4 1077.5,-67.4 1081,-57.4 1074,-57.4"/>
</g>
<!-- Node22 -->
<g id="node22" class="node">
<title>Node22</title>
<g id="a_node22"><a xlink:href="gpio_8cpp.html" target="_top" xlink:title=" ">
<polygon fill="none" stroke="black" points="1612,-67.5 1612,-97.5 1725,-97.5 1725,-67.5 1612,-67.5"/>
<text text-anchor="start" x="1620" y="-85.5" font-family="Helvetica,sans-Serif" font-size="10.00">src/core/peripherals</text>
<text text-anchor="middle" x="1668.5" y="-74.5" font-family="Helvetica,sans-Serif" font-size="10.00">/gpio.cpp</text>
</a>
</g>
</g>
<!-- Node21&#45;&gt;Node22 -->
<g id="edge29" class="edge">
<title>Node21&#45;&gt;Node22</title>
<path fill="none" stroke="midnightblue" d="M1668.5,-124.11C1668.5,-115.15 1668.5,-105.32 1668.5,-97.58"/>
<polygon fill="midnightblue" stroke="midnightblue" points="1665,-124.4 1668.5,-134.4 1672,-124.4 1665,-124.4"/>
</g>
<!-- Node23 -->
<g id="node23" class="node">
<title>Node23</title>
<g id="a_node23"><a xlink:href="button__window_8hpp.html" target="_top" xlink:title=" ">
<polygon fill="none" stroke="black" points="1913.5,-67.5 1913.5,-97.5 2071.5,-97.5 2071.5,-67.5 1913.5,-67.5"/>
<text text-anchor="start" x="1921.5" y="-85.5" font-family="Helvetica,sans-Serif" font-size="10.00">src/gui/windows/peripherals</text>
<text text-anchor="middle" x="1992.5" y="-74.5" font-family="Helvetica,sans-Serif" font-size="10.00">/external/button_window.hpp</text>
</a>
</g>
</g>
<!-- Node21&#45;&gt;Node23 -->
<g id="edge30" class="edge">
<title>Node21&#45;&gt;Node23</title>
<path fill="none" stroke="midnightblue" d="M1735.09,-133.7C1802.07,-119.77 1868.49,-106.89 1917.87,-97.5"/>
<polygon fill="midnightblue" stroke="midnightblue" points="1734.28,-130.29 1725.2,-135.76 1735.7,-137.14 1734.28,-130.29"/>
</g>
<!-- Node25 -->
<g id="node25" class="node">
<title>Node25</title>
<g id="a_node25"><a xlink:href="gpio__window_8hpp.html" target="_top" xlink:title=" ">
<polygon fill="none" stroke="black" points="1743.5,-67.5 1743.5,-97.5 1895.5,-97.5 1895.5,-67.5 1743.5,-67.5"/>
<text text-anchor="start" x="1751.5" y="-85.5" font-family="Helvetica,sans-Serif" font-size="10.00">src/gui/windows/peripherals</text>
<text text-anchor="middle" x="1819.5" y="-74.5" font-family="Helvetica,sans-Serif" font-size="10.00">/gpio_window.hpp</text>
</a>
</g>
</g>
<!-- Node21&#45;&gt;Node25 -->
<g id="edge33" class="edge">
<title>Node21&#45;&gt;Node25</title>
<path fill="none" stroke="midnightblue" d="M1710.53,-130.41C1734.64,-120.03 1764.45,-107.2 1786.8,-97.58"/>
<polygon fill="midnightblue" stroke="midnightblue" points="1709.07,-127.23 1701.26,-134.4 1711.83,-133.66 1709.07,-127.23"/>
</g>
<!-- Node23&#45;&gt;Node6 -->
<g id="edge31" class="edge">
<title>Node23&#45;&gt;Node6</title>
<path fill="none" stroke="midnightblue" d="M1903.38,-66.93C1685.74,-40.41 1437.88,-24.62 1339.19,-18.91"/>
<polygon fill="midnightblue" stroke="midnightblue" points="1903.04,-70.41 1913.39,-68.16 1903.89,-63.46 1903.04,-70.41"/>
</g>
<!-- Node24 -->
<g id="node24" class="node">
<title>Node24</title>
<g id="a_node24"><a xlink:href="button__window_8cpp.html" target="_top" xlink:title=" ">
<polygon fill="none" stroke="black" points="1914,-0.5 1914,-30.5 2071,-30.5 2071,-0.5 1914,-0.5"/>
<text text-anchor="start" x="1922" y="-18.5" font-family="Helvetica,sans-Serif" font-size="10.00">src/gui/windows/peripherals</text>
<text text-anchor="middle" x="1992.5" y="-7.5" font-family="Helvetica,sans-Serif" font-size="10.00">/external/button_window.cpp</text>
</a>
</g>
</g>
<!-- Node23&#45;&gt;Node24 -->
<g id="edge32" class="edge">
<title>Node23&#45;&gt;Node24</title>
<path fill="none" stroke="midnightblue" d="M1992.5,-57.11C1992.5,-48.15 1992.5,-38.32 1992.5,-30.58"/>
<polygon fill="midnightblue" stroke="midnightblue" points="1989,-57.4 1992.5,-67.4 1996,-57.4 1989,-57.4"/>
</g>
<!-- Node25&#45;&gt;Node6 -->
<g id="edge34" class="edge">
<title>Node25&#45;&gt;Node6</title>
<path fill="none" stroke="midnightblue" d="M1733.18,-67C1582.18,-45.81 1416.29,-28.48 1339.11,-20.77"/>
<polygon fill="midnightblue" stroke="midnightblue" points="1732.71,-70.47 1743.1,-68.41 1733.69,-63.54 1732.71,-70.47"/>
</g>
<!-- Node26 -->
<g id="node26" class="node">
<title>Node26</title>
<g id="a_node26"><a xlink:href="gpio__window_8cpp.html" target="_top" xlink:title=" ">
<polygon fill="none" stroke="black" points="1743.5,-0.5 1743.5,-30.5 1895.5,-30.5 1895.5,-0.5 1743.5,-0.5"/>
<text text-anchor="start" x="1751.5" y="-18.5" font-family="Helvetica,sans-Serif" font-size="10.00">src/gui/windows/peripherals</text>
<text text-anchor="middle" x="1819.5" y="-7.5" font-family="Helvetica,sans-Serif" font-size="10.00">/gpio_window.cpp</text>
</a>
</g>
</g>
<!-- Node25&#45;&gt;Node26 -->
<g id="edge35" class="edge">
<title>Node25&#45;&gt;Node26</title>
<path fill="none" stroke="midnightblue" d="M1819.5,-57.11C1819.5,-48.15 1819.5,-38.32 1819.5,-30.58"/>
<polygon fill="midnightblue" stroke="midnightblue" points="1816,-57.4 1819.5,-67.4 1823,-57.4 1816,-57.4"/>
</g>
<!-- Node27&#45;&gt;Node3 -->
<g id="edge37" class="edge">
<title>Node27&#45;&gt;Node3</title>
<path fill="none" stroke="midnightblue" d="M1119.43,-208.43C975.97,-195.28 671.05,-167.33 544.45,-155.72"/>
<polygon fill="midnightblue" stroke="midnightblue" points="1119.2,-211.93 1129.48,-209.36 1119.84,-204.96 1119.2,-211.93"/>
</g>
<!-- Node27&#45;&gt;Node17 -->
<g id="edge38" class="edge">
<title>Node27&#45;&gt;Node17</title>
<path fill="none" stroke="midnightblue" d="M1148.9,-197.82C1120.77,-187.37 1085.64,-174.32 1059.4,-164.58"/>
<polygon fill="midnightblue" stroke="midnightblue" points="1147.93,-201.2 1158.53,-201.4 1150.37,-194.63 1147.93,-201.2"/>
</g>
<!-- Node27&#45;&gt;Node21 -->
<g id="edge39" class="edge">
<title>Node27&#45;&gt;Node21</title>
<path fill="none" stroke="midnightblue" d="M1273.57,-208.06C1355.47,-199.65 1488.59,-184.55 1602.5,-165 1605.51,-164.48 1608.58,-163.92 1611.68,-163.33"/>
<polygon fill="midnightblue" stroke="midnightblue" points="1273.19,-204.58 1263.59,-209.08 1273.9,-211.54 1273.19,-204.58"/>
</g>
<!-- Node28 -->
<g id="node28" class="node">
<title>Node28</title>
<g id="a_node28"><a xlink:href="interrupt__controller_8cpp.html" target="_top" xlink:title="This file implements the interrupt controller used BCM2835 (defined in interrupt_controller....">
<polygon fill="none" stroke="black" points="1096,-134.5 1096,-164.5 1229,-164.5 1229,-134.5 1096,-134.5"/>
<text text-anchor="start" x="1104" y="-152.5" font-family="Helvetica,sans-Serif" font-size="10.00">src/core/peripherals</text>
<text text-anchor="middle" x="1162.5" y="-141.5" font-family="Helvetica,sans-Serif" font-size="10.00">/interrupt_controller.cpp</text>
</a>
</g>
</g>
<!-- Node27&#45;&gt;Node28 -->
<g id="edge40" class="edge">
<title>Node27&#45;&gt;Node28</title>
<path fill="none" stroke="midnightblue" d="M1184.36,-192.28C1179.51,-183.02 1174.09,-172.66 1169.86,-164.58"/>
<polygon fill="midnightblue" stroke="midnightblue" points="1181.39,-194.16 1189.12,-201.4 1187.59,-190.91 1181.39,-194.16"/>
</g>
<!-- Node29 -->
<g id="node29" class="node">
<title>Node29</title>
<g id="a_node29"><a xlink:href="interrupt__controller__window_8hpp.html" target="_top" xlink:title=" ">
<polygon fill="none" stroke="black" points="1247.5,-134.5 1247.5,-164.5 1423.5,-164.5 1423.5,-134.5 1247.5,-134.5"/>
<text text-anchor="start" x="1255.5" y="-152.5" font-family="Helvetica,sans-Serif" font-size="10.00">src/gui/windows/peripherals</text>
<text text-anchor="middle" x="1335.5" y="-141.5" font-family="Helvetica,sans-Serif" font-size="10.00">/interrupt_controller_window.hpp</text>
</a>
</g>
</g>
<!-- Node27&#45;&gt;Node29 -->
<g id="edge41" class="edge">
<title>Node27&#45;&gt;Node29</title>
<path fill="none" stroke="midnightblue" d="M1235.78,-197.13C1257.87,-186.8 1285.01,-174.11 1305.4,-164.58"/>
<polygon fill="midnightblue" stroke="midnightblue" points="1234.24,-193.99 1226.66,-201.4 1237.2,-200.33 1234.24,-193.99"/>
</g>
<!-- Node29&#45;&gt;Node6 -->
<g id="edge42" class="edge">
<title>Node29&#45;&gt;Node6</title>
<path fill="none" stroke="midnightblue" d="M1349.67,-125.32C1357.98,-108.56 1365.29,-85.68 1356.5,-67 1347.49,-47.84 1327.24,-33.46 1312.54,-25.04"/>
<polygon fill="midnightblue" stroke="midnightblue" points="1346.43,-123.94 1344.77,-134.4 1352.6,-127.26 1346.43,-123.94"/>
</g>
<!-- Node30 -->
<g id="node30" class="node">
<title>Node30</title>
<g id="a_node30"><a xlink:href="interrupt__controller__window_8cpp.html" target="_top" xlink:title=" ">
<polygon fill="none" stroke="black" points="1171.5,-67.5 1171.5,-97.5 1347.5,-97.5 1347.5,-67.5 1171.5,-67.5"/>
<text text-anchor="start" x="1179.5" y="-85.5" font-family="Helvetica,sans-Serif" font-size="10.00">src/gui/windows/peripherals</text>
<text text-anchor="middle" x="1259.5" y="-74.5" font-family="Helvetica,sans-Serif" font-size="10.00">/interrupt_controller_window.cpp</text>
</a>
</g>
</g>
<!-- Node29&#45;&gt;Node30 -->
<g id="edge43" class="edge">
<title>Node29&#45;&gt;Node30</title>
<path fill="none" stroke="midnightblue" d="M1311.39,-127.88C1299.84,-118.01 1286.31,-106.43 1275.96,-97.58"/>
<polygon fill="midnightblue" stroke="midnightblue" points="1309.13,-130.56 1319.01,-134.4 1313.68,-125.24 1309.13,-130.56"/>
</g>
<!-- Node32 -->
<g id="node32" class="node">
<title>Node32</title>
<g id="a_node32"><a xlink:href="monitor_8cpp.html" target="_top" xlink:title=" ">
<polygon fill="none" stroke="black" points="1743,-134.5 1743,-164.5 1856,-164.5 1856,-134.5 1743,-134.5"/>
<text text-anchor="start" x="1751" y="-152.5" font-family="Helvetica,sans-Serif" font-size="10.00">src/core/peripherals</text>
<text text-anchor="middle" x="1799.5" y="-141.5" font-family="Helvetica,sans-Serif" font-size="10.00">/monitor.cpp</text>
</a>
</g>
</g>
<!-- Node31&#45;&gt;Node32 -->
<g id="edge45" class="edge">
<title>Node31&#45;&gt;Node32</title>
<path fill="none" stroke="midnightblue" d="M1584.27,-200.11C1632.56,-188.98 1697.09,-174.11 1742.86,-163.55"/>
<polygon fill="midnightblue" stroke="midnightblue" points="1583.19,-196.77 1574.23,-202.42 1584.76,-203.59 1583.19,-196.77"/>
</g>
<!-- Node33 -->
<g id="node33" class="node">
<title>Node33</title>
<g id="a_node33"><a xlink:href="monitor__window_8hpp.html" target="_top" xlink:title=" ">
<polygon fill="none" stroke="black" points="1441.5,-134.5 1441.5,-164.5 1593.5,-164.5 1593.5,-134.5 1441.5,-134.5"/>
<text text-anchor="start" x="1449.5" y="-152.5" font-family="Helvetica,sans-Serif" font-size="10.00">src/gui/windows/peripherals</text>
<text text-anchor="middle" x="1517.5" y="-141.5" font-family="Helvetica,sans-Serif" font-size="10.00">/monitor_window.hpp</text>
</a>
</g>
</g>
<!-- Node31&#45;&gt;Node33 -->
<g id="edge46" class="edge">
<title>Node31&#45;&gt;Node33</title>
<path fill="none" stroke="midnightblue" d="M1517.5,-191.11C1517.5,-182.15 1517.5,-172.32 1517.5,-164.58"/>
<polygon fill="midnightblue" stroke="midnightblue" points="1514,-191.4 1517.5,-201.4 1521,-191.4 1514,-191.4"/>
</g>
<!-- Node33&#45;&gt;Node6 -->
<g id="edge47" class="edge">
<title>Node33&#45;&gt;Node6</title>
<path fill="none" stroke="midnightblue" d="M1484.82,-129.09C1469.01,-119.7 1449.77,-108.27 1432.5,-98 1387.78,-71.41 1334.86,-39.92 1309.9,-25.07"/>
<polygon fill="midnightblue" stroke="midnightblue" points="1483.3,-132.26 1493.68,-134.35 1486.87,-126.24 1483.3,-132.26"/>
</g>
<!-- Node34 -->
<g id="node34" class="node">
<title>Node34</title>
<g id="a_node34"><a xlink:href="monitor__window_8cpp.html" target="_top" xlink:title=" ">
<polygon fill="none" stroke="black" points="1441.5,-67.5 1441.5,-97.5 1593.5,-97.5 1593.5,-67.5 1441.5,-67.5"/>
<text text-anchor="start" x="1449.5" y="-85.5" font-family="Helvetica,sans-Serif" font-size="10.00">src/gui/windows/peripherals</text>
<text text-anchor="middle" x="1517.5" y="-74.5" font-family="Helvetica,sans-Serif" font-size="10.00">/monitor_window.cpp</text>
</a>
</g>
</g>
<!-- Node33&#45;&gt;Node34 -->
<g id="edge48" class="edge">
<title>Node33&#45;&gt;Node34</title>
<path fill="none" stroke="midnightblue" d="M1517.5,-124.11C1517.5,-115.15 1517.5,-105.32 1517.5,-97.58"/>
<polygon fill="midnightblue" stroke="midnightblue" points="1514,-124.4 1517.5,-134.4 1521,-124.4 1514,-124.4"/>
</g>
<!-- Node36 -->
<g id="node36" class="node">
<title>Node36</title>
<g id="a_node36"><a xlink:href="ram_8cpp.html" target="_top" xlink:title=" ">
<polygon fill="none" stroke="black" points="2194,-134.5 2194,-164.5 2307,-164.5 2307,-134.5 2194,-134.5"/>
<text text-anchor="start" x="2202" y="-152.5" font-family="Helvetica,sans-Serif" font-size="10.00">src/core/peripherals</text>
<text text-anchor="middle" x="2250.5" y="-141.5" font-family="Helvetica,sans-Serif" font-size="10.00">/ram.cpp</text>
</a>
</g>
</g>
<!-- Node35&#45;&gt;Node36 -->
<g id="edge50" class="edge">
<title>Node35&#45;&gt;Node36</title>
<path fill="none" stroke="midnightblue" d="M2141.53,-197.41C2165.64,-187.03 2195.45,-174.2 2217.8,-164.58"/>
<polygon fill="midnightblue" stroke="midnightblue" points="2140.07,-194.23 2132.26,-201.4 2142.83,-200.66 2140.07,-194.23"/>
</g>
<!-- Node37 -->
<g id="node37" class="node">
<title>Node37</title>
<g id="a_node37"><a xlink:href="ram__window_8hpp.html" target="_top" xlink:title=" ">
<polygon fill="none" stroke="black" points="2023.5,-134.5 2023.5,-164.5 2175.5,-164.5 2175.5,-134.5 2023.5,-134.5"/>
<text text-anchor="start" x="2031.5" y="-152.5" font-family="Helvetica,sans-Serif" font-size="10.00">src/gui/windows/peripherals</text>
<text text-anchor="middle" x="2099.5" y="-141.5" font-family="Helvetica,sans-Serif" font-size="10.00">/ram_window.hpp</text>
</a>
</g>
</g>
<!-- Node35&#45;&gt;Node37 -->
<g id="edge51" class="edge">
<title>Node35&#45;&gt;Node37</title>
<path fill="none" stroke="midnightblue" d="M2099.5,-191.11C2099.5,-182.15 2099.5,-172.32 2099.5,-164.58"/>
<polygon fill="midnightblue" stroke="midnightblue" points="2096,-191.4 2099.5,-201.4 2103,-191.4 2096,-191.4"/>
</g>
<!-- Node37&#45;&gt;Node6 -->
<g id="edge52" class="edge">
<title>Node37&#45;&gt;Node6</title>
<path fill="none" stroke="midnightblue" d="M2100.96,-124.31C2100.65,-105.67 2096.81,-80.82 2080.5,-67 2052.04,-42.89 1500.3,-23.15 1339.27,-17.88"/>
<polygon fill="midnightblue" stroke="midnightblue" points="2097.46,-124.39 2100.81,-134.44 2104.46,-124.49 2097.46,-124.39"/>
</g>
<!-- Node38 -->
<g id="node38" class="node">
<title>Node38</title>
<g id="a_node38"><a xlink:href="ram__window_8cpp.html" target="_top" xlink:title=" ">
<polygon fill="none" stroke="black" points="2127.5,-67.5 2127.5,-97.5 2279.5,-97.5 2279.5,-67.5 2127.5,-67.5"/>
<text text-anchor="start" x="2135.5" y="-85.5" font-family="Helvetica,sans-Serif" font-size="10.00">src/gui/windows/peripherals</text>
<text text-anchor="middle" x="2203.5" y="-74.5" font-family="Helvetica,sans-Serif" font-size="10.00">/ram_window.cpp</text>
</a>
</g>
</g>
<!-- Node37&#45;&gt;Node38 -->
<g id="edge53" class="edge">
<title>Node37&#45;&gt;Node38</title>
<path fill="none" stroke="midnightblue" d="M2130.68,-129.02C2146.86,-118.9 2166.27,-106.77 2180.98,-97.58"/>
<polygon fill="midnightblue" stroke="midnightblue" points="2128.69,-126.13 2122.07,-134.4 2132.4,-132.06 2128.69,-126.13"/>
</g>
</g>
</svg>
