<?xml version="1.0" encoding="UTF-8" standalone="no"?>
<!DOCTYPE svg PUBLIC "-//W3C//DTD SVG 1.1//EN"
 "http://www.w3.org/Graphics/SVG/1.1/DTD/svg11.dtd">
<!-- Generated by graphviz version 2.43.0 (0)
 -->
<!-- Title: src/core/coprocessors/cp15/primary_reg.hpp Pages: 1 -->
<svg width="1513pt" height="508pt"
 viewBox="0.00 0.00 1513.00 508.00" xmlns="http://www.w3.org/2000/svg" xmlns:xlink="http://www.w3.org/1999/xlink">
<g id="graph0" class="graph" transform="scale(1 1) rotate(0) translate(4 504)">
<title>src/core/coprocessors/cp15/primary_reg.hpp</title>
<!-- Node1 -->
<g id="node1" class="node">
<title>Node1</title>
<g id="a_node1"><a xlink:title="This file defines a primary register interface of coprocessor CP15.">
<polygon fill="#bfbfbf" stroke="black" points="458.5,-469.5 458.5,-499.5 584.5,-499.5 584.5,-469.5 458.5,-469.5"/>
<text text-anchor="start" x="466.5" y="-487.5" font-family="Helvetica,sans-Serif" font-size="10.00">src/core/coprocessors</text>
<text text-anchor="middle" x="521.5" y="-476.5" font-family="Helvetica,sans-Serif" font-size="10.00">/cp15/primary_reg.hpp</text>
</a>
</g>
</g>
<!-- Node2 -->
<g id="node2" class="node">
<title>Node2</title>
<g id="a_node2"><a xlink:href="c1_8hpp.html" target="_top" xlink:title="This file defines the primary register C1 of coprocessor CP15.">
<polygon fill="none" stroke="black" points="142.5,-402.5 142.5,-432.5 264.5,-432.5 264.5,-402.5 142.5,-402.5"/>
<text text-anchor="start" x="150.5" y="-420.5" font-family="Helvetica,sans-Serif" font-size="10.00">src/core/coprocessors</text>
<text text-anchor="middle" x="203.5" y="-409.5" font-family="Helvetica,sans-Serif" font-size="10.00">/cp15/c1.hpp</text>
</a>
</g>
</g>
<!-- Node1&#45;&gt;Node2 -->
<g id="edge1" class="edge">
<title>Node1&#45;&gt;Node2</title>
<path fill="none" stroke="midnightblue" d="M448.34,-468.67C398.94,-458.64 332.29,-445.07 273.5,-433 270.58,-432.4 267.6,-431.79 264.58,-431.17"/>
<polygon fill="midnightblue" stroke="midnightblue" points="447.79,-472.13 458.29,-470.69 449.19,-465.27 447.79,-472.13"/>
</g>
<!-- Node4 -->
<g id="node4" class="node">
<title>Node4</title>
<g id="a_node4"><a xlink:href="cp15_8hpp.html" target="_top" xlink:title="This file defines coprocessor CP15.">
<polygon fill="none" stroke="black" points="371.5,-335.5 371.5,-365.5 493.5,-365.5 493.5,-335.5 371.5,-335.5"/>
<text text-anchor="start" x="379.5" y="-353.5" font-family="Helvetica,sans-Serif" font-size="10.00">src/core/coprocessors</text>
<text text-anchor="middle" x="432.5" y="-342.5" font-family="Helvetica,sans-Serif" font-size="10.00">/cp15/cp15.hpp</text>
</a>
</g>
</g>
<!-- Node1&#45;&gt;Node4 -->
<g id="edge60" class="edge">
<title>Node1&#45;&gt;Node4</title>
<path fill="none" stroke="midnightblue" d="M484.37,-463.94C472.25,-455.86 459.79,-445.45 451.5,-433 437.73,-412.32 433.88,-382.9 432.84,-365.65"/>
<polygon fill="midnightblue" stroke="midnightblue" points="482.74,-467.05 493.07,-469.4 486.47,-461.12 482.74,-467.05"/>
</g>
<!-- Node32 -->
<g id="node32" class="node">
<title>Node32</title>
<g id="a_node32"><a xlink:href="c2_8hpp.html" target="_top" xlink:title="This file defines the primary register C2 of coprocessor CP15.">
<polygon fill="none" stroke="black" points="282.5,-402.5 282.5,-432.5 404.5,-432.5 404.5,-402.5 282.5,-402.5"/>
<text text-anchor="start" x="290.5" y="-420.5" font-family="Helvetica,sans-Serif" font-size="10.00">src/core/coprocessors</text>
<text text-anchor="middle" x="343.5" y="-409.5" font-family="Helvetica,sans-Serif" font-size="10.00">/cp15/c2.hpp</text>
</a>
</g>
</g>
<!-- Node1&#45;&gt;Node32 -->
<g id="edge48" class="edge">
<title>Node1&#45;&gt;Node32</title>
<path fill="none" stroke="midnightblue" d="M473.45,-465.96C444.78,-455.48 408.86,-442.37 382.05,-432.58"/>
<polygon fill="midnightblue" stroke="midnightblue" points="472.28,-469.25 482.88,-469.4 474.68,-462.68 472.28,-469.25"/>
</g>
<!-- Node34 -->
<g id="node34" class="node">
<title>Node34</title>
<g id="a_node34"><a xlink:href="c3_8hpp.html" target="_top" xlink:title="This file defines the primary register C3 of coprocessor CP15.">
<polygon fill="none" stroke="black" points="460.5,-402.5 460.5,-432.5 582.5,-432.5 582.5,-402.5 460.5,-402.5"/>
<text text-anchor="start" x="468.5" y="-420.5" font-family="Helvetica,sans-Serif" font-size="10.00">src/core/coprocessors</text>
<text text-anchor="middle" x="521.5" y="-409.5" font-family="Helvetica,sans-Serif" font-size="10.00">/cp15/c3.hpp</text>
</a>
</g>
</g>
<!-- Node1&#45;&gt;Node34 -->
<g id="edge51" class="edge">
<title>Node1&#45;&gt;Node34</title>
<path fill="none" stroke="midnightblue" d="M521.5,-459.11C521.5,-450.15 521.5,-440.32 521.5,-432.58"/>
<polygon fill="midnightblue" stroke="midnightblue" points="518,-459.4 521.5,-469.4 525,-459.4 518,-459.4"/>
</g>
<!-- Node36 -->
<g id="node36" class="node">
<title>Node36</title>
<g id="a_node36"><a xlink:href="c7_8hpp.html" target="_top" xlink:title="This file defines the primary register C7 of coprocessor CP15.">
<polygon fill="none" stroke="black" points="600.5,-402.5 600.5,-432.5 722.5,-432.5 722.5,-402.5 600.5,-402.5"/>
<text text-anchor="start" x="608.5" y="-420.5" font-family="Helvetica,sans-Serif" font-size="10.00">src/core/coprocessors</text>
<text text-anchor="middle" x="661.5" y="-409.5" font-family="Helvetica,sans-Serif" font-size="10.00">/cp15/c7.hpp</text>
</a>
</g>
</g>
<!-- Node1&#45;&gt;Node36 -->
<g id="edge54" class="edge">
<title>Node1&#45;&gt;Node36</title>
<path fill="none" stroke="midnightblue" d="M561.07,-465.13C583.31,-454.8 610.65,-442.11 631.18,-432.58"/>
<polygon fill="midnightblue" stroke="midnightblue" points="559.47,-462.01 551.88,-469.4 562.42,-468.36 559.47,-462.01"/>
</g>
<!-- Node38 -->
<g id="node38" class="node">
<title>Node38</title>
<g id="a_node38"><a xlink:href="c8_8hpp.html" target="_top" xlink:title="This file defines the primary register C8 of coprocessor CP15.">
<polygon fill="none" stroke="black" points="740.5,-402.5 740.5,-432.5 862.5,-432.5 862.5,-402.5 740.5,-402.5"/>
<text text-anchor="start" x="748.5" y="-420.5" font-family="Helvetica,sans-Serif" font-size="10.00">src/core/coprocessors</text>
<text text-anchor="middle" x="801.5" y="-409.5" font-family="Helvetica,sans-Serif" font-size="10.00">/cp15/c8.hpp</text>
</a>
</g>
</g>
<!-- Node1&#45;&gt;Node38 -->
<g id="edge57" class="edge">
<title>Node1&#45;&gt;Node38</title>
<path fill="none" stroke="midnightblue" d="M591.78,-467.19C637.63,-456.54 696.89,-442.78 740.71,-432.61"/>
<polygon fill="midnightblue" stroke="midnightblue" points="590.86,-463.81 581.91,-469.48 592.44,-470.62 590.86,-463.81"/>
</g>
<!-- Node40 -->
<g id="node40" class="node">
<title>Node40</title>
<g id="a_node40"><a xlink:href="primary__reg_8cpp.html" target="_top" xlink:title="This file implements a primary register interface of coprocessor CP15.">
<polygon fill="none" stroke="black" points="881,-402.5 881,-432.5 1006,-432.5 1006,-402.5 881,-402.5"/>
<text text-anchor="start" x="889" y="-420.5" font-family="Helvetica,sans-Serif" font-size="10.00">src/core/coprocessors</text>
<text text-anchor="middle" x="943.5" y="-409.5" font-family="Helvetica,sans-Serif" font-size="10.00">/cp15/primary_reg.cpp</text>
</a>
</g>
</g>
<!-- Node1&#45;&gt;Node40 -->
<g id="edge61" class="edge">
<title>Node1&#45;&gt;Node40</title>
<path fill="none" stroke="midnightblue" d="M594.75,-474.13C665.69,-464.78 776.21,-449.46 871.5,-433 874.52,-432.48 877.6,-431.93 880.71,-431.36"/>
<polygon fill="midnightblue" stroke="midnightblue" points="594.03,-470.7 584.58,-475.47 594.95,-477.64 594.03,-470.7"/>
</g>
<!-- Node3 -->
<g id="node3" class="node">
<title>Node3</title>
<g id="a_node3"><a xlink:href="c1_8cpp.html" target="_top" xlink:title="This file implements the primary register C1 of coprocessor CP15.">
<polygon fill="none" stroke="black" points="91.5,-335.5 91.5,-365.5 213.5,-365.5 213.5,-335.5 91.5,-335.5"/>
<text text-anchor="start" x="99.5" y="-353.5" font-family="Helvetica,sans-Serif" font-size="10.00">src/core/coprocessors</text>
<text text-anchor="middle" x="152.5" y="-342.5" font-family="Helvetica,sans-Serif" font-size="10.00">/cp15/c1.cpp</text>
</a>
</g>
</g>
<!-- Node2&#45;&gt;Node3 -->
<g id="edge2" class="edge">
<title>Node2&#45;&gt;Node3</title>
<path fill="none" stroke="midnightblue" d="M186.2,-394.45C178.71,-384.9 170.16,-374 163.54,-365.58"/>
<polygon fill="midnightblue" stroke="midnightblue" points="183.51,-396.69 192.43,-402.4 189.01,-392.37 183.51,-396.69"/>
</g>
<!-- Node2&#45;&gt;Node4 -->
<g id="edge3" class="edge">
<title>Node2&#45;&gt;Node4</title>
<path fill="none" stroke="midnightblue" d="M262.64,-399.71C299.9,-389.14 347.47,-375.63 382.79,-365.61"/>
<polygon fill="midnightblue" stroke="midnightblue" points="261.57,-396.38 252.91,-402.48 263.48,-403.11 261.57,-396.38"/>
</g>
<!-- Node5 -->
<g id="node5" class="node">
<title>Node5</title>
<g id="a_node5"><a xlink:href="core_8hpp.html" target="_top" xlink:title="This file defines a class that represents a CPU core (arm1176jzf_s).">
<polygon fill="none" stroke="black" points="442,-134.5 442,-164.5 555,-164.5 555,-134.5 442,-134.5"/>
<text text-anchor="start" x="450" y="-152.5" font-family="Helvetica,sans-Serif" font-size="10.00">src/core/arm1176jzf</text>
<text text-anchor="middle" x="498.5" y="-141.5" font-family="Helvetica,sans-Serif" font-size="10.00">_s/core.hpp</text>
</a>
</g>
</g>
<!-- Node4&#45;&gt;Node5 -->
<g id="edge4" class="edge">
<title>Node4&#45;&gt;Node5</title>
<path fill="none" stroke="midnightblue" d="M420.34,-326.07C413.43,-309.63 407.27,-287.23 413.5,-268 427.3,-225.36 463.01,-185.21 483.48,-164.7"/>
<polygon fill="midnightblue" stroke="midnightblue" points="417.3,-327.83 424.64,-335.46 423.66,-324.91 417.3,-327.83"/>
</g>
<!-- Node7 -->
<g id="node7" class="node">
<title>Node7</title>
<g id="a_node7"><a xlink:href="soc_8hpp.html" target="_top" xlink:title=" ">
<polygon fill="none" stroke="black" points="52,-73 52,-92 147,-92 147,-73 52,-73"/>
<text text-anchor="middle" x="99.5" y="-80" font-family="Helvetica,sans-Serif" font-size="10.00">src/core/soc.hpp</text>
</a>
</g>
</g>
<!-- Node4&#45;&gt;Node7 -->
<g id="edge44" class="edge">
<title>Node4&#45;&gt;Node7</title>
<path fill="none" stroke="midnightblue" d="M400.51,-330.21C385.06,-320.85 366.28,-309.4 349.5,-299 302.14,-269.63 286.76,-267.14 243.5,-232 185.52,-184.9 126.7,-116.3 106.67,-92.24"/>
<polygon fill="midnightblue" stroke="midnightblue" points="398.81,-333.27 409.18,-335.46 402.44,-327.29 398.81,-333.27"/>
</g>
<!-- Node19 -->
<g id="node19" class="node">
<title>Node19</title>
<g id="a_node19"><a xlink:href="mmu_8hpp.html" target="_top" xlink:title="This file defines the MMU (memory management unit) of the CPU.">
<polygon fill="none" stroke="black" points="253,-201.5 253,-231.5 366,-231.5 366,-201.5 253,-201.5"/>
<text text-anchor="start" x="261" y="-219.5" font-family="Helvetica,sans-Serif" font-size="10.00">src/core/arm1176jzf</text>
<text text-anchor="middle" x="309.5" y="-208.5" font-family="Helvetica,sans-Serif" font-size="10.00">_s/mmu/mmu.hpp</text>
</a>
</g>
</g>
<!-- Node4&#45;&gt;Node19 -->
<g id="edge22" class="edge">
<title>Node4&#45;&gt;Node19</title>
<path fill="none" stroke="midnightblue" d="M409.78,-328.23C400.53,-319.36 389.83,-308.85 380.5,-299 358.82,-276.11 335.02,-248.17 321.22,-231.66"/>
<polygon fill="midnightblue" stroke="midnightblue" points="407.49,-330.88 417.15,-335.24 412.32,-325.81 407.49,-330.88"/>
</g>
<!-- Node21 -->
<g id="node21" class="node">
<title>Node21</title>
<g id="a_node21"><a xlink:href="bus_8hpp.html" target="_top" xlink:title="This file defines an interface the CPU uses to access different memory&#45;mapped peripherals.">
<polygon fill="none" stroke="black" points="422.5,-274 422.5,-293 518.5,-293 518.5,-274 422.5,-274"/>
<text text-anchor="middle" x="470.5" y="-281" font-family="Helvetica,sans-Serif" font-size="10.00">src/core/bus.hpp</text>
</a>
</g>
</g>
<!-- Node4&#45;&gt;Node21 -->
<g id="edge26" class="edge">
<title>Node4&#45;&gt;Node21</title>
<path fill="none" stroke="midnightblue" d="M445.87,-326.63C452.63,-315.07 460.44,-301.71 465.42,-293.19"/>
<polygon fill="midnightblue" stroke="midnightblue" points="442.77,-325 440.75,-335.4 448.81,-328.53 442.77,-325"/>
</g>
<!-- Node29 -->
<g id="node29" class="node">
<title>Node29</title>
<g id="a_node29"><a xlink:href="cp15_8cpp.html" target="_top" xlink:title="This file implements coprocessor CP15.">
<polygon fill="none" stroke="black" points="536.5,-268.5 536.5,-298.5 658.5,-298.5 658.5,-268.5 536.5,-268.5"/>
<text text-anchor="start" x="544.5" y="-286.5" font-family="Helvetica,sans-Serif" font-size="10.00">src/core/coprocessors</text>
<text text-anchor="middle" x="597.5" y="-275.5" font-family="Helvetica,sans-Serif" font-size="10.00">/cp15/cp15.cpp</text>
</a>
</g>
</g>
<!-- Node4&#45;&gt;Node29 -->
<g id="edge43" class="edge">
<title>Node4&#45;&gt;Node29</title>
<path fill="none" stroke="midnightblue" d="M477.73,-331.68C504.19,-321.26 537.13,-308.28 561.77,-298.58"/>
<polygon fill="midnightblue" stroke="midnightblue" points="476.32,-328.47 468.3,-335.4 478.89,-334.99 476.32,-328.47"/>
</g>
<!-- Node30 -->
<g id="node30" class="node">
<title>Node30</title>
<g id="a_node30"><a xlink:href="cp15__window_8hpp.html" target="_top" xlink:title="This file defines a window that displays data (information) related to coprocessor 15.">
<polygon fill="none" stroke="black" points="1295,-268.5 1295,-298.5 1416,-298.5 1416,-268.5 1295,-268.5"/>
<text text-anchor="start" x="1303" y="-286.5" font-family="Helvetica,sans-Serif" font-size="10.00">src/gui/windows/cp15</text>
<text text-anchor="middle" x="1355.5" y="-275.5" font-family="Helvetica,sans-Serif" font-size="10.00">_window.hpp</text>
</a>
</g>
</g>
<!-- Node4&#45;&gt;Node30 -->
<g id="edge45" class="edge">
<title>Node4&#45;&gt;Node30</title>
<path fill="none" stroke="midnightblue" d="M504.14,-334.91C805.91,-295.67 1156.49,-287.03 1294.97,-285.07"/>
<polygon fill="midnightblue" stroke="midnightblue" points="503.33,-331.49 493.87,-336.26 504.24,-338.43 503.33,-331.49"/>
</g>
<!-- Node6 -->
<g id="node6" class="node">
<title>Node6</title>
<g id="a_node6"><a xlink:href="core_8cpp.html" target="_top" xlink:title="This file implements the CCPU_Core class defined in core.hpp.">
<polygon fill="none" stroke="black" points="165,-67.5 165,-97.5 278,-97.5 278,-67.5 165,-67.5"/>
<text text-anchor="start" x="173" y="-85.5" font-family="Helvetica,sans-Serif" font-size="10.00">src/core/arm1176jzf</text>
<text text-anchor="middle" x="221.5" y="-74.5" font-family="Helvetica,sans-Serif" font-size="10.00">_s/core.cpp</text>
</a>
</g>
</g>
<!-- Node5&#45;&gt;Node6 -->
<g id="edge5" class="edge">
<title>Node5&#45;&gt;Node6</title>
<path fill="none" stroke="midnightblue" d="M432,-132.89C385.03,-121.87 322.75,-107.26 278.15,-96.79"/>
<polygon fill="midnightblue" stroke="midnightblue" points="431.24,-136.31 441.78,-135.19 432.84,-129.5 431.24,-136.31"/>
</g>
<!-- Node5&#45;&gt;Node7 -->
<g id="edge6" class="edge">
<title>Node5&#45;&gt;Node7</title>
<path fill="none" stroke="midnightblue" d="M431.96,-134.77C430.46,-134.5 428.97,-134.25 427.5,-134 307.24,-113.79 275.19,-121.33 155.5,-98 147.02,-96.35 137.92,-94.17 129.57,-92"/>
<polygon fill="midnightblue" stroke="midnightblue" points="431.52,-138.24 441.99,-136.59 432.77,-131.36 431.52,-138.24"/>
</g>
<!-- Node11 -->
<g id="node11" class="node">
<title>Node11</title>
<g id="a_node11"><a xlink:href="control__window_8hpp.html" target="_top" xlink:title="This file defines a window that allows the user to control CPU execution.">
<polygon fill="none" stroke="black" points="455,-67.5 455,-97.5 586,-97.5 586,-67.5 455,-67.5"/>
<text text-anchor="start" x="463" y="-85.5" font-family="Helvetica,sans-Serif" font-size="10.00">src/gui/windows/control</text>
<text text-anchor="middle" x="520.5" y="-74.5" font-family="Helvetica,sans-Serif" font-size="10.00">_window.hpp</text>
</a>
</g>
</g>
<!-- Node5&#45;&gt;Node11 -->
<g id="edge10" class="edge">
<title>Node5&#45;&gt;Node11</title>
<path fill="none" stroke="midnightblue" d="M506.56,-124.7C509.64,-115.59 513.06,-105.49 515.74,-97.58"/>
<polygon fill="midnightblue" stroke="midnightblue" points="503.16,-123.8 503.27,-134.4 509.79,-126.05 503.16,-123.8"/>
</g>
<!-- Node13 -->
<g id="node13" class="node">
<title>Node13</title>
<g id="a_node13"><a xlink:href="registers__window_8hpp.html" target="_top" xlink:title="This file defines a window that displays the contents of all CPU registers.">
<polygon fill="none" stroke="black" points="296.5,-67.5 296.5,-97.5 436.5,-97.5 436.5,-67.5 296.5,-67.5"/>
<text text-anchor="start" x="304.5" y="-85.5" font-family="Helvetica,sans-Serif" font-size="10.00">src/gui/windows/registers</text>
<text text-anchor="middle" x="366.5" y="-74.5" font-family="Helvetica,sans-Serif" font-size="10.00">_window.hpp</text>
</a>
</g>
</g>
<!-- Node5&#45;&gt;Node13 -->
<g id="edge13" class="edge">
<title>Node5&#45;&gt;Node13</title>
<path fill="none" stroke="midnightblue" d="M460.63,-129.85C439.76,-119.58 414.27,-107.03 395.09,-97.58"/>
<polygon fill="midnightblue" stroke="midnightblue" points="459.34,-133.12 469.86,-134.4 462.43,-126.84 459.34,-133.12"/>
</g>
<!-- Node15 -->
<g id="node15" class="node">
<title>Node15</title>
<g id="a_node15"><a xlink:href="source__code__window_8hpp.html" target="_top" xlink:title="This file defines a window that displays loaded ELF files (disassembled instructions of the source co...">
<polygon fill="none" stroke="black" points="735.5,-67.5 735.5,-97.5 865.5,-97.5 865.5,-67.5 735.5,-67.5"/>
<text text-anchor="start" x="743.5" y="-85.5" font-family="Helvetica,sans-Serif" font-size="10.00">src/gui/windows/source</text>
<text text-anchor="middle" x="800.5" y="-74.5" font-family="Helvetica,sans-Serif" font-size="10.00">_code_window.hpp</text>
</a>
</g>
</g>
<!-- Node5&#45;&gt;Node15 -->
<g id="edge16" class="edge">
<title>Node5&#45;&gt;Node15</title>
<path fill="none" stroke="midnightblue" d="M565.17,-134.15C615.79,-123.25 685.03,-108.35 735.29,-97.53"/>
<polygon fill="midnightblue" stroke="midnightblue" points="564.34,-130.75 555.3,-136.27 565.82,-137.59 564.34,-130.75"/>
</g>
<!-- Node17 -->
<g id="node17" class="node">
<title>Node17</title>
<g id="a_node17"><a xlink:href="top__bar__menu_8hpp.html" target="_top" xlink:title=" ">
<polygon fill="none" stroke="black" points="604,-67.5 604,-97.5 717,-97.5 717,-67.5 604,-67.5"/>
<text text-anchor="start" x="612" y="-85.5" font-family="Helvetica,sans-Serif" font-size="10.00">src/gui/windows/top</text>
<text text-anchor="middle" x="660.5" y="-74.5" font-family="Helvetica,sans-Serif" font-size="10.00">_bar_menu.hpp</text>
</a>
</g>
</g>
<!-- Node5&#45;&gt;Node17 -->
<g id="edge19" class="edge">
<title>Node5&#45;&gt;Node17</title>
<path fill="none" stroke="midnightblue" d="M543.25,-130.54C569.17,-120.14 601.34,-107.24 625.42,-97.58"/>
<polygon fill="midnightblue" stroke="midnightblue" points="541.63,-127.42 533.65,-134.4 544.24,-133.92 541.63,-127.42"/>
</g>
<!-- Node8 -->
<g id="node8" class="node">
<title>Node8</title>
<g id="a_node8"><a xlink:href="soc_8cpp.html" target="_top" xlink:title=" ">
<polygon fill="none" stroke="black" points="0,-6 0,-25 95,-25 95,-6 0,-6"/>
<text text-anchor="middle" x="47.5" y="-13" font-family="Helvetica,sans-Serif" font-size="10.00">src/core/soc.cpp</text>
</a>
</g>
</g>
<!-- Node7&#45;&gt;Node8 -->
<g id="edge7" class="edge">
<title>Node7&#45;&gt;Node8</title>
<path fill="none" stroke="midnightblue" d="M86.12,-64.77C75.98,-52.1 62.46,-35.2 54.4,-25.13"/>
<polygon fill="midnightblue" stroke="midnightblue" points="83.51,-67.11 92.49,-72.73 88.97,-62.74 83.51,-67.11"/>
</g>
<!-- Node9 -->
<g id="node9" class="node">
<title>Node9</title>
<g id="a_node9"><a xlink:href="gui_8cpp.html" target="_top" xlink:title="This file implements the main GUI entry function that takes care of creating and rendering all window...">
<polygon fill="none" stroke="black" points="598,-6 598,-25 685,-25 685,-6 598,-6"/>
<text text-anchor="middle" x="641.5" y="-13" font-family="Helvetica,sans-Serif" font-size="10.00">src/gui/gui.cpp</text>
</a>
</g>
</g>
<!-- Node7&#45;&gt;Node9 -->
<g id="edge8" class="edge">
<title>Node7&#45;&gt;Node9</title>
<path fill="none" stroke="midnightblue" d="M138.59,-70.47C144.23,-69.15 149.99,-67.93 155.5,-67 346.32,-34.62 398.98,-65.15 589.5,-31 597.8,-29.51 606.69,-27.28 614.74,-25.01"/>
<polygon fill="midnightblue" stroke="midnightblue" points="137.51,-67.14 128.65,-72.95 139.2,-73.93 137.51,-67.14"/>
</g>
<!-- Node10 -->
<g id="node10" class="node">
<title>Node10</title>
<g id="a_node10"><a xlink:href="main_8cpp.html" target="_top" xlink:title="This file defines and implements the main function of the application.">
<polygon fill="none" stroke="black" points="113,-6 113,-25 192,-25 192,-6 113,-6"/>
<text text-anchor="middle" x="152.5" y="-13" font-family="Helvetica,sans-Serif" font-size="10.00">src/main.cpp</text>
</a>
</g>
</g>
<!-- Node7&#45;&gt;Node10 -->
<g id="edge9" class="edge">
<title>Node7&#45;&gt;Node10</title>
<path fill="none" stroke="midnightblue" d="M113.14,-64.77C123.47,-52.1 137.25,-35.2 145.47,-25.13"/>
<polygon fill="midnightblue" stroke="midnightblue" points="110.25,-62.77 106.65,-72.73 115.68,-67.2 110.25,-62.77"/>
</g>
<!-- Node11&#45;&gt;Node9 -->
<g id="edge11" class="edge">
<title>Node11&#45;&gt;Node9</title>
<path fill="none" stroke="midnightblue" d="M555.61,-62.64C578.76,-50.2 607.97,-34.51 625.66,-25.01"/>
<polygon fill="midnightblue" stroke="midnightblue" points="553.91,-59.58 546.76,-67.4 557.22,-65.75 553.91,-59.58"/>
</g>
<!-- Node12 -->
<g id="node12" class="node">
<title>Node12</title>
<g id="a_node12"><a xlink:href="control__window_8cpp.html" target="_top" xlink:title="This file implements a window that allows the user to control CPU execution.">
<polygon fill="none" stroke="black" points="449,-0.5 449,-30.5 580,-30.5 580,-0.5 449,-0.5"/>
<text text-anchor="start" x="457" y="-18.5" font-family="Helvetica,sans-Serif" font-size="10.00">src/gui/windows/control</text>
<text text-anchor="middle" x="514.5" y="-7.5" font-family="Helvetica,sans-Serif" font-size="10.00">_window.cpp</text>
</a>
</g>
</g>
<!-- Node11&#45;&gt;Node12 -->
<g id="edge12" class="edge">
<title>Node11&#45;&gt;Node12</title>
<path fill="none" stroke="midnightblue" d="M518.28,-57.4C517.44,-48.37 516.52,-38.41 515.8,-30.58"/>
<polygon fill="midnightblue" stroke="midnightblue" points="514.79,-57.76 519.2,-67.4 521.76,-57.12 514.79,-57.76"/>
</g>
<!-- Node13&#45;&gt;Node9 -->
<g id="edge14" class="edge">
<title>Node13&#45;&gt;Node9</title>
<path fill="none" stroke="midnightblue" d="M442.44,-65.27C485.67,-55.79 540.76,-43.31 589.5,-31 596.77,-29.16 604.57,-27.06 611.87,-25.03"/>
<polygon fill="midnightblue" stroke="midnightblue" points="441.59,-61.88 432.57,-67.43 443.08,-68.72 441.59,-61.88"/>
</g>
<!-- Node14 -->
<g id="node14" class="node">
<title>Node14</title>
<g id="a_node14"><a xlink:href="registers__window_8cpp.html" target="_top" xlink:title="This file implements a window that displays the contents of all CPU registers.">
<polygon fill="none" stroke="black" points="290.5,-0.5 290.5,-30.5 430.5,-30.5 430.5,-0.5 290.5,-0.5"/>
<text text-anchor="start" x="298.5" y="-18.5" font-family="Helvetica,sans-Serif" font-size="10.00">src/gui/windows/registers</text>
<text text-anchor="middle" x="360.5" y="-7.5" font-family="Helvetica,sans-Serif" font-size="10.00">_window.cpp</text>
</a>
</g>
</g>
<!-- Node13&#45;&gt;Node14 -->
<g id="edge15" class="edge">
<title>Node13&#45;&gt;Node14</title>
<path fill="none" stroke="midnightblue" d="M364.28,-57.4C363.44,-48.37 362.52,-38.41 361.8,-30.58"/>
<polygon fill="midnightblue" stroke="midnightblue" points="360.79,-57.76 365.2,-67.4 367.76,-57.12 360.79,-57.76"/>
</g>
<!-- Node15&#45;&gt;Node9 -->
<g id="edge17" class="edge">
<title>Node15&#45;&gt;Node9</title>
<path fill="none" stroke="midnightblue" d="M756.37,-63.46C725.65,-50.9 686.08,-34.72 662.31,-25.01"/>
<polygon fill="midnightblue" stroke="midnightblue" points="755.42,-66.85 766,-67.4 758.07,-60.37 755.42,-66.85"/>
</g>
<!-- Node16 -->
<g id="node16" class="node">
<title>Node16</title>
<g id="a_node16"><a xlink:href="source__code__window_8cpp.html" target="_top" xlink:title="This file implements a window that displays loaded ELF files (disassembled instructions of the source...">
<polygon fill="none" stroke="black" points="834.5,-0.5 834.5,-30.5 964.5,-30.5 964.5,-0.5 834.5,-0.5"/>
<text text-anchor="start" x="842.5" y="-18.5" font-family="Helvetica,sans-Serif" font-size="10.00">src/gui/windows/source</text>
<text text-anchor="middle" x="899.5" y="-7.5" font-family="Helvetica,sans-Serif" font-size="10.00">_code_window.cpp</text>
</a>
</g>
</g>
<!-- Node15&#45;&gt;Node16 -->
<g id="edge18" class="edge">
<title>Node15&#45;&gt;Node16</title>
<path fill="none" stroke="midnightblue" d="M830.61,-61.73C845.92,-51.68 864.19,-39.68 878.06,-30.58"/>
<polygon fill="midnightblue" stroke="midnightblue" points="828.42,-58.98 821.98,-67.4 832.26,-64.83 828.42,-58.98"/>
</g>
<!-- Node17&#45;&gt;Node9 -->
<g id="edge20" class="edge">
<title>Node17&#45;&gt;Node9</title>
<path fill="none" stroke="midnightblue" d="M653.51,-57.6C650.2,-46.28 646.46,-33.46 644.04,-25.19"/>
<polygon fill="midnightblue" stroke="midnightblue" points="650.21,-58.78 656.38,-67.4 656.93,-56.82 650.21,-58.78"/>
</g>
<!-- Node18 -->
<g id="node18" class="node">
<title>Node18</title>
<g id="a_node18"><a xlink:href="top__bar__menu_8cpp.html" target="_top" xlink:title=" ">
<polygon fill="none" stroke="black" points="703,-0.5 703,-30.5 816,-30.5 816,-0.5 703,-0.5"/>
<text text-anchor="start" x="711" y="-18.5" font-family="Helvetica,sans-Serif" font-size="10.00">src/gui/windows/top</text>
<text text-anchor="middle" x="759.5" y="-7.5" font-family="Helvetica,sans-Serif" font-size="10.00">_bar_menu.cpp</text>
</a>
</g>
</g>
<!-- Node17&#45;&gt;Node18 -->
<g id="edge21" class="edge">
<title>Node17&#45;&gt;Node18</title>
<path fill="none" stroke="midnightblue" d="M690.61,-61.73C705.92,-51.68 724.19,-39.68 738.06,-30.58"/>
<polygon fill="midnightblue" stroke="midnightblue" points="688.42,-58.98 681.98,-67.4 692.26,-64.83 688.42,-58.98"/>
</g>
<!-- Node19&#45;&gt;Node5 -->
<g id="edge23" class="edge">
<title>Node19&#45;&gt;Node5</title>
<path fill="none" stroke="midnightblue" d="M360.12,-198.09C390.63,-187.6 428.98,-174.41 457.57,-164.58"/>
<polygon fill="midnightblue" stroke="midnightblue" points="358.83,-194.83 350.51,-201.4 361.1,-201.45 358.83,-194.83"/>
</g>
<!-- Node19&#45;&gt;Node7 -->
<g id="edge25" class="edge">
<title>Node19&#45;&gt;Node7</title>
<path fill="none" stroke="midnightblue" d="M278.28,-195.88C231.81,-166.66 146.36,-112.95 113.18,-92.1"/>
<polygon fill="midnightblue" stroke="midnightblue" points="276.7,-199.02 287.03,-201.37 280.42,-193.09 276.7,-199.02"/>
</g>
<!-- Node20 -->
<g id="node20" class="node">
<title>Node20</title>
<g id="a_node20"><a xlink:href="mmu_8cpp.html" target="_top" xlink:title="This file implements the MMU (memory management unit) of the CPU.">
<polygon fill="none" stroke="black" points="253,-134.5 253,-164.5 366,-164.5 366,-134.5 253,-134.5"/>
<text text-anchor="start" x="261" y="-152.5" font-family="Helvetica,sans-Serif" font-size="10.00">src/core/arm1176jzf</text>
<text text-anchor="middle" x="309.5" y="-141.5" font-family="Helvetica,sans-Serif" font-size="10.00">_s/mmu/mmu.cpp</text>
</a>
</g>
</g>
<!-- Node19&#45;&gt;Node20 -->
<g id="edge24" class="edge">
<title>Node19&#45;&gt;Node20</title>
<path fill="none" stroke="midnightblue" d="M309.5,-191.11C309.5,-182.15 309.5,-172.32 309.5,-164.58"/>
<polygon fill="midnightblue" stroke="midnightblue" points="306,-191.4 309.5,-201.4 313,-191.4 306,-191.4"/>
</g>
<!-- Node21&#45;&gt;Node5 -->
<g id="edge27" class="edge">
<title>Node21&#45;&gt;Node5</title>
<path fill="none" stroke="midnightblue" d="M474.45,-263.89C480.1,-237.24 490.38,-188.8 495.47,-164.78"/>
<polygon fill="midnightblue" stroke="midnightblue" points="470.99,-263.33 472.34,-273.84 477.84,-264.78 470.99,-263.33"/>
</g>
<!-- Node21&#45;&gt;Node7 -->
<g id="edge36" class="edge">
<title>Node21&#45;&gt;Node7</title>
<path fill="none" stroke="midnightblue" d="M464.3,-264.13C452.41,-231.98 423.18,-165.89 374.5,-134 291.99,-79.95 252.01,-118.38 155.5,-98 147.34,-96.28 138.59,-94.15 130.48,-92.06"/>
<polygon fill="midnightblue" stroke="midnightblue" points="461.03,-265.38 467.67,-273.64 467.62,-263.04 461.03,-265.38"/>
</g>
<!-- Node21&#45;&gt;Node17 -->
<g id="edge37" class="edge">
<title>Node21&#45;&gt;Node17</title>
<path fill="none" stroke="midnightblue" d="M512.54,-271.32C561.76,-258.04 637.19,-237.06 641.5,-232 674.53,-193.22 668.12,-126.77 663.3,-97.76"/>
<polygon fill="midnightblue" stroke="midnightblue" points="511.52,-267.97 502.77,-273.94 513.33,-274.73 511.52,-267.97"/>
</g>
<!-- Node21&#45;&gt;Node19 -->
<g id="edge28" class="edge">
<title>Node21&#45;&gt;Node19</title>
<path fill="none" stroke="midnightblue" d="M439.68,-270.06C412.41,-259.05 372.64,-242.99 344.25,-231.53"/>
<polygon fill="midnightblue" stroke="midnightblue" points="438.54,-273.37 449.12,-273.87 441.16,-266.88 438.54,-273.37"/>
</g>
<!-- Node22 -->
<g id="node22" class="node">
<title>Node22</title>
<g id="a_node22"><a xlink:href="bus_8cpp.html" target="_top" xlink:title="This file implements the interface defined in bus.hpp.">
<polygon fill="none" stroke="black" points="537,-207 537,-226 632,-226 632,-207 537,-207"/>
<text text-anchor="middle" x="584.5" y="-214" font-family="Helvetica,sans-Serif" font-size="10.00">src/core/bus.cpp</text>
</a>
</g>
</g>
<!-- Node21&#45;&gt;Node22 -->
<g id="edge29" class="edge">
<title>Node21&#45;&gt;Node22</title>
<path fill="none" stroke="midnightblue" d="M494.85,-268.62C517.44,-255.74 550.34,-236.98 569.37,-226.13"/>
<polygon fill="midnightblue" stroke="midnightblue" points="492.83,-265.74 485.87,-273.73 496.3,-271.82 492.83,-265.74"/>
</g>
<!-- Node23 -->
<g id="node23" class="node">
<title>Node23</title>
<g id="a_node23"><a xlink:href="cp10_8hpp.html" target="_top" xlink:title="This file defines coprocessor CP10 (single&#45;precision FPU).">
<polygon fill="none" stroke="black" points="974.5,-134.5 974.5,-164.5 1096.5,-164.5 1096.5,-134.5 974.5,-134.5"/>
<text text-anchor="start" x="982.5" y="-152.5" font-family="Helvetica,sans-Serif" font-size="10.00">src/core/coprocessors</text>
<text text-anchor="middle" x="1035.5" y="-141.5" font-family="Helvetica,sans-Serif" font-size="10.00">/cp10/cp10.hpp</text>
</a>
</g>
</g>
<!-- Node21&#45;&gt;Node23 -->
<g id="edge30" class="edge">
<title>Node21&#45;&gt;Node23</title>
<path fill="none" stroke="midnightblue" d="M513.33,-271.5C518.11,-270.3 522.9,-269.12 527.5,-268 688.48,-228.91 878.9,-185.67 974.41,-164.18"/>
<polygon fill="midnightblue" stroke="midnightblue" points="512.47,-268.11 503.62,-273.94 514.18,-274.89 512.47,-268.11"/>
</g>
<!-- Node27 -->
<g id="node27" class="node">
<title>Node27</title>
<g id="a_node27"><a xlink:href="elf__loader_8hpp.html" target="_top" xlink:title="This file defines the functionality of an ELF loader.">
<polygon fill="none" stroke="black" points="737,-140 737,-159 864,-159 864,-140 737,-140"/>
<text text-anchor="middle" x="800.5" y="-147" font-family="Helvetica,sans-Serif" font-size="10.00">src/utils/elf_loader.hpp</text>
</a>
</g>
</g>
<!-- Node21&#45;&gt;Node27 -->
<g id="edge38" class="edge">
<title>Node21&#45;&gt;Node27</title>
<path fill="none" stroke="midnightblue" d="M478.2,-264.61C487.33,-245.65 504.41,-216.37 528.5,-201 562.31,-179.43 667.76,-164.51 736.99,-156.75"/>
<polygon fill="midnightblue" stroke="midnightblue" points="474.91,-263.37 473.95,-273.93 481.28,-266.28 474.91,-263.37"/>
</g>
<!-- Node23&#45;&gt;Node7 -->
<g id="edge32" class="edge">
<title>Node23&#45;&gt;Node7</title>
<path fill="none" stroke="midnightblue" d="M964.21,-141.51C935.98,-138.9 903.23,-136.07 873.5,-134 554.76,-111.75 471.34,-146.29 155.5,-98 146.37,-96.6 136.57,-94.34 127.76,-92.01"/>
<polygon fill="midnightblue" stroke="midnightblue" points="964.11,-145.02 974.39,-142.46 964.76,-138.05 964.11,-145.02"/>
</g>
<!-- Node24 -->
<g id="node24" class="node">
<title>Node24</title>
<g id="a_node24"><a xlink:href="cp10_8cpp.html" target="_top" xlink:title="This file implements coprocessor CP10 (single&#45;precision FPU).">
<polygon fill="none" stroke="black" points="1065.5,-67.5 1065.5,-97.5 1187.5,-97.5 1187.5,-67.5 1065.5,-67.5"/>
<text text-anchor="start" x="1073.5" y="-85.5" font-family="Helvetica,sans-Serif" font-size="10.00">src/core/coprocessors</text>
<text text-anchor="middle" x="1126.5" y="-74.5" font-family="Helvetica,sans-Serif" font-size="10.00">/cp10/cp10.cpp</text>
</a>
</g>
</g>
<!-- Node23&#45;&gt;Node24 -->
<g id="edge31" class="edge">
<title>Node23&#45;&gt;Node24</title>
<path fill="none" stroke="midnightblue" d="M1063.57,-128.45C1077.57,-118.45 1094.16,-106.6 1106.79,-97.58"/>
<polygon fill="midnightblue" stroke="midnightblue" points="1061.35,-125.74 1055.25,-134.4 1065.42,-131.43 1061.35,-125.74"/>
</g>
<!-- Node25 -->
<g id="node25" class="node">
<title>Node25</title>
<g id="a_node25"><a xlink:href="cp10__window_8hpp.html" target="_top" xlink:title="This file defines a window that displays data (information) related to coprocessor 10 (FPU).">
<polygon fill="none" stroke="black" points="1206,-67.5 1206,-97.5 1327,-97.5 1327,-67.5 1206,-67.5"/>
<text text-anchor="start" x="1214" y="-85.5" font-family="Helvetica,sans-Serif" font-size="10.00">src/gui/windows/cp10</text>
<text text-anchor="middle" x="1266.5" y="-74.5" font-family="Helvetica,sans-Serif" font-size="10.00">_window.hpp</text>
</a>
</g>
</g>
<!-- Node23&#45;&gt;Node25 -->
<g id="edge33" class="edge">
<title>Node23&#45;&gt;Node25</title>
<path fill="none" stroke="midnightblue" d="M1095.15,-131.71C1132.74,-121.14 1180.73,-107.63 1216.35,-97.61"/>
<polygon fill="midnightblue" stroke="midnightblue" points="1094.02,-128.4 1085.34,-134.48 1095.91,-135.14 1094.02,-128.4"/>
</g>
<!-- Node25&#45;&gt;Node9 -->
<g id="edge34" class="edge">
<title>Node25&#45;&gt;Node9</title>
<path fill="none" stroke="midnightblue" d="M1195.84,-67.06C973.15,-37.18 911.76,-68.14 694.5,-31 686.04,-29.55 676.97,-27.33 668.78,-25.06"/>
<polygon fill="midnightblue" stroke="midnightblue" points="1195.5,-70.54 1205.88,-68.43 1196.45,-63.61 1195.5,-70.54"/>
</g>
<!-- Node26 -->
<g id="node26" class="node">
<title>Node26</title>
<g id="a_node26"><a xlink:href="cp10__window_8cpp.html" target="_top" xlink:title="This file implements a window that displays data (information) related to coprocessor 10 (FPU).">
<polygon fill="none" stroke="black" points="1206,-0.5 1206,-30.5 1327,-30.5 1327,-0.5 1206,-0.5"/>
<text text-anchor="start" x="1214" y="-18.5" font-family="Helvetica,sans-Serif" font-size="10.00">src/gui/windows/cp10</text>
<text text-anchor="middle" x="1266.5" y="-7.5" font-family="Helvetica,sans-Serif" font-size="10.00">_window.cpp</text>
</a>
</g>
</g>
<!-- Node25&#45;&gt;Node26 -->
<g id="edge35" class="edge">
<title>Node25&#45;&gt;Node26</title>
<path fill="none" stroke="midnightblue" d="M1266.5,-57.11C1266.5,-48.15 1266.5,-38.32 1266.5,-30.58"/>
<polygon fill="midnightblue" stroke="midnightblue" points="1263,-57.4 1266.5,-67.4 1270,-57.4 1263,-57.4"/>
</g>
<!-- Node27&#45;&gt;Node15 -->
<g id="edge40" class="edge">
<title>Node27&#45;&gt;Node15</title>
<path fill="none" stroke="midnightblue" d="M800.5,-129.41C800.5,-119.22 800.5,-106.9 800.5,-97.59"/>
<polygon fill="midnightblue" stroke="midnightblue" points="797,-129.73 800.5,-139.73 804,-129.73 797,-129.73"/>
</g>
<!-- Node27&#45;&gt;Node16 -->
<g id="edge39" class="edge">
<title>Node27&#45;&gt;Node16</title>
<path fill="none" stroke="midnightblue" d="M829.12,-135.01C844.57,-126.4 862.81,-113.87 874.5,-98 889.51,-77.62 895.62,-48.1 898.03,-30.75"/>
<polygon fill="midnightblue" stroke="midnightblue" points="827.15,-132.09 819.94,-139.86 830.42,-138.28 827.15,-132.09"/>
</g>
<!-- Node27&#45;&gt;Node17 -->
<g id="edge41" class="edge">
<title>Node27&#45;&gt;Node17</title>
<path fill="none" stroke="midnightblue" d="M772.76,-135.62C749.08,-124.63 715.08,-108.84 690.71,-97.53"/>
<polygon fill="midnightblue" stroke="midnightblue" points="771.37,-138.83 781.91,-139.87 774.31,-132.48 771.37,-138.83"/>
</g>
<!-- Node28 -->
<g id="node28" class="node">
<title>Node28</title>
<g id="a_node28"><a xlink:href="elf__loader_8cpp.html" target="_top" xlink:title="This file implements the functionality of an ELF loader defined in elf_loader.hpp.">
<polygon fill="none" stroke="black" points="921.5,-73 921.5,-92 1047.5,-92 1047.5,-73 921.5,-73"/>
<text text-anchor="middle" x="984.5" y="-80" font-family="Helvetica,sans-Serif" font-size="10.00">src/utils/elf_loader.cpp</text>
</a>
</g>
</g>
<!-- Node27&#45;&gt;Node28 -->
<g id="edge42" class="edge">
<title>Node27&#45;&gt;Node28</title>
<path fill="none" stroke="midnightblue" d="M834.65,-136.44C871.15,-123.54 928.1,-103.42 960.26,-92.06"/>
<polygon fill="midnightblue" stroke="midnightblue" points="833.2,-133.24 824.93,-139.87 835.53,-139.84 833.2,-133.24"/>
</g>
<!-- Node30&#45;&gt;Node9 -->
<g id="edge46" class="edge">
<title>Node30&#45;&gt;Node9</title>
<path fill="none" stroke="midnightblue" d="M1362.15,-258.63C1373,-213.87 1388.45,-117.32 1336.5,-67 1285.18,-17.29 765.02,-42.49 694.5,-31 685.93,-29.6 676.76,-27.37 668.49,-25.07"/>
<polygon fill="midnightblue" stroke="midnightblue" points="1358.75,-257.79 1359.66,-268.34 1365.53,-259.52 1358.75,-257.79"/>
</g>
<!-- Node31 -->
<g id="node31" class="node">
<title>Node31</title>
<g id="a_node31"><a xlink:href="cp15__window_8cpp.html" target="_top" xlink:title="This file implements a window that displays data (information) related to coprocessor 15.">
<polygon fill="none" stroke="black" points="1384,-201.5 1384,-231.5 1505,-231.5 1505,-201.5 1384,-201.5"/>
<text text-anchor="start" x="1392" y="-219.5" font-family="Helvetica,sans-Serif" font-size="10.00">src/gui/windows/cp15</text>
<text text-anchor="middle" x="1444.5" y="-208.5" font-family="Helvetica,sans-Serif" font-size="10.00">_window.cpp</text>
</a>
</g>
</g>
<!-- Node30&#45;&gt;Node31 -->
<g id="edge47" class="edge">
<title>Node30&#45;&gt;Node31</title>
<path fill="none" stroke="midnightblue" d="M1382.95,-262.45C1396.64,-252.45 1412.87,-240.6 1425.23,-231.58"/>
<polygon fill="midnightblue" stroke="midnightblue" points="1380.82,-259.67 1374.81,-268.4 1384.95,-265.32 1380.82,-259.67"/>
</g>
<!-- Node32&#45;&gt;Node4 -->
<g id="edge50" class="edge">
<title>Node32&#45;&gt;Node4</title>
<path fill="none" stroke="midnightblue" d="M370.95,-396.45C384.64,-386.45 400.87,-374.6 413.23,-365.58"/>
<polygon fill="midnightblue" stroke="midnightblue" points="368.82,-393.67 362.81,-402.4 372.95,-399.32 368.82,-393.67"/>
</g>
<!-- Node33 -->
<g id="node33" class="node">
<title>Node33</title>
<g id="a_node33"><a xlink:href="c2_8cpp.html" target="_top" xlink:title="This file implements the primary register C2 of coprocessor CP15.">
<polygon fill="none" stroke="black" points="231.5,-335.5 231.5,-365.5 353.5,-365.5 353.5,-335.5 231.5,-335.5"/>
<text text-anchor="start" x="239.5" y="-353.5" font-family="Helvetica,sans-Serif" font-size="10.00">src/core/coprocessors</text>
<text text-anchor="middle" x="292.5" y="-342.5" font-family="Helvetica,sans-Serif" font-size="10.00">/cp15/c2.cpp</text>
</a>
</g>
</g>
<!-- Node32&#45;&gt;Node33 -->
<g id="edge49" class="edge">
<title>Node32&#45;&gt;Node33</title>
<path fill="none" stroke="midnightblue" d="M326.2,-394.45C318.71,-384.9 310.16,-374 303.54,-365.58"/>
<polygon fill="midnightblue" stroke="midnightblue" points="323.51,-396.69 332.43,-402.4 329.01,-392.37 323.51,-396.69"/>
</g>
<!-- Node34&#45;&gt;Node4 -->
<g id="edge53" class="edge">
<title>Node34&#45;&gt;Node4</title>
<path fill="none" stroke="midnightblue" d="M494.05,-396.45C480.36,-386.45 464.13,-374.6 451.77,-365.58"/>
<polygon fill="midnightblue" stroke="midnightblue" points="492.05,-399.32 502.19,-402.4 496.18,-393.67 492.05,-399.32"/>
</g>
<!-- Node35 -->
<g id="node35" class="node">
<title>Node35</title>
<g id="a_node35"><a xlink:href="c3_8cpp.html" target="_top" xlink:title="This file implements the primary register C3 of coprocessor CP15.">
<polygon fill="none" stroke="black" points="511.5,-335.5 511.5,-365.5 633.5,-365.5 633.5,-335.5 511.5,-335.5"/>
<text text-anchor="start" x="519.5" y="-353.5" font-family="Helvetica,sans-Serif" font-size="10.00">src/core/coprocessors</text>
<text text-anchor="middle" x="572.5" y="-342.5" font-family="Helvetica,sans-Serif" font-size="10.00">/cp15/c3.cpp</text>
</a>
</g>
</g>
<!-- Node34&#45;&gt;Node35 -->
<g id="edge52" class="edge">
<title>Node34&#45;&gt;Node35</title>
<path fill="none" stroke="midnightblue" d="M538.8,-394.45C546.29,-384.9 554.84,-374 561.46,-365.58"/>
<polygon fill="midnightblue" stroke="midnightblue" points="535.99,-392.37 532.57,-402.4 541.49,-396.69 535.99,-392.37"/>
</g>
<!-- Node36&#45;&gt;Node4 -->
<g id="edge56" class="edge">
<title>Node36&#45;&gt;Node4</title>
<path fill="none" stroke="midnightblue" d="M602.36,-399.71C565.1,-389.14 517.53,-375.63 482.21,-365.61"/>
<polygon fill="midnightblue" stroke="midnightblue" points="601.52,-403.11 612.09,-402.48 603.43,-396.38 601.52,-403.11"/>
</g>
<!-- Node37 -->
<g id="node37" class="node">
<title>Node37</title>
<g id="a_node37"><a xlink:href="c7_8cpp.html" target="_top" xlink:title="This file implements the primary register C7 of coprocessor CP15.">
<polygon fill="none" stroke="black" points="651.5,-335.5 651.5,-365.5 773.5,-365.5 773.5,-335.5 651.5,-335.5"/>
<text text-anchor="start" x="659.5" y="-353.5" font-family="Helvetica,sans-Serif" font-size="10.00">src/core/coprocessors</text>
<text text-anchor="middle" x="712.5" y="-342.5" font-family="Helvetica,sans-Serif" font-size="10.00">/cp15/c7.cpp</text>
</a>
</g>
</g>
<!-- Node36&#45;&gt;Node37 -->
<g id="edge55" class="edge">
<title>Node36&#45;&gt;Node37</title>
<path fill="none" stroke="midnightblue" d="M678.8,-394.45C686.29,-384.9 694.84,-374 701.46,-365.58"/>
<polygon fill="midnightblue" stroke="midnightblue" points="675.99,-392.37 672.57,-402.4 681.49,-396.69 675.99,-392.37"/>
</g>
<!-- Node38&#45;&gt;Node4 -->
<g id="edge59" class="edge">
<title>Node38&#45;&gt;Node4</title>
<path fill="none" stroke="midnightblue" d="M730.35,-401.85C628.42,-383.58 600.69,-383.88 502.5,-366 499.57,-365.47 496.57,-364.91 493.55,-364.33"/>
<polygon fill="midnightblue" stroke="midnightblue" points="729.99,-405.34 740.45,-403.67 731.23,-398.45 729.99,-405.34"/>
</g>
<!-- Node39 -->
<g id="node39" class="node">
<title>Node39</title>
<g id="a_node39"><a xlink:href="c8_8cpp.html" target="_top" xlink:title="This file implements the primary register C8 of coprocessor CP15.">
<polygon fill="none" stroke="black" points="791.5,-335.5 791.5,-365.5 913.5,-365.5 913.5,-335.5 791.5,-335.5"/>
<text text-anchor="start" x="799.5" y="-353.5" font-family="Helvetica,sans-Serif" font-size="10.00">src/core/coprocessors</text>
<text text-anchor="middle" x="852.5" y="-342.5" font-family="Helvetica,sans-Serif" font-size="10.00">/cp15/c8.cpp</text>
</a>
</g>
</g>
<!-- Node38&#45;&gt;Node39 -->
<g id="edge58" class="edge">
<title>Node38&#45;&gt;Node39</title>
<path fill="none" stroke="midnightblue" d="M818.8,-394.45C826.29,-384.9 834.84,-374 841.46,-365.58"/>
<polygon fill="midnightblue" stroke="midnightblue" points="815.99,-392.37 812.57,-402.4 821.49,-396.69 815.99,-392.37"/>
</g>
</g>
</svg>
