<?xml version="1.0" encoding="UTF-8" standalone="no"?>
<!DOCTYPE svg PUBLIC "-//W3C//DTD SVG 1.1//EN"
 "http://www.w3.org/Graphics/SVG/1.1/DTD/svg11.dtd">
<!-- Generated by graphviz version 2.43.0 (0)
 -->
<!-- Title: src/core/coprocessors/cp15/primary_reg.cpp Pages: 1 -->
<svg width="381pt" height="218pt"
 viewBox="0.00 0.00 381.00 218.00" xmlns="http://www.w3.org/2000/svg" xmlns:xlink="http://www.w3.org/1999/xlink">
<g id="graph0" class="graph" transform="scale(1 1) rotate(0) translate(4 214)">
<title>src/core/coprocessors/cp15/primary_reg.cpp</title>
<!-- Node1 -->
<g id="node1" class="node">
<title>Node1</title>
<g id="a_node1"><a xlink:title="This file implements a primary register interface of coprocessor CP15.">
<polygon fill="#bfbfbf" stroke="black" points="83,-179.5 83,-209.5 208,-209.5 208,-179.5 83,-179.5"/>
<text text-anchor="start" x="91" y="-197.5" font-family="Helvetica,sans-Serif" font-size="10.00">src/core/coprocessors</text>
<text text-anchor="middle" x="145.5" y="-186.5" font-family="Helvetica,sans-Serif" font-size="10.00">/cp15/primary_reg.cpp</text>
</a>
</g>
</g>
<!-- Node2 -->
<g id="node2" class="node">
<title>Node2</title>
<g id="a_node2"><a xlink:title=" ">
<polygon fill="none" stroke="#bfbfbf" points="0,-123.5 0,-142.5 79,-142.5 79,-123.5 0,-123.5"/>
<text text-anchor="middle" x="39.5" y="-130.5" font-family="Helvetica,sans-Serif" font-size="10.00">fmt/format.h</text>
</a>
</g>
</g>
<!-- Node1&#45;&gt;Node2 -->
<g id="edge1" class="edge">
<title>Node1&#45;&gt;Node2</title>
<path fill="none" stroke="midnightblue" d="M120.38,-179.4C103.23,-169.77 80.64,-157.09 63.69,-147.58"/>
<polygon fill="midnightblue" stroke="midnightblue" points="65.36,-144.5 54.92,-142.66 61.93,-150.6 65.36,-144.5"/>
</g>
<!-- Node3 -->
<g id="node3" class="node">
<title>Node3</title>
<g id="a_node3"><a xlink:href="primary__reg_8hpp.html" target="_top" xlink:title="This file defines a primary register interface of coprocessor CP15.">
<polygon fill="none" stroke="black" points="97,-123.5 97,-142.5 194,-142.5 194,-123.5 97,-123.5"/>
<text text-anchor="middle" x="145.5" y="-130.5" font-family="Helvetica,sans-Serif" font-size="10.00">primary_reg.hpp</text>
</a>
</g>
</g>
<!-- Node1&#45;&gt;Node3 -->
<g id="edge2" class="edge">
<title>Node1&#45;&gt;Node3</title>
<path fill="none" stroke="midnightblue" d="M145.5,-179.4C145.5,-171.47 145.5,-161.46 145.5,-152.86"/>
<polygon fill="midnightblue" stroke="midnightblue" points="149,-152.66 145.5,-142.66 142,-152.66 149,-152.66"/>
</g>
<!-- Node6 -->
<g id="node6" class="node">
<title>Node6</title>
<g id="a_node6"><a xlink:href="singleton_8hpp.html" target="_top" xlink:title="This file defines and implements a generic class that is used to treat other classes as singletons.">
<polygon fill="none" stroke="black" points="212,-123.5 212,-142.5 373,-142.5 373,-123.5 212,-123.5"/>
<text text-anchor="middle" x="292.5" y="-130.5" font-family="Helvetica,sans-Serif" font-size="10.00">zero_mate/utils/singleton.hpp</text>
</a>
</g>
</g>
<!-- Node1&#45;&gt;Node6 -->
<g id="edge5" class="edge">
<title>Node1&#45;&gt;Node6</title>
<path fill="none" stroke="midnightblue" d="M180.34,-179.4C205,-169.42 237.79,-156.15 261.53,-146.53"/>
<polygon fill="midnightblue" stroke="midnightblue" points="263.15,-149.65 271.11,-142.66 260.53,-143.17 263.15,-149.65"/>
</g>
<!-- Node4 -->
<g id="node4" class="node">
<title>Node4</title>
<g id="a_node4"><a xlink:href="logging__system_8hpp.html" target="_top" xlink:title="This file defines a logging system that is used in the project.">
<polygon fill="none" stroke="black" points="80,-56.5 80,-86.5 211,-86.5 211,-56.5 80,-56.5"/>
<text text-anchor="start" x="88" y="-74.5" font-family="Helvetica,sans-Serif" font-size="10.00">zero_mate/utils/logging</text>
<text text-anchor="middle" x="145.5" y="-63.5" font-family="Helvetica,sans-Serif" font-size="10.00">_system.hpp</text>
</a>
</g>
</g>
<!-- Node3&#45;&gt;Node4 -->
<g id="edge3" class="edge">
<title>Node3&#45;&gt;Node4</title>
<path fill="none" stroke="midnightblue" d="M145.5,-123.48C145.5,-116.47 145.5,-106.19 145.5,-96.7"/>
<polygon fill="midnightblue" stroke="midnightblue" points="149,-96.52 145.5,-86.52 142,-96.52 149,-96.52"/>
</g>
<!-- Node5 -->
<g id="node5" class="node">
<title>Node5</title>
<g id="a_node5"><a xlink:href="logger_8hpp.html" target="_top" xlink:title="This file defines a general logger interface.">
<polygon fill="none" stroke="black" points="111.5,-0.5 111.5,-19.5 179.5,-19.5 179.5,-0.5 111.5,-0.5"/>
<text text-anchor="middle" x="145.5" y="-7.5" font-family="Helvetica,sans-Serif" font-size="10.00">logger.hpp</text>
</a>
</g>
</g>
<!-- Node4&#45;&gt;Node5 -->
<g id="edge4" class="edge">
<title>Node4&#45;&gt;Node5</title>
<path fill="none" stroke="midnightblue" d="M145.5,-56.4C145.5,-48.47 145.5,-38.46 145.5,-29.86"/>
<polygon fill="midnightblue" stroke="midnightblue" points="149,-29.66 145.5,-19.66 142,-29.66 149,-29.66"/>
</g>
</g>
</svg>
