<?xml version="1.0" encoding="UTF-8" standalone="no"?>
<!DOCTYPE svg PUBLIC "-//W3C//DTD SVG 1.1//EN"
 "http://www.w3.org/Graphics/SVG/1.1/DTD/svg11.dtd">
<!-- Generated by graphviz version 2.43.0 (0)
 -->
<!-- Title: src/core/peripherals/ram.cpp Pages: 1 -->
<svg width="398pt" height="207pt"
 viewBox="0.00 0.00 397.50 207.00" xmlns="http://www.w3.org/2000/svg" xmlns:xlink="http://www.w3.org/1999/xlink">
<g id="graph0" class="graph" transform="scale(1 1) rotate(0) translate(4 203)">
<title>src/core/peripherals/ram.cpp</title>
<!-- Node1 -->
<g id="node1" class="node">
<title>Node1</title>
<g id="a_node1"><a xlink:title=" ">
<polygon fill="#bfbfbf" stroke="black" points="45.5,-168.5 45.5,-198.5 158.5,-198.5 158.5,-168.5 45.5,-168.5"/>
<text text-anchor="start" x="53.5" y="-186.5" font-family="Helvetica,sans-Serif" font-size="10.00">src/core/peripherals</text>
<text text-anchor="middle" x="102" y="-175.5" font-family="Helvetica,sans-Serif" font-size="10.00">/ram.cpp</text>
</a>
</g>
</g>
<!-- Node2 -->
<g id="node2" class="node">
<title>Node2</title>
<g id="a_node2"><a xlink:title=" ">
<polygon fill="none" stroke="#bfbfbf" points="0,-112.5 0,-131.5 52,-131.5 52,-112.5 0,-112.5"/>
<text text-anchor="middle" x="26" y="-119.5" font-family="Helvetica,sans-Serif" font-size="10.00">cassert</text>
</a>
</g>
</g>
<!-- Node1&#45;&gt;Node2 -->
<g id="edge1" class="edge">
<title>Node1&#45;&gt;Node2</title>
<path fill="none" stroke="midnightblue" d="M83.99,-168.4C72.26,-159.22 56.98,-147.26 45.06,-137.92"/>
<polygon fill="midnightblue" stroke="midnightblue" points="47.09,-135.07 37.06,-131.66 42.78,-140.58 47.09,-135.07"/>
</g>
<!-- Node3 -->
<g id="node3" class="node">
<title>Node3</title>
<g id="a_node3"><a xlink:title=" ">
<polygon fill="none" stroke="#bfbfbf" points="70,-112.5 70,-131.5 134,-131.5 134,-112.5 70,-112.5"/>
<text text-anchor="middle" x="102" y="-119.5" font-family="Helvetica,sans-Serif" font-size="10.00">algorithm</text>
</a>
</g>
</g>
<!-- Node1&#45;&gt;Node3 -->
<g id="edge2" class="edge">
<title>Node1&#45;&gt;Node3</title>
<path fill="none" stroke="midnightblue" d="M102,-168.4C102,-160.47 102,-150.46 102,-141.86"/>
<polygon fill="midnightblue" stroke="midnightblue" points="105.5,-141.66 102,-131.66 98.5,-141.66 105.5,-141.66"/>
</g>
<!-- Node4 -->
<g id="node4" class="node">
<title>Node4</title>
<g id="a_node4"><a xlink:href="ram_8hpp.html" target="_top" xlink:title=" ">
<polygon fill="none" stroke="black" points="152.5,-112.5 152.5,-131.5 209.5,-131.5 209.5,-112.5 152.5,-112.5"/>
<text text-anchor="middle" x="181" y="-119.5" font-family="Helvetica,sans-Serif" font-size="10.00">ram.hpp</text>
</a>
</g>
</g>
<!-- Node1&#45;&gt;Node4 -->
<g id="edge3" class="edge">
<title>Node1&#45;&gt;Node4</title>
<path fill="none" stroke="midnightblue" d="M120.72,-168.4C132.91,-159.22 148.79,-147.26 161.19,-137.92"/>
<polygon fill="midnightblue" stroke="midnightblue" points="163.62,-140.47 169.5,-131.66 159.41,-134.88 163.62,-140.47"/>
</g>
<!-- Node5 -->
<g id="node5" class="node">
<title>Node5</title>
<g id="a_node5"><a xlink:title=" ">
<polygon fill="none" stroke="#bfbfbf" points="14.5,-56.5 14.5,-75.5 43.5,-75.5 43.5,-56.5 14.5,-56.5"/>
<text text-anchor="middle" x="29" y="-63.5" font-family="Helvetica,sans-Serif" font-size="10.00">bit</text>
</a>
</g>
</g>
<!-- Node4&#45;&gt;Node5 -->
<g id="edge4" class="edge">
<title>Node4&#45;&gt;Node5</title>
<path fill="none" stroke="midnightblue" d="M155.93,-112.36C131.9,-104.04 94.4,-90.95 53.13,-75.99"/>
<polygon fill="midnightblue" stroke="midnightblue" points="54.3,-72.7 43.71,-72.57 51.91,-79.27 54.3,-72.7"/>
</g>
<!-- Node6 -->
<g id="node6" class="node">
<title>Node6</title>
<g id="a_node6"><a xlink:title=" ">
<polygon fill="none" stroke="#bfbfbf" points="62,-56.5 62,-75.5 104,-75.5 104,-56.5 62,-56.5"/>
<text text-anchor="middle" x="83" y="-63.5" font-family="Helvetica,sans-Serif" font-size="10.00">array</text>
</a>
</g>
</g>
<!-- Node4&#45;&gt;Node6 -->
<g id="edge5" class="edge">
<title>Node4&#45;&gt;Node6</title>
<path fill="none" stroke="midnightblue" d="M165.25,-112.32C149.68,-103.74 125.62,-90.49 107.54,-80.52"/>
<polygon fill="midnightblue" stroke="midnightblue" points="109.15,-77.42 98.71,-75.65 105.78,-83.55 109.15,-77.42"/>
</g>
<!-- Node7 -->
<g id="node7" class="node">
<title>Node7</title>
<g id="a_node7"><a xlink:title=" ">
<polygon fill="none" stroke="#bfbfbf" points="122.5,-56.5 122.5,-75.5 169.5,-75.5 169.5,-56.5 122.5,-56.5"/>
<text text-anchor="middle" x="146" y="-63.5" font-family="Helvetica,sans-Serif" font-size="10.00">vector</text>
</a>
</g>
</g>
<!-- Node4&#45;&gt;Node7 -->
<g id="edge6" class="edge">
<title>Node4&#45;&gt;Node7</title>
<path fill="none" stroke="midnightblue" d="M175.22,-112.08C170.33,-104.53 163.17,-93.49 157.17,-84.23"/>
<polygon fill="midnightblue" stroke="midnightblue" points="160.05,-82.24 151.67,-75.75 154.17,-86.05 160.05,-82.24"/>
</g>
<!-- Node8 -->
<g id="node8" class="node">
<title>Node8</title>
<g id="a_node8"><a xlink:title=" ">
<polygon fill="none" stroke="#bfbfbf" points="188,-56.5 188,-75.5 246,-75.5 246,-56.5 188,-56.5"/>
<text text-anchor="middle" x="217" y="-63.5" font-family="Helvetica,sans-Serif" font-size="10.00">memory</text>
</a>
</g>
</g>
<!-- Node4&#45;&gt;Node8 -->
<g id="edge7" class="edge">
<title>Node4&#45;&gt;Node8</title>
<path fill="none" stroke="midnightblue" d="M186.94,-112.08C191.98,-104.53 199.34,-93.49 205.51,-84.23"/>
<polygon fill="midnightblue" stroke="midnightblue" points="208.53,-86.01 211.17,-75.75 202.71,-82.13 208.53,-86.01"/>
</g>
<!-- Node9 -->
<g id="node9" class="node">
<title>Node9</title>
<g id="a_node9"><a xlink:title=" ">
<polygon fill="none" stroke="#bfbfbf" points="285,-0.5 285,-19.5 335,-19.5 335,-0.5 285,-0.5"/>
<text text-anchor="middle" x="310" y="-7.5" font-family="Helvetica,sans-Serif" font-size="10.00">cstdint</text>
</a>
</g>
</g>
<!-- Node4&#45;&gt;Node9 -->
<g id="edge8" class="edge">
<title>Node4&#45;&gt;Node9</title>
<path fill="none" stroke="midnightblue" d="M198.5,-112.43C214.2,-104.28 237.4,-91.05 255,-76 271.77,-61.66 287.69,-41.94 298.04,-27.99"/>
<polygon fill="midnightblue" stroke="midnightblue" points="300.96,-29.92 304,-19.77 295.29,-25.82 300.96,-29.92"/>
</g>
<!-- Node10 -->
<g id="node10" class="node">
<title>Node10</title>
<g id="a_node10"><a xlink:href="peripheral_8hpp.html" target="_top" xlink:title=" ">
<polygon fill="none" stroke="black" points="302.5,-56.5 302.5,-75.5 389.5,-75.5 389.5,-56.5 302.5,-56.5"/>
<text text-anchor="middle" x="346" y="-63.5" font-family="Helvetica,sans-Serif" font-size="10.00">peripheral.hpp</text>
</a>
</g>
</g>
<!-- Node4&#45;&gt;Node10 -->
<g id="edge9" class="edge">
<title>Node4&#45;&gt;Node10</title>
<path fill="none" stroke="midnightblue" d="M207.14,-112.44C235.02,-103.32 279.35,-88.81 310.4,-78.65"/>
<polygon fill="midnightblue" stroke="midnightblue" points="311.56,-81.95 319.98,-75.52 309.38,-75.3 311.56,-81.95"/>
</g>
<!-- Node10&#45;&gt;Node9 -->
<g id="edge10" class="edge">
<title>Node10&#45;&gt;Node9</title>
<path fill="none" stroke="midnightblue" d="M340.06,-56.08C335.02,-48.53 327.66,-37.49 321.49,-28.23"/>
<polygon fill="midnightblue" stroke="midnightblue" points="324.29,-26.13 315.83,-19.75 318.47,-30.01 324.29,-26.13"/>
</g>
</g>
</svg>
