<?xml version="1.0" encoding="UTF-8" standalone="no"?>
<!DOCTYPE svg PUBLIC "-//W3C//DTD SVG 1.1//EN"
 "http://www.w3.org/Graphics/SVG/1.1/DTD/svg11.dtd">
<!-- Generated by graphviz version 2.43.0 (0)
 -->
<!-- Title: src/gui/windows/peripherals/ram_window.cpp Pages: 1 -->
<svg width="437pt" height="229pt"
 viewBox="0.00 0.00 437.00 229.00" xmlns="http://www.w3.org/2000/svg" xmlns:xlink="http://www.w3.org/1999/xlink">
<g id="graph0" class="graph" transform="scale(1 1) rotate(0) translate(4 225)">
<title>src/gui/windows/peripherals/ram_window.cpp</title>
<!-- Node1 -->
<g id="node1" class="node">
<title>Node1</title>
<g id="a_node1"><a xlink:title=" ">
<polygon fill="#bfbfbf" stroke="black" points="94,-190.5 94,-220.5 246,-220.5 246,-190.5 94,-190.5"/>
<text text-anchor="start" x="102" y="-208.5" font-family="Helvetica,sans-Serif" font-size="10.00">src/gui/windows/peripherals</text>
<text text-anchor="middle" x="170" y="-197.5" font-family="Helvetica,sans-Serif" font-size="10.00">/ram_window.cpp</text>
</a>
</g>
</g>
<!-- Node2 -->
<g id="node2" class="node">
<title>Node2</title>
<g id="a_node2"><a xlink:title=" ">
<polygon fill="none" stroke="#bfbfbf" points="0,-129 0,-148 84,-148 84,-129 0,-129"/>
<text text-anchor="middle" x="42" y="-136" font-family="Helvetica,sans-Serif" font-size="10.00">imgui/imgui.h</text>
</a>
</g>
</g>
<!-- Node1&#45;&gt;Node2 -->
<g id="edge1" class="edge">
<title>Node1&#45;&gt;Node2</title>
<path fill="none" stroke="midnightblue" d="M142.23,-190.4C120.06,-179.14 89.26,-163.5 67.67,-152.54"/>
<polygon fill="midnightblue" stroke="midnightblue" points="69.25,-149.41 58.75,-148.01 66.08,-155.66 69.25,-149.41"/>
</g>
<!-- Node3 -->
<g id="node3" class="node">
<title>Node3</title>
<g id="a_node3"><a xlink:title=" ">
<polygon fill="none" stroke="#bfbfbf" points="102,-123.5 102,-153.5 238,-153.5 238,-123.5 102,-123.5"/>
<text text-anchor="start" x="110" y="-141.5" font-family="Helvetica,sans-Serif" font-size="10.00">imgui_memory_editor</text>
<text text-anchor="middle" x="170" y="-130.5" font-family="Helvetica,sans-Serif" font-size="10.00">/imgui_memory_editor.h</text>
</a>
</g>
</g>
<!-- Node1&#45;&gt;Node3 -->
<g id="edge2" class="edge">
<title>Node1&#45;&gt;Node3</title>
<path fill="none" stroke="midnightblue" d="M170,-190.4C170,-182.64 170,-172.81 170,-163.86"/>
<polygon fill="midnightblue" stroke="midnightblue" points="173.5,-163.58 170,-153.58 166.5,-163.58 173.5,-163.58"/>
</g>
<!-- Node4 -->
<g id="node4" class="node">
<title>Node4</title>
<g id="a_node4"><a xlink:href="ram__window_8hpp.html" target="_top" xlink:title=" ">
<polygon fill="none" stroke="black" points="256.5,-129 256.5,-148 355.5,-148 355.5,-129 256.5,-129"/>
<text text-anchor="middle" x="306" y="-136" font-family="Helvetica,sans-Serif" font-size="10.00">ram_window.hpp</text>
</a>
</g>
</g>
<!-- Node1&#45;&gt;Node4 -->
<g id="edge3" class="edge">
<title>Node1&#45;&gt;Node4</title>
<path fill="none" stroke="midnightblue" d="M199.51,-190.4C223.16,-179.09 256.08,-163.36 279.03,-152.39"/>
<polygon fill="midnightblue" stroke="midnightblue" points="280.69,-155.48 288.2,-148.01 277.67,-149.16 280.69,-155.48"/>
</g>
<!-- Node5 -->
<g id="node5" class="node">
<title>Node5</title>
<g id="a_node5"><a xlink:href="window_8hpp.html" target="_top" xlink:title=" ">
<polygon fill="none" stroke="black" points="197,-62 197,-81 289,-81 289,-62 197,-62"/>
<text text-anchor="middle" x="243" y="-69" font-family="Helvetica,sans-Serif" font-size="10.00">../../window.hpp</text>
</a>
</g>
</g>
<!-- Node4&#45;&gt;Node5 -->
<g id="edge4" class="edge">
<title>Node4&#45;&gt;Node5</title>
<path fill="none" stroke="midnightblue" d="M297.5,-128.73C287.49,-118.4 270.66,-101.04 258.34,-88.33"/>
<polygon fill="midnightblue" stroke="midnightblue" points="260.83,-85.87 251.36,-81.13 255.81,-90.74 260.83,-85.87"/>
</g>
<!-- Node7 -->
<g id="node7" class="node">
<title>Node7</title>
<g id="a_node7"><a xlink:href="ram_8hpp.html" target="_top" xlink:title=" ">
<polygon fill="none" stroke="black" points="307,-56.5 307,-86.5 429,-86.5 429,-56.5 307,-56.5"/>
<text text-anchor="start" x="315" y="-74.5" font-family="Helvetica,sans-Serif" font-size="10.00">../../../core/peripherals</text>
<text text-anchor="middle" x="368" y="-63.5" font-family="Helvetica,sans-Serif" font-size="10.00">/ram.hpp</text>
</a>
</g>
</g>
<!-- Node4&#45;&gt;Node7 -->
<g id="edge6" class="edge">
<title>Node4&#45;&gt;Node7</title>
<path fill="none" stroke="midnightblue" d="M314.36,-128.73C322.82,-119.86 336.23,-105.81 347.52,-93.97"/>
<polygon fill="midnightblue" stroke="midnightblue" points="350.19,-96.24 354.56,-86.59 345.13,-91.41 350.19,-96.24"/>
</g>
<!-- Node6 -->
<g id="node6" class="node">
<title>Node6</title>
<g id="a_node6"><a xlink:title=" ">
<polygon fill="none" stroke="#bfbfbf" points="214,-0.5 214,-19.5 272,-19.5 272,-0.5 214,-0.5"/>
<text text-anchor="middle" x="243" y="-7.5" font-family="Helvetica,sans-Serif" font-size="10.00">memory</text>
</a>
</g>
</g>
<!-- Node5&#45;&gt;Node6 -->
<g id="edge5" class="edge">
<title>Node5&#45;&gt;Node6</title>
<path fill="none" stroke="midnightblue" d="M243,-61.98C243,-53.58 243,-40.48 243,-29.66"/>
<polygon fill="midnightblue" stroke="midnightblue" points="246.5,-29.51 243,-19.51 239.5,-29.51 246.5,-29.51"/>
</g>
</g>
</svg>
