<?xml version="1.0" encoding="UTF-8" standalone="no"?>
<!DOCTYPE svg PUBLIC "-//W3C//DTD SVG 1.1//EN"
 "http://www.w3.org/Graphics/SVG/1.1/DTD/svg11.dtd">
<!-- Generated by graphviz version 2.43.0 (0)
 -->
<!-- Title: src/gui/windows/peripherals/ram_window.cpp Pages: 1 -->
<svg width="629pt" height="229pt"
 viewBox="0.00 0.00 628.50 229.00" xmlns="http://www.w3.org/2000/svg" xmlns:xlink="http://www.w3.org/1999/xlink">
<g id="graph0" class="graph" transform="scale(1 1) rotate(0) translate(4 225)">
<title>src/gui/windows/peripherals/ram_window.cpp</title>
<!-- Node1 -->
<g id="node1" class="node">
<title>Node1</title>
<g id="a_node1"><a xlink:title=" ">
<polygon fill="#bfbfbf" stroke="black" points="94,-190.5 94,-220.5 246,-220.5 246,-190.5 94,-190.5"/>
<text text-anchor="start" x="102" y="-208.5" font-family="Helvetica,sans-Serif" font-size="10.00">src/gui/windows/peripherals</text>
<text text-anchor="middle" x="170" y="-197.5" font-family="Helvetica,sans-Serif" font-size="10.00">/ram_window.cpp</text>
</a>
</g>
</g>
<!-- Node2 -->
<g id="node2" class="node">
<title>Node2</title>
<g id="a_node2"><a xlink:title=" ">
<polygon fill="none" stroke="#bfbfbf" points="0,-129 0,-148 84,-148 84,-129 0,-129"/>
<text text-anchor="middle" x="42" y="-136" font-family="Helvetica,sans-Serif" font-size="10.00">imgui/imgui.h</text>
</a>
</g>
</g>
<!-- Node1&#45;&gt;Node2 -->
<g id="edge1" class="edge">
<title>Node1&#45;&gt;Node2</title>
<path fill="none" stroke="midnightblue" d="M142.23,-190.4C120.06,-179.14 89.26,-163.5 67.67,-152.54"/>
<polygon fill="midnightblue" stroke="midnightblue" points="69.25,-149.41 58.75,-148.01 66.08,-155.66 69.25,-149.41"/>
</g>
<!-- Node3 -->
<g id="node3" class="node">
<title>Node3</title>
<g id="a_node3"><a xlink:title=" ">
<polygon fill="none" stroke="#bfbfbf" points="102,-123.5 102,-153.5 238,-153.5 238,-123.5 102,-123.5"/>
<text text-anchor="start" x="110" y="-141.5" font-family="Helvetica,sans-Serif" font-size="10.00">imgui_memory_editor</text>
<text text-anchor="middle" x="170" y="-130.5" font-family="Helvetica,sans-Serif" font-size="10.00">/imgui_memory_editor.h</text>
</a>
</g>
</g>
<!-- Node1&#45;&gt;Node3 -->
<g id="edge2" class="edge">
<title>Node1&#45;&gt;Node3</title>
<path fill="none" stroke="midnightblue" d="M170,-190.4C170,-182.64 170,-172.81 170,-163.86"/>
<polygon fill="midnightblue" stroke="midnightblue" points="173.5,-163.58 170,-153.58 166.5,-163.58 173.5,-163.58"/>
</g>
<!-- Node4 -->
<g id="node4" class="node">
<title>Node4</title>
<g id="a_node4"><a xlink:href="ram__window_8hpp.html" target="_top" xlink:title=" ">
<polygon fill="none" stroke="black" points="256.5,-129 256.5,-148 355.5,-148 355.5,-129 256.5,-129"/>
<text text-anchor="middle" x="306" y="-136" font-family="Helvetica,sans-Serif" font-size="10.00">ram_window.hpp</text>
</a>
</g>
</g>
<!-- Node1&#45;&gt;Node4 -->
<g id="edge3" class="edge">
<title>Node1&#45;&gt;Node4</title>
<path fill="none" stroke="midnightblue" d="M199.51,-190.4C223.16,-179.09 256.08,-163.36 279.03,-152.39"/>
<polygon fill="midnightblue" stroke="midnightblue" points="280.69,-155.48 288.2,-148.01 277.67,-149.16 280.69,-155.48"/>
</g>
<!-- Node5 -->
<g id="node5" class="node">
<title>Node5</title>
<g id="a_node5"><a xlink:href="window_8hpp.html" target="_top" xlink:title=" ">
<polygon fill="none" stroke="black" points="198,-62 198,-81 290,-81 290,-62 198,-62"/>
<text text-anchor="middle" x="244" y="-69" font-family="Helvetica,sans-Serif" font-size="10.00">../../window.hpp</text>
</a>
</g>
</g>
<!-- Node4&#45;&gt;Node5 -->
<g id="edge4" class="edge">
<title>Node4&#45;&gt;Node5</title>
<path fill="none" stroke="midnightblue" d="M297.64,-128.73C287.88,-118.5 271.53,-101.36 259.45,-88.69"/>
<polygon fill="midnightblue" stroke="midnightblue" points="261.66,-85.95 252.23,-81.13 256.6,-90.78 261.66,-85.95"/>
</g>
<!-- Node7 -->
<g id="node7" class="node">
<title>Node7</title>
<g id="a_node7"><a xlink:href="ram_8hpp.html" target="_top" xlink:title=" ">
<polygon fill="none" stroke="black" points="308,-56.5 308,-86.5 430,-86.5 430,-56.5 308,-56.5"/>
<text text-anchor="start" x="316" y="-74.5" font-family="Helvetica,sans-Serif" font-size="10.00">../../../core/peripherals</text>
<text text-anchor="middle" x="369" y="-63.5" font-family="Helvetica,sans-Serif" font-size="10.00">/ram.hpp</text>
</a>
</g>
</g>
<!-- Node4&#45;&gt;Node7 -->
<g id="edge6" class="edge">
<title>Node4&#45;&gt;Node7</title>
<path fill="none" stroke="midnightblue" d="M314.5,-128.73C323.09,-119.86 336.71,-105.81 348.19,-93.97"/>
<polygon fill="midnightblue" stroke="midnightblue" points="350.9,-96.21 355.34,-86.59 345.87,-91.33 350.9,-96.21"/>
</g>
<!-- Node6 -->
<g id="node6" class="node">
<title>Node6</title>
<g id="a_node6"><a xlink:title=" ">
<polygon fill="none" stroke="#bfbfbf" points="215,-0.5 215,-19.5 273,-19.5 273,-0.5 215,-0.5"/>
<text text-anchor="middle" x="244" y="-7.5" font-family="Helvetica,sans-Serif" font-size="10.00">memory</text>
</a>
</g>
</g>
<!-- Node5&#45;&gt;Node6 -->
<g id="edge5" class="edge">
<title>Node5&#45;&gt;Node6</title>
<path fill="none" stroke="midnightblue" d="M244,-61.98C244,-53.58 244,-40.48 244,-29.66"/>
<polygon fill="midnightblue" stroke="midnightblue" points="247.5,-29.51 244,-19.51 240.5,-29.51 247.5,-29.51"/>
</g>
<!-- Node7&#45;&gt;Node6 -->
<g id="edge10" class="edge">
<title>Node7&#45;&gt;Node6</title>
<path fill="none" stroke="midnightblue" d="M339.38,-56.4C318.78,-46.59 291.52,-33.62 271.42,-24.05"/>
<polygon fill="midnightblue" stroke="midnightblue" points="272.72,-20.8 262.19,-19.66 269.71,-27.12 272.72,-20.8"/>
</g>
<!-- Node8 -->
<g id="node8" class="node">
<title>Node8</title>
<g id="a_node8"><a xlink:title=" ">
<polygon fill="none" stroke="#bfbfbf" points="291.5,-0.5 291.5,-19.5 320.5,-19.5 320.5,-0.5 291.5,-0.5"/>
<text text-anchor="middle" x="306" y="-7.5" font-family="Helvetica,sans-Serif" font-size="10.00">bit</text>
</a>
</g>
</g>
<!-- Node7&#45;&gt;Node8 -->
<g id="edge7" class="edge">
<title>Node7&#45;&gt;Node8</title>
<path fill="none" stroke="midnightblue" d="M354.07,-56.4C344.63,-47.49 332.42,-35.95 322.67,-26.74"/>
<polygon fill="midnightblue" stroke="midnightblue" points="324.84,-23.98 315.17,-19.66 320.03,-29.07 324.84,-23.98"/>
</g>
<!-- Node9 -->
<g id="node9" class="node">
<title>Node9</title>
<g id="a_node9"><a xlink:title=" ">
<polygon fill="none" stroke="#bfbfbf" points="339,-0.5 339,-19.5 381,-19.5 381,-0.5 339,-0.5"/>
<text text-anchor="middle" x="360" y="-7.5" font-family="Helvetica,sans-Serif" font-size="10.00">array</text>
</a>
</g>
</g>
<!-- Node7&#45;&gt;Node9 -->
<g id="edge8" class="edge">
<title>Node7&#45;&gt;Node9</title>
<path fill="none" stroke="midnightblue" d="M366.87,-56.4C365.65,-48.38 364.12,-38.23 362.81,-29.57"/>
<polygon fill="midnightblue" stroke="midnightblue" points="366.27,-29.02 361.31,-19.66 359.34,-30.07 366.27,-29.02"/>
</g>
<!-- Node10 -->
<g id="node10" class="node">
<title>Node10</title>
<g id="a_node10"><a xlink:title=" ">
<polygon fill="none" stroke="#bfbfbf" points="399.5,-0.5 399.5,-19.5 446.5,-19.5 446.5,-0.5 399.5,-0.5"/>
<text text-anchor="middle" x="423" y="-7.5" font-family="Helvetica,sans-Serif" font-size="10.00">vector</text>
</a>
</g>
</g>
<!-- Node7&#45;&gt;Node10 -->
<g id="edge9" class="edge">
<title>Node7&#45;&gt;Node10</title>
<path fill="none" stroke="midnightblue" d="M381.8,-56.4C389.72,-47.66 399.94,-36.41 408.21,-27.3"/>
<polygon fill="midnightblue" stroke="midnightblue" points="411.01,-29.42 415.14,-19.66 405.83,-24.71 411.01,-29.42"/>
</g>
<!-- Node11 -->
<g id="node11" class="node">
<title>Node11</title>
<g id="a_node11"><a xlink:title=" ">
<polygon fill="none" stroke="#bfbfbf" points="465,-0.5 465,-19.5 515,-19.5 515,-0.5 465,-0.5"/>
<text text-anchor="middle" x="490" y="-7.5" font-family="Helvetica,sans-Serif" font-size="10.00">cstdint</text>
</a>
</g>
</g>
<!-- Node7&#45;&gt;Node11 -->
<g id="edge11" class="edge">
<title>Node7&#45;&gt;Node11</title>
<path fill="none" stroke="midnightblue" d="M397.68,-56.4C417.52,-46.64 443.76,-33.74 463.19,-24.18"/>
<polygon fill="midnightblue" stroke="midnightblue" points="464.96,-27.21 472.39,-19.66 461.88,-20.93 464.96,-27.21"/>
</g>
<!-- Node12 -->
<g id="node12" class="node">
<title>Node12</title>
<g id="a_node12"><a xlink:href="peripheral_8hpp.html" target="_top" xlink:title="This file defines an interface for a memory&#45;mapped peripheral.">
<polygon fill="none" stroke="black" points="533.5,-0.5 533.5,-19.5 620.5,-19.5 620.5,-0.5 533.5,-0.5"/>
<text text-anchor="middle" x="577" y="-7.5" font-family="Helvetica,sans-Serif" font-size="10.00">peripheral.hpp</text>
</a>
</g>
</g>
<!-- Node7&#45;&gt;Node12 -->
<g id="edge12" class="edge">
<title>Node7&#45;&gt;Node12</title>
<path fill="none" stroke="midnightblue" d="M418.03,-56.47C454.38,-46.08 503.31,-32.08 537.25,-22.37"/>
<polygon fill="midnightblue" stroke="midnightblue" points="538.61,-25.62 547.26,-19.51 536.69,-18.89 538.61,-25.62"/>
</g>
</g>
</svg>
