<?xml version="1.0" encoding="UTF-8" standalone="no"?>
<!DOCTYPE svg PUBLIC "-//W3C//DTD SVG 1.1//EN"
 "http://www.w3.org/Graphics/SVG/1.1/DTD/svg11.dtd">
<!-- Generated by graphviz version 2.43.0 (0)
 -->
<!-- Title: src/gui/windows/registers_window.hpp Pages: 1 -->
<svg width="2606pt" height="408pt"
 viewBox="0.00 0.00 2605.79 408.00" xmlns="http://www.w3.org/2000/svg" xmlns:xlink="http://www.w3.org/1999/xlink">
<g id="graph0" class="graph" transform="scale(1 1) rotate(0) translate(4 404)">
<title>src/gui/windows/registers_window.hpp</title>
<!-- Node1 -->
<g id="node1" class="node">
<title>Node1</title>
<g id="a_node1"><a xlink:title=" ">
<polygon fill="#bfbfbf" stroke="black" points="74,-369.5 74,-399.5 214,-399.5 214,-369.5 74,-369.5"/>
<text text-anchor="start" x="82" y="-387.5" font-family="Helvetica,sans-Serif" font-size="10.00">src/gui/windows/registers</text>
<text text-anchor="middle" x="144" y="-376.5" font-family="Helvetica,sans-Serif" font-size="10.00">_window.hpp</text>
</a>
</g>
</g>
<!-- Node2 -->
<g id="node2" class="node">
<title>Node2</title>
<g id="a_node2"><a xlink:title=" ">
<polygon fill="none" stroke="#bfbfbf" points="0,-308 0,-327 84,-327 84,-308 0,-308"/>
<text text-anchor="middle" x="42" y="-315" font-family="Helvetica,sans-Serif" font-size="10.00">imgui/imgui.h</text>
</a>
</g>
</g>
<!-- Node1&#45;&gt;Node2 -->
<g id="edge1" class="edge">
<title>Node1&#45;&gt;Node2</title>
<path fill="none" stroke="midnightblue" d="M121.87,-369.4C104.76,-358.5 81.2,-343.48 64.1,-332.58"/>
<polygon fill="midnightblue" stroke="midnightblue" points="65.66,-329.43 55.35,-327.01 61.9,-335.33 65.66,-329.43"/>
</g>
<!-- Node3 -->
<g id="node3" class="node">
<title>Node3</title>
<g id="a_node3"><a xlink:href="window_8hpp.html" target="_top" xlink:title=" ">
<polygon fill="none" stroke="black" points="102.5,-308 102.5,-327 185.5,-327 185.5,-308 102.5,-308"/>
<text text-anchor="middle" x="144" y="-315" font-family="Helvetica,sans-Serif" font-size="10.00">../window.hpp</text>
</a>
</g>
</g>
<!-- Node1&#45;&gt;Node3 -->
<g id="edge2" class="edge">
<title>Node1&#45;&gt;Node3</title>
<path fill="none" stroke="midnightblue" d="M144,-369.4C144,-360.06 144,-347.71 144,-337.52"/>
<polygon fill="midnightblue" stroke="midnightblue" points="147.5,-337.19 144,-327.19 140.5,-337.19 147.5,-337.19"/>
</g>
<!-- Node5 -->
<g id="node5" class="node">
<title>Node5</title>
<g id="a_node5"><a xlink:href="core_8hpp.html" target="_top" xlink:title="This file defines a class that represents a CPU core (arm1176jzf_s).">
<polygon fill="none" stroke="black" points="366,-302.5 366,-332.5 480,-332.5 480,-302.5 366,-302.5"/>
<text text-anchor="start" x="374" y="-320.5" font-family="Helvetica,sans-Serif" font-size="10.00">../../core/arm1176jzf</text>
<text text-anchor="middle" x="423" y="-309.5" font-family="Helvetica,sans-Serif" font-size="10.00">_s/core.hpp</text>
</a>
</g>
</g>
<!-- Node1&#45;&gt;Node5 -->
<g id="edge4" class="edge">
<title>Node1&#45;&gt;Node5</title>
<path fill="none" stroke="midnightblue" d="M204.2,-369.48C248.82,-359.08 309.65,-344.91 355.85,-334.14"/>
<polygon fill="midnightblue" stroke="midnightblue" points="356.83,-337.51 365.77,-331.83 355.24,-330.69 356.83,-337.51"/>
</g>
<!-- Node4 -->
<g id="node4" class="node">
<title>Node4</title>
<g id="a_node4"><a xlink:title=" ">
<polygon fill="none" stroke="#bfbfbf" points="16,-241 16,-260 74,-260 74,-241 16,-241"/>
<text text-anchor="middle" x="45" y="-248" font-family="Helvetica,sans-Serif" font-size="10.00">memory</text>
</a>
</g>
</g>
<!-- Node3&#45;&gt;Node4 -->
<g id="edge3" class="edge">
<title>Node3&#45;&gt;Node4</title>
<path fill="none" stroke="midnightblue" d="M130.65,-307.73C114.25,-296.96 86.2,-278.55 66.69,-265.74"/>
<polygon fill="midnightblue" stroke="midnightblue" points="68.42,-262.69 58.14,-260.13 64.58,-268.54 68.42,-262.69"/>
</g>
<!-- Node6 -->
<g id="node6" class="node">
<title>Node6</title>
<g id="a_node6"><a xlink:href="context_8hpp.html" target="_top" xlink:title="This file defines the context (registers) of the CPU.">
<polygon fill="none" stroke="black" points="349,-62 349,-81 423,-81 423,-62 349,-62"/>
<text text-anchor="middle" x="386" y="-69" font-family="Helvetica,sans-Serif" font-size="10.00">context.hpp</text>
</a>
</g>
</g>
<!-- Node5&#45;&gt;Node6 -->
<g id="edge5" class="edge">
<title>Node5&#45;&gt;Node6</title>
<path fill="none" stroke="midnightblue" d="M480.08,-310.94C536.71,-304.11 617.75,-290.32 637,-266 661,-235.68 658.34,-211.24 637,-179 612.76,-142.38 491.77,-102.89 427.03,-83.93"/>
<polygon fill="midnightblue" stroke="midnightblue" points="427.73,-80.49 417.15,-81.07 425.78,-87.21 427.73,-80.49"/>
</g>
<!-- Node7 -->
<g id="node7" class="node">
<title>Node7</title>
<g id="a_node7"><a xlink:href="logger_8hpp.html" target="_top" xlink:title="This file defines a general logger interface as well as a logging system that is used in the project.">
<polygon fill="none" stroke="black" points="204,-0.5 204,-19.5 338,-19.5 338,-0.5 204,-0.5"/>
<text text-anchor="middle" x="271" y="-7.5" font-family="Helvetica,sans-Serif" font-size="10.00">../utils/logger/logger.hpp</text>
</a>
</g>
</g>
<!-- Node5&#45;&gt;Node7 -->
<g id="edge59" class="edge">
<title>Node5&#45;&gt;Node7</title>
<path fill="none" stroke="midnightblue" d="M365.98,-314.25C288.55,-310.01 155.8,-298.15 121,-266 95.42,-242.38 102,-224.82 102,-190 102,-190 102,-190 102,-132 102,-71.28 175.03,-38.1 225.07,-22.49"/>
<polygon fill="midnightblue" stroke="midnightblue" points="226.17,-25.82 234.75,-19.61 224.16,-19.11 226.17,-25.82"/>
</g>
<!-- Node8 -->
<g id="node8" class="node">
<title>Node8</title>
<g id="a_node8"><a xlink:href="exceptions_8hpp.html" target="_top" xlink:title="This file defines all exceptions that can be thrown by the CPU during execution.">
<polygon fill="none" stroke="black" points="387.5,-179.5 387.5,-198.5 478.5,-198.5 478.5,-179.5 387.5,-179.5"/>
<text text-anchor="middle" x="433" y="-186.5" font-family="Helvetica,sans-Serif" font-size="10.00">exceptions.hpp</text>
</a>
</g>
</g>
<!-- Node5&#45;&gt;Node8 -->
<g id="edge7" class="edge">
<title>Node5&#45;&gt;Node8</title>
<path fill="none" stroke="midnightblue" d="M368.27,-302.38C326.96,-288.92 280.87,-266.08 303,-235 312.7,-221.38 350.68,-209.2 383.1,-200.95"/>
<polygon fill="midnightblue" stroke="midnightblue" points="384.07,-204.32 392.94,-198.52 382.4,-197.52 384.07,-204.32"/>
</g>
<!-- Node10 -->
<g id="node10" class="node">
<title>Node10</title>
<g id="a_node10"><a xlink:href="isa_8hpp.html" target="_top" xlink:title="This file is just a helper file for including all ARM instructions supported by the emulator.">
<polygon fill="none" stroke="black" points="1687.5,-123.5 1687.5,-142.5 1756.5,-142.5 1756.5,-123.5 1687.5,-123.5"/>
<text text-anchor="middle" x="1722" y="-130.5" font-family="Helvetica,sans-Serif" font-size="10.00">isa/isa.hpp</text>
</a>
</g>
</g>
<!-- Node5&#45;&gt;Node10 -->
<g id="edge10" class="edge">
<title>Node5&#45;&gt;Node10</title>
<path fill="none" stroke="midnightblue" d="M480.07,-308.48C698.83,-277.75 1481.4,-167.8 1677.3,-140.28"/>
<polygon fill="midnightblue" stroke="midnightblue" points="1677.83,-143.74 1687.24,-138.88 1676.85,-136.81 1677.83,-143.74"/>
</g>
<!-- Node29 -->
<g id="node29" class="node">
<title>Node29</title>
<g id="a_node29"><a xlink:href="isa__decoder_8hpp.html" target="_top" xlink:title="This file defines an instruction decoder.">
<polygon fill="none" stroke="black" points="1893.5,-179.5 1893.5,-198.5 2006.5,-198.5 2006.5,-179.5 1893.5,-179.5"/>
<text text-anchor="middle" x="1950" y="-186.5" font-family="Helvetica,sans-Serif" font-size="10.00">isa/isa_decoder.hpp</text>
</a>
</g>
</g>
<!-- Node5&#45;&gt;Node29 -->
<g id="edge46" class="edge">
<title>Node5&#45;&gt;Node29</title>
<path fill="none" stroke="midnightblue" d="M480.22,-313.69C611.48,-307.06 944.29,-289.26 1222,-266 1466.12,-245.55 1755.41,-212.8 1883.4,-197.87"/>
<polygon fill="midnightblue" stroke="midnightblue" points="1883.91,-201.34 1893.44,-196.7 1883.1,-194.39 1883.91,-201.34"/>
</g>
<!-- Node30 -->
<g id="node30" class="node">
<title>Node30</title>
<g id="a_node30"><a xlink:href="bus_8hpp.html" target="_top" xlink:title="This file defines an interface the CPU uses to access different memory&#45;mapped peripherals.">
<polygon fill="none" stroke="black" points="564,-241 564,-260 628,-260 628,-241 564,-241"/>
<text text-anchor="middle" x="596" y="-248" font-family="Helvetica,sans-Serif" font-size="10.00">../bus.hpp</text>
</a>
</g>
</g>
<!-- Node5&#45;&gt;Node30 -->
<g id="edge48" class="edge">
<title>Node5&#45;&gt;Node30</title>
<path fill="none" stroke="midnightblue" d="M460.54,-302.4C491.3,-290.84 534.37,-274.66 563.63,-263.66"/>
<polygon fill="midnightblue" stroke="midnightblue" points="565.23,-266.8 573.36,-260.01 562.77,-260.25 565.23,-266.8"/>
</g>
<!-- Node34 -->
<g id="node34" class="node">
<title>Node34</title>
<g id="a_node34"><a xlink:href="math_8hpp.html" target="_top" xlink:title="This file defines and implements a variety of handy helper functions that are used throughout the pro...">
<polygon fill="none" stroke="black" points="312,-241 312,-260 408,-260 408,-241 312,-241"/>
<text text-anchor="middle" x="360" y="-248" font-family="Helvetica,sans-Serif" font-size="10.00">../utils/math.hpp</text>
</a>
</g>
</g>
<!-- Node5&#45;&gt;Node34 -->
<g id="edge58" class="edge">
<title>Node5&#45;&gt;Node34</title>
<path fill="none" stroke="midnightblue" d="M409.33,-302.4C399.41,-292.16 385.97,-278.3 375.63,-267.62"/>
<polygon fill="midnightblue" stroke="midnightblue" points="377.9,-264.94 368.43,-260.19 372.87,-269.81 377.9,-264.94"/>
</g>
<!-- Node35 -->
<g id="node35" class="node">
<title>Node35</title>
<g id="a_node35"><a xlink:href="interrupt__controller_8hpp.html" target="_top" xlink:title="This file defines the interrupt controller used in BCM2835.">
<polygon fill="none" stroke="black" points="130.5,-235.5 130.5,-265.5 255.5,-265.5 255.5,-235.5 130.5,-235.5"/>
<text text-anchor="start" x="138.5" y="-253.5" font-family="Helvetica,sans-Serif" font-size="10.00">../peripherals/interrupt</text>
<text text-anchor="middle" x="193" y="-242.5" font-family="Helvetica,sans-Serif" font-size="10.00">_controller.hpp</text>
</a>
</g>
</g>
<!-- Node5&#45;&gt;Node35 -->
<g id="edge60" class="edge">
<title>Node5&#45;&gt;Node35</title>
<path fill="none" stroke="midnightblue" d="M373.38,-302.48C337.98,-292.47 290.21,-278.97 252.72,-268.38"/>
<polygon fill="midnightblue" stroke="midnightblue" points="253.51,-264.96 242.93,-265.61 251.6,-271.7 253.51,-264.96"/>
</g>
<!-- Node36 -->
<g id="node36" class="node">
<title>Node36</title>
<g id="a_node36"><a xlink:href="system__clock__listener_8hpp.html" target="_top" xlink:title="This file defines an interface for a CPU clock listener.">
<polygon fill="none" stroke="black" points="426.5,-235.5 426.5,-265.5 545.5,-265.5 545.5,-235.5 426.5,-235.5"/>
<text text-anchor="start" x="434.5" y="-253.5" font-family="Helvetica,sans-Serif" font-size="10.00">../peripherals/system</text>
<text text-anchor="middle" x="486" y="-242.5" font-family="Helvetica,sans-Serif" font-size="10.00">_clock_listener.hpp</text>
</a>
</g>
</g>
<!-- Node5&#45;&gt;Node36 -->
<g id="edge64" class="edge">
<title>Node5&#45;&gt;Node36</title>
<path fill="none" stroke="midnightblue" d="M436.67,-302.4C445.01,-293.79 455.83,-282.63 465.22,-272.94"/>
<polygon fill="midnightblue" stroke="midnightblue" points="467.91,-275.19 472.36,-265.58 462.88,-270.32 467.91,-275.19"/>
</g>
<!-- Node6&#45;&gt;Node7 -->
<g id="edge6" class="edge">
<title>Node6&#45;&gt;Node7</title>
<path fill="none" stroke="midnightblue" d="M369.52,-61.98C350.39,-52.08 318.63,-35.64 296.35,-24.12"/>
<polygon fill="midnightblue" stroke="midnightblue" points="297.94,-21 287.45,-19.51 294.72,-27.21 297.94,-21"/>
</g>
<!-- Node8&#45;&gt;Node6 -->
<g id="edge9" class="edge">
<title>Node8&#45;&gt;Node6</title>
<path fill="none" stroke="midnightblue" d="M429.47,-179.32C421.85,-160.59 403.72,-116.05 393.44,-90.79"/>
<polygon fill="midnightblue" stroke="midnightblue" points="396.58,-89.23 389.57,-81.28 390.1,-91.86 396.58,-89.23"/>
</g>
<!-- Node9 -->
<g id="node9" class="node">
<title>Node9</title>
<g id="a_node9"><a xlink:title=" ">
<polygon fill="none" stroke="#bfbfbf" points="305.5,-123.5 305.5,-142.5 384.5,-142.5 384.5,-123.5 305.5,-123.5"/>
<text text-anchor="middle" x="345" y="-130.5" font-family="Helvetica,sans-Serif" font-size="10.00">fmt/format.h</text>
</a>
</g>
</g>
<!-- Node8&#45;&gt;Node9 -->
<g id="edge8" class="edge">
<title>Node8&#45;&gt;Node9</title>
<path fill="none" stroke="midnightblue" d="M418.86,-179.32C405.13,-170.9 384.06,-157.97 367.94,-148.07"/>
<polygon fill="midnightblue" stroke="midnightblue" points="369.46,-144.9 359.1,-142.65 365.8,-150.87 369.46,-144.9"/>
</g>
<!-- Node11 -->
<g id="node11" class="node">
<title>Node11</title>
<g id="a_node11"><a xlink:href="instruction_8hpp.html" target="_top" xlink:title="This file defines the interface of a general ARM instruction.">
<polygon fill="none" stroke="black" points="1778.5,-0.5 1778.5,-19.5 1867.5,-19.5 1867.5,-0.5 1778.5,-0.5"/>
<text text-anchor="middle" x="1823" y="-7.5" font-family="Helvetica,sans-Serif" font-size="10.00">instruction.hpp</text>
</a>
</g>
</g>
<!-- Node10&#45;&gt;Node11 -->
<g id="edge11" class="edge">
<title>Node10&#45;&gt;Node11</title>
<path fill="none" stroke="midnightblue" d="M1756.82,-131.06C1855.91,-128.01 2134.05,-116.86 2161,-87 2170.23,-76.77 2170.08,-66.37 2161,-56 2142.65,-35.04 1968.52,-20.57 1877.64,-14.38"/>
<polygon fill="midnightblue" stroke="midnightblue" points="1877.73,-10.88 1867.52,-13.7 1877.26,-17.87 1877.73,-10.88"/>
</g>
<!-- Node12 -->
<g id="node12" class="node">
<title>Node12</title>
<g id="a_node12"><a xlink:href="branch__and__exchange_8hpp.html" target="_top" xlink:title="This file defines a branch and exchange instruction (BX).">
<polygon fill="none" stroke="black" points="2208,-62 2208,-81 2354,-81 2354,-62 2208,-62"/>
<text text-anchor="middle" x="2281" y="-69" font-family="Helvetica,sans-Serif" font-size="10.00">branch_and_exchange.hpp</text>
</a>
</g>
</g>
<!-- Node10&#45;&gt;Node12 -->
<g id="edge12" class="edge">
<title>Node10&#45;&gt;Node12</title>
<path fill="none" stroke="midnightblue" d="M1756.74,-129.53C1834.99,-123.77 2030.96,-108.33 2194,-87 2203.58,-85.75 2213.72,-84.23 2223.56,-82.66"/>
<polygon fill="midnightblue" stroke="midnightblue" points="2224.37,-86.07 2233.68,-81.01 2223.25,-79.16 2224.37,-86.07"/>
</g>
<!-- Node13 -->
<g id="node13" class="node">
<title>Node13</title>
<g id="a_node13"><a xlink:href="branch_8hpp.html" target="_top" xlink:title="This file defines a branch instruction (B, BL).">
<polygon fill="none" stroke="black" points="2372.5,-62 2372.5,-81 2443.5,-81 2443.5,-62 2372.5,-62"/>
<text text-anchor="middle" x="2408" y="-69" font-family="Helvetica,sans-Serif" font-size="10.00">branch.hpp</text>
</a>
</g>
</g>
<!-- Node10&#45;&gt;Node13 -->
<g id="edge14" class="edge">
<title>Node10&#45;&gt;Node13</title>
<path fill="none" stroke="midnightblue" d="M1756.78,-132.49C1853.73,-133.22 2134.9,-131.08 2363,-87 2366.97,-86.23 2371.07,-85.23 2375.11,-84.1"/>
<polygon fill="midnightblue" stroke="midnightblue" points="2376.37,-87.37 2384.92,-81.12 2374.34,-80.68 2376.37,-87.37"/>
</g>
<!-- Node14 -->
<g id="node14" class="node">
<title>Node14</title>
<g id="a_node14"><a xlink:href="data__processing_8hpp.html" target="_top" xlink:title="This file defines a data processing instruction.">
<polygon fill="none" stroke="black" points="2461.5,-62 2461.5,-81 2578.5,-81 2578.5,-62 2461.5,-62"/>
<text text-anchor="middle" x="2520" y="-69" font-family="Helvetica,sans-Serif" font-size="10.00">data_processing.hpp</text>
</a>
</g>
</g>
<!-- Node10&#45;&gt;Node14 -->
<g id="edge16" class="edge">
<title>Node10&#45;&gt;Node14</title>
<path fill="none" stroke="midnightblue" d="M1756.81,-131.73C1862.2,-130.5 2186.92,-123.77 2453,-87 2460.29,-85.99 2467.98,-84.62 2475.43,-83.13"/>
<polygon fill="midnightblue" stroke="midnightblue" points="2476.34,-86.52 2485.4,-81.03 2474.9,-79.67 2476.34,-86.52"/>
</g>
<!-- Node15 -->
<g id="node15" class="node">
<title>Node15</title>
<g id="a_node15"><a xlink:href="multiply_8hpp.html" target="_top" xlink:title="This file defines a multiplication instruction (MUL, MLA).">
<polygon fill="none" stroke="black" points="993.5,-62 993.5,-81 1070.5,-81 1070.5,-62 993.5,-62"/>
<text text-anchor="middle" x="1032" y="-69" font-family="Helvetica,sans-Serif" font-size="10.00">multiply.hpp</text>
</a>
</g>
</g>
<!-- Node10&#45;&gt;Node15 -->
<g id="edge18" class="edge">
<title>Node10&#45;&gt;Node15</title>
<path fill="none" stroke="midnightblue" d="M1687.21,-132.28C1590.21,-132.46 1308.85,-129.04 1080,-87 1075.55,-86.18 1070.92,-85.1 1066.37,-83.89"/>
<polygon fill="midnightblue" stroke="midnightblue" points="1067.23,-80.49 1056.65,-81.1 1065.3,-87.22 1067.23,-80.49"/>
</g>
<!-- Node16 -->
<g id="node16" class="node">
<title>Node16</title>
<g id="a_node16"><a xlink:href="multiply__long_8hpp.html" target="_top" xlink:title="This file defines a multiplication (long) instruction.">
<polygon fill="none" stroke="black" points="1089,-62 1089,-81 1193,-81 1193,-62 1089,-62"/>
<text text-anchor="middle" x="1141" y="-69" font-family="Helvetica,sans-Serif" font-size="10.00">multiply_long.hpp</text>
</a>
</g>
</g>
<!-- Node10&#45;&gt;Node16 -->
<g id="edge20" class="edge">
<title>Node10&#45;&gt;Node16</title>
<path fill="none" stroke="midnightblue" d="M1687.48,-130.72C1603.88,-127.24 1384.08,-115.87 1203,-87 1196.7,-85.99 1190.08,-84.71 1183.62,-83.31"/>
<polygon fill="midnightblue" stroke="midnightblue" points="1184.17,-79.85 1173.65,-81.06 1182.63,-86.68 1184.17,-79.85"/>
</g>
<!-- Node17 -->
<g id="node17" class="node">
<title>Node17</title>
<g id="a_node17"><a xlink:href="single__data__transfer_8hpp.html" target="_top" xlink:title="This file defines single data transfer instruction (LDR, STR).">
<polygon fill="none" stroke="black" points="1211.5,-62 1211.5,-81 1348.5,-81 1348.5,-62 1211.5,-62"/>
<text text-anchor="middle" x="1280" y="-69" font-family="Helvetica,sans-Serif" font-size="10.00">single_data_transfer.hpp</text>
</a>
</g>
</g>
<!-- Node10&#45;&gt;Node17 -->
<g id="edge22" class="edge">
<title>Node10&#45;&gt;Node17</title>
<path fill="none" stroke="midnightblue" d="M1687.27,-128.42C1622.41,-121.57 1478.51,-105.63 1358,-87 1349.97,-85.76 1341.49,-84.32 1333.21,-82.84"/>
<polygon fill="midnightblue" stroke="midnightblue" points="1333.71,-79.37 1323.24,-81.02 1332.45,-86.26 1333.71,-79.37"/>
</g>
<!-- Node18 -->
<g id="node18" class="node">
<title>Node18</title>
<g id="a_node18"><a xlink:href="block__data__transfer_8hpp.html" target="_top" xlink:title="This file defines a block data transfer instruction (LDM, STM).">
<polygon fill="none" stroke="black" points="1367,-62 1367,-81 1501,-81 1501,-62 1367,-62"/>
<text text-anchor="middle" x="1434" y="-69" font-family="Helvetica,sans-Serif" font-size="10.00">block_data_transfer.hpp</text>
</a>
</g>
</g>
<!-- Node10&#45;&gt;Node18 -->
<g id="edge24" class="edge">
<title>Node10&#45;&gt;Node18</title>
<path fill="none" stroke="midnightblue" d="M1687.26,-124.82C1637.02,-114.44 1543.72,-95.17 1485.47,-83.13"/>
<polygon fill="midnightblue" stroke="midnightblue" points="1485.87,-79.64 1475.37,-81.05 1484.46,-86.5 1485.87,-79.64"/>
</g>
<!-- Node19 -->
<g id="node19" class="node">
<title>Node19</title>
<g id="a_node19"><a xlink:href="halfword__data__transfer_8hpp.html" target="_top" xlink:title="This file defines a Halfword data transfer instruction.">
<polygon fill="none" stroke="black" points="1519.5,-62 1519.5,-81 1668.5,-81 1668.5,-62 1519.5,-62"/>
<text text-anchor="middle" x="1594" y="-69" font-family="Helvetica,sans-Serif" font-size="10.00">halfword_data_transfer.hpp</text>
</a>
</g>
</g>
<!-- Node10&#45;&gt;Node19 -->
<g id="edge26" class="edge">
<title>Node10&#45;&gt;Node19</title>
<path fill="none" stroke="midnightblue" d="M1703.66,-123.48C1682.18,-113.49 1646.38,-96.85 1621.55,-85.31"/>
<polygon fill="midnightblue" stroke="midnightblue" points="1622.85,-82.05 1612.31,-81.01 1619.9,-88.4 1622.85,-82.05"/>
</g>
<!-- Node20 -->
<g id="node20" class="node">
<title>Node20</title>
<g id="a_node20"><a xlink:href="extend_8hpp.html" target="_top" xlink:title="This file defines an extend instruction.">
<polygon fill="none" stroke="black" points="1686.5,-62 1686.5,-81 1757.5,-81 1757.5,-62 1686.5,-62"/>
<text text-anchor="middle" x="1722" y="-69" font-family="Helvetica,sans-Serif" font-size="10.00">extend.hpp</text>
</a>
</g>
</g>
<!-- Node10&#45;&gt;Node20 -->
<g id="edge28" class="edge">
<title>Node10&#45;&gt;Node20</title>
<path fill="none" stroke="midnightblue" d="M1722,-123.48C1722,-115.08 1722,-101.98 1722,-91.16"/>
<polygon fill="midnightblue" stroke="midnightblue" points="1725.5,-91.01 1722,-81.01 1718.5,-91.01 1725.5,-91.01"/>
</g>
<!-- Node21 -->
<g id="node21" class="node">
<title>Node21</title>
<g id="a_node21"><a xlink:href="psr__transfer_8hpp.html" target="_top" xlink:title="This file defines a PSR instruction (MRS, MSR).">
<polygon fill="none" stroke="black" points="1775.5,-62 1775.5,-81 1870.5,-81 1870.5,-62 1775.5,-62"/>
<text text-anchor="middle" x="1823" y="-69" font-family="Helvetica,sans-Serif" font-size="10.00">psr_transfer.hpp</text>
</a>
</g>
</g>
<!-- Node10&#45;&gt;Node21 -->
<g id="edge30" class="edge">
<title>Node10&#45;&gt;Node21</title>
<path fill="none" stroke="midnightblue" d="M1736.47,-123.48C1752.97,-113.75 1780.18,-97.73 1799.68,-86.24"/>
<polygon fill="midnightblue" stroke="midnightblue" points="1801.72,-89.1 1808.56,-81.01 1798.16,-83.07 1801.72,-89.1"/>
</g>
<!-- Node22 -->
<g id="node22" class="node">
<title>Node22</title>
<g id="a_node22"><a xlink:href="cps_8hpp.html" target="_top" xlink:title="This file defines a change processor state instruction (CPS).">
<polygon fill="none" stroke="black" points="1889,-62 1889,-81 1943,-81 1943,-62 1889,-62"/>
<text text-anchor="middle" x="1916" y="-69" font-family="Helvetica,sans-Serif" font-size="10.00">cps.hpp</text>
</a>
</g>
</g>
<!-- Node10&#45;&gt;Node22 -->
<g id="edge32" class="edge">
<title>Node10&#45;&gt;Node22</title>
<path fill="none" stroke="midnightblue" d="M1755.92,-123.45C1788.13,-115.07 1837.78,-101.47 1880,-87 1882.12,-86.27 1884.3,-85.49 1886.49,-84.68"/>
<polygon fill="midnightblue" stroke="midnightblue" points="1887.9,-87.88 1895.96,-81.01 1885.37,-81.36 1887.9,-87.88"/>
</g>
<!-- Node23 -->
<g id="node23" class="node">
<title>Node23</title>
<g id="a_node23"><a xlink:href="coprocessor__register__transfer_8hpp.html" target="_top" xlink:title="This file defines a coprocessor register transfer (MRC, MCR).">
<polygon fill="none" stroke="black" points="673,-56.5 673,-86.5 791,-86.5 791,-56.5 673,-56.5"/>
<text text-anchor="start" x="681" y="-74.5" font-family="Helvetica,sans-Serif" font-size="10.00">coprocessor_register</text>
<text text-anchor="middle" x="732" y="-63.5" font-family="Helvetica,sans-Serif" font-size="10.00">_transfer.hpp</text>
</a>
</g>
</g>
<!-- Node10&#45;&gt;Node23 -->
<g id="edge34" class="edge">
<title>Node10&#45;&gt;Node23</title>
<path fill="none" stroke="midnightblue" d="M1687.5,-132.32C1566.76,-133 1152.06,-131.8 801.34,-87.02"/>
<polygon fill="midnightblue" stroke="midnightblue" points="801.61,-83.53 791.24,-85.72 800.71,-90.47 801.61,-83.53"/>
</g>
<!-- Node24 -->
<g id="node24" class="node">
<title>Node24</title>
<g id="a_node24"><a xlink:href="coprocessor__data__transfer_8hpp.html" target="_top" xlink:title="This file defines a coprocessor data transfer (LDC, STC).">
<polygon fill="none" stroke="black" points="809,-62 809,-81 975,-81 975,-62 809,-62"/>
<text text-anchor="middle" x="892" y="-69" font-family="Helvetica,sans-Serif" font-size="10.00">coprocessor_data_transfer.hpp</text>
</a>
</g>
</g>
<!-- Node10&#45;&gt;Node24 -->
<g id="edge36" class="edge">
<title>Node10&#45;&gt;Node24</title>
<path fill="none" stroke="midnightblue" d="M1687.37,-131.04C1581.76,-127.86 1254.55,-116.18 985,-87 974.05,-85.82 962.43,-84.25 951.24,-82.59"/>
<polygon fill="midnightblue" stroke="midnightblue" points="951.53,-79.09 941.12,-81.04 950.47,-86.01 951.53,-79.09"/>
</g>
<!-- Node25 -->
<g id="node25" class="node">
<title>Node25</title>
<g id="a_node25"><a xlink:href="coprocessor__data__operation_8hpp.html" target="_top" xlink:title="This file defines a coprocessor data operation (CDP).">
<polygon fill="none" stroke="black" points="479.5,-62 479.5,-81 654.5,-81 654.5,-62 479.5,-62"/>
<text text-anchor="middle" x="567" y="-69" font-family="Helvetica,sans-Serif" font-size="10.00">coprocessor_data_operation.hpp</text>
</a>
</g>
</g>
<!-- Node10&#45;&gt;Node25 -->
<g id="edge38" class="edge">
<title>Node10&#45;&gt;Node25</title>
<path fill="none" stroke="midnightblue" d="M1687.2,-131.86C1554.13,-131.02 1064.79,-125.37 664,-87 652.08,-85.86 639.39,-84.25 627.26,-82.52"/>
<polygon fill="midnightblue" stroke="midnightblue" points="627.62,-79.03 617.22,-81.04 626.6,-85.96 627.62,-79.03"/>
</g>
<!-- Node26 -->
<g id="node26" class="node">
<title>Node26</title>
<g id="a_node26"><a xlink:href="srs_8hpp.html" target="_top" xlink:title="This file defines an SRS instruction (store return state onto a stack).">
<polygon fill="none" stroke="black" points="1961,-62 1961,-81 2013,-81 2013,-62 1961,-62"/>
<text text-anchor="middle" x="1987" y="-69" font-family="Helvetica,sans-Serif" font-size="10.00">srs.hpp</text>
</a>
</g>
</g>
<!-- Node10&#45;&gt;Node26 -->
<g id="edge40" class="edge">
<title>Node10&#45;&gt;Node26</title>
<path fill="none" stroke="midnightblue" d="M1756.81,-127.4C1802.32,-120.89 1884.22,-107.45 1952,-87 1954.28,-86.31 1956.62,-85.53 1958.96,-84.69"/>
<polygon fill="midnightblue" stroke="midnightblue" points="1960.31,-87.92 1968.36,-81.03 1957.77,-81.39 1960.31,-87.92"/>
</g>
<!-- Node27 -->
<g id="node27" class="node">
<title>Node27</title>
<g id="a_node27"><a xlink:href="rfe_8hpp.html" target="_top" xlink:title="This file defines an RFE instruction (return from exception).">
<polygon fill="none" stroke="black" points="2031.5,-62 2031.5,-81 2082.5,-81 2082.5,-62 2031.5,-62"/>
<text text-anchor="middle" x="2057" y="-69" font-family="Helvetica,sans-Serif" font-size="10.00">rfe.hpp</text>
</a>
</g>
</g>
<!-- Node10&#45;&gt;Node27 -->
<g id="edge42" class="edge">
<title>Node10&#45;&gt;Node27</title>
<path fill="none" stroke="midnightblue" d="M1756.76,-129.55C1813.26,-124.96 1928.12,-113.07 2022,-87 2024.44,-86.32 2026.94,-85.52 2029.42,-84.65"/>
<polygon fill="midnightblue" stroke="midnightblue" points="2030.7,-87.9 2038.77,-81.04 2028.18,-81.37 2030.7,-87.9"/>
</g>
<!-- Node28 -->
<g id="node28" class="node">
<title>Node28</title>
<g id="a_node28"><a xlink:href="clz_8hpp.html" target="_top" xlink:title="This file defines a count leading zeros instruction (CLZ).">
<polygon fill="none" stroke="black" points="2100.5,-62 2100.5,-81 2151.5,-81 2151.5,-62 2100.5,-62"/>
<text text-anchor="middle" x="2126" y="-69" font-family="Helvetica,sans-Serif" font-size="10.00">clz.hpp</text>
</a>
</g>
</g>
<!-- Node10&#45;&gt;Node28 -->
<g id="edge44" class="edge">
<title>Node10&#45;&gt;Node28</title>
<path fill="none" stroke="midnightblue" d="M1756.54,-131.03C1822.72,-128.48 1971.53,-119.31 2092,-87 2094.3,-86.38 2096.65,-85.64 2098.98,-84.82"/>
<polygon fill="midnightblue" stroke="midnightblue" points="2100.31,-88.06 2108.34,-81.15 2097.75,-81.54 2100.31,-88.06"/>
</g>
<!-- Node12&#45;&gt;Node11 -->
<g id="edge13" class="edge">
<title>Node12&#45;&gt;Node11</title>
<path fill="none" stroke="midnightblue" d="M2232.28,-61.99C2219.82,-59.92 2206.43,-57.79 2194,-56 2081.99,-39.88 1950.39,-24.84 1877.89,-16.89"/>
<polygon fill="midnightblue" stroke="midnightblue" points="1877.95,-13.37 1867.63,-15.76 1877.19,-20.33 1877.95,-13.37"/>
</g>
<!-- Node13&#45;&gt;Node11 -->
<g id="edge15" class="edge">
<title>Node13&#45;&gt;Node11</title>
<path fill="none" stroke="midnightblue" d="M2384.91,-61.94C2377.96,-59.67 2370.24,-57.45 2363,-56 2188.11,-21.02 1976.08,-13.17 1877.85,-11.45"/>
<polygon fill="midnightblue" stroke="midnightblue" points="1877.63,-7.95 1867.58,-11.29 1877.52,-14.95 1877.63,-7.95"/>
</g>
<!-- Node14&#45;&gt;Node11 -->
<g id="edge17" class="edge">
<title>Node14&#45;&gt;Node11</title>
<path fill="none" stroke="midnightblue" d="M2485.05,-61.96C2474.78,-59.71 2463.49,-57.5 2453,-56 2241.64,-25.74 1987.33,-15.48 1877.68,-12.3"/>
<polygon fill="midnightblue" stroke="midnightblue" points="1877.63,-8.8 1867.53,-12.01 1877.43,-15.79 1877.63,-8.8"/>
</g>
<!-- Node15&#45;&gt;Node11 -->
<g id="edge19" class="edge">
<title>Node15&#45;&gt;Node11</title>
<path fill="none" stroke="midnightblue" d="M1056.64,-61.86C1064.07,-59.58 1072.29,-57.38 1080,-56 1212.15,-32.37 1619.18,-17.46 1767.88,-12.67"/>
<polygon fill="midnightblue" stroke="midnightblue" points="1768.25,-16.16 1778.13,-12.35 1768.03,-9.17 1768.25,-16.16"/>
</g>
<!-- Node16&#45;&gt;Node11 -->
<g id="edge21" class="edge">
<title>Node16&#45;&gt;Node11</title>
<path fill="none" stroke="midnightblue" d="M1173.31,-61.93C1182.82,-59.68 1193.27,-57.48 1203,-56 1410.23,-24.45 1659.91,-14.87 1768.33,-12.08"/>
<polygon fill="midnightblue" stroke="midnightblue" points="1768.47,-15.58 1778.38,-11.84 1768.29,-8.58 1768.47,-15.58"/>
</g>
<!-- Node17&#45;&gt;Node11 -->
<g id="edge23" class="edge">
<title>Node17&#45;&gt;Node11</title>
<path fill="none" stroke="midnightblue" d="M1321.99,-62C1333.62,-59.83 1346.27,-57.65 1358,-56 1505.6,-35.18 1680.92,-21.06 1768.1,-14.75"/>
<polygon fill="midnightblue" stroke="midnightblue" points="1768.56,-18.23 1778.28,-14.02 1768.06,-11.25 1768.56,-18.23"/>
</g>
<!-- Node18&#45;&gt;Node11 -->
<g id="edge25" class="edge">
<title>Node18&#45;&gt;Node11</title>
<path fill="none" stroke="midnightblue" d="M1477.51,-61.97C1488.43,-59.92 1500.13,-57.81 1511,-56 1601.01,-41.04 1706.11,-26.48 1768.47,-18.14"/>
<polygon fill="midnightblue" stroke="midnightblue" points="1769.02,-21.6 1778.47,-16.81 1768.1,-14.66 1769.02,-21.6"/>
</g>
<!-- Node19&#45;&gt;Node11 -->
<g id="edge27" class="edge">
<title>Node19&#45;&gt;Node11</title>
<path fill="none" stroke="midnightblue" d="M1626.81,-61.98C1667.2,-51.48 1735.88,-33.64 1780.33,-22.09"/>
<polygon fill="midnightblue" stroke="midnightblue" points="1781.45,-25.41 1790.25,-19.51 1779.69,-18.64 1781.45,-25.41"/>
</g>
<!-- Node20&#45;&gt;Node11 -->
<g id="edge29" class="edge">
<title>Node20&#45;&gt;Node11</title>
<path fill="none" stroke="midnightblue" d="M1736.47,-61.98C1752.97,-52.25 1780.18,-36.23 1799.68,-24.74"/>
<polygon fill="midnightblue" stroke="midnightblue" points="1801.72,-27.6 1808.56,-19.51 1798.16,-21.57 1801.72,-27.6"/>
</g>
<!-- Node21&#45;&gt;Node11 -->
<g id="edge31" class="edge">
<title>Node21&#45;&gt;Node11</title>
<path fill="none" stroke="midnightblue" d="M1823,-61.98C1823,-53.58 1823,-40.48 1823,-29.66"/>
<polygon fill="midnightblue" stroke="midnightblue" points="1826.5,-29.51 1823,-19.51 1819.5,-29.51 1826.5,-29.51"/>
</g>
<!-- Node22&#45;&gt;Node11 -->
<g id="edge33" class="edge">
<title>Node22&#45;&gt;Node11</title>
<path fill="none" stroke="midnightblue" d="M1902.68,-61.98C1887.62,-52.34 1862.88,-36.52 1844.96,-25.05"/>
<polygon fill="midnightblue" stroke="midnightblue" points="1846.61,-21.95 1836.3,-19.51 1842.84,-27.85 1846.61,-21.95"/>
</g>
<!-- Node23&#45;&gt;Node11 -->
<g id="edge35" class="edge">
<title>Node23&#45;&gt;Node11</title>
<path fill="none" stroke="midnightblue" d="M791.24,-57.26C794.19,-56.79 797.13,-56.37 800,-56 989.85,-31.75 1584.05,-16.46 1768.1,-12.21"/>
<polygon fill="midnightblue" stroke="midnightblue" points="1768.43,-15.7 1778.34,-11.98 1768.27,-8.71 1768.43,-15.7"/>
</g>
<!-- Node24&#45;&gt;Node11 -->
<g id="edge37" class="edge">
<title>Node24&#45;&gt;Node11</title>
<path fill="none" stroke="midnightblue" d="M940.63,-61.97C954.89,-59.73 970.54,-57.51 985,-56 1279.46,-25.22 1634.45,-14.95 1768.35,-12.02"/>
<polygon fill="midnightblue" stroke="midnightblue" points="1768.44,-15.52 1778.36,-11.81 1768.29,-8.53 1768.44,-15.52"/>
</g>
<!-- Node25&#45;&gt;Node11 -->
<g id="edge39" class="edge">
<title>Node25&#45;&gt;Node11</title>
<path fill="none" stroke="midnightblue" d="M616.72,-62C631.86,-59.7 648.57,-57.45 664,-56 1087.5,-16.25 1601.22,-11.46 1767.93,-11"/>
<polygon fill="midnightblue" stroke="midnightblue" points="1768.41,-14.5 1778.4,-10.98 1768.4,-7.5 1768.41,-14.5"/>
</g>
<!-- Node26&#45;&gt;Node11 -->
<g id="edge41" class="edge">
<title>Node26&#45;&gt;Node11</title>
<path fill="none" stroke="midnightblue" d="M1966.72,-61.87C1961.92,-59.89 1956.79,-57.83 1952,-56 1920.69,-44.07 1884.66,-31.6 1858.65,-22.83"/>
<polygon fill="midnightblue" stroke="midnightblue" points="1859.45,-19.4 1848.86,-19.54 1857.22,-26.04 1859.45,-19.4"/>
</g>
<!-- Node27&#45;&gt;Node11 -->
<g id="edge43" class="edge">
<title>Node27&#45;&gt;Node11</title>
<path fill="none" stroke="midnightblue" d="M2037.96,-61.92C2032.84,-59.81 2027.27,-57.67 2022,-56 1974.07,-40.78 1918.1,-28.6 1877.75,-20.77"/>
<polygon fill="midnightblue" stroke="midnightblue" points="1878.32,-17.32 1867.84,-18.87 1877,-24.19 1878.32,-17.32"/>
</g>
<!-- Node28&#45;&gt;Node11 -->
<g id="edge45" class="edge">
<title>Node28&#45;&gt;Node11</title>
<path fill="none" stroke="midnightblue" d="M2107.94,-61.86C2102.87,-59.69 2097.3,-57.55 2092,-56 2019.42,-34.78 1932.7,-22.52 1877.74,-16.3"/>
<polygon fill="midnightblue" stroke="midnightblue" points="1877.84,-12.79 1867.52,-15.18 1877.07,-19.75 1877.84,-12.79"/>
</g>
<!-- Node29&#45;&gt;Node11 -->
<g id="edge47" class="edge">
<title>Node29&#45;&gt;Node11</title>
<path fill="none" stroke="midnightblue" d="M2006.75,-185.4C2177.58,-176.59 2670.35,-143.34 2588,-56 2563.67,-30.2 2048.95,-16.15 1877.8,-12.19"/>
<polygon fill="midnightblue" stroke="midnightblue" points="1877.82,-8.69 1867.74,-11.96 1877.66,-15.68 1877.82,-8.69"/>
</g>
<!-- Node30&#45;&gt;Node8 -->
<g id="edge57" class="edge">
<title>Node30&#45;&gt;Node8</title>
<path fill="none" stroke="midnightblue" d="M572.65,-240.98C544.69,-230.77 497.67,-213.61 466.01,-202.05"/>
<polygon fill="midnightblue" stroke="midnightblue" points="466.9,-198.65 456.31,-198.51 464.5,-205.23 466.9,-198.65"/>
</g>
<!-- Node31 -->
<g id="node31" class="node">
<title>Node31</title>
<g id="a_node31"><a xlink:href="cp15_8hpp.html" target="_top" xlink:title="This file defines CP15 (system control coprocessor).">
<polygon fill="none" stroke="black" points="500,-179.5 500,-198.5 628,-198.5 628,-179.5 500,-179.5"/>
<text text-anchor="middle" x="564" y="-186.5" font-family="Helvetica,sans-Serif" font-size="10.00">coprocessors/cp15.hpp</text>
</a>
</g>
</g>
<!-- Node30&#45;&gt;Node31 -->
<g id="edge49" class="edge">
<title>Node30&#45;&gt;Node31</title>
<path fill="none" stroke="midnightblue" d="M591.42,-240.98C586.76,-232.32 579.41,-218.65 573.49,-207.65"/>
<polygon fill="midnightblue" stroke="midnightblue" points="576.4,-205.66 568.58,-198.51 570.23,-208.97 576.4,-205.66"/>
</g>
<!-- Node33 -->
<g id="node33" class="node">
<title>Node33</title>
<g id="a_node33"><a xlink:href="peripheral_8hpp.html" target="_top" xlink:title="This file defines an interface for a memory&#45;mapped peripheral.">
<polygon fill="none" stroke="black" points="224.5,-179.5 224.5,-198.5 369.5,-198.5 369.5,-179.5 224.5,-179.5"/>
<text text-anchor="middle" x="297" y="-186.5" font-family="Helvetica,sans-Serif" font-size="10.00">peripherals/peripheral.hpp</text>
</a>
</g>
</g>
<!-- Node30&#45;&gt;Node33 -->
<g id="edge56" class="edge">
<title>Node30&#45;&gt;Node33</title>
<path fill="none" stroke="midnightblue" d="M574.08,-240.99C567.97,-238.82 561.28,-236.65 555,-235 494.9,-219.25 425.46,-207.49 373.76,-199.95"/>
<polygon fill="midnightblue" stroke="midnightblue" points="374.07,-196.46 363.67,-198.5 373.07,-203.39 374.07,-196.46"/>
</g>
<!-- Node31&#45;&gt;Node7 -->
<g id="edge55" class="edge">
<title>Node31&#45;&gt;Node7</title>
<path fill="none" stroke="midnightblue" d="M556.27,-179.18C532.72,-152.48 461.66,-73.34 432,-56 403.3,-39.22 368.05,-28.45 337.85,-21.67"/>
<polygon fill="midnightblue" stroke="midnightblue" points="338.34,-18.19 327.82,-19.52 336.87,-25.04 338.34,-18.19"/>
</g>
<!-- Node32 -->
<g id="node32" class="node">
<title>Node32</title>
<g id="a_node32"><a xlink:href="coprocessor_8hpp.html" target="_top" xlink:title="This file defines a general interface of a coprocessor.">
<polygon fill="none" stroke="black" points="684.5,-123.5 684.5,-142.5 779.5,-142.5 779.5,-123.5 684.5,-123.5"/>
<text text-anchor="middle" x="732" y="-130.5" font-family="Helvetica,sans-Serif" font-size="10.00">coprocessor.hpp</text>
</a>
</g>
</g>
<!-- Node31&#45;&gt;Node32 -->
<g id="edge50" class="edge">
<title>Node31&#45;&gt;Node32</title>
<path fill="none" stroke="midnightblue" d="M590.62,-179.44C619.01,-170.32 664.14,-155.81 695.75,-145.65"/>
<polygon fill="midnightblue" stroke="midnightblue" points="697.06,-148.91 705.5,-142.52 694.91,-142.24 697.06,-148.91"/>
</g>
<!-- Node32&#45;&gt;Node6 -->
<g id="edge51" class="edge">
<title>Node32&#45;&gt;Node6</title>
<path fill="none" stroke="midnightblue" d="M684.25,-123.79C618.09,-112.41 499.24,-91.97 433.31,-80.64"/>
<polygon fill="midnightblue" stroke="midnightblue" points="433.65,-77.14 423.2,-78.9 432.46,-84.04 433.65,-77.14"/>
</g>
<!-- Node32&#45;&gt;Node23 -->
<g id="edge52" class="edge">
<title>Node32&#45;&gt;Node23</title>
<path fill="none" stroke="midnightblue" d="M732,-123.48C732,-116.47 732,-106.19 732,-96.7"/>
<polygon fill="midnightblue" stroke="midnightblue" points="735.5,-96.52 732,-86.52 728.5,-96.52 735.5,-96.52"/>
</g>
<!-- Node32&#45;&gt;Node24 -->
<g id="edge53" class="edge">
<title>Node32&#45;&gt;Node24</title>
<path fill="none" stroke="midnightblue" d="M754.92,-123.48C782.37,-113.27 828.52,-96.11 859.6,-84.55"/>
<polygon fill="midnightblue" stroke="midnightblue" points="860.97,-87.78 869.12,-81.01 858.53,-81.21 860.97,-87.78"/>
</g>
<!-- Node32&#45;&gt;Node25 -->
<g id="edge54" class="edge">
<title>Node32&#45;&gt;Node25</title>
<path fill="none" stroke="midnightblue" d="M708.36,-123.48C680.06,-113.27 632.47,-96.11 600.41,-84.55"/>
<polygon fill="midnightblue" stroke="midnightblue" points="601.19,-81.11 590.6,-81.01 598.82,-87.69 601.19,-81.11"/>
</g>
<!-- Node35&#45;&gt;Node6 -->
<g id="edge62" class="edge">
<title>Node35&#45;&gt;Node6</title>
<path fill="none" stroke="midnightblue" d="M194.89,-235.29C197.49,-220.1 203.38,-195.93 216,-179 250.97,-132.09 313.25,-100.89 351.94,-84.98"/>
<polygon fill="midnightblue" stroke="midnightblue" points="353.72,-88.03 361.71,-81.08 351.12,-81.53 353.72,-88.03"/>
</g>
<!-- Node35&#45;&gt;Node7 -->
<g id="edge63" class="edge">
<title>Node35&#45;&gt;Node7</title>
<path fill="none" stroke="midnightblue" d="M193.44,-235.24C194.16,-220.85 196.05,-198.08 201,-179 215.77,-122.09 246.05,-59.16 261.49,-29.02"/>
<polygon fill="midnightblue" stroke="midnightblue" points="264.78,-30.28 266.28,-19.79 258.57,-27.06 264.78,-30.28"/>
</g>
<!-- Node35&#45;&gt;Node33 -->
<g id="edge61" class="edge">
<title>Node35&#45;&gt;Node33</title>
<path fill="none" stroke="midnightblue" d="M217.65,-235.4C234.32,-225.86 256.23,-213.32 272.81,-203.84"/>
<polygon fill="midnightblue" stroke="midnightblue" points="274.93,-206.66 281.87,-198.66 271.45,-200.59 274.93,-206.66"/>
</g>
</g>
</svg>
