<?xml version="1.0" encoding="UTF-8" standalone="no"?>
<!DOCTYPE svg PUBLIC "-//W3C//DTD SVG 1.1//EN"
 "http://www.w3.org/Graphics/SVG/1.1/DTD/svg11.dtd">
<!-- Generated by graphviz version 2.43.0 (0)
 -->
<!-- Title: src/gui/windows/registers_window.cpp Pages: 1 -->
<svg width="2745pt" height="464pt"
 viewBox="0.00 0.00 2745.29 464.00" xmlns="http://www.w3.org/2000/svg" xmlns:xlink="http://www.w3.org/1999/xlink">
<g id="graph0" class="graph" transform="scale(1 1) rotate(0) translate(4 460)">
<title>src/gui/windows/registers_window.cpp</title>
<!-- Node1 -->
<g id="node1" class="node">
<title>Node1</title>
<g id="a_node1"><a xlink:title=" ">
<polygon fill="#bfbfbf" stroke="black" points="111.5,-425.5 111.5,-455.5 251.5,-455.5 251.5,-425.5 111.5,-425.5"/>
<text text-anchor="start" x="119.5" y="-443.5" font-family="Helvetica,sans-Serif" font-size="10.00">src/gui/windows/registers</text>
<text text-anchor="middle" x="181.5" y="-432.5" font-family="Helvetica,sans-Serif" font-size="10.00">_window.cpp</text>
</a>
</g>
</g>
<!-- Node2 -->
<g id="node2" class="node">
<title>Node2</title>
<g id="a_node2"><a xlink:title=" ">
<polygon fill="none" stroke="#bfbfbf" points="0,-369.5 0,-388.5 101,-388.5 101,-369.5 0,-369.5"/>
<text text-anchor="middle" x="50.5" y="-376.5" font-family="Helvetica,sans-Serif" font-size="10.00">magic_enum.hpp</text>
</a>
</g>
</g>
<!-- Node1&#45;&gt;Node2 -->
<g id="edge1" class="edge">
<title>Node1&#45;&gt;Node2</title>
<path fill="none" stroke="midnightblue" d="M150.45,-425.4C128.77,-415.55 100.04,-402.5 78.95,-392.92"/>
<polygon fill="midnightblue" stroke="midnightblue" points="80.11,-389.61 69.56,-388.66 77.22,-395.98 80.11,-389.61"/>
</g>
<!-- Node3 -->
<g id="node3" class="node">
<title>Node3</title>
<g id="a_node3"><a xlink:title=" ">
<polygon fill="none" stroke="#bfbfbf" points="119,-369.5 119,-388.5 244,-388.5 244,-369.5 119,-369.5"/>
<text text-anchor="middle" x="181.5" y="-376.5" font-family="Helvetica,sans-Serif" font-size="10.00">fmt/include/fmt/core.h</text>
</a>
</g>
</g>
<!-- Node1&#45;&gt;Node3 -->
<g id="edge2" class="edge">
<title>Node1&#45;&gt;Node3</title>
<path fill="none" stroke="midnightblue" d="M181.5,-425.4C181.5,-417.47 181.5,-407.46 181.5,-398.86"/>
<polygon fill="midnightblue" stroke="midnightblue" points="185,-398.66 181.5,-388.66 178,-398.66 185,-398.66"/>
</g>
<!-- Node4 -->
<g id="node4" class="node">
<title>Node4</title>
<g id="a_node4"><a xlink:href="registers__window_8hpp.html" target="_top" xlink:title=" ">
<polygon fill="none" stroke="black" points="262.5,-369.5 262.5,-388.5 384.5,-388.5 384.5,-369.5 262.5,-369.5"/>
<text text-anchor="middle" x="323.5" y="-376.5" font-family="Helvetica,sans-Serif" font-size="10.00">registers_window.hpp</text>
</a>
</g>
</g>
<!-- Node1&#45;&gt;Node4 -->
<g id="edge3" class="edge">
<title>Node1&#45;&gt;Node4</title>
<path fill="none" stroke="midnightblue" d="M215.15,-425.4C238.98,-415.42 270.65,-402.15 293.59,-392.53"/>
<polygon fill="midnightblue" stroke="midnightblue" points="294.97,-395.75 302.84,-388.66 292.26,-389.29 294.97,-395.75"/>
</g>
<!-- Node5 -->
<g id="node5" class="node">
<title>Node5</title>
<g id="a_node5"><a xlink:title=" ">
<polygon fill="none" stroke="#bfbfbf" points="179.5,-308 179.5,-327 263.5,-327 263.5,-308 179.5,-308"/>
<text text-anchor="middle" x="221.5" y="-315" font-family="Helvetica,sans-Serif" font-size="10.00">imgui/imgui.h</text>
</a>
</g>
</g>
<!-- Node4&#45;&gt;Node5 -->
<g id="edge4" class="edge">
<title>Node4&#45;&gt;Node5</title>
<path fill="none" stroke="midnightblue" d="M308.89,-369.48C292.15,-359.71 264.5,-343.58 244.78,-332.08"/>
<polygon fill="midnightblue" stroke="midnightblue" points="246.49,-329.02 236.09,-327.01 242.96,-335.07 246.49,-329.02"/>
</g>
<!-- Node6 -->
<g id="node6" class="node">
<title>Node6</title>
<g id="a_node6"><a xlink:href="window_8hpp.html" target="_top" xlink:title=" ">
<polygon fill="none" stroke="black" points="282,-308 282,-327 365,-327 365,-308 282,-308"/>
<text text-anchor="middle" x="323.5" y="-315" font-family="Helvetica,sans-Serif" font-size="10.00">../window.hpp</text>
</a>
</g>
</g>
<!-- Node4&#45;&gt;Node6 -->
<g id="edge5" class="edge">
<title>Node4&#45;&gt;Node6</title>
<path fill="none" stroke="midnightblue" d="M323.5,-369.48C323.5,-361.08 323.5,-347.98 323.5,-337.16"/>
<polygon fill="midnightblue" stroke="midnightblue" points="327,-337.01 323.5,-327.01 320,-337.01 327,-337.01"/>
</g>
<!-- Node8 -->
<g id="node8" class="node">
<title>Node8</title>
<g id="a_node8"><a xlink:href="core_8hpp.html" target="_top" xlink:title="This file defines a class that represents a CPU core (arm1176jzf_s).">
<polygon fill="none" stroke="black" points="493.5,-302.5 493.5,-332.5 607.5,-332.5 607.5,-302.5 493.5,-302.5"/>
<text text-anchor="start" x="501.5" y="-320.5" font-family="Helvetica,sans-Serif" font-size="10.00">../../core/arm1176jzf</text>
<text text-anchor="middle" x="550.5" y="-309.5" font-family="Helvetica,sans-Serif" font-size="10.00">_s/core.hpp</text>
</a>
</g>
</g>
<!-- Node4&#45;&gt;Node8 -->
<g id="edge7" class="edge">
<title>Node4&#45;&gt;Node8</title>
<path fill="none" stroke="midnightblue" d="M356.02,-369.48C390.14,-360.53 444.64,-346.25 487.27,-335.07"/>
<polygon fill="midnightblue" stroke="midnightblue" points="488.21,-338.44 497,-332.52 486.44,-331.67 488.21,-338.44"/>
</g>
<!-- Node7 -->
<g id="node7" class="node">
<title>Node7</title>
<g id="a_node7"><a xlink:title=" ">
<polygon fill="none" stroke="#bfbfbf" points="109.5,-241 109.5,-260 167.5,-260 167.5,-241 109.5,-241"/>
<text text-anchor="middle" x="138.5" y="-248" font-family="Helvetica,sans-Serif" font-size="10.00">memory</text>
</a>
</g>
</g>
<!-- Node6&#45;&gt;Node7 -->
<g id="edge6" class="edge">
<title>Node6&#45;&gt;Node7</title>
<path fill="none" stroke="midnightblue" d="M298.93,-307.87C266.5,-296.47 209.23,-276.35 172.62,-263.49"/>
<polygon fill="midnightblue" stroke="midnightblue" points="173.47,-260.08 162.87,-260.06 171.15,-266.68 173.47,-260.08"/>
</g>
<!-- Node9 -->
<g id="node9" class="node">
<title>Node9</title>
<g id="a_node9"><a xlink:href="context_8hpp.html" target="_top" xlink:title="This file defines the context (registers) of the CPU.">
<polygon fill="none" stroke="black" points="488.5,-62 488.5,-81 562.5,-81 562.5,-62 488.5,-62"/>
<text text-anchor="middle" x="525.5" y="-69" font-family="Helvetica,sans-Serif" font-size="10.00">context.hpp</text>
</a>
</g>
</g>
<!-- Node8&#45;&gt;Node9 -->
<g id="edge8" class="edge">
<title>Node8&#45;&gt;Node9</title>
<path fill="none" stroke="midnightblue" d="M607.74,-311.73C667.6,-305.42 755.73,-291.92 776.5,-266 800.68,-235.82 797.84,-211.24 776.5,-179 752.26,-142.38 631.27,-102.89 566.53,-83.93"/>
<polygon fill="midnightblue" stroke="midnightblue" points="567.23,-80.49 556.65,-81.07 565.28,-87.21 567.23,-80.49"/>
</g>
<!-- Node10 -->
<g id="node10" class="node">
<title>Node10</title>
<g id="a_node10"><a xlink:title=" ">
<polygon fill="none" stroke="#bfbfbf" points="328.5,-0.5 328.5,-19.5 474.5,-19.5 474.5,-0.5 328.5,-0.5"/>
<text text-anchor="middle" x="401.5" y="-7.5" font-family="Helvetica,sans-Serif" font-size="10.00">zero_mate/utils/logger.hpp</text>
</a>
</g>
</g>
<!-- Node8&#45;&gt;Node10 -->
<g id="edge62" class="edge">
<title>Node8&#45;&gt;Node10</title>
<path fill="none" stroke="midnightblue" d="M493.43,-311.37C402.97,-302.75 234.8,-284.44 214.5,-266 188.73,-242.59 195.5,-224.82 195.5,-190 195.5,-190 195.5,-190 195.5,-132 195.5,-66.29 274.4,-35.57 334.54,-21.7"/>
<polygon fill="midnightblue" stroke="midnightblue" points="335.37,-25.1 344.39,-19.53 333.87,-18.26 335.37,-25.1"/>
</g>
<!-- Node11 -->
<g id="node11" class="node">
<title>Node11</title>
<g id="a_node11"><a xlink:href="exceptions_8hpp.html" target="_top" xlink:title="This file defines all exceptions that can be thrown by the CPU during execution.">
<polygon fill="none" stroke="black" points="511,-179.5 511,-198.5 602,-198.5 602,-179.5 511,-179.5"/>
<text text-anchor="middle" x="556.5" y="-186.5" font-family="Helvetica,sans-Serif" font-size="10.00">exceptions.hpp</text>
</a>
</g>
</g>
<!-- Node8&#45;&gt;Node11 -->
<g id="edge10" class="edge">
<title>Node8&#45;&gt;Node11</title>
<path fill="none" stroke="midnightblue" d="M493.27,-307.76C437.95,-296.8 366.59,-274.48 396.5,-235 403.38,-225.91 462.75,-210.89 507.18,-200.73"/>
<polygon fill="midnightblue" stroke="midnightblue" points="507.99,-204.14 516.97,-198.51 506.44,-197.31 507.99,-204.14"/>
</g>
<!-- Node13 -->
<g id="node13" class="node">
<title>Node13</title>
<g id="a_node13"><a xlink:href="isa_8hpp.html" target="_top" xlink:title="This file is just a helper file for including all ARM instructions supported by the emulator.">
<polygon fill="none" stroke="black" points="1827,-123.5 1827,-142.5 1896,-142.5 1896,-123.5 1827,-123.5"/>
<text text-anchor="middle" x="1861.5" y="-130.5" font-family="Helvetica,sans-Serif" font-size="10.00">isa/isa.hpp</text>
</a>
</g>
</g>
<!-- Node8&#45;&gt;Node13 -->
<g id="edge13" class="edge">
<title>Node8&#45;&gt;Node13</title>
<path fill="none" stroke="midnightblue" d="M607.68,-308.54C828.09,-277.86 1620.17,-167.6 1816.99,-140.2"/>
<polygon fill="midnightblue" stroke="midnightblue" points="1817.55,-143.65 1826.97,-138.81 1816.59,-136.72 1817.55,-143.65"/>
</g>
<!-- Node32 -->
<g id="node32" class="node">
<title>Node32</title>
<g id="a_node32"><a xlink:href="isa__decoder_8hpp.html" target="_top" xlink:title="This file defines an instruction decoder.">
<polygon fill="none" stroke="black" points="2033,-179.5 2033,-198.5 2146,-198.5 2146,-179.5 2033,-179.5"/>
<text text-anchor="middle" x="2089.5" y="-186.5" font-family="Helvetica,sans-Serif" font-size="10.00">isa/isa_decoder.hpp</text>
</a>
</g>
</g>
<!-- Node8&#45;&gt;Node32 -->
<g id="edge49" class="edge">
<title>Node8&#45;&gt;Node32</title>
<path fill="none" stroke="midnightblue" d="M607.59,-313.77C740.12,-307.25 1078.93,-289.54 1361.5,-266 1605.63,-245.67 1894.91,-212.86 2022.9,-197.9"/>
<polygon fill="midnightblue" stroke="midnightblue" points="2023.41,-201.36 2032.94,-196.72 2022.6,-194.41 2023.41,-201.36"/>
</g>
<!-- Node33 -->
<g id="node33" class="node">
<title>Node33</title>
<g id="a_node33"><a xlink:href="bus_8hpp.html" target="_top" xlink:title="This file defines an interface the CPU uses to access different memory&#45;mapped peripherals.">
<polygon fill="none" stroke="black" points="703.5,-241 703.5,-260 767.5,-260 767.5,-241 703.5,-241"/>
<text text-anchor="middle" x="735.5" y="-248" font-family="Helvetica,sans-Serif" font-size="10.00">../bus.hpp</text>
</a>
</g>
</g>
<!-- Node8&#45;&gt;Node33 -->
<g id="edge51" class="edge">
<title>Node8&#45;&gt;Node33</title>
<path fill="none" stroke="midnightblue" d="M590.55,-302.49C619.45,-292.37 659.39,-278.36 694.5,-266 696.87,-265.17 699.31,-264.3 701.77,-263.44"/>
<polygon fill="midnightblue" stroke="midnightblue" points="702.96,-266.73 711.22,-260.1 700.63,-260.13 702.96,-266.73"/>
</g>
<!-- Node37 -->
<g id="node37" class="node">
<title>Node37</title>
<g id="a_node37"><a xlink:title=" ">
<polygon fill="none" stroke="#bfbfbf" points="405.5,-241 405.5,-260 547.5,-260 547.5,-241 405.5,-241"/>
<text text-anchor="middle" x="476.5" y="-248" font-family="Helvetica,sans-Serif" font-size="10.00">zero_mate/utils/math.hpp</text>
</a>
</g>
</g>
<!-- Node8&#45;&gt;Node37 -->
<g id="edge61" class="edge">
<title>Node8&#45;&gt;Node37</title>
<path fill="none" stroke="midnightblue" d="M534.44,-302.4C522.56,-291.96 506.39,-277.75 494.14,-267"/>
<polygon fill="midnightblue" stroke="midnightblue" points="496.22,-264.16 486.4,-260.19 491.6,-269.42 496.22,-264.16"/>
</g>
<!-- Node38 -->
<g id="node38" class="node">
<title>Node38</title>
<g id="a_node38"><a xlink:href="interrupt__controller_8hpp.html" target="_top" xlink:title="This file defines the interrupt controller used in BCM2835.">
<polygon fill="none" stroke="black" points="224,-235.5 224,-265.5 349,-265.5 349,-235.5 224,-235.5"/>
<text text-anchor="start" x="232" y="-253.5" font-family="Helvetica,sans-Serif" font-size="10.00">../peripherals/interrupt</text>
<text text-anchor="middle" x="286.5" y="-242.5" font-family="Helvetica,sans-Serif" font-size="10.00">_controller.hpp</text>
</a>
</g>
</g>
<!-- Node8&#45;&gt;Node38 -->
<g id="edge63" class="edge">
<title>Node8&#45;&gt;Node38</title>
<path fill="none" stroke="midnightblue" d="M493.54,-302.48C452.48,-292.37 396.91,-278.68 353.68,-268.04"/>
<polygon fill="midnightblue" stroke="midnightblue" points="354.36,-264.6 343.81,-265.61 352.69,-271.4 354.36,-264.6"/>
</g>
<!-- Node39 -->
<g id="node39" class="node">
<title>Node39</title>
<g id="a_node39"><a xlink:href="system__clock__listener_8hpp.html" target="_top" xlink:title="This file defines an interface for a CPU clock listener.">
<polygon fill="none" stroke="black" points="566,-235.5 566,-265.5 685,-265.5 685,-235.5 566,-235.5"/>
<text text-anchor="start" x="574" y="-253.5" font-family="Helvetica,sans-Serif" font-size="10.00">../peripherals/system</text>
<text text-anchor="middle" x="625.5" y="-242.5" font-family="Helvetica,sans-Serif" font-size="10.00">_clock_listener.hpp</text>
</a>
</g>
</g>
<!-- Node8&#45;&gt;Node39 -->
<g id="edge67" class="edge">
<title>Node8&#45;&gt;Node39</title>
<path fill="none" stroke="midnightblue" d="M566.77,-302.4C576.9,-293.62 590.1,-282.18 601.42,-272.37"/>
<polygon fill="midnightblue" stroke="midnightblue" points="603.99,-274.77 609.26,-265.58 599.41,-269.48 603.99,-274.77"/>
</g>
<!-- Node9&#45;&gt;Node10 -->
<g id="edge9" class="edge">
<title>Node9&#45;&gt;Node10</title>
<path fill="none" stroke="midnightblue" d="M507.73,-61.98C487.02,-52.03 452.55,-35.49 428.51,-23.96"/>
<polygon fill="midnightblue" stroke="midnightblue" points="429.76,-20.68 419.23,-19.51 426.73,-26.99 429.76,-20.68"/>
</g>
<!-- Node11&#45;&gt;Node9 -->
<g id="edge12" class="edge">
<title>Node11&#45;&gt;Node9</title>
<path fill="none" stroke="midnightblue" d="M554.17,-179.32C549.17,-160.67 537.29,-116.44 530.5,-91.13"/>
<polygon fill="midnightblue" stroke="midnightblue" points="533.83,-90.03 527.86,-81.28 527.07,-91.85 533.83,-90.03"/>
</g>
<!-- Node12 -->
<g id="node12" class="node">
<title>Node12</title>
<g id="a_node12"><a xlink:title=" ">
<polygon fill="none" stroke="#bfbfbf" points="445,-123.5 445,-142.5 524,-142.5 524,-123.5 445,-123.5"/>
<text text-anchor="middle" x="484.5" y="-130.5" font-family="Helvetica,sans-Serif" font-size="10.00">fmt/format.h</text>
</a>
</g>
</g>
<!-- Node11&#45;&gt;Node12 -->
<g id="edge11" class="edge">
<title>Node11&#45;&gt;Node12</title>
<path fill="none" stroke="midnightblue" d="M544.93,-179.32C534.08,-171.18 517.62,-158.84 504.62,-149.09"/>
<polygon fill="midnightblue" stroke="midnightblue" points="506.38,-146.03 496.28,-142.83 502.18,-151.63 506.38,-146.03"/>
</g>
<!-- Node14 -->
<g id="node14" class="node">
<title>Node14</title>
<g id="a_node14"><a xlink:href="instruction_8hpp.html" target="_top" xlink:title="This file defines the interface of a general ARM instruction.">
<polygon fill="none" stroke="black" points="1918,-0.5 1918,-19.5 2007,-19.5 2007,-0.5 1918,-0.5"/>
<text text-anchor="middle" x="1962.5" y="-7.5" font-family="Helvetica,sans-Serif" font-size="10.00">instruction.hpp</text>
</a>
</g>
</g>
<!-- Node13&#45;&gt;Node14 -->
<g id="edge14" class="edge">
<title>Node13&#45;&gt;Node14</title>
<path fill="none" stroke="midnightblue" d="M1896.32,-131.06C1995.41,-128.01 2273.55,-116.86 2300.5,-87 2309.73,-76.77 2309.58,-66.37 2300.5,-56 2282.15,-35.04 2108.02,-20.57 2017.14,-14.38"/>
<polygon fill="midnightblue" stroke="midnightblue" points="2017.23,-10.88 2007.02,-13.7 2016.76,-17.87 2017.23,-10.88"/>
</g>
<!-- Node15 -->
<g id="node15" class="node">
<title>Node15</title>
<g id="a_node15"><a xlink:href="branch__and__exchange_8hpp.html" target="_top" xlink:title="This file defines a branch and exchange instruction (BX).">
<polygon fill="none" stroke="black" points="2347.5,-62 2347.5,-81 2493.5,-81 2493.5,-62 2347.5,-62"/>
<text text-anchor="middle" x="2420.5" y="-69" font-family="Helvetica,sans-Serif" font-size="10.00">branch_and_exchange.hpp</text>
</a>
</g>
</g>
<!-- Node13&#45;&gt;Node15 -->
<g id="edge15" class="edge">
<title>Node13&#45;&gt;Node15</title>
<path fill="none" stroke="midnightblue" d="M1896.24,-129.53C1974.49,-123.77 2170.46,-108.33 2333.5,-87 2343.08,-85.75 2353.22,-84.23 2363.06,-82.66"/>
<polygon fill="midnightblue" stroke="midnightblue" points="2363.87,-86.07 2373.18,-81.01 2362.75,-79.16 2363.87,-86.07"/>
</g>
<!-- Node16 -->
<g id="node16" class="node">
<title>Node16</title>
<g id="a_node16"><a xlink:href="branch_8hpp.html" target="_top" xlink:title="This file defines a branch instruction (B, BL).">
<polygon fill="none" stroke="black" points="2512,-62 2512,-81 2583,-81 2583,-62 2512,-62"/>
<text text-anchor="middle" x="2547.5" y="-69" font-family="Helvetica,sans-Serif" font-size="10.00">branch.hpp</text>
</a>
</g>
</g>
<!-- Node13&#45;&gt;Node16 -->
<g id="edge17" class="edge">
<title>Node13&#45;&gt;Node16</title>
<path fill="none" stroke="midnightblue" d="M1896.28,-132.49C1993.23,-133.22 2274.4,-131.08 2502.5,-87 2506.47,-86.23 2510.57,-85.23 2514.61,-84.1"/>
<polygon fill="midnightblue" stroke="midnightblue" points="2515.87,-87.37 2524.42,-81.12 2513.84,-80.68 2515.87,-87.37"/>
</g>
<!-- Node17 -->
<g id="node17" class="node">
<title>Node17</title>
<g id="a_node17"><a xlink:href="data__processing_8hpp.html" target="_top" xlink:title="This file defines a data processing instruction.">
<polygon fill="none" stroke="black" points="2601,-62 2601,-81 2718,-81 2718,-62 2601,-62"/>
<text text-anchor="middle" x="2659.5" y="-69" font-family="Helvetica,sans-Serif" font-size="10.00">data_processing.hpp</text>
</a>
</g>
</g>
<!-- Node13&#45;&gt;Node17 -->
<g id="edge19" class="edge">
<title>Node13&#45;&gt;Node17</title>
<path fill="none" stroke="midnightblue" d="M1896.31,-131.73C2001.7,-130.5 2326.42,-123.77 2592.5,-87 2599.79,-85.99 2607.48,-84.62 2614.93,-83.13"/>
<polygon fill="midnightblue" stroke="midnightblue" points="2615.84,-86.52 2624.9,-81.03 2614.4,-79.67 2615.84,-86.52"/>
</g>
<!-- Node18 -->
<g id="node18" class="node">
<title>Node18</title>
<g id="a_node18"><a xlink:href="multiply_8hpp.html" target="_top" xlink:title="This file defines a multiplication instruction (MUL, MLA).">
<polygon fill="none" stroke="black" points="1133,-62 1133,-81 1210,-81 1210,-62 1133,-62"/>
<text text-anchor="middle" x="1171.5" y="-69" font-family="Helvetica,sans-Serif" font-size="10.00">multiply.hpp</text>
</a>
</g>
</g>
<!-- Node13&#45;&gt;Node18 -->
<g id="edge21" class="edge">
<title>Node13&#45;&gt;Node18</title>
<path fill="none" stroke="midnightblue" d="M1826.71,-132.28C1729.71,-132.46 1448.35,-129.04 1219.5,-87 1215.05,-86.18 1210.42,-85.1 1205.87,-83.89"/>
<polygon fill="midnightblue" stroke="midnightblue" points="1206.73,-80.49 1196.15,-81.1 1204.8,-87.22 1206.73,-80.49"/>
</g>
<!-- Node19 -->
<g id="node19" class="node">
<title>Node19</title>
<g id="a_node19"><a xlink:href="multiply__long_8hpp.html" target="_top" xlink:title="This file defines a multiplication (long) instruction.">
<polygon fill="none" stroke="black" points="1228.5,-62 1228.5,-81 1332.5,-81 1332.5,-62 1228.5,-62"/>
<text text-anchor="middle" x="1280.5" y="-69" font-family="Helvetica,sans-Serif" font-size="10.00">multiply_long.hpp</text>
</a>
</g>
</g>
<!-- Node13&#45;&gt;Node19 -->
<g id="edge23" class="edge">
<title>Node13&#45;&gt;Node19</title>
<path fill="none" stroke="midnightblue" d="M1826.98,-130.72C1743.38,-127.24 1523.58,-115.87 1342.5,-87 1336.2,-85.99 1329.58,-84.71 1323.12,-83.31"/>
<polygon fill="midnightblue" stroke="midnightblue" points="1323.67,-79.85 1313.15,-81.06 1322.13,-86.68 1323.67,-79.85"/>
</g>
<!-- Node20 -->
<g id="node20" class="node">
<title>Node20</title>
<g id="a_node20"><a xlink:href="single__data__transfer_8hpp.html" target="_top" xlink:title="This file defines single data transfer instruction (LDR, STR).">
<polygon fill="none" stroke="black" points="1351,-62 1351,-81 1488,-81 1488,-62 1351,-62"/>
<text text-anchor="middle" x="1419.5" y="-69" font-family="Helvetica,sans-Serif" font-size="10.00">single_data_transfer.hpp</text>
</a>
</g>
</g>
<!-- Node13&#45;&gt;Node20 -->
<g id="edge25" class="edge">
<title>Node13&#45;&gt;Node20</title>
<path fill="none" stroke="midnightblue" d="M1826.77,-128.42C1761.91,-121.57 1618.01,-105.63 1497.5,-87 1489.47,-85.76 1480.99,-84.32 1472.71,-82.84"/>
<polygon fill="midnightblue" stroke="midnightblue" points="1473.21,-79.37 1462.74,-81.02 1471.95,-86.26 1473.21,-79.37"/>
</g>
<!-- Node21 -->
<g id="node21" class="node">
<title>Node21</title>
<g id="a_node21"><a xlink:href="block__data__transfer_8hpp.html" target="_top" xlink:title="This file defines a block data transfer instruction (LDM, STM).">
<polygon fill="none" stroke="black" points="1506.5,-62 1506.5,-81 1640.5,-81 1640.5,-62 1506.5,-62"/>
<text text-anchor="middle" x="1573.5" y="-69" font-family="Helvetica,sans-Serif" font-size="10.00">block_data_transfer.hpp</text>
</a>
</g>
</g>
<!-- Node13&#45;&gt;Node21 -->
<g id="edge27" class="edge">
<title>Node13&#45;&gt;Node21</title>
<path fill="none" stroke="midnightblue" d="M1826.76,-124.82C1776.52,-114.44 1683.22,-95.17 1624.97,-83.13"/>
<polygon fill="midnightblue" stroke="midnightblue" points="1625.37,-79.64 1614.87,-81.05 1623.96,-86.5 1625.37,-79.64"/>
</g>
<!-- Node22 -->
<g id="node22" class="node">
<title>Node22</title>
<g id="a_node22"><a xlink:href="halfword__data__transfer_8hpp.html" target="_top" xlink:title="This file defines a Halfword data transfer instruction.">
<polygon fill="none" stroke="black" points="1659,-62 1659,-81 1808,-81 1808,-62 1659,-62"/>
<text text-anchor="middle" x="1733.5" y="-69" font-family="Helvetica,sans-Serif" font-size="10.00">halfword_data_transfer.hpp</text>
</a>
</g>
</g>
<!-- Node13&#45;&gt;Node22 -->
<g id="edge29" class="edge">
<title>Node13&#45;&gt;Node22</title>
<path fill="none" stroke="midnightblue" d="M1843.16,-123.48C1821.68,-113.49 1785.88,-96.85 1761.05,-85.31"/>
<polygon fill="midnightblue" stroke="midnightblue" points="1762.35,-82.05 1751.81,-81.01 1759.4,-88.4 1762.35,-82.05"/>
</g>
<!-- Node23 -->
<g id="node23" class="node">
<title>Node23</title>
<g id="a_node23"><a xlink:href="extend_8hpp.html" target="_top" xlink:title="This file defines an extend instruction.">
<polygon fill="none" stroke="black" points="1826,-62 1826,-81 1897,-81 1897,-62 1826,-62"/>
<text text-anchor="middle" x="1861.5" y="-69" font-family="Helvetica,sans-Serif" font-size="10.00">extend.hpp</text>
</a>
</g>
</g>
<!-- Node13&#45;&gt;Node23 -->
<g id="edge31" class="edge">
<title>Node13&#45;&gt;Node23</title>
<path fill="none" stroke="midnightblue" d="M1861.5,-123.48C1861.5,-115.08 1861.5,-101.98 1861.5,-91.16"/>
<polygon fill="midnightblue" stroke="midnightblue" points="1865,-91.01 1861.5,-81.01 1858,-91.01 1865,-91.01"/>
</g>
<!-- Node24 -->
<g id="node24" class="node">
<title>Node24</title>
<g id="a_node24"><a xlink:href="psr__transfer_8hpp.html" target="_top" xlink:title="This file defines a PSR instruction (MRS, MSR).">
<polygon fill="none" stroke="black" points="1915,-62 1915,-81 2010,-81 2010,-62 1915,-62"/>
<text text-anchor="middle" x="1962.5" y="-69" font-family="Helvetica,sans-Serif" font-size="10.00">psr_transfer.hpp</text>
</a>
</g>
</g>
<!-- Node13&#45;&gt;Node24 -->
<g id="edge33" class="edge">
<title>Node13&#45;&gt;Node24</title>
<path fill="none" stroke="midnightblue" d="M1875.97,-123.48C1892.47,-113.75 1919.68,-97.73 1939.18,-86.24"/>
<polygon fill="midnightblue" stroke="midnightblue" points="1941.22,-89.1 1948.06,-81.01 1937.66,-83.07 1941.22,-89.1"/>
</g>
<!-- Node25 -->
<g id="node25" class="node">
<title>Node25</title>
<g id="a_node25"><a xlink:href="cps_8hpp.html" target="_top" xlink:title="This file defines a change processor state instruction (CPS).">
<polygon fill="none" stroke="black" points="2028.5,-62 2028.5,-81 2082.5,-81 2082.5,-62 2028.5,-62"/>
<text text-anchor="middle" x="2055.5" y="-69" font-family="Helvetica,sans-Serif" font-size="10.00">cps.hpp</text>
</a>
</g>
</g>
<!-- Node13&#45;&gt;Node25 -->
<g id="edge35" class="edge">
<title>Node13&#45;&gt;Node25</title>
<path fill="none" stroke="midnightblue" d="M1895.42,-123.45C1927.63,-115.07 1977.28,-101.47 2019.5,-87 2021.62,-86.27 2023.8,-85.49 2025.99,-84.68"/>
<polygon fill="midnightblue" stroke="midnightblue" points="2027.4,-87.88 2035.46,-81.01 2024.87,-81.36 2027.4,-87.88"/>
</g>
<!-- Node26 -->
<g id="node26" class="node">
<title>Node26</title>
<g id="a_node26"><a xlink:href="coprocessor__register__transfer_8hpp.html" target="_top" xlink:title="This file defines a coprocessor register transfer (MRC, MCR).">
<polygon fill="none" stroke="black" points="812.5,-56.5 812.5,-86.5 930.5,-86.5 930.5,-56.5 812.5,-56.5"/>
<text text-anchor="start" x="820.5" y="-74.5" font-family="Helvetica,sans-Serif" font-size="10.00">coprocessor_register</text>
<text text-anchor="middle" x="871.5" y="-63.5" font-family="Helvetica,sans-Serif" font-size="10.00">_transfer.hpp</text>
</a>
</g>
</g>
<!-- Node13&#45;&gt;Node26 -->
<g id="edge37" class="edge">
<title>Node13&#45;&gt;Node26</title>
<path fill="none" stroke="midnightblue" d="M1827,-132.32C1706.26,-133 1291.56,-131.8 940.84,-87.02"/>
<polygon fill="midnightblue" stroke="midnightblue" points="941.11,-83.53 930.74,-85.72 940.21,-90.47 941.11,-83.53"/>
</g>
<!-- Node27 -->
<g id="node27" class="node">
<title>Node27</title>
<g id="a_node27"><a xlink:href="coprocessor__data__transfer_8hpp.html" target="_top" xlink:title="This file defines a coprocessor data transfer (LDC, STC).">
<polygon fill="none" stroke="black" points="948.5,-62 948.5,-81 1114.5,-81 1114.5,-62 948.5,-62"/>
<text text-anchor="middle" x="1031.5" y="-69" font-family="Helvetica,sans-Serif" font-size="10.00">coprocessor_data_transfer.hpp</text>
</a>
</g>
</g>
<!-- Node13&#45;&gt;Node27 -->
<g id="edge39" class="edge">
<title>Node13&#45;&gt;Node27</title>
<path fill="none" stroke="midnightblue" d="M1826.87,-131.04C1721.26,-127.86 1394.05,-116.18 1124.5,-87 1113.55,-85.82 1101.93,-84.25 1090.74,-82.59"/>
<polygon fill="midnightblue" stroke="midnightblue" points="1091.03,-79.09 1080.62,-81.04 1089.97,-86.01 1091.03,-79.09"/>
</g>
<!-- Node28 -->
<g id="node28" class="node">
<title>Node28</title>
<g id="a_node28"><a xlink:href="coprocessor__data__operation_8hpp.html" target="_top" xlink:title="This file defines a coprocessor data operation (CDP).">
<polygon fill="none" stroke="black" points="619,-62 619,-81 794,-81 794,-62 619,-62"/>
<text text-anchor="middle" x="706.5" y="-69" font-family="Helvetica,sans-Serif" font-size="10.00">coprocessor_data_operation.hpp</text>
</a>
</g>
</g>
<!-- Node13&#45;&gt;Node28 -->
<g id="edge41" class="edge">
<title>Node13&#45;&gt;Node28</title>
<path fill="none" stroke="midnightblue" d="M1826.7,-131.86C1693.63,-131.02 1204.29,-125.37 803.5,-87 791.58,-85.86 778.89,-84.25 766.76,-82.52"/>
<polygon fill="midnightblue" stroke="midnightblue" points="767.12,-79.03 756.72,-81.04 766.1,-85.96 767.12,-79.03"/>
</g>
<!-- Node29 -->
<g id="node29" class="node">
<title>Node29</title>
<g id="a_node29"><a xlink:href="srs_8hpp.html" target="_top" xlink:title="This file defines an SRS instruction (store return state onto a stack).">
<polygon fill="none" stroke="black" points="2100.5,-62 2100.5,-81 2152.5,-81 2152.5,-62 2100.5,-62"/>
<text text-anchor="middle" x="2126.5" y="-69" font-family="Helvetica,sans-Serif" font-size="10.00">srs.hpp</text>
</a>
</g>
</g>
<!-- Node13&#45;&gt;Node29 -->
<g id="edge43" class="edge">
<title>Node13&#45;&gt;Node29</title>
<path fill="none" stroke="midnightblue" d="M1896.31,-127.4C1941.82,-120.89 2023.72,-107.45 2091.5,-87 2093.78,-86.31 2096.12,-85.53 2098.46,-84.69"/>
<polygon fill="midnightblue" stroke="midnightblue" points="2099.81,-87.92 2107.86,-81.03 2097.27,-81.39 2099.81,-87.92"/>
</g>
<!-- Node30 -->
<g id="node30" class="node">
<title>Node30</title>
<g id="a_node30"><a xlink:href="rfe_8hpp.html" target="_top" xlink:title="This file defines an RFE instruction (return from exception).">
<polygon fill="none" stroke="black" points="2171,-62 2171,-81 2222,-81 2222,-62 2171,-62"/>
<text text-anchor="middle" x="2196.5" y="-69" font-family="Helvetica,sans-Serif" font-size="10.00">rfe.hpp</text>
</a>
</g>
</g>
<!-- Node13&#45;&gt;Node30 -->
<g id="edge45" class="edge">
<title>Node13&#45;&gt;Node30</title>
<path fill="none" stroke="midnightblue" d="M1896.26,-129.55C1952.76,-124.96 2067.62,-113.07 2161.5,-87 2163.94,-86.32 2166.44,-85.52 2168.92,-84.65"/>
<polygon fill="midnightblue" stroke="midnightblue" points="2170.2,-87.9 2178.27,-81.04 2167.68,-81.37 2170.2,-87.9"/>
</g>
<!-- Node31 -->
<g id="node31" class="node">
<title>Node31</title>
<g id="a_node31"><a xlink:href="clz_8hpp.html" target="_top" xlink:title="This file defines a count leading zeros instruction (CLZ).">
<polygon fill="none" stroke="black" points="2240,-62 2240,-81 2291,-81 2291,-62 2240,-62"/>
<text text-anchor="middle" x="2265.5" y="-69" font-family="Helvetica,sans-Serif" font-size="10.00">clz.hpp</text>
</a>
</g>
</g>
<!-- Node13&#45;&gt;Node31 -->
<g id="edge47" class="edge">
<title>Node13&#45;&gt;Node31</title>
<path fill="none" stroke="midnightblue" d="M1896.04,-131.03C1962.22,-128.48 2111.03,-119.31 2231.5,-87 2233.8,-86.38 2236.15,-85.64 2238.48,-84.82"/>
<polygon fill="midnightblue" stroke="midnightblue" points="2239.81,-88.06 2247.84,-81.15 2237.25,-81.54 2239.81,-88.06"/>
</g>
<!-- Node15&#45;&gt;Node14 -->
<g id="edge16" class="edge">
<title>Node15&#45;&gt;Node14</title>
<path fill="none" stroke="midnightblue" d="M2371.78,-61.99C2359.32,-59.92 2345.93,-57.79 2333.5,-56 2221.49,-39.88 2089.89,-24.84 2017.39,-16.89"/>
<polygon fill="midnightblue" stroke="midnightblue" points="2017.45,-13.37 2007.13,-15.76 2016.69,-20.33 2017.45,-13.37"/>
</g>
<!-- Node16&#45;&gt;Node14 -->
<g id="edge18" class="edge">
<title>Node16&#45;&gt;Node14</title>
<path fill="none" stroke="midnightblue" d="M2524.41,-61.94C2517.46,-59.67 2509.74,-57.45 2502.5,-56 2327.61,-21.02 2115.58,-13.17 2017.35,-11.45"/>
<polygon fill="midnightblue" stroke="midnightblue" points="2017.13,-7.95 2007.08,-11.29 2017.02,-14.95 2017.13,-7.95"/>
</g>
<!-- Node17&#45;&gt;Node14 -->
<g id="edge20" class="edge">
<title>Node17&#45;&gt;Node14</title>
<path fill="none" stroke="midnightblue" d="M2624.55,-61.96C2614.28,-59.71 2602.99,-57.5 2592.5,-56 2381.14,-25.74 2126.83,-15.48 2017.18,-12.3"/>
<polygon fill="midnightblue" stroke="midnightblue" points="2017.13,-8.8 2007.03,-12.01 2016.93,-15.79 2017.13,-8.8"/>
</g>
<!-- Node18&#45;&gt;Node14 -->
<g id="edge22" class="edge">
<title>Node18&#45;&gt;Node14</title>
<path fill="none" stroke="midnightblue" d="M1196.14,-61.86C1203.57,-59.58 1211.79,-57.38 1219.5,-56 1351.65,-32.37 1758.68,-17.46 1907.38,-12.67"/>
<polygon fill="midnightblue" stroke="midnightblue" points="1907.75,-16.16 1917.63,-12.35 1907.53,-9.17 1907.75,-16.16"/>
</g>
<!-- Node19&#45;&gt;Node14 -->
<g id="edge24" class="edge">
<title>Node19&#45;&gt;Node14</title>
<path fill="none" stroke="midnightblue" d="M1312.81,-61.93C1322.32,-59.68 1332.77,-57.48 1342.5,-56 1549.73,-24.45 1799.41,-14.87 1907.83,-12.08"/>
<polygon fill="midnightblue" stroke="midnightblue" points="1907.97,-15.58 1917.88,-11.84 1907.79,-8.58 1907.97,-15.58"/>
</g>
<!-- Node20&#45;&gt;Node14 -->
<g id="edge26" class="edge">
<title>Node20&#45;&gt;Node14</title>
<path fill="none" stroke="midnightblue" d="M1461.49,-62C1473.12,-59.83 1485.77,-57.65 1497.5,-56 1645.1,-35.18 1820.42,-21.06 1907.6,-14.75"/>
<polygon fill="midnightblue" stroke="midnightblue" points="1908.06,-18.23 1917.78,-14.02 1907.56,-11.25 1908.06,-18.23"/>
</g>
<!-- Node21&#45;&gt;Node14 -->
<g id="edge28" class="edge">
<title>Node21&#45;&gt;Node14</title>
<path fill="none" stroke="midnightblue" d="M1617.01,-61.97C1627.93,-59.92 1639.63,-57.81 1650.5,-56 1740.51,-41.04 1845.61,-26.48 1907.97,-18.14"/>
<polygon fill="midnightblue" stroke="midnightblue" points="1908.52,-21.6 1917.97,-16.81 1907.6,-14.66 1908.52,-21.6"/>
</g>
<!-- Node22&#45;&gt;Node14 -->
<g id="edge30" class="edge">
<title>Node22&#45;&gt;Node14</title>
<path fill="none" stroke="midnightblue" d="M1766.31,-61.98C1806.7,-51.48 1875.38,-33.64 1919.83,-22.09"/>
<polygon fill="midnightblue" stroke="midnightblue" points="1920.95,-25.41 1929.75,-19.51 1919.19,-18.64 1920.95,-25.41"/>
</g>
<!-- Node23&#45;&gt;Node14 -->
<g id="edge32" class="edge">
<title>Node23&#45;&gt;Node14</title>
<path fill="none" stroke="midnightblue" d="M1875.97,-61.98C1892.47,-52.25 1919.68,-36.23 1939.18,-24.74"/>
<polygon fill="midnightblue" stroke="midnightblue" points="1941.22,-27.6 1948.06,-19.51 1937.66,-21.57 1941.22,-27.6"/>
</g>
<!-- Node24&#45;&gt;Node14 -->
<g id="edge34" class="edge">
<title>Node24&#45;&gt;Node14</title>
<path fill="none" stroke="midnightblue" d="M1962.5,-61.98C1962.5,-53.58 1962.5,-40.48 1962.5,-29.66"/>
<polygon fill="midnightblue" stroke="midnightblue" points="1966,-29.51 1962.5,-19.51 1959,-29.51 1966,-29.51"/>
</g>
<!-- Node25&#45;&gt;Node14 -->
<g id="edge36" class="edge">
<title>Node25&#45;&gt;Node14</title>
<path fill="none" stroke="midnightblue" d="M2042.18,-61.98C2027.12,-52.34 2002.38,-36.52 1984.46,-25.05"/>
<polygon fill="midnightblue" stroke="midnightblue" points="1986.11,-21.95 1975.8,-19.51 1982.34,-27.85 1986.11,-21.95"/>
</g>
<!-- Node26&#45;&gt;Node14 -->
<g id="edge38" class="edge">
<title>Node26&#45;&gt;Node14</title>
<path fill="none" stroke="midnightblue" d="M930.74,-57.26C933.69,-56.79 936.63,-56.37 939.5,-56 1129.35,-31.75 1723.55,-16.46 1907.6,-12.21"/>
<polygon fill="midnightblue" stroke="midnightblue" points="1907.93,-15.7 1917.84,-11.98 1907.77,-8.71 1907.93,-15.7"/>
</g>
<!-- Node27&#45;&gt;Node14 -->
<g id="edge40" class="edge">
<title>Node27&#45;&gt;Node14</title>
<path fill="none" stroke="midnightblue" d="M1080.13,-61.97C1094.39,-59.73 1110.04,-57.51 1124.5,-56 1418.96,-25.22 1773.95,-14.95 1907.85,-12.02"/>
<polygon fill="midnightblue" stroke="midnightblue" points="1907.94,-15.52 1917.86,-11.81 1907.79,-8.53 1907.94,-15.52"/>
</g>
<!-- Node28&#45;&gt;Node14 -->
<g id="edge42" class="edge">
<title>Node28&#45;&gt;Node14</title>
<path fill="none" stroke="midnightblue" d="M756.22,-62C771.36,-59.7 788.07,-57.45 803.5,-56 1227,-16.25 1740.72,-11.46 1907.43,-11"/>
<polygon fill="midnightblue" stroke="midnightblue" points="1907.91,-14.5 1917.9,-10.98 1907.9,-7.5 1907.91,-14.5"/>
</g>
<!-- Node29&#45;&gt;Node14 -->
<g id="edge44" class="edge">
<title>Node29&#45;&gt;Node14</title>
<path fill="none" stroke="midnightblue" d="M2106.22,-61.87C2101.42,-59.89 2096.29,-57.83 2091.5,-56 2060.19,-44.07 2024.16,-31.6 1998.15,-22.83"/>
<polygon fill="midnightblue" stroke="midnightblue" points="1998.95,-19.4 1988.36,-19.54 1996.72,-26.04 1998.95,-19.4"/>
</g>
<!-- Node30&#45;&gt;Node14 -->
<g id="edge46" class="edge">
<title>Node30&#45;&gt;Node14</title>
<path fill="none" stroke="midnightblue" d="M2177.46,-61.92C2172.34,-59.81 2166.77,-57.67 2161.5,-56 2113.57,-40.78 2057.6,-28.6 2017.25,-20.77"/>
<polygon fill="midnightblue" stroke="midnightblue" points="2017.82,-17.32 2007.34,-18.87 2016.5,-24.19 2017.82,-17.32"/>
</g>
<!-- Node31&#45;&gt;Node14 -->
<g id="edge48" class="edge">
<title>Node31&#45;&gt;Node14</title>
<path fill="none" stroke="midnightblue" d="M2247.44,-61.86C2242.37,-59.69 2236.8,-57.55 2231.5,-56 2158.92,-34.78 2072.2,-22.52 2017.24,-16.3"/>
<polygon fill="midnightblue" stroke="midnightblue" points="2017.34,-12.79 2007.02,-15.18 2016.57,-19.75 2017.34,-12.79"/>
</g>
<!-- Node32&#45;&gt;Node14 -->
<g id="edge50" class="edge">
<title>Node32&#45;&gt;Node14</title>
<path fill="none" stroke="midnightblue" d="M2146.25,-185.4C2317.08,-176.59 2809.85,-143.34 2727.5,-56 2703.17,-30.2 2188.45,-16.15 2017.3,-12.19"/>
<polygon fill="midnightblue" stroke="midnightblue" points="2017.32,-8.69 2007.24,-11.96 2017.16,-15.68 2017.32,-8.69"/>
</g>
<!-- Node33&#45;&gt;Node11 -->
<g id="edge60" class="edge">
<title>Node33&#45;&gt;Node11</title>
<path fill="none" stroke="midnightblue" d="M711.69,-240.97C706.06,-238.98 700.08,-236.89 694.5,-235 660.18,-223.34 620.86,-210.57 593,-201.63"/>
<polygon fill="midnightblue" stroke="midnightblue" points="593.87,-198.23 583.28,-198.52 591.73,-204.9 593.87,-198.23"/>
</g>
<!-- Node34 -->
<g id="node34" class="node">
<title>Node34</title>
<g id="a_node34"><a xlink:href="cp15_8hpp.html" target="_top" xlink:title="This file defines CP15 (system control coprocessor).">
<polygon fill="none" stroke="black" points="639.5,-179.5 639.5,-198.5 767.5,-198.5 767.5,-179.5 639.5,-179.5"/>
<text text-anchor="middle" x="703.5" y="-186.5" font-family="Helvetica,sans-Serif" font-size="10.00">coprocessors/cp15.hpp</text>
</a>
</g>
</g>
<!-- Node33&#45;&gt;Node34 -->
<g id="edge52" class="edge">
<title>Node33&#45;&gt;Node34</title>
<path fill="none" stroke="midnightblue" d="M730.92,-240.98C726.26,-232.32 718.91,-218.65 712.99,-207.65"/>
<polygon fill="midnightblue" stroke="midnightblue" points="715.9,-205.66 708.08,-198.51 709.73,-208.97 715.9,-205.66"/>
</g>
<!-- Node36 -->
<g id="node36" class="node">
<title>Node36</title>
<g id="a_node36"><a xlink:href="peripheral_8hpp.html" target="_top" xlink:title="This file defines an interface for a memory&#45;mapped peripheral.">
<polygon fill="none" stroke="black" points="348,-179.5 348,-198.5 493,-198.5 493,-179.5 348,-179.5"/>
<text text-anchor="middle" x="420.5" y="-186.5" font-family="Helvetica,sans-Serif" font-size="10.00">peripherals/peripheral.hpp</text>
</a>
</g>
</g>
<!-- Node33&#45;&gt;Node36 -->
<g id="edge59" class="edge">
<title>Node33&#45;&gt;Node36</title>
<path fill="none" stroke="midnightblue" d="M713.59,-240.95C707.48,-238.78 700.79,-236.61 694.5,-235 631.09,-218.72 557.86,-207.05 503.06,-199.68"/>
<polygon fill="midnightblue" stroke="midnightblue" points="503.42,-196.2 493.05,-198.35 502.5,-203.13 503.42,-196.2"/>
</g>
<!-- Node34&#45;&gt;Node10 -->
<g id="edge58" class="edge">
<title>Node34&#45;&gt;Node10</title>
<path fill="none" stroke="midnightblue" d="M695.78,-179.16C672.26,-152.41 601.28,-73.13 571.5,-56 542.01,-39.03 505.98,-28.31 474.69,-21.61"/>
<polygon fill="midnightblue" stroke="midnightblue" points="475.21,-18.15 464.72,-19.57 473.81,-25 475.21,-18.15"/>
</g>
<!-- Node35 -->
<g id="node35" class="node">
<title>Node35</title>
<g id="a_node35"><a xlink:href="coprocessor_8hpp.html" target="_top" xlink:title="This file defines a general interface of a coprocessor.">
<polygon fill="none" stroke="black" points="824,-123.5 824,-142.5 919,-142.5 919,-123.5 824,-123.5"/>
<text text-anchor="middle" x="871.5" y="-130.5" font-family="Helvetica,sans-Serif" font-size="10.00">coprocessor.hpp</text>
</a>
</g>
</g>
<!-- Node34&#45;&gt;Node35 -->
<g id="edge53" class="edge">
<title>Node34&#45;&gt;Node35</title>
<path fill="none" stroke="midnightblue" d="M730.12,-179.44C758.51,-170.32 803.64,-155.81 835.25,-145.65"/>
<polygon fill="midnightblue" stroke="midnightblue" points="836.56,-148.91 845,-142.52 834.41,-142.24 836.56,-148.91"/>
</g>
<!-- Node35&#45;&gt;Node9 -->
<g id="edge54" class="edge">
<title>Node35&#45;&gt;Node9</title>
<path fill="none" stroke="midnightblue" d="M823.75,-123.79C757.59,-112.41 638.74,-91.97 572.81,-80.64"/>
<polygon fill="midnightblue" stroke="midnightblue" points="573.15,-77.14 562.7,-78.9 571.96,-84.04 573.15,-77.14"/>
</g>
<!-- Node35&#45;&gt;Node26 -->
<g id="edge55" class="edge">
<title>Node35&#45;&gt;Node26</title>
<path fill="none" stroke="midnightblue" d="M871.5,-123.48C871.5,-116.47 871.5,-106.19 871.5,-96.7"/>
<polygon fill="midnightblue" stroke="midnightblue" points="875,-96.52 871.5,-86.52 868,-96.52 875,-96.52"/>
</g>
<!-- Node35&#45;&gt;Node27 -->
<g id="edge56" class="edge">
<title>Node35&#45;&gt;Node27</title>
<path fill="none" stroke="midnightblue" d="M894.42,-123.48C921.87,-113.27 968.02,-96.11 999.1,-84.55"/>
<polygon fill="midnightblue" stroke="midnightblue" points="1000.47,-87.78 1008.62,-81.01 998.03,-81.21 1000.47,-87.78"/>
</g>
<!-- Node35&#45;&gt;Node28 -->
<g id="edge57" class="edge">
<title>Node35&#45;&gt;Node28</title>
<path fill="none" stroke="midnightblue" d="M847.86,-123.48C819.56,-113.27 771.97,-96.11 739.91,-84.55"/>
<polygon fill="midnightblue" stroke="midnightblue" points="740.69,-81.11 730.1,-81.01 738.32,-87.69 740.69,-81.11"/>
</g>
<!-- Node38&#45;&gt;Node9 -->
<g id="edge65" class="edge">
<title>Node38&#45;&gt;Node9</title>
<path fill="none" stroke="midnightblue" d="M294.66,-235.46C304.04,-220.2 320.59,-195.75 339.5,-179 387.9,-136.13 456.3,-102.39 495.24,-85.13"/>
<polygon fill="midnightblue" stroke="midnightblue" points="496.71,-88.31 504.48,-81.11 493.91,-81.9 496.71,-88.31"/>
</g>
<!-- Node38&#45;&gt;Node10 -->
<g id="edge66" class="edge">
<title>Node38&#45;&gt;Node10</title>
<path fill="none" stroke="midnightblue" d="M291.94,-235.31C297.53,-220.96 306.64,-198.23 315.5,-179 341.24,-123.12 375.49,-58.83 391.92,-28.53"/>
<polygon fill="midnightblue" stroke="midnightblue" points="395.06,-30.08 396.77,-19.62 388.91,-26.73 395.06,-30.08"/>
</g>
<!-- Node38&#45;&gt;Node36 -->
<g id="edge64" class="edge">
<title>Node38&#45;&gt;Node36</title>
<path fill="none" stroke="midnightblue" d="M318.26,-235.4C340.54,-225.51 370.09,-212.38 391.69,-202.79"/>
<polygon fill="midnightblue" stroke="midnightblue" points="393.28,-205.91 401,-198.66 390.44,-199.52 393.28,-205.91"/>
</g>
</g>
</svg>
