<?xml version="1.0" encoding="UTF-8" standalone="no"?>
<!DOCTYPE svg PUBLIC "-//W3C//DTD SVG 1.1//EN"
 "http://www.w3.org/Graphics/SVG/1.1/DTD/svg11.dtd">
<!-- Generated by graphviz version 2.43.0 (0)
 -->
<!-- Title: src/gui/windows/registers_window.hpp Pages: 1 -->
<svg width="2995pt" height="475pt"
 viewBox="0.00 0.00 2994.50 475.00" xmlns="http://www.w3.org/2000/svg" xmlns:xlink="http://www.w3.org/1999/xlink">
<g id="graph0" class="graph" transform="scale(1 1) rotate(0) translate(4 471)">
<title>src/gui/windows/registers_window.hpp</title>
<!-- Node1 -->
<g id="node1" class="node">
<title>Node1</title>
<g id="a_node1"><a xlink:title=" ">
<polygon fill="#bfbfbf" stroke="black" points="42,-436.5 42,-466.5 182,-466.5 182,-436.5 42,-436.5"/>
<text text-anchor="start" x="50" y="-454.5" font-family="Helvetica,sans-Serif" font-size="10.00">src/gui/windows/registers</text>
<text text-anchor="middle" x="112" y="-443.5" font-family="Helvetica,sans-Serif" font-size="10.00">_window.hpp</text>
</a>
</g>
</g>
<!-- Node2 -->
<g id="node2" class="node">
<title>Node2</title>
<g id="a_node2"><a xlink:title=" ">
<polygon fill="none" stroke="#bfbfbf" points="0,-375 0,-394 84,-394 84,-375 0,-375"/>
<text text-anchor="middle" x="42" y="-382" font-family="Helvetica,sans-Serif" font-size="10.00">imgui/imgui.h</text>
</a>
</g>
</g>
<!-- Node1&#45;&gt;Node2 -->
<g id="edge1" class="edge">
<title>Node1&#45;&gt;Node2</title>
<path fill="none" stroke="midnightblue" d="M96.81,-436.4C85.68,-426.06 70.56,-412.02 59.03,-401.31"/>
<polygon fill="midnightblue" stroke="midnightblue" points="61.07,-398.43 51.36,-394.19 56.31,-403.56 61.07,-398.43"/>
</g>
<!-- Node3 -->
<g id="node3" class="node">
<title>Node3</title>
<g id="a_node3"><a xlink:href="window_8hpp.html" target="_top" xlink:title=" ">
<polygon fill="none" stroke="black" points="54.5,-257.5 54.5,-276.5 137.5,-276.5 137.5,-257.5 54.5,-257.5"/>
<text text-anchor="middle" x="96" y="-264.5" font-family="Helvetica,sans-Serif" font-size="10.00">../window.hpp</text>
</a>
</g>
</g>
<!-- Node1&#45;&gt;Node3 -->
<g id="edge2" class="edge">
<title>Node1&#45;&gt;Node3</title>
<path fill="none" stroke="midnightblue" d="M110.77,-436.48C107.93,-404.1 100.91,-324.04 97.68,-287.16"/>
<polygon fill="midnightblue" stroke="midnightblue" points="101.13,-286.47 96.77,-276.82 94.16,-287.09 101.13,-286.47"/>
</g>
<!-- Node5 -->
<g id="node5" class="node">
<title>Node5</title>
<g id="a_node5"><a xlink:href="core_8hpp.html" target="_top" xlink:title="This file defines a class that represents a CPU core (arm1176jzf_s).">
<polygon fill="none" stroke="black" points="366,-369.5 366,-399.5 480,-399.5 480,-369.5 366,-369.5"/>
<text text-anchor="start" x="374" y="-387.5" font-family="Helvetica,sans-Serif" font-size="10.00">../../core/arm1176jzf</text>
<text text-anchor="middle" x="423" y="-376.5" font-family="Helvetica,sans-Serif" font-size="10.00">_s/core.hpp</text>
</a>
</g>
</g>
<!-- Node1&#45;&gt;Node5 -->
<g id="edge4" class="edge">
<title>Node1&#45;&gt;Node5</title>
<path fill="none" stroke="midnightblue" d="M179.1,-436.48C231.44,-425.54 303.79,-410.42 356.08,-399.49"/>
<polygon fill="midnightblue" stroke="midnightblue" points="356.86,-402.9 365.93,-397.43 355.42,-396.05 356.86,-402.9"/>
</g>
<!-- Node4 -->
<g id="node4" class="node">
<title>Node4</title>
<g id="a_node4"><a xlink:title=" ">
<polygon fill="none" stroke="#bfbfbf" points="79,-0.5 79,-19.5 137,-19.5 137,-0.5 79,-0.5"/>
<text text-anchor="middle" x="108" y="-7.5" font-family="Helvetica,sans-Serif" font-size="10.00">memory</text>
</a>
</g>
</g>
<!-- Node3&#45;&gt;Node4 -->
<g id="edge3" class="edge">
<title>Node3&#45;&gt;Node4</title>
<path fill="none" stroke="midnightblue" d="M96.41,-257.22C98.13,-220.82 104.69,-81.27 107.11,-30.02"/>
<polygon fill="midnightblue" stroke="midnightblue" points="110.61,-29.89 107.59,-19.74 103.62,-29.57 110.61,-29.89"/>
</g>
<!-- Node6 -->
<g id="node6" class="node">
<title>Node6</title>
<g id="a_node6"><a xlink:href="context_8hpp.html" target="_top" xlink:title="This file defines the context (registers) of the CPU.">
<polygon fill="none" stroke="black" points="194,-129 194,-148 268,-148 268,-129 194,-129"/>
<text text-anchor="middle" x="231" y="-136" font-family="Helvetica,sans-Serif" font-size="10.00">context.hpp</text>
</a>
</g>
</g>
<!-- Node5&#45;&gt;Node6 -->
<g id="edge5" class="edge">
<title>Node5&#45;&gt;Node6</title>
<path fill="none" stroke="midnightblue" d="M379.15,-369.44C338.69,-353.88 280.93,-324.52 254,-277 232.49,-239.04 229.87,-186.37 230.2,-158.52"/>
<polygon fill="midnightblue" stroke="midnightblue" points="233.71,-158.31 230.48,-148.22 226.71,-158.12 233.71,-158.31"/>
</g>
<!-- Node7 -->
<g id="node7" class="node">
<title>Node7</title>
<g id="a_node7"><a xlink:href="logger_8hpp.html" target="_top" xlink:title=" ">
<polygon fill="none" stroke="black" points="229,-62 229,-81 363,-81 363,-62 229,-62"/>
<text text-anchor="middle" x="296" y="-69" font-family="Helvetica,sans-Serif" font-size="10.00">../utils/logger/logger.hpp</text>
</a>
</g>
</g>
<!-- Node5&#45;&gt;Node7 -->
<g id="edge71" class="edge">
<title>Node5&#45;&gt;Node7</title>
<path fill="none" stroke="midnightblue" d="M365.96,-382.12C290.25,-376.9 166,-355.07 166,-268 166,-268 166,-268 166,-204.5 166,-167.31 161.43,-151.77 185,-123 200.66,-103.88 225.12,-91.7 247.09,-84.1"/>
<polygon fill="midnightblue" stroke="midnightblue" points="248.21,-87.42 256.65,-81.02 246.06,-80.76 248.21,-87.42"/>
</g>
<!-- Node13 -->
<g id="node13" class="node">
<title>Node13</title>
<g id="a_node13"><a xlink:href="exceptions_8hpp.html" target="_top" xlink:title="This file defines all exceptions that can be thrown by the CPU during execution.">
<polygon fill="none" stroke="black" points="263.5,-257.5 263.5,-276.5 354.5,-276.5 354.5,-257.5 263.5,-257.5"/>
<text text-anchor="middle" x="309" y="-264.5" font-family="Helvetica,sans-Serif" font-size="10.00">exceptions.hpp</text>
</a>
</g>
</g>
<!-- Node5&#45;&gt;Node13 -->
<g id="edge13" class="edge">
<title>Node5&#45;&gt;Node13</title>
<path fill="none" stroke="midnightblue" d="M380.15,-369.37C361.75,-361.33 341.44,-349.51 328,-333 317.22,-319.76 312.56,-300.63 310.54,-286.55"/>
<polygon fill="midnightblue" stroke="midnightblue" points="314.01,-286.1 309.42,-276.55 307.05,-286.88 314.01,-286.1"/>
</g>
<!-- Node15 -->
<g id="node15" class="node">
<title>Node15</title>
<g id="a_node15"><a xlink:href="isa_8hpp.html" target="_top" xlink:title=" ">
<polygon fill="none" stroke="black" points="1771.5,-196 1771.5,-215 1840.5,-215 1840.5,-196 1771.5,-196"/>
<text text-anchor="middle" x="1806" y="-203" font-family="Helvetica,sans-Serif" font-size="10.00">isa/isa.hpp</text>
</a>
</g>
</g>
<!-- Node5&#45;&gt;Node15 -->
<g id="edge16" class="edge">
<title>Node5&#45;&gt;Node15</title>
<path fill="none" stroke="midnightblue" d="M480.23,-376.18C709.21,-346.87 1556.85,-238.39 1761.38,-212.21"/>
<polygon fill="midnightblue" stroke="midnightblue" points="1761.98,-215.66 1771.46,-210.92 1761.09,-208.72 1761.98,-215.66"/>
</g>
<!-- Node34 -->
<g id="node34" class="node">
<title>Node34</title>
<g id="a_node34"><a xlink:href="isa__decoder_8hpp.html" target="_top" xlink:title=" ">
<polygon fill="none" stroke="black" points="773.5,-196 773.5,-215 886.5,-215 886.5,-196 773.5,-196"/>
<text text-anchor="middle" x="830" y="-203" font-family="Helvetica,sans-Serif" font-size="10.00">isa/isa_decoder.hpp</text>
</a>
</g>
</g>
<!-- Node5&#45;&gt;Node34 -->
<g id="edge52" class="edge">
<title>Node5&#45;&gt;Node34</title>
<path fill="none" stroke="midnightblue" d="M480.27,-380.91C564.05,-376.12 714.89,-363.46 759,-333 797.06,-306.73 817.05,-253.06 825.31,-224.82"/>
<polygon fill="midnightblue" stroke="midnightblue" points="828.72,-225.6 827.99,-215.04 821.97,-223.75 828.72,-225.6"/>
</g>
<!-- Node36 -->
<g id="node36" class="node">
<title>Node36</title>
<g id="a_node36"><a xlink:href="bus_8hpp.html" target="_top" xlink:title="This file defines an interface the CPU uses to access different memory&#45;mapped peripherals.">
<polygon fill="none" stroke="black" points="489,-313.5 489,-332.5 553,-332.5 553,-313.5 489,-313.5"/>
<text text-anchor="middle" x="521" y="-320.5" font-family="Helvetica,sans-Serif" font-size="10.00">../bus.hpp</text>
</a>
</g>
</g>
<!-- Node5&#45;&gt;Node36 -->
<g id="edge56" class="edge">
<title>Node5&#45;&gt;Node36</title>
<path fill="none" stroke="midnightblue" d="M446.22,-369.4C461.79,-359.95 482.2,-347.56 497.76,-338.11"/>
<polygon fill="midnightblue" stroke="midnightblue" points="500.01,-340.84 506.74,-332.66 496.38,-334.86 500.01,-340.84"/>
</g>
<!-- Node41 -->
<g id="node41" class="node">
<title>Node41</title>
<g id="a_node41"><a xlink:href="math_8hpp.html" target="_top" xlink:title="This file defines and implements a variety of handy helper functions that are used throughout the pro...">
<polygon fill="none" stroke="black" points="337,-313.5 337,-332.5 433,-332.5 433,-313.5 337,-313.5"/>
<text text-anchor="middle" x="385" y="-320.5" font-family="Helvetica,sans-Serif" font-size="10.00">../utils/math.hpp</text>
</a>
</g>
</g>
<!-- Node5&#45;&gt;Node41 -->
<g id="edge70" class="edge">
<title>Node5&#45;&gt;Node41</title>
<path fill="none" stroke="midnightblue" d="M413.99,-369.4C408.59,-360.93 401.67,-350.1 395.95,-341.14"/>
<polygon fill="midnightblue" stroke="midnightblue" points="398.86,-339.2 390.53,-332.66 392.96,-342.97 398.86,-339.2"/>
</g>
<!-- Node42 -->
<g id="node42" class="node">
<title>Node42</title>
<g id="a_node42"><a xlink:href="interrupt__controller_8hpp.html" target="_top" xlink:title=" ">
<polygon fill="none" stroke="black" points="367.5,-190.5 367.5,-220.5 492.5,-220.5 492.5,-190.5 367.5,-190.5"/>
<text text-anchor="start" x="375.5" y="-208.5" font-family="Helvetica,sans-Serif" font-size="10.00">../peripherals/interrupt</text>
<text text-anchor="middle" x="430" y="-197.5" font-family="Helvetica,sans-Serif" font-size="10.00">_controller.hpp</text>
</a>
</g>
</g>
<!-- Node5&#45;&gt;Node42 -->
<g id="edge72" class="edge">
<title>Node5&#45;&gt;Node42</title>
<path fill="none" stroke="midnightblue" d="M429.91,-369.31C434.35,-359.4 439.69,-345.72 442,-333 448.43,-297.68 441.83,-256.14 436.17,-230.57"/>
<polygon fill="midnightblue" stroke="midnightblue" points="439.54,-229.58 433.85,-220.65 432.72,-231.18 439.54,-229.58"/>
</g>
<!-- Node43 -->
<g id="node43" class="node">
<title>Node43</title>
<g id="a_node43"><a xlink:href="system__clock__listener_8hpp.html" target="_top" xlink:title=" ">
<polygon fill="none" stroke="black" points="635.5,-56.5 635.5,-86.5 754.5,-86.5 754.5,-56.5 635.5,-56.5"/>
<text text-anchor="start" x="643.5" y="-74.5" font-family="Helvetica,sans-Serif" font-size="10.00">../peripherals/system</text>
<text text-anchor="middle" x="695" y="-63.5" font-family="Helvetica,sans-Serif" font-size="10.00">_clock_listener.hpp</text>
</a>
</g>
</g>
<!-- Node5&#45;&gt;Node43 -->
<g id="edge78" class="edge">
<title>Node5&#45;&gt;Node43</title>
<path fill="none" stroke="midnightblue" d="M480.2,-375.01C572.73,-359.66 745,-323.6 745,-268 745,-268 745,-268 745,-204.5 745,-164.12 724.29,-121.04 709.53,-95.46"/>
<polygon fill="midnightblue" stroke="midnightblue" points="712.53,-93.67 704.4,-86.87 706.52,-97.25 712.53,-93.67"/>
</g>
<!-- Node6&#45;&gt;Node7 -->
<g id="edge6" class="edge">
<title>Node6&#45;&gt;Node7</title>
<path fill="none" stroke="midnightblue" d="M239.77,-128.73C250.1,-118.4 267.46,-101.04 280.17,-88.33"/>
<polygon fill="midnightblue" stroke="midnightblue" points="282.78,-90.67 287.37,-81.13 277.83,-85.72 282.78,-90.67"/>
</g>
<!-- Node7&#45;&gt;Node4 -->
<g id="edge9" class="edge">
<title>Node7&#45;&gt;Node4</title>
<path fill="none" stroke="midnightblue" d="M269.06,-61.98C236.4,-51.64 181.18,-34.16 144.66,-22.6"/>
<polygon fill="midnightblue" stroke="midnightblue" points="145.48,-19.19 134.89,-19.51 143.36,-25.86 145.48,-19.19"/>
</g>
<!-- Node8 -->
<g id="node8" class="node">
<title>Node8</title>
<g id="a_node8"><a xlink:title=" ">
<polygon fill="none" stroke="#bfbfbf" points="272,-0.5 272,-19.5 320,-19.5 320,-0.5 272,-0.5"/>
<text text-anchor="middle" x="296" y="-7.5" font-family="Helvetica,sans-Serif" font-size="10.00">mutex</text>
</a>
</g>
</g>
<!-- Node7&#45;&gt;Node8 -->
<g id="edge7" class="edge">
<title>Node7&#45;&gt;Node8</title>
<path fill="none" stroke="midnightblue" d="M296,-61.98C296,-53.58 296,-40.48 296,-29.66"/>
<polygon fill="midnightblue" stroke="midnightblue" points="299.5,-29.51 296,-19.51 292.5,-29.51 299.5,-29.51"/>
</g>
<!-- Node9 -->
<g id="node9" class="node">
<title>Node9</title>
<g id="a_node9"><a xlink:title=" ">
<polygon fill="none" stroke="#bfbfbf" points="487.5,-0.5 487.5,-19.5 534.5,-19.5 534.5,-0.5 487.5,-0.5"/>
<text text-anchor="middle" x="511" y="-7.5" font-family="Helvetica,sans-Serif" font-size="10.00">vector</text>
</a>
</g>
</g>
<!-- Node7&#45;&gt;Node9 -->
<g id="edge8" class="edge">
<title>Node7&#45;&gt;Node9</title>
<path fill="none" stroke="midnightblue" d="M326.8,-61.98C366.73,-50.93 436.11,-31.73 477.37,-20.31"/>
<polygon fill="midnightblue" stroke="midnightblue" points="478.52,-23.62 487.22,-17.58 476.65,-16.88 478.52,-23.62"/>
</g>
<!-- Node10 -->
<g id="node10" class="node">
<title>Node10</title>
<g id="a_node10"><a xlink:title=" ">
<polygon fill="none" stroke="#bfbfbf" points="670,-0.5 670,-19.5 720,-19.5 720,-0.5 670,-0.5"/>
<text text-anchor="middle" x="695" y="-7.5" font-family="Helvetica,sans-Serif" font-size="10.00">cstdint</text>
</a>
</g>
</g>
<!-- Node7&#45;&gt;Node10 -->
<g id="edge10" class="edge">
<title>Node7&#45;&gt;Node10</title>
<path fill="none" stroke="midnightblue" d="M353.17,-61.98C437,-49.47 590.79,-26.54 659.82,-16.25"/>
<polygon fill="midnightblue" stroke="midnightblue" points="660.39,-19.7 669.76,-14.76 659.36,-12.78 660.39,-19.7"/>
</g>
<!-- Node11 -->
<g id="node11" class="node">
<title>Node11</title>
<g id="a_node11"><a xlink:title=" ">
<polygon fill="none" stroke="#bfbfbf" points="338.5,-0.5 338.5,-19.5 411.5,-19.5 411.5,-0.5 338.5,-0.5"/>
<text text-anchor="middle" x="375" y="-7.5" font-family="Helvetica,sans-Serif" font-size="10.00">string_view</text>
</a>
</g>
</g>
<!-- Node7&#45;&gt;Node11 -->
<g id="edge11" class="edge">
<title>Node7&#45;&gt;Node11</title>
<path fill="none" stroke="midnightblue" d="M307.32,-61.98C319.87,-52.52 340.35,-37.1 355.5,-25.69"/>
<polygon fill="midnightblue" stroke="midnightblue" points="357.82,-28.32 363.7,-19.51 353.61,-22.73 357.82,-28.32"/>
</g>
<!-- Node12 -->
<g id="node12" class="node">
<title>Node12</title>
<g id="a_node12"><a xlink:title=" ">
<polygon fill="none" stroke="#bfbfbf" points="160.5,-0.5 160.5,-19.5 253.5,-19.5 253.5,-0.5 160.5,-0.5"/>
<text text-anchor="middle" x="207" y="-7.5" font-family="Helvetica,sans-Serif" font-size="10.00">source_location</text>
</a>
</g>
</g>
<!-- Node7&#45;&gt;Node12 -->
<g id="edge12" class="edge">
<title>Node7&#45;&gt;Node12</title>
<path fill="none" stroke="midnightblue" d="M283.25,-61.98C268.97,-52.43 245.6,-36.81 228.49,-25.37"/>
<polygon fill="midnightblue" stroke="midnightblue" points="229.99,-22.16 219.73,-19.51 226.1,-27.98 229.99,-22.16"/>
</g>
<!-- Node13&#45;&gt;Node6 -->
<g id="edge15" class="edge">
<title>Node13&#45;&gt;Node6</title>
<path fill="none" stroke="midnightblue" d="M296.84,-257.25C286.11,-248.97 270.72,-235.66 261,-221 248.02,-201.41 239.73,-175.46 235.22,-158.16"/>
<polygon fill="midnightblue" stroke="midnightblue" points="238.56,-157.09 232.8,-148.2 231.76,-158.74 238.56,-157.09"/>
</g>
<!-- Node14 -->
<g id="node14" class="node">
<title>Node14</title>
<g id="a_node14"><a xlink:title=" ">
<polygon fill="none" stroke="#bfbfbf" points="270.5,-196 270.5,-215 349.5,-215 349.5,-196 270.5,-196"/>
<text text-anchor="middle" x="310" y="-203" font-family="Helvetica,sans-Serif" font-size="10.00">fmt/format.h</text>
</a>
</g>
</g>
<!-- Node13&#45;&gt;Node14 -->
<g id="edge14" class="edge">
<title>Node13&#45;&gt;Node14</title>
<path fill="none" stroke="midnightblue" d="M309.14,-257.48C309.28,-249.08 309.5,-235.98 309.69,-225.16"/>
<polygon fill="midnightblue" stroke="midnightblue" points="313.19,-225.07 309.86,-215.01 306.19,-224.95 313.19,-225.07"/>
</g>
<!-- Node16 -->
<g id="node16" class="node">
<title>Node16</title>
<g id="a_node16"><a xlink:href="instruction_8hpp.html" target="_top" xlink:title="This file defines the interface of a general ARM instruction.">
<polygon fill="none" stroke="black" points="1761.5,-62 1761.5,-81 1850.5,-81 1850.5,-62 1761.5,-62"/>
<text text-anchor="middle" x="1806" y="-69" font-family="Helvetica,sans-Serif" font-size="10.00">instruction.hpp</text>
</a>
</g>
</g>
<!-- Node15&#45;&gt;Node16 -->
<g id="edge17" class="edge">
<title>Node15&#45;&gt;Node16</title>
<path fill="none" stroke="midnightblue" d="M1806,-195.84C1806,-174.67 1806,-119.95 1806,-91.03"/>
<polygon fill="midnightblue" stroke="midnightblue" points="1809.5,-91.02 1806,-81.02 1802.5,-91.02 1809.5,-91.02"/>
</g>
<!-- Node17 -->
<g id="node17" class="node">
<title>Node17</title>
<g id="a_node17"><a xlink:href="branch__and__exchange_8hpp.html" target="_top" xlink:title=" ">
<polygon fill="none" stroke="black" points="1834,-129 1834,-148 1980,-148 1980,-129 1834,-129"/>
<text text-anchor="middle" x="1907" y="-136" font-family="Helvetica,sans-Serif" font-size="10.00">branch_and_exchange.hpp</text>
</a>
</g>
</g>
<!-- Node15&#45;&gt;Node17 -->
<g id="edge18" class="edge">
<title>Node15&#45;&gt;Node17</title>
<path fill="none" stroke="midnightblue" d="M1819.62,-195.73C1836.43,-184.92 1865.23,-166.38 1885.14,-153.57"/>
<polygon fill="midnightblue" stroke="midnightblue" points="1887.08,-156.48 1893.59,-148.13 1883.29,-150.6 1887.08,-156.48"/>
</g>
<!-- Node18 -->
<g id="node18" class="node">
<title>Node18</title>
<g id="a_node18"><a xlink:href="branch_8hpp.html" target="_top" xlink:title=" ">
<polygon fill="none" stroke="black" points="1998.5,-129 1998.5,-148 2069.5,-148 2069.5,-129 1998.5,-129"/>
<text text-anchor="middle" x="2034" y="-136" font-family="Helvetica,sans-Serif" font-size="10.00">branch.hpp</text>
</a>
</g>
</g>
<!-- Node15&#45;&gt;Node18 -->
<g id="edge20" class="edge">
<title>Node15&#45;&gt;Node18</title>
<path fill="none" stroke="midnightblue" d="M1838.51,-195.97C1875.2,-186.25 1936.58,-169.67 1989,-154 1991.97,-153.11 1995.05,-152.17 1998.13,-151.21"/>
<polygon fill="midnightblue" stroke="midnightblue" points="1999.41,-154.48 2007.88,-148.12 1997.29,-147.8 1999.41,-154.48"/>
</g>
<!-- Node19 -->
<g id="node19" class="node">
<title>Node19</title>
<g id="a_node19"><a xlink:href="data__processing_8hpp.html" target="_top" xlink:title=" ">
<polygon fill="none" stroke="black" points="2087.5,-129 2087.5,-148 2204.5,-148 2204.5,-129 2087.5,-129"/>
<text text-anchor="middle" x="2146" y="-136" font-family="Helvetica,sans-Serif" font-size="10.00">data_processing.hpp</text>
</a>
</g>
</g>
<!-- Node15&#45;&gt;Node19 -->
<g id="edge22" class="edge">
<title>Node15&#45;&gt;Node19</title>
<path fill="none" stroke="midnightblue" d="M1840.54,-198.46C1892.41,-189.3 1993.46,-171.16 2079,-154 2084.91,-152.82 2091.09,-151.53 2097.22,-150.24"/>
<polygon fill="midnightblue" stroke="midnightblue" points="2098.38,-153.57 2107.42,-148.06 2096.91,-146.72 2098.38,-153.57"/>
</g>
<!-- Node20 -->
<g id="node20" class="node">
<title>Node20</title>
<g id="a_node20"><a xlink:href="multiply_8hpp.html" target="_top" xlink:title=" ">
<polygon fill="none" stroke="black" points="2222.5,-129 2222.5,-148 2299.5,-148 2299.5,-129 2222.5,-129"/>
<text text-anchor="middle" x="2261" y="-136" font-family="Helvetica,sans-Serif" font-size="10.00">multiply.hpp</text>
</a>
</g>
</g>
<!-- Node15&#45;&gt;Node20 -->
<g id="edge24" class="edge">
<title>Node15&#45;&gt;Node20</title>
<path fill="none" stroke="midnightblue" d="M1840.73,-202.27C1911.57,-197.28 2077.56,-183.25 2214,-154 2218.13,-153.11 2222.42,-152.03 2226.66,-150.85"/>
<polygon fill="midnightblue" stroke="midnightblue" points="2227.73,-154.19 2236.34,-148 2225.75,-147.47 2227.73,-154.19"/>
</g>
<!-- Node21 -->
<g id="node21" class="node">
<title>Node21</title>
<g id="a_node21"><a xlink:href="multiply__long_8hpp.html" target="_top" xlink:title=" ">
<polygon fill="none" stroke="black" points="2318,-129 2318,-148 2422,-148 2422,-129 2318,-129"/>
<text text-anchor="middle" x="2370" y="-136" font-family="Helvetica,sans-Serif" font-size="10.00">multiply_long.hpp</text>
</a>
</g>
</g>
<!-- Node15&#45;&gt;Node21 -->
<g id="edge26" class="edge">
<title>Node15&#45;&gt;Node21</title>
<path fill="none" stroke="midnightblue" d="M1840.67,-202.62C1922.59,-197.82 2134.39,-183.38 2309,-154 2314.98,-152.99 2321.25,-151.74 2327.4,-150.39"/>
<polygon fill="midnightblue" stroke="midnightblue" points="2328.59,-153.71 2337.56,-148.06 2327.03,-146.88 2328.59,-153.71"/>
</g>
<!-- Node22 -->
<g id="node22" class="node">
<title>Node22</title>
<g id="a_node22"><a xlink:href="single__data__transfer_8hpp.html" target="_top" xlink:title=" ">
<polygon fill="none" stroke="black" points="2440.5,-129 2440.5,-148 2577.5,-148 2577.5,-129 2440.5,-129"/>
<text text-anchor="middle" x="2509" y="-136" font-family="Helvetica,sans-Serif" font-size="10.00">single_data_transfer.hpp</text>
</a>
</g>
</g>
<!-- Node15&#45;&gt;Node22 -->
<g id="edge28" class="edge">
<title>Node15&#45;&gt;Node22</title>
<path fill="none" stroke="midnightblue" d="M1840.69,-202.96C1935.54,-198.46 2207.09,-183.78 2431,-154 2439.54,-152.86 2448.56,-151.42 2457.32,-149.88"/>
<polygon fill="midnightblue" stroke="midnightblue" points="2458.22,-153.28 2467.43,-148.05 2456.97,-146.39 2458.22,-153.28"/>
</g>
<!-- Node23 -->
<g id="node23" class="node">
<title>Node23</title>
<g id="a_node23"><a xlink:href="block__data__transfer_8hpp.html" target="_top" xlink:title=" ">
<polygon fill="none" stroke="black" points="2596,-129 2596,-148 2730,-148 2730,-129 2596,-129"/>
<text text-anchor="middle" x="2663" y="-136" font-family="Helvetica,sans-Serif" font-size="10.00">block_data_transfer.hpp</text>
</a>
</g>
</g>
<!-- Node15&#45;&gt;Node23 -->
<g id="edge30" class="edge">
<title>Node15&#45;&gt;Node23</title>
<path fill="none" stroke="midnightblue" d="M1840.79,-203.79C1950.71,-201.21 2300.24,-190.48 2587,-154 2595.52,-152.92 2604.53,-151.47 2613.25,-149.91"/>
<polygon fill="midnightblue" stroke="midnightblue" points="2614.12,-153.3 2623.31,-148.03 2612.84,-146.42 2614.12,-153.3"/>
</g>
<!-- Node24 -->
<g id="node24" class="node">
<title>Node24</title>
<g id="a_node24"><a xlink:href="halfword__data__transfer_8hpp.html" target="_top" xlink:title=" ">
<polygon fill="none" stroke="black" points="2748.5,-129 2748.5,-148 2897.5,-148 2897.5,-129 2748.5,-129"/>
<text text-anchor="middle" x="2823" y="-136" font-family="Helvetica,sans-Serif" font-size="10.00">halfword_data_transfer.hpp</text>
</a>
</g>
</g>
<!-- Node15&#45;&gt;Node24 -->
<g id="edge32" class="edge">
<title>Node15&#45;&gt;Node24</title>
<path fill="none" stroke="midnightblue" d="M1840.86,-204.08C1964.01,-202.29 2390.02,-193.43 2739,-154 2748.71,-152.9 2759.01,-151.41 2768.93,-149.79"/>
<polygon fill="midnightblue" stroke="midnightblue" points="2769.83,-153.19 2779.11,-148.07 2768.66,-146.29 2769.83,-153.19"/>
</g>
<!-- Node25 -->
<g id="node25" class="node">
<title>Node25</title>
<g id="a_node25"><a xlink:href="extend_8hpp.html" target="_top" xlink:title=" ">
<polygon fill="none" stroke="black" points="2915.5,-129 2915.5,-148 2986.5,-148 2986.5,-129 2915.5,-129"/>
<text text-anchor="middle" x="2951" y="-136" font-family="Helvetica,sans-Serif" font-size="10.00">extend.hpp</text>
</a>
</g>
</g>
<!-- Node15&#45;&gt;Node25 -->
<g id="edge34" class="edge">
<title>Node15&#45;&gt;Node25</title>
<path fill="none" stroke="midnightblue" d="M1840.67,-204.18C2003.7,-202.47 2695.06,-193.02 2907,-154 2910.98,-153.27 2915.09,-152.26 2919.14,-151.12"/>
<polygon fill="midnightblue" stroke="midnightblue" points="2920.41,-154.39 2928.92,-148.08 2918.33,-147.71 2920.41,-154.39"/>
</g>
<!-- Node26 -->
<g id="node26" class="node">
<title>Node26</title>
<g id="a_node26"><a xlink:href="psr__transfer_8hpp.html" target="_top" xlink:title=" ">
<polygon fill="none" stroke="black" points="1401.5,-129 1401.5,-148 1496.5,-148 1496.5,-129 1401.5,-129"/>
<text text-anchor="middle" x="1449" y="-136" font-family="Helvetica,sans-Serif" font-size="10.00">psr_transfer.hpp</text>
</a>
</g>
</g>
<!-- Node15&#45;&gt;Node26 -->
<g id="edge36" class="edge">
<title>Node15&#45;&gt;Node26</title>
<path fill="none" stroke="midnightblue" d="M1771.18,-199.59C1715.08,-191.47 1601.35,-174.12 1506,-154 1500.95,-152.93 1495.67,-151.72 1490.44,-150.47"/>
<polygon fill="midnightblue" stroke="midnightblue" points="1491.1,-147.02 1480.55,-148.02 1489.42,-153.82 1491.1,-147.02"/>
</g>
<!-- Node27 -->
<g id="node27" class="node">
<title>Node27</title>
<g id="a_node27"><a xlink:href="cps_8hpp.html" target="_top" xlink:title=" ">
<polygon fill="none" stroke="black" points="1515,-129 1515,-148 1569,-148 1569,-129 1515,-129"/>
<text text-anchor="middle" x="1542" y="-136" font-family="Helvetica,sans-Serif" font-size="10.00">cps.hpp</text>
</a>
</g>
</g>
<!-- Node15&#45;&gt;Node27 -->
<g id="edge38" class="edge">
<title>Node15&#45;&gt;Node27</title>
<path fill="none" stroke="midnightblue" d="M1771.16,-198.63C1726.03,-190.61 1645.19,-174.82 1578,-154 1575.72,-153.29 1573.38,-152.5 1571.04,-151.67"/>
<polygon fill="midnightblue" stroke="midnightblue" points="1572.19,-148.36 1561.59,-148.07 1569.69,-154.9 1572.19,-148.36"/>
</g>
<!-- Node28 -->
<g id="node28" class="node">
<title>Node28</title>
<g id="a_node28"><a xlink:href="coprocessor__register__transfer_8hpp.html" target="_top" xlink:title=" ">
<polygon fill="none" stroke="black" points="1081,-123.5 1081,-153.5 1199,-153.5 1199,-123.5 1081,-123.5"/>
<text text-anchor="start" x="1089" y="-141.5" font-family="Helvetica,sans-Serif" font-size="10.00">coprocessor_register</text>
<text text-anchor="middle" x="1140" y="-130.5" font-family="Helvetica,sans-Serif" font-size="10.00">_transfer.hpp</text>
</a>
</g>
</g>
<!-- Node15&#45;&gt;Node28 -->
<g id="edge40" class="edge">
<title>Node15&#45;&gt;Node28</title>
<path fill="none" stroke="midnightblue" d="M1771.44,-203.1C1680.8,-199.12 1428.61,-185.96 1209.34,-154.08"/>
<polygon fill="midnightblue" stroke="midnightblue" points="1209.66,-150.59 1199.26,-152.59 1208.64,-157.51 1209.66,-150.59"/>
</g>
<!-- Node29 -->
<g id="node29" class="node">
<title>Node29</title>
<g id="a_node29"><a xlink:href="coprocessor__data__transfer_8hpp.html" target="_top" xlink:title=" ">
<polygon fill="none" stroke="black" points="1217,-129 1217,-148 1383,-148 1383,-129 1217,-129"/>
<text text-anchor="middle" x="1300" y="-136" font-family="Helvetica,sans-Serif" font-size="10.00">coprocessor_data_transfer.hpp</text>
</a>
</g>
</g>
<!-- Node15&#45;&gt;Node29 -->
<g id="edge42" class="edge">
<title>Node15&#45;&gt;Node29</title>
<path fill="none" stroke="midnightblue" d="M1771.41,-200.66C1700.4,-192.69 1533.05,-173.48 1393,-154 1383.17,-152.63 1372.76,-151.1 1362.62,-149.55"/>
<polygon fill="midnightblue" stroke="midnightblue" points="1363,-146.07 1352.58,-148.01 1361.93,-152.99 1363,-146.07"/>
</g>
<!-- Node30 -->
<g id="node30" class="node">
<title>Node30</title>
<g id="a_node30"><a xlink:href="coprocessor__data__operation_8hpp.html" target="_top" xlink:title=" ">
<polygon fill="none" stroke="black" points="887.5,-129 887.5,-148 1062.5,-148 1062.5,-129 887.5,-129"/>
<text text-anchor="middle" x="975" y="-136" font-family="Helvetica,sans-Serif" font-size="10.00">coprocessor_data_operation.hpp</text>
</a>
</g>
</g>
<!-- Node15&#45;&gt;Node30 -->
<g id="edge44" class="edge">
<title>Node15&#45;&gt;Node30</title>
<path fill="none" stroke="midnightblue" d="M1771.15,-203.09C1665.6,-198.61 1340.25,-183.23 1072,-154 1060.61,-152.76 1048.51,-151.17 1036.85,-149.5"/>
<polygon fill="midnightblue" stroke="midnightblue" points="1037.15,-146.01 1026.75,-148.02 1036.14,-152.93 1037.15,-146.01"/>
</g>
<!-- Node31 -->
<g id="node31" class="node">
<title>Node31</title>
<g id="a_node31"><a xlink:href="srs_8hpp.html" target="_top" xlink:title=" ">
<polygon fill="none" stroke="black" points="1587,-129 1587,-148 1639,-148 1639,-129 1587,-129"/>
<text text-anchor="middle" x="1613" y="-136" font-family="Helvetica,sans-Serif" font-size="10.00">srs.hpp</text>
</a>
</g>
</g>
<!-- Node15&#45;&gt;Node31 -->
<g id="edge46" class="edge">
<title>Node15&#45;&gt;Node31</title>
<path fill="none" stroke="midnightblue" d="M1777.43,-195.98C1745.81,-186.4 1693.43,-170.07 1649,-154 1647.1,-153.31 1645.15,-152.59 1643.19,-151.84"/>
<polygon fill="midnightblue" stroke="midnightblue" points="1644.05,-148.42 1633.46,-148.04 1641.5,-154.94 1644.05,-148.42"/>
</g>
<!-- Node32 -->
<g id="node32" class="node">
<title>Node32</title>
<g id="a_node32"><a xlink:href="rfe_8hpp.html" target="_top" xlink:title=" ">
<polygon fill="none" stroke="black" points="1657.5,-129 1657.5,-148 1708.5,-148 1708.5,-129 1657.5,-129"/>
<text text-anchor="middle" x="1683" y="-136" font-family="Helvetica,sans-Serif" font-size="10.00">rfe.hpp</text>
</a>
</g>
</g>
<!-- Node15&#45;&gt;Node32 -->
<g id="edge48" class="edge">
<title>Node15&#45;&gt;Node32</title>
<path fill="none" stroke="midnightblue" d="M1789.67,-195.87C1768.9,-184.89 1732.81,-165.82 1708.43,-152.94"/>
<polygon fill="midnightblue" stroke="midnightblue" points="1709.88,-149.75 1699.4,-148.17 1706.61,-155.93 1709.88,-149.75"/>
</g>
<!-- Node33 -->
<g id="node33" class="node">
<title>Node33</title>
<g id="a_node33"><a xlink:href="clz_8hpp.html" target="_top" xlink:title=" ">
<polygon fill="none" stroke="black" points="1726.5,-129 1726.5,-148 1777.5,-148 1777.5,-129 1726.5,-129"/>
<text text-anchor="middle" x="1752" y="-136" font-family="Helvetica,sans-Serif" font-size="10.00">clz.hpp</text>
</a>
</g>
</g>
<!-- Node15&#45;&gt;Node33 -->
<g id="edge50" class="edge">
<title>Node15&#45;&gt;Node33</title>
<path fill="none" stroke="midnightblue" d="M1798.72,-195.73C1790.3,-185.6 1776.25,-168.69 1765.75,-156.06"/>
<polygon fill="midnightblue" stroke="midnightblue" points="1768.25,-153.58 1759.17,-148.13 1762.87,-158.06 1768.25,-153.58"/>
</g>
<!-- Node17&#45;&gt;Node16 -->
<g id="edge19" class="edge">
<title>Node17&#45;&gt;Node16</title>
<path fill="none" stroke="midnightblue" d="M1893.38,-128.73C1876.57,-117.92 1847.77,-99.38 1827.86,-86.57"/>
<polygon fill="midnightblue" stroke="midnightblue" points="1829.71,-83.6 1819.41,-81.13 1825.92,-89.48 1829.71,-83.6"/>
</g>
<!-- Node18&#45;&gt;Node16 -->
<g id="edge21" class="edge">
<title>Node18&#45;&gt;Node16</title>
<path fill="none" stroke="midnightblue" d="M2007.88,-128.88C2001.71,-126.9 1995.13,-124.83 1989,-123 1941.09,-108.68 1885.68,-93.59 1848.5,-83.68"/>
<polygon fill="midnightblue" stroke="midnightblue" points="1849.08,-80.21 1838.51,-81.03 1847.28,-86.98 1849.08,-80.21"/>
</g>
<!-- Node19&#45;&gt;Node16 -->
<g id="edge23" class="edge">
<title>Node19&#45;&gt;Node16</title>
<path fill="none" stroke="midnightblue" d="M2107.42,-128.94C2098.13,-126.94 2088.22,-124.85 2079,-123 2003.37,-107.82 1915.61,-91.89 1860.44,-82.07"/>
<polygon fill="midnightblue" stroke="midnightblue" points="1860.99,-78.61 1850.53,-80.31 1859.76,-85.51 1860.99,-78.61"/>
</g>
<!-- Node20&#45;&gt;Node16 -->
<g id="edge25" class="edge">
<title>Node20&#45;&gt;Node16</title>
<path fill="none" stroke="midnightblue" d="M2236.34,-129C2229.2,-126.78 2221.35,-124.58 2214,-123 2089.1,-96.22 1939.44,-82.2 1860.67,-76.19"/>
<polygon fill="midnightblue" stroke="midnightblue" points="1860.73,-72.69 1850.5,-75.43 1860.21,-79.67 1860.73,-72.69"/>
</g>
<!-- Node21&#45;&gt;Node16 -->
<g id="edge27" class="edge">
<title>Node21&#45;&gt;Node16</title>
<path fill="none" stroke="midnightblue" d="M2337.56,-128.94C2328.38,-126.75 2318.34,-124.57 2309,-123 2147.16,-95.77 1953.38,-81.37 1860.67,-75.59"/>
<polygon fill="midnightblue" stroke="midnightblue" points="1860.87,-72.1 1850.67,-74.98 1860.44,-79.09 1860.87,-72.1"/>
</g>
<!-- Node22&#45;&gt;Node16 -->
<g id="edge29" class="edge">
<title>Node22&#45;&gt;Node16</title>
<path fill="none" stroke="midnightblue" d="M2467.43,-128.95C2455.69,-126.76 2442.88,-124.58 2431,-123 2221.4,-95.13 1970.07,-80.48 1860.99,-75.03"/>
<polygon fill="midnightblue" stroke="midnightblue" points="1861.04,-71.53 1850.88,-74.53 1860.7,-78.52 1861.04,-71.53"/>
</g>
<!-- Node23&#45;&gt;Node16 -->
<g id="edge31" class="edge">
<title>Node23&#45;&gt;Node16</title>
<path fill="none" stroke="midnightblue" d="M2623.31,-128.97C2611.66,-126.72 2598.86,-124.51 2587,-123 2315.95,-88.51 1988.81,-77.05 1860.96,-73.71"/>
<polygon fill="midnightblue" stroke="midnightblue" points="1860.74,-70.21 1850.65,-73.45 1860.56,-77.2 1860.74,-70.21"/>
</g>
<!-- Node24&#45;&gt;Node16 -->
<g id="edge33" class="edge">
<title>Node24&#45;&gt;Node16</title>
<path fill="none" stroke="midnightblue" d="M2779.11,-128.93C2766.23,-126.68 2752.09,-124.48 2739,-123 2407.19,-85.51 2005.74,-75.66 1861.19,-73.24"/>
<polygon fill="midnightblue" stroke="midnightblue" points="1860.88,-69.73 1850.82,-73.07 1860.77,-76.73 1860.88,-69.73"/>
</g>
<!-- Node25&#45;&gt;Node16 -->
<g id="edge35" class="edge">
<title>Node25&#45;&gt;Node16</title>
<path fill="none" stroke="midnightblue" d="M2928.92,-128.92C2922.01,-126.59 2914.28,-124.34 2907,-123 2702.93,-85.43 2054.39,-75.27 1860.96,-73.04"/>
<polygon fill="midnightblue" stroke="midnightblue" points="1860.8,-69.54 1850.76,-72.93 1860.72,-76.54 1860.8,-69.54"/>
</g>
<!-- Node26&#45;&gt;Node16 -->
<g id="edge37" class="edge">
<title>Node26&#45;&gt;Node16</title>
<path fill="none" stroke="midnightblue" d="M1480.55,-128.98C1488.8,-126.89 1497.71,-124.75 1506,-123 1591.13,-105.04 1690.91,-89.28 1751.24,-80.33"/>
<polygon fill="midnightblue" stroke="midnightblue" points="1751.93,-83.77 1761.31,-78.85 1750.91,-76.84 1751.93,-83.77"/>
</g>
<!-- Node27&#45;&gt;Node16 -->
<g id="edge39" class="edge">
<title>Node27&#45;&gt;Node16</title>
<path fill="none" stroke="midnightblue" d="M1561.59,-128.93C1566.86,-126.81 1572.59,-124.67 1578,-123 1636.27,-104.95 1704.8,-90.67 1751.41,-81.97"/>
<polygon fill="midnightblue" stroke="midnightblue" points="1752.1,-85.4 1761.3,-80.14 1750.83,-78.52 1752.1,-85.4"/>
</g>
<!-- Node28&#45;&gt;Node16 -->
<g id="edge41" class="edge">
<title>Node28&#45;&gt;Node16</title>
<path fill="none" stroke="midnightblue" d="M1199.26,-124.41C1202.21,-123.9 1205.13,-123.42 1208,-123 1406.73,-93.54 1645.37,-79.81 1751.04,-74.83"/>
<polygon fill="midnightblue" stroke="midnightblue" points="1751.32,-78.32 1761.14,-74.36 1750.99,-71.32 1751.32,-78.32"/>
</g>
<!-- Node29&#45;&gt;Node16 -->
<g id="edge43" class="edge">
<title>Node29&#45;&gt;Node16</title>
<path fill="none" stroke="midnightblue" d="M1352.58,-128.99C1365.77,-126.94 1379.89,-124.82 1393,-123 1521.04,-105.19 1671.9,-87.6 1751.1,-78.63"/>
<polygon fill="midnightblue" stroke="midnightblue" points="1751.78,-82.07 1761.32,-77.47 1750.99,-75.12 1751.78,-82.07"/>
</g>
<!-- Node30&#45;&gt;Node16 -->
<g id="edge45" class="edge">
<title>Node30&#45;&gt;Node16</title>
<path fill="none" stroke="midnightblue" d="M1026.75,-128.98C1041.35,-126.79 1057.27,-124.6 1072,-123 1324.94,-95.44 1628.65,-80.19 1750.98,-74.78"/>
<polygon fill="midnightblue" stroke="midnightblue" points="1751.37,-78.27 1761.21,-74.34 1751.06,-71.28 1751.37,-78.27"/>
</g>
<!-- Node31&#45;&gt;Node16 -->
<g id="edge47" class="edge">
<title>Node31&#45;&gt;Node16</title>
<path fill="none" stroke="midnightblue" d="M1633.46,-128.96C1638.51,-126.94 1643.93,-124.83 1649,-123 1689.09,-108.5 1735.65,-93.79 1767.6,-84.01"/>
<polygon fill="midnightblue" stroke="midnightblue" points="1768.88,-87.28 1777.43,-81.02 1766.84,-80.58 1768.88,-87.28"/>
</g>
<!-- Node32&#45;&gt;Node16 -->
<g id="edge49" class="edge">
<title>Node32&#45;&gt;Node16</title>
<path fill="none" stroke="midnightblue" d="M1699.33,-128.87C1720.1,-117.89 1756.19,-98.82 1780.57,-85.94"/>
<polygon fill="midnightblue" stroke="midnightblue" points="1782.39,-88.93 1789.6,-81.17 1779.12,-82.75 1782.39,-88.93"/>
</g>
<!-- Node33&#45;&gt;Node16 -->
<g id="edge51" class="edge">
<title>Node33&#45;&gt;Node16</title>
<path fill="none" stroke="midnightblue" d="M1759.28,-128.73C1767.7,-118.6 1781.75,-101.69 1792.25,-89.06"/>
<polygon fill="midnightblue" stroke="midnightblue" points="1795.13,-91.06 1798.83,-81.13 1789.75,-86.58 1795.13,-91.06"/>
</g>
<!-- Node34&#45;&gt;Node10 -->
<g id="edge54" class="edge">
<title>Node34&#45;&gt;Node10</title>
<path fill="none" stroke="midnightblue" d="M826.06,-195.94C821.45,-185.91 813.61,-168.78 807,-154 787.59,-110.58 794.76,-92.28 764,-56 752.88,-42.88 736.98,-32.16 723.25,-24.47"/>
<polygon fill="midnightblue" stroke="midnightblue" points="724.64,-21.25 714.17,-19.65 721.36,-27.43 724.64,-21.25"/>
</g>
<!-- Node34&#45;&gt;Node16 -->
<g id="edge55" class="edge">
<title>Node34&#45;&gt;Node16</title>
<path fill="none" stroke="midnightblue" d="M832.24,-195.92C837.28,-178.6 851.28,-139.69 879,-123 953.62,-78.07 1563.17,-73.01 1751.06,-72.52"/>
<polygon fill="midnightblue" stroke="midnightblue" points="1751.27,-76.02 1761.26,-72.5 1751.26,-69.02 1751.27,-76.02"/>
</g>
<!-- Node35 -->
<g id="node35" class="node">
<title>Node35</title>
<g id="a_node35"><a xlink:title=" ">
<polygon fill="none" stroke="#bfbfbf" points="637,-129 637,-148 679,-148 679,-129 637,-129"/>
<text text-anchor="middle" x="658" y="-136" font-family="Helvetica,sans-Serif" font-size="10.00">array</text>
</a>
</g>
</g>
<!-- Node34&#45;&gt;Node35 -->
<g id="edge53" class="edge">
<title>Node34&#45;&gt;Node35</title>
<path fill="none" stroke="midnightblue" d="M807.16,-195.87C776.64,-184.33 722.45,-163.86 688.47,-151.02"/>
<polygon fill="midnightblue" stroke="midnightblue" points="689.64,-147.71 679.04,-147.45 687.16,-154.26 689.64,-147.71"/>
</g>
<!-- Node36&#45;&gt;Node13 -->
<g id="edge69" class="edge">
<title>Node36&#45;&gt;Node13</title>
<path fill="none" stroke="midnightblue" d="M488.8,-313.8C452.39,-304.52 392.91,-289.37 352.41,-279.06"/>
<polygon fill="midnightblue" stroke="midnightblue" points="353.11,-275.62 342.55,-276.55 351.38,-282.41 353.11,-275.62"/>
</g>
<!-- Node37 -->
<g id="node37" class="node">
<title>Node37</title>
<g id="a_node37"><a xlink:href="cp15_8hpp.html" target="_top" xlink:title=" ">
<polygon fill="none" stroke="black" points="549,-257.5 549,-276.5 677,-276.5 677,-257.5 549,-257.5"/>
<text text-anchor="middle" x="613" y="-264.5" font-family="Helvetica,sans-Serif" font-size="10.00">coprocessors/cp15.hpp</text>
</a>
</g>
</g>
<!-- Node36&#45;&gt;Node37 -->
<g id="edge57" class="edge">
<title>Node36&#45;&gt;Node37</title>
<path fill="none" stroke="midnightblue" d="M535.78,-313.32C550.27,-304.82 572.57,-291.73 589.49,-281.8"/>
<polygon fill="midnightblue" stroke="midnightblue" points="591.4,-284.74 598.26,-276.65 587.86,-278.7 591.4,-284.74"/>
</g>
<!-- Node40 -->
<g id="node40" class="node">
<title>Node40</title>
<g id="a_node40"><a xlink:href="peripheral_8hpp.html" target="_top" xlink:title=" ">
<polygon fill="none" stroke="black" points="324.5,-129 324.5,-148 469.5,-148 469.5,-129 324.5,-129"/>
<text text-anchor="middle" x="397" y="-136" font-family="Helvetica,sans-Serif" font-size="10.00">peripherals/peripheral.hpp</text>
</a>
</g>
</g>
<!-- Node36&#45;&gt;Node40 -->
<g id="edge67" class="edge">
<title>Node36&#45;&gt;Node40</title>
<path fill="none" stroke="midnightblue" d="M522.25,-313.26C525.01,-290.49 529.31,-228.45 501,-190 487.13,-171.16 464.34,-159.01 443.62,-151.36"/>
<polygon fill="midnightblue" stroke="midnightblue" points="444.57,-147.99 433.97,-148.06 442.3,-154.61 444.57,-147.99"/>
</g>
<!-- Node37&#45;&gt;Node7 -->
<g id="edge66" class="edge">
<title>Node37&#45;&gt;Node7</title>
<path fill="none" stroke="midnightblue" d="M614.64,-257.44C618.82,-232.72 627.14,-160.54 590,-123 560.41,-93.1 449.98,-80.81 373.23,-75.82"/>
<polygon fill="midnightblue" stroke="midnightblue" points="373.3,-72.32 363.1,-75.19 372.87,-79.31 373.3,-72.32"/>
</g>
<!-- Node37&#45;&gt;Node9 -->
<g id="edge58" class="edge">
<title>Node37&#45;&gt;Node9</title>
<path fill="none" stroke="midnightblue" d="M624.14,-257.18C651.26,-234.58 716.5,-172.91 688,-123 672.39,-95.66 653.73,-103.63 627,-87 593.43,-66.11 555.2,-40.75 532.1,-25.25"/>
<polygon fill="midnightblue" stroke="midnightblue" points="534,-22.31 523.75,-19.63 530.09,-28.12 534,-22.31"/>
</g>
<!-- Node38 -->
<g id="node38" class="node">
<title>Node38</title>
<g id="a_node38"><a xlink:title=" ">
<polygon fill="none" stroke="#bfbfbf" points="487.5,-129 487.5,-148 580.5,-148 580.5,-129 487.5,-129"/>
<text text-anchor="middle" x="534" y="-136" font-family="Helvetica,sans-Serif" font-size="10.00">unordered_map</text>
</a>
</g>
</g>
<!-- Node37&#45;&gt;Node38 -->
<g id="edge59" class="edge">
<title>Node37&#45;&gt;Node38</title>
<path fill="none" stroke="midnightblue" d="M607.57,-257.31C594.66,-236.63 561.94,-184.23 544.81,-156.82"/>
<polygon fill="midnightblue" stroke="midnightblue" points="547.73,-154.88 539.47,-148.26 541.8,-158.59 547.73,-154.88"/>
</g>
<!-- Node39 -->
<g id="node39" class="node">
<title>Node39</title>
<g id="a_node39"><a xlink:href="coprocessor_8hpp.html" target="_top" xlink:title=" ">
<polygon fill="none" stroke="black" points="916.5,-196 916.5,-215 1011.5,-215 1011.5,-196 916.5,-196"/>
<text text-anchor="middle" x="964" y="-203" font-family="Helvetica,sans-Serif" font-size="10.00">coprocessor.hpp</text>
</a>
</g>
</g>
<!-- Node37&#45;&gt;Node39 -->
<g id="edge60" class="edge">
<title>Node37&#45;&gt;Node39</title>
<path fill="none" stroke="midnightblue" d="M672.51,-257.46C729.88,-249.02 819.09,-235.3 896,-221 902.31,-219.83 908.93,-218.52 915.46,-217.17"/>
<polygon fill="midnightblue" stroke="midnightblue" points="916.52,-220.53 925.59,-215.06 915.09,-213.68 916.52,-220.53"/>
</g>
<!-- Node39&#45;&gt;Node6 -->
<g id="edge62" class="edge">
<title>Node39&#45;&gt;Node6</title>
<path fill="none" stroke="midnightblue" d="M928.88,-195.97C918.36,-193.7 906.76,-191.47 896,-190 639.67,-154.93 571.97,-184.05 315,-154 302.94,-152.59 289.99,-150.59 277.95,-148.53"/>
<polygon fill="midnightblue" stroke="midnightblue" points="278.54,-145.09 268.09,-146.8 277.33,-151.98 278.54,-145.09"/>
</g>
<!-- Node39&#45;&gt;Node10 -->
<g id="edge61" class="edge">
<title>Node39&#45;&gt;Node10</title>
<path fill="none" stroke="midnightblue" d="M946.47,-195.95C928.61,-186.82 900.55,-171.3 879,-154 832.42,-116.6 835.06,-91.48 787,-56 768.81,-42.57 746,-31.38 727.64,-23.52"/>
<polygon fill="midnightblue" stroke="midnightblue" points="728.8,-20.21 718.22,-19.61 726.11,-26.68 728.8,-20.21"/>
</g>
<!-- Node39&#45;&gt;Node28 -->
<g id="edge63" class="edge">
<title>Node39&#45;&gt;Node28</title>
<path fill="none" stroke="midnightblue" d="M987.37,-195.87C1014.01,-186.03 1058.26,-169.69 1092.27,-157.13"/>
<polygon fill="midnightblue" stroke="midnightblue" points="1093.85,-160.28 1102.02,-153.53 1091.42,-153.71 1093.85,-160.28"/>
</g>
<!-- Node39&#45;&gt;Node29 -->
<g id="edge64" class="edge">
<title>Node39&#45;&gt;Node29</title>
<path fill="none" stroke="midnightblue" d="M1008.27,-195.94C1069.42,-184.11 1179.64,-162.78 1245.69,-150.01"/>
<polygon fill="midnightblue" stroke="midnightblue" points="1246.74,-153.37 1255.9,-148.03 1245.41,-146.49 1246.74,-153.37"/>
</g>
<!-- Node39&#45;&gt;Node30 -->
<g id="edge65" class="edge">
<title>Node39&#45;&gt;Node30</title>
<path fill="none" stroke="midnightblue" d="M965.48,-195.73C967.1,-186.18 969.73,-170.62 971.82,-158.28"/>
<polygon fill="midnightblue" stroke="midnightblue" points="975.32,-158.57 973.54,-148.13 968.42,-157.4 975.32,-158.57"/>
</g>
<!-- Node40&#45;&gt;Node10 -->
<g id="edge68" class="edge">
<title>Node40&#45;&gt;Node10</title>
<path fill="none" stroke="midnightblue" d="M417.48,-128.81C469.18,-106.86 605.09,-49.17 665.42,-23.56"/>
<polygon fill="midnightblue" stroke="midnightblue" points="666.93,-26.72 674.77,-19.59 664.2,-20.27 666.93,-26.72"/>
</g>
<!-- Node42&#45;&gt;Node6 -->
<g id="edge76" class="edge">
<title>Node42&#45;&gt;Node6</title>
<path fill="none" stroke="midnightblue" d="M386.82,-190.4C350.98,-178.69 300.59,-162.23 266.92,-151.23"/>
<polygon fill="midnightblue" stroke="midnightblue" points="267.64,-147.78 257.04,-148.01 265.46,-154.44 267.64,-147.78"/>
</g>
<!-- Node42&#45;&gt;Node7 -->
<g id="edge77" class="edge">
<title>Node42&#45;&gt;Node7</title>
<path fill="none" stroke="midnightblue" d="M371.24,-190.46C350.77,-182.83 329.35,-171.28 315,-154 300.31,-136.31 296.52,-109.35 295.77,-91.34"/>
<polygon fill="midnightblue" stroke="midnightblue" points="299.27,-91.16 295.63,-81.21 292.27,-91.26 299.27,-91.16"/>
</g>
<!-- Node42&#45;&gt;Node35 -->
<g id="edge73" class="edge">
<title>Node42&#45;&gt;Node35</title>
<path fill="none" stroke="midnightblue" d="M479.19,-190.48C524.06,-177.68 589,-159.17 627.02,-148.33"/>
<polygon fill="midnightblue" stroke="midnightblue" points="628.33,-151.6 636.99,-145.49 626.41,-144.87 628.33,-151.6"/>
</g>
<!-- Node42&#45;&gt;Node38 -->
<g id="edge74" class="edge">
<title>Node42&#45;&gt;Node38</title>
<path fill="none" stroke="midnightblue" d="M452.57,-190.4C470.01,-179.5 494.03,-164.48 511.47,-153.58"/>
<polygon fill="midnightblue" stroke="midnightblue" points="513.76,-156.28 520.39,-148.01 510.05,-150.34 513.76,-156.28"/>
</g>
<!-- Node42&#45;&gt;Node40 -->
<g id="edge75" class="edge">
<title>Node42&#45;&gt;Node40</title>
<path fill="none" stroke="midnightblue" d="M422.84,-190.4C417.9,-180.66 411.29,-167.65 405.99,-157.21"/>
<polygon fill="midnightblue" stroke="midnightblue" points="409.06,-155.53 401.41,-148.19 402.82,-158.7 409.06,-155.53"/>
</g>
<!-- Node43&#45;&gt;Node10 -->
<g id="edge79" class="edge">
<title>Node43&#45;&gt;Node10</title>
<path fill="none" stroke="midnightblue" d="M695,-56.4C695,-48.47 695,-38.46 695,-29.86"/>
<polygon fill="midnightblue" stroke="midnightblue" points="698.5,-29.66 695,-19.66 691.5,-29.66 698.5,-29.66"/>
</g>
</g>
</svg>
