<?xml version="1.0" encoding="UTF-8" standalone="no"?>
<!DOCTYPE svg PUBLIC "-//W3C//DTD SVG 1.1//EN"
 "http://www.w3.org/Graphics/SVG/1.1/DTD/svg11.dtd">
<!-- Generated by graphviz version 2.43.0 (0)
 -->
<!-- Title: src/gui/windows/registers_window.cpp Pages: 1 -->
<svg width="3187pt" height="531pt"
 viewBox="0.00 0.00 3186.59 531.00" xmlns="http://www.w3.org/2000/svg" xmlns:xlink="http://www.w3.org/1999/xlink">
<g id="graph0" class="graph" transform="scale(1 1) rotate(0) translate(4 527)">
<title>src/gui/windows/registers_window.cpp</title>
<!-- Node1 -->
<g id="node1" class="node">
<title>Node1</title>
<g id="a_node1"><a xlink:title=" ">
<polygon fill="#bfbfbf" stroke="black" points="111.5,-492.5 111.5,-522.5 251.5,-522.5 251.5,-492.5 111.5,-492.5"/>
<text text-anchor="start" x="119.5" y="-510.5" font-family="Helvetica,sans-Serif" font-size="10.00">src/gui/windows/registers</text>
<text text-anchor="middle" x="181.5" y="-499.5" font-family="Helvetica,sans-Serif" font-size="10.00">_window.cpp</text>
</a>
</g>
</g>
<!-- Node2 -->
<g id="node2" class="node">
<title>Node2</title>
<g id="a_node2"><a xlink:title=" ">
<polygon fill="none" stroke="#bfbfbf" points="0,-436.5 0,-455.5 101,-455.5 101,-436.5 0,-436.5"/>
<text text-anchor="middle" x="50.5" y="-443.5" font-family="Helvetica,sans-Serif" font-size="10.00">magic_enum.hpp</text>
</a>
</g>
</g>
<!-- Node1&#45;&gt;Node2 -->
<g id="edge1" class="edge">
<title>Node1&#45;&gt;Node2</title>
<path fill="none" stroke="midnightblue" d="M150.45,-492.4C128.77,-482.55 100.04,-469.5 78.95,-459.92"/>
<polygon fill="midnightblue" stroke="midnightblue" points="80.11,-456.61 69.56,-455.66 77.22,-462.98 80.11,-456.61"/>
</g>
<!-- Node3 -->
<g id="node3" class="node">
<title>Node3</title>
<g id="a_node3"><a xlink:title=" ">
<polygon fill="none" stroke="#bfbfbf" points="119,-436.5 119,-455.5 244,-455.5 244,-436.5 119,-436.5"/>
<text text-anchor="middle" x="181.5" y="-443.5" font-family="Helvetica,sans-Serif" font-size="10.00">fmt/include/fmt/core.h</text>
</a>
</g>
</g>
<!-- Node1&#45;&gt;Node3 -->
<g id="edge2" class="edge">
<title>Node1&#45;&gt;Node3</title>
<path fill="none" stroke="midnightblue" d="M181.5,-492.4C181.5,-484.47 181.5,-474.46 181.5,-465.86"/>
<polygon fill="midnightblue" stroke="midnightblue" points="185,-465.66 181.5,-455.66 178,-465.66 185,-465.66"/>
</g>
<!-- Node4 -->
<g id="node4" class="node">
<title>Node4</title>
<g id="a_node4"><a xlink:href="registers__window_8hpp.html" target="_top" xlink:title=" ">
<polygon fill="none" stroke="black" points="262.5,-436.5 262.5,-455.5 384.5,-455.5 384.5,-436.5 262.5,-436.5"/>
<text text-anchor="middle" x="323.5" y="-443.5" font-family="Helvetica,sans-Serif" font-size="10.00">registers_window.hpp</text>
</a>
</g>
</g>
<!-- Node1&#45;&gt;Node4 -->
<g id="edge3" class="edge">
<title>Node1&#45;&gt;Node4</title>
<path fill="none" stroke="midnightblue" d="M215.15,-492.4C238.98,-482.42 270.65,-469.15 293.59,-459.53"/>
<polygon fill="midnightblue" stroke="midnightblue" points="294.97,-462.75 302.84,-455.66 292.26,-456.29 294.97,-462.75"/>
</g>
<!-- Node5 -->
<g id="node5" class="node">
<title>Node5</title>
<g id="a_node5"><a xlink:title=" ">
<polygon fill="none" stroke="#bfbfbf" points="211.5,-375 211.5,-394 295.5,-394 295.5,-375 211.5,-375"/>
<text text-anchor="middle" x="253.5" y="-382" font-family="Helvetica,sans-Serif" font-size="10.00">imgui/imgui.h</text>
</a>
</g>
</g>
<!-- Node4&#45;&gt;Node5 -->
<g id="edge4" class="edge">
<title>Node4&#45;&gt;Node5</title>
<path fill="none" stroke="midnightblue" d="M313.47,-436.48C302.45,-427.11 284.54,-411.88 271.16,-400.51"/>
<polygon fill="midnightblue" stroke="midnightblue" points="273.4,-397.82 263.51,-394.01 268.86,-403.15 273.4,-397.82"/>
</g>
<!-- Node6 -->
<g id="node6" class="node">
<title>Node6</title>
<g id="a_node6"><a xlink:href="window_8hpp.html" target="_top" xlink:title=" ">
<polygon fill="none" stroke="black" points="334,-56.5 334,-75.5 417,-75.5 417,-56.5 334,-56.5"/>
<text text-anchor="middle" x="375.5" y="-63.5" font-family="Helvetica,sans-Serif" font-size="10.00">../window.hpp</text>
</a>
</g>
</g>
<!-- Node4&#45;&gt;Node6 -->
<g id="edge5" class="edge">
<title>Node4&#45;&gt;Node6</title>
<path fill="none" stroke="midnightblue" d="M323.5,-436.41C323.5,-415.98 323.5,-362.86 323.5,-318.5 323.5,-318.5 323.5,-318.5 323.5,-188 323.5,-148.19 347.56,-106.55 362.95,-84"/>
<polygon fill="midnightblue" stroke="midnightblue" points="366,-85.74 368.91,-75.56 360.28,-81.7 366,-85.74"/>
</g>
<!-- Node8 -->
<g id="node8" class="node">
<title>Node8</title>
<g id="a_node8"><a xlink:href="core_8hpp.html" target="_top" xlink:title="This file defines a class that represents a CPU core (arm1176jzf_s).">
<polygon fill="none" stroke="black" points="634.5,-369.5 634.5,-399.5 748.5,-399.5 748.5,-369.5 634.5,-369.5"/>
<text text-anchor="start" x="642.5" y="-387.5" font-family="Helvetica,sans-Serif" font-size="10.00">../../core/arm1176jzf</text>
<text text-anchor="middle" x="691.5" y="-376.5" font-family="Helvetica,sans-Serif" font-size="10.00">_s/core.hpp</text>
</a>
</g>
</g>
<!-- Node4&#45;&gt;Node8 -->
<g id="edge7" class="edge">
<title>Node4&#45;&gt;Node8</title>
<path fill="none" stroke="midnightblue" d="M376.23,-436.48C441.48,-425.92 552.71,-407.94 624.1,-396.4"/>
<polygon fill="midnightblue" stroke="midnightblue" points="625.02,-399.79 634.33,-394.74 623.9,-392.88 625.02,-399.79"/>
</g>
<!-- Node7 -->
<g id="node7" class="node">
<title>Node7</title>
<g id="a_node7"><a xlink:title=" ">
<polygon fill="none" stroke="#bfbfbf" points="373.5,-0.5 373.5,-19.5 431.5,-19.5 431.5,-0.5 373.5,-0.5"/>
<text text-anchor="middle" x="402.5" y="-7.5" font-family="Helvetica,sans-Serif" font-size="10.00">memory</text>
</a>
</g>
</g>
<!-- Node6&#45;&gt;Node7 -->
<g id="edge6" class="edge">
<title>Node6&#45;&gt;Node7</title>
<path fill="none" stroke="midnightblue" d="M379.96,-56.08C383.65,-48.69 389.02,-37.95 393.59,-28.81"/>
<polygon fill="midnightblue" stroke="midnightblue" points="396.78,-30.26 398.12,-19.75 390.52,-27.13 396.78,-30.26"/>
</g>
<!-- Node9 -->
<g id="node9" class="node">
<title>Node9</title>
<g id="a_node9"><a xlink:href="context_8hpp.html" target="_top" xlink:title="This file defines the context (registers) of the CPU.">
<polygon fill="none" stroke="black" points="509.5,-118 509.5,-137 583.5,-137 583.5,-118 509.5,-118"/>
<text text-anchor="middle" x="546.5" y="-125" font-family="Helvetica,sans-Serif" font-size="10.00">context.hpp</text>
</a>
</g>
</g>
<!-- Node8&#45;&gt;Node9 -->
<g id="edge8" class="edge">
<title>Node8&#45;&gt;Node9</title>
<path fill="none" stroke="midnightblue" d="M642.68,-369.44C574.77,-346.7 455.9,-294.48 418.5,-199 403.72,-161.28 457.19,-143.18 499.51,-134.91"/>
<polygon fill="midnightblue" stroke="midnightblue" points="500.22,-138.34 509.44,-133.1 498.97,-131.45 500.22,-138.34"/>
</g>
<!-- Node10 -->
<g id="node10" class="node">
<title>Node10</title>
<g id="a_node10"><a xlink:href="logger_8hpp.html" target="_top" xlink:title=" ">
<polygon fill="none" stroke="black" points="544.5,-56.5 544.5,-75.5 678.5,-75.5 678.5,-56.5 544.5,-56.5"/>
<text text-anchor="middle" x="611.5" y="-63.5" font-family="Helvetica,sans-Serif" font-size="10.00">../utils/logger/logger.hpp</text>
</a>
</g>
</g>
<!-- Node8&#45;&gt;Node10 -->
<g id="edge72" class="edge">
<title>Node8&#45;&gt;Node10</title>
<path fill="none" stroke="midnightblue" d="M634.4,-372.86C539.94,-353.62 361.5,-309.58 361.5,-251.5 361.5,-251.5 361.5,-251.5 361.5,-188 361.5,-110.29 460.59,-82.46 534,-72.52"/>
<polygon fill="midnightblue" stroke="midnightblue" points="534.69,-75.96 544.18,-71.23 533.82,-69.01 534.69,-75.96"/>
</g>
<!-- Node16 -->
<g id="node16" class="node">
<title>Node16</title>
<g id="a_node16"><a xlink:href="exceptions_8hpp.html" target="_top" xlink:title="This file defines all exceptions that can be thrown by the CPU during execution.">
<polygon fill="none" stroke="black" points="490,-241 490,-260 581,-260 581,-241 490,-241"/>
<text text-anchor="middle" x="535.5" y="-248" font-family="Helvetica,sans-Serif" font-size="10.00">exceptions.hpp</text>
</a>
</g>
</g>
<!-- Node8&#45;&gt;Node16 -->
<g id="edge16" class="edge">
<title>Node8&#45;&gt;Node16</title>
<path fill="none" stroke="midnightblue" d="M674.81,-369.37C645.2,-344.33 583.78,-292.35 553.37,-266.62"/>
<polygon fill="midnightblue" stroke="midnightblue" points="555.56,-263.88 545.66,-260.1 551.03,-269.23 555.56,-263.88"/>
</g>
<!-- Node18 -->
<g id="node18" class="node">
<title>Node18</title>
<g id="a_node18"><a xlink:href="isa_8hpp.html" target="_top" xlink:title="This file is just a helper file for including all ARM instructions supported by the emulator.">
<polygon fill="none" stroke="black" points="2274,-179.5 2274,-198.5 2343,-198.5 2343,-179.5 2274,-179.5"/>
<text text-anchor="middle" x="2308.5" y="-186.5" font-family="Helvetica,sans-Serif" font-size="10.00">isa/isa.hpp</text>
</a>
</g>
</g>
<!-- Node8&#45;&gt;Node18 -->
<g id="edge19" class="edge">
<title>Node8&#45;&gt;Node18</title>
<path fill="none" stroke="midnightblue" d="M748.57,-376.67C1003.47,-346.17 2035.21,-222.7 2263.59,-195.37"/>
<polygon fill="midnightblue" stroke="midnightblue" points="2264.34,-198.81 2273.85,-194.15 2263.51,-191.86 2264.34,-198.81"/>
</g>
<!-- Node37 -->
<g id="node37" class="node">
<title>Node37</title>
<g id="a_node37"><a xlink:href="isa__decoder_8hpp.html" target="_top" xlink:title="This file defines an instruction decoder.">
<polygon fill="none" stroke="black" points="2423,-241 2423,-260 2536,-260 2536,-241 2423,-241"/>
<text text-anchor="middle" x="2479.5" y="-248" font-family="Helvetica,sans-Serif" font-size="10.00">isa/isa_decoder.hpp</text>
</a>
</g>
</g>
<!-- Node8&#45;&gt;Node37 -->
<g id="edge55" class="edge">
<title>Node8&#45;&gt;Node37</title>
<path fill="none" stroke="midnightblue" d="M748.58,-381.81C903.67,-376.96 1345.79,-361.53 1712.5,-333 1972.08,-312.81 2279.8,-276.27 2412.8,-259.87"/>
<polygon fill="midnightblue" stroke="midnightblue" points="2413.34,-263.33 2422.83,-258.63 2412.48,-256.38 2413.34,-263.33"/>
</g>
<!-- Node38 -->
<g id="node38" class="node">
<title>Node38</title>
<g id="a_node38"><a xlink:href="bus_8hpp.html" target="_top" xlink:title="This file defines an interface the CPU uses to access different memory&#45;mapped peripherals.">
<polygon fill="none" stroke="black" points="689.5,-308 689.5,-327 753.5,-327 753.5,-308 689.5,-308"/>
<text text-anchor="middle" x="721.5" y="-315" font-family="Helvetica,sans-Serif" font-size="10.00">../bus.hpp</text>
</a>
</g>
</g>
<!-- Node8&#45;&gt;Node38 -->
<g id="edge57" class="edge">
<title>Node8&#45;&gt;Node38</title>
<path fill="none" stroke="midnightblue" d="M698.01,-369.4C702.46,-359.76 708.39,-346.91 713.18,-336.54"/>
<polygon fill="midnightblue" stroke="midnightblue" points="716.47,-337.74 717.49,-327.19 710.12,-334.81 716.47,-337.74"/>
</g>
<!-- Node43 -->
<g id="node43" class="node">
<title>Node43</title>
<g id="a_node43"><a xlink:href="math_8hpp.html" target="_top" xlink:title="This file defines and implements a variety of handy helper functions that are used throughout the pro...">
<polygon fill="none" stroke="black" points="909.5,-308 909.5,-327 1005.5,-327 1005.5,-308 909.5,-308"/>
<text text-anchor="middle" x="957.5" y="-315" font-family="Helvetica,sans-Serif" font-size="10.00">../utils/math.hpp</text>
</a>
</g>
</g>
<!-- Node8&#45;&gt;Node43 -->
<g id="edge71" class="edge">
<title>Node8&#45;&gt;Node43</title>
<path fill="none" stroke="midnightblue" d="M748.76,-369.86C790.79,-359.8 849.23,-345.71 900.5,-333 905.09,-331.86 909.88,-330.66 914.66,-329.46"/>
<polygon fill="midnightblue" stroke="midnightblue" points="915.53,-332.85 924.36,-327 913.81,-326.06 915.53,-332.85"/>
</g>
<!-- Node44 -->
<g id="node44" class="node">
<title>Node44</title>
<g id="a_node44"><a xlink:href="interrupt__controller_8hpp.html" target="_top" xlink:title=" ">
<polygon fill="none" stroke="black" points="599,-235.5 599,-265.5 724,-265.5 724,-235.5 599,-235.5"/>
<text text-anchor="start" x="607" y="-253.5" font-family="Helvetica,sans-Serif" font-size="10.00">../peripherals/interrupt</text>
<text text-anchor="middle" x="661.5" y="-242.5" font-family="Helvetica,sans-Serif" font-size="10.00">_controller.hpp</text>
</a>
</g>
</g>
<!-- Node8&#45;&gt;Node44 -->
<g id="edge73" class="edge">
<title>Node8&#45;&gt;Node44</title>
<path fill="none" stroke="midnightblue" d="M688.29,-369.37C683.19,-346.94 673.19,-302.92 666.95,-275.49"/>
<polygon fill="midnightblue" stroke="midnightblue" points="670.32,-274.5 664.69,-265.52 663.49,-276.05 670.32,-274.5"/>
</g>
<!-- Node46 -->
<g id="node46" class="node">
<title>Node46</title>
<g id="a_node46"><a xlink:href="system__clock__listener_8hpp.html" target="_top" xlink:title=" ">
<polygon fill="none" stroke="black" points="772,-302.5 772,-332.5 891,-332.5 891,-302.5 772,-302.5"/>
<text text-anchor="start" x="780" y="-320.5" font-family="Helvetica,sans-Serif" font-size="10.00">../peripherals/system</text>
<text text-anchor="middle" x="831.5" y="-309.5" font-family="Helvetica,sans-Serif" font-size="10.00">_clock_listener.hpp</text>
</a>
</g>
</g>
<!-- Node8&#45;&gt;Node46 -->
<g id="edge79" class="edge">
<title>Node8&#45;&gt;Node46</title>
<path fill="none" stroke="midnightblue" d="M721.88,-369.4C742.43,-359.86 769.76,-347.16 792,-336.84"/>
<polygon fill="midnightblue" stroke="midnightblue" points="793.59,-339.96 801.18,-332.58 790.64,-333.61 793.59,-339.96"/>
</g>
<!-- Node9&#45;&gt;Node10 -->
<g id="edge9" class="edge">
<title>Node9&#45;&gt;Node10</title>
<path fill="none" stroke="midnightblue" d="M555.81,-117.98C565.95,-108.7 582.36,-93.67 594.75,-82.33"/>
<polygon fill="midnightblue" stroke="midnightblue" points="597.19,-84.84 602.2,-75.51 592.46,-79.68 597.19,-84.84"/>
</g>
<!-- Node10&#45;&gt;Node7 -->
<g id="edge12" class="edge">
<title>Node10&#45;&gt;Node7</title>
<path fill="none" stroke="midnightblue" d="M578.38,-56.44C541.22,-46.84 480.98,-31.28 441.55,-21.09"/>
<polygon fill="midnightblue" stroke="midnightblue" points="442.31,-17.67 431.75,-18.56 440.56,-24.45 442.31,-17.67"/>
</g>
<!-- Node11 -->
<g id="node11" class="node">
<title>Node11</title>
<g id="a_node11"><a xlink:title=" ">
<polygon fill="none" stroke="#bfbfbf" points="587.5,-0.5 587.5,-19.5 635.5,-19.5 635.5,-0.5 587.5,-0.5"/>
<text text-anchor="middle" x="611.5" y="-7.5" font-family="Helvetica,sans-Serif" font-size="10.00">mutex</text>
</a>
</g>
</g>
<!-- Node10&#45;&gt;Node11 -->
<g id="edge10" class="edge">
<title>Node10&#45;&gt;Node11</title>
<path fill="none" stroke="midnightblue" d="M611.5,-56.08C611.5,-49.01 611.5,-38.86 611.5,-29.99"/>
<polygon fill="midnightblue" stroke="midnightblue" points="615,-29.75 611.5,-19.75 608,-29.75 615,-29.75"/>
</g>
<!-- Node12 -->
<g id="node12" class="node">
<title>Node12</title>
<g id="a_node12"><a xlink:title=" ">
<polygon fill="none" stroke="#bfbfbf" points="791,-0.5 791,-19.5 838,-19.5 838,-0.5 791,-0.5"/>
<text text-anchor="middle" x="814.5" y="-7.5" font-family="Helvetica,sans-Serif" font-size="10.00">vector</text>
</a>
</g>
</g>
<!-- Node10&#45;&gt;Node12 -->
<g id="edge11" class="edge">
<title>Node10&#45;&gt;Node12</title>
<path fill="none" stroke="midnightblue" d="M643.67,-56.44C681.07,-46.49 742.53,-30.15 780.64,-20.01"/>
<polygon fill="midnightblue" stroke="midnightblue" points="781.97,-23.28 790.73,-17.32 780.17,-16.51 781.97,-23.28"/>
</g>
<!-- Node13 -->
<g id="node13" class="node">
<title>Node13</title>
<g id="a_node13"><a xlink:title=" ">
<polygon fill="none" stroke="#bfbfbf" points="950.5,-0.5 950.5,-19.5 1000.5,-19.5 1000.5,-0.5 950.5,-0.5"/>
<text text-anchor="middle" x="975.5" y="-7.5" font-family="Helvetica,sans-Serif" font-size="10.00">cstdint</text>
</a>
</g>
</g>
<!-- Node10&#45;&gt;Node13 -->
<g id="edge13" class="edge">
<title>Node10&#45;&gt;Node13</title>
<path fill="none" stroke="midnightblue" d="M669.18,-56.44C745.36,-45.14 877.2,-25.58 940.11,-16.25"/>
<polygon fill="midnightblue" stroke="midnightblue" points="940.94,-19.67 950.32,-14.74 939.91,-12.74 940.94,-19.67"/>
</g>
<!-- Node14 -->
<g id="node14" class="node">
<title>Node14</title>
<g id="a_node14"><a xlink:title=" ">
<polygon fill="none" stroke="#bfbfbf" points="654,-0.5 654,-19.5 727,-19.5 727,-0.5 654,-0.5"/>
<text text-anchor="middle" x="690.5" y="-7.5" font-family="Helvetica,sans-Serif" font-size="10.00">string_view</text>
</a>
</g>
</g>
<!-- Node10&#45;&gt;Node14 -->
<g id="edge14" class="edge">
<title>Node10&#45;&gt;Node14</title>
<path fill="none" stroke="midnightblue" d="M624.19,-56.32C636.4,-47.98 655.08,-35.21 669.5,-25.35"/>
<polygon fill="midnightblue" stroke="midnightblue" points="671.56,-28.19 677.84,-19.65 667.61,-22.41 671.56,-28.19"/>
</g>
<!-- Node15 -->
<g id="node15" class="node">
<title>Node15</title>
<g id="a_node15"><a xlink:title=" ">
<polygon fill="none" stroke="#bfbfbf" points="476,-0.5 476,-19.5 569,-19.5 569,-0.5 476,-0.5"/>
<text text-anchor="middle" x="522.5" y="-7.5" font-family="Helvetica,sans-Serif" font-size="10.00">source_location</text>
</a>
</g>
</g>
<!-- Node10&#45;&gt;Node15 -->
<g id="edge15" class="edge">
<title>Node10&#45;&gt;Node15</title>
<path fill="none" stroke="midnightblue" d="M597.2,-56.32C583.32,-47.9 562.01,-34.97 545.7,-25.07"/>
<polygon fill="midnightblue" stroke="midnightblue" points="547.13,-21.85 536.76,-19.65 543.5,-27.83 547.13,-21.85"/>
</g>
<!-- Node16&#45;&gt;Node9 -->
<g id="edge18" class="edge">
<title>Node16&#45;&gt;Node9</title>
<path fill="none" stroke="midnightblue" d="M536.29,-240.8C538.06,-221.35 542.36,-173.99 544.78,-147.4"/>
<polygon fill="midnightblue" stroke="midnightblue" points="548.3,-147.4 545.72,-137.12 541.33,-146.77 548.3,-147.4"/>
</g>
<!-- Node17 -->
<g id="node17" class="node">
<title>Node17</title>
<g id="a_node17"><a xlink:title=" ">
<polygon fill="none" stroke="#bfbfbf" points="428,-179.5 428,-198.5 507,-198.5 507,-179.5 428,-179.5"/>
<text text-anchor="middle" x="467.5" y="-186.5" font-family="Helvetica,sans-Serif" font-size="10.00">fmt/format.h</text>
</a>
</g>
</g>
<!-- Node16&#45;&gt;Node17 -->
<g id="edge17" class="edge">
<title>Node16&#45;&gt;Node17</title>
<path fill="none" stroke="midnightblue" d="M525.76,-240.98C515.15,-231.7 497.98,-216.67 485.02,-205.33"/>
<polygon fill="midnightblue" stroke="midnightblue" points="487.06,-202.46 477.22,-198.51 482.45,-207.73 487.06,-202.46"/>
</g>
<!-- Node19 -->
<g id="node19" class="node">
<title>Node19</title>
<g id="a_node19"><a xlink:href="instruction_8hpp.html" target="_top" xlink:title="This file defines the interface of a general ARM instruction.">
<polygon fill="none" stroke="black" points="2357,-56.5 2357,-75.5 2446,-75.5 2446,-56.5 2357,-56.5"/>
<text text-anchor="middle" x="2401.5" y="-63.5" font-family="Helvetica,sans-Serif" font-size="10.00">instruction.hpp</text>
</a>
</g>
</g>
<!-- Node18&#45;&gt;Node19 -->
<g id="edge20" class="edge">
<title>Node18&#45;&gt;Node19</title>
<path fill="none" stroke="midnightblue" d="M2343.11,-185.94C2425.28,-180.69 2626.68,-165.63 2646.5,-143 2701.6,-80.07 2543.99,-68.57 2456.11,-66.91"/>
<polygon fill="midnightblue" stroke="midnightblue" points="2456.07,-63.41 2446.02,-66.76 2455.97,-70.41 2456.07,-63.41"/>
</g>
<!-- Node20 -->
<g id="node20" class="node">
<title>Node20</title>
<g id="a_node20"><a xlink:href="branch__and__exchange_8hpp.html" target="_top" xlink:title="This file defines a branch and exchange instruction (BX).">
<polygon fill="none" stroke="black" points="2693.5,-118 2693.5,-137 2839.5,-137 2839.5,-118 2693.5,-118"/>
<text text-anchor="middle" x="2766.5" y="-125" font-family="Helvetica,sans-Serif" font-size="10.00">branch_and_exchange.hpp</text>
</a>
</g>
</g>
<!-- Node18&#45;&gt;Node20 -->
<g id="edge21" class="edge">
<title>Node18&#45;&gt;Node20</title>
<path fill="none" stroke="midnightblue" d="M2343.09,-184.32C2408.78,-177.23 2556.04,-160.77 2679.5,-143 2688.63,-141.69 2698.27,-140.19 2707.69,-138.67"/>
<polygon fill="midnightblue" stroke="midnightblue" points="2708.48,-142.08 2717.78,-137.01 2707.35,-135.18 2708.48,-142.08"/>
</g>
<!-- Node21 -->
<g id="node21" class="node">
<title>Node21</title>
<g id="a_node21"><a xlink:href="branch_8hpp.html" target="_top" xlink:title="This file defines a branch instruction (B, BL).">
<polygon fill="none" stroke="black" points="2858,-118 2858,-137 2929,-137 2929,-118 2858,-118"/>
<text text-anchor="middle" x="2893.5" y="-125" font-family="Helvetica,sans-Serif" font-size="10.00">branch.hpp</text>
</a>
</g>
</g>
<!-- Node18&#45;&gt;Node21 -->
<g id="edge23" class="edge">
<title>Node18&#45;&gt;Node21</title>
<path fill="none" stroke="midnightblue" d="M2343.31,-187.84C2429.71,-186.85 2660.55,-180.6 2848.5,-143 2852.46,-142.21 2856.56,-141.18 2860.6,-140.05"/>
<polygon fill="midnightblue" stroke="midnightblue" points="2861.87,-143.32 2870.41,-137.06 2859.83,-136.63 2861.87,-143.32"/>
</g>
<!-- Node22 -->
<g id="node22" class="node">
<title>Node22</title>
<g id="a_node22"><a xlink:href="data__processing_8hpp.html" target="_top" xlink:title="This file defines a data processing instruction.">
<polygon fill="none" stroke="black" points="2947,-118 2947,-137 3064,-137 3064,-118 2947,-118"/>
<text text-anchor="middle" x="3005.5" y="-125" font-family="Helvetica,sans-Serif" font-size="10.00">data_processing.hpp</text>
</a>
</g>
</g>
<!-- Node18&#45;&gt;Node22 -->
<g id="edge25" class="edge">
<title>Node18&#45;&gt;Node22</title>
<path fill="none" stroke="midnightblue" d="M2343.17,-187.25C2438.6,-184.81 2712.99,-175.29 2938.5,-143 2945.71,-141.97 2953.3,-140.6 2960.68,-139.12"/>
<polygon fill="midnightblue" stroke="midnightblue" points="2961.48,-142.52 2970.55,-137.04 2960.04,-135.67 2961.48,-142.52"/>
</g>
<!-- Node23 -->
<g id="node23" class="node">
<title>Node23</title>
<g id="a_node23"><a xlink:href="multiply_8hpp.html" target="_top" xlink:title="This file defines a multiplication instruction (MUL, MLA).">
<polygon fill="none" stroke="black" points="3082,-118 3082,-137 3159,-137 3159,-118 3082,-118"/>
<text text-anchor="middle" x="3120.5" y="-125" font-family="Helvetica,sans-Serif" font-size="10.00">multiply.hpp</text>
</a>
</g>
</g>
<!-- Node18&#45;&gt;Node23 -->
<g id="edge27" class="edge">
<title>Node18&#45;&gt;Node23</title>
<path fill="none" stroke="midnightblue" d="M2343.28,-187.06C2473.26,-183.4 2930.31,-168.91 3073.5,-143 3077.97,-142.19 3082.61,-141.09 3087.16,-139.86"/>
<polygon fill="midnightblue" stroke="midnightblue" points="3088.26,-143.18 3096.87,-137.01 3086.28,-136.47 3088.26,-143.18"/>
</g>
<!-- Node24 -->
<g id="node24" class="node">
<title>Node24</title>
<g id="a_node24"><a xlink:href="multiply__long_8hpp.html" target="_top" xlink:title="This file defines a multiplication (long) instruction.">
<polygon fill="none" stroke="black" points="1574.5,-118 1574.5,-137 1678.5,-137 1678.5,-118 1574.5,-118"/>
<text text-anchor="middle" x="1626.5" y="-125" font-family="Helvetica,sans-Serif" font-size="10.00">multiply_long.hpp</text>
</a>
</g>
</g>
<!-- Node18&#45;&gt;Node24 -->
<g id="edge29" class="edge">
<title>Node18&#45;&gt;Node24</title>
<path fill="none" stroke="midnightblue" d="M2273.67,-187.39C2179.07,-185.32 1909.62,-176.67 1688.5,-143 1682.12,-142.03 1675.42,-140.75 1668.88,-139.34"/>
<polygon fill="midnightblue" stroke="midnightblue" points="1669.34,-135.86 1658.81,-137.07 1667.8,-142.69 1669.34,-135.86"/>
</g>
<!-- Node25 -->
<g id="node25" class="node">
<title>Node25</title>
<g id="a_node25"><a xlink:href="single__data__transfer_8hpp.html" target="_top" xlink:title=" ">
<polygon fill="none" stroke="black" points="1697,-118 1697,-137 1834,-137 1834,-118 1697,-118"/>
<text text-anchor="middle" x="1765.5" y="-125" font-family="Helvetica,sans-Serif" font-size="10.00">single_data_transfer.hpp</text>
</a>
</g>
</g>
<!-- Node18&#45;&gt;Node25 -->
<g id="edge31" class="edge">
<title>Node18&#45;&gt;Node25</title>
<path fill="none" stroke="midnightblue" d="M2273.96,-185.69C2196.62,-180.3 2003.72,-165.6 1843.5,-143 1835.07,-141.81 1826.16,-140.35 1817.5,-138.82"/>
<polygon fill="midnightblue" stroke="midnightblue" points="1817.95,-135.34 1807.49,-137 1816.7,-142.23 1817.95,-135.34"/>
</g>
<!-- Node26 -->
<g id="node26" class="node">
<title>Node26</title>
<g id="a_node26"><a xlink:href="block__data__transfer_8hpp.html" target="_top" xlink:title="This file defines a block data transfer instruction (LDM, STM).">
<polygon fill="none" stroke="black" points="1852.5,-118 1852.5,-137 1986.5,-137 1986.5,-118 1852.5,-118"/>
<text text-anchor="middle" x="1919.5" y="-125" font-family="Helvetica,sans-Serif" font-size="10.00">block_data_transfer.hpp</text>
</a>
</g>
</g>
<!-- Node18&#45;&gt;Node26 -->
<g id="edge33" class="edge">
<title>Node18&#45;&gt;Node26</title>
<path fill="none" stroke="midnightblue" d="M2273.8,-183.49C2216.12,-175.88 2096.92,-159.69 1996.5,-143 1988.86,-141.73 1980.8,-140.31 1972.9,-138.86"/>
<polygon fill="midnightblue" stroke="midnightblue" points="1973.48,-135.41 1963.01,-137.03 1972.21,-142.29 1973.48,-135.41"/>
</g>
<!-- Node27 -->
<g id="node27" class="node">
<title>Node27</title>
<g id="a_node27"><a xlink:href="halfword__data__transfer_8hpp.html" target="_top" xlink:title="This file defines a Halfword data transfer instruction.">
<polygon fill="none" stroke="black" points="2005,-118 2005,-137 2154,-137 2154,-118 2005,-118"/>
<text text-anchor="middle" x="2079.5" y="-125" font-family="Helvetica,sans-Serif" font-size="10.00">halfword_data_transfer.hpp</text>
</a>
</g>
</g>
<!-- Node18&#45;&gt;Node27 -->
<g id="edge35" class="edge">
<title>Node18&#45;&gt;Node27</title>
<path fill="none" stroke="midnightblue" d="M2275.69,-179.48C2235.3,-168.98 2166.62,-151.14 2122.17,-139.59"/>
<polygon fill="midnightblue" stroke="midnightblue" points="2122.81,-136.14 2112.25,-137.01 2121.05,-142.91 2122.81,-136.14"/>
</g>
<!-- Node28 -->
<g id="node28" class="node">
<title>Node28</title>
<g id="a_node28"><a xlink:href="extend_8hpp.html" target="_top" xlink:title="This file defines an extend instruction.">
<polygon fill="none" stroke="black" points="2172,-118 2172,-137 2243,-137 2243,-118 2172,-118"/>
<text text-anchor="middle" x="2207.5" y="-125" font-family="Helvetica,sans-Serif" font-size="10.00">extend.hpp</text>
</a>
</g>
</g>
<!-- Node18&#45;&gt;Node28 -->
<g id="edge37" class="edge">
<title>Node18&#45;&gt;Node28</title>
<path fill="none" stroke="midnightblue" d="M2294.03,-179.48C2277.53,-169.75 2250.32,-153.73 2230.82,-142.24"/>
<polygon fill="midnightblue" stroke="midnightblue" points="2232.34,-139.07 2221.94,-137.01 2228.78,-145.1 2232.34,-139.07"/>
</g>
<!-- Node29 -->
<g id="node29" class="node">
<title>Node29</title>
<g id="a_node29"><a xlink:href="psr__transfer_8hpp.html" target="_top" xlink:title=" ">
<polygon fill="none" stroke="black" points="2261,-118 2261,-137 2356,-137 2356,-118 2261,-118"/>
<text text-anchor="middle" x="2308.5" y="-125" font-family="Helvetica,sans-Serif" font-size="10.00">psr_transfer.hpp</text>
</a>
</g>
</g>
<!-- Node18&#45;&gt;Node29 -->
<g id="edge39" class="edge">
<title>Node18&#45;&gt;Node29</title>
<path fill="none" stroke="midnightblue" d="M2308.5,-179.48C2308.5,-171.08 2308.5,-157.98 2308.5,-147.16"/>
<polygon fill="midnightblue" stroke="midnightblue" points="2312,-147.01 2308.5,-137.01 2305,-147.01 2312,-147.01"/>
</g>
<!-- Node30 -->
<g id="node30" class="node">
<title>Node30</title>
<g id="a_node30"><a xlink:href="cps_8hpp.html" target="_top" xlink:title="This file defines a change processor state instruction (CPS).">
<polygon fill="none" stroke="black" points="2374.5,-118 2374.5,-137 2428.5,-137 2428.5,-118 2374.5,-118"/>
<text text-anchor="middle" x="2401.5" y="-125" font-family="Helvetica,sans-Serif" font-size="10.00">cps.hpp</text>
</a>
</g>
</g>
<!-- Node18&#45;&gt;Node30 -->
<g id="edge41" class="edge">
<title>Node18&#45;&gt;Node30</title>
<path fill="none" stroke="midnightblue" d="M2321.82,-179.48C2336.88,-169.84 2361.62,-154.02 2379.54,-142.55"/>
<polygon fill="midnightblue" stroke="midnightblue" points="2381.66,-145.35 2388.2,-137.01 2377.89,-139.45 2381.66,-145.35"/>
</g>
<!-- Node31 -->
<g id="node31" class="node">
<title>Node31</title>
<g id="a_node31"><a xlink:href="coprocessor__register__transfer_8hpp.html" target="_top" xlink:title="This file defines a coprocessor register transfer (MRC, MCR).">
<polygon fill="none" stroke="black" points="1254.5,-112.5 1254.5,-142.5 1372.5,-142.5 1372.5,-112.5 1254.5,-112.5"/>
<text text-anchor="start" x="1262.5" y="-130.5" font-family="Helvetica,sans-Serif" font-size="10.00">coprocessor_register</text>
<text text-anchor="middle" x="1313.5" y="-119.5" font-family="Helvetica,sans-Serif" font-size="10.00">_transfer.hpp</text>
</a>
</g>
</g>
<!-- Node18&#45;&gt;Node31 -->
<g id="edge43" class="edge">
<title>Node18&#45;&gt;Node31</title>
<path fill="none" stroke="midnightblue" d="M2273.81,-188.33C2152.42,-189.06 1735.47,-188 1382.89,-143.03"/>
<polygon fill="midnightblue" stroke="midnightblue" points="1383.11,-139.53 1372.74,-141.72 1382.21,-146.47 1383.11,-139.53"/>
</g>
<!-- Node32 -->
<g id="node32" class="node">
<title>Node32</title>
<g id="a_node32"><a xlink:href="coprocessor__data__transfer_8hpp.html" target="_top" xlink:title="This file defines a coprocessor data transfer (LDC, STC).">
<polygon fill="none" stroke="black" points="1390.5,-118 1390.5,-137 1556.5,-137 1556.5,-118 1390.5,-118"/>
<text text-anchor="middle" x="1473.5" y="-125" font-family="Helvetica,sans-Serif" font-size="10.00">coprocessor_data_transfer.hpp</text>
</a>
</g>
</g>
<!-- Node18&#45;&gt;Node32 -->
<g id="edge45" class="edge">
<title>Node18&#45;&gt;Node32</title>
<path fill="none" stroke="midnightblue" d="M2273.96,-187.09C2167.89,-184.02 1837.54,-172.61 1565.5,-143 1554.67,-141.82 1543.17,-140.26 1532.1,-138.6"/>
<polygon fill="midnightblue" stroke="midnightblue" points="1532.5,-135.12 1522.08,-137.05 1531.43,-142.03 1532.5,-135.12"/>
</g>
<!-- Node33 -->
<g id="node33" class="node">
<title>Node33</title>
<g id="a_node33"><a xlink:href="coprocessor__data__operation_8hpp.html" target="_top" xlink:title="This file defines a coprocessor data operation (CDP).">
<polygon fill="none" stroke="black" points="1061,-118 1061,-137 1236,-137 1236,-118 1061,-118"/>
<text text-anchor="middle" x="1148.5" y="-125" font-family="Helvetica,sans-Serif" font-size="10.00">coprocessor_data_operation.hpp</text>
</a>
</g>
</g>
<!-- Node18&#45;&gt;Node33 -->
<g id="edge47" class="edge">
<title>Node18&#45;&gt;Node33</title>
<path fill="none" stroke="midnightblue" d="M2273.99,-187.87C2140.96,-187.08 1648.65,-181.56 1245.5,-143 1233.58,-141.86 1220.89,-140.25 1208.76,-138.52"/>
<polygon fill="midnightblue" stroke="midnightblue" points="1209.12,-135.04 1198.72,-137.04 1208.1,-141.96 1209.12,-135.04"/>
</g>
<!-- Node34 -->
<g id="node34" class="node">
<title>Node34</title>
<g id="a_node34"><a xlink:href="srs_8hpp.html" target="_top" xlink:title=" ">
<polygon fill="none" stroke="black" points="2446.5,-118 2446.5,-137 2498.5,-137 2498.5,-118 2446.5,-118"/>
<text text-anchor="middle" x="2472.5" y="-125" font-family="Helvetica,sans-Serif" font-size="10.00">srs.hpp</text>
</a>
</g>
</g>
<!-- Node18&#45;&gt;Node34 -->
<g id="edge49" class="edge">
<title>Node18&#45;&gt;Node34</title>
<path fill="none" stroke="midnightblue" d="M2334.36,-179.46C2360.51,-170.72 2402.04,-156.52 2437.5,-143 2439.15,-142.37 2440.83,-141.72 2442.53,-141.05"/>
<polygon fill="midnightblue" stroke="midnightblue" points="2444.26,-144.12 2452.22,-137.13 2441.64,-137.63 2444.26,-144.12"/>
</g>
<!-- Node35 -->
<g id="node35" class="node">
<title>Node35</title>
<g id="a_node35"><a xlink:href="rfe_8hpp.html" target="_top" xlink:title=" ">
<polygon fill="none" stroke="black" points="2517,-118 2517,-137 2568,-137 2568,-118 2517,-118"/>
<text text-anchor="middle" x="2542.5" y="-125" font-family="Helvetica,sans-Serif" font-size="10.00">rfe.hpp</text>
</a>
</g>
</g>
<!-- Node18&#45;&gt;Node35 -->
<g id="edge51" class="edge">
<title>Node18&#45;&gt;Node35</title>
<path fill="none" stroke="midnightblue" d="M2343.13,-182.02C2383.21,-174.68 2450.95,-160.96 2507.5,-143 2509.64,-142.32 2511.83,-141.56 2514.02,-140.76"/>
<polygon fill="midnightblue" stroke="midnightblue" points="2515.42,-143.97 2523.46,-137.08 2512.87,-137.45 2515.42,-143.97"/>
</g>
<!-- Node36 -->
<g id="node36" class="node">
<title>Node36</title>
<g id="a_node36"><a xlink:href="clz_8hpp.html" target="_top" xlink:title="This file defines a count leading zeros instruction (CLZ).">
<polygon fill="none" stroke="black" points="2586,-118 2586,-137 2637,-137 2637,-118 2586,-118"/>
<text text-anchor="middle" x="2611.5" y="-125" font-family="Helvetica,sans-Serif" font-size="10.00">clz.hpp</text>
</a>
</g>
</g>
<!-- Node18&#45;&gt;Node36 -->
<g id="edge53" class="edge">
<title>Node18&#45;&gt;Node36</title>
<path fill="none" stroke="midnightblue" d="M2343.06,-184.87C2394.83,-179.59 2495.24,-167.05 2577.5,-143 2579.65,-142.37 2581.85,-141.64 2584.04,-140.86"/>
<polygon fill="midnightblue" stroke="midnightblue" points="2585.43,-144.07 2593.44,-137.14 2582.85,-137.56 2585.43,-144.07"/>
</g>
<!-- Node20&#45;&gt;Node19 -->
<g id="edge22" class="edge">
<title>Node20&#45;&gt;Node19</title>
<path fill="none" stroke="midnightblue" d="M2715.44,-117.95C2703.64,-115.98 2691.13,-113.91 2679.5,-112 2602.06,-99.28 2512.44,-84.82 2456.36,-75.8"/>
<polygon fill="midnightblue" stroke="midnightblue" points="2456.72,-72.32 2446.29,-74.18 2455.61,-79.23 2456.72,-72.32"/>
</g>
<!-- Node21&#45;&gt;Node19 -->
<g id="edge24" class="edge">
<title>Node21&#45;&gt;Node19</title>
<path fill="none" stroke="midnightblue" d="M2869.93,-117.87C2863.1,-115.65 2855.57,-113.48 2848.5,-112 2709.07,-82.86 2541.08,-72.39 2456.24,-68.79"/>
<polygon fill="midnightblue" stroke="midnightblue" points="2456.2,-65.28 2446.07,-68.37 2455.92,-72.28 2456.2,-65.28"/>
</g>
<!-- Node22&#45;&gt;Node19 -->
<g id="edge26" class="edge">
<title>Node22&#45;&gt;Node19</title>
<path fill="none" stroke="midnightblue" d="M2970.19,-117.96C2960.01,-115.75 2948.86,-113.55 2938.5,-112 2763.52,-85.85 2554.02,-73.78 2456.49,-69.25"/>
<polygon fill="midnightblue" stroke="midnightblue" points="2456.43,-65.75 2446.28,-68.79 2456.11,-72.74 2456.43,-65.75"/>
</g>
<!-- Node23&#45;&gt;Node19 -->
<g id="edge28" class="edge">
<title>Node23&#45;&gt;Node19</title>
<path fill="none" stroke="midnightblue" d="M3096.37,-117.88C3089.11,-115.61 3081.06,-113.4 3073.5,-112 2847.45,-70.15 2572.24,-66.04 2456.72,-66.39"/>
<polygon fill="midnightblue" stroke="midnightblue" points="2456.36,-62.89 2446.37,-66.43 2456.39,-69.89 2456.36,-62.89"/>
</g>
<!-- Node24&#45;&gt;Node19 -->
<g id="edge30" class="edge">
<title>Node24&#45;&gt;Node19</title>
<path fill="none" stroke="midnightblue" d="M1658.48,-117.95C1668.07,-115.67 1678.66,-113.45 1688.5,-112 1932.03,-76.09 2226.49,-68.81 2346.55,-67.36"/>
<polygon fill="midnightblue" stroke="midnightblue" points="2346.64,-70.86 2356.6,-67.24 2346.56,-63.86 2346.64,-70.86"/>
</g>
<!-- Node25&#45;&gt;Node19 -->
<g id="edge32" class="edge">
<title>Node25&#45;&gt;Node19</title>
<path fill="none" stroke="midnightblue" d="M1807.07,-117.95C1818.81,-115.76 1831.62,-113.58 1843.5,-112 2027.04,-87.61 2246.43,-74.6 2346.66,-69.54"/>
<polygon fill="midnightblue" stroke="midnightblue" points="2347.04,-73.02 2356.85,-69.03 2346.69,-66.03 2347.04,-73.02"/>
</g>
<!-- Node26&#45;&gt;Node19 -->
<g id="edge34" class="edge">
<title>Node26&#45;&gt;Node19</title>
<path fill="none" stroke="midnightblue" d="M1961.77,-117.95C1973.02,-115.83 1985.2,-113.69 1996.5,-112 2121.22,-93.36 2268.6,-78.86 2346.63,-71.77"/>
<polygon fill="midnightblue" stroke="midnightblue" points="2347.06,-75.25 2356.71,-70.86 2346.44,-68.28 2347.06,-75.25"/>
</g>
<!-- Node27&#45;&gt;Node19 -->
<g id="edge36" class="edge">
<title>Node27&#45;&gt;Node19</title>
<path fill="none" stroke="midnightblue" d="M2125.63,-117.98C2184.03,-107.18 2284.49,-88.62 2346.72,-77.12"/>
<polygon fill="midnightblue" stroke="midnightblue" points="2347.55,-80.53 2356.75,-75.27 2346.28,-73.64 2347.55,-80.53"/>
</g>
<!-- Node28&#45;&gt;Node19 -->
<g id="edge38" class="edge">
<title>Node28&#45;&gt;Node19</title>
<path fill="none" stroke="midnightblue" d="M2233.65,-117.98C2239.82,-116 2246.39,-113.91 2252.5,-112 2289.93,-100.32 2332.79,-87.42 2362.91,-78.44"/>
<polygon fill="midnightblue" stroke="midnightblue" points="2364.02,-81.76 2372.61,-75.55 2362.03,-75.05 2364.02,-81.76"/>
</g>
<!-- Node29&#45;&gt;Node19 -->
<g id="edge40" class="edge">
<title>Node29&#45;&gt;Node19</title>
<path fill="none" stroke="midnightblue" d="M2321.82,-117.98C2336.88,-108.34 2361.62,-92.52 2379.54,-81.05"/>
<polygon fill="midnightblue" stroke="midnightblue" points="2381.66,-83.85 2388.2,-75.51 2377.89,-77.95 2381.66,-83.85"/>
</g>
<!-- Node30&#45;&gt;Node19 -->
<g id="edge42" class="edge">
<title>Node30&#45;&gt;Node19</title>
<path fill="none" stroke="midnightblue" d="M2401.5,-117.98C2401.5,-109.58 2401.5,-96.48 2401.5,-85.66"/>
<polygon fill="midnightblue" stroke="midnightblue" points="2405,-85.51 2401.5,-75.51 2398,-85.51 2405,-85.51"/>
</g>
<!-- Node31&#45;&gt;Node19 -->
<g id="edge44" class="edge">
<title>Node31&#45;&gt;Node19</title>
<path fill="none" stroke="midnightblue" d="M1372.74,-113.26C1375.69,-112.79 1378.63,-112.37 1381.5,-112 1570.79,-87.81 2163.25,-72.48 2346.76,-68.22"/>
<polygon fill="midnightblue" stroke="midnightblue" points="2347.06,-71.71 2356.98,-67.98 2346.9,-64.71 2347.06,-71.71"/>
</g>
<!-- Node32&#45;&gt;Node19 -->
<g id="edge46" class="edge">
<title>Node32&#45;&gt;Node19</title>
<path fill="none" stroke="midnightblue" d="M1521.6,-117.97C1535.71,-115.72 1551.19,-113.51 1565.5,-112 1858.94,-81.06 2212.68,-70.89 2346.58,-68.01"/>
<polygon fill="midnightblue" stroke="midnightblue" points="2347.04,-71.5 2356.96,-67.79 2346.89,-64.5 2347.04,-71.5"/>
</g>
<!-- Node33&#45;&gt;Node19 -->
<g id="edge48" class="edge">
<title>Node33&#45;&gt;Node19</title>
<path fill="none" stroke="midnightblue" d="M1198.22,-118C1213.36,-115.7 1230.07,-113.45 1245.5,-112 1667.66,-72.35 2179.7,-67.49 2346.28,-67.01"/>
<polygon fill="midnightblue" stroke="midnightblue" points="2346.76,-70.51 2356.75,-66.98 2346.74,-63.51 2346.76,-70.51"/>
</g>
<!-- Node34&#45;&gt;Node19 -->
<g id="edge50" class="edge">
<title>Node34&#45;&gt;Node19</title>
<path fill="none" stroke="midnightblue" d="M2462.33,-117.98C2451.15,-108.61 2432.98,-93.38 2419.41,-82.01"/>
<polygon fill="midnightblue" stroke="midnightblue" points="2421.57,-79.25 2411.65,-75.51 2417.07,-84.61 2421.57,-79.25"/>
</g>
<!-- Node35&#45;&gt;Node19 -->
<g id="edge52" class="edge">
<title>Node35&#45;&gt;Node19</title>
<path fill="none" stroke="midnightblue" d="M2522.3,-117.98C2498.43,-107.9 2458.5,-91.05 2431.13,-79.5"/>
<polygon fill="midnightblue" stroke="midnightblue" points="2432.24,-76.17 2421.66,-75.51 2429.52,-82.62 2432.24,-76.17"/>
</g>
<!-- Node36&#45;&gt;Node19 -->
<g id="edge54" class="edge">
<title>Node36&#45;&gt;Node19</title>
<path fill="none" stroke="midnightblue" d="M2592.64,-117.85C2587.76,-115.78 2582.48,-113.69 2577.5,-112 2536.04,-97.95 2487.8,-85.91 2452.32,-77.83"/>
<polygon fill="midnightblue" stroke="midnightblue" points="2452.73,-74.33 2442.21,-75.55 2451.19,-81.16 2452.73,-74.33"/>
</g>
<!-- Node37&#45;&gt;Node19 -->
<g id="edge56" class="edge">
<title>Node37&#45;&gt;Node19</title>
<path fill="none" stroke="midnightblue" d="M2536.28,-247.28C2716.41,-239.24 3258.04,-206.95 3168.5,-112 3144.09,-86.11 2627.45,-72.12 2456.14,-68.17"/>
<polygon fill="midnightblue" stroke="midnightblue" points="2456.16,-64.67 2446.08,-67.94 2456,-71.67 2456.16,-64.67"/>
</g>
<!-- Node38&#45;&gt;Node16 -->
<g id="edge70" class="edge">
<title>Node38&#45;&gt;Node16</title>
<path fill="none" stroke="midnightblue" d="M696.8,-307.87C664.19,-296.47 606.62,-276.35 569.8,-263.49"/>
<polygon fill="midnightblue" stroke="midnightblue" points="570.6,-260.06 560.01,-260.06 568.29,-266.67 570.6,-260.06"/>
</g>
<!-- Node39 -->
<g id="node39" class="node">
<title>Node39</title>
<g id="a_node39"><a xlink:href="cp15_8hpp.html" target="_top" xlink:title=" ">
<polygon fill="none" stroke="black" points="757.5,-241 757.5,-260 885.5,-260 885.5,-241 757.5,-241"/>
<text text-anchor="middle" x="821.5" y="-248" font-family="Helvetica,sans-Serif" font-size="10.00">coprocessors/cp15.hpp</text>
</a>
</g>
</g>
<!-- Node38&#45;&gt;Node39 -->
<g id="edge58" class="edge">
<title>Node38&#45;&gt;Node39</title>
<path fill="none" stroke="midnightblue" d="M734.99,-307.73C751.55,-296.96 779.88,-278.55 799.59,-265.74"/>
<polygon fill="midnightblue" stroke="midnightblue" points="801.75,-268.51 808.23,-260.13 797.94,-262.64 801.75,-268.51"/>
</g>
<!-- Node42 -->
<g id="node42" class="node">
<title>Node42</title>
<g id="a_node42"><a xlink:href="peripheral_8hpp.html" target="_top" xlink:title=" ">
<polygon fill="none" stroke="black" points="888,-179.5 888,-198.5 1033,-198.5 1033,-179.5 888,-179.5"/>
<text text-anchor="middle" x="960.5" y="-186.5" font-family="Helvetica,sans-Serif" font-size="10.00">peripherals/peripheral.hpp</text>
</a>
</g>
</g>
<!-- Node38&#45;&gt;Node42 -->
<g id="edge68" class="edge">
<title>Node38&#45;&gt;Node42</title>
<path fill="none" stroke="midnightblue" d="M745.4,-307.95C751.29,-305.93 757.61,-303.83 763.5,-302 821.18,-284.14 843.4,-298.17 894.5,-266 918.46,-250.92 938.52,-224.49 950.03,-207.11"/>
<polygon fill="midnightblue" stroke="midnightblue" points="953.08,-208.84 955.51,-198.52 947.18,-205.07 953.08,-208.84"/>
</g>
<!-- Node39&#45;&gt;Node10 -->
<g id="edge67" class="edge">
<title>Node39&#45;&gt;Node10</title>
<path fill="none" stroke="midnightblue" d="M821.22,-240.77C820.35,-226.47 816.8,-197.74 802.5,-179 763.02,-127.26 692.21,-94.97 648.79,-79.03"/>
<polygon fill="midnightblue" stroke="midnightblue" points="649.76,-75.66 639.17,-75.6 647.41,-82.26 649.76,-75.66"/>
</g>
<!-- Node39&#45;&gt;Node12 -->
<g id="edge59" class="edge">
<title>Node39&#45;&gt;Node12</title>
<path fill="none" stroke="midnightblue" d="M821.62,-240.82C821.77,-227.51 821.96,-201.27 821.5,-179 820.37,-124.91 817.21,-61.09 815.55,-29.98"/>
<polygon fill="midnightblue" stroke="midnightblue" points="819.03,-29.54 814.99,-19.74 812.04,-29.92 819.03,-29.54"/>
</g>
<!-- Node40 -->
<g id="node40" class="node">
<title>Node40</title>
<g id="a_node40"><a xlink:title=" ">
<polygon fill="none" stroke="#bfbfbf" points="700,-179.5 700,-198.5 793,-198.5 793,-179.5 700,-179.5"/>
<text text-anchor="middle" x="746.5" y="-186.5" font-family="Helvetica,sans-Serif" font-size="10.00">unordered_map</text>
</a>
</g>
</g>
<!-- Node39&#45;&gt;Node40 -->
<g id="edge60" class="edge">
<title>Node39&#45;&gt;Node40</title>
<path fill="none" stroke="midnightblue" d="M810.75,-240.98C798.95,-231.61 779.76,-216.38 765.42,-205.01"/>
<polygon fill="midnightblue" stroke="midnightblue" points="767.24,-201.98 757.23,-198.51 762.88,-207.47 767.24,-201.98"/>
</g>
<!-- Node41 -->
<g id="node41" class="node">
<title>Node41</title>
<g id="a_node41"><a xlink:href="coprocessor_8hpp.html" target="_top" xlink:title=" ">
<polygon fill="none" stroke="black" points="1097,-179.5 1097,-198.5 1192,-198.5 1192,-179.5 1097,-179.5"/>
<text text-anchor="middle" x="1144.5" y="-186.5" font-family="Helvetica,sans-Serif" font-size="10.00">coprocessor.hpp</text>
</a>
</g>
</g>
<!-- Node39&#45;&gt;Node41 -->
<g id="edge61" class="edge">
<title>Node39&#45;&gt;Node41</title>
<path fill="none" stroke="midnightblue" d="M867.78,-240.98C925.94,-230.26 1025.71,-211.88 1088.23,-200.37"/>
<polygon fill="midnightblue" stroke="midnightblue" points="1089.11,-203.76 1098.31,-198.51 1087.84,-196.88 1089.11,-203.76"/>
</g>
<!-- Node41&#45;&gt;Node9 -->
<g id="edge63" class="edge">
<title>Node41&#45;&gt;Node9</title>
<path fill="none" stroke="midnightblue" d="M1096.83,-183.26C984.78,-172.11 705.73,-144.34 593.93,-133.22"/>
<polygon fill="midnightblue" stroke="midnightblue" points="593.94,-129.7 583.64,-132.2 593.25,-136.67 593.94,-129.7"/>
</g>
<!-- Node41&#45;&gt;Node13 -->
<g id="edge62" class="edge">
<title>Node41&#45;&gt;Node13</title>
<path fill="none" stroke="midnightblue" d="M1115.86,-179.42C1096.07,-172.3 1070.22,-160.48 1052.5,-143 1021.66,-112.57 1031.17,-92.93 1008.5,-56 1002.55,-46.3 995.1,-36.02 988.8,-27.74"/>
<polygon fill="midnightblue" stroke="midnightblue" points="991.42,-25.41 982.52,-19.66 985.89,-29.71 991.42,-25.41"/>
</g>
<!-- Node41&#45;&gt;Node31 -->
<g id="edge64" class="edge">
<title>Node41&#45;&gt;Node31</title>
<path fill="none" stroke="midnightblue" d="M1168.71,-179.48C1193.53,-170.74 1232.81,-156.91 1264.21,-145.86"/>
<polygon fill="midnightblue" stroke="midnightblue" points="1265.4,-149.15 1273.67,-142.52 1263.08,-142.54 1265.4,-149.15"/>
</g>
<!-- Node41&#45;&gt;Node32 -->
<g id="edge65" class="edge">
<title>Node41&#45;&gt;Node32</title>
<path fill="none" stroke="midnightblue" d="M1191.64,-179.48C1251,-168.74 1352.92,-150.31 1416.58,-138.79"/>
<polygon fill="midnightblue" stroke="midnightblue" points="1417.23,-142.23 1426.45,-137.01 1415.99,-135.34 1417.23,-142.23"/>
</g>
<!-- Node41&#45;&gt;Node33 -->
<g id="edge66" class="edge">
<title>Node41&#45;&gt;Node33</title>
<path fill="none" stroke="midnightblue" d="M1145.07,-179.48C1145.64,-171.08 1146.52,-157.98 1147.25,-147.16"/>
<polygon fill="midnightblue" stroke="midnightblue" points="1150.75,-147.22 1147.93,-137.01 1143.76,-146.75 1150.75,-147.22"/>
</g>
<!-- Node42&#45;&gt;Node13 -->
<g id="edge69" class="edge">
<title>Node42&#45;&gt;Node13</title>
<path fill="none" stroke="midnightblue" d="M961.22,-179.46C963.51,-152.43 970.65,-68.24 973.88,-30.11"/>
<polygon fill="midnightblue" stroke="midnightblue" points="977.39,-30.13 974.75,-19.87 970.42,-29.54 977.39,-30.13"/>
</g>
<!-- Node44&#45;&gt;Node9 -->
<g id="edge77" class="edge">
<title>Node44&#45;&gt;Node9</title>
<path fill="none" stroke="midnightblue" d="M640.69,-235.35C627.55,-225.88 610.63,-212.69 597.5,-199 581.72,-182.54 566.82,-160.99 557.24,-146.06"/>
<polygon fill="midnightblue" stroke="midnightblue" points="560.05,-143.94 551.77,-137.33 554.12,-147.66 560.05,-143.94"/>
</g>
<!-- Node44&#45;&gt;Node10 -->
<g id="edge78" class="edge">
<title>Node44&#45;&gt;Node10</title>
<path fill="none" stroke="midnightblue" d="M650.59,-235.29C643.71,-225.59 635.25,-212.16 630.5,-199 616.52,-160.31 612.79,-111.73 611.82,-85.63"/>
<polygon fill="midnightblue" stroke="midnightblue" points="615.32,-85.53 611.55,-75.63 608.32,-85.72 615.32,-85.53"/>
</g>
<!-- Node44&#45;&gt;Node40 -->
<g id="edge75" class="edge">
<title>Node44&#45;&gt;Node40</title>
<path fill="none" stroke="midnightblue" d="M681.64,-235.4C694.89,-226.13 712.18,-214.03 725.58,-204.65"/>
<polygon fill="midnightblue" stroke="midnightblue" points="727.95,-207.26 734.13,-198.66 723.93,-201.53 727.95,-207.26"/>
</g>
<!-- Node44&#45;&gt;Node42 -->
<g id="edge76" class="edge">
<title>Node44&#45;&gt;Node42</title>
<path fill="none" stroke="midnightblue" d="M724.18,-237.03C778.6,-226.2 856.52,-210.69 907.79,-200.49"/>
<polygon fill="midnightblue" stroke="midnightblue" points="908.55,-203.91 917.67,-198.52 907.18,-197.04 908.55,-203.91"/>
</g>
<!-- Node45 -->
<g id="node45" class="node">
<title>Node45</title>
<g id="a_node45"><a xlink:title=" ">
<polygon fill="none" stroke="#bfbfbf" points="639.5,-179.5 639.5,-198.5 681.5,-198.5 681.5,-179.5 639.5,-179.5"/>
<text text-anchor="middle" x="660.5" y="-186.5" font-family="Helvetica,sans-Serif" font-size="10.00">array</text>
</a>
</g>
</g>
<!-- Node44&#45;&gt;Node45 -->
<g id="edge74" class="edge">
<title>Node44&#45;&gt;Node45</title>
<path fill="none" stroke="midnightblue" d="M661.26,-235.4C661.13,-227.47 660.96,-217.46 660.82,-208.86"/>
<polygon fill="midnightblue" stroke="midnightblue" points="664.31,-208.6 660.65,-198.66 657.31,-208.72 664.31,-208.6"/>
</g>
<!-- Node46&#45;&gt;Node13 -->
<g id="edge80" class="edge">
<title>Node46&#45;&gt;Node13</title>
<path fill="none" stroke="midnightblue" d="M888.41,-302.47C938.98,-286.64 1009.8,-255.41 1042.5,-199 1055.48,-176.61 1036.42,-166.91 1026.5,-143 1009.77,-102.7 991.7,-54.77 982.21,-29.21"/>
<polygon fill="midnightblue" stroke="midnightblue" points="985.45,-27.87 978.69,-19.71 978.88,-30.3 985.45,-27.87"/>
</g>
</g>
</svg>
