<?xml version="1.0" encoding="UTF-8" standalone="no"?>
<!DOCTYPE svg PUBLIC "-//W3C//DTD SVG 1.1//EN"
 "http://www.w3.org/Graphics/SVG/1.1/DTD/svg11.dtd">
<!-- Generated by graphviz version 2.43.0 (0)
 -->
<!-- Title: src/core/utils/singleton.hpp Pages: 1 -->
<svg width="1612pt" height="95pt"
 viewBox="0.00 0.00 1612.00 95.00" xmlns="http://www.w3.org/2000/svg" xmlns:xlink="http://www.w3.org/1999/xlink">
<g id="graph0" class="graph" transform="scale(1 1) rotate(0) translate(4 91)">
<title>src/core/utils/singleton.hpp</title>
<!-- Node1 -->
<g id="node1" class="node">
<title>Node1</title>
<g id="a_node1"><a xlink:title="This file defines and implements a generic class that is used to treat other classes as singletons.">
<polygon fill="#bfbfbf" stroke="black" points="719.5,-67.5 719.5,-86.5 867.5,-86.5 867.5,-67.5 719.5,-67.5"/>
<text text-anchor="middle" x="793.5" y="-74.5" font-family="Helvetica,sans-Serif" font-size="10.00">src/core/utils/singleton.hpp</text>
</a>
</g>
</g>
<!-- Node2 -->
<g id="node2" class="node">
<title>Node2</title>
<g id="a_node2"><a xlink:href="context_8cpp.html" target="_top" xlink:title="This file implements the context (registers) of the CPU.">
<polygon fill="none" stroke="black" points="0,-0.5 0,-30.5 113,-30.5 113,-0.5 0,-0.5"/>
<text text-anchor="start" x="8" y="-18.5" font-family="Helvetica,sans-Serif" font-size="10.00">src/core/arm1176jzf</text>
<text text-anchor="middle" x="56.5" y="-7.5" font-family="Helvetica,sans-Serif" font-size="10.00">_s/context.cpp</text>
</a>
</g>
</g>
<!-- Node1&#45;&gt;Node2 -->
<g id="edge1" class="edge">
<title>Node1&#45;&gt;Node2</title>
<path fill="none" stroke="midnightblue" d="M709.17,-74.48C581.44,-71.24 331.51,-61.27 121.5,-31 118.75,-30.6 115.95,-30.15 113.13,-29.67"/>
<polygon fill="midnightblue" stroke="midnightblue" points="709.2,-77.98 719.28,-74.72 709.37,-70.98 709.2,-77.98"/>
</g>
<!-- Node3 -->
<g id="node3" class="node">
<title>Node3</title>
<g id="a_node3"><a xlink:href="core_8cpp.html" target="_top" xlink:title="This file implements the CCPU_Core class defined in core.hpp.">
<polygon fill="none" stroke="black" points="131,-0.5 131,-30.5 244,-30.5 244,-0.5 131,-0.5"/>
<text text-anchor="start" x="139" y="-18.5" font-family="Helvetica,sans-Serif" font-size="10.00">src/core/arm1176jzf</text>
<text text-anchor="middle" x="187.5" y="-7.5" font-family="Helvetica,sans-Serif" font-size="10.00">_s/core.cpp</text>
</a>
</g>
</g>
<!-- Node1&#45;&gt;Node3 -->
<g id="edge2" class="edge">
<title>Node1&#45;&gt;Node3</title>
<path fill="none" stroke="midnightblue" d="M709.28,-72.46C602.69,-67.18 413.68,-55.16 253.5,-31 250.48,-30.55 247.4,-30.03 244.29,-29.48"/>
<polygon fill="midnightblue" stroke="midnightblue" points="709.17,-75.96 719.33,-72.95 709.51,-68.96 709.17,-75.96"/>
</g>
<!-- Node4 -->
<g id="node4" class="node">
<title>Node4</title>
<g id="a_node4"><a xlink:href="cp15_8cpp.html" target="_top" xlink:title="This file implements CP15 (system control coprocessor) as defined in cp15.hpp.">
<polygon fill="none" stroke="black" points="262.5,-0.5 262.5,-30.5 384.5,-30.5 384.5,-0.5 262.5,-0.5"/>
<text text-anchor="start" x="270.5" y="-18.5" font-family="Helvetica,sans-Serif" font-size="10.00">src/core/coprocessors</text>
<text text-anchor="middle" x="323.5" y="-7.5" font-family="Helvetica,sans-Serif" font-size="10.00">/cp15.cpp</text>
</a>
</g>
</g>
<!-- Node1&#45;&gt;Node4 -->
<g id="edge3" class="edge">
<title>Node1&#45;&gt;Node4</title>
<path fill="none" stroke="midnightblue" d="M708.97,-68.77C627.8,-61.29 501.87,-48.28 393.5,-31 390.56,-30.53 387.55,-30.02 384.52,-29.49"/>
<polygon fill="midnightblue" stroke="midnightblue" points="708.86,-72.28 719.13,-69.7 709.49,-65.31 708.86,-72.28"/>
</g>
<!-- Node5 -->
<g id="node5" class="node">
<title>Node5</title>
<g id="a_node5"><a xlink:href="arm__timer_8cpp.html" target="_top" xlink:title="This file implements the ARM timer used in BCM2835 as defined in arm_timer.hpp.">
<polygon fill="none" stroke="black" points="403,-0.5 403,-30.5 516,-30.5 516,-0.5 403,-0.5"/>
<text text-anchor="start" x="411" y="-18.5" font-family="Helvetica,sans-Serif" font-size="10.00">src/core/peripherals</text>
<text text-anchor="middle" x="459.5" y="-7.5" font-family="Helvetica,sans-Serif" font-size="10.00">/arm_timer.cpp</text>
</a>
</g>
</g>
<!-- Node1&#45;&gt;Node5 -->
<g id="edge4" class="edge">
<title>Node1&#45;&gt;Node5</title>
<path fill="none" stroke="midnightblue" d="M727.29,-65.94C672.73,-57.41 593.41,-44.44 524.5,-31 521.78,-30.47 518.99,-29.91 516.18,-29.33"/>
<polygon fill="midnightblue" stroke="midnightblue" points="726.76,-69.4 737.18,-67.48 727.84,-62.48 726.76,-69.4"/>
</g>
<!-- Node6 -->
<g id="node6" class="node">
<title>Node6</title>
<g id="a_node6"><a xlink:href="button_8cpp.html" target="_top" xlink:title="This file implements an external button that can be hooked up to the system as define in button....">
<polygon fill="none" stroke="black" points="534,-0.5 534,-30.5 649,-30.5 649,-0.5 534,-0.5"/>
<text text-anchor="start" x="542" y="-18.5" font-family="Helvetica,sans-Serif" font-size="10.00">src/core/peripherals</text>
<text text-anchor="middle" x="591.5" y="-7.5" font-family="Helvetica,sans-Serif" font-size="10.00">/external/button.cpp</text>
</a>
</g>
</g>
<!-- Node1&#45;&gt;Node6 -->
<g id="edge5" class="edge">
<title>Node1&#45;&gt;Node6</title>
<path fill="none" stroke="midnightblue" d="M754.83,-64.61C721.88,-54.9 674.39,-40.92 639.11,-30.52"/>
<polygon fill="midnightblue" stroke="midnightblue" points="753.98,-68.01 764.56,-67.48 755.95,-61.29 753.98,-68.01"/>
</g>
<!-- Node7 -->
<g id="node7" class="node">
<title>Node7</title>
<g id="a_node7"><a xlink:href="gpio_8cpp.html" target="_top" xlink:title="This file implements the GPIO controller used in BCM2835 (defined in gpio.hpp).">
<polygon fill="none" stroke="black" points="667,-0.5 667,-30.5 780,-30.5 780,-0.5 667,-0.5"/>
<text text-anchor="start" x="675" y="-18.5" font-family="Helvetica,sans-Serif" font-size="10.00">src/core/peripherals</text>
<text text-anchor="middle" x="723.5" y="-7.5" font-family="Helvetica,sans-Serif" font-size="10.00">/gpio.cpp</text>
</a>
</g>
</g>
<!-- Node1&#45;&gt;Node7 -->
<g id="edge6" class="edge">
<title>Node1&#45;&gt;Node7</title>
<path fill="none" stroke="midnightblue" d="M775.76,-60.92C764.77,-51.58 750.75,-39.66 740,-30.52"/>
<polygon fill="midnightblue" stroke="midnightblue" points="773.58,-63.67 783.47,-67.48 778.12,-58.33 773.58,-63.67"/>
</g>
<!-- Node8 -->
<g id="node8" class="node">
<title>Node8</title>
<g id="a_node8"><a xlink:href="interrupt__controller_8cpp.html" target="_top" xlink:title="This file implements the interrupt controller used in BCM2835 (defined in interrupt_controller....">
<polygon fill="none" stroke="black" points="798,-0.5 798,-30.5 931,-30.5 931,-0.5 798,-0.5"/>
<text text-anchor="start" x="806" y="-18.5" font-family="Helvetica,sans-Serif" font-size="10.00">src/core/peripherals</text>
<text text-anchor="middle" x="864.5" y="-7.5" font-family="Helvetica,sans-Serif" font-size="10.00">/interrupt_controller.cpp</text>
</a>
</g>
</g>
<!-- Node1&#45;&gt;Node8 -->
<g id="edge7" class="edge">
<title>Node1&#45;&gt;Node8</title>
<path fill="none" stroke="midnightblue" d="M811.49,-60.92C822.64,-51.58 836.86,-39.66 847.77,-30.52"/>
<polygon fill="midnightblue" stroke="midnightblue" points="809.09,-58.37 803.67,-67.48 813.59,-63.73 809.09,-58.37"/>
</g>
<!-- Node9 -->
<g id="node9" class="node">
<title>Node9</title>
<g id="a_node9"><a xlink:href="elf__loader_8cpp.html" target="_top" xlink:title="This file implements the functionality of an ELF loader defined in elf_loader.hpp.">
<polygon fill="none" stroke="black" points="949,-0.5 949,-30.5 1044,-30.5 1044,-0.5 949,-0.5"/>
<text text-anchor="start" x="957" y="-18.5" font-family="Helvetica,sans-Serif" font-size="10.00">src/core/utils/elf</text>
<text text-anchor="middle" x="996.5" y="-7.5" font-family="Helvetica,sans-Serif" font-size="10.00">_loader.cpp</text>
</a>
</g>
</g>
<!-- Node1&#45;&gt;Node9 -->
<g id="edge8" class="edge">
<title>Node1&#45;&gt;Node9</title>
<path fill="none" stroke="midnightblue" d="M832.36,-64.61C865.48,-54.9 913.2,-40.92 948.66,-30.52"/>
<polygon fill="midnightblue" stroke="midnightblue" points="831.2,-61.3 822.58,-67.48 833.17,-68.02 831.2,-61.3"/>
</g>
<!-- Node10 -->
<g id="node10" class="node">
<title>Node10</title>
<g id="a_node10"><a xlink:href="gui_8cpp.html" target="_top" xlink:title=" ">
<polygon fill="none" stroke="black" points="1062,-6 1062,-25 1149,-25 1149,-6 1062,-6"/>
<text text-anchor="middle" x="1105.5" y="-13" font-family="Helvetica,sans-Serif" font-size="10.00">src/gui/gui.cpp</text>
</a>
</g>
</g>
<!-- Node1&#45;&gt;Node10 -->
<g id="edge9" class="edge">
<title>Node1&#45;&gt;Node10</title>
<path fill="none" stroke="midnightblue" d="M862.59,-65.98C915.2,-57.88 989.27,-45.48 1053.5,-31 1061.09,-29.29 1069.22,-27.16 1076.75,-25.07"/>
<polygon fill="midnightblue" stroke="midnightblue" points="862.05,-62.52 852.69,-67.49 863.11,-69.44 862.05,-62.52"/>
</g>
<!-- Node11 -->
<g id="node11" class="node">
<title>Node11</title>
<g id="a_node11"><a xlink:href="control__window_8cpp.html" target="_top" xlink:title=" ">
<polygon fill="none" stroke="black" points="1167,-0.5 1167,-30.5 1298,-30.5 1298,-0.5 1167,-0.5"/>
<text text-anchor="start" x="1175" y="-18.5" font-family="Helvetica,sans-Serif" font-size="10.00">src/gui/windows/control</text>
<text text-anchor="middle" x="1232.5" y="-7.5" font-family="Helvetica,sans-Serif" font-size="10.00">_window.cpp</text>
</a>
</g>
</g>
<!-- Node1&#45;&gt;Node11 -->
<g id="edge10" class="edge">
<title>Node1&#45;&gt;Node11</title>
<path fill="none" stroke="midnightblue" d="M878.03,-67.3C952.16,-59.25 1062.75,-46.26 1158.5,-31 1161.21,-30.57 1163.98,-30.11 1166.78,-29.63"/>
<polygon fill="midnightblue" stroke="midnightblue" points="877.38,-63.84 867.82,-68.4 878.14,-70.8 877.38,-63.84"/>
</g>
<!-- Node12 -->
<g id="node12" class="node">
<title>Node12</title>
<g id="a_node12"><a xlink:href="file__window_8cpp.html" target="_top" xlink:title=" ">
<polygon fill="none" stroke="black" points="1316,-0.5 1316,-30.5 1429,-30.5 1429,-0.5 1316,-0.5"/>
<text text-anchor="start" x="1324" y="-18.5" font-family="Helvetica,sans-Serif" font-size="10.00">src/gui/windows/file</text>
<text text-anchor="middle" x="1372.5" y="-7.5" font-family="Helvetica,sans-Serif" font-size="10.00">_window.cpp</text>
</a>
</g>
</g>
<!-- Node1&#45;&gt;Node12 -->
<g id="edge11" class="edge">
<title>Node1&#45;&gt;Node12</title>
<path fill="none" stroke="midnightblue" d="M878.19,-72.02C980.41,-66.43 1157.3,-54.22 1307.5,-31 1310.24,-30.58 1313.04,-30.1 1315.86,-29.6"/>
<polygon fill="midnightblue" stroke="midnightblue" points="877.72,-68.54 867.92,-72.58 878.1,-75.53 877.72,-68.54"/>
</g>
<!-- Node13 -->
<g id="node13" class="node">
<title>Node13</title>
<g id="a_node13"><a xlink:href="button__window_8cpp.html" target="_top" xlink:title=" ">
<polygon fill="none" stroke="black" points="1447,-0.5 1447,-30.5 1604,-30.5 1604,-0.5 1447,-0.5"/>
<text text-anchor="start" x="1455" y="-18.5" font-family="Helvetica,sans-Serif" font-size="10.00">src/gui/windows/peripherals</text>
<text text-anchor="middle" x="1525.5" y="-7.5" font-family="Helvetica,sans-Serif" font-size="10.00">/external/button_window.cpp</text>
</a>
</g>
</g>
<!-- Node1&#45;&gt;Node13 -->
<g id="edge12" class="edge">
<title>Node1&#45;&gt;Node13</title>
<path fill="none" stroke="midnightblue" d="M877.85,-72.69C1001.27,-67.26 1238.17,-54.63 1438.5,-31 1441.24,-30.68 1444.02,-30.33 1446.83,-29.96"/>
<polygon fill="midnightblue" stroke="midnightblue" points="877.55,-69.2 867.72,-73.13 877.86,-76.19 877.55,-69.2"/>
</g>
</g>
</svg>
