<?xml version="1.0" encoding="UTF-8" standalone="no"?>
<!DOCTYPE svg PUBLIC "-//W3C//DTD SVG 1.1//EN"
 "http://www.w3.org/Graphics/SVG/1.1/DTD/svg11.dtd">
<!-- Generated by graphviz version 2.43.0 (0)
 -->
<!-- Title: src/gui/windows/source_code_window.hpp Pages: 1 -->
<svg width="2875pt" height="464pt"
 viewBox="0.00 0.00 2874.54 464.00" xmlns="http://www.w3.org/2000/svg" xmlns:xlink="http://www.w3.org/1999/xlink">
<g id="graph0" class="graph" transform="scale(1 1) rotate(0) translate(4 460)">
<title>src/gui/windows/source_code_window.hpp</title>
<!-- Node1 -->
<g id="node1" class="node">
<title>Node1</title>
<g id="a_node1"><a xlink:title=" ">
<polygon fill="#bfbfbf" stroke="black" points="49.5,-425.5 49.5,-455.5 179.5,-455.5 179.5,-425.5 49.5,-425.5"/>
<text text-anchor="start" x="57.5" y="-443.5" font-family="Helvetica,sans-Serif" font-size="10.00">src/gui/windows/source</text>
<text text-anchor="middle" x="114.5" y="-432.5" font-family="Helvetica,sans-Serif" font-size="10.00">_code_window.hpp</text>
</a>
</g>
</g>
<!-- Node2 -->
<g id="node2" class="node">
<title>Node2</title>
<g id="a_node2"><a xlink:title=" ">
<polygon fill="none" stroke="#bfbfbf" points="143,-179.5 143,-198.5 236,-198.5 236,-179.5 143,-179.5"/>
<text text-anchor="middle" x="189.5" y="-186.5" font-family="Helvetica,sans-Serif" font-size="10.00">unordered_map</text>
</a>
</g>
</g>
<!-- Node1&#45;&gt;Node2 -->
<g id="edge1" class="edge">
<title>Node1&#45;&gt;Node2</title>
<path fill="none" stroke="midnightblue" d="M107.59,-425.31C103.15,-415.4 97.81,-401.72 95.5,-389 93.03,-375.44 93.44,-371.62 95.5,-358 104.04,-301.42 101.35,-282.33 133.5,-235 141.85,-222.71 154.56,-212.11 165.76,-204.29"/>
<polygon fill="midnightblue" stroke="midnightblue" points="167.9,-207.07 174.31,-198.64 164.04,-201.24 167.9,-207.07"/>
</g>
<!-- Node3 -->
<g id="node3" class="node">
<title>Node3</title>
<g id="a_node3"><a xlink:href="window_8hpp.html" target="_top" xlink:title=" ">
<polygon fill="none" stroke="black" points="0,-56.5 0,-75.5 83,-75.5 83,-56.5 0,-56.5"/>
<text text-anchor="middle" x="41.5" y="-63.5" font-family="Helvetica,sans-Serif" font-size="10.00">../window.hpp</text>
</a>
</g>
</g>
<!-- Node1&#45;&gt;Node3 -->
<g id="edge2" class="edge">
<title>Node1&#45;&gt;Node3</title>
<path fill="none" stroke="midnightblue" d="M99.48,-425.23C77.34,-402.55 38.5,-355.89 38.5,-307.5 38.5,-307.5 38.5,-307.5 38.5,-188 38.5,-151.7 39.87,-109.3 40.75,-85.56"/>
<polygon fill="midnightblue" stroke="midnightblue" points="44.25,-85.63 41.14,-75.51 37.26,-85.36 44.25,-85.63"/>
</g>
<!-- Node5 -->
<g id="node5" class="node">
<title>Node5</title>
<g id="a_node5"><a xlink:href="core_8hpp.html" target="_top" xlink:title="This file defines a class that represents a CPU core (arm1176jzf_s).">
<polygon fill="none" stroke="black" points="506.5,-358.5 506.5,-388.5 620.5,-388.5 620.5,-358.5 506.5,-358.5"/>
<text text-anchor="start" x="514.5" y="-376.5" font-family="Helvetica,sans-Serif" font-size="10.00">../../core/arm1176jzf</text>
<text text-anchor="middle" x="563.5" y="-365.5" font-family="Helvetica,sans-Serif" font-size="10.00">_s/core.hpp</text>
</a>
</g>
</g>
<!-- Node1&#45;&gt;Node5 -->
<g id="edge4" class="edge">
<title>Node1&#45;&gt;Node5</title>
<path fill="none" stroke="midnightblue" d="M179.79,-430.05C264.28,-417.82 410.75,-396.61 496.21,-384.24"/>
<polygon fill="midnightblue" stroke="midnightblue" points="496.92,-387.67 506.32,-382.78 495.92,-380.75 496.92,-387.67"/>
</g>
<!-- Node42 -->
<g id="node42" class="node">
<title>Node42</title>
<g id="a_node42"><a xlink:href="elf__loader_8hpp.html" target="_top" xlink:title=" ">
<polygon fill="none" stroke="black" points="105,-358.5 105,-388.5 200,-388.5 200,-358.5 105,-358.5"/>
<text text-anchor="start" x="113" y="-376.5" font-family="Helvetica,sans-Serif" font-size="10.00">../../core/utils/elf</text>
<text text-anchor="middle" x="152.5" y="-365.5" font-family="Helvetica,sans-Serif" font-size="10.00">_loader.hpp</text>
</a>
</g>
</g>
<!-- Node1&#45;&gt;Node42 -->
<g id="edge74" class="edge">
<title>Node1&#45;&gt;Node42</title>
<path fill="none" stroke="midnightblue" d="M122.75,-425.4C127.53,-417.22 133.66,-406.73 139.12,-397.39"/>
<polygon fill="midnightblue" stroke="midnightblue" points="142.25,-398.98 144.27,-388.58 136.2,-395.44 142.25,-398.98"/>
</g>
<!-- Node4 -->
<g id="node4" class="node">
<title>Node4</title>
<g id="a_node4"><a xlink:title=" ">
<polygon fill="none" stroke="#bfbfbf" points="88.5,-0.5 88.5,-19.5 146.5,-19.5 146.5,-0.5 88.5,-0.5"/>
<text text-anchor="middle" x="117.5" y="-7.5" font-family="Helvetica,sans-Serif" font-size="10.00">memory</text>
</a>
</g>
</g>
<!-- Node3&#45;&gt;Node4 -->
<g id="edge3" class="edge">
<title>Node3&#45;&gt;Node4</title>
<path fill="none" stroke="midnightblue" d="M53.71,-56.32C65.28,-48.11 82.88,-35.6 96.66,-25.81"/>
<polygon fill="midnightblue" stroke="midnightblue" points="98.94,-28.48 105.07,-19.83 94.89,-22.77 98.94,-28.48"/>
</g>
<!-- Node6 -->
<g id="node6" class="node">
<title>Node6</title>
<g id="a_node6"><a xlink:href="context_8hpp.html" target="_top" xlink:title="This file defines the context (registers) of the CPU.">
<polygon fill="none" stroke="black" points="534.5,-118 534.5,-137 608.5,-137 608.5,-118 534.5,-118"/>
<text text-anchor="middle" x="571.5" y="-125" font-family="Helvetica,sans-Serif" font-size="10.00">context.hpp</text>
</a>
</g>
</g>
<!-- Node5&#45;&gt;Node6 -->
<g id="edge5" class="edge">
<title>Node5&#45;&gt;Node6</title>
<path fill="none" stroke="midnightblue" d="M573.2,-358.21C579.2,-348.47 586.34,-335.03 589.5,-322 604.77,-258.98 586.97,-181.52 577.14,-146.82"/>
<polygon fill="midnightblue" stroke="midnightblue" points="580.47,-145.73 574.29,-137.13 573.76,-147.71 580.47,-145.73"/>
</g>
<!-- Node7 -->
<g id="node7" class="node">
<title>Node7</title>
<g id="a_node7"><a xlink:href="logger_8hpp.html" target="_top" xlink:title=" ">
<polygon fill="none" stroke="black" points="485.5,-56.5 485.5,-75.5 619.5,-75.5 619.5,-56.5 485.5,-56.5"/>
<text text-anchor="middle" x="552.5" y="-63.5" font-family="Helvetica,sans-Serif" font-size="10.00">../utils/logger/logger.hpp</text>
</a>
</g>
</g>
<!-- Node5&#45;&gt;Node7 -->
<g id="edge68" class="edge">
<title>Node5&#45;&gt;Node7</title>
<path fill="none" stroke="midnightblue" d="M592.72,-358.39C628.81,-338.68 685.5,-299.24 685.5,-246 685.5,-246 685.5,-246 685.5,-188 685.5,-133.75 624.22,-97.4 584.85,-79.64"/>
<polygon fill="midnightblue" stroke="midnightblue" points="585.93,-76.3 575.36,-75.53 583.15,-82.72 585.93,-76.3"/>
</g>
<!-- Node13 -->
<g id="node13" class="node">
<title>Node13</title>
<g id="a_node13"><a xlink:href="exceptions_8hpp.html" target="_top" xlink:title="This file defines all exceptions that can be thrown by the CPU during execution.">
<polygon fill="none" stroke="black" points="289,-235.5 289,-254.5 380,-254.5 380,-235.5 289,-235.5"/>
<text text-anchor="middle" x="334.5" y="-242.5" font-family="Helvetica,sans-Serif" font-size="10.00">exceptions.hpp</text>
</a>
</g>
</g>
<!-- Node5&#45;&gt;Node13 -->
<g id="edge13" class="edge">
<title>Node5&#45;&gt;Node13</title>
<path fill="none" stroke="midnightblue" d="M524.03,-358.48C500.73,-349.47 471.08,-336.72 446.5,-322 427.5,-310.62 425.62,-303.72 407.5,-291 391.61,-279.84 372.96,-268.37 358.49,-259.81"/>
<polygon fill="midnightblue" stroke="midnightblue" points="360.05,-256.67 349.65,-254.63 356.51,-262.7 360.05,-256.67"/>
</g>
<!-- Node15 -->
<g id="node15" class="node">
<title>Node15</title>
<g id="a_node15"><a xlink:href="isa_8hpp.html" target="_top" xlink:title="This file is just a helper file for including all ARM instructions supported by the emulator.">
<polygon fill="none" stroke="black" points="1805,-179.5 1805,-198.5 1874,-198.5 1874,-179.5 1805,-179.5"/>
<text text-anchor="middle" x="1839.5" y="-186.5" font-family="Helvetica,sans-Serif" font-size="10.00">isa/isa.hpp</text>
</a>
</g>
</g>
<!-- Node5&#45;&gt;Node15 -->
<g id="edge16" class="edge">
<title>Node5&#45;&gt;Node15</title>
<path fill="none" stroke="midnightblue" d="M613.07,-358.44C639.64,-349.85 672.4,-337.52 699.5,-322 718.42,-311.17 717.32,-299.24 737.5,-291 934.11,-210.68 1613.1,-193.76 1794.59,-190.64"/>
<polygon fill="midnightblue" stroke="midnightblue" points="1794.9,-194.14 1804.84,-190.47 1794.78,-187.14 1794.9,-194.14"/>
</g>
<!-- Node34 -->
<g id="node34" class="node">
<title>Node34</title>
<g id="a_node34"><a xlink:href="isa__decoder_8hpp.html" target="_top" xlink:title="This file defines an instruction decoder.">
<polygon fill="none" stroke="black" points="1787,-235.5 1787,-254.5 1900,-254.5 1900,-235.5 1787,-235.5"/>
<text text-anchor="middle" x="1843.5" y="-242.5" font-family="Helvetica,sans-Serif" font-size="10.00">isa/isa_decoder.hpp</text>
</a>
</g>
</g>
<!-- Node5&#45;&gt;Node34 -->
<g id="edge52" class="edge">
<title>Node5&#45;&gt;Node34</title>
<path fill="none" stroke="midnightblue" d="M620.55,-361.15C655.42,-352.95 700.32,-340.12 737.5,-322 758.68,-311.68 758.24,-298.71 780.5,-291 874.19,-258.54 1558.52,-248.88 1776.79,-246.6"/>
<polygon fill="midnightblue" stroke="midnightblue" points="1776.87,-250.1 1786.83,-246.5 1776.8,-243.1 1776.87,-250.1"/>
</g>
<!-- Node35 -->
<g id="node35" class="node">
<title>Node35</title>
<g id="a_node35"><a xlink:href="bus_8hpp.html" target="_top" xlink:title="This file defines an interface the CPU uses to access different memory&#45;mapped peripherals.">
<polygon fill="none" stroke="black" points="197.5,-297 197.5,-316 261.5,-316 261.5,-297 197.5,-297"/>
<text text-anchor="middle" x="229.5" y="-304" font-family="Helvetica,sans-Serif" font-size="10.00">../bus.hpp</text>
</a>
</g>
</g>
<!-- Node5&#45;&gt;Node35 -->
<g id="edge54" class="edge">
<title>Node5&#45;&gt;Node35</title>
<path fill="none" stroke="midnightblue" d="M506.45,-365.58C446.96,-357.69 351.29,-343.09 270.5,-322 267.46,-321.21 264.32,-320.29 261.2,-319.3"/>
<polygon fill="midnightblue" stroke="midnightblue" points="262.01,-315.88 251.42,-316.02 259.78,-322.52 262.01,-315.88"/>
</g>
<!-- Node39 -->
<g id="node39" class="node">
<title>Node39</title>
<g id="a_node39"><a xlink:href="math_8hpp.html" target="_top" xlink:title="This file defines and implements a variety of handy helper functions that are used throughout the pro...">
<polygon fill="none" stroke="black" points="789.5,-297 789.5,-316 885.5,-316 885.5,-297 789.5,-297"/>
<text text-anchor="middle" x="837.5" y="-304" font-family="Helvetica,sans-Serif" font-size="10.00">../utils/math.hpp</text>
</a>
</g>
</g>
<!-- Node5&#45;&gt;Node39 -->
<g id="edge67" class="edge">
<title>Node5&#45;&gt;Node39</title>
<path fill="none" stroke="midnightblue" d="M620.61,-358.95C671.31,-346.92 744.45,-329.57 791.49,-318.42"/>
<polygon fill="midnightblue" stroke="midnightblue" points="792.48,-321.78 801.4,-316.06 790.86,-314.97 792.48,-321.78"/>
</g>
<!-- Node40 -->
<g id="node40" class="node">
<title>Node40</title>
<g id="a_node40"><a xlink:href="interrupt__controller_8hpp.html" target="_top" xlink:title="This file defines the interrupt controller used BCM2835.">
<polygon fill="none" stroke="black" points="456,-291.5 456,-321.5 581,-321.5 581,-291.5 456,-291.5"/>
<text text-anchor="start" x="464" y="-309.5" font-family="Helvetica,sans-Serif" font-size="10.00">../peripherals/interrupt</text>
<text text-anchor="middle" x="518.5" y="-298.5" font-family="Helvetica,sans-Serif" font-size="10.00">_controller.hpp</text>
</a>
</g>
</g>
<!-- Node5&#45;&gt;Node40 -->
<g id="edge69" class="edge">
<title>Node5&#45;&gt;Node40</title>
<path fill="none" stroke="midnightblue" d="M553.74,-358.4C547.96,-350.05 540.51,-339.29 533.95,-329.81"/>
<polygon fill="midnightblue" stroke="midnightblue" points="536.82,-327.81 528.25,-321.58 531.06,-331.79 536.82,-327.81"/>
</g>
<!-- Node41 -->
<g id="node41" class="node">
<title>Node41</title>
<g id="a_node41"><a xlink:href="system__clock__listener_8hpp.html" target="_top" xlink:title="This file defines an interface for a CPU clock listener.">
<polygon fill="none" stroke="black" points="280,-291.5 280,-321.5 399,-321.5 399,-291.5 280,-291.5"/>
<text text-anchor="start" x="288" y="-309.5" font-family="Helvetica,sans-Serif" font-size="10.00">../peripherals/system</text>
<text text-anchor="middle" x="339.5" y="-298.5" font-family="Helvetica,sans-Serif" font-size="10.00">_clock_listener.hpp</text>
</a>
</g>
</g>
<!-- Node5&#45;&gt;Node41 -->
<g id="edge73" class="edge">
<title>Node5&#45;&gt;Node41</title>
<path fill="none" stroke="midnightblue" d="M515.17,-358.48C480.84,-348.51 434.57,-335.09 398.13,-324.51"/>
<polygon fill="midnightblue" stroke="midnightblue" points="398.71,-321.04 388.13,-321.61 396.76,-327.76 398.71,-321.04"/>
</g>
<!-- Node6&#45;&gt;Node7 -->
<g id="edge6" class="edge">
<title>Node6&#45;&gt;Node7</title>
<path fill="none" stroke="midnightblue" d="M568.78,-117.98C566.07,-109.49 561.83,-96.2 558.35,-85.32"/>
<polygon fill="midnightblue" stroke="midnightblue" points="561.59,-83.97 555.22,-75.51 554.93,-86.1 561.59,-83.97"/>
</g>
<!-- Node7&#45;&gt;Node4 -->
<g id="edge9" class="edge">
<title>Node7&#45;&gt;Node4</title>
<path fill="none" stroke="midnightblue" d="M485.48,-56.68C393.6,-45.27 231.44,-25.14 156.94,-15.9"/>
<polygon fill="midnightblue" stroke="midnightblue" points="156.96,-12.37 146.61,-14.61 156.1,-19.32 156.96,-12.37"/>
</g>
<!-- Node8 -->
<g id="node8" class="node">
<title>Node8</title>
<g id="a_node8"><a xlink:title=" ">
<polygon fill="none" stroke="#bfbfbf" points="429.5,-0.5 429.5,-19.5 477.5,-19.5 477.5,-0.5 429.5,-0.5"/>
<text text-anchor="middle" x="453.5" y="-7.5" font-family="Helvetica,sans-Serif" font-size="10.00">mutex</text>
</a>
</g>
</g>
<!-- Node7&#45;&gt;Node8 -->
<g id="edge7" class="edge">
<title>Node7&#45;&gt;Node8</title>
<path fill="none" stroke="midnightblue" d="M536.59,-56.32C520.86,-47.74 496.56,-34.49 478.29,-24.52"/>
<polygon fill="midnightblue" stroke="midnightblue" points="479.82,-21.37 469.37,-19.65 476.47,-27.52 479.82,-21.37"/>
</g>
<!-- Node9 -->
<g id="node9" class="node">
<title>Node9</title>
<g id="a_node9"><a xlink:title=" ">
<polygon fill="none" stroke="#bfbfbf" points="241,-0.5 241,-19.5 288,-19.5 288,-0.5 241,-0.5"/>
<text text-anchor="middle" x="264.5" y="-7.5" font-family="Helvetica,sans-Serif" font-size="10.00">vector</text>
</a>
</g>
</g>
<!-- Node7&#45;&gt;Node9 -->
<g id="edge8" class="edge">
<title>Node7&#45;&gt;Node9</title>
<path fill="none" stroke="midnightblue" d="M506.87,-56.44C448.85,-45.56 350.02,-27.03 298.31,-17.34"/>
<polygon fill="midnightblue" stroke="midnightblue" points="298.79,-13.87 288.32,-15.47 297.5,-20.75 298.79,-13.87"/>
</g>
<!-- Node10 -->
<g id="node10" class="node">
<title>Node10</title>
<g id="a_node10"><a xlink:title=" ">
<polygon fill="none" stroke="#bfbfbf" points="698.5,-0.5 698.5,-19.5 748.5,-19.5 748.5,-0.5 698.5,-0.5"/>
<text text-anchor="middle" x="723.5" y="-7.5" font-family="Helvetica,sans-Serif" font-size="10.00">cstdint</text>
</a>
</g>
</g>
<!-- Node7&#45;&gt;Node10 -->
<g id="edge10" class="edge">
<title>Node7&#45;&gt;Node10</title>
<path fill="none" stroke="midnightblue" d="M579.6,-56.44C609.08,-47.13 656.32,-32.21 688.58,-22.03"/>
<polygon fill="midnightblue" stroke="midnightblue" points="690,-25.25 698.48,-18.9 687.89,-18.58 690,-25.25"/>
</g>
<!-- Node11 -->
<g id="node11" class="node">
<title>Node11</title>
<g id="a_node11"><a xlink:title=" ">
<polygon fill="none" stroke="#bfbfbf" points="496,-0.5 496,-19.5 569,-19.5 569,-0.5 496,-0.5"/>
<text text-anchor="middle" x="532.5" y="-7.5" font-family="Helvetica,sans-Serif" font-size="10.00">string_view</text>
</a>
</g>
</g>
<!-- Node7&#45;&gt;Node11 -->
<g id="edge11" class="edge">
<title>Node7&#45;&gt;Node11</title>
<path fill="none" stroke="midnightblue" d="M549.2,-56.08C546.52,-48.85 542.65,-38.41 539.31,-29.4"/>
<polygon fill="midnightblue" stroke="midnightblue" points="542.5,-27.91 535.74,-19.75 535.93,-30.34 542.5,-27.91"/>
</g>
<!-- Node12 -->
<g id="node12" class="node">
<title>Node12</title>
<g id="a_node12"><a xlink:title=" ">
<polygon fill="none" stroke="#bfbfbf" points="587,-0.5 587,-19.5 680,-19.5 680,-0.5 587,-0.5"/>
<text text-anchor="middle" x="633.5" y="-7.5" font-family="Helvetica,sans-Serif" font-size="10.00">source_location</text>
</a>
</g>
</g>
<!-- Node7&#45;&gt;Node12 -->
<g id="edge12" class="edge">
<title>Node7&#45;&gt;Node12</title>
<path fill="none" stroke="midnightblue" d="M565.51,-56.32C578.03,-47.98 597.18,-35.21 611.97,-25.35"/>
<polygon fill="midnightblue" stroke="midnightblue" points="614.14,-28.11 620.52,-19.65 610.26,-22.29 614.14,-28.11"/>
</g>
<!-- Node13&#45;&gt;Node6 -->
<g id="edge15" class="edge">
<title>Node13&#45;&gt;Node6</title>
<path fill="none" stroke="midnightblue" d="M335.29,-235.4C337.05,-221.41 342.57,-193.81 359.5,-179 383.71,-157.82 469.29,-142.5 524.03,-134.59"/>
<polygon fill="midnightblue" stroke="midnightblue" points="524.8,-138.02 534.21,-133.16 523.82,-131.09 524.8,-138.02"/>
</g>
<!-- Node14 -->
<g id="node14" class="node">
<title>Node14</title>
<g id="a_node14"><a xlink:title=" ">
<polygon fill="none" stroke="#bfbfbf" points="369,-179.5 369,-198.5 448,-198.5 448,-179.5 369,-179.5"/>
<text text-anchor="middle" x="408.5" y="-186.5" font-family="Helvetica,sans-Serif" font-size="10.00">fmt/format.h</text>
</a>
</g>
</g>
<!-- Node13&#45;&gt;Node14 -->
<g id="edge14" class="edge">
<title>Node13&#45;&gt;Node14</title>
<path fill="none" stroke="midnightblue" d="M346.39,-235.32C357.65,-227.11 374.79,-214.6 388.21,-204.81"/>
<polygon fill="midnightblue" stroke="midnightblue" points="390.38,-207.56 396.39,-198.83 386.25,-201.9 390.38,-207.56"/>
</g>
<!-- Node16 -->
<g id="node16" class="node">
<title>Node16</title>
<g id="a_node16"><a xlink:href="instruction_8hpp.html" target="_top" xlink:title="This file defines the interface of a general ARM instruction.">
<polygon fill="none" stroke="black" points="1934,-56.5 1934,-75.5 2023,-75.5 2023,-56.5 1934,-56.5"/>
<text text-anchor="middle" x="1978.5" y="-63.5" font-family="Helvetica,sans-Serif" font-size="10.00">instruction.hpp</text>
</a>
</g>
</g>
<!-- Node15&#45;&gt;Node16 -->
<g id="edge17" class="edge">
<title>Node15&#45;&gt;Node16</title>
<path fill="none" stroke="midnightblue" d="M1804.7,-187.8C1689.98,-186.76 1329.07,-180.54 1294.5,-143 1285.17,-132.86 1285.08,-122.06 1294.5,-112 1337.14,-66.46 1768.81,-65.33 1923.62,-66.41"/>
<polygon fill="midnightblue" stroke="midnightblue" points="1923.82,-69.92 1933.84,-66.49 1923.87,-62.92 1923.82,-69.92"/>
</g>
<!-- Node17 -->
<g id="node17" class="node">
<title>Node17</title>
<g id="a_node17"><a xlink:href="branch__and__exchange_8hpp.html" target="_top" xlink:title="This file defines a branch and exchange instruction (BX).">
<polygon fill="none" stroke="black" points="1303.5,-118 1303.5,-137 1449.5,-137 1449.5,-118 1303.5,-118"/>
<text text-anchor="middle" x="1376.5" y="-125" font-family="Helvetica,sans-Serif" font-size="10.00">branch_and_exchange.hpp</text>
</a>
</g>
</g>
<!-- Node15&#45;&gt;Node17 -->
<g id="edge18" class="edge">
<title>Node15&#45;&gt;Node17</title>
<path fill="none" stroke="midnightblue" d="M1804.84,-184.54C1737.92,-177.72 1586.36,-161.58 1459.5,-143 1450.77,-141.72 1441.55,-140.24 1432.55,-138.72"/>
<polygon fill="midnightblue" stroke="midnightblue" points="1432.97,-135.25 1422.52,-137.01 1431.79,-142.14 1432.97,-135.25"/>
</g>
<!-- Node18 -->
<g id="node18" class="node">
<title>Node18</title>
<g id="a_node18"><a xlink:href="branch_8hpp.html" target="_top" xlink:title="This file defines a branch instruction (B, BL).">
<polygon fill="none" stroke="black" points="1468,-118 1468,-137 1539,-137 1539,-118 1468,-118"/>
<text text-anchor="middle" x="1503.5" y="-125" font-family="Helvetica,sans-Serif" font-size="10.00">branch.hpp</text>
</a>
</g>
</g>
<!-- Node15&#45;&gt;Node18 -->
<g id="edge20" class="edge">
<title>Node15&#45;&gt;Node18</title>
<path fill="none" stroke="midnightblue" d="M1804.67,-184.42C1749.72,-178.37 1639.78,-164.62 1548.5,-143 1544.85,-142.14 1541.07,-141.12 1537.32,-140.03"/>
<polygon fill="midnightblue" stroke="midnightblue" points="1538.18,-136.63 1527.59,-137.04 1536.12,-143.32 1538.18,-136.63"/>
</g>
<!-- Node19 -->
<g id="node19" class="node">
<title>Node19</title>
<g id="a_node19"><a xlink:href="data__processing_8hpp.html" target="_top" xlink:title="This file defines a data processing instruction.">
<polygon fill="none" stroke="black" points="1557,-118 1557,-137 1674,-137 1674,-118 1557,-118"/>
<text text-anchor="middle" x="1615.5" y="-125" font-family="Helvetica,sans-Serif" font-size="10.00">data_processing.hpp</text>
</a>
</g>
</g>
<!-- Node15&#45;&gt;Node19 -->
<g id="edge22" class="edge">
<title>Node15&#45;&gt;Node19</title>
<path fill="none" stroke="midnightblue" d="M1807.41,-179.48C1767.9,-168.98 1700.72,-151.14 1657.24,-139.59"/>
<polygon fill="midnightblue" stroke="midnightblue" points="1658.1,-136.19 1647.53,-137.01 1656.3,-142.96 1658.1,-136.19"/>
</g>
<!-- Node20 -->
<g id="node20" class="node">
<title>Node20</title>
<g id="a_node20"><a xlink:href="multiply_8hpp.html" target="_top" xlink:title="This file defines a multiplication instruction (MUL, MLA).">
<polygon fill="none" stroke="black" points="1692,-118 1692,-137 1769,-137 1769,-118 1692,-118"/>
<text text-anchor="middle" x="1730.5" y="-125" font-family="Helvetica,sans-Serif" font-size="10.00">multiply.hpp</text>
</a>
</g>
</g>
<!-- Node15&#45;&gt;Node20 -->
<g id="edge24" class="edge">
<title>Node15&#45;&gt;Node20</title>
<path fill="none" stroke="midnightblue" d="M1823.88,-179.48C1805.91,-169.67 1776.18,-153.43 1755.09,-141.92"/>
<polygon fill="midnightblue" stroke="midnightblue" points="1756.54,-138.73 1746.09,-137.01 1753.19,-144.87 1756.54,-138.73"/>
</g>
<!-- Node21 -->
<g id="node21" class="node">
<title>Node21</title>
<g id="a_node21"><a xlink:href="multiply__long_8hpp.html" target="_top" xlink:title="This file defines a multiplication (long) instruction.">
<polygon fill="none" stroke="black" points="1787.5,-118 1787.5,-137 1891.5,-137 1891.5,-118 1787.5,-118"/>
<text text-anchor="middle" x="1839.5" y="-125" font-family="Helvetica,sans-Serif" font-size="10.00">multiply_long.hpp</text>
</a>
</g>
</g>
<!-- Node15&#45;&gt;Node21 -->
<g id="edge26" class="edge">
<title>Node15&#45;&gt;Node21</title>
<path fill="none" stroke="midnightblue" d="M1839.5,-179.48C1839.5,-171.08 1839.5,-157.98 1839.5,-147.16"/>
<polygon fill="midnightblue" stroke="midnightblue" points="1843,-147.01 1839.5,-137.01 1836,-147.01 1843,-147.01"/>
</g>
<!-- Node22 -->
<g id="node22" class="node">
<title>Node22</title>
<g id="a_node22"><a xlink:href="single__data__transfer_8hpp.html" target="_top" xlink:title="This file defines single data transfer instruction (LDR, STR).">
<polygon fill="none" stroke="black" points="1910,-118 1910,-137 2047,-137 2047,-118 1910,-118"/>
<text text-anchor="middle" x="1978.5" y="-125" font-family="Helvetica,sans-Serif" font-size="10.00">single_data_transfer.hpp</text>
</a>
</g>
</g>
<!-- Node15&#45;&gt;Node22 -->
<g id="edge28" class="edge">
<title>Node15&#45;&gt;Node22</title>
<path fill="none" stroke="midnightblue" d="M1859.42,-179.48C1882.95,-169.4 1922.31,-152.55 1949.29,-141"/>
<polygon fill="midnightblue" stroke="midnightblue" points="1950.81,-144.16 1958.62,-137.01 1948.05,-137.73 1950.81,-144.16"/>
</g>
<!-- Node23 -->
<g id="node23" class="node">
<title>Node23</title>
<g id="a_node23"><a xlink:href="block__data__transfer_8hpp.html" target="_top" xlink:title="This file defines a block data transfer instruction (LDM, STM).">
<polygon fill="none" stroke="black" points="2065.5,-118 2065.5,-137 2199.5,-137 2199.5,-118 2065.5,-118"/>
<text text-anchor="middle" x="2132.5" y="-125" font-family="Helvetica,sans-Serif" font-size="10.00">block_data_transfer.hpp</text>
</a>
</g>
</g>
<!-- Node15&#45;&gt;Node23 -->
<g id="edge30" class="edge">
<title>Node15&#45;&gt;Node23</title>
<path fill="none" stroke="midnightblue" d="M1874.26,-180.94C1925.28,-170.58 2020.79,-151.18 2080.27,-139.11"/>
<polygon fill="midnightblue" stroke="midnightblue" points="2081.11,-142.51 2090.22,-137.09 2079.72,-135.65 2081.11,-142.51"/>
</g>
<!-- Node24 -->
<g id="node24" class="node">
<title>Node24</title>
<g id="a_node24"><a xlink:href="halfword__data__transfer_8hpp.html" target="_top" xlink:title="This file defines a Halfword data transfer instruction.">
<polygon fill="none" stroke="black" points="2218,-118 2218,-137 2367,-137 2367,-118 2218,-118"/>
<text text-anchor="middle" x="2292.5" y="-125" font-family="Helvetica,sans-Serif" font-size="10.00">halfword_data_transfer.hpp</text>
</a>
</g>
</g>
<!-- Node15&#45;&gt;Node24 -->
<g id="edge32" class="edge">
<title>Node15&#45;&gt;Node24</title>
<path fill="none" stroke="midnightblue" d="M1874.17,-184.35C1939.64,-177.33 2085.91,-161.04 2208.5,-143 2217.22,-141.72 2226.44,-140.24 2235.44,-138.74"/>
<polygon fill="midnightblue" stroke="midnightblue" points="2236.2,-142.16 2245.47,-137.04 2235.03,-135.26 2236.2,-142.16"/>
</g>
<!-- Node25 -->
<g id="node25" class="node">
<title>Node25</title>
<g id="a_node25"><a xlink:href="extend_8hpp.html" target="_top" xlink:title="This file defines an extend instruction.">
<polygon fill="none" stroke="black" points="2385,-118 2385,-137 2456,-137 2456,-118 2385,-118"/>
<text text-anchor="middle" x="2420.5" y="-125" font-family="Helvetica,sans-Serif" font-size="10.00">extend.hpp</text>
</a>
</g>
</g>
<!-- Node15&#45;&gt;Node25 -->
<g id="edge34" class="edge">
<title>Node15&#45;&gt;Node25</title>
<path fill="none" stroke="midnightblue" d="M1874.14,-187.9C1960.09,-187.04 2189.72,-181.05 2376.5,-143 2380.38,-142.21 2384.39,-141.19 2388.35,-140.05"/>
<polygon fill="midnightblue" stroke="midnightblue" points="2389.43,-143.38 2397.94,-137.06 2387.35,-136.7 2389.43,-143.38"/>
</g>
<!-- Node26 -->
<g id="node26" class="node">
<title>Node26</title>
<g id="a_node26"><a xlink:href="psr__transfer_8hpp.html" target="_top" xlink:title="This file defines a PSR instruction (MRS, MSR).">
<polygon fill="none" stroke="black" points="2474,-118 2474,-137 2569,-137 2569,-118 2474,-118"/>
<text text-anchor="middle" x="2521.5" y="-125" font-family="Helvetica,sans-Serif" font-size="10.00">psr_transfer.hpp</text>
</a>
</g>
</g>
<!-- Node15&#45;&gt;Node26 -->
<g id="edge36" class="edge">
<title>Node15&#45;&gt;Node26</title>
<path fill="none" stroke="midnightblue" d="M1874.02,-187.71C1969.03,-186.45 2242.12,-179.64 2465.5,-143 2471.07,-142.09 2476.9,-140.87 2482.6,-139.54"/>
<polygon fill="midnightblue" stroke="midnightblue" points="2483.79,-142.85 2492.65,-137.04 2482.1,-136.06 2483.79,-142.85"/>
</g>
<!-- Node27 -->
<g id="node27" class="node">
<title>Node27</title>
<g id="a_node27"><a xlink:href="cps_8hpp.html" target="_top" xlink:title="This file defines a change processor state instruction (CPS).">
<polygon fill="none" stroke="black" points="2587.5,-118 2587.5,-137 2641.5,-137 2641.5,-118 2587.5,-118"/>
<text text-anchor="middle" x="2614.5" y="-125" font-family="Helvetica,sans-Serif" font-size="10.00">cps.hpp</text>
</a>
</g>
</g>
<!-- Node15&#45;&gt;Node27 -->
<g id="edge38" class="edge">
<title>Node15&#45;&gt;Node27</title>
<path fill="none" stroke="midnightblue" d="M1874.04,-187.37C2001.02,-184.81 2441.67,-173.86 2578.5,-143 2581.33,-142.36 2584.24,-141.53 2587.1,-140.58"/>
<polygon fill="midnightblue" stroke="midnightblue" points="2588.41,-143.83 2596.55,-137.05 2585.96,-137.27 2588.41,-143.83"/>
</g>
<!-- Node28 -->
<g id="node28" class="node">
<title>Node28</title>
<g id="a_node28"><a xlink:href="coprocessor__register__transfer_8hpp.html" target="_top" xlink:title="This file defines a coprocessor register transfer (MRC, MCR).">
<polygon fill="none" stroke="black" points="945.5,-112.5 945.5,-142.5 1063.5,-142.5 1063.5,-112.5 945.5,-112.5"/>
<text text-anchor="start" x="953.5" y="-130.5" font-family="Helvetica,sans-Serif" font-size="10.00">coprocessor_register</text>
<text text-anchor="middle" x="1004.5" y="-119.5" font-family="Helvetica,sans-Serif" font-size="10.00">_transfer.hpp</text>
</a>
</g>
</g>
<!-- Node15&#45;&gt;Node28 -->
<g id="edge40" class="edge">
<title>Node15&#45;&gt;Node28</title>
<path fill="none" stroke="midnightblue" d="M1804.92,-187.83C1697.72,-186.92 1361.4,-181.1 1073.95,-143.05"/>
<polygon fill="midnightblue" stroke="midnightblue" points="1074.12,-139.54 1063.75,-141.69 1073.19,-146.48 1074.12,-139.54"/>
</g>
<!-- Node29 -->
<g id="node29" class="node">
<title>Node29</title>
<g id="a_node29"><a xlink:href="coprocessor__data__transfer_8hpp.html" target="_top" xlink:title="This file defines a coprocessor data transfer (LDC, STC).">
<polygon fill="none" stroke="black" points="1081.5,-118 1081.5,-137 1247.5,-137 1247.5,-118 1081.5,-118"/>
<text text-anchor="middle" x="1164.5" y="-125" font-family="Helvetica,sans-Serif" font-size="10.00">coprocessor_data_transfer.hpp</text>
</a>
</g>
</g>
<!-- Node15&#45;&gt;Node29 -->
<g id="edge42" class="edge">
<title>Node15&#45;&gt;Node29</title>
<path fill="none" stroke="midnightblue" d="M1804.89,-186.16C1715.04,-181.2 1467.02,-166.33 1261.5,-143 1250.25,-141.72 1238.29,-140.13 1226.76,-138.47"/>
<polygon fill="midnightblue" stroke="midnightblue" points="1227.17,-134.99 1216.77,-137.01 1226.15,-141.92 1227.17,-134.99"/>
</g>
<!-- Node30 -->
<g id="node30" class="node">
<title>Node30</title>
<g id="a_node30"><a xlink:href="coprocessor__data__operation_8hpp.html" target="_top" xlink:title="This file defines a coprocessor data operation (CDP).">
<polygon fill="none" stroke="black" points="752,-118 752,-137 927,-137 927,-118 752,-118"/>
<text text-anchor="middle" x="839.5" y="-125" font-family="Helvetica,sans-Serif" font-size="10.00">coprocessor_data_operation.hpp</text>
</a>
</g>
</g>
<!-- Node15&#45;&gt;Node30 -->
<g id="edge44" class="edge">
<title>Node15&#45;&gt;Node30</title>
<path fill="none" stroke="midnightblue" d="M1804.96,-187.5C1684.79,-185.52 1273.88,-176.54 936.5,-143 924.65,-141.82 912.04,-140.21 899.97,-138.48"/>
<polygon fill="midnightblue" stroke="midnightblue" points="900.38,-135 889.98,-137.01 899.36,-141.93 900.38,-135"/>
</g>
<!-- Node31 -->
<g id="node31" class="node">
<title>Node31</title>
<g id="a_node31"><a xlink:href="srs_8hpp.html" target="_top" xlink:title="This file defines an SRS instruction (store return state onto a stack).">
<polygon fill="none" stroke="black" points="2659.5,-118 2659.5,-137 2711.5,-137 2711.5,-118 2659.5,-118"/>
<text text-anchor="middle" x="2685.5" y="-125" font-family="Helvetica,sans-Serif" font-size="10.00">srs.hpp</text>
</a>
</g>
</g>
<!-- Node15&#45;&gt;Node31 -->
<g id="edge46" class="edge">
<title>Node15&#45;&gt;Node31</title>
<path fill="none" stroke="midnightblue" d="M1874.13,-187.63C2009.02,-185.93 2499.26,-177.47 2650.5,-143 2653.17,-142.39 2655.9,-141.6 2658.6,-140.69"/>
<polygon fill="midnightblue" stroke="midnightblue" points="2659.98,-143.91 2668.08,-137.07 2657.48,-137.37 2659.98,-143.91"/>
</g>
<!-- Node32 -->
<g id="node32" class="node">
<title>Node32</title>
<g id="a_node32"><a xlink:href="rfe_8hpp.html" target="_top" xlink:title="This file defines an RFE instruction (return from exception).">
<polygon fill="none" stroke="black" points="2730,-118 2730,-137 2781,-137 2781,-118 2730,-118"/>
<text text-anchor="middle" x="2755.5" y="-125" font-family="Helvetica,sans-Serif" font-size="10.00">rfe.hpp</text>
</a>
</g>
</g>
<!-- Node15&#45;&gt;Node32 -->
<g id="edge48" class="edge">
<title>Node15&#45;&gt;Node32</title>
<path fill="none" stroke="midnightblue" d="M1874.17,-187.8C2016.36,-186.75 2555.04,-180.33 2720.5,-143 2723.17,-142.4 2725.91,-141.61 2728.61,-140.7"/>
<polygon fill="midnightblue" stroke="midnightblue" points="2729.98,-143.92 2738.08,-137.09 2727.49,-137.38 2729.98,-143.92"/>
</g>
<!-- Node33 -->
<g id="node33" class="node">
<title>Node33</title>
<g id="a_node33"><a xlink:href="clz_8hpp.html" target="_top" xlink:title="This file defines a count leading zeros instruction (CLZ).">
<polygon fill="none" stroke="black" points="2799,-118 2799,-137 2850,-137 2850,-118 2799,-118"/>
<text text-anchor="middle" x="2824.5" y="-125" font-family="Helvetica,sans-Serif" font-size="10.00">clz.hpp</text>
</a>
</g>
</g>
<!-- Node15&#45;&gt;Node33 -->
<g id="edge50" class="edge">
<title>Node15&#45;&gt;Node33</title>
<path fill="none" stroke="midnightblue" d="M1874.13,-188C2023.22,-187.75 2610.96,-184.13 2790.5,-143 2793.02,-142.42 2795.58,-141.67 2798.12,-140.81"/>
<polygon fill="midnightblue" stroke="midnightblue" points="2799.56,-144 2807.6,-137.1 2797.01,-137.48 2799.56,-144"/>
</g>
<!-- Node17&#45;&gt;Node16 -->
<g id="edge19" class="edge">
<title>Node17&#45;&gt;Node16</title>
<path fill="none" stroke="midnightblue" d="M1421.19,-117.96C1433.57,-115.8 1447.03,-113.63 1459.5,-112 1628.06,-90.01 1828.87,-76.05 1923.72,-70.19"/>
<polygon fill="midnightblue" stroke="midnightblue" points="1924.16,-73.67 1933.93,-69.56 1923.73,-66.68 1924.16,-73.67"/>
</g>
<!-- Node18&#45;&gt;Node16 -->
<g id="edge21" class="edge">
<title>Node18&#45;&gt;Node16</title>
<path fill="none" stroke="midnightblue" d="M1527.07,-117.89C1533.91,-115.67 1541.43,-113.49 1548.5,-112 1681.44,-83.94 1841.36,-73.07 1923.64,-69.1"/>
<polygon fill="midnightblue" stroke="midnightblue" points="1923.94,-72.59 1933.77,-68.63 1923.62,-65.6 1923.94,-72.59"/>
</g>
<!-- Node19&#45;&gt;Node16 -->
<g id="edge23" class="edge">
<title>Node19&#45;&gt;Node16</title>
<path fill="none" stroke="midnightblue" d="M1653.54,-117.98C1663.29,-115.91 1673.76,-113.78 1683.5,-112 1766.91,-96.76 1864.25,-82.61 1923.61,-74.39"/>
<polygon fill="midnightblue" stroke="midnightblue" points="1924.46,-77.81 1933.88,-72.97 1923.5,-70.87 1924.46,-77.81"/>
</g>
<!-- Node20&#45;&gt;Node16 -->
<g id="edge25" class="edge">
<title>Node20&#45;&gt;Node16</title>
<path fill="none" stroke="midnightblue" d="M1757.57,-117.95C1764.37,-115.91 1771.68,-113.79 1778.5,-112 1828.47,-98.85 1886.1,-86.14 1926.62,-77.6"/>
<polygon fill="midnightblue" stroke="midnightblue" points="1927.46,-81 1936.53,-75.52 1926.03,-74.15 1927.46,-81"/>
</g>
<!-- Node21&#45;&gt;Node16 -->
<g id="edge27" class="edge">
<title>Node21&#45;&gt;Node16</title>
<path fill="none" stroke="midnightblue" d="M1859.42,-117.98C1882.95,-107.9 1922.31,-91.05 1949.29,-79.5"/>
<polygon fill="midnightblue" stroke="midnightblue" points="1950.81,-82.66 1958.62,-75.51 1948.05,-76.23 1950.81,-82.66"/>
</g>
<!-- Node22&#45;&gt;Node16 -->
<g id="edge29" class="edge">
<title>Node22&#45;&gt;Node16</title>
<path fill="none" stroke="midnightblue" d="M1978.5,-117.98C1978.5,-109.58 1978.5,-96.48 1978.5,-85.66"/>
<polygon fill="midnightblue" stroke="midnightblue" points="1982,-85.51 1978.5,-75.51 1975,-85.51 1982,-85.51"/>
</g>
<!-- Node23&#45;&gt;Node16 -->
<g id="edge31" class="edge">
<title>Node23&#45;&gt;Node16</title>
<path fill="none" stroke="midnightblue" d="M2110.44,-117.98C2084.13,-107.81 2039.99,-90.76 2010.08,-79.2"/>
<polygon fill="midnightblue" stroke="midnightblue" points="2011.11,-75.85 2000.52,-75.51 2008.59,-82.38 2011.11,-75.85"/>
</g>
<!-- Node24&#45;&gt;Node16 -->
<g id="edge33" class="edge">
<title>Node24&#45;&gt;Node16</title>
<path fill="none" stroke="midnightblue" d="M2247.51,-117.98C2191,-107.27 2094.1,-88.91 2033.32,-77.39"/>
<polygon fill="midnightblue" stroke="midnightblue" points="2033.63,-73.88 2023.15,-75.46 2032.32,-80.76 2033.63,-73.88"/>
</g>
<!-- Node25&#45;&gt;Node16 -->
<g id="edge35" class="edge">
<title>Node25&#45;&gt;Node16</title>
<path fill="none" stroke="midnightblue" d="M2397.46,-117.92C2390.77,-115.7 2383.41,-113.51 2376.5,-112 2255.58,-85.54 2110.39,-74.12 2033.14,-69.62"/>
<polygon fill="midnightblue" stroke="midnightblue" points="2033.34,-66.12 2023.16,-69.05 2032.94,-73.11 2033.34,-66.12"/>
</g>
<!-- Node26&#45;&gt;Node16 -->
<g id="edge37" class="edge">
<title>Node26&#45;&gt;Node16</title>
<path fill="none" stroke="midnightblue" d="M2492.05,-117.92C2483.54,-115.71 2474.21,-113.52 2465.5,-112 2310.06,-84.88 2123.66,-73.42 2033.16,-69.18"/>
<polygon fill="midnightblue" stroke="midnightblue" points="2033.28,-65.68 2023.13,-68.72 2032.96,-72.67 2033.28,-65.68"/>
</g>
<!-- Node27&#45;&gt;Node16 -->
<g id="edge39" class="edge">
<title>Node27&#45;&gt;Node16</title>
<path fill="none" stroke="midnightblue" d="M2596.17,-117.85C2590.61,-115.58 2584.41,-113.38 2578.5,-112 2475.71,-88.05 2161.36,-73.87 2033.48,-68.96"/>
<polygon fill="midnightblue" stroke="midnightblue" points="2033.27,-65.45 2023.15,-68.57 2033.01,-72.45 2033.27,-65.45"/>
</g>
<!-- Node28&#45;&gt;Node16 -->
<g id="edge41" class="edge">
<title>Node28&#45;&gt;Node16</title>
<path fill="none" stroke="midnightblue" d="M1063.74,-113.28C1066.7,-112.81 1069.63,-112.38 1072.5,-112 1393.19,-70.12 1782.39,-66.47 1923.82,-66.67"/>
<polygon fill="midnightblue" stroke="midnightblue" points="1923.96,-70.17 1933.97,-66.69 1923.97,-63.17 1923.96,-70.17"/>
</g>
<!-- Node29&#45;&gt;Node16 -->
<g id="edge43" class="edge">
<title>Node29&#45;&gt;Node16</title>
<path fill="none" stroke="midnightblue" d="M1215.99,-117.96C1230.66,-115.76 1246.68,-113.57 1261.5,-112 1507.96,-85.89 1803.8,-73.2 1923.87,-68.83"/>
<polygon fill="midnightblue" stroke="midnightblue" points="1924.05,-72.33 1933.92,-68.47 1923.8,-65.33 1924.05,-72.33"/>
</g>
<!-- Node30&#45;&gt;Node16 -->
<g id="edge45" class="edge">
<title>Node30&#45;&gt;Node16</title>
<path fill="none" stroke="midnightblue" d="M889.72,-117.96C904.73,-115.69 921.25,-113.47 936.5,-112 1312.89,-75.84 1768.58,-68.73 1923.74,-67.34"/>
<polygon fill="midnightblue" stroke="midnightblue" points="1923.98,-70.84 1933.95,-67.25 1923.92,-63.84 1923.98,-70.84"/>
</g>
<!-- Node31&#45;&gt;Node16 -->
<g id="edge47" class="edge">
<title>Node31&#45;&gt;Node16</title>
<path fill="none" stroke="midnightblue" d="M2668.07,-117.97C2662.57,-115.64 2656.39,-113.38 2650.5,-112 2533.71,-84.68 2172.54,-72.25 2033.67,-68.39"/>
<polygon fill="midnightblue" stroke="midnightblue" points="2033.37,-64.88 2023.28,-68.1 2033.18,-71.87 2033.37,-64.88"/>
</g>
<!-- Node32&#45;&gt;Node16 -->
<g id="edge49" class="edge">
<title>Node32&#45;&gt;Node16</title>
<path fill="none" stroke="midnightblue" d="M2738.07,-117.95C2732.57,-115.61 2726.4,-113.36 2720.5,-112 2589.86,-81.87 2182.55,-71.01 2033.69,-67.98"/>
<polygon fill="midnightblue" stroke="midnightblue" points="2033.49,-64.48 2023.43,-67.78 2033.35,-71.48 2033.49,-64.48"/>
</g>
<!-- Node33&#45;&gt;Node16 -->
<g id="edge51" class="edge">
<title>Node33&#45;&gt;Node16</title>
<path fill="none" stroke="midnightblue" d="M2807.6,-117.92C2802.26,-115.59 2796.25,-113.34 2790.5,-112 2646.1,-78.3 2192,-69.61 2033.64,-67.57"/>
<polygon fill="midnightblue" stroke="midnightblue" points="2033.24,-64.07 2023.2,-67.44 2033.15,-71.07 2033.24,-64.07"/>
</g>
<!-- Node34&#45;&gt;Node16 -->
<g id="edge53" class="edge">
<title>Node34&#45;&gt;Node16</title>
<path fill="none" stroke="midnightblue" d="M1900.08,-242.71C2104.28,-237.47 2794.69,-214.57 2859.5,-143 2868.75,-132.79 2868.99,-121.99 2859.5,-112 2830.98,-81.98 2221.79,-70.57 2033.47,-67.75"/>
<polygon fill="midnightblue" stroke="midnightblue" points="2033.3,-64.24 2023.25,-67.6 2033.19,-71.24 2033.3,-64.24"/>
</g>
<!-- Node35&#45;&gt;Node13 -->
<g id="edge66" class="edge">
<title>Node35&#45;&gt;Node13</title>
<path fill="none" stroke="midnightblue" d="M244.54,-296.98C261.78,-287.21 290.24,-271.08 310.53,-259.58"/>
<polygon fill="midnightblue" stroke="midnightblue" points="312.51,-262.48 319.48,-254.51 309.06,-256.39 312.51,-262.48"/>
</g>
<!-- Node36 -->
<g id="node36" class="node">
<title>Node36</title>
<g id="a_node36"><a xlink:href="cp15_8hpp.html" target="_top" xlink:title=" ">
<polygon fill="none" stroke="black" points="142.5,-235.5 142.5,-254.5 270.5,-254.5 270.5,-235.5 142.5,-235.5"/>
<text text-anchor="middle" x="206.5" y="-242.5" font-family="Helvetica,sans-Serif" font-size="10.00">coprocessors/cp15.hpp</text>
</a>
</g>
</g>
<!-- Node35&#45;&gt;Node36 -->
<g id="edge55" class="edge">
<title>Node35&#45;&gt;Node36</title>
<path fill="none" stroke="midnightblue" d="M226.2,-296.98C222.89,-288.4 217.68,-274.93 213.45,-263.98"/>
<polygon fill="midnightblue" stroke="midnightblue" points="216.66,-262.57 209.79,-254.51 210.13,-265.1 216.66,-262.57"/>
</g>
<!-- Node38 -->
<g id="node38" class="node">
<title>Node38</title>
<g id="a_node38"><a xlink:href="peripheral_8hpp.html" target="_top" xlink:title="This file defines an interface for a memory&#45;mapped peripheral.">
<polygon fill="none" stroke="black" points="398,-235.5 398,-254.5 543,-254.5 543,-235.5 398,-235.5"/>
<text text-anchor="middle" x="470.5" y="-242.5" font-family="Helvetica,sans-Serif" font-size="10.00">peripherals/peripheral.hpp</text>
</a>
</g>
</g>
<!-- Node35&#45;&gt;Node38 -->
<g id="edge65" class="edge">
<title>Node35&#45;&gt;Node38</title>
<path fill="none" stroke="midnightblue" d="M252.33,-296.89C258.21,-294.82 264.55,-292.71 270.5,-291 319.05,-277.01 375.26,-264.69 415.7,-256.5"/>
<polygon fill="midnightblue" stroke="midnightblue" points="416.52,-259.91 425.63,-254.51 415.14,-253.05 416.52,-259.91"/>
</g>
<!-- Node36&#45;&gt;Node2 -->
<g id="edge57" class="edge">
<title>Node36&#45;&gt;Node2</title>
<path fill="none" stroke="midnightblue" d="M203.69,-235.08C201.42,-227.85 198.13,-217.41 195.29,-208.4"/>
<polygon fill="midnightblue" stroke="midnightblue" points="198.6,-207.24 192.25,-198.75 191.92,-209.34 198.6,-207.24"/>
</g>
<!-- Node36&#45;&gt;Node7 -->
<g id="edge64" class="edge">
<title>Node36&#45;&gt;Node7</title>
<path fill="none" stroke="midnightblue" d="M223.19,-235.46C278.9,-206.96 458.76,-114.95 526.43,-80.34"/>
<polygon fill="midnightblue" stroke="midnightblue" points="528.27,-83.33 535.57,-75.66 525.08,-77.1 528.27,-83.33"/>
</g>
<!-- Node36&#45;&gt;Node9 -->
<g id="edge56" class="edge">
<title>Node36&#45;&gt;Node9</title>
<path fill="none" stroke="midnightblue" d="M216.5,-235.48C225.49,-227.17 238.23,-213.67 244.5,-199 269.17,-141.23 268.13,-64.78 266.04,-29.85"/>
<polygon fill="midnightblue" stroke="midnightblue" points="269.51,-29.42 265.32,-19.69 262.53,-29.91 269.51,-29.42"/>
</g>
<!-- Node37 -->
<g id="node37" class="node">
<title>Node37</title>
<g id="a_node37"><a xlink:href="coprocessor_8hpp.html" target="_top" xlink:title=" ">
<polygon fill="none" stroke="black" points="753,-179.5 753,-198.5 848,-198.5 848,-179.5 753,-179.5"/>
<text text-anchor="middle" x="800.5" y="-186.5" font-family="Helvetica,sans-Serif" font-size="10.00">coprocessor.hpp</text>
</a>
</g>
</g>
<!-- Node36&#45;&gt;Node37 -->
<g id="edge58" class="edge">
<title>Node36&#45;&gt;Node37</title>
<path fill="none" stroke="midnightblue" d="M270.58,-235.97C273.59,-235.63 276.58,-235.31 279.5,-235 447.42,-217.4 646.32,-201.62 742.57,-194.31"/>
<polygon fill="midnightblue" stroke="midnightblue" points="742.97,-197.79 752.68,-193.54 742.44,-190.81 742.97,-197.79"/>
</g>
<!-- Node37&#45;&gt;Node6 -->
<g id="edge60" class="edge">
<title>Node37&#45;&gt;Node6</title>
<path fill="none" stroke="midnightblue" d="M767.69,-179.48C727.3,-168.98 658.62,-151.14 614.17,-139.59"/>
<polygon fill="midnightblue" stroke="midnightblue" points="614.81,-136.14 604.25,-137.01 613.05,-142.91 614.81,-136.14"/>
</g>
<!-- Node37&#45;&gt;Node10 -->
<g id="edge59" class="edge">
<title>Node37&#45;&gt;Node10</title>
<path fill="none" stroke="midnightblue" d="M783.9,-179.5C770.7,-171.82 752.94,-159.24 743.5,-143 722.61,-107.05 721.18,-56.67 722.19,-29.74"/>
<polygon fill="midnightblue" stroke="midnightblue" points="725.68,-29.91 722.72,-19.74 718.69,-29.54 725.68,-29.91"/>
</g>
<!-- Node37&#45;&gt;Node28 -->
<g id="edge61" class="edge">
<title>Node37&#45;&gt;Node28</title>
<path fill="none" stroke="midnightblue" d="M829.73,-179.48C860.07,-170.63 908.33,-156.55 946.46,-145.43"/>
<polygon fill="midnightblue" stroke="midnightblue" points="947.8,-148.68 956.42,-142.52 945.84,-141.96 947.8,-148.68"/>
</g>
<!-- Node37&#45;&gt;Node29 -->
<g id="edge62" class="edge">
<title>Node37&#45;&gt;Node29</title>
<path fill="none" stroke="midnightblue" d="M848.09,-180.22C913.2,-169.58 1030.17,-150.46 1102.2,-138.68"/>
<polygon fill="midnightblue" stroke="midnightblue" points="1103.19,-142.07 1112.49,-137 1102.06,-135.16 1103.19,-142.07"/>
</g>
<!-- Node37&#45;&gt;Node30 -->
<g id="edge63" class="edge">
<title>Node37&#45;&gt;Node30</title>
<path fill="none" stroke="midnightblue" d="M806.09,-179.48C811.88,-170.64 821.09,-156.59 828.37,-145.48"/>
<polygon fill="midnightblue" stroke="midnightblue" points="831.37,-147.29 833.92,-137.01 825.51,-143.45 831.37,-147.29"/>
</g>
<!-- Node40&#45;&gt;Node6 -->
<g id="edge71" class="edge">
<title>Node40&#45;&gt;Node6</title>
<path fill="none" stroke="midnightblue" d="M530.08,-291.38C537.39,-281.71 546.38,-268.29 551.5,-255 565.57,-218.48 569.75,-172.37 570.98,-147.12"/>
<polygon fill="midnightblue" stroke="midnightblue" points="574.48,-147.23 571.37,-137.11 567.49,-146.96 574.48,-147.23"/>
</g>
<!-- Node40&#45;&gt;Node7 -->
<g id="edge72" class="edge">
<title>Node40&#45;&gt;Node7</title>
<path fill="none" stroke="midnightblue" d="M535.81,-291.43C546.57,-281.99 560.11,-268.8 569.5,-255 599.97,-210.23 606.61,-196.05 617.5,-143 620.27,-129.5 623.89,-124.2 617.5,-112 610.22,-98.11 596.49,-87.65 583.52,-80.33"/>
<polygon fill="midnightblue" stroke="midnightblue" points="584.8,-77.05 574.31,-75.55 581.57,-83.27 584.8,-77.05"/>
</g>
<!-- Node40&#45;&gt;Node38 -->
<g id="edge70" class="edge">
<title>Node40&#45;&gt;Node38</title>
<path fill="none" stroke="midnightblue" d="M507.12,-291.4C500.15,-282.75 491.19,-271.64 483.87,-262.58"/>
<polygon fill="midnightblue" stroke="midnightblue" points="486.49,-260.24 477.48,-254.66 481.04,-264.64 486.49,-260.24"/>
</g>
<!-- Node42&#45;&gt;Node9 -->
<g id="edge75" class="edge">
<title>Node42&#45;&gt;Node9</title>
<path fill="none" stroke="midnightblue" d="M145.35,-358.5C134.34,-335.59 114.5,-288.42 114.5,-246 114.5,-246 114.5,-246 114.5,-126.5 114.5,-68.11 186.74,-35.14 230.96,-20.42"/>
<polygon fill="midnightblue" stroke="midnightblue" points="232.26,-23.68 240.73,-17.31 230.14,-17.01 232.26,-23.68"/>
</g>
<!-- Node42&#45;&gt;Node35 -->
<g id="edge76" class="edge">
<title>Node42&#45;&gt;Node35</title>
<path fill="none" stroke="midnightblue" d="M169.21,-358.4C181.69,-347.86 198.73,-333.48 211.51,-322.69"/>
<polygon fill="midnightblue" stroke="midnightblue" points="213.82,-325.32 219.2,-316.19 209.3,-319.97 213.82,-325.32"/>
</g>
</g>
</svg>
