<?xml version="1.0" encoding="UTF-8" standalone="no"?>
<!DOCTYPE svg PUBLIC "-//W3C//DTD SVG 1.1//EN"
 "http://www.w3.org/Graphics/SVG/1.1/DTD/svg11.dtd">
<!-- Generated by graphviz version 2.43.0 (0)
 -->
<!-- Title: src/gui/windows/source_code_window.cpp Pages: 1 -->
<svg width="2592pt" height="475pt"
 viewBox="0.00 0.00 2591.57 475.00" xmlns="http://www.w3.org/2000/svg" xmlns:xlink="http://www.w3.org/1999/xlink">
<g id="graph0" class="graph" transform="scale(1 1) rotate(0) translate(4 471)">
<title>src/gui/windows/source_code_window.cpp</title>
<!-- Node1 -->
<g id="node1" class="node">
<title>Node1</title>
<g id="a_node1"><a xlink:title=" ">
<polygon fill="#bfbfbf" stroke="black" points="181.05,-436.5 181.05,-466.5 311.05,-466.5 311.05,-436.5 181.05,-436.5"/>
<text text-anchor="start" x="189.05" y="-454.5" font-family="Helvetica,sans-Serif" font-size="10.00">src/gui/windows/source</text>
<text text-anchor="middle" x="246.05" y="-443.5" font-family="Helvetica,sans-Serif" font-size="10.00">_code_window.cpp</text>
</a>
</g>
</g>
<!-- Node2 -->
<g id="node2" class="node">
<title>Node2</title>
<g id="a_node2"><a xlink:title=" ">
<polygon fill="none" stroke="#bfbfbf" points="37.05,-380.5 37.05,-399.5 121.05,-399.5 121.05,-380.5 37.05,-380.5"/>
<text text-anchor="middle" x="79.05" y="-387.5" font-family="Helvetica,sans-Serif" font-size="10.00">imgui/imgui.h</text>
</a>
</g>
</g>
<!-- Node1&#45;&gt;Node2 -->
<g id="edge1" class="edge">
<title>Node1&#45;&gt;Node2</title>
<path fill="none" stroke="midnightblue" d="M206.47,-436.4C177.95,-426.24 139.88,-412.67 112.79,-403.02"/>
<polygon fill="midnightblue" stroke="midnightblue" points="113.94,-399.72 103.35,-399.66 111.6,-406.31 113.94,-399.72"/>
</g>
<!-- Node3 -->
<g id="node3" class="node">
<title>Node3</title>
<g id="a_node3"><a xlink:title=" ">
<polygon fill="none" stroke="#bfbfbf" points="138.55,-380.5 138.55,-399.5 263.55,-399.5 263.55,-380.5 138.55,-380.5"/>
<text text-anchor="middle" x="201.05" y="-387.5" font-family="Helvetica,sans-Serif" font-size="10.00">fmt/include/fmt/core.h</text>
</a>
</g>
</g>
<!-- Node1&#45;&gt;Node3 -->
<g id="edge2" class="edge">
<title>Node1&#45;&gt;Node3</title>
<path fill="none" stroke="midnightblue" d="M235.39,-436.4C228.91,-427.84 220.62,-416.87 213.8,-407.86"/>
<polygon fill="midnightblue" stroke="midnightblue" points="216.42,-405.52 207.6,-399.66 210.84,-409.74 216.42,-405.52"/>
</g>
<!-- Node4 -->
<g id="node4" class="node">
<title>Node4</title>
<g id="a_node4"><a xlink:href="elf__loader_8hpp.html" target="_top" xlink:title="This file defines the functionality of an ELF loader.">
<polygon fill="none" stroke="black" points="232.55,-313.5 232.55,-343.5 327.55,-343.5 327.55,-313.5 232.55,-313.5"/>
<text text-anchor="start" x="240.55" y="-331.5" font-family="Helvetica,sans-Serif" font-size="10.00">../../core/utils/elf</text>
<text text-anchor="middle" x="280.05" y="-320.5" font-family="Helvetica,sans-Serif" font-size="10.00">_loader.hpp</text>
</a>
</g>
</g>
<!-- Node1&#45;&gt;Node4 -->
<g id="edge3" class="edge">
<title>Node1&#45;&gt;Node4</title>
<path fill="none" stroke="midnightblue" d="M255.27,-436.07C261.07,-426.29 268.16,-412.83 272.05,-400 276.59,-385.02 278.59,-367.55 279.46,-353.75"/>
<polygon fill="midnightblue" stroke="midnightblue" points="282.96,-353.73 279.94,-343.58 275.97,-353.4 282.96,-353.73"/>
</g>
<!-- Node17 -->
<g id="node17" class="node">
<title>Node17</title>
<g id="a_node17"><a xlink:href="source__code__window_8hpp.html" target="_top" xlink:title=" ">
<polygon fill="none" stroke="black" points="333.05,-380.5 333.05,-399.5 473.05,-399.5 473.05,-380.5 333.05,-380.5"/>
<text text-anchor="middle" x="403.05" y="-387.5" font-family="Helvetica,sans-Serif" font-size="10.00">source_code_window.hpp</text>
</a>
</g>
</g>
<!-- Node1&#45;&gt;Node17 -->
<g id="edge20" class="edge">
<title>Node1&#45;&gt;Node17</title>
<path fill="none" stroke="midnightblue" d="M283.26,-436.4C309.83,-426.33 345.24,-412.91 370.66,-403.28"/>
<polygon fill="midnightblue" stroke="midnightblue" points="372.09,-406.47 380.21,-399.66 369.61,-399.93 372.09,-406.47"/>
</g>
<!-- Node5 -->
<g id="node5" class="node">
<title>Node5</title>
<g id="a_node5"><a xlink:href="bus_8hpp.html" target="_top" xlink:title="This file defines an interface the CPU uses to access different memory&#45;mapped peripherals.">
<polygon fill="none" stroke="black" points="197.05,-252 197.05,-271 261.05,-271 261.05,-252 197.05,-252"/>
<text text-anchor="middle" x="229.05" y="-259" font-family="Helvetica,sans-Serif" font-size="10.00">../bus.hpp</text>
</a>
</g>
</g>
<!-- Node4&#45;&gt;Node5 -->
<g id="edge4" class="edge">
<title>Node4&#45;&gt;Node5</title>
<path fill="none" stroke="midnightblue" d="M268.98,-313.4C261.11,-303.36 250.5,-289.84 242.2,-279.25"/>
<polygon fill="midnightblue" stroke="midnightblue" points="244.8,-276.9 235.87,-271.19 239.29,-281.22 244.8,-276.9"/>
</g>
<!-- Node6 -->
<g id="node6" class="node">
<title>Node6</title>
<g id="a_node6"><a xlink:href="cp15_8hpp.html" target="_top" xlink:title="This file defines CP15 (system control coprocessor).">
<polygon fill="none" stroke="black" points="423.05,-190.5 423.05,-209.5 551.05,-209.5 551.05,-190.5 423.05,-190.5"/>
<text text-anchor="middle" x="487.05" y="-197.5" font-family="Helvetica,sans-Serif" font-size="10.00">coprocessors/cp15.hpp</text>
</a>
</g>
</g>
<!-- Node5&#45;&gt;Node6 -->
<g id="edge5" class="edge">
<title>Node5&#45;&gt;Node6</title>
<path fill="none" stroke="midnightblue" d="M251.43,-251.97C257.43,-249.85 263.94,-247.71 270.05,-246 322.14,-231.46 382.44,-219.32 426.24,-211.33"/>
<polygon fill="midnightblue" stroke="midnightblue" points="426.94,-214.76 436.16,-209.54 425.7,-207.87 426.94,-214.76"/>
</g>
<!-- Node14 -->
<g id="node14" class="node">
<title>Node14</title>
<g id="a_node14"><a xlink:href="peripheral_8hpp.html" target="_top" xlink:title="This file defines an interface for a memory&#45;mapped peripheral.">
<polygon fill="none" stroke="black" points="81.55,-190.5 81.55,-209.5 226.55,-209.5 226.55,-190.5 81.55,-190.5"/>
<text text-anchor="middle" x="154.05" y="-197.5" font-family="Helvetica,sans-Serif" font-size="10.00">peripherals/peripheral.hpp</text>
</a>
</g>
</g>
<!-- Node5&#45;&gt;Node14 -->
<g id="edge16" class="edge">
<title>Node5&#45;&gt;Node14</title>
<path fill="none" stroke="midnightblue" d="M218.3,-251.98C206.5,-242.61 187.31,-227.38 172.97,-216.01"/>
<polygon fill="midnightblue" stroke="midnightblue" points="174.79,-212.98 164.78,-209.51 170.43,-218.47 174.79,-212.98"/>
</g>
<!-- Node15 -->
<g id="node15" class="node">
<title>Node15</title>
<g id="a_node15"><a xlink:href="exceptions_8hpp.html" target="_top" xlink:title="This file defines all exceptions that can be thrown by the CPU during execution.">
<polygon fill="none" stroke="black" points="245.05,-190.5 245.05,-209.5 405.05,-209.5 405.05,-190.5 245.05,-190.5"/>
<text text-anchor="middle" x="325.05" y="-197.5" font-family="Helvetica,sans-Serif" font-size="10.00">arm1176jzf_s/exceptions.hpp</text>
</a>
</g>
</g>
<!-- Node5&#45;&gt;Node15 -->
<g id="edge17" class="edge">
<title>Node5&#45;&gt;Node15</title>
<path fill="none" stroke="midnightblue" d="M242.8,-251.98C258.42,-242.3 284.11,-226.37 302.63,-214.89"/>
<polygon fill="midnightblue" stroke="midnightblue" points="304.67,-217.75 311.32,-209.51 300.98,-211.8 304.67,-217.75"/>
</g>
<!-- Node7 -->
<g id="node7" class="node">
<title>Node7</title>
<g id="a_node7"><a xlink:href="coprocessor_8hpp.html" target="_top" xlink:title="This file defines a general interface of a coprocessor.">
<polygon fill="none" stroke="black" points="500.55,-134.5 500.55,-153.5 595.55,-153.5 595.55,-134.5 500.55,-134.5"/>
<text text-anchor="middle" x="548.05" y="-141.5" font-family="Helvetica,sans-Serif" font-size="10.00">coprocessor.hpp</text>
</a>
</g>
</g>
<!-- Node6&#45;&gt;Node7 -->
<g id="edge6" class="edge">
<title>Node6&#45;&gt;Node7</title>
<path fill="none" stroke="midnightblue" d="M496.85,-190.32C505.87,-182.34 519.46,-170.31 530.37,-160.65"/>
<polygon fill="midnightblue" stroke="midnightblue" points="532.9,-163.08 538.07,-153.83 528.26,-157.84 532.9,-163.08"/>
</g>
<!-- Node9 -->
<g id="node9" class="node">
<title>Node9</title>
<g id="a_node9"><a xlink:href="logger_8hpp.html" target="_top" xlink:title="This file defines a general logger interface as well as a logging system that is used in the project.">
<polygon fill="none" stroke="black" points="258.05,-0.5 258.05,-19.5 392.05,-19.5 392.05,-0.5 258.05,-0.5"/>
<text text-anchor="middle" x="325.05" y="-7.5" font-family="Helvetica,sans-Serif" font-size="10.00">../utils/logger/logger.hpp</text>
</a>
</g>
</g>
<!-- Node6&#45;&gt;Node9 -->
<g id="edge15" class="edge">
<title>Node6&#45;&gt;Node9</title>
<path fill="none" stroke="midnightblue" d="M476.85,-190.48C466.62,-181.74 450.62,-167.54 438.05,-154 398.2,-111.08 356.91,-55.48 337.09,-27.96"/>
<polygon fill="midnightblue" stroke="midnightblue" points="339.89,-25.86 331.22,-19.77 334.2,-29.94 339.89,-25.86"/>
</g>
<!-- Node8 -->
<g id="node8" class="node">
<title>Node8</title>
<g id="a_node8"><a xlink:href="context_8hpp.html" target="_top" xlink:title="This file defines the context (registers) of the CPU.">
<polygon fill="none" stroke="black" points="181.05,-67.5 181.05,-86.5 333.05,-86.5 333.05,-67.5 181.05,-67.5"/>
<text text-anchor="middle" x="257.05" y="-74.5" font-family="Helvetica,sans-Serif" font-size="10.00">../arm1176jzf_s/context.hpp</text>
</a>
</g>
</g>
<!-- Node7&#45;&gt;Node8 -->
<g id="edge7" class="edge">
<title>Node7&#45;&gt;Node8</title>
<path fill="none" stroke="midnightblue" d="M509.71,-134.44C457.15,-122.7 362.73,-101.61 305.39,-88.8"/>
<polygon fill="midnightblue" stroke="midnightblue" points="306,-85.35 295.48,-86.58 304.47,-92.18 306,-85.35"/>
</g>
<!-- Node10 -->
<g id="node10" class="node">
<title>Node10</title>
<g id="a_node10"><a xlink:href="coprocessor__register__transfer_8hpp.html" target="_top" xlink:title="This file defines a coprocessor register transfer (MRC, MCR).">
<polygon fill="none" stroke="black" points="654.55,-56.5 654.55,-97.5 775.55,-97.5 775.55,-56.5 654.55,-56.5"/>
<text text-anchor="start" x="662.55" y="-85.5" font-family="Helvetica,sans-Serif" font-size="10.00">../arm1176jzf_s/isa</text>
<text text-anchor="start" x="662.55" y="-74.5" font-family="Helvetica,sans-Serif" font-size="10.00">/coprocessor_register</text>
<text text-anchor="middle" x="715.05" y="-63.5" font-family="Helvetica,sans-Serif" font-size="10.00">_transfer.hpp</text>
</a>
</g>
</g>
<!-- Node7&#45;&gt;Node10 -->
<g id="edge9" class="edge">
<title>Node7&#45;&gt;Node10</title>
<path fill="none" stroke="midnightblue" d="M570.23,-134.37C591.84,-125.95 625.68,-112.79 655.21,-101.29"/>
<polygon fill="midnightblue" stroke="midnightblue" points="656.58,-104.51 664.63,-97.63 654.04,-97.99 656.58,-104.51"/>
</g>
<!-- Node12 -->
<g id="node12" class="node">
<title>Node12</title>
<g id="a_node12"><a xlink:href="coprocessor__data__transfer_8hpp.html" target="_top" xlink:title="This file defines a coprocessor data transfer (LDC, STC).">
<polygon fill="none" stroke="black" points="793.55,-62 793.55,-92 962.55,-92 962.55,-62 793.55,-62"/>
<text text-anchor="start" x="801.55" y="-80" font-family="Helvetica,sans-Serif" font-size="10.00">../arm1176jzf_s/isa</text>
<text text-anchor="middle" x="878.05" y="-69" font-family="Helvetica,sans-Serif" font-size="10.00">/coprocessor_data_transfer.hpp</text>
</a>
</g>
</g>
<!-- Node7&#45;&gt;Node12 -->
<g id="edge11" class="edge">
<title>Node7&#45;&gt;Node12</title>
<path fill="none" stroke="midnightblue" d="M594.88,-134.45C642.74,-125.64 719.17,-111.34 785.05,-98 791.16,-96.76 797.49,-95.46 803.84,-94.13"/>
<polygon fill="midnightblue" stroke="midnightblue" points="804.74,-97.51 813.81,-92.03 803.3,-90.66 804.74,-97.51"/>
</g>
<!-- Node13 -->
<g id="node13" class="node">
<title>Node13</title>
<g id="a_node13"><a xlink:href="coprocessor__data__operation_8hpp.html" target="_top" xlink:title="This file defines a coprocessor data operation (CDP).">
<polygon fill="none" stroke="black" points="459.05,-62 459.05,-92 637.05,-92 637.05,-62 459.05,-62"/>
<text text-anchor="start" x="467.05" y="-80" font-family="Helvetica,sans-Serif" font-size="10.00">../arm1176jzf_s/isa</text>
<text text-anchor="middle" x="548.05" y="-69" font-family="Helvetica,sans-Serif" font-size="10.00">/coprocessor_data_operation.hpp</text>
</a>
</g>
</g>
<!-- Node7&#45;&gt;Node13 -->
<g id="edge13" class="edge">
<title>Node7&#45;&gt;Node13</title>
<path fill="none" stroke="midnightblue" d="M548.05,-134.23C548.05,-126.04 548.05,-113.42 548.05,-102.21"/>
<polygon fill="midnightblue" stroke="midnightblue" points="551.55,-102.09 548.05,-92.09 544.55,-102.09 551.55,-102.09"/>
</g>
<!-- Node8&#45;&gt;Node9 -->
<g id="edge8" class="edge">
<title>Node8&#45;&gt;Node9</title>
<path fill="none" stroke="midnightblue" d="M266.22,-67.23C277.03,-56.9 295.2,-39.54 308.49,-26.83"/>
<polygon fill="midnightblue" stroke="midnightblue" points="311.21,-29.07 316.02,-19.63 306.38,-24.01 311.21,-29.07"/>
</g>
<!-- Node11 -->
<g id="node11" class="node">
<title>Node11</title>
<g id="a_node11"><a xlink:href="instruction_8hpp.html" target="_top" xlink:title="This file defines the interface of a general ARM instruction.">
<polygon fill="none" stroke="black" points="1648.55,-0.5 1648.55,-19.5 1737.55,-19.5 1737.55,-0.5 1648.55,-0.5"/>
<text text-anchor="middle" x="1693.05" y="-7.5" font-family="Helvetica,sans-Serif" font-size="10.00">instruction.hpp</text>
</a>
</g>
</g>
<!-- Node10&#45;&gt;Node11 -->
<g id="edge10" class="edge">
<title>Node10&#45;&gt;Node11</title>
<path fill="none" stroke="midnightblue" d="M775.56,-57.79C778.76,-57.12 781.93,-56.52 785.05,-56 950.63,-28.61 1467.75,-15.67 1638.05,-12.08"/>
<polygon fill="midnightblue" stroke="midnightblue" points="1638.36,-15.57 1648.29,-11.86 1638.22,-8.57 1638.36,-15.57"/>
</g>
<!-- Node12&#45;&gt;Node11 -->
<g id="edge12" class="edge">
<title>Node12&#45;&gt;Node11</title>
<path fill="none" stroke="midnightblue" d="M940.04,-62C951.94,-59.69 964.34,-57.55 976.05,-56 1221.73,-23.38 1518,-14.29 1638.31,-11.85"/>
<polygon fill="midnightblue" stroke="midnightblue" points="1638.44,-15.35 1648.37,-11.66 1638.3,-8.35 1638.44,-15.35"/>
</g>
<!-- Node13&#45;&gt;Node11 -->
<g id="edge14" class="edge">
<title>Node13&#45;&gt;Node11</title>
<path fill="none" stroke="midnightblue" d="M609.23,-61.96C621.37,-59.62 634.07,-57.47 646.05,-56 841.01,-32.07 1451.91,-16.49 1638.43,-12.2"/>
<polygon fill="midnightblue" stroke="midnightblue" points="1638.63,-15.7 1648.54,-11.97 1638.47,-8.7 1638.63,-15.7"/>
</g>
<!-- Node15&#45;&gt;Node8 -->
<g id="edge19" class="edge">
<title>Node15&#45;&gt;Node8</title>
<path fill="none" stroke="midnightblue" d="M311.8,-190.23C300.61,-182.12 285.02,-169.09 276.05,-154 265.53,-136.32 260.81,-112.99 258.71,-96.87"/>
<polygon fill="midnightblue" stroke="midnightblue" points="262.15,-96.15 257.59,-86.59 255.19,-96.91 262.15,-96.15"/>
</g>
<!-- Node16 -->
<g id="node16" class="node">
<title>Node16</title>
<g id="a_node16"><a xlink:title=" ">
<polygon fill="none" stroke="#bfbfbf" points="285.55,-134.5 285.55,-153.5 364.55,-153.5 364.55,-134.5 285.55,-134.5"/>
<text text-anchor="middle" x="325.05" y="-141.5" font-family="Helvetica,sans-Serif" font-size="10.00">fmt/format.h</text>
</a>
</g>
</g>
<!-- Node15&#45;&gt;Node16 -->
<g id="edge18" class="edge">
<title>Node15&#45;&gt;Node16</title>
<path fill="none" stroke="midnightblue" d="M325.05,-190.08C325.05,-183.01 325.05,-172.86 325.05,-163.99"/>
<polygon fill="midnightblue" stroke="midnightblue" points="328.55,-163.75 325.05,-153.75 321.55,-163.75 328.55,-163.75"/>
</g>
<!-- Node17&#45;&gt;Node4 -->
<g id="edge70" class="edge">
<title>Node17&#45;&gt;Node4</title>
<path fill="none" stroke="midnightblue" d="M385.43,-380.48C367.99,-372.04 340.73,-358.86 318.31,-348.01"/>
<polygon fill="midnightblue" stroke="midnightblue" points="319.56,-344.73 309.04,-343.52 316.52,-351.03 319.56,-344.73"/>
</g>
<!-- Node18 -->
<g id="node18" class="node">
<title>Node18</title>
<g id="a_node18"><a xlink:title=" ">
<polygon fill="none" stroke="#bfbfbf" points="478.55,-319 478.55,-338 571.55,-338 571.55,-319 478.55,-319"/>
<text text-anchor="middle" x="525.05" y="-326" font-family="Helvetica,sans-Serif" font-size="10.00">unordered_map</text>
</a>
</g>
</g>
<!-- Node17&#45;&gt;Node18 -->
<g id="edge21" class="edge">
<title>Node17&#45;&gt;Node18</title>
<path fill="none" stroke="midnightblue" d="M420.53,-380.48C440.91,-370.53 474.83,-353.99 498.47,-342.46"/>
<polygon fill="midnightblue" stroke="midnightblue" points="500.15,-345.54 507.6,-338.01 497.08,-339.25 500.15,-345.54"/>
</g>
<!-- Node19 -->
<g id="node19" class="node">
<title>Node19</title>
<g id="a_node19"><a xlink:href="window_8hpp.html" target="_top" xlink:title=" ">
<polygon fill="none" stroke="black" points="629.55,-319 629.55,-338 712.55,-338 712.55,-319 629.55,-319"/>
<text text-anchor="middle" x="671.05" y="-326" font-family="Helvetica,sans-Serif" font-size="10.00">../window.hpp</text>
</a>
</g>
</g>
<!-- Node17&#45;&gt;Node19 -->
<g id="edge22" class="edge">
<title>Node17&#45;&gt;Node19</title>
<path fill="none" stroke="midnightblue" d="M441.45,-380.48C489.21,-369.87 570.79,-351.76 622.75,-340.22"/>
<polygon fill="midnightblue" stroke="midnightblue" points="623.72,-343.59 632.72,-338.01 622.2,-336.76 623.72,-343.59"/>
</g>
<!-- Node21 -->
<g id="node21" class="node">
<title>Node21</title>
<g id="a_node21"><a xlink:href="core_8hpp.html" target="_top" xlink:title="This file defines a class that represents a CPU core (arm1176jzf_s).">
<polygon fill="none" stroke="black" points="346.05,-313.5 346.05,-343.5 460.05,-343.5 460.05,-313.5 346.05,-313.5"/>
<text text-anchor="start" x="354.05" y="-331.5" font-family="Helvetica,sans-Serif" font-size="10.00">../../core/arm1176jzf</text>
<text text-anchor="middle" x="403.05" y="-320.5" font-family="Helvetica,sans-Serif" font-size="10.00">_s/core.hpp</text>
</a>
</g>
</g>
<!-- Node17&#45;&gt;Node21 -->
<g id="edge24" class="edge">
<title>Node17&#45;&gt;Node21</title>
<path fill="none" stroke="midnightblue" d="M403.05,-380.48C403.05,-373.47 403.05,-363.19 403.05,-353.7"/>
<polygon fill="midnightblue" stroke="midnightblue" points="406.55,-353.52 403.05,-343.52 399.55,-353.52 406.55,-353.52"/>
</g>
<!-- Node20 -->
<g id="node20" class="node">
<title>Node20</title>
<g id="a_node20"><a xlink:title=" ">
<polygon fill="none" stroke="#bfbfbf" points="683.05,-252 683.05,-271 741.05,-271 741.05,-252 683.05,-252"/>
<text text-anchor="middle" x="712.05" y="-259" font-family="Helvetica,sans-Serif" font-size="10.00">memory</text>
</a>
</g>
</g>
<!-- Node19&#45;&gt;Node20 -->
<g id="edge23" class="edge">
<title>Node19&#45;&gt;Node20</title>
<path fill="none" stroke="midnightblue" d="M676.58,-318.73C682.85,-308.79 693.23,-292.34 701.14,-279.79"/>
<polygon fill="midnightblue" stroke="midnightblue" points="704.23,-281.45 706.61,-271.13 698.31,-277.72 704.23,-281.45"/>
</g>
<!-- Node21&#45;&gt;Node5 -->
<g id="edge62" class="edge">
<title>Node21&#45;&gt;Node5</title>
<path fill="none" stroke="midnightblue" d="M365.29,-313.4C334.22,-301.79 290.66,-285.51 261.22,-274.52"/>
<polygon fill="midnightblue" stroke="midnightblue" points="262.42,-271.23 251.82,-271.01 259.97,-277.79 262.42,-271.23"/>
</g>
<!-- Node21&#45;&gt;Node8 -->
<g id="edge25" class="edge">
<title>Node21&#45;&gt;Node8</title>
<path fill="none" stroke="midnightblue" d="M345.74,-314.7C342.47,-314.1 339.22,-313.52 336.05,-313 266.31,-301.51 67.11,-329.73 20.05,-277 -25.73,-225.71 11.48,-200.86 100.05,-134 129.85,-111.5 169.5,-97.46 201.5,-89.06"/>
<polygon fill="midnightblue" stroke="midnightblue" points="202.74,-92.35 211.59,-86.53 201.04,-85.57 202.74,-92.35"/>
</g>
<!-- Node21&#45;&gt;Node9 -->
<g id="edge64" class="edge">
<title>Node21&#45;&gt;Node9</title>
<path fill="none" stroke="midnightblue" d="M457.41,-313.39C500.21,-301.74 553.68,-285.74 560.05,-277 582.82,-245.75 579.99,-223.13 560.05,-190 542.41,-160.7 519.81,-173.97 492.05,-154 440.76,-117.09 437.92,-96.06 389.05,-56 375.61,-44.98 359.62,-33.74 346.98,-25.24"/>
<polygon fill="midnightblue" stroke="midnightblue" points="348.73,-22.2 338.46,-19.59 344.86,-28.03 348.73,-22.2"/>
</g>
<!-- Node21&#45;&gt;Node15 -->
<g id="edge26" class="edge">
<title>Node21&#45;&gt;Node15</title>
<path fill="none" stroke="midnightblue" d="M402.62,-313.41C401.49,-296.22 397.54,-266.86 384.05,-246 375.74,-233.16 362.45,-222.55 350.58,-214.86"/>
<polygon fill="midnightblue" stroke="midnightblue" points="352.25,-211.78 341.89,-209.57 348.61,-217.76 352.25,-211.78"/>
</g>
<!-- Node22 -->
<g id="node22" class="node">
<title>Node22</title>
<g id="a_node22"><a xlink:href="isa_8hpp.html" target="_top" xlink:title="This file is just a helper file for including all ARM instructions supported by the emulator.">
<polygon fill="none" stroke="black" points="1519.55,-134.5 1519.55,-153.5 1588.55,-153.5 1588.55,-134.5 1519.55,-134.5"/>
<text text-anchor="middle" x="1554.05" y="-141.5" font-family="Helvetica,sans-Serif" font-size="10.00">isa/isa.hpp</text>
</a>
</g>
</g>
<!-- Node21&#45;&gt;Node22 -->
<g id="edge27" class="edge">
<title>Node21&#45;&gt;Node22</title>
<path fill="none" stroke="midnightblue" d="M460.21,-315.11C507.3,-304.39 569.95,-288.79 593.05,-277 612.46,-267.09 610.95,-254.42 631.05,-246 792.91,-178.21 1347.06,-152.67 1509.16,-146.55"/>
<polygon fill="midnightblue" stroke="midnightblue" points="1509.4,-150.05 1519.27,-146.18 1509.14,-143.05 1509.4,-150.05"/>
</g>
<!-- Node37 -->
<g id="node37" class="node">
<title>Node37</title>
<g id="a_node37"><a xlink:href="isa__decoder_8hpp.html" target="_top" xlink:title="This file defines an instruction decoder.">
<polygon fill="none" stroke="black" points="1591.55,-190.5 1591.55,-209.5 1704.55,-209.5 1704.55,-190.5 1591.55,-190.5"/>
<text text-anchor="middle" x="1648.05" y="-197.5" font-family="Helvetica,sans-Serif" font-size="10.00">isa/isa_decoder.hpp</text>
</a>
</g>
</g>
<!-- Node21&#45;&gt;Node37 -->
<g id="edge60" class="edge">
<title>Node21&#45;&gt;Node37</title>
<path fill="none" stroke="midnightblue" d="M460.17,-315.14C526.4,-300.77 627.09,-278.77 631.05,-277 652.55,-267.37 651.8,-253.75 674.05,-246 759.08,-216.36 1375.66,-204.9 1581.42,-201.88"/>
<polygon fill="midnightblue" stroke="midnightblue" points="1581.53,-205.38 1591.48,-201.73 1581.43,-198.38 1581.53,-205.38"/>
</g>
<!-- Node38 -->
<g id="node38" class="node">
<title>Node38</title>
<g id="a_node38"><a xlink:href="math_8hpp.html" target="_top" xlink:title="This file defines and implements a variety of handy helper functions that are used throughout the pro...">
<polygon fill="none" stroke="black" points="279.05,-252 279.05,-271 375.05,-271 375.05,-252 279.05,-252"/>
<text text-anchor="middle" x="327.05" y="-259" font-family="Helvetica,sans-Serif" font-size="10.00">../utils/math.hpp</text>
</a>
</g>
</g>
<!-- Node21&#45;&gt;Node38 -->
<g id="edge63" class="edge">
<title>Node21&#45;&gt;Node38</title>
<path fill="none" stroke="midnightblue" d="M386.56,-313.4C374.36,-302.96 357.74,-288.75 345.17,-278"/>
<polygon fill="midnightblue" stroke="midnightblue" points="347.09,-275.03 337.22,-271.19 342.54,-280.35 347.09,-275.03"/>
</g>
<!-- Node39 -->
<g id="node39" class="node">
<title>Node39</title>
<g id="a_node39"><a xlink:href="interrupt__controller_8hpp.html" target="_top" xlink:title="This file defines the interrupt controller used in BCM2835.">
<polygon fill="none" stroke="black" points="29.55,-246.5 29.55,-276.5 154.55,-276.5 154.55,-246.5 29.55,-246.5"/>
<text text-anchor="start" x="37.55" y="-264.5" font-family="Helvetica,sans-Serif" font-size="10.00">../peripherals/interrupt</text>
<text text-anchor="middle" x="92.05" y="-253.5" font-family="Helvetica,sans-Serif" font-size="10.00">_controller.hpp</text>
</a>
</g>
</g>
<!-- Node21&#45;&gt;Node39 -->
<g id="edge65" class="edge">
<title>Node21&#45;&gt;Node39</title>
<path fill="none" stroke="midnightblue" d="M346.04,-315.12C342.66,-314.4 339.31,-313.69 336.05,-313 278.56,-300.83 213.38,-287.36 164.86,-277.39"/>
<polygon fill="midnightblue" stroke="midnightblue" points="165.27,-273.9 154.77,-275.32 163.86,-280.76 165.27,-273.9"/>
</g>
<!-- Node40 -->
<g id="node40" class="node">
<title>Node40</title>
<g id="a_node40"><a xlink:href="system__clock__listener_8hpp.html" target="_top" xlink:title="This file defines an interface for a CPU clock listener.">
<polygon fill="none" stroke="black" points="431.55,-246.5 431.55,-276.5 550.55,-276.5 550.55,-246.5 431.55,-246.5"/>
<text text-anchor="start" x="439.55" y="-264.5" font-family="Helvetica,sans-Serif" font-size="10.00">../peripherals/system</text>
<text text-anchor="middle" x="491.05" y="-253.5" font-family="Helvetica,sans-Serif" font-size="10.00">_clock_listener.hpp</text>
</a>
</g>
</g>
<!-- Node21&#45;&gt;Node40 -->
<g id="edge69" class="edge">
<title>Node21&#45;&gt;Node40</title>
<path fill="none" stroke="midnightblue" d="M422.14,-313.4C434.37,-304.37 450.42,-292.51 463.95,-282.52"/>
<polygon fill="midnightblue" stroke="midnightblue" points="466.03,-285.33 471.99,-276.58 461.87,-279.7 466.03,-285.33"/>
</g>
<!-- Node22&#45;&gt;Node10 -->
<g id="edge51" class="edge">
<title>Node22&#45;&gt;Node10</title>
<path fill="none" stroke="midnightblue" d="M1519.55,-141.99C1392.35,-138.11 949.04,-123.2 785.9,-97.86"/>
<polygon fill="midnightblue" stroke="midnightblue" points="786,-94.33 775.57,-96.17 784.88,-101.23 786,-94.33"/>
</g>
<!-- Node22&#45;&gt;Node11 -->
<g id="edge28" class="edge">
<title>Node22&#45;&gt;Node11</title>
<path fill="none" stroke="midnightblue" d="M1519.25,-142.8C1404.53,-141.76 1043.62,-135.54 1009.05,-98 996.41,-84.27 996.29,-69.63 1009.05,-56 1051.69,-10.46 1483.36,-9.33 1638.17,-10.41"/>
<polygon fill="midnightblue" stroke="midnightblue" points="1638.37,-13.92 1648.39,-10.49 1638.42,-6.92 1638.37,-13.92"/>
</g>
<!-- Node22&#45;&gt;Node12 -->
<g id="edge52" class="edge">
<title>Node22&#45;&gt;Node12</title>
<path fill="none" stroke="midnightblue" d="M1519.36,-141.8C1429.31,-138.34 1180.88,-126.76 976.05,-98 967.83,-96.85 959.26,-95.43 950.77,-93.88"/>
<polygon fill="midnightblue" stroke="midnightblue" points="951.32,-90.42 940.85,-92.01 950.03,-97.3 951.32,-90.42"/>
</g>
<!-- Node22&#45;&gt;Node13 -->
<g id="edge53" class="edge">
<title>Node22&#45;&gt;Node13</title>
<path fill="none" stroke="midnightblue" d="M1519.25,-143.17C1398.17,-143.36 984.29,-140.65 646.05,-98 637.41,-96.91 628.4,-95.48 619.49,-93.89"/>
<polygon fill="midnightblue" stroke="midnightblue" points="619.97,-90.42 609.5,-92.03 618.69,-97.3 619.97,-90.42"/>
</g>
<!-- Node23 -->
<g id="node23" class="node">
<title>Node23</title>
<g id="a_node23"><a xlink:href="branch__and__exchange_8hpp.html" target="_top" xlink:title="This file defines a branch and exchange instruction (BX).">
<polygon fill="none" stroke="black" points="1018.05,-67.5 1018.05,-86.5 1164.05,-86.5 1164.05,-67.5 1018.05,-67.5"/>
<text text-anchor="middle" x="1091.05" y="-74.5" font-family="Helvetica,sans-Serif" font-size="10.00">branch_and_exchange.hpp</text>
</a>
</g>
</g>
<!-- Node22&#45;&gt;Node23 -->
<g id="edge29" class="edge">
<title>Node22&#45;&gt;Node23</title>
<path fill="none" stroke="midnightblue" d="M1519.53,-140.29C1452.54,-134.74 1300.42,-120.63 1174.05,-98 1160.45,-95.56 1145.74,-92.25 1132.54,-89.02"/>
<polygon fill="midnightblue" stroke="midnightblue" points="1133.34,-85.61 1122.79,-86.58 1131.64,-92.4 1133.34,-85.61"/>
</g>
<!-- Node24 -->
<g id="node24" class="node">
<title>Node24</title>
<g id="a_node24"><a xlink:href="branch_8hpp.html" target="_top" xlink:title="This file defines a branch instruction (B, BL).">
<polygon fill="none" stroke="black" points="1182.55,-67.5 1182.55,-86.5 1253.55,-86.5 1253.55,-67.5 1182.55,-67.5"/>
<text text-anchor="middle" x="1218.05" y="-74.5" font-family="Helvetica,sans-Serif" font-size="10.00">branch.hpp</text>
</a>
</g>
</g>
<!-- Node22&#45;&gt;Node24 -->
<g id="edge31" class="edge">
<title>Node22&#45;&gt;Node24</title>
<path fill="none" stroke="midnightblue" d="M1519.36,-140.62C1464.15,-136.17 1353.3,-124.52 1263.05,-98 1256.7,-96.13 1250.07,-93.57 1243.92,-90.89"/>
<polygon fill="midnightblue" stroke="midnightblue" points="1245.29,-87.67 1234.74,-86.69 1242.38,-94.04 1245.29,-87.67"/>
</g>
<!-- Node25 -->
<g id="node25" class="node">
<title>Node25</title>
<g id="a_node25"><a xlink:href="data__processing_8hpp.html" target="_top" xlink:title="This file defines a data processing instruction.">
<polygon fill="none" stroke="black" points="1271.55,-67.5 1271.55,-86.5 1388.55,-86.5 1388.55,-67.5 1271.55,-67.5"/>
<text text-anchor="middle" x="1330.05" y="-74.5" font-family="Helvetica,sans-Serif" font-size="10.00">data_processing.hpp</text>
</a>
</g>
</g>
<!-- Node22&#45;&gt;Node25 -->
<g id="edge33" class="edge">
<title>Node22&#45;&gt;Node25</title>
<path fill="none" stroke="midnightblue" d="M1524.13,-134.42C1492.72,-125.4 1441.89,-110.77 1398.05,-98 1388.58,-95.24 1378.37,-92.25 1368.82,-89.44"/>
<polygon fill="midnightblue" stroke="midnightblue" points="1369.74,-86.06 1359.16,-86.6 1367.76,-92.78 1369.74,-86.06"/>
</g>
<!-- Node26 -->
<g id="node26" class="node">
<title>Node26</title>
<g id="a_node26"><a xlink:href="multiply_8hpp.html" target="_top" xlink:title="This file defines a multiplication instruction (MUL, MLA).">
<polygon fill="none" stroke="black" points="1406.55,-67.5 1406.55,-86.5 1483.55,-86.5 1483.55,-67.5 1406.55,-67.5"/>
<text text-anchor="middle" x="1445.05" y="-74.5" font-family="Helvetica,sans-Serif" font-size="10.00">multiply.hpp</text>
</a>
</g>
</g>
<!-- Node22&#45;&gt;Node26 -->
<g id="edge35" class="edge">
<title>Node22&#45;&gt;Node26</title>
<path fill="none" stroke="midnightblue" d="M1539.35,-134.23C1521.13,-123.37 1489.85,-104.72 1468.35,-91.89"/>
<polygon fill="midnightblue" stroke="midnightblue" points="1469.9,-88.74 1459.52,-86.63 1466.31,-94.76 1469.9,-88.74"/>
</g>
<!-- Node27 -->
<g id="node27" class="node">
<title>Node27</title>
<g id="a_node27"><a xlink:href="multiply__long_8hpp.html" target="_top" xlink:title="This file defines a multiplication (long) instruction.">
<polygon fill="none" stroke="black" points="1502.05,-67.5 1502.05,-86.5 1606.05,-86.5 1606.05,-67.5 1502.05,-67.5"/>
<text text-anchor="middle" x="1554.05" y="-74.5" font-family="Helvetica,sans-Serif" font-size="10.00">multiply_long.hpp</text>
</a>
</g>
</g>
<!-- Node22&#45;&gt;Node27 -->
<g id="edge37" class="edge">
<title>Node22&#45;&gt;Node27</title>
<path fill="none" stroke="midnightblue" d="M1554.05,-134.23C1554.05,-124.68 1554.05,-109.12 1554.05,-96.78"/>
<polygon fill="midnightblue" stroke="midnightblue" points="1557.55,-96.63 1554.05,-86.63 1550.55,-96.63 1557.55,-96.63"/>
</g>
<!-- Node28 -->
<g id="node28" class="node">
<title>Node28</title>
<g id="a_node28"><a xlink:href="single__data__transfer_8hpp.html" target="_top" xlink:title="This file defines single data transfer instruction (LDR, STR).">
<polygon fill="none" stroke="black" points="1624.55,-67.5 1624.55,-86.5 1761.55,-86.5 1761.55,-67.5 1624.55,-67.5"/>
<text text-anchor="middle" x="1693.05" y="-74.5" font-family="Helvetica,sans-Serif" font-size="10.00">single_data_transfer.hpp</text>
</a>
</g>
</g>
<!-- Node22&#45;&gt;Node28 -->
<g id="edge39" class="edge">
<title>Node22&#45;&gt;Node28</title>
<path fill="none" stroke="midnightblue" d="M1572.51,-134.37C1596.29,-123.25 1637.84,-103.82 1665.4,-90.93"/>
<polygon fill="midnightblue" stroke="midnightblue" points="1666.94,-94.07 1674.52,-86.67 1663.97,-87.73 1666.94,-94.07"/>
</g>
<!-- Node29 -->
<g id="node29" class="node">
<title>Node29</title>
<g id="a_node29"><a xlink:href="block__data__transfer_8hpp.html" target="_top" xlink:title="This file defines a block data transfer instruction (LDM, STM).">
<polygon fill="none" stroke="black" points="1780.05,-67.5 1780.05,-86.5 1914.05,-86.5 1914.05,-67.5 1780.05,-67.5"/>
<text text-anchor="middle" x="1847.05" y="-74.5" font-family="Helvetica,sans-Serif" font-size="10.00">block_data_transfer.hpp</text>
</a>
</g>
</g>
<!-- Node22&#45;&gt;Node29 -->
<g id="edge41" class="edge">
<title>Node22&#45;&gt;Node29</title>
<path fill="none" stroke="midnightblue" d="M1588.75,-136.39C1631.7,-128.08 1707,-113.06 1771.05,-98 1782.56,-95.3 1794.98,-92.13 1806.38,-89.13"/>
<polygon fill="midnightblue" stroke="midnightblue" points="1807.32,-92.5 1816.08,-86.55 1805.52,-85.73 1807.32,-92.5"/>
</g>
<!-- Node30 -->
<g id="node30" class="node">
<title>Node30</title>
<g id="a_node30"><a xlink:href="halfword__data__transfer_8hpp.html" target="_top" xlink:title="This file defines a Halfword data transfer instruction.">
<polygon fill="none" stroke="black" points="1932.55,-67.5 1932.55,-86.5 2081.55,-86.5 2081.55,-67.5 1932.55,-67.5"/>
<text text-anchor="middle" x="2007.05" y="-74.5" font-family="Helvetica,sans-Serif" font-size="10.00">halfword_data_transfer.hpp</text>
</a>
</g>
</g>
<!-- Node22&#45;&gt;Node30 -->
<g id="edge43" class="edge">
<title>Node22&#45;&gt;Node30</title>
<path fill="none" stroke="midnightblue" d="M1588.58,-140.09C1654.12,-134.29 1800.93,-119.91 1923.05,-98 1936.81,-95.53 1951.69,-92.21 1965.04,-88.98"/>
<polygon fill="midnightblue" stroke="midnightblue" points="1966.05,-92.34 1974.92,-86.55 1964.37,-85.54 1966.05,-92.34"/>
</g>
<!-- Node31 -->
<g id="node31" class="node">
<title>Node31</title>
<g id="a_node31"><a xlink:href="extend_8hpp.html" target="_top" xlink:title="This file defines an extend instruction.">
<polygon fill="none" stroke="black" points="2099.55,-67.5 2099.55,-86.5 2170.55,-86.5 2170.55,-67.5 2099.55,-67.5"/>
<text text-anchor="middle" x="2135.05" y="-74.5" font-family="Helvetica,sans-Serif" font-size="10.00">extend.hpp</text>
</a>
</g>
</g>
<!-- Node22&#45;&gt;Node31 -->
<g id="edge45" class="edge">
<title>Node22&#45;&gt;Node31</title>
<path fill="none" stroke="midnightblue" d="M1588.77,-141.64C1691.95,-137.36 1995.43,-122.94 2091.05,-98 2097.55,-96.3 2104.29,-93.71 2110.48,-90.95"/>
<polygon fill="midnightblue" stroke="midnightblue" points="2112.13,-94.04 2119.65,-86.58 2109.11,-87.73 2112.13,-94.04"/>
</g>
<!-- Node32 -->
<g id="node32" class="node">
<title>Node32</title>
<g id="a_node32"><a xlink:href="psr__transfer_8hpp.html" target="_top" xlink:title="This file defines a PSR instruction (MRS, MSR).">
<polygon fill="none" stroke="black" points="2188.55,-67.5 2188.55,-86.5 2283.55,-86.5 2283.55,-67.5 2188.55,-67.5"/>
<text text-anchor="middle" x="2236.05" y="-74.5" font-family="Helvetica,sans-Serif" font-size="10.00">psr_transfer.hpp</text>
</a>
</g>
</g>
<!-- Node22&#45;&gt;Node32 -->
<g id="edge47" class="edge">
<title>Node22&#45;&gt;Node32</title>
<path fill="none" stroke="midnightblue" d="M1588.65,-141.75C1702.64,-137.43 2065.56,-122.09 2180.05,-98 2188.91,-96.14 2198.27,-93.2 2206.75,-90.15"/>
<polygon fill="midnightblue" stroke="midnightblue" points="2208.1,-93.38 2216.21,-86.57 2205.62,-86.83 2208.1,-93.38"/>
</g>
<!-- Node33 -->
<g id="node33" class="node">
<title>Node33</title>
<g id="a_node33"><a xlink:href="cps_8hpp.html" target="_top" xlink:title="This file defines a change processor state instruction (CPS).">
<polygon fill="none" stroke="black" points="2302.05,-67.5 2302.05,-86.5 2356.05,-86.5 2356.05,-67.5 2302.05,-67.5"/>
<text text-anchor="middle" x="2329.05" y="-74.5" font-family="Helvetica,sans-Serif" font-size="10.00">cps.hpp</text>
</a>
</g>
</g>
<!-- Node22&#45;&gt;Node33 -->
<g id="edge49" class="edge">
<title>Node22&#45;&gt;Node33</title>
<path fill="none" stroke="midnightblue" d="M1588.74,-142.92C1716.22,-142.3 2158.4,-137.3 2293.05,-98 2298.02,-96.55 2303.06,-94.32 2307.73,-91.86"/>
<polygon fill="midnightblue" stroke="midnightblue" points="2309.77,-94.73 2316.67,-86.69 2306.26,-88.67 2309.77,-94.73"/>
</g>
<!-- Node34 -->
<g id="node34" class="node">
<title>Node34</title>
<g id="a_node34"><a xlink:href="srs_8hpp.html" target="_top" xlink:title="This file defines an SRS instruction (store return state onto a stack).">
<polygon fill="none" stroke="black" points="2374.05,-67.5 2374.05,-86.5 2426.05,-86.5 2426.05,-67.5 2374.05,-67.5"/>
<text text-anchor="middle" x="2400.05" y="-74.5" font-family="Helvetica,sans-Serif" font-size="10.00">srs.hpp</text>
</a>
</g>
</g>
<!-- Node22&#45;&gt;Node34 -->
<g id="edge54" class="edge">
<title>Node22&#45;&gt;Node34</title>
<path fill="none" stroke="midnightblue" d="M1588.83,-143.19C1724.27,-143.6 2216.29,-141.95 2365.05,-98 2369.99,-96.54 2374.99,-94.27 2379.59,-91.77"/>
<polygon fill="midnightblue" stroke="midnightblue" points="2381.59,-94.65 2388.37,-86.51 2377.99,-88.65 2381.59,-94.65"/>
</g>
<!-- Node35 -->
<g id="node35" class="node">
<title>Node35</title>
<g id="a_node35"><a xlink:href="rfe_8hpp.html" target="_top" xlink:title="This file defines an RFE instruction (return from exception).">
<polygon fill="none" stroke="black" points="2444.55,-67.5 2444.55,-86.5 2495.55,-86.5 2495.55,-67.5 2444.55,-67.5"/>
<text text-anchor="middle" x="2470.05" y="-74.5" font-family="Helvetica,sans-Serif" font-size="10.00">rfe.hpp</text>
</a>
</g>
</g>
<!-- Node22&#45;&gt;Node35 -->
<g id="edge56" class="edge">
<title>Node22&#45;&gt;Node35</title>
<path fill="none" stroke="midnightblue" d="M1588.87,-143.37C1731.64,-144.55 2272.28,-145.7 2435.05,-98 2439.99,-96.55 2444.99,-94.28 2449.6,-91.78"/>
<polygon fill="midnightblue" stroke="midnightblue" points="2451.6,-94.67 2458.37,-86.52 2448,-88.66 2451.6,-94.67"/>
</g>
<!-- Node36 -->
<g id="node36" class="node">
<title>Node36</title>
<g id="a_node36"><a xlink:href="clz_8hpp.html" target="_top" xlink:title="This file defines a count leading zeros instruction (CLZ).">
<polygon fill="none" stroke="black" points="2513.55,-67.5 2513.55,-86.5 2564.55,-86.5 2564.55,-67.5 2513.55,-67.5"/>
<text text-anchor="middle" x="2539.05" y="-74.5" font-family="Helvetica,sans-Serif" font-size="10.00">clz.hpp</text>
</a>
</g>
</g>
<!-- Node22&#45;&gt;Node36 -->
<g id="edge58" class="edge">
<title>Node22&#45;&gt;Node36</title>
<path fill="none" stroke="midnightblue" d="M1588.59,-142.35C1748.84,-139.19 2415.94,-124.54 2505.05,-98 2509.88,-96.56 2514.75,-94.29 2519.23,-91.8"/>
<polygon fill="midnightblue" stroke="midnightblue" points="2521.08,-94.77 2527.74,-86.54 2517.4,-88.81 2521.08,-94.77"/>
</g>
<!-- Node23&#45;&gt;Node11 -->
<g id="edge30" class="edge">
<title>Node23&#45;&gt;Node11</title>
<path fill="none" stroke="midnightblue" d="M1121.57,-67.48C1137.16,-63.43 1156.49,-58.86 1174.05,-56 1341.83,-28.67 1543.01,-17.21 1638.1,-13.06"/>
<polygon fill="midnightblue" stroke="midnightblue" points="1638.5,-16.54 1648.34,-12.62 1638.2,-9.55 1638.5,-16.54"/>
</g>
<!-- Node24&#45;&gt;Node11 -->
<g id="edge32" class="edge">
<title>Node24&#45;&gt;Node11</title>
<path fill="none" stroke="midnightblue" d="M1234.27,-67.31C1242.63,-63.21 1253.14,-58.65 1263.05,-56 1394.48,-20.86 1555.35,-12.92 1638.09,-11.28"/>
<polygon fill="midnightblue" stroke="midnightblue" points="1638.33,-14.78 1648.27,-11.1 1638.21,-7.78 1638.33,-14.78"/>
</g>
<!-- Node25&#45;&gt;Node11 -->
<g id="edge34" class="edge">
<title>Node25&#45;&gt;Node11</title>
<path fill="none" stroke="midnightblue" d="M1355.99,-67.48C1368.58,-63.57 1384,-59.12 1398.05,-56 1481.12,-37.54 1579.03,-24.24 1638.54,-17.08"/>
<polygon fill="midnightblue" stroke="midnightblue" points="1638.96,-20.56 1648.47,-15.9 1638.13,-13.61 1638.96,-20.56"/>
</g>
<!-- Node26&#45;&gt;Node11 -->
<g id="edge36" class="edge">
<title>Node26&#45;&gt;Node11</title>
<path fill="none" stroke="midnightblue" d="M1463.46,-67.45C1472.28,-63.58 1483.07,-59.18 1493.05,-56 1541.35,-40.63 1597.82,-28.43 1638.41,-20.64"/>
<polygon fill="midnightblue" stroke="midnightblue" points="1639.2,-24.05 1648.37,-18.75 1637.9,-17.17 1639.2,-24.05"/>
</g>
<!-- Node27&#45;&gt;Node11 -->
<g id="edge38" class="edge">
<title>Node27&#45;&gt;Node11</title>
<path fill="none" stroke="midnightblue" d="M1572.51,-67.37C1596.29,-56.25 1637.84,-36.82 1665.4,-23.93"/>
<polygon fill="midnightblue" stroke="midnightblue" points="1666.94,-27.07 1674.52,-19.67 1663.97,-20.73 1666.94,-27.07"/>
</g>
<!-- Node28&#45;&gt;Node11 -->
<g id="edge40" class="edge">
<title>Node28&#45;&gt;Node11</title>
<path fill="none" stroke="midnightblue" d="M1693.05,-67.23C1693.05,-57.68 1693.05,-42.12 1693.05,-29.78"/>
<polygon fill="midnightblue" stroke="midnightblue" points="1696.55,-29.63 1693.05,-19.63 1689.55,-29.63 1696.55,-29.63"/>
</g>
<!-- Node29&#45;&gt;Node11 -->
<g id="edge42" class="edge">
<title>Node29&#45;&gt;Node11</title>
<path fill="none" stroke="midnightblue" d="M1826.6,-67.37C1800.02,-56.15 1753.41,-36.48 1722.88,-23.59"/>
<polygon fill="midnightblue" stroke="midnightblue" points="1724.16,-20.33 1713.58,-19.67 1721.44,-26.78 1724.16,-20.33"/>
</g>
<!-- Node30&#45;&gt;Node11 -->
<g id="edge44" class="edge">
<title>Node30&#45;&gt;Node11</title>
<path fill="none" stroke="midnightblue" d="M1972.38,-67.41C1957.26,-63.75 1939.31,-59.53 1923.05,-56 1863.22,-43.03 1794.27,-29.76 1747.59,-21.03"/>
<polygon fill="midnightblue" stroke="midnightblue" points="1748.15,-17.57 1737.68,-19.18 1746.87,-24.45 1748.15,-17.57"/>
</g>
<!-- Node31&#45;&gt;Node11 -->
<g id="edge46" class="edge">
<title>Node31&#45;&gt;Node11</title>
<path fill="none" stroke="midnightblue" d="M2119.21,-67.33C2111.03,-63.24 2100.76,-58.68 2091.05,-56 1971.58,-22.99 1825.53,-14.13 1747.83,-11.8"/>
<polygon fill="midnightblue" stroke="midnightblue" points="1747.88,-8.3 1737.79,-11.52 1747.69,-15.29 1747.88,-8.3"/>
</g>
<!-- Node32&#45;&gt;Node11 -->
<g id="edge48" class="edge">
<title>Node32&#45;&gt;Node11</title>
<path fill="none" stroke="midnightblue" d="M2215.93,-67.43C2205.42,-63.31 2192.25,-58.7 2180.05,-56 2025.78,-21.89 1838.48,-13.59 1747.67,-11.6"/>
<polygon fill="midnightblue" stroke="midnightblue" points="1747.68,-8.1 1737.61,-11.4 1747.53,-15.1 1747.68,-8.1"/>
</g>
<!-- Node33&#45;&gt;Node11 -->
<g id="edge50" class="edge">
<title>Node33&#45;&gt;Node11</title>
<path fill="none" stroke="midnightblue" d="M2316.65,-67.35C2309.97,-63.16 2301.41,-58.5 2293.05,-56 2191.95,-25.72 1876.62,-15.21 1748.25,-12.12"/>
<polygon fill="midnightblue" stroke="midnightblue" points="1747.96,-8.61 1737.88,-11.88 1747.8,-15.61 1747.96,-8.61"/>
</g>
<!-- Node34&#45;&gt;Node11 -->
<g id="edge55" class="edge">
<title>Node34&#45;&gt;Node11</title>
<path fill="none" stroke="midnightblue" d="M2388.04,-67.32C2381.56,-63.12 2373.22,-58.47 2365.05,-56 2250.08,-21.32 1887,-13.32 1747.96,-11.51"/>
<polygon fill="midnightblue" stroke="midnightblue" points="1747.6,-8.01 1737.56,-11.39 1747.51,-15.01 1747.6,-8.01"/>
</g>
<!-- Node35&#45;&gt;Node11 -->
<g id="edge57" class="edge">
<title>Node35&#45;&gt;Node11</title>
<path fill="none" stroke="midnightblue" d="M2458.05,-67.3C2451.56,-63.1 2443.23,-58.44 2435.05,-56 2306.43,-17.64 1896.95,-11.91 1747.94,-11.11"/>
<polygon fill="midnightblue" stroke="midnightblue" points="1747.69,-7.61 1737.67,-11.06 1747.66,-14.61 1747.69,-7.61"/>
</g>
<!-- Node36&#45;&gt;Node11 -->
<g id="edge59" class="edge">
<title>Node36&#45;&gt;Node11</title>
<path fill="none" stroke="midnightblue" d="M2527.74,-67.49C2521.41,-63.23 2513.18,-58.46 2505.05,-56 2363.03,-13.07 1906.91,-10.3 1748.15,-10.68"/>
<polygon fill="midnightblue" stroke="midnightblue" points="1747.67,-7.18 1737.68,-10.71 1747.69,-14.18 1747.67,-7.18"/>
</g>
<!-- Node37&#45;&gt;Node11 -->
<g id="edge61" class="edge">
<title>Node37&#45;&gt;Node11</title>
<path fill="none" stroke="midnightblue" d="M1704.87,-197.12C1897.31,-190.19 2515.78,-162.97 2574.05,-98 2586.51,-84.1 2586.91,-69.53 2574.05,-56 2545.53,-25.98 1936.34,-14.57 1748.02,-11.75"/>
<polygon fill="midnightblue" stroke="midnightblue" points="1747.85,-8.24 1737.8,-11.6 1747.74,-15.24 1747.85,-8.24"/>
</g>
<!-- Node39&#45;&gt;Node8 -->
<g id="edge67" class="edge">
<title>Node39&#45;&gt;Node8</title>
<path fill="none" stroke="midnightblue" d="M81.85,-246.23C72.63,-231.42 61.93,-207.96 72.05,-190 102.64,-135.72 171.31,-104.75 215.84,-89.68"/>
<polygon fill="midnightblue" stroke="midnightblue" points="217.08,-92.95 225.5,-86.53 214.91,-86.3 217.08,-92.95"/>
</g>
<!-- Node39&#45;&gt;Node9 -->
<g id="edge68" class="edge">
<title>Node39&#45;&gt;Node9</title>
<path fill="none" stroke="midnightblue" d="M83.02,-246.34C75.05,-232.03 65.64,-209.32 72.05,-190 95.47,-119.47 111.05,-98.44 172.05,-56 196.34,-39.1 227.02,-28.47 254.51,-21.82"/>
<polygon fill="midnightblue" stroke="midnightblue" points="255.51,-25.18 264.48,-19.54 253.95,-18.35 255.51,-25.18"/>
</g>
<!-- Node39&#45;&gt;Node14 -->
<g id="edge66" class="edge">
<title>Node39&#45;&gt;Node14</title>
<path fill="none" stroke="midnightblue" d="M106.74,-246.4C116.03,-237.49 128.05,-225.95 137.65,-216.74"/>
<polygon fill="midnightblue" stroke="midnightblue" points="140.24,-219.11 145.03,-209.66 135.39,-214.06 140.24,-219.11"/>
</g>
</g>
</svg>
