<?xml version="1.0" encoding="UTF-8" standalone="no"?>
<!DOCTYPE svg PUBLIC "-//W3C//DTD SVG 1.1//EN"
 "http://www.w3.org/Graphics/SVG/1.1/DTD/svg11.dtd">
<!-- Generated by graphviz version 2.43.0 (0)
 -->
<!-- Title: src/gui/windows/source_code_window.hpp Pages: 1 -->
<svg width="3055pt" height="464pt"
 viewBox="0.00 0.00 3054.76 464.00" xmlns="http://www.w3.org/2000/svg" xmlns:xlink="http://www.w3.org/1999/xlink">
<g id="graph0" class="graph" transform="scale(1 1) rotate(0) translate(4 460)">
<title>src/gui/windows/source_code_window.hpp</title>
<!-- Node1 -->
<g id="node1" class="node">
<title>Node1</title>
<g id="a_node1"><a xlink:title=" ">
<polygon fill="#bfbfbf" stroke="black" points="2531.76,-425.5 2531.76,-455.5 2661.76,-455.5 2661.76,-425.5 2531.76,-425.5"/>
<text text-anchor="start" x="2539.76" y="-443.5" font-family="Helvetica,sans-Serif" font-size="10.00">src/gui/windows/source</text>
<text text-anchor="middle" x="2596.76" y="-432.5" font-family="Helvetica,sans-Serif" font-size="10.00">_code_window.hpp</text>
</a>
</g>
</g>
<!-- Node2 -->
<g id="node2" class="node">
<title>Node2</title>
<g id="a_node2"><a xlink:title=" ">
<polygon fill="none" stroke="#bfbfbf" points="2849.26,-179.5 2849.26,-198.5 2942.26,-198.5 2942.26,-179.5 2849.26,-179.5"/>
<text text-anchor="middle" x="2895.76" y="-186.5" font-family="Helvetica,sans-Serif" font-size="10.00">unordered_map</text>
</a>
</g>
</g>
<!-- Node1&#45;&gt;Node2 -->
<g id="edge1" class="edge">
<title>Node1&#45;&gt;Node2</title>
<path fill="none" stroke="midnightblue" d="M2662.04,-430.66C2749.59,-414.9 2901.77,-372.87 2968.76,-266 2976.08,-254.33 2975.48,-247.03 2968.76,-235 2960.61,-220.39 2945.55,-209.94 2931.21,-202.8"/>
<polygon fill="midnightblue" stroke="midnightblue" points="2932.53,-199.56 2921.98,-198.59 2929.62,-205.92 2932.53,-199.56"/>
</g>
<!-- Node3 -->
<g id="node3" class="node">
<title>Node3</title>
<g id="a_node3"><a xlink:href="window_8hpp.html" target="_top" xlink:title=" ">
<polygon fill="none" stroke="black" points="339.26,-56.5 339.26,-75.5 422.26,-75.5 422.26,-56.5 339.26,-56.5"/>
<text text-anchor="middle" x="380.76" y="-63.5" font-family="Helvetica,sans-Serif" font-size="10.00">../window.hpp</text>
</a>
</g>
</g>
<!-- Node1&#45;&gt;Node3 -->
<g id="edge2" class="edge">
<title>Node1&#45;&gt;Node3</title>
<path fill="none" stroke="midnightblue" d="M2531.65,-439.83C2129.57,-441.42 1.76,-443.7 1.76,-313 1.76,-313 1.76,-313 1.76,-188 1.76,-153.18 -5.29,-135.09 20.76,-112 65.32,-72.52 240.33,-66.81 328.87,-66.52"/>
<polygon fill="midnightblue" stroke="midnightblue" points="328.97,-70.02 338.97,-66.51 328.97,-63.02 328.97,-70.02"/>
</g>
<!-- Node5 -->
<g id="node5" class="node">
<title>Node5</title>
<g id="a_node5"><a xlink:href="core_8hpp.html" target="_top" xlink:title="This file defines a class that represents a CPU core (arm1176jzf_s).">
<polygon fill="none" stroke="black" points="2402.76,-358.5 2402.76,-388.5 2516.76,-388.5 2516.76,-358.5 2402.76,-358.5"/>
<text text-anchor="start" x="2410.76" y="-376.5" font-family="Helvetica,sans-Serif" font-size="10.00">../../core/arm1176jzf</text>
<text text-anchor="middle" x="2459.76" y="-365.5" font-family="Helvetica,sans-Serif" font-size="10.00">_s/core.hpp</text>
</a>
</g>
</g>
<!-- Node1&#45;&gt;Node5 -->
<g id="edge4" class="edge">
<title>Node1&#45;&gt;Node5</title>
<path fill="none" stroke="midnightblue" d="M2567.04,-425.4C2547.02,-415.9 2520.42,-403.28 2498.71,-392.98"/>
<polygon fill="midnightblue" stroke="midnightblue" points="2499.97,-389.7 2489.43,-388.58 2496.97,-396.03 2499.97,-389.7"/>
</g>
<!-- Node43 -->
<g id="node43" class="node">
<title>Node43</title>
<g id="a_node43"><a xlink:href="elf__loader_8hpp.html" target="_top" xlink:title=" ">
<polygon fill="none" stroke="black" points="2610.26,-358.5 2610.26,-388.5 2705.26,-388.5 2705.26,-358.5 2610.26,-358.5"/>
<text text-anchor="start" x="2618.26" y="-376.5" font-family="Helvetica,sans-Serif" font-size="10.00">../../core/utils/elf</text>
<text text-anchor="middle" x="2657.76" y="-365.5" font-family="Helvetica,sans-Serif" font-size="10.00">_loader.hpp</text>
</a>
</g>
</g>
<!-- Node1&#45;&gt;Node43 -->
<g id="edge78" class="edge">
<title>Node1&#45;&gt;Node43</title>
<path fill="none" stroke="midnightblue" d="M2610,-425.4C2618.07,-416.79 2628.55,-405.63 2637.64,-395.94"/>
<polygon fill="midnightblue" stroke="midnightblue" points="2640.26,-398.26 2644.55,-388.58 2635.16,-393.47 2640.26,-398.26"/>
</g>
<!-- Node4 -->
<g id="node4" class="node">
<title>Node4</title>
<g id="a_node4"><a xlink:title=" ">
<polygon fill="none" stroke="#bfbfbf" points="1422.76,-0.5 1422.76,-19.5 1480.76,-19.5 1480.76,-0.5 1422.76,-0.5"/>
<text text-anchor="middle" x="1451.76" y="-7.5" font-family="Helvetica,sans-Serif" font-size="10.00">memory</text>
</a>
</g>
</g>
<!-- Node3&#45;&gt;Node4 -->
<g id="edge3" class="edge">
<title>Node3&#45;&gt;Node4</title>
<path fill="none" stroke="midnightblue" d="M422.42,-62.9C593.99,-54.25 1244.77,-21.44 1412.26,-12.99"/>
<polygon fill="midnightblue" stroke="midnightblue" points="1412.55,-16.48 1422.36,-12.48 1412.2,-9.49 1412.55,-16.48"/>
</g>
<!-- Node6 -->
<g id="node6" class="node">
<title>Node6</title>
<g id="a_node6"><a xlink:href="context_8hpp.html" target="_top" xlink:title="This file defines the context (registers) of the CPU.">
<polygon fill="none" stroke="black" points="2430.76,-118 2430.76,-137 2504.76,-137 2504.76,-118 2430.76,-118"/>
<text text-anchor="middle" x="2467.76" y="-125" font-family="Helvetica,sans-Serif" font-size="10.00">context.hpp</text>
</a>
</g>
</g>
<!-- Node5&#45;&gt;Node6 -->
<g id="edge5" class="edge">
<title>Node5&#45;&gt;Node6</title>
<path fill="none" stroke="midnightblue" d="M2460.33,-358.38C2461.15,-337.98 2462.66,-299.1 2463.76,-266 2465.18,-223.59 2466.56,-173.8 2467.27,-147.32"/>
<polygon fill="midnightblue" stroke="midnightblue" points="2470.77,-147.28 2467.54,-137.19 2463.77,-147.09 2470.77,-147.28"/>
</g>
<!-- Node7 -->
<g id="node7" class="node">
<title>Node7</title>
<g id="a_node7"><a xlink:href="logger_8hpp.html" target="_top" xlink:title=" ">
<polygon fill="none" stroke="black" points="2240.76,-56.5 2240.76,-75.5 2374.76,-75.5 2374.76,-56.5 2240.76,-56.5"/>
<text text-anchor="middle" x="2307.76" y="-63.5" font-family="Helvetica,sans-Serif" font-size="10.00">../utils/logger/logger.hpp</text>
</a>
</g>
</g>
<!-- Node5&#45;&gt;Node7 -->
<g id="edge69" class="edge">
<title>Node5&#45;&gt;Node7</title>
<path fill="none" stroke="midnightblue" d="M2420.48,-358.37C2362.83,-335.23 2257.42,-283.21 2213.76,-199 2189.87,-152.91 2249.25,-104.69 2284.28,-81.35"/>
<polygon fill="midnightblue" stroke="midnightblue" points="2286.51,-84.08 2293.01,-75.71 2282.71,-78.2 2286.51,-84.08"/>
</g>
<!-- Node13 -->
<g id="node13" class="node">
<title>Node13</title>
<g id="a_node13"><a xlink:href="exceptions_8hpp.html" target="_top" xlink:title="This file defines all exceptions that can be thrown by the CPU during execution.">
<polygon fill="none" stroke="black" points="2525.26,-241 2525.26,-260 2616.26,-260 2616.26,-241 2525.26,-241"/>
<text text-anchor="middle" x="2570.76" y="-248" font-family="Helvetica,sans-Serif" font-size="10.00">exceptions.hpp</text>
</a>
</g>
</g>
<!-- Node5&#45;&gt;Node13 -->
<g id="edge13" class="edge">
<title>Node5&#45;&gt;Node13</title>
<path fill="none" stroke="midnightblue" d="M2472.93,-358.14C2493.79,-335.41 2534.28,-291.27 2556.06,-267.53"/>
<polygon fill="midnightblue" stroke="midnightblue" points="2558.74,-269.79 2562.92,-260.05 2553.58,-265.06 2558.74,-269.79"/>
</g>
<!-- Node15 -->
<g id="node15" class="node">
<title>Node15</title>
<g id="a_node15"><a xlink:href="isa_8hpp.html" target="_top" xlink:title="This file is just a helper file for including all ARM instructions supported by the emulator.">
<polygon fill="none" stroke="black" points="829.26,-179.5 829.26,-198.5 898.26,-198.5 898.26,-179.5 829.26,-179.5"/>
<text text-anchor="middle" x="863.76" y="-186.5" font-family="Helvetica,sans-Serif" font-size="10.00">isa/isa.hpp</text>
</a>
</g>
</g>
<!-- Node5&#45;&gt;Node15 -->
<g id="edge16" class="edge">
<title>Node5&#45;&gt;Node15</title>
<path fill="none" stroke="midnightblue" d="M2402.58,-371.46C2325.01,-368.63 2182.91,-358.42 2067.76,-322 2049.57,-316.25 2048.05,-307.46 2029.76,-302 1813.42,-237.41 1095.13,-200.6 908.43,-191.98"/>
<polygon fill="midnightblue" stroke="midnightblue" points="908.56,-188.48 898.41,-191.52 908.24,-195.47 908.56,-188.48"/>
</g>
<!-- Node34 -->
<g id="node34" class="node">
<title>Node34</title>
<g id="a_node34"><a xlink:href="isa__decoder_8hpp.html" target="_top" xlink:title="This file defines an instruction decoder.">
<polygon fill="none" stroke="black" points="2077.26,-302.5 2077.26,-321.5 2190.26,-321.5 2190.26,-302.5 2077.26,-302.5"/>
<text text-anchor="middle" x="2133.76" y="-309.5" font-family="Helvetica,sans-Serif" font-size="10.00">isa/isa_decoder.hpp</text>
</a>
</g>
</g>
<!-- Node5&#45;&gt;Node34 -->
<g id="edge52" class="edge">
<title>Node5&#45;&gt;Node34</title>
<path fill="none" stroke="midnightblue" d="M2402.61,-362.07C2342.97,-351.18 2250.02,-334.22 2190.53,-323.36"/>
<polygon fill="midnightblue" stroke="midnightblue" points="2191.02,-319.89 2180.55,-321.54 2189.76,-326.78 2191.02,-319.89"/>
</g>
<!-- Node35 -->
<g id="node35" class="node">
<title>Node35</title>
<g id="a_node35"><a xlink:href="bus_8hpp.html" target="_top" xlink:title="This file defines an interface the CPU uses to access different memory&#45;mapped peripherals.">
<polygon fill="none" stroke="black" points="2625.76,-302.5 2625.76,-321.5 2689.76,-321.5 2689.76,-302.5 2625.76,-302.5"/>
<text text-anchor="middle" x="2657.76" y="-309.5" font-family="Helvetica,sans-Serif" font-size="10.00">../bus.hpp</text>
</a>
</g>
</g>
<!-- Node5&#45;&gt;Node35 -->
<g id="edge54" class="edge">
<title>Node5&#45;&gt;Node35</title>
<path fill="none" stroke="midnightblue" d="M2506.44,-358.47C2540.89,-348.12 2587.22,-334.2 2619.5,-324.5"/>
<polygon fill="midnightblue" stroke="midnightblue" points="2620.89,-327.74 2629.46,-321.51 2618.87,-321.03 2620.89,-327.74"/>
</g>
<!-- Node39 -->
<g id="node39" class="node">
<title>Node39</title>
<g id="a_node39"><a xlink:href="math_8hpp.html" target="_top" xlink:title="This file defines and implements a variety of handy helper functions that are used throughout the pro...">
<polygon fill="none" stroke="black" points="1924.76,-302.5 1924.76,-321.5 2020.76,-321.5 2020.76,-302.5 1924.76,-302.5"/>
<text text-anchor="middle" x="1972.76" y="-309.5" font-family="Helvetica,sans-Serif" font-size="10.00">../utils/math.hpp</text>
</a>
</g>
</g>
<!-- Node5&#45;&gt;Node39 -->
<g id="edge68" class="edge">
<title>Node5&#45;&gt;Node39</title>
<path fill="none" stroke="midnightblue" d="M2402.65,-366.19C2321.01,-357.06 2166.26,-339.35 2034.76,-322 2033.49,-321.83 2032.2,-321.66 2030.9,-321.49"/>
<polygon fill="midnightblue" stroke="midnightblue" points="2031.19,-317.99 2020.81,-320.1 2030.24,-324.93 2031.19,-317.99"/>
</g>
<!-- Node40 -->
<g id="node40" class="node">
<title>Node40</title>
<g id="a_node40"><a xlink:href="interrupt__controller_8hpp.html" target="_top" xlink:title=" ">
<polygon fill="none" stroke="black" points="2329.26,-235.5 2329.26,-265.5 2454.26,-265.5 2454.26,-235.5 2329.26,-235.5"/>
<text text-anchor="start" x="2337.26" y="-253.5" font-family="Helvetica,sans-Serif" font-size="10.00">../peripherals/interrupt</text>
<text text-anchor="middle" x="2391.76" y="-242.5" font-family="Helvetica,sans-Serif" font-size="10.00">_controller.hpp</text>
</a>
</g>
</g>
<!-- Node5&#45;&gt;Node40 -->
<g id="edge70" class="edge">
<title>Node5&#45;&gt;Node40</title>
<path fill="none" stroke="midnightblue" d="M2451.7,-358.14C2440.14,-337.59 2418.75,-299.53 2404.9,-274.87"/>
<polygon fill="midnightblue" stroke="midnightblue" points="2407.77,-272.84 2399.82,-265.84 2401.67,-276.27 2407.77,-272.84"/>
</g>
<!-- Node42 -->
<g id="node42" class="node">
<title>Node42</title>
<g id="a_node42"><a xlink:href="system__clock__listener_8hpp.html" target="_top" xlink:title=" ">
<polygon fill="none" stroke="black" points="2691.26,-235.5 2691.26,-265.5 2810.26,-265.5 2810.26,-235.5 2691.26,-235.5"/>
<text text-anchor="start" x="2699.26" y="-253.5" font-family="Helvetica,sans-Serif" font-size="10.00">../peripherals/system</text>
<text text-anchor="middle" x="2750.76" y="-242.5" font-family="Helvetica,sans-Serif" font-size="10.00">_clock_listener.hpp</text>
</a>
</g>
</g>
<!-- Node5&#45;&gt;Node42 -->
<g id="edge76" class="edge">
<title>Node5&#45;&gt;Node42</title>
<path fill="none" stroke="midnightblue" d="M2489.62,-358.43C2521.03,-343.79 2572.02,-320.46 2616.76,-302 2644.79,-290.44 2676.51,-278.44 2702.06,-269.04"/>
<polygon fill="midnightblue" stroke="midnightblue" points="2703.34,-272.29 2711.52,-265.56 2700.93,-265.72 2703.34,-272.29"/>
</g>
<!-- Node6&#45;&gt;Node7 -->
<g id="edge6" class="edge">
<title>Node6&#45;&gt;Node7</title>
<path fill="none" stroke="midnightblue" d="M2444.84,-117.98C2417.39,-107.77 2371.25,-90.61 2340.17,-79.05"/>
<polygon fill="midnightblue" stroke="midnightblue" points="2341.24,-75.71 2330.65,-75.51 2338.8,-82.28 2341.24,-75.71"/>
</g>
<!-- Node7&#45;&gt;Node4 -->
<g id="edge9" class="edge">
<title>Node7&#45;&gt;Node4</title>
<path fill="none" stroke="midnightblue" d="M2240.6,-60.76C2070.41,-50.03 1626.21,-22 1491.23,-13.49"/>
<polygon fill="midnightblue" stroke="midnightblue" points="1491.16,-9.98 1480.96,-12.84 1490.72,-16.96 1491.16,-9.98"/>
</g>
<!-- Node8 -->
<g id="node8" class="node">
<title>Node8</title>
<g id="a_node8"><a xlink:title=" ">
<polygon fill="none" stroke="#bfbfbf" points="2204.76,-0.5 2204.76,-19.5 2252.76,-19.5 2252.76,-0.5 2204.76,-0.5"/>
<text text-anchor="middle" x="2228.76" y="-7.5" font-family="Helvetica,sans-Serif" font-size="10.00">mutex</text>
</a>
</g>
</g>
<!-- Node7&#45;&gt;Node8 -->
<g id="edge7" class="edge">
<title>Node7&#45;&gt;Node8</title>
<path fill="none" stroke="midnightblue" d="M2295.07,-56.32C2282.86,-47.98 2264.19,-35.21 2249.76,-25.35"/>
<polygon fill="midnightblue" stroke="midnightblue" points="2251.66,-22.41 2241.43,-19.65 2247.71,-28.19 2251.66,-22.41"/>
</g>
<!-- Node9 -->
<g id="node9" class="node">
<title>Node9</title>
<g id="a_node9"><a xlink:title=" ">
<polygon fill="none" stroke="#bfbfbf" points="2985.26,-0.5 2985.26,-19.5 3032.26,-19.5 3032.26,-0.5 2985.26,-0.5"/>
<text text-anchor="middle" x="3008.76" y="-7.5" font-family="Helvetica,sans-Serif" font-size="10.00">vector</text>
</a>
</g>
</g>
<!-- Node7&#45;&gt;Node9 -->
<g id="edge8" class="edge">
<title>Node7&#45;&gt;Node9</title>
<path fill="none" stroke="midnightblue" d="M2374.98,-59.82C2521.56,-48.53 2865.6,-22.03 2974.84,-13.61"/>
<polygon fill="midnightblue" stroke="midnightblue" points="2975.26,-17.09 2984.96,-12.83 2974.72,-10.11 2975.26,-17.09"/>
</g>
<!-- Node10 -->
<g id="node10" class="node">
<title>Node10</title>
<g id="a_node10"><a xlink:title=" ">
<polygon fill="none" stroke="#bfbfbf" points="2532.76,-0.5 2532.76,-19.5 2582.76,-19.5 2582.76,-0.5 2532.76,-0.5"/>
<text text-anchor="middle" x="2557.76" y="-7.5" font-family="Helvetica,sans-Serif" font-size="10.00">cstdint</text>
</a>
</g>
</g>
<!-- Node7&#45;&gt;Node10 -->
<g id="edge10" class="edge">
<title>Node7&#45;&gt;Node10</title>
<path fill="none" stroke="midnightblue" d="M2347.38,-56.44C2395.63,-46.02 2476.41,-28.57 2522.57,-18.6"/>
<polygon fill="midnightblue" stroke="midnightblue" points="2523.39,-22.01 2532.42,-16.47 2521.91,-15.16 2523.39,-22.01"/>
</g>
<!-- Node11 -->
<g id="node11" class="node">
<title>Node11</title>
<g id="a_node11"><a xlink:title=" ">
<polygon fill="none" stroke="#bfbfbf" points="2271.26,-0.5 2271.26,-19.5 2344.26,-19.5 2344.26,-0.5 2271.26,-0.5"/>
<text text-anchor="middle" x="2307.76" y="-7.5" font-family="Helvetica,sans-Serif" font-size="10.00">string_view</text>
</a>
</g>
</g>
<!-- Node7&#45;&gt;Node11 -->
<g id="edge11" class="edge">
<title>Node7&#45;&gt;Node11</title>
<path fill="none" stroke="midnightblue" d="M2307.76,-56.08C2307.76,-49.01 2307.76,-38.86 2307.76,-29.99"/>
<polygon fill="midnightblue" stroke="midnightblue" points="2311.26,-29.75 2307.76,-19.75 2304.26,-29.75 2311.26,-29.75"/>
</g>
<!-- Node12 -->
<g id="node12" class="node">
<title>Node12</title>
<g id="a_node12"><a xlink:title=" ">
<polygon fill="none" stroke="#bfbfbf" points="2362.26,-0.5 2362.26,-19.5 2455.26,-19.5 2455.26,-0.5 2362.26,-0.5"/>
<text text-anchor="middle" x="2408.76" y="-7.5" font-family="Helvetica,sans-Serif" font-size="10.00">source_location</text>
</a>
</g>
</g>
<!-- Node7&#45;&gt;Node12 -->
<g id="edge12" class="edge">
<title>Node7&#45;&gt;Node12</title>
<path fill="none" stroke="midnightblue" d="M2323.99,-56.32C2340.12,-47.7 2365.06,-34.36 2383.73,-24.39"/>
<polygon fill="midnightblue" stroke="midnightblue" points="2385.41,-27.46 2392.58,-19.65 2382.11,-21.28 2385.41,-27.46"/>
</g>
<!-- Node13&#45;&gt;Node6 -->
<g id="edge15" class="edge">
<title>Node13&#45;&gt;Node6</title>
<path fill="none" stroke="midnightblue" d="M2579.63,-240.67C2592.55,-226.7 2613.57,-199.06 2599.76,-179 2580.85,-151.52 2544.79,-138.98 2515.14,-133.27"/>
<polygon fill="midnightblue" stroke="midnightblue" points="2515.4,-129.76 2504.95,-131.52 2514.22,-136.66 2515.4,-129.76"/>
</g>
<!-- Node14 -->
<g id="node14" class="node">
<title>Node14</title>
<g id="a_node14"><a xlink:title=" ">
<polygon fill="none" stroke="#bfbfbf" points="2511.26,-179.5 2511.26,-198.5 2590.26,-198.5 2590.26,-179.5 2511.26,-179.5"/>
<text text-anchor="middle" x="2550.76" y="-186.5" font-family="Helvetica,sans-Serif" font-size="10.00">fmt/format.h</text>
</a>
</g>
</g>
<!-- Node13&#45;&gt;Node14 -->
<g id="edge14" class="edge">
<title>Node13&#45;&gt;Node14</title>
<path fill="none" stroke="midnightblue" d="M2567.9,-240.98C2565.05,-232.49 2560.58,-219.2 2556.92,-208.32"/>
<polygon fill="midnightblue" stroke="midnightblue" points="2560.13,-206.87 2553.62,-198.51 2553.49,-209.1 2560.13,-206.87"/>
</g>
<!-- Node16 -->
<g id="node16" class="node">
<title>Node16</title>
<g id="a_node16"><a xlink:href="instruction_8hpp.html" target="_top" xlink:title="This file defines the interface of a general ARM instruction.">
<polygon fill="none" stroke="black" points="819.26,-56.5 819.26,-75.5 908.26,-75.5 908.26,-56.5 819.26,-56.5"/>
<text text-anchor="middle" x="863.76" y="-63.5" font-family="Helvetica,sans-Serif" font-size="10.00">instruction.hpp</text>
</a>
</g>
</g>
<!-- Node15&#45;&gt;Node16 -->
<g id="edge17" class="edge">
<title>Node15&#45;&gt;Node16</title>
<path fill="none" stroke="midnightblue" d="M829.14,-188.58C753.97,-189.03 579.6,-185.36 542.76,-143 533.72,-132.6 533.72,-122.4 542.76,-112 576.58,-73.11 726.34,-66.83 808.81,-66.41"/>
<polygon fill="midnightblue" stroke="midnightblue" points="809.02,-69.91 819.01,-66.39 809,-62.91 809.02,-69.91"/>
</g>
<!-- Node17 -->
<g id="node17" class="node">
<title>Node17</title>
<g id="a_node17"><a xlink:href="branch__and__exchange_8hpp.html" target="_top" xlink:title="This file defines a branch and exchange instruction (BX).">
<polygon fill="none" stroke="black" points="551.76,-118 551.76,-137 697.76,-137 697.76,-118 551.76,-118"/>
<text text-anchor="middle" x="624.76" y="-125" font-family="Helvetica,sans-Serif" font-size="10.00">branch_and_exchange.hpp</text>
</a>
</g>
</g>
<!-- Node15&#45;&gt;Node17 -->
<g id="edge18" class="edge">
<title>Node15&#45;&gt;Node17</title>
<path fill="none" stroke="midnightblue" d="M829.52,-179.48C787.19,-168.94 715.09,-150.99 668.71,-139.44"/>
<polygon fill="midnightblue" stroke="midnightblue" points="669.49,-136.03 658.94,-137.01 667.8,-142.82 669.49,-136.03"/>
</g>
<!-- Node18 -->
<g id="node18" class="node">
<title>Node18</title>
<g id="a_node18"><a xlink:href="branch_8hpp.html" target="_top" xlink:title="This file defines a branch instruction (B, BL).">
<polygon fill="none" stroke="black" points="716.26,-118 716.26,-137 787.26,-137 787.26,-118 716.26,-118"/>
<text text-anchor="middle" x="751.76" y="-125" font-family="Helvetica,sans-Serif" font-size="10.00">branch.hpp</text>
</a>
</g>
</g>
<!-- Node15&#45;&gt;Node18 -->
<g id="edge20" class="edge">
<title>Node15&#45;&gt;Node18</title>
<path fill="none" stroke="midnightblue" d="M847.72,-179.48C829.17,-169.62 798.42,-153.29 776.74,-141.77"/>
<polygon fill="midnightblue" stroke="midnightblue" points="778.26,-138.61 767.78,-137.01 774.97,-144.79 778.26,-138.61"/>
</g>
<!-- Node19 -->
<g id="node19" class="node">
<title>Node19</title>
<g id="a_node19"><a xlink:href="data__processing_8hpp.html" target="_top" xlink:title="This file defines a data processing instruction.">
<polygon fill="none" stroke="black" points="805.26,-118 805.26,-137 922.26,-137 922.26,-118 805.26,-118"/>
<text text-anchor="middle" x="863.76" y="-125" font-family="Helvetica,sans-Serif" font-size="10.00">data_processing.hpp</text>
</a>
</g>
</g>
<!-- Node15&#45;&gt;Node19 -->
<g id="edge22" class="edge">
<title>Node15&#45;&gt;Node19</title>
<path fill="none" stroke="midnightblue" d="M863.76,-179.48C863.76,-171.08 863.76,-157.98 863.76,-147.16"/>
<polygon fill="midnightblue" stroke="midnightblue" points="867.26,-147.01 863.76,-137.01 860.26,-147.01 867.26,-147.01"/>
</g>
<!-- Node20 -->
<g id="node20" class="node">
<title>Node20</title>
<g id="a_node20"><a xlink:href="multiply_8hpp.html" target="_top" xlink:title="This file defines a multiplication instruction (MUL, MLA).">
<polygon fill="none" stroke="black" points="940.26,-118 940.26,-137 1017.26,-137 1017.26,-118 940.26,-118"/>
<text text-anchor="middle" x="978.76" y="-125" font-family="Helvetica,sans-Serif" font-size="10.00">multiply.hpp</text>
</a>
</g>
</g>
<!-- Node15&#45;&gt;Node20 -->
<g id="edge24" class="edge">
<title>Node15&#45;&gt;Node20</title>
<path fill="none" stroke="midnightblue" d="M880.24,-179.48C899.37,-169.58 931.14,-153.14 953.42,-141.62"/>
<polygon fill="midnightblue" stroke="midnightblue" points="955.05,-144.71 962.32,-137.01 951.83,-138.5 955.05,-144.71"/>
</g>
<!-- Node21 -->
<g id="node21" class="node">
<title>Node21</title>
<g id="a_node21"><a xlink:href="multiply__long_8hpp.html" target="_top" xlink:title="This file defines a multiplication (long) instruction.">
<polygon fill="none" stroke="black" points="1035.76,-118 1035.76,-137 1139.76,-137 1139.76,-118 1035.76,-118"/>
<text text-anchor="middle" x="1087.76" y="-125" font-family="Helvetica,sans-Serif" font-size="10.00">multiply_long.hpp</text>
</a>
</g>
</g>
<!-- Node15&#45;&gt;Node21 -->
<g id="edge26" class="edge">
<title>Node15&#45;&gt;Node21</title>
<path fill="none" stroke="midnightblue" d="M895.86,-179.48C935.36,-168.98 1002.54,-151.14 1046.03,-139.59"/>
<polygon fill="midnightblue" stroke="midnightblue" points="1046.96,-142.96 1055.73,-137.01 1045.17,-136.19 1046.96,-142.96"/>
</g>
<!-- Node22 -->
<g id="node22" class="node">
<title>Node22</title>
<g id="a_node22"><a xlink:href="single__data__transfer_8hpp.html" target="_top" xlink:title=" ">
<polygon fill="none" stroke="black" points="1158.26,-118 1158.26,-137 1295.26,-137 1295.26,-118 1158.26,-118"/>
<text text-anchor="middle" x="1226.76" y="-125" font-family="Helvetica,sans-Serif" font-size="10.00">single_data_transfer.hpp</text>
</a>
</g>
</g>
<!-- Node15&#45;&gt;Node22 -->
<g id="edge28" class="edge">
<title>Node15&#45;&gt;Node22</title>
<path fill="none" stroke="midnightblue" d="M898.47,-182.83C952.19,-174.76 1058.67,-158.48 1148.76,-143 1156.22,-141.72 1164.07,-140.32 1171.8,-138.91"/>
<polygon fill="midnightblue" stroke="midnightblue" points="1172.64,-142.32 1181.84,-137.07 1171.38,-135.43 1172.64,-142.32"/>
</g>
<!-- Node23 -->
<g id="node23" class="node">
<title>Node23</title>
<g id="a_node23"><a xlink:href="block__data__transfer_8hpp.html" target="_top" xlink:title="This file defines a block data transfer instruction (LDM, STM).">
<polygon fill="none" stroke="black" points="1313.76,-118 1313.76,-137 1447.76,-137 1447.76,-118 1313.76,-118"/>
<text text-anchor="middle" x="1380.76" y="-125" font-family="Helvetica,sans-Serif" font-size="10.00">block_data_transfer.hpp</text>
</a>
</g>
</g>
<!-- Node15&#45;&gt;Node23 -->
<g id="edge30" class="edge">
<title>Node15&#45;&gt;Node23</title>
<path fill="none" stroke="midnightblue" d="M898.4,-185.46C972.83,-179.77 1153.49,-164.79 1303.76,-143 1311.9,-141.82 1320.48,-140.39 1328.85,-138.89"/>
<polygon fill="midnightblue" stroke="midnightblue" points="1329.71,-142.29 1338.91,-137.04 1328.44,-135.41 1329.71,-142.29"/>
</g>
<!-- Node24 -->
<g id="node24" class="node">
<title>Node24</title>
<g id="a_node24"><a xlink:href="halfword__data__transfer_8hpp.html" target="_top" xlink:title="This file defines a Halfword data transfer instruction.">
<polygon fill="none" stroke="black" points="1466.26,-118 1466.26,-137 1615.26,-137 1615.26,-118 1466.26,-118"/>
<text text-anchor="middle" x="1540.76" y="-125" font-family="Helvetica,sans-Serif" font-size="10.00">halfword_data_transfer.hpp</text>
</a>
</g>
</g>
<!-- Node15&#45;&gt;Node24 -->
<g id="edge32" class="edge">
<title>Node15&#45;&gt;Node24</title>
<path fill="none" stroke="midnightblue" d="M898.3,-186.53C989.71,-182.39 1245.43,-169.2 1456.76,-143 1466.25,-141.82 1476.29,-140.32 1486.01,-138.73"/>
<polygon fill="midnightblue" stroke="midnightblue" points="1486.7,-142.16 1495.98,-137.04 1485.54,-135.26 1486.7,-142.16"/>
</g>
<!-- Node25 -->
<g id="node25" class="node">
<title>Node25</title>
<g id="a_node25"><a xlink:href="extend_8hpp.html" target="_top" xlink:title="This file defines an extend instruction.">
<polygon fill="none" stroke="black" points="30.26,-118 30.26,-137 101.26,-137 101.26,-118 30.26,-118"/>
<text text-anchor="middle" x="65.76" y="-125" font-family="Helvetica,sans-Serif" font-size="10.00">extend.hpp</text>
</a>
</g>
</g>
<!-- Node15&#45;&gt;Node25 -->
<g id="edge34" class="edge">
<title>Node15&#45;&gt;Node25</title>
<path fill="none" stroke="midnightblue" d="M829.03,-187.12C700.27,-183.67 250.48,-169.91 109.76,-143 105.79,-142.24 101.68,-141.22 97.64,-140.07"/>
<polygon fill="midnightblue" stroke="midnightblue" points="98.44,-136.65 87.85,-137.02 96.36,-143.34 98.44,-136.65"/>
</g>
<!-- Node26 -->
<g id="node26" class="node">
<title>Node26</title>
<g id="a_node26"><a xlink:href="psr__transfer_8hpp.html" target="_top" xlink:title=" ">
<polygon fill="none" stroke="black" points="119.26,-118 119.26,-137 214.26,-137 214.26,-118 119.26,-118"/>
<text text-anchor="middle" x="166.76" y="-125" font-family="Helvetica,sans-Serif" font-size="10.00">psr_transfer.hpp</text>
</a>
</g>
</g>
<!-- Node15&#45;&gt;Node26 -->
<g id="edge36" class="edge">
<title>Node15&#45;&gt;Node26</title>
<path fill="none" stroke="midnightblue" d="M829.17,-187.74C732.71,-186.53 452.78,-179.88 223.76,-143 217.95,-142.06 211.87,-140.81 205.93,-139.44"/>
<polygon fill="midnightblue" stroke="midnightblue" points="206.68,-136.02 196.14,-137.04 205.02,-142.82 206.68,-136.02"/>
</g>
<!-- Node27 -->
<g id="node27" class="node">
<title>Node27</title>
<g id="a_node27"><a xlink:href="cps_8hpp.html" target="_top" xlink:title="This file defines a change processor state instruction (CPS).">
<polygon fill="none" stroke="black" points="232.76,-118 232.76,-137 286.76,-137 286.76,-118 232.76,-118"/>
<text text-anchor="middle" x="259.76" y="-125" font-family="Helvetica,sans-Serif" font-size="10.00">cps.hpp</text>
</a>
</g>
</g>
<!-- Node15&#45;&gt;Node27 -->
<g id="edge38" class="edge">
<title>Node15&#45;&gt;Node27</title>
<path fill="none" stroke="midnightblue" d="M829,-186.63C721.9,-182.18 398.08,-167.06 295.76,-143 293.09,-142.37 290.35,-141.57 287.64,-140.68"/>
<polygon fill="midnightblue" stroke="midnightblue" points="288.69,-137.34 278.1,-137.13 286.25,-143.9 288.69,-137.34"/>
</g>
<!-- Node28 -->
<g id="node28" class="node">
<title>Node28</title>
<g id="a_node28"><a xlink:href="coprocessor__register__transfer_8hpp.html" target="_top" xlink:title="This file defines a coprocessor register transfer (MRC, MCR).">
<polygon fill="none" stroke="black" points="1826.76,-112.5 1826.76,-142.5 1944.76,-142.5 1944.76,-112.5 1826.76,-112.5"/>
<text text-anchor="start" x="1834.76" y="-130.5" font-family="Helvetica,sans-Serif" font-size="10.00">coprocessor_register</text>
<text text-anchor="middle" x="1885.76" y="-119.5" font-family="Helvetica,sans-Serif" font-size="10.00">_transfer.hpp</text>
</a>
</g>
</g>
<!-- Node15&#45;&gt;Node28 -->
<g id="edge40" class="edge">
<title>Node15&#45;&gt;Node28</title>
<path fill="none" stroke="midnightblue" d="M898.56,-188.36C1022.26,-189.21 1452.37,-188.59 1816.46,-142.87"/>
<polygon fill="midnightblue" stroke="midnightblue" points="1816.92,-146.34 1826.4,-141.6 1816.04,-139.39 1816.92,-146.34"/>
</g>
<!-- Node29 -->
<g id="node29" class="node">
<title>Node29</title>
<g id="a_node29"><a xlink:href="coprocessor__data__transfer_8hpp.html" target="_top" xlink:title="This file defines a coprocessor data transfer (LDC, STC).">
<polygon fill="none" stroke="black" points="1962.76,-118 1962.76,-137 2128.76,-137 2128.76,-118 1962.76,-118"/>
<text text-anchor="middle" x="2045.76" y="-125" font-family="Helvetica,sans-Serif" font-size="10.00">coprocessor_data_transfer.hpp</text>
</a>
</g>
</g>
<!-- Node15&#45;&gt;Node29 -->
<g id="edge42" class="edge">
<title>Node15&#45;&gt;Node29</title>
<path fill="none" stroke="midnightblue" d="M898.69,-188.02C1034.46,-187.78 1540.06,-184 1953.76,-143 1964.85,-141.9 1976.64,-140.34 1987.94,-138.65"/>
<polygon fill="midnightblue" stroke="midnightblue" points="1988.8,-142.06 1998.15,-137.07 1987.73,-135.14 1988.8,-142.06"/>
</g>
<!-- Node30 -->
<g id="node30" class="node">
<title>Node30</title>
<g id="a_node30"><a xlink:href="coprocessor__data__operation_8hpp.html" target="_top" xlink:title="This file defines a coprocessor data operation (CDP).">
<polygon fill="none" stroke="black" points="1633.26,-118 1633.26,-137 1808.26,-137 1808.26,-118 1633.26,-118"/>
<text text-anchor="middle" x="1720.76" y="-125" font-family="Helvetica,sans-Serif" font-size="10.00">coprocessor_data_operation.hpp</text>
</a>
</g>
</g>
<!-- Node15&#45;&gt;Node30 -->
<g id="edge44" class="edge">
<title>Node15&#45;&gt;Node30</title>
<path fill="none" stroke="midnightblue" d="M898.32,-187.05C1005.96,-183.87 1344.73,-172.06 1623.76,-143 1635.29,-141.8 1647.55,-140.21 1659.33,-138.53"/>
<polygon fill="midnightblue" stroke="midnightblue" points="1660.14,-141.95 1669.53,-137.03 1659.12,-135.02 1660.14,-141.95"/>
</g>
<!-- Node31 -->
<g id="node31" class="node">
<title>Node31</title>
<g id="a_node31"><a xlink:href="srs_8hpp.html" target="_top" xlink:title=" ">
<polygon fill="none" stroke="black" points="304.76,-118 304.76,-137 356.76,-137 356.76,-118 304.76,-118"/>
<text text-anchor="middle" x="330.76" y="-125" font-family="Helvetica,sans-Serif" font-size="10.00">srs.hpp</text>
</a>
</g>
</g>
<!-- Node15&#45;&gt;Node31 -->
<g id="edge46" class="edge">
<title>Node15&#45;&gt;Node31</title>
<path fill="none" stroke="midnightblue" d="M829.06,-188.44C747.14,-188.7 535.83,-184.88 365.76,-143 363.25,-142.38 360.68,-141.61 358.13,-140.75"/>
<polygon fill="midnightblue" stroke="midnightblue" points="359.17,-137.4 348.58,-137.1 356.67,-143.93 359.17,-137.4"/>
</g>
<!-- Node32 -->
<g id="node32" class="node">
<title>Node32</title>
<g id="a_node32"><a xlink:href="rfe_8hpp.html" target="_top" xlink:title=" ">
<polygon fill="none" stroke="black" points="375.26,-118 375.26,-137 426.26,-137 426.26,-118 375.26,-118"/>
<text text-anchor="middle" x="400.76" y="-125" font-family="Helvetica,sans-Serif" font-size="10.00">rfe.hpp</text>
</a>
</g>
</g>
<!-- Node15&#45;&gt;Node32 -->
<g id="edge48" class="edge">
<title>Node15&#45;&gt;Node32</title>
<path fill="none" stroke="midnightblue" d="M829.22,-187.84C755.53,-186.76 577.93,-180.14 434.76,-143 432.41,-142.39 430,-141.64 427.61,-140.81"/>
<polygon fill="midnightblue" stroke="midnightblue" points="428.65,-137.45 418.06,-137.05 426.09,-143.97 428.65,-137.45"/>
</g>
<!-- Node33 -->
<g id="node33" class="node">
<title>Node33</title>
<g id="a_node33"><a xlink:href="clz_8hpp.html" target="_top" xlink:title="This file defines a count leading zeros instruction (CLZ).">
<polygon fill="none" stroke="black" points="444.26,-118 444.26,-137 495.26,-137 495.26,-118 444.26,-118"/>
<text text-anchor="middle" x="469.76" y="-125" font-family="Helvetica,sans-Serif" font-size="10.00">clz.hpp</text>
</a>
</g>
</g>
<!-- Node15&#45;&gt;Node33 -->
<g id="edge50" class="edge">
<title>Node15&#45;&gt;Node33</title>
<path fill="none" stroke="midnightblue" d="M829.13,-186.15C765.23,-182.16 624.78,-170.79 509.76,-143 506.7,-142.26 503.55,-141.37 500.43,-140.39"/>
<polygon fill="midnightblue" stroke="midnightblue" points="501.27,-136.97 490.67,-137.07 499.01,-143.6 501.27,-136.97"/>
</g>
<!-- Node17&#45;&gt;Node16 -->
<g id="edge19" class="edge">
<title>Node17&#45;&gt;Node16</title>
<path fill="none" stroke="midnightblue" d="M659.01,-117.98C701.34,-107.44 773.44,-89.49 819.81,-77.94"/>
<polygon fill="midnightblue" stroke="midnightblue" points="820.73,-81.32 829.59,-75.51 819.04,-74.53 820.73,-81.32"/>
</g>
<!-- Node18&#45;&gt;Node16 -->
<g id="edge21" class="edge">
<title>Node18&#45;&gt;Node16</title>
<path fill="none" stroke="midnightblue" d="M767.81,-117.98C786.36,-108.12 817.1,-91.79 838.79,-80.27"/>
<polygon fill="midnightblue" stroke="midnightblue" points="840.56,-83.29 847.75,-75.51 837.27,-77.11 840.56,-83.29"/>
</g>
<!-- Node19&#45;&gt;Node16 -->
<g id="edge23" class="edge">
<title>Node19&#45;&gt;Node16</title>
<path fill="none" stroke="midnightblue" d="M863.76,-117.98C863.76,-109.58 863.76,-96.48 863.76,-85.66"/>
<polygon fill="midnightblue" stroke="midnightblue" points="867.26,-85.51 863.76,-75.51 860.26,-85.51 867.26,-85.51"/>
</g>
<!-- Node20&#45;&gt;Node16 -->
<g id="edge25" class="edge">
<title>Node20&#45;&gt;Node16</title>
<path fill="none" stroke="midnightblue" d="M962.29,-117.98C943.16,-108.08 911.39,-91.64 889.11,-80.12"/>
<polygon fill="midnightblue" stroke="midnightblue" points="890.7,-77 880.21,-75.51 887.48,-83.21 890.7,-77"/>
</g>
<!-- Node21&#45;&gt;Node16 -->
<g id="edge27" class="edge">
<title>Node21&#45;&gt;Node16</title>
<path fill="none" stroke="midnightblue" d="M1055.67,-117.98C1016.17,-107.48 948.99,-89.64 905.5,-78.09"/>
<polygon fill="midnightblue" stroke="midnightblue" points="906.36,-74.69 895.8,-75.51 904.57,-81.46 906.36,-74.69"/>
</g>
<!-- Node22&#45;&gt;Node16 -->
<g id="edge29" class="edge">
<title>Node22&#45;&gt;Node16</title>
<path fill="none" stroke="midnightblue" d="M1181.84,-117.93C1171.02,-115.93 1159.49,-113.84 1148.76,-112 1068.89,-98.27 976.15,-83.92 918.7,-75.22"/>
<polygon fill="midnightblue" stroke="midnightblue" points="919.16,-71.75 908.75,-73.72 918.11,-78.67 919.16,-71.75"/>
</g>
<!-- Node23&#45;&gt;Node16 -->
<g id="edge31" class="edge">
<title>Node23&#45;&gt;Node16</title>
<path fill="none" stroke="midnightblue" d="M1338.91,-117.96C1327.54,-115.82 1315.21,-113.66 1303.76,-112 1165.71,-91.98 1002.01,-77.71 918.59,-71.11"/>
<polygon fill="midnightblue" stroke="midnightblue" points="918.82,-67.62 908.57,-70.33 918.27,-74.6 918.82,-67.62"/>
</g>
<!-- Node24&#45;&gt;Node16 -->
<g id="edge33" class="edge">
<title>Node24&#45;&gt;Node16</title>
<path fill="none" stroke="midnightblue" d="M1495.98,-117.96C1483.34,-115.77 1469.54,-113.58 1456.76,-112 1259.43,-87.54 1023.4,-74.41 918.57,-69.41"/>
<polygon fill="midnightblue" stroke="midnightblue" points="918.7,-65.91 908.54,-68.94 918.37,-72.91 918.7,-65.91"/>
</g>
<!-- Node25&#45;&gt;Node16 -->
<g id="edge35" class="edge">
<title>Node25&#45;&gt;Node16</title>
<path fill="none" stroke="midnightblue" d="M87.85,-117.98C94.77,-115.65 102.5,-113.39 109.76,-112 243.88,-86.35 658.76,-72.65 808.86,-68.44"/>
<polygon fill="midnightblue" stroke="midnightblue" points="809.3,-71.92 819.2,-68.15 809.1,-64.93 809.3,-71.92"/>
</g>
<!-- Node26&#45;&gt;Node16 -->
<g id="edge37" class="edge">
<title>Node26&#45;&gt;Node16</title>
<path fill="none" stroke="midnightblue" d="M196.14,-117.96C204.95,-115.69 214.69,-113.46 223.76,-112 438.43,-77.43 697.84,-69.42 808.94,-67.56"/>
<polygon fill="midnightblue" stroke="midnightblue" points="809.28,-71.06 819.22,-67.4 809.17,-64.06 809.28,-71.06"/>
</g>
<!-- Node27&#45;&gt;Node16 -->
<g id="edge39" class="edge">
<title>Node27&#45;&gt;Node16</title>
<path fill="none" stroke="midnightblue" d="M278.1,-117.87C283.66,-115.59 289.86,-113.39 295.76,-112 392.25,-89.31 685.77,-74.57 808.69,-69.23"/>
<polygon fill="midnightblue" stroke="midnightblue" points="809.16,-72.72 819,-68.79 808.86,-65.72 809.16,-72.72"/>
</g>
<!-- Node28&#45;&gt;Node16 -->
<g id="edge41" class="edge">
<title>Node28&#45;&gt;Node16</title>
<path fill="none" stroke="midnightblue" d="M1826.4,-113.4C1823.15,-112.87 1819.92,-112.4 1816.76,-112 1477.42,-68.62 1065.3,-65.94 918.73,-66.53"/>
<polygon fill="midnightblue" stroke="midnightblue" points="918.63,-63.03 908.64,-66.58 918.66,-70.03 918.63,-63.03"/>
</g>
<!-- Node29&#45;&gt;Node16 -->
<g id="edge43" class="edge">
<title>Node29&#45;&gt;Node16</title>
<path fill="none" stroke="midnightblue" d="M1998.15,-117.93C1983.92,-115.65 1968.25,-113.44 1953.76,-112 1557.94,-72.77 1077.99,-67.62 918.33,-67.04"/>
<polygon fill="midnightblue" stroke="midnightblue" points="918.29,-63.54 908.28,-67 918.27,-70.54 918.29,-63.54"/>
</g>
<!-- Node30&#45;&gt;Node16 -->
<g id="edge45" class="edge">
<title>Node30&#45;&gt;Node16</title>
<path fill="none" stroke="midnightblue" d="M1669.53,-117.97C1654.79,-115.75 1638.67,-113.55 1623.76,-112 1360.35,-84.57 1043.71,-72.51 918.52,-68.57"/>
<polygon fill="midnightblue" stroke="midnightblue" points="918.53,-65.06 908.42,-68.25 918.31,-72.06 918.53,-65.06"/>
</g>
<!-- Node31&#45;&gt;Node16 -->
<g id="edge47" class="edge">
<title>Node31&#45;&gt;Node16</title>
<path fill="none" stroke="midnightblue" d="M348.58,-117.9C353.98,-115.63 360.02,-113.42 365.76,-112 523.22,-73.23 716.05,-67.08 808.79,-66.59"/>
<polygon fill="midnightblue" stroke="midnightblue" points="809.07,-70.09 819.06,-66.55 809.05,-63.09 809.07,-70.09"/>
</g>
<!-- Node32&#45;&gt;Node16 -->
<g id="edge49" class="edge">
<title>Node32&#45;&gt;Node16</title>
<path fill="none" stroke="midnightblue" d="M418.06,-117.95C423.31,-115.67 429.17,-113.45 434.76,-112 566.15,-77.92 726.54,-69.54 809,-67.55"/>
<polygon fill="midnightblue" stroke="midnightblue" points="809.22,-71.05 819.14,-67.33 809.07,-64.05 809.22,-71.05"/>
</g>
<!-- Node33&#45;&gt;Node16 -->
<g id="edge51" class="edge">
<title>Node33&#45;&gt;Node16</title>
<path fill="none" stroke="midnightblue" d="M490.67,-117.93C496.75,-115.72 503.45,-113.53 509.76,-112 613.73,-86.88 738.46,-75.17 808.67,-70.22"/>
<polygon fill="midnightblue" stroke="midnightblue" points="809.31,-73.68 819.04,-69.5 808.83,-66.7 809.31,-73.68"/>
</g>
<!-- Node34&#45;&gt;Node16 -->
<g id="edge53" class="edge">
<title>Node34&#45;&gt;Node16</title>
<path fill="none" stroke="midnightblue" d="M2137.64,-302.31C2150.76,-271.42 2189.84,-165.95 2137.76,-112 2094.86,-67.55 1157.44,-66.41 918.7,-66.84"/>
<polygon fill="midnightblue" stroke="midnightblue" points="918.51,-63.34 908.52,-66.86 918.53,-70.34 918.51,-63.34"/>
</g>
<!-- Node35&#45;&gt;Node13 -->
<g id="edge67" class="edge">
<title>Node35&#45;&gt;Node13</title>
<path fill="none" stroke="midnightblue" d="M2645.3,-302.48C2631.35,-292.93 2608.5,-277.31 2591.77,-265.87"/>
<polygon fill="midnightblue" stroke="midnightblue" points="2593.44,-262.77 2583.21,-260.01 2589.48,-268.54 2593.44,-262.77"/>
</g>
<!-- Node36 -->
<g id="node36" class="node">
<title>Node36</title>
<g id="a_node36"><a xlink:href="cp15_8hpp.html" target="_top" xlink:title=" ">
<polygon fill="none" stroke="black" points="2831.76,-241 2831.76,-260 2959.76,-260 2959.76,-241 2831.76,-241"/>
<text text-anchor="middle" x="2895.76" y="-248" font-family="Helvetica,sans-Serif" font-size="10.00">coprocessors/cp15.hpp</text>
</a>
</g>
</g>
<!-- Node35&#45;&gt;Node36 -->
<g id="edge55" class="edge">
<title>Node35&#45;&gt;Node36</title>
<path fill="none" stroke="midnightblue" d="M2689.86,-302.98C2731.59,-292.54 2804.66,-274.28 2851.6,-262.54"/>
<polygon fill="midnightblue" stroke="midnightblue" points="2852.63,-265.89 2861.48,-260.07 2850.93,-259.1 2852.63,-265.89"/>
</g>
<!-- Node38 -->
<g id="node38" class="node">
<title>Node38</title>
<g id="a_node38"><a xlink:href="peripheral_8hpp.html" target="_top" xlink:title=" ">
<polygon fill="none" stroke="black" points="2647.26,-179.5 2647.26,-198.5 2792.26,-198.5 2792.26,-179.5 2647.26,-179.5"/>
<text text-anchor="middle" x="2719.76" y="-186.5" font-family="Helvetica,sans-Serif" font-size="10.00">peripherals/peripheral.hpp</text>
</a>
</g>
</g>
<!-- Node35&#45;&gt;Node38 -->
<g id="edge65" class="edge">
<title>Node35&#45;&gt;Node38</title>
<path fill="none" stroke="midnightblue" d="M2659.56,-302.14C2662.76,-287.5 2670.31,-257.64 2682.76,-235 2688.54,-224.5 2696.9,-214.08 2704.21,-205.91"/>
<polygon fill="midnightblue" stroke="midnightblue" points="2706.78,-208.28 2711.04,-198.58 2701.66,-203.51 2706.78,-208.28"/>
</g>
<!-- Node36&#45;&gt;Node2 -->
<g id="edge57" class="edge">
<title>Node36&#45;&gt;Node2</title>
<path fill="none" stroke="midnightblue" d="M2895.76,-240.98C2895.76,-232.58 2895.76,-219.48 2895.76,-208.66"/>
<polygon fill="midnightblue" stroke="midnightblue" points="2899.26,-208.51 2895.76,-198.51 2892.26,-208.51 2899.26,-208.51"/>
</g>
<!-- Node36&#45;&gt;Node7 -->
<g id="edge64" class="edge">
<title>Node36&#45;&gt;Node7</title>
<path fill="none" stroke="midnightblue" d="M2911.32,-240.91C2933.65,-227.51 2970.18,-200.89 2951.76,-179 2880.13,-93.84 2540.3,-73.43 2385.23,-68.54"/>
<polygon fill="midnightblue" stroke="midnightblue" points="2384.94,-65.03 2374.84,-68.23 2384.73,-72.02 2384.94,-65.03"/>
</g>
<!-- Node36&#45;&gt;Node9 -->
<g id="edge56" class="edge">
<title>Node36&#45;&gt;Node9</title>
<path fill="none" stroke="midnightblue" d="M2915.07,-241C2931.64,-232.69 2954.83,-218.45 2967.76,-199 3003.49,-145.29 3008.65,-65.64 3009.03,-29.74"/>
<polygon fill="midnightblue" stroke="midnightblue" points="3012.53,-29.71 3009.01,-19.71 3005.53,-29.72 3012.53,-29.71"/>
</g>
<!-- Node37 -->
<g id="node37" class="node">
<title>Node37</title>
<g id="a_node37"><a xlink:href="coprocessor_8hpp.html" target="_top" xlink:title=" ">
<polygon fill="none" stroke="black" points="2321.26,-179.5 2321.26,-198.5 2416.26,-198.5 2416.26,-179.5 2321.26,-179.5"/>
<text text-anchor="middle" x="2368.76" y="-186.5" font-family="Helvetica,sans-Serif" font-size="10.00">coprocessor.hpp</text>
</a>
</g>
</g>
<!-- Node36&#45;&gt;Node37 -->
<g id="edge58" class="edge">
<title>Node36&#45;&gt;Node37</title>
<path fill="none" stroke="midnightblue" d="M2854.46,-240.93C2843.24,-238.79 2831.06,-236.64 2819.76,-235 2679.08,-214.6 2512.36,-200.58 2426.41,-194.1"/>
<polygon fill="midnightblue" stroke="midnightblue" points="2426.57,-190.6 2416.33,-193.35 2426.05,-197.58 2426.57,-190.6"/>
</g>
<!-- Node37&#45;&gt;Node6 -->
<g id="edge60" class="edge">
<title>Node37&#45;&gt;Node6</title>
<path fill="none" stroke="midnightblue" d="M2382.95,-179.48C2399.12,-169.75 2425.79,-153.73 2444.91,-142.24"/>
<polygon fill="midnightblue" stroke="midnightblue" points="2446.84,-145.16 2453.61,-137.01 2443.23,-139.16 2446.84,-145.16"/>
</g>
<!-- Node37&#45;&gt;Node10 -->
<g id="edge59" class="edge">
<title>Node37&#45;&gt;Node10</title>
<path fill="none" stroke="midnightblue" d="M2373.54,-179.36C2381.99,-164.52 2400.7,-133.7 2421.76,-112 2456.88,-75.82 2505.96,-42.8 2534.55,-24.94"/>
<polygon fill="midnightblue" stroke="midnightblue" points="2536.39,-27.91 2543.07,-19.68 2532.72,-21.95 2536.39,-27.91"/>
</g>
<!-- Node37&#45;&gt;Node28 -->
<g id="edge61" class="edge">
<title>Node37&#45;&gt;Node28</title>
<path fill="none" stroke="midnightblue" d="M2321.19,-183.46C2231.54,-174.8 2039.71,-155.79 1955.05,-143.07"/>
<polygon fill="midnightblue" stroke="midnightblue" points="1955.46,-139.59 1945.04,-141.51 1954.38,-146.51 1955.46,-139.59"/>
</g>
<!-- Node37&#45;&gt;Node29 -->
<g id="edge62" class="edge">
<title>Node37&#45;&gt;Node29</title>
<path fill="none" stroke="midnightblue" d="M2322.49,-179.48C2264.32,-168.76 2164.55,-150.38 2102.04,-138.87"/>
<polygon fill="midnightblue" stroke="midnightblue" points="2102.43,-135.38 2091.96,-137.01 2101.16,-142.26 2102.43,-135.38"/>
</g>
<!-- Node37&#45;&gt;Node30 -->
<g id="edge63" class="edge">
<title>Node37&#45;&gt;Node30</title>
<path fill="none" stroke="midnightblue" d="M2320.94,-183.32C2305.85,-181.89 2289.11,-180.33 2273.76,-179 2071.23,-161.41 2019.75,-166.04 1817.76,-143 1806.58,-141.72 1794.7,-140.14 1783.23,-138.49"/>
<polygon fill="midnightblue" stroke="midnightblue" points="1783.69,-135.02 1773.28,-137.03 1782.67,-141.95 1783.69,-135.02"/>
</g>
<!-- Node38&#45;&gt;Node10 -->
<g id="edge66" class="edge">
<title>Node38&#45;&gt;Node10</title>
<path fill="none" stroke="midnightblue" d="M2711.95,-179.46C2686.67,-151.85 2606.81,-64.58 2573.06,-27.71"/>
<polygon fill="midnightblue" stroke="midnightblue" points="2575.21,-24.88 2565.88,-19.87 2570.05,-29.61 2575.21,-24.88"/>
</g>
<!-- Node40&#45;&gt;Node2 -->
<g id="edge72" class="edge">
<title>Node40&#45;&gt;Node2</title>
<path fill="none" stroke="midnightblue" d="M2454.32,-242.11C2553.14,-230.45 2743.88,-207.93 2838.97,-196.7"/>
<polygon fill="midnightblue" stroke="midnightblue" points="2839.46,-200.17 2848.98,-195.52 2838.64,-193.22 2839.46,-200.17"/>
</g>
<!-- Node40&#45;&gt;Node6 -->
<g id="edge74" class="edge">
<title>Node40&#45;&gt;Node6</title>
<path fill="none" stroke="midnightblue" d="M2401.5,-235.49C2408.42,-225.43 2417.84,-211.5 2425.76,-199 2437.04,-181.21 2449.31,-160.45 2457.65,-146.08"/>
<polygon fill="midnightblue" stroke="midnightblue" points="2460.77,-147.69 2462.75,-137.28 2454.71,-144.18 2460.77,-147.69"/>
</g>
<!-- Node40&#45;&gt;Node7 -->
<g id="edge75" class="edge">
<title>Node40&#45;&gt;Node7</title>
<path fill="none" stroke="midnightblue" d="M2355.14,-235.41C2339.25,-227.29 2322.15,-215.39 2312.76,-199 2292.33,-163.3 2298.08,-112.82 2303.35,-85.8"/>
<polygon fill="midnightblue" stroke="midnightblue" points="2306.82,-86.28 2305.5,-75.77 2299.98,-84.81 2306.82,-86.28"/>
</g>
<!-- Node40&#45;&gt;Node38 -->
<g id="edge73" class="edge">
<title>Node40&#45;&gt;Node38</title>
<path fill="none" stroke="midnightblue" d="M2454.62,-238.1C2514.72,-227.2 2604.56,-210.9 2662.66,-200.36"/>
<polygon fill="midnightblue" stroke="midnightblue" points="2663.56,-203.75 2672.77,-198.52 2662.31,-196.87 2663.56,-203.75"/>
</g>
<!-- Node41 -->
<g id="node41" class="node">
<title>Node41</title>
<g id="a_node41"><a xlink:title=" ">
<polygon fill="none" stroke="#bfbfbf" points="2222.76,-179.5 2222.76,-198.5 2264.76,-198.5 2264.76,-179.5 2222.76,-179.5"/>
<text text-anchor="middle" x="2243.76" y="-186.5" font-family="Helvetica,sans-Serif" font-size="10.00">array</text>
</a>
</g>
</g>
<!-- Node40&#45;&gt;Node41 -->
<g id="edge71" class="edge">
<title>Node40&#45;&gt;Node41</title>
<path fill="none" stroke="midnightblue" d="M2356.69,-235.4C2331.6,-225.31 2298.16,-211.87 2274.19,-202.23"/>
<polygon fill="midnightblue" stroke="midnightblue" points="2275.45,-198.97 2264.87,-198.48 2272.84,-205.46 2275.45,-198.97"/>
</g>
<!-- Node42&#45;&gt;Node10 -->
<g id="edge77" class="edge">
<title>Node42&#45;&gt;Node10</title>
<path fill="none" stroke="midnightblue" d="M2772.7,-235.44C2791.12,-221.75 2812.8,-199.99 2801.76,-179 2757.3,-94.39 2648.8,-44.09 2592.68,-22.87"/>
<polygon fill="midnightblue" stroke="midnightblue" points="2593.75,-19.54 2583.16,-19.37 2591.33,-26.11 2593.75,-19.54"/>
</g>
<!-- Node43&#45;&gt;Node9 -->
<g id="edge79" class="edge">
<title>Node43&#45;&gt;Node9</title>
<path fill="none" stroke="midnightblue" d="M2705.46,-371.54C2809.34,-366.66 3046.76,-339.2 3046.76,-190 3046.76,-190 3046.76,-190 3046.76,-126.5 3046.76,-90.25 3029.67,-50.67 3018.41,-28.53"/>
<polygon fill="midnightblue" stroke="midnightblue" points="3021.49,-26.87 3013.73,-19.66 3015.3,-30.14 3021.49,-26.87"/>
</g>
<!-- Node43&#45;&gt;Node35 -->
<g id="edge80" class="edge">
<title>Node43&#45;&gt;Node35</title>
<path fill="none" stroke="midnightblue" d="M2657.76,-358.4C2657.76,-350.47 2657.76,-340.46 2657.76,-331.86"/>
<polygon fill="midnightblue" stroke="midnightblue" points="2661.26,-331.66 2657.76,-321.66 2654.26,-331.66 2661.26,-331.66"/>
</g>
</g>
</svg>
