<?xml version="1.0" encoding="UTF-8" standalone="no"?>
<!DOCTYPE svg PUBLIC "-//W3C//DTD SVG 1.1//EN"
 "http://www.w3.org/Graphics/SVG/1.1/DTD/svg11.dtd">
<!-- Generated by graphviz version 2.43.0 (0)
 -->
<!-- Title: src/core/peripherals/system_clock_listener.hpp Pages: 1 -->
<svg width="1124pt" height="240pt"
 viewBox="0.00 0.00 1123.50 240.00" xmlns="http://www.w3.org/2000/svg" xmlns:xlink="http://www.w3.org/1999/xlink">
<g id="graph0" class="graph" transform="scale(1 1) rotate(0) translate(4 236)">
<title>src/core/peripherals/system_clock_listener.hpp</title>
<!-- Node1 -->
<g id="node1" class="node">
<title>Node1</title>
<g id="a_node1"><a xlink:title="This file defines an interface for a CPU clock listener.">
<polygon fill="#bfbfbf" stroke="black" points="557.5,-201.5 557.5,-231.5 706.5,-231.5 706.5,-201.5 557.5,-201.5"/>
<text text-anchor="start" x="565.5" y="-219.5" font-family="Helvetica,sans-Serif" font-size="10.00">src/core/peripherals</text>
<text text-anchor="middle" x="632" y="-208.5" font-family="Helvetica,sans-Serif" font-size="10.00">/system_clock_listener.hpp</text>
</a>
</g>
</g>
<!-- Node2 -->
<g id="node2" class="node">
<title>Node2</title>
<g id="a_node2"><a xlink:href="core_8hpp.html" target="_top" xlink:title="This file defines a class that represents a CPU core (arm1176jzf_s).">
<polygon fill="none" stroke="black" points="442.5,-134.5 442.5,-164.5 555.5,-164.5 555.5,-134.5 442.5,-134.5"/>
<text text-anchor="start" x="450.5" y="-152.5" font-family="Helvetica,sans-Serif" font-size="10.00">src/core/arm1176jzf</text>
<text text-anchor="middle" x="499" y="-141.5" font-family="Helvetica,sans-Serif" font-size="10.00">_s/core.hpp</text>
</a>
</g>
</g>
<!-- Node1&#45;&gt;Node2 -->
<g id="edge1" class="edge">
<title>Node1&#45;&gt;Node2</title>
<path fill="none" stroke="midnightblue" d="M594.13,-196.99C573.05,-186.69 547.22,-174.07 527.8,-164.58"/>
<polygon fill="midnightblue" stroke="midnightblue" points="592.62,-200.15 603.14,-201.4 595.69,-193.86 592.62,-200.15"/>
</g>
<!-- Node16 -->
<g id="node16" class="node">
<title>Node16</title>
<g id="a_node16"><a xlink:href="arm__timer_8hpp.html" target="_top" xlink:title="This file defines the ARM timer used in BCM2835.">
<polygon fill="none" stroke="black" points="780.5,-134.5 780.5,-164.5 893.5,-164.5 893.5,-134.5 780.5,-134.5"/>
<text text-anchor="start" x="788.5" y="-152.5" font-family="Helvetica,sans-Serif" font-size="10.00">src/core/peripherals</text>
<text text-anchor="middle" x="837" y="-141.5" font-family="Helvetica,sans-Serif" font-size="10.00">/arm_timer.hpp</text>
</a>
</g>
</g>
<!-- Node1&#45;&gt;Node16 -->
<g id="edge19" class="edge">
<title>Node1&#45;&gt;Node16</title>
<path fill="none" stroke="midnightblue" d="M685.79,-198.44C719.02,-187.91 761.15,-174.55 792.5,-164.61"/>
<polygon fill="midnightblue" stroke="midnightblue" points="684.7,-195.12 676.23,-201.48 686.82,-201.79 684.7,-195.12"/>
</g>
<!-- Node3 -->
<g id="node3" class="node">
<title>Node3</title>
<g id="a_node3"><a xlink:href="core_8cpp.html" target="_top" xlink:title="This file implements the CCPU_Core class defined in core.hpp.">
<polygon fill="none" stroke="black" points="587.5,-67.5 587.5,-97.5 700.5,-97.5 700.5,-67.5 587.5,-67.5"/>
<text text-anchor="start" x="595.5" y="-85.5" font-family="Helvetica,sans-Serif" font-size="10.00">src/core/arm1176jzf</text>
<text text-anchor="middle" x="644" y="-74.5" font-family="Helvetica,sans-Serif" font-size="10.00">_s/core.cpp</text>
</a>
</g>
</g>
<!-- Node2&#45;&gt;Node3 -->
<g id="edge2" class="edge">
<title>Node2&#45;&gt;Node3</title>
<path fill="none" stroke="midnightblue" d="M539.67,-130.27C562.76,-119.92 591.24,-107.15 612.6,-97.58"/>
<polygon fill="midnightblue" stroke="midnightblue" points="538.16,-127.11 530.46,-134.4 541.02,-133.5 538.16,-127.11"/>
</g>
<!-- Node4 -->
<g id="node4" class="node">
<title>Node4</title>
<g id="a_node4"><a xlink:href="soc_8hpp.html" target="_top" xlink:title=" ">
<polygon fill="none" stroke="black" points="718.5,-73 718.5,-92 813.5,-92 813.5,-73 718.5,-73"/>
<text text-anchor="middle" x="766" y="-80" font-family="Helvetica,sans-Serif" font-size="10.00">src/core/soc.hpp</text>
</a>
</g>
</g>
<!-- Node2&#45;&gt;Node4 -->
<g id="edge3" class="edge">
<title>Node2&#45;&gt;Node4</title>
<path fill="none" stroke="midnightblue" d="M565.59,-132.72C606.91,-122.87 661.08,-109.86 709,-98 716.73,-96.09 725.04,-93.99 732.86,-92.01"/>
<polygon fill="midnightblue" stroke="midnightblue" points="564.56,-129.37 555.65,-135.09 566.19,-136.18 564.56,-129.37"/>
</g>
<!-- Node8 -->
<g id="node8" class="node">
<title>Node8</title>
<g id="a_node8"><a xlink:href="control__window_8hpp.html" target="_top" xlink:title="This file defines a window that allows the user to control CPU execution.">
<polygon fill="none" stroke="black" points="279.5,-67.5 279.5,-97.5 410.5,-97.5 410.5,-67.5 279.5,-67.5"/>
<text text-anchor="start" x="287.5" y="-85.5" font-family="Helvetica,sans-Serif" font-size="10.00">src/gui/windows/control</text>
<text text-anchor="middle" x="345" y="-74.5" font-family="Helvetica,sans-Serif" font-size="10.00">_window.hpp</text>
</a>
</g>
</g>
<!-- Node2&#45;&gt;Node8 -->
<g id="edge7" class="edge">
<title>Node2&#45;&gt;Node8</title>
<path fill="none" stroke="midnightblue" d="M456.13,-130.41C431.55,-120.03 401.14,-107.2 378.35,-97.58"/>
<polygon fill="midnightblue" stroke="midnightblue" points="455.01,-133.73 465.58,-134.4 457.73,-127.28 455.01,-133.73"/>
</g>
<!-- Node10 -->
<g id="node10" class="node">
<title>Node10</title>
<g id="a_node10"><a xlink:href="registers__window_8hpp.html" target="_top" xlink:title="This file defines a window that displays the contents of all CPU registers.">
<polygon fill="none" stroke="black" points="429,-67.5 429,-97.5 569,-97.5 569,-67.5 429,-67.5"/>
<text text-anchor="start" x="437" y="-85.5" font-family="Helvetica,sans-Serif" font-size="10.00">src/gui/windows/registers</text>
<text text-anchor="middle" x="499" y="-74.5" font-family="Helvetica,sans-Serif" font-size="10.00">_window.hpp</text>
</a>
</g>
</g>
<!-- Node2&#45;&gt;Node10 -->
<g id="edge10" class="edge">
<title>Node2&#45;&gt;Node10</title>
<path fill="none" stroke="midnightblue" d="M499,-124.11C499,-115.15 499,-105.32 499,-97.58"/>
<polygon fill="midnightblue" stroke="midnightblue" points="495.5,-124.4 499,-134.4 502.5,-124.4 495.5,-124.4"/>
</g>
<!-- Node12 -->
<g id="node12" class="node">
<title>Node12</title>
<g id="a_node12"><a xlink:href="source__code__window_8hpp.html" target="_top" xlink:title="This file defines a window that displays loaded ELF files (disassembled instructions of the source co...">
<polygon fill="none" stroke="black" points="0,-67.5 0,-97.5 130,-97.5 130,-67.5 0,-67.5"/>
<text text-anchor="start" x="8" y="-85.5" font-family="Helvetica,sans-Serif" font-size="10.00">src/gui/windows/source</text>
<text text-anchor="middle" x="65" y="-74.5" font-family="Helvetica,sans-Serif" font-size="10.00">_code_window.hpp</text>
</a>
</g>
</g>
<!-- Node2&#45;&gt;Node12 -->
<g id="edge13" class="edge">
<title>Node2&#45;&gt;Node12</title>
<path fill="none" stroke="midnightblue" d="M432.09,-140.21C359.67,-130.99 240.89,-115.12 139,-98 136.16,-97.52 133.26,-97.02 130.34,-96.5"/>
<polygon fill="midnightblue" stroke="midnightblue" points="432.06,-143.74 442.42,-141.53 432.94,-136.8 432.06,-143.74"/>
</g>
<!-- Node14 -->
<g id="node14" class="node">
<title>Node14</title>
<g id="a_node14"><a xlink:href="top__bar__menu_8hpp.html" target="_top" xlink:title=" ">
<polygon fill="none" stroke="black" points="148.5,-67.5 148.5,-97.5 261.5,-97.5 261.5,-67.5 148.5,-67.5"/>
<text text-anchor="start" x="156.5" y="-85.5" font-family="Helvetica,sans-Serif" font-size="10.00">src/gui/windows/top</text>
<text text-anchor="middle" x="205" y="-74.5" font-family="Helvetica,sans-Serif" font-size="10.00">_bar_menu.hpp</text>
</a>
</g>
</g>
<!-- Node2&#45;&gt;Node14 -->
<g id="edge16" class="edge">
<title>Node2&#45;&gt;Node14</title>
<path fill="none" stroke="midnightblue" d="M432.27,-133.83C386.58,-123.77 324.62,-110.11 270,-98 267.29,-97.4 264.52,-96.78 261.72,-96.16"/>
<polygon fill="midnightblue" stroke="midnightblue" points="431.54,-137.25 442.06,-135.98 433.04,-130.42 431.54,-137.25"/>
</g>
<!-- Node5 -->
<g id="node5" class="node">
<title>Node5</title>
<g id="a_node5"><a xlink:href="soc_8cpp.html" target="_top" xlink:title=" ">
<polygon fill="none" stroke="black" points="692.5,-6 692.5,-25 787.5,-25 787.5,-6 692.5,-6"/>
<text text-anchor="middle" x="740" y="-13" font-family="Helvetica,sans-Serif" font-size="10.00">src/core/soc.cpp</text>
</a>
</g>
</g>
<!-- Node4&#45;&gt;Node5 -->
<g id="edge4" class="edge">
<title>Node4&#45;&gt;Node5</title>
<path fill="none" stroke="midnightblue" d="M758.72,-63.29C753.72,-50.81 747.33,-34.81 743.45,-25.13"/>
<polygon fill="midnightblue" stroke="midnightblue" points="755.53,-64.75 762.49,-72.73 762.03,-62.15 755.53,-64.75"/>
</g>
<!-- Node6 -->
<g id="node6" class="node">
<title>Node6</title>
<g id="a_node6"><a xlink:href="gui_8cpp.html" target="_top" xlink:title="This file implements the main GUI entry function that takes care of creating and rendering all window...">
<polygon fill="none" stroke="black" points="428.5,-6 428.5,-25 515.5,-25 515.5,-6 428.5,-6"/>
<text text-anchor="middle" x="472" y="-13" font-family="Helvetica,sans-Serif" font-size="10.00">src/gui/gui.cpp</text>
</a>
</g>
</g>
<!-- Node4&#45;&gt;Node6 -->
<g id="edge5" class="edge">
<title>Node4&#45;&gt;Node6</title>
<path fill="none" stroke="midnightblue" d="M723.76,-70.47C718.79,-69.26 713.79,-68.08 709,-67 627.7,-48.72 606.13,-50.01 525,-31 517.38,-29.22 509.21,-27.09 501.61,-25.02"/>
<polygon fill="midnightblue" stroke="midnightblue" points="723.27,-73.96 733.82,-72.98 724.96,-67.17 723.27,-73.96"/>
</g>
<!-- Node7 -->
<g id="node7" class="node">
<title>Node7</title>
<g id="a_node7"><a xlink:href="main_8cpp.html" target="_top" xlink:title="This file defines and implements the main function of the application.">
<polygon fill="none" stroke="black" points="805.5,-6 805.5,-25 884.5,-25 884.5,-6 805.5,-6"/>
<text text-anchor="middle" x="845" y="-13" font-family="Helvetica,sans-Serif" font-size="10.00">src/main.cpp</text>
</a>
</g>
</g>
<!-- Node4&#45;&gt;Node7 -->
<g id="edge6" class="edge">
<title>Node4&#45;&gt;Node7</title>
<path fill="none" stroke="midnightblue" d="M784.58,-66.21C800.14,-53.41 821.8,-35.59 834.51,-25.13"/>
<polygon fill="midnightblue" stroke="midnightblue" points="782.15,-63.68 776.65,-72.73 786.6,-69.08 782.15,-63.68"/>
</g>
<!-- Node8&#45;&gt;Node6 -->
<g id="edge8" class="edge">
<title>Node8&#45;&gt;Node6</title>
<path fill="none" stroke="midnightblue" d="M381.53,-62.8C405.88,-50.34 436.72,-34.56 455.38,-25.01"/>
<polygon fill="midnightblue" stroke="midnightblue" points="379.86,-59.72 372.56,-67.4 383.05,-65.96 379.86,-59.72"/>
</g>
<!-- Node9 -->
<g id="node9" class="node">
<title>Node9</title>
<g id="a_node9"><a xlink:href="control__window_8cpp.html" target="_top" xlink:title="This file implements a window that allows the user to control CPU execution.">
<polygon fill="none" stroke="black" points="279.5,-0.5 279.5,-30.5 410.5,-30.5 410.5,-0.5 279.5,-0.5"/>
<text text-anchor="start" x="287.5" y="-18.5" font-family="Helvetica,sans-Serif" font-size="10.00">src/gui/windows/control</text>
<text text-anchor="middle" x="345" y="-7.5" font-family="Helvetica,sans-Serif" font-size="10.00">_window.cpp</text>
</a>
</g>
</g>
<!-- Node8&#45;&gt;Node9 -->
<g id="edge9" class="edge">
<title>Node8&#45;&gt;Node9</title>
<path fill="none" stroke="midnightblue" d="M345,-57.11C345,-48.15 345,-38.32 345,-30.58"/>
<polygon fill="midnightblue" stroke="midnightblue" points="341.5,-57.4 345,-67.4 348.5,-57.4 341.5,-57.4"/>
</g>
<!-- Node10&#45;&gt;Node6 -->
<g id="edge11" class="edge">
<title>Node10&#45;&gt;Node6</title>
<path fill="none" stroke="midnightblue" d="M489.21,-57.94C484.48,-46.54 479.08,-33.55 475.61,-25.19"/>
<polygon fill="midnightblue" stroke="midnightblue" points="486.07,-59.5 493.14,-67.4 492.54,-56.82 486.07,-59.5"/>
</g>
<!-- Node11 -->
<g id="node11" class="node">
<title>Node11</title>
<g id="a_node11"><a xlink:href="registers__window_8cpp.html" target="_top" xlink:title="This file implements a window that displays the contents of all CPU registers.">
<polygon fill="none" stroke="black" points="534,-0.5 534,-30.5 674,-30.5 674,-0.5 534,-0.5"/>
<text text-anchor="start" x="542" y="-18.5" font-family="Helvetica,sans-Serif" font-size="10.00">src/gui/windows/registers</text>
<text text-anchor="middle" x="604" y="-7.5" font-family="Helvetica,sans-Serif" font-size="10.00">_window.cpp</text>
</a>
</g>
</g>
<!-- Node10&#45;&gt;Node11 -->
<g id="edge12" class="edge">
<title>Node10&#45;&gt;Node11</title>
<path fill="none" stroke="midnightblue" d="M530.48,-62.02C546.82,-51.9 566.41,-39.77 581.26,-30.58"/>
<polygon fill="midnightblue" stroke="midnightblue" points="528.44,-59.16 521.78,-67.4 532.13,-65.11 528.44,-59.16"/>
</g>
<!-- Node12&#45;&gt;Node6 -->
<g id="edge14" class="edge">
<title>Node12&#45;&gt;Node6</title>
<path fill="none" stroke="midnightblue" d="M140.23,-66.88C264.59,-47.35 299.09,-54.99 419,-31 427.04,-29.39 435.67,-27.23 443.57,-25.06"/>
<polygon fill="midnightblue" stroke="midnightblue" points="139.65,-63.42 130.33,-68.46 140.76,-70.34 139.65,-63.42"/>
</g>
<!-- Node13 -->
<g id="node13" class="node">
<title>Node13</title>
<g id="a_node13"><a xlink:href="source__code__window_8cpp.html" target="_top" xlink:title="This file implements a window that displays loaded ELF files (disassembled instructions of the source...">
<polygon fill="none" stroke="black" points="0,-0.5 0,-30.5 130,-30.5 130,-0.5 0,-0.5"/>
<text text-anchor="start" x="8" y="-18.5" font-family="Helvetica,sans-Serif" font-size="10.00">src/gui/windows/source</text>
<text text-anchor="middle" x="65" y="-7.5" font-family="Helvetica,sans-Serif" font-size="10.00">_code_window.cpp</text>
</a>
</g>
</g>
<!-- Node12&#45;&gt;Node13 -->
<g id="edge15" class="edge">
<title>Node12&#45;&gt;Node13</title>
<path fill="none" stroke="midnightblue" d="M65,-57.11C65,-48.15 65,-38.32 65,-30.58"/>
<polygon fill="midnightblue" stroke="midnightblue" points="61.5,-57.4 65,-67.4 68.5,-57.4 61.5,-57.4"/>
</g>
<!-- Node14&#45;&gt;Node6 -->
<g id="edge17" class="edge">
<title>Node14&#45;&gt;Node6</title>
<path fill="none" stroke="midnightblue" d="M271.8,-66.37C314.09,-56.64 369.86,-43.52 419,-31 426.3,-29.14 434.15,-27.05 441.5,-25.04"/>
<polygon fill="midnightblue" stroke="midnightblue" points="270.87,-63 261.9,-68.65 272.43,-69.82 270.87,-63"/>
</g>
<!-- Node15 -->
<g id="node15" class="node">
<title>Node15</title>
<g id="a_node15"><a xlink:href="top__bar__menu_8cpp.html" target="_top" xlink:title=" ">
<polygon fill="none" stroke="black" points="148.5,-0.5 148.5,-30.5 261.5,-30.5 261.5,-0.5 148.5,-0.5"/>
<text text-anchor="start" x="156.5" y="-18.5" font-family="Helvetica,sans-Serif" font-size="10.00">src/gui/windows/top</text>
<text text-anchor="middle" x="205" y="-7.5" font-family="Helvetica,sans-Serif" font-size="10.00">_bar_menu.cpp</text>
</a>
</g>
</g>
<!-- Node14&#45;&gt;Node15 -->
<g id="edge18" class="edge">
<title>Node14&#45;&gt;Node15</title>
<path fill="none" stroke="midnightblue" d="M205,-57.11C205,-48.15 205,-38.32 205,-30.58"/>
<polygon fill="midnightblue" stroke="midnightblue" points="201.5,-57.4 205,-67.4 208.5,-57.4 201.5,-57.4"/>
</g>
<!-- Node16&#45;&gt;Node4 -->
<g id="edge21" class="edge">
<title>Node16&#45;&gt;Node4</title>
<path fill="none" stroke="midnightblue" d="M813.88,-127.34C800.85,-115.4 785.26,-101.14 775.5,-92.19"/>
<polygon fill="midnightblue" stroke="midnightblue" points="811.85,-130.22 821.59,-134.4 816.58,-125.06 811.85,-130.22"/>
</g>
<!-- Node17 -->
<g id="node17" class="node">
<title>Node17</title>
<g id="a_node17"><a xlink:href="arm__timer_8cpp.html" target="_top" xlink:title="This file implements the ARM timer used in BCM2835 as defined in arm_timer.hpp.">
<polygon fill="none" stroke="black" points="1002.5,-67.5 1002.5,-97.5 1115.5,-97.5 1115.5,-67.5 1002.5,-67.5"/>
<text text-anchor="start" x="1010.5" y="-85.5" font-family="Helvetica,sans-Serif" font-size="10.00">src/core/peripherals</text>
<text text-anchor="middle" x="1059" y="-74.5" font-family="Helvetica,sans-Serif" font-size="10.00">/arm_timer.cpp</text>
</a>
</g>
</g>
<!-- Node16&#45;&gt;Node17 -->
<g id="edge20" class="edge">
<title>Node16&#45;&gt;Node17</title>
<path fill="none" stroke="midnightblue" d="M894.79,-131.58C930.85,-121.02 976.72,-107.59 1010.81,-97.61"/>
<polygon fill="midnightblue" stroke="midnightblue" points="893.51,-128.31 884.9,-134.48 895.48,-135.02 893.51,-128.31"/>
</g>
<!-- Node18 -->
<g id="node18" class="node">
<title>Node18</title>
<g id="a_node18"><a xlink:href="arm__timer__window_8hpp.html" target="_top" xlink:title="This file defines a window that visualizes the contents of the ARM timer registers.">
<polygon fill="none" stroke="black" points="832,-67.5 832,-97.5 984,-97.5 984,-67.5 832,-67.5"/>
<text text-anchor="start" x="840" y="-85.5" font-family="Helvetica,sans-Serif" font-size="10.00">src/gui/windows/peripherals</text>
<text text-anchor="middle" x="908" y="-74.5" font-family="Helvetica,sans-Serif" font-size="10.00">/arm_timer_window.hpp</text>
</a>
</g>
</g>
<!-- Node16&#45;&gt;Node18 -->
<g id="edge22" class="edge">
<title>Node16&#45;&gt;Node18</title>
<path fill="none" stroke="midnightblue" d="M859.83,-127.6C870.55,-117.78 883.05,-106.34 892.62,-97.58"/>
<polygon fill="midnightblue" stroke="midnightblue" points="857.42,-125.06 852.41,-134.4 862.15,-130.22 857.42,-125.06"/>
</g>
<!-- Node18&#45;&gt;Node6 -->
<g id="edge23" class="edge">
<title>Node18&#45;&gt;Node6</title>
<path fill="none" stroke="midnightblue" d="M821.44,-66.98C688.64,-48.34 652.29,-55.99 525,-31 516.86,-29.4 508.13,-27.21 500.15,-25.02"/>
<polygon fill="midnightblue" stroke="midnightblue" points="821.2,-70.48 831.6,-68.43 822.19,-63.55 821.2,-70.48"/>
</g>
<!-- Node19 -->
<g id="node19" class="node">
<title>Node19</title>
<g id="a_node19"><a xlink:href="arm__timer__window_8cpp.html" target="_top" xlink:title="This file implements a window that visualizes the contents of the ARM timer registers.">
<polygon fill="none" stroke="black" points="903,-0.5 903,-30.5 1055,-30.5 1055,-0.5 903,-0.5"/>
<text text-anchor="start" x="911" y="-18.5" font-family="Helvetica,sans-Serif" font-size="10.00">src/gui/windows/peripherals</text>
<text text-anchor="middle" x="979" y="-7.5" font-family="Helvetica,sans-Serif" font-size="10.00">/arm_timer_window.cpp</text>
</a>
</g>
</g>
<!-- Node18&#45;&gt;Node19 -->
<g id="edge24" class="edge">
<title>Node18&#45;&gt;Node19</title>
<path fill="none" stroke="midnightblue" d="M930.83,-60.6C941.55,-50.78 954.05,-39.34 963.62,-30.58"/>
<polygon fill="midnightblue" stroke="midnightblue" points="928.42,-58.06 923.41,-67.4 933.15,-63.22 928.42,-58.06"/>
</g>
</g>
</svg>
