<?xml version="1.0" encoding="UTF-8" standalone="no"?>
<!DOCTYPE svg PUBLIC "-//W3C//DTD SVG 1.1//EN"
 "http://www.w3.org/Graphics/SVG/1.1/DTD/svg11.dtd">
<!-- Generated by graphviz version 2.43.0 (0)
 -->
<!-- Title: src/core/peripherals/system_clock_listener.hpp Pages: 1 -->
<svg width="1588pt" height="240pt"
 viewBox="0.00 0.00 1588.00 240.00" xmlns="http://www.w3.org/2000/svg" xmlns:xlink="http://www.w3.org/1999/xlink">
<g id="graph0" class="graph" transform="scale(1 1) rotate(0) translate(4 236)">
<title>src/core/peripherals/system_clock_listener.hpp</title>
<!-- Node1 -->
<g id="node1" class="node">
<title>Node1</title>
<g id="a_node1"><a xlink:title="This file defines an interface for a CPU clock listener.">
<polygon fill="#bfbfbf" stroke="black" points="870.5,-201.5 870.5,-231.5 1019.5,-231.5 1019.5,-201.5 870.5,-201.5"/>
<text text-anchor="start" x="878.5" y="-219.5" font-family="Helvetica,sans-Serif" font-size="10.00">src/core/peripherals</text>
<text text-anchor="middle" x="945" y="-208.5" font-family="Helvetica,sans-Serif" font-size="10.00">/system_clock_listener.hpp</text>
</a>
</g>
</g>
<!-- Node2 -->
<g id="node2" class="node">
<title>Node2</title>
<g id="a_node2"><a xlink:href="core_8hpp.html" target="_top" xlink:title="This file defines a class that represents a CPU core (arm1176jzf_s).">
<polygon fill="none" stroke="black" points="437.5,-134.5 437.5,-164.5 550.5,-164.5 550.5,-134.5 437.5,-134.5"/>
<text text-anchor="start" x="445.5" y="-152.5" font-family="Helvetica,sans-Serif" font-size="10.00">src/core/arm1176jzf</text>
<text text-anchor="middle" x="494" y="-141.5" font-family="Helvetica,sans-Serif" font-size="10.00">_s/core.hpp</text>
</a>
</g>
</g>
<!-- Node1&#45;&gt;Node2 -->
<g id="edge1" class="edge">
<title>Node1&#45;&gt;Node2</title>
<path fill="none" stroke="midnightblue" d="M860.31,-203.29C769.74,-190.24 628.65,-169.91 550.64,-158.66"/>
<polygon fill="midnightblue" stroke="midnightblue" points="859.88,-206.77 870.27,-204.73 860.88,-199.84 859.88,-206.77"/>
</g>
<!-- Node16 -->
<g id="node16" class="node">
<title>Node16</title>
<g id="a_node16"><a xlink:href="arm__timer_8hpp.html" target="_top" xlink:title="This file defines the ARM timer used in BCM2835.">
<polygon fill="none" stroke="black" points="888.5,-134.5 888.5,-164.5 1001.5,-164.5 1001.5,-134.5 888.5,-134.5"/>
<text text-anchor="start" x="896.5" y="-152.5" font-family="Helvetica,sans-Serif" font-size="10.00">src/core/peripherals</text>
<text text-anchor="middle" x="945" y="-141.5" font-family="Helvetica,sans-Serif" font-size="10.00">/arm_timer.hpp</text>
</a>
</g>
</g>
<!-- Node1&#45;&gt;Node16 -->
<g id="edge19" class="edge">
<title>Node1&#45;&gt;Node16</title>
<path fill="none" stroke="midnightblue" d="M945,-191.11C945,-182.15 945,-172.32 945,-164.58"/>
<polygon fill="midnightblue" stroke="midnightblue" points="941.5,-191.4 945,-201.4 948.5,-191.4 941.5,-191.4"/>
</g>
<!-- Node20 -->
<g id="node20" class="node">
<title>Node20</title>
<g id="a_node20"><a xlink:href="auxiliary_8hpp.html" target="_top" xlink:title=" ">
<polygon fill="none" stroke="black" points="1132,-134.5 1132,-164.5 1260,-164.5 1260,-134.5 1132,-134.5"/>
<text text-anchor="start" x="1140" y="-152.5" font-family="Helvetica,sans-Serif" font-size="10.00">src/core/peripherals</text>
<text text-anchor="middle" x="1196" y="-141.5" font-family="Helvetica,sans-Serif" font-size="10.00">/auxiliary/auxiliary.hpp</text>
</a>
</g>
</g>
<!-- Node1&#45;&gt;Node20 -->
<g id="edge25" class="edge">
<title>Node1&#45;&gt;Node20</title>
<path fill="none" stroke="midnightblue" d="M1009.04,-198.92C1050,-188.31 1102.56,-174.7 1141.51,-164.61"/>
<polygon fill="midnightblue" stroke="midnightblue" points="1007.96,-195.58 999.15,-201.48 1009.71,-202.36 1007.96,-195.58"/>
</g>
<!-- Node3 -->
<g id="node3" class="node">
<title>Node3</title>
<g id="a_node3"><a xlink:href="core_8cpp.html" target="_top" xlink:title="This file implements the CCPU_Core class defined in core.hpp.">
<polygon fill="none" stroke="black" points="437.5,-67.5 437.5,-97.5 550.5,-97.5 550.5,-67.5 437.5,-67.5"/>
<text text-anchor="start" x="445.5" y="-85.5" font-family="Helvetica,sans-Serif" font-size="10.00">src/core/arm1176jzf</text>
<text text-anchor="middle" x="494" y="-74.5" font-family="Helvetica,sans-Serif" font-size="10.00">_s/core.cpp</text>
</a>
</g>
</g>
<!-- Node2&#45;&gt;Node3 -->
<g id="edge2" class="edge">
<title>Node2&#45;&gt;Node3</title>
<path fill="none" stroke="midnightblue" d="M494,-124.11C494,-115.15 494,-105.32 494,-97.58"/>
<polygon fill="midnightblue" stroke="midnightblue" points="490.5,-124.4 494,-134.4 497.5,-124.4 490.5,-124.4"/>
</g>
<!-- Node4 -->
<g id="node4" class="node">
<title>Node4</title>
<g id="a_node4"><a xlink:href="soc_8hpp.html" target="_top" xlink:title=" ">
<polygon fill="none" stroke="black" points="1019.5,-73 1019.5,-92 1114.5,-92 1114.5,-73 1019.5,-73"/>
<text text-anchor="middle" x="1067" y="-80" font-family="Helvetica,sans-Serif" font-size="10.00">src/core/soc.hpp</text>
</a>
</g>
</g>
<!-- Node2&#45;&gt;Node4 -->
<g id="edge3" class="edge">
<title>Node2&#45;&gt;Node4</title>
<path fill="none" stroke="midnightblue" d="M561.03,-145.19C659.87,-139.58 850.3,-125.96 1010,-98 1018.85,-96.45 1028.35,-94.25 1037.01,-92.04"/>
<polygon fill="midnightblue" stroke="midnightblue" points="560.67,-141.7 550.88,-145.76 561.06,-148.69 560.67,-141.7"/>
</g>
<!-- Node8 -->
<g id="node8" class="node">
<title>Node8</title>
<g id="a_node8"><a xlink:href="control__window_8hpp.html" target="_top" xlink:title="This file defines a window that allows the user to control CPU execution.">
<polygon fill="none" stroke="black" points="568.5,-67.5 568.5,-97.5 699.5,-97.5 699.5,-67.5 568.5,-67.5"/>
<text text-anchor="start" x="576.5" y="-85.5" font-family="Helvetica,sans-Serif" font-size="10.00">src/gui/windows/control</text>
<text text-anchor="middle" x="634" y="-74.5" font-family="Helvetica,sans-Serif" font-size="10.00">_window.hpp</text>
</a>
</g>
</g>
<!-- Node2&#45;&gt;Node8 -->
<g id="edge7" class="edge">
<title>Node2&#45;&gt;Node8</title>
<path fill="none" stroke="midnightblue" d="M533.57,-130.13C555.81,-119.8 583.15,-107.11 603.68,-97.58"/>
<polygon fill="midnightblue" stroke="midnightblue" points="531.97,-127.01 524.38,-134.4 534.92,-133.36 531.97,-127.01"/>
</g>
<!-- Node10 -->
<g id="node10" class="node">
<title>Node10</title>
<g id="a_node10"><a xlink:href="registers__window_8hpp.html" target="_top" xlink:title="This file defines a window that displays the contents of all CPU registers.">
<polygon fill="none" stroke="black" points="0,-67.5 0,-97.5 140,-97.5 140,-67.5 0,-67.5"/>
<text text-anchor="start" x="8" y="-85.5" font-family="Helvetica,sans-Serif" font-size="10.00">src/gui/windows/registers</text>
<text text-anchor="middle" x="70" y="-74.5" font-family="Helvetica,sans-Serif" font-size="10.00">_window.hpp</text>
</a>
</g>
</g>
<!-- Node2&#45;&gt;Node10 -->
<g id="edge10" class="edge">
<title>Node2&#45;&gt;Node10</title>
<path fill="none" stroke="midnightblue" d="M427.48,-139.49C357.93,-129.9 245.63,-113.94 149,-98 146.11,-97.52 143.16,-97.03 140.19,-96.52"/>
<polygon fill="midnightblue" stroke="midnightblue" points="427.05,-142.96 437.43,-140.86 428,-136.03 427.05,-142.96"/>
</g>
<!-- Node12 -->
<g id="node12" class="node">
<title>Node12</title>
<g id="a_node12"><a xlink:href="source__code__window_8hpp.html" target="_top" xlink:title="This file defines a window that displays loaded ELF files (disassembled instructions of the source co...">
<polygon fill="none" stroke="black" points="158,-67.5 158,-97.5 288,-97.5 288,-67.5 158,-67.5"/>
<text text-anchor="start" x="166" y="-85.5" font-family="Helvetica,sans-Serif" font-size="10.00">src/gui/windows/source</text>
<text text-anchor="middle" x="223" y="-74.5" font-family="Helvetica,sans-Serif" font-size="10.00">_code_window.hpp</text>
</a>
</g>
</g>
<!-- Node2&#45;&gt;Node12 -->
<g id="edge13" class="edge">
<title>Node2&#45;&gt;Node12</title>
<path fill="none" stroke="midnightblue" d="M427.31,-132.5C382.67,-121.8 324.47,-107.84 281.61,-97.56"/>
<polygon fill="midnightblue" stroke="midnightblue" points="426.65,-135.94 437.19,-134.87 428.28,-129.14 426.65,-135.94"/>
</g>
<!-- Node14 -->
<g id="node14" class="node">
<title>Node14</title>
<g id="a_node14"><a xlink:href="top__bar__menu_8hpp.html" target="_top" xlink:title=" ">
<polygon fill="none" stroke="black" points="306.5,-67.5 306.5,-97.5 419.5,-97.5 419.5,-67.5 306.5,-67.5"/>
<text text-anchor="start" x="314.5" y="-85.5" font-family="Helvetica,sans-Serif" font-size="10.00">src/gui/windows/top</text>
<text text-anchor="middle" x="363" y="-74.5" font-family="Helvetica,sans-Serif" font-size="10.00">_bar_menu.hpp</text>
</a>
</g>
</g>
<!-- Node2&#45;&gt;Node14 -->
<g id="edge16" class="edge">
<title>Node2&#45;&gt;Node14</title>
<path fill="none" stroke="midnightblue" d="M456.42,-129.85C435.71,-119.58 410.41,-107.03 391.37,-97.58"/>
<polygon fill="midnightblue" stroke="midnightblue" points="455.06,-133.09 465.57,-134.4 458.17,-126.82 455.06,-133.09"/>
</g>
<!-- Node5 -->
<g id="node5" class="node">
<title>Node5</title>
<g id="a_node5"><a xlink:href="soc_8cpp.html" target="_top" xlink:title=" ">
<polygon fill="none" stroke="black" points="1071.5,-6 1071.5,-25 1166.5,-25 1166.5,-6 1071.5,-6"/>
<text text-anchor="middle" x="1119" y="-13" font-family="Helvetica,sans-Serif" font-size="10.00">src/core/soc.cpp</text>
</a>
</g>
</g>
<!-- Node4&#45;&gt;Node5 -->
<g id="edge4" class="edge">
<title>Node4&#45;&gt;Node5</title>
<path fill="none" stroke="midnightblue" d="M1080.38,-64.77C1090.52,-52.1 1104.04,-35.2 1112.1,-25.13"/>
<polygon fill="midnightblue" stroke="midnightblue" points="1077.53,-62.74 1074.01,-72.73 1082.99,-67.11 1077.53,-62.74"/>
</g>
<!-- Node6 -->
<g id="node6" class="node">
<title>Node6</title>
<g id="a_node6"><a xlink:href="gui_8cpp.html" target="_top" xlink:title="This file implements the main GUI entry function that takes care of creating and rendering all window...">
<polygon fill="none" stroke="black" points="463.5,-6 463.5,-25 550.5,-25 550.5,-6 463.5,-6"/>
<text text-anchor="middle" x="507" y="-13" font-family="Helvetica,sans-Serif" font-size="10.00">src/gui/gui.cpp</text>
</a>
</g>
</g>
<!-- Node4&#45;&gt;Node6 -->
<g id="edge5" class="edge">
<title>Node4&#45;&gt;Node6</title>
<path fill="none" stroke="midnightblue" d="M1027.2,-70.46C1021.46,-69.14 1015.6,-67.93 1010,-67 811.63,-34.1 756.98,-66.17 559,-31 550.7,-29.52 541.8,-27.29 533.76,-25.02"/>
<polygon fill="midnightblue" stroke="midnightblue" points="1026.78,-73.96 1037.32,-72.94 1028.44,-67.16 1026.78,-73.96"/>
</g>
<!-- Node7 -->
<g id="node7" class="node">
<title>Node7</title>
<g id="a_node7"><a xlink:href="main_8cpp.html" target="_top" xlink:title="This file defines and implements the main function of the application.">
<polygon fill="none" stroke="black" points="974.5,-6 974.5,-25 1053.5,-25 1053.5,-6 974.5,-6"/>
<text text-anchor="middle" x="1014" y="-13" font-family="Helvetica,sans-Serif" font-size="10.00">src/main.cpp</text>
</a>
</g>
</g>
<!-- Node4&#45;&gt;Node7 -->
<g id="edge6" class="edge">
<title>Node4&#45;&gt;Node7</title>
<path fill="none" stroke="midnightblue" d="M1053.36,-64.77C1043.03,-52.1 1029.25,-35.2 1021.03,-25.13"/>
<polygon fill="midnightblue" stroke="midnightblue" points="1050.82,-67.2 1059.85,-72.73 1056.25,-62.77 1050.82,-67.2"/>
</g>
<!-- Node8&#45;&gt;Node6 -->
<g id="edge8" class="edge">
<title>Node8&#45;&gt;Node6</title>
<path fill="none" stroke="midnightblue" d="M597.47,-62.8C573.12,-50.34 542.28,-34.56 523.62,-25.01"/>
<polygon fill="midnightblue" stroke="midnightblue" points="595.95,-65.96 606.44,-67.4 599.14,-59.72 595.95,-65.96"/>
</g>
<!-- Node9 -->
<g id="node9" class="node">
<title>Node9</title>
<g id="a_node9"><a xlink:href="control__window_8cpp.html" target="_top" xlink:title="This file implements a window that allows the user to control CPU execution.">
<polygon fill="none" stroke="black" points="568.5,-0.5 568.5,-30.5 699.5,-30.5 699.5,-0.5 568.5,-0.5"/>
<text text-anchor="start" x="576.5" y="-18.5" font-family="Helvetica,sans-Serif" font-size="10.00">src/gui/windows/control</text>
<text text-anchor="middle" x="634" y="-7.5" font-family="Helvetica,sans-Serif" font-size="10.00">_window.cpp</text>
</a>
</g>
</g>
<!-- Node8&#45;&gt;Node9 -->
<g id="edge9" class="edge">
<title>Node8&#45;&gt;Node9</title>
<path fill="none" stroke="midnightblue" d="M634,-57.11C634,-48.15 634,-38.32 634,-30.58"/>
<polygon fill="midnightblue" stroke="midnightblue" points="630.5,-57.4 634,-67.4 637.5,-57.4 630.5,-57.4"/>
</g>
<!-- Node10&#45;&gt;Node6 -->
<g id="edge11" class="edge">
<title>Node10&#45;&gt;Node6</title>
<path fill="none" stroke="midnightblue" d="M150.07,-66.89C274.21,-47.82 307.61,-49.8 428,-31 439.44,-29.21 451.76,-27.06 463.19,-24.97"/>
<polygon fill="midnightblue" stroke="midnightblue" points="149.52,-63.43 140.18,-68.42 150.6,-70.35 149.52,-63.43"/>
</g>
<!-- Node11 -->
<g id="node11" class="node">
<title>Node11</title>
<g id="a_node11"><a xlink:href="registers__window_8cpp.html" target="_top" xlink:title="This file implements a window that displays the contents of all CPU registers.">
<polygon fill="none" stroke="black" points="0,-0.5 0,-30.5 140,-30.5 140,-0.5 0,-0.5"/>
<text text-anchor="start" x="8" y="-18.5" font-family="Helvetica,sans-Serif" font-size="10.00">src/gui/windows/registers</text>
<text text-anchor="middle" x="70" y="-7.5" font-family="Helvetica,sans-Serif" font-size="10.00">_window.cpp</text>
</a>
</g>
</g>
<!-- Node10&#45;&gt;Node11 -->
<g id="edge12" class="edge">
<title>Node10&#45;&gt;Node11</title>
<path fill="none" stroke="midnightblue" d="M70,-57.11C70,-48.15 70,-38.32 70,-30.58"/>
<polygon fill="midnightblue" stroke="midnightblue" points="66.5,-57.4 70,-67.4 73.5,-57.4 66.5,-57.4"/>
</g>
<!-- Node12&#45;&gt;Node6 -->
<g id="edge14" class="edge">
<title>Node12&#45;&gt;Node6</title>
<path fill="none" stroke="midnightblue" d="M294.1,-65.23C349.86,-52.47 425.24,-35.21 469.74,-25.03"/>
<polygon fill="midnightblue" stroke="midnightblue" points="293.24,-61.83 284.27,-67.48 294.8,-68.66 293.24,-61.83"/>
</g>
<!-- Node13 -->
<g id="node13" class="node">
<title>Node13</title>
<g id="a_node13"><a xlink:href="source__code__window_8cpp.html" target="_top" xlink:title="This file implements a window that displays loaded ELF files (disassembled instructions of the source...">
<polygon fill="none" stroke="black" points="158,-0.5 158,-30.5 288,-30.5 288,-0.5 158,-0.5"/>
<text text-anchor="start" x="166" y="-18.5" font-family="Helvetica,sans-Serif" font-size="10.00">src/gui/windows/source</text>
<text text-anchor="middle" x="223" y="-7.5" font-family="Helvetica,sans-Serif" font-size="10.00">_code_window.cpp</text>
</a>
</g>
</g>
<!-- Node12&#45;&gt;Node13 -->
<g id="edge15" class="edge">
<title>Node12&#45;&gt;Node13</title>
<path fill="none" stroke="midnightblue" d="M223,-57.11C223,-48.15 223,-38.32 223,-30.58"/>
<polygon fill="midnightblue" stroke="midnightblue" points="219.5,-57.4 223,-67.4 226.5,-57.4 219.5,-57.4"/>
</g>
<!-- Node14&#45;&gt;Node6 -->
<g id="edge17" class="edge">
<title>Node14&#45;&gt;Node6</title>
<path fill="none" stroke="midnightblue" d="M403.69,-63.13C431.41,-50.62 466.81,-34.64 488.15,-25.01"/>
<polygon fill="midnightblue" stroke="midnightblue" points="401.92,-60.09 394.25,-67.4 404.8,-66.47 401.92,-60.09"/>
</g>
<!-- Node15 -->
<g id="node15" class="node">
<title>Node15</title>
<g id="a_node15"><a xlink:href="top__bar__menu_8cpp.html" target="_top" xlink:title=" ">
<polygon fill="none" stroke="black" points="306.5,-0.5 306.5,-30.5 419.5,-30.5 419.5,-0.5 306.5,-0.5"/>
<text text-anchor="start" x="314.5" y="-18.5" font-family="Helvetica,sans-Serif" font-size="10.00">src/gui/windows/top</text>
<text text-anchor="middle" x="363" y="-7.5" font-family="Helvetica,sans-Serif" font-size="10.00">_bar_menu.cpp</text>
</a>
</g>
</g>
<!-- Node14&#45;&gt;Node15 -->
<g id="edge18" class="edge">
<title>Node14&#45;&gt;Node15</title>
<path fill="none" stroke="midnightblue" d="M363,-57.11C363,-48.15 363,-38.32 363,-30.58"/>
<polygon fill="midnightblue" stroke="midnightblue" points="359.5,-57.4 363,-67.4 366.5,-57.4 359.5,-57.4"/>
</g>
<!-- Node16&#45;&gt;Node4 -->
<g id="edge21" class="edge">
<title>Node16&#45;&gt;Node4</title>
<path fill="none" stroke="midnightblue" d="M980.4,-129.64C1003.74,-117.2 1033.19,-101.51 1051.03,-92.01"/>
<polygon fill="midnightblue" stroke="midnightblue" points="978.65,-126.6 971.47,-134.4 981.94,-132.78 978.65,-126.6"/>
</g>
<!-- Node17 -->
<g id="node17" class="node">
<title>Node17</title>
<g id="a_node17"><a xlink:href="arm__timer_8cpp.html" target="_top" xlink:title="This file implements the ARM timer used in BCM2835 as defined in arm_timer.hpp.">
<polygon fill="none" stroke="black" points="888.5,-67.5 888.5,-97.5 1001.5,-97.5 1001.5,-67.5 888.5,-67.5"/>
<text text-anchor="start" x="896.5" y="-85.5" font-family="Helvetica,sans-Serif" font-size="10.00">src/core/peripherals</text>
<text text-anchor="middle" x="945" y="-74.5" font-family="Helvetica,sans-Serif" font-size="10.00">/arm_timer.cpp</text>
</a>
</g>
</g>
<!-- Node16&#45;&gt;Node17 -->
<g id="edge20" class="edge">
<title>Node16&#45;&gt;Node17</title>
<path fill="none" stroke="midnightblue" d="M945,-124.11C945,-115.15 945,-105.32 945,-97.58"/>
<polygon fill="midnightblue" stroke="midnightblue" points="941.5,-124.4 945,-134.4 948.5,-124.4 941.5,-124.4"/>
</g>
<!-- Node18 -->
<g id="node18" class="node">
<title>Node18</title>
<g id="a_node18"><a xlink:href="arm__timer__window_8hpp.html" target="_top" xlink:title="This file defines a window that visualizes the contents of the ARM timer registers.">
<polygon fill="none" stroke="black" points="718,-67.5 718,-97.5 870,-97.5 870,-67.5 718,-67.5"/>
<text text-anchor="start" x="726" y="-85.5" font-family="Helvetica,sans-Serif" font-size="10.00">src/gui/windows/peripherals</text>
<text text-anchor="middle" x="794" y="-74.5" font-family="Helvetica,sans-Serif" font-size="10.00">/arm_timer_window.hpp</text>
</a>
</g>
</g>
<!-- Node16&#45;&gt;Node18 -->
<g id="edge22" class="edge">
<title>Node16&#45;&gt;Node18</title>
<path fill="none" stroke="midnightblue" d="M902.97,-130.41C878.86,-120.03 849.05,-107.2 826.7,-97.58"/>
<polygon fill="midnightblue" stroke="midnightblue" points="901.67,-133.66 912.24,-134.4 904.43,-127.23 901.67,-133.66"/>
</g>
<!-- Node18&#45;&gt;Node6 -->
<g id="edge23" class="edge">
<title>Node18&#45;&gt;Node6</title>
<path fill="none" stroke="midnightblue" d="M713.5,-65.45C667.99,-56.07 610.15,-43.61 559,-31 551.63,-29.18 543.72,-27.06 536.34,-25.02"/>
<polygon fill="midnightblue" stroke="midnightblue" points="712.81,-68.88 723.31,-67.47 714.21,-62.03 712.81,-68.88"/>
</g>
<!-- Node19 -->
<g id="node19" class="node">
<title>Node19</title>
<g id="a_node19"><a xlink:href="arm__timer__window_8cpp.html" target="_top" xlink:title="This file implements a window that visualizes the contents of the ARM timer registers.">
<polygon fill="none" stroke="black" points="718,-0.5 718,-30.5 870,-30.5 870,-0.5 718,-0.5"/>
<text text-anchor="start" x="726" y="-18.5" font-family="Helvetica,sans-Serif" font-size="10.00">src/gui/windows/peripherals</text>
<text text-anchor="middle" x="794" y="-7.5" font-family="Helvetica,sans-Serif" font-size="10.00">/arm_timer_window.cpp</text>
</a>
</g>
</g>
<!-- Node18&#45;&gt;Node19 -->
<g id="edge24" class="edge">
<title>Node18&#45;&gt;Node19</title>
<path fill="none" stroke="midnightblue" d="M794,-57.11C794,-48.15 794,-38.32 794,-30.58"/>
<polygon fill="midnightblue" stroke="midnightblue" points="790.5,-57.4 794,-67.4 797.5,-57.4 790.5,-57.4"/>
</g>
<!-- Node20&#45;&gt;Node4 -->
<g id="edge28" class="edge">
<title>Node20&#45;&gt;Node4</title>
<path fill="none" stroke="midnightblue" d="M1158.89,-129.8C1134.16,-117.34 1102.83,-101.56 1083.88,-92.01"/>
<polygon fill="midnightblue" stroke="midnightblue" points="1157.5,-133.02 1168.01,-134.4 1160.65,-126.77 1157.5,-133.02"/>
</g>
<!-- Node21 -->
<g id="node21" class="node">
<title>Node21</title>
<g id="a_node21"><a xlink:href="auxiliary_8cpp.html" target="_top" xlink:title=" ">
<polygon fill="none" stroke="black" points="1132.5,-67.5 1132.5,-97.5 1259.5,-97.5 1259.5,-67.5 1132.5,-67.5"/>
<text text-anchor="start" x="1140.5" y="-85.5" font-family="Helvetica,sans-Serif" font-size="10.00">src/core/peripherals</text>
<text text-anchor="middle" x="1196" y="-74.5" font-family="Helvetica,sans-Serif" font-size="10.00">/auxiliary/auxiliary.cpp</text>
</a>
</g>
</g>
<!-- Node20&#45;&gt;Node21 -->
<g id="edge26" class="edge">
<title>Node20&#45;&gt;Node21</title>
<path fill="none" stroke="midnightblue" d="M1196,-124.11C1196,-115.15 1196,-105.32 1196,-97.58"/>
<polygon fill="midnightblue" stroke="midnightblue" points="1192.5,-124.4 1196,-134.4 1199.5,-124.4 1192.5,-124.4"/>
</g>
<!-- Node22 -->
<g id="node22" class="node">
<title>Node22</title>
<g id="a_node22"><a xlink:href="mini__uart_8cpp.html" target="_top" xlink:title="This file implements the Mini UART auxiliary peripheral used in BCM2835.">
<polygon fill="none" stroke="black" points="1448,-67.5 1448,-97.5 1580,-97.5 1580,-67.5 1448,-67.5"/>
<text text-anchor="start" x="1456" y="-85.5" font-family="Helvetica,sans-Serif" font-size="10.00">src/core/peripherals</text>
<text text-anchor="middle" x="1514" y="-74.5" font-family="Helvetica,sans-Serif" font-size="10.00">/auxiliary/mini_uart.cpp</text>
</a>
</g>
</g>
<!-- Node20&#45;&gt;Node22 -->
<g id="edge27" class="edge">
<title>Node20&#45;&gt;Node22</title>
<path fill="none" stroke="midnightblue" d="M1270.17,-133.34C1323.94,-122.35 1396.01,-107.62 1447.83,-97.03"/>
<polygon fill="midnightblue" stroke="midnightblue" points="1269.45,-129.91 1260.35,-135.35 1270.85,-136.77 1269.45,-129.91"/>
</g>
<!-- Node23 -->
<g id="node23" class="node">
<title>Node23</title>
<g id="a_node23"><a xlink:href="aux__window_8hpp.html" target="_top" xlink:title="This file defines a window that visualizes the auxiliaries (UART1 &amp; SPI1, and SPI2) used in BCM2835.">
<polygon fill="none" stroke="black" points="1278,-67.5 1278,-97.5 1430,-97.5 1430,-67.5 1278,-67.5"/>
<text text-anchor="start" x="1286" y="-85.5" font-family="Helvetica,sans-Serif" font-size="10.00">src/gui/windows/peripherals</text>
<text text-anchor="middle" x="1354" y="-74.5" font-family="Helvetica,sans-Serif" font-size="10.00">/aux_window.hpp</text>
</a>
</g>
</g>
<!-- Node20&#45;&gt;Node23 -->
<g id="edge29" class="edge">
<title>Node20&#45;&gt;Node23</title>
<path fill="none" stroke="midnightblue" d="M1239.65,-130.54C1264.93,-120.14 1296.3,-107.24 1319.78,-97.58"/>
<polygon fill="midnightblue" stroke="midnightblue" points="1238.2,-127.35 1230.28,-134.4 1240.86,-133.83 1238.2,-127.35"/>
</g>
<!-- Node23&#45;&gt;Node6 -->
<g id="edge30" class="edge">
<title>Node23&#45;&gt;Node6</title>
<path fill="none" stroke="midnightblue" d="M1267.29,-66.91C953.11,-33.42 867.51,-81.2 559,-31 550.49,-29.62 541.38,-27.35 533.2,-25.02"/>
<polygon fill="midnightblue" stroke="midnightblue" points="1267.29,-70.43 1277.6,-68.03 1268.04,-63.47 1267.29,-70.43"/>
</g>
<!-- Node24 -->
<g id="node24" class="node">
<title>Node24</title>
<g id="a_node24"><a xlink:href="aux__window_8cpp.html" target="_top" xlink:title="This file implements a window that visualizes the auxiliaries (UART1 &amp; SPI1, and SPI2) used in BCM283...">
<polygon fill="none" stroke="black" points="1278,-0.5 1278,-30.5 1430,-30.5 1430,-0.5 1278,-0.5"/>
<text text-anchor="start" x="1286" y="-18.5" font-family="Helvetica,sans-Serif" font-size="10.00">src/gui/windows/peripherals</text>
<text text-anchor="middle" x="1354" y="-7.5" font-family="Helvetica,sans-Serif" font-size="10.00">/aux_window.cpp</text>
</a>
</g>
</g>
<!-- Node23&#45;&gt;Node24 -->
<g id="edge31" class="edge">
<title>Node23&#45;&gt;Node24</title>
<path fill="none" stroke="midnightblue" d="M1354,-57.11C1354,-48.15 1354,-38.32 1354,-30.58"/>
<polygon fill="midnightblue" stroke="midnightblue" points="1350.5,-57.4 1354,-67.4 1357.5,-57.4 1350.5,-57.4"/>
</g>
</g>
</svg>
