<?xml version="1.0" encoding="UTF-8" standalone="no"?>
<!DOCTYPE svg PUBLIC "-//W3C//DTD SVG 1.1//EN"
 "http://www.w3.org/Graphics/SVG/1.1/DTD/svg11.dtd">
<!-- Generated by graphviz version 2.43.0 (0)
 -->
<!-- Title: src/gui/window.hpp Pages: 1 -->
<svg width="1863pt" height="162pt"
 viewBox="0.00 0.00 1862.50 162.00" xmlns="http://www.w3.org/2000/svg" xmlns:xlink="http://www.w3.org/1999/xlink">
<g id="graph0" class="graph" transform="scale(1 1) rotate(0) translate(4 158)">
<title>src/gui/window.hpp</title>
<!-- Node1 -->
<g id="node1" class="node">
<title>Node1</title>
<g id="a_node1"><a xlink:title=" ">
<polygon fill="#bfbfbf" stroke="black" points="797.5,-134.5 797.5,-153.5 907.5,-153.5 907.5,-134.5 797.5,-134.5"/>
<text text-anchor="middle" x="852.5" y="-141.5" font-family="Helvetica,sans-Serif" font-size="10.00">src/gui/window.hpp</text>
</a>
</g>
</g>
<!-- Node2 -->
<g id="node2" class="node">
<title>Node2</title>
<g id="a_node2"><a xlink:href="gui_8cpp.html" target="_top" xlink:title=" ">
<polygon fill="none" stroke="black" points="757,-6 757,-25 844,-25 844,-6 757,-6"/>
<text text-anchor="middle" x="800.5" y="-13" font-family="Helvetica,sans-Serif" font-size="10.00">src/gui/gui.cpp</text>
</a>
</g>
</g>
<!-- Node1&#45;&gt;Node2 -->
<g id="edge1" class="edge">
<title>Node1&#45;&gt;Node2</title>
<path fill="none" stroke="midnightblue" d="M837.9,-126.51C831.41,-118.41 824.2,-108.21 819.5,-98 808.09,-73.18 803.19,-40.86 801.39,-25.44"/>
<polygon fill="midnightblue" stroke="midnightblue" points="835.4,-128.97 844.51,-134.38 840.76,-124.47 835.4,-128.97"/>
</g>
<!-- Node3 -->
<g id="node3" class="node">
<title>Node3</title>
<g id="a_node3"><a xlink:href="control__window_8hpp.html" target="_top" xlink:title=" ">
<polygon fill="none" stroke="black" points="33,-67.5 33,-97.5 164,-97.5 164,-67.5 33,-67.5"/>
<text text-anchor="start" x="41" y="-85.5" font-family="Helvetica,sans-Serif" font-size="10.00">src/gui/windows/control</text>
<text text-anchor="middle" x="98.5" y="-74.5" font-family="Helvetica,sans-Serif" font-size="10.00">_window.hpp</text>
</a>
</g>
</g>
<!-- Node1&#45;&gt;Node3 -->
<g id="edge2" class="edge">
<title>Node1&#45;&gt;Node3</title>
<path fill="none" stroke="midnightblue" d="M786.92,-141.44C665.32,-137.92 396.79,-127.27 172.5,-98 169.77,-97.64 167,-97.25 164.2,-96.82"/>
<polygon fill="midnightblue" stroke="midnightblue" points="787.08,-144.94 797.18,-141.73 787.28,-137.94 787.08,-144.94"/>
</g>
<!-- Node5 -->
<g id="node5" class="node">
<title>Node5</title>
<g id="a_node5"><a xlink:href="file__window_8hpp.html" target="_top" xlink:title=" ">
<polygon fill="none" stroke="black" points="182,-67.5 182,-97.5 295,-97.5 295,-67.5 182,-67.5"/>
<text text-anchor="start" x="190" y="-85.5" font-family="Helvetica,sans-Serif" font-size="10.00">src/gui/windows/file</text>
<text text-anchor="middle" x="238.5" y="-74.5" font-family="Helvetica,sans-Serif" font-size="10.00">_window.hpp</text>
</a>
</g>
</g>
<!-- Node1&#45;&gt;Node5 -->
<g id="edge5" class="edge">
<title>Node1&#45;&gt;Node5</title>
<path fill="none" stroke="midnightblue" d="M787,-140.55C683.73,-136.03 476.95,-124.33 303.5,-98 300.76,-97.58 297.96,-97.12 295.13,-96.62"/>
<polygon fill="midnightblue" stroke="midnightblue" points="787.13,-144.06 797.27,-140.99 787.43,-137.06 787.13,-144.06"/>
</g>
<!-- Node7 -->
<g id="node7" class="node">
<title>Node7</title>
<g id="a_node7"><a xlink:href="log__window_8hpp.html" target="_top" xlink:title=" ">
<polygon fill="none" stroke="black" points="313,-67.5 313,-97.5 426,-97.5 426,-67.5 313,-67.5"/>
<text text-anchor="start" x="321" y="-85.5" font-family="Helvetica,sans-Serif" font-size="10.00">src/gui/windows/log</text>
<text text-anchor="middle" x="369.5" y="-74.5" font-family="Helvetica,sans-Serif" font-size="10.00">_window.hpp</text>
</a>
</g>
</g>
<!-- Node1&#45;&gt;Node7 -->
<g id="edge8" class="edge">
<title>Node1&#45;&gt;Node7</title>
<path fill="none" stroke="midnightblue" d="M787.05,-138.15C704.68,-131.54 559.03,-118.17 435.5,-98 432.49,-97.51 429.41,-96.97 426.31,-96.39"/>
<polygon fill="midnightblue" stroke="midnightblue" points="787.02,-141.66 797.27,-138.96 787.57,-134.68 787.02,-141.66"/>
</g>
<!-- Node9 -->
<g id="node9" class="node">
<title>Node9</title>
<g id="a_node9"><a xlink:href="arm__timer__window_8hpp.html" target="_top" xlink:title=" ">
<polygon fill="none" stroke="black" points="444.5,-67.5 444.5,-97.5 596.5,-97.5 596.5,-67.5 444.5,-67.5"/>
<text text-anchor="start" x="452.5" y="-85.5" font-family="Helvetica,sans-Serif" font-size="10.00">src/gui/windows/peripherals</text>
<text text-anchor="middle" x="520.5" y="-74.5" font-family="Helvetica,sans-Serif" font-size="10.00">/arm_timer_window.hpp</text>
</a>
</g>
</g>
<!-- Node1&#45;&gt;Node9 -->
<g id="edge11" class="edge">
<title>Node1&#45;&gt;Node9</title>
<path fill="none" stroke="midnightblue" d="M795.01,-132.7C740.07,-122.85 656.91,-107.95 596.52,-97.12"/>
<polygon fill="midnightblue" stroke="midnightblue" points="794.47,-136.16 804.93,-134.48 795.71,-129.27 794.47,-136.16"/>
</g>
<!-- Node11 -->
<g id="node11" class="node">
<title>Node11</title>
<g id="a_node11"><a xlink:href="button__window_8hpp.html" target="_top" xlink:title=" ">
<polygon fill="none" stroke="black" points="614.5,-67.5 614.5,-97.5 772.5,-97.5 772.5,-67.5 614.5,-67.5"/>
<text text-anchor="start" x="622.5" y="-85.5" font-family="Helvetica,sans-Serif" font-size="10.00">src/gui/windows/peripherals</text>
<text text-anchor="middle" x="693.5" y="-74.5" font-family="Helvetica,sans-Serif" font-size="10.00">/external/button_window.hpp</text>
</a>
</g>
</g>
<!-- Node1&#45;&gt;Node11 -->
<g id="edge14" class="edge">
<title>Node1&#45;&gt;Node11</title>
<path fill="none" stroke="midnightblue" d="M820.03,-130.85C794.2,-121.18 758.03,-107.65 730.97,-97.52"/>
<polygon fill="midnightblue" stroke="midnightblue" points="819.13,-134.25 829.72,-134.48 821.58,-127.69 819.13,-134.25"/>
</g>
<!-- Node13 -->
<g id="node13" class="node">
<title>Node13</title>
<g id="a_node13"><a xlink:href="gpio__window_8hpp.html" target="_top" xlink:title=" ">
<polygon fill="none" stroke="black" points="828.5,-67.5 828.5,-97.5 980.5,-97.5 980.5,-67.5 828.5,-67.5"/>
<text text-anchor="start" x="836.5" y="-85.5" font-family="Helvetica,sans-Serif" font-size="10.00">src/gui/windows/peripherals</text>
<text text-anchor="middle" x="904.5" y="-74.5" font-family="Helvetica,sans-Serif" font-size="10.00">/gpio_window.hpp</text>
</a>
</g>
</g>
<!-- Node1&#45;&gt;Node13 -->
<g id="edge17" class="edge">
<title>Node1&#45;&gt;Node13</title>
<path fill="none" stroke="midnightblue" d="M866.65,-126.81C874.66,-117.65 884.57,-106.3 892.24,-97.52"/>
<polygon fill="midnightblue" stroke="midnightblue" points="863.9,-124.64 859.95,-134.48 869.17,-129.25 863.9,-124.64"/>
</g>
<!-- Node15 -->
<g id="node15" class="node">
<title>Node15</title>
<g id="a_node15"><a xlink:href="interrupt__controller__window_8hpp.html" target="_top" xlink:title=" ">
<polygon fill="none" stroke="black" points="998.5,-67.5 998.5,-97.5 1174.5,-97.5 1174.5,-67.5 998.5,-67.5"/>
<text text-anchor="start" x="1006.5" y="-85.5" font-family="Helvetica,sans-Serif" font-size="10.00">src/gui/windows/peripherals</text>
<text text-anchor="middle" x="1086.5" y="-74.5" font-family="Helvetica,sans-Serif" font-size="10.00">/interrupt_controller_window.hpp</text>
</a>
</g>
</g>
<!-- Node1&#45;&gt;Node15 -->
<g id="edge20" class="edge">
<title>Node1&#45;&gt;Node15</title>
<path fill="none" stroke="midnightblue" d="M895.83,-131.98C934.05,-122.27 989.95,-108.05 1031.35,-97.52"/>
<polygon fill="midnightblue" stroke="midnightblue" points="894.86,-128.62 886.03,-134.48 896.58,-135.4 894.86,-128.62"/>
</g>
<!-- Node17 -->
<g id="node17" class="node">
<title>Node17</title>
<g id="a_node17"><a xlink:href="monitor__window_8hpp.html" target="_top" xlink:title=" ">
<polygon fill="none" stroke="black" points="1192.5,-67.5 1192.5,-97.5 1344.5,-97.5 1344.5,-67.5 1192.5,-67.5"/>
<text text-anchor="start" x="1200.5" y="-85.5" font-family="Helvetica,sans-Serif" font-size="10.00">src/gui/windows/peripherals</text>
<text text-anchor="middle" x="1268.5" y="-74.5" font-family="Helvetica,sans-Serif" font-size="10.00">/monitor_window.hpp</text>
</a>
</g>
</g>
<!-- Node1&#45;&gt;Node17 -->
<g id="edge23" class="edge">
<title>Node1&#45;&gt;Node17</title>
<path fill="none" stroke="midnightblue" d="M917.6,-134.81C984.42,-126.25 1091.35,-112.12 1183.5,-98 1186.31,-97.57 1189.17,-97.12 1192.06,-96.66"/>
<polygon fill="midnightblue" stroke="midnightblue" points="917.11,-131.34 907.64,-136.08 918,-138.29 917.11,-131.34"/>
</g>
<!-- Node19 -->
<g id="node19" class="node">
<title>Node19</title>
<g id="a_node19"><a xlink:href="ram__window_8hpp.html" target="_top" xlink:title=" ">
<polygon fill="none" stroke="black" points="1362.5,-67.5 1362.5,-97.5 1514.5,-97.5 1514.5,-67.5 1362.5,-67.5"/>
<text text-anchor="start" x="1370.5" y="-85.5" font-family="Helvetica,sans-Serif" font-size="10.00">src/gui/windows/peripherals</text>
<text text-anchor="middle" x="1438.5" y="-74.5" font-family="Helvetica,sans-Serif" font-size="10.00">/ram_window.hpp</text>
</a>
</g>
</g>
<!-- Node1&#45;&gt;Node19 -->
<g id="edge26" class="edge">
<title>Node1&#45;&gt;Node19</title>
<path fill="none" stroke="midnightblue" d="M917.62,-138.81C1013.37,-132.27 1197.67,-118.26 1353.5,-98 1356.32,-97.63 1359.19,-97.24 1362.09,-96.83"/>
<polygon fill="midnightblue" stroke="midnightblue" points="917.26,-135.33 907.52,-139.49 917.73,-142.31 917.26,-135.33"/>
</g>
<!-- Node21 -->
<g id="node21" class="node">
<title>Node21</title>
<g id="a_node21"><a xlink:href="registers__window_8hpp.html" target="_top" xlink:title=" ">
<polygon fill="none" stroke="black" points="1532.5,-67.5 1532.5,-97.5 1672.5,-97.5 1672.5,-67.5 1532.5,-67.5"/>
<text text-anchor="start" x="1540.5" y="-85.5" font-family="Helvetica,sans-Serif" font-size="10.00">src/gui/windows/registers</text>
<text text-anchor="middle" x="1602.5" y="-74.5" font-family="Helvetica,sans-Serif" font-size="10.00">_window.hpp</text>
</a>
</g>
</g>
<!-- Node1&#45;&gt;Node21 -->
<g id="edge29" class="edge">
<title>Node1&#45;&gt;Node21</title>
<path fill="none" stroke="midnightblue" d="M918.09,-141.1C1038.47,-137.05 1302.57,-125.59 1523.5,-98 1526.41,-97.64 1529.37,-97.24 1532.35,-96.81"/>
<polygon fill="midnightblue" stroke="midnightblue" points="917.82,-137.6 907.94,-141.43 918.05,-144.6 917.82,-137.6"/>
</g>
<!-- Node23 -->
<g id="node23" class="node">
<title>Node23</title>
<g id="a_node23"><a xlink:href="source__code__window_8hpp.html" target="_top" xlink:title=" ">
<polygon fill="none" stroke="black" points="1690.5,-67.5 1690.5,-97.5 1820.5,-97.5 1820.5,-67.5 1690.5,-67.5"/>
<text text-anchor="start" x="1698.5" y="-85.5" font-family="Helvetica,sans-Serif" font-size="10.00">src/gui/windows/source</text>
<text text-anchor="middle" x="1755.5" y="-74.5" font-family="Helvetica,sans-Serif" font-size="10.00">_code_window.hpp</text>
</a>
</g>
</g>
<!-- Node1&#45;&gt;Node23 -->
<g id="edge32" class="edge">
<title>Node1&#45;&gt;Node23</title>
<path fill="none" stroke="midnightblue" d="M917.69,-142.54C1057.95,-140.88 1398.58,-133.22 1681.5,-98 1684.36,-97.64 1687.27,-97.24 1690.21,-96.81"/>
<polygon fill="midnightblue" stroke="midnightblue" points="917.5,-139.04 907.54,-142.66 917.58,-146.04 917.5,-139.04"/>
</g>
<!-- Node3&#45;&gt;Node2 -->
<g id="edge3" class="edge">
<title>Node3&#45;&gt;Node2</title>
<path fill="none" stroke="midnightblue" d="M174.47,-66.86C428.3,-35.32 498.24,-72.45 747.5,-31 756.06,-29.58 765.24,-27.33 773.5,-25.03"/>
<polygon fill="midnightblue" stroke="midnightblue" points="173.68,-63.43 164.19,-68.16 174.56,-70.38 173.68,-63.43"/>
</g>
<!-- Node4 -->
<g id="node4" class="node">
<title>Node4</title>
<g id="a_node4"><a xlink:href="control__window_8cpp.html" target="_top" xlink:title=" ">
<polygon fill="none" stroke="black" points="0,-0.5 0,-30.5 131,-30.5 131,-0.5 0,-0.5"/>
<text text-anchor="start" x="8" y="-18.5" font-family="Helvetica,sans-Serif" font-size="10.00">src/gui/windows/control</text>
<text text-anchor="middle" x="65.5" y="-7.5" font-family="Helvetica,sans-Serif" font-size="10.00">_window.cpp</text>
</a>
</g>
</g>
<!-- Node3&#45;&gt;Node4 -->
<g id="edge4" class="edge">
<title>Node3&#45;&gt;Node4</title>
<path fill="none" stroke="midnightblue" d="M86.71,-58.28C82.01,-49.02 76.75,-38.66 72.65,-30.58"/>
<polygon fill="midnightblue" stroke="midnightblue" points="83.69,-60.06 91.34,-67.4 89.93,-56.89 83.69,-60.06"/>
</g>
<!-- Node5&#45;&gt;Node2 -->
<g id="edge6" class="edge">
<title>Node5&#45;&gt;Node2</title>
<path fill="none" stroke="midnightblue" d="M305.18,-66.89C501.06,-38.29 555.74,-64.7 747.5,-31 755.96,-29.51 765.02,-27.28 773.21,-25.01"/>
<polygon fill="midnightblue" stroke="midnightblue" points="304.51,-63.45 295.13,-68.38 305.54,-70.37 304.51,-63.45"/>
</g>
<!-- Node6 -->
<g id="node6" class="node">
<title>Node6</title>
<g id="a_node6"><a xlink:href="file__window_8cpp.html" target="_top" xlink:title=" ">
<polygon fill="none" stroke="black" points="149,-0.5 149,-30.5 262,-30.5 262,-0.5 149,-0.5"/>
<text text-anchor="start" x="157" y="-18.5" font-family="Helvetica,sans-Serif" font-size="10.00">src/gui/windows/file</text>
<text text-anchor="middle" x="205.5" y="-7.5" font-family="Helvetica,sans-Serif" font-size="10.00">_window.cpp</text>
</a>
</g>
</g>
<!-- Node5&#45;&gt;Node6 -->
<g id="edge7" class="edge">
<title>Node5&#45;&gt;Node6</title>
<path fill="none" stroke="midnightblue" d="M226.71,-58.28C222.01,-49.02 216.75,-38.66 212.65,-30.58"/>
<polygon fill="midnightblue" stroke="midnightblue" points="223.69,-60.06 231.34,-67.4 229.93,-56.89 223.69,-60.06"/>
</g>
<!-- Node7&#45;&gt;Node2 -->
<g id="edge9" class="edge">
<title>Node7&#45;&gt;Node2</title>
<path fill="none" stroke="midnightblue" d="M436.46,-66.96C574.98,-44.61 613.66,-56.87 747.5,-31 755.65,-29.42 764.38,-27.25 772.36,-25.05"/>
<polygon fill="midnightblue" stroke="midnightblue" points="435.61,-63.56 426.31,-68.64 436.75,-70.46 435.61,-63.56"/>
</g>
<!-- Node8 -->
<g id="node8" class="node">
<title>Node8</title>
<g id="a_node8"><a xlink:href="log__window_8cpp.html" target="_top" xlink:title=" ">
<polygon fill="none" stroke="black" points="280,-0.5 280,-30.5 393,-30.5 393,-0.5 280,-0.5"/>
<text text-anchor="start" x="288" y="-18.5" font-family="Helvetica,sans-Serif" font-size="10.00">src/gui/windows/log</text>
<text text-anchor="middle" x="336.5" y="-7.5" font-family="Helvetica,sans-Serif" font-size="10.00">_window.cpp</text>
</a>
</g>
</g>
<!-- Node7&#45;&gt;Node8 -->
<g id="edge10" class="edge">
<title>Node7&#45;&gt;Node8</title>
<path fill="none" stroke="midnightblue" d="M357.71,-58.28C353.01,-49.02 347.75,-38.66 343.65,-30.58"/>
<polygon fill="midnightblue" stroke="midnightblue" points="354.69,-60.06 362.34,-67.4 360.93,-56.89 354.69,-60.06"/>
</g>
<!-- Node9&#45;&gt;Node2 -->
<g id="edge12" class="edge">
<title>Node9&#45;&gt;Node2</title>
<path fill="none" stroke="midnightblue" d="M597.8,-65.27C641.8,-55.79 697.87,-43.3 747.5,-31 754.91,-29.16 762.86,-27.06 770.3,-25.03"/>
<polygon fill="midnightblue" stroke="midnightblue" points="596.79,-61.91 587.74,-67.43 598.26,-68.75 596.79,-61.91"/>
</g>
<!-- Node10 -->
<g id="node10" class="node">
<title>Node10</title>
<g id="a_node10"><a xlink:href="arm__timer__window_8cpp.html" target="_top" xlink:title=" ">
<polygon fill="none" stroke="black" points="411.5,-0.5 411.5,-30.5 563.5,-30.5 563.5,-0.5 411.5,-0.5"/>
<text text-anchor="start" x="419.5" y="-18.5" font-family="Helvetica,sans-Serif" font-size="10.00">src/gui/windows/peripherals</text>
<text text-anchor="middle" x="487.5" y="-7.5" font-family="Helvetica,sans-Serif" font-size="10.00">/arm_timer_window.cpp</text>
</a>
</g>
</g>
<!-- Node9&#45;&gt;Node10 -->
<g id="edge13" class="edge">
<title>Node9&#45;&gt;Node10</title>
<path fill="none" stroke="midnightblue" d="M508.71,-58.28C504.01,-49.02 498.75,-38.66 494.65,-30.58"/>
<polygon fill="midnightblue" stroke="midnightblue" points="505.69,-60.06 513.34,-67.4 511.93,-56.89 505.69,-60.06"/>
</g>
<!-- Node11&#45;&gt;Node2 -->
<g id="edge15" class="edge">
<title>Node11&#45;&gt;Node2</title>
<path fill="none" stroke="midnightblue" d="M725.37,-62.14C745.7,-49.79 771.05,-34.39 786.5,-25.01"/>
<polygon fill="midnightblue" stroke="midnightblue" points="723.45,-59.21 716.72,-67.4 727.08,-65.2 723.45,-59.21"/>
</g>
<!-- Node12 -->
<g id="node12" class="node">
<title>Node12</title>
<g id="a_node12"><a xlink:href="button__window_8cpp.html" target="_top" xlink:title=" ">
<polygon fill="none" stroke="black" points="582,-0.5 582,-30.5 739,-30.5 739,-0.5 582,-0.5"/>
<text text-anchor="start" x="590" y="-18.5" font-family="Helvetica,sans-Serif" font-size="10.00">src/gui/windows/peripherals</text>
<text text-anchor="middle" x="660.5" y="-7.5" font-family="Helvetica,sans-Serif" font-size="10.00">/external/button_window.cpp</text>
</a>
</g>
</g>
<!-- Node11&#45;&gt;Node12 -->
<g id="edge16" class="edge">
<title>Node11&#45;&gt;Node12</title>
<path fill="none" stroke="midnightblue" d="M681.71,-58.28C677.01,-49.02 671.75,-38.66 667.65,-30.58"/>
<polygon fill="midnightblue" stroke="midnightblue" points="678.69,-60.06 686.34,-67.4 684.93,-56.89 678.69,-60.06"/>
</g>
<!-- Node13&#45;&gt;Node2 -->
<g id="edge18" class="edge">
<title>Node13&#45;&gt;Node2</title>
<path fill="none" stroke="midnightblue" d="M873.26,-61.97C853.54,-49.65 829.05,-34.35 814.11,-25.01"/>
<polygon fill="midnightblue" stroke="midnightblue" points="871.6,-65.06 881.93,-67.4 875.31,-59.13 871.6,-65.06"/>
</g>
<!-- Node14 -->
<g id="node14" class="node">
<title>Node14</title>
<g id="a_node14"><a xlink:href="gpio__window_8cpp.html" target="_top" xlink:title=" ">
<polygon fill="none" stroke="black" points="862.5,-0.5 862.5,-30.5 1014.5,-30.5 1014.5,-0.5 862.5,-0.5"/>
<text text-anchor="start" x="870.5" y="-18.5" font-family="Helvetica,sans-Serif" font-size="10.00">src/gui/windows/peripherals</text>
<text text-anchor="middle" x="938.5" y="-7.5" font-family="Helvetica,sans-Serif" font-size="10.00">/gpio_window.cpp</text>
</a>
</g>
</g>
<!-- Node13&#45;&gt;Node14 -->
<g id="edge19" class="edge">
<title>Node13&#45;&gt;Node14</title>
<path fill="none" stroke="midnightblue" d="M916.64,-58.28C921.49,-49.02 926.91,-38.66 931.14,-30.58"/>
<polygon fill="midnightblue" stroke="midnightblue" points="913.41,-56.91 911.88,-67.4 919.61,-60.16 913.41,-56.91"/>
</g>
<!-- Node15&#45;&gt;Node2 -->
<g id="edge21" class="edge">
<title>Node15&#45;&gt;Node2</title>
<path fill="none" stroke="midnightblue" d="M1007.17,-65.41C962,-55.97 904.42,-43.48 853.5,-31 846.09,-29.18 838.13,-27.09 830.7,-25.06"/>
<polygon fill="midnightblue" stroke="midnightblue" points="1006.7,-68.88 1017.2,-67.5 1008.13,-62.03 1006.7,-68.88"/>
</g>
<!-- Node16 -->
<g id="node16" class="node">
<title>Node16</title>
<g id="a_node16"><a xlink:href="interrupt__controller__window_8cpp.html" target="_top" xlink:title=" ">
<polygon fill="none" stroke="black" points="1032.5,-0.5 1032.5,-30.5 1208.5,-30.5 1208.5,-0.5 1032.5,-0.5"/>
<text text-anchor="start" x="1040.5" y="-18.5" font-family="Helvetica,sans-Serif" font-size="10.00">src/gui/windows/peripherals</text>
<text text-anchor="middle" x="1120.5" y="-7.5" font-family="Helvetica,sans-Serif" font-size="10.00">/interrupt_controller_window.cpp</text>
</a>
</g>
</g>
<!-- Node15&#45;&gt;Node16 -->
<g id="edge22" class="edge">
<title>Node15&#45;&gt;Node16</title>
<path fill="none" stroke="midnightblue" d="M1098.64,-58.28C1103.49,-49.02 1108.91,-38.66 1113.14,-30.58"/>
<polygon fill="midnightblue" stroke="midnightblue" points="1095.41,-56.91 1093.88,-67.4 1101.61,-60.16 1095.41,-56.91"/>
</g>
<!-- Node17&#45;&gt;Node2 -->
<g id="edge24" class="edge">
<title>Node17&#45;&gt;Node2</title>
<path fill="none" stroke="midnightblue" d="M1181.83,-66.83C1035.58,-47.1 995.19,-57.93 853.5,-31 845.25,-29.43 836.41,-27.23 828.36,-25.01"/>
<polygon fill="midnightblue" stroke="midnightblue" points="1181.69,-70.35 1192.08,-68.24 1182.65,-63.41 1181.69,-70.35"/>
</g>
<!-- Node18 -->
<g id="node18" class="node">
<title>Node18</title>
<g id="a_node18"><a xlink:href="monitor__window_8cpp.html" target="_top" xlink:title=" ">
<polygon fill="none" stroke="black" points="1226.5,-0.5 1226.5,-30.5 1378.5,-30.5 1378.5,-0.5 1226.5,-0.5"/>
<text text-anchor="start" x="1234.5" y="-18.5" font-family="Helvetica,sans-Serif" font-size="10.00">src/gui/windows/peripherals</text>
<text text-anchor="middle" x="1302.5" y="-7.5" font-family="Helvetica,sans-Serif" font-size="10.00">/monitor_window.cpp</text>
</a>
</g>
</g>
<!-- Node17&#45;&gt;Node18 -->
<g id="edge25" class="edge">
<title>Node17&#45;&gt;Node18</title>
<path fill="none" stroke="midnightblue" d="M1280.64,-58.28C1285.49,-49.02 1290.91,-38.66 1295.14,-30.58"/>
<polygon fill="midnightblue" stroke="midnightblue" points="1277.41,-56.91 1275.88,-67.4 1283.61,-60.16 1277.41,-56.91"/>
</g>
<!-- Node19&#45;&gt;Node2 -->
<g id="edge27" class="edge">
<title>Node19&#45;&gt;Node2</title>
<path fill="none" stroke="midnightblue" d="M1352.11,-66.92C1130.55,-41.05 1069.89,-68.03 853.5,-31 845.04,-29.55 835.97,-27.33 827.78,-25.06"/>
<polygon fill="midnightblue" stroke="midnightblue" points="1351.75,-70.4 1362.1,-68.11 1352.58,-63.45 1351.75,-70.4"/>
</g>
<!-- Node20 -->
<g id="node20" class="node">
<title>Node20</title>
<g id="a_node20"><a xlink:href="ram__window_8cpp.html" target="_top" xlink:title=" ">
<polygon fill="none" stroke="black" points="1396.5,-0.5 1396.5,-30.5 1548.5,-30.5 1548.5,-0.5 1396.5,-0.5"/>
<text text-anchor="start" x="1404.5" y="-18.5" font-family="Helvetica,sans-Serif" font-size="10.00">src/gui/windows/peripherals</text>
<text text-anchor="middle" x="1472.5" y="-7.5" font-family="Helvetica,sans-Serif" font-size="10.00">/ram_window.cpp</text>
</a>
</g>
</g>
<!-- Node19&#45;&gt;Node20 -->
<g id="edge28" class="edge">
<title>Node19&#45;&gt;Node20</title>
<path fill="none" stroke="midnightblue" d="M1450.64,-58.28C1455.49,-49.02 1460.91,-38.66 1465.14,-30.58"/>
<polygon fill="midnightblue" stroke="midnightblue" points="1447.41,-56.91 1445.88,-67.4 1453.61,-60.16 1447.41,-56.91"/>
</g>
<!-- Node21&#45;&gt;Node2 -->
<g id="edge30" class="edge">
<title>Node21&#45;&gt;Node2</title>
<path fill="none" stroke="midnightblue" d="M1522.17,-66.96C1225.54,-33.05 1144.58,-78.08 853.5,-31 844.84,-29.6 835.55,-27.33 827.22,-25"/>
<polygon fill="midnightblue" stroke="midnightblue" points="1522.02,-70.47 1532.36,-68.15 1522.83,-63.51 1522.02,-70.47"/>
</g>
<!-- Node22 -->
<g id="node22" class="node">
<title>Node22</title>
<g id="a_node22"><a xlink:href="registers__window_8cpp.html" target="_top" xlink:title=" ">
<polygon fill="none" stroke="black" points="1566.5,-0.5 1566.5,-30.5 1706.5,-30.5 1706.5,-0.5 1566.5,-0.5"/>
<text text-anchor="start" x="1574.5" y="-18.5" font-family="Helvetica,sans-Serif" font-size="10.00">src/gui/windows/registers</text>
<text text-anchor="middle" x="1636.5" y="-7.5" font-family="Helvetica,sans-Serif" font-size="10.00">_window.cpp</text>
</a>
</g>
</g>
<!-- Node21&#45;&gt;Node22 -->
<g id="edge31" class="edge">
<title>Node21&#45;&gt;Node22</title>
<path fill="none" stroke="midnightblue" d="M1614.64,-58.28C1619.49,-49.02 1624.91,-38.66 1629.14,-30.58"/>
<polygon fill="midnightblue" stroke="midnightblue" points="1611.41,-56.91 1609.88,-67.4 1617.61,-60.16 1611.41,-56.91"/>
</g>
<!-- Node23&#45;&gt;Node2 -->
<g id="edge33" class="edge">
<title>Node23&#45;&gt;Node2</title>
<path fill="none" stroke="midnightblue" d="M1680.13,-66.97C1313.94,-24.62 1214.13,-87.44 853.5,-31 844.83,-29.64 835.55,-27.39 827.21,-25.06"/>
<polygon fill="midnightblue" stroke="midnightblue" points="1679.87,-70.47 1690.21,-68.16 1680.69,-63.51 1679.87,-70.47"/>
</g>
<!-- Node24 -->
<g id="node24" class="node">
<title>Node24</title>
<g id="a_node24"><a xlink:href="source__code__window_8cpp.html" target="_top" xlink:title=" ">
<polygon fill="none" stroke="black" points="1724.5,-0.5 1724.5,-30.5 1854.5,-30.5 1854.5,-0.5 1724.5,-0.5"/>
<text text-anchor="start" x="1732.5" y="-18.5" font-family="Helvetica,sans-Serif" font-size="10.00">src/gui/windows/source</text>
<text text-anchor="middle" x="1789.5" y="-7.5" font-family="Helvetica,sans-Serif" font-size="10.00">_code_window.cpp</text>
</a>
</g>
</g>
<!-- Node23&#45;&gt;Node24 -->
<g id="edge34" class="edge">
<title>Node23&#45;&gt;Node24</title>
<path fill="none" stroke="midnightblue" d="M1767.64,-58.28C1772.49,-49.02 1777.91,-38.66 1782.14,-30.58"/>
<polygon fill="midnightblue" stroke="midnightblue" points="1764.41,-56.91 1762.88,-67.4 1770.61,-60.16 1764.41,-56.91"/>
</g>
</g>
</svg>
