<?xml version="1.0" encoding="UTF-8" standalone="no"?>
<!DOCTYPE svg PUBLIC "-//W3C//DTD SVG 1.1//EN"
 "http://www.w3.org/Graphics/SVG/1.1/DTD/svg11.dtd">
<!-- Generated by graphviz version 2.43.0 (0)
 -->
<!-- Title: src/gui/window.hpp Pages: 1 -->
<svg width="1827pt" height="162pt"
 viewBox="0.00 0.00 1826.50 162.00" xmlns="http://www.w3.org/2000/svg" xmlns:xlink="http://www.w3.org/1999/xlink">
<g id="graph0" class="graph" transform="scale(1 1) rotate(0) translate(4 158)">
<title>src/gui/window.hpp</title>
<!-- Node1 -->
<g id="node1" class="node">
<title>Node1</title>
<g id="a_node1"><a xlink:title=" ">
<polygon fill="#bfbfbf" stroke="black" points="761.5,-134.5 761.5,-153.5 871.5,-153.5 871.5,-134.5 761.5,-134.5"/>
<text text-anchor="middle" x="816.5" y="-141.5" font-family="Helvetica,sans-Serif" font-size="10.00">src/gui/window.hpp</text>
</a>
</g>
</g>
<!-- Node2 -->
<g id="node2" class="node">
<title>Node2</title>
<g id="a_node2"><a xlink:href="gui_8cpp.html" target="_top" xlink:title=" ">
<polygon fill="none" stroke="black" points="721,-6 721,-25 808,-25 808,-6 721,-6"/>
<text text-anchor="middle" x="764.5" y="-13" font-family="Helvetica,sans-Serif" font-size="10.00">src/gui/gui.cpp</text>
</a>
</g>
</g>
<!-- Node1&#45;&gt;Node2 -->
<g id="edge1" class="edge">
<title>Node1&#45;&gt;Node2</title>
<path fill="none" stroke="midnightblue" d="M801.9,-126.51C795.41,-118.41 788.2,-108.21 783.5,-98 772.09,-73.18 767.19,-40.86 765.39,-25.44"/>
<polygon fill="midnightblue" stroke="midnightblue" points="799.4,-128.97 808.51,-134.38 804.76,-124.47 799.4,-128.97"/>
</g>
<!-- Node3 -->
<g id="node3" class="node">
<title>Node3</title>
<g id="a_node3"><a xlink:href="control__window_8hpp.html" target="_top" xlink:title=" ">
<polygon fill="none" stroke="black" points="34,-67.5 34,-97.5 165,-97.5 165,-67.5 34,-67.5"/>
<text text-anchor="start" x="42" y="-85.5" font-family="Helvetica,sans-Serif" font-size="10.00">src/gui/windows/control</text>
<text text-anchor="middle" x="99.5" y="-74.5" font-family="Helvetica,sans-Serif" font-size="10.00">_window.hpp</text>
</a>
</g>
</g>
<!-- Node1&#45;&gt;Node3 -->
<g id="edge2" class="edge">
<title>Node1&#45;&gt;Node3</title>
<path fill="none" stroke="midnightblue" d="M751.04,-141.09C634.48,-137.1 383.49,-125.81 173.5,-98 170.77,-97.64 168,-97.24 165.2,-96.81"/>
<polygon fill="midnightblue" stroke="midnightblue" points="751.11,-144.6 761.22,-141.43 751.34,-137.6 751.11,-144.6"/>
</g>
<!-- Node5 -->
<g id="node5" class="node">
<title>Node5</title>
<g id="a_node5"><a xlink:href="cp15__window_8hpp.html" target="_top" xlink:title=" ">
<polygon fill="none" stroke="black" points="183,-67.5 183,-97.5 304,-97.5 304,-67.5 183,-67.5"/>
<text text-anchor="start" x="191" y="-85.5" font-family="Helvetica,sans-Serif" font-size="10.00">src/gui/windows/cp15</text>
<text text-anchor="middle" x="243.5" y="-74.5" font-family="Helvetica,sans-Serif" font-size="10.00">_window.hpp</text>
</a>
</g>
</g>
<!-- Node1&#45;&gt;Node5 -->
<g id="edge5" class="edge">
<title>Node1&#45;&gt;Node5</title>
<path fill="none" stroke="midnightblue" d="M751.26,-139.64C654.91,-134.13 469.06,-121.36 312.5,-98 309.72,-97.58 306.87,-97.13 304.01,-96.64"/>
<polygon fill="midnightblue" stroke="midnightblue" points="751.25,-143.15 761.43,-140.22 751.65,-136.16 751.25,-143.15"/>
</g>
<!-- Node7 -->
<g id="node7" class="node">
<title>Node7</title>
<g id="a_node7"><a xlink:href="file__window_8hpp.html" target="_top" xlink:title=" ">
<polygon fill="none" stroke="black" points="322,-67.5 322,-97.5 435,-97.5 435,-67.5 322,-67.5"/>
<text text-anchor="start" x="330" y="-85.5" font-family="Helvetica,sans-Serif" font-size="10.00">src/gui/windows/file</text>
<text text-anchor="middle" x="378.5" y="-74.5" font-family="Helvetica,sans-Serif" font-size="10.00">_window.hpp</text>
</a>
</g>
</g>
<!-- Node1&#45;&gt;Node7 -->
<g id="edge8" class="edge">
<title>Node1&#45;&gt;Node7</title>
<path fill="none" stroke="midnightblue" d="M751.07,-137.09C676.37,-129.89 550.64,-116.37 443.5,-98 440.76,-97.53 437.97,-97.02 435.15,-96.49"/>
<polygon fill="midnightblue" stroke="midnightblue" points="750.98,-140.6 761.27,-138.07 751.65,-133.63 750.98,-140.6"/>
</g>
<!-- Node9 -->
<g id="node9" class="node">
<title>Node9</title>
<g id="a_node9"><a xlink:href="log__window_8hpp.html" target="_top" xlink:title=" ">
<polygon fill="none" stroke="black" points="453,-67.5 453,-97.5 566,-97.5 566,-67.5 453,-67.5"/>
<text text-anchor="start" x="461" y="-85.5" font-family="Helvetica,sans-Serif" font-size="10.00">src/gui/windows/log</text>
<text text-anchor="middle" x="509.5" y="-74.5" font-family="Helvetica,sans-Serif" font-size="10.00">_window.hpp</text>
</a>
</g>
</g>
<!-- Node1&#45;&gt;Node9 -->
<g id="edge11" class="edge">
<title>Node1&#45;&gt;Node9</title>
<path fill="none" stroke="midnightblue" d="M758.33,-132.67C709.45,-123.87 637.81,-110.66 575.5,-98 572.4,-97.37 569.21,-96.71 566,-96.04"/>
<polygon fill="midnightblue" stroke="midnightblue" points="757.94,-136.16 768.4,-134.48 759.18,-129.27 757.94,-136.16"/>
</g>
<!-- Node11 -->
<g id="node11" class="node">
<title>Node11</title>
<g id="a_node11"><a xlink:href="arm__timer__window_8hpp.html" target="_top" xlink:title=" ">
<polygon fill="none" stroke="black" points="584.5,-67.5 584.5,-97.5 736.5,-97.5 736.5,-67.5 584.5,-67.5"/>
<text text-anchor="start" x="592.5" y="-85.5" font-family="Helvetica,sans-Serif" font-size="10.00">src/gui/windows/peripherals</text>
<text text-anchor="middle" x="660.5" y="-74.5" font-family="Helvetica,sans-Serif" font-size="10.00">/arm_timer_window.hpp</text>
</a>
</g>
</g>
<!-- Node1&#45;&gt;Node11 -->
<g id="edge14" class="edge">
<title>Node1&#45;&gt;Node11</title>
<path fill="none" stroke="midnightblue" d="M784.64,-130.85C759.3,-121.18 723.81,-107.65 697.27,-97.52"/>
<polygon fill="midnightblue" stroke="midnightblue" points="783.56,-134.18 794.15,-134.48 786.05,-127.64 783.56,-134.18"/>
</g>
<!-- Node13 -->
<g id="node13" class="node">
<title>Node13</title>
<g id="a_node13"><a xlink:href="gpio__window_8hpp.html" target="_top" xlink:title=" ">
<polygon fill="none" stroke="black" points="792.5,-67.5 792.5,-97.5 944.5,-97.5 944.5,-67.5 792.5,-67.5"/>
<text text-anchor="start" x="800.5" y="-85.5" font-family="Helvetica,sans-Serif" font-size="10.00">src/gui/windows/peripherals</text>
<text text-anchor="middle" x="868.5" y="-74.5" font-family="Helvetica,sans-Serif" font-size="10.00">/gpio_window.hpp</text>
</a>
</g>
</g>
<!-- Node1&#45;&gt;Node13 -->
<g id="edge17" class="edge">
<title>Node1&#45;&gt;Node13</title>
<path fill="none" stroke="midnightblue" d="M830.65,-126.81C838.66,-117.65 848.57,-106.3 856.24,-97.52"/>
<polygon fill="midnightblue" stroke="midnightblue" points="827.9,-124.64 823.95,-134.48 833.17,-129.25 827.9,-124.64"/>
</g>
<!-- Node15 -->
<g id="node15" class="node">
<title>Node15</title>
<g id="a_node15"><a xlink:href="interrupt__controller__window_8hpp.html" target="_top" xlink:title=" ">
<polygon fill="none" stroke="black" points="962.5,-67.5 962.5,-97.5 1138.5,-97.5 1138.5,-67.5 962.5,-67.5"/>
<text text-anchor="start" x="970.5" y="-85.5" font-family="Helvetica,sans-Serif" font-size="10.00">src/gui/windows/peripherals</text>
<text text-anchor="middle" x="1050.5" y="-74.5" font-family="Helvetica,sans-Serif" font-size="10.00">/interrupt_controller_window.hpp</text>
</a>
</g>
</g>
<!-- Node1&#45;&gt;Node15 -->
<g id="edge20" class="edge">
<title>Node1&#45;&gt;Node15</title>
<path fill="none" stroke="midnightblue" d="M859.83,-131.98C898.05,-122.27 953.95,-108.05 995.35,-97.52"/>
<polygon fill="midnightblue" stroke="midnightblue" points="858.86,-128.62 850.03,-134.48 860.58,-135.4 858.86,-128.62"/>
</g>
<!-- Node17 -->
<g id="node17" class="node">
<title>Node17</title>
<g id="a_node17"><a xlink:href="monitor__window_8hpp.html" target="_top" xlink:title=" ">
<polygon fill="none" stroke="black" points="1156.5,-67.5 1156.5,-97.5 1308.5,-97.5 1308.5,-67.5 1156.5,-67.5"/>
<text text-anchor="start" x="1164.5" y="-85.5" font-family="Helvetica,sans-Serif" font-size="10.00">src/gui/windows/peripherals</text>
<text text-anchor="middle" x="1232.5" y="-74.5" font-family="Helvetica,sans-Serif" font-size="10.00">/monitor_window.hpp</text>
</a>
</g>
</g>
<!-- Node1&#45;&gt;Node17 -->
<g id="edge23" class="edge">
<title>Node1&#45;&gt;Node17</title>
<path fill="none" stroke="midnightblue" d="M881.6,-134.81C948.42,-126.25 1055.35,-112.12 1147.5,-98 1150.31,-97.57 1153.17,-97.12 1156.06,-96.66"/>
<polygon fill="midnightblue" stroke="midnightblue" points="881.11,-131.34 871.64,-136.08 882,-138.29 881.11,-131.34"/>
</g>
<!-- Node19 -->
<g id="node19" class="node">
<title>Node19</title>
<g id="a_node19"><a xlink:href="ram__window_8hpp.html" target="_top" xlink:title=" ">
<polygon fill="none" stroke="black" points="1326.5,-67.5 1326.5,-97.5 1478.5,-97.5 1478.5,-67.5 1326.5,-67.5"/>
<text text-anchor="start" x="1334.5" y="-85.5" font-family="Helvetica,sans-Serif" font-size="10.00">src/gui/windows/peripherals</text>
<text text-anchor="middle" x="1402.5" y="-74.5" font-family="Helvetica,sans-Serif" font-size="10.00">/ram_window.hpp</text>
</a>
</g>
</g>
<!-- Node1&#45;&gt;Node19 -->
<g id="edge26" class="edge">
<title>Node1&#45;&gt;Node19</title>
<path fill="none" stroke="midnightblue" d="M881.62,-138.81C977.37,-132.27 1161.67,-118.26 1317.5,-98 1320.32,-97.63 1323.19,-97.24 1326.09,-96.83"/>
<polygon fill="midnightblue" stroke="midnightblue" points="881.26,-135.33 871.52,-139.49 881.73,-142.31 881.26,-135.33"/>
</g>
<!-- Node21 -->
<g id="node21" class="node">
<title>Node21</title>
<g id="a_node21"><a xlink:href="registers__window_8hpp.html" target="_top" xlink:title=" ">
<polygon fill="none" stroke="black" points="1496.5,-67.5 1496.5,-97.5 1636.5,-97.5 1636.5,-67.5 1496.5,-67.5"/>
<text text-anchor="start" x="1504.5" y="-85.5" font-family="Helvetica,sans-Serif" font-size="10.00">src/gui/windows/registers</text>
<text text-anchor="middle" x="1566.5" y="-74.5" font-family="Helvetica,sans-Serif" font-size="10.00">_window.hpp</text>
</a>
</g>
</g>
<!-- Node1&#45;&gt;Node21 -->
<g id="edge29" class="edge">
<title>Node1&#45;&gt;Node21</title>
<path fill="none" stroke="midnightblue" d="M882.09,-141.1C1002.47,-137.05 1266.57,-125.59 1487.5,-98 1490.41,-97.64 1493.37,-97.24 1496.35,-96.81"/>
<polygon fill="midnightblue" stroke="midnightblue" points="881.82,-137.6 871.94,-141.43 882.05,-144.6 881.82,-137.6"/>
</g>
<!-- Node23 -->
<g id="node23" class="node">
<title>Node23</title>
<g id="a_node23"><a xlink:href="source__code__window_8hpp.html" target="_top" xlink:title=" ">
<polygon fill="none" stroke="black" points="1654.5,-67.5 1654.5,-97.5 1784.5,-97.5 1784.5,-67.5 1654.5,-67.5"/>
<text text-anchor="start" x="1662.5" y="-85.5" font-family="Helvetica,sans-Serif" font-size="10.00">src/gui/windows/source</text>
<text text-anchor="middle" x="1719.5" y="-74.5" font-family="Helvetica,sans-Serif" font-size="10.00">_code_window.hpp</text>
</a>
</g>
</g>
<!-- Node1&#45;&gt;Node23 -->
<g id="edge32" class="edge">
<title>Node1&#45;&gt;Node23</title>
<path fill="none" stroke="midnightblue" d="M881.69,-142.54C1021.95,-140.88 1362.58,-133.22 1645.5,-98 1648.36,-97.64 1651.27,-97.24 1654.21,-96.81"/>
<polygon fill="midnightblue" stroke="midnightblue" points="881.5,-139.04 871.54,-142.66 881.58,-146.04 881.5,-139.04"/>
</g>
<!-- Node3&#45;&gt;Node2 -->
<g id="edge3" class="edge">
<title>Node3&#45;&gt;Node2</title>
<path fill="none" stroke="midnightblue" d="M175.18,-66.89C412.9,-36.84 478.42,-70.27 711.5,-31 720.06,-29.56 729.23,-27.31 737.5,-25.01"/>
<polygon fill="midnightblue" stroke="midnightblue" points="174.67,-63.43 165.2,-68.18 175.56,-70.37 174.67,-63.43"/>
</g>
<!-- Node4 -->
<g id="node4" class="node">
<title>Node4</title>
<g id="a_node4"><a xlink:href="control__window_8cpp.html" target="_top" xlink:title=" ">
<polygon fill="none" stroke="black" points="0,-0.5 0,-30.5 131,-30.5 131,-0.5 0,-0.5"/>
<text text-anchor="start" x="8" y="-18.5" font-family="Helvetica,sans-Serif" font-size="10.00">src/gui/windows/control</text>
<text text-anchor="middle" x="65.5" y="-7.5" font-family="Helvetica,sans-Serif" font-size="10.00">_window.cpp</text>
</a>
</g>
</g>
<!-- Node3&#45;&gt;Node4 -->
<g id="edge4" class="edge">
<title>Node3&#45;&gt;Node4</title>
<path fill="none" stroke="midnightblue" d="M87.36,-58.28C82.51,-49.02 77.09,-38.66 72.86,-30.58"/>
<polygon fill="midnightblue" stroke="midnightblue" points="84.39,-60.16 92.12,-67.4 90.59,-56.91 84.39,-60.16"/>
</g>
<!-- Node5&#45;&gt;Node2 -->
<g id="edge6" class="edge">
<title>Node5&#45;&gt;Node2</title>
<path fill="none" stroke="midnightblue" d="M314.14,-66.87C490.41,-41.44 539.53,-62.03 711.5,-31 719.86,-29.49 728.81,-27.28 736.93,-25.04"/>
<polygon fill="midnightblue" stroke="midnightblue" points="313.39,-63.45 304.01,-68.37 314.41,-70.37 313.39,-63.45"/>
</g>
<!-- Node6 -->
<g id="node6" class="node">
<title>Node6</title>
<g id="a_node6"><a xlink:href="cp15__window_8cpp.html" target="_top" xlink:title=" ">
<polygon fill="none" stroke="black" points="149,-0.5 149,-30.5 270,-30.5 270,-0.5 149,-0.5"/>
<text text-anchor="start" x="157" y="-18.5" font-family="Helvetica,sans-Serif" font-size="10.00">src/gui/windows/cp15</text>
<text text-anchor="middle" x="209.5" y="-7.5" font-family="Helvetica,sans-Serif" font-size="10.00">_window.cpp</text>
</a>
</g>
</g>
<!-- Node5&#45;&gt;Node6 -->
<g id="edge7" class="edge">
<title>Node5&#45;&gt;Node6</title>
<path fill="none" stroke="midnightblue" d="M231.36,-58.28C226.51,-49.02 221.09,-38.66 216.86,-30.58"/>
<polygon fill="midnightblue" stroke="midnightblue" points="228.39,-60.16 236.12,-67.4 234.59,-56.91 228.39,-60.16"/>
</g>
<!-- Node7&#45;&gt;Node2 -->
<g id="edge9" class="edge">
<title>Node7&#45;&gt;Node2</title>
<path fill="none" stroke="midnightblue" d="M445.34,-66.77C563.62,-46.37 596.94,-54.26 711.5,-31 719.54,-29.37 728.16,-27.2 736.06,-25.03"/>
<polygon fill="midnightblue" stroke="midnightblue" points="444.41,-63.38 435.16,-68.56 445.62,-70.28 444.41,-63.38"/>
</g>
<!-- Node8 -->
<g id="node8" class="node">
<title>Node8</title>
<g id="a_node8"><a xlink:href="file__window_8cpp.html" target="_top" xlink:title=" ">
<polygon fill="none" stroke="black" points="288,-0.5 288,-30.5 401,-30.5 401,-0.5 288,-0.5"/>
<text text-anchor="start" x="296" y="-18.5" font-family="Helvetica,sans-Serif" font-size="10.00">src/gui/windows/file</text>
<text text-anchor="middle" x="344.5" y="-7.5" font-family="Helvetica,sans-Serif" font-size="10.00">_window.cpp</text>
</a>
</g>
</g>
<!-- Node7&#45;&gt;Node8 -->
<g id="edge10" class="edge">
<title>Node7&#45;&gt;Node8</title>
<path fill="none" stroke="midnightblue" d="M366.36,-58.28C361.51,-49.02 356.09,-38.66 351.86,-30.58"/>
<polygon fill="midnightblue" stroke="midnightblue" points="363.39,-60.16 371.12,-67.4 369.59,-56.91 363.39,-60.16"/>
</g>
<!-- Node9&#45;&gt;Node2 -->
<g id="edge12" class="edge">
<title>Node9&#45;&gt;Node2</title>
<path fill="none" stroke="midnightblue" d="M575.95,-65.28C615.4,-55.55 666.37,-42.81 711.5,-31 718.7,-29.12 726.43,-27.03 733.7,-25.05"/>
<polygon fill="midnightblue" stroke="midnightblue" points="575.05,-61.89 566.18,-67.68 576.73,-68.69 575.05,-61.89"/>
</g>
<!-- Node10 -->
<g id="node10" class="node">
<title>Node10</title>
<g id="a_node10"><a xlink:href="log__window_8cpp.html" target="_top" xlink:title=" ">
<polygon fill="none" stroke="black" points="419,-0.5 419,-30.5 532,-30.5 532,-0.5 419,-0.5"/>
<text text-anchor="start" x="427" y="-18.5" font-family="Helvetica,sans-Serif" font-size="10.00">src/gui/windows/log</text>
<text text-anchor="middle" x="475.5" y="-7.5" font-family="Helvetica,sans-Serif" font-size="10.00">_window.cpp</text>
</a>
</g>
</g>
<!-- Node9&#45;&gt;Node10 -->
<g id="edge13" class="edge">
<title>Node9&#45;&gt;Node10</title>
<path fill="none" stroke="midnightblue" d="M497.36,-58.28C492.51,-49.02 487.09,-38.66 482.86,-30.58"/>
<polygon fill="midnightblue" stroke="midnightblue" points="494.39,-60.16 502.12,-67.4 500.59,-56.91 494.39,-60.16"/>
</g>
<!-- Node11&#45;&gt;Node2 -->
<g id="edge15" class="edge">
<title>Node11&#45;&gt;Node2</title>
<path fill="none" stroke="midnightblue" d="M691.74,-61.97C711.46,-49.65 735.95,-34.35 750.89,-25.01"/>
<polygon fill="midnightblue" stroke="midnightblue" points="689.69,-59.13 683.07,-67.4 693.4,-65.06 689.69,-59.13"/>
</g>
<!-- Node12 -->
<g id="node12" class="node">
<title>Node12</title>
<g id="a_node12"><a xlink:href="arm__timer__window_8cpp.html" target="_top" xlink:title=" ">
<polygon fill="none" stroke="black" points="550.5,-0.5 550.5,-30.5 702.5,-30.5 702.5,-0.5 550.5,-0.5"/>
<text text-anchor="start" x="558.5" y="-18.5" font-family="Helvetica,sans-Serif" font-size="10.00">src/gui/windows/peripherals</text>
<text text-anchor="middle" x="626.5" y="-7.5" font-family="Helvetica,sans-Serif" font-size="10.00">/arm_timer_window.cpp</text>
</a>
</g>
</g>
<!-- Node11&#45;&gt;Node12 -->
<g id="edge16" class="edge">
<title>Node11&#45;&gt;Node12</title>
<path fill="none" stroke="midnightblue" d="M648.36,-58.28C643.51,-49.02 638.09,-38.66 633.86,-30.58"/>
<polygon fill="midnightblue" stroke="midnightblue" points="645.39,-60.16 653.12,-67.4 651.59,-56.91 645.39,-60.16"/>
</g>
<!-- Node13&#45;&gt;Node2 -->
<g id="edge18" class="edge">
<title>Node13&#45;&gt;Node2</title>
<path fill="none" stroke="midnightblue" d="M837.26,-61.97C817.54,-49.65 793.05,-34.35 778.11,-25.01"/>
<polygon fill="midnightblue" stroke="midnightblue" points="835.6,-65.06 845.93,-67.4 839.31,-59.13 835.6,-65.06"/>
</g>
<!-- Node14 -->
<g id="node14" class="node">
<title>Node14</title>
<g id="a_node14"><a xlink:href="gpio__window_8cpp.html" target="_top" xlink:title=" ">
<polygon fill="none" stroke="black" points="826.5,-0.5 826.5,-30.5 978.5,-30.5 978.5,-0.5 826.5,-0.5"/>
<text text-anchor="start" x="834.5" y="-18.5" font-family="Helvetica,sans-Serif" font-size="10.00">src/gui/windows/peripherals</text>
<text text-anchor="middle" x="902.5" y="-7.5" font-family="Helvetica,sans-Serif" font-size="10.00">/gpio_window.cpp</text>
</a>
</g>
</g>
<!-- Node13&#45;&gt;Node14 -->
<g id="edge19" class="edge">
<title>Node13&#45;&gt;Node14</title>
<path fill="none" stroke="midnightblue" d="M880.64,-58.28C885.49,-49.02 890.91,-38.66 895.14,-30.58"/>
<polygon fill="midnightblue" stroke="midnightblue" points="877.41,-56.91 875.88,-67.4 883.61,-60.16 877.41,-56.91"/>
</g>
<!-- Node15&#45;&gt;Node2 -->
<g id="edge21" class="edge">
<title>Node15&#45;&gt;Node2</title>
<path fill="none" stroke="midnightblue" d="M971.17,-65.41C926,-55.97 868.42,-43.48 817.5,-31 810.09,-29.18 802.13,-27.09 794.7,-25.06"/>
<polygon fill="midnightblue" stroke="midnightblue" points="970.7,-68.88 981.2,-67.5 972.13,-62.03 970.7,-68.88"/>
</g>
<!-- Node16 -->
<g id="node16" class="node">
<title>Node16</title>
<g id="a_node16"><a xlink:href="interrupt__controller__window_8cpp.html" target="_top" xlink:title=" ">
<polygon fill="none" stroke="black" points="996.5,-0.5 996.5,-30.5 1172.5,-30.5 1172.5,-0.5 996.5,-0.5"/>
<text text-anchor="start" x="1004.5" y="-18.5" font-family="Helvetica,sans-Serif" font-size="10.00">src/gui/windows/peripherals</text>
<text text-anchor="middle" x="1084.5" y="-7.5" font-family="Helvetica,sans-Serif" font-size="10.00">/interrupt_controller_window.cpp</text>
</a>
</g>
</g>
<!-- Node15&#45;&gt;Node16 -->
<g id="edge22" class="edge">
<title>Node15&#45;&gt;Node16</title>
<path fill="none" stroke="midnightblue" d="M1062.64,-58.28C1067.49,-49.02 1072.91,-38.66 1077.14,-30.58"/>
<polygon fill="midnightblue" stroke="midnightblue" points="1059.41,-56.91 1057.88,-67.4 1065.61,-60.16 1059.41,-56.91"/>
</g>
<!-- Node17&#45;&gt;Node2 -->
<g id="edge24" class="edge">
<title>Node17&#45;&gt;Node2</title>
<path fill="none" stroke="midnightblue" d="M1145.83,-66.83C999.58,-47.1 959.19,-57.93 817.5,-31 809.25,-29.43 800.41,-27.23 792.36,-25.01"/>
<polygon fill="midnightblue" stroke="midnightblue" points="1145.69,-70.35 1156.08,-68.24 1146.65,-63.41 1145.69,-70.35"/>
</g>
<!-- Node18 -->
<g id="node18" class="node">
<title>Node18</title>
<g id="a_node18"><a xlink:href="monitor__window_8cpp.html" target="_top" xlink:title=" ">
<polygon fill="none" stroke="black" points="1190.5,-0.5 1190.5,-30.5 1342.5,-30.5 1342.5,-0.5 1190.5,-0.5"/>
<text text-anchor="start" x="1198.5" y="-18.5" font-family="Helvetica,sans-Serif" font-size="10.00">src/gui/windows/peripherals</text>
<text text-anchor="middle" x="1266.5" y="-7.5" font-family="Helvetica,sans-Serif" font-size="10.00">/monitor_window.cpp</text>
</a>
</g>
</g>
<!-- Node17&#45;&gt;Node18 -->
<g id="edge25" class="edge">
<title>Node17&#45;&gt;Node18</title>
<path fill="none" stroke="midnightblue" d="M1244.64,-58.28C1249.49,-49.02 1254.91,-38.66 1259.14,-30.58"/>
<polygon fill="midnightblue" stroke="midnightblue" points="1241.41,-56.91 1239.88,-67.4 1247.61,-60.16 1241.41,-56.91"/>
</g>
<!-- Node19&#45;&gt;Node2 -->
<g id="edge27" class="edge">
<title>Node19&#45;&gt;Node2</title>
<path fill="none" stroke="midnightblue" d="M1316.11,-66.92C1094.55,-41.05 1033.89,-68.03 817.5,-31 809.04,-29.55 799.97,-27.33 791.78,-25.06"/>
<polygon fill="midnightblue" stroke="midnightblue" points="1315.75,-70.4 1326.1,-68.11 1316.58,-63.45 1315.75,-70.4"/>
</g>
<!-- Node20 -->
<g id="node20" class="node">
<title>Node20</title>
<g id="a_node20"><a xlink:href="ram__window_8cpp.html" target="_top" xlink:title=" ">
<polygon fill="none" stroke="black" points="1360.5,-0.5 1360.5,-30.5 1512.5,-30.5 1512.5,-0.5 1360.5,-0.5"/>
<text text-anchor="start" x="1368.5" y="-18.5" font-family="Helvetica,sans-Serif" font-size="10.00">src/gui/windows/peripherals</text>
<text text-anchor="middle" x="1436.5" y="-7.5" font-family="Helvetica,sans-Serif" font-size="10.00">/ram_window.cpp</text>
</a>
</g>
</g>
<!-- Node19&#45;&gt;Node20 -->
<g id="edge28" class="edge">
<title>Node19&#45;&gt;Node20</title>
<path fill="none" stroke="midnightblue" d="M1414.64,-58.28C1419.49,-49.02 1424.91,-38.66 1429.14,-30.58"/>
<polygon fill="midnightblue" stroke="midnightblue" points="1411.41,-56.91 1409.88,-67.4 1417.61,-60.16 1411.41,-56.91"/>
</g>
<!-- Node21&#45;&gt;Node2 -->
<g id="edge30" class="edge">
<title>Node21&#45;&gt;Node2</title>
<path fill="none" stroke="midnightblue" d="M1486.17,-66.96C1189.54,-33.05 1108.58,-78.08 817.5,-31 808.84,-29.6 799.55,-27.33 791.22,-25"/>
<polygon fill="midnightblue" stroke="midnightblue" points="1486.02,-70.47 1496.36,-68.15 1486.83,-63.51 1486.02,-70.47"/>
</g>
<!-- Node22 -->
<g id="node22" class="node">
<title>Node22</title>
<g id="a_node22"><a xlink:href="registers__window_8cpp.html" target="_top" xlink:title=" ">
<polygon fill="none" stroke="black" points="1530.5,-0.5 1530.5,-30.5 1670.5,-30.5 1670.5,-0.5 1530.5,-0.5"/>
<text text-anchor="start" x="1538.5" y="-18.5" font-family="Helvetica,sans-Serif" font-size="10.00">src/gui/windows/registers</text>
<text text-anchor="middle" x="1600.5" y="-7.5" font-family="Helvetica,sans-Serif" font-size="10.00">_window.cpp</text>
</a>
</g>
</g>
<!-- Node21&#45;&gt;Node22 -->
<g id="edge31" class="edge">
<title>Node21&#45;&gt;Node22</title>
<path fill="none" stroke="midnightblue" d="M1578.64,-58.28C1583.49,-49.02 1588.91,-38.66 1593.14,-30.58"/>
<polygon fill="midnightblue" stroke="midnightblue" points="1575.41,-56.91 1573.88,-67.4 1581.61,-60.16 1575.41,-56.91"/>
</g>
<!-- Node23&#45;&gt;Node2 -->
<g id="edge33" class="edge">
<title>Node23&#45;&gt;Node2</title>
<path fill="none" stroke="midnightblue" d="M1644.13,-66.97C1277.94,-24.62 1178.13,-87.44 817.5,-31 808.83,-29.64 799.55,-27.39 791.21,-25.06"/>
<polygon fill="midnightblue" stroke="midnightblue" points="1643.87,-70.47 1654.21,-68.16 1644.69,-63.51 1643.87,-70.47"/>
</g>
<!-- Node24 -->
<g id="node24" class="node">
<title>Node24</title>
<g id="a_node24"><a xlink:href="source__code__window_8cpp.html" target="_top" xlink:title=" ">
<polygon fill="none" stroke="black" points="1688.5,-0.5 1688.5,-30.5 1818.5,-30.5 1818.5,-0.5 1688.5,-0.5"/>
<text text-anchor="start" x="1696.5" y="-18.5" font-family="Helvetica,sans-Serif" font-size="10.00">src/gui/windows/source</text>
<text text-anchor="middle" x="1753.5" y="-7.5" font-family="Helvetica,sans-Serif" font-size="10.00">_code_window.cpp</text>
</a>
</g>
</g>
<!-- Node23&#45;&gt;Node24 -->
<g id="edge34" class="edge">
<title>Node23&#45;&gt;Node24</title>
<path fill="none" stroke="midnightblue" d="M1731.64,-58.28C1736.49,-49.02 1741.91,-38.66 1746.14,-30.58"/>
<polygon fill="midnightblue" stroke="midnightblue" points="1728.41,-56.91 1726.88,-67.4 1734.61,-60.16 1728.41,-56.91"/>
</g>
</g>
</svg>
