<?xml version="1.0" encoding="UTF-8" standalone="no"?>
<svg
   version="1.0"
   width="437.99371pt"
   height="107.95608pt"
   viewBox="0 0 437.99371 107.95608"
   preserveAspectRatio="xMidYMid meet"
   id="svg44"
   sodipodi:docname="logo_1.svg"
   inkscape:version="1.1.1 (3bf5ae0d25, 2021-09-20)"
   xmlns:inkscape="http://www.inkscape.org/namespaces/inkscape"
   xmlns:sodipodi="http://sodipodi.sourceforge.net/DTD/sodipodi-0.dtd"
   xmlns="http://www.w3.org/2000/svg"
   xmlns:svg="http://www.w3.org/2000/svg">
  <defs
     id="defs48" />
  <sodipodi:namedview
     id="namedview46"
     pagecolor="#ffffff"
     bordercolor="#666666"
     borderopacity="1.0"
     inkscape:pageshadow="2"
     inkscape:pageopacity="0.0"
     inkscape:pagecheckerboard="0"
     inkscape:document-units="pt"
     showgrid="false"
     fit-margin-top="0"
     fit-margin-left="0"
     fit-margin-right="0"
     fit-margin-bottom="0"
     inkscape:zoom="0.89822404"
     inkscape:cx="145.84335"
     inkscape:cy="121.90722"
     inkscape:window-width="1904"
     inkscape:window-height="1000"
     inkscape:window-x="8"
     inkscape:window-y="40"
     inkscape:window-maximized="0"
     inkscape:current-layer="svg44" />
  <g
     id="g1007"
     transform="translate(-54.147536,-31.860149)"
     style="fill:#333333">
    <path
       d="m 156.79058,69.31478 c -1.2,0.9 -1.7,2.3 -1.4,4.2 l 0.3,3 11.8,0.5 11.7,0.5 -10.2,13 c -13,16.6 -14.8,19.3 -14.8,22.1 0,4.9 1.8,5.4 19.5,5.4 17.2,0 19.5,-0.6 19.5,-4.8 0,-3.7 -1.4,-4.1 -13.6,-4.4 l -12.1,-0.3 12.3,-15.9 c 12.5,-15.9 13.7,-18.3 11.4,-22.7 -1,-1.8 -2.3,-1.9 -16.8,-1.9 -11.4,0 -16.3,0.4 -17.6,1.3 z"
       id="path8"
       style="fill:#333333;stroke:none;stroke-width:0.1" />
    <path
       d="m 325.49058,69.11478 c -2.5,1.3 -2.8,2.9 -4.4,28.1 -1.3,20.1 -1.1,20.8 5.1,20.8 4.6,0 4.9,-0.8 5.1,-14 0.1,-5.2 0.4,-12.6 0.8,-16.4 l 0.6,-6.8 4.4,11.7 c 4.9,12.8 6.9,15.1 12,14 3,-0.6 4.5,-3.7 11.3,-22.5 1.2,-3.2 1.4,-1.9 2.3,14.3 1.1,19.6 1.3,19.9 7.5,19.5 l 3.5,-0.3 -0.2,-8 c -0.3,-11.6 -2.4,-34.6 -3.4,-37.3 -1.1,-2.8 -5.2,-4.4 -9.4,-3.6 -3.1,0.6 -3.4,1 -8.1,13.5 -2.7,7.1 -5.1,12.9 -5.4,12.9 -0.4,0 -2.5,-5.1 -4.9,-11.3 -2.4,-6.1 -5.1,-12 -6,-13 -2.1,-2.2 -7.9,-3 -10.8,-1.6 z"
       id="path10"
       style="fill:#333333;stroke:none;stroke-width:0.1" />
    <path
       d="m 426.39058,90.61478 0.3,21.6 3.2,2.8 c 4.1,3.7 10.5,4.8 15.6,2.6 3.1,-1.2 3.7,-2 3.7,-4.5 0,-2.9 -0.1,-3 -4.8,-2.9 -2.7,0.1 -5.4,-0.2 -6,-0.6 -0.8,-0.5 -1.2,-4.2 -1.2,-11.1 v -10.4 l 5.8,-0.3 5.7,-0.3 0.3,-3.8 0.3,-3.7 h -6 c -6.1,0 -6.1,0 -6.1,-2.9 0,-1.6 -0.4,-4.1 -1,-5.5 -0.8,-2.3 -1.5,-2.6 -5.5,-2.6 h -4.6 z"
       id="path12"
       style="fill:#333333;stroke:none;stroke-width:0.1" />
    <path
       d="m 210.99058,78.91478 c -7.9,2.6 -12.7,9.7 -12.8,18.9 0,6.1 2,11.6 5.8,15.5 7.6,8 29.2,6.8 29.2,-1.5 0,-3.6 -1.7,-4.3 -6.3,-2.3 -2,0.8 -5.1,1.5 -6.9,1.5 -3.8,0 -9.2,-3 -10.7,-5.8 -1.2,-2.2 -1.3,-2.2 14.2,-4.3 4.9,-0.7 9.5,-1.9 10.3,-2.6 3.3,-3.4 -0.3,-13.7 -6.2,-17.3 -3.7,-2.4 -12.4,-3.4 -16.6,-2.1 z m 12.2,9.5 c 3.5,3.8 2.1,5.2 -5.6,6.1 -3.7,0.4 -7.3,0.9 -8.1,1.2 -2.4,0.9 -1.4,-4.3 1.3,-7.1 3.6,-3.5 9.1,-3.6 12.4,-0.2 z"
       id="path18"
       style="fill:#333333;stroke:none;stroke-width:0.1" />
    <path
       d="m 252.19058,79.51478 c -8.7,2.7 -9,3.4 -9,20.8 0,10.6 0.4,15.7 1.2,16.5 0.7,0.7 2.9,1.2 5,1.2 h 3.8 v -14.5 c 0,-16.5 -0.1,-16.3 9.2,-17 5.4,-0.3 7.3,-1.9 6.2,-5 -1.4,-3.5 -8.5,-4.4 -16.4,-2 z"
       id="path20"
       style="fill:#333333;stroke:none;stroke-width:0.1" />
    <path
       d="m 283.69058,79.91478 c -19.4,8.9 -12.8,39 8.6,39.1 5,0 11.8,-3.1 14.8,-6.7 6.7,-8.1 6.3,-21.4 -0.8,-28.4 -5.8,-5.9 -15.1,-7.5 -22.6,-4 z m 11.9,7.1 c 5.1,1.9 7.4,12.6 4.1,18.9 -2.9,5.6 -10.6,6.3 -14.5,1.4 -2.6,-3.3 -2.8,-13.7 -0.4,-17.1 2.6,-3.7 6.5,-4.9 10.8,-3.2 z"
       id="path22"
       style="fill:#333333;stroke:none;stroke-width:0.1" />
    <path
       d="m 391.69058,78.91478 c -6.7,1.7 -8.9,4.3 -6.6,8 0.7,1.1 1.7,1.2 5.4,0.2 9.3,-2.3 15.7,-0.5 15.7,4.3 0,2.1 -0.5,2.4 -7.5,2.9 -12,1.1 -16.5,4.5 -16.5,12.5 0,8.2 8.4,13.1 20.3,11.8 5.9,-0.6 8.8,-1.7 12,-4.4 1.4,-1.3 1.7,-3.3 1.7,-13.3 0,-12.7 -0.8,-16.1 -4.3,-18.9 -4.1,-3.4 -13.1,-4.8 -20.2,-3.1 z m 14.5,26.5 c 0,4.9 -0.9,5.6 -6.9,5.6 -4.8,0 -7.4,-1.9 -6.9,-5 0.4,-3.1 4,-5 9.6,-5 h 4.2 z"
       id="path24"
       style="fill:#333333;stroke:none;stroke-width:0.1" />
    <path
       d="m 467.99058,79.01478 c -7.9,2.4 -12.8,9.6 -12.8,19 0,10.6 5.6,17.9 15.4,20.1 9.8,2.2 19.6,-1.1 19.6,-6.6 0,-3.4 -1.3,-3.8 -7,-1.9 -6.8,2.2 -11.7,1.4 -15.3,-2.7 -1.6,-1.7 -2.7,-3.3 -2.5,-3.5 0.2,-0.2 5.3,-1.1 11.4,-2 6,-0.8 11.9,-2.2 13.2,-3 2.8,-1.8 2.9,-5.4 0.1,-11 -3.4,-7.1 -13.6,-11 -22.1,-8.4 z m 12.2,9.7 c 1.1,1.4 1.9,3.1 1.7,3.7 -0.2,0.6 -2.8,1.4 -5.8,1.8 -3,0.4 -6.6,1 -8.1,1.3 -2.4,0.4 -2.8,0.1 -2.8,-1.9 0,-1.3 1.2,-3.5 2.6,-5 3.7,-3.7 9.4,-3.6 12.4,0.1 z"
       id="path26"
       style="fill:#333333;stroke:none;stroke-width:0.1" />
  </g>
  <g
     id="g857"
     transform="scale(0.75473513)"
     style="stroke-width:1.32497">
    <path
       d="m 54.525354,1.8892213 c 0,1 1.5,4.2 3.4,7 4,5.8999997 5.1,11.0999997 4.4,21.6999997 -0.6,9.3 -1.8,10.9 -4.3,5.4 -3.6,-8 -15,-16.4 -24,-17.7 l -4.5,-0.6 v 3.5 c 0,5 2.6,11.8 6,16 2.8,3.4 3.2,3.6 6.5,2.7 4,-1.1 9.5,0.7 13.7,4.8 l 2.6,2.5 3,-2.2 c 3.7,-2.8 10.2,-3.7 14.300003,-2 1.7,0.8 4.4,3.1 6,5.4 2.9,3.9 3,4 8.6,3.7 8.8,-0.4 17.700003,-5.9 21.900003,-13.6 1.7,-3.1 1.7,-3.7 0.4,-4.6 -2.9,-1.9 -14.300003,-0.4 -20.700003,2.8 l -6,3 0.9,-4.1 c 1.6,-6.9 -0.6,-20.6 -3.4,-20.6 -2.3,0 -8.000003,3.2 -11.600003,6.4 l -3.9,3.6 -0.7,-6 c -0.8,-7.1 -2.6,-11.5999997 -6.2,-15.8999997 -2.9,-3.49999999 -6.4,-4.2 -6.4,-1.2 z"
       id="path2"
       style="fill:#005500;stroke:none;stroke-width:0.132497" />
    <g
       id="g7948"
       style="fill:#800000;stroke-width:1.32497"
       transform="translate(-24.665223,-22.025559)">
      <path
         d="m 62.490577,67.01478 c -9.8,5.9 -10.6,24.9 -1.3,30.4 9.3,5.4 20.3,-3.4 20.4,-16.3 0,-3.3 -0.7,-7 -1.7,-9.1 -3.2,-6.7 -11,-8.9 -17.4,-5 z m 8.8,6.1 c 1,1.9 0.6,2.6 -3.5,6.4 -2.5,2.3 -4.6,4.9 -4.6,5.8 0,2.1 -1.6,2.2 -2.4,0.1 -3.1,-8.1 6.6,-19.5 10.5,-12.3 z"
         id="path4"
         style="fill:#800000;stroke:none;stroke-width:0.132497" />
      <path
         d="m 91.690577,67.71478 c -1.1,0.3 -3.2,1.4 -4.7,2.4 -2.4,1.8 -2.6,2.3 -2.1,7.8 0.4,4 0,7.4 -1.1,10.9 -2.1,6.2 -1.1,8.7 4,10.8 11.9,5 22.800003,-11.8 16.400003,-25.2 -1.4,-2.7 -3.3,-4.8 -5.400003,-5.8 -3.5,-1.7 -3.8,-1.7 -7.1,-0.9 z"
         id="path6"
         style="fill:#800000;stroke:none;stroke-width:0.132497" />
      <path
         d="m 41.490577,71.61478 c -4.3,2.1 -7.3,8.4 -7.3,15.3 0,4.7 0.4,5.7 3.5,8.8 2.9,2.9 4,3.4 7.2,3.1 2.9,-0.2 3.8,0.1 3.8,1.2 0,1.1 -1.3,1.6 -4.7,1.8 -4.5,0.3 -4.8,0.5 -5.4,3.8 -0.8,4.6 1.8,11.6 5.7,14.8 3.7,3.1 8.7,4.1 13.2,2.7 5.7,-1.9 7.4,-4.7 7.9,-12.7 l 0.3,-7 -4.9,-2.5 c -3.9,-1.9 -5.5,-3.4 -7.4,-7 -2.6,-5.2 -3.2,-13.3 -1.2,-18.4 0.9,-2.5 0.8,-3.1 -0.6,-4.2 -2.4,-1.7 -6.2,-1.6 -10.1,0.3 z m 3.6,7.8 c 0.9,1.1 0.7,2.3 -0.9,5.2 -1.1,2.1 -2,4.7 -2,5.6 0,2.4 -1.7,2.3 -3,-0.1 -1.4,-2.6 -1.3,-4.5 0.4,-8.6 1.6,-3.7 3.6,-4.4 5.5,-2.1 z"
         id="path14"
         style="fill:#800000;stroke:none;stroke-width:0.132497" />
      <path
         d="m 110.99058,78.01478 c -1,0.6 -1.4,1.8 -1.1,3 1.4,5.4 -3.7,16.4 -9.3,20.1 -2.400003,1.5 -2.700003,2.4 -2.800003,7.6 -0.1,3.8 -1,7.5 -2.4,10.3 l -2.2,4.5 2.5,2.2 c 6.800003,6 18.100003,-1 20.900003,-12.9 0.6,-2.4 0.4,-2.6 -2.9,-2.5 -3.6,0.1 -9.2,-3.1 -8.4,-4.8 0.5,-1.2 1.4,-1.1 5.7,0.7 2.9,1.1 3.7,1 7,-0.7 4.3,-2.3 8.2,-9.1 8.2,-14.3 0,-4.3 -2.6,-9.9 -5.5,-11.8 -2.9,-1.9 -7.7,-2.6 -9.7,-1.4 z"
         id="path16"
         style="fill:#800000;stroke:none;stroke-width:0.132497" />
      <path
         d="m 27.190577,95.21478 c -3.1,5.5 -3.4,14.7 -0.6,19.4 2.2,3.7 6.4,6.4 9.9,6.4 h 2.6 l -2.1,-4.7 c -1.6,-3.7 -1.9,-6 -1.5,-10.9 0.3,-4.5 0.1,-6.7 -0.8,-7.4 -0.7,-0.6 -1.8,-2.4 -2.5,-4 -0.7,-1.7 -1.6,-3 -1.9,-3 -0.4,0 -1.8,1.9 -3.1,4.2 z"
         id="path28"
         style="fill:#800000;stroke:none;stroke-width:0.132497" />
      <path
         d="m 75.890577,99.51478 c -1.5,1.4 -3.4,2.5 -4.2,2.5 -2,0 -3.8,7.6 -3.1,12.4 1.5,8.8 7.3,13.6 14.4,11.7 6.7,-1.8 11.2,-8.9 11.2,-17.6 0,-4.2 -0.2,-4.5 -2.6,-4.5 -3.4,0 -9.3,-2.8 -10.7,-5.2 -1.5,-2.3 -1.6,-2.3 -5,0.7 z"
         id="path30"
         style="fill:#800000;stroke:none;stroke-width:0.132497" />
      <path
         d="m 123.39058,106.11478 c -2.1,1.9 -3.2,4 -3.2,5.7 0,4.2 -4.4,12.6 -8.1,15.5 l -3.4,2.7 h 4.4 c 6.2,0 10.4,-2.9 13.7,-9.6 2.1,-4.4 2.6,-6.4 2.2,-10.5 -0.7,-6.8 -1.7,-7.5 -5.6,-3.8 z"
         id="path32"
         style="fill:#800000;stroke:none;stroke-width:0.132497" />
      <path
         d="m 64.990577,122.71478 c -3.4,4.1 -13.8,5.6 -19.2,2.8 -6.1,-3.2 -8.6,-0.9 -8.6,7.8 0,11.9 12.2,19.5 21.8,13.7 2.8,-1.7 3.2,-2.4 2.5,-4.3 -0.4,-1.2 -0.8,-4.2 -0.8,-6.7 0,-3.3 0.4,-4.5 1.6,-4.8 1.4,-0.2 1.7,0.9 2.1,6.4 0.4,6.2 0.7,6.9 4.1,10 2.9,2.7 4.5,3.4 7.6,3.4 8.4,0 15.5,-10.7 13.7,-20.5 l -0.7,-3.3 -3.9,1.5 c -5.5,2.2 -10.2,1.1 -15,-3.7 -3.4,-3.4 -4,-3.7 -5.2,-2.3 z"
         id="path34"
         style="fill:#800000;stroke:none;stroke-width:0.132497" />
      <path
         d="m 93.190577,133.61478 c 0,2.4 -0.7,6.1 -1.5,8 -2.3,5.6 0.8,9.7 7.4,9.7 7.000003,0 13.700003,-6 16.100003,-14.3 0.8,-2.8 0.7,-3 -1.8,-3 -1.5,0 -4,-0.7 -5.6,-1.5 -1.5,-0.8 -3.8,-1.2 -5.1,-0.9 -1.2,0.3 -3.900003,-0.1 -5.900003,-1 l -3.6,-1.5 z"
         id="path36"
         style="fill:#800000;stroke:none;stroke-width:0.132497" />
      <path
         d="m 59.690577,150.41478 c -2.2,1.1 -4.2,2.2 -4.3,2.3 -1.2,0.6 2.4,7.6 4.9,9.8 5.7,4.8 14.8,2.3 19.2,-5.2 l 1.9,-3.3 -3.1,0.6 c -4.2,0.9 -7.5,-0.1 -11.3,-3.5 l -3.3,-2.9 z"
         id="path38"
         style="fill:#800000;stroke:none;stroke-width:0.132497" />
      <path
         d="m 86.490577,150.31478 c -0.6,0.6 -1.5,2.8 -2.2,4.7 -0.6,1.9 -2.1,4.5 -3.3,5.8 -1.9,2 -2,2.4 -0.8,3.2 4.4,2.8 13,-0.3 16.2,-5.8 1.8,-3 1.8,-3 -0.6,-3.6 -1.4,-0.3 -3.8,-1.7 -5.4,-3.1 -2.3,-1.9 -3.2,-2.2 -3.9,-1.2 z"
         id="path40"
         style="fill:#800000;stroke:none;stroke-width:0.132497" />
    </g>
  </g>
  <text
     xml:space="preserve"
     style="font-size:30px;line-height:0.661458em;font-family:sans-serif;stroke-width:0.75"
     x="105.87225"
     y="139.36244"
     id="text2749"><tspan
       sodipodi:role="line"
       id="tspan2747"
       style="font-style:normal;font-variant:normal;font-weight:normal;font-stretch:normal;font-size:30px;font-family:'Andale Mono';-inkscape-font-specification:'Andale Mono, Normal';font-variant-ligatures:normal;font-variant-caps:normal;font-variant-numeric:normal;font-variant-east-asian:normal;stroke-width:0.75"
       x="105.87225"
       y="139.36244" /></text>
</svg>
